<?xml version="1.0" encoding="UTF-8" standalone="no"?>
<!DOCTYPE svg PUBLIC "-//W3C//DTD SVG 1.1//EN"
 "http://www.w3.org/Graphics/SVG/1.1/DTD/svg11.dtd">
<!-- Generated by graphviz version 2.43.0 (0)
 -->
<!-- Title: AscEmu/src/world/Server/Script/AchievementScript.hpp Pages: 1 -->
<svg width="965pt" height="203pt"
 viewBox="0.00 0.00 965.00 203.00" xmlns="http://www.w3.org/2000/svg" xmlns:xlink="http://www.w3.org/1999/xlink">
<g id="graph0" class="graph" transform="scale(1 1) rotate(0) translate(4 199)">
<title>AscEmu/src/world/Server/Script/AchievementScript.hpp</title>
<!-- Node1 -->
<g id="Node000001" class="node">
<title>Node1</title>
<g id="a_Node000001"><a xlink:title=" ">
<polygon fill="#999999" stroke="#666666" points="634.5,-195 470.5,-195 470.5,-165 634.5,-165 634.5,-195"/>
<text text-anchor="start" x="478.5" y="-183" font-family="Helvetica,sans-Serif" font-size="10.00">AscEmu/src/world/Server</text>
<text text-anchor="middle" x="552.5" y="-172" font-family="Helvetica,sans-Serif" font-size="10.00">/Script/AchievementScript.hpp</text>
</a>
</g>
</g>
<!-- Node2 -->
<g id="Node000002" class="node">
<title>Node2</title>
<g id="a_Node000002"><a xlink:href="Saurfang_8hpp.html" target="_top" xlink:title=" ">
<polygon fill="white" stroke="#666666" points="308,-129 143,-129 143,-88 308,-88 308,-129"/>
<text text-anchor="start" x="151" y="-117" font-family="Helvetica,sans-Serif" font-size="10.00">AscEmu/src/scripts</text>
<text text-anchor="start" x="151" y="-106" font-family="Helvetica,sans-Serif" font-size="10.00">/InstanceScripts/Wotlk</text>
<text text-anchor="middle" x="225.5" y="-95" font-family="Helvetica,sans-Serif" font-size="10.00">/IcecrownCitadel/Saurfang.hpp</text>
</a>
</g>
</g>
<!-- Node1&#45;&gt;Node2 -->
<g id="edge1_Node000001_Node000002" class="edge">
<title>Node1&#45;&gt;Node2</title>
<g id="a_edge1_Node000001_Node000002"><a xlink:title=" ">
<path fill="none" stroke="#63b8ff" d="M476.46,-162.84C426.03,-152.12 359.86,-138.06 308.13,-127.06"/>
<polygon fill="#63b8ff" stroke="#63b8ff" points="475.82,-166.28 486.33,-164.94 477.27,-159.43 475.82,-166.28"/>
</a>
</g>
</g>
<!-- Node5 -->
<g id="Node000005" class="node">
<title>Node5</title>
<g id="a_Node000005"><a xlink:href="Ichron_8hpp.html" target="_top" xlink:title=" ">
<polygon fill="white" stroke="#666666" points="466,-129 341,-129 341,-88 466,-88 466,-129"/>
<text text-anchor="start" x="349" y="-117" font-family="Helvetica,sans-Serif" font-size="10.00">AscEmu/src/scripts</text>
<text text-anchor="start" x="349" y="-106" font-family="Helvetica,sans-Serif" font-size="10.00">/InstanceScripts/Wotlk</text>
<text text-anchor="middle" x="403.5" y="-95" font-family="Helvetica,sans-Serif" font-size="10.00">/VioletHold/Ichron.hpp</text>
</a>
</g>
</g>
<!-- Node1&#45;&gt;Node5 -->
<g id="edge4_Node000001_Node000005" class="edge">
<title>Node1&#45;&gt;Node5</title>
<g id="a_edge4_Node000001_Node000005"><a xlink:title=" ">
<path fill="none" stroke="#63b8ff" d="M513.14,-160.64C492.29,-150.92 466.69,-138.97 445.46,-129.07"/>
<polygon fill="#63b8ff" stroke="#63b8ff" points="511.81,-163.88 522.35,-164.94 514.76,-157.54 511.81,-163.88"/>
</a>
</g>
</g>
<!-- Node8 -->
<g id="Node000008" class="node">
<title>Node8</title>
<g id="a_Node000008"><a xlink:href="Zuramat_8hpp.html" target="_top" xlink:title=" ">
<polygon fill="white" stroke="#666666" points="621,-129 484,-129 484,-88 621,-88 621,-129"/>
<text text-anchor="start" x="492" y="-117" font-family="Helvetica,sans-Serif" font-size="10.00">AscEmu/src/scripts</text>
<text text-anchor="start" x="492" y="-106" font-family="Helvetica,sans-Serif" font-size="10.00">/InstanceScripts/Wotlk</text>
<text text-anchor="middle" x="552.5" y="-95" font-family="Helvetica,sans-Serif" font-size="10.00">/VioletHold/Zuramat.hpp</text>
</a>
</g>
</g>
<!-- Node1&#45;&gt;Node8 -->
<g id="edge7_Node000001_Node000008" class="edge">
<title>Node1&#45;&gt;Node8</title>
<g id="a_edge7_Node000001_Node000008"><a xlink:title=" ">
<path fill="none" stroke="#63b8ff" d="M552.5,-154.91C552.5,-146.47 552.5,-137.1 552.5,-129.07"/>
<polygon fill="#63b8ff" stroke="#63b8ff" points="549,-154.94 552.5,-164.94 556,-154.94 549,-154.94"/>
</a>
</g>
</g>
<!-- Node10 -->
<g id="Node000010" class="node">
<title>Node10</title>
<g id="a_Node000010"><a xlink:href="AchievementScript_8cpp.html" target="_top" xlink:title=" ">
<polygon fill="white" stroke="#666666" points="802,-123.5 639,-123.5 639,-93.5 802,-93.5 802,-123.5"/>
<text text-anchor="start" x="647" y="-111.5" font-family="Helvetica,sans-Serif" font-size="10.00">AscEmu/src/world/Server</text>
<text text-anchor="middle" x="720.5" y="-100.5" font-family="Helvetica,sans-Serif" font-size="10.00">/Script/AchievementScript.cpp</text>
</a>
</g>
</g>
<!-- Node1&#45;&gt;Node10 -->
<g id="edge10_Node000001_Node000010" class="edge">
<title>Node1&#45;&gt;Node10</title>
<g id="a_edge10_Node000001_Node000010"><a xlink:title=" ">
<path fill="none" stroke="#63b8ff" d="M595.74,-161.11C624,-149.42 660.38,-134.37 686.55,-123.54"/>
<polygon fill="#63b8ff" stroke="#63b8ff" points="594.4,-157.88 586.5,-164.94 597.08,-164.35 594.4,-157.88"/>
</a>
</g>
</g>
<!-- Node11 -->
<g id="Node000011" class="node">
<title>Node11</title>
<g id="a_Node000011"><a xlink:href="ScriptMgr_8cpp.html" target="_top" xlink:title=" ">
<polygon fill="white" stroke="#666666" points="957,-123.5 820,-123.5 820,-93.5 957,-93.5 957,-123.5"/>
<text text-anchor="start" x="828" y="-111.5" font-family="Helvetica,sans-Serif" font-size="10.00">AscEmu/src/world/Server</text>
<text text-anchor="middle" x="888.5" y="-100.5" font-family="Helvetica,sans-Serif" font-size="10.00">/Script/ScriptMgr.cpp</text>
</a>
</g>
</g>
<!-- Node1&#45;&gt;Node11 -->
<g id="edge11_Node000001_Node000011" class="edge">
<title>Node1&#45;&gt;Node11</title>
<g id="a_edge11_Node000001_Node000011"><a xlink:title=" ">
<path fill="none" stroke="#63b8ff" d="M641.35,-163.15C691.46,-153.88 755.14,-141.57 811.5,-129 819.04,-127.32 826.96,-125.44 834.74,-123.53"/>
<polygon fill="#63b8ff" stroke="#63b8ff" points="640.72,-159.71 631.52,-164.96 641.99,-166.59 640.72,-159.71"/>
</a>
</g>
</g>
<!-- Node3 -->
<g id="Node000003" class="node">
<title>Node3</title>
<g id="a_Node000003"><a xlink:href="Raid__IceCrownCitadel_8cpp.html" target="_top" xlink:title=" ">
<polygon fill="white" stroke="#666666" points="125,-52 0,-52 0,0 125,0 125,-52"/>
<text text-anchor="start" x="8" y="-40" font-family="Helvetica,sans-Serif" font-size="10.00">AscEmu/src/scripts</text>
<text text-anchor="start" x="8" y="-29" font-family="Helvetica,sans-Serif" font-size="10.00">/InstanceScripts/Wotlk</text>
<text text-anchor="start" x="8" y="-18" font-family="Helvetica,sans-Serif" font-size="10.00">/IcecrownCitadel/Raid</text>
<text text-anchor="middle" x="62.5" y="-7" font-family="Helvetica,sans-Serif" font-size="10.00">_IceCrownCitadel.cpp</text>
</a>
</g>
</g>
<!-- Node2&#45;&gt;Node3 -->
<g id="edge2_Node000002_Node000003" class="edge">
<title>Node2&#45;&gt;Node3</title>
<g id="a_edge2_Node000002_Node000003"><a xlink:title=" ">
<path fill="none" stroke="#63b8ff" d="M176.42,-83.26C156.49,-73.42 133.48,-62.06 113.38,-52.13"/>
<polygon fill="#63b8ff" stroke="#63b8ff" points="175.11,-86.52 185.63,-87.81 178.21,-80.24 175.11,-86.52"/>
</a>
</g>
</g>
<!-- Node4 -->
<g id="Node000004" class="node">
<title>Node4</title>
<g id="a_Node000004"><a xlink:href="Saurfang_8cpp.html" target="_top" xlink:title=" ">
<polygon fill="white" stroke="#666666" points="307.5,-46.5 143.5,-46.5 143.5,-5.5 307.5,-5.5 307.5,-46.5"/>
<text text-anchor="start" x="151.5" y="-34.5" font-family="Helvetica,sans-Serif" font-size="10.00">AscEmu/src/scripts</text>
<text text-anchor="start" x="151.5" y="-23.5" font-family="Helvetica,sans-Serif" font-size="10.00">/InstanceScripts/Wotlk</text>
<text text-anchor="middle" x="225.5" y="-12.5" font-family="Helvetica,sans-Serif" font-size="10.00">/IcecrownCitadel/Saurfang.cpp</text>
</a>
</g>
</g>
<!-- Node2&#45;&gt;Node4 -->
<g id="edge3_Node000002_Node000004" class="edge">
<title>Node2&#45;&gt;Node4</title>
<g id="a_edge3_Node000002_Node000004"><a xlink:title=" ">
<path fill="none" stroke="#63b8ff" d="M225.5,-77.37C225.5,-67.1 225.5,-55.9 225.5,-46.67"/>
<polygon fill="#63b8ff" stroke="#63b8ff" points="222,-77.6 225.5,-87.6 229,-77.6 222,-77.6"/>
</a>
</g>
</g>
<!-- Node6 -->
<g id="Node000006" class="node">
<title>Node6</title>
<g id="a_Node000006"><a xlink:href="Ichron_8cpp.html" target="_top" xlink:title=" ">
<polygon fill="white" stroke="#666666" points="451,-46.5 326,-46.5 326,-5.5 451,-5.5 451,-46.5"/>
<text text-anchor="start" x="334" y="-34.5" font-family="Helvetica,sans-Serif" font-size="10.00">AscEmu/src/scripts</text>
<text text-anchor="start" x="334" y="-23.5" font-family="Helvetica,sans-Serif" font-size="10.00">/InstanceScripts/Wotlk</text>
<text text-anchor="middle" x="388.5" y="-12.5" font-family="Helvetica,sans-Serif" font-size="10.00">/VioletHold/Ichron.cpp</text>
</a>
</g>
</g>
<!-- Node5&#45;&gt;Node6 -->
<g id="edge5_Node000005_Node000006" class="edge">
<title>Node5&#45;&gt;Node6</title>
<g id="a_edge5_Node000005_Node000006"><a xlink:title=" ">
<path fill="none" stroke="#63b8ff" d="M397.95,-77.69C396.02,-67.34 393.9,-56 392.17,-46.67"/>
<polygon fill="#63b8ff" stroke="#63b8ff" points="394.52,-78.41 399.79,-87.6 401.4,-77.13 394.52,-78.41"/>
</a>
</g>
</g>
<!-- Node7 -->
<g id="Node000007" class="node">
<title>Node7</title>
<g id="a_Node000007"><a xlink:href="Instance__TheVioletHold_8cpp.html" target="_top" xlink:title=" ">
<polygon fill="white" stroke="#666666" points="636,-52 469,-52 469,0 636,0 636,-52"/>
<text text-anchor="start" x="477" y="-40" font-family="Helvetica,sans-Serif" font-size="10.00">AscEmu/src/scripts</text>
<text text-anchor="start" x="477" y="-29" font-family="Helvetica,sans-Serif" font-size="10.00">/InstanceScripts/Wotlk</text>
<text text-anchor="start" x="477" y="-18" font-family="Helvetica,sans-Serif" font-size="10.00">/VioletHold/Instance_TheViolet</text>
<text text-anchor="middle" x="552.5" y="-7" font-family="Helvetica,sans-Serif" font-size="10.00">Hold.cpp</text>
</a>
</g>
</g>
<!-- Node5&#45;&gt;Node7 -->
<g id="edge6_Node000005_Node000007" class="edge">
<title>Node5&#45;&gt;Node7</title>
<g id="a_edge6_Node000005_Node000007"><a xlink:title=" ">
<path fill="none" stroke="#63b8ff" d="M449.11,-82.86C467.15,-73.11 487.86,-61.92 505.99,-52.13"/>
<polygon fill="#63b8ff" stroke="#63b8ff" points="447.08,-79.97 439.95,-87.81 450.41,-86.13 447.08,-79.97"/>
</a>
</g>
</g>
<!-- Node8&#45;&gt;Node7 -->
<g id="edge8_Node000008_Node000007" class="edge">
<title>Node8&#45;&gt;Node7</title>
<g id="a_edge8_Node000008_Node000007"><a xlink:title=" ">
<path fill="none" stroke="#63b8ff" d="M552.5,-77.49C552.5,-69.15 552.5,-60.19 552.5,-52.16"/>
<polygon fill="#63b8ff" stroke="#63b8ff" points="549,-77.6 552.5,-87.6 556,-77.6 549,-77.6"/>
</a>
</g>
</g>
<!-- Node9 -->
<g id="Node000009" class="node">
<title>Node9</title>
<g id="a_Node000009"><a xlink:href="Zuramat_8cpp.html" target="_top" xlink:title=" ">
<polygon fill="white" stroke="#666666" points="790.5,-46.5 654.5,-46.5 654.5,-5.5 790.5,-5.5 790.5,-46.5"/>
<text text-anchor="start" x="662.5" y="-34.5" font-family="Helvetica,sans-Serif" font-size="10.00">AscEmu/src/scripts</text>
<text text-anchor="start" x="662.5" y="-23.5" font-family="Helvetica,sans-Serif" font-size="10.00">/InstanceScripts/Wotlk</text>
<text text-anchor="middle" x="722.5" y="-12.5" font-family="Helvetica,sans-Serif" font-size="10.00">/VioletHold/Zuramat.cpp</text>
</a>
</g>
</g>
<!-- Node8&#45;&gt;Node9 -->
<g id="edge9_Node000008_Node000009" class="edge">
<title>Node8&#45;&gt;Node9</title>
<g id="a_edge9_Node000008_Node000009"><a xlink:title=" ">
<path fill="none" stroke="#63b8ff" d="M603.35,-83.42C628.16,-71.67 657.62,-57.72 681.05,-46.63"/>
<polygon fill="#63b8ff" stroke="#63b8ff" points="601.63,-80.36 594.09,-87.81 604.62,-86.69 601.63,-80.36"/>
</a>
</g>
</g>
</g>
</svg>
