<?xml version="1.0" encoding="UTF-8" standalone="no"?>
<!DOCTYPE svg PUBLIC "-//W3C//DTD SVG 1.1//EN"
 "http://www.w3.org/Graphics/SVG/1.1/DTD/svg11.dtd">
<!-- Generated by graphviz version 2.43.0 (0)
 -->
<!-- Title: AscEmu/src/shared/ByteBuffer.h Pages: 1 -->
<svg width="1184pt" height="192pt"
 viewBox="0.00 0.00 1184.00 192.00" xmlns="http://www.w3.org/2000/svg" xmlns:xlink="http://www.w3.org/1999/xlink">
<g id="graph0" class="graph" transform="scale(1 1) rotate(0) translate(4 188)">
<title>AscEmu/src/shared/ByteBuffer.h</title>
<!-- Node1 -->
<g id="Node000001" class="node">
<title>Node1</title>
<g id="a_Node000001"><a xlink:title=" ">
<polygon fill="#999999" stroke="#666666" points="811,-184 639,-184 639,-165 811,-165 811,-184"/>
<text text-anchor="middle" x="725" y="-172" font-family="Helvetica,sans-Serif" font-size="10.00">AscEmu/src/shared/ByteBuffer.h</text>
</a>
</g>
</g>
<!-- Node2 -->
<g id="Node000002" class="node">
<title>Node2</title>
<g id="a_Node000002"><a xlink:href="CommonTypes_8hpp.html" target="_top" xlink:title=" ">
<polygon fill="white" stroke="#666666" points="344,-74 234,-74 234,-55 344,-55 344,-74"/>
<text text-anchor="middle" x="289" y="-62" font-family="Helvetica,sans-Serif" font-size="10.00">CommonTypes.hpp</text>
</a>
</g>
</g>
<!-- Node1&#45;&gt;Node2 -->
<g id="edge1_Node000001_Node000002" class="edge">
<title>Node1&#45;&gt;Node2</title>
<g id="a_edge1_Node000001_Node000002"><a xlink:title=" ">
<path fill="none" stroke="#63b8ff" d="M638.94,-168.47C548.43,-162.19 412.66,-149.69 365,-129 340.25,-118.26 317.28,-96.82 303.21,-81.84"/>
<polygon fill="#63b8ff" stroke="#63b8ff" points="305.67,-79.34 296.36,-74.29 300.49,-84.05 305.67,-79.34"/>
</a>
</g>
</g>
<!-- Node4 -->
<g id="Node000004" class="node">
<title>Node4</title>
<g id="a_Node000004"><a xlink:href="CommonHelpers_8hpp.html" target="_top" xlink:title=" ">
<polygon fill="white" stroke="#666666" points="646.5,-129 527.5,-129 527.5,-110 646.5,-110 646.5,-129"/>
<text text-anchor="middle" x="587" y="-117" font-family="Helvetica,sans-Serif" font-size="10.00">CommonHelpers.hpp</text>
</a>
</g>
</g>
<!-- Node1&#45;&gt;Node4 -->
<g id="edge3_Node000001_Node000004" class="edge">
<title>Node1&#45;&gt;Node4</title>
<g id="a_edge3_Node000001_Node000004"><a xlink:title=" ">
<path fill="none" stroke="#63b8ff" d="M702.83,-164.98C680.23,-156.3 644.94,-142.75 619.25,-132.88"/>
<polygon fill="#63b8ff" stroke="#63b8ff" points="620.17,-129.49 609.58,-129.17 617.66,-136.02 620.17,-129.49"/>
</a>
</g>
</g>
<!-- Node5 -->
<g id="Node000005" class="node">
<title>Node5</title>
<g id="a_Node000005"><a xlink:href="WoWGuid_8h.html" target="_top" xlink:title=" ">
<polygon fill="white" stroke="#666666" points="168.5,-129 95.5,-129 95.5,-110 168.5,-110 168.5,-129"/>
<text text-anchor="middle" x="132" y="-117" font-family="Helvetica,sans-Serif" font-size="10.00">WoWGuid.h</text>
</a>
</g>
</g>
<!-- Node1&#45;&gt;Node5 -->
<g id="edge4_Node000001_Node000005" class="edge">
<title>Node1&#45;&gt;Node5</title>
<g id="a_edge4_Node000001_Node000005"><a xlink:title=" ">
<path fill="none" stroke="#63b8ff" d="M639,-167.85C533.52,-160.56 349.33,-146.7 192,-129 187.77,-128.52 183.37,-127.99 178.97,-127.42"/>
<polygon fill="#63b8ff" stroke="#63b8ff" points="179.14,-123.91 168.77,-126.05 178.21,-130.85 179.14,-123.91"/>
</a>
</g>
</g>
<!-- Node8 -->
<g id="Node000008" class="node">
<title>Node8</title>
<g id="a_Node000008"><a xlink:title=" ">
<polygon fill="#e0e0e0" stroke="#999999" points="223,-19 173,-19 173,0 223,0 223,-19"/>
<text text-anchor="middle" x="198" y="-7" font-family="Helvetica,sans-Serif" font-size="10.00">cstring</text>
</a>
</g>
</g>
<!-- Node1&#45;&gt;Node8 -->
<g id="edge20_Node000001_Node000008" class="edge">
<title>Node1&#45;&gt;Node8</title>
<g id="a_edge20_Node000001_Node000008"><a xlink:title=" ">
<path fill="none" stroke="#63b8ff" d="M638.88,-172.63C558.04,-169.76 434.53,-160.02 332,-129 280.82,-113.52 261.41,-113.16 225,-74 213.29,-61.4 206.22,-42.95 202.27,-29.19"/>
<polygon fill="#63b8ff" stroke="#63b8ff" points="205.62,-28.16 199.74,-19.35 198.84,-29.9 205.62,-28.16"/>
</a>
</g>
</g>
<!-- Node10 -->
<g id="Node000010" class="node">
<title>Node10</title>
<g id="a_Node000010"><a xlink:href="LocationVector_8h.html" target="_top" xlink:title=" ">
<polygon fill="white" stroke="#666666" points="470.5,-129 373.5,-129 373.5,-110 470.5,-110 470.5,-129"/>
<text text-anchor="middle" x="422" y="-117" font-family="Helvetica,sans-Serif" font-size="10.00">LocationVector.h</text>
</a>
</g>
</g>
<!-- Node1&#45;&gt;Node10 -->
<g id="edge10_Node000001_Node000010" class="edge">
<title>Node1&#45;&gt;Node10</title>
<g id="a_edge10_Node000001_Node000010"><a xlink:title=" ">
<path fill="none" stroke="#63b8ff" d="M676.32,-164.98C622.98,-155.65 537.44,-140.69 480.5,-130.73"/>
<polygon fill="#63b8ff" stroke="#63b8ff" points="481.01,-127.27 470.56,-128.99 479.81,-134.16 481.01,-127.27"/>
</a>
</g>
</g>
<!-- Node13 -->
<g id="Node000013" class="node">
<title>Node13</title>
<g id="a_Node000013"><a xlink:title=" ">
<polygon fill="#e0e0e0" stroke="#999999" points="678,-74 634,-74 634,-55 678,-55 678,-74"/>
<text text-anchor="middle" x="656" y="-62" font-family="Helvetica,sans-Serif" font-size="10.00">string</text>
</a>
</g>
</g>
<!-- Node1&#45;&gt;Node13 -->
<g id="edge18_Node000001_Node000013" class="edge">
<title>Node1&#45;&gt;Node13</title>
<g id="a_edge18_Node000001_Node000013"><a xlink:title=" ">
<path fill="none" stroke="#63b8ff" d="M638.89,-165.7C589.49,-159.25 534.31,-147.97 519,-129 513.7,-122.43 514.04,-116.83 519,-110 522.2,-105.59 584.57,-86.55 624.04,-74.85"/>
<polygon fill="#63b8ff" stroke="#63b8ff" points="625.17,-78.17 633.77,-71.98 623.19,-71.45 625.17,-78.17"/>
</a>
</g>
</g>
<!-- Node15 -->
<g id="Node000015" class="node">
<title>Node15</title>
<g id="a_Node000015"><a xlink:title=" ">
<polygon fill="#e0e0e0" stroke="#999999" points="713.5,-129 664.5,-129 664.5,-110 713.5,-110 713.5,-129"/>
<text text-anchor="middle" x="689" y="-117" font-family="Helvetica,sans-Serif" font-size="10.00">cstdlib</text>
</a>
</g>
</g>
<!-- Node1&#45;&gt;Node15 -->
<g id="edge16_Node000001_Node000015" class="edge">
<title>Node1&#45;&gt;Node15</title>
<g id="a_edge16_Node000001_Node000015"><a xlink:title=" ">
<path fill="none" stroke="#63b8ff" d="M719.06,-164.75C714.02,-157.34 706.66,-146.5 700.49,-137.41"/>
<polygon fill="#63b8ff" stroke="#63b8ff" points="703.35,-135.39 694.83,-129.09 697.56,-139.33 703.35,-135.39"/>
</a>
</g>
</g>
<!-- Node16 -->
<g id="Node000016" class="node">
<title>Node16</title>
<g id="a_Node000016"><a xlink:title=" ">
<polygon fill="#e0e0e0" stroke="#999999" points="790,-129 732,-129 732,-110 790,-110 790,-129"/>
<text text-anchor="middle" x="761" y="-117" font-family="Helvetica,sans-Serif" font-size="10.00">memory</text>
</a>
</g>
</g>
<!-- Node1&#45;&gt;Node16 -->
<g id="edge17_Node000001_Node000016" class="edge">
<title>Node1&#45;&gt;Node16</title>
<g id="a_edge17_Node000001_Node000016"><a xlink:title=" ">
<path fill="none" stroke="#63b8ff" d="M730.94,-164.75C735.98,-157.34 743.34,-146.5 749.51,-137.41"/>
<polygon fill="#63b8ff" stroke="#63b8ff" points="752.44,-139.33 755.17,-129.09 746.65,-135.39 752.44,-139.33"/>
</a>
</g>
</g>
<!-- Node17 -->
<g id="Node000017" class="node">
<title>Node17</title>
<g id="a_Node000017"><a xlink:title=" ">
<polygon fill="#e0e0e0" stroke="#999999" points="855.5,-129 808.5,-129 808.5,-110 855.5,-110 855.5,-129"/>
<text text-anchor="middle" x="832" y="-117" font-family="Helvetica,sans-Serif" font-size="10.00">vector</text>
</a>
</g>
</g>
<!-- Node1&#45;&gt;Node17 -->
<g id="edge19_Node000001_Node000017" class="edge">
<title>Node1&#45;&gt;Node17</title>
<g id="a_edge19_Node000001_Node000017"><a xlink:title=" ">
<path fill="none" stroke="#63b8ff" d="M742.19,-164.98C759.25,-156.54 785.63,-143.47 805.4,-133.68"/>
<polygon fill="#63b8ff" stroke="#63b8ff" points="807.09,-136.75 814.5,-129.17 803.98,-130.47 807.09,-136.75"/>
</a>
</g>
</g>
<!-- Node18 -->
<g id="Node000018" class="node">
<title>Node18</title>
<g id="a_Node000018"><a xlink:title=" ">
<polygon fill="#e0e0e0" stroke="#999999" points="926,-129 874,-129 874,-110 926,-110 926,-129"/>
<text text-anchor="middle" x="900" y="-117" font-family="Helvetica,sans-Serif" font-size="10.00">cassert</text>
</a>
</g>
</g>
<!-- Node1&#45;&gt;Node18 -->
<g id="edge21_Node000001_Node000018" class="edge">
<title>Node1&#45;&gt;Node18</title>
<g id="a_edge21_Node000001_Node000018"><a xlink:title=" ">
<path fill="none" stroke="#63b8ff" d="M753.12,-164.98C783.33,-155.84 831.41,-141.27 864.28,-131.32"/>
<polygon fill="#63b8ff" stroke="#63b8ff" points="865.4,-134.64 873.95,-128.39 863.37,-127.94 865.4,-134.64"/>
</a>
</g>
</g>
<!-- Node19 -->
<g id="Node000019" class="node">
<title>Node19</title>
<g id="a_Node000019"><a xlink:title=" ">
<polygon fill="#e0e0e0" stroke="#999999" points="1008,-129 944,-129 944,-110 1008,-110 1008,-129"/>
<text text-anchor="middle" x="976" y="-117" font-family="Helvetica,sans-Serif" font-size="10.00">algorithm</text>
</a>
</g>
</g>
<!-- Node1&#45;&gt;Node19 -->
<g id="edge22_Node000001_Node000019" class="edge">
<title>Node1&#45;&gt;Node19</title>
<g id="a_edge22_Node000001_Node000019"><a xlink:title=" ">
<path fill="none" stroke="#63b8ff" d="M765.33,-164.98C811.55,-155.23 886.95,-139.3 933.9,-129.39"/>
<polygon fill="#63b8ff" stroke="#63b8ff" points="934.69,-132.8 943.75,-127.31 933.24,-125.95 934.69,-132.8"/>
</a>
</g>
</g>
<!-- Node20 -->
<g id="Node000020" class="node">
<title>Node20</title>
<g id="a_Node000020"><a xlink:title=" ">
<polygon fill="#e0e0e0" stroke="#999999" points="1058,-129 1026,-129 1026,-110 1058,-110 1058,-129"/>
<text text-anchor="middle" x="1042" y="-117" font-family="Helvetica,sans-Serif" font-size="10.00">list</text>
</a>
</g>
</g>
<!-- Node1&#45;&gt;Node20 -->
<g id="edge23_Node000001_Node000020" class="edge">
<title>Node1&#45;&gt;Node20</title>
<g id="a_edge23_Node000001_Node000020"><a xlink:title=" ">
<path fill="none" stroke="#63b8ff" d="M806.63,-164.97C863.18,-158.16 940.25,-147.08 1016.24,-128.8"/>
<polygon fill="#63b8ff" stroke="#63b8ff" points="1017.1,-132.19 1025.99,-126.41 1015.44,-125.39 1017.1,-132.19"/>
</a>
</g>
</g>
<!-- Node21 -->
<g id="Node000021" class="node">
<title>Node21</title>
<g id="a_Node000021"><a xlink:title=" ">
<polygon fill="#e0e0e0" stroke="#999999" points="1114,-129 1076,-129 1076,-110 1114,-110 1114,-129"/>
<text text-anchor="middle" x="1095" y="-117" font-family="Helvetica,sans-Serif" font-size="10.00">map</text>
</a>
</g>
</g>
<!-- Node1&#45;&gt;Node21 -->
<g id="edge24_Node000001_Node000021" class="edge">
<title>Node1&#45;&gt;Node21</title>
<g id="a_edge24_Node000001_Node000021"><a xlink:title=" ">
<path fill="none" stroke="#63b8ff" d="M811.05,-166.28C878.17,-159.73 973.8,-148.39 1065.79,-128.93"/>
<polygon fill="#63b8ff" stroke="#63b8ff" points="1066.79,-132.3 1075.83,-126.78 1065.32,-125.46 1066.79,-132.3"/>
</a>
</g>
</g>
<!-- Node22 -->
<g id="Node000022" class="node">
<title>Node22</title>
<g id="a_Node000022"><a xlink:title=" ">
<polygon fill="#e0e0e0" stroke="#999999" points="1176,-129 1132,-129 1132,-110 1176,-110 1176,-129"/>
<text text-anchor="middle" x="1154" y="-117" font-family="Helvetica,sans-Serif" font-size="10.00">ctime</text>
</a>
</g>
</g>
<!-- Node1&#45;&gt;Node22 -->
<g id="edge25_Node000001_Node000022" class="edge">
<title>Node1&#45;&gt;Node22</title>
<g id="a_edge25_Node000001_Node000022"><a xlink:title=" ">
<path fill="none" stroke="#63b8ff" d="M811.37,-167.76C890.01,-161.63 1009.4,-150.1 1121.61,-128.99"/>
<polygon fill="#63b8ff" stroke="#63b8ff" points="1122.58,-132.36 1131.75,-127.05 1121.27,-125.49 1122.58,-132.36"/>
</a>
</g>
</g>
<!-- Node3 -->
<g id="Node000003" class="node">
<title>Node3</title>
<g id="a_Node000003"><a xlink:title=" ">
<polygon fill="#e0e0e0" stroke="#999999" points="320.5,-19 257.5,-19 257.5,0 320.5,0 320.5,-19"/>
<text text-anchor="middle" x="289" y="-7" font-family="Helvetica,sans-Serif" font-size="10.00">pthread.h</text>
</a>
</g>
</g>
<!-- Node2&#45;&gt;Node3 -->
<g id="edge2_Node000002_Node000003" class="edge">
<title>Node2&#45;&gt;Node3</title>
<g id="a_edge2_Node000002_Node000003"><a xlink:title=" ">
<path fill="none" stroke="#63b8ff" d="M289,-54.75C289,-47.8 289,-37.85 289,-29.13"/>
<polygon fill="#63b8ff" stroke="#63b8ff" points="292.5,-29.09 289,-19.09 285.5,-29.09 292.5,-29.09"/>
</a>
</g>
</g>
<!-- Node5&#45;&gt;Node2 -->
<g id="edge5_Node000005_Node000002" class="edge">
<title>Node5&#45;&gt;Node2</title>
<g id="a_edge5_Node000005_Node000002"><a xlink:title=" ">
<path fill="none" stroke="#63b8ff" d="M157.22,-109.98C183.36,-101.16 224.4,-87.31 253.73,-77.41"/>
<polygon fill="#63b8ff" stroke="#63b8ff" points="255.22,-80.6 263.58,-74.08 252.98,-73.96 255.22,-80.6"/>
</a>
</g>
</g>
<!-- Node6 -->
<g id="Node000006" class="node">
<title>Node6</title>
<g id="a_Node000006"><a xlink:href="Errors_8h.html" target="_top" xlink:title=" ">
<polygon fill="white" stroke="#666666" points="178,-74 68,-74 68,-55 178,-55 178,-74"/>
<text text-anchor="middle" x="123" y="-62" font-family="Helvetica,sans-Serif" font-size="10.00">Debugging/Errors.h</text>
</a>
</g>
</g>
<!-- Node5&#45;&gt;Node6 -->
<g id="edge6_Node000005_Node000006" class="edge">
<title>Node5&#45;&gt;Node6</title>
<g id="a_edge6_Node000005_Node000006"><a xlink:title=" ">
<path fill="none" stroke="#63b8ff" d="M130.51,-109.75C129.33,-102.8 127.64,-92.85 126.16,-84.13"/>
<polygon fill="#63b8ff" stroke="#63b8ff" points="129.58,-83.36 124.46,-74.09 122.68,-84.53 129.58,-83.36"/>
</a>
</g>
</g>
<!-- Node9 -->
<g id="Node000009" class="node">
<title>Node9</title>
<g id="a_Node000009"><a xlink:title=" ">
<polygon fill="#e0e0e0" stroke="#999999" points="50,-74 0,-74 0,-55 50,-55 50,-74"/>
<text text-anchor="middle" x="25" y="-62" font-family="Helvetica,sans-Serif" font-size="10.00">cstdint</text>
</a>
</g>
</g>
<!-- Node5&#45;&gt;Node9 -->
<g id="edge9_Node000005_Node000009" class="edge">
<title>Node5&#45;&gt;Node9</title>
<g id="a_edge9_Node000005_Node000009"><a xlink:title=" ">
<path fill="none" stroke="#63b8ff" d="M114.81,-109.98C97.75,-101.54 71.37,-88.47 51.6,-78.68"/>
<polygon fill="#63b8ff" stroke="#63b8ff" points="53.02,-75.47 42.5,-74.17 49.91,-81.75 53.02,-75.47"/>
</a>
</g>
</g>
<!-- Node7 -->
<g id="Node000007" class="node">
<title>Node7</title>
<g id="a_Node000007"><a xlink:title=" ">
<polygon fill="#e0e0e0" stroke="#999999" points="146,-19 100,-19 100,0 146,0 146,-19"/>
<text text-anchor="middle" x="123" y="-7" font-family="Helvetica,sans-Serif" font-size="10.00">cstdio</text>
</a>
</g>
</g>
<!-- Node6&#45;&gt;Node7 -->
<g id="edge7_Node000006_Node000007" class="edge">
<title>Node6&#45;&gt;Node7</title>
<g id="a_edge7_Node000006_Node000007"><a xlink:title=" ">
<path fill="none" stroke="#63b8ff" d="M123,-54.75C123,-47.8 123,-37.85 123,-29.13"/>
<polygon fill="#63b8ff" stroke="#63b8ff" points="126.5,-29.09 123,-19.09 119.5,-29.09 126.5,-29.09"/>
</a>
</g>
</g>
<!-- Node6&#45;&gt;Node8 -->
<g id="edge8_Node000006_Node000008" class="edge">
<title>Node6&#45;&gt;Node8</title>
<g id="a_edge8_Node000006_Node000008"><a xlink:title=" ">
<path fill="none" stroke="#63b8ff" d="M135.05,-54.98C146.46,-46.92 163.83,-34.65 177.43,-25.03"/>
<polygon fill="#63b8ff" stroke="#63b8ff" points="179.58,-27.8 185.73,-19.17 175.54,-22.08 179.58,-27.8"/>
</a>
</g>
</g>
<!-- Node10&#45;&gt;Node2 -->
<g id="edge11_Node000010_Node000002" class="edge">
<title>Node10&#45;&gt;Node2</title>
<g id="a_edge11_Node000010_Node000002"><a xlink:title=" ">
<path fill="none" stroke="#63b8ff" d="M400.63,-109.98C378.85,-101.3 344.84,-87.75 320.08,-77.88"/>
<polygon fill="#63b8ff" stroke="#63b8ff" points="321.34,-74.62 310.76,-74.17 318.75,-81.12 321.34,-74.62"/>
</a>
</g>
</g>
<!-- Node11 -->
<g id="Node000011" class="node">
<title>Node11</title>
<g id="a_Node000011"><a xlink:href="CommonDefines_8hpp.html" target="_top" xlink:title=" ">
<polygon fill="white" stroke="#666666" points="481.5,-74 362.5,-74 362.5,-55 481.5,-55 481.5,-74"/>
<text text-anchor="middle" x="422" y="-62" font-family="Helvetica,sans-Serif" font-size="10.00">CommonDefines.hpp</text>
</a>
</g>
</g>
<!-- Node10&#45;&gt;Node11 -->
<g id="edge12_Node000010_Node000011" class="edge">
<title>Node10&#45;&gt;Node11</title>
<g id="a_edge12_Node000010_Node000011"><a xlink:title=" ">
<path fill="none" stroke="#63b8ff" d="M422,-109.75C422,-102.8 422,-92.85 422,-84.13"/>
<polygon fill="#63b8ff" stroke="#63b8ff" points="425.5,-84.09 422,-74.09 418.5,-84.09 425.5,-84.09"/>
</a>
</g>
</g>
<!-- Node12 -->
<g id="Node000012" class="node">
<title>Node12</title>
<g id="a_Node000012"><a xlink:title=" ">
<polygon fill="#e0e0e0" stroke="#999999" points="550.5,-74 499.5,-74 499.5,-55 550.5,-55 550.5,-74"/>
<text text-anchor="middle" x="525" y="-62" font-family="Helvetica,sans-Serif" font-size="10.00">math.h</text>
</a>
</g>
</g>
<!-- Node10&#45;&gt;Node12 -->
<g id="edge13_Node000010_Node000012" class="edge">
<title>Node10&#45;&gt;Node12</title>
<g id="a_edge13_Node000010_Node000012"><a xlink:title=" ">
<path fill="none" stroke="#63b8ff" d="M438.55,-109.98C454.89,-101.57 480.13,-88.59 499.13,-78.81"/>
<polygon fill="#63b8ff" stroke="#63b8ff" points="500.86,-81.86 508.15,-74.17 497.66,-75.63 500.86,-81.86"/>
</a>
</g>
</g>
<!-- Node10&#45;&gt;Node13 -->
<g id="edge14_Node000010_Node000013" class="edge">
<title>Node10&#45;&gt;Node13</title>
<g id="a_edge14_Node000010_Node000013"><a xlink:title=" ">
<path fill="none" stroke="#63b8ff" d="M464.14,-109.93C503.21,-101.83 563.17,-89.03 623.93,-74.17"/>
<polygon fill="#63b8ff" stroke="#63b8ff" points="624.81,-77.56 633.69,-71.77 623.14,-70.76 624.81,-77.56"/>
</a>
</g>
</g>
<!-- Node14 -->
<g id="Node000014" class="node">
<title>Node14</title>
<g id="a_Node000014"><a xlink:title=" ">
<polygon fill="#e0e0e0" stroke="#999999" points="615.5,-74 568.5,-74 568.5,-55 615.5,-55 615.5,-74"/>
<text text-anchor="middle" x="592" y="-62" font-family="Helvetica,sans-Serif" font-size="10.00">cmath</text>
</a>
</g>
</g>
<!-- Node10&#45;&gt;Node14 -->
<g id="edge15_Node000010_Node000014" class="edge">
<title>Node10&#45;&gt;Node14</title>
<g id="a_edge15_Node000010_Node000014"><a xlink:title=" ">
<path fill="none" stroke="#63b8ff" d="M449.31,-109.98C479.04,-100.72 526.59,-85.89 558.54,-75.93"/>
<polygon fill="#63b8ff" stroke="#63b8ff" points="559.81,-79.2 568.32,-72.88 557.73,-72.52 559.81,-79.2"/>
</a>
</g>
</g>
</g>
</svg>
