<?xml version="1.0" encoding="UTF-8" standalone="no"?>
<!DOCTYPE svg PUBLIC "-//W3C//DTD SVG 1.1//EN"
 "http://www.w3.org/Graphics/SVG/1.1/DTD/svg11.dtd">
<!-- Generated by graphviz version 2.43.0 (0)
 -->
<!-- Title: readError Pages: 1 -->
<!--zoomable 431 -->

<svg id="main" version="1.1" xmlns="http://www.w3.org/2000/svg" xmlns:xlink="http://www.w3.org/1999/xlink" xml:space="preserve" onload="init(evt)">
<style type="text/css"><![CDATA[
.node, .edge {opacity: 0.7;}
.node.selected, .edge.selected {opacity: 1;}
.edge:hover path { stroke: red; }
.edge:hover polygon { stroke: red; fill: red; }
]]></style>

<defs>
  <circle id="rim" cx="0" cy="0" r="7"/>
  <circle id="rim2" cx="0" cy="0" r="3.5"/>
  <g id="zoomPlus">
    <use xlink:href="#rim" fill="#404040"><set attributeName="fill" to="#808080" begin="zoomplus.mouseover" end="zoomplus.mouseout"/></use>
    <path d="M-4,0h8M0,-4v8" fill="none" stroke="white" stroke-width="1.5" pointer-events="none"/>
  </g>
  <g id="zoomMin">
    <use xlink:href="#rim" fill="#404040"><set attributeName="fill" to="#808080" begin="zoomminus.mouseover" end="zoomminus.mouseout"/></use>
    <path d="M-4,0h8" fill="none" stroke="white" stroke-width="1.5" pointer-events="none"/>
  </g>
  <g id="arrowUp" transform="translate(30 24)">
    <use xlink:href="#rim"/>
    <path pointer-events="none" fill="none" stroke="white" stroke-width="1.5" d="M0,-3.0v7 M-2.5,-0.5L0,-3.0L2.5,-0.5"/>
  </g>
  <g id="arrowRight" transform="rotate(90) translate(36 -43)">
    <use xlink:href="#rim"/>
    <path pointer-events="none" fill="none" stroke="white" stroke-width="1.5" d="M0,-3.0v7 M-2.5,-0.5L0,-3.0L2.5,-0.5"/>
  </g>
  <g id="arrowDown" transform="rotate(180) translate(-30 -48)">
    <use xlink:href="#rim"/>
    <path pointer-events="none" fill="none" stroke="white" stroke-width="1.5" d="M0,-3.0v7 M-2.5,-0.5L0,-3.0L2.5,-0.5"/>
  </g>
  <g id="arrowLeft" transform="rotate(270) translate(-36 17)">
    <use xlink:href="#rim"/>
    <path pointer-events="none" fill="none" stroke="white" stroke-width="1.5" d="M0,-3.0v7 M-2.5,-0.5L0,-3.0L2.5,-0.5"/>
  </g>
  <g id="resetDef">
    <use xlink:href="#rim2" fill="#404040"><set attributeName="fill" to="#808080" begin="reset.mouseover" end="reset.mouseout"/></use>
  </g>
</defs>
<script type="application/ecmascript">
var viewWidth = 868;
var viewHeight = 431;
var sectionId = 'dynsection-19';
</script>
<script type="application/ecmascript" xlink:href="svg.min.js"/>
<svg id="graph" class="graph">
<g id="viewport">
<title>readError</title>
<!-- Node1 -->
<g id="Node000001" class="node">
<title>Node1</title>
<g id="a_Node000001"><a xlink:title=" ">
<polygon fill="#999999" stroke="#666666" points="62,-332.27 0,-332.27 0,-313.27 62,-313.27 62,-332.27"/>
<text text-anchor="middle" x="31" y="-320.27" font-family="Helvetica,sans-Serif" font-size="10.00">readError</text>
</a>
</g>
</g>
<!-- Node2 -->
<g id="Node000002" class="node">
<title>Node2</title>
<g id="a_Node000002"><a xlink:href="printf_8h.html#a9f315126362cae9675de1642105e631e" target="_top" xlink:title=" ">
<polygon fill="white" stroke="#666666" points="145,-332.27 98,-332.27 98,-313.27 145,-313.27 145,-332.27"/>
<text text-anchor="middle" x="121.5" y="-320.27" font-family="Helvetica,sans-Serif" font-size="10.00">fprintf</text>
</a>
</g>
</g>
<!-- Node1&#45;&gt;Node2 -->
<g id="edge1_Node000001_Node000002" class="edge">
<title>Node1&#45;&gt;Node2</title>
<g id="a_edge1_Node000001_Node000002"><a xlink:title=" ">
<path fill="none" stroke="#63b8ff" d="M62.46,-322.77C70.61,-322.77 79.46,-322.77 87.74,-322.77"/>
<polygon fill="#63b8ff" stroke="#63b8ff" points="87.82,-326.27 97.82,-322.77 87.82,-319.27 87.82,-326.27"/>
</a>
</g>
</g>
<!-- Node3 -->
<g id="Node000003" class="node">
<title>Node3</title>
<g id="a_Node000003"><a xlink:href="namespacedetail.html#a4662b86e5cfc5c32eb3efea5a84d3040" target="_top" xlink:title=" ">
<polygon fill="white" stroke="#666666" points="860,-413.27 738,-413.27 738,-394.27 860,-394.27 860,-413.27"/>
<text text-anchor="middle" x="799" y="-401.27" font-family="Helvetica,sans-Serif" font-size="10.00">detail::to_string_view</text>
</a>
</g>
</g>
<!-- Node2&#45;&gt;Node3 -->
<g id="edge2_Node000002_Node000003" class="edge">
<title>Node2&#45;&gt;Node3</title>
<g id="a_edge2_Node000002_Node000003"><a xlink:title=" ">
<path fill="none" stroke="#63b8ff" d="M132.12,-332.36C158.29,-357.39 233.97,-422.77 310.5,-422.77 310.5,-422.77 310.5,-422.77 448,-422.77 545.15,-422.77 657.25,-415.38 727.87,-409.82"/>
<polygon fill="#63b8ff" stroke="#63b8ff" points="728.29,-413.3 737.98,-409.01 727.73,-406.32 728.29,-413.3"/>
</a>
</g>
</g>
<!-- Node4 -->
<g id="Node000004" class="node">
<title>Node4</title>
<g id="a_Node000004"><a xlink:href="printf_8h.html#aa80a935767017049bd5427afbe5b5912" target="_top" xlink:title=" ">
<polygon fill="white" stroke="#666666" points="234,-313.27 181,-313.27 181,-294.27 234,-294.27 234,-313.27"/>
<text text-anchor="middle" x="207.5" y="-301.27" font-family="Helvetica,sans-Serif" font-size="10.00">vfprintf</text>
</a>
</g>
</g>
<!-- Node2&#45;&gt;Node4 -->
<g id="edge3_Node000002_Node000004" class="edge">
<title>Node2&#45;&gt;Node4</title>
<g id="a_edge3_Node000002_Node000004"><a xlink:title=" ">
<path fill="none" stroke="#63b8ff" d="M145.01,-317.68C152.97,-315.88 162.14,-313.8 170.92,-311.82"/>
<polygon fill="#63b8ff" stroke="#63b8ff" points="171.98,-315.17 180.96,-309.55 170.43,-308.34 171.98,-315.17"/>
</a>
</g>
</g>
<!-- Node5 -->
<g id="Node000005" class="node">
<title>Node5</title>
<g id="a_Node000005"><a xlink:href="namespacedetail.html#a1c8c2218e4c822aa8f743fb9c573717f" target="_top" xlink:title=" ">
<polygon fill="white" stroke="#666666" points="353,-232.27 270,-232.27 270,-213.27 353,-213.27 353,-232.27"/>
<text text-anchor="middle" x="311.5" y="-220.27" font-family="Helvetica,sans-Serif" font-size="10.00">detail::vprintf</text>
</a>
</g>
</g>
<!-- Node4&#45;&gt;Node5 -->
<g id="edge4_Node000004_Node000005" class="edge">
<title>Node4&#45;&gt;Node5</title>
<g id="a_edge4_Node000004_Node000005"><a xlink:title=" ">
<path fill="none" stroke="#63b8ff" d="M220.6,-294.16C237.85,-280.46 269.73,-255.14 290.52,-238.64"/>
<polygon fill="#63b8ff" stroke="#63b8ff" points="292.76,-241.33 298.41,-232.37 288.41,-235.85 292.76,-241.33"/>
</a>
</g>
</g>
<!-- Node6 -->
<g id="Node000006" class="node">
<title>Node6</title>
<g id="a_Node000006"><a xlink:href="fmt_2include_2fmt_2core_8h.html#a2c8e80c1b1c8b7747e99b8e9a24a0429" target="_top" xlink:title=" ">
<polygon fill="white" stroke="#666666" points="815,-235.27 783,-235.27 783,-216.27 815,-216.27 815,-235.27"/>
<text text-anchor="middle" x="799" y="-223.27" font-family="Helvetica,sans-Serif" font-size="10.00">arg</text>
</a>
</g>
</g>
<!-- Node5&#45;&gt;Node6 -->
<g id="edge5_Node000005_Node000006" class="edge">
<title>Node5&#45;&gt;Node6</title>
<g id="a_edge5_Node000005_Node000006"><a xlink:title=" ">
<path fill="none" stroke="#63b8ff" d="M353.22,-231.43C364.74,-233.55 377.32,-235.55 389,-236.77 527.38,-251.17 563.3,-251.54 702,-240.77 726.15,-238.89 753.42,-234.4 772.7,-230.82"/>
<polygon fill="#63b8ff" stroke="#63b8ff" points="773.62,-234.21 782.79,-228.89 772.31,-227.33 773.62,-234.21"/>
</a>
</g>
</g>
<!-- Node7 -->
<g id="Node000007" class="node">
<title>Node7</title>
<g id="a_Node000007"><a xlink:href="color_8h.html#af4a3b7f252e457605de5440249a15699" target="_top" xlink:title=" ">
<polygon fill="white" stroke="#666666" points="646.5,-394.27 596.5,-394.27 596.5,-375.27 646.5,-375.27 646.5,-394.27"/>
<text text-anchor="middle" x="621.5" y="-382.27" font-family="Helvetica,sans-Serif" font-size="10.00">format</text>
</a>
</g>
</g>
<!-- Node5&#45;&gt;Node7 -->
<g id="edge7_Node000005_Node000007" class="edge">
<title>Node5&#45;&gt;Node7</title>
<g id="a_edge7_Node000005_Node000007"><a xlink:title=" ">
<path fill="none" stroke="#63b8ff" d="M314.43,-232.5C320.24,-259.03 340.32,-332.78 389,-364.77 449.3,-404.4 538.36,-398.41 586.55,-391.21"/>
<polygon fill="#63b8ff" stroke="#63b8ff" points="587.14,-394.66 596.46,-389.62 586.04,-387.75 587.14,-394.66"/>
</a>
</g>
</g>
<!-- Node8 -->
<g id="Node000008" class="node">
<title>Node8</title>
<g id="a_Node000008"><a xlink:href="namespacedetail.html#a4bfbd26c5ac41fc8e3929b10631c2a31" target="_top" xlink:title=" ">
<polygon fill="white" stroke="#666666" points="665,-232.27 578,-232.27 578,-213.27 665,-213.27 665,-232.27"/>
<text text-anchor="middle" x="621.5" y="-220.27" font-family="Helvetica,sans-Serif" font-size="10.00">detail::get_arg</text>
</a>
</g>
</g>
<!-- Node5&#45;&gt;Node8 -->
<g id="edge9_Node000005_Node000008" class="edge">
<title>Node5&#45;&gt;Node8</title>
<g id="a_edge9_Node000005_Node000008"><a xlink:title=" ">
<path fill="none" stroke="#63b8ff" d="M353.08,-222.77C408.21,-222.77 506.85,-222.77 567.68,-222.77"/>
<polygon fill="#63b8ff" stroke="#63b8ff" points="567.85,-226.27 577.85,-222.77 567.85,-219.27 567.85,-226.27"/>
</a>
</g>
</g>
<!-- Node9 -->
<g id="Node000009" class="node">
<title>Node9</title>
<g id="a_Node000009"><a xlink:href="namespacedetail.html#ac22dbe18eb3fef4c672314e30ed0421a" target="_top" xlink:title=" ">
<polygon fill="white" stroke="#666666" points="505,-156.27 389,-156.27 389,-137.27 505,-137.27 505,-156.27"/>
<text text-anchor="middle" x="447" y="-144.27" font-family="Helvetica,sans-Serif" font-size="10.00">detail::parse_header</text>
</a>
</g>
</g>
<!-- Node5&#45;&gt;Node9 -->
<g id="edge11_Node000005_Node000009" class="edge">
<title>Node5&#45;&gt;Node9</title>
<g id="a_edge11_Node000005_Node000009"><a xlink:title=" ">
<path fill="none" stroke="#63b8ff" d="M325,-213.13C339.76,-202.02 365.29,-183.65 389,-170.77 395.81,-167.07 403.31,-163.55 410.57,-160.4"/>
<polygon fill="#63b8ff" stroke="#63b8ff" points="412.37,-163.44 420.24,-156.35 409.66,-156.98 412.37,-163.44"/>
</a>
</g>
</g>
<!-- Node11 -->
<g id="Node000011" class="node">
<title>Node11</title>
<g id="a_Node000011"><a xlink:href="namespacedetail.html#a338caba782225e115a9902d4d0835f5f" target="_top" xlink:title=" ">
<polygon fill="white" stroke="#666666" points="702,-121.27 541,-121.27 541,-102.27 702,-102.27 702,-121.27"/>
<text text-anchor="middle" x="621.5" y="-109.27" font-family="Helvetica,sans-Serif" font-size="10.00">detail::parse_nonnegative_int</text>
</a>
</g>
</g>
<!-- Node5&#45;&gt;Node11 -->
<g id="edge22_Node000005_Node000011" class="edge">
<title>Node5&#45;&gt;Node11</title>
<g id="a_edge22_Node000005_Node000011"><a xlink:title=" ">
<path fill="none" stroke="#63b8ff" d="M316.92,-213.03C326.65,-192.92 352.02,-147.07 389,-127.77 433.91,-104.34 490.55,-100.06 536.57,-101.78"/>
<polygon fill="#63b8ff" stroke="#63b8ff" points="536.66,-105.29 546.82,-102.27 536.99,-98.3 536.66,-105.29"/>
</a>
</g>
</g>
<!-- Node13 -->
<g id="Node000013" class="node">
<title>Node13</title>
<g id="a_Node000013"><a xlink:href="namespacedetail.html#ad64642bb9b2374fba5526c132a751951" target="_top" xlink:title=" ">
<polygon fill="white" stroke="#666666" points="854,-51.27 744,-51.27 744,-32.27 854,-32.27 854,-51.27"/>
<text text-anchor="middle" x="799" y="-39.27" font-family="Helvetica,sans-Serif" font-size="10.00">detail::to_unsigned</text>
</a>
</g>
</g>
<!-- Node5&#45;&gt;Node13 -->
<g id="edge26_Node000005_Node000013" class="edge">
<title>Node5&#45;&gt;Node13</title>
<g id="a_edge26_Node000005_Node000013"><a xlink:title=" ">
<path fill="none" stroke="#63b8ff" d="M313.69,-213.15C317.89,-183.79 334.74,-94.77 389,-52.77 499.07,32.42 680.27,-6.36 759.22,-29.24"/>
<polygon fill="#63b8ff" stroke="#63b8ff" points="758.63,-32.72 769.22,-32.21 760.63,-26.01 758.63,-32.72"/>
</a>
</g>
</g>
<!-- Node14 -->
<g id="Node000014" class="node">
<title>Node14</title>
<g id="a_Node000014"><a xlink:href="namespacedetail.html#a6a4a175ed2175e4da7b988e021175317" target="_top" xlink:title=" ">
<polygon fill="white" stroke="#666666" points="679.5,-65.77 563.5,-65.77 563.5,-35.77 679.5,-35.77 679.5,-65.77"/>
<text text-anchor="start" x="571.5" y="-53.77" font-family="Helvetica,sans-Serif" font-size="10.00">detail::throw_format</text>
<text text-anchor="middle" x="621.5" y="-42.77" font-family="Helvetica,sans-Serif" font-size="10.00">_error</text>
</a>
</g>
</g>
<!-- Node5&#45;&gt;Node14 -->
<g id="edge25_Node000005_Node000014" class="edge">
<title>Node5&#45;&gt;Node14</title>
<g id="a_edge25_Node000005_Node000014"><a xlink:title=" ">
<path fill="none" stroke="#63b8ff" d="M315.42,-213.08C323.15,-189.24 346.49,-127.54 389,-97.77 436.98,-64.17 503.49,-53.43 552.92,-50.5"/>
<polygon fill="#63b8ff" stroke="#63b8ff" points="553.38,-53.99 563.19,-49.99 553.03,-46.99 553.38,-53.99"/>
</a>
</g>
</g>
<!-- Node15 -->
<g id="Node000015" class="node">
<title>Node15</title>
<g id="a_Node000015"><a xlink:href="fmt_2include_2fmt_2core_8h.html#a05783ffcc62709c2284ee0da45486a98" target="_top" xlink:title=" ">
<polygon fill="white" stroke="#666666" points="670,-195.27 573,-195.27 573,-176.27 670,-176.27 670,-195.27"/>
<text text-anchor="middle" x="621.5" y="-183.27" font-family="Helvetica,sans-Serif" font-size="10.00">visit_format_arg</text>
</a>
</g>
</g>
<!-- Node5&#45;&gt;Node15 -->
<g id="edge27_Node000005_Node000015" class="edge">
<title>Node5&#45;&gt;Node15</title>
<g id="a_edge27_Node000005_Node000015"><a xlink:title=" ">
<path fill="none" stroke="#63b8ff" d="M353.08,-217.89C406.67,-211.46 501.35,-200.08 562.48,-192.74"/>
<polygon fill="#63b8ff" stroke="#63b8ff" points="563.23,-196.17 572.74,-191.51 562.4,-189.22 563.23,-196.17"/>
</a>
</g>
</g>
<!-- Node17 -->
<g id="Node000017" class="node">
<title>Node17</title>
<g id="a_Node000017"><a xlink:href="namespacedetail.html#a2e4362a340def2768ed1f8f66e764063" target="_top" xlink:title=" ">
<polygon fill="white" stroke="#666666" points="502,-318.77 392,-318.77 392,-288.77 502,-288.77 502,-318.77"/>
<text text-anchor="start" x="400" y="-306.77" font-family="Helvetica,sans-Serif" font-size="10.00">detail::parse_printf</text>
<text text-anchor="middle" x="447" y="-295.77" font-family="Helvetica,sans-Serif" font-size="10.00">_presentation_type</text>
</a>
</g>
</g>
<!-- Node5&#45;&gt;Node17 -->
<g id="edge23_Node000005_Node000017" class="edge">
<title>Node5&#45;&gt;Node17</title>
<g id="a_edge23_Node000005_Node000017"><a xlink:title=" ">
<path fill="none" stroke="#63b8ff" d="M325.44,-232.31C340.39,-243.15 365.91,-261.12 389,-274.77 394.2,-277.85 399.77,-280.93 405.32,-283.87"/>
<polygon fill="#63b8ff" stroke="#63b8ff" points="404.07,-287.16 414.55,-288.67 407.29,-280.95 404.07,-287.16"/>
</a>
</g>
</g>
<!-- Node19 -->
<g id="Node000019" class="node">
<title>Node19</title>
<g id="a_Node000019"><a xlink:href="namespacedetail.html#a29dacf26eedc9e3575fb57329a5ca0a3" target="_top" xlink:title=" ">
<polygon fill="white" stroke="#666666" points="484.5,-356.27 409.5,-356.27 409.5,-337.27 484.5,-337.27 484.5,-356.27"/>
<text text-anchor="middle" x="447" y="-344.27" font-family="Helvetica,sans-Serif" font-size="10.00">detail::write</text>
</a>
</g>
</g>
<!-- Node5&#45;&gt;Node19 -->
<g id="edge28_Node000005_Node000019" class="edge">
<title>Node5&#45;&gt;Node19</title>
<g id="a_edge28_Node000005_Node000019"><a xlink:title=" ">
<path fill="none" stroke="#63b8ff" d="M316.95,-232.44C326.9,-253.01 352.95,-301.41 389,-327.77 392.41,-330.26 396.17,-332.44 400.08,-334.35"/>
<polygon fill="#63b8ff" stroke="#63b8ff" points="398.81,-337.61 409.39,-338.3 401.55,-331.17 398.81,-337.61"/>
</a>
</g>
</g>
<!-- Node6&#45;&gt;Node6 -->
<g id="edge6_Node000006_Node000006" class="edge">
<title>Node6&#45;&gt;Node6</title>
<g id="a_edge6_Node000006_Node000006"><a xlink:title=" ">
<path fill="none" stroke="#63b8ff" d="M782.68,-230.24C755.92,-239.85 761.36,-253.27 799,-253.27 831.35,-253.27 839.91,-243.36 824.7,-234.47"/>
<polygon fill="#63b8ff" stroke="#63b8ff" points="825.88,-231.16 815.32,-230.24 822.99,-237.54 825.88,-231.16"/>
</a>
</g>
</g>
<!-- Node7&#45;&gt;Node3 -->
<g id="edge8_Node000007_Node000003" class="edge">
<title>Node7&#45;&gt;Node3</title>
<g id="a_edge8_Node000007_Node000003"><a xlink:title=" ">
<path fill="none" stroke="#63b8ff" d="M646.53,-387.37C667.44,-389.64 698.83,-393.03 727.61,-396.15"/>
<polygon fill="#63b8ff" stroke="#63b8ff" points="727.35,-399.64 737.67,-397.24 728.1,-392.68 727.35,-399.64"/>
</a>
</g>
</g>
<!-- Node8&#45;&gt;Node6 -->
<g id="edge10_Node000008_Node000006" class="edge">
<title>Node8&#45;&gt;Node6</title>
<g id="a_edge10_Node000008_Node000006"><a xlink:title=" ">
<path fill="none" stroke="#63b8ff" d="M665.43,-223.5C699.12,-224.08 744.84,-224.86 772.84,-225.34"/>
<polygon fill="#63b8ff" stroke="#63b8ff" points="772.93,-228.84 782.98,-225.51 773.05,-221.84 772.93,-228.84"/>
</a>
</g>
</g>
<!-- Node9&#45;&gt;Node8 -->
<g id="edge12_Node000009_Node000008" class="edge">
<title>Node9&#45;&gt;Node8</title>
<g id="a_edge12_Node000009_Node000008"><a xlink:title=" ">
<path fill="none" stroke="#63b8ff" d="M460.84,-156.47C478.16,-169.12 510.38,-191.1 541,-203.77 549.47,-207.28 558.74,-210.22 567.85,-212.67"/>
<polygon fill="#63b8ff" stroke="#63b8ff" points="567.08,-216.08 577.63,-215.13 568.79,-209.3 567.08,-216.08"/>
</a>
</g>
</g>
<!-- Node10 -->
<g id="Node000010" class="node">
<title>Node10</title>
<g id="a_Node000010"><a xlink:href="namespacedetail.html#ac2056b8550f21cf842853812a4ffd167" target="_top" xlink:title=" ">
<polygon fill="white" stroke="#666666" points="674.5,-158.27 568.5,-158.27 568.5,-139.27 674.5,-139.27 674.5,-158.27"/>
<text text-anchor="middle" x="621.5" y="-146.27" font-family="Helvetica,sans-Serif" font-size="10.00">detail::parse_flags</text>
</a>
</g>
</g>
<!-- Node9&#45;&gt;Node10 -->
<g id="edge13_Node000009_Node000010" class="edge">
<title>Node9&#45;&gt;Node10</title>
<g id="a_edge13_Node000009_Node000010"><a xlink:title=" ">
<path fill="none" stroke="#63b8ff" d="M505.44,-147.44C522.24,-147.63 540.69,-147.84 557.8,-148.04"/>
<polygon fill="#63b8ff" stroke="#63b8ff" points="558.21,-151.55 568.25,-148.16 558.29,-144.55 558.21,-151.55"/>
</a>
</g>
</g>
<!-- Node9&#45;&gt;Node11 -->
<g id="edge14_Node000009_Node000011" class="edge">
<title>Node9&#45;&gt;Node11</title>
<g id="a_edge14_Node000009_Node000011"><a xlink:title=" ">
<path fill="none" stroke="#63b8ff" d="M495.14,-137.21C516.24,-132.92 541.32,-127.84 563.47,-123.34"/>
<polygon fill="#63b8ff" stroke="#63b8ff" points="564.32,-126.74 573.42,-121.32 562.92,-119.88 564.32,-126.74"/>
</a>
</g>
</g>
<!-- Node9&#45;&gt;Node14 -->
<g id="edge17_Node000009_Node000014" class="edge">
<title>Node9&#45;&gt;Node14</title>
<g id="a_edge17_Node000009_Node000014"><a xlink:title=" ">
<path fill="none" stroke="#63b8ff" d="M464.02,-137.21C482.46,-126.26 513.73,-107.88 541,-92.77 554.29,-85.4 568.98,-77.56 582.07,-70.68"/>
<polygon fill="#63b8ff" stroke="#63b8ff" points="584.04,-73.59 591.28,-65.85 580.79,-67.39 584.04,-73.59"/>
</a>
</g>
</g>
<!-- Node9&#45;&gt;Node15 -->
<g id="edge19_Node000009_Node000015" class="edge">
<title>Node9&#45;&gt;Node15</title>
<g id="a_edge19_Node000009_Node000015"><a xlink:title=" ">
<path fill="none" stroke="#63b8ff" d="M490.2,-156.31C513.78,-161.64 543.37,-168.33 568.39,-173.99"/>
<polygon fill="#63b8ff" stroke="#63b8ff" points="567.91,-177.47 578.44,-176.26 569.46,-170.64 567.91,-177.47"/>
</a>
</g>
</g>
<!-- Node12 -->
<g id="Node000012" class="node">
<title>Node12</title>
<g id="a_Node000012"><a xlink:href="RecastContour_8cpp.html#a6f1109916123abdff2b46675c13307e3" target="_top" xlink:title=" ">
<polygon fill="white" stroke="#666666" points="818,-121.27 780,-121.27 780,-102.27 818,-102.27 818,-121.27"/>
<text text-anchor="middle" x="799" y="-109.27" font-family="Helvetica,sans-Serif" font-size="10.00">prev</text>
</a>
</g>
</g>
<!-- Node11&#45;&gt;Node12 -->
<g id="edge15_Node000011_Node000012" class="edge">
<title>Node11&#45;&gt;Node12</title>
<g id="a_edge15_Node000011_Node000012"><a xlink:title=" ">
<path fill="none" stroke="#63b8ff" d="M702.03,-111.77C726.29,-111.77 751.4,-111.77 769.85,-111.77"/>
<polygon fill="#63b8ff" stroke="#63b8ff" points="769.88,-115.27 779.88,-111.77 769.88,-108.27 769.88,-115.27"/>
</a>
</g>
</g>
<!-- Node11&#45;&gt;Node13 -->
<g id="edge16_Node000011_Node000013" class="edge">
<title>Node11&#45;&gt;Node13</title>
<g id="a_edge16_Node000011_Node000013"><a xlink:title=" ">
<path fill="none" stroke="#63b8ff" d="M671.02,-102.25C681.39,-99.64 692.18,-96.48 702,-92.77 727.79,-83.02 755.41,-67.79 774.37,-56.51"/>
<polygon fill="#63b8ff" stroke="#63b8ff" points="776.19,-59.5 782.94,-51.33 772.57,-53.51 776.19,-59.5"/>
</a>
</g>
</g>
<!-- Node14&#45;&gt;Node14 -->
<g id="edge18_Node000014_Node000014" class="edge">
<title>Node14&#45;&gt;Node14</title>
<g id="a_edge18_Node000014_Node000014"><a xlink:title=" ">
<path fill="none" stroke="#63b8ff" d="M590.91,-66.05C584.12,-75.18 594.31,-83.77 621.5,-83.77 637.64,-83.77 647.79,-80.74 651.96,-76.37"/>
<polygon fill="#63b8ff" stroke="#63b8ff" points="655.46,-76.09 652.09,-66.05 648.46,-76 655.46,-76.09"/>
</a>
</g>
</g>
<!-- Node15&#45;&gt;Node6 -->
<g id="edge20_Node000015_Node000006" class="edge">
<title>Node15&#45;&gt;Node6</title>
<g id="a_edge20_Node000015_Node000006"><a xlink:title=" ">
<path fill="none" stroke="#63b8ff" d="M664.59,-195.28C676.67,-198.01 689.86,-201 702,-203.77 726.05,-209.25 753.49,-215.54 772.85,-219.99"/>
<polygon fill="#63b8ff" stroke="#63b8ff" points="772.18,-223.42 782.71,-222.25 773.74,-216.6 772.18,-223.42"/>
</a>
</g>
</g>
<!-- Node16 -->
<g id="Node000016" class="node">
<title>Node16</title>
<g id="a_Node000016"><a xlink:href="namespacedetail.html#a49b6442202d11af60b96dc09859dd027" target="_top" xlink:title=" ">
<polygon fill="white" stroke="#666666" points="852,-197.77 746,-197.77 746,-167.77 852,-167.77 852,-197.77"/>
<text text-anchor="start" x="754" y="-185.77" font-family="Helvetica,sans-Serif" font-size="10.00">detail::convert_for</text>
<text text-anchor="middle" x="799" y="-174.77" font-family="Helvetica,sans-Serif" font-size="10.00">_visit</text>
</a>
</g>
</g>
<!-- Node15&#45;&gt;Node16 -->
<g id="edge21_Node000015_Node000016" class="edge">
<title>Node15&#45;&gt;Node16</title>
<g id="a_edge21_Node000015_Node000016"><a xlink:title=" ">
<path fill="none" stroke="#63b8ff" d="M670.46,-184.95C690.61,-184.61 714.31,-184.2 735.78,-183.83"/>
<polygon fill="#63b8ff" stroke="#63b8ff" points="735.85,-187.33 745.79,-183.66 735.73,-180.33 735.85,-187.33"/>
</a>
</g>
</g>
<!-- Node18 -->
<g id="Node000018" class="node">
<title>Node18</title>
<g id="a_Node000018"><a xlink:href="namespacedetail.html#a52a5e2ed06c229dcf95ea5c46d48d05e" target="_top" xlink:title=" ">
<polygon fill="white" stroke="#666666" points="651,-313.27 592,-313.27 592,-294.27 651,-294.27 651,-313.27"/>
<text text-anchor="middle" x="621.5" y="-301.27" font-family="Helvetica,sans-Serif" font-size="10.00">detail::in</text>
</a>
</g>
</g>
<!-- Node17&#45;&gt;Node18 -->
<g id="edge24_Node000017_Node000018" class="edge">
<title>Node17&#45;&gt;Node18</title>
<g id="a_edge24_Node000017_Node000018"><a xlink:title=" ">
<path fill="none" stroke="#63b8ff" d="M502.11,-303.77C527.81,-303.77 557.96,-303.77 581.4,-303.77"/>
<polygon fill="#63b8ff" stroke="#63b8ff" points="581.66,-307.27 591.66,-303.77 581.66,-300.27 581.66,-307.27"/>
</a>
</g>
</g>
<!-- Node19&#45;&gt;Node7 -->
<g id="edge29_Node000019_Node000007" class="edge">
<title>Node19&#45;&gt;Node7</title>
<g id="a_edge29_Node000019_Node000007"><a xlink:title=" ">
<path fill="none" stroke="#63b8ff" d="M484.58,-354.83C514.75,-361.47 557.21,-370.83 586.62,-377.31"/>
<polygon fill="#63b8ff" stroke="#63b8ff" points="585.91,-380.73 596.43,-379.47 587.42,-373.9 585.91,-380.73"/>
</a>
</g>
</g>
<!-- Node20 -->
<g id="Node000020" class="node">
<title>Node20</title>
<g id="a_Node000020"><a xlink:href="namespacedetail.html#ab2732c48a7d428c20ca951289522c6f1" target="_top" xlink:title=" ">
<polygon fill="white" stroke="#666666" points="675,-356.27 568,-356.27 568,-337.27 675,-337.27 675,-356.27"/>
<text text-anchor="middle" x="621.5" y="-344.27" font-family="Helvetica,sans-Serif" font-size="10.00">detail::get_iterator</text>
</a>
</g>
</g>
<!-- Node19&#45;&gt;Node20 -->
<g id="edge30_Node000019_Node000020" class="edge">
<title>Node19&#45;&gt;Node20</title>
<g id="a_edge30_Node000019_Node000020"><a xlink:title=" ">
<path fill="none" stroke="#63b8ff" d="M484.58,-346.77C505.78,-346.77 533.06,-346.77 557.6,-346.77"/>
<polygon fill="#63b8ff" stroke="#63b8ff" points="557.93,-350.27 567.93,-346.77 557.93,-343.27 557.93,-350.27"/>
</a>
</g>
</g>
</g>
</svg>

<g id="navigator" transform="translate(0 0)" fill="#404254">
  <rect fill="#f2f5e9" fill-opacity="0.5" stroke="#606060" stroke-width=".5" x="0" y="0" width="60" height="60"/>
  <use id="zoomplus" xlink:href="#zoomPlus" x="17" y="9" onmousedown="handleZoom(evt,'in')"/>
  <use id="zoomminus" xlink:href="#zoomMin" x="42" y="9" onmousedown="handleZoom(evt,'out')"/>
  <use id="reset" xlink:href="#resetDef" x="30" y="36" onmousedown="handleReset()"/>
   <use id="arrowup" xlink:href="#arrowUp" x="0" y="0" onmousedown="handlePan(0,-1)"/>
  <use id="arrowright" xlink:href="#arrowRight" x="0" y="0" onmousedown="handlePan(1,0)"/>
  <use id="arrowdown" xlink:href="#arrowDown" x="0" y="0" onmousedown="handlePan(0,1)"/>
  <use id="arrowleft" xlink:href="#arrowLeft" x="0" y="0" onmousedown="handlePan(-1,0)"/>
</g>
<svg viewBox="0 0 15 15" width="100%" height="30px" preserveAspectRatio="xMaxYMin meet">
 <g id="arrow_out" transform="scale(0.3 0.3)">
  <a xlink:href="bzip2recover_8c_ade0d4bec9201f79899f95c12a69d4df5_cgraph_org.svg" target="_base">
   <rect id="button" ry="5" rx="5" y="6" x="6" height="38" width="38"
        fill="#f2f5e9" fill-opacity="0.5" stroke="#606060" stroke-width="1.0"/>
   <path id="arrow"
     d="M 11.500037,31.436501 C 11.940474,20.09759 22.043105,11.32322 32.158766,21.979434 L 37.068811,17.246167 C 37.068811,17.246167 37.088388,32 37.088388,32 L 22.160133,31.978069 C 22.160133,31.978069 26.997745,27.140456 26.997745,27.140456 C 18.528582,18.264221 13.291696,25.230495 11.500037,31.436501 z"
     style="fill:#404040;"/>
  </a>
 </g>
</svg>

<style type='text/css'>
<![CDATA[
[data-mouse-over-selected='false'] { opacity: 0.7; }
[data-mouse-over-selected='true']  { opacity: 1.0; }
]]>
</style>
<script type="application/ecmascript"><![CDATA[
document.addEventListener('DOMContentLoaded', (event) => {
  highlightEdges();
  highlightAdjacentNodes();
});
]]></script>
</svg>
