<?xml version="1.0" encoding="UTF-8" standalone="no"?>
<!DOCTYPE svg PUBLIC "-//W3C//DTD SVG 1.1//EN"
 "http://www.w3.org/Graphics/SVG/1.1/DTD/svg11.dtd">
<!-- Generated by graphviz version 2.43.0 (0)
 -->
<!-- Title: fopen_output_safely Pages: 1 -->
<!--zoomable 354 -->

<svg id="main" version="1.1" xmlns="http://www.w3.org/2000/svg" xmlns:xlink="http://www.w3.org/1999/xlink" xml:space="preserve" onload="init(evt)">
<style type="text/css"><![CDATA[
.node, .edge {opacity: 0.7;}
.node.selected, .edge.selected {opacity: 1;}
.edge:hover path { stroke: red; }
.edge:hover polygon { stroke: red; fill: red; }
]]></style>

<defs>
  <circle id="rim" cx="0" cy="0" r="7"/>
  <circle id="rim2" cx="0" cy="0" r="3.5"/>
  <g id="zoomPlus">
    <use xlink:href="#rim" fill="#404040"><set attributeName="fill" to="#808080" begin="zoomplus.mouseover" end="zoomplus.mouseout"/></use>
    <path d="M-4,0h8M0,-4v8" fill="none" stroke="white" stroke-width="1.5" pointer-events="none"/>
  </g>
  <g id="zoomMin">
    <use xlink:href="#rim" fill="#404040"><set attributeName="fill" to="#808080" begin="zoomminus.mouseover" end="zoomminus.mouseout"/></use>
    <path d="M-4,0h8" fill="none" stroke="white" stroke-width="1.5" pointer-events="none"/>
  </g>
  <g id="arrowUp" transform="translate(30 24)">
    <use xlink:href="#rim"/>
    <path pointer-events="none" fill="none" stroke="white" stroke-width="1.5" d="M0,-3.0v7 M-2.5,-0.5L0,-3.0L2.5,-0.5"/>
  </g>
  <g id="arrowRight" transform="rotate(90) translate(36 -43)">
    <use xlink:href="#rim"/>
    <path pointer-events="none" fill="none" stroke="white" stroke-width="1.5" d="M0,-3.0v7 M-2.5,-0.5L0,-3.0L2.5,-0.5"/>
  </g>
  <g id="arrowDown" transform="rotate(180) translate(-30 -48)">
    <use xlink:href="#rim"/>
    <path pointer-events="none" fill="none" stroke="white" stroke-width="1.5" d="M0,-3.0v7 M-2.5,-0.5L0,-3.0L2.5,-0.5"/>
  </g>
  <g id="arrowLeft" transform="rotate(270) translate(-36 17)">
    <use xlink:href="#rim"/>
    <path pointer-events="none" fill="none" stroke="white" stroke-width="1.5" d="M0,-3.0v7 M-2.5,-0.5L0,-3.0L2.5,-0.5"/>
  </g>
  <g id="resetDef">
    <use xlink:href="#rim2" fill="#404040"><set attributeName="fill" to="#808080" begin="reset.mouseover" end="reset.mouseout"/></use>
  </g>
</defs>
<script type="application/ecmascript">
var viewWidth = 815;
var viewHeight = 354;
var sectionId = 'dynsection-23';
</script>
<script type="application/ecmascript" xlink:href="svg.min.js"/>
<svg id="graph" class="graph">
<g id="viewport">
<title>fopen_output_safely</title>
<!-- Node1 -->
<g id="Node000001" class="node">
<title>Node1</title>
<g id="a_Node000001"><a xlink:title=" ">
<polygon fill="#999999" stroke="#666666" points="807,-227.5 691,-227.5 691,-208.5 807,-208.5 807,-227.5"/>
<text text-anchor="middle" x="749" y="-215.5" font-family="Helvetica,sans-Serif" font-size="10.00">fopen_output_safely</text>
</a>
</g>
</g>
<!-- Node2 -->
<g id="Node000002" class="node">
<title>Node2</title>
<g id="a_Node000002"><a xlink:href="bzip2_8c.html#a8ca368875679d65a65850d6e1c423e84" target="_top" xlink:title=" ">
<polygon fill="white" stroke="#666666" points="649,-297.5 585,-297.5 585,-278.5 649,-278.5 649,-297.5"/>
<text text-anchor="middle" x="617" y="-285.5" font-family="Helvetica,sans-Serif" font-size="10.00">compress</text>
</a>
</g>
</g>
<!-- Node1&#45;&gt;Node2 -->
<g id="edge1_Node000001_Node000002" class="edge">
<title>Node1&#45;&gt;Node2</title>
<g id="a_edge1_Node000001_Node000002"><a xlink:title=" ">
<path fill="none" stroke="#63b8ff" d="M721.08,-232.5C695.6,-246.22 658.05,-266.43 636.01,-278.3"/>
<polygon fill="#63b8ff" stroke="#63b8ff" points="723.05,-235.41 730.2,-227.59 719.73,-229.25 723.05,-235.41"/>
</a>
</g>
</g>
<!-- Node7 -->
<g id="Node000007" class="node">
<title>Node7</title>
<g id="a_Node000007"><a xlink:href="bzip2_8c.html#a6da29671c701b01e9f14583ea1e1d143" target="_top" xlink:title=" ">
<polygon fill="white" stroke="#666666" points="655,-182.5 579,-182.5 579,-163.5 655,-163.5 655,-182.5"/>
<text text-anchor="middle" x="617" y="-170.5" font-family="Helvetica,sans-Serif" font-size="10.00">uncompress</text>
</a>
</g>
</g>
<!-- Node1&#45;&gt;Node7 -->
<g id="edge6_Node000001_Node000007" class="edge">
<title>Node1&#45;&gt;Node7</title>
<g id="a_edge6_Node000001_Node000007"><a xlink:title=" ">
<path fill="none" stroke="#63b8ff" d="M710.94,-205.17C690.11,-197.96 664.57,-189.12 645.53,-182.53"/>
<polygon fill="#63b8ff" stroke="#63b8ff" points="709.84,-208.49 720.43,-208.46 712.13,-201.88 709.84,-208.49"/>
</a>
</g>
</g>
<!-- Node3 -->
<g id="Node000003" class="node">
<title>Node3</title>
<g id="a_Node000003"><a xlink:href="classWorldSession.html#a9c1f599ebc5ae7bcda2e9381dd741c9c" target="_top" xlink:title=" ">
<polygon fill="white" stroke="#666666" points="540,-346 379,-346 379,-316 540,-316 540,-346"/>
<text text-anchor="start" x="387" y="-334" font-family="Helvetica,sans-Serif" font-size="10.00">WorldSession::handleRequest</text>
<text text-anchor="middle" x="459.5" y="-323" font-family="Helvetica,sans-Serif" font-size="10.00">AccountData</text>
</a>
</g>
</g>
<!-- Node2&#45;&gt;Node3 -->
<g id="edge2_Node000002_Node000003" class="edge">
<title>Node2&#45;&gt;Node3</title>
<g id="a_edge2_Node000002_Node000003"><a xlink:title=" ">
<path fill="none" stroke="#63b8ff" d="M575.07,-299.32C556.64,-304.41 534.62,-310.5 514.84,-315.97"/>
<polygon fill="#63b8ff" stroke="#63b8ff" points="576.2,-302.64 584.91,-296.6 574.33,-295.89 576.2,-302.64"/>
</a>
</g>
</g>
<!-- Node6 -->
<g id="Node000006" class="node">
<title>Node6</title>
<g id="a_Node000006"><a xlink:href="bzip2_8c.html#a92aa43b607c943549f5673c78f008cda" target="_top" xlink:title=" ">
<polygon fill="white" stroke="#666666" points="480,-297.5 439,-297.5 439,-278.5 480,-278.5 480,-297.5"/>
<text text-anchor="middle" x="459.5" y="-285.5" font-family="Helvetica,sans-Serif" font-size="10.00">main</text>
</a>
</g>
</g>
<!-- Node2&#45;&gt;Node6 -->
<g id="edge5_Node000002_Node000006" class="edge">
<title>Node2&#45;&gt;Node6</title>
<g id="a_edge5_Node000002_Node000006"><a xlink:title=" ">
<path fill="none" stroke="#63b8ff" d="M574.55,-288C544,-288 503.82,-288 480.21,-288"/>
<polygon fill="#63b8ff" stroke="#63b8ff" points="574.91,-291.5 584.91,-288 574.91,-284.5 574.91,-291.5"/>
</a>
</g>
</g>
<!-- Node4 -->
<g id="Node000004" class="node">
<title>Node4</title>
<g id="a_Node000004"><a xlink:href="classWorldSession.html#a213cc2e7e497e0cddfde0a1460e4acd0" target="_top" xlink:title=" ">
<polygon fill="white" stroke="#666666" points="340,-212 178,-212 178,-182 340,-182 340,-212"/>
<text text-anchor="start" x="186" y="-200" font-family="Helvetica,sans-Serif" font-size="10.00">WorldSession::registerOpcode</text>
<text text-anchor="middle" x="259" y="-189" font-family="Helvetica,sans-Serif" font-size="10.00">Handler</text>
</a>
</g>
</g>
<!-- Node3&#45;&gt;Node4 -->
<g id="edge3_Node000003_Node000004" class="edge">
<title>Node3&#45;&gt;Node4</title>
<g id="a_edge3_Node000003_Node000004"><a xlink:title=" ">
<path fill="none" stroke="#63b8ff" d="M385.57,-311.93C382.28,-310.4 379.07,-308.76 376,-307 331.71,-281.58 291.16,-235.88 271.86,-212.18"/>
<polygon fill="#63b8ff" stroke="#63b8ff" points="384.47,-315.27 395.05,-315.94 387.2,-308.82 384.47,-315.27"/>
</a>
</g>
</g>
<!-- Node5 -->
<g id="Node000005" class="node">
<title>Node5</title>
<g id="a_Node000005"><a xlink:href="classMaster.html#a12dde72f3398edffca613e77185fd6f3" target="_top" xlink:title=" ">
<polygon fill="white" stroke="#666666" points="108.5,-206.5 33.5,-206.5 33.5,-187.5 108.5,-187.5 108.5,-206.5"/>
<text text-anchor="middle" x="71" y="-194.5" font-family="Helvetica,sans-Serif" font-size="10.00">Master::Run</text>
</a>
</g>
</g>
<!-- Node4&#45;&gt;Node5 -->
<g id="edge4_Node000004_Node000005" class="edge">
<title>Node4&#45;&gt;Node5</title>
<g id="a_edge4_Node000004_Node000005"><a xlink:title=" ">
<path fill="none" stroke="#63b8ff" d="M167.6,-197C146.81,-197 125.86,-197 108.88,-197"/>
<polygon fill="#63b8ff" stroke="#63b8ff" points="167.77,-200.5 177.77,-197 167.77,-193.5 167.77,-200.5"/>
</a>
</g>
</g>
<!-- Node7&#45;&gt;Node6 -->
<g id="edge17_Node000007_Node000006" class="edge">
<title>Node7&#45;&gt;Node6</title>
<g id="a_edge17_Node000007_Node000006"><a xlink:title=" ">
<path fill="none" stroke="#63b8ff" d="M606.94,-191.7C595.27,-213.7 572.89,-249.69 543,-269 523.99,-281.28 497.99,-285.66 480.3,-287.2"/>
<polygon fill="#63b8ff" stroke="#63b8ff" points="610.11,-193.18 611.53,-182.68 603.87,-190 610.11,-193.18"/>
</a>
</g>
</g>
<!-- Node8 -->
<g id="Node000008" class="node">
<title>Node8</title>
<g id="a_Node000008"><a xlink:href="classG3D_1_1BinaryInput.html#aed43e4541329fb51cf3ca60fbb8ccf38" target="_top" xlink:title=" ">
<polygon fill="white" stroke="#666666" points="528,-260 391,-260 391,-230 528,-230 528,-260"/>
<text text-anchor="start" x="399" y="-248" font-family="Helvetica,sans-Serif" font-size="10.00">G3D::BinaryInput::Binary</text>
<text text-anchor="middle" x="459.5" y="-237" font-family="Helvetica,sans-Serif" font-size="10.00">Input</text>
</a>
</g>
</g>
<!-- Node7&#45;&gt;Node8 -->
<g id="edge7_Node000007_Node000008" class="edge">
<title>Node7&#45;&gt;Node8</title>
<g id="a_edge7_Node000007_Node000008"><a xlink:title=" ">
<path fill="none" stroke="#63b8ff" d="M595.97,-188.54C581.82,-198.91 562.05,-212.21 543,-221 535.82,-224.31 528.08,-227.28 520.31,-229.91"/>
<polygon fill="#63b8ff" stroke="#63b8ff" points="598.1,-191.32 604,-182.52 593.9,-185.71 598.1,-191.32"/>
</a>
</g>
</g>
<!-- Node9 -->
<g id="Node000009" class="node">
<title>Node9</title>
<g id="a_Node000009"><a xlink:href="classG3D_1_1BinaryInput.html#af7871692c330655e2e5340f7748a9825" target="_top" xlink:title=" ">
<polygon fill="white" stroke="#666666" points="542,-115.5 377,-115.5 377,-96.5 542,-96.5 542,-115.5"/>
<text text-anchor="middle" x="459.5" y="-103.5" font-family="Helvetica,sans-Serif" font-size="10.00">G3D::BinaryInput::decompress</text>
</a>
</g>
</g>
<!-- Node7&#45;&gt;Node9 -->
<g id="edge8_Node000007_Node000009" class="edge">
<title>Node7&#45;&gt;Node9</title>
<g id="a_edge8_Node000007_Node000009"><a xlink:title=" ">
<path fill="none" stroke="#63b8ff" d="M596.38,-157.31C582.28,-146.75 562.4,-133.3 543,-125 534.08,-121.19 524.28,-118.08 514.64,-115.56"/>
<polygon fill="#63b8ff" stroke="#63b8ff" points="594.3,-160.12 604.36,-163.43 598.56,-154.57 594.3,-160.12"/>
</a>
</g>
</g>
<!-- Node11 -->
<g id="Node000011" class="node">
<title>Node11</title>
<g id="a_Node000011"><a xlink:href="classWorldSession.html#a43935397ae8038b778a3b4dee815e592" target="_top" xlink:title=" ">
<polygon fill="white" stroke="#666666" points="543,-212 376,-212 376,-182 543,-182 543,-212"/>
<text text-anchor="start" x="384" y="-200" font-family="Helvetica,sans-Serif" font-size="10.00">WorldSession::handleGMTicket</text>
<text text-anchor="middle" x="459.5" y="-189" font-family="Helvetica,sans-Serif" font-size="10.00">CreateOpcode</text>
</a>
</g>
</g>
<!-- Node7&#45;&gt;Node11 -->
<g id="edge10_Node000007_Node000011" class="edge">
<title>Node7&#45;&gt;Node11</title>
<g id="a_edge10_Node000007_Node000011"><a xlink:title=" ">
<path fill="none" stroke="#63b8ff" d="M568.72,-180.3C560.54,-181.56 551.83,-182.9 543.04,-184.26"/>
<polygon fill="#63b8ff" stroke="#63b8ff" points="569.4,-183.73 578.75,-178.75 568.34,-176.81 569.4,-183.73"/>
</a>
</g>
</g>
<!-- Node12 -->
<g id="Node000012" class="node">
<title>Node12</title>
<g id="a_Node000012"><a xlink:href="classLogonCommServerSocket.html#a65edd1a43646e438b0aa97d48d4d2c59" target="_top" xlink:title=" ">
<polygon fill="white" stroke="#666666" points="530.5,-78 388.5,-78 388.5,-48 530.5,-48 530.5,-78"/>
<text text-anchor="start" x="396.5" y="-66" font-family="Helvetica,sans-Serif" font-size="10.00">LogonCommServerSocket</text>
<text text-anchor="middle" x="459.5" y="-55" font-family="Helvetica,sans-Serif" font-size="10.00">::HandleMappingReply</text>
</a>
</g>
</g>
<!-- Node7&#45;&gt;Node12 -->
<g id="edge12_Node000007_Node000012" class="edge">
<title>Node7&#45;&gt;Node12</title>
<g id="a_edge12_Node000007_Node000012"><a xlink:title=" ">
<path fill="none" stroke="#63b8ff" d="M605.16,-154.79C592.6,-135.22 570.12,-104.57 543,-87 537.74,-83.59 531.99,-80.66 526.05,-78.13"/>
<polygon fill="#63b8ff" stroke="#63b8ff" points="602.26,-156.75 610.51,-163.4 608.21,-153.06 602.26,-156.75"/>
</a>
</g>
</g>
<!-- Node15 -->
<g id="Node000015" class="node">
<title>Node15</title>
<g id="a_Node000015"><a xlink:href="classWorldSession.html#ac767bcef15679a965cf2ab11154053b8" target="_top" xlink:title=" ">
<polygon fill="white" stroke="#666666" points="537.5,-164 381.5,-164 381.5,-134 537.5,-134 537.5,-164"/>
<text text-anchor="start" x="389.5" y="-152" font-family="Helvetica,sans-Serif" font-size="10.00">WorldSession::handleUpdate</text>
<text text-anchor="middle" x="459.5" y="-141" font-family="Helvetica,sans-Serif" font-size="10.00">AccountData</text>
</a>
</g>
</g>
<!-- Node7&#45;&gt;Node15 -->
<g id="edge15_Node000007_Node000015" class="edge">
<title>Node7&#45;&gt;Node15</title>
<g id="a_edge15_Node000007_Node000015"><a xlink:title=" ">
<path fill="none" stroke="#63b8ff" d="M568.82,-165.72C558.98,-164.2 548.37,-162.56 537.76,-160.93"/>
<polygon fill="#63b8ff" stroke="#63b8ff" points="568.34,-169.19 578.75,-167.25 569.4,-162.27 568.34,-169.19"/>
</a>
</g>
</g>
<!-- Node16 -->
<g id="Node000016" class="node">
<title>Node16</title>
<g id="a_Node000016"><a xlink:href="classWorldSession.html#a3e1ae545d486c982c843192bd37eec51" target="_top" xlink:title=" ">
<polygon fill="white" stroke="#666666" points="539,-30 380,-30 380,0 539,0 539,-30"/>
<text text-anchor="start" x="388" y="-18" font-family="Helvetica,sans-Serif" font-size="10.00">WorldSession::readAddonInfo</text>
<text text-anchor="middle" x="459.5" y="-7" font-family="Helvetica,sans-Serif" font-size="10.00">Packet</text>
</a>
</g>
</g>
<!-- Node7&#45;&gt;Node16 -->
<g id="edge18_Node000007_Node000016" class="edge">
<title>Node7&#45;&gt;Node16</title>
<g id="a_edge18_Node000007_Node000016"><a xlink:title=" ">
<path fill="none" stroke="#63b8ff" d="M610.61,-153.35C601.56,-124.07 580.52,-69.19 543,-39 538.7,-35.54 533.92,-32.58 528.89,-30.04"/>
<polygon fill="#63b8ff" stroke="#63b8ff" points="607.33,-154.6 613.5,-163.22 614.05,-152.64 607.33,-154.6"/>
</a>
</g>
</g>
<!-- Node10 -->
<g id="Node000010" class="node">
<title>Node10</title>
<g id="a_Node000010"><a xlink:href="classG3D_1_1BinaryInput.html#a0b86d038073d3c69acfffd253491db61" target="_top" xlink:title=" ">
<polygon fill="white" stroke="#666666" points="327.5,-123 190.5,-123 190.5,-93 327.5,-93 327.5,-123"/>
<text text-anchor="start" x="198.5" y="-111" font-family="Helvetica,sans-Serif" font-size="10.00">G3D::BinaryInput::Binary</text>
<text text-anchor="middle" x="259" y="-100" font-family="Helvetica,sans-Serif" font-size="10.00">Input</text>
</a>
</g>
</g>
<!-- Node9&#45;&gt;Node10 -->
<g id="edge9_Node000009_Node000010" class="edge">
<title>Node9&#45;&gt;Node10</title>
<g id="a_edge9_Node000009_Node000010"><a xlink:title=" ">
<path fill="none" stroke="#63b8ff" d="M366.87,-106.92C353.68,-107.06 340.31,-107.19 327.69,-107.32"/>
<polygon fill="#63b8ff" stroke="#63b8ff" points="366.94,-110.42 376.9,-106.82 366.87,-103.42 366.94,-110.42"/>
</a>
</g>
</g>
<!-- Node11&#45;&gt;Node4 -->
<g id="edge11_Node000011_Node000004" class="edge">
<title>Node11&#45;&gt;Node4</title>
<g id="a_edge11_Node000011_Node000004"><a xlink:title=" ">
<path fill="none" stroke="#63b8ff" d="M365.73,-197C357.15,-197 348.51,-197 340.06,-197"/>
<polygon fill="#63b8ff" stroke="#63b8ff" points="365.76,-200.5 375.76,-197 365.76,-193.5 365.76,-200.5"/>
</a>
</g>
</g>
<!-- Node13 -->
<g id="Node000013" class="node">
<title>Node13</title>
<g id="a_Node000013"><a xlink:href="classLogonCommServerSocket.html#ae07d02c6e7218a652a6f8378b87e38c3" target="_top" xlink:title=" ">
<polygon fill="white" stroke="#666666" points="330,-75 188,-75 188,-45 330,-45 330,-75"/>
<text text-anchor="start" x="196" y="-63" font-family="Helvetica,sans-Serif" font-size="10.00">LogonCommServerSocket</text>
<text text-anchor="middle" x="259" y="-52" font-family="Helvetica,sans-Serif" font-size="10.00">::HandlePacket</text>
</a>
</g>
</g>
<!-- Node12&#45;&gt;Node13 -->
<g id="edge13_Node000012_Node000013" class="edge">
<title>Node12&#45;&gt;Node13</title>
<g id="a_edge13_Node000012_Node000013"><a xlink:title=" ">
<path fill="none" stroke="#63b8ff" d="M377.95,-61.78C362.12,-61.54 345.63,-61.29 330.17,-61.06"/>
<polygon fill="#63b8ff" stroke="#63b8ff" points="378.19,-65.29 388.24,-61.94 378.29,-58.29 378.19,-65.29"/>
</a>
</g>
</g>
<!-- Node14 -->
<g id="Node000014" class="node">
<title>Node14</title>
<g id="a_Node000014"><a xlink:href="classLogonCommServerSocket.html#adf33db1927c4c4312d8568a56e6fd746" target="_top" xlink:title=" ">
<polygon fill="white" stroke="#666666" points="142,-75 0,-75 0,-45 142,-45 142,-75"/>
<text text-anchor="start" x="8" y="-63" font-family="Helvetica,sans-Serif" font-size="10.00">LogonCommServerSocket</text>
<text text-anchor="middle" x="71" y="-52" font-family="Helvetica,sans-Serif" font-size="10.00">::OnRead</text>
</a>
</g>
</g>
<!-- Node13&#45;&gt;Node14 -->
<g id="edge14_Node000013_Node000014" class="edge">
<title>Node13&#45;&gt;Node14</title>
<g id="a_edge14_Node000013_Node000014"><a xlink:title=" ">
<path fill="none" stroke="#63b8ff" d="M177.69,-60C165.91,-60 153.86,-60 142.3,-60"/>
<polygon fill="#63b8ff" stroke="#63b8ff" points="177.95,-63.5 187.95,-60 177.95,-56.5 177.95,-63.5"/>
</a>
</g>
</g>
<!-- Node15&#45;&gt;Node4 -->
<g id="edge16_Node000015_Node000004" class="edge">
<title>Node15&#45;&gt;Node4</title>
<g id="a_edge16_Node000015_Node000004"><a xlink:title=" ">
<path fill="none" stroke="#63b8ff" d="M386.37,-166.44C365.29,-171.54 342.44,-177.07 322.04,-182"/>
<polygon fill="#63b8ff" stroke="#63b8ff" points="387.34,-169.81 396.24,-164.06 385.7,-163 387.34,-169.81"/>
</a>
</g>
</g>
</g>
</svg>

<g id="navigator" transform="translate(0 0)" fill="#404254">
  <rect fill="#f2f5e9" fill-opacity="0.5" stroke="#606060" stroke-width=".5" x="0" y="0" width="60" height="60"/>
  <use id="zoomplus" xlink:href="#zoomPlus" x="17" y="9" onmousedown="handleZoom(evt,'in')"/>
  <use id="zoomminus" xlink:href="#zoomMin" x="42" y="9" onmousedown="handleZoom(evt,'out')"/>
  <use id="reset" xlink:href="#resetDef" x="30" y="36" onmousedown="handleReset()"/>
   <use id="arrowup" xlink:href="#arrowUp" x="0" y="0" onmousedown="handlePan(0,-1)"/>
  <use id="arrowright" xlink:href="#arrowRight" x="0" y="0" onmousedown="handlePan(1,0)"/>
  <use id="arrowdown" xlink:href="#arrowDown" x="0" y="0" onmousedown="handlePan(0,1)"/>
  <use id="arrowleft" xlink:href="#arrowLeft" x="0" y="0" onmousedown="handlePan(-1,0)"/>
</g>
<svg viewBox="0 0 15 15" width="100%" height="30px" preserveAspectRatio="xMaxYMin meet">
 <g id="arrow_out" transform="scale(0.3 0.3)">
  <a xlink:href="bzip2_8c_a74e93c2652752f657f3b1a56e1fc6c49_icgraph_org.svg" target="_base">
   <rect id="button" ry="5" rx="5" y="6" x="6" height="38" width="38"
        fill="#f2f5e9" fill-opacity="0.5" stroke="#606060" stroke-width="1.0"/>
   <path id="arrow"
     d="M 11.500037,31.436501 C 11.940474,20.09759 22.043105,11.32322 32.158766,21.979434 L 37.068811,17.246167 C 37.068811,17.246167 37.088388,32 37.088388,32 L 22.160133,31.978069 C 22.160133,31.978069 26.997745,27.140456 26.997745,27.140456 C 18.528582,18.264221 13.291696,25.230495 11.500037,31.436501 z"
     style="fill:#404040;"/>
  </a>
 </g>
</svg>

<style type='text/css'>
<![CDATA[
[data-mouse-over-selected='false'] { opacity: 0.7; }
[data-mouse-over-selected='true']  { opacity: 1.0; }
]]>
</style>
<script type="application/ecmascript"><![CDATA[
document.addEventListener('DOMContentLoaded', (event) => {
  highlightEdges();
  highlightAdjacentNodes();
});
]]></script>
</svg>
