<?xml version="1.0" encoding="UTF-8" standalone="no"?>
<!DOCTYPE svg PUBLIC "-//W3C//DTD SVG 1.1//EN"
 "http://www.w3.org/Graphics/SVG/1.1/DTD/svg11.dtd">
<!-- Generated by graphviz version 2.43.0 (0)
 -->
<!-- Title: CreatureAISpells::addDBEmote Pages: 1 -->
<svg width="400pt" height="391pt"
 viewBox="0.00 0.00 400.00 390.50" xmlns="http://www.w3.org/2000/svg" xmlns:xlink="http://www.w3.org/1999/xlink">

<svg id="main" version="1.1" xmlns="http://www.w3.org/2000/svg" xmlns:xlink="http://www.w3.org/1999/xlink" xml:space="preserve" onload="init(evt)">
<style type="text/css"><![CDATA[
.node, .edge {opacity: 0.7;}
.node.selected, .edge.selected {opacity: 1;}
.edge:hover path { stroke: red; }
.edge:hover polygon { stroke: red; fill: red; }
]]></style>
<script type="application/ecmascript" xlink:href="svg.min.js"/>
<svg id="graph" class="graph">
<g id="graph0" class="graph" transform="scale(1 1) rotate(0) translate(4 386.5)">
<title>CreatureAISpells::addDBEmote</title>
<!-- Node1 -->
<g id="Node000001" class="node">
<title>Node1</title>
<g id="a_Node000001"><a xlink:title=" ">
<polygon fill="#999999" stroke="#666666" points="392,-185 225,-185 225,-166 392,-166 392,-185"/>
<text text-anchor="middle" x="308.5" y="-173" font-family="Helvetica,sans-Serif" font-size="10.00">CreatureAISpells::addDBEmote</text>
</a>
</g>
</g>
<!-- Node2 -->
<g id="Node000002" class="node">
<title>Node2</title>
<g id="a_Node000002"><a xlink:href="classCommanderSarannisAI.html#a89490ce6a6723c41d73e2687d825cf11" target="_top" xlink:title=" ">
<polygon fill="white" stroke="#666666" points="161.5,-382.5 27.5,-382.5 27.5,-352.5 161.5,-352.5 161.5,-382.5"/>
<text text-anchor="start" x="35.5" y="-370.5" font-family="Helvetica,sans-Serif" font-size="10.00">CommanderSarannisAI</text>
<text text-anchor="middle" x="94.5" y="-359.5" font-family="Helvetica,sans-Serif" font-size="10.00">::CommanderSarannisAI</text>
</a>
</g>
</g>
<!-- Node1&#45;&gt;Node2 -->
<g id="edge1_Node000001_Node000002" class="edge">
<title>Node1&#45;&gt;Node2</title>
<g id="a_edge1_Node000001_Node000002"><a xlink:title=" ">
<path fill="none" stroke="#63b8ff" d="M299.37,-194.88C283.55,-230.15 245.18,-304.75 189,-343.5 180.86,-349.11 171.51,-353.42 161.93,-356.71"/>
<polygon fill="#63b8ff" stroke="#63b8ff" points="302.77,-195.85 303.55,-185.28 296.35,-193.05 302.77,-195.85"/>
</a>
</g>
</g>
<!-- Node3 -->
<g id="Node000003" class="node">
<title>Node3</title>
<g id="a_Node000003"><a xlink:href="classDeathbringerSaurfangAI.html#ab20301d2f9cc449a1b4983c5fcb6482f" target="_top" xlink:title="Boss: Deathbringer Saurfang.">
<polygon fill="white" stroke="#666666" points="164.5,-334.5 24.5,-334.5 24.5,-304.5 164.5,-304.5 164.5,-334.5"/>
<text text-anchor="start" x="32.5" y="-322.5" font-family="Helvetica,sans-Serif" font-size="10.00">DeathbringerSaurfangAI</text>
<text text-anchor="middle" x="94.5" y="-311.5" font-family="Helvetica,sans-Serif" font-size="10.00">::DeathbringerSaurfangAI</text>
</a>
</g>
</g>
<!-- Node1&#45;&gt;Node3 -->
<g id="edge2_Node000001_Node000003" class="edge">
<title>Node1&#45;&gt;Node3</title>
<g id="a_edge2_Node000001_Node000003"><a xlink:title=" ">
<path fill="none" stroke="#63b8ff" d="M294.68,-193.7C275.03,-220.21 234.87,-269.14 189,-295.5 181.44,-299.84 173.1,-303.41 164.6,-306.34"/>
<polygon fill="#63b8ff" stroke="#63b8ff" points="297.71,-195.48 300.75,-185.33 292.05,-191.37 297.71,-195.48"/>
</a>
</g>
</g>
<!-- Node4 -->
<g id="Node000004" class="node">
<title>Node4</title>
<g id="a_Node000004"><a xlink:href="classGruulTheDragonkillerAI.html#a579d743f4abcc359da1a9adae4384d92" target="_top" xlink:title="Boss: Gruul the Dragonkiller.">
<polygon fill="white" stroke="#666666" points="163,-286.5 26,-286.5 26,-256.5 163,-256.5 163,-286.5"/>
<text text-anchor="start" x="34" y="-274.5" font-family="Helvetica,sans-Serif" font-size="10.00">GruulTheDragonkillerAI</text>
<text text-anchor="middle" x="94.5" y="-263.5" font-family="Helvetica,sans-Serif" font-size="10.00">::GruulTheDragonkillerAI</text>
</a>
</g>
</g>
<!-- Node1&#45;&gt;Node4 -->
<g id="edge3_Node000001_Node000004" class="edge">
<title>Node1&#45;&gt;Node4</title>
<g id="a_edge3_Node000001_Node000004"><a xlink:title=" ">
<path fill="none" stroke="#63b8ff" d="M286.4,-190.98C263.47,-207.15 225.23,-232.24 189,-247.5 180.81,-250.95 172.01,-254 163.19,-256.66"/>
<polygon fill="#63b8ff" stroke="#63b8ff" points="288.58,-193.72 294.68,-185.05 284.51,-188.02 288.58,-193.72"/>
</a>
</g>
</g>
<!-- Node5 -->
<g id="Node000005" class="node">
<title>Node5</title>
<g id="a_Node000005"><a xlink:href="classHighKingMaulgarAI.html#a29e93cb701fa251b483f66ab15738bed" target="_top" xlink:title="Boss: Maulgar.">
<polygon fill="white" stroke="#666666" points="152.5,-238.5 36.5,-238.5 36.5,-208.5 152.5,-208.5 152.5,-238.5"/>
<text text-anchor="start" x="44.5" y="-226.5" font-family="Helvetica,sans-Serif" font-size="10.00">HighKingMaulgarAI::</text>
<text text-anchor="middle" x="94.5" y="-215.5" font-family="Helvetica,sans-Serif" font-size="10.00">HighKingMaulgarAI</text>
</a>
</g>
</g>
<!-- Node1&#45;&gt;Node5 -->
<g id="edge4_Node000001_Node000005" class="edge">
<title>Node1&#45;&gt;Node5</title>
<g id="a_edge4_Node000001_Node000005"><a xlink:title=" ">
<path fill="none" stroke="#63b8ff" d="M255.58,-187.26C224.46,-194.3 184.85,-203.27 152.81,-210.52"/>
<polygon fill="#63b8ff" stroke="#63b8ff" points="256.38,-190.66 265.36,-185.04 254.84,-183.84 256.38,-190.66"/>
</a>
</g>
</g>
<!-- Node6 -->
<g id="Node000006" class="node">
<title>Node6</title>
<g id="a_Node000006"><a xlink:href="classLadyDeathwhisperAI.html#a9008acce9bf7dbb985b912d326225a11" target="_top" xlink:title="Boss: Lady Deathwhisper.">
<polygon fill="white" stroke="#666666" points="156,-190.5 33,-190.5 33,-160.5 156,-160.5 156,-190.5"/>
<text text-anchor="start" x="41" y="-178.5" font-family="Helvetica,sans-Serif" font-size="10.00">LadyDeathwhisperAI</text>
<text text-anchor="middle" x="94.5" y="-167.5" font-family="Helvetica,sans-Serif" font-size="10.00">::LadyDeathwhisperAI</text>
</a>
</g>
</g>
<!-- Node1&#45;&gt;Node6 -->
<g id="edge5_Node000001_Node000006" class="edge">
<title>Node1&#45;&gt;Node6</title>
<g id="a_edge5_Node000001_Node000006"><a xlink:title=" ">
<path fill="none" stroke="#63b8ff" d="M214.91,-175.5C195.02,-175.5 174.49,-175.5 156.18,-175.5"/>
<polygon fill="#63b8ff" stroke="#63b8ff" points="214.93,-179 224.93,-175.5 214.93,-172 214.93,-179"/>
</a>
</g>
</g>
<!-- Node7 -->
<g id="Node000007" class="node">
<title>Node7</title>
<g id="a_Node000007"><a xlink:href="classLokenAI.html#ac7da117b1bbb45dd6bad5abcc09e8c24" target="_top" xlink:title=" ">
<polygon fill="white" stroke="#666666" points="144,-142 45,-142 45,-123 144,-123 144,-142"/>
<text text-anchor="middle" x="94.5" y="-130" font-family="Helvetica,sans-Serif" font-size="10.00">LokenAI::LokenAI</text>
</a>
</g>
</g>
<!-- Node1&#45;&gt;Node7 -->
<g id="edge6_Node000001_Node000007" class="edge">
<title>Node1&#45;&gt;Node7</title>
<g id="a_edge6_Node000001_Node000007"><a xlink:title=" ">
<path fill="none" stroke="#63b8ff" d="M250.26,-163.89C216.47,-157.04 174.23,-148.47 142.42,-142.02"/>
<polygon fill="#63b8ff" stroke="#63b8ff" points="249.95,-167.4 260.45,-165.96 251.35,-160.54 249.95,-167.4"/>
</a>
</g>
</g>
<!-- Node8 -->
<g id="Node000008" class="node">
<title>Node8</title>
<g id="a_Node000008"><a xlink:href="classLordMarrowgarAI.html#aed4ac2e73621ca762f7a5732ddd060cb" target="_top" xlink:title="Boss: Lord Marrowgar.">
<polygon fill="white" stroke="#666666" points="189,-105 0,-105 0,-86 189,-86 189,-105"/>
<text text-anchor="middle" x="94.5" y="-93" font-family="Helvetica,sans-Serif" font-size="10.00">LordMarrowgarAI::LordMarrowgarAI</text>
</a>
</g>
</g>
<!-- Node1&#45;&gt;Node8 -->
<g id="edge7_Node000001_Node000008" class="edge">
<title>Node1&#45;&gt;Node8</title>
<g id="a_edge7_Node000001_Node000008"><a xlink:title=" ">
<path fill="none" stroke="#63b8ff" d="M283.56,-160.68C260.23,-146.84 223.34,-126.57 189,-114.5 178.22,-110.71 166.45,-107.58 155.02,-105.04"/>
<polygon fill="#63b8ff" stroke="#63b8ff" points="282.02,-163.83 292.39,-165.99 285.63,-157.84 282.02,-163.83"/>
</a>
</g>
</g>
<!-- Node9 -->
<g id="Node000009" class="node">
<title>Node9</title>
<g id="a_Node000009"><a xlink:href="classOmorTheUnscarredAI.html#a2d3be4c0de41f2d9b9ff3619fd5c8081" target="_top" xlink:title="Boss: Omor The Unscarred.">
<polygon fill="white" stroke="#666666" points="158,-67.5 31,-67.5 31,-37.5 158,-37.5 158,-67.5"/>
<text text-anchor="start" x="39" y="-55.5" font-family="Helvetica,sans-Serif" font-size="10.00">OmorTheUnscarredAI</text>
<text text-anchor="middle" x="94.5" y="-44.5" font-family="Helvetica,sans-Serif" font-size="10.00">::OmorTheUnscarredAI</text>
</a>
</g>
</g>
<!-- Node1&#45;&gt;Node9 -->
<g id="edge8_Node000001_Node000009" class="edge">
<title>Node1&#45;&gt;Node9</title>
<g id="a_edge8_Node000001_Node000009"><a xlink:title=" ">
<path fill="none" stroke="#63b8ff" d="M291.73,-158.54C270.45,-136.66 230.42,-98.86 189,-77.5 179.44,-72.57 168.82,-68.54 158.26,-65.28"/>
<polygon fill="#63b8ff" stroke="#63b8ff" points="289.25,-161.01 298.69,-165.83 294.31,-156.18 289.25,-161.01"/>
</a>
</g>
</g>
<!-- Node10 -->
<g id="Node000010" class="node">
<title>Node10</title>
<g id="a_Node000010"><a xlink:href="classWarpSplinterAI.html#aaac26ba5adccc6307e44ade3e1b3c935" target="_top" xlink:title=" ">
<polygon fill="white" stroke="#666666" points="178,-19 11,-19 11,0 178,0 178,-19"/>
<text text-anchor="middle" x="94.5" y="-7" font-family="Helvetica,sans-Serif" font-size="10.00">WarpSplinterAI::WarpSplinterAI</text>
</a>
</g>
</g>
<!-- Node1&#45;&gt;Node10 -->
<g id="edge9_Node000001_Node000010" class="edge">
<title>Node1&#45;&gt;Node10</title>
<g id="a_edge9_Node000001_Node000010"><a xlink:title=" ">
<path fill="none" stroke="#63b8ff" d="M297.92,-156.51C280.75,-124.58 241.57,-60.47 189,-28.5 182.63,-24.63 175.61,-21.53 168.37,-19.05"/>
<polygon fill="#63b8ff" stroke="#63b8ff" points="294.97,-158.43 302.71,-165.67 301.17,-155.19 294.97,-158.43"/>
</a>
</g>
</g>
</g>
</svg>
</svg>

<style type='text/css'>
<![CDATA[
[data-mouse-over-selected='false'] { opacity: 0.7; }
[data-mouse-over-selected='true']  { opacity: 1.0; }
]]>
</style>
<script type="application/ecmascript"><![CDATA[
document.addEventListener('DOMContentLoaded', (event) => {
  highlightEdges();
  highlightAdjacentNodes();
});
]]></script>
</svg>
