<?xml version="1.0" encoding="UTF-8" standalone="no"?>
<!DOCTYPE svg PUBLIC "-//W3C//DTD SVG 1.1//EN"
 "http://www.w3.org/Graphics/SVG/1.1/DTD/svg11.dtd">
<!-- Generated by graphviz version 2.43.0 (0)
 -->
<!-- Title: SpellCastTargets::read Pages: 1 -->
<svg width="770pt" height="175pt"
 viewBox="0.00 0.00 770.00 175.00" xmlns="http://www.w3.org/2000/svg" xmlns:xlink="http://www.w3.org/1999/xlink">
<g id="graph0" class="graph" transform="scale(1 1) rotate(0) translate(4 171)">
<title>SpellCastTargets::read</title>
<!-- Node1 -->
<g id="Node000001" class="node">
<title>Node1</title>
<g id="a_Node000001"><a xlink:title=" ">
<polygon fill="#999999" stroke="#666666" points="125,-93 0,-93 0,-74 125,-74 125,-93"/>
<text text-anchor="middle" x="62.5" y="-81" font-family="Helvetica,sans-Serif" font-size="10.00">SpellCastTargets::read</text>
</a>
</g>
</g>
<!-- Node2 -->
<g id="Node000002" class="node">
<title>Node2</title>
<g id="a_Node000002"><a xlink:href="classWoWGuid.html#ace5ff0d369d8072eeb9cbdcdd60596bd" target="_top" xlink:title=" ">
<polygon fill="white" stroke="#666666" points="312.5,-167 184.5,-167 184.5,-148 312.5,-148 312.5,-167"/>
<text text-anchor="middle" x="248.5" y="-155" font-family="Helvetica,sans-Serif" font-size="10.00">WoWGuid::getGuidLow</text>
</a>
</g>
</g>
<!-- Node1&#45;&gt;Node2 -->
<g id="edge1_Node000001_Node000002" class="edge">
<title>Node1&#45;&gt;Node2</title>
<g id="a_edge1_Node000001_Node000002"><a xlink:title=" ">
<path fill="none" stroke="#63b8ff" d="M77.02,-93.13C95.23,-105.65 129.07,-127.36 161,-139.5 166.83,-141.72 173,-143.68 179.24,-145.43"/>
<polygon fill="#63b8ff" stroke="#63b8ff" points="178.52,-148.85 189.08,-147.98 180.28,-142.08 178.52,-148.85"/>
</a>
</g>
</g>
<!-- Node3 -->
<g id="Node000003" class="node">
<title>Node3</title>
<g id="a_Node000003"><a xlink:href="classWoWGuid.html#ae2ebb34eec8642eff1eb0ea3970acd5c" target="_top" xlink:title=" ">
<polygon fill="white" stroke="#666666" points="313,-130 184,-130 184,-111 313,-111 313,-130"/>
<text text-anchor="middle" x="248.5" y="-118" font-family="Helvetica,sans-Serif" font-size="10.00">WoWGuid::getRawGuid</text>
</a>
</g>
</g>
<!-- Node1&#45;&gt;Node3 -->
<g id="edge2_Node000001_Node000003" class="edge">
<title>Node1&#45;&gt;Node3</title>
<g id="a_edge2_Node000001_Node000003"><a xlink:title=" ">
<path fill="none" stroke="#63b8ff" d="M110.88,-93.03C135.04,-97.89 164.62,-103.83 190.06,-108.95"/>
<polygon fill="#63b8ff" stroke="#63b8ff" points="189.46,-112.4 199.96,-110.94 190.84,-105.54 189.46,-112.4"/>
</a>
</g>
</g>
<!-- Node4 -->
<g id="Node000004" class="node">
<title>Node4</title>
<g id="a_Node000004"><a xlink:href="classSpellCastTargets.html#a42ba6792dd439e08dffdbd3535fed38b" target="_top" xlink:title=" ">
<polygon fill="white" stroke="#666666" points="312.5,-93 184.5,-93 184.5,-74 312.5,-74 312.5,-93"/>
<text text-anchor="middle" x="248.5" y="-81" font-family="Helvetica,sans-Serif" font-size="10.00">SpellCastTargets::reset</text>
</a>
</g>
</g>
<!-- Node1&#45;&gt;Node4 -->
<g id="edge3_Node000001_Node000004" class="edge">
<title>Node1&#45;&gt;Node4</title>
<g id="a_edge3_Node000001_Node000004"><a xlink:title=" ">
<path fill="none" stroke="#63b8ff" d="M125.03,-83.5C140.86,-83.5 158.05,-83.5 174.4,-83.5"/>
<polygon fill="#63b8ff" stroke="#63b8ff" points="174.46,-87 184.46,-83.5 174.46,-80 174.46,-87"/>
</a>
</g>
</g>
<!-- Node5 -->
<g id="Node000005" class="node">
<title>Node5</title>
<g id="a_Node000005"><a xlink:href="classSpellCastTargets.html#a3ff8446a2c24f038a18cf60291449486" target="_top" xlink:title=" ">
<polygon fill="white" stroke="#666666" points="336,-56 161,-56 161,-37 336,-37 336,-56"/>
<text text-anchor="middle" x="248.5" y="-44" font-family="Helvetica,sans-Serif" font-size="10.00">SpellCastTargets::setDestination</text>
</a>
</g>
</g>
<!-- Node1&#45;&gt;Node5 -->
<g id="edge4_Node000001_Node000005" class="edge">
<title>Node1&#45;&gt;Node5</title>
<g id="a_edge4_Node000001_Node000005"><a xlink:title=" ">
<path fill="none" stroke="#63b8ff" d="M110.88,-73.97C135.04,-69.11 164.62,-63.17 190.06,-58.05"/>
<polygon fill="#63b8ff" stroke="#63b8ff" points="190.84,-61.46 199.96,-56.06 189.46,-54.6 190.84,-61.46"/>
</a>
</g>
</g>
<!-- Node9 -->
<g id="Node000009" class="node">
<title>Node9</title>
<g id="a_Node000009"><a xlink:href="classSpellCastTargets.html#a44a4567b024b641db2e5ece39922fe79" target="_top" xlink:title=" ">
<polygon fill="white" stroke="#666666" points="324.5,-19 172.5,-19 172.5,0 324.5,0 324.5,-19"/>
<text text-anchor="middle" x="248.5" y="-7" font-family="Helvetica,sans-Serif" font-size="10.00">SpellCastTargets::setSource</text>
</a>
</g>
</g>
<!-- Node1&#45;&gt;Node9 -->
<g id="edge8_Node000001_Node000009" class="edge">
<title>Node1&#45;&gt;Node9</title>
<g id="a_edge8_Node000001_Node000009"><a xlink:title=" ">
<path fill="none" stroke="#63b8ff" d="M77.38,-73.9C95.72,-61.64 129.41,-40.57 161,-28.5 167.81,-25.9 175.07,-23.61 182.38,-21.6"/>
<polygon fill="#63b8ff" stroke="#63b8ff" points="183.52,-24.92 192.33,-19.04 181.77,-18.14 183.52,-24.92"/>
</a>
</g>
</g>
<!-- Node6 -->
<g id="Node000006" class="node">
<title>Node6</title>
<g id="a_Node000006"><a xlink:href="classSpellCastTargets.html#a1b018df13fbac9d3e8454740a7d3e513" target="_top" xlink:title=" ">
<polygon fill="white" stroke="#666666" points="550,-37 372,-37 372,-18 550,-18 550,-37"/>
<text text-anchor="middle" x="461" y="-25" font-family="Helvetica,sans-Serif" font-size="10.00">SpellCastTargets::addTargetMask</text>
</a>
</g>
</g>
<!-- Node5&#45;&gt;Node6 -->
<g id="edge5_Node000005_Node000006" class="edge">
<title>Node5&#45;&gt;Node6</title>
<g id="a_edge5_Node000005_Node000006"><a xlink:title=" ">
<path fill="none" stroke="#63b8ff" d="M336.03,-38.69C344.51,-37.92 353.15,-37.14 361.73,-36.37"/>
<polygon fill="#63b8ff" stroke="#63b8ff" points="362.12,-39.85 371.76,-35.46 361.49,-32.88 362.12,-39.85"/>
</a>
</g>
</g>
<!-- Node7 -->
<g id="Node000007" class="node">
<title>Node7</title>
<g id="a_Node000007"><a xlink:href="classSpellCastTargets.html#af29ba7f8180d7dad07136a46c81d446a" target="_top" xlink:title=" ">
<polygon fill="white" stroke="#666666" points="762,-56 586,-56 586,-37 762,-37 762,-56"/>
<text text-anchor="middle" x="674" y="-44" font-family="Helvetica,sans-Serif" font-size="10.00">SpellCastTargets::getTargetMask</text>
</a>
</g>
</g>
<!-- Node6&#45;&gt;Node7 -->
<g id="edge6_Node000006_Node000007" class="edge">
<title>Node6&#45;&gt;Node7</title>
<g id="a_edge6_Node000006_Node000007"><a xlink:title=" ">
<path fill="none" stroke="#63b8ff" d="M550.26,-35.45C558.61,-36.2 567.11,-36.96 575.54,-37.72"/>
<polygon fill="#63b8ff" stroke="#63b8ff" points="575.5,-41.23 585.77,-38.65 576.12,-34.26 575.5,-41.23"/>
</a>
</g>
</g>
<!-- Node8 -->
<g id="Node000008" class="node">
<title>Node8</title>
<g id="a_Node000008"><a xlink:href="classSpellCastTargets.html#ab4a95e1a2cac2ba9f1cbbdd89feed7f6" target="_top" xlink:title=" ">
<polygon fill="white" stroke="#666666" points="761.5,-19 586.5,-19 586.5,0 761.5,0 761.5,-19"/>
<text text-anchor="middle" x="674" y="-7" font-family="Helvetica,sans-Serif" font-size="10.00">SpellCastTargets::setTargetMask</text>
</a>
</g>
</g>
<!-- Node6&#45;&gt;Node8 -->
<g id="edge7_Node000006_Node000008" class="edge">
<title>Node6&#45;&gt;Node8</title>
<g id="a_edge7_Node000006_Node000008"><a xlink:title=" ">
<path fill="none" stroke="#63b8ff" d="M550.26,-19.97C558.86,-19.24 567.63,-18.49 576.31,-17.75"/>
<polygon fill="#63b8ff" stroke="#63b8ff" points="576.78,-21.22 586.45,-16.88 576.18,-14.25 576.78,-21.22"/>
</a>
</g>
</g>
<!-- Node9&#45;&gt;Node6 -->
<g id="edge9_Node000009_Node000006" class="edge">
<title>Node9&#45;&gt;Node6</title>
<g id="a_edge9_Node000009_Node000006"><a xlink:title=" ">
<path fill="none" stroke="#63b8ff" d="M324.6,-15.92C336.72,-16.96 349.41,-18.04 361.96,-19.12"/>
<polygon fill="#63b8ff" stroke="#63b8ff" points="361.73,-22.61 371.99,-19.97 362.32,-15.63 361.73,-22.61"/>
</a>
</g>
</g>
</g>
</svg>
