<?xml version="1.0" encoding="UTF-8" standalone="no"?>
<!DOCTYPE svg PUBLIC "-//W3C//DTD SVG 1.1//EN"
 "http://www.w3.org/Graphics/SVG/1.1/DTD/svg11.dtd">
<!-- Generated by graphviz version 2.43.0 (0)
 -->
<!-- Title: VMAP::StaticMapTree::LoadMapTile Pages: 1 -->
<svg width="347pt" height="209pt"
 viewBox="0.00 0.00 347.00 208.50" xmlns="http://www.w3.org/2000/svg" xmlns:xlink="http://www.w3.org/1999/xlink">

<svg id="main" version="1.1" xmlns="http://www.w3.org/2000/svg" xmlns:xlink="http://www.w3.org/1999/xlink" xml:space="preserve" onload="init(evt)">
<style type="text/css"><![CDATA[
.node, .edge {opacity: 0.7;}
.node.selected, .edge.selected {opacity: 1;}
.edge:hover path { stroke: red; }
.edge:hover polygon { stroke: red; fill: red; }
]]></style>
<script type="application/ecmascript" xlink:href="svg.min.js"/>
<svg id="graph" class="graph">
<g id="graph0" class="graph" transform="scale(1 1) rotate(0) translate(4 204.5)">
<title>VMAP::StaticMapTree::LoadMapTile</title>
<!-- Node1 -->
<g id="Node000001" class="node">
<title>Node1</title>
<g id="a_Node000001"><a xlink:title=" ">
<polygon fill="#999999" stroke="#666666" points="120,-104.5 0,-104.5 0,-74.5 120,-74.5 120,-104.5"/>
<text text-anchor="start" x="8" y="-92.5" font-family="Helvetica,sans-Serif" font-size="10.00">VMAP::StaticMapTree</text>
<text text-anchor="middle" x="60" y="-81.5" font-family="Helvetica,sans-Serif" font-size="10.00">::LoadMapTile</text>
</a>
</g>
</g>
<!-- Node2 -->
<g id="Node000002" class="node">
<title>Node2</title>
<g id="a_Node000002"><a xlink:href="classVMAP_1_1VMapManager2.html#a705db36ec8821f27f7469347dfe99537" target="_top" xlink:title=" ">
<polygon fill="white" stroke="#666666" points="312.5,-200.5 182.5,-200.5 182.5,-170.5 312.5,-170.5 312.5,-200.5"/>
<text text-anchor="start" x="190.5" y="-188.5" font-family="Helvetica,sans-Serif" font-size="10.00">VMAP::VMapManager2</text>
<text text-anchor="middle" x="247.5" y="-177.5" font-family="Helvetica,sans-Serif" font-size="10.00">::acquireModelInstance</text>
</a>
</g>
</g>
<!-- Node1&#45;&gt;Node2 -->
<g id="edge1_Node000001_Node000002" class="edge">
<title>Node1&#45;&gt;Node2</title>
<g id="a_edge1_Node000001_Node000002"><a xlink:title=" ">
<path fill="none" stroke="#63b8ff" d="M76.84,-104.65C94.72,-120.95 125.31,-146.53 156,-161.5 161.24,-164.06 166.79,-166.37 172.46,-168.45"/>
<polygon fill="#63b8ff" stroke="#63b8ff" points="171.48,-171.82 182.08,-171.75 173.75,-165.2 171.48,-171.82"/>
</a>
</g>
</g>
<!-- Node3 -->
<g id="Node000003" class="node">
<title>Node3</title>
<g id="a_Node000003"><a xlink:href="classVMAP_1_1StaticMapTree.html#a683766871909833b0859fb7dfefc780b" target="_top" xlink:title=" ">
<polygon fill="white" stroke="#666666" points="307.5,-152.5 187.5,-152.5 187.5,-122.5 307.5,-122.5 307.5,-152.5"/>
<text text-anchor="start" x="195.5" y="-140.5" font-family="Helvetica,sans-Serif" font-size="10.00">VMAP::StaticMapTree</text>
<text text-anchor="middle" x="247.5" y="-129.5" font-family="Helvetica,sans-Serif" font-size="10.00">::getTileFileName</text>
</a>
</g>
</g>
<!-- Node1&#45;&gt;Node3 -->
<g id="edge2_Node000001_Node000003" class="edge">
<title>Node1&#45;&gt;Node3</title>
<g id="a_edge2_Node000001_Node000003"><a xlink:title=" ">
<path fill="none" stroke="#63b8ff" d="M119.18,-104.56C138.09,-109.45 159.23,-114.92 178.77,-119.98"/>
<polygon fill="#63b8ff" stroke="#63b8ff" points="177.96,-123.38 188.52,-122.5 179.72,-116.6 177.96,-123.38"/>
</a>
</g>
</g>
<!-- Node4 -->
<g id="Node000004" class="node">
<title>Node4</title>
<g id="a_Node000004"><a xlink:href="classVMAP_1_1StaticMapTree.html#a7848384066c8087895569a704f07e012" target="_top" xlink:title=" ">
<polygon fill="white" stroke="#666666" points="307.5,-104.5 187.5,-104.5 187.5,-74.5 307.5,-74.5 307.5,-104.5"/>
<text text-anchor="start" x="195.5" y="-92.5" font-family="Helvetica,sans-Serif" font-size="10.00">VMAP::StaticMapTree</text>
<text text-anchor="middle" x="247.5" y="-81.5" font-family="Helvetica,sans-Serif" font-size="10.00">::packTileID</text>
</a>
</g>
</g>
<!-- Node1&#45;&gt;Node4 -->
<g id="edge3_Node000001_Node000004" class="edge">
<title>Node1&#45;&gt;Node4</title>
<g id="a_edge3_Node000001_Node000004"><a xlink:title=" ">
<path fill="none" stroke="#63b8ff" d="M120.2,-89.5C138.28,-89.5 158.31,-89.5 177,-89.5"/>
<polygon fill="#63b8ff" stroke="#63b8ff" points="177.22,-93 187.22,-89.5 177.22,-86 177.22,-93"/>
</a>
</g>
</g>
<!-- Node5 -->
<g id="Node000005" class="node">
<title>Node5</title>
<g id="a_Node000005"><a xlink:href="namespaceVMAP.html#a4e38e96434b9ef5f456a0399ee61137b" target="_top" xlink:title=" ">
<polygon fill="white" stroke="#666666" points="299.5,-56 195.5,-56 195.5,-37 299.5,-37 299.5,-56"/>
<text text-anchor="middle" x="247.5" y="-44" font-family="Helvetica,sans-Serif" font-size="10.00">VMAP::readChunk</text>
</a>
</g>
</g>
<!-- Node1&#45;&gt;Node5 -->
<g id="edge4_Node000001_Node000005" class="edge">
<title>Node1&#45;&gt;Node5</title>
<g id="a_edge4_Node000001_Node000005"><a xlink:title=" ">
<path fill="none" stroke="#63b8ff" d="M118.94,-74.47C131.15,-71.41 143.98,-68.28 156,-65.5 166.78,-63.01 178.31,-60.48 189.41,-58.12"/>
<polygon fill="#63b8ff" stroke="#63b8ff" points="190.39,-61.49 199.45,-56 188.94,-54.64 190.39,-61.49"/>
</a>
</g>
</g>
<!-- Node6 -->
<g id="Node000006" class="node">
<title>Node6</title>
<g id="a_Node000006"><a xlink:href="classVMAP_1_1ModelSpawn.html#a35d7880eb3e295ed3148ca05a2f4520e" target="_top" xlink:title=" ">
<polygon fill="white" stroke="#666666" points="339,-19 156,-19 156,0 339,0 339,-19"/>
<text text-anchor="middle" x="247.5" y="-7" font-family="Helvetica,sans-Serif" font-size="10.00">VMAP::ModelSpawn::readFromFile</text>
</a>
</g>
</g>
<!-- Node1&#45;&gt;Node6 -->
<g id="edge5_Node000001_Node000006" class="edge">
<title>Node1&#45;&gt;Node6</title>
<g id="a_edge5_Node000001_Node000006"><a xlink:title=" ">
<path fill="none" stroke="#63b8ff" d="M79.86,-74.42C98.25,-60.47 127.52,-40.17 156,-28.5 162.29,-25.92 168.97,-23.68 175.75,-21.73"/>
<polygon fill="#63b8ff" stroke="#63b8ff" points="176.94,-25.03 185.7,-19.08 175.14,-18.27 176.94,-25.03"/>
</a>
</g>
</g>
</g>
</svg>
</svg>

<style type='text/css'>
<![CDATA[
[data-mouse-over-selected='false'] { opacity: 0.7; }
[data-mouse-over-selected='true']  { opacity: 1.0; }
]]>
</style>
<script type="application/ecmascript"><![CDATA[
document.addEventListener('DOMContentLoaded', (event) => {
  highlightEdges();
  highlightAdjacentNodes();
});
]]></script>
</svg>
