<?xml version="1.0" encoding="UTF-8" standalone="no"?>
<!DOCTYPE svg PUBLIC "-//W3C//DTD SVG 1.1//EN"
 "http://www.w3.org/Graphics/SVG/1.1/DTD/svg11.dtd">
<!-- Generated by graphviz version 2.43.0 (0)
 -->
<!-- Title: QuestMgr::CalcQuestStatus Pages: 1 -->
<!--zoomable 441 -->

<svg id="main" version="1.1" xmlns="http://www.w3.org/2000/svg" xmlns:xlink="http://www.w3.org/1999/xlink" xml:space="preserve" onload="init(evt)">
<style type="text/css"><![CDATA[
.node, .edge {opacity: 0.7;}
.node.selected, .edge.selected {opacity: 1;}
.edge:hover path { stroke: red; }
.edge:hover polygon { stroke: red; fill: red; }
]]></style>

<defs>
  <circle id="rim" cx="0" cy="0" r="7"/>
  <circle id="rim2" cx="0" cy="0" r="3.5"/>
  <g id="zoomPlus">
    <use xlink:href="#rim" fill="#404040"><set attributeName="fill" to="#808080" begin="zoomplus.mouseover" end="zoomplus.mouseout"/></use>
    <path d="M-4,0h8M0,-4v8" fill="none" stroke="white" stroke-width="1.5" pointer-events="none"/>
  </g>
  <g id="zoomMin">
    <use xlink:href="#rim" fill="#404040"><set attributeName="fill" to="#808080" begin="zoomminus.mouseover" end="zoomminus.mouseout"/></use>
    <path d="M-4,0h8" fill="none" stroke="white" stroke-width="1.5" pointer-events="none"/>
  </g>
  <g id="arrowUp" transform="translate(30 24)">
    <use xlink:href="#rim"/>
    <path pointer-events="none" fill="none" stroke="white" stroke-width="1.5" d="M0,-3.0v7 M-2.5,-0.5L0,-3.0L2.5,-0.5"/>
  </g>
  <g id="arrowRight" transform="rotate(90) translate(36 -43)">
    <use xlink:href="#rim"/>
    <path pointer-events="none" fill="none" stroke="white" stroke-width="1.5" d="M0,-3.0v7 M-2.5,-0.5L0,-3.0L2.5,-0.5"/>
  </g>
  <g id="arrowDown" transform="rotate(180) translate(-30 -48)">
    <use xlink:href="#rim"/>
    <path pointer-events="none" fill="none" stroke="white" stroke-width="1.5" d="M0,-3.0v7 M-2.5,-0.5L0,-3.0L2.5,-0.5"/>
  </g>
  <g id="arrowLeft" transform="rotate(270) translate(-36 17)">
    <use xlink:href="#rim"/>
    <path pointer-events="none" fill="none" stroke="white" stroke-width="1.5" d="M0,-3.0v7 M-2.5,-0.5L0,-3.0L2.5,-0.5"/>
  </g>
  <g id="resetDef">
    <use xlink:href="#rim2" fill="#404040"><set attributeName="fill" to="#808080" begin="reset.mouseover" end="reset.mouseout"/></use>
  </g>
</defs>
<script type="application/ecmascript">
var viewWidth = 748;
var viewHeight = 441;
var sectionId = 'dynsection-20';
</script>
<script type="application/ecmascript" xlink:href="svg.min.js"/>
<svg id="graph" class="graph">
<g id="viewport">
<title>QuestMgr::CalcQuestStatus</title>
<!-- Node1 -->
<g id="Node000001" class="node">
<title>Node1</title>
<g id="a_Node000001"><a xlink:title=" ">
<polygon fill="#999999" stroke="#666666" points="150,-111.92 0,-111.92 0,-92.92 150,-92.92 150,-111.92"/>
<text text-anchor="middle" x="75" y="-99.92" font-family="Helvetica,sans-Serif" font-size="10.00">QuestMgr::CalcQuestStatus</text>
</a>
</g>
</g>
<!-- Node2 -->
<g id="Node000002" class="node">
<title>Node2</title>
<g id="a_Node000002"><a xlink:href="classPlayer.html#aaa3ccb5fdef21b0a171ef321312c089d" target="_top" xlink:title=" ">
<polygon fill="white" stroke="#666666" points="740,-148.92 575,-148.92 575,-129.92 740,-129.92 740,-148.92"/>
<text text-anchor="middle" x="657.5" y="-136.92" font-family="Helvetica,sans-Serif" font-size="10.00">Player::getQuestLogByQuestId</text>
</a>
</g>
</g>
<!-- Node1&#45;&gt;Node2 -->
<g id="edge1_Node000001_Node000002" class="edge">
<title>Node1&#45;&gt;Node2</title>
<g id="a_edge1_Node000001_Node000002"><a xlink:title=" ">
<path fill="none" stroke="#63b8ff" d="M93.57,-92.71C156.47,-59.32 375.39,45.14 539,-22.42 587.56,-42.47 626.59,-93.39 645.01,-120.98"/>
<polygon fill="#63b8ff" stroke="#63b8ff" points="642.27,-123.19 650.64,-129.67 648.14,-119.38 642.27,-123.19"/>
</a>
</g>
</g>
<!-- Node3 -->
<g id="Node000003" class="node">
<title>Node3</title>
<g id="a_Node000003"><a xlink:href="classQuestMgr.html#a4be1bf9ec01275cb53e0e9d159e5ebcb" target="_top" xlink:title=" ">
<polygon fill="white" stroke="#666666" points="341,-228.92 186,-228.92 186,-209.92 341,-209.92 341,-228.92"/>
<text text-anchor="middle" x="263.5" y="-216.92" font-family="Helvetica,sans-Serif" font-size="10.00">QuestMgr::PlayerMeetsReqs</text>
</a>
</g>
</g>
<!-- Node1&#45;&gt;Node3 -->
<g id="edge2_Node000001_Node000003" class="edge">
<title>Node1&#45;&gt;Node3</title>
<g id="a_edge2_Node000001_Node000003"><a xlink:title=" ">
<path fill="none" stroke="#63b8ff" d="M91.26,-112C123.72,-132.36 199.8,-180.09 238.69,-204.49"/>
<polygon fill="#63b8ff" stroke="#63b8ff" points="236.96,-207.53 247.29,-209.88 240.68,-201.6 236.96,-207.53"/>
</a>
</g>
</g>
<!-- Node4 -->
<g id="Node000004" class="node">
<title>Node4</title>
<g id="a_Node000004"><a xlink:href="classUnit.html#ac8fda184f48446e05d797069a1bc3b6d" target="_top" xlink:title=" ">
<polygon fill="white" stroke="#666666" points="513.5,-358.92 402.5,-358.92 402.5,-339.92 513.5,-339.92 513.5,-358.92"/>
<text text-anchor="middle" x="458" y="-346.92" font-family="Helvetica,sans-Serif" font-size="10.00">Unit::getClassMask</text>
</a>
</g>
</g>
<!-- Node3&#45;&gt;Node4 -->
<g id="edge3_Node000003_Node000004" class="edge">
<title>Node3&#45;&gt;Node4</title>
<g id="a_edge3_Node000003_Node000004"><a xlink:title=" ">
<path fill="none" stroke="#63b8ff" d="M271.4,-229.21C287.34,-251.04 329,-303.83 377,-330.42 381.84,-333.1 387.05,-335.41 392.4,-337.39"/>
<polygon fill="#63b8ff" stroke="#63b8ff" points="391.55,-340.79 402.14,-340.61 393.75,-334.15 391.55,-340.79"/>
</a>
</g>
</g>
<!-- Node5 -->
<g id="Node000005" class="node">
<title>Node5</title>
<g id="a_Node000005"><a xlink:href="classPlayer.html#aba80d5a643723fb5982b12670823c2de" target="_top" xlink:title=" ">
<polygon fill="white" stroke="#666666" points="531,-321.92 385,-321.92 385,-302.92 531,-302.92 531,-321.92"/>
<text text-anchor="middle" x="458" y="-309.92" font-family="Helvetica,sans-Serif" font-size="10.00">Player::getFactionStanding</text>
</a>
</g>
</g>
<!-- Node3&#45;&gt;Node5 -->
<g id="edge4_Node000003_Node000005" class="edge">
<title>Node3&#45;&gt;Node5</title>
<g id="a_edge4_Node000003_Node000005"><a xlink:title=" ">
<path fill="none" stroke="#63b8ff" d="M276.18,-229.13C295.78,-244.93 337.08,-276.19 377,-293.42 382.76,-295.91 388.91,-298.1 395.13,-300.03"/>
<polygon fill="#63b8ff" stroke="#63b8ff" points="394.35,-303.45 404.93,-302.84 396.28,-296.72 394.35,-303.45"/>
</a>
</g>
</g>
<!-- Node6 -->
<g id="Node000006" class="node">
<title>Node6</title>
<g id="a_Node000006"><a xlink:href="classUnit.html#adfa16ac0ecbefbac2e41e3fb1590a1a5" target="_top" xlink:title=" ">
<polygon fill="white" stroke="#666666" points="500.5,-432.92 415.5,-432.92 415.5,-413.92 500.5,-413.92 500.5,-432.92"/>
<text text-anchor="middle" x="458" y="-420.92" font-family="Helvetica,sans-Serif" font-size="10.00">Unit::getLevel</text>
</a>
</g>
</g>
<!-- Node3&#45;&gt;Node6 -->
<g id="edge5_Node000003_Node000006" class="edge">
<title>Node3&#45;&gt;Node6</title>
<g id="a_edge5_Node000003_Node000006"><a xlink:title=" ">
<path fill="none" stroke="#63b8ff" d="M267.48,-229.34C277.37,-260.53 312.25,-357.33 377,-404.42 385.31,-410.47 395.28,-414.61 405.31,-417.45"/>
<polygon fill="#63b8ff" stroke="#63b8ff" points="404.76,-420.92 415.3,-419.88 406.41,-414.12 404.76,-420.92"/>
</a>
</g>
</g>
<!-- Node8 -->
<g id="Node000008" class="node">
<title>Node8</title>
<g id="a_Node000008"><a xlink:href="classUnit.html#af0dd611d4c74308572364a5b5f85762b" target="_top" xlink:title=" ">
<polygon fill="white" stroke="#666666" points="512.5,-247.92 403.5,-247.92 403.5,-228.92 512.5,-228.92 512.5,-247.92"/>
<text text-anchor="middle" x="458" y="-235.92" font-family="Helvetica,sans-Serif" font-size="10.00">Unit::getRaceMask</text>
</a>
</g>
</g>
<!-- Node3&#45;&gt;Node8 -->
<g id="edge7_Node000003_Node000008" class="edge">
<title>Node3&#45;&gt;Node8</title>
<g id="a_edge7_Node000003_Node000008"><a xlink:title=" ">
<path fill="none" stroke="#63b8ff" d="M341.13,-226.98C358.41,-228.69 376.57,-230.48 393.26,-232.13"/>
<polygon fill="#63b8ff" stroke="#63b8ff" points="393.14,-235.63 403.43,-233.13 393.82,-228.67 393.14,-235.63"/>
</a>
</g>
</g>
<!-- Node9 -->
<g id="Node000009" class="node">
<title>Node9</title>
<g id="a_Node000009"><a xlink:href="classPlayer.html#a099ed23261deea7c122a3d35a53eff83" target="_top" xlink:title=" ">
<polygon fill="white" stroke="#666666" points="531,-210.92 385,-210.92 385,-191.92 531,-191.92 531,-210.92"/>
<text text-anchor="middle" x="458" y="-198.92" font-family="Helvetica,sans-Serif" font-size="10.00">Player::getSkillLineCurrent</text>
</a>
</g>
</g>
<!-- Node3&#45;&gt;Node9 -->
<g id="edge8_Node000003_Node000009" class="edge">
<title>Node3&#45;&gt;Node9</title>
<g id="a_edge8_Node000003_Node000009"><a xlink:title=" ">
<path fill="none" stroke="#63b8ff" d="M341.13,-212.26C352.13,-211.23 363.49,-210.17 374.59,-209.13"/>
<polygon fill="#63b8ff" stroke="#63b8ff" points="375.07,-212.6 384.7,-208.18 374.42,-205.63 375.07,-212.6"/>
</a>
</g>
</g>
<!-- Node10 -->
<g id="Node000010" class="node">
<title>Node10</title>
<g id="a_Node000010"><a xlink:href="classPlayer.html#a8b93cd9b8b8d818eaba584313fe31ed3" target="_top" xlink:title=" ">
<polygon fill="white" stroke="#666666" points="528,-173.92 388,-173.92 388,-154.92 528,-154.92 528,-173.92"/>
<text text-anchor="middle" x="458" y="-161.92" font-family="Helvetica,sans-Serif" font-size="10.00">Player::hasQuestFinished</text>
</a>
</g>
</g>
<!-- Node3&#45;&gt;Node10 -->
<g id="edge9_Node000003_Node000010" class="edge">
<title>Node3&#45;&gt;Node10</title>
<g id="a_edge9_Node000003_Node000010"><a xlink:title=" ">
<path fill="none" stroke="#63b8ff" d="M291.1,-209.87C313.76,-201.92 347.27,-190.63 377,-182.42 384.8,-180.26 393.09,-178.18 401.26,-176.24"/>
<polygon fill="#63b8ff" stroke="#63b8ff" points="402.17,-179.62 411.12,-173.95 400.59,-172.8 402.17,-179.62"/>
</a>
</g>
</g>
<!-- Node11 -->
<g id="Node000011" class="node">
<title>Node11</title>
<g id="a_Node000011"><a xlink:href="classPlayer.html#a3187fcd069fee27a61ed159ea37114f4" target="_top" xlink:title=" ">
<polygon fill="white" stroke="#666666" points="532.5,-136.42 383.5,-136.42 383.5,-106.42 532.5,-106.42 532.5,-136.42"/>
<text text-anchor="start" x="391.5" y="-124.42" font-family="Helvetica,sans-Serif" font-size="10.00">Player::hasQuestInFinished</text>
<text text-anchor="middle" x="458" y="-113.42" font-family="Helvetica,sans-Serif" font-size="10.00">Dailies</text>
</a>
</g>
</g>
<!-- Node3&#45;&gt;Node11 -->
<g id="edge10_Node000003_Node000011" class="edge">
<title>Node3&#45;&gt;Node11</title>
<g id="a_edge10_Node000003_Node000011"><a xlink:title=" ">
<path fill="none" stroke="#63b8ff" d="M276.62,-209.72C296.51,-194.21 337.81,-163.71 377,-145.42 381.1,-143.51 385.39,-141.7 389.77,-140.01"/>
<polygon fill="#63b8ff" stroke="#63b8ff" points="391.24,-143.2 399.43,-136.48 388.84,-136.62 391.24,-143.2"/>
</a>
</g>
</g>
<!-- Node12 -->
<g id="Node000012" class="node">
<title>Node12</title>
<g id="a_Node000012"><a xlink:href="classPlayer.html#acc04b159107a1083b4e6c21f7c2b7c01" target="_top" xlink:title=" ">
<polygon fill="white" stroke="#666666" points="535,-284.92 381,-284.92 381,-265.92 535,-265.92 535,-284.92"/>
<text text-anchor="middle" x="458" y="-272.92" font-family="Helvetica,sans-Serif" font-size="10.00">Player::hasQuestInQuestLog</text>
</a>
</g>
</g>
<!-- Node3&#45;&gt;Node12 -->
<g id="edge11_Node000003_Node000012" class="edge">
<title>Node3&#45;&gt;Node12</title>
<g id="a_edge11_Node000003_Node000012"><a xlink:title=" ">
<path fill="none" stroke="#63b8ff" d="M291.58,-229.04C314.25,-236.92 347.52,-248.09 377,-256.42 385.58,-258.85 394.74,-261.22 403.69,-263.42"/>
<polygon fill="#63b8ff" stroke="#63b8ff" points="403.11,-266.88 413.65,-265.83 404.75,-260.08 403.11,-266.88"/>
</a>
</g>
</g>
<!-- Node13 -->
<g id="Node000013" class="node">
<title>Node13</title>
<g id="a_Node000013"><a xlink:href="classPlayer.html#a1385bccb875f3168b2cc734a70849590" target="_top" xlink:title=" ">
<polygon fill="white" stroke="#666666" points="514,-87.92 402,-87.92 402,-68.92 514,-68.92 514,-87.92"/>
<text text-anchor="middle" x="458" y="-75.92" font-family="Helvetica,sans-Serif" font-size="10.00">Player::hasSkillLine</text>
</a>
</g>
</g>
<!-- Node3&#45;&gt;Node13 -->
<g id="edge13_Node000003_Node000013" class="edge">
<title>Node3&#45;&gt;Node13</title>
<g id="a_edge13_Node000003_Node000013"><a xlink:title=" ">
<path fill="none" stroke="#63b8ff" d="M270.48,-209.7C285.36,-186.37 326.52,-126.96 377,-97.42 381.77,-94.63 386.94,-92.24 392.26,-90.21"/>
<polygon fill="#63b8ff" stroke="#63b8ff" points="393.62,-93.44 401.96,-86.92 391.37,-86.82 393.62,-93.44"/>
</a>
</g>
</g>
<!-- Node14 -->
<g id="Node000014" class="node">
<title>Node14</title>
<g id="a_Node000014"><a xlink:href="classQuestMgr.html#a75ae1fdeb4222e5fe1735c245425ac1e" target="_top" xlink:title=" ">
<polygon fill="white" stroke="#666666" points="524,-50.92 392,-50.92 392,-31.92 524,-31.92 524,-50.92"/>
<text text-anchor="middle" x="458" y="-38.92" font-family="Helvetica,sans-Serif" font-size="10.00">QuestMgr::IsQuestDaily</text>
</a>
</g>
</g>
<!-- Node3&#45;&gt;Node14 -->
<g id="edge14_Node000003_Node000014" class="edge">
<title>Node3&#45;&gt;Node14</title>
<g id="a_edge14_Node000003_Node000014"><a xlink:title=" ">
<path fill="none" stroke="#63b8ff" d="M268.35,-209.62C280,-181.34 317.73,-99.07 377,-59.42 379.31,-57.88 381.72,-56.47 384.22,-55.17"/>
<polygon fill="#63b8ff" stroke="#63b8ff" points="385.87,-58.27 393.58,-51 383.02,-51.88 385.87,-58.27"/>
</a>
</g>
</g>
<!-- Node15 -->
<g id="Node000015" class="node">
<title>Node15</title>
<g id="a_Node000015"><a xlink:href="classQuestMgr.html#adb24c2ee644cacd7c1306271cd9e3f03" target="_top" xlink:title=" ">
<polygon fill="white" stroke="#666666" points="539,-395.92 377,-395.92 377,-376.92 539,-376.92 539,-395.92"/>
<text text-anchor="middle" x="458" y="-383.92" font-family="Helvetica,sans-Serif" font-size="10.00">QuestMgr::IsQuestRepeatable</text>
</a>
</g>
</g>
<!-- Node3&#45;&gt;Node15 -->
<g id="edge15_Node000003_Node000015" class="edge">
<title>Node3&#45;&gt;Node15</title>
<g id="a_edge15_Node000003_Node000015"><a xlink:title=" ">
<path fill="none" stroke="#63b8ff" d="M268.95,-229.22C281.63,-255.98 320.74,-330.8 377,-367.42 380.18,-369.49 383.56,-371.33 387.06,-372.98"/>
<polygon fill="#63b8ff" stroke="#63b8ff" points="386,-376.32 396.58,-376.88 388.66,-369.85 386,-376.32"/>
</a>
</g>
</g>
<!-- Node7 -->
<g id="Node000007" class="node">
<title>Node7</title>
<g id="a_Node000007"><a xlink:href="classUnit.html#a2b80af47340ac01ca2031723f37e839a" target="_top" xlink:title=" ">
<polygon fill="white" stroke="#666666" points="700,-432.92 615,-432.92 615,-413.92 700,-413.92 700,-432.92"/>
<text text-anchor="middle" x="657.5" y="-420.92" font-family="Helvetica,sans-Serif" font-size="10.00">Unit::unitData</text>
</a>
</g>
</g>
<!-- Node6&#45;&gt;Node7 -->
<g id="edge6_Node000006_Node000007" class="edge">
<title>Node6&#45;&gt;Node7</title>
<g id="a_edge6_Node000006_Node000007"><a xlink:title=" ">
<path fill="none" stroke="#63b8ff" d="M500.88,-423.42C531.13,-423.42 572.17,-423.42 604.51,-423.42"/>
<polygon fill="#63b8ff" stroke="#63b8ff" points="604.68,-426.92 614.68,-423.42 604.68,-419.92 604.68,-426.92"/>
</a>
</g>
</g>
<!-- Node12&#45;&gt;Node2 -->
<g id="edge12_Node000012_Node000002" class="edge">
<title>Node12&#45;&gt;Node2</title>
<g id="a_edge12_Node000012_Node000002"><a xlink:title=" ">
<path fill="none" stroke="#63b8ff" d="M516.4,-265.87C524.26,-263.41 532.02,-260.31 539,-256.42 584.44,-231.11 624.28,-183.24 643.78,-157.27"/>
<polygon fill="#63b8ff" stroke="#63b8ff" points="646.7,-159.2 649.8,-149.07 641.06,-155.05 646.7,-159.2"/>
</a>
</g>
</g>
</g>
</svg>

<g id="navigator" transform="translate(0 0)" fill="#404254">
  <rect fill="#f2f5e9" fill-opacity="0.5" stroke="#606060" stroke-width=".5" x="0" y="0" width="60" height="60"/>
  <use id="zoomplus" xlink:href="#zoomPlus" x="17" y="9" onmousedown="handleZoom(evt,'in')"/>
  <use id="zoomminus" xlink:href="#zoomMin" x="42" y="9" onmousedown="handleZoom(evt,'out')"/>
  <use id="reset" xlink:href="#resetDef" x="30" y="36" onmousedown="handleReset()"/>
   <use id="arrowup" xlink:href="#arrowUp" x="0" y="0" onmousedown="handlePan(0,-1)"/>
  <use id="arrowright" xlink:href="#arrowRight" x="0" y="0" onmousedown="handlePan(1,0)"/>
  <use id="arrowdown" xlink:href="#arrowDown" x="0" y="0" onmousedown="handlePan(0,1)"/>
  <use id="arrowleft" xlink:href="#arrowLeft" x="0" y="0" onmousedown="handlePan(-1,0)"/>
</g>
<svg viewBox="0 0 15 15" width="100%" height="30px" preserveAspectRatio="xMaxYMin meet">
 <g id="arrow_out" transform="scale(0.3 0.3)">
  <a xlink:href="classQuestMgr_afcb63e4644ba4c64bdc601c596cc38f8_cgraph_org.svg" target="_base">
   <rect id="button" ry="5" rx="5" y="6" x="6" height="38" width="38"
        fill="#f2f5e9" fill-opacity="0.5" stroke="#606060" stroke-width="1.0"/>
   <path id="arrow"
     d="M 11.500037,31.436501 C 11.940474,20.09759 22.043105,11.32322 32.158766,21.979434 L 37.068811,17.246167 C 37.068811,17.246167 37.088388,32 37.088388,32 L 22.160133,31.978069 C 22.160133,31.978069 26.997745,27.140456 26.997745,27.140456 C 18.528582,18.264221 13.291696,25.230495 11.500037,31.436501 z"
     style="fill:#404040;"/>
  </a>
 </g>
</svg>

<style type='text/css'>
<![CDATA[
[data-mouse-over-selected='false'] { opacity: 0.7; }
[data-mouse-over-selected='true']  { opacity: 1.0; }
]]>
</style>
<script type="application/ecmascript"><![CDATA[
document.addEventListener('DOMContentLoaded', (event) => {
  highlightEdges();
  highlightAdjacentNodes();
});
]]></script>
</svg>
