<?xml version="1.0" encoding="UTF-8" standalone="no"?>
<!DOCTYPE svg PUBLIC "-//W3C//DTD SVG 1.1//EN"
 "http://www.w3.org/Graphics/SVG/1.1/DTD/svg11.dtd">
<!-- Generated by graphviz version 2.43.0 (0)
 -->
<!-- Title: G3D::TextInput::parseNumber Pages: 1 -->
<!--zoomable 401 -->

<svg id="main" version="1.1" xmlns="http://www.w3.org/2000/svg" xmlns:xlink="http://www.w3.org/1999/xlink" xml:space="preserve" onload="init(evt)">
<style type="text/css"><![CDATA[
.node, .edge {opacity: 0.7;}
.node.selected, .edge.selected {opacity: 1;}
.edge:hover path { stroke: red; }
.edge:hover polygon { stroke: red; fill: red; }
]]></style>

<defs>
  <circle id="rim" cx="0" cy="0" r="7"/>
  <circle id="rim2" cx="0" cy="0" r="3.5"/>
  <g id="zoomPlus">
    <use xlink:href="#rim" fill="#404040"><set attributeName="fill" to="#808080" begin="zoomplus.mouseover" end="zoomplus.mouseout"/></use>
    <path d="M-4,0h8M0,-4v8" fill="none" stroke="white" stroke-width="1.5" pointer-events="none"/>
  </g>
  <g id="zoomMin">
    <use xlink:href="#rim" fill="#404040"><set attributeName="fill" to="#808080" begin="zoomminus.mouseover" end="zoomminus.mouseout"/></use>
    <path d="M-4,0h8" fill="none" stroke="white" stroke-width="1.5" pointer-events="none"/>
  </g>
  <g id="arrowUp" transform="translate(30 24)">
    <use xlink:href="#rim"/>
    <path pointer-events="none" fill="none" stroke="white" stroke-width="1.5" d="M0,-3.0v7 M-2.5,-0.5L0,-3.0L2.5,-0.5"/>
  </g>
  <g id="arrowRight" transform="rotate(90) translate(36 -43)">
    <use xlink:href="#rim"/>
    <path pointer-events="none" fill="none" stroke="white" stroke-width="1.5" d="M0,-3.0v7 M-2.5,-0.5L0,-3.0L2.5,-0.5"/>
  </g>
  <g id="arrowDown" transform="rotate(180) translate(-30 -48)">
    <use xlink:href="#rim"/>
    <path pointer-events="none" fill="none" stroke="white" stroke-width="1.5" d="M0,-3.0v7 M-2.5,-0.5L0,-3.0L2.5,-0.5"/>
  </g>
  <g id="arrowLeft" transform="rotate(270) translate(-36 17)">
    <use xlink:href="#rim"/>
    <path pointer-events="none" fill="none" stroke="white" stroke-width="1.5" d="M0,-3.0v7 M-2.5,-0.5L0,-3.0L2.5,-0.5"/>
  </g>
  <g id="resetDef">
    <use xlink:href="#rim2" fill="#404040"><set attributeName="fill" to="#808080" begin="reset.mouseover" end="reset.mouseout"/></use>
  </g>
</defs>
<script type="application/ecmascript">
var viewWidth = 854;
var viewHeight = 401;
var sectionId = 'dynsection-19';
</script>
<script type="application/ecmascript" xlink:href="svg.min.js"/>
<svg id="graph" class="graph">
<g id="viewport">
<title>G3D::TextInput::parseNumber</title>
<!-- Node1 -->
<g id="Node000001" class="node">
<title>Node1</title>
<g id="a_Node000001"><a xlink:title=" ">
<polygon fill="#999999" stroke="#666666" points="846,-107 685,-107 685,-88 846,-88 846,-107"/>
<text text-anchor="middle" x="765.5" y="-95" font-family="Helvetica,sans-Serif" font-size="10.00">G3D::TextInput::parseNumber</text>
</a>
</g>
</g>
<!-- Node2 -->
<g id="Node000002" class="node">
<title>Node2</title>
<g id="a_Node000002"><a xlink:href="classG3D_1_1Token.html#a206e155e88b1a3927d598dbe8cbc5a99" target="_top" xlink:title=" ">
<polygon fill="white" stroke="#666666" points="649,-171 534,-171 534,-152 649,-152 649,-171"/>
<text text-anchor="middle" x="591.5" y="-159" font-family="Helvetica,sans-Serif" font-size="10.00">G3D::Token::number</text>
</a>
</g>
</g>
<!-- Node1&#45;&gt;Node2 -->
<g id="edge1_Node000001_Node000002" class="edge">
<title>Node1&#45;&gt;Node2</title>
<g id="a_edge1_Node000001_Node000002"><a xlink:title=" ">
<path fill="none" stroke="#63b8ff" d="M729.03,-110.7C696.01,-122.99 647.57,-141.01 618.14,-151.96"/>
<polygon fill="#63b8ff" stroke="#63b8ff" points="730.6,-113.85 738.75,-107.08 728.16,-107.29 730.6,-113.85"/>
</a>
</g>
</g>
<!-- Node19 -->
<g id="Node000019" class="node">
<title>Node19</title>
<g id="a_Node000019"><a xlink:href="classG3D_1_1XML.html#a3ca24ceadd093c284c244ac3b7192263" target="_top" xlink:title=" ">
<polygon fill="white" stroke="#666666" points="645.5,-86 537.5,-86 537.5,-67 645.5,-67 645.5,-86"/>
<text text-anchor="middle" x="591.5" y="-74" font-family="Helvetica,sans-Serif" font-size="10.00">G3D::XML::number</text>
</a>
</g>
</g>
<!-- Node1&#45;&gt;Node19 -->
<g id="edge20_Node000001_Node000019" class="edge">
<title>Node1&#45;&gt;Node19</title>
<g id="a_edge20_Node000001_Node000019"><a xlink:title=" ">
<path fill="none" stroke="#63b8ff" d="M676.45,-86.75C665.9,-85.46 655.4,-84.18 645.57,-82.98"/>
<polygon fill="#63b8ff" stroke="#63b8ff" points="676.2,-90.25 686.55,-87.98 677.05,-83.3 676.2,-90.25"/>
</a>
</g>
</g>
<!-- Node3 -->
<g id="Node000003" class="node">
<title>Node3</title>
<g id="a_Node000003"><a xlink:href="classG3D_1_1Any.html#ac74eb690bfebdfecabeb2706716ef785" target="_top" xlink:title=" ">
<polygon fill="white" stroke="#666666" points="481,-264 360,-264 360,-245 481,-245 481,-264"/>
<text text-anchor="middle" x="420.5" y="-252" font-family="Helvetica,sans-Serif" font-size="10.00">G3D::Any::deserialize</text>
</a>
</g>
</g>
<!-- Node2&#45;&gt;Node3 -->
<g id="edge2_Node000002_Node000003" class="edge">
<title>Node2&#45;&gt;Node3</title>
<g id="a_edge2_Node000002_Node000003"><a xlink:title=" ">
<path fill="none" stroke="#63b8ff" d="M563.94,-176.12C529.07,-195.31 468.82,-228.46 439.11,-244.81"/>
<polygon fill="#63b8ff" stroke="#63b8ff" points="565.98,-178.99 573.05,-171.1 562.6,-172.86 565.98,-178.99"/>
</a>
</g>
</g>
<!-- Node13 -->
<g id="Node000013" class="node">
<title>Node13</title>
<g id="a_Node000013"><a xlink:href="classG3D_1_1TextInput.html#a3d57802ceecff071944462f3d741b148" target="_top" xlink:title=" ">
<polygon fill="white" stroke="#666666" points="496,-190 345,-190 345,-171 496,-171 496,-190"/>
<text text-anchor="middle" x="420.5" y="-178" font-family="Helvetica,sans-Serif" font-size="10.00">G3D::TextInput::readInteger</text>
</a>
</g>
</g>
<!-- Node2&#45;&gt;Node13 -->
<g id="edge14_Node000002_Node000013" class="edge">
<title>Node2&#45;&gt;Node13</title>
<g id="a_edge14_Node000002_Node000013"><a xlink:title=" ">
<path fill="none" stroke="#63b8ff" d="M523.68,-169.01C514.62,-170.03 505.28,-171.08 496.1,-172.11"/>
<polygon fill="#63b8ff" stroke="#63b8ff" points="524.21,-172.47 533.76,-167.88 523.43,-165.52 524.21,-172.47"/>
</a>
</g>
</g>
<!-- Node14 -->
<g id="Node000014" class="node">
<title>Node14</title>
<g id="a_Node000014"><a xlink:href="classG3D_1_1TextInput.html#a8d951271115d8b604428a5daa2ffd3ab" target="_top" xlink:title=" ">
<polygon fill="white" stroke="#666666" points="498,-153 343,-153 343,-134 498,-134 498,-153"/>
<text text-anchor="middle" x="420.5" y="-141" font-family="Helvetica,sans-Serif" font-size="10.00">G3D::TextInput::readNumber</text>
</a>
</g>
</g>
<!-- Node2&#45;&gt;Node14 -->
<g id="edge15_Node000002_Node000014" class="edge">
<title>Node2&#45;&gt;Node14</title>
<g id="a_edge15_Node000002_Node000014"><a xlink:title=" ">
<path fill="none" stroke="#63b8ff" d="M523.69,-154.38C515.33,-153.49 506.72,-152.58 498.21,-151.67"/>
<polygon fill="#63b8ff" stroke="#63b8ff" points="523.44,-157.88 533.76,-155.46 524.18,-150.92 523.44,-157.88"/>
</a>
</g>
</g>
<!-- Node4 -->
<g id="Node000004" class="node">
<title>Node4</title>
<g id="a_Node000004"><a xlink:href="classG3D_1_1Any.html#ac1a4c437b451c53da4dc29914c098e88" target="_top" xlink:title=" ">
<polygon fill="white" stroke="#666666" points="284,-375 184,-375 184,-356 284,-356 284,-375"/>
<text text-anchor="middle" x="234" y="-363" font-family="Helvetica,sans-Serif" font-size="10.00">G3D::Any::_parse</text>
</a>
</g>
</g>
<!-- Node3&#45;&gt;Node4 -->
<g id="edge3_Node000003_Node000004" class="edge">
<title>Node3&#45;&gt;Node4</title>
<g id="a_edge3_Node000003_Node000004"><a xlink:title=" ">
<path fill="none" stroke="#63b8ff" d="M404,-271.29C383.71,-292.24 346.11,-327.74 307,-347.5 299.87,-351.1 291.97,-354.02 284.09,-356.36"/>
<polygon fill="#63b8ff" stroke="#63b8ff" points="406.54,-273.69 410.89,-264.03 401.47,-268.87 406.54,-273.69"/>
</a>
</g>
</g>
<!-- Node7 -->
<g id="Node000007" class="node">
<title>Node7</title>
<g id="a_Node000007"><a xlink:href="classG3D_1_1Any.html#a6468d3129a9278f79e777e05c13a8567" target="_top" xlink:title=" ">
<polygon fill="white" stroke="#666666" points="277,-338 191,-338 191,-319 277,-319 277,-338"/>
<text text-anchor="middle" x="234" y="-326" font-family="Helvetica,sans-Serif" font-size="10.00">G3D::Any::Any</text>
</a>
</g>
</g>
<!-- Node3&#45;&gt;Node7 -->
<g id="edge6_Node000003_Node000007" class="edge">
<title>Node3&#45;&gt;Node7</title>
<g id="a_edge6_Node000003_Node000007"><a xlink:title=" ">
<path fill="none" stroke="#63b8ff" d="M394.4,-268.97C372.05,-281.37 338.16,-299 307,-310.5 297.57,-313.98 287.2,-317.01 277.35,-319.54"/>
<polygon fill="#63b8ff" stroke="#63b8ff" points="396.23,-271.96 403.23,-264.01 392.8,-265.86 396.23,-271.96"/>
</a>
</g>
</g>
<!-- Node8 -->
<g id="Node000008" class="node">
<title>Node8</title>
<g id="a_Node000008"><a xlink:href="classG3D_1_1Any.html#adba7043299e843f97a7f90be1612c63d" target="_top" xlink:title=" ">
<polygon fill="white" stroke="#666666" points="294.5,-301 173.5,-301 173.5,-282 294.5,-282 294.5,-301"/>
<text text-anchor="middle" x="234" y="-289" font-family="Helvetica,sans-Serif" font-size="10.00">G3D::Any::deserialize</text>
</a>
</g>
</g>
<!-- Node3&#45;&gt;Node8 -->
<g id="edge7_Node000003_Node000008" class="edge">
<title>Node3&#45;&gt;Node8</title>
<g id="a_edge7_Node000003_Node000008"><a xlink:title=" ">
<path fill="none" stroke="#63b8ff" d="M362.08,-266.02C336.58,-271.13 306.92,-277.08 282.67,-281.94"/>
<polygon fill="#63b8ff" stroke="#63b8ff" points="362.87,-269.43 371.99,-264.03 361.49,-262.56 362.87,-269.43"/>
</a>
</g>
</g>
<!-- Node9 -->
<g id="Node000009" class="node">
<title>Node9</title>
<g id="a_Node000009"><a xlink:href="classG3D_1_1Any.html#ae48fa58039f51889880904f59078257c" target="_top" xlink:title=" ">
<polygon fill="white" stroke="#666666" points="307,-264 161,-264 161,-245 307,-245 307,-264"/>
<text text-anchor="middle" x="234" y="-252" font-family="Helvetica,sans-Serif" font-size="10.00">G3D::Any::deserializeBody</text>
</a>
</g>
</g>
<!-- Node3&#45;&gt;Node9 -->
<g id="edge8_Node000003_Node000009" class="edge">
<title>Node3&#45;&gt;Node9</title>
<g id="a_edge8_Node000003_Node000009"><a xlink:title=" ">
<path fill="none" stroke="#63b8ff" d="M349.81,-247.93C335.82,-247.7 321.08,-247.69 307.01,-247.9"/>
<polygon fill="#63b8ff" stroke="#63b8ff" points="349.78,-251.43 359.85,-248.14 349.93,-244.43 349.78,-251.43"/>
</a>
</g>
</g>
<!-- Node10 -->
<g id="Node000010" class="node">
<title>Node10</title>
<g id="a_Node000010"><a xlink:href="classG3D_1_1Any.html#a08cb72beab6422e4c052a844ddcb8e00" target="_top" xlink:title=" ">
<polygon fill="white" stroke="#666666" points="278.5,-227 189.5,-227 189.5,-208 278.5,-208 278.5,-227"/>
<text text-anchor="middle" x="234" y="-215" font-family="Helvetica,sans-Serif" font-size="10.00">G3D::Any::load</text>
</a>
</g>
</g>
<!-- Node3&#45;&gt;Node10 -->
<g id="edge10_Node000003_Node000010" class="edge">
<title>Node3&#45;&gt;Node10</title>
<g id="a_edge10_Node000003_Node000010"><a xlink:title=" ">
<path fill="none" stroke="#63b8ff" d="M385.35,-242.27C355.24,-234.57 311.2,-225.59 278.56,-220.4"/>
<polygon fill="#63b8ff" stroke="#63b8ff" points="384.82,-245.75 395.38,-244.93 386.61,-238.98 384.82,-245.75"/>
</a>
</g>
</g>
<!-- Node5 -->
<g id="Node000005" class="node">
<title>Node5</title>
<g id="a_Node000005"><a xlink:href="classG3D_1_1Any.html#ae0b4b692e622001846f3916796f11ba5" target="_top" xlink:title=" ">
<polygon fill="white" stroke="#666666" points="123,-393 2,-393 2,-374 123,-374 123,-393"/>
<text text-anchor="middle" x="62.5" y="-381" font-family="Helvetica,sans-Serif" font-size="10.00">G3D::Any::deserialize</text>
</a>
</g>
</g>
<!-- Node4&#45;&gt;Node5 -->
<g id="edge4_Node000004_Node000005" class="edge">
<title>Node4&#45;&gt;Node5</title>
<g id="a_edge4_Node000004_Node000005"><a xlink:title=" ">
<path fill="none" stroke="#63b8ff" d="M173.96,-371.77C157.54,-373.51 139.7,-375.41 123.24,-377.16"/>
<polygon fill="#63b8ff" stroke="#63b8ff" points="174.4,-375.24 183.97,-370.71 173.66,-368.28 174.4,-375.24"/>
</a>
</g>
</g>
<!-- Node6 -->
<g id="Node000006" class="node">
<title>Node6</title>
<g id="a_Node000006"><a xlink:href="classG3D_1_1Any.html#a70cce7628f93571470c23a1c08b8ddd9" target="_top" xlink:title=" ">
<polygon fill="white" stroke="#666666" points="110,-356 15,-356 15,-337 110,-337 110,-356"/>
<text text-anchor="middle" x="62.5" y="-344" font-family="Helvetica,sans-Serif" font-size="10.00">G3D::Any::parse</text>
</a>
</g>
</g>
<!-- Node4&#45;&gt;Node6 -->
<g id="edge5_Node000004_Node000006" class="edge">
<title>Node4&#45;&gt;Node6</title>
<g id="a_edge5_Node000004_Node000006"><a xlink:title=" ">
<path fill="none" stroke="#63b8ff" d="M173.92,-358.88C153.02,-356.53 129.81,-353.93 110.09,-351.72"/>
<polygon fill="#63b8ff" stroke="#63b8ff" points="173.65,-362.37 183.97,-360 174.43,-355.41 173.65,-362.37"/>
</a>
</g>
</g>
<!-- Node9&#45;&gt;Node3 -->
<g id="edge9_Node000009_Node000003" class="edge">
<title>Node9&#45;&gt;Node3</title>
<g id="a_edge9_Node000009_Node000003"><a xlink:title=" ">
<path fill="none" stroke="#63b8ff" d="M317.35,-261.22C331.67,-261.32 346.3,-261.2 359.85,-260.86"/>
<polygon fill="#63b8ff" stroke="#63b8ff" points="317.05,-257.71 307.01,-261.1 316.97,-264.71 317.05,-257.71"/>
</a>
</g>
</g>
<!-- Node10&#45;&gt;Node3 -->
<g id="edge11_Node000010_Node000003" class="edge">
<title>Node10&#45;&gt;Node3</title>
<g id="a_edge11_Node000010_Node000003"><a xlink:title=" ">
<path fill="none" stroke="#63b8ff" d="M269.23,-229.75C294.62,-236.24 329.87,-243.63 359.85,-248.9"/>
<polygon fill="#63b8ff" stroke="#63b8ff" points="269.9,-226.31 259.34,-227.13 268.11,-233.07 269.9,-226.31"/>
</a>
</g>
</g>
<!-- Node11 -->
<g id="Node000011" class="node">
<title>Node11</title>
<g id="a_Node000011"><a xlink:href="classG3D_1_1Any.html#ada721ac29c49f7d4fa23eaa1ae88256e" target="_top" xlink:title=" ">
<polygon fill="white" stroke="#666666" points="116.5,-245 8.5,-245 8.5,-226 116.5,-226 116.5,-245"/>
<text text-anchor="middle" x="62.5" y="-233" font-family="Helvetica,sans-Serif" font-size="10.00">G3D::Any::fromFile</text>
</a>
</g>
</g>
<!-- Node10&#45;&gt;Node11 -->
<g id="edge12_Node000010_Node000011" class="edge">
<title>Node10&#45;&gt;Node11</title>
<g id="a_edge12_Node000010_Node000011"><a xlink:title=" ">
<path fill="none" stroke="#63b8ff" d="M179.18,-223.22C159.21,-225.34 136.59,-227.74 116.68,-229.85"/>
<polygon fill="#63b8ff" stroke="#63b8ff" points="179.78,-226.67 189.35,-222.14 179.04,-219.71 179.78,-226.67"/>
</a>
</g>
</g>
<!-- Node12 -->
<g id="Node000012" class="node">
<title>Node12</title>
<g id="a_Node000012"><a xlink:href="classG3D_1_1Any.html#aa46a7029dff2bae5c907823e7e4a9cc6" target="_top" xlink:title=" ">
<polygon fill="white" stroke="#666666" points="125,-208 0,-208 0,-189 125,-189 125,-208"/>
<text text-anchor="middle" x="62.5" y="-196" font-family="Helvetica,sans-Serif" font-size="10.00">G3D::Any::loadIfExists</text>
</a>
</g>
</g>
<!-- Node10&#45;&gt;Node12 -->
<g id="edge13_Node000010_Node000012" class="edge">
<title>Node10&#45;&gt;Node12</title>
<g id="a_edge13_Node000010_Node000012"><a xlink:title=" ">
<path fill="none" stroke="#63b8ff" d="M178.97,-211.44C161.86,-209.53 142.82,-207.39 125.21,-205.42"/>
<polygon fill="#63b8ff" stroke="#63b8ff" points="179.02,-214.97 189.35,-212.61 179.8,-208.01 179.02,-214.97"/>
</a>
</g>
</g>
<!-- Node15 -->
<g id="Node000015" class="node">
<title>Node15</title>
<g id="a_Node000015"><a xlink:href="namespaceG3D.html#aed69c326bbf740f6a70a39201930f756" target="_top" xlink:title=" ">
<polygon fill="white" stroke="#666666" points="282.5,-190 185.5,-190 185.5,-171 282.5,-171 282.5,-190"/>
<text text-anchor="middle" x="234" y="-178" font-family="Helvetica,sans-Serif" font-size="10.00">G3D::deserialize</text>
</a>
</g>
</g>
<!-- Node14&#45;&gt;Node15 -->
<g id="edge16_Node000014_Node000015" class="edge">
<title>Node14&#45;&gt;Node15</title>
<g id="a_edge16_Node000014_Node000015"><a xlink:title=" ">
<path fill="none" stroke="#63b8ff" d="M362.08,-155.02C336.58,-160.13 306.92,-166.08 282.67,-170.94"/>
<polygon fill="#63b8ff" stroke="#63b8ff" points="362.87,-158.43 371.99,-153.03 361.49,-151.56 362.87,-158.43"/>
</a>
</g>
</g>
<!-- Node16 -->
<g id="Node000016" class="node">
<title>Node16</title>
<g id="a_Node000016"><a xlink:href="namespaceG3D.html#ac3ef0be913c826bdc4fbb19615677a39" target="_top" xlink:title=" ">
<polygon fill="white" stroke="#666666" points="282.5,-153 185.5,-153 185.5,-134 282.5,-134 282.5,-153"/>
<text text-anchor="middle" x="234" y="-141" font-family="Helvetica,sans-Serif" font-size="10.00">G3D::deserialize</text>
</a>
</g>
</g>
<!-- Node14&#45;&gt;Node16 -->
<g id="edge17_Node000014_Node000016" class="edge">
<title>Node14&#45;&gt;Node16</title>
<g id="a_edge17_Node000014_Node000016"><a xlink:title=" ">
<path fill="none" stroke="#63b8ff" d="M332.75,-143.5C315.51,-143.5 298.01,-143.5 282.67,-143.5"/>
<polygon fill="#63b8ff" stroke="#63b8ff" points="332.86,-147 342.86,-143.5 332.86,-140 332.86,-147"/>
</a>
</g>
</g>
<!-- Node17 -->
<g id="Node000017" class="node">
<title>Node17</title>
<g id="a_Node000017"><a xlink:href="namespaceG3D.html#ac11912aefc20b0bbf57df398ebfe116e" target="_top" xlink:title=" ">
<polygon fill="white" stroke="#666666" points="282.5,-116 185.5,-116 185.5,-97 282.5,-97 282.5,-116"/>
<text text-anchor="middle" x="234" y="-104" font-family="Helvetica,sans-Serif" font-size="10.00">G3D::deserialize</text>
</a>
</g>
</g>
<!-- Node14&#45;&gt;Node17 -->
<g id="edge18_Node000014_Node000017" class="edge">
<title>Node14&#45;&gt;Node17</title>
<g id="a_edge18_Node000014_Node000017"><a xlink:title=" ">
<path fill="none" stroke="#63b8ff" d="M362.08,-131.98C336.58,-126.87 306.92,-120.92 282.67,-116.06"/>
<polygon fill="#63b8ff" stroke="#63b8ff" points="361.49,-135.44 371.99,-133.97 362.87,-128.57 361.49,-135.44"/>
</a>
</g>
</g>
<!-- Node18 -->
<g id="Node000018" class="node">
<title>Node18</title>
<g id="a_Node000018"><a xlink:href="namespaceG3D.html#af7825a9d0cceed6263747a822ef0c320" target="_top" xlink:title=" ">
<polygon fill="white" stroke="#666666" points="282.5,-79 185.5,-79 185.5,-60 282.5,-60 282.5,-79"/>
<text text-anchor="middle" x="234" y="-67" font-family="Helvetica,sans-Serif" font-size="10.00">G3D::deserialize</text>
</a>
</g>
</g>
<!-- Node14&#45;&gt;Node18 -->
<g id="edge19_Node000014_Node000018" class="edge">
<title>Node14&#45;&gt;Node18</title>
<g id="a_edge19_Node000014_Node000018"><a xlink:title=" ">
<path fill="none" stroke="#63b8ff" d="M355.64,-130.51C351.26,-128.75 346.99,-126.76 343,-124.5 323.3,-113.37 326.62,-99.78 307,-88.5 299.49,-84.18 290.98,-80.82 282.51,-78.22"/>
<polygon fill="#63b8ff" stroke="#63b8ff" points="354.81,-133.93 365.4,-133.99 357.16,-127.33 354.81,-133.93"/>
</a>
</g>
</g>
<!-- Node20 -->
<g id="Node000020" class="node">
<title>Node20</title>
<g id="a_Node000020"><a xlink:href="classG3D_1_1XML.html#ad64ccd3773ac59f6c93810d12d382257" target="_top" xlink:title=" ">
<polygon fill="white" stroke="#666666" points="476.5,-115.5 364.5,-115.5 364.5,-85.5 476.5,-85.5 476.5,-115.5"/>
<text text-anchor="start" x="372.5" y="-103.5" font-family="Helvetica,sans-Serif" font-size="10.00">G3D::XML::operator</text>
<text text-anchor="middle" x="420.5" y="-92.5" font-family="Helvetica,sans-Serif" font-size="10.00"> double</text>
</a>
</g>
</g>
<!-- Node19&#45;&gt;Node20 -->
<g id="edge21_Node000019_Node000020" class="edge">
<title>Node19&#45;&gt;Node20</title>
<g id="a_edge21_Node000019_Node000020"><a xlink:title=" ">
<path fill="none" stroke="#63b8ff" d="M527.31,-85.47C510.66,-87.84 492.84,-90.37 476.65,-92.67"/>
<polygon fill="#63b8ff" stroke="#63b8ff" points="528.08,-88.9 537.49,-84.03 527.1,-81.97 528.08,-88.9"/>
</a>
</g>
</g>
<!-- Node21 -->
<g id="Node000021" class="node">
<title>Node21</title>
<g id="a_Node000021"><a xlink:href="classG3D_1_1XML.html#a5baa022d70c4027d0d3b990ccb450825" target="_top" xlink:title=" ">
<polygon fill="white" stroke="#666666" points="476.5,-67.5 364.5,-67.5 364.5,-37.5 476.5,-37.5 476.5,-67.5"/>
<text text-anchor="start" x="372.5" y="-55.5" font-family="Helvetica,sans-Serif" font-size="10.00">G3D::XML::operator</text>
<text text-anchor="middle" x="420.5" y="-44.5" font-family="Helvetica,sans-Serif" font-size="10.00"> float</text>
</a>
</g>
</g>
<!-- Node19&#45;&gt;Node21 -->
<g id="edge22_Node000019_Node000021" class="edge">
<title>Node19&#45;&gt;Node21</title>
<g id="a_edge22_Node000019_Node000021"><a xlink:title=" ">
<path fill="none" stroke="#63b8ff" d="M527.31,-67.53C510.66,-65.16 492.84,-62.63 476.65,-60.33"/>
<polygon fill="#63b8ff" stroke="#63b8ff" points="527.1,-71.03 537.49,-68.97 528.08,-64.1 527.1,-71.03"/>
</a>
</g>
</g>
<!-- Node22 -->
<g id="Node000022" class="node">
<title>Node22</title>
<g id="a_Node000022"><a xlink:href="classG3D_1_1XML.html#abbde916e1f3572a8644309f107733831" target="_top" xlink:title=" ">
<polygon fill="white" stroke="#666666" points="484.5,-19 356.5,-19 356.5,0 484.5,0 484.5,-19"/>
<text text-anchor="middle" x="420.5" y="-7" font-family="Helvetica,sans-Serif" font-size="10.00">G3D::XML::operator int</text>
</a>
</g>
</g>
<!-- Node19&#45;&gt;Node22 -->
<g id="edge23_Node000019_Node000022" class="edge">
<title>Node19&#45;&gt;Node22</title>
<g id="a_edge23_Node000019_Node000022"><a xlink:title=" ">
<path fill="none" stroke="#63b8ff" d="M566.19,-61.87C547.94,-51.39 522.07,-37.59 498,-28.5 488.27,-24.83 477.58,-21.66 467.35,-19.02"/>
<polygon fill="#63b8ff" stroke="#63b8ff" points="564.58,-64.98 574.98,-67 568.11,-58.94 564.58,-64.98"/>
</a>
</g>
</g>
</g>
</svg>

<g id="navigator" transform="translate(0 0)" fill="#404254">
  <rect fill="#f2f5e9" fill-opacity="0.5" stroke="#606060" stroke-width=".5" x="0" y="0" width="60" height="60"/>
  <use id="zoomplus" xlink:href="#zoomPlus" x="17" y="9" onmousedown="handleZoom(evt,'in')"/>
  <use id="zoomminus" xlink:href="#zoomMin" x="42" y="9" onmousedown="handleZoom(evt,'out')"/>
  <use id="reset" xlink:href="#resetDef" x="30" y="36" onmousedown="handleReset()"/>
   <use id="arrowup" xlink:href="#arrowUp" x="0" y="0" onmousedown="handlePan(0,-1)"/>
  <use id="arrowright" xlink:href="#arrowRight" x="0" y="0" onmousedown="handlePan(1,0)"/>
  <use id="arrowdown" xlink:href="#arrowDown" x="0" y="0" onmousedown="handlePan(0,1)"/>
  <use id="arrowleft" xlink:href="#arrowLeft" x="0" y="0" onmousedown="handlePan(-1,0)"/>
</g>
<svg viewBox="0 0 15 15" width="100%" height="30px" preserveAspectRatio="xMaxYMin meet">
 <g id="arrow_out" transform="scale(0.3 0.3)">
  <a xlink:href="classG3D_1_1TextInput_a32c440c3e050345bcd03d502cd9c8f48_icgraph_org.svg" target="_base">
   <rect id="button" ry="5" rx="5" y="6" x="6" height="38" width="38"
        fill="#f2f5e9" fill-opacity="0.5" stroke="#606060" stroke-width="1.0"/>
   <path id="arrow"
     d="M 11.500037,31.436501 C 11.940474,20.09759 22.043105,11.32322 32.158766,21.979434 L 37.068811,17.246167 C 37.068811,17.246167 37.088388,32 37.088388,32 L 22.160133,31.978069 C 22.160133,31.978069 26.997745,27.140456 26.997745,27.140456 C 18.528582,18.264221 13.291696,25.230495 11.500037,31.436501 z"
     style="fill:#404040;"/>
  </a>
 </g>
</svg>

<style type='text/css'>
<![CDATA[
[data-mouse-over-selected='false'] { opacity: 0.7; }
[data-mouse-over-selected='true']  { opacity: 1.0; }
]]>
</style>
<script type="application/ecmascript"><![CDATA[
document.addEventListener('DOMContentLoaded', (event) => {
  highlightEdges();
  highlightAdjacentNodes();
});
]]></script>
</svg>
