<?xml version="1.0" encoding="UTF-8" standalone="no"?>
<!DOCTYPE svg PUBLIC "-//W3C//DTD SVG 1.1//EN"
 "http://www.w3.org/Graphics/SVG/1.1/DTD/svg11.dtd">
<!-- Generated by graphviz version 2.43.0 (0)
 -->
<!-- Title: Prisoner22::onSelectOption Pages: 1 -->
<svg width="700pt" height="64pt"
 viewBox="0.00 0.00 700.00 64.00" xmlns="http://www.w3.org/2000/svg" xmlns:xlink="http://www.w3.org/1999/xlink">
<g id="graph0" class="graph" transform="scale(1 1) rotate(0) translate(4 60)">
<title>Prisoner22::onSelectOption</title>
<!-- Node1 -->
<g id="Node000001" class="node">
<title>Node1</title>
<g id="a_Node000001"><a xlink:title=" ">
<polygon fill="#999999" stroke="#666666" points="149,-38 0,-38 0,-19 149,-19 149,-38"/>
<text text-anchor="middle" x="74.5" y="-26" font-family="Helvetica,sans-Serif" font-size="10.00">Prisoner22::onSelectOption</text>
</a>
</g>
</g>
<!-- Node2 -->
<g id="Node000002" class="node">
<title>Node2</title>
<g id="a_Node000002"><a xlink:href="classPlayer.html#a3066f33ae2198331b5a82ef247a138a3" target="_top" xlink:title=" ">
<polygon fill="white" stroke="#666666" points="301,-38 185,-38 185,-19 301,-19 301,-38"/>
<text text-anchor="middle" x="243" y="-26" font-family="Helvetica,sans-Serif" font-size="10.00">Player::addQuestKill</text>
</a>
</g>
</g>
<!-- Node1&#45;&gt;Node2 -->
<g id="edge1_Node000001_Node000002" class="edge">
<title>Node1&#45;&gt;Node2</title>
<g id="a_edge1_Node000001_Node000002"><a xlink:title=" ">
<path fill="none" stroke="#63b8ff" d="M149.01,-28.5C157.56,-28.5 166.25,-28.5 174.7,-28.5"/>
<polygon fill="#63b8ff" stroke="#63b8ff" points="174.88,-32 184.88,-28.5 174.88,-25 174.88,-32"/>
</a>
</g>
</g>
<!-- Node2&#45;&gt;Node2 -->
<g id="edge2_Node000002_Node000002" class="edge">
<title>Node2&#45;&gt;Node2</title>
<g id="a_edge2_Node000002_Node000002"><a xlink:title=" ">
<path fill="none" stroke="#63b8ff" d="M217.11,-38.08C204.51,-46.73 213.14,-56 243,-56 263.06,-56 273.54,-51.82 274.44,-46.45"/>
<polygon fill="#63b8ff" stroke="#63b8ff" points="277.34,-44.49 268.89,-38.08 271.5,-48.35 277.34,-44.49"/>
</a>
</g>
</g>
<!-- Node3 -->
<g id="Node000003" class="node">
<title>Node3</title>
<g id="a_Node000003"><a xlink:href="classPlayer.html#aaa3ccb5fdef21b0a171ef321312c089d" target="_top" xlink:title=" ">
<polygon fill="white" stroke="#666666" points="692,-38 527,-38 527,-19 692,-19 692,-38"/>
<text text-anchor="middle" x="609.5" y="-26" font-family="Helvetica,sans-Serif" font-size="10.00">Player::getQuestLogByQuestId</text>
</a>
</g>
</g>
<!-- Node2&#45;&gt;Node3 -->
<g id="edge3_Node000002_Node000003" class="edge">
<title>Node2&#45;&gt;Node3</title>
<g id="a_edge3_Node000002_Node000003"><a xlink:title=" ">
<path fill="none" stroke="#63b8ff" d="M301.35,-28.5C359.04,-28.5 448.89,-28.5 516.54,-28.5"/>
<polygon fill="#63b8ff" stroke="#63b8ff" points="516.77,-32 526.77,-28.5 516.77,-25 516.77,-32"/>
</a>
</g>
</g>
<!-- Node4 -->
<g id="Node000004" class="node">
<title>Node4</title>
<g id="a_Node000004"><a xlink:href="classPlayer.html#acc04b159107a1083b4e6c21f7c2b7c01" target="_top" xlink:title=" ">
<polygon fill="white" stroke="#666666" points="491,-19 337,-19 337,0 491,0 491,-19"/>
<text text-anchor="middle" x="414" y="-7" font-family="Helvetica,sans-Serif" font-size="10.00">Player::hasQuestInQuestLog</text>
</a>
</g>
</g>
<!-- Node2&#45;&gt;Node4 -->
<g id="edge4_Node000002_Node000004" class="edge">
<title>Node2&#45;&gt;Node4</title>
<g id="a_edge4_Node000002_Node000004"><a xlink:title=" ">
<path fill="none" stroke="#63b8ff" d="M301.22,-22.07C309.47,-21.14 318.12,-20.17 326.8,-19.19"/>
<polygon fill="#63b8ff" stroke="#63b8ff" points="327.42,-22.64 336.97,-18.05 326.64,-15.69 327.42,-22.64"/>
</a>
</g>
</g>
<!-- Node4&#45;&gt;Node3 -->
<g id="edge5_Node000004_Node000003" class="edge">
<title>Node4&#45;&gt;Node3</title>
<g id="a_edge5_Node000004_Node000003"><a xlink:title=" ">
<path fill="none" stroke="#63b8ff" d="M491.2,-16.98C499.64,-17.81 508.29,-18.66 516.89,-19.51"/>
<polygon fill="#63b8ff" stroke="#63b8ff" points="516.66,-23 526.95,-20.49 517.34,-16.03 516.66,-23"/>
</a>
</g>
</g>
</g>
</svg>
