<?xml version="1.0" encoding="UTF-8" standalone="no"?>
<!DOCTYPE svg PUBLIC "-//W3C//DTD SVG 1.1//EN"
 "http://www.w3.org/Graphics/SVG/1.1/DTD/svg11.dtd">
<!-- Generated by graphviz version 2.43.0 (0)
 -->
<!-- Title: Player::sendAvailSpells Pages: 1 -->
<svg width="864pt" height="224pt"
 viewBox="0.00 0.00 864.00 224.00" xmlns="http://www.w3.org/2000/svg" xmlns:xlink="http://www.w3.org/1999/xlink">
<g id="graph0" class="graph" transform="scale(1 1) rotate(0) translate(4 220)">
<title>Player::sendAvailSpells</title>
<!-- Node1 -->
<g id="Node000001" class="node">
<title>Node1</title>
<g id="a_Node000001"><a xlink:title=" ">
<polygon fill="#999999" stroke="#666666" points="130,-136 0,-136 0,-117 130,-117 130,-136"/>
<text text-anchor="middle" x="65" y="-124" font-family="Helvetica,sans-Serif" font-size="10.00">Player::sendAvailSpells</text>
</a>
</g>
</g>
<!-- Node2 -->
<g id="Node000002" class="node">
<title>Node2</title>
<g id="a_Node000002"><a xlink:href="classObject.html#a0f6639fef4e90bc57ee1b34a81d6d489" target="_top" xlink:title=" ">
<polygon fill="white" stroke="#666666" points="294.5,-216 202.5,-216 202.5,-197 294.5,-197 294.5,-216"/>
<text text-anchor="middle" x="248.5" y="-204" font-family="Helvetica,sans-Serif" font-size="10.00">Object::getGuid</text>
</a>
</g>
</g>
<!-- Node1&#45;&gt;Node2 -->
<g id="edge1_Node000001_Node000002" class="edge">
<title>Node1&#45;&gt;Node2</title>
<g id="a_edge1_Node000001_Node000002"><a xlink:title=" ">
<path fill="none" stroke="#63b8ff" d="M78.51,-136.22C96.73,-149.9 132.13,-174.73 166,-188.5 174.29,-191.87 183.32,-194.66 192.26,-196.96"/>
<polygon fill="#63b8ff" stroke="#63b8ff" points="191.72,-200.43 202.26,-199.35 193.35,-193.62 191.72,-200.43"/>
</a>
</g>
</g>
<!-- Node4 -->
<g id="Node000004" class="node">
<title>Node4</title>
<g id="a_Node000004"><a xlink:href="classPlayer.html#aee195158e07a0138b257f8d1ede0cc6b" target="_top" xlink:title=" ">
<polygon fill="white" stroke="#666666" points="302,-179 195,-179 195,-160 302,-160 302,-179"/>
<text text-anchor="middle" x="248.5" y="-167" font-family="Helvetica,sans-Serif" font-size="10.00">Player::getSession</text>
</a>
</g>
</g>
<!-- Node1&#45;&gt;Node4 -->
<g id="edge3_Node000001_Node000004" class="edge">
<title>Node1&#45;&gt;Node4</title>
<g id="a_edge3_Node000001_Node000004"><a xlink:title=" ">
<path fill="none" stroke="#63b8ff" d="M105.41,-136.02C123.81,-140.45 146.02,-145.77 166,-150.5 175.86,-152.83 186.4,-155.3 196.51,-157.67"/>
<polygon fill="#63b8ff" stroke="#63b8ff" points="195.91,-161.12 206.44,-159.98 197.5,-154.3 195.91,-161.12"/>
</a>
</g>
</g>
<!-- Node5 -->
<g id="Node000005" class="node">
<title>Node5</title>
<g id="a_Node000005"><a xlink:href="namespaceAscEmu_1_1Packets.html#af6e32b339500a4a204a68688c673ebbe" target="_top" xlink:title=" ">
<polygon fill="white" stroke="#666666" points="320,-141.5 177,-141.5 177,-111.5 320,-111.5 320,-141.5"/>
<text text-anchor="start" x="185" y="-129.5" font-family="Helvetica,sans-Serif" font-size="10.00">AscEmu::Packets::packPet</text>
<text text-anchor="middle" x="248.5" y="-118.5" font-family="Helvetica,sans-Serif" font-size="10.00">ActionButtonData</text>
</a>
</g>
</g>
<!-- Node1&#45;&gt;Node5 -->
<g id="edge4_Node000001_Node000005" class="edge">
<title>Node1&#45;&gt;Node5</title>
<g id="a_edge4_Node000001_Node000005"><a xlink:title=" ">
<path fill="none" stroke="#63b8ff" d="M130.25,-126.5C142.04,-126.5 154.48,-126.5 166.68,-126.5"/>
<polygon fill="#63b8ff" stroke="#63b8ff" points="166.86,-130 176.86,-126.5 166.86,-123 166.86,-130"/>
</a>
</g>
</g>
<!-- Node6 -->
<g id="Node000006" class="node">
<title>Node6</title>
<g id="a_Node000006"><a xlink:href="classPlayer.html#a2b9b572e741e190010a3670f8db7a871" target="_top" xlink:title=" ">
<polygon fill="white" stroke="#666666" points="331,-93 166,-93 166,-74 331,-74 331,-93"/>
<text text-anchor="middle" x="248.5" y="-81" font-family="Helvetica,sans-Serif" font-size="10.00">Player::sendEmptyPetSpellList</text>
</a>
</g>
</g>
<!-- Node1&#45;&gt;Node6 -->
<g id="edge5_Node000001_Node000006" class="edge">
<title>Node1&#45;&gt;Node6</title>
<g id="a_edge5_Node000001_Node000006"><a xlink:title=" ">
<path fill="none" stroke="#63b8ff" d="M105.41,-116.98C123.81,-112.55 146.02,-107.23 166,-102.5 175.86,-100.17 186.4,-97.7 196.51,-95.33"/>
<polygon fill="#63b8ff" stroke="#63b8ff" points="197.5,-98.7 206.44,-93.02 195.91,-91.88 197.5,-98.7"/>
</a>
</g>
</g>
<!-- Node7 -->
<g id="Node000007" class="node">
<title>Node7</title>
<g id="a_Node000007"><a xlink:href="classWorldSession.html#a87a1bd80483f57f33a127d12c51d2331" target="_top" xlink:title=" ">
<polygon fill="white" stroke="#666666" points="510,-74 367,-74 367,-55 510,-55 510,-74"/>
<text text-anchor="middle" x="438.5" y="-62" font-family="Helvetica,sans-Serif" font-size="10.00">WorldSession::SendPacket</text>
</a>
</g>
</g>
<!-- Node1&#45;&gt;Node7 -->
<g id="edge13_Node000001_Node000007" class="edge">
<title>Node1&#45;&gt;Node7</title>
<g id="a_edge13_Node000001_Node000007"><a xlink:title=" ">
<path fill="none" stroke="#63b8ff" d="M76.7,-116.99C94.01,-102.32 129.85,-74.8 166,-64.5 231.61,-45.81 309.82,-48.25 365.41,-53.91"/>
<polygon fill="#63b8ff" stroke="#63b8ff" points="365.2,-57.41 375.52,-55 365.95,-50.45 365.2,-57.41"/>
</a>
</g>
</g>
<!-- Node3 -->
<g id="Node000003" class="node">
<title>Node3</title>
<g id="a_Node000003"><a xlink:href="classObject.html#ae9814731421ab3e919a2e5c3b86e0eeb" target="_top" xlink:title=" ">
<polygon fill="white" stroke="#666666" points="492,-216 385,-216 385,-197 492,-197 492,-216"/>
<text text-anchor="middle" x="438.5" y="-204" font-family="Helvetica,sans-Serif" font-size="10.00">Object::objectData</text>
</a>
</g>
</g>
<!-- Node2&#45;&gt;Node3 -->
<g id="edge2_Node000002_Node000003" class="edge">
<title>Node2&#45;&gt;Node3</title>
<g id="a_edge2_Node000002_Node000003"><a xlink:title=" ">
<path fill="none" stroke="#63b8ff" d="M294.53,-206.5C318.51,-206.5 348.38,-206.5 374.61,-206.5"/>
<polygon fill="#63b8ff" stroke="#63b8ff" points="374.84,-210 384.84,-206.5 374.84,-203 374.84,-210"/>
</a>
</g>
</g>
<!-- Node6&#45;&gt;Node7 -->
<g id="edge6_Node000006_Node000007" class="edge">
<title>Node6&#45;&gt;Node7</title>
<g id="a_edge6_Node000006_Node000007"><a xlink:title=" ">
<path fill="none" stroke="#63b8ff" d="M331.14,-75.25C339.59,-74.39 348.18,-73.53 356.63,-72.67"/>
<polygon fill="#63b8ff" stroke="#63b8ff" points="357.24,-76.13 366.84,-71.64 356.54,-69.16 357.24,-76.13"/>
</a>
</g>
</g>
<!-- Node8 -->
<g id="Node000008" class="node">
<title>Node8</title>
<g id="a_Node000008"><a xlink:href="classWorldPacket.html#a3f359b4afd93497038c4f17e1ebd4380" target="_top" xlink:title=" ">
<polygon fill="white" stroke="#666666" points="856,-102 720,-102 720,-83 856,-83 856,-102"/>
<text text-anchor="middle" x="788" y="-90" font-family="Helvetica,sans-Serif" font-size="10.00">WorldPacket::GetOpcode</text>
</a>
</g>
</g>
<!-- Node7&#45;&gt;Node8 -->
<g id="edge7_Node000007_Node000008" class="edge">
<title>Node7&#45;&gt;Node8</title>
<g id="a_edge7_Node000007_Node000008"><a xlink:title=" ">
<path fill="none" stroke="#63b8ff" d="M488.1,-74.04C506.21,-77.24 526.98,-80.51 546,-82.5 600.52,-88.21 662.29,-90.7 709.65,-91.76"/>
<polygon fill="#63b8ff" stroke="#63b8ff" points="709.76,-95.27 719.83,-91.98 709.9,-88.27 709.76,-95.27"/>
</a>
</g>
</g>
<!-- Node9 -->
<g id="Node000009" class="node">
<title>Node9</title>
<g id="a_Node000009"><a xlink:href="classSocket.html#ae3bcf72d932e7b29656d368e81186e6a" target="_top" xlink:title=" ">
<polygon fill="white" stroke="#666666" points="672.5,-74 557.5,-74 557.5,-55 672.5,-55 672.5,-74"/>
<text text-anchor="middle" x="615" y="-62" font-family="Helvetica,sans-Serif" font-size="10.00">Socket::IsConnected</text>
</a>
</g>
</g>
<!-- Node7&#45;&gt;Node9 -->
<g id="edge8_Node000007_Node000009" class="edge">
<title>Node7&#45;&gt;Node9</title>
<g id="a_edge8_Node000007_Node000009"><a xlink:title=" ">
<path fill="none" stroke="#63b8ff" d="M510.22,-64.5C522.48,-64.5 535.18,-64.5 547.32,-64.5"/>
<polygon fill="#63b8ff" stroke="#63b8ff" points="547.36,-68 557.36,-64.5 547.36,-61 547.36,-68"/>
</a>
</g>
</g>
<!-- Node10 -->
<g id="Node000010" class="node">
<title>Node10</title>
<g id="a_Node000010"><a xlink:href="classWorldSocket.html#ab2fb0afb0aaf5d2229fea66a9923637e" target="_top" xlink:title=" ">
<polygon fill="white" stroke="#666666" points="684,-37 546,-37 546,-18 684,-18 684,-37"/>
<text text-anchor="middle" x="615" y="-25" font-family="Helvetica,sans-Serif" font-size="10.00">WorldSocket::SendPacket</text>
</a>
</g>
</g>
<!-- Node7&#45;&gt;Node10 -->
<g id="edge9_Node000007_Node000010" class="edge">
<title>Node7&#45;&gt;Node10</title>
<g id="a_edge9_Node000007_Node000010"><a xlink:title=" ">
<path fill="none" stroke="#63b8ff" d="M484.44,-54.97C507.15,-50.16 534.9,-44.27 558.89,-39.19"/>
<polygon fill="#63b8ff" stroke="#63b8ff" points="559.85,-42.56 568.91,-37.06 558.4,-35.71 559.85,-42.56"/>
</a>
</g>
</g>
<!-- Node10&#45;&gt;Node8 -->
<g id="edge11_Node000010_Node000008" class="edge">
<title>Node10&#45;&gt;Node8</title>
<g id="a_edge11_Node000010_Node000008"><a xlink:title=" ">
<path fill="none" stroke="#63b8ff" d="M658.19,-37.07C666.85,-39.48 675.81,-42.3 684,-45.5 700.85,-52.08 703.64,-56.78 720,-64.5 730.65,-69.52 742.45,-74.61 753.14,-79.04"/>
<polygon fill="#63b8ff" stroke="#63b8ff" points="752,-82.36 762.58,-82.91 754.65,-75.88 752,-82.36"/>
</a>
</g>
</g>
<!-- Node11 -->
<g id="Node000011" class="node">
<title>Node11</title>
<g id="a_Node000011"><a xlink:href="classByteBuffer.html#a8d712af2767c7ca45de60bd9d85738d8" target="_top" xlink:title=" ">
<polygon fill="white" stroke="#666666" points="846,-56 730,-56 730,-37 846,-37 846,-56"/>
<text text-anchor="middle" x="788" y="-44" font-family="Helvetica,sans-Serif" font-size="10.00">ByteBuffer::contents</text>
</a>
</g>
</g>
<!-- Node10&#45;&gt;Node11 -->
<g id="edge10_Node000010_Node000011" class="edge">
<title>Node10&#45;&gt;Node11</title>
<g id="a_edge10_Node000010_Node000011"><a xlink:title=" ">
<path fill="none" stroke="#63b8ff" d="M684.08,-35.06C695.82,-36.37 708.02,-37.72 719.74,-39.03"/>
<polygon fill="#63b8ff" stroke="#63b8ff" points="719.56,-42.53 729.89,-40.15 720.34,-35.57 719.56,-42.53"/>
</a>
</g>
</g>
<!-- Node12 -->
<g id="Node000012" class="node">
<title>Node12</title>
<g id="a_Node000012"><a xlink:href="classByteBuffer.html#ac06a598447807d32f6594a97a32bce94" target="_top" xlink:title=" ">
<polygon fill="white" stroke="#666666" points="835,-19 741,-19 741,0 835,0 835,-19"/>
<text text-anchor="middle" x="788" y="-7" font-family="Helvetica,sans-Serif" font-size="10.00">ByteBuffer::size</text>
</a>
</g>
</g>
<!-- Node10&#45;&gt;Node12 -->
<g id="edge12_Node000010_Node000012" class="edge">
<title>Node10&#45;&gt;Node12</title>
<g id="a_edge12_Node000010_Node000012"><a xlink:title=" ">
<path fill="none" stroke="#63b8ff" d="M684.08,-20.33C699.59,-18.7 715.9,-16.98 730.85,-15.41"/>
<polygon fill="#63b8ff" stroke="#63b8ff" points="731.38,-18.87 740.96,-14.35 730.64,-11.91 731.38,-18.87"/>
</a>
</g>
</g>
</g>
</svg>
