<?xml version="1.0" encoding="UTF-8" standalone="no"?>
<!DOCTYPE svg PUBLIC "-//W3C//DTD SVG 1.1//EN"
 "http://www.w3.org/Graphics/SVG/1.1/DTD/svg11.dtd">
<!-- Generated by graphviz version 2.43.0 (0)
 -->
<!-- Title: Player::getDuelPlayer Pages: 1 -->
<svg width="1106pt" height="1145pt"
 viewBox="0.00 0.00 1106.00 1145.00" xmlns="http://www.w3.org/2000/svg" xmlns:xlink="http://www.w3.org/1999/xlink">
<g id="graph0" class="graph" transform="scale(1 1) rotate(0) translate(4 1141)">
<title>Player::getDuelPlayer</title>
<!-- Node1 -->
<g id="Node000001" class="node">
<title>Node1</title>
<g id="a_Node000001"><a xlink:title=" ">
<polygon fill="#999999" stroke="#666666" points="1098,-592 976,-592 976,-573 1098,-573 1098,-592"/>
<text text-anchor="middle" x="1037" y="-580" font-family="Helvetica,sans-Serif" font-size="10.00">Player::getDuelPlayer</text>
</a>
</g>
</g>
<!-- Node2 -->
<g id="Node000002" class="node">
<title>Node2</title>
<g id="a_Node000002"><a xlink:href="classAura.html#a2413160603ff9a876413278a573dd077" target="_top" xlink:title=" ">
<polygon fill="white" stroke="#666666" points="901,-687 833,-687 833,-668 901,-668 901,-687"/>
<text text-anchor="middle" x="867" y="-675" font-family="Helvetica,sans-Serif" font-size="10.00">Aura::Aura</text>
</a>
</g>
</g>
<!-- Node1&#45;&gt;Node2 -->
<g id="edge1_Node000001_Node000002" class="edge">
<title>Node1&#45;&gt;Node2</title>
<g id="a_edge1_Node000001_Node000002"><a xlink:title=" ">
<path fill="none" stroke="#63b8ff" d="M1017.89,-598.64C999.41,-614.43 969.35,-638.25 940,-653.5 927.84,-659.82 913.68,-664.96 901.15,-668.85"/>
<polygon fill="#63b8ff" stroke="#63b8ff" points="1020.27,-601.21 1025.52,-592.02 1015.68,-595.93 1020.27,-601.21"/>
</a>
</g>
</g>
<!-- Node3 -->
<g id="Node000003" class="node">
<title>Node3</title>
<g id="a_Node000003"><a xlink:href="classSpell.html#a68a3ca9a144d6a65f1d5f25b6730f089" target="_top" xlink:title=" ">
<polygon fill="white" stroke="#666666" points="334,-1119 194,-1119 194,-1100 334,-1100 334,-1119"/>
<text text-anchor="middle" x="264" y="-1107" font-family="Helvetica,sans-Serif" font-size="10.00">Spell::FillAllTargetsInArea</text>
</a>
</g>
</g>
<!-- Node1&#45;&gt;Node3 -->
<g id="edge2_Node000001_Node000003" class="edge">
<title>Node1&#45;&gt;Node3</title>
<g id="a_edge2_Node000001_Node000003"><a xlink:title=" ">
<path fill="none" stroke="#63b8ff" d="M989.33,-594.59C928.85,-610.72 827.22,-639.57 794,-659.5 558.72,-800.67 593.59,-960.43 352,-1090.5 344.79,-1094.38 336.83,-1097.47 328.75,-1099.93"/>
<polygon fill="#63b8ff" stroke="#63b8ff" points="990.26,-597.96 999.03,-592.02 988.46,-591.2 990.26,-597.96"/>
</a>
</g>
</g>
<!-- Node6 -->
<g id="Node000006" class="node">
<title>Node6</title>
<g id="a_Node000006"><a xlink:href="classObject.html#a06062fb7ad18c98c0e754412ff337f86" target="_top" xlink:title=" ">
<polygon fill="white" stroke="#666666" points="940,-573 794,-573 794,-554 940,-554 940,-573"/>
<text text-anchor="middle" x="867" y="-561" font-family="Helvetica,sans-Serif" font-size="10.00">Object::getEnemyReaction</text>
</a>
</g>
</g>
<!-- Node1&#45;&gt;Node6 -->
<g id="edge5_Node000001_Node000006" class="edge">
<title>Node1&#45;&gt;Node6</title>
<g id="a_edge5_Node000001_Node000006"><a xlink:title=" ">
<path fill="none" stroke="#63b8ff" d="M965.64,-574.54C957.19,-573.59 948.56,-572.61 940.09,-571.65"/>
<polygon fill="#63b8ff" stroke="#63b8ff" points="965.49,-578.05 975.82,-575.69 966.28,-571.09 965.49,-578.05"/>
</a>
</g>
</g>
<!-- Node1663 -->
<g id="Node001663" class="node">
<title>Node1663</title>
<g id="a_Node001663"><a xlink:href="classObject.html#a0367267f694d5180d7f41fe6d4dea74c" target="_top" xlink:title=" ">
<polygon fill="white" stroke="#666666" points="540,-611 424,-611 424,-592 540,-592 540,-611"/>
<text text-anchor="middle" x="482" y="-599" font-family="Helvetica,sans-Serif" font-size="10.00">Object::isValidTarget</text>
</a>
</g>
</g>
<!-- Node1&#45;&gt;Node1663 -->
<g id="edge56_Node000001_Node001663" class="edge">
<title>Node1&#45;&gt;Node1663</title>
<g id="a_edge56_Node000001_Node001663"><a xlink:title=" ">
<path fill="none" stroke="#63b8ff" d="M965.71,-584.92C855.02,-588.72 642.24,-596.03 540.25,-599.53"/>
<polygon fill="#63b8ff" stroke="#63b8ff" points="965.89,-588.41 975.77,-584.57 965.65,-581.42 965.89,-588.41"/>
</a>
</g>
</g>
<!-- Node1825 -->
<g id="Node001825" class="node">
<title>Node1825</title>
<g id="a_Node001825"><a xlink:href="classObject.html#aca93d9b76beee9882098fe8c6328d250" target="_top" xlink:title=" ">
<polygon fill="white" stroke="#666666" points="758,-334 612,-334 612,-315 758,-315 758,-334"/>
<text text-anchor="middle" x="685" y="-322" font-family="Helvetica,sans-Serif" font-size="10.00">Object::isValidAssistTarget</text>
</a>
</g>
</g>
<!-- Node1&#45;&gt;Node1825 -->
<g id="edge55_Node000001_Node001825" class="edge">
<title>Node1&#45;&gt;Node1825</title>
<g id="a_edge55_Node000001_Node001825"><a xlink:title=" ">
<path fill="none" stroke="#63b8ff" d="M1004.34,-568.9C985.79,-561.19 961.79,-551.69 940,-544.5 876.22,-523.44 840.44,-554.02 794,-505.5 742.7,-451.91 809.73,-395.68 758,-342.5 754.77,-339.18 751.02,-336.43 746.96,-334.17"/>
<polygon fill="#63b8ff" stroke="#63b8ff" points="1003.19,-572.21 1013.77,-572.85 1005.9,-565.76 1003.19,-572.21"/>
</a>
</g>
</g>
<!-- Node134 -->
<g id="Node000134" class="node">
<title>Node134</title>
<g id="a_Node000134"><a xlink:href="classSpell.html#a6592c7795f0dc0d7429003b56abe7e50" target="_top" xlink:title=" ">
<polygon fill="white" stroke="#666666" points="927.5,-497 806.5,-497 806.5,-478 927.5,-478 927.5,-497"/>
<text text-anchor="middle" x="867" y="-485" font-family="Helvetica,sans-Serif" font-size="10.00">Spell::SpellEffectDuel</text>
</a>
</g>
</g>
<!-- Node1&#45;&gt;Node134 -->
<g id="edge57_Node000001_Node000134" class="edge">
<title>Node1&#45;&gt;Node134</title>
<g id="a_edge57_Node000001_Node000134"><a xlink:title=" ">
<path fill="none" stroke="#63b8ff" d="M1017.89,-566.36C999.41,-550.57 969.35,-526.75 940,-511.5 928.78,-505.67 915.85,-500.83 904.07,-497.07"/>
<polygon fill="#63b8ff" stroke="#63b8ff" points="1015.68,-569.07 1025.52,-572.98 1020.27,-563.79 1015.68,-569.07"/>
</a>
</g>
</g>
<!-- Node4 -->
<g id="Node000004" class="node">
<title>Node4</title>
<g id="a_Node000004"><a xlink:href="classSpell.html#a93332351990e24c9717f42b5611fd313" target="_top" xlink:title=" ">
<polygon fill="white" stroke="#666666" points="140,-1100 0,-1100 0,-1081 140,-1081 140,-1100"/>
<text text-anchor="middle" x="70" y="-1088" font-family="Helvetica,sans-Serif" font-size="10.00">Spell::FillAllTargetsInArea</text>
</a>
</g>
</g>
<!-- Node3&#45;&gt;Node4 -->
<g id="edge3_Node000003_Node000004" class="edge">
<title>Node3&#45;&gt;Node4</title>
<g id="a_edge3_Node000003_Node000004"><a xlink:title=" ">
<path fill="none" stroke="#63b8ff" d="M183.98,-1101.68C169.42,-1100.24 154.32,-1098.74 140.08,-1097.34"/>
<polygon fill="#63b8ff" stroke="#63b8ff" points="183.66,-1105.17 193.95,-1102.67 184.35,-1098.2 183.66,-1105.17"/>
</a>
</g>
</g>
<!-- Node5 -->
<g id="Node000005" class="node">
<title>Node5</title>
<g id="a_Node000005"><a xlink:href="classSpell.html#ac13745a365f24782c851ed482c05c82a" target="_top" xlink:title=" ">
<polygon fill="white" stroke="#666666" points="140,-1137 0,-1137 0,-1118 140,-1118 140,-1137"/>
<text text-anchor="middle" x="70" y="-1125" font-family="Helvetica,sans-Serif" font-size="10.00">Spell::FillAllTargetsInArea</text>
</a>
</g>
</g>
<!-- Node3&#45;&gt;Node5 -->
<g id="edge4_Node000003_Node000005" class="edge">
<title>Node3&#45;&gt;Node5</title>
<g id="a_edge4_Node000003_Node000005"><a xlink:title=" ">
<path fill="none" stroke="#63b8ff" d="M183.98,-1116.91C169.42,-1118.27 154.32,-1119.69 140.08,-1121.02"/>
<polygon fill="#63b8ff" stroke="#63b8ff" points="184.33,-1120.39 193.95,-1115.97 183.67,-1113.42 184.33,-1120.39"/>
</a>
</g>
</g>
<!-- Node7 -->
<g id="Node000007" class="node">
<title>Node7</title>
<g id="a_Node000007"><a xlink:href="classObject.html#aa285d3435f12b832f0bf0cfbb8e65f6f" target="_top" xlink:title=" ">
<polygon fill="white" stroke="#666666" points="741,-371 629,-371 629,-352 741,-352 741,-371"/>
<text text-anchor="middle" x="685" y="-359" font-family="Helvetica,sans-Serif" font-size="10.00">Object::isFriendlyTo</text>
</a>
</g>
</g>
<!-- Node6&#45;&gt;Node7 -->
<g id="edge6_Node000006_Node000007" class="edge">
<title>Node6&#45;&gt;Node7</title>
<g id="a_edge6_Node000006_Node000007"><a xlink:title=" ">
<path fill="none" stroke="#63b8ff" d="M811.81,-550.17C805.44,-547.27 799.33,-543.75 794,-539.5 734.11,-491.7 699.35,-401 689.17,-371.23"/>
<polygon fill="#63b8ff" stroke="#63b8ff" points="810.67,-553.48 821.25,-553.99 813.3,-546.99 810.67,-553.48"/>
</a>
</g>
</g>
<!-- Node1724 -->
<g id="Node001724" class="node">
<title>Node1724</title>
<g id="a_Node001724"><a xlink:href="classObject.html#a4ad0cab3f2b3e4372b33b30b41ff698e" target="_top" xlink:title=" ">
<polygon fill="#fff0f0" stroke="red" points="738.5,-573 631.5,-573 631.5,-554 738.5,-554 738.5,-573"/>
<text text-anchor="middle" x="685" y="-561" font-family="Helvetica,sans-Serif" font-size="10.00">Object::isHostileTo</text>
</a>
</g>
</g>
<!-- Node6&#45;&gt;Node1724 -->
<g id="edge51_Node000006_Node001724" class="edge">
<title>Node6&#45;&gt;Node1724</title>
<g id="a_edge51_Node000006_Node001724"><a xlink:title=" ">
<path fill="none" stroke="#63b8ff" d="M783.78,-563.5C768.39,-563.5 752.7,-563.5 738.52,-563.5"/>
<polygon fill="#63b8ff" stroke="#63b8ff" points="783.82,-567 793.82,-563.5 783.82,-560 783.82,-567"/>
</a>
</g>
</g>
<!-- Node6&#45;&gt;Node1825 -->
<g id="edge54_Node000006_Node001825" class="edge">
<title>Node6&#45;&gt;Node1825</title>
<g id="a_edge54_Node000006_Node001825"><a xlink:title=" ">
<path fill="none" stroke="#63b8ff" d="M805.43,-549.16C801.18,-546.47 797.28,-543.28 794,-539.5 735.65,-472.29 818.88,-407.42 758,-342.5 754.83,-339.12 751.12,-336.33 747.1,-334.04"/>
<polygon fill="#63b8ff" stroke="#63b8ff" points="804.1,-552.41 814.58,-554 807.38,-546.23 804.1,-552.41"/>
</a>
</g>
</g>
<!-- Node8 -->
<g id="Node000008" class="node">
<title>Node8</title>
<g id="a_Node000008"><a xlink:href="classUnit.html#aa99b25dc594138cfd0bfa1fd5946deff" target="_top" xlink:title=" ">
<polygon fill="#fff0f0" stroke="red" points="556,-574 408,-574 408,-555 556,-555 556,-574"/>
<text text-anchor="middle" x="482" y="-562" font-family="Helvetica,sans-Serif" font-size="10.00">Unit::addToInRangeObjects</text>
</a>
</g>
</g>
<!-- Node7&#45;&gt;Node8 -->
<g id="edge7_Node000007_Node000008" class="edge">
<title>Node7&#45;&gt;Node8</title>
<g id="a_edge7_Node000007_Node000008"><a xlink:title=" ">
<path fill="none" stroke="#63b8ff" d="M678.49,-380.84C666.59,-418.92 634.69,-503.54 576,-545.5 569.97,-549.81 563.18,-553.2 556.1,-555.85"/>
<polygon fill="#63b8ff" stroke="#63b8ff" points="681.92,-381.59 681.44,-371.01 675.21,-379.58 681.92,-381.59"/>
</a>
</g>
</g>
<!-- Node11 -->
<g id="Node000011" class="node">
<title>Node11</title>
<g id="a_Node000011"><a xlink:href="classLuaUnit.html#ac7b8c50e04a8d905ea9ae288bc638c34" target="_top" xlink:title=" ">
<polygon fill="white" stroke="#666666" points="557.5,-252.5 406.5,-252.5 406.5,-222.5 557.5,-222.5 557.5,-252.5"/>
<text text-anchor="start" x="414.5" y="-240.5" font-family="Helvetica,sans-Serif" font-size="10.00">LuaUnit::AggroWithInRange</text>
<text text-anchor="middle" x="482" y="-229.5" font-family="Helvetica,sans-Serif" font-size="10.00">Friends</text>
</a>
</g>
</g>
<!-- Node7&#45;&gt;Node11 -->
<g id="edge8_Node000007_Node000011" class="edge">
<title>Node7&#45;&gt;Node11</title>
<g id="a_edge8_Node000007_Node000011"><a xlink:title=" ">
<path fill="none" stroke="#63b8ff" d="M619.73,-347.9C617.01,-346.29 614.41,-344.5 612,-342.5 583.25,-318.62 604.21,-291.01 576,-266.5 569.49,-260.84 561.88,-256.29 553.87,-252.62"/>
<polygon fill="#63b8ff" stroke="#63b8ff" points="618.31,-351.1 628.83,-352.42 621.43,-344.83 618.31,-351.1"/>
</a>
</g>
</g>
<!-- Node12 -->
<g id="Node000012" class="node">
<title>Node12</title>
<g id="a_Node000012"><a xlink:href="classUnit.html#a151ba2ab5965ffa87074eac22c3488fd" target="_top" xlink:title=" ">
<polygon fill="#fff0f0" stroke="red" points="545,-204 419,-204 419,-185 545,-185 545,-204"/>
<text text-anchor="middle" x="482" y="-192" font-family="Helvetica,sans-Serif" font-size="10.00">Unit::canBeginCombat</text>
</a>
</g>
</g>
<!-- Node7&#45;&gt;Node12 -->
<g id="edge9_Node000007_Node000012" class="edge">
<title>Node7&#45;&gt;Node12</title>
<g id="a_edge9_Node000007_Node000012"><a xlink:title=" ">
<path fill="none" stroke="#63b8ff" d="M619.87,-348.76C617.04,-346.94 614.39,-344.86 612,-342.5 569.61,-300.71 619.55,-254.08 576,-213.5 567.44,-205.52 556.47,-200.51 545.1,-197.43"/>
<polygon fill="#63b8ff" stroke="#63b8ff" points="618.35,-351.92 628.82,-353.52 621.64,-345.74 618.35,-351.92"/>
</a>
</g>
</g>
<!-- Node41 -->
<g id="Node000041" class="node">
<title>Node41</title>
<g id="a_Node000041"><a xlink:href="classSpell.html#ac88ced9955cd63bd45c19c549a0edcbb" target="_top" xlink:title=" ">
<polygon fill="#fff0f0" stroke="red" points="525.5,-167 438.5,-167 438.5,-148 525.5,-148 525.5,-167"/>
<text text-anchor="middle" x="482" y="-155" font-family="Helvetica,sans-Serif" font-size="10.00">Spell::CanCast</text>
</a>
</g>
</g>
<!-- Node7&#45;&gt;Node41 -->
<g id="edge10_Node000007_Node000041" class="edge">
<title>Node7&#45;&gt;Node41</title>
<g id="a_edge10_Node000007_Node000041"><a xlink:title=" ">
<path fill="none" stroke="#63b8ff" d="M619.86,-349.04C617.01,-347.15 614.37,-344.98 612,-342.5 559.55,-287.6 630.25,-228.62 576,-175.5 562.84,-162.61 543.39,-157.56 525.68,-155.95"/>
<polygon fill="#63b8ff" stroke="#63b8ff" points="618.45,-352.26 628.91,-353.95 621.79,-346.11 618.45,-352.26"/>
</a>
</g>
</g>
<!-- Node1642 -->
<g id="Node001642" class="node">
<title>Node1642</title>
<g id="a_Node001642"><a xlink:href="classAIInterface.html#a006aefc616b8fc18ed8300e120f42b48" target="_top" xlink:title=" ">
<polygon fill="#fff0f0" stroke="red" points="569,-130 395,-130 395,-111 569,-111 569,-130"/>
<text text-anchor="middle" x="482" y="-118" font-family="Helvetica,sans-Serif" font-size="10.00">AIInterface::canOwnerAssistUnit</text>
</a>
</g>
</g>
<!-- Node7&#45;&gt;Node1642 -->
<g id="edge11_Node000007_Node001642" class="edge">
<title>Node7&#45;&gt;Node1642</title>
<g id="a_edge11_Node000007_Node001642"><a xlink:title=" ">
<path fill="none" stroke="#63b8ff" d="M619.75,-349.15C616.93,-347.22 614.32,-345.02 612,-342.5 549.67,-274.74 640.56,-204.14 576,-138.5 572.77,-135.22 569.14,-132.44 565.22,-130.09"/>
<polygon fill="#63b8ff" stroke="#63b8ff" points="618.29,-352.34 628.73,-354.12 621.68,-346.21 618.29,-352.34"/>
</a>
</g>
</g>
<!-- Node1643 -->
<g id="Node001643" class="node">
<title>Node1643</title>
<g id="a_Node001643"><a xlink:href="classSpell.html#acd2e68136042e39b3ded1ae418eea3e6" target="_top" xlink:title=" ">
<polygon fill="#fff0f0" stroke="red" points="334.5,-105 193.5,-105 193.5,-86 334.5,-86 334.5,-105"/>
<text text-anchor="middle" x="264" y="-93" font-family="Helvetica,sans-Serif" font-size="10.00">Spell::checkExplicitTarget</text>
</a>
</g>
</g>
<!-- Node7&#45;&gt;Node1643 -->
<g id="edge12_Node000007_Node001643" class="edge">
<title>Node7&#45;&gt;Node1643</title>
<g id="a_edge12_Node000007_Node001643"><a xlink:title=" ">
<path fill="none" stroke="#63b8ff" d="M622.62,-348.19C618.91,-346.51 615.34,-344.62 612,-342.5 590.96,-329.14 597.42,-312.24 576,-299.5 502.74,-255.92 449.45,-320.59 388,-261.5 339.2,-214.58 400.69,-160.53 352,-113.5 347.01,-108.68 341.08,-104.99 334.71,-102.2"/>
<polygon fill="#63b8ff" stroke="#63b8ff" points="621.43,-351.48 632.02,-351.94 624.03,-344.98 621.43,-351.48"/>
</a>
</g>
</g>
<!-- Node1653 -->
<g id="Node001653" class="node">
<title>Node1653</title>
<g id="a_Node001653"><a xlink:href="classSpell.html#ad34229edf585c3c101be8ae577aa31ab" target="_top" xlink:title=" ">
<polygon fill="#fff0f0" stroke="red" points="535,-93 429,-93 429,-74 535,-74 535,-93"/>
<text text-anchor="middle" x="482" y="-81" font-family="Helvetica,sans-Serif" font-size="10.00">Spell::checkRange</text>
</a>
</g>
</g>
<!-- Node7&#45;&gt;Node1653 -->
<g id="edge13_Node000007_Node001653" class="edge">
<title>Node7&#45;&gt;Node1653</title>
<g id="a_edge13_Node000007_Node001653"><a xlink:title=" ">
<path fill="none" stroke="#63b8ff" d="M620.09,-349.51C617.13,-347.5 614.4,-345.18 612,-342.5 539.74,-261.84 650.92,-179.7 576,-101.5 565.42,-90.46 550.25,-85.06 535.23,-82.67"/>
<polygon fill="#63b8ff" stroke="#63b8ff" points="618.51,-352.64 628.96,-354.39 621.89,-346.51 618.51,-352.64"/>
</a>
</g>
</g>
<!-- Node1654 -->
<g id="Node001654" class="node">
<title>Node1654</title>
<g id="a_Node001654"><a xlink:href="classSpell.html#ad9285e73e5196165c835ad784f8700e9" target="_top" xlink:title=" ">
<polygon fill="white" stroke="#666666" points="554,-56 410,-56 410,-37 554,-37 554,-56"/>
<text text-anchor="middle" x="482" y="-44" font-family="Helvetica,sans-Serif" font-size="10.00">Spell::FillAllFriendlyInArea</text>
</a>
</g>
</g>
<!-- Node7&#45;&gt;Node1654 -->
<g id="edge14_Node000007_Node001654" class="edge">
<title>Node7&#45;&gt;Node1654</title>
<g id="a_edge14_Node000007_Node001654"><a xlink:title=" ">
<path fill="none" stroke="#63b8ff" d="M620.03,-349.57C617.09,-347.55 614.38,-345.2 612,-342.5 529.78,-248.9 661.31,-155.3 576,-64.5 570.03,-58.15 562.55,-53.65 554.43,-50.52"/>
<polygon fill="#63b8ff" stroke="#63b8ff" points="618.42,-352.68 628.87,-354.48 621.82,-346.56 618.42,-352.68"/>
</a>
</g>
</g>
<!-- Node1655 -->
<g id="Node001655" class="node">
<title>Node1655</title>
<g id="a_Node001655"><a xlink:href="classLuaUnit.html#a4b0648a69e8652a58b58770d18c210a8" target="_top" xlink:title=" ">
<polygon fill="white" stroke="#666666" points="561.5,-19 402.5,-19 402.5,0 561.5,0 561.5,-19"/>
<text text-anchor="middle" x="482" y="-7" font-family="Helvetica,sans-Serif" font-size="10.00">LuaUnit::GetInRangeEnemies</text>
</a>
</g>
</g>
<!-- Node7&#45;&gt;Node1655 -->
<g id="edge15_Node000007_Node001655" class="edge">
<title>Node7&#45;&gt;Node1655</title>
<g id="a_edge15_Node000007_Node001655"><a xlink:title=" ">
<path fill="none" stroke="#63b8ff" d="M619.98,-349.61C617.05,-347.58 614.36,-345.22 612,-342.5 519.8,-235.94 671.71,-130.92 576,-27.5 571.87,-23.03 566.99,-19.48 561.66,-16.68"/>
<polygon fill="#63b8ff" stroke="#63b8ff" points="618.36,-352.71 628.79,-354.54 621.77,-346.6 618.36,-352.71"/>
</a>
</g>
</g>
<!-- Node1656 -->
<g id="Node001656" class="node">
<title>Node1656</title>
<g id="a_Node001656"><a xlink:href="classLuaUnit.html#a21cb56c995f1485c4812eff9511cf3fb" target="_top" xlink:title=" ">
<polygon fill="white" stroke="#666666" points="558,-537 406,-537 406,-518 558,-518 558,-537"/>
<text text-anchor="middle" x="482" y="-525" font-family="Helvetica,sans-Serif" font-size="10.00">LuaUnit::GetInRangeFriends</text>
</a>
</g>
</g>
<!-- Node7&#45;&gt;Node1656 -->
<g id="edge16_Node000007_Node001656" class="edge">
<title>Node7&#45;&gt;Node1656</title>
<g id="a_edge16_Node000007_Node001656"><a xlink:title=" ">
<path fill="none" stroke="#63b8ff" d="M675.73,-380.47C660.77,-412.38 626.06,-476.46 576,-508.5 570.03,-512.32 563.44,-515.39 556.61,-517.86"/>
<polygon fill="#63b8ff" stroke="#63b8ff" points="678.93,-381.87 679.88,-371.32 672.56,-378.98 678.93,-381.87"/>
</a>
</g>
</g>
<!-- Node1657 -->
<g id="Node001657" class="node">
<title>Node1657</title>
<g id="a_Node001657"><a xlink:href="classLuaUnit.html#a0bc5ba34c4151e6c3f3fb4dc6cfe72e1" target="_top" xlink:title=" ">
<polygon fill="white" stroke="#666666" points="556,-328 408,-328 408,-309 556,-309 556,-328"/>
<text text-anchor="middle" x="482" y="-316" font-family="Helvetica,sans-Serif" font-size="10.00">LuaUnit::GetRandomFriend</text>
</a>
</g>
</g>
<!-- Node7&#45;&gt;Node1657 -->
<g id="edge17_Node000007_Node001657" class="edge">
<title>Node7&#45;&gt;Node1657</title>
<g id="a_edge17_Node000007_Node001657"><a xlink:title=" ">
<path fill="none" stroke="#63b8ff" d="M631.84,-349.72C614.13,-345.77 594.22,-341.38 576,-337.5 561.17,-334.34 544.99,-330.99 530.34,-328.01"/>
<polygon fill="#63b8ff" stroke="#63b8ff" points="631.46,-353.22 641.98,-351.99 632.98,-346.39 631.46,-353.22"/>
</a>
</g>
</g>
<!-- Node1658 -->
<g id="Node001658" class="node">
<title>Node1658</title>
<g id="a_Node001658"><a xlink:href="classSpell.html#ac7cb7f087619786f9c601eee52a6e308" target="_top" xlink:title=" ">
<polygon fill="#fff0f0" stroke="red" points="549,-499.5 415,-499.5 415,-469.5 549,-469.5 549,-499.5"/>
<text text-anchor="start" x="423" y="-487.5" font-family="Helvetica,sans-Serif" font-size="10.00">Spell::GetSinglePossible</text>
<text text-anchor="middle" x="482" y="-476.5" font-family="Helvetica,sans-Serif" font-size="10.00">Friend</text>
</a>
</g>
</g>
<!-- Node7&#45;&gt;Node1658 -->
<g id="edge18_Node000007_Node001658" class="edge">
<title>Node7&#45;&gt;Node1658</title>
<g id="a_edge18_Node000007_Node001658"><a xlink:title=" ">
<path fill="none" stroke="#63b8ff" d="M669.44,-379.09C650.26,-401.12 614.45,-438.51 576,-459.5 567.64,-464.07 558.39,-467.84 549.06,-470.94"/>
<polygon fill="#63b8ff" stroke="#63b8ff" points="672.34,-381.09 676.16,-371.21 667.01,-376.55 672.34,-381.09"/>
</a>
</g>
</g>
<!-- Node1661 -->
<g id="Node001661" class="node">
<title>Node1661</title>
<g id="a_Node001661"><a xlink:href="structSpellClickInfo.html#ae8d92c811b11817f06b746908322420b" target="_top" xlink:title=" ">
<polygon fill="white" stroke="#666666" points="576,-451 388,-451 388,-432 576,-432 576,-451"/>
<text text-anchor="middle" x="482" y="-439" font-family="Helvetica,sans-Serif" font-size="10.00">SpellClickInfo::isFitToRequirements</text>
</a>
</g>
</g>
<!-- Node7&#45;&gt;Node1661 -->
<g id="edge19_Node000007_Node001661" class="edge">
<title>Node7&#45;&gt;Node1661</title>
<g id="a_edge19_Node000007_Node001661"><a xlink:title=" ">
<path fill="none" stroke="#63b8ff" d="M661.81,-376.79C640.66,-390.68 607.45,-410.74 576,-422.5 565.81,-426.31 554.7,-429.42 543.81,-431.93"/>
<polygon fill="#63b8ff" stroke="#63b8ff" points="663.99,-379.54 670.36,-371.07 660.1,-373.72 663.99,-379.54"/>
</a>
</g>
</g>
<!-- Node1662 -->
<g id="Node001662" class="node">
<title>Node1662</title>
<g id="a_Node001662"><a xlink:href="classLuaUnit.html#a793c5eff82925694412d7f8b83315842" target="_top" xlink:title=" ">
<polygon fill="white" stroke="#666666" points="535.5,-414 428.5,-414 428.5,-395 535.5,-395 535.5,-414"/>
<text text-anchor="middle" x="482" y="-402" font-family="Helvetica,sans-Serif" font-size="10.00">LuaUnit::IsFriendly</text>
</a>
</g>
</g>
<!-- Node7&#45;&gt;Node1662 -->
<g id="edge20_Node000007_Node001662" class="edge">
<title>Node7&#45;&gt;Node1662</title>
<g id="a_edge20_Node000007_Node001662"><a xlink:title=" ">
<path fill="none" stroke="#63b8ff" d="M631.84,-373.28C614.13,-377.23 594.22,-381.62 576,-385.5 561.17,-388.66 544.99,-392.01 530.34,-394.99"/>
<polygon fill="#63b8ff" stroke="#63b8ff" points="632.98,-376.61 641.98,-371.01 631.46,-369.78 632.98,-376.61"/>
</a>
</g>
</g>
<!-- Node7&#45;&gt;Node1663 -->
<g id="edge21_Node000007_Node001663" class="edge">
<title>Node7&#45;&gt;Node1663</title>
<g id="a_edge21_Node000007_Node001663"><a xlink:title=" ">
<path fill="none" stroke="#63b8ff" d="M677.09,-380.8C659.26,-429.54 610.69,-555.64 576,-582.5 565.71,-590.47 552.91,-595.33 540.13,-598.24"/>
<polygon fill="#63b8ff" stroke="#63b8ff" points="680.47,-381.74 680.59,-371.14 673.89,-379.35 680.47,-381.74"/>
</a>
</g>
</g>
<!-- Node1722 -->
<g id="Node001722" class="node">
<title>Node1722</title>
<g id="a_Node001722"><a xlink:href="classObject.html#ab2aee75d38d95ffc6c490581ec2f8013" target="_top" xlink:title=" ">
<polygon fill="#fff0f0" stroke="red" points="559.5,-376.5 404.5,-376.5 404.5,-346.5 559.5,-346.5 559.5,-376.5"/>
<text text-anchor="start" x="412.5" y="-364.5" font-family="Helvetica,sans-Serif" font-size="10.00">Object::updateInRangeSame</text>
<text text-anchor="middle" x="482" y="-353.5" font-family="Helvetica,sans-Serif" font-size="10.00">FactionSet</text>
</a>
</g>
</g>
<!-- Node7&#45;&gt;Node1722 -->
<g id="edge50_Node000007_Node001722" class="edge">
<title>Node7&#45;&gt;Node1722</title>
<g id="a_edge50_Node000007_Node001722"><a xlink:title=" ">
<path fill="none" stroke="#63b8ff" d="M618.55,-361.5C599.71,-361.5 578.98,-361.5 559.52,-361.5"/>
<polygon fill="#63b8ff" stroke="#63b8ff" points="618.81,-365 628.81,-361.5 618.81,-358 618.81,-365"/>
</a>
</g>
</g>
<!-- Node1663&#45;&gt;Node3 -->
<g id="edge28_Node001663_Node000003" class="edge">
<title>Node1663&#45;&gt;Node3</title>
<g id="a_edge28_Node001663_Node000003"><a xlink:title=" ">
<path fill="none" stroke="#63b8ff" d="M413.94,-608.01C404,-611.79 394.82,-617.37 388,-625.5 321.41,-704.92 420.07,-1012.34 352,-1090.5 347.13,-1096.1 341.02,-1100.26 334.32,-1103.34"/>
<polygon fill="#63b8ff" stroke="#63b8ff" points="415.19,-611.29 423.66,-604.91 413.06,-604.62 415.19,-611.29"/>
</a>
</g>
</g>
<!-- Node1663&#45;&gt;Node1643 -->
<g id="edge26_Node001663_Node001643" class="edge">
<title>Node1663&#45;&gt;Node1643</title>
<g id="a_edge26_Node001663_Node001643"><a xlink:title=" ">
<path fill="none" stroke="#63b8ff" d="M414.14,-598.76C404.18,-595.5 394.94,-590.37 388,-582.5 318.84,-504.12 421.06,-191.97 352,-113.5 347.21,-108.06 341.25,-104.01 334.7,-101.02"/>
<polygon fill="#63b8ff" stroke="#63b8ff" points="413.31,-602.16 423.87,-601.35 415.11,-595.4 413.31,-602.16"/>
</a>
</g>
</g>
<!-- Node172 -->
<g id="Node000172" class="node">
<title>Node172</title>
<g id="a_Node000172"><a xlink:href="classPlayer.html#acd5d5ab5d5fef80a6a3ce60cdac2e3b7" target="_top" xlink:title=" ">
<polygon fill="#fff0f0" stroke="red" points="129,-808 11,-808 11,-789 129,-789 129,-808"/>
<text text-anchor="middle" x="70" y="-796" font-family="Helvetica,sans-Serif" font-size="10.00">Player::_eventAttack</text>
</a>
</g>
</g>
<!-- Node1663&#45;&gt;Node172 -->
<g id="edge22_Node001663_Node000172" class="edge">
<title>Node1663&#45;&gt;Node172</title>
<g id="a_edge22_Node001663_Node000172"><a xlink:title=" ">
<path fill="none" stroke="#63b8ff" d="M413.72,-609.1C404.07,-612.79 395.04,-618.04 388,-625.5 331.39,-685.45 415.71,-755.16 352,-807.5 276.01,-869.93 145.55,-828.51 93.45,-808.04"/>
<polygon fill="#63b8ff" stroke="#63b8ff" points="415.09,-612.33 423.52,-605.91 412.93,-605.67 415.09,-612.33"/>
</a>
</g>
</g>
<!-- Node1664 -->
<g id="Node001664" class="node">
<title>Node1664</title>
<g id="a_Node001664"><a xlink:href="classLuaUnit.html#ad5d644e3585fcd1d9f7e9a8eb07aab3d" target="_top" xlink:title=" ">
<polygon fill="white" stroke="#666666" points="319,-743 209,-743 209,-724 319,-724 319,-743"/>
<text text-anchor="middle" x="264" y="-731" font-family="Helvetica,sans-Serif" font-size="10.00">LuaUnit::CanAttack</text>
</a>
</g>
</g>
<!-- Node1663&#45;&gt;Node1664 -->
<g id="edge23_Node001663_Node001664" class="edge">
<title>Node1663&#45;&gt;Node1664</title>
<g id="a_edge23_Node001663_Node001664"><a xlink:title=" ">
<path fill="none" stroke="#63b8ff" d="M414.14,-610.54C404.61,-614.06 395.51,-618.89 388,-625.5 355.65,-653.95 385.03,-687.84 352,-715.5 342.78,-723.22 331.1,-727.91 319.31,-730.7"/>
<polygon fill="#63b8ff" stroke="#63b8ff" points="415.33,-613.84 423.77,-607.44 413.18,-607.18 415.33,-613.84"/>
</a>
</g>
</g>
<!-- Node44 -->
<g id="Node000044" class="node">
<title>Node44</title>
<g id="a_Node000044"><a xlink:href="classDeathCoilSpell.html#af5a80d6a4b08ab3d3040aa05732de7ec" target="_top" xlink:title=" ">
<polygon fill="white" stroke="#666666" points="331,-706 197,-706 197,-687 331,-687 331,-706"/>
<text text-anchor="middle" x="264" y="-694" font-family="Helvetica,sans-Serif" font-size="10.00">DeathCoilSpell::canCast</text>
</a>
</g>
</g>
<!-- Node1663&#45;&gt;Node44 -->
<g id="edge24_Node001663_Node000044" class="edge">
<title>Node1663&#45;&gt;Node44</title>
<g id="a_edge24_Node001663_Node000044"><a xlink:title=" ">
<path fill="none" stroke="#63b8ff" d="M413.94,-612.52C404.74,-615.78 395.79,-620.01 388,-625.5 364.71,-641.89 375.68,-662.68 352,-678.5 345.72,-682.7 338.65,-685.95 331.33,-688.46"/>
<polygon fill="#63b8ff" stroke="#63b8ff" points="415.11,-615.82 423.58,-609.45 412.99,-609.15 415.11,-615.82"/>
</a>
</g>
</g>
<!-- Node1665 -->
<g id="Node001665" class="node">
<title>Node1665</title>
<g id="a_Node001665"><a xlink:href="classAIInterface.html#a64a82a381541896996d3bfc41f7aa8a7" target="_top" xlink:title=" ">
<polygon fill="#fff0f0" stroke="red" points="352,-669 176,-669 176,-650 352,-650 352,-669"/>
<text text-anchor="middle" x="264" y="-657" font-family="Helvetica,sans-Serif" font-size="10.00">AIInterface::canOwnerAttackUnit</text>
</a>
</g>
</g>
<!-- Node1663&#45;&gt;Node1665 -->
<g id="edge25_Node001663_Node001665" class="edge">
<title>Node1663&#45;&gt;Node1665</title>
<g id="a_edge25_Node001663_Node001665"><a xlink:title=" ">
<path fill="none" stroke="#63b8ff" d="M428.06,-613.54C414.84,-616.99 400.8,-621.04 388,-625.5 371.47,-631.26 368.67,-636.14 352,-641.5 341.87,-644.76 330.88,-647.57 320.23,-649.93"/>
<polygon fill="#63b8ff" stroke="#63b8ff" points="429.13,-616.88 437.96,-611.03 427.41,-610.1 429.13,-616.88"/>
</a>
</g>
</g>
<!-- Node1704 -->
<g id="Node001704" class="node">
<title>Node1704</title>
<g id="a_Node001704"><a xlink:href="DeathKnightSpells_8cpp.html#a0cc77cb51464516cfab4bd0fea761cdf" target="_top" xlink:title=" ">
<polygon fill="#fff0f0" stroke="red" points="296.5,-632 231.5,-632 231.5,-613 296.5,-613 296.5,-632"/>
<text text-anchor="middle" x="264" y="-620" font-family="Helvetica,sans-Serif" font-size="10.00">DeathCoil</text>
</a>
</g>
</g>
<!-- Node1663&#45;&gt;Node1704 -->
<g id="edge27_Node001663_Node001704" class="edge">
<title>Node1663&#45;&gt;Node1704</title>
<g id="a_edge27_Node001663_Node001704"><a xlink:title=" ">
<path fill="none" stroke="#63b8ff" d="M413.7,-608.04C374.61,-611.84 327.18,-616.45 296.56,-619.43"/>
<polygon fill="#63b8ff" stroke="#63b8ff" points="414.35,-611.5 423.97,-607.04 413.67,-604.53 414.35,-611.5"/>
</a>
</g>
</g>
<!-- Node1705 -->
<g id="Node001705" class="node">
<title>Node1705</title>
<g id="a_Node001705"><a xlink:href="classSpell.html#af4665dfcecdf1cc113051e59cc8e9f83" target="_top" xlink:title=" ">
<polygon fill="white" stroke="#666666" points="334,-594.5 194,-594.5 194,-564.5 334,-564.5 334,-594.5"/>
<text text-anchor="start" x="202" y="-582.5" font-family="Helvetica,sans-Serif" font-size="10.00">Spell::FillSpecifiedTargets</text>
<text text-anchor="middle" x="264" y="-571.5" font-family="Helvetica,sans-Serif" font-size="10.00">InArea</text>
</a>
</g>
</g>
<!-- Node1663&#45;&gt;Node1705 -->
<g id="edge29_Node001663_Node001705" class="edge">
<title>Node1663&#45;&gt;Node1705</title>
<g id="a_edge29_Node001663_Node001705"><a xlink:title=" ">
<path fill="none" stroke="#63b8ff" d="M413.74,-594.65C388.49,-592.08 359.75,-589.15 334.31,-586.56"/>
<polygon fill="#63b8ff" stroke="#63b8ff" points="413.66,-598.16 423.97,-595.69 414.37,-591.2 413.66,-598.16"/>
</a>
</g>
</g>
<!-- Node1706 -->
<g id="Node001706" class="node">
<title>Node1706</title>
<g id="a_Node001706"><a xlink:href="classSpell.html#a700300bbb3088347f3c182183761d787" target="_top" xlink:title=" ">
<polygon fill="#fff0f0" stroke="red" points="331,-546.5 197,-546.5 197,-516.5 331,-516.5 331,-546.5"/>
<text text-anchor="start" x="205" y="-534.5" font-family="Helvetica,sans-Serif" font-size="10.00">Spell::GetSinglePossible</text>
<text text-anchor="middle" x="264" y="-523.5" font-family="Helvetica,sans-Serif" font-size="10.00">Enemy</text>
</a>
</g>
</g>
<!-- Node1663&#45;&gt;Node1706 -->
<g id="edge30_Node001663_Node001706" class="edge">
<title>Node1663&#45;&gt;Node1706</title>
<g id="a_edge30_Node001663_Node001706"><a xlink:title=" ">
<path fill="none" stroke="#63b8ff" d="M413.71,-591.46C404.87,-589.08 396.08,-586.13 388,-582.5 369.76,-574.3 369.95,-564.31 352,-555.5 345.11,-552.12 337.67,-549.15 330.14,-546.56"/>
<polygon fill="#63b8ff" stroke="#63b8ff" points="413.14,-594.93 423.68,-593.93 414.82,-588.13 413.14,-594.93"/>
</a>
</g>
</g>
<!-- Node1708 -->
<g id="Node001708" class="node">
<title>Node1708</title>
<g id="a_Node001708"><a xlink:href="classWorldSession.html#a1e5c27cdc61d6d2ff1a4ecc376632ac4" target="_top" xlink:title=" ">
<polygon fill="#fff0f0" stroke="red" points="340,-498.5 188,-498.5 188,-468.5 340,-468.5 340,-498.5"/>
<text text-anchor="start" x="196" y="-486.5" font-family="Helvetica,sans-Serif" font-size="10.00">WorldSession::handleAttack</text>
<text text-anchor="middle" x="264" y="-475.5" font-family="Helvetica,sans-Serif" font-size="10.00">SwingOpcode</text>
</a>
</g>
</g>
<!-- Node1663&#45;&gt;Node1708 -->
<g id="edge31_Node001663_Node001708" class="edge">
<title>Node1663&#45;&gt;Node1708</title>
<g id="a_edge31_Node001663_Node001708"><a xlink:title=" ">
<path fill="none" stroke="#63b8ff" d="M413.99,-595.63C404.63,-592.66 395.62,-588.44 388,-582.5 358.84,-559.76 380.37,-531.21 352,-507.5 347.91,-504.08 343.38,-501.15 338.58,-498.63"/>
<polygon fill="#63b8ff" stroke="#63b8ff" points="413.26,-599.06 423.83,-598.29 415.09,-592.3 413.26,-599.06"/>
</a>
</g>
</g>
<!-- Node1709 -->
<g id="Node001709" class="node">
<title>Node1709</title>
<g id="a_Node001709"><a xlink:href="ItemSpells__1_8cpp.html#a241984c3c7d37ea0ee96773961929e65" target="_top" xlink:title=" ">
<polygon fill="#fff0f0" stroke="red" points="305.5,-450 222.5,-450 222.5,-431 305.5,-431 305.5,-450"/>
<text text-anchor="middle" x="264" y="-438" font-family="Helvetica,sans-Serif" font-size="10.00">HolidayCheer</text>
</a>
</g>
</g>
<!-- Node1663&#45;&gt;Node1709 -->
<g id="edge32_Node001663_Node001709" class="edge">
<title>Node1663&#45;&gt;Node1709</title>
<g id="a_edge32_Node001663_Node001709"><a xlink:title=" ">
<path fill="none" stroke="#63b8ff" d="M414.08,-597.03C404.48,-593.91 395.37,-589.28 388,-582.5 346.08,-543.93 393.66,-498.35 352,-459.5 339.68,-448.01 322.07,-442.86 305.92,-440.73"/>
<polygon fill="#63b8ff" stroke="#63b8ff" points="413.24,-600.43 423.81,-599.67 415.08,-593.67 413.24,-600.43"/>
</a>
</g>
</g>
<!-- Node1710 -->
<g id="Node001710" class="node">
<title>Node1710</title>
<g id="a_Node001710"><a xlink:href="PaladinSpells_8cpp.html#afbfc8d19fe2ad55ba35ef3ae64c281c5" target="_top" xlink:title=" ">
<polygon fill="#fff0f0" stroke="red" points="298,-413 230,-413 230,-394 298,-394 298,-413"/>
<text text-anchor="middle" x="264" y="-401" font-family="Helvetica,sans-Serif" font-size="10.00">HolyShock</text>
</a>
</g>
</g>
<!-- Node1663&#45;&gt;Node1710 -->
<g id="edge33_Node001663_Node001710" class="edge">
<title>Node1663&#45;&gt;Node1710</title>
<g id="a_edge33_Node001663_Node001710"><a xlink:title=" ">
<path fill="none" stroke="#63b8ff" d="M414.05,-597.56C404.36,-594.39 395.23,-589.6 388,-582.5 335.68,-531.13 404.26,-472.93 352,-421.5 338.04,-407.76 316.52,-403.22 298.37,-402.14"/>
<polygon fill="#63b8ff" stroke="#63b8ff" points="413.31,-600.98 423.88,-600.22 415.14,-594.23 413.31,-600.98"/>
</a>
</g>
</g>
<!-- Node1711 -->
<g id="Node001711" class="node">
<title>Node1711</title>
<g id="a_Node001711"><a xlink:href="classLuaUnit.html#a79c28cce6eebb605dfe849876e2644ae" target="_top" xlink:title=" ">
<polygon fill="white" stroke="#666666" points="324,-376 204,-376 204,-357 324,-357 324,-376"/>
<text text-anchor="middle" x="264" y="-364" font-family="Helvetica,sans-Serif" font-size="10.00">LuaUnit::IsAttackable</text>
</a>
</g>
</g>
<!-- Node1663&#45;&gt;Node1711 -->
<g id="edge34_Node001663_Node001711" class="edge">
<title>Node1663&#45;&gt;Node1711</title>
<g id="a_edge34_Node001663_Node001711"><a xlink:title=" ">
<path fill="none" stroke="#63b8ff" d="M413.8,-597.81C404.14,-594.6 395.09,-589.74 388,-582.5 325.44,-518.57 414.48,-448.51 352,-384.5 344.46,-376.77 334.54,-371.93 324.1,-368.96"/>
<polygon fill="#63b8ff" stroke="#63b8ff" points="413.04,-601.23 423.61,-600.48 414.89,-594.48 413.04,-601.23"/>
</a>
</g>
</g>
<!-- Node1712 -->
<g id="Node001712" class="node">
<title>Node1712</title>
<g id="a_Node001712"><a xlink:href="PriestSpells_8cpp.html#a7d94acf3ba5704baa1a51c1f289bdeda" target="_top" xlink:title=" ">
<polygon fill="#fff0f0" stroke="red" points="293,-339 235,-339 235,-320 293,-320 293,-339"/>
<text text-anchor="middle" x="264" y="-327" font-family="Helvetica,sans-Serif" font-size="10.00">Penance</text>
</a>
</g>
</g>
<!-- Node1663&#45;&gt;Node1712 -->
<g id="edge35_Node001663_Node001712" class="edge">
<title>Node1663&#45;&gt;Node1712</title>
<g id="a_edge35_Node001663_Node001712"><a xlink:title=" ">
<path fill="none" stroke="#63b8ff" d="M413.98,-598.09C404.2,-594.87 395.07,-589.93 388,-582.5 315.16,-505.96 424.75,-424.13 352,-347.5 337.13,-331.84 312.51,-327.92 293.24,-327.59"/>
<polygon fill="#63b8ff" stroke="#63b8ff" points="413.34,-601.55 423.91,-600.77 415.16,-594.79 413.34,-601.55"/>
</a>
</g>
</g>
<!-- Node1715 -->
<g id="Node001715" class="node">
<title>Node1715</title>
<g id="a_Node001715"><a xlink:href="DeathKnightSpells_8cpp.html#a02ee7404661cfbf35323bdbba7051b10" target="_top" xlink:title=" ">
<polygon fill="#fff0f0" stroke="red" points="297.5,-302 230.5,-302 230.5,-283 297.5,-283 297.5,-302"/>
<text text-anchor="middle" x="264" y="-290" font-family="Helvetica,sans-Serif" font-size="10.00">Pestilence</text>
</a>
</g>
</g>
<!-- Node1663&#45;&gt;Node1715 -->
<g id="edge36_Node001663_Node001715" class="edge">
<title>Node1663&#45;&gt;Node1715</title>
<g id="a_edge36_Node001663_Node001715"><a xlink:title=" ">
<path fill="none" stroke="#63b8ff" d="M413.84,-598.22C404.09,-594.98 395,-590 388,-582.5 304.84,-493.31 435.05,-399.79 352,-310.5 338.34,-295.82 316.12,-291.41 297.56,-290.62"/>
<polygon fill="#63b8ff" stroke="#63b8ff" points="413.2,-601.67 423.77,-600.9 415.03,-594.91 413.2,-601.67"/>
</a>
</g>
</g>
<!-- Node1716 -->
<g id="Node001716" class="node">
<title>Node1716</title>
<g id="a_Node001716"><a xlink:href="ItemSpells__1_8cpp.html#a02a742c5ad079944421317fa0d414124" target="_top" xlink:title=" ">
<polygon fill="#fff0f0" stroke="red" points="297,-265 231,-265 231,-246 297,-246 297,-265"/>
<text text-anchor="middle" x="264" y="-253" font-family="Helvetica,sans-Serif" font-size="10.00">ShrinkRay</text>
</a>
</g>
</g>
<!-- Node1663&#45;&gt;Node1716 -->
<g id="edge37_Node001663_Node001716" class="edge">
<title>Node1663&#45;&gt;Node1716</title>
<g id="a_edge37_Node001663_Node001716"><a xlink:title=" ">
<path fill="none" stroke="#63b8ff" d="M413.74,-598.31C404,-595.06 394.94,-590.06 388,-582.5 294.5,-480.64 445.37,-375.47 352,-273.5 338.36,-258.6 315.89,-254.23 297.21,-253.52"/>
<polygon fill="#63b8ff" stroke="#63b8ff" points="413.09,-601.76 423.66,-601 414.93,-595 413.09,-601.76"/>
</a>
</g>
</g>
<!-- Node1717 -->
<g id="Node001717" class="node">
<title>Node1717</title>
<g id="a_Node001717"><a xlink:href="classAura.html#a2be51a05db0881da51e4dea4496cc2a0" target="_top" xlink:title=" ">
<polygon fill="white" stroke="#666666" points="336.5,-227.5 191.5,-227.5 191.5,-197.5 336.5,-197.5 336.5,-227.5"/>
<text text-anchor="start" x="199.5" y="-215.5" font-family="Helvetica,sans-Serif" font-size="10.00">Aura::SpellAuraModSchool</text>
<text text-anchor="middle" x="264" y="-204.5" font-family="Helvetica,sans-Serif" font-size="10.00">Immunity</text>
</a>
</g>
</g>
<!-- Node1663&#45;&gt;Node1717 -->
<g id="edge38_Node001663_Node001717" class="edge">
<title>Node1663&#45;&gt;Node1717</title>
<g id="a_edge38_Node001663_Node001717"><a xlink:title=" ">
<path fill="none" stroke="#63b8ff" d="M413.66,-598.38C403.93,-595.13 394.89,-590.1 388,-582.5 284.15,-467.96 451.91,-354.49 352,-236.5 347.75,-231.48 342.55,-227.46 336.83,-224.25"/>
<polygon fill="#63b8ff" stroke="#63b8ff" points="413.01,-601.83 423.58,-601.08 414.84,-595.08 413.01,-601.83"/>
</a>
</g>
</g>
<!-- Node1492 -->
<g id="Node001492" class="node">
<title>Node1492</title>
<g id="a_Node001492"><a xlink:href="classSpell.html#a1e821f794cbdebde6abbb68e81ff9c25" target="_top" xlink:title=" ">
<polygon fill="white" stroke="#666666" points="328.5,-179 199.5,-179 199.5,-160 328.5,-160 328.5,-179"/>
<text text-anchor="middle" x="264" y="-167" font-family="Helvetica,sans-Serif" font-size="10.00">Spell::SpellEffectDispel</text>
</a>
</g>
</g>
<!-- Node1663&#45;&gt;Node1492 -->
<g id="edge39_Node001663_Node001492" class="edge">
<title>Node1663&#45;&gt;Node1492</title>
<g id="a_edge39_Node001663_Node001492"><a xlink:title=" ">
<path fill="none" stroke="#63b8ff" d="M414.24,-598.68C404.26,-595.42 395,-590.32 388,-582.5 329.36,-517 410.2,-254.4 352,-188.5 345.76,-181.43 337.55,-176.65 328.67,-173.47"/>
<polygon fill="#63b8ff" stroke="#63b8ff" points="413.41,-602.08 423.97,-601.26 415.21,-595.31 413.41,-602.08"/>
</a>
</g>
</g>
<!-- Node1718 -->
<g id="Node001718" class="node">
<title>Node1718</title>
<g id="a_Node001718"><a xlink:href="classSpell.html#af280e6d3c687025a6ba1bc1d91902d83" target="_top" xlink:title=" ">
<polygon fill="white" stroke="#666666" points="337.5,-142 190.5,-142 190.5,-123 337.5,-123 337.5,-142"/>
<text text-anchor="middle" x="264" y="-130" font-family="Helvetica,sans-Serif" font-size="10.00">Spell::SpellEffectSpellSteal</text>
</a>
</g>
</g>
<!-- Node1663&#45;&gt;Node1718 -->
<g id="edge40_Node001663_Node001718" class="edge">
<title>Node1663&#45;&gt;Node1718</title>
<g id="a_edge40_Node001663_Node001718"><a xlink:title=" ">
<path fill="none" stroke="#63b8ff" d="M414.19,-598.72C404.22,-595.46 394.97,-590.34 388,-582.5 324.03,-510.47 415.88,-222.61 352,-150.5 347.91,-145.88 342.97,-142.27 337.55,-139.46"/>
<polygon fill="#63b8ff" stroke="#63b8ff" points="413.35,-602.12 423.92,-601.31 415.15,-595.36 413.35,-602.12"/>
</a>
</g>
</g>
<!-- Node446 -->
<g id="Node000446" class="node">
<title>Node446</title>
<g id="a_Node000446"><a xlink:href="classSpell.html#a4de8628ca0a0728ad9f64a5e23717f4b" target="_top" xlink:title=" ">
<polygon fill="white" stroke="#666666" points="332.5,-1081.5 195.5,-1081.5 195.5,-1051.5 332.5,-1051.5 332.5,-1081.5"/>
<text text-anchor="start" x="203.5" y="-1069.5" font-family="Helvetica,sans-Serif" font-size="10.00">Spell::SpellEffectTeleport</text>
<text text-anchor="middle" x="264" y="-1058.5" font-family="Helvetica,sans-Serif" font-size="10.00">Units</text>
</a>
</g>
</g>
<!-- Node1663&#45;&gt;Node446 -->
<g id="edge41_Node001663_Node000446" class="edge">
<title>Node1663&#45;&gt;Node446</title>
<g id="a_edge41_Node001663_Node000446"><a xlink:title=" ">
<path fill="none" stroke="#63b8ff" d="M414,-608.06C404.05,-611.84 394.86,-617.4 388,-625.5 327.93,-696.51 411.48,-971 352,-1042.5 346.79,-1048.76 340.11,-1053.47 332.76,-1057"/>
<polygon fill="#63b8ff" stroke="#63b8ff" points="415.26,-611.34 423.72,-604.96 413.13,-604.67 415.26,-611.34"/>
</a>
</g>
</g>
<!-- Node1638 -->
<g id="Node001638" class="node">
<title>Node1638</title>
<g id="a_Node001638"><a xlink:href="classSpell.html#a2c827b8d169fc574a6e93905283fa996" target="_top" xlink:title=" ">
<polygon fill="white" stroke="#666666" points="329.5,-1033.5 198.5,-1033.5 198.5,-1003.5 329.5,-1003.5 329.5,-1033.5"/>
<text text-anchor="start" x="206.5" y="-1021.5" font-family="Helvetica,sans-Serif" font-size="10.00">Spell::SpellEffectTrigger</text>
<text text-anchor="middle" x="264" y="-1010.5" font-family="Helvetica,sans-Serif" font-size="10.00">Missile</text>
</a>
</g>
</g>
<!-- Node1663&#45;&gt;Node1638 -->
<g id="edge42_Node001663_Node001638" class="edge">
<title>Node1663&#45;&gt;Node1638</title>
<g id="a_edge42_Node001663_Node001638"><a xlink:title=" ">
<path fill="none" stroke="#63b8ff" d="M414.08,-608.13C404.12,-611.9 394.9,-617.43 388,-625.5 280.87,-750.7 458.08,-868.41 352,-994.5 346.05,-1001.57 338.22,-1006.66 329.69,-1010.3"/>
<polygon fill="#63b8ff" stroke="#63b8ff" points="415.33,-611.4 423.8,-605.03 413.21,-604.73 415.33,-611.4"/>
</a>
</g>
</g>
<!-- Node1719 -->
<g id="Node001719" class="node">
<title>Node1719</title>
<g id="a_Node001719"><a xlink:href="DruidSpells_8cpp.html#a95cb777da3b9fd61a11229942886b529" target="_top" xlink:title=" ">
<polygon fill="#fff0f0" stroke="red" points="290,-985 238,-985 238,-966 290,-966 290,-985"/>
<text text-anchor="middle" x="264" y="-973" font-family="Helvetica,sans-Serif" font-size="10.00">Starfall</text>
</a>
</g>
</g>
<!-- Node1663&#45;&gt;Node1719 -->
<g id="edge43_Node001663_Node001719" class="edge">
<title>Node1663&#45;&gt;Node1719</title>
<g id="a_edge43_Node001663_Node001719"><a xlink:title=" ">
<path fill="none" stroke="#63b8ff" d="M414.15,-608.19C404.18,-611.95 394.94,-617.47 388,-625.5 290.9,-737.75 451.79,-847.64 352,-957.5 336.65,-974.4 309.97,-977.77 290.19,-977.61"/>
<polygon fill="#63b8ff" stroke="#63b8ff" points="415.41,-611.46 423.88,-605.1 413.29,-604.79 415.41,-611.46"/>
</a>
</g>
</g>
<!-- Node171 -->
<g id="Node000171" class="node">
<title>Node171</title>
<g id="a_Node000171"><a xlink:href="classUnit.html#ae0a382ed901d117f4667422bac9dba09" target="_top" xlink:title=" ">
<polygon fill="#fff0f0" stroke="red" points="299,-780 229,-780 229,-761 299,-761 299,-780"/>
<text text-anchor="middle" x="264" y="-768" font-family="Helvetica,sans-Serif" font-size="10.00">Unit::strike</text>
</a>
</g>
</g>
<!-- Node1663&#45;&gt;Node171 -->
<g id="edge44_Node001663_Node000171" class="edge">
<title>Node1663&#45;&gt;Node171</title>
<g id="a_edge44_Node001663_Node000171"><a xlink:title=" ">
<path fill="none" stroke="#63b8ff" d="M413.87,-609.74C404.29,-613.35 395.25,-618.42 388,-625.5 346.03,-666.49 394.96,-712.54 352,-752.5 338,-765.53 317.15,-770.16 299.37,-771.47"/>
<polygon fill="#63b8ff" stroke="#63b8ff" points="415.16,-613 423.59,-606.58 412.99,-606.34 415.16,-613"/>
</a>
</g>
</g>
<!-- Node231 -->
<g id="Node000231" class="node">
<title>Node231</title>
<g id="a_Node000231"><a xlink:href="classGameObject.html#a94184636f60369d6413fd2bc0c8184de" target="_top" xlink:title=" ">
<polygon fill="#fff0f0" stroke="red" points="323.5,-948 204.5,-948 204.5,-929 323.5,-929 323.5,-948"/>
<text text-anchor="middle" x="264" y="-936" font-family="Helvetica,sans-Serif" font-size="10.00">GameObject::Update</text>
</a>
</g>
</g>
<!-- Node1663&#45;&gt;Node231 -->
<g id="edge47_Node001663_Node000231" class="edge">
<title>Node1663&#45;&gt;Node231</title>
<g id="a_edge47_Node001663_Node000231"><a xlink:title=" ">
<path fill="none" stroke="#63b8ff" d="M414.24,-608.27C404.27,-612.02 395,-617.52 388,-625.5 300.92,-724.82 441.46,-823.33 352,-920.5 344.48,-928.67 334.31,-933.67 323.57,-936.63"/>
<polygon fill="#63b8ff" stroke="#63b8ff" points="415.5,-611.54 423.97,-605.18 413.38,-604.87 415.5,-611.54"/>
</a>
</g>
</g>
<!-- Node1436 -->
<g id="Node001436" class="node">
<title>Node1436</title>
<g id="a_Node001436"><a xlink:href="classDynamicObject.html#aeb995927b0049910d395380098f7294e" target="_top" xlink:title=" ">
<polygon fill="#fff0f0" stroke="red" points="347.5,-911 180.5,-911 180.5,-892 347.5,-892 347.5,-911"/>
<text text-anchor="middle" x="264" y="-899" font-family="Helvetica,sans-Serif" font-size="10.00">DynamicObject::updateTargets</text>
</a>
</g>
</g>
<!-- Node1663&#45;&gt;Node1436 -->
<g id="edge48_Node001663_Node001436" class="edge">
<title>Node1663&#45;&gt;Node1436</title>
<g id="a_edge48_Node001663_Node001436"><a xlink:title=" ">
<path fill="none" stroke="#63b8ff" d="M414,-608.51C404.15,-612.24 394.98,-617.67 388,-625.5 310.93,-711.89 431.15,-799 352,-883.5 348.94,-886.76 345.46,-889.52 341.69,-891.84"/>
<polygon fill="#63b8ff" stroke="#63b8ff" points="415.16,-611.81 423.61,-605.42 413.02,-605.15 415.16,-611.81"/>
</a>
</g>
</g>
<!-- Node1641 -->
<g id="Node001641" class="node">
<title>Node1641</title>
<g id="a_Node001641"><a xlink:href="classAIInterface.html#a4ef348bf0a2125471bdb024e3fb282cb" target="_top" xlink:title=" ">
<polygon fill="#fff0f0" stroke="red" points="334,-874 194,-874 194,-855 334,-855 334,-874"/>
<text text-anchor="middle" x="264" y="-862" font-family="Helvetica,sans-Serif" font-size="10.00">AIInterface::updateTotem</text>
</a>
</g>
</g>
<!-- Node1663&#45;&gt;Node1641 -->
<g id="edge49_Node001663_Node001641" class="edge">
<title>Node1663&#45;&gt;Node1641</title>
<g id="a_edge49_Node001663_Node001641"><a xlink:title=" ">
<path fill="none" stroke="#63b8ff" d="M414.18,-608.67C404.31,-612.39 395.09,-617.77 388,-625.5 322.52,-696.91 416.88,-768.55 352,-840.5 346.33,-846.78 339.19,-851.48 331.44,-854.99"/>
<polygon fill="#63b8ff" stroke="#63b8ff" points="415.35,-611.97 423.8,-605.59 413.21,-605.31 415.35,-611.97"/>
</a>
</g>
</g>
<!-- Node171&#45;&gt;Node172 -->
<g id="edge45_Node000171_Node000172" class="edge">
<title>Node171&#45;&gt;Node172</title>
<g id="a_edge45_Node000171_Node000172"><a xlink:title=" ">
<path fill="none" stroke="#63b8ff" d="M218.51,-776.99C191.92,-780.87 157.83,-785.84 129.13,-790.02"/>
<polygon fill="#63b8ff" stroke="#63b8ff" points="219.28,-780.41 228.67,-775.51 218.27,-773.49 219.28,-780.41"/>
</a>
</g>
</g>
<!-- Node171&#45;&gt;Node171 -->
<g id="edge46_Node000171_Node000171" class="edge">
<title>Node171&#45;&gt;Node171</title>
<g id="a_edge46_Node000171_Node000171"><a xlink:title=" ">
<path fill="none" stroke="#63b8ff" d="M300.36,-788.07C299.82,-793.62 287.71,-798 264,-798 229.52,-798 219.55,-788.73 234.1,-780.08"/>
<polygon fill="#63b8ff" stroke="#63b8ff" points="302.91,-785.66 293.9,-780.08 297.46,-790.06 302.91,-785.66"/>
</a>
</g>
</g>
<!-- Node1724&#45;&gt;Node8 -->
<g id="edge52_Node001724_Node000008" class="edge">
<title>Node1724&#45;&gt;Node8</title>
<g id="a_edge52_Node001724_Node000008"><a xlink:title=" ">
<path fill="none" stroke="#63b8ff" d="M621.21,-563.81C600.55,-563.92 577.39,-564.03 556.03,-564.14"/>
<polygon fill="#63b8ff" stroke="#63b8ff" points="621.47,-567.31 631.45,-563.76 621.43,-560.31 621.47,-567.31"/>
</a>
</g>
</g>
<!-- Node1724&#45;&gt;Node1663 -->
<g id="edge53_Node001724_Node001663" class="edge">
<title>Node1724&#45;&gt;Node1663</title>
<g id="a_edge53_Node001724_Node001663"><a xlink:title=" ">
<path fill="none" stroke="#63b8ff" d="M623.6,-574.92C594.84,-580.36 560.84,-586.78 533.48,-591.96"/>
<polygon fill="#63b8ff" stroke="#63b8ff" points="624.36,-578.34 633.54,-573.04 623.06,-571.46 624.36,-578.34"/>
</a>
</g>
</g>
</g>
</svg>
