<?xml version="1.0" encoding="UTF-8" standalone="no"?>
<!DOCTYPE svg PUBLIC "-//W3C//DTD SVG 1.1//EN"
 "http://www.w3.org/Graphics/SVG/1.1/DTD/svg11.dtd">
<!-- Generated by graphviz version 2.43.0 (0)
 -->
<!-- Title: MapMgr::canPlayerEnter Pages: 1 -->
<svg width="1067pt" height="1129pt"
 viewBox="0.00 0.00 1067.00 1129.00" xmlns="http://www.w3.org/2000/svg" xmlns:xlink="http://www.w3.org/1999/xlink">
<g id="graph0" class="graph" transform="scale(1 1) rotate(0) translate(4 1125)">
<title>MapMgr::canPlayerEnter</title>
<!-- Node1 -->
<g id="Node000001" class="node">
<title>Node1</title>
<g id="a_Node000001"><a xlink:title=" ">
<polygon fill="#999999" stroke="#666666" points="136,-652 0,-652 0,-633 136,-633 136,-652"/>
<text text-anchor="middle" x="68" y="-640" font-family="Helvetica,sans-Serif" font-size="10.00">MapMgr::canPlayerEnter</text>
</a>
</g>
</g>
<!-- Node2 -->
<g id="Node000002" class="node">
<title>Node2</title>
<g id="a_Node000002"><a xlink:href="classPlayer.html#a0608e7cfa8505e9632860b8b6c97ada3" target="_top" xlink:title=" ">
<polygon fill="white" stroke="#666666" points="328,-1121 176,-1121 176,-1102 328,-1102 328,-1121"/>
<text text-anchor="middle" x="252" y="-1109" font-family="Helvetica,sans-Serif" font-size="10.00">Player::checkInstanceCount</text>
</a>
</g>
</g>
<!-- Node1&#45;&gt;Node2 -->
<g id="edge1_Node000001_Node000002" class="edge">
<title>Node1&#45;&gt;Node2</title>
<g id="a_edge1_Node000001_Node000002"><a xlink:title=" ">
<path fill="none" stroke="#63b8ff" d="M69.84,-652.3C75.19,-712.11 106.25,-1027.78 172,-1093.5 172.95,-1094.45 173.94,-1095.36 174.97,-1096.22"/>
<polygon fill="#63b8ff" stroke="#63b8ff" points="173.21,-1099.25 183.44,-1102 177.15,-1093.47 173.21,-1099.25"/>
</a>
</g>
</g>
<!-- Node3 -->
<g id="Node000003" class="node">
<title>Node3</title>
<g id="a_Node000003"><a xlink:href="classPlayer.html#a2435e176650effe91bbae7033e1b3e0f" target="_top" xlink:title=" ">
<polygon fill="white" stroke="#666666" points="328.5,-1084 175.5,-1084 175.5,-1065 328.5,-1065 328.5,-1084"/>
<text text-anchor="middle" x="252" y="-1072" font-family="Helvetica,sans-Serif" font-size="10.00">Player::getCorpseInstanceId</text>
</a>
</g>
</g>
<!-- Node1&#45;&gt;Node3 -->
<g id="edge2_Node000001_Node000003" class="edge">
<title>Node1&#45;&gt;Node3</title>
<g id="a_edge2_Node000001_Node000003"><a xlink:title=" ">
<path fill="none" stroke="#63b8ff" d="M70.13,-652.02C76.92,-707.59 113.9,-989.56 172,-1050.5 175.68,-1054.36 179.95,-1057.6 184.57,-1060.32"/>
<polygon fill="#63b8ff" stroke="#63b8ff" points="183.31,-1063.61 193.82,-1064.95 186.45,-1057.35 183.31,-1063.61"/>
</a>
</g>
</g>
<!-- Node4 -->
<g id="Node000004" class="node">
<title>Node4</title>
<g id="a_Node000004"><a xlink:href="classPlayer.html#aa39f0e6a4f9eef73537e57397383770a" target="_top" xlink:title=" ">
<polygon fill="white" stroke="#666666" points="512,-1026 399,-1026 399,-1007 512,-1007 512,-1026"/>
<text text-anchor="middle" x="455.5" y="-1014" font-family="Helvetica,sans-Serif" font-size="10.00">Player::getDifficulty</text>
</a>
</g>
</g>
<!-- Node1&#45;&gt;Node4 -->
<g id="edge3_Node000001_Node000004" class="edge">
<title>Node1&#45;&gt;Node4</title>
<g id="a_edge3_Node000001_Node000004"><a xlink:title=" ">
<path fill="none" stroke="#63b8ff" d="M70.1,-652.21C76.47,-706.39 110.39,-970.53 172,-1017.5 244.3,-1072.62 360.02,-1047.39 418.36,-1029.27"/>
<polygon fill="#63b8ff" stroke="#63b8ff" points="419.78,-1032.49 428.23,-1026.11 417.64,-1025.83 419.78,-1032.49"/>
</a>
</g>
</g>
<!-- Node5 -->
<g id="Node000005" class="node">
<title>Node5</title>
<g id="a_Node000005"><a xlink:href="WDBStores_8cpp.html#ac722b2b11f3f65add48c0aee7af2efbb" target="_top" xlink:title=" ">
<polygon fill="white" stroke="#666666" points="759,-941 579,-941 579,-922 759,-922 759,-941"/>
<text text-anchor="middle" x="669" y="-929" font-family="Helvetica,sans-Serif" font-size="10.00">getDownscaledMapDifficultyData</text>
</a>
</g>
</g>
<!-- Node1&#45;&gt;Node5 -->
<g id="edge4_Node000001_Node000005" class="edge">
<title>Node1&#45;&gt;Node5</title>
<g id="a_edge4_Node000001_Node000005"><a xlink:title=" ">
<path fill="none" stroke="#63b8ff" d="M71.27,-652.09C79.16,-683.15 108.4,-781.65 172,-828.5 189.54,-841.42 477.04,-896.04 606.12,-920.07"/>
<polygon fill="#63b8ff" stroke="#63b8ff" points="605.78,-923.57 616.25,-921.96 607.06,-916.69 605.78,-923.57"/>
</a>
</g>
</g>
<!-- Node8 -->
<g id="Node000008" class="node">
<title>Node8</title>
<g id="a_Node000008"><a xlink:href="classPlayer.html#ac662c652bf04ebcf49dfae35f2d61df7" target="_top" xlink:title=" ">
<polygon fill="white" stroke="#666666" points="330.5,-971 173.5,-971 173.5,-952 330.5,-952 330.5,-971"/>
<text text-anchor="middle" x="252" y="-959" font-family="Helvetica,sans-Serif" font-size="10.00">Player::getDungeonDifficulty</text>
</a>
</g>
</g>
<!-- Node1&#45;&gt;Node8 -->
<g id="edge7_Node000001_Node000008" class="edge">
<title>Node1&#45;&gt;Node8</title>
<g id="a_edge7_Node000001_Node000008"><a xlink:title=" ">
<path fill="none" stroke="#63b8ff" d="M69.36,-652.04C71.4,-692.78 84.92,-853.92 172,-937.5 176.24,-941.57 181.15,-944.95 186.4,-947.76"/>
<polygon fill="#63b8ff" stroke="#63b8ff" points="184.97,-950.95 195.51,-951.97 187.9,-944.6 184.97,-950.95"/>
</a>
</g>
</g>
<!-- Node9 -->
<g id="Node000009" class="node">
<title>Node9</title>
<g id="a_Node000009"><a xlink:href="classPlayer.html#a5895a59587da18a4655b8174805b7de0" target="_top" xlink:title=" ">
<polygon fill="white" stroke="#666666" points="504.5,-942 406.5,-942 406.5,-923 504.5,-923 504.5,-942"/>
<text text-anchor="middle" x="455.5" y="-930" font-family="Helvetica,sans-Serif" font-size="10.00">Player::getGroup</text>
</a>
</g>
</g>
<!-- Node1&#45;&gt;Node9 -->
<g id="edge8_Node000001_Node000009" class="edge">
<title>Node1&#45;&gt;Node9</title>
<g id="a_edge8_Node000001_Node000009"><a xlink:title=" ">
<path fill="none" stroke="#63b8ff" d="M69.42,-652.2C71.68,-691.43 85.85,-839.35 172,-904.5 206.09,-930.29 323.7,-933.98 395.98,-933.69"/>
<polygon fill="#63b8ff" stroke="#63b8ff" points="396.32,-937.18 406.3,-933.62 396.28,-930.18 396.32,-937.18"/>
</a>
</g>
</g>
<!-- Node10 -->
<g id="Node000010" class="node">
<title>Node10</title>
<g id="a_Node000010"><a xlink:href="classInstanceSaved.html#a97c1d04097a68a879ad096bc5791b635" target="_top" xlink:title=" ">
<polygon fill="white" stroke="#666666" points="332,-895 172,-895 172,-876 332,-876 332,-895"/>
<text text-anchor="middle" x="252" y="-883" font-family="Helvetica,sans-Serif" font-size="10.00">InstanceSaved::getInstanceId</text>
</a>
</g>
</g>
<!-- Node1&#45;&gt;Node10 -->
<g id="edge9_Node000001_Node000010" class="edge">
<title>Node1&#45;&gt;Node10</title>
<g id="a_edge9_Node000001_Node000010"><a xlink:title=" ">
<path fill="none" stroke="#63b8ff" d="M70.64,-652.05C76.98,-685.97 103.04,-801.86 172,-861.5 176.84,-865.68 182.39,-869.14 188.26,-871.99"/>
<polygon fill="#63b8ff" stroke="#63b8ff" points="187.12,-875.31 197.69,-876 189.85,-868.87 187.12,-875.31"/>
</a>
</g>
</g>
<!-- Node11 -->
<g id="Node000011" class="node">
<title>Node11</title>
<g id="a_Node000011"><a xlink:href="classPlayer.html#a4277f7a4a51695c1406697cbbdad989a" target="_top" xlink:title=" ">
<polygon fill="white" stroke="#666666" points="319,-1008 185,-1008 185,-989 319,-989 319,-1008"/>
<text text-anchor="middle" x="252" y="-996" font-family="Helvetica,sans-Serif" font-size="10.00">Player::getInstanceSave</text>
</a>
</g>
</g>
<!-- Node1&#45;&gt;Node11 -->
<g id="edge10_Node000001_Node000011" class="edge">
<title>Node1&#45;&gt;Node11</title>
<g id="a_edge10_Node000001_Node000011"><a xlink:title=" ">
<path fill="none" stroke="#63b8ff" d="M68.72,-652.03C67.96,-696.63 70.96,-886.47 172,-980.5 173.31,-981.72 174.68,-982.86 176.11,-983.93"/>
<polygon fill="#63b8ff" stroke="#63b8ff" points="174.49,-987.04 184.84,-989.3 178.16,-981.08 174.49,-987.04"/>
</a>
</g>
</g>
<!-- Node13 -->
<g id="Node000013" class="node">
<title>Node13</title>
<g id="a_Node000013"><a xlink:href="classItemInterface.html#a02b6adbb2ef4314ea8de7eb755a3c55a" target="_top" xlink:title="Finds item ammount on inventory, banks not included.">
<polygon fill="white" stroke="#666666" points="330.5,-819 173.5,-819 173.5,-800 330.5,-800 330.5,-819"/>
<text text-anchor="middle" x="252" y="-807" font-family="Helvetica,sans-Serif" font-size="10.00">ItemInterface::GetItemCount</text>
</a>
</g>
</g>
<!-- Node1&#45;&gt;Node13 -->
<g id="edge15_Node000001_Node000013" class="edge">
<title>Node1&#45;&gt;Node13</title>
<g id="a_edge15_Node000001_Node000013"><a xlink:title=" ">
<path fill="none" stroke="#63b8ff" d="M72.79,-652.38C83.69,-679.39 117.83,-754.84 172,-791.5 174.27,-793.04 176.65,-794.44 179.12,-795.73"/>
<polygon fill="#63b8ff" stroke="#63b8ff" points="177.79,-798.97 188.34,-799.89 180.67,-792.59 177.79,-798.97"/>
</a>
</g>
</g>
<!-- Node22 -->
<g id="Node000022" class="node">
<title>Node22</title>
<g id="a_Node000022"><a xlink:href="classPlayer.html#a0d789feb80d9a2315d2aba24c75a07a8" target="_top" xlink:title=" ">
<polygon fill="white" stroke="#666666" points="319.5,-782 184.5,-782 184.5,-763 319.5,-763 319.5,-782"/>
<text text-anchor="middle" x="252" y="-770" font-family="Helvetica,sans-Serif" font-size="10.00">Player::getItemInterface</text>
</a>
</g>
</g>
<!-- Node1&#45;&gt;Node22 -->
<g id="edge24_Node000001_Node000022" class="edge">
<title>Node1&#45;&gt;Node22</title>
<g id="a_edge24_Node000001_Node000022"><a xlink:title=" ">
<path fill="none" stroke="#63b8ff" d="M74.86,-652.1C88.77,-674.01 126.07,-727.86 172,-754.5 175.01,-756.25 178.18,-757.82 181.44,-759.25"/>
<polygon fill="#63b8ff" stroke="#63b8ff" points="180.27,-762.55 190.86,-762.87 182.78,-756.01 180.27,-762.55"/>
</a>
</g>
</g>
<!-- Node23 -->
<g id="Node000023" class="node">
<title>Node23</title>
<g id="a_Node000023"><a xlink:href="classUnit.html#adfa16ac0ecbefbac2e41e3fb1590a1a5" target="_top" xlink:title=" ">
<polygon fill="white" stroke="#666666" points="294.5,-745 209.5,-745 209.5,-726 294.5,-726 294.5,-745"/>
<text text-anchor="middle" x="252" y="-733" font-family="Helvetica,sans-Serif" font-size="10.00">Unit::getLevel</text>
</a>
</g>
</g>
<!-- Node1&#45;&gt;Node23 -->
<g id="edge25_Node000001_Node000023" class="edge">
<title>Node1&#45;&gt;Node23</title>
<g id="a_edge25_Node000001_Node000023"><a xlink:title=" ">
<path fill="none" stroke="#63b8ff" d="M79.21,-652.18C96.74,-668.25 134.34,-700.38 172,-717.5 180.56,-721.39 190.03,-724.48 199.36,-726.91"/>
<polygon fill="#63b8ff" stroke="#63b8ff" points="198.83,-730.39 209.37,-729.31 200.46,-723.58 198.83,-730.39"/>
</a>
</g>
</g>
<!-- Node25 -->
<g id="Node000025" class="node">
<title>Node25</title>
<g id="a_Node000025"><a xlink:href="classPlayer.html#aee195158e07a0138b257f8d1ede0cc6b" target="_top" xlink:title=" ">
<polygon fill="white" stroke="#666666" points="305.5,-708 198.5,-708 198.5,-689 305.5,-689 305.5,-708"/>
<text text-anchor="middle" x="252" y="-696" font-family="Helvetica,sans-Serif" font-size="10.00">Player::getSession</text>
</a>
</g>
</g>
<!-- Node1&#45;&gt;Node25 -->
<g id="edge27_Node000001_Node000025" class="edge">
<title>Node1&#45;&gt;Node25</title>
<g id="a_edge27_Node000001_Node000025"><a xlink:title=" ">
<path fill="none" stroke="#63b8ff" d="M92.43,-652.13C113.12,-660.4 144.23,-672.25 172,-680.5 179.22,-682.64 186.87,-684.68 194.47,-686.56"/>
<polygon fill="#63b8ff" stroke="#63b8ff" points="193.83,-690 204.37,-688.93 195.46,-683.2 193.83,-690"/>
</a>
</g>
</g>
<!-- Node26 -->
<g id="Node000026" class="node">
<title>Node26</title>
<g id="a_Node000026"><a xlink:href="classPlayer.html#a5648707ed12c03a2419add4f8c882102" target="_top" xlink:title=" ">
<polygon fill="white" stroke="#666666" points="299.5,-671 204.5,-671 204.5,-652 299.5,-652 299.5,-671"/>
<text text-anchor="middle" x="252" y="-659" font-family="Helvetica,sans-Serif" font-size="10.00">Player::getTeam</text>
</a>
</g>
</g>
<!-- Node1&#45;&gt;Node26 -->
<g id="edge28_Node000001_Node000026" class="edge">
<title>Node1&#45;&gt;Node26</title>
<g id="a_edge28_Node000001_Node000026"><a xlink:title=" ">
<path fill="none" stroke="#63b8ff" d="M136.25,-649.52C155.39,-651.52 176.04,-653.67 194.47,-655.6"/>
<polygon fill="#63b8ff" stroke="#63b8ff" points="194.15,-659.08 204.46,-656.64 194.87,-652.12 194.15,-659.08"/>
</a>
</g>
</g>
<!-- Node27 -->
<g id="Node000027" class="node">
<title>Node27</title>
<g id="a_Node000027"><a xlink:href="classWorldSession.html#a4121b12ef6f4615a9bb1173d640f9243" target="_top" xlink:title=" ">
<polygon fill="white" stroke="#666666" points="316,-634 188,-634 188,-615 316,-615 316,-634"/>
<text text-anchor="middle" x="252" y="-622" font-family="Helvetica,sans-Serif" font-size="10.00">WorldSession::HasFlag</text>
</a>
</g>
</g>
<!-- Node1&#45;&gt;Node27 -->
<g id="edge29_Node000001_Node000027" class="edge">
<title>Node1&#45;&gt;Node27</title>
<g id="a_edge29_Node000001_Node000027"><a xlink:title=" ">
<path fill="none" stroke="#63b8ff" d="M136.25,-635.85C149.73,-634.52 163.95,-633.11 177.62,-631.76"/>
<polygon fill="#63b8ff" stroke="#63b8ff" points="178.34,-635.2 187.95,-630.74 177.65,-628.24 178.34,-635.2"/>
</a>
</g>
</g>
<!-- Node28 -->
<g id="Node000028" class="node">
<title>Node28</title>
<g id="a_Node000028"><a xlink:href="structMySQLStructure_1_1MapInfo.html#a3a1fb687e857c1add739eba1cfbbbd05" target="_top" xlink:title=" ">
<polygon fill="white" stroke="#666666" points="322,-596.5 182,-596.5 182,-566.5 322,-566.5 322,-596.5"/>
<text text-anchor="start" x="190" y="-584.5" font-family="Helvetica,sans-Serif" font-size="10.00">MySQLStructure::MapInfo</text>
<text text-anchor="middle" x="252" y="-573.5" font-family="Helvetica,sans-Serif" font-size="10.00">::hasFlag</text>
</a>
</g>
</g>
<!-- Node1&#45;&gt;Node28 -->
<g id="edge30_Node000001_Node000028" class="edge">
<title>Node1&#45;&gt;Node28</title>
<g id="a_edge30_Node000001_Node000028"><a xlink:title=" ">
<path fill="none" stroke="#63b8ff" d="M95.6,-632.96C116.36,-625.57 145.94,-615.18 172,-606.5 178.76,-604.25 185.85,-601.94 192.91,-599.67"/>
<polygon fill="#63b8ff" stroke="#63b8ff" points="194,-602.99 202.46,-596.61 191.87,-596.32 194,-602.99"/>
</a>
</g>
</g>
<!-- Node29 -->
<g id="Node000029" class="node">
<title>Node29</title>
<g id="a_Node000029"><a xlink:href="classPlayer.html#a8b93cd9b8b8d818eaba584313fe31ed3" target="_top" xlink:title=" ">
<polygon fill="white" stroke="#666666" points="322,-548 182,-548 182,-529 322,-529 322,-548"/>
<text text-anchor="middle" x="252" y="-536" font-family="Helvetica,sans-Serif" font-size="10.00">Player::hasQuestFinished</text>
</a>
</g>
</g>
<!-- Node1&#45;&gt;Node29 -->
<g id="edge31_Node000001_Node000029" class="edge">
<title>Node1&#45;&gt;Node29</title>
<g id="a_edge31_Node000001_Node000029"><a xlink:title=" ">
<path fill="none" stroke="#63b8ff" d="M77.63,-632.95C94.15,-615.25 132.17,-577.38 172,-557.5 176.81,-555.1 181.94,-552.99 187.19,-551.14"/>
<polygon fill="#63b8ff" stroke="#63b8ff" points="188.27,-554.47 196.72,-548.09 186.13,-547.81 188.27,-554.47"/>
</a>
</g>
</g>
<!-- Node30 -->
<g id="Node000030" class="node">
<title>Node30</title>
<g id="a_Node000030"><a xlink:href="classUnit.html#ad9245732ec5afbdb44b9942ae8ea98cc" target="_top" xlink:title=" ">
<polygon fill="white" stroke="#666666" points="290,-511 214,-511 214,-492 290,-492 290,-511"/>
<text text-anchor="middle" x="252" y="-499" font-family="Helvetica,sans-Serif" font-size="10.00">Unit::isAlive</text>
</a>
</g>
</g>
<!-- Node1&#45;&gt;Node30 -->
<g id="edge32_Node000001_Node000030" class="edge">
<title>Node1&#45;&gt;Node30</title>
<g id="a_edge32_Node000001_Node000030"><a xlink:title=" ">
<path fill="none" stroke="#63b8ff" d="M74.26,-632.78C87.4,-609.45 124.11,-550.05 172,-520.5 181.56,-514.6 192.81,-510.53 203.79,-507.73"/>
<polygon fill="#63b8ff" stroke="#63b8ff" points="204.74,-511.1 213.73,-505.49 203.2,-504.27 204.74,-511.1"/>
</a>
</g>
</g>
<!-- Node31 -->
<g id="Node000031" class="node">
<title>Node31</title>
<g id="a_Node000031"><a xlink:href="classUnit.html#afd7aa5f7719cba4d967bb7f009582d2f" target="_top" xlink:title=" ">
<polygon fill="white" stroke="#666666" points="290.5,-474 213.5,-474 213.5,-455 290.5,-455 290.5,-474"/>
<text text-anchor="middle" x="252" y="-462" font-family="Helvetica,sans-Serif" font-size="10.00">Unit::isDead</text>
</a>
</g>
</g>
<!-- Node1&#45;&gt;Node31 -->
<g id="edge33_Node000001_Node000031" class="edge">
<title>Node1&#45;&gt;Node31</title>
<g id="a_edge33_Node000001_Node000031"><a xlink:title=" ">
<path fill="none" stroke="#63b8ff" d="M72.32,-632.81C82.43,-604.83 115.63,-523.41 172,-483.5 181.17,-477.01 192.28,-472.72 203.23,-469.89"/>
<polygon fill="#63b8ff" stroke="#63b8ff" points="204.18,-473.26 213.18,-467.68 202.66,-466.43 204.18,-473.26"/>
</a>
</g>
</g>
<!-- Node32 -->
<g id="Node000032" class="node">
<title>Node32</title>
<g id="a_Node000032"><a xlink:href="classPlayer.html#ae920162637f7e67ab83b3c91f29d0762" target="_top" xlink:title=" ">
<polygon fill="white" stroke="#666666" points="309.5,-437 194.5,-437 194.5,-418 309.5,-418 309.5,-437"/>
<text text-anchor="middle" x="252" y="-425" font-family="Helvetica,sans-Serif" font-size="10.00">Player::isGMFlagSet</text>
</a>
</g>
</g>
<!-- Node1&#45;&gt;Node32 -->
<g id="edge34_Node000001_Node000032" class="edge">
<title>Node1&#45;&gt;Node32</title>
<g id="a_edge34_Node000001_Node000032"><a xlink:title=" ">
<path fill="none" stroke="#63b8ff" d="M71.06,-632.93C78.46,-601.01 106.79,-497.27 172,-446.5 175.9,-443.46 180.21,-440.9 184.75,-438.75"/>
<polygon fill="#63b8ff" stroke="#63b8ff" points="186.37,-441.86 194.32,-434.85 183.74,-435.38 186.37,-441.86"/>
</a>
</g>
</g>
<!-- Node36 -->
<g id="Node000036" class="node">
<title>Node36</title>
<g id="a_Node000036"><a xlink:href="structWDB_1_1Structures_1_1MapEntry.html#a10d2ecd51bb2756dc75508300afa4782" target="_top" xlink:title=" ">
<polygon fill="white" stroke="#666666" points="326.5,-399.5 177.5,-399.5 177.5,-369.5 326.5,-369.5 326.5,-399.5"/>
<text text-anchor="start" x="185.5" y="-387.5" font-family="Helvetica,sans-Serif" font-size="10.00">WDB::Structures::MapEntry</text>
<text text-anchor="middle" x="252" y="-376.5" font-family="Helvetica,sans-Serif" font-size="10.00">::isInstanceMap</text>
</a>
</g>
</g>
<!-- Node1&#45;&gt;Node36 -->
<g id="edge38_Node000001_Node000036" class="edge">
<title>Node1&#45;&gt;Node36</title>
<g id="a_edge38_Node000001_Node000036"><a xlink:title=" ">
<path fill="none" stroke="#63b8ff" d="M70.39,-632.88C75.99,-597.56 100.19,-473.83 172,-409.5 173.74,-407.94 175.58,-406.48 177.5,-405.11"/>
<polygon fill="#63b8ff" stroke="#63b8ff" points="179.66,-407.88 186.34,-399.66 175.99,-401.92 179.66,-407.88"/>
</a>
</g>
</g>
<!-- Node38 -->
<g id="Node000038" class="node">
<title>Node38</title>
<g id="a_Node000038"><a xlink:href="structWDB_1_1Structures_1_1MapEntry.html#a7b7fb2890683604c03496dc34f9c638c" target="_top" xlink:title=" ">
<polygon fill="white" stroke="#666666" points="530,-354.5 381,-354.5 381,-324.5 530,-324.5 530,-354.5"/>
<text text-anchor="start" x="389" y="-342.5" font-family="Helvetica,sans-Serif" font-size="10.00">WDB::Structures::MapEntry</text>
<text text-anchor="middle" x="455.5" y="-331.5" font-family="Helvetica,sans-Serif" font-size="10.00">::isRaid</text>
</a>
</g>
</g>
<!-- Node1&#45;&gt;Node38 -->
<g id="edge43_Node000001_Node000038" class="edge">
<title>Node1&#45;&gt;Node38</title>
<g id="a_edge43_Node000001_Node000038"><a xlink:title=" ">
<path fill="none" stroke="#63b8ff" d="M69.08,-632.87C69.98,-591.83 79.5,-430.44 172,-360.5 202.24,-337.64 298.51,-334.69 370.32,-335.97"/>
<polygon fill="#63b8ff" stroke="#63b8ff" points="370.65,-339.48 380.72,-336.19 370.8,-332.48 370.65,-339.48"/>
</a>
</g>
</g>
<!-- Node39 -->
<g id="Node000039" class="node">
<title>Node39</title>
<g id="a_Node000039"><a xlink:href="classGroup.html#aac6016505e6b0fab5d9f23c9cc6cd8a0" target="_top" xlink:title=" ">
<polygon fill="white" stroke="#666666" points="306,-313 198,-313 198,-294 306,-294 306,-313"/>
<text text-anchor="middle" x="252" y="-301" font-family="Helvetica,sans-Serif" font-size="10.00">Group::isLFGGroup</text>
</a>
</g>
</g>
<!-- Node1&#45;&gt;Node39 -->
<g id="edge41_Node000001_Node000039" class="edge">
<title>Node1&#45;&gt;Node39</title>
<g id="a_edge41_Node000001_Node000039"><a xlink:title=" ">
<path fill="none" stroke="#63b8ff" d="M69.12,-632.91C70.16,-590.44 80.12,-417.47 172,-327.5 176.82,-322.78 182.53,-318.99 188.65,-315.94"/>
<polygon fill="#63b8ff" stroke="#63b8ff" points="190.04,-319.15 197.84,-311.98 187.27,-312.72 190.04,-319.15"/>
</a>
</g>
</g>
<!-- Node40 -->
<g id="Node000040" class="node">
<title>Node40</title>
<g id="a_Node000040"><a xlink:href="structMySQLStructure_1_1MapInfo.html#ae5fb61857cfca78ac9eb5f5bcadb6c40" target="_top" xlink:title=" ">
<polygon fill="white" stroke="#666666" points="322,-275.5 182,-275.5 182,-245.5 322,-245.5 322,-275.5"/>
<text text-anchor="start" x="190" y="-263.5" font-family="Helvetica,sans-Serif" font-size="10.00">MySQLStructure::MapInfo</text>
<text text-anchor="middle" x="252" y="-252.5" font-family="Helvetica,sans-Serif" font-size="10.00">::isMultimodeDungeon</text>
</a>
</g>
</g>
<!-- Node1&#45;&gt;Node40 -->
<g id="edge42_Node000001_Node000040" class="edge">
<title>Node1&#45;&gt;Node40</title>
<g id="a_edge42_Node000001_Node000040"><a xlink:title=" ">
<path fill="none" stroke="#63b8ff" d="M68.71,-632.94C67.89,-587.32 70.47,-389.67 172,-285.5 173.39,-284.07 174.87,-282.72 176.41,-281.45"/>
<polygon fill="#63b8ff" stroke="#63b8ff" points="178.43,-284.31 184.63,-275.72 174.43,-278.57 178.43,-284.31"/>
</a>
</g>
</g>
<!-- Node41 -->
<g id="Node000041" class="node">
<title>Node41</title>
<g id="a_Node000041"><a xlink:href="structMySQLStructure_1_1MapInfo.html#a095dd0dcbfb2d0b5b6d8a83b4705c9fc" target="_top" xlink:title=" ">
<polygon fill="white" stroke="#666666" points="322,-227.5 182,-227.5 182,-197.5 322,-197.5 322,-227.5"/>
<text text-anchor="start" x="190" y="-215.5" font-family="Helvetica,sans-Serif" font-size="10.00">MySQLStructure::MapInfo</text>
<text text-anchor="middle" x="252" y="-204.5" font-family="Helvetica,sans-Serif" font-size="10.00">::isWorldMap</text>
</a>
</g>
</g>
<!-- Node1&#45;&gt;Node41 -->
<g id="edge44_Node000001_Node000041" class="edge">
<title>Node1&#45;&gt;Node41</title>
<g id="a_edge44_Node000001_Node000041"><a xlink:title=" ">
<path fill="none" stroke="#63b8ff" d="M70.18,-632.66C77.13,-576.51 114.26,-296.99 172,-236.5 172.92,-235.54 173.87,-234.61 174.86,-233.73"/>
<polygon fill="#63b8ff" stroke="#63b8ff" points="177.12,-236.41 183.03,-227.62 172.93,-230.8 177.12,-236.41"/>
</a>
</g>
</g>
<!-- Node42 -->
<g id="Node000042" class="node">
<title>Node42</title>
<g id="a_Node000042"><a xlink:href="structWDB_1_1Structures_1_1MapEntry.html#aa8c96b0ee7d593fa0ae62ec1c1530673" target="_top" xlink:title=" ">
<polygon fill="white" stroke="#666666" points="326.5,-179.5 177.5,-179.5 177.5,-149.5 326.5,-149.5 326.5,-179.5"/>
<text text-anchor="start" x="185.5" y="-167.5" font-family="Helvetica,sans-Serif" font-size="10.00">WDB::Structures::MapEntry</text>
<text text-anchor="middle" x="252" y="-156.5" font-family="Helvetica,sans-Serif" font-size="10.00">::isWorldMap</text>
</a>
</g>
</g>
<!-- Node1&#45;&gt;Node42 -->
<g id="edge45_Node000001_Node000042" class="edge">
<title>Node1&#45;&gt;Node42</title>
<g id="a_edge45_Node000001_Node000042"><a xlink:title=" ">
<path fill="none" stroke="#63b8ff" d="M69.9,-632.7C75.57,-572.87 108.27,-256.98 172,-188.5 172.91,-187.53 173.85,-186.59 174.83,-185.69"/>
<polygon fill="#63b8ff" stroke="#63b8ff" points="177.1,-188.37 182.94,-179.52 172.86,-182.8 177.1,-188.37"/>
</a>
</g>
</g>
<!-- Node43 -->
<g id="Node000043" class="node">
<title>Node43</title>
<g id="a_Node000043"><a xlink:href="llex_8c.html#a3418da69613c587915ff780b0ec3744b" target="_top" xlink:title=" ">
<polygon fill="white" stroke="#666666" points="272,-131 232,-131 232,-112 272,-112 272,-131"/>
<text text-anchor="middle" x="252" y="-119" font-family="Helvetica,sans-Serif" font-size="10.00">save</text>
</a>
</g>
</g>
<!-- Node1&#45;&gt;Node43 -->
<g id="edge46_Node000001_Node000043" class="edge">
<title>Node1&#45;&gt;Node43</title>
<g id="a_edge46_Node000001_Node000043"><a xlink:title=" ">
<path fill="none" stroke="#63b8ff" d="M69.6,-632.88C73.73,-569.74 99.95,-215.01 172,-140.5 184.71,-127.36 204.8,-122.65 221.54,-121.21"/>
<polygon fill="#63b8ff" stroke="#63b8ff" points="222.14,-124.68 231.94,-120.68 221.78,-117.69 222.14,-124.68"/>
</a>
</g>
</g>
<!-- Node6 -->
<g id="Node000006" class="node">
<title>Node6</title>
<g id="a_Node000006"><a xlink:href="WDBStores_8cpp.html#a110ef459b3ff5f41ec172884a6bbfe71" target="_top" xlink:title=" ">
<polygon fill="white" stroke="#666666" points="916,-941 795,-941 795,-922 916,-922 916,-941"/>
<text text-anchor="middle" x="855.5" y="-929" font-family="Helvetica,sans-Serif" font-size="10.00">getMapDifficultyData</text>
</a>
</g>
</g>
<!-- Node5&#45;&gt;Node6 -->
<g id="edge5_Node000005_Node000006" class="edge">
<title>Node5&#45;&gt;Node6</title>
<g id="a_edge5_Node000005_Node000006"><a xlink:title=" ">
<path fill="none" stroke="#63b8ff" d="M759.01,-931.5C767.66,-931.5 776.34,-931.5 784.76,-931.5"/>
<polygon fill="#63b8ff" stroke="#63b8ff" points="784.88,-935 794.88,-931.5 784.88,-928 784.88,-935"/>
</a>
</g>
</g>
<!-- Node7 -->
<g id="Node000007" class="node">
<title>Node7</title>
<g id="a_Node000007"><a xlink:href="namespaceUtil.html#a733e217ee7a7af51c60dda08fbaf21da" target="_top" xlink:title=" ">
<polygon fill="white" stroke="#666666" points="1059,-941 952,-941 952,-922 1059,-922 1059,-941"/>
<text text-anchor="middle" x="1005.5" y="-929" font-family="Helvetica,sans-Serif" font-size="10.00">Util::MAKE_PAIR32</text>
</a>
</g>
</g>
<!-- Node6&#45;&gt;Node7 -->
<g id="edge6_Node000006_Node000007" class="edge">
<title>Node6&#45;&gt;Node7</title>
<g id="a_edge6_Node000006_Node000007"><a xlink:title=" ">
<path fill="none" stroke="#63b8ff" d="M916.27,-931.5C924.6,-931.5 933.17,-931.5 941.56,-931.5"/>
<polygon fill="#63b8ff" stroke="#63b8ff" points="941.66,-935 951.66,-931.5 941.66,-928 941.66,-935"/>
</a>
</g>
</g>
<!-- Node11&#45;&gt;Node4 -->
<g id="edge13_Node000011_Node000004" class="edge">
<title>Node11&#45;&gt;Node4</title>
<g id="a_edge13_Node000011_Node000004"><a xlink:title=" ">
<path fill="none" stroke="#63b8ff" d="M319.26,-1004.42C341.64,-1006.42 366.6,-1008.65 388.93,-1010.64"/>
<polygon fill="#63b8ff" stroke="#63b8ff" points="388.71,-1014.14 398.98,-1011.54 389.34,-1007.16 388.71,-1014.14"/>
</a>
</g>
</g>
<!-- Node11&#45;&gt;Node9 -->
<g id="edge14_Node000011_Node000009" class="edge">
<title>Node11&#45;&gt;Node9</title>
<g id="a_edge14_Node000011_Node000009"><a xlink:title=" ">
<path fill="none" stroke="#63b8ff" d="M304.15,-988.91C313.54,-986.57 323.16,-983.77 332,-980.5 348.96,-974.21 351.37,-968.62 368,-961.5 382.2,-955.42 398.13,-949.77 412.41,-945.09"/>
<polygon fill="#63b8ff" stroke="#63b8ff" points="413.54,-948.41 421.99,-942.02 411.4,-941.74 413.54,-948.41"/>
</a>
</g>
</g>
<!-- Node12 -->
<g id="Node000012" class="node">
<title>Node12</title>
<g id="a_Node000012"><a xlink:href="classPlayer.html#a872e359203ff8cc357fb4c71cf83533a" target="_top" xlink:title=" ">
<polygon fill="white" stroke="#666666" points="526,-989 385,-989 385,-970 526,-970 526,-989"/>
<text text-anchor="middle" x="455.5" y="-977" font-family="Helvetica,sans-Serif" font-size="10.00">Player::getBoundInstance</text>
</a>
</g>
</g>
<!-- Node11&#45;&gt;Node12 -->
<g id="edge11_Node000011_Node000012" class="edge">
<title>Node11&#45;&gt;Node12</title>
<g id="a_edge11_Node000011_Node000012"><a xlink:title=" ">
<path fill="none" stroke="#63b8ff" d="M319.26,-992.25C336.97,-990.58 356.3,-988.76 374.66,-987.03"/>
<polygon fill="#63b8ff" stroke="#63b8ff" points="375.11,-990.5 384.74,-986.08 374.46,-983.53 375.11,-990.5"/>
</a>
</g>
</g>
<!-- Node12&#45;&gt;Node5 -->
<g id="edge12_Node000012_Node000005" class="edge">
<title>Node12&#45;&gt;Node5</title>
<g id="a_edge12_Node000012_Node000005"><a xlink:title=" ">
<path fill="none" stroke="#63b8ff" d="M498.54,-969.96C532.34,-962.29 580,-951.47 616.17,-943.26"/>
<polygon fill="#63b8ff" stroke="#63b8ff" points="617.06,-946.65 626.04,-941.02 615.51,-939.82 617.06,-946.65"/>
</a>
</g>
</g>
<!-- Node14 -->
<g id="Node000014" class="node">
<title>Node14</title>
<g id="a_Node000014"><a xlink:href="classObject.html#ad4e6bfe8fd236724215bc3e671eee225" target="_top" xlink:title=" ">
<polygon fill="white" stroke="#666666" points="503,-856 408,-856 408,-837 503,-837 503,-856"/>
<text text-anchor="middle" x="455.5" y="-844" font-family="Helvetica,sans-Serif" font-size="10.00">Object::getEntry</text>
</a>
</g>
</g>
<!-- Node13&#45;&gt;Node14 -->
<g id="edge16_Node000013_Node000014" class="edge">
<title>Node13&#45;&gt;Node14</title>
<g id="a_edge16_Node000013_Node000014"><a xlink:title=" ">
<path fill="none" stroke="#63b8ff" d="M304.89,-819.03C333.37,-824.26 368.72,-830.75 397.9,-836.11"/>
<polygon fill="#63b8ff" stroke="#63b8ff" points="397.48,-839.59 407.95,-837.95 398.74,-832.7 397.48,-839.59"/>
</a>
</g>
</g>
<!-- Node16 -->
<g id="Node000016" class="node">
<title>Node16</title>
<g id="a_Node000016"><a xlink:href="classItemInterface.html#a0d90c8daf60d4d9f7463fff3e2a0073d" target="_top" xlink:title="Gets a item from Inventory.">
<polygon fill="white" stroke="#666666" points="543,-819 368,-819 368,-800 543,-800 543,-819"/>
<text text-anchor="middle" x="455.5" y="-807" font-family="Helvetica,sans-Serif" font-size="10.00">ItemInterface::GetInventoryItem</text>
</a>
</g>
</g>
<!-- Node13&#45;&gt;Node16 -->
<g id="edge18_Node000013_Node000016" class="edge">
<title>Node13&#45;&gt;Node16</title>
<g id="a_edge18_Node000013_Node000016"><a xlink:title=" ">
<path fill="none" stroke="#63b8ff" d="M330.62,-809.5C339.48,-809.5 348.59,-809.5 357.66,-809.5"/>
<polygon fill="#63b8ff" stroke="#63b8ff" points="357.87,-813 367.87,-809.5 357.87,-806 357.87,-813"/>
</a>
</g>
</g>
<!-- Node17 -->
<g id="Node000017" class="node">
<title>Node17</title>
<g id="a_Node000017"><a xlink:href="classItem.html#a59d1e4ccdae9b2b77493861fd8f8221e" target="_top" xlink:title=" ">
<polygon fill="white" stroke="#666666" points="522,-782 389,-782 389,-763 522,-763 522,-782"/>
<text text-anchor="middle" x="455.5" y="-770" font-family="Helvetica,sans-Serif" font-size="10.00">Item::getItemProperties</text>
</a>
</g>
</g>
<!-- Node13&#45;&gt;Node17 -->
<g id="edge19_Node000013_Node000017" class="edge">
<title>Node13&#45;&gt;Node17</title>
<g id="a_edge19_Node000013_Node000017"><a xlink:title=" ">
<path fill="none" stroke="#63b8ff" d="M304.89,-799.97C331.58,-795.07 364.31,-789.06 392.34,-783.91"/>
<polygon fill="#63b8ff" stroke="#63b8ff" points="393.23,-787.31 402.43,-782.06 391.97,-780.42 393.23,-787.31"/>
</a>
</g>
</g>
<!-- Node18 -->
<g id="Node000018" class="node">
<title>Node18</title>
<g id="a_Node000018"><a xlink:href="classItem.html#ab4f89eb7527aa74d0772257e8a92ba24" target="_top" xlink:title=" ">
<polygon fill="white" stroke="#666666" points="513.5,-745 397.5,-745 397.5,-726 513.5,-726 513.5,-745"/>
<text text-anchor="middle" x="455.5" y="-733" font-family="Helvetica,sans-Serif" font-size="10.00">Item::getStackCount</text>
</a>
</g>
</g>
<!-- Node13&#45;&gt;Node18 -->
<g id="edge20_Node000013_Node000018" class="edge">
<title>Node13&#45;&gt;Node18</title>
<g id="a_edge20_Node000013_Node000018"><a xlink:title=" ">
<path fill="none" stroke="#63b8ff" d="M312.22,-799.98C319.12,-797.73 325.87,-794.94 332,-791.5 352.01,-780.27 347.95,-765.65 368,-754.5 374.05,-751.14 380.64,-748.37 387.41,-746.09"/>
<polygon fill="#63b8ff" stroke="#63b8ff" points="388.82,-749.32 397.39,-743.09 386.81,-742.61 388.82,-749.32"/>
</a>
</g>
</g>
<!-- Node20 -->
<g id="Node000020" class="node">
<title>Node20</title>
<g id="a_Node000020"><a xlink:href="classObject.html#aa5589394a913f28d18a577af43e5a6f1" target="_top" xlink:title=" ">
<polygon fill="white" stroke="#666666" points="510.5,-708 400.5,-708 400.5,-689 510.5,-689 510.5,-708"/>
<text text-anchor="middle" x="455.5" y="-696" font-family="Helvetica,sans-Serif" font-size="10.00">Object::isContainer</text>
</a>
</g>
</g>
<!-- Node13&#45;&gt;Node20 -->
<g id="edge22_Node000013_Node000020" class="edge">
<title>Node13&#45;&gt;Node20</title>
<g id="a_edge22_Node000013_Node000020"><a xlink:title=" ">
<path fill="none" stroke="#63b8ff" d="M317.8,-799.98C322.88,-797.7 327.7,-794.91 332,-791.5 360.64,-768.76 339.27,-740.13 368,-717.5 374.68,-712.24 382.52,-708.36 390.7,-705.52"/>
<polygon fill="#63b8ff" stroke="#63b8ff" points="391.82,-708.83 400.41,-702.63 389.83,-702.12 391.82,-708.83"/>
</a>
</g>
</g>
<!-- Node15 -->
<g id="Node000015" class="node">
<title>Node15</title>
<g id="a_Node000015"><a xlink:href="classObject.html#ae9814731421ab3e919a2e5c3b86e0eeb" target="_top" xlink:title=" ">
<polygon fill="white" stroke="#666666" points="722.5,-856 615.5,-856 615.5,-837 722.5,-837 722.5,-856"/>
<text text-anchor="middle" x="669" y="-844" font-family="Helvetica,sans-Serif" font-size="10.00">Object::objectData</text>
</a>
</g>
</g>
<!-- Node14&#45;&gt;Node15 -->
<g id="edge17_Node000014_Node000015" class="edge">
<title>Node14&#45;&gt;Node15</title>
<g id="a_edge17_Node000014_Node000015"><a xlink:title=" ">
<path fill="none" stroke="#63b8ff" d="M503.18,-846.5C533.14,-846.5 572.43,-846.5 605.13,-846.5"/>
<polygon fill="#63b8ff" stroke="#63b8ff" points="605.49,-850 615.49,-846.5 605.49,-843 605.49,-850"/>
</a>
</g>
</g>
<!-- Node19 -->
<g id="Node000019" class="node">
<title>Node19</title>
<g id="a_Node000019"><a xlink:href="classItem.html#a4f6780aeb09b44fa79884b1402b7e1fe" target="_top" xlink:title=" ">
<polygon fill="white" stroke="#666666" points="714.5,-745 623.5,-745 623.5,-726 714.5,-726 714.5,-745"/>
<text text-anchor="middle" x="669" y="-733" font-family="Helvetica,sans-Serif" font-size="10.00">Item::itemData</text>
</a>
</g>
</g>
<!-- Node18&#45;&gt;Node19 -->
<g id="edge21_Node000018_Node000019" class="edge">
<title>Node18&#45;&gt;Node19</title>
<g id="a_edge21_Node000018_Node000019"><a xlink:title=" ">
<path fill="none" stroke="#63b8ff" d="M513.73,-735.5C544.73,-735.5 582.82,-735.5 613.4,-735.5"/>
<polygon fill="#63b8ff" stroke="#63b8ff" points="613.46,-739 623.46,-735.5 613.46,-732 613.46,-739"/>
</a>
</g>
</g>
<!-- Node21 -->
<g id="Node000021" class="node">
<title>Node21</title>
<g id="a_Node000021"><a xlink:href="classObject.html#aaee2ed63355af5e632aba82f859822b4" target="_top" xlink:title=" ">
<polygon fill="white" stroke="#666666" points="735.5,-708 602.5,-708 602.5,-689 735.5,-689 735.5,-708"/>
<text text-anchor="middle" x="669" y="-696" font-family="Helvetica,sans-Serif" font-size="10.00">Object::getObjectTypeId</text>
</a>
</g>
</g>
<!-- Node20&#45;&gt;Node21 -->
<g id="edge23_Node000020_Node000021" class="edge">
<title>Node20&#45;&gt;Node21</title>
<g id="a_edge23_Node000020_Node000021"><a xlink:title=" ">
<path fill="none" stroke="#63b8ff" d="M510.69,-698.5C535.44,-698.5 565.17,-698.5 592.09,-698.5"/>
<polygon fill="#63b8ff" stroke="#63b8ff" points="592.25,-702 602.25,-698.5 592.25,-695 592.25,-702"/>
</a>
</g>
</g>
<!-- Node24 -->
<g id="Node000024" class="node">
<title>Node24</title>
<g id="a_Node000024"><a xlink:href="classUnit.html#a2b80af47340ac01ca2031723f37e839a" target="_top" xlink:title=" ">
<polygon fill="white" stroke="#666666" points="498,-671 413,-671 413,-652 498,-652 498,-671"/>
<text text-anchor="middle" x="455.5" y="-659" font-family="Helvetica,sans-Serif" font-size="10.00">Unit::unitData</text>
</a>
</g>
</g>
<!-- Node23&#45;&gt;Node24 -->
<g id="edge26_Node000023_Node000024" class="edge">
<title>Node23&#45;&gt;Node24</title>
<g id="a_edge26_Node000023_Node000024"><a xlink:title=" ">
<path fill="none" stroke="#63b8ff" d="M294.83,-730.6C307.34,-727.94 320.72,-723.84 332,-717.5 352.01,-706.27 347.95,-691.65 368,-680.5 378.6,-674.6 390.89,-670.54 402.81,-667.73"/>
<polygon fill="#63b8ff" stroke="#63b8ff" points="403.62,-671.14 412.69,-665.66 402.19,-664.28 403.62,-671.14"/>
</a>
</g>
</g>
<!-- Node33 -->
<g id="Node000033" class="node">
<title>Node33</title>
<g id="a_Node000033"><a xlink:href="classPlayer.html#a7bd26f904e888677ae75ff2f53427918" target="_top" xlink:title=" ">
<polygon fill="white" stroke="#666666" points="519.5,-440 391.5,-440 391.5,-421 519.5,-421 519.5,-440"/>
<text text-anchor="middle" x="455.5" y="-428" font-family="Helvetica,sans-Serif" font-size="10.00">Player::hasPlayerFlags</text>
</a>
</g>
</g>
<!-- Node32&#45;&gt;Node33 -->
<g id="edge35_Node000032_Node000033" class="edge">
<title>Node32&#45;&gt;Node33</title>
<g id="a_edge35_Node000032_Node000033"><a xlink:title=" ">
<path fill="none" stroke="#63b8ff" d="M309.67,-428.34C331.77,-428.67 357.4,-429.05 380.9,-429.4"/>
<polygon fill="#63b8ff" stroke="#63b8ff" points="381.13,-432.91 391.18,-429.56 381.23,-425.91 381.13,-432.91"/>
</a>
</g>
</g>
<!-- Node34 -->
<g id="Node000034" class="node">
<title>Node34</title>
<g id="a_Node000034"><a xlink:href="classPlayer.html#aab460b27ee0bee6286ce2a23a3331144" target="_top" xlink:title=" ">
<polygon fill="white" stroke="#666666" points="732,-440 606,-440 606,-421 732,-421 732,-440"/>
<text text-anchor="middle" x="669" y="-428" font-family="Helvetica,sans-Serif" font-size="10.00">Player::getPlayerFlags</text>
</a>
</g>
</g>
<!-- Node33&#45;&gt;Node34 -->
<g id="edge36_Node000033_Node000034" class="edge">
<title>Node33&#45;&gt;Node34</title>
<g id="a_edge36_Node000033_Node000034"><a xlink:title=" ">
<path fill="none" stroke="#63b8ff" d="M519.67,-430.5C543.63,-430.5 571.1,-430.5 595.83,-430.5"/>
<polygon fill="#63b8ff" stroke="#63b8ff" points="595.88,-434 605.88,-430.5 595.88,-427 595.88,-434"/>
</a>
</g>
</g>
<!-- Node35 -->
<g id="Node000035" class="node">
<title>Node35</title>
<g id="a_Node000035"><a xlink:href="classPlayer.html#aabab9e13edac70ad3e839a451b3164d5" target="_top" xlink:title=" ">
<polygon fill="white" stroke="#666666" points="909,-440 802,-440 802,-421 909,-421 909,-440"/>
<text text-anchor="middle" x="855.5" y="-428" font-family="Helvetica,sans-Serif" font-size="10.00">Player::playerData</text>
</a>
</g>
</g>
<!-- Node34&#45;&gt;Node35 -->
<g id="edge37_Node000034_Node000035" class="edge">
<title>Node34&#45;&gt;Node35</title>
<g id="a_edge37_Node000034_Node000035"><a xlink:title=" ">
<path fill="none" stroke="#63b8ff" d="M732.21,-430.5C751.36,-430.5 772.45,-430.5 791.65,-430.5"/>
<polygon fill="#63b8ff" stroke="#63b8ff" points="791.8,-434 801.8,-430.5 791.8,-427 791.8,-434"/>
</a>
</g>
</g>
<!-- Node37 -->
<g id="Node000037" class="node">
<title>Node37</title>
<g id="a_Node000037"><a xlink:href="structWDB_1_1Structures_1_1MapEntry.html#ae4fb5d68f0dcdf43b741652e63df179c" target="_top" xlink:title=" ">
<polygon fill="white" stroke="#666666" points="530,-402.5 381,-402.5 381,-372.5 530,-372.5 530,-402.5"/>
<text text-anchor="start" x="389" y="-390.5" font-family="Helvetica,sans-Serif" font-size="10.00">WDB::Structures::MapEntry</text>
<text text-anchor="middle" x="455.5" y="-379.5" font-family="Helvetica,sans-Serif" font-size="10.00">::isDungeon</text>
</a>
</g>
</g>
<!-- Node36&#45;&gt;Node37 -->
<g id="edge39_Node000036_Node000037" class="edge">
<title>Node36&#45;&gt;Node37</title>
<g id="a_edge39_Node000036_Node000037"><a xlink:title=" ">
<path fill="none" stroke="#63b8ff" d="M326.6,-385.6C340.94,-385.81 356.08,-386.03 370.72,-386.25"/>
<polygon fill="#63b8ff" stroke="#63b8ff" points="370.71,-389.75 380.76,-386.4 370.81,-382.75 370.71,-389.75"/>
</a>
</g>
</g>
<!-- Node36&#45;&gt;Node38 -->
<g id="edge40_Node000036_Node000038" class="edge">
<title>Node36&#45;&gt;Node38</title>
<g id="a_edge40_Node000036_Node000038"><a xlink:title=" ">
<path fill="none" stroke="#63b8ff" d="M320.38,-369.45C338.61,-365.38 358.48,-360.94 377.22,-356.76"/>
<polygon fill="#63b8ff" stroke="#63b8ff" points="378.19,-360.13 387.19,-354.53 376.66,-353.3 378.19,-360.13"/>
</a>
</g>
</g>
<!-- Node44 -->
<g id="Node000044" class="node">
<title>Node44</title>
<g id="a_Node000044"><a xlink:href="llex_8c.html#a67bb1f3225ffe5738fef1c3d34879735" target="_top" xlink:title=" ">
<polygon fill="white" stroke="#666666" points="482.5,-112 428.5,-112 428.5,-93 482.5,-93 482.5,-112"/>
<text text-anchor="middle" x="455.5" y="-100" font-family="Helvetica,sans-Serif" font-size="10.00">lexerror</text>
</a>
</g>
</g>
<!-- Node43&#45;&gt;Node44 -->
<g id="edge47_Node000043_Node000044" class="edge">
<title>Node43&#45;&gt;Node44</title>
<g id="a_edge47_Node000043_Node000044"><a xlink:title=" ">
<path fill="none" stroke="#63b8ff" d="M272.32,-119.68C305.9,-116.51 375.52,-109.95 418.31,-105.91"/>
<polygon fill="#63b8ff" stroke="#63b8ff" points="418.68,-109.39 428.31,-104.97 418.03,-102.42 418.68,-109.39"/>
</a>
</g>
</g>
<!-- Node45 -->
<g id="Node000045" class="node">
<title>Node45</title>
<g id="a_Node000045"><a xlink:href="ldo_8c.html#a2b46d9db5b9ca3d5402a0c2ac640a6b0" target="_top" xlink:title=" ">
<polygon fill="white" stroke="#666666" points="705,-19 633,-19 633,0 705,0 705,-19"/>
<text text-anchor="middle" x="669" y="-7" font-family="Helvetica,sans-Serif" font-size="10.00">luaD_throw</text>
</a>
</g>
</g>
<!-- Node44&#45;&gt;Node45 -->
<g id="edge48_Node000044_Node000045" class="edge">
<title>Node44&#45;&gt;Node45</title>
<g id="a_edge48_Node000044_Node000045"><a xlink:title=" ">
<path fill="none" stroke="#63b8ff" d="M476.3,-92.9C500.41,-81.31 542.43,-61.39 579,-45.5 597.02,-37.67 617.31,-29.42 633.96,-22.79"/>
<polygon fill="#63b8ff" stroke="#63b8ff" points="635.29,-26.03 643.3,-19.1 632.72,-19.52 635.29,-26.03"/>
</a>
</g>
</g>
<!-- Node157 -->
<g id="Node000157" class="node">
<title>Node157</title>
<g id="a_Node000157"><a xlink:href="ldebug_8c.html#ab2f654440b1afd7315518c42e15c5c65" target="_top" xlink:title=" ">
<polygon fill="white" stroke="#666666" points="709.5,-74 628.5,-74 628.5,-55 709.5,-55 709.5,-74"/>
<text text-anchor="middle" x="669" y="-62" font-family="Helvetica,sans-Serif" font-size="10.00">luaG_addinfo</text>
</a>
</g>
</g>
<!-- Node44&#45;&gt;Node157 -->
<g id="edge51_Node000044_Node000157" class="edge">
<title>Node44&#45;&gt;Node157</title>
<g id="a_edge51_Node000044_Node000157"><a xlink:title=" ">
<path fill="none" stroke="#63b8ff" d="M482.86,-97.76C516.69,-91.69 576.07,-81.02 618.46,-73.4"/>
<polygon fill="#63b8ff" stroke="#63b8ff" points="619.08,-76.85 628.3,-71.63 617.84,-69.96 619.08,-76.85"/>
</a>
</g>
</g>
<!-- Node61 -->
<g id="Node000061" class="node">
<title>Node61</title>
<g id="a_Node000061"><a xlink:href="lobject_8c.html#a65ca3be2a1f862455baaedd6a2275238" target="_top" xlink:title=" ">
<polygon fill="#fff0f0" stroke="red" points="905,-112 806,-112 806,-93 905,-93 905,-112"/>
<text text-anchor="middle" x="855.5" y="-100" font-family="Helvetica,sans-Serif" font-size="10.00">luaO_pushfstring</text>
</a>
</g>
</g>
<!-- Node44&#45;&gt;Node61 -->
<g id="edge54_Node000044_Node000061" class="edge">
<title>Node44&#45;&gt;Node61</title>
<g id="a_edge54_Node000044_Node000061"><a xlink:title=" ">
<path fill="none" stroke="#63b8ff" d="M482.61,-102.5C545.74,-102.5 707.9,-102.5 795.78,-102.5"/>
<polygon fill="#63b8ff" stroke="#63b8ff" points="795.86,-106 805.86,-102.5 795.86,-99 795.86,-106"/>
</a>
</g>
</g>
<!-- Node523 -->
<g id="Node000523" class="node">
<title>Node523</title>
<g id="a_Node000523"><a xlink:href="llex_8c.html#adfca5a26da33d5e356bb37f702e8c809" target="_top" xlink:title=" ">
<polygon fill="#fff0f0" stroke="red" points="698,-150 640,-150 640,-131 698,-131 698,-150"/>
<text text-anchor="middle" x="669" y="-138" font-family="Helvetica,sans-Serif" font-size="10.00">txtToken</text>
</a>
</g>
</g>
<!-- Node44&#45;&gt;Node523 -->
<g id="edge55_Node000044_Node000523" class="edge">
<title>Node44&#45;&gt;Node523</title>
<g id="a_edge55_Node000044_Node000523"><a xlink:title=" ">
<path fill="none" stroke="#63b8ff" d="M482.86,-107.24C519.89,-113.89 587.53,-126.04 630,-133.67"/>
<polygon fill="#63b8ff" stroke="#63b8ff" points="629.5,-137.14 639.96,-135.46 630.74,-130.25 629.5,-137.14"/>
</a>
</g>
</g>
<!-- Node45&#45;&gt;Node45 -->
<g id="edge49_Node000045_Node000045" class="edge">
<title>Node45&#45;&gt;Node45</title>
<g id="a_edge49_Node000045_Node000045"><a xlink:title=" ">
<path fill="none" stroke="#63b8ff" d="M640.33,-19.08C626.39,-27.73 635.94,-37 669,-37 691.73,-37 703.35,-32.62 703.86,-27.07"/>
<polygon fill="#63b8ff" stroke="#63b8ff" points="706.56,-24.84 697.67,-19.08 701.03,-29.13 706.56,-24.84"/>
</a>
</g>
</g>
<!-- Node46 -->
<g id="Node000046" class="node">
<title>Node46</title>
<g id="a_Node000046"><a xlink:href="lstate_8c.html#a3363b8b529d3f7d76cb31aae2494bf7e" target="_top" xlink:title=" ">
<polygon fill="#fff0f0" stroke="red" points="905,-19 806,-19 806,0 905,0 905,-19"/>
<text text-anchor="middle" x="855.5" y="-7" font-family="Helvetica,sans-Serif" font-size="10.00">luaE_resetthread</text>
</a>
</g>
</g>
<!-- Node45&#45;&gt;Node46 -->
<g id="edge50_Node000045_Node000046" class="edge">
<title>Node45&#45;&gt;Node46</title>
<g id="a_edge50_Node000045_Node000046"><a xlink:title=" ">
<path fill="none" stroke="#63b8ff" d="M705.14,-9.5C730.67,-9.5 765.83,-9.5 795.62,-9.5"/>
<polygon fill="#63b8ff" stroke="#63b8ff" points="795.91,-13 805.91,-9.5 795.91,-6 795.91,-13"/>
</a>
</g>
</g>
<!-- Node158 -->
<g id="Node000158" class="node">
<title>Node158</title>
<g id="a_Node000158"><a xlink:href="lobject_8c.html#ac331b4119bbeb45a8a7e5a1afe553b2e" target="_top" xlink:title=" ">
<polygon fill="white" stroke="#666666" points="897,-74 814,-74 814,-55 897,-55 897,-74"/>
<text text-anchor="middle" x="855.5" y="-62" font-family="Helvetica,sans-Serif" font-size="10.00">luaO_chunkid</text>
</a>
</g>
</g>
<!-- Node157&#45;&gt;Node158 -->
<g id="edge52_Node000157_Node000158" class="edge">
<title>Node157&#45;&gt;Node158</title>
<g id="a_edge52_Node000157_Node000158"><a xlink:title=" ">
<path fill="none" stroke="#63b8ff" d="M709.58,-64.5C737.05,-64.5 773.88,-64.5 803.54,-64.5"/>
<polygon fill="#63b8ff" stroke="#63b8ff" points="803.71,-68 813.71,-64.5 803.71,-61 803.71,-68"/>
</a>
</g>
</g>
<!-- Node157&#45;&gt;Node61 -->
<g id="edge53_Node000157_Node000061" class="edge">
<title>Node157&#45;&gt;Node61</title>
<g id="a_edge53_Node000157_Node000061"><a xlink:title=" ">
<path fill="none" stroke="#63b8ff" d="M709.58,-72.65C735.44,-77.98 769.6,-85.01 798.26,-90.92"/>
<polygon fill="#63b8ff" stroke="#63b8ff" points="797.64,-94.36 808.14,-92.95 799.05,-87.51 797.64,-94.36"/>
</a>
</g>
</g>
<!-- Node523&#45;&gt;Node43 -->
<g id="edge57_Node000523_Node000043" class="edge">
<title>Node523&#45;&gt;Node43</title>
<g id="a_edge57_Node000523_Node000043"><a xlink:title=" ">
<path fill="none" stroke="#63b8ff" d="M639.9,-139.21C564.7,-135.77 359.4,-126.37 282.56,-122.85"/>
<polygon fill="#63b8ff" stroke="#63b8ff" points="282.33,-119.34 272.18,-122.38 282.01,-126.33 282.33,-119.34"/>
</a>
</g>
</g>
<!-- Node523&#45;&gt;Node61 -->
<g id="edge56_Node000523_Node000061" class="edge">
<title>Node523&#45;&gt;Node61</title>
<g id="a_edge56_Node000523_Node000061"><a xlink:title=" ">
<path fill="none" stroke="#63b8ff" d="M698.02,-134.73C724.51,-129.27 765.04,-120.93 798.21,-114.09"/>
<polygon fill="#63b8ff" stroke="#63b8ff" points="799.16,-117.47 808.24,-112.03 797.74,-110.62 799.16,-117.47"/>
</a>
</g>
</g>
</g>
</svg>
