<?xml version="1.0" encoding="UTF-8" standalone="no"?>
<!DOCTYPE svg PUBLIC "-//W3C//DTD SVG 1.1//EN"
 "http://www.w3.org/Graphics/SVG/1.1/DTD/svg11.dtd">
<!-- Generated by graphviz version 2.43.0 (0)
 -->
<!-- Title: Unit::setTriggerStunOrImmobilize Pages: 1 -->
<svg width="780pt" height="64pt"
 viewBox="0.00 0.00 780.00 64.00" xmlns="http://www.w3.org/2000/svg" xmlns:xlink="http://www.w3.org/1999/xlink">
<g id="graph0" class="graph" transform="scale(1 1) rotate(0) translate(4 60)">
<title>Unit::setTriggerStunOrImmobilize</title>
<!-- Node1 -->
<g id="Node000001" class="node">
<title>Node1</title>
<g id="a_Node000001"><a xlink:title=" ">
<polygon fill="#999999" stroke="#666666" points="772,-37 593,-37 593,-18 772,-18 772,-37"/>
<text text-anchor="middle" x="682.5" y="-25" font-family="Helvetica,sans-Serif" font-size="10.00">Unit::setTriggerStunOrImmobilize</text>
</a>
</g>
</g>
<!-- Node2 -->
<g id="Node000002" class="node">
<title>Node2</title>
<g id="a_Node000002"><a xlink:href="WarriorSpells_8cpp.html#ad5e9cf687af3240b0d00957054bbf1be" target="_top" xlink:title=" ">
<polygon fill="white" stroke="#666666" points="554,-56 477,-56 477,-37 554,-37 554,-56"/>
<text text-anchor="middle" x="515.5" y="-44" font-family="Helvetica,sans-Serif" font-size="10.00">SecondWind</text>
</a>
</g>
</g>
<!-- Node1&#45;&gt;Node2 -->
<g id="edge1_Node000001_Node000002" class="edge">
<title>Node1&#45;&gt;Node2</title>
<g id="a_edge1_Node000001_Node000002"><a xlink:title=" ">
<path fill="none" stroke="#63b8ff" d="M588.33,-38.23C576.25,-39.62 564.49,-40.97 554.1,-42.17"/>
<polygon fill="#63b8ff" stroke="#63b8ff" points="588.98,-41.68 598.52,-37.06 588.18,-34.72 588.98,-41.68"/>
</a>
</g>
</g>
<!-- Node6 -->
<g id="Node000006" class="node">
<title>Node6</title>
<g id="a_Node000006"><a xlink:href="WarriorSpells_8cpp.html#aa6f10e2fa35be93ed4c3ef9c3c888f07" target="_top" xlink:title=" ">
<polygon fill="white" stroke="#666666" points="557,-19 474,-19 474,0 557,0 557,-19"/>
<text text-anchor="middle" x="515.5" y="-7" font-family="Helvetica,sans-Serif" font-size="10.00">SecondWind2</text>
</a>
</g>
</g>
<!-- Node1&#45;&gt;Node6 -->
<g id="edge5_Node000001_Node000006" class="edge">
<title>Node1&#45;&gt;Node6</title>
<g id="a_edge5_Node000001_Node000006"><a xlink:title=" ">
<path fill="none" stroke="#63b8ff" d="M584,-16.86C574.7,-15.85 565.67,-14.86 557.39,-13.96"/>
<polygon fill="#63b8ff" stroke="#63b8ff" points="583.85,-20.37 594.17,-17.97 584.61,-13.41 583.85,-20.37"/>
</a>
</g>
</g>
<!-- Node3 -->
<g id="Node000003" class="node">
<title>Node3</title>
<g id="a_Node000003"><a xlink:href="WarriorSpells_8cpp.html#a0a423e62fc3d9680f2cb29636b53d59c" target="_top" xlink:title=" ">
<polygon fill="white" stroke="#666666" points="438,-37 295,-37 295,-18 438,-18 438,-37"/>
<text text-anchor="middle" x="366.5" y="-25" font-family="Helvetica,sans-Serif" font-size="10.00">SetupLegacyWarriorSpells</text>
</a>
</g>
</g>
<!-- Node2&#45;&gt;Node3 -->
<g id="edge2_Node000002_Node000003" class="edge">
<title>Node2&#45;&gt;Node3</title>
<g id="a_edge2_Node000002_Node000003"><a xlink:title=" ">
<path fill="none" stroke="#63b8ff" d="M466.62,-40.31C457.47,-39.13 447.73,-37.87 438.05,-36.62"/>
<polygon fill="#63b8ff" stroke="#63b8ff" points="466.28,-43.8 476.64,-41.61 467.18,-36.85 466.28,-43.8"/>
</a>
</g>
</g>
<!-- Node4 -->
<g id="Node000004" class="node">
<title>Node4</title>
<g id="a_Node000004"><a xlink:href="Warrior_8cpp.html#aeff6233b799e35cb3bbdb974a470f394" target="_top" xlink:title=" ">
<polygon fill="white" stroke="#666666" points="259,-37 151,-37 151,-18 259,-18 259,-37"/>
<text text-anchor="middle" x="205" y="-25" font-family="Helvetica,sans-Serif" font-size="10.00">setupWarriorSpells</text>
</a>
</g>
</g>
<!-- Node3&#45;&gt;Node4 -->
<g id="edge3_Node000003_Node000004" class="edge">
<title>Node3&#45;&gt;Node4</title>
<g id="a_edge3_Node000003_Node000004"><a xlink:title=" ">
<path fill="none" stroke="#63b8ff" d="M284.6,-27.5C276.07,-27.5 267.55,-27.5 259.44,-27.5"/>
<polygon fill="#63b8ff" stroke="#63b8ff" points="284.61,-31 294.61,-27.5 284.61,-24 284.61,-31"/>
</a>
</g>
</g>
<!-- Node5 -->
<g id="Node000005" class="node">
<title>Node5</title>
<g id="a_Node000005"><a xlink:href="SpellHandlers_2Setup_8cpp.html#a5910610107b38482d31bbf3ca3d88807" target="_top" xlink:title=" ">
<polygon fill="white" stroke="#666666" points="115,-37 0,-37 0,-18 115,-18 115,-37"/>
<text text-anchor="middle" x="57.5" y="-25" font-family="Helvetica,sans-Serif" font-size="10.00">_exp_script_register</text>
</a>
</g>
</g>
<!-- Node4&#45;&gt;Node5 -->
<g id="edge4_Node000004_Node000005" class="edge">
<title>Node4&#45;&gt;Node5</title>
<g id="a_edge4_Node000004_Node000005"><a xlink:title=" ">
<path fill="none" stroke="#63b8ff" d="M140.52,-27.5C132.12,-27.5 123.55,-27.5 115.27,-27.5"/>
<polygon fill="#63b8ff" stroke="#63b8ff" points="140.65,-31 150.65,-27.5 140.65,-24 140.65,-31"/>
</a>
</g>
</g>
<!-- Node6&#45;&gt;Node3 -->
<g id="edge6_Node000006_Node000003" class="edge">
<title>Node6&#45;&gt;Node3</title>
<g id="a_edge6_Node000006_Node000003"><a xlink:title=" ">
<path fill="none" stroke="#63b8ff" d="M464,-15.68C455.65,-16.71 446.85,-17.78 438.11,-18.85"/>
<polygon fill="#63b8ff" stroke="#63b8ff" points="464.44,-19.16 473.94,-14.47 463.59,-12.21 464.44,-19.16"/>
</a>
</g>
</g>
</g>
</svg>
