<?xml version="1.0" encoding="UTF-8" standalone="no"?>
<!DOCTYPE svg PUBLIC "-//W3C//DTD SVG 1.1//EN"
 "http://www.w3.org/Graphics/SVG/1.1/DTD/svg11.dtd">
<!-- Generated by graphviz version 2.43.0 (0)
 -->
<!-- Title: WorldSession::handleGuildFinderBrowse Pages: 1 -->
<!--zoomable 890 -->

<svg id="main" version="1.1" xmlns="http://www.w3.org/2000/svg" xmlns:xlink="http://www.w3.org/1999/xlink" xml:space="preserve" onload="init(evt)">
<style type="text/css"><![CDATA[
.node, .edge {opacity: 0.7;}
.node.selected, .edge.selected {opacity: 1;}
.edge:hover path { stroke: red; }
.edge:hover polygon { stroke: red; fill: red; }
]]></style>

<defs>
  <circle id="rim" cx="0" cy="0" r="7"/>
  <circle id="rim2" cx="0" cy="0" r="3.5"/>
  <g id="zoomPlus">
    <use xlink:href="#rim" fill="#404040"><set attributeName="fill" to="#808080" begin="zoomplus.mouseover" end="zoomplus.mouseout"/></use>
    <path d="M-4,0h8M0,-4v8" fill="none" stroke="white" stroke-width="1.5" pointer-events="none"/>
  </g>
  <g id="zoomMin">
    <use xlink:href="#rim" fill="#404040"><set attributeName="fill" to="#808080" begin="zoomminus.mouseover" end="zoomminus.mouseout"/></use>
    <path d="M-4,0h8" fill="none" stroke="white" stroke-width="1.5" pointer-events="none"/>
  </g>
  <g id="arrowUp" transform="translate(30 24)">
    <use xlink:href="#rim"/>
    <path pointer-events="none" fill="none" stroke="white" stroke-width="1.5" d="M0,-3.0v7 M-2.5,-0.5L0,-3.0L2.5,-0.5"/>
  </g>
  <g id="arrowRight" transform="rotate(90) translate(36 -43)">
    <use xlink:href="#rim"/>
    <path pointer-events="none" fill="none" stroke="white" stroke-width="1.5" d="M0,-3.0v7 M-2.5,-0.5L0,-3.0L2.5,-0.5"/>
  </g>
  <g id="arrowDown" transform="rotate(180) translate(-30 -48)">
    <use xlink:href="#rim"/>
    <path pointer-events="none" fill="none" stroke="white" stroke-width="1.5" d="M0,-3.0v7 M-2.5,-0.5L0,-3.0L2.5,-0.5"/>
  </g>
  <g id="arrowLeft" transform="rotate(270) translate(-36 17)">
    <use xlink:href="#rim"/>
    <path pointer-events="none" fill="none" stroke="white" stroke-width="1.5" d="M0,-3.0v7 M-2.5,-0.5L0,-3.0L2.5,-0.5"/>
  </g>
  <g id="resetDef">
    <use xlink:href="#rim2" fill="#404040"><set attributeName="fill" to="#808080" begin="reset.mouseover" end="reset.mouseout"/></use>
  </g>
</defs>
<script type="application/ecmascript">
var viewWidth = 876;
var viewHeight = 890;
var sectionId = 'dynsection-383';
</script>
<script type="application/ecmascript" xlink:href="svg.min.js"/>
<svg id="graph" class="graph">
<g id="viewport">
<title>WorldSession::handleGuildFinderBrowse</title>
<!-- Node1 -->
<g id="Node000001" class="node">
<title>Node1</title>
<g id="a_Node000001"><a xlink:title=" ">
<polygon fill="#999999" stroke="#666666" points="146,-449.5 0,-449.5 0,-419.5 146,-419.5 146,-449.5"/>
<text text-anchor="start" x="8" y="-437.5" font-family="Helvetica,sans-Serif" font-size="10.00">WorldSession::handleGuild</text>
<text text-anchor="middle" x="73" y="-426.5" font-family="Helvetica,sans-Serif" font-size="10.00">FinderBrowse</text>
</a>
</g>
</g>
<!-- Node2 -->
<g id="Node000002" class="node">
<title>Node2</title>
<g id="a_Node000002"><a xlink:href="classByteBuffer.html#a5811e6da355e8c3d0f45997a557a666b" target="_top" xlink:title=" ">
<polygon fill="white" stroke="#666666" points="317.5,-882 207.5,-882 207.5,-863 317.5,-863 317.5,-882"/>
<text text-anchor="middle" x="262.5" y="-870" font-family="Helvetica,sans-Serif" font-size="10.00">ByteBuffer::append</text>
</a>
</g>
</g>
<!-- Node1&#45;&gt;Node2 -->
<g id="edge1_Node000001_Node000002" class="edge">
<title>Node1&#45;&gt;Node2</title>
<g id="a_edge1_Node000001_Node000002"><a xlink:title=" ">
<path fill="none" stroke="#63b8ff" d="M75.81,-449.79C84.19,-518.25 121.52,-795.75 182,-854.5 186.6,-858.96 192.05,-862.41 197.92,-865.07"/>
<polygon fill="#63b8ff" stroke="#63b8ff" points="196.83,-868.39 207.42,-868.61 199.28,-861.83 196.83,-868.39"/>
</a>
</g>
</g>
<!-- Node3 -->
<g id="Node000003" class="node">
<title>Node3</title>
<g id="a_Node000003"><a xlink:href="classByteBuffer.html#a0d8a5fc4f9d6ee46c14ff3fae8b5cfc5" target="_top" xlink:title=" ">
<polygon fill="white" stroke="#666666" points="320.5,-845 204.5,-845 204.5,-826 320.5,-826 320.5,-845"/>
<text text-anchor="middle" x="262.5" y="-833" font-family="Helvetica,sans-Serif" font-size="10.00">ByteBuffer::flushBits</text>
</a>
</g>
</g>
<!-- Node1&#45;&gt;Node3 -->
<g id="edge2_Node000001_Node000003" class="edge">
<title>Node1&#45;&gt;Node3</title>
<g id="a_edge2_Node000001_Node000003"><a xlink:title=" ">
<path fill="none" stroke="#63b8ff" d="M76.2,-449.74C85.83,-514.33 126.25,-764.59 182,-817.5 185.82,-821.12 190.2,-824.07 194.91,-826.47"/>
<polygon fill="#63b8ff" stroke="#63b8ff" points="193.71,-829.76 204.29,-830.42 196.43,-823.31 193.71,-829.76"/>
</a>
</g>
</g>
<!-- Node4 -->
<g id="Node000004" class="node">
<title>Node4</title>
<g id="a_Node000004"><a xlink:href="structLFGuildPlayer.html#a5264b3126a08c6f1bfb41477d678cd5d" target="_top" xlink:title=" ">
<polygon fill="white" stroke="#666666" points="343,-808 182,-808 182,-789 343,-789 343,-808"/>
<text text-anchor="middle" x="262.5" y="-796" font-family="Helvetica,sans-Serif" font-size="10.00">LFGuildPlayer::getAvailability</text>
</a>
</g>
</g>
<!-- Node1&#45;&gt;Node4 -->
<g id="edge3_Node000001_Node000004" class="edge">
<title>Node1&#45;&gt;Node4</title>
<g id="a_edge3_Node000001_Node000004"><a xlink:title=" ">
<path fill="none" stroke="#63b8ff" d="M73.82,-449.61C74.07,-503.29 82.44,-686.57 182,-779.5 183.52,-780.92 185.12,-782.23 186.79,-783.46"/>
<polygon fill="#63b8ff" stroke="#63b8ff" points="185.32,-786.66 195.69,-788.83 188.94,-780.66 185.32,-786.66"/>
</a>
</g>
</g>
<!-- Node5 -->
<g id="Node000005" class="node">
<title>Node5</title>
<g id="a_Node000005"><a xlink:href="classEmblemInfo.html#aca939d0ab88fdcd49abf756ec5c894c0" target="_top" xlink:title=" ">
<polygon fill="white" stroke="#666666" points="340,-770.5 185,-770.5 185,-740.5 340,-740.5 340,-770.5"/>
<text text-anchor="start" x="193" y="-758.5" font-family="Helvetica,sans-Serif" font-size="10.00">EmblemInfo::getBackground</text>
<text text-anchor="middle" x="262.5" y="-747.5" font-family="Helvetica,sans-Serif" font-size="10.00">Color</text>
</a>
</g>
</g>
<!-- Node1&#45;&gt;Node5 -->
<g id="edge4_Node000001_Node000005" class="edge">
<title>Node1&#45;&gt;Node5</title>
<g id="a_edge4_Node000001_Node000005"><a xlink:title=" ">
<path fill="none" stroke="#63b8ff" d="M74.91,-449.68C78.63,-498.2 96.9,-651 182,-731.5 183.26,-732.69 184.58,-733.82 185.94,-734.9"/>
<polygon fill="#63b8ff" stroke="#63b8ff" points="183.99,-737.81 194.25,-740.48 187.9,-732 183.99,-737.81"/>
</a>
</g>
</g>
<!-- Node6 -->
<g id="Node000006" class="node">
<title>Node6</title>
<g id="a_Node000006"><a xlink:href="classEmblemInfo.html#aa8eceff265070ac55ea74e85f6580335" target="_top" xlink:title=" ">
<polygon fill="white" stroke="#666666" points="340,-722 185,-722 185,-703 340,-703 340,-722"/>
<text text-anchor="middle" x="262.5" y="-710" font-family="Helvetica,sans-Serif" font-size="10.00">EmblemInfo::getBorderColor</text>
</a>
</g>
</g>
<!-- Node1&#45;&gt;Node6 -->
<g id="edge5_Node000001_Node000006" class="edge">
<title>Node1&#45;&gt;Node6</title>
<g id="a_edge5_Node000001_Node000006"><a xlink:title=" ">
<path fill="none" stroke="#63b8ff" d="M75.53,-449.62C80.9,-494.52 103.11,-628.07 182,-694.5 183.38,-695.66 184.81,-696.75 186.3,-697.77"/>
<polygon fill="#63b8ff" stroke="#63b8ff" points="184.88,-700.99 195.3,-702.92 188.36,-694.92 184.88,-700.99"/>
</a>
</g>
</g>
<!-- Node7 -->
<g id="Node000007" class="node">
<title>Node7</title>
<g id="a_Node000007"><a xlink:href="classEmblemInfo.html#a28b4ca56d043ab288a1849ac42b13f6f" target="_top" xlink:title=" ">
<polygon fill="white" stroke="#666666" points="340,-685 185,-685 185,-666 340,-666 340,-685"/>
<text text-anchor="middle" x="262.5" y="-673" font-family="Helvetica,sans-Serif" font-size="10.00">EmblemInfo::getBorderStyle</text>
</a>
</g>
</g>
<!-- Node1&#45;&gt;Node7 -->
<g id="edge6_Node000001_Node000007" class="edge">
<title>Node1&#45;&gt;Node7</title>
<g id="a_edge6_Node000001_Node000007"><a xlink:title=" ">
<path fill="none" stroke="#63b8ff" d="M76.63,-449.5C84.56,-489.96 112.1,-601.99 182,-657.5 183.58,-658.75 185.23,-659.92 186.94,-661.02"/>
<polygon fill="#63b8ff" stroke="#63b8ff" points="185.43,-664.18 195.9,-665.85 188.76,-658.02 185.43,-664.18"/>
</a>
</g>
</g>
<!-- Node8 -->
<g id="Node000008" class="node">
<title>Node8</title>
<g id="a_Node000008"><a xlink:href="structLFGuildPlayer.html#a2d6a95aded9ace5c044e8fdf3e622128" target="_top" xlink:title=" ">
<polygon fill="white" stroke="#666666" points="342,-648 183,-648 183,-629 342,-629 342,-648"/>
<text text-anchor="middle" x="262.5" y="-636" font-family="Helvetica,sans-Serif" font-size="10.00">LFGuildPlayer::getClassRoles</text>
</a>
</g>
</g>
<!-- Node1&#45;&gt;Node8 -->
<g id="edge7_Node000001_Node000008" class="edge">
<title>Node1&#45;&gt;Node8</title>
<g id="a_edge7_Node000001_Node000008"><a xlink:title=" ">
<path fill="none" stroke="#63b8ff" d="M78.2,-449.61C88.96,-485.4 121.07,-575.73 182,-620.5 183.85,-621.86 185.79,-623.12 187.8,-624.29"/>
<polygon fill="#63b8ff" stroke="#63b8ff" points="186.45,-627.53 196.96,-628.84 189.56,-621.26 186.45,-627.53"/>
</a>
</g>
</g>
<!-- Node9 -->
<g id="Node000009" class="node">
<title>Node9</title>
<g id="a_Node000009"><a xlink:href="classEmblemInfo.html#ac13daccd3ec9f7221f97483b016e52b2" target="_top" xlink:title=" ">
<polygon fill="white" stroke="#666666" points="324,-611 201,-611 201,-592 324,-592 324,-611"/>
<text text-anchor="middle" x="262.5" y="-599" font-family="Helvetica,sans-Serif" font-size="10.00">EmblemInfo::getColor</text>
</a>
</g>
</g>
<!-- Node1&#45;&gt;Node9 -->
<g id="edge8_Node000001_Node000009" class="edge">
<title>Node1&#45;&gt;Node9</title>
<g id="a_edge8_Node000001_Node000009"><a xlink:title=" ">
<path fill="none" stroke="#63b8ff" d="M80.4,-449.54C94.19,-480 129.73,-549.02 182,-583.5 184.98,-585.47 188.15,-587.22 191.44,-588.79"/>
<polygon fill="#63b8ff" stroke="#63b8ff" points="190.4,-592.14 200.98,-592.72 193.06,-585.67 190.4,-592.14"/>
</a>
</g>
</g>
<!-- Node10 -->
<g id="Node000010" class="node">
<title>Node10</title>
<g id="a_Node000010"><a xlink:href="structLFGuildPlayer.html#a4bdfb23e928fedd67ab6cabcd9759a0c" target="_top" xlink:title=" ">
<polygon fill="white" stroke="#666666" points="339.5,-574 185.5,-574 185.5,-555 339.5,-555 339.5,-574"/>
<text text-anchor="middle" x="262.5" y="-562" font-family="Helvetica,sans-Serif" font-size="10.00">LFGuildPlayer::getComment</text>
</a>
</g>
</g>
<!-- Node1&#45;&gt;Node10 -->
<g id="edge9_Node000001_Node000010" class="edge">
<title>Node1&#45;&gt;Node10</title>
<g id="a_edge9_Node000001_Node000010"><a xlink:title=" ">
<path fill="none" stroke="#63b8ff" d="M83.99,-449.51C101.05,-473.89 138.23,-521.84 182,-546.5 185.21,-548.31 188.59,-549.94 192.07,-551.4"/>
<polygon fill="#63b8ff" stroke="#63b8ff" points="190.88,-554.69 201.47,-554.9 193.32,-548.13 190.88,-554.69"/>
</a>
</g>
</g>
<!-- Node11 -->
<g id="Node000011" class="node">
<title>Node11</title>
<g id="a_Node000011"><a xlink:href="classGuild.html#a4e58ce4215e2e26a077bf81888c12daa" target="_top" xlink:title=" ">
<polygon fill="white" stroke="#666666" points="324,-537 201,-537 201,-518 324,-518 324,-537"/>
<text text-anchor="middle" x="262.5" y="-525" font-family="Helvetica,sans-Serif" font-size="10.00">Guild::getEmblemInfo</text>
</a>
</g>
</g>
<!-- Node1&#45;&gt;Node11 -->
<g id="edge10_Node000001_Node000011" class="edge">
<title>Node1&#45;&gt;Node11</title>
<g id="a_edge10_Node000001_Node000011"><a xlink:title=" ">
<path fill="none" stroke="#63b8ff" d="M91.07,-449.51C111.36,-466.57 146.9,-494.04 182,-509.5 186.66,-511.55 191.57,-513.38 196.58,-515.01"/>
<polygon fill="#63b8ff" stroke="#63b8ff" points="195.71,-518.4 206.3,-517.91 197.71,-511.69 195.71,-518.4"/>
</a>
</g>
</g>
<!-- Node12 -->
<g id="Node000012" class="node">
<title>Node12</title>
<g id="a_Node000012"><a xlink:href="classGuild.html#acf18ef27db2aedf8edfce128a04740d6" target="_top" xlink:title=" ">
<polygon fill="white" stroke="#666666" points="307,-500 218,-500 218,-481 307,-481 307,-500"/>
<text text-anchor="middle" x="262.5" y="-488" font-family="Helvetica,sans-Serif" font-size="10.00">Guild::getGUID</text>
</a>
</g>
</g>
<!-- Node1&#45;&gt;Node12 -->
<g id="edge11_Node000001_Node000012" class="edge">
<title>Node1&#45;&gt;Node12</title>
<g id="a_edge11_Node000001_Node000012"><a xlink:title=" ">
<path fill="none" stroke="#63b8ff" d="M113.14,-449.5C133.5,-456.99 158.89,-465.84 182,-472.5 190.4,-474.92 199.37,-477.22 208.15,-479.32"/>
<polygon fill="#63b8ff" stroke="#63b8ff" points="207.41,-482.74 217.94,-481.59 209,-475.92 207.41,-482.74"/>
</a>
</g>
</g>
<!-- Node14 -->
<g id="Node000014" class="node">
<title>Node14</title>
<g id="a_Node000014"><a xlink:href="classObject.html#ad4bcb83b6b6f44f83f42dac01b12b339" target="_top" xlink:title=" ">
<polygon fill="white" stroke="#666666" points="318.5,-463 206.5,-463 206.5,-444 318.5,-444 318.5,-463"/>
<text text-anchor="middle" x="262.5" y="-451" font-family="Helvetica,sans-Serif" font-size="10.00">Object::getGuidLow</text>
</a>
</g>
</g>
<!-- Node1&#45;&gt;Node14 -->
<g id="edge13_Node000001_Node000014" class="edge">
<title>Node1&#45;&gt;Node14</title>
<g id="a_edge13_Node000001_Node000014"><a xlink:title=" ">
<path fill="none" stroke="#63b8ff" d="M146.22,-441.82C162.64,-443.48 179.99,-445.24 196.1,-446.87"/>
<polygon fill="#63b8ff" stroke="#63b8ff" points="196.19,-450.4 206.49,-447.93 196.9,-443.44 196.19,-450.4"/>
</a>
</g>
</g>
<!-- Node16 -->
<g id="Node000016" class="node">
<title>Node16</title>
<g id="a_Node000016"><a xlink:href="classGuild.html#a5cc12431ed7815ca49cf667ff56b1d7a" target="_top" xlink:title=" ">
<polygon fill="white" stroke="#666666" points="299,-426 226,-426 226,-407 299,-407 299,-426"/>
<text text-anchor="middle" x="262.5" y="-414" font-family="Helvetica,sans-Serif" font-size="10.00">Guild::getId</text>
</a>
</g>
</g>
<!-- Node1&#45;&gt;Node16 -->
<g id="edge15_Node000001_Node000016" class="edge">
<title>Node1&#45;&gt;Node16</title>
<g id="a_edge15_Node000001_Node000016"><a xlink:title=" ">
<path fill="none" stroke="#63b8ff" d="M146.22,-427.57C169.61,-425.32 194.89,-422.89 215.79,-420.89"/>
<polygon fill="#63b8ff" stroke="#63b8ff" points="216.37,-424.35 225.99,-419.91 215.7,-417.38 216.37,-424.35"/>
</a>
</g>
</g>
<!-- Node17 -->
<g id="Node000017" class="node">
<title>Node17</title>
<g id="a_Node000017"><a xlink:href="structLFGuildPlayer.html#a630e93e0dec92425371c78df736cf8a4" target="_top" xlink:title=" ">
<polygon fill="white" stroke="#666666" points="337,-389 188,-389 188,-370 337,-370 337,-389"/>
<text text-anchor="middle" x="262.5" y="-377" font-family="Helvetica,sans-Serif" font-size="10.00">LFGuildPlayer::getInterests</text>
</a>
</g>
</g>
<!-- Node1&#45;&gt;Node17 -->
<g id="edge16_Node000001_Node000017" class="edge">
<title>Node1&#45;&gt;Node17</title>
<g id="a_edge16_Node000001_Node000017"><a xlink:title=" ">
<path fill="none" stroke="#63b8ff" d="M116.31,-419.45C136.13,-412.64 160.14,-404.74 182,-398.5 190.53,-396.07 199.63,-393.69 208.51,-391.48"/>
<polygon fill="#63b8ff" stroke="#63b8ff" points="209.52,-394.84 218.41,-389.07 207.87,-388.04 209.52,-394.84"/>
</a>
</g>
</g>
<!-- Node18 -->
<g id="Node000018" class="node">
<title>Node18</title>
<g id="a_Node000018"><a xlink:href="classGuild.html#a817065b38bdcfd48a6bd84ebf84078bf" target="_top" xlink:title=" ">
<polygon fill="white" stroke="#666666" points="307.5,-352 217.5,-352 217.5,-333 307.5,-333 307.5,-352"/>
<text text-anchor="middle" x="262.5" y="-340" font-family="Helvetica,sans-Serif" font-size="10.00">Guild::getLevel</text>
</a>
</g>
</g>
<!-- Node1&#45;&gt;Node18 -->
<g id="edge17_Node000001_Node000018" class="edge">
<title>Node1&#45;&gt;Node18</title>
<g id="a_edge17_Node000001_Node000018"><a xlink:title=" ">
<path fill="none" stroke="#63b8ff" d="M91.91,-419.39C112.41,-402.83 147.61,-376.63 182,-361.5 190.02,-357.97 198.8,-355.04 207.5,-352.62"/>
<polygon fill="#63b8ff" stroke="#63b8ff" points="208.44,-355.99 217.25,-350.1 206.69,-349.21 208.44,-355.99"/>
</a>
</g>
</g>
<!-- Node19 -->
<g id="Node000019" class="node">
<title>Node19</title>
<g id="a_Node000019"><a xlink:href="classGuild.html#ada40ff616600b75a2142490703edafea" target="_top" xlink:title=" ">
<polygon fill="white" stroke="#666666" points="331.5,-315 193.5,-315 193.5,-296 331.5,-296 331.5,-315"/>
<text text-anchor="middle" x="262.5" y="-303" font-family="Helvetica,sans-Serif" font-size="10.00">Guild::getMembersCount</text>
</a>
</g>
</g>
<!-- Node1&#45;&gt;Node19 -->
<g id="edge18_Node000001_Node000019" class="edge">
<title>Node1&#45;&gt;Node19</title>
<g id="a_edge18_Node000001_Node000019"><a xlink:title=" ">
<path fill="none" stroke="#63b8ff" d="M84.37,-419.43C101.69,-395.46 138.9,-348.87 182,-324.5 186,-322.24 190.26,-320.25 194.65,-318.49"/>
<polygon fill="#63b8ff" stroke="#63b8ff" points="196.17,-321.66 204.41,-315.01 193.82,-315.07 196.17,-321.66"/>
</a>
</g>
</g>
<!-- Node20 -->
<g id="Node000020" class="node">
<title>Node20</title>
<g id="a_Node000020"><a xlink:href="classGuild.html#a028f88b4636869087af9ec8a75fc8779" target="_top" xlink:title=" ">
<polygon fill="white" stroke="#666666" points="309,-278 216,-278 216,-259 309,-259 309,-278"/>
<text text-anchor="middle" x="262.5" y="-266" font-family="Helvetica,sans-Serif" font-size="10.00">Guild::getName</text>
</a>
</g>
</g>
<!-- Node1&#45;&gt;Node20 -->
<g id="edge19_Node000001_Node000020" class="edge">
<title>Node1&#45;&gt;Node20</title>
<g id="a_edge19_Node000001_Node000020"><a xlink:title=" ">
<path fill="none" stroke="#63b8ff" d="M80.71,-419.25C94.82,-389.06 130.55,-321.65 182,-287.5 189.3,-282.65 197.71,-279.04 206.26,-276.35"/>
<polygon fill="#63b8ff" stroke="#63b8ff" points="207.22,-279.71 215.93,-273.68 205.36,-272.97 207.22,-279.71"/>
</a>
</g>
</g>
<!-- Node21 -->
<g id="Node000021" class="node">
<title>Node21</title>
<g id="a_Node000021"><a xlink:href="classEmblemInfo.html#aa3fbe4b5d3672fc488ea044f4beca72c" target="_top" xlink:title=" ">
<polygon fill="white" stroke="#666666" points="323.5,-241 201.5,-241 201.5,-222 323.5,-222 323.5,-241"/>
<text text-anchor="middle" x="262.5" y="-229" font-family="Helvetica,sans-Serif" font-size="10.00">EmblemInfo::getStyle</text>
</a>
</g>
</g>
<!-- Node1&#45;&gt;Node21 -->
<g id="edge20_Node000001_Node000021" class="edge">
<title>Node1&#45;&gt;Node21</title>
<g id="a_edge20_Node000001_Node000021"><a xlink:title=" ">
<path fill="none" stroke="#63b8ff" d="M78.36,-419.34C89.39,-383.84 121.87,-295.02 182,-250.5 185.18,-248.14 188.61,-246.08 192.2,-244.26"/>
<polygon fill="#63b8ff" stroke="#63b8ff" points="193.63,-247.46 201.4,-240.25 190.83,-241.04 193.63,-247.46"/>
</a>
</g>
</g>
<!-- Node22 -->
<g id="Node000022" class="node">
<title>Node22</title>
<g id="a_Node000022"><a xlink:href="classPlayer.html#a5648707ed12c03a2419add4f8c882102" target="_top" xlink:title=" ">
<polygon fill="white" stroke="#666666" points="310,-204 215,-204 215,-185 310,-185 310,-204"/>
<text text-anchor="middle" x="262.5" y="-192" font-family="Helvetica,sans-Serif" font-size="10.00">Player::getTeam</text>
</a>
</g>
</g>
<!-- Node1&#45;&gt;Node22 -->
<g id="edge21_Node000001_Node000022" class="edge">
<title>Node1&#45;&gt;Node22</title>
<g id="a_edge21_Node000001_Node000022"><a xlink:title=" ">
<path fill="none" stroke="#63b8ff" d="M76.77,-419.38C84.98,-379.15 113.01,-268.77 182,-213.5 188.69,-208.14 196.64,-204.26 204.89,-201.44"/>
<polygon fill="#63b8ff" stroke="#63b8ff" points="206.03,-204.76 214.66,-198.61 204.08,-198.04 206.03,-204.76"/>
</a>
</g>
</g>
<!-- Node23 -->
<g id="Node000023" class="node">
<title>Node23</title>
<g id="a_Node000023"><a xlink:href="classPlayer.html#a0d728a8a0181a9524d648ac2701cf2c6" target="_top" xlink:title=" ">
<polygon fill="white" stroke="#666666" points="316.5,-167 208.5,-167 208.5,-148 316.5,-148 316.5,-167"/>
<text text-anchor="middle" x="262.5" y="-155" font-family="Helvetica,sans-Serif" font-size="10.00">Player::sendPacket</text>
</a>
</g>
</g>
<!-- Node1&#45;&gt;Node23 -->
<g id="edge22_Node000001_Node000023" class="edge">
<title>Node1&#45;&gt;Node23</title>
<g id="a_edge22_Node000001_Node000023"><a xlink:title=" ">
<path fill="none" stroke="#63b8ff" d="M75.64,-419.22C81.29,-374.47 104.12,-242.7 182,-176.5 186.9,-172.34 192.55,-169.05 198.53,-166.47"/>
<polygon fill="#63b8ff" stroke="#63b8ff" points="199.96,-169.67 208.16,-162.95 197.56,-163.1 199.96,-169.67"/>
</a>
</g>
</g>
<!-- Node30 -->
<g id="Node000030" class="node">
<title>Node30</title>
<g id="a_Node000030"><a xlink:href="classByteBuffer.html#a733a0eb5380bf8c1d2dcc8427cd207af" target="_top" xlink:title=" ">
<polygon fill="white" stroke="#666666" points="319,-130 206,-130 206,-111 319,-111 319,-130"/>
<text text-anchor="middle" x="262.5" y="-118" font-family="Helvetica,sans-Serif" font-size="10.00">ByteBuffer::writeBit</text>
</a>
</g>
</g>
<!-- Node1&#45;&gt;Node30 -->
<g id="edge30_Node000001_Node000030" class="edge">
<title>Node1&#45;&gt;Node30</title>
<g id="a_edge30_Node000001_Node000030"><a xlink:title=" ">
<path fill="none" stroke="#63b8ff" d="M74.67,-419.46C77.7,-370.72 94.13,-215.85 182,-138.5 186.25,-134.76 191.11,-131.75 196.29,-129.33"/>
<polygon fill="#63b8ff" stroke="#63b8ff" points="197.85,-132.48 205.89,-125.59 195.31,-125.96 197.85,-132.48"/>
</a>
</g>
</g>
<!-- Node31 -->
<g id="Node000031" class="node">
<title>Node31</title>
<g id="a_Node000031"><a xlink:href="classByteBuffer.html#a1d490bab3bd96c7da0d16cf61daac9b4" target="_top" xlink:title=" ">
<polygon fill="white" stroke="#666666" points="321.5,-93 203.5,-93 203.5,-74 321.5,-74 321.5,-93"/>
<text text-anchor="middle" x="262.5" y="-81" font-family="Helvetica,sans-Serif" font-size="10.00">ByteBuffer::writeBits</text>
</a>
</g>
</g>
<!-- Node1&#45;&gt;Node31 -->
<g id="edge31_Node000001_Node000031" class="edge">
<title>Node1&#45;&gt;Node31</title>
<g id="a_edge31_Node000001_Node000031"><a xlink:title=" ">
<path fill="none" stroke="#63b8ff" d="M73.98,-419.5C74.77,-367.04 84.82,-190.22 182,-101.5 185.6,-98.21 189.67,-95.49 194.02,-93.23"/>
<polygon fill="#63b8ff" stroke="#63b8ff" points="195.49,-96.4 203.27,-89.22 192.7,-89.98 195.49,-96.4"/>
</a>
</g>
</g>
<!-- Node32 -->
<g id="Node000032" class="node">
<title>Node32</title>
<g id="a_Node000032"><a xlink:href="classByteBuffer.html#a69f930038e7f5def8eb567bc0d738380" target="_top" xlink:title=" ">
<polygon fill="white" stroke="#666666" points="333,-56 192,-56 192,-37 333,-37 333,-56"/>
<text text-anchor="middle" x="262.5" y="-44" font-family="Helvetica,sans-Serif" font-size="10.00">ByteBuffer::WriteByteSeq</text>
</a>
</g>
</g>
<!-- Node1&#45;&gt;Node32 -->
<g id="edge32_Node000001_Node000032" class="edge">
<title>Node1&#45;&gt;Node32</title>
<g id="a_edge32_Node000001_Node000032"><a xlink:title=" ">
<path fill="none" stroke="#63b8ff" d="M73.42,-419.46C72.12,-363.39 75.49,-164.67 182,-64.5 182.99,-63.57 184.01,-62.69 185.06,-61.85"/>
<polygon fill="#63b8ff" stroke="#63b8ff" points="187.27,-64.59 193.74,-56.2 183.45,-58.72 187.27,-64.59"/>
</a>
</g>
</g>
<!-- Node33 -->
<g id="Node000033" class="node">
<title>Node33</title>
<g id="a_Node000033"><a xlink:href="classByteBuffer.html#a27325101d6fa4104fcde32b2ba39dd10" target="_top" xlink:title=" ">
<polygon fill="white" stroke="#666666" points="327,-19 198,-19 198,0 327,0 327,-19"/>
<text text-anchor="middle" x="262.5" y="-7" font-family="Helvetica,sans-Serif" font-size="10.00">ByteBuffer::WriteString</text>
</a>
</g>
</g>
<!-- Node1&#45;&gt;Node33 -->
<g id="edge33_Node000001_Node000033" class="edge">
<title>Node1&#45;&gt;Node33</title>
<g id="a_edge33_Node000001_Node000033"><a xlink:title=" ">
<path fill="none" stroke="#63b8ff" d="M75.94,-419.23C84.75,-352.12 123.18,-84.2 182,-27.5 184.15,-25.43 186.48,-23.58 188.96,-21.92"/>
<polygon fill="#63b8ff" stroke="#63b8ff" points="190.78,-24.91 197.85,-17.02 187.4,-18.78 190.78,-24.91"/>
</a>
</g>
</g>
<!-- Node13 -->
<g id="Node000013" class="node">
<title>Node13</title>
<g id="a_Node000013"><a xlink:href="classWoWGuid.html#ae2ebb34eec8642eff1eb0ea3970acd5c" target="_top" xlink:title=" ">
<polygon fill="white" stroke="#666666" points="515,-500 386,-500 386,-481 515,-481 515,-500"/>
<text text-anchor="middle" x="450.5" y="-488" font-family="Helvetica,sans-Serif" font-size="10.00">WoWGuid::getRawGuid</text>
</a>
</g>
</g>
<!-- Node12&#45;&gt;Node13 -->
<g id="edge12_Node000012_Node000013" class="edge">
<title>Node12&#45;&gt;Node13</title>
<g id="a_edge12_Node000012_Node000013"><a xlink:title=" ">
<path fill="none" stroke="#63b8ff" d="M307.11,-490.5C327.5,-490.5 352.35,-490.5 375.55,-490.5"/>
<polygon fill="#63b8ff" stroke="#63b8ff" points="375.72,-494 385.72,-490.5 375.72,-487 375.72,-494"/>
</a>
</g>
</g>
<!-- Node15 -->
<g id="Node000015" class="node">
<title>Node15</title>
<g id="a_Node000015"><a xlink:href="classObject.html#ae9814731421ab3e919a2e5c3b86e0eeb" target="_top" xlink:title=" ">
<polygon fill="white" stroke="#666666" points="504,-463 397,-463 397,-444 504,-444 504,-463"/>
<text text-anchor="middle" x="450.5" y="-451" font-family="Helvetica,sans-Serif" font-size="10.00">Object::objectData</text>
</a>
</g>
</g>
<!-- Node14&#45;&gt;Node15 -->
<g id="edge14_Node000014_Node000015" class="edge">
<title>Node14&#45;&gt;Node15</title>
<g id="a_edge14_Node000014_Node000015"><a xlink:title=" ">
<path fill="none" stroke="#63b8ff" d="M318.55,-453.5C339.91,-453.5 364.5,-453.5 386.56,-453.5"/>
<polygon fill="#63b8ff" stroke="#63b8ff" points="386.83,-457 396.83,-453.5 386.83,-450 386.83,-457"/>
</a>
</g>
</g>
<!-- Node24 -->
<g id="Node000024" class="node">
<title>Node24</title>
<g id="a_Node000024"><a xlink:href="classWorldSession.html#a87a1bd80483f57f33a127d12c51d2331" target="_top" xlink:title=" ">
<polygon fill="white" stroke="#666666" points="522,-167 379,-167 379,-148 522,-148 522,-167"/>
<text text-anchor="middle" x="450.5" y="-155" font-family="Helvetica,sans-Serif" font-size="10.00">WorldSession::SendPacket</text>
</a>
</g>
</g>
<!-- Node23&#45;&gt;Node24 -->
<g id="edge23_Node000023_Node000024" class="edge">
<title>Node23&#45;&gt;Node24</title>
<g id="a_edge23_Node000023_Node000024"><a xlink:title=" ">
<path fill="none" stroke="#63b8ff" d="M316.8,-157.5C332.95,-157.5 351.07,-157.5 368.61,-157.5"/>
<polygon fill="#63b8ff" stroke="#63b8ff" points="368.85,-161 378.85,-157.5 368.85,-154 368.85,-161"/>
</a>
</g>
</g>
<!-- Node25 -->
<g id="Node000025" class="node">
<title>Node25</title>
<g id="a_Node000025"><a xlink:href="classWorldPacket.html#a3f359b4afd93497038c4f17e1ebd4380" target="_top" xlink:title=" ">
<polygon fill="white" stroke="#666666" points="868,-195 732,-195 732,-176 868,-176 868,-195"/>
<text text-anchor="middle" x="800" y="-183" font-family="Helvetica,sans-Serif" font-size="10.00">WorldPacket::GetOpcode</text>
</a>
</g>
</g>
<!-- Node24&#45;&gt;Node25 -->
<g id="edge24_Node000024_Node000025" class="edge">
<title>Node24&#45;&gt;Node25</title>
<g id="a_edge24_Node000024_Node000025"><a xlink:title=" ">
<path fill="none" stroke="#63b8ff" d="M496.91,-167.04C515.73,-170.62 537.83,-174.34 558,-176.5 612.49,-182.35 674.27,-184.57 721.63,-185.34"/>
<polygon fill="#63b8ff" stroke="#63b8ff" points="721.76,-188.85 731.81,-185.49 721.87,-181.85 721.76,-188.85"/>
</a>
</g>
</g>
<!-- Node26 -->
<g id="Node000026" class="node">
<title>Node26</title>
<g id="a_Node000026"><a xlink:href="classSocket.html#ae3bcf72d932e7b29656d368e81186e6a" target="_top" xlink:title=" ">
<polygon fill="white" stroke="#666666" points="684.5,-167 569.5,-167 569.5,-148 684.5,-148 684.5,-167"/>
<text text-anchor="middle" x="627" y="-155" font-family="Helvetica,sans-Serif" font-size="10.00">Socket::IsConnected</text>
</a>
</g>
</g>
<!-- Node24&#45;&gt;Node26 -->
<g id="edge25_Node000024_Node000026" class="edge">
<title>Node24&#45;&gt;Node26</title>
<g id="a_edge25_Node000024_Node000026"><a xlink:title=" ">
<path fill="none" stroke="#63b8ff" d="M522.22,-157.5C534.48,-157.5 547.18,-157.5 559.32,-157.5"/>
<polygon fill="#63b8ff" stroke="#63b8ff" points="559.36,-161 569.36,-157.5 559.36,-154 559.36,-161"/>
</a>
</g>
</g>
<!-- Node27 -->
<g id="Node000027" class="node">
<title>Node27</title>
<g id="a_Node000027"><a xlink:href="classWorldSocket.html#ab2fb0afb0aaf5d2229fea66a9923637e" target="_top" xlink:title=" ">
<polygon fill="white" stroke="#666666" points="696,-130 558,-130 558,-111 696,-111 696,-130"/>
<text text-anchor="middle" x="627" y="-118" font-family="Helvetica,sans-Serif" font-size="10.00">WorldSocket::SendPacket</text>
</a>
</g>
</g>
<!-- Node24&#45;&gt;Node27 -->
<g id="edge26_Node000024_Node000027" class="edge">
<title>Node24&#45;&gt;Node27</title>
<g id="a_edge26_Node000024_Node000027"><a xlink:title=" ">
<path fill="none" stroke="#63b8ff" d="M496.44,-147.97C519.15,-143.16 546.9,-137.27 570.89,-132.19"/>
<polygon fill="#63b8ff" stroke="#63b8ff" points="571.85,-135.56 580.91,-130.06 570.4,-128.71 571.85,-135.56"/>
</a>
</g>
</g>
<!-- Node27&#45;&gt;Node25 -->
<g id="edge28_Node000027_Node000025" class="edge">
<title>Node27&#45;&gt;Node25</title>
<g id="a_edge28_Node000027_Node000025"><a xlink:title=" ">
<path fill="none" stroke="#63b8ff" d="M670.19,-130.07C678.85,-132.48 687.81,-135.3 696,-138.5 712.85,-145.08 715.64,-149.78 732,-157.5 742.65,-162.52 754.45,-167.61 765.14,-172.04"/>
<polygon fill="#63b8ff" stroke="#63b8ff" points="764,-175.36 774.58,-175.91 766.65,-168.88 764,-175.36"/>
</a>
</g>
</g>
<!-- Node28 -->
<g id="Node000028" class="node">
<title>Node28</title>
<g id="a_Node000028"><a xlink:href="classByteBuffer.html#a8d712af2767c7ca45de60bd9d85738d8" target="_top" xlink:title=" ">
<polygon fill="white" stroke="#666666" points="858,-149 742,-149 742,-130 858,-130 858,-149"/>
<text text-anchor="middle" x="800" y="-137" font-family="Helvetica,sans-Serif" font-size="10.00">ByteBuffer::contents</text>
</a>
</g>
</g>
<!-- Node27&#45;&gt;Node28 -->
<g id="edge27_Node000027_Node000028" class="edge">
<title>Node27&#45;&gt;Node28</title>
<g id="a_edge27_Node000027_Node000028"><a xlink:title=" ">
<path fill="none" stroke="#63b8ff" d="M696.08,-128.06C707.82,-129.37 720.02,-130.72 731.74,-132.03"/>
<polygon fill="#63b8ff" stroke="#63b8ff" points="731.56,-135.53 741.89,-133.15 732.34,-128.57 731.56,-135.53"/>
</a>
</g>
</g>
<!-- Node29 -->
<g id="Node000029" class="node">
<title>Node29</title>
<g id="a_Node000029"><a xlink:href="classByteBuffer.html#ac06a598447807d32f6594a97a32bce94" target="_top" xlink:title=" ">
<polygon fill="white" stroke="#666666" points="847,-112 753,-112 753,-93 847,-93 847,-112"/>
<text text-anchor="middle" x="800" y="-100" font-family="Helvetica,sans-Serif" font-size="10.00">ByteBuffer::size</text>
</a>
</g>
</g>
<!-- Node27&#45;&gt;Node29 -->
<g id="edge29_Node000027_Node000029" class="edge">
<title>Node27&#45;&gt;Node29</title>
<g id="a_edge29_Node000027_Node000029"><a xlink:title=" ">
<path fill="none" stroke="#63b8ff" d="M696.08,-113.33C711.59,-111.7 727.9,-109.98 742.85,-108.41"/>
<polygon fill="#63b8ff" stroke="#63b8ff" points="743.38,-111.87 752.96,-107.35 742.64,-104.91 743.38,-111.87"/>
</a>
</g>
</g>
</g>
</svg>

<g id="navigator" transform="translate(0 0)" fill="#404254">
  <rect fill="#f2f5e9" fill-opacity="0.5" stroke="#606060" stroke-width=".5" x="0" y="0" width="60" height="60"/>
  <use id="zoomplus" xlink:href="#zoomPlus" x="17" y="9" onmousedown="handleZoom(evt,'in')"/>
  <use id="zoomminus" xlink:href="#zoomMin" x="42" y="9" onmousedown="handleZoom(evt,'out')"/>
  <use id="reset" xlink:href="#resetDef" x="30" y="36" onmousedown="handleReset()"/>
   <use id="arrowup" xlink:href="#arrowUp" x="0" y="0" onmousedown="handlePan(0,-1)"/>
  <use id="arrowright" xlink:href="#arrowRight" x="0" y="0" onmousedown="handlePan(1,0)"/>
  <use id="arrowdown" xlink:href="#arrowDown" x="0" y="0" onmousedown="handlePan(0,1)"/>
  <use id="arrowleft" xlink:href="#arrowLeft" x="0" y="0" onmousedown="handlePan(-1,0)"/>
</g>
<svg viewBox="0 0 15 15" width="100%" height="30px" preserveAspectRatio="xMaxYMin meet">
 <g id="arrow_out" transform="scale(0.3 0.3)">
  <a xlink:href="classWorldSession_a7e74dc082d7553725b45e8478968c5b1_cgraph_org.svg" target="_base">
   <rect id="button" ry="5" rx="5" y="6" x="6" height="38" width="38"
        fill="#f2f5e9" fill-opacity="0.5" stroke="#606060" stroke-width="1.0"/>
   <path id="arrow"
     d="M 11.500037,31.436501 C 11.940474,20.09759 22.043105,11.32322 32.158766,21.979434 L 37.068811,17.246167 C 37.068811,17.246167 37.088388,32 37.088388,32 L 22.160133,31.978069 C 22.160133,31.978069 26.997745,27.140456 26.997745,27.140456 C 18.528582,18.264221 13.291696,25.230495 11.500037,31.436501 z"
     style="fill:#404040;"/>
  </a>
 </g>
</svg>

<style type='text/css'>
<![CDATA[
[data-mouse-over-selected='false'] { opacity: 0.7; }
[data-mouse-over-selected='true']  { opacity: 1.0; }
]]>
</style>
<script type="application/ecmascript"><![CDATA[
document.addEventListener('DOMContentLoaded', (event) => {
  highlightEdges();
  highlightAdjacentNodes();
});
]]></script>
</svg>
