<?xml version="1.0" encoding="UTF-8" standalone="no"?>
<!DOCTYPE svg PUBLIC "-//W3C//DTD SVG 1.1//EN"
 "http://www.w3.org/Graphics/SVG/1.1/DTD/svg11.dtd">
<!-- Generated by graphviz version 2.43.0 (0)
 -->
<!-- Title: WorldMap::initialize Pages: 1 -->
<svg width="677pt" height="1653pt"
 viewBox="0.00 0.00 677.00 1652.50" xmlns="http://www.w3.org/2000/svg" xmlns:xlink="http://www.w3.org/1999/xlink">
<g id="graph0" class="graph" transform="scale(1 1) rotate(0) translate(4 1648.5)">
<title>WorldMap::initialize</title>
<!-- Node1 -->
<g id="Node000001" class="node">
<title>Node1</title>
<g id="a_Node000001"><a xlink:title=" ">
<polygon fill="#999999" stroke="#666666" points="113,-1447.5 0,-1447.5 0,-1428.5 113,-1428.5 113,-1447.5"/>
<text text-anchor="middle" x="56.5" y="-1435.5" font-family="Helvetica,sans-Serif" font-size="10.00">WorldMap::initialize</text>
</a>
</g>
</g>
<!-- Node2 -->
<g id="Node000002" class="node">
<title>Node2</title>
<g id="a_Node000002"><a xlink:href="classWorldMap.html#ab23a61c608fbb4aacc3b8be21a5ec303" target="_top" xlink:title=" ">
<polygon fill="white" stroke="#666666" points="302.5,-1644.5 158.5,-1644.5 158.5,-1625.5 302.5,-1625.5 302.5,-1644.5"/>
<text text-anchor="middle" x="230.5" y="-1632.5" font-family="Helvetica,sans-Serif" font-size="10.00">WorldMap::createCreature</text>
</a>
</g>
</g>
<!-- Node1&#45;&gt;Node2 -->
<g id="edge1_Node000001_Node000002" class="edge">
<title>Node1&#45;&gt;Node2</title>
<g id="a_edge1_Node000001_Node000002"><a xlink:title=" ">
<path fill="none" stroke="#63b8ff" d="M59.4,-1447.6C65.91,-1477.79 90.23,-1571.47 149,-1617 150.79,-1618.39 152.67,-1619.68 154.62,-1620.87"/>
<polygon fill="#63b8ff" stroke="#63b8ff" points="153.06,-1624 163.55,-1625.5 156.29,-1617.79 153.06,-1624"/>
</a>
</g>
</g>
<!-- Node4 -->
<g id="Node000004" class="node">
<title>Node4</title>
<g id="a_Node000004"><a xlink:href="classWorldMap.html#ad8fc65ca30908fd6a338877cfcb307b3" target="_top" xlink:title=" ">
<polygon fill="white" stroke="#666666" points="312,-1607.5 149,-1607.5 149,-1588.5 312,-1588.5 312,-1607.5"/>
<text text-anchor="middle" x="230.5" y="-1595.5" font-family="Helvetica,sans-Serif" font-size="10.00">WorldMap::createGameObject</text>
</a>
</g>
</g>
<!-- Node1&#45;&gt;Node4 -->
<g id="edge3_Node000001_Node000004" class="edge">
<title>Node1&#45;&gt;Node4</title>
<g id="a_edge3_Node000001_Node000004"><a xlink:title=" ">
<path fill="none" stroke="#63b8ff" d="M60.8,-1447.8C70.12,-1473.86 99.21,-1545.26 149,-1580 151.11,-1581.47 153.31,-1582.82 155.6,-1584.07"/>
<polygon fill="#63b8ff" stroke="#63b8ff" points="154.18,-1587.27 164.72,-1588.35 157.15,-1580.93 154.18,-1587.27"/>
</a>
</g>
</g>
<!-- Node5 -->
<g id="Node000005" class="node">
<title>Node5</title>
<g id="a_Node000005"><a xlink:href="classWorldMap.html#a4ddb28ddb4377bb52da40c205094f0af" target="_top" xlink:title=" ">
<polygon fill="white" stroke="#666666" points="504.5,-1511.5 372.5,-1511.5 372.5,-1492.5 504.5,-1492.5 504.5,-1511.5"/>
<text text-anchor="middle" x="438.5" y="-1499.5" font-family="Helvetica,sans-Serif" font-size="10.00">WorldMap::getBaseMap</text>
</a>
</g>
</g>
<!-- Node1&#45;&gt;Node5 -->
<g id="edge4_Node000001_Node000005" class="edge">
<title>Node1&#45;&gt;Node5</title>
<g id="a_edge4_Node000001_Node000005"><a xlink:title=" ">
<path fill="none" stroke="#63b8ff" d="M113.21,-1437.86C165.19,-1438.74 244.61,-1442.68 312,-1457 345.38,-1464.09 381.94,-1477.94 406.94,-1488.41"/>
<polygon fill="#63b8ff" stroke="#63b8ff" points="405.68,-1491.68 416.25,-1492.38 408.42,-1485.24 405.68,-1491.68"/>
</a>
</g>
</g>
<!-- Node6 -->
<g id="Node000006" class="node">
<title>Node6</title>
<g id="a_Node000006"><a xlink:href="classWorldMap.html#a4af3c5d2b3b7bf0b3bfc5c3b92aa3c90" target="_top" xlink:title=" ">
<polygon fill="white" stroke="#666666" points="496,-1431.5 381,-1431.5 381,-1412.5 496,-1412.5 496,-1431.5"/>
<text text-anchor="middle" x="438.5" y="-1419.5" font-family="Helvetica,sans-Serif" font-size="10.00">WorldMap::getScript</text>
</a>
</g>
</g>
<!-- Node1&#45;&gt;Node6 -->
<g id="edge5_Node000001_Node000006" class="edge">
<title>Node1&#45;&gt;Node6</title>
<g id="a_edge5_Node000001_Node000006"><a xlink:title=" ">
<path fill="none" stroke="#63b8ff" d="M68.65,-1428.3C84.96,-1414.82 116.91,-1391.04 149,-1382 218.73,-1362.36 242.26,-1362.38 312,-1382 330.05,-1387.08 330.54,-1397.16 348,-1404 355.26,-1406.85 363.04,-1409.26 370.87,-1411.31"/>
<polygon fill="#63b8ff" stroke="#63b8ff" points="370.23,-1414.76 380.77,-1413.71 371.88,-1407.96 370.23,-1414.76"/>
</a>
</g>
</g>
<!-- Node7 -->
<g id="Node000007" class="node">
<title>Node7</title>
<g id="a_Node000007"><a xlink:href="classWorldStatesHandler.html#ae8950f1de3bd3b6c2f2e2c8bf5d96ea6" target="_top" xlink:title=" ">
<polygon fill="white" stroke="#666666" points="287,-1496 174,-1496 174,-1466 287,-1466 287,-1496"/>
<text text-anchor="start" x="182" y="-1484" font-family="Helvetica,sans-Serif" font-size="10.00">WorldStatesHandler</text>
<text text-anchor="middle" x="230.5" y="-1473" font-family="Helvetica,sans-Serif" font-size="10.00">::InitWorldStates</text>
</a>
</g>
</g>
<!-- Node1&#45;&gt;Node7 -->
<g id="edge6_Node000001_Node000007" class="edge">
<title>Node1&#45;&gt;Node7</title>
<g id="a_edge6_Node000001_Node000007"><a xlink:title=" ">
<path fill="none" stroke="#63b8ff" d="M95.67,-1447.54C115.76,-1452.57 140.96,-1458.87 164.06,-1464.64"/>
<polygon fill="#63b8ff" stroke="#63b8ff" points="163.25,-1468.05 173.81,-1467.08 164.95,-1461.26 163.25,-1468.05"/>
</a>
</g>
</g>
<!-- Node8 -->
<g id="Node000008" class="node">
<title>Node8</title>
<g id="a_Node000008"><a xlink:href="classCreature.html#ae4d345f9d8ccd87e67b01d2dc1226feb" target="_top" xlink:title=" ">
<polygon fill="#fff0f0" stroke="red" points="274.5,-763.5 186.5,-763.5 186.5,-744.5 274.5,-744.5 274.5,-763.5"/>
<text text-anchor="middle" x="230.5" y="-751.5" font-family="Helvetica,sans-Serif" font-size="10.00">Creature::Load</text>
</a>
</g>
</g>
<!-- Node1&#45;&gt;Node8 -->
<g id="edge7_Node000001_Node000008" class="edge">
<title>Node1&#45;&gt;Node8</title>
<g id="a_edge7_Node000001_Node000008"><a xlink:title=" ">
<path fill="none" stroke="#63b8ff" d="M59.93,-1428.33C78.57,-1354.23 198.7,-876.47 224.59,-773.53"/>
<polygon fill="#63b8ff" stroke="#63b8ff" points="227.99,-774.36 227.03,-763.8 221.2,-772.65 227.99,-774.36"/>
</a>
</g>
</g>
<!-- Node400 -->
<g id="Node000400" class="node">
<title>Node400</title>
<g id="a_Node000400"><a xlink:href="classGameObject.html#a900f6ed568ae705888a27fb0829ad38b" target="_top" xlink:title=" ">
<polygon fill="#fff0f0" stroke="red" points="302,-1570.5 159,-1570.5 159,-1551.5 302,-1551.5 302,-1570.5"/>
<text text-anchor="middle" x="230.5" y="-1558.5" font-family="Helvetica,sans-Serif" font-size="10.00">GameObject::loadFromDB</text>
</a>
</g>
</g>
<!-- Node1&#45;&gt;Node400 -->
<g id="edge47_Node000001_Node000400" class="edge">
<title>Node1&#45;&gt;Node400</title>
<g id="a_edge47_Node000001_Node000400"><a xlink:title=" ">
<path fill="none" stroke="#63b8ff" d="M62.94,-1447.64C75.3,-1468.59 107.66,-1518.39 149,-1543 151.98,-1544.78 155.12,-1546.38 158.36,-1547.82"/>
<polygon fill="#63b8ff" stroke="#63b8ff" points="157.12,-1551.09 167.71,-1551.48 159.67,-1544.57 157.12,-1551.09"/>
</a>
</g>
</g>
<!-- Node1624 -->
<g id="Node001624" class="node">
<title>Node1624</title>
<g id="a_Node001624"><a xlink:href="classWorldMap.html#a09d7095f87af587ce9ae318d15b9769a" target="_top" xlink:title=" ">
<polygon fill="white" stroke="#666666" points="311,-1533.5 150,-1533.5 150,-1514.5 311,-1514.5 311,-1533.5"/>
<text text-anchor="middle" x="230.5" y="-1521.5" font-family="Helvetica,sans-Serif" font-size="10.00">WorldMap::loadInstanceScript</text>
</a>
</g>
</g>
<!-- Node1&#45;&gt;Node1624 -->
<g id="edge49_Node000001_Node001624" class="edge">
<title>Node1&#45;&gt;Node1624</title>
<g id="a_edge49_Node000001_Node001624"><a xlink:title=" ">
<path fill="none" stroke="#63b8ff" d="M67.6,-1447.56C83.58,-1462.16 116.28,-1489.92 149,-1505 154.35,-1507.46 160.05,-1509.63 165.85,-1511.52"/>
<polygon fill="#63b8ff" stroke="#63b8ff" points="165.08,-1514.94 175.66,-1514.46 167.09,-1508.24 165.08,-1514.94"/>
</a>
</g>
</g>
<!-- Node1625 -->
<g id="Node001625" class="node">
<title>Node1625</title>
<g id="a_Node001625"><a xlink:href="classInstanceScript.html#a2fe94fa3f8b530d29f0dc06913c15b28" target="_top" xlink:title=" ">
<polygon fill="white" stroke="#666666" points="294.5,-1333.5 166.5,-1333.5 166.5,-1314.5 294.5,-1314.5 294.5,-1333.5"/>
<text text-anchor="middle" x="230.5" y="-1321.5" font-family="Helvetica,sans-Serif" font-size="10.00">InstanceScript::OnLoad</text>
</a>
</g>
</g>
<!-- Node1&#45;&gt;Node1625 -->
<g id="edge51_Node000001_Node001625" class="edge">
<title>Node1&#45;&gt;Node1625</title>
<g id="a_edge51_Node000001_Node001625"><a xlink:title=" ">
<path fill="none" stroke="#63b8ff" d="M64.67,-1428.3C78.77,-1409.92 111.97,-1369.87 149,-1348 156.66,-1343.47 165.25,-1339.74 173.88,-1336.68"/>
<polygon fill="#63b8ff" stroke="#63b8ff" points="175.18,-1339.94 183.6,-1333.51 173.01,-1333.29 175.18,-1339.94"/>
</a>
</g>
</g>
<!-- Node1626 -->
<g id="Node001626" class="node">
<title>Node1626</title>
<g id="a_Node001626"><a xlink:href="classWorldMap.html#ac09cda2e4d2d75bd603b8d65a881d7ae" target="_top" xlink:title=" ">
<polygon fill="#fff0f0" stroke="red" points="307.5,-1409.5 153.5,-1409.5 153.5,-1390.5 307.5,-1390.5 307.5,-1409.5"/>
<text text-anchor="middle" x="230.5" y="-1397.5" font-family="Helvetica,sans-Serif" font-size="10.00">WorldMap::PushStaticObject</text>
</a>
</g>
</g>
<!-- Node1&#45;&gt;Node1626 -->
<g id="edge52_Node000001_Node001626" class="edge">
<title>Node1&#45;&gt;Node1626</title>
<g id="a_edge52_Node000001_Node001626"><a xlink:title=" ">
<path fill="none" stroke="#63b8ff" d="M100.9,-1428.41C123.91,-1423.33 152.35,-1417.04 176.63,-1411.68"/>
<polygon fill="#63b8ff" stroke="#63b8ff" points="177.4,-1415.09 186.41,-1409.52 175.89,-1408.26 177.4,-1415.09"/>
</a>
</g>
</g>
<!-- Node1627 -->
<g id="Node001627" class="node">
<title>Node1627</title>
<g id="a_Node001627"><a xlink:href="classWorldStatesHandler.html#a1449cfdcc0cb122de301b37c653942fb" target="_top" xlink:title=" ">
<polygon fill="white" stroke="#666666" points="287,-726 174,-726 174,-696 287,-696 287,-726"/>
<text text-anchor="start" x="182" y="-714" font-family="Helvetica,sans-Serif" font-size="10.00">WorldStatesHandler</text>
<text text-anchor="middle" x="230.5" y="-703" font-family="Helvetica,sans-Serif" font-size="10.00">::setObserver</text>
</a>
</g>
</g>
<!-- Node1&#45;&gt;Node1627 -->
<g id="edge55_Node000001_Node001627" class="edge">
<title>Node1&#45;&gt;Node1627</title>
<g id="a_edge55_Node000001_Node001627"><a xlink:title=" ">
<path fill="none" stroke="#63b8ff" d="M57.38,-1428.34C56.65,-1352.07 55.41,-847.19 149,-736 153.27,-730.93 158.54,-726.87 164.34,-723.63"/>
<polygon fill="#63b8ff" stroke="#63b8ff" points="166.25,-726.59 173.8,-719.16 163.26,-720.26 166.25,-726.59"/>
</a>
</g>
</g>
<!-- Node3 -->
<g id="Node000003" class="node">
<title>Node3</title>
<g id="a_Node000003"><a xlink:href="classWorldMap.html#ad528a6eaf7ba3c55c6591d0c01a4f20a" target="_top" xlink:title=" ">
<polygon fill="white" stroke="#666666" points="528,-1644.5 349,-1644.5 349,-1625.5 528,-1625.5 528,-1644.5"/>
<text text-anchor="middle" x="438.5" y="-1632.5" font-family="Helvetica,sans-Serif" font-size="10.00">WorldMap::generateCreatureGuid</text>
</a>
</g>
</g>
<!-- Node2&#45;&gt;Node3 -->
<g id="edge2_Node000002_Node000003" class="edge">
<title>Node2&#45;&gt;Node3</title>
<g id="a_edge2_Node000002_Node000003"><a xlink:title=" ">
<path fill="none" stroke="#63b8ff" d="M302.68,-1635C314.31,-1635 326.54,-1635 338.69,-1635"/>
<polygon fill="#63b8ff" stroke="#63b8ff" points="338.87,-1638.5 348.87,-1635 338.87,-1631.5 338.87,-1638.5"/>
</a>
</g>
</g>
<!-- Node9 -->
<g id="Node000009" class="node">
<title>Node9</title>
<g id="a_Node000009"><a xlink:href="classCreature.html#a3017404d48d86e06a9981bf7448e3a6c" target="_top" xlink:title=" ">
<polygon fill="white" stroke="#666666" points="502,-1283.5 375,-1283.5 375,-1264.5 502,-1264.5 502,-1283.5"/>
<text text-anchor="middle" x="438.5" y="-1271.5" font-family="Helvetica,sans-Serif" font-size="10.00">Creature::_LoadQuests</text>
</a>
</g>
</g>
<!-- Node8&#45;&gt;Node9 -->
<g id="edge8_Node000008_Node000009" class="edge">
<title>Node8&#45;&gt;Node9</title>
<g id="a_edge8_Node000008_Node000009"><a xlink:title=" ">
<path fill="none" stroke="#63b8ff" d="M232.34,-763.67C238.06,-827.1 273.22,-1183.39 348,-1256 352.97,-1260.82 358.84,-1264.52 365.17,-1267.34"/>
<polygon fill="#63b8ff" stroke="#63b8ff" points="364.13,-1270.69 374.72,-1270.88 366.56,-1264.12 364.13,-1270.69"/>
</a>
</g>
</g>
<!-- Node10 -->
<g id="Node000010" class="node">
<title>Node10</title>
<g id="a_Node000010"><a xlink:href="classUnit.html#aaddde8a184d9e1a1319dc17c4b750420" target="_top" xlink:title=" ">
<polygon fill="#fff0f0" stroke="red" points="491.5,-1246.5 385.5,-1246.5 385.5,-1227.5 491.5,-1227.5 491.5,-1246.5"/>
<text text-anchor="middle" x="438.5" y="-1234.5" font-family="Helvetica,sans-Serif" font-size="10.00">Unit::addNpcFlags</text>
</a>
</g>
</g>
<!-- Node8&#45;&gt;Node10 -->
<g id="edge9_Node000008_Node000010" class="edge">
<title>Node8&#45;&gt;Node10</title>
<g id="a_edge9_Node000008_Node000010"><a xlink:title=" ">
<path fill="none" stroke="#63b8ff" d="M232.54,-763.74C239.22,-824.61 278.15,-1152.36 348,-1219 355.65,-1226.3 365.38,-1231.01 375.6,-1234"/>
<polygon fill="#63b8ff" stroke="#63b8ff" points="374.96,-1237.44 385.49,-1236.36 376.58,-1230.63 374.96,-1237.44"/>
</a>
</g>
</g>
<!-- Node19 -->
<g id="Node000019" class="node">
<title>Node19</title>
<g id="a_Node000019"><a xlink:href="classUnit.html#af31134ebcca3fa4d81115046cebeaebb" target="_top" xlink:title=" ">
<polygon fill="white" stroke="#666666" points="504.5,-1209.5 372.5,-1209.5 372.5,-1190.5 504.5,-1190.5 504.5,-1209.5"/>
<text text-anchor="middle" x="438.5" y="-1197.5" font-family="Helvetica,sans-Serif" font-size="10.00">Unit::addSpellImmunity</text>
</a>
</g>
</g>
<!-- Node8&#45;&gt;Node19 -->
<g id="edge10_Node000008_Node000019" class="edge">
<title>Node8&#45;&gt;Node19</title>
<g id="a_edge10_Node000008_Node000019"><a xlink:title=" ">
<path fill="none" stroke="#63b8ff" d="M232.76,-763.71C240.45,-821.65 283.03,-1121.26 348,-1182 352.38,-1186.09 357.41,-1189.37 362.81,-1191.98"/>
<polygon fill="#63b8ff" stroke="#63b8ff" points="361.62,-1195.27 372.21,-1195.77 364.25,-1188.78 361.62,-1195.27"/>
</a>
</g>
</g>
<!-- Node20 -->
<g id="Node000020" class="node">
<title>Node20</title>
<g id="a_Node000020"><a xlink:href="classLocationVector.html#a139f72fdce307e30088a96977e3a4f5e" target="_top" xlink:title=" ">
<polygon fill="white" stroke="#666666" points="521,-1172.5 356,-1172.5 356,-1153.5 521,-1153.5 521,-1172.5"/>
<text text-anchor="middle" x="438.5" y="-1160.5" font-family="Helvetica,sans-Serif" font-size="10.00">LocationVector::ChangeCoords</text>
</a>
</g>
</g>
<!-- Node8&#45;&gt;Node20 -->
<g id="edge11_Node000008_Node000020" class="edge">
<title>Node8&#45;&gt;Node20</title>
<g id="a_edge11_Node000008_Node000020"><a xlink:title=" ">
<path fill="none" stroke="#63b8ff" d="M231.07,-763.74C229.49,-813.01 229.25,-1036.6 348,-1145 349.13,-1146.04 350.31,-1147.02 351.52,-1147.95"/>
<polygon fill="#63b8ff" stroke="#63b8ff" points="349.72,-1150.95 360.03,-1153.4 353.5,-1145.06 349.72,-1150.95"/>
</a>
</g>
</g>
<!-- Node21 -->
<g id="Node000021" class="node">
<title>Node21</title>
<g id="a_Node000021"><a xlink:href="classUnit.html#a0c640228026c1a578af342436b52bd09" target="_top" xlink:title=" ">
<polygon fill="white" stroke="#666666" points="507,-1135.5 370,-1135.5 370,-1116.5 507,-1116.5 507,-1135.5"/>
<text text-anchor="middle" x="438.5" y="-1123.5" font-family="Helvetica,sans-Serif" font-size="10.00">Unit::eventModelChange</text>
</a>
</g>
</g>
<!-- Node8&#45;&gt;Node21 -->
<g id="edge12_Node000008_Node000021" class="edge">
<title>Node8&#45;&gt;Node21</title>
<g id="a_edge12_Node000008_Node000021"><a xlink:title=" ">
<path fill="none" stroke="#63b8ff" d="M231.62,-763.75C232.72,-809.39 243.59,-1003.78 348,-1102 352.28,-1106.03 357.16,-1109.39 362.38,-1112.2"/>
<polygon fill="#63b8ff" stroke="#63b8ff" points="360.9,-1115.37 371.44,-1116.43 363.86,-1109.03 360.9,-1115.37"/>
</a>
</g>
</g>
<!-- Node22 -->
<g id="Node000022" class="node">
<title>Node22</title>
<g id="a_Node000022"><a xlink:href="classUnit.html#a5c157aedab3d3cbd8682505c8e0d512f" target="_top" xlink:title=" ">
<polygon fill="#fff0f0" stroke="red" points="669,-1116.5 565,-1116.5 565,-1097.5 669,-1097.5 669,-1116.5"/>
<text text-anchor="middle" x="617" y="-1104.5" font-family="Helvetica,sans-Serif" font-size="10.00">Unit::getDisplayId</text>
</a>
</g>
</g>
<!-- Node8&#45;&gt;Node22 -->
<g id="edge15_Node000008_Node000022" class="edge">
<title>Node8&#45;&gt;Node22</title>
<g id="a_edge15_Node000008_Node000022"><a xlink:title=" ">
<path fill="none" stroke="#63b8ff" d="M231.74,-763.69C233.39,-807.33 246.34,-987.01 348,-1069 378.84,-1093.87 485.29,-1102.46 554.39,-1105.43"/>
<polygon fill="#63b8ff" stroke="#63b8ff" points="554.59,-1108.94 564.72,-1105.85 554.87,-1101.95 554.59,-1108.94"/>
</a>
</g>
</g>
<!-- Node23 -->
<g id="Node000023" class="node">
<title>Node23</title>
<g id="a_Node000023"><a xlink:href="classUnit.html#ac31c5d768d09773dcbdd613b24e10f50" target="_top" xlink:title=" ">
<polygon fill="white" stroke="#666666" points="494.5,-1059.5 382.5,-1059.5 382.5,-1040.5 494.5,-1040.5 494.5,-1059.5"/>
<text text-anchor="middle" x="438.5" y="-1047.5" font-family="Helvetica,sans-Serif" font-size="10.00">Unit::getAIInterface</text>
</a>
</g>
</g>
<!-- Node8&#45;&gt;Node23 -->
<g id="edge14_Node000008_Node000023" class="edge">
<title>Node8&#45;&gt;Node23</title>
<g id="a_edge14_Node000008_Node000023"><a xlink:title=" ">
<path fill="none" stroke="#63b8ff" d="M232.36,-763.51C236.52,-803.39 258.12,-958.39 348,-1032 355.11,-1037.83 363.6,-1041.94 372.47,-1044.81"/>
<polygon fill="#63b8ff" stroke="#63b8ff" points="371.63,-1048.21 382.2,-1047.46 373.47,-1041.45 371.63,-1048.21"/>
</a>
</g>
</g>
<!-- Node24 -->
<g id="Node000024" class="node">
<title>Node24</title>
<g id="a_Node000024"><a xlink:href="classObject.html#ad4e6bfe8fd236724215bc3e671eee225" target="_top" xlink:title=" ">
<polygon fill="#fff0f0" stroke="red" points="486,-1022.5 391,-1022.5 391,-1003.5 486,-1003.5 486,-1022.5"/>
<text text-anchor="middle" x="438.5" y="-1010.5" font-family="Helvetica,sans-Serif" font-size="10.00">Object::getEntry</text>
</a>
</g>
</g>
<!-- Node8&#45;&gt;Node24 -->
<g id="edge16_Node000008_Node000024" class="edge">
<title>Node8&#45;&gt;Node24</title>
<g id="a_edge16_Node000008_Node000024"><a xlink:title=" ">
<path fill="none" stroke="#63b8ff" d="M233.06,-763.74C239.49,-800.6 267.57,-932.64 348,-995 357.49,-1002.36 369.21,-1006.94 381,-1009.74"/>
<polygon fill="#63b8ff" stroke="#63b8ff" points="380.38,-1013.19 390.87,-1011.7 381.74,-1006.32 380.38,-1013.19"/>
</a>
</g>
</g>
<!-- Node26 -->
<g id="Node000026" class="node">
<title>Node26</title>
<g id="a_Node000026"><a xlink:href="classUnit.html#adfa16ac0ecbefbac2e41e3fb1590a1a5" target="_top" xlink:title=" ">
<polygon fill="#fff0f0" stroke="red" points="481,-985.5 396,-985.5 396,-966.5 481,-966.5 481,-985.5"/>
<text text-anchor="middle" x="438.5" y="-973.5" font-family="Helvetica,sans-Serif" font-size="10.00">Unit::getLevel</text>
</a>
</g>
</g>
<!-- Node8&#45;&gt;Node26 -->
<g id="edge17_Node000008_Node000026" class="edge">
<title>Node8&#45;&gt;Node26</title>
<g id="a_edge17_Node000008_Node000026"><a xlink:title=" ">
<path fill="none" stroke="#63b8ff" d="M233.91,-763.61C242.74,-796.66 276.57,-906.44 348,-958 358.96,-965.91 372.54,-970.55 385.79,-973.21"/>
<polygon fill="#63b8ff" stroke="#63b8ff" points="385.37,-976.69 395.81,-974.89 386.53,-969.79 385.37,-976.69"/>
</a>
</g>
</g>
<!-- Node27 -->
<g id="Node000027" class="node">
<title>Node27</title>
<g id="a_Node000027"><a xlink:href="classUnit.html#a0e9d4dc26e2fbd774c66450638839a01" target="_top" xlink:title=" ">
<polygon fill="#fff0f0" stroke="red" points="499,-948.5 378,-948.5 378,-929.5 499,-929.5 499,-948.5"/>
<text text-anchor="middle" x="438.5" y="-936.5" font-family="Helvetica,sans-Serif" font-size="10.00">Unit::getMaxDamage</text>
</a>
</g>
</g>
<!-- Node8&#45;&gt;Node27 -->
<g id="edge18_Node000008_Node000027" class="edge">
<title>Node8&#45;&gt;Node27</title>
<g id="a_edge18_Node000008_Node000027"><a xlink:title=" ">
<path fill="none" stroke="#63b8ff" d="M235.25,-763.88C246.92,-793.18 285.61,-880.12 348,-921 354.11,-925 360.91,-928.15 367.97,-930.61"/>
<polygon fill="#63b8ff" stroke="#63b8ff" points="367.12,-934.01 377.71,-933.57 369.16,-927.31 367.12,-934.01"/>
</a>
</g>
</g>
<!-- Node28 -->
<g id="Node000028" class="node">
<title>Node28</title>
<g id="a_Node000028"><a xlink:href="classUnit.html#a285d459d1f892a495e0b209dcbd6c17a" target="_top" xlink:title=" ">
<polygon fill="#fff0f0" stroke="red" points="518,-911.5 359,-911.5 359,-892.5 518,-892.5 518,-911.5"/>
<text text-anchor="middle" x="438.5" y="-899.5" font-family="Helvetica,sans-Serif" font-size="10.00">Unit::getMaxOffhandDamage</text>
</a>
</g>
</g>
<!-- Node8&#45;&gt;Node28 -->
<g id="edge19_Node000008_Node000028" class="edge">
<title>Node8&#45;&gt;Node28</title>
<g id="a_edge19_Node000008_Node000028"><a xlink:title=" ">
<path fill="none" stroke="#63b8ff" d="M237.11,-763.75C251.8,-788.35 294.06,-853.17 348,-884 351.05,-885.74 354.24,-887.32 357.53,-888.75"/>
<polygon fill="#63b8ff" stroke="#63b8ff" points="356.42,-892.07 367.02,-892.38 358.93,-885.53 356.42,-892.07"/>
</a>
</g>
</g>
<!-- Node29 -->
<g id="Node000029" class="node">
<title>Node29</title>
<g id="a_Node000029"><a xlink:href="classUnit.html#a1318f14d702da24f16aa70a48021da88" target="_top" xlink:title=" ">
<polygon fill="#fff0f0" stroke="red" points="517.5,-874.5 359.5,-874.5 359.5,-855.5 517.5,-855.5 517.5,-874.5"/>
<text text-anchor="middle" x="438.5" y="-862.5" font-family="Helvetica,sans-Serif" font-size="10.00">Unit::getMaxRangedDamage</text>
</a>
</g>
</g>
<!-- Node8&#45;&gt;Node29 -->
<g id="edge20_Node000008_Node000029" class="edge">
<title>Node8&#45;&gt;Node29</title>
<g id="a_edge20_Node000008_Node000029"><a xlink:title=" ">
<path fill="none" stroke="#63b8ff" d="M240.4,-763.69C258.61,-782.88 302.26,-825.68 348,-847 352.35,-849.03 356.92,-850.83 361.61,-852.42"/>
<polygon fill="#63b8ff" stroke="#63b8ff" points="360.75,-855.82 371.34,-855.43 362.81,-849.13 360.75,-855.82"/>
</a>
</g>
</g>
<!-- Node30 -->
<g id="Node000030" class="node">
<title>Node30</title>
<g id="a_Node000030"><a xlink:href="classCreature.html#aec78a1373e622ac1152e8e448b9dcd20" target="_top" xlink:title=" ">
<polygon fill="white" stroke="#666666" points="529,-837.5 348,-837.5 348,-818.5 529,-818.5 529,-837.5"/>
<text text-anchor="middle" x="438.5" y="-825.5" font-family="Helvetica,sans-Serif" font-size="10.00">Creature::getMaxWanderDistance</text>
</a>
</g>
</g>
<!-- Node8&#45;&gt;Node30 -->
<g id="edge21_Node000008_Node000030" class="edge">
<title>Node8&#45;&gt;Node30</title>
<g id="a_edge21_Node000008_Node000030"><a xlink:title=" ">
<path fill="none" stroke="#63b8ff" d="M247.92,-763.52C270,-775.94 310.76,-797.52 348,-810 354.82,-812.28 362.03,-814.32 369.29,-816.14"/>
<polygon fill="#63b8ff" stroke="#63b8ff" points="368.63,-819.58 379.17,-818.46 370.24,-812.76 368.63,-819.58"/>
</a>
</g>
</g>
<!-- Node31 -->
<g id="Node000031" class="node">
<title>Node31</title>
<g id="a_Node000031"><a xlink:href="classUnit.html#aa9a34ffc52ac9039b39767ec6b092256" target="_top" xlink:title=" ">
<polygon fill="#fff0f0" stroke="red" points="497.5,-800.5 379.5,-800.5 379.5,-781.5 497.5,-781.5 497.5,-800.5"/>
<text text-anchor="middle" x="438.5" y="-788.5" font-family="Helvetica,sans-Serif" font-size="10.00">Unit::getMinDamage</text>
</a>
</g>
</g>
<!-- Node8&#45;&gt;Node31 -->
<g id="edge22_Node000008_Node000031" class="edge">
<title>Node8&#45;&gt;Node31</title>
<g id="a_edge22_Node000008_Node000031"><a xlink:title=" ">
<path fill="none" stroke="#63b8ff" d="M274.68,-761.76C303.53,-766.94 341.97,-773.84 374.25,-779.64"/>
<polygon fill="#63b8ff" stroke="#63b8ff" points="374.03,-783.16 384.49,-781.48 375.27,-776.27 374.03,-783.16"/>
</a>
</g>
</g>
<!-- Node32 -->
<g id="Node000032" class="node">
<title>Node32</title>
<g id="a_Node000032"><a xlink:href="classUnit.html#a5742d7f3c6f40c8432f1a109e85dde98" target="_top" xlink:title=" ">
<polygon fill="#fff0f0" stroke="red" points="516.5,-763.5 360.5,-763.5 360.5,-744.5 516.5,-744.5 516.5,-763.5"/>
<text text-anchor="middle" x="438.5" y="-751.5" font-family="Helvetica,sans-Serif" font-size="10.00">Unit::getMinOffhandDamage</text>
</a>
</g>
</g>
<!-- Node8&#45;&gt;Node32 -->
<g id="edge23_Node000008_Node000032" class="edge">
<title>Node8&#45;&gt;Node32</title>
<g id="a_edge23_Node000008_Node000032"><a xlink:title=" ">
<path fill="none" stroke="#63b8ff" d="M274.68,-754C296.56,-754 323.94,-754 349.97,-754"/>
<polygon fill="#63b8ff" stroke="#63b8ff" points="350.25,-757.5 360.25,-754 350.25,-750.5 350.25,-757.5"/>
</a>
</g>
</g>
<!-- Node33 -->
<g id="Node000033" class="node">
<title>Node33</title>
<g id="a_Node000033"><a xlink:href="classUnit.html#a001fd0c27657c84c9cd5d32a347da670" target="_top" xlink:title=" ">
<polygon fill="#fff0f0" stroke="red" points="516,-726.5 361,-726.5 361,-707.5 516,-707.5 516,-726.5"/>
<text text-anchor="middle" x="438.5" y="-714.5" font-family="Helvetica,sans-Serif" font-size="10.00">Unit::getMinRangedDamage</text>
</a>
</g>
</g>
<!-- Node8&#45;&gt;Node33 -->
<g id="edge24_Node000008_Node000033" class="edge">
<title>Node8&#45;&gt;Node33</title>
<g id="a_edge24_Node000008_Node000033"><a xlink:title=" ">
<path fill="none" stroke="#63b8ff" d="M274.68,-746.24C303.53,-741.06 341.97,-734.16 374.25,-728.36"/>
<polygon fill="#63b8ff" stroke="#63b8ff" points="375.27,-731.73 384.49,-726.52 374.03,-724.84 375.27,-731.73"/>
</a>
</g>
</g>
<!-- Node34 -->
<g id="Node000034" class="node">
<title>Node34</title>
<g id="a_Node000034"><a xlink:href="classCreature.html#acc6077199e3427ee49a0c6a2ea69b729" target="_top" xlink:title=" ">
<polygon fill="#fff0f0" stroke="red" points="527.5,-689.5 349.5,-689.5 349.5,-670.5 527.5,-670.5 527.5,-689.5"/>
<text text-anchor="middle" x="438.5" y="-677.5" font-family="Helvetica,sans-Serif" font-size="10.00">Creature::getMovementTemplate</text>
</a>
</g>
</g>
<!-- Node8&#45;&gt;Node34 -->
<g id="edge25_Node000008_Node000034" class="edge">
<title>Node8&#45;&gt;Node34</title>
<g id="a_edge25_Node000008_Node000034"><a xlink:title=" ">
<path fill="none" stroke="#63b8ff" d="M274.91,-748.33C287.41,-745.51 300.71,-741.29 312,-735 331.76,-723.98 328.11,-709.79 348,-699 352.23,-696.71 356.71,-694.69 361.32,-692.91"/>
<polygon fill="#63b8ff" stroke="#63b8ff" points="362.62,-696.17 370.94,-689.6 360.34,-689.55 362.62,-696.17"/>
</a>
</g>
</g>
<!-- Node36 -->
<g id="Node000036" class="node">
<title>Node36</title>
<g id="a_Node000036"><a xlink:href="namespaceUtil.html#ac09cb1bbc978b41e11720b88fec2800e" target="_top" xlink:title=" ">
<polygon fill="white" stroke="#666666" points="496.5,-634.5 380.5,-634.5 380.5,-615.5 496.5,-615.5 496.5,-634.5"/>
<text text-anchor="middle" x="438.5" y="-622.5" font-family="Helvetica,sans-Serif" font-size="10.00">Util::getRandomUInt</text>
</a>
</g>
</g>
<!-- Node8&#45;&gt;Node36 -->
<g id="edge26_Node000008_Node000036" class="edge">
<title>Node8&#45;&gt;Node36</title>
<g id="a_edge26_Node000008_Node000036"><a xlink:title=" ">
<path fill="none" stroke="#63b8ff" d="M274.72,-750.9C287.78,-748.2 301.44,-743.41 312,-735 340.31,-712.47 321.59,-686.72 348,-662 359.27,-651.45 373.97,-643.71 388.19,-638.12"/>
<polygon fill="#63b8ff" stroke="#63b8ff" points="389.7,-641.29 397.9,-634.58 387.31,-634.71 389.7,-641.29"/>
</a>
</g>
</g>
<!-- Node37 -->
<g id="Node000037" class="node">
<title>Node37</title>
<g id="a_Node000037"><a xlink:href="classUnit.html#a1042f4ea1179938e1c53f10132dfd497" target="_top" xlink:title=" ">
<polygon fill="#fff0f0" stroke="red" points="494.5,-597.5 382.5,-597.5 382.5,-578.5 494.5,-578.5 494.5,-597.5"/>
<text text-anchor="middle" x="438.5" y="-585.5" font-family="Helvetica,sans-Serif" font-size="10.00">Unit::getResistance</text>
</a>
</g>
</g>
<!-- Node8&#45;&gt;Node37 -->
<g id="edge28_Node000008_Node000037" class="edge">
<title>Node8&#45;&gt;Node37</title>
<g id="a_edge28_Node000008_Node000037"><a xlink:title=" ">
<path fill="none" stroke="#63b8ff" d="M274.87,-752.19C288.24,-749.6 302.05,-744.54 312,-735 354.66,-694.11 304.88,-647.41 348,-607 354.97,-600.47 363.6,-595.96 372.73,-592.88"/>
<polygon fill="#63b8ff" stroke="#63b8ff" points="373.7,-596.24 382.37,-590.16 371.8,-589.51 373.7,-596.24"/>
</a>
</g>
</g>
<!-- Node38 -->
<g id="Node000038" class="node">
<title>Node38</title>
<g id="a_Node000038"><a xlink:href="classUnit.html#a4e39d9d4324c54fd5b1769fe51a98b0a" target="_top" xlink:title=" ">
<polygon fill="#fff0f0" stroke="red" points="477.5,-560.5 399.5,-560.5 399.5,-541.5 477.5,-541.5 477.5,-560.5"/>
<text text-anchor="middle" x="438.5" y="-548.5" font-family="Helvetica,sans-Serif" font-size="10.00">Unit::getStat</text>
</a>
</g>
</g>
<!-- Node8&#45;&gt;Node38 -->
<g id="edge29_Node000008_Node000038" class="edge">
<title>Node8&#45;&gt;Node38</title>
<g id="a_edge29_Node000008_Node000038"><a xlink:title=" ">
<path fill="none" stroke="#63b8ff" d="M274.79,-752.61C288.31,-750.07 302.23,-744.93 312,-735 364.62,-681.48 294.78,-622.92 348,-570 358.8,-559.26 374.06,-553.9 388.93,-551.4"/>
<polygon fill="#63b8ff" stroke="#63b8ff" points="389.63,-554.84 399.1,-550.09 388.74,-547.89 389.63,-554.84"/>
</a>
</g>
</g>
<!-- Node39 -->
<g id="Node000039" class="node">
<title>Node39</title>
<g id="a_Node000039"><a xlink:href="classAIInterface.html#ae1c3d598a2f552ebf974cb5413f0dc96" target="_top" xlink:title=" ">
<polygon fill="#fff0f0" stroke="red" points="511.5,-523 365.5,-523 365.5,-493 511.5,-493 511.5,-523"/>
<text text-anchor="start" x="373.5" y="-511" font-family="Helvetica,sans-Serif" font-size="10.00">AIInterface::initializeReact</text>
<text text-anchor="middle" x="438.5" y="-500" font-family="Helvetica,sans-Serif" font-size="10.00">State</text>
</a>
</g>
</g>
<!-- Node8&#45;&gt;Node39 -->
<g id="edge30_Node000008_Node000039" class="edge">
<title>Node8&#45;&gt;Node39</title>
<g id="a_edge30_Node000008_Node000039"><a xlink:title=" ">
<path fill="none" stroke="#63b8ff" d="M274.59,-752.9C288.27,-750.4 302.33,-745.22 312,-735 374.67,-668.76 286.69,-600.5 348,-533 350.59,-530.15 353.48,-527.61 356.59,-525.35"/>
<polygon fill="#63b8ff" stroke="#63b8ff" points="358.59,-528.22 365.27,-520 354.92,-522.26 358.59,-528.22"/>
</a>
</g>
</g>
<!-- Node42 -->
<g id="Node000042" class="node">
<title>Node42</title>
<g id="a_Node000042"><a xlink:href="classCreature.html#a0d226f6b812810dae9b7a98c673d0a42" target="_top" xlink:title=" ">
<polygon fill="white" stroke="#666666" points="500.5,-474.5 376.5,-474.5 376.5,-455.5 500.5,-455.5 500.5,-474.5"/>
<text text-anchor="middle" x="438.5" y="-462.5" font-family="Helvetica,sans-Serif" font-size="10.00">Creature::isattackable</text>
</a>
</g>
</g>
<!-- Node8&#45;&gt;Node42 -->
<g id="edge31_Node000008_Node000042" class="edge">
<title>Node8&#45;&gt;Node42</title>
<g id="a_edge31_Node000008_Node000042"><a xlink:title=" ">
<path fill="none" stroke="#63b8ff" d="M274.79,-753.09C288.48,-750.6 302.5,-745.39 312,-735 388.05,-651.83 271.01,-566.3 348,-484 353.22,-478.42 359.64,-474.26 366.63,-471.19"/>
<polygon fill="#63b8ff" stroke="#63b8ff" points="368.23,-474.34 376.44,-467.66 365.85,-467.76 368.23,-474.34"/>
</a>
</g>
</g>
<!-- Node43 -->
<g id="Node000043" class="node">
<title>Node43</title>
<g id="a_Node000043"><a xlink:href="classCreature.html#a89bf17ce1bda104fb989ef8bd62b7000" target="_top" xlink:title=" ">
<polygon fill="#fff0f0" stroke="red" points="501,-437.5 376,-437.5 376,-418.5 501,-418.5 501,-437.5"/>
<text text-anchor="middle" x="438.5" y="-425.5" font-family="Helvetica,sans-Serif" font-size="10.00">Creature::isAuctioneer</text>
</a>
</g>
</g>
<!-- Node8&#45;&gt;Node43 -->
<g id="edge32_Node000008_Node000043" class="edge">
<title>Node8&#45;&gt;Node43</title>
<g id="a_edge32_Node000008_Node000043"><a xlink:title=" ">
<path fill="none" stroke="#63b8ff" d="M274.9,-753.19C288.6,-750.71 302.6,-745.47 312,-735 398.19,-639.02 260.74,-542 348,-447 353.1,-441.45 359.38,-437.31 366.23,-434.23"/>
<polygon fill="#63b8ff" stroke="#63b8ff" points="367.7,-437.42 375.87,-430.68 365.28,-430.86 367.7,-437.42"/>
</a>
</g>
</g>
<!-- Node44 -->
<g id="Node000044" class="node">
<title>Node44</title>
<g id="a_Node000044"><a xlink:href="classCreature.html#afaa0faf736d157b335e99aa3217c0a82" target="_top" xlink:title=" ">
<polygon fill="white" stroke="#666666" points="508.5,-400.5 368.5,-400.5 368.5,-381.5 508.5,-381.5 508.5,-400.5"/>
<text text-anchor="middle" x="438.5" y="-388.5" font-family="Helvetica,sans-Serif" font-size="10.00">Creature::isDungeonBoss</text>
</a>
</g>
</g>
<!-- Node8&#45;&gt;Node44 -->
<g id="edge33_Node000008_Node000044" class="edge">
<title>Node8&#45;&gt;Node44</title>
<g id="a_edge33_Node000008_Node000044"><a xlink:title=" ">
<path fill="none" stroke="#63b8ff" d="M274.56,-753.34C288.4,-750.9 302.58,-745.64 312,-735 408.34,-626.19 250.44,-517.71 348,-410 351.21,-406.46 354.89,-403.49 358.9,-401"/>
<polygon fill="#63b8ff" stroke="#63b8ff" points="360.82,-403.96 368.14,-396.3 357.64,-397.72 360.82,-403.96"/>
</a>
</g>
</g>
<!-- Node45 -->
<g id="Node000045" class="node">
<title>Node45</title>
<g id="a_Node000045"><a xlink:href="classCreature.html#a3c5ced9bd4d24ae6f59cbd921c953760" target="_top" xlink:title=" ">
<polygon fill="#fff0f0" stroke="red" points="517,-363.5 360,-363.5 360,-344.5 517,-344.5 517,-363.5"/>
<text text-anchor="middle" x="438.5" y="-351.5" font-family="Helvetica,sans-Serif" font-size="10.00">Creature::isProfessionTrainer</text>
</a>
</g>
</g>
<!-- Node8&#45;&gt;Node45 -->
<g id="edge34_Node000008_Node000045" class="edge">
<title>Node8&#45;&gt;Node45</title>
<g id="a_edge34_Node000008_Node000045"><a xlink:title=" ">
<path fill="none" stroke="#63b8ff" d="M274.63,-753.4C288.48,-750.96 302.64,-745.7 312,-735 365.25,-674.17 294.07,-433.22 348,-373 349.06,-371.82 350.17,-370.7 351.33,-369.64"/>
<polygon fill="#63b8ff" stroke="#63b8ff" points="353.68,-372.25 359.63,-363.49 349.52,-366.63 353.68,-372.25"/>
</a>
</g>
</g>
<!-- Node46 -->
<g id="Node000046" class="node">
<title>Node46</title>
<g id="a_Node000046"><a xlink:href="classCreature.html#ad7f7eff8b07d598c67902d6b29f5ad36" target="_top" xlink:title=" ">
<polygon fill="#fff0f0" stroke="red" points="502.5,-326.5 374.5,-326.5 374.5,-307.5 502.5,-307.5 502.5,-326.5"/>
<text text-anchor="middle" x="438.5" y="-314.5" font-family="Helvetica,sans-Serif" font-size="10.00">Creature::isQuestGiver</text>
</a>
</g>
</g>
<!-- Node8&#45;&gt;Node46 -->
<g id="edge35_Node000008_Node000046" class="edge">
<title>Node8&#45;&gt;Node46</title>
<g id="a_edge35_Node000008_Node000046"><a xlink:title=" ">
<path fill="none" stroke="#63b8ff" d="M274.68,-753.44C288.54,-751.01 302.69,-745.74 312,-735 370.33,-667.75 288.91,-402.59 348,-336 352.68,-330.73 358.42,-326.72 364.71,-323.68"/>
<polygon fill="#63b8ff" stroke="#63b8ff" points="366.26,-326.83 374.28,-319.9 363.69,-320.32 366.26,-326.83"/>
</a>
</g>
</g>
<!-- Node47 -->
<g id="Node000047" class="node">
<title>Node47</title>
<g id="a_Node000047"><a xlink:href="classUnit.html#a7c6fa14c887a543c0047b510551566cb" target="_top" xlink:title=" ">
<polygon fill="#fff0f0" stroke="red" points="481.5,-289.5 395.5,-289.5 395.5,-270.5 481.5,-270.5 481.5,-289.5"/>
<text text-anchor="middle" x="438.5" y="-277.5" font-family="Helvetica,sans-Serif" font-size="10.00">Unit::isRooted</text>
</a>
</g>
</g>
<!-- Node8&#45;&gt;Node47 -->
<g id="edge36_Node000008_Node000047" class="edge">
<title>Node8&#45;&gt;Node47</title>
<g id="a_edge36_Node000008_Node000047"><a xlink:title=" ">
<path fill="none" stroke="#63b8ff" d="M274.73,-753.48C288.59,-751.06 302.73,-745.77 312,-735 375.42,-661.32 283.75,-371.96 348,-299 357.38,-288.35 371.11,-282.82 385.01,-280.13"/>
<polygon fill="#63b8ff" stroke="#63b8ff" points="385.72,-283.57 395.1,-278.65 384.7,-276.64 385.72,-283.57"/>
</a>
</g>
</g>
<!-- Node49 -->
<g id="Node000049" class="node">
<title>Node49</title>
<g id="a_Node000049"><a xlink:href="classObject.html#a398de94ec4bf1a231775d1f845938c6a" target="_top" xlink:title=" ">
<polygon fill="white" stroke="#666666" points="491.5,-252.5 385.5,-252.5 385.5,-233.5 491.5,-233.5 491.5,-252.5"/>
<text text-anchor="middle" x="438.5" y="-240.5" font-family="Helvetica,sans-Serif" font-size="10.00">Object::isSummon</text>
</a>
</g>
</g>
<!-- Node8&#45;&gt;Node49 -->
<g id="edge37_Node000008_Node000049" class="edge">
<title>Node8&#45;&gt;Node49</title>
<g id="a_edge37_Node000008_Node000049"><a xlink:title=" ">
<path fill="none" stroke="#63b8ff" d="M274.77,-753.52C288.63,-751.09 302.76,-745.8 312,-735 380.51,-654.88 278.59,-341.34 348,-262 355.21,-253.76 365.02,-248.58 375.51,-245.41"/>
<polygon fill="#63b8ff" stroke="#63b8ff" points="376.39,-248.8 385.28,-243.03 374.74,-242 376.39,-248.8"/>
</a>
</g>
</g>
<!-- Node50 -->
<g id="Node000050" class="node">
<title>Node50</title>
<g id="a_Node000050"><a xlink:href="classCreature.html#aceabad5114ae7e94cfbb907f388f5e89" target="_top" xlink:title=" ">
<polygon fill="#fff0f0" stroke="red" points="491.5,-215.5 385.5,-215.5 385.5,-196.5 491.5,-196.5 491.5,-215.5"/>
<text text-anchor="middle" x="438.5" y="-203.5" font-family="Helvetica,sans-Serif" font-size="10.00">Creature::isTrainer</text>
</a>
</g>
</g>
<!-- Node8&#45;&gt;Node50 -->
<g id="edge38_Node000008_Node000050" class="edge">
<title>Node8&#45;&gt;Node50</title>
<g id="a_edge38_Node000008_Node000050"><a xlink:title=" ">
<path fill="none" stroke="#63b8ff" d="M274.8,-753.55C288.66,-751.12 302.79,-745.83 312,-735 385.6,-648.45 273.42,-310.71 348,-225 355.18,-216.74 364.99,-211.55 375.47,-208.38"/>
<polygon fill="#63b8ff" stroke="#63b8ff" points="376.36,-211.77 385.24,-206 374.7,-204.97 376.36,-211.77"/>
</a>
</g>
</g>
<!-- Node51 -->
<g id="Node000051" class="node">
<title>Node51</title>
<g id="a_Node000051"><a xlink:href="classCreature.html#ac38b513096d5c6ea8b43c5ad89d836da" target="_top" xlink:title=" ">
<polygon fill="white" stroke="#666666" points="492.5,-178.5 384.5,-178.5 384.5,-159.5 492.5,-159.5 492.5,-178.5"/>
<text text-anchor="middle" x="438.5" y="-166.5" font-family="Helvetica,sans-Serif" font-size="10.00">Creature::isVehicle</text>
</a>
</g>
</g>
<!-- Node8&#45;&gt;Node51 -->
<g id="edge39_Node000008_Node000051" class="edge">
<title>Node8&#45;&gt;Node51</title>
<g id="a_edge39_Node000008_Node000051"><a xlink:title=" ">
<path fill="none" stroke="#63b8ff" d="M274.83,-753.57C288.7,-751.15 302.82,-745.85 312,-735 390.7,-642.01 268.26,-280.09 348,-188 354.93,-179.99 364.33,-174.87 374.43,-171.67"/>
<polygon fill="#63b8ff" stroke="#63b8ff" points="375.45,-175.02 384.28,-169.16 373.72,-168.23 375.45,-175.02"/>
</a>
</g>
</g>
<!-- Node52 -->
<g id="Node000052" class="node">
<title>Node52</title>
<g id="a_Node000052"><a xlink:href="classCreature.html#a4615f2199e17c0fc52735227c4de9888" target="_top" xlink:title=" ">
<polygon fill="#fff0f0" stroke="red" points="492,-141.5 385,-141.5 385,-122.5 492,-122.5 492,-141.5"/>
<text text-anchor="middle" x="438.5" y="-129.5" font-family="Helvetica,sans-Serif" font-size="10.00">Creature::isVendor</text>
</a>
</g>
</g>
<!-- Node8&#45;&gt;Node52 -->
<g id="edge40_Node000008_Node000052" class="edge">
<title>Node8&#45;&gt;Node52</title>
<g id="a_edge40_Node000008_Node000052"><a xlink:title=" ">
<path fill="none" stroke="#63b8ff" d="M274.86,-753.59C288.72,-751.17 302.84,-745.87 312,-735 395.79,-635.58 263.09,-249.47 348,-151 355,-142.89 364.52,-137.73 374.75,-134.53"/>
<polygon fill="#63b8ff" stroke="#63b8ff" points="375.87,-137.86 384.72,-132.04 374.17,-131.07 375.87,-137.86"/>
</a>
</g>
</g>
<!-- Node53 -->
<g id="Node000053" class="node">
<title>Node53</title>
<g id="a_Node000053"><a xlink:href="classUnit.html#abe3105a2555346f2789ca17a377add4c" target="_top" xlink:title=" ">
<polygon fill="white" stroke="#666666" points="508,-104.5 369,-104.5 369,-85.5 508,-85.5 508,-104.5"/>
<text text-anchor="middle" x="438.5" y="-92.5" font-family="Helvetica,sans-Serif" font-size="10.00">Unit::resetCurrentSpeeds</text>
</a>
</g>
</g>
<!-- Node8&#45;&gt;Node53 -->
<g id="edge41_Node000008_Node000053" class="edge">
<title>Node8&#45;&gt;Node53</title>
<g id="a_edge41_Node000008_Node000053"><a xlink:title=" ">
<path fill="none" stroke="#63b8ff" d="M274.88,-753.61C288.75,-751.2 302.86,-745.89 312,-735 400.89,-629.14 257.92,-218.85 348,-114 351.32,-110.14 355.21,-106.94 359.48,-104.31"/>
<polygon fill="#63b8ff" stroke="#63b8ff" points="361.35,-107.29 368.71,-99.67 358.2,-101.04 361.35,-107.29"/>
</a>
</g>
</g>
<!-- Node54 -->
<g id="Node000054" class="node">
<title>Node54</title>
<g id="a_Node000054"><a xlink:href="classUnit.html#ad84a325f624b4d5fa83ea78ee2e89cb3" target="_top" xlink:title=" ">
<polygon fill="white" stroke="#666666" points="486.5,-67.5 390.5,-67.5 390.5,-48.5 486.5,-48.5 486.5,-67.5"/>
<text text-anchor="middle" x="438.5" y="-55.5" font-family="Helvetica,sans-Serif" font-size="10.00">Unit::setAItoUse</text>
</a>
</g>
</g>
<!-- Node8&#45;&gt;Node54 -->
<g id="edge42_Node000008_Node000054" class="edge">
<title>Node8&#45;&gt;Node54</title>
<g id="a_edge42_Node000008_Node000054"><a xlink:title=" ">
<path fill="none" stroke="#63b8ff" d="M274.9,-753.63C288.77,-751.21 302.88,-745.9 312,-735 405.98,-622.7 252.75,-188.23 348,-77 356.23,-67.38 368.01,-61.91 380.34,-58.94"/>
<polygon fill="#63b8ff" stroke="#63b8ff" points="381.1,-62.36 390.28,-57.06 379.8,-55.48 381.1,-62.36"/>
</a>
</g>
</g>
<!-- Node55 -->
<g id="Node000055" class="node">
<title>Node55</title>
<g id="a_Node000055"><a xlink:href="classAIInterface.html#ad994b9d83f57d6419189962ee71ae413" target="_top" xlink:title=" ">
<polygon fill="#fff0f0" stroke="red" points="508.5,-30 368.5,-30 368.5,0 508.5,0 508.5,-30"/>
<text text-anchor="start" x="376.5" y="-18" font-family="Helvetica,sans-Serif" font-size="10.00">AIInterface::setAllowedTo</text>
<text text-anchor="middle" x="438.5" y="-7" font-family="Helvetica,sans-Serif" font-size="10.00">EnterCombat</text>
</a>
</g>
</g>
<!-- Node8&#45;&gt;Node55 -->
<g id="edge43_Node000008_Node000055" class="edge">
<title>Node8&#45;&gt;Node55</title>
<g id="a_edge43_Node000008_Node000055"><a xlink:title=" ">
<path fill="none" stroke="#63b8ff" d="M274.92,-753.64C288.79,-751.23 302.89,-745.92 312,-735 411.08,-616.26 251.35,-160.73 348,-40 351.32,-35.86 355.26,-32.36 359.62,-29.42"/>
<polygon fill="#63b8ff" stroke="#63b8ff" points="361.46,-32.4 368.44,-24.43 358.01,-26.31 361.46,-32.4"/>
</a>
</g>
</g>
<!-- Node62 -->
<g id="Node000062" class="node">
<title>Node62</title>
<g id="a_Node000062"><a xlink:href="classUnit.html#af78e86c9eb39c7ea4c69ff91267aac80" target="_top" xlink:title=" ">
<polygon fill="#fff0f0" stroke="red" points="507.5,-1394.5 369.5,-1394.5 369.5,-1375.5 507.5,-1375.5 507.5,-1394.5"/>
<text text-anchor="middle" x="438.5" y="-1382.5" font-family="Helvetica,sans-Serif" font-size="10.00">Unit::setBaseAttackTime</text>
</a>
</g>
</g>
<!-- Node8&#45;&gt;Node62 -->
<g id="edge44_Node000008_Node000062" class="edge">
<title>Node8&#45;&gt;Node62</title>
<g id="a_edge44_Node000008_Node000062"><a xlink:title=" ">
<path fill="none" stroke="#63b8ff" d="M231.92,-763.87C235.14,-835.6 258.48,-1276.52 348,-1367 351.51,-1370.55 355.51,-1373.49 359.82,-1375.93"/>
<polygon fill="#63b8ff" stroke="#63b8ff" points="358.52,-1379.19 369.06,-1380.26 361.49,-1372.85 358.52,-1379.19"/>
</a>
</g>
</g>
<!-- Node63 -->
<g id="Node000063" class="node">
<title>Node63</title>
<g id="a_Node000063"><a xlink:href="classUnit.html#a6d31b4f862c61224da02fc4ecce495b4" target="_top" xlink:title=" ">
<polygon fill="#fff0f0" stroke="red" points="495.5,-1357.5 381.5,-1357.5 381.5,-1338.5 495.5,-1338.5 495.5,-1357.5"/>
<text text-anchor="middle" x="438.5" y="-1345.5" font-family="Helvetica,sans-Serif" font-size="10.00">Unit::setBaseHealth</text>
</a>
</g>
</g>
<!-- Node8&#45;&gt;Node63 -->
<g id="edge45_Node000008_Node000063" class="edge">
<title>Node8&#45;&gt;Node63</title>
<g id="a_edge45_Node000008_Node000063"><a xlink:title=" ">
<path fill="none" stroke="#63b8ff" d="M232.04,-763.72C236.03,-832.49 263.37,-1245.46 348,-1330 354.59,-1336.58 362.87,-1341.09 371.71,-1344.13"/>
<polygon fill="#63b8ff" stroke="#63b8ff" points="370.9,-1347.54 381.48,-1346.88 372.8,-1340.8 370.9,-1347.54"/>
</a>
</g>
</g>
<!-- Node64 -->
<g id="Node000064" class="node">
<title>Node64</title>
<g id="a_Node000064"><a xlink:href="classUnit.html#ae87357871ca186380321a29547c9f243" target="_top" xlink:title=" ">
<polygon fill="#fff0f0" stroke="red" points="493,-1320.5 384,-1320.5 384,-1301.5 493,-1301.5 493,-1320.5"/>
<text text-anchor="middle" x="438.5" y="-1308.5" font-family="Helvetica,sans-Serif" font-size="10.00">Unit::setBaseMana</text>
</a>
</g>
</g>
<!-- Node8&#45;&gt;Node64 -->
<g id="edge46_Node000008_Node000064" class="edge">
<title>Node8&#45;&gt;Node64</title>
<g id="a_edge46_Node000008_Node000064"><a xlink:title=" ">
<path fill="none" stroke="#63b8ff" d="M232.17,-763.52C236.95,-829.14 268.23,-1214.37 348,-1293 355.2,-1300.09 364.36,-1304.77 374.06,-1307.79"/>
<polygon fill="#63b8ff" stroke="#63b8ff" points="373.34,-1311.22 383.89,-1310.29 375.06,-1304.44 373.34,-1311.22"/>
</a>
</g>
</g>
<!-- Node21&#45;&gt;Node22 -->
<g id="edge13_Node000021_Node000022" class="edge">
<title>Node21&#45;&gt;Node22</title>
<g id="a_edge13_Node000021_Node000022"><a xlink:title=" ">
<path fill="none" stroke="#63b8ff" d="M507.23,-1118.71C522.8,-1117.03 539.26,-1115.26 554.53,-1113.62"/>
<polygon fill="#63b8ff" stroke="#63b8ff" points="555.33,-1117.05 564.9,-1112.5 554.58,-1110.09 555.33,-1117.05"/>
</a>
</g>
</g>
<!-- Node36&#45;&gt;Node36 -->
<g id="edge27_Node000036_Node000036" class="edge">
<title>Node36&#45;&gt;Node36</title>
<g id="a_edge27_Node000036_Node000036"><a xlink:title=" ">
<path fill="none" stroke="#63b8ff" d="M411.07,-634.58C397.72,-643.23 406.86,-652.5 438.5,-652.5 459.76,-652.5 470.86,-648.32 471.81,-642.95"/>
<polygon fill="#63b8ff" stroke="#63b8ff" points="474.55,-640.76 465.93,-634.58 468.82,-644.78 474.55,-640.76"/>
</a>
</g>
</g>
<!-- Node400&#45;&gt;Node5 -->
<g id="edge48_Node000400_Node000005" class="edge">
<title>Node400&#45;&gt;Node5</title>
<g id="a_edge48_Node000400_Node000005"><a xlink:title=" ">
<path fill="none" stroke="#63b8ff" d="M277.66,-1551.47C288.95,-1548.93 300.95,-1546.03 312,-1543 342.31,-1534.68 376.15,-1523.51 401.05,-1514.93"/>
<polygon fill="#63b8ff" stroke="#63b8ff" points="402.5,-1518.13 410.8,-1511.55 400.2,-1511.52 402.5,-1518.13"/>
</a>
</g>
</g>
<!-- Node1624&#45;&gt;Node5 -->
<g id="edge50_Node001624_Node000005" class="edge">
<title>Node1624&#45;&gt;Node5</title>
<g id="a_edge50_Node001624_Node000005"><a xlink:title=" ">
<path fill="none" stroke="#63b8ff" d="M311.14,-1515.49C327.93,-1513.7 345.58,-1511.82 362.2,-1510.04"/>
<polygon fill="#63b8ff" stroke="#63b8ff" points="362.82,-1513.5 372.4,-1508.95 362.08,-1506.53 362.82,-1513.5"/>
</a>
</g>
</g>
<!-- Node1626&#45;&gt;Node5 -->
<g id="edge53_Node001626_Node000005" class="edge">
<title>Node1626&#45;&gt;Node5</title>
<g id="a_edge53_Node001626_Node000005"><a xlink:title=" ">
<path fill="none" stroke="#63b8ff" d="M271.16,-1409.56C284.42,-1413.34 299.1,-1418.19 312,-1424 350.79,-1441.46 391.98,-1469.02 416.19,-1486.28"/>
<polygon fill="#63b8ff" stroke="#63b8ff" points="414.44,-1489.33 424.6,-1492.35 418.54,-1483.66 414.44,-1489.33"/>
</a>
</g>
</g>
<!-- Node1626&#45;&gt;Node6 -->
<g id="edge54_Node001626_Node000006" class="edge">
<title>Node1626&#45;&gt;Node6</title>
<g id="a_edge54_Node001626_Node000006"><a xlink:title=" ">
<path fill="none" stroke="#63b8ff" d="M307.62,-1408.13C328.31,-1410.34 350.55,-1412.71 370.68,-1414.86"/>
<polygon fill="#63b8ff" stroke="#63b8ff" points="370.37,-1418.35 380.69,-1415.93 371.12,-1411.39 370.37,-1418.35"/>
</a>
</g>
</g>
</g>
</svg>
