<?xml version="1.0" encoding="UTF-8" standalone="no"?>
<!DOCTYPE svg PUBLIC "-//W3C//DTD SVG 1.1//EN"
 "http://www.w3.org/Graphics/SVG/1.1/DTD/svg11.dtd">
<!-- Generated by graphviz version 2.43.0 (0)
 -->
<!-- Title: MovementManager::moveJump Pages: 1 -->
<!--zoomable 403 -->

<svg id="main" version="1.1" xmlns="http://www.w3.org/2000/svg" xmlns:xlink="http://www.w3.org/1999/xlink" xml:space="preserve" onload="init(evt)">
<style type="text/css"><![CDATA[
.node, .edge {opacity: 0.7;}
.node.selected, .edge.selected {opacity: 1;}
.edge:hover path { stroke: red; }
.edge:hover polygon { stroke: red; fill: red; }
]]></style>

<defs>
  <circle id="rim" cx="0" cy="0" r="7"/>
  <circle id="rim2" cx="0" cy="0" r="3.5"/>
  <g id="zoomPlus">
    <use xlink:href="#rim" fill="#404040"><set attributeName="fill" to="#808080" begin="zoomplus.mouseover" end="zoomplus.mouseout"/></use>
    <path d="M-4,0h8M0,-4v8" fill="none" stroke="white" stroke-width="1.5" pointer-events="none"/>
  </g>
  <g id="zoomMin">
    <use xlink:href="#rim" fill="#404040"><set attributeName="fill" to="#808080" begin="zoomminus.mouseover" end="zoomminus.mouseout"/></use>
    <path d="M-4,0h8" fill="none" stroke="white" stroke-width="1.5" pointer-events="none"/>
  </g>
  <g id="arrowUp" transform="translate(30 24)">
    <use xlink:href="#rim"/>
    <path pointer-events="none" fill="none" stroke="white" stroke-width="1.5" d="M0,-3.0v7 M-2.5,-0.5L0,-3.0L2.5,-0.5"/>
  </g>
  <g id="arrowRight" transform="rotate(90) translate(36 -43)">
    <use xlink:href="#rim"/>
    <path pointer-events="none" fill="none" stroke="white" stroke-width="1.5" d="M0,-3.0v7 M-2.5,-0.5L0,-3.0L2.5,-0.5"/>
  </g>
  <g id="arrowDown" transform="rotate(180) translate(-30 -48)">
    <use xlink:href="#rim"/>
    <path pointer-events="none" fill="none" stroke="white" stroke-width="1.5" d="M0,-3.0v7 M-2.5,-0.5L0,-3.0L2.5,-0.5"/>
  </g>
  <g id="arrowLeft" transform="rotate(270) translate(-36 17)">
    <use xlink:href="#rim"/>
    <path pointer-events="none" fill="none" stroke="white" stroke-width="1.5" d="M0,-3.0v7 M-2.5,-0.5L0,-3.0L2.5,-0.5"/>
  </g>
  <g id="resetDef">
    <use xlink:href="#rim2" fill="#404040"><set attributeName="fill" to="#808080" begin="reset.mouseover" end="reset.mouseout"/></use>
  </g>
</defs>
<script type="application/ecmascript">
var viewWidth = 1384;
var viewHeight = 403;
var sectionId = 'dynsection-76';
</script>
<script type="application/ecmascript" xlink:href="svg.min.js"/>
<svg id="graph" class="graph">
<g id="viewport">
<title>MovementManager::moveJump</title>
<!-- Node1 -->
<g id="Node000001" class="node">
<title>Node1</title>
<g id="a_Node000001"><a xlink:title=" ">
<polygon fill="#999999" stroke="#666666" points="170,-94 0,-94 0,-75 170,-75 170,-94"/>
<text text-anchor="middle" x="85" y="-82" font-family="Helvetica,sans-Serif" font-size="10.00">MovementManager::moveJump</text>
</a>
</g>
</g>
<!-- Node2 -->
<g id="Node000002" class="node">
<title>Node2</title>
<g id="a_Node000002"><a xlink:href="classMovementManager.html#a1340623be775af3879492949dc60d34d" target="_top" xlink:title=" ">
<polygon fill="white" stroke="#666666" points="350.5,-137 214.5,-137 214.5,-118 350.5,-118 350.5,-137"/>
<text text-anchor="middle" x="282.5" y="-125" font-family="Helvetica,sans-Serif" font-size="10.00">MovementManager::add</text>
</a>
</g>
</g>
<!-- Node1&#45;&gt;Node2 -->
<g id="edge1_Node000001_Node000002" class="edge">
<title>Node1&#45;&gt;Node2</title>
<g id="a_edge1_Node000001_Node000002"><a xlink:title=" ">
<path fill="none" stroke="#63b8ff" d="M129.39,-94.04C158.62,-100.47 197.37,-109 228.44,-115.83"/>
<polygon fill="#63b8ff" stroke="#63b8ff" points="227.72,-119.25 238.23,-117.98 229.22,-112.42 227.72,-119.25"/>
</a>
</g>
</g>
<!-- Node16 -->
<g id="Node000016" class="node">
<title>Node16</title>
<g id="a_Node000016"><a xlink:href="namespaceMovementMgr.html#af7ed6c084c731929054d815dd68873c6" target="_top" xlink:title=" ">
<polygon fill="white" stroke="#666666" points="359,-99.5 206,-99.5 206,-69.5 359,-69.5 359,-99.5"/>
<text text-anchor="start" x="214" y="-87.5" font-family="Helvetica,sans-Serif" font-size="10.00">MovementMgr::computeFall</text>
<text text-anchor="middle" x="282.5" y="-76.5" font-family="Helvetica,sans-Serif" font-size="10.00">Elevation</text>
</a>
</g>
</g>
<!-- Node1&#45;&gt;Node16 -->
<g id="edge21_Node000001_Node000016" class="edge">
<title>Node1&#45;&gt;Node16</title>
<g id="a_edge21_Node000001_Node000016"><a xlink:title=" ">
<path fill="none" stroke="#63b8ff" d="M170.04,-84.5C178.51,-84.5 187.11,-84.5 195.59,-84.5"/>
<polygon fill="#63b8ff" stroke="#63b8ff" points="195.85,-88 205.85,-84.5 195.85,-81 195.85,-88"/>
</a>
</g>
</g>
<!-- Node17 -->
<g id="Node000017" class="node">
<title>Node17</title>
<g id="a_Node000017"><a xlink:href="ltm__desc_8c.html#a4f8948d7c94899bf8ddee4721114d593" target="_top" xlink:title=" ">
<polygon fill="white" stroke="#666666" points="298.5,-51 266.5,-51 266.5,-32 298.5,-32 298.5,-51"/>
<text text-anchor="middle" x="282.5" y="-39" font-family="Helvetica,sans-Serif" font-size="10.00">init</text>
</a>
</g>
</g>
<!-- Node1&#45;&gt;Node17 -->
<g id="edge22_Node000001_Node000017" class="edge">
<title>Node1&#45;&gt;Node17</title>
<g id="a_edge22_Node000001_Node000017"><a xlink:title=" ">
<path fill="none" stroke="#63b8ff" d="M129.39,-74.96C168.4,-66.38 224.35,-54.07 256.39,-47.02"/>
<polygon fill="#63b8ff" stroke="#63b8ff" points="257.27,-50.41 266.29,-44.85 255.77,-43.58 257.27,-50.41"/>
</a>
</g>
</g>
<!-- Node2&#45;&gt;Node2 -->
<g id="edge2_Node000002_Node000002" class="edge">
<title>Node2&#45;&gt;Node2</title>
<g id="a_edge2_Node000002_Node000002"><a xlink:title=" ">
<path fill="none" stroke="#63b8ff" d="M252.6,-137.08C238.05,-145.73 248.02,-155 282.5,-155 306.21,-155 318.32,-150.62 318.86,-145.07"/>
<polygon fill="#63b8ff" stroke="#63b8ff" points="321.41,-142.66 312.4,-137.08 315.96,-147.06 321.41,-142.66"/>
</a>
</g>
</g>
<!-- Node3 -->
<g id="Node000003" class="node">
<title>Node3</title>
<g id="a_Node000003"><a xlink:href="classMovementManager.html#ad6af3abae7c0cacb492fb0612bac2ffb" target="_top" xlink:title=" ">
<polygon fill="white" stroke="#666666" points="559,-260 395,-260 395,-241 559,-241 559,-260"/>
<text text-anchor="middle" x="477" y="-248" font-family="Helvetica,sans-Serif" font-size="10.00">MovementManager::directAdd</text>
</a>
</g>
</g>
<!-- Node2&#45;&gt;Node3 -->
<g id="edge3_Node000002_Node000003" class="edge">
<title>Node2&#45;&gt;Node3</title>
<g id="a_edge3_Node000002_Node000003"><a xlink:title=" ">
<path fill="none" stroke="#63b8ff" d="M298.61,-137.15C331.99,-158.48 412.26,-209.77 452.37,-235.4"/>
<polygon fill="#63b8ff" stroke="#63b8ff" points="450.65,-238.46 460.97,-240.89 454.42,-232.56 450.65,-238.46"/>
</a>
</g>
</g>
<!-- Node14 -->
<g id="Node000014" class="node">
<title>Node14</title>
<g id="a_Node000014"><a xlink:href="classMovementManager.html#aa7cc3ad1c19a26296bd100036f2f9010" target="_top" xlink:title=" ">
<polygon fill="white" stroke="#666666" points="954.5,-136 798.5,-136 798.5,-117 954.5,-117 954.5,-136"/>
<text text-anchor="middle" x="876.5" y="-124" font-family="Helvetica,sans-Serif" font-size="10.00">MovementManager::hasFlag</text>
</a>
</g>
</g>
<!-- Node2&#45;&gt;Node14 -->
<g id="edge19_Node000002_Node000014" class="edge">
<title>Node2&#45;&gt;Node14</title>
<g id="a_edge19_Node000002_Node000014"><a xlink:title=" ">
<path fill="none" stroke="#63b8ff" d="M350.55,-127.39C458.06,-127.21 669,-126.85 788.15,-126.65"/>
<polygon fill="#63b8ff" stroke="#63b8ff" points="788.34,-130.15 798.33,-126.63 788.33,-123.15 788.34,-130.15"/>
</a>
</g>
</g>
<!-- Node15 -->
<g id="Node000015" class="node">
<title>Node15</title>
<g id="a_Node000015"><a xlink:href="MovementDefines_8h.html#ad8cdfa8e18b2a93192e3d4101a10388a" target="_top" xlink:title=" ">
<polygon fill="white" stroke="#666666" points="941,-99 812,-99 812,-80 941,-80 941,-99"/>
<text text-anchor="middle" x="876.5" y="-87" font-family="Helvetica,sans-Serif" font-size="10.00">isInvalidMovementSlot</text>
</a>
</g>
</g>
<!-- Node2&#45;&gt;Node15 -->
<g id="edge20_Node000002_Node000015" class="edge">
<title>Node2&#45;&gt;Node15</title>
<g id="a_edge20_Node000002_Node000015"><a xlink:title=" ">
<path fill="none" stroke="#63b8ff" d="M350.55,-123.2C462.21,-116.03 685.45,-101.7 801.54,-94.25"/>
<polygon fill="#63b8ff" stroke="#63b8ff" points="802,-97.73 811.75,-93.59 801.55,-90.74 802,-97.73"/>
</a>
</g>
</g>
<!-- Node4 -->
<g id="Node000004" class="node">
<title>Node4</title>
<g id="a_Node000004"><a xlink:href="classMovementManager.html#ad4d2ac6a143f74472c131de062862999" target="_top" xlink:title=" ">
<polygon fill="white" stroke="#666666" points="755,-394.5 595,-394.5 595,-364.5 755,-364.5 755,-394.5"/>
<text text-anchor="start" x="603" y="-382.5" font-family="Helvetica,sans-Serif" font-size="10.00">MovementManager::addBase</text>
<text text-anchor="middle" x="675" y="-371.5" font-family="Helvetica,sans-Serif" font-size="10.00">UnitState</text>
</a>
</g>
</g>
<!-- Node3&#45;&gt;Node4 -->
<g id="edge4_Node000003_Node000004" class="edge">
<title>Node3&#45;&gt;Node4</title>
<g id="a_edge4_Node000003_Node000004"><a xlink:title=" ">
<path fill="none" stroke="#63b8ff" d="M486.82,-260.05C505.23,-279.48 549.8,-324.05 595,-350.5 601.33,-354.2 608.21,-357.57 615.19,-360.59"/>
<polygon fill="#63b8ff" stroke="#63b8ff" points="614.14,-363.94 624.72,-364.49 616.79,-357.46 614.14,-363.94"/>
</a>
</g>
</g>
<!-- Node6 -->
<g id="Node000006" class="node">
<title>Node6</title>
<g id="a_Node000006"><a xlink:href="classMovementManager.html#a9279c501cd8be1aa5be3aae9a85835f1" target="_top" xlink:title=" ">
<polygon fill="white" stroke="#666666" points="1376,-330 1219,-330 1219,-311 1376,-311 1376,-330"/>
<text text-anchor="middle" x="1297.5" y="-318" font-family="Helvetica,sans-Serif" font-size="10.00">MovementManager::addFlag</text>
</a>
</g>
</g>
<!-- Node3&#45;&gt;Node6 -->
<g id="edge6_Node000003_Node000006" class="edge">
<title>Node3&#45;&gt;Node6</title>
<g id="a_edge6_Node000003_Node000006"><a xlink:title=" ">
<path fill="none" stroke="#63b8ff" d="M511.44,-260.03C568.3,-275.69 687.69,-306.26 791,-317.5 936.71,-333.36 1107.45,-329.8 1208.55,-325.41"/>
<polygon fill="#63b8ff" stroke="#63b8ff" points="1208.88,-328.9 1218.71,-324.96 1208.57,-321.91 1208.88,-328.9"/>
</a>
</g>
</g>
<!-- Node7 -->
<g id="Node000007" class="node">
<title>Node7</title>
<g id="a_Node000007"><a xlink:href="MovementManager_8cpp.html#a05fec3371a9aee5a6448115a645a505d" target="_top" xlink:title=" ">
<polygon fill="white" stroke="#666666" points="1117,-263 1064,-263 1064,-244 1117,-244 1117,-263"/>
<text text-anchor="middle" x="1090.5" y="-251" font-family="Helvetica,sans-Serif" font-size="10.00">isStatic</text>
</a>
</g>
</g>
<!-- Node3&#45;&gt;Node7 -->
<g id="edge7_Node000003_Node000007" class="edge">
<title>Node3&#45;&gt;Node7</title>
<g id="a_edge7_Node000003_Node000007"><a xlink:title=" ">
<path fill="none" stroke="#63b8ff" d="M559.2,-250.9C693.85,-251.56 958,-252.85 1053.76,-253.32"/>
<polygon fill="#63b8ff" stroke="#63b8ff" points="1053.78,-256.82 1063.8,-253.37 1053.82,-249.82 1053.78,-256.82"/>
</a>
</g>
</g>
<!-- Node9 -->
<g id="Node000009" class="node">
<title>Node9</title>
<g id="a_Node000009"><a xlink:href="classMovementManager.html#a151552ff71fb6eadaca8d4d4b110824d" target="_top" xlink:title=" ">
<polygon fill="white" stroke="#666666" points="752.5,-191 597.5,-191 597.5,-172 752.5,-172 752.5,-191"/>
<text text-anchor="middle" x="675" y="-179" font-family="Helvetica,sans-Serif" font-size="10.00">MovementManager::remove</text>
</a>
</g>
</g>
<!-- Node3&#45;&gt;Node9 -->
<g id="edge9_Node000003_Node000009" class="edge">
<title>Node3&#45;&gt;Node9</title>
<g id="a_edge9_Node000003_Node000009"><a xlink:title=" ">
<path fill="none" stroke="#63b8ff" d="M505.25,-240.91C539.63,-228.8 598.87,-207.95 637.23,-194.45"/>
<polygon fill="#63b8ff" stroke="#63b8ff" points="638.71,-197.63 646.98,-191.01 636.38,-191.03 638.71,-197.63"/>
</a>
</g>
</g>
<!-- Node5 -->
<g id="Node000005" class="node">
<title>Node5</title>
<g id="a_Node000005"><a xlink:href="classUnit.html#a476fa6a71e1488221771dff4550b58ac" target="_top" xlink:title=" ">
<polygon fill="white" stroke="#666666" points="940.5,-389 812.5,-389 812.5,-370 940.5,-370 940.5,-389"/>
<text text-anchor="middle" x="876.5" y="-377" font-family="Helvetica,sans-Serif" font-size="10.00">Unit::addUnitStateFlag</text>
</a>
</g>
</g>
<!-- Node4&#45;&gt;Node5 -->
<g id="edge5_Node000004_Node000005" class="edge">
<title>Node4&#45;&gt;Node5</title>
<g id="a_edge5_Node000004_Node000005"><a xlink:title=" ">
<path fill="none" stroke="#63b8ff" d="M755.13,-379.5C770.6,-379.5 786.76,-379.5 802.04,-379.5"/>
<polygon fill="#63b8ff" stroke="#63b8ff" points="802.45,-383 812.45,-379.5 802.45,-376 802.45,-383"/>
</a>
</g>
</g>
<!-- Node8 -->
<g id="Node000008" class="node">
<title>Node8</title>
<g id="a_Node000008"><a xlink:href="MovementManager_8cpp.html#a867ee2f9661203918eb1374e76d560c7" target="_top" xlink:title=" ">
<polygon fill="white" stroke="#666666" points="1373.5,-281 1221.5,-281 1221.5,-262 1373.5,-262 1373.5,-281"/>
<text text-anchor="middle" x="1297.5" y="-269" font-family="Helvetica,sans-Serif" font-size="10.00">getIdleMovementGenerator</text>
</a>
</g>
</g>
<!-- Node7&#45;&gt;Node8 -->
<g id="edge8_Node000007_Node000008" class="edge">
<title>Node7&#45;&gt;Node8</title>
<g id="a_edge8_Node000007_Node000008"><a xlink:title=" ">
<path fill="none" stroke="#63b8ff" d="M1117.05,-255.74C1140.59,-257.81 1176.89,-261 1210.7,-263.97"/>
<polygon fill="#63b8ff" stroke="#63b8ff" points="1210.82,-267.49 1221.09,-264.88 1211.44,-260.52 1210.82,-267.49"/>
</a>
</g>
</g>
<!-- Node9&#45;&gt;Node9 -->
<g id="edge18_Node000009_Node000009" class="edge">
<title>Node9&#45;&gt;Node9</title>
<g id="a_edge18_Node000009_Node000009"><a xlink:title=" ">
<path fill="none" stroke="#63b8ff" d="M644.48,-191.08C629.64,-199.73 639.81,-209 675,-209 699.74,-209 712.12,-204.42 712.12,-198.69"/>
<polygon fill="#63b8ff" stroke="#63b8ff" points="714.72,-196.34 705.52,-191.08 709.43,-200.93 714.72,-196.34"/>
</a>
</g>
</g>
<!-- Node10 -->
<g id="Node000010" class="node">
<title>Node10</title>
<g id="a_Node000010"><a xlink:href="classMovementManager.html#a0391adbd47fffa0ee8a4e296139ce0e3" target="_top" xlink:title=" ">
<polygon fill="white" stroke="#666666" points="962,-308.5 791,-308.5 791,-278.5 962,-278.5 962,-308.5"/>
<text text-anchor="start" x="799" y="-296.5" font-family="Helvetica,sans-Serif" font-size="10.00">MovementManager::directClear</text>
<text text-anchor="middle" x="876.5" y="-285.5" font-family="Helvetica,sans-Serif" font-size="10.00">Default</text>
</a>
</g>
</g>
<!-- Node9&#45;&gt;Node10 -->
<g id="edge10_Node000009_Node000010" class="edge">
<title>Node9&#45;&gt;Node10</title>
<g id="a_edge10_Node000009_Node000010"><a xlink:title=" ">
<path fill="none" stroke="#63b8ff" d="M693.01,-191.05C725.38,-209.22 796.48,-249.14 839.75,-273.43"/>
<polygon fill="#63b8ff" stroke="#63b8ff" points="838.11,-276.52 848.54,-278.37 841.54,-270.42 838.11,-276.52"/>
</a>
</g>
</g>
<!-- Node12 -->
<g id="Node000012" class="node">
<title>Node12</title>
<g id="a_Node000012"><a xlink:href="classMovementManager.html#ae7069e04b505c65968a300d463ecf128" target="_top" xlink:title=" ">
<polygon fill="white" stroke="#666666" points="951,-222 802,-222 802,-203 951,-203 951,-222"/>
<text text-anchor="middle" x="876.5" y="-210" font-family="Helvetica,sans-Serif" font-size="10.00">MovementManager::empty</text>
</a>
</g>
</g>
<!-- Node9&#45;&gt;Node12 -->
<g id="edge14_Node000009_Node000012" class="edge">
<title>Node9&#45;&gt;Node12</title>
<g id="a_edge14_Node000009_Node000012"><a xlink:title=" ">
<path fill="none" stroke="#63b8ff" d="M737.21,-191.01C758.37,-194.3 782.26,-198.01 804.16,-201.41"/>
<polygon fill="#63b8ff" stroke="#63b8ff" points="803.64,-204.88 814.06,-202.95 804.72,-197.96 803.64,-204.88"/>
</a>
</g>
</g>
<!-- Node13 -->
<g id="Node000013" class="node">
<title>Node13</title>
<g id="a_Node000013"><a xlink:href="classMovementManager.html#a27fb232bc85f34a6e102604abeea7836" target="_top" xlink:title=" ">
<polygon fill="white" stroke="#666666" points="961.5,-184.5 791.5,-184.5 791.5,-154.5 961.5,-154.5 961.5,-184.5"/>
<text text-anchor="start" x="799.5" y="-172.5" font-family="Helvetica,sans-Serif" font-size="10.00">MovementManager::getCurrent</text>
<text text-anchor="middle" x="876.5" y="-161.5" font-family="Helvetica,sans-Serif" font-size="10.00">MovementGenerator</text>
</a>
</g>
</g>
<!-- Node9&#45;&gt;Node13 -->
<g id="edge15_Node000009_Node000013" class="edge">
<title>Node9&#45;&gt;Node13</title>
<g id="a_edge15_Node000009_Node000013"><a xlink:title=" ">
<path fill="none" stroke="#63b8ff" d="M752.56,-176.89C761.84,-176.34 771.4,-175.76 780.91,-175.19"/>
<polygon fill="#63b8ff" stroke="#63b8ff" points="781.4,-178.67 791.17,-174.57 780.98,-171.68 781.4,-178.67"/>
</a>
</g>
</g>
<!-- Node9&#45;&gt;Node14 -->
<g id="edge16_Node000009_Node000014" class="edge">
<title>Node9&#45;&gt;Node14</title>
<g id="a_edge16_Node000009_Node000014"><a xlink:title=" ">
<path fill="none" stroke="#63b8ff" d="M704.17,-171.97C727.33,-164.31 761.1,-153.53 791,-145.5 800.27,-143.01 810.17,-140.58 819.81,-138.34"/>
<polygon fill="#63b8ff" stroke="#63b8ff" points="820.76,-141.71 829.72,-136.07 819.2,-134.89 820.76,-141.71"/>
</a>
</g>
</g>
<!-- Node9&#45;&gt;Node15 -->
<g id="edge17_Node000009_Node000015" class="edge">
<title>Node9&#45;&gt;Node15</title>
<g id="a_edge17_Node000009_Node000015"><a xlink:title=" ">
<path fill="none" stroke="#63b8ff" d="M687.98,-171.89C708.08,-156.26 750.37,-125.36 791,-108.5 797.16,-105.94 803.72,-103.7 810.36,-101.75"/>
<polygon fill="#63b8ff" stroke="#63b8ff" points="811.38,-105.09 820.1,-99.08 809.53,-98.34 811.38,-105.09"/>
</a>
</g>
</g>
<!-- Node11 -->
<g id="Node000011" class="node">
<title>Node11</title>
<g id="a_Node000011"><a xlink:href="classMovementManager.html#a714cd62791855e37c57678b9abd73bc0" target="_top" xlink:title=" ">
<polygon fill="white" stroke="#666666" points="1183,-303 998,-303 998,-284 1183,-284 1183,-303"/>
<text text-anchor="middle" x="1090.5" y="-291" font-family="Helvetica,sans-Serif" font-size="10.00">MovementManager::deleteDefault</text>
</a>
</g>
</g>
<!-- Node10&#45;&gt;Node11 -->
<g id="edge11_Node000010_Node000011" class="edge">
<title>Node10&#45;&gt;Node11</title>
<g id="a_edge11_Node000010_Node000011"><a xlink:title=" ">
<path fill="none" stroke="#63b8ff" d="M962.2,-293.5C970.66,-293.5 979.3,-293.5 987.91,-293.5"/>
<polygon fill="#63b8ff" stroke="#63b8ff" points="987.98,-297 997.98,-293.5 987.98,-290 987.98,-297"/>
</a>
</g>
</g>
<!-- Node11&#45;&gt;Node6 -->
<g id="edge12_Node000011_Node000006" class="edge">
<title>Node11&#45;&gt;Node6</title>
<g id="a_edge12_Node000011_Node000006"><a xlink:title=" ">
<path fill="none" stroke="#63b8ff" d="M1163.78,-303.02C1180,-305.16 1197.34,-307.44 1213.95,-309.63"/>
<polygon fill="#63b8ff" stroke="#63b8ff" points="1213.81,-313.14 1224.19,-310.98 1214.73,-306.2 1213.81,-313.14"/>
</a>
</g>
</g>
<!-- Node11&#45;&gt;Node8 -->
<g id="edge13_Node000011_Node000008" class="edge">
<title>Node11&#45;&gt;Node8</title>
<g id="a_edge13_Node000011_Node000008"><a xlink:title=" ">
<path fill="none" stroke="#63b8ff" d="M1180.22,-283.98C1190.53,-282.87 1201.03,-281.75 1211.29,-280.64"/>
<polygon fill="#63b8ff" stroke="#63b8ff" points="1211.88,-284.1 1221.45,-279.55 1211.13,-277.14 1211.88,-284.1"/>
</a>
</g>
</g>
<!-- Node18 -->
<g id="Node000018" class="node">
<title>Node18</title>
<g id="a_Node000018"><a xlink:href="bn__mp__init_8c.html#af40a43523654299f5178fb2d2d0c2211" target="_top" xlink:title=" ">
<polygon fill="white" stroke="#666666" points="503.5,-56 450.5,-56 450.5,-37 503.5,-37 503.5,-56"/>
<text text-anchor="middle" x="477" y="-44" font-family="Helvetica,sans-Serif" font-size="10.00">mp_init</text>
</a>
</g>
</g>
<!-- Node17&#45;&gt;Node18 -->
<g id="edge23_Node000017_Node000018" class="edge">
<title>Node17&#45;&gt;Node18</title>
<g id="a_edge23_Node000017_Node000018"><a xlink:title=" ">
<path fill="none" stroke="#63b8ff" d="M298.61,-41.89C328.84,-42.68 397.52,-44.46 440,-45.57"/>
<polygon fill="#63b8ff" stroke="#63b8ff" points="440.11,-49.07 450.2,-45.83 440.3,-42.07 440.11,-49.07"/>
</a>
</g>
</g>
<!-- Node19 -->
<g id="Node000019" class="node">
<title>Node19</title>
<g id="a_Node000019"><a xlink:href="ltm__desc_8c.html#abc21dd3358332c6bcdd2ec873ab5c5a6" target="_top" xlink:title=" ">
<polygon fill="white" stroke="#666666" points="525,-19 429,-19 429,0 525,0 525,-19"/>
<text text-anchor="middle" x="477" y="-7" font-family="Helvetica,sans-Serif" font-size="10.00">mpi_to_ltc_error</text>
</a>
</g>
</g>
<!-- Node17&#45;&gt;Node19 -->
<g id="edge24_Node000017_Node000019" class="edge">
<title>Node17&#45;&gt;Node19</title>
<g id="a_edge24_Node000017_Node000019"><a xlink:title=" ">
<path fill="none" stroke="#63b8ff" d="M298.61,-38.99C324.15,-34.74 377.16,-25.93 418.61,-19.04"/>
<polygon fill="#63b8ff" stroke="#63b8ff" points="419.31,-22.47 428.6,-17.38 418.16,-15.57 419.31,-22.47"/>
</a>
</g>
</g>
</g>
</svg>

<g id="navigator" transform="translate(0 0)" fill="#404254">
  <rect fill="#f2f5e9" fill-opacity="0.5" stroke="#606060" stroke-width=".5" x="0" y="0" width="60" height="60"/>
  <use id="zoomplus" xlink:href="#zoomPlus" x="17" y="9" onmousedown="handleZoom(evt,'in')"/>
  <use id="zoomminus" xlink:href="#zoomMin" x="42" y="9" onmousedown="handleZoom(evt,'out')"/>
  <use id="reset" xlink:href="#resetDef" x="30" y="36" onmousedown="handleReset()"/>
   <use id="arrowup" xlink:href="#arrowUp" x="0" y="0" onmousedown="handlePan(0,-1)"/>
  <use id="arrowright" xlink:href="#arrowRight" x="0" y="0" onmousedown="handlePan(1,0)"/>
  <use id="arrowdown" xlink:href="#arrowDown" x="0" y="0" onmousedown="handlePan(0,1)"/>
  <use id="arrowleft" xlink:href="#arrowLeft" x="0" y="0" onmousedown="handlePan(-1,0)"/>
</g>
<svg viewBox="0 0 15 15" width="100%" height="30px" preserveAspectRatio="xMaxYMin meet">
 <g id="arrow_out" transform="scale(0.3 0.3)">
  <a xlink:href="classMovementManager_a6df6a887507017564515baa904f82cd9_cgraph_org.svg" target="_base">
   <rect id="button" ry="5" rx="5" y="6" x="6" height="38" width="38"
        fill="#f2f5e9" fill-opacity="0.5" stroke="#606060" stroke-width="1.0"/>
   <path id="arrow"
     d="M 11.500037,31.436501 C 11.940474,20.09759 22.043105,11.32322 32.158766,21.979434 L 37.068811,17.246167 C 37.068811,17.246167 37.088388,32 37.088388,32 L 22.160133,31.978069 C 22.160133,31.978069 26.997745,27.140456 26.997745,27.140456 C 18.528582,18.264221 13.291696,25.230495 11.500037,31.436501 z"
     style="fill:#404040;"/>
  </a>
 </g>
</svg>

<style type='text/css'>
<![CDATA[
[data-mouse-over-selected='false'] { opacity: 0.7; }
[data-mouse-over-selected='true']  { opacity: 1.0; }
]]>
</style>
<script type="application/ecmascript"><![CDATA[
document.addEventListener('DOMContentLoaded', (event) => {
  highlightEdges();
  highlightAdjacentNodes();
});
]]></script>
</svg>
