<?xml version="1.0" encoding="UTF-8" standalone="no"?>
<!DOCTYPE svg PUBLIC "-//W3C//DTD SVG 1.1//EN"
 "http://www.w3.org/Graphics/SVG/1.1/DTD/svg11.dtd">
<!-- Generated by graphviz version 2.43.0 (0)
 -->
<!-- Title: G3D::Capsule::getReferenceFrame Pages: 1 -->
<!--zoomable 249 -->

<svg id="main" version="1.1" xmlns="http://www.w3.org/2000/svg" xmlns:xlink="http://www.w3.org/1999/xlink" xml:space="preserve" onload="init(evt)">
<style type="text/css"><![CDATA[
.node, .edge {opacity: 0.7;}
.node.selected, .edge.selected {opacity: 1;}
.edge:hover path { stroke: red; }
.edge:hover polygon { stroke: red; fill: red; }
]]></style>

<defs>
  <circle id="rim" cx="0" cy="0" r="7"/>
  <circle id="rim2" cx="0" cy="0" r="3.5"/>
  <g id="zoomPlus">
    <use xlink:href="#rim" fill="#404040"><set attributeName="fill" to="#808080" begin="zoomplus.mouseover" end="zoomplus.mouseout"/></use>
    <path d="M-4,0h8M0,-4v8" fill="none" stroke="white" stroke-width="1.5" pointer-events="none"/>
  </g>
  <g id="zoomMin">
    <use xlink:href="#rim" fill="#404040"><set attributeName="fill" to="#808080" begin="zoomminus.mouseover" end="zoomminus.mouseout"/></use>
    <path d="M-4,0h8" fill="none" stroke="white" stroke-width="1.5" pointer-events="none"/>
  </g>
  <g id="arrowUp" transform="translate(30 24)">
    <use xlink:href="#rim"/>
    <path pointer-events="none" fill="none" stroke="white" stroke-width="1.5" d="M0,-3.0v7 M-2.5,-0.5L0,-3.0L2.5,-0.5"/>
  </g>
  <g id="arrowRight" transform="rotate(90) translate(36 -43)">
    <use xlink:href="#rim"/>
    <path pointer-events="none" fill="none" stroke="white" stroke-width="1.5" d="M0,-3.0v7 M-2.5,-0.5L0,-3.0L2.5,-0.5"/>
  </g>
  <g id="arrowDown" transform="rotate(180) translate(-30 -48)">
    <use xlink:href="#rim"/>
    <path pointer-events="none" fill="none" stroke="white" stroke-width="1.5" d="M0,-3.0v7 M-2.5,-0.5L0,-3.0L2.5,-0.5"/>
  </g>
  <g id="arrowLeft" transform="rotate(270) translate(-36 17)">
    <use xlink:href="#rim"/>
    <path pointer-events="none" fill="none" stroke="white" stroke-width="1.5" d="M0,-3.0v7 M-2.5,-0.5L0,-3.0L2.5,-0.5"/>
  </g>
  <g id="resetDef">
    <use xlink:href="#rim2" fill="#404040"><set attributeName="fill" to="#808080" begin="reset.mouseover" end="reset.mouseout"/></use>
  </g>
</defs>
<script type="application/ecmascript">
var viewWidth = 551;
var viewHeight = 249;
var sectionId = 'dynsection-10';
</script>
<script type="application/ecmascript" xlink:href="svg.min.js"/>
<svg id="graph" class="graph">
<g id="viewport">
<title>G3D::Capsule::getReferenceFrame</title>
<!-- Node1 -->
<g id="Node000001" class="node">
<title>Node1</title>
<g id="a_Node000001"><a xlink:title=" ">
<polygon fill="#999999" stroke="#666666" points="154,-135.5 0,-135.5 0,-105.5 154,-105.5 154,-135.5"/>
<text text-anchor="start" x="8" y="-123.5" font-family="Helvetica,sans-Serif" font-size="10.00">G3D::Capsule::getReference</text>
<text text-anchor="middle" x="77" y="-112.5" font-family="Helvetica,sans-Serif" font-size="10.00">Frame</text>
</a>
</g>
</g>
<!-- Node2 -->
<g id="Node000002" class="node">
<title>Node2</title>
<g id="a_Node000002"><a xlink:href="namespaceG3D.html#aca937b9666bc57d5f6319bcbd847fd4c" target="_top" xlink:title=" ">
<polygon fill="white" stroke="#666666" points="290.5,-241 229.5,-241 229.5,-222 290.5,-222 290.5,-241"/>
<text text-anchor="middle" x="260" y="-229" font-family="Helvetica,sans-Serif" font-size="10.00">G3D::abs</text>
</a>
</g>
</g>
<!-- Node1&#45;&gt;Node2 -->
<g id="edge1_Node000001_Node000002" class="edge">
<title>Node1&#45;&gt;Node2</title>
<g id="a_edge1_Node000001_Node000002"><a xlink:title=" ">
<path fill="none" stroke="#63b8ff" d="M92.04,-135.77C111.89,-156.44 150.2,-193.08 190,-213.5 199.17,-218.21 209.67,-221.75 219.67,-224.4"/>
<polygon fill="#63b8ff" stroke="#63b8ff" points="218.89,-227.81 229.43,-226.76 220.53,-221.01 218.89,-227.81"/>
</a>
</g>
</g>
<!-- Node3 -->
<g id="Node000003" class="node">
<title>Node3</title>
<g id="a_Node000003"><a xlink:href="classG3D_1_1Capsule.html#a8dc5aca7f57e2df5a805ae66f43d44b2" target="_top" xlink:title=" ">
<polygon fill="white" stroke="#666666" points="319.5,-204 200.5,-204 200.5,-185 319.5,-185 319.5,-204"/>
<text text-anchor="middle" x="260" y="-192" font-family="Helvetica,sans-Serif" font-size="10.00">G3D::Capsule::center</text>
</a>
</g>
</g>
<!-- Node1&#45;&gt;Node3 -->
<g id="edge2_Node000001_Node000003" class="edge">
<title>Node1&#45;&gt;Node3</title>
<g id="a_edge2_Node000001_Node000003"><a xlink:title=" ">
<path fill="none" stroke="#63b8ff" d="M104.45,-135.7C126.71,-148.01 159.68,-165.11 190,-176.5 195.42,-178.54 201.16,-180.43 206.93,-182.16"/>
<polygon fill="#63b8ff" stroke="#63b8ff" points="206.02,-185.55 216.6,-184.93 207.95,-178.82 206.02,-185.55"/>
</a>
</g>
</g>
<!-- Node4 -->
<g id="Node000004" class="node">
<title>Node4</title>
<g id="a_Node000004"><a xlink:href="classG3D_1_1Vector3.html#a5430b1a90ea0b70a21e56e8664075689" target="_top" xlink:title=" ">
<polygon fill="white" stroke="#666666" points="316,-167 204,-167 204,-148 316,-148 316,-167"/>
<text text-anchor="middle" x="260" y="-155" font-family="Helvetica,sans-Serif" font-size="10.00">G3D::Vector3::cross</text>
</a>
</g>
</g>
<!-- Node1&#45;&gt;Node4 -->
<g id="edge3_Node000001_Node000004" class="edge">
<title>Node1&#45;&gt;Node4</title>
<g id="a_edge3_Node000001_Node000004"><a xlink:title=" ">
<path fill="none" stroke="#63b8ff" d="M151.62,-135.55C168.64,-139.03 186.49,-142.68 202.63,-145.98"/>
<polygon fill="#63b8ff" stroke="#63b8ff" points="201.95,-149.41 212.45,-147.98 203.35,-142.55 201.95,-149.41"/>
</a>
</g>
</g>
<!-- Node6 -->
<g id="Node000006" class="node">
<title>Node6</title>
<g id="a_Node000006"><a xlink:href="classG3D_1_1Vector3.html#a07d08331145b1bf91a457e1063751ae9" target="_top" xlink:title=" ">
<polygon fill="white" stroke="#666666" points="324.5,-130 195.5,-130 195.5,-111 324.5,-111 324.5,-130"/>
<text text-anchor="middle" x="260" y="-118" font-family="Helvetica,sans-Serif" font-size="10.00">G3D::Vector3::direction</text>
</a>
</g>
</g>
<!-- Node1&#45;&gt;Node6 -->
<g id="edge5_Node000001_Node000006" class="edge">
<title>Node1&#45;&gt;Node6</title>
<g id="a_edge5_Node000001_Node000006"><a xlink:title=" ">
<path fill="none" stroke="#63b8ff" d="M154.24,-120.5C164.53,-120.5 175.07,-120.5 185.31,-120.5"/>
<polygon fill="#63b8ff" stroke="#63b8ff" points="185.43,-124 195.43,-120.5 185.43,-117 185.43,-124"/>
</a>
</g>
</g>
<!-- Node8 -->
<g id="Node000008" class="node">
<title>Node8</title>
<g id="a_Node000008"><a xlink:href="classG3D_1_1Matrix3.html#ae1bfa5fa961ffd98cefffcd9b16ef2ed" target="_top" xlink:title=" ">
<polygon fill="white" stroke="#666666" points="330,-93 190,-93 190,-74 330,-74 330,-93"/>
<text text-anchor="middle" x="260" y="-81" font-family="Helvetica,sans-Serif" font-size="10.00">G3D::Matrix3::setColumn</text>
</a>
</g>
</g>
<!-- Node1&#45;&gt;Node8 -->
<g id="edge8_Node000001_Node000008" class="edge">
<title>Node1&#45;&gt;Node8</title>
<g id="a_edge8_Node000001_Node000008"><a xlink:title=" ">
<path fill="none" stroke="#63b8ff" d="M151.62,-105.45C168.64,-101.97 186.49,-98.32 202.63,-95.02"/>
<polygon fill="#63b8ff" stroke="#63b8ff" points="203.35,-98.45 212.45,-93.02 201.95,-91.59 203.35,-98.45"/>
</a>
</g>
</g>
<!-- Node9 -->
<g id="Node000009" class="node">
<title>Node9</title>
<g id="a_Node000009"><a xlink:href="classG3D_1_1Vector3.html#a7669f254a704358b831e7c12426cd438" target="_top" xlink:title=" ">
<polygon fill="white" stroke="#666666" points="316,-56 204,-56 204,-37 316,-37 316,-56"/>
<text text-anchor="middle" x="260" y="-44" font-family="Helvetica,sans-Serif" font-size="10.00">G3D::Vector3::unitX</text>
</a>
</g>
</g>
<!-- Node1&#45;&gt;Node9 -->
<g id="edge9_Node000001_Node000009" class="edge">
<title>Node1&#45;&gt;Node9</title>
<g id="a_edge9_Node000001_Node000009"><a xlink:title=" ">
<path fill="none" stroke="#63b8ff" d="M104.98,-105.46C127.27,-93.48 160.02,-76.87 190,-65.5 196.24,-63.13 202.91,-60.92 209.54,-58.9"/>
<polygon fill="#63b8ff" stroke="#63b8ff" points="210.56,-62.25 219.18,-56.09 208.6,-55.53 210.56,-62.25"/>
</a>
</g>
</g>
<!-- Node10 -->
<g id="Node000010" class="node">
<title>Node10</title>
<g id="a_Node000010"><a xlink:href="classG3D_1_1Vector3.html#a9d95e8492784a0fd4a3fcf096a996f43" target="_top" xlink:title=" ">
<polygon fill="white" stroke="#666666" points="315.5,-19 204.5,-19 204.5,0 315.5,0 315.5,-19"/>
<text text-anchor="middle" x="260" y="-7" font-family="Helvetica,sans-Serif" font-size="10.00">G3D::Vector3::unitY</text>
</a>
</g>
</g>
<!-- Node1&#45;&gt;Node10 -->
<g id="edge10_Node000001_Node000010" class="edge">
<title>Node1&#45;&gt;Node10</title>
<g id="a_edge10_Node000001_Node000010"><a xlink:title=" ">
<path fill="none" stroke="#63b8ff" d="M92.04,-105.23C111.89,-84.56 150.2,-47.92 190,-27.5 193.72,-25.59 197.65,-23.88 201.69,-22.33"/>
<polygon fill="#63b8ff" stroke="#63b8ff" points="202.91,-25.61 211.22,-19.03 200.62,-19 202.91,-25.61"/>
</a>
</g>
</g>
<!-- Node5 -->
<g id="Node000005" class="node">
<title>Node5</title>
<g id="a_Node000005"><a xlink:href="classG3D_1_1Vector3.html#ab67b8cd6401c6dce004df38ea7076882" target="_top" xlink:title=" ">
<polygon fill="white" stroke="#666666" points="516,-167 393,-167 393,-148 516,-148 516,-167"/>
<text text-anchor="middle" x="454.5" y="-155" font-family="Helvetica,sans-Serif" font-size="10.00">G3D::Vector3::Vector3</text>
</a>
</g>
</g>
<!-- Node4&#45;&gt;Node5 -->
<g id="edge4_Node000004_Node000005" class="edge">
<title>Node4&#45;&gt;Node5</title>
<g id="a_edge4_Node000004_Node000005"><a xlink:title=" ">
<path fill="none" stroke="#63b8ff" d="M316.16,-157.5C336.88,-157.5 360.72,-157.5 382.67,-157.5"/>
<polygon fill="#63b8ff" stroke="#63b8ff" points="382.93,-161 392.93,-157.5 382.93,-154 382.93,-161"/>
</a>
</g>
</g>
<!-- Node6&#45;&gt;Node5 -->
<g id="edge7_Node000006_Node000005" class="edge">
<title>Node6&#45;&gt;Node5</title>
<g id="a_edge7_Node000006_Node000005"><a xlink:title=" ">
<path fill="none" stroke="#63b8ff" d="M310.57,-130.03C335.96,-134.91 367.06,-140.89 393.76,-146.02"/>
<polygon fill="#63b8ff" stroke="#63b8ff" points="393.28,-149.49 403.76,-147.94 394.6,-142.61 393.28,-149.49"/>
</a>
</g>
</g>
<!-- Node7 -->
<g id="Node000007" class="node">
<title>Node7</title>
<g id="a_Node000007"><a xlink:href="classG3D_1_1Vector3.html#af659875a23e39cd6bc6c49f3359be634" target="_top" xlink:title=" ">
<polygon fill="white" stroke="#666666" points="543,-130 366,-130 366,-111 543,-111 543,-130"/>
<text text-anchor="middle" x="454.5" y="-118" font-family="Helvetica,sans-Serif" font-size="10.00">G3D::Vector3::squaredMagnitude</text>
</a>
</g>
</g>
<!-- Node6&#45;&gt;Node7 -->
<g id="edge6_Node000006_Node000007" class="edge">
<title>Node6&#45;&gt;Node7</title>
<g id="a_edge6_Node000006_Node000007"><a xlink:title=" ">
<path fill="none" stroke="#63b8ff" d="M324.57,-120.5C334.61,-120.5 345.19,-120.5 355.79,-120.5"/>
<polygon fill="#63b8ff" stroke="#63b8ff" points="355.95,-124 365.95,-120.5 355.95,-117 355.95,-124"/>
</a>
</g>
</g>
</g>
</svg>

<g id="navigator" transform="translate(0 0)" fill="#404254">
  <rect fill="#f2f5e9" fill-opacity="0.5" stroke="#606060" stroke-width=".5" x="0" y="0" width="60" height="60"/>
  <use id="zoomplus" xlink:href="#zoomPlus" x="17" y="9" onmousedown="handleZoom(evt,'in')"/>
  <use id="zoomminus" xlink:href="#zoomMin" x="42" y="9" onmousedown="handleZoom(evt,'out')"/>
  <use id="reset" xlink:href="#resetDef" x="30" y="36" onmousedown="handleReset()"/>
   <use id="arrowup" xlink:href="#arrowUp" x="0" y="0" onmousedown="handlePan(0,-1)"/>
  <use id="arrowright" xlink:href="#arrowRight" x="0" y="0" onmousedown="handlePan(1,0)"/>
  <use id="arrowdown" xlink:href="#arrowDown" x="0" y="0" onmousedown="handlePan(0,1)"/>
  <use id="arrowleft" xlink:href="#arrowLeft" x="0" y="0" onmousedown="handlePan(-1,0)"/>
</g>
<svg viewBox="0 0 15 15" width="100%" height="30px" preserveAspectRatio="xMaxYMin meet">
 <g id="arrow_out" transform="scale(0.3 0.3)">
  <a xlink:href="classG3D_1_1Capsule_a62ca6aebfa24d115343f00ab4201483a_cgraph_org.svg" target="_base">
   <rect id="button" ry="5" rx="5" y="6" x="6" height="38" width="38"
        fill="#f2f5e9" fill-opacity="0.5" stroke="#606060" stroke-width="1.0"/>
   <path id="arrow"
     d="M 11.500037,31.436501 C 11.940474,20.09759 22.043105,11.32322 32.158766,21.979434 L 37.068811,17.246167 C 37.068811,17.246167 37.088388,32 37.088388,32 L 22.160133,31.978069 C 22.160133,31.978069 26.997745,27.140456 26.997745,27.140456 C 18.528582,18.264221 13.291696,25.230495 11.500037,31.436501 z"
     style="fill:#404040;"/>
  </a>
 </g>
</svg>

<style type='text/css'>
<![CDATA[
[data-mouse-over-selected='false'] { opacity: 0.7; }
[data-mouse-over-selected='true']  { opacity: 1.0; }
]]>
</style>
<script type="application/ecmascript"><![CDATA[
document.addEventListener('DOMContentLoaded', (event) => {
  highlightEdges();
  highlightAdjacentNodes();
});
]]></script>
</svg>
