<?xml version="1.0" encoding="UTF-8" standalone="no"?>
<!DOCTYPE svg PUBLIC "-//W3C//DTD SVG 1.1//EN"
 "http://www.w3.org/Graphics/SVG/1.1/DTD/svg11.dtd">
<!-- Generated by graphviz version 2.43.0 (0)
 -->
<!-- Title: G3D::BufferPool Pages: 1 -->
<svg width="273pt" height="170pt"
 viewBox="0.00 0.00 272.50 170.00" xmlns="http://www.w3.org/2000/svg" xmlns:xlink="http://www.w3.org/1999/xlink">

<svg id="main" version="1.1" xmlns="http://www.w3.org/2000/svg" xmlns:xlink="http://www.w3.org/1999/xlink" xml:space="preserve" onload="init(evt)">
<style type="text/css"><![CDATA[
.node, .edge {opacity: 0.7;}
.node.selected, .edge.selected {opacity: 1;}
.edge:hover path { stroke: red; }
.edge:hover polygon { stroke: red; fill: red; }
]]></style>
<script type="application/ecmascript" xlink:href="svg.min.js"/>
<svg id="graph" class="graph">
<g id="graph0" class="graph" transform="scale(1 1) rotate(0) translate(4 166)">
<title>G3D::BufferPool</title>
<!-- Node1 -->
<g id="Node000001" class="node">
<title>Node1</title>
<g id="a_Node000001"><a xlink:title=" ">
<polygon fill="#999999" stroke="#666666" points="159,-19 65,-19 65,0 159,0 159,-19"/>
<text text-anchor="middle" x="112" y="-7" font-family="Helvetica,sans-Serif" font-size="10.00">G3D::BufferPool</text>
</a>
</g>
</g>
<!-- Node2 -->
<g id="Node000002" class="node">
<title>Node2</title>
<g id="a_Node000002"><a xlink:href="classG3D_1_1BufferPool_1_1MemBlock.html" target="_top" xlink:title=" ">
<polygon fill="white" stroke="#666666" points="152,-96 0,-96 0,-77 152,-77 152,-96"/>
<text text-anchor="middle" x="76" y="-84" font-family="Helvetica,sans-Serif" font-size="10.00">G3D::BufferPool::MemBlock</text>
</a>
</g>
</g>
<!-- Node2&#45;&gt;Node1 -->
<g id="edge1_Node000001_Node000002" class="edge">
<title>Node2&#45;&gt;Node1</title>
<g id="a_edge1_Node000001_Node000002"><a xlink:title=" ">
<path fill="none" stroke="#9a32cd" stroke-dasharray="5,2" d="M84.47,-67.86C91.85,-52.47 102.25,-30.82 107.92,-19"/>
<polygon fill="#9a32cd" stroke="#9a32cd" points="81.3,-66.37 80.13,-76.9 87.61,-69.4 81.3,-66.37"/>
</a>
</g>
<text text-anchor="middle" x="123.5" y="-51" font-family="Helvetica,sans-Serif" font-size="10.00" fill="grey"> medPool</text>
<text text-anchor="middle" x="123.5" y="-40" font-family="Helvetica,sans-Serif" font-size="10.00" fill="grey">smallPool</text>
</g>
<!-- Node3 -->
<g id="Node000003" class="node">
<title>Node3</title>
<g id="a_Node000003"><a xlink:href="classG3D_1_1Spinlock.html" target="_top" xlink:title="A mutual exclusion lock that busy&#45;waits when locking.">
<polygon fill="white" stroke="#666666" points="255.5,-96 170.5,-96 170.5,-77 255.5,-77 255.5,-96"/>
<text text-anchor="middle" x="213" y="-84" font-family="Helvetica,sans-Serif" font-size="10.00">G3D::Spinlock</text>
</a>
</g>
</g>
<!-- Node3&#45;&gt;Node1 -->
<g id="edge2_Node000001_Node000003" class="edge">
<title>Node3&#45;&gt;Node1</title>
<g id="a_edge2_Node000001_Node000003"><a xlink:title=" ">
<path fill="none" stroke="#9a32cd" stroke-dasharray="5,2" d="M194.95,-70.47C182.98,-60.67 166.8,-47.75 152,-37 143.37,-30.73 133.37,-24.11 125.53,-19.05"/>
<polygon fill="#9a32cd" stroke="#9a32cd" points="192.91,-73.32 202.85,-76.98 197.36,-67.92 192.91,-73.32"/>
</a>
</g>
<text text-anchor="middle" x="198.5" y="-45.5" font-family="Helvetica,sans-Serif" font-size="10.00" fill="grey"> m_lock</text>
</g>
<!-- Node4 -->
<g id="Node000004" class="node">
<title>Node4</title>
<g id="a_Node000004"><a xlink:href="classG3D_1_1AtomicInt32.html" target="_top" xlink:title=" ">
<polygon fill="white" stroke="#666666" points="264.5,-162 161.5,-162 161.5,-143 264.5,-143 264.5,-162"/>
<text text-anchor="middle" x="213" y="-150" font-family="Helvetica,sans-Serif" font-size="10.00">G3D::AtomicInt32</text>
</a>
</g>
</g>
<!-- Node4&#45;&gt;Node3 -->
<g id="edge3_Node000003_Node000004" class="edge">
<title>Node4&#45;&gt;Node3</title>
<g id="a_edge3_Node000003_Node000004"><a xlink:title=" ">
<path fill="none" stroke="#9a32cd" stroke-dasharray="5,2" d="M213,-132.58C213,-120.63 213,-105.72 213,-96.41"/>
<polygon fill="#9a32cd" stroke="#9a32cd" points="209.5,-132.87 213,-142.87 216.5,-132.87 209.5,-132.87"/>
</a>
</g>
<text text-anchor="middle" x="218" y="-117" font-family="Helvetica,sans-Serif" font-size="10.00" fill="grey"> x</text>
</g>
</g>
</svg>
</svg>

<style type='text/css'>
<![CDATA[
[data-mouse-over-selected='false'] { opacity: 0.7; }
[data-mouse-over-selected='true']  { opacity: 1.0; }
]]>
</style>
<script type="application/ecmascript"><![CDATA[
document.addEventListener('DOMContentLoaded', (event) => {
  highlightEdges();
  highlightAdjacentNodes();
});
]]></script>
</svg>
