<?xml version="1.0" encoding="UTF-8" standalone="no"?>
<!DOCTYPE svg PUBLIC "-//W3C//DTD SVG 1.1//EN"
 "http://www.w3.org/Graphics/SVG/1.1/DTD/svg11.dtd">
<!-- Generated by graphviz version 2.43.0 (0)
 -->
<!-- Title: G3D::Conduit::messageWaiting Pages: 1 -->
<!--zoomable 399 -->

<svg id="main" version="1.1" xmlns="http://www.w3.org/2000/svg" xmlns:xlink="http://www.w3.org/1999/xlink" xml:space="preserve" onload="init(evt)">
<style type="text/css"><![CDATA[
.node, .edge {opacity: 0.7;}
.node.selected, .edge.selected {opacity: 1;}
.edge:hover path { stroke: red; }
.edge:hover polygon { stroke: red; fill: red; }
]]></style>

<defs>
  <circle id="rim" cx="0" cy="0" r="7"/>
  <circle id="rim2" cx="0" cy="0" r="3.5"/>
  <g id="zoomPlus">
    <use xlink:href="#rim" fill="#404040"><set attributeName="fill" to="#808080" begin="zoomplus.mouseover" end="zoomplus.mouseout"/></use>
    <path d="M-4,0h8M0,-4v8" fill="none" stroke="white" stroke-width="1.5" pointer-events="none"/>
  </g>
  <g id="zoomMin">
    <use xlink:href="#rim" fill="#404040"><set attributeName="fill" to="#808080" begin="zoomminus.mouseover" end="zoomminus.mouseout"/></use>
    <path d="M-4,0h8" fill="none" stroke="white" stroke-width="1.5" pointer-events="none"/>
  </g>
  <g id="arrowUp" transform="translate(30 24)">
    <use xlink:href="#rim"/>
    <path pointer-events="none" fill="none" stroke="white" stroke-width="1.5" d="M0,-3.0v7 M-2.5,-0.5L0,-3.0L2.5,-0.5"/>
  </g>
  <g id="arrowRight" transform="rotate(90) translate(36 -43)">
    <use xlink:href="#rim"/>
    <path pointer-events="none" fill="none" stroke="white" stroke-width="1.5" d="M0,-3.0v7 M-2.5,-0.5L0,-3.0L2.5,-0.5"/>
  </g>
  <g id="arrowDown" transform="rotate(180) translate(-30 -48)">
    <use xlink:href="#rim"/>
    <path pointer-events="none" fill="none" stroke="white" stroke-width="1.5" d="M0,-3.0v7 M-2.5,-0.5L0,-3.0L2.5,-0.5"/>
  </g>
  <g id="arrowLeft" transform="rotate(270) translate(-36 17)">
    <use xlink:href="#rim"/>
    <path pointer-events="none" fill="none" stroke="white" stroke-width="1.5" d="M0,-3.0v7 M-2.5,-0.5L0,-3.0L2.5,-0.5"/>
  </g>
  <g id="resetDef">
    <use xlink:href="#rim2" fill="#404040"><set attributeName="fill" to="#808080" begin="reset.mouseover" end="reset.mouseout"/></use>
  </g>
</defs>
<script type="application/ecmascript">
var viewWidth = 1360;
var viewHeight = 399;
var sectionId = 'dynsection-3';
</script>
<script type="application/ecmascript" xlink:href="svg.min.js"/>
<svg id="graph" class="graph">
<g id="viewport">
<title>G3D::Conduit::messageWaiting</title>
<!-- Node1 -->
<g id="Node000001" class="node">
<title>Node1</title>
<g id="a_Node000001"><a xlink:title=" ">
<polygon fill="#999999" stroke="#666666" points="168,-160.5 0,-160.5 0,-141.5 168,-141.5 168,-160.5"/>
<text text-anchor="middle" x="84" y="-148.5" font-family="Helvetica,sans-Serif" font-size="10.00">G3D::Conduit::messageWaiting</text>
</a>
</g>
</g>
<!-- Node2 -->
<g id="Node000002" class="node">
<title>Node2</title>
<g id="a_Node000002"><a xlink:href="namespaceG3D.html#a03266fc5831344175bf35a342445ceef" target="_top" xlink:title=" ">
<polygon fill="white" stroke="#666666" points="306,-160.5 204,-160.5 204,-141.5 306,-141.5 306,-160.5"/>
<text text-anchor="middle" x="255" y="-148.5" font-family="Helvetica,sans-Serif" font-size="10.00">G3D::readWaiting</text>
</a>
</g>
</g>
<!-- Node1&#45;&gt;Node2 -->
<g id="edge1_Node000001_Node000002" class="edge">
<title>Node1&#45;&gt;Node2</title>
<g id="a_edge1_Node000001_Node000002"><a xlink:title=" ">
<path fill="none" stroke="#63b8ff" d="M168.01,-151C176.58,-151 185.17,-151 193.43,-151"/>
<polygon fill="#63b8ff" stroke="#63b8ff" points="193.69,-154.5 203.69,-151 193.69,-147.5 193.69,-154.5"/>
</a>
</g>
</g>
<!-- Node3 -->
<g id="Node000003" class="node">
<title>Node3</title>
<g id="a_Node000003"><a xlink:href="namespaceG3D.html#a306c9129bd54ee2f8bd4760389dc74b6" target="_top" xlink:title=" ">
<polygon fill="white" stroke="#666666" points="459,-197.5 374,-197.5 374,-178.5 459,-178.5 459,-197.5"/>
<text text-anchor="middle" x="416.5" y="-185.5" font-family="Helvetica,sans-Serif" font-size="10.00">G3D::logPrintf</text>
</a>
</g>
</g>
<!-- Node2&#45;&gt;Node3 -->
<g id="edge2_Node000002_Node000003" class="edge">
<title>Node2&#45;&gt;Node3</title>
<g id="a_edge2_Node000002_Node000003"><a xlink:title=" ">
<path fill="none" stroke="#63b8ff" d="M297.08,-160.53C317.65,-165.3 342.75,-171.12 364.54,-176.18"/>
<polygon fill="#63b8ff" stroke="#63b8ff" points="363.75,-179.59 374.29,-178.44 365.34,-172.77 363.75,-179.59"/>
</a>
</g>
</g>
<!-- Node24 -->
<g id="Node000024" class="node">
<title>Node24</title>
<g id="a_Node000024"><a xlink:href="namespaceG3D.html#af07194bee1d81a478fedf9d267f8a354" target="_top" xlink:title=" ">
<polygon fill="white" stroke="#666666" points="491,-160.5 342,-160.5 342,-141.5 491,-141.5 491,-160.5"/>
<text text-anchor="middle" x="416.5" y="-148.5" font-family="Helvetica,sans-Serif" font-size="10.00">G3D::selectOneReadSocket</text>
</a>
</g>
</g>
<!-- Node2&#45;&gt;Node24 -->
<g id="edge33_Node000002_Node000024" class="edge">
<title>Node2&#45;&gt;Node24</title>
<g id="a_edge33_Node000002_Node000024"><a xlink:title=" ">
<path fill="none" stroke="#63b8ff" d="M306.03,-151C314.33,-151 323.12,-151 331.98,-151"/>
<polygon fill="#63b8ff" stroke="#63b8ff" points="331.99,-154.5 341.99,-151 331.99,-147.5 331.99,-154.5"/>
</a>
</g>
</g>
<!-- Node25 -->
<g id="Node000025" class="node">
<title>Node25</title>
<g id="a_Node000025"><a xlink:href="networkHelpers_8h.html#a9521e4f8326ad0731653fe193d7c6373" target="_top" xlink:title=" ">
<polygon fill="white" stroke="#666666" points="464.5,-105.5 368.5,-105.5 368.5,-86.5 464.5,-86.5 464.5,-105.5"/>
<text text-anchor="middle" x="416.5" y="-93.5" font-family="Helvetica,sans-Serif" font-size="10.00">socketErrorCode</text>
</a>
</g>
</g>
<!-- Node2&#45;&gt;Node25 -->
<g id="edge34_Node000002_Node000025" class="edge">
<title>Node2&#45;&gt;Node25</title>
<g id="a_edge34_Node000002_Node000025"><a xlink:title=" ">
<path fill="none" stroke="#63b8ff" d="M283.78,-141.42C309.89,-132.42 349.16,-118.88 378.03,-108.92"/>
<polygon fill="#63b8ff" stroke="#63b8ff" points="379.46,-112.13 387.77,-105.56 377.17,-105.51 379.46,-112.13"/>
</a>
</g>
</g>
<!-- Node4 -->
<g id="Node000004" class="node">
<title>Node4</title>
<g id="a_Node000004"><a xlink:href="classG3D_1_1Log.html#ad2d565a087e33fa58e656c80567b2e2f" target="_top" xlink:title=" ">
<polygon fill="white" stroke="#666666" points="637,-178.5 527,-178.5 527,-159.5 637,-159.5 637,-178.5"/>
<text text-anchor="middle" x="582" y="-166.5" font-family="Helvetica,sans-Serif" font-size="10.00">G3D::Log::common</text>
</a>
</g>
</g>
<!-- Node3&#45;&gt;Node4 -->
<g id="edge3_Node000003_Node000004" class="edge">
<title>Node3&#45;&gt;Node4</title>
<g id="a_edge3_Node000003_Node000004"><a xlink:title=" ">
<path fill="none" stroke="#63b8ff" d="M459.18,-183.16C476.66,-181.12 497.4,-178.72 516.75,-176.47"/>
<polygon fill="#63b8ff" stroke="#63b8ff" points="517.2,-179.94 526.73,-175.31 516.39,-172.98 517.2,-179.94"/>
</a>
</g>
</g>
<!-- Node5 -->
<g id="Node000005" class="node">
<title>Node5</title>
<g id="a_Node000005"><a xlink:href="classG3D_1_1Log.html#a0f39209ee1deef7fdb6473e9f55c7533" target="_top" xlink:title=" ">
<polygon fill="white" stroke="#666666" points="631.5,-215.5 532.5,-215.5 532.5,-196.5 631.5,-196.5 631.5,-215.5"/>
<text text-anchor="middle" x="582" y="-203.5" font-family="Helvetica,sans-Serif" font-size="10.00">G3D::Log::vprintf</text>
</a>
</g>
</g>
<!-- Node3&#45;&gt;Node5 -->
<g id="edge4_Node000003_Node000005" class="edge">
<title>Node3&#45;&gt;Node5</title>
<g id="a_edge4_Node000003_Node000005"><a xlink:title=" ">
<path fill="none" stroke="#63b8ff" d="M459.18,-192.59C478.37,-194.7 501.47,-197.24 522.37,-199.55"/>
<polygon fill="#63b8ff" stroke="#63b8ff" points="522.11,-203.04 532.43,-200.65 522.88,-196.08 522.11,-203.04"/>
</a>
</g>
</g>
<!-- Node6 -->
<g id="Node000006" class="node">
<title>Node6</title>
<g id="a_Node000006"><a xlink:href="printf_8h.html#aa80a935767017049bd5427afbe5b5912" target="_top" xlink:title=" ">
<polygon fill="white" stroke="#666666" points="726,-215.5 673,-215.5 673,-196.5 726,-196.5 726,-215.5"/>
<text text-anchor="middle" x="699.5" y="-203.5" font-family="Helvetica,sans-Serif" font-size="10.00">vfprintf</text>
</a>
</g>
</g>
<!-- Node5&#45;&gt;Node6 -->
<g id="edge5_Node000005_Node000006" class="edge">
<title>Node5&#45;&gt;Node6</title>
<g id="a_edge5_Node000005_Node000006"><a xlink:title=" ">
<path fill="none" stroke="#63b8ff" d="M631.65,-206C642.06,-206 652.88,-206 662.7,-206"/>
<polygon fill="#63b8ff" stroke="#63b8ff" points="662.9,-209.5 672.9,-206 662.9,-202.5 662.9,-209.5"/>
</a>
</g>
</g>
<!-- Node7 -->
<g id="Node000007" class="node">
<title>Node7</title>
<g id="a_Node000007"><a xlink:href="namespacedetail.html#a1c8c2218e4c822aa8f743fb9c573717f" target="_top" xlink:title=" ">
<polygon fill="white" stroke="#666666" points="845,-215.5 762,-215.5 762,-196.5 845,-196.5 845,-215.5"/>
<text text-anchor="middle" x="803.5" y="-203.5" font-family="Helvetica,sans-Serif" font-size="10.00">detail::vprintf</text>
</a>
</g>
</g>
<!-- Node6&#45;&gt;Node7 -->
<g id="edge6_Node000006_Node000007" class="edge">
<title>Node6&#45;&gt;Node7</title>
<g id="a_edge6_Node000006_Node000007"><a xlink:title=" ">
<path fill="none" stroke="#63b8ff" d="M726.24,-206C733.96,-206 742.71,-206 751.47,-206"/>
<polygon fill="#63b8ff" stroke="#63b8ff" points="751.68,-209.5 761.68,-206 751.68,-202.5 751.68,-209.5"/>
</a>
</g>
</g>
<!-- Node8 -->
<g id="Node000008" class="node">
<title>Node8</title>
<g id="a_Node000008"><a xlink:href="fmt_2include_2fmt_2core_8h.html#a2c8e80c1b1c8b7747e99b8e9a24a0429" target="_top" xlink:title=" ">
<polygon fill="white" stroke="#666666" points="1307,-360.5 1275,-360.5 1275,-341.5 1307,-341.5 1307,-360.5"/>
<text text-anchor="middle" x="1291" y="-348.5" font-family="Helvetica,sans-Serif" font-size="10.00">arg</text>
</a>
</g>
</g>
<!-- Node7&#45;&gt;Node8 -->
<g id="edge7_Node000007_Node000008" class="edge">
<title>Node7&#45;&gt;Node8</title>
<g id="a_edge7_Node000007_Node000008"><a xlink:title=" ">
<path fill="none" stroke="#63b8ff" d="M806.79,-215.51C813.4,-240.77 835.06,-309.84 881,-342 1001.96,-426.67 1196.16,-379.76 1264.9,-359.14"/>
<polygon fill="#63b8ff" stroke="#63b8ff" points="1266.3,-362.37 1274.82,-356.08 1264.24,-355.68 1266.3,-362.37"/>
</a>
</g>
</g>
<!-- Node9 -->
<g id="Node000009" class="node">
<title>Node9</title>
<g id="a_Node000009"><a xlink:href="color_8h.html#af4a3b7f252e457605de5440249a15699" target="_top" xlink:title=" ">
<polygon fill="white" stroke="#666666" points="1138.5,-104.5 1088.5,-104.5 1088.5,-85.5 1138.5,-85.5 1138.5,-104.5"/>
<text text-anchor="middle" x="1113.5" y="-92.5" font-family="Helvetica,sans-Serif" font-size="10.00">format</text>
</a>
</g>
</g>
<!-- Node7&#45;&gt;Node9 -->
<g id="edge9_Node000007_Node000009" class="edge">
<title>Node7&#45;&gt;Node9</title>
<g id="a_edge9_Node000007_Node000009"><a xlink:title=" ">
<path fill="none" stroke="#63b8ff" d="M809.72,-196.43C820.37,-177.99 846.54,-137.75 881,-120 944.65,-87.21 1031.03,-87.83 1078.23,-91.32"/>
<polygon fill="#63b8ff" stroke="#63b8ff" points="1077.98,-94.81 1088.24,-92.15 1078.56,-87.83 1077.98,-94.81"/>
</a>
</g>
</g>
<!-- Node11 -->
<g id="Node000011" class="node">
<title>Node11</title>
<g id="a_Node000011"><a xlink:href="namespacedetail.html#a4bfbd26c5ac41fc8e3929b10631c2a31" target="_top" xlink:title=" ">
<polygon fill="white" stroke="#666666" points="1157,-357.5 1070,-357.5 1070,-338.5 1157,-338.5 1157,-357.5"/>
<text text-anchor="middle" x="1113.5" y="-345.5" font-family="Helvetica,sans-Serif" font-size="10.00">detail::get_arg</text>
</a>
</g>
</g>
<!-- Node7&#45;&gt;Node11 -->
<g id="edge11_Node000007_Node000011" class="edge">
<title>Node7&#45;&gt;Node11</title>
<g id="a_edge11_Node000007_Node000011"><a xlink:title=" ">
<path fill="none" stroke="#63b8ff" d="M808.5,-215.81C817.73,-237.11 842.73,-287.55 881,-311 935.43,-344.36 1010.06,-350.73 1059.71,-350.66"/>
<polygon fill="#63b8ff" stroke="#63b8ff" points="1059.95,-354.16 1069.91,-350.56 1059.87,-347.16 1059.95,-354.16"/>
</a>
</g>
</g>
<!-- Node12 -->
<g id="Node000012" class="node">
<title>Node12</title>
<g id="a_Node000012"><a xlink:href="namespacedetail.html#ac22dbe18eb3fef4c672314e30ed0421a" target="_top" xlink:title=" ">
<polygon fill="white" stroke="#666666" points="997,-273.5 881,-273.5 881,-254.5 997,-254.5 997,-273.5"/>
<text text-anchor="middle" x="939" y="-261.5" font-family="Helvetica,sans-Serif" font-size="10.00">detail::parse_header</text>
</a>
</g>
</g>
<!-- Node7&#45;&gt;Node12 -->
<g id="edge13_Node000007_Node000012" class="edge">
<title>Node7&#45;&gt;Node12</title>
<g id="a_edge13_Node000007_Node000012"><a xlink:title=" ">
<path fill="none" stroke="#63b8ff" d="M826.54,-215.58C848.38,-225.06 882.03,-239.68 906.65,-250.38"/>
<polygon fill="#63b8ff" stroke="#63b8ff" points="905.36,-253.63 915.92,-254.41 908.15,-247.21 905.36,-253.63"/>
</a>
</g>
</g>
<!-- Node14 -->
<g id="Node000014" class="node">
<title>Node14</title>
<g id="a_Node000014"><a xlink:href="namespacedetail.html#a338caba782225e115a9902d4d0835f5f" target="_top" xlink:title=" ">
<polygon fill="white" stroke="#666666" points="1194,-246.5 1033,-246.5 1033,-227.5 1194,-227.5 1194,-246.5"/>
<text text-anchor="middle" x="1113.5" y="-234.5" font-family="Helvetica,sans-Serif" font-size="10.00">detail::parse_nonnegative_int</text>
</a>
</g>
</g>
<!-- Node7&#45;&gt;Node14 -->
<g id="edge24_Node000007_Node000014" class="edge">
<title>Node7&#45;&gt;Node14</title>
<g id="a_edge24_Node000007_Node000014"><a xlink:title=" ">
<path fill="none" stroke="#63b8ff" d="M845.08,-210.08C890.09,-214.62 964.12,-222.07 1022.88,-227.98"/>
<polygon fill="#63b8ff" stroke="#63b8ff" points="1022.62,-231.47 1032.92,-228.99 1023.32,-224.51 1022.62,-231.47"/>
</a>
</g>
</g>
<!-- Node16 -->
<g id="Node000016" class="node">
<title>Node16</title>
<g id="a_Node000016"><a xlink:href="namespacedetail.html#ad64642bb9b2374fba5526c132a751951" target="_top" xlink:title=" ">
<polygon fill="white" stroke="#666666" points="1346,-175.5 1236,-175.5 1236,-156.5 1346,-156.5 1346,-175.5"/>
<text text-anchor="middle" x="1291" y="-163.5" font-family="Helvetica,sans-Serif" font-size="10.00">detail::to_unsigned</text>
</a>
</g>
</g>
<!-- Node7&#45;&gt;Node16 -->
<g id="edge28_Node000007_Node000016" class="edge">
<title>Node7&#45;&gt;Node16</title>
<g id="a_edge28_Node000007_Node000016"><a xlink:title=" ">
<path fill="none" stroke="#63b8ff" d="M834.12,-196.41C848.23,-192.02 865.4,-186.93 881,-183 1016.56,-148.87 1054.57,-141.89 1194,-152 1204.31,-152.75 1215.2,-153.94 1225.79,-155.33"/>
<polygon fill="#63b8ff" stroke="#63b8ff" points="1225.44,-158.81 1235.83,-156.7 1226.39,-151.88 1225.44,-158.81"/>
</a>
</g>
</g>
<!-- Node17 -->
<g id="Node000017" class="node">
<title>Node17</title>
<g id="a_Node000017"><a xlink:href="namespacedetail.html#a6a4a175ed2175e4da7b988e021175317" target="_top" xlink:title=" ">
<polygon fill="white" stroke="#666666" points="1171.5,-191 1055.5,-191 1055.5,-161 1171.5,-161 1171.5,-191"/>
<text text-anchor="start" x="1063.5" y="-179" font-family="Helvetica,sans-Serif" font-size="10.00">detail::throw_format</text>
<text text-anchor="middle" x="1113.5" y="-168" font-family="Helvetica,sans-Serif" font-size="10.00">_error</text>
</a>
</g>
</g>
<!-- Node7&#45;&gt;Node17 -->
<g id="edge27_Node000007_Node000017" class="edge">
<title>Node7&#45;&gt;Node17</title>
<g id="a_edge27_Node000007_Node000017"><a xlink:title=" ">
<path fill="none" stroke="#63b8ff" d="M845.08,-202.05C895.96,-197.09 983.91,-188.53 1044.99,-182.58"/>
<polygon fill="#63b8ff" stroke="#63b8ff" points="1045.69,-186.02 1055.31,-181.57 1045.02,-179.06 1045.69,-186.02"/>
</a>
</g>
</g>
<!-- Node18 -->
<g id="Node000018" class="node">
<title>Node18</title>
<g id="a_Node000018"><a xlink:href="fmt_2include_2fmt_2core_8h.html#a05783ffcc62709c2284ee0da45486a98" target="_top" xlink:title=" ">
<polygon fill="white" stroke="#666666" points="1162,-320.5 1065,-320.5 1065,-301.5 1162,-301.5 1162,-320.5"/>
<text text-anchor="middle" x="1113.5" y="-308.5" font-family="Helvetica,sans-Serif" font-size="10.00">visit_format_arg</text>
</a>
</g>
</g>
<!-- Node7&#45;&gt;Node18 -->
<g id="edge29_Node000007_Node000018" class="edge">
<title>Node7&#45;&gt;Node18</title>
<g id="a_edge29_Node000007_Node000018"><a xlink:title=" ">
<path fill="none" stroke="#63b8ff" d="M810.72,-215.58C822.27,-232.48 848.83,-267.28 881,-283 935.67,-309.71 1005.95,-314.71 1054.66,-314.28"/>
<polygon fill="#63b8ff" stroke="#63b8ff" points="1054.77,-317.78 1064.71,-314.12 1054.66,-310.78 1054.77,-317.78"/>
</a>
</g>
</g>
<!-- Node20 -->
<g id="Node000020" class="node">
<title>Node20</title>
<g id="a_Node000020"><a xlink:href="namespacedetail.html#a2e4362a340def2768ed1f8f66e764063" target="_top" xlink:title=" ">
<polygon fill="white" stroke="#666666" points="994,-30 884,-30 884,0 994,0 994,-30"/>
<text text-anchor="start" x="892" y="-18" font-family="Helvetica,sans-Serif" font-size="10.00">detail::parse_printf</text>
<text text-anchor="middle" x="939" y="-7" font-family="Helvetica,sans-Serif" font-size="10.00">_presentation_type</text>
</a>
</g>
</g>
<!-- Node7&#45;&gt;Node20 -->
<g id="edge25_Node000007_Node000020" class="edge">
<title>Node7&#45;&gt;Node20</title>
<g id="a_edge25_Node000007_Node000020"><a xlink:title=" ">
<path fill="none" stroke="#63b8ff" d="M806.36,-196.28C812.24,-168.13 832.92,-85.61 881,-39 882.11,-37.93 883.27,-36.9 884.48,-35.91"/>
<polygon fill="#63b8ff" stroke="#63b8ff" points="886.78,-38.58 893.02,-30.01 882.8,-32.82 886.78,-38.58"/>
</a>
</g>
</g>
<!-- Node22 -->
<g id="Node000022" class="node">
<title>Node22</title>
<g id="a_Node000022"><a xlink:href="namespacedetail.html#a29dacf26eedc9e3575fb57329a5ca0a3" target="_top" xlink:title=" ">
<polygon fill="white" stroke="#666666" points="976.5,-67.5 901.5,-67.5 901.5,-48.5 976.5,-48.5 976.5,-67.5"/>
<text text-anchor="middle" x="939" y="-55.5" font-family="Helvetica,sans-Serif" font-size="10.00">detail::write</text>
</a>
</g>
</g>
<!-- Node7&#45;&gt;Node22 -->
<g id="edge30_Node000007_Node000022" class="edge">
<title>Node7&#45;&gt;Node22</title>
<g id="a_edge30_Node000007_Node000022"><a xlink:title=" ">
<path fill="none" stroke="#63b8ff" d="M808.1,-196.21C817,-173.23 842.19,-115.24 881,-82 885.6,-78.06 890.93,-74.7 896.46,-71.84"/>
<polygon fill="#63b8ff" stroke="#63b8ff" points="898.24,-74.87 905.85,-67.5 895.3,-68.52 898.24,-74.87"/>
</a>
</g>
</g>
<!-- Node8&#45;&gt;Node8 -->
<g id="edge8_Node000008_Node000008" class="edge">
<title>Node8&#45;&gt;Node8</title>
<g id="a_edge8_Node000008_Node000008"><a xlink:title=" ">
<path fill="none" stroke="#63b8ff" d="M1274.68,-355.47C1247.92,-365.08 1253.36,-378.5 1291,-378.5 1323.35,-378.5 1331.91,-368.59 1316.7,-359.7"/>
<polygon fill="#63b8ff" stroke="#63b8ff" points="1317.88,-356.39 1307.32,-355.47 1314.99,-362.77 1317.88,-356.39"/>
</a>
</g>
</g>
<!-- Node10 -->
<g id="Node000010" class="node">
<title>Node10</title>
<g id="a_Node000010"><a xlink:href="namespacedetail.html#a4662b86e5cfc5c32eb3efea5a84d3040" target="_top" xlink:title=" ">
<polygon fill="white" stroke="#666666" points="1352,-104.5 1230,-104.5 1230,-85.5 1352,-85.5 1352,-104.5"/>
<text text-anchor="middle" x="1291" y="-92.5" font-family="Helvetica,sans-Serif" font-size="10.00">detail::to_string_view</text>
</a>
</g>
</g>
<!-- Node9&#45;&gt;Node10 -->
<g id="edge10_Node000009_Node000010" class="edge">
<title>Node9&#45;&gt;Node10</title>
<g id="a_edge10_Node000009_Node000010"><a xlink:title=" ">
<path fill="none" stroke="#63b8ff" d="M1138.53,-95C1159.44,-95 1190.83,-95 1219.61,-95"/>
<polygon fill="#63b8ff" stroke="#63b8ff" points="1219.67,-98.5 1229.67,-95 1219.67,-91.5 1219.67,-98.5"/>
</a>
</g>
</g>
<!-- Node11&#45;&gt;Node8 -->
<g id="edge12_Node000011_Node000008" class="edge">
<title>Node11&#45;&gt;Node8</title>
<g id="a_edge12_Node000011_Node000008"><a xlink:title=" ">
<path fill="none" stroke="#63b8ff" d="M1157.43,-348.73C1191.12,-349.31 1236.84,-350.09 1264.84,-350.57"/>
<polygon fill="#63b8ff" stroke="#63b8ff" points="1264.93,-354.07 1274.98,-350.74 1265.05,-347.07 1264.93,-354.07"/>
</a>
</g>
</g>
<!-- Node12&#45;&gt;Node11 -->
<g id="edge14_Node000012_Node000011" class="edge">
<title>Node12&#45;&gt;Node11</title>
<g id="a_edge14_Node000012_Node000011"><a xlink:title=" ">
<path fill="none" stroke="#63b8ff" d="M950.57,-273.67C966.97,-288.15 1000.1,-315.31 1033,-330 1041.45,-333.77 1050.76,-336.79 1059.95,-339.19"/>
<polygon fill="#63b8ff" stroke="#63b8ff" points="1059.29,-342.63 1069.83,-341.57 1060.92,-335.83 1059.29,-342.63"/>
</a>
</g>
</g>
<!-- Node13 -->
<g id="Node000013" class="node">
<title>Node13</title>
<g id="a_Node000013"><a xlink:href="namespacedetail.html#ac2056b8550f21cf842853812a4ffd167" target="_top" xlink:title=" ">
<polygon fill="white" stroke="#666666" points="1166.5,-283.5 1060.5,-283.5 1060.5,-264.5 1166.5,-264.5 1166.5,-283.5"/>
<text text-anchor="middle" x="1113.5" y="-271.5" font-family="Helvetica,sans-Serif" font-size="10.00">detail::parse_flags</text>
</a>
</g>
</g>
<!-- Node12&#45;&gt;Node13 -->
<g id="edge15_Node000012_Node000013" class="edge">
<title>Node12&#45;&gt;Node13</title>
<g id="a_edge15_Node000012_Node000013"><a xlink:title=" ">
<path fill="none" stroke="#63b8ff" d="M997.44,-267.33C1014.24,-268.3 1032.69,-269.37 1049.8,-270.37"/>
<polygon fill="#63b8ff" stroke="#63b8ff" points="1050.07,-273.89 1060.25,-270.97 1050.47,-266.9 1050.07,-273.89"/>
</a>
</g>
</g>
<!-- Node12&#45;&gt;Node14 -->
<g id="edge16_Node000012_Node000014" class="edge">
<title>Node12&#45;&gt;Node14</title>
<g id="a_edge16_Node000012_Node000014"><a xlink:title=" ">
<path fill="none" stroke="#63b8ff" d="M997.44,-255.01C1011.61,-252.79 1026.96,-250.39 1041.69,-248.08"/>
<polygon fill="#63b8ff" stroke="#63b8ff" points="1042.42,-251.51 1051.76,-246.51 1041.34,-244.6 1042.42,-251.51"/>
</a>
</g>
</g>
<!-- Node12&#45;&gt;Node17 -->
<g id="edge19_Node000012_Node000017" class="edge">
<title>Node12&#45;&gt;Node17</title>
<g id="a_edge19_Node000012_Node000017"><a xlink:title=" ">
<path fill="none" stroke="#63b8ff" d="M958.79,-254.41C986.2,-240.43 1037.79,-214.11 1073.6,-195.85"/>
<polygon fill="#63b8ff" stroke="#63b8ff" points="1075.48,-198.82 1082.79,-191.16 1072.29,-192.58 1075.48,-198.82"/>
</a>
</g>
</g>
<!-- Node12&#45;&gt;Node18 -->
<g id="edge21_Node000012_Node000018" class="edge">
<title>Node12&#45;&gt;Node18</title>
<g id="a_edge21_Node000012_Node000018"><a xlink:title=" ">
<path fill="none" stroke="#63b8ff" d="M968.73,-273.61C987.02,-279.56 1011.28,-287.16 1033,-293 1040.87,-295.11 1049.22,-297.19 1057.44,-299.13"/>
<polygon fill="#63b8ff" stroke="#63b8ff" points="1056.83,-302.58 1067.36,-301.44 1058.41,-295.76 1056.83,-302.58"/>
</a>
</g>
</g>
<!-- Node15 -->
<g id="Node000015" class="node">
<title>Node15</title>
<g id="a_Node000015"><a xlink:href="RecastContour_8cpp.html#a6f1109916123abdff2b46675c13307e3" target="_top" xlink:title=" ">
<polygon fill="white" stroke="#666666" points="1310,-246.5 1272,-246.5 1272,-227.5 1310,-227.5 1310,-246.5"/>
<text text-anchor="middle" x="1291" y="-234.5" font-family="Helvetica,sans-Serif" font-size="10.00">prev</text>
</a>
</g>
</g>
<!-- Node14&#45;&gt;Node15 -->
<g id="edge17_Node000014_Node000015" class="edge">
<title>Node14&#45;&gt;Node15</title>
<g id="a_edge17_Node000014_Node000015"><a xlink:title=" ">
<path fill="none" stroke="#63b8ff" d="M1194.03,-237C1218.29,-237 1243.4,-237 1261.85,-237"/>
<polygon fill="#63b8ff" stroke="#63b8ff" points="1261.88,-240.5 1271.88,-237 1261.88,-233.5 1261.88,-240.5"/>
</a>
</g>
</g>
<!-- Node14&#45;&gt;Node16 -->
<g id="edge18_Node000014_Node000016" class="edge">
<title>Node14&#45;&gt;Node16</title>
<g id="a_edge18_Node000014_Node000016"><a xlink:title=" ">
<path fill="none" stroke="#63b8ff" d="M1163.46,-227.43C1173.7,-224.84 1184.33,-221.7 1194,-218 1220.01,-208.04 1247.8,-192.38 1266.74,-180.85"/>
<polygon fill="#63b8ff" stroke="#63b8ff" points="1268.63,-183.8 1275.29,-175.56 1264.94,-177.85 1268.63,-183.8"/>
</a>
</g>
</g>
<!-- Node17&#45;&gt;Node17 -->
<g id="edge20_Node000017_Node000017" class="edge">
<title>Node17&#45;&gt;Node17</title>
<g id="a_edge20_Node000017_Node000017"><a xlink:title=" ">
<path fill="none" stroke="#63b8ff" d="M1082.91,-191.28C1076.12,-200.41 1086.31,-209 1113.5,-209 1129.64,-209 1139.79,-205.97 1143.96,-201.6"/>
<polygon fill="#63b8ff" stroke="#63b8ff" points="1147.46,-201.32 1144.09,-191.28 1140.46,-201.23 1147.46,-201.32"/>
</a>
</g>
</g>
<!-- Node18&#45;&gt;Node8 -->
<g id="edge22_Node000018_Node000008" class="edge">
<title>Node18&#45;&gt;Node8</title>
<g id="a_edge22_Node000018_Node000008"><a xlink:title=" ">
<path fill="none" stroke="#63b8ff" d="M1156.54,-320.58C1190.35,-328.29 1236.72,-338.86 1264.95,-345.29"/>
<polygon fill="#63b8ff" stroke="#63b8ff" points="1264.3,-348.73 1274.82,-347.54 1265.85,-341.91 1264.3,-348.73"/>
</a>
</g>
</g>
<!-- Node19 -->
<g id="Node000019" class="node">
<title>Node19</title>
<g id="a_Node000019"><a xlink:href="namespacedetail.html#a49b6442202d11af60b96dc09859dd027" target="_top" xlink:title=" ">
<polygon fill="white" stroke="#666666" points="1344,-323 1238,-323 1238,-293 1344,-293 1344,-323"/>
<text text-anchor="start" x="1246" y="-311" font-family="Helvetica,sans-Serif" font-size="10.00">detail::convert_for</text>
<text text-anchor="middle" x="1291" y="-300" font-family="Helvetica,sans-Serif" font-size="10.00">_visit</text>
</a>
</g>
</g>
<!-- Node18&#45;&gt;Node19 -->
<g id="edge23_Node000018_Node000019" class="edge">
<title>Node18&#45;&gt;Node19</title>
<g id="a_edge23_Node000018_Node000019"><a xlink:title=" ">
<path fill="none" stroke="#63b8ff" d="M1162.46,-310.18C1182.61,-309.84 1206.31,-309.43 1227.78,-309.06"/>
<polygon fill="#63b8ff" stroke="#63b8ff" points="1227.85,-312.56 1237.79,-308.89 1227.73,-305.56 1227.85,-312.56"/>
</a>
</g>
</g>
<!-- Node21 -->
<g id="Node000021" class="node">
<title>Node21</title>
<g id="a_Node000021"><a xlink:href="namespacedetail.html#a52a5e2ed06c229dcf95ea5c46d48d05e" target="_top" xlink:title=" ">
<polygon fill="white" stroke="#666666" points="1143,-24.5 1084,-24.5 1084,-5.5 1143,-5.5 1143,-24.5"/>
<text text-anchor="middle" x="1113.5" y="-12.5" font-family="Helvetica,sans-Serif" font-size="10.00">detail::in</text>
</a>
</g>
</g>
<!-- Node20&#45;&gt;Node21 -->
<g id="edge26_Node000020_Node000021" class="edge">
<title>Node20&#45;&gt;Node21</title>
<g id="a_edge26_Node000020_Node000021"><a xlink:title=" ">
<path fill="none" stroke="#63b8ff" d="M994.11,-15C1019.81,-15 1049.96,-15 1073.4,-15"/>
<polygon fill="#63b8ff" stroke="#63b8ff" points="1073.66,-18.5 1083.66,-15 1073.66,-11.5 1073.66,-18.5"/>
</a>
</g>
</g>
<!-- Node22&#45;&gt;Node9 -->
<g id="edge31_Node000022_Node000009" class="edge">
<title>Node22&#45;&gt;Node9</title>
<g id="a_edge31_Node000022_Node000009"><a xlink:title=" ">
<path fill="none" stroke="#63b8ff" d="M976.58,-65.85C1006.75,-72.32 1049.21,-81.43 1078.62,-87.73"/>
<polygon fill="#63b8ff" stroke="#63b8ff" points="1077.92,-91.16 1088.43,-89.84 1079.39,-84.32 1077.92,-91.16"/>
</a>
</g>
</g>
<!-- Node23 -->
<g id="Node000023" class="node">
<title>Node23</title>
<g id="a_Node000023"><a xlink:href="namespacedetail.html#ab2732c48a7d428c20ca951289522c6f1" target="_top" xlink:title=" ">
<polygon fill="white" stroke="#666666" points="1167,-67.5 1060,-67.5 1060,-48.5 1167,-48.5 1167,-67.5"/>
<text text-anchor="middle" x="1113.5" y="-55.5" font-family="Helvetica,sans-Serif" font-size="10.00">detail::get_iterator</text>
</a>
</g>
</g>
<!-- Node22&#45;&gt;Node23 -->
<g id="edge32_Node000022_Node000023" class="edge">
<title>Node22&#45;&gt;Node23</title>
<g id="a_edge32_Node000022_Node000023"><a xlink:title=" ">
<path fill="none" stroke="#63b8ff" d="M976.58,-58C997.78,-58 1025.06,-58 1049.6,-58"/>
<polygon fill="#63b8ff" stroke="#63b8ff" points="1049.93,-61.5 1059.93,-58 1049.93,-54.5 1049.93,-61.5"/>
</a>
</g>
</g>
<!-- Node25&#45;&gt;Node25 -->
<g id="edge36_Node000025_Node000025" class="edge">
<title>Node25&#45;&gt;Node25</title>
<g id="a_edge36_Node000025_Node000025"><a xlink:title=" ">
<path fill="none" stroke="#63b8ff" d="M391.84,-105.58C379.84,-114.23 388.06,-123.5 416.5,-123.5 435.16,-123.5 445.12,-119.51 446.37,-114.32"/>
<polygon fill="#63b8ff" stroke="#63b8ff" points="449.29,-112.38 441.16,-105.58 443.27,-115.97 449.29,-112.38"/>
</a>
</g>
</g>
<!-- Node26 -->
<g id="Node000026" class="node">
<title>Node26</title>
<g id="a_Node000026"><a xlink:href="FileStream_8cpp.html#ad0f1ed530318d4f8cecb3dfb53e15b0a" target="_top" xlink:title=" ">
<polygon fill="white" stroke="#666666" points="620.5,-105.5 543.5,-105.5 543.5,-86.5 620.5,-86.5 620.5,-105.5"/>
<text text-anchor="middle" x="582" y="-93.5" font-family="Helvetica,sans-Serif" font-size="10.00">GetLastError</text>
</a>
</g>
</g>
<!-- Node25&#45;&gt;Node26 -->
<g id="edge35_Node000025_Node000026" class="edge">
<title>Node25&#45;&gt;Node26</title>
<g id="a_edge35_Node000025_Node000026"><a xlink:title=" ">
<path fill="none" stroke="#63b8ff" d="M464.79,-96C486.27,-96 511.63,-96 533.17,-96"/>
<polygon fill="#63b8ff" stroke="#63b8ff" points="533.41,-99.5 543.41,-96 533.41,-92.5 533.41,-99.5"/>
</a>
</g>
</g>
</g>
</svg>

<g id="navigator" transform="translate(0 0)" fill="#404254">
  <rect fill="#f2f5e9" fill-opacity="0.5" stroke="#606060" stroke-width=".5" x="0" y="0" width="60" height="60"/>
  <use id="zoomplus" xlink:href="#zoomPlus" x="17" y="9" onmousedown="handleZoom(evt,'in')"/>
  <use id="zoomminus" xlink:href="#zoomMin" x="42" y="9" onmousedown="handleZoom(evt,'out')"/>
  <use id="reset" xlink:href="#resetDef" x="30" y="36" onmousedown="handleReset()"/>
   <use id="arrowup" xlink:href="#arrowUp" x="0" y="0" onmousedown="handlePan(0,-1)"/>
  <use id="arrowright" xlink:href="#arrowRight" x="0" y="0" onmousedown="handlePan(1,0)"/>
  <use id="arrowdown" xlink:href="#arrowDown" x="0" y="0" onmousedown="handlePan(0,1)"/>
  <use id="arrowleft" xlink:href="#arrowLeft" x="0" y="0" onmousedown="handlePan(-1,0)"/>
</g>
<svg viewBox="0 0 15 15" width="100%" height="30px" preserveAspectRatio="xMaxYMin meet">
 <g id="arrow_out" transform="scale(0.3 0.3)">
  <a xlink:href="classG3D_1_1Conduit_a204d98fa80281e3e94a7f6d1f2ed93bb_cgraph_org.svg" target="_base">
   <rect id="button" ry="5" rx="5" y="6" x="6" height="38" width="38"
        fill="#f2f5e9" fill-opacity="0.5" stroke="#606060" stroke-width="1.0"/>
   <path id="arrow"
     d="M 11.500037,31.436501 C 11.940474,20.09759 22.043105,11.32322 32.158766,21.979434 L 37.068811,17.246167 C 37.068811,17.246167 37.088388,32 37.088388,32 L 22.160133,31.978069 C 22.160133,31.978069 26.997745,27.140456 26.997745,27.140456 C 18.528582,18.264221 13.291696,25.230495 11.500037,31.436501 z"
     style="fill:#404040;"/>
  </a>
 </g>
</svg>

<style type='text/css'>
<![CDATA[
[data-mouse-over-selected='false'] { opacity: 0.7; }
[data-mouse-over-selected='true']  { opacity: 1.0; }
]]>
</style>
<script type="application/ecmascript"><![CDATA[
document.addEventListener('DOMContentLoaded', (event) => {
  highlightEdges();
  highlightAdjacentNodes();
});
]]></script>
</svg>
