<?xml version="1.0" encoding="UTF-8" standalone="no"?>
<!DOCTYPE svg PUBLIC "-//W3C//DTD SVG 1.1//EN"
 "http://www.w3.org/Graphics/SVG/1.1/DTD/svg11.dtd">
<!-- Generated by graphviz version 2.43.0 (0)
 -->
<!-- Title: G3D::Box::getBounds Pages: 1 -->
<svg width="703pt" height="270pt"
 viewBox="0.00 0.00 703.00 270.00" xmlns="http://www.w3.org/2000/svg" xmlns:xlink="http://www.w3.org/1999/xlink">
<g id="graph0" class="graph" transform="scale(1 1) rotate(0) translate(4 266)">
<title>G3D::Box::getBounds</title>
<!-- Node1 -->
<g id="Node000001" class="node">
<title>Node1</title>
<g id="a_Node000001"><a xlink:title=" ">
<polygon fill="#999999" stroke="#666666" points="120,-187 0,-187 0,-168 120,-168 120,-187"/>
<text text-anchor="middle" x="60" y="-175" font-family="Helvetica,sans-Serif" font-size="10.00">G3D::Box::getBounds</text>
</a>
</g>
</g>
<!-- Node2 -->
<g id="Node000002" class="node">
<title>Node2</title>
<g id="a_Node000002"><a xlink:href="classG3D_1_1Box.html#a426b3249a1142d26a9ae96bc70179a3b" target="_top" xlink:title=" ">
<polygon fill="white" stroke="#666666" points="262,-262 163,-262 163,-243 262,-243 262,-262"/>
<text text-anchor="middle" x="212.5" y="-250" font-family="Helvetica,sans-Serif" font-size="10.00">G3D::Box::corner</text>
</a>
</g>
</g>
<!-- Node1&#45;&gt;Node2 -->
<g id="edge1_Node000001_Node000002" class="edge">
<title>Node1&#45;&gt;Node2</title>
<g id="a_edge1_Node000001_Node000002"><a xlink:title=" ">
<path fill="none" stroke="#63b8ff" d="M74.62,-187.03C92.6,-199.29 125.54,-220.64 156,-234.5 159.89,-236.27 164,-237.95 168.16,-239.51"/>
<polygon fill="#63b8ff" stroke="#63b8ff" points="167.28,-242.91 177.87,-242.95 169.61,-236.31 167.28,-242.91"/>
</a>
</g>
</g>
<!-- Node3 -->
<g id="Node000003" class="node">
<title>Node3</title>
<g id="a_Node000003"><a xlink:href="classG3D_1_1AABox.html#a315cd714ff60e0af92214149ad9f1d9e" target="_top" xlink:title=" ">
<polygon fill="white" stroke="#666666" points="269,-225 156,-225 156,-206 269,-206 269,-225"/>
<text text-anchor="middle" x="212.5" y="-213" font-family="Helvetica,sans-Serif" font-size="10.00">G3D::AABox::empty</text>
</a>
</g>
</g>
<!-- Node1&#45;&gt;Node3 -->
<g id="edge2_Node000001_Node000003" class="edge">
<title>Node1&#45;&gt;Node3</title>
<g id="a_edge2_Node000001_Node000003"><a xlink:title=" ">
<path fill="none" stroke="#63b8ff" d="M98.98,-187.09C118.66,-192.06 142.89,-198.18 163.82,-203.46"/>
<polygon fill="#63b8ff" stroke="#63b8ff" points="163.24,-206.93 173.8,-205.98 164.96,-200.14 163.24,-206.93"/>
</a>
</g>
</g>
<!-- Node4 -->
<g id="Node000004" class="node">
<title>Node4</title>
<g id="a_Node000004"><a xlink:href="classG3D_1_1Vector3.html#afe175f2e7644536cfd02bebb5b5c0dda" target="_top" xlink:title=" ">
<polygon fill="white" stroke="#666666" points="582.5,-149 466.5,-149 466.5,-130 582.5,-130 582.5,-149"/>
<text text-anchor="middle" x="524.5" y="-137" font-family="Helvetica,sans-Serif" font-size="10.00">G3D::Vector3::isNaN</text>
</a>
</g>
</g>
<!-- Node1&#45;&gt;Node4 -->
<g id="edge3_Node000001_Node000004" class="edge">
<title>Node1&#45;&gt;Node4</title>
<g id="a_edge3_Node000001_Node000004"><a xlink:title=" ">
<path fill="none" stroke="#63b8ff" d="M120.2,-168.02C132.03,-166.34 144.4,-164.73 156,-163.5 260.6,-152.4 382.53,-145.65 456.32,-142.25"/>
<polygon fill="#63b8ff" stroke="#63b8ff" points="456.57,-145.74 466.4,-141.79 456.25,-138.75 456.57,-145.74"/>
</a>
</g>
</g>
<!-- Node5 -->
<g id="Node000005" class="node">
<title>Node5</title>
<g id="a_Node000005"><a xlink:href="namespaceG3D.html#a8843e9ad0a3e34440585a11c43ceacd7" target="_top" xlink:title=" ">
<polygon fill="white" stroke="#666666" points="695,-168 622,-168 622,-149 695,-149 695,-168"/>
<text text-anchor="middle" x="658.5" y="-156" font-family="Helvetica,sans-Serif" font-size="10.00">G3D::isNaN</text>
</a>
</g>
</g>
<!-- Node1&#45;&gt;Node5 -->
<g id="edge5_Node000001_Node000005" class="edge">
<title>Node1&#45;&gt;Node5</title>
<g id="a_edge5_Node000001_Node000005"><a xlink:title=" ">
<path fill="none" stroke="#63b8ff" d="M120.1,-175.62C239.01,-171.83 504.92,-163.36 611.76,-159.96"/>
<polygon fill="#63b8ff" stroke="#63b8ff" points="612.01,-163.45 621.89,-159.63 611.79,-156.45 612.01,-163.45"/>
</a>
</g>
</g>
<!-- Node6 -->
<g id="Node000006" class="node">
<title>Node6</title>
<g id="a_Node000006"><a xlink:href="classG3D_1_1AABox.html#a4635a22cce3b96cafcc08f4f0675c4ea" target="_top" xlink:title=" ">
<polygon fill="white" stroke="#666666" points="269,-93 156,-93 156,-74 269,-74 269,-93"/>
<text text-anchor="middle" x="212.5" y="-81" font-family="Helvetica,sans-Serif" font-size="10.00">G3D::AABox::merge</text>
</a>
</g>
</g>
<!-- Node1&#45;&gt;Node6 -->
<g id="edge6_Node000001_Node000006" class="edge">
<title>Node1&#45;&gt;Node6</title>
<g id="a_edge6_Node000001_Node000006"><a xlink:title=" ">
<path fill="none" stroke="#63b8ff" d="M76.26,-167.97C102.51,-151.57 156.41,-117.91 187.66,-98.39"/>
<polygon fill="#63b8ff" stroke="#63b8ff" points="189.57,-101.32 196.2,-93.06 185.86,-95.38 189.57,-101.32"/>
</a>
</g>
</g>
<!-- Node4&#45;&gt;Node5 -->
<g id="edge4_Node000004_Node000005" class="edge">
<title>Node4&#45;&gt;Node5</title>
<g id="a_edge4_Node000004_Node000005"><a xlink:title=" ">
<path fill="none" stroke="#63b8ff" d="M582.63,-147.72C592.45,-149.14 602.55,-150.59 612.01,-151.95"/>
<polygon fill="#63b8ff" stroke="#63b8ff" points="611.6,-155.43 622,-153.39 612.6,-148.5 611.6,-155.43"/>
</a>
</g>
</g>
<!-- Node7 -->
<g id="Node000007" class="node">
<title>Node7</title>
<g id="a_Node000007"><a xlink:href="classG3D_1_1AABox.html#afab03b531ba5102b5b548cf3636d2e86" target="_top" xlink:title=" ">
<polygon fill="white" stroke="#666666" points="427,-111 305,-111 305,-92 427,-92 427,-111"/>
<text text-anchor="middle" x="366" y="-99" font-family="Helvetica,sans-Serif" font-size="10.00">G3D::AABox::isEmpty</text>
</a>
</g>
</g>
<!-- Node6&#45;&gt;Node7 -->
<g id="edge7_Node000006_Node000007" class="edge">
<title>Node6&#45;&gt;Node7</title>
<g id="a_edge7_Node000006_Node000007"><a xlink:title=" ">
<path fill="none" stroke="#63b8ff" d="M269.05,-90.1C277.43,-91.1 286.16,-92.13 294.8,-93.16"/>
<polygon fill="#63b8ff" stroke="#63b8ff" points="294.52,-96.65 304.86,-94.35 295.34,-89.7 294.52,-96.65"/>
</a>
</g>
</g>
<!-- Node8 -->
<g id="Node000008" class="node">
<title>Node8</title>
<g id="a_Node000008"><a xlink:href="classG3D_1_1Vector3.html#a37221c502f9c447eba7b75e005d2b63e" target="_top" xlink:title=" ">
<polygon fill="white" stroke="#666666" points="420,-74 312,-74 312,-55 420,-55 420,-74"/>
<text text-anchor="middle" x="366" y="-62" font-family="Helvetica,sans-Serif" font-size="10.00">G3D::Vector3::max</text>
</a>
</g>
</g>
<!-- Node6&#45;&gt;Node8 -->
<g id="edge9_Node000006_Node000008" class="edge">
<title>Node6&#45;&gt;Node8</title>
<g id="a_edge9_Node000006_Node000008"><a xlink:title=" ">
<path fill="none" stroke="#63b8ff" d="M269.05,-76.53C279.79,-75.19 291.1,-73.77 302.05,-72.39"/>
<polygon fill="#63b8ff" stroke="#63b8ff" points="302.49,-75.87 311.98,-71.15 301.62,-68.92 302.49,-75.87"/>
</a>
</g>
</g>
<!-- Node11 -->
<g id="Node000011" class="node">
<title>Node11</title>
<g id="a_Node000011"><a xlink:href="classG3D_1_1Vector3.html#aac7827173c5e1e0170642d79b5521398" target="_top" xlink:title=" ">
<polygon fill="white" stroke="#666666" points="418.5,-37 313.5,-37 313.5,-18 418.5,-18 418.5,-37"/>
<text text-anchor="middle" x="366" y="-25" font-family="Helvetica,sans-Serif" font-size="10.00">G3D::Vector3::min</text>
</a>
</g>
</g>
<!-- Node6&#45;&gt;Node11 -->
<g id="edge12_Node000006_Node000011" class="edge">
<title>Node6&#45;&gt;Node11</title>
<g id="a_edge12_Node000006_Node000011"><a xlink:title=" ">
<path fill="none" stroke="#63b8ff" d="M235.87,-73.89C254.28,-66.11 281.14,-55.09 305,-46.5 311,-44.34 317.39,-42.17 323.68,-40.12"/>
<polygon fill="#63b8ff" stroke="#63b8ff" points="324.94,-43.39 333.39,-37 322.8,-36.73 324.94,-43.39"/>
</a>
</g>
</g>
<!-- Node7&#45;&gt;Node4 -->
<g id="edge8_Node000007_Node000004" class="edge">
<title>Node7&#45;&gt;Node4</title>
<g id="a_edge8_Node000007_Node000004"><a xlink:title=" ">
<path fill="none" stroke="#63b8ff" d="M406.49,-111.09C427.14,-116.1 452.61,-122.29 474.51,-127.61"/>
<polygon fill="#63b8ff" stroke="#63b8ff" points="473.75,-131.02 484.29,-129.98 475.4,-124.22 473.75,-131.02"/>
</a>
</g>
</g>
<!-- Node9 -->
<g id="Node000009" class="node">
<title>Node9</title>
<g id="a_Node000009"><a xlink:href="namespaceG3D.html#a08c0c3adc7299e964bea91de6cf24b8e" target="_top" xlink:title=" ">
<polygon fill="white" stroke="#666666" points="557,-93 492,-93 492,-74 557,-74 557,-93"/>
<text text-anchor="middle" x="524.5" y="-81" font-family="Helvetica,sans-Serif" font-size="10.00">G3D::max</text>
</a>
</g>
</g>
<!-- Node8&#45;&gt;Node9 -->
<g id="edge10_Node000008_Node000009" class="edge">
<title>Node8&#45;&gt;Node9</title>
<g id="a_edge10_Node000008_Node000009"><a xlink:title=" ">
<path fill="none" stroke="#63b8ff" d="M420.42,-70.99C440.44,-73.42 462.89,-76.14 481.71,-78.43"/>
<polygon fill="#63b8ff" stroke="#63b8ff" points="481.4,-81.91 491.75,-79.65 482.25,-74.97 481.4,-81.91"/>
</a>
</g>
</g>
<!-- Node10 -->
<g id="Node000010" class="node">
<title>Node10</title>
<g id="a_Node000010"><a xlink:href="classG3D_1_1Vector3.html#ab67b8cd6401c6dce004df38ea7076882" target="_top" xlink:title=" ">
<polygon fill="white" stroke="#666666" points="586,-56 463,-56 463,-37 586,-37 586,-56"/>
<text text-anchor="middle" x="524.5" y="-44" font-family="Helvetica,sans-Serif" font-size="10.00">G3D::Vector3::Vector3</text>
</a>
</g>
</g>
<!-- Node8&#45;&gt;Node10 -->
<g id="edge11_Node000008_Node000010" class="edge">
<title>Node8&#45;&gt;Node10</title>
<g id="a_edge11_Node000008_Node000010"><a xlink:title=" ">
<path fill="none" stroke="#63b8ff" d="M420.42,-58.36C430.75,-57.17 441.73,-55.9 452.53,-54.66"/>
<polygon fill="#63b8ff" stroke="#63b8ff" points="453.25,-58.1 462.79,-53.48 452.45,-51.15 453.25,-58.1"/>
</a>
</g>
</g>
<!-- Node11&#45;&gt;Node10 -->
<g id="edge14_Node000011_Node000010" class="edge">
<title>Node11&#45;&gt;Node10</title>
<g id="a_edge14_Node000011_Node000010"><a xlink:title=" ">
<path fill="none" stroke="#63b8ff" d="M418.68,-33.77C429.63,-35.1 441.36,-36.53 452.88,-37.93"/>
<polygon fill="#63b8ff" stroke="#63b8ff" points="452.56,-41.41 462.91,-39.14 453.41,-34.46 452.56,-41.41"/>
</a>
</g>
</g>
<!-- Node12 -->
<g id="Node000012" class="node">
<title>Node12</title>
<g id="a_Node000012"><a xlink:href="namespaceG3D.html#ac963e578ad7f1b9c9ad9fbc82b0f034c" target="_top" xlink:title=" ">
<polygon fill="white" stroke="#666666" points="555.5,-19 493.5,-19 493.5,0 555.5,0 555.5,-19"/>
<text text-anchor="middle" x="524.5" y="-7" font-family="Helvetica,sans-Serif" font-size="10.00">G3D::min</text>
</a>
</g>
</g>
<!-- Node11&#45;&gt;Node12 -->
<g id="edge13_Node000011_Node000012" class="edge">
<title>Node11&#45;&gt;Node12</title>
<g id="a_edge13_Node000011_Node000012"><a xlink:title=" ">
<path fill="none" stroke="#63b8ff" d="M418.68,-21.56C439.66,-19.14 463.53,-16.4 483.19,-14.14"/>
<polygon fill="#63b8ff" stroke="#63b8ff" points="483.8,-17.59 493.34,-12.97 483,-10.63 483.8,-17.59"/>
</a>
</g>
</g>
</g>
</svg>
