<?xml version="1.0" encoding="UTF-8" standalone="no"?>
<!DOCTYPE svg PUBLIC "-//W3C//DTD SVG 1.1//EN"
 "http://www.w3.org/Graphics/SVG/1.1/DTD/svg11.dtd">
<!-- Generated by graphviz version 2.43.0 (0)
 -->
<!-- Title: ThreatReference::flagsAllowFighting Pages: 1 -->
<svg width="1245pt" height="1549pt"
 viewBox="0.00 0.00 1245.00 1548.50" xmlns="http://www.w3.org/2000/svg" xmlns:xlink="http://www.w3.org/1999/xlink">
<g id="graph0" class="graph" transform="scale(1 1) rotate(0) translate(4 1544.5)">
<title>ThreatReference::flagsAllowFighting</title>
<!-- Node1 -->
<g id="Node000001" class="node">
<title>Node1</title>
<g id="a_Node000001"><a xlink:title=" ">
<polygon fill="#999999" stroke="#666666" points="1237,-554.5 1083,-554.5 1083,-524.5 1237,-524.5 1237,-554.5"/>
<text text-anchor="start" x="1091" y="-542.5" font-family="Helvetica,sans-Serif" font-size="10.00">ThreatReference::flagsAllow</text>
<text text-anchor="middle" x="1160" y="-531.5" font-family="Helvetica,sans-Serif" font-size="10.00">Fighting</text>
</a>
</g>
</g>
<!-- Node2 -->
<g id="Node000002" class="node">
<title>Node2</title>
<g id="a_Node000002"><a xlink:href="classThreatReference.html#ae4f9e4d1bbd09b488ec6c10877af3bf4" target="_top" xlink:title=" ">
<polygon fill="white" stroke="#666666" points="1047,-554.5 898,-554.5 898,-524.5 1047,-524.5 1047,-554.5"/>
<text text-anchor="start" x="906" y="-542.5" font-family="Helvetica,sans-Serif" font-size="10.00">ThreatReference::shouldBe</text>
<text text-anchor="middle" x="972.5" y="-531.5" font-family="Helvetica,sans-Serif" font-size="10.00">Offline</text>
</a>
</g>
</g>
<!-- Node1&#45;&gt;Node2 -->
<g id="edge1_Node000001_Node000002" class="edge">
<title>Node1&#45;&gt;Node2</title>
<g id="a_edge1_Node000001_Node000002"><a xlink:title=" ">
<path fill="none" stroke="#63b8ff" d="M1072.73,-539.5C1064.15,-539.5 1055.5,-539.5 1047.07,-539.5"/>
<polygon fill="#63b8ff" stroke="#63b8ff" points="1072.75,-543 1082.75,-539.5 1072.75,-536 1072.75,-543"/>
</a>
</g>
</g>
<!-- Node3 -->
<g id="Node000003" class="node">
<title>Node3</title>
<g id="a_Node000003"><a xlink:href="classThreatManager.html#a1db35a1e2cf658f85112d8d0ddfb03ac" target="_top" xlink:title=" ">
<polygon fill="white" stroke="#666666" points="851.5,-761.5 702.5,-761.5 702.5,-731.5 851.5,-731.5 851.5,-761.5"/>
<text text-anchor="start" x="710.5" y="-749.5" font-family="Helvetica,sans-Serif" font-size="10.00">ThreatManager::getCurrent</text>
<text text-anchor="middle" x="777" y="-738.5" font-family="Helvetica,sans-Serif" font-size="10.00">Victim</text>
</a>
</g>
</g>
<!-- Node2&#45;&gt;Node3 -->
<g id="edge2_Node000002_Node000003" class="edge">
<title>Node2&#45;&gt;Node3</title>
<g id="a_edge2_Node000002_Node000003"><a xlink:title=" ">
<path fill="none" stroke="#63b8ff" d="M950.41,-562.06C910.74,-604.5 825.96,-695.2 792.25,-731.26"/>
<polygon fill="#63b8ff" stroke="#63b8ff" points="953,-564.42 957.27,-554.72 947.89,-559.64 953,-564.42"/>
</a>
</g>
</g>
<!-- Node80 -->
<g id="Node000080" class="node">
<title>Node80</title>
<g id="a_Node000080"><a xlink:href="classThreatManager.html#a89146765377bdf42ad2c1f20eba9dad4" target="_top" xlink:title=" ">
<polygon fill="white" stroke="#666666" points="859,-549 695,-549 695,-530 859,-530 859,-549"/>
<text text-anchor="middle" x="777" y="-537" font-family="Helvetica,sans-Serif" font-size="10.00">ThreatManager::getLastVictim</text>
</a>
</g>
</g>
<!-- Node2&#45;&gt;Node80 -->
<g id="edge50_Node000002_Node000080" class="edge">
<title>Node2&#45;&gt;Node80</title>
<g id="a_edge50_Node000002_Node000080"><a xlink:title=" ">
<path fill="none" stroke="#63b8ff" d="M887.65,-539.5C878.23,-539.5 868.64,-539.5 859.25,-539.5"/>
<polygon fill="#63b8ff" stroke="#63b8ff" points="887.79,-543 897.79,-539.5 887.79,-536 887.79,-543"/>
</a>
</g>
</g>
<!-- Node81 -->
<g id="Node000081" class="node">
<title>Node81</title>
<g id="a_Node000081"><a xlink:href="classThreatReference.html#a11ef4d2c7d8f9518fd0e26a5a28e5798" target="_top" xlink:title=" ">
<polygon fill="white" stroke="#666666" points="862,-184 692,-184 692,-165 862,-165 862,-184"/>
<text text-anchor="middle" x="777" y="-172" font-family="Helvetica,sans-Serif" font-size="10.00">ThreatReference::updateOffline</text>
</a>
</g>
</g>
<!-- Node2&#45;&gt;Node81 -->
<g id="edge51_Node000002_Node000081" class="edge">
<title>Node2&#45;&gt;Node81</title>
<g id="a_edge51_Node000002_Node000081"><a xlink:title=" ">
<path fill="none" stroke="#63b8ff" d="M958.53,-515.03C920.19,-442.72 808.55,-232.13 783.17,-184.26"/>
<polygon fill="#63b8ff" stroke="#63b8ff" points="955.66,-517.09 963.43,-524.28 961.84,-513.81 955.66,-517.09"/>
</a>
</g>
</g>
<!-- Node4 -->
<g id="Node000004" class="node">
<title>Node4</title>
<g id="a_Node000004"><a xlink:href="classAIInterface.html#a2cf447880e9f042c5d4bb25ff67f3aeb" target="_top" xlink:title=" ">
<polygon fill="white" stroke="#666666" points="645.5,-1492.5 499.5,-1492.5 499.5,-1462.5 645.5,-1462.5 645.5,-1492.5"/>
<text text-anchor="start" x="507.5" y="-1480.5" font-family="Helvetica,sans-Serif" font-size="10.00">AIInterface::_selectCurrent</text>
<text text-anchor="middle" x="572.5" y="-1469.5" font-family="Helvetica,sans-Serif" font-size="10.00">Target</text>
</a>
</g>
</g>
<!-- Node3&#45;&gt;Node4 -->
<g id="edge3_Node000003_Node000004" class="edge">
<title>Node3&#45;&gt;Node4</title>
<g id="a_edge3_Node000003_Node000004"><a xlink:title=" ">
<path fill="none" stroke="#63b8ff" d="M775.19,-771.94C771.08,-886.01 748.79,-1349.38 656,-1453.5 652.92,-1456.95 649.38,-1459.92 645.53,-1462.47"/>
<polygon fill="#63b8ff" stroke="#63b8ff" points="778.7,-771.85 775.55,-761.73 771.7,-771.6 778.7,-771.85"/>
</a>
</g>
</g>
<!-- Node37 -->
<g id="Node000037" class="node">
<title>Node37</title>
<g id="a_Node000037"><a xlink:href="classThekaAI.html#a0a3b228451e6899d1730479d7bad1ac8" target="_top" xlink:title=" ">
<polygon fill="white" stroke="#666666" points="626,-1444 519,-1444 519,-1425 626,-1425 626,-1444"/>
<text text-anchor="middle" x="572.5" y="-1432" font-family="Helvetica,sans-Serif" font-size="10.00">ThekaAI::AIUpdate</text>
</a>
</g>
</g>
<!-- Node3&#45;&gt;Node37 -->
<g id="edge7_Node000003_Node000037" class="edge">
<title>Node3&#45;&gt;Node37</title>
<g id="a_edge7_Node000003_Node000037"><a xlink:title=" ">
<path fill="none" stroke="#63b8ff" d="M775.11,-771.81C770.69,-882.34 747.54,-1321.46 656,-1416.5 648.07,-1424.74 637.31,-1429.62 626.19,-1432.44"/>
<polygon fill="#63b8ff" stroke="#63b8ff" points="778.61,-771.74 775.5,-761.61 771.62,-771.47 778.61,-771.74"/>
</a>
</g>
</g>
<!-- Node38 -->
<g id="Node000038" class="node">
<title>Node38</title>
<g id="a_Node000038"><a xlink:href="classAntusulAI.html#aa42ac5b7c432852bc60bd9949b46f2a3" target="_top" xlink:title=" ">
<polygon fill="white" stroke="#666666" points="629.5,-1407 515.5,-1407 515.5,-1388 629.5,-1388 629.5,-1407"/>
<text text-anchor="middle" x="572.5" y="-1395" font-family="Helvetica,sans-Serif" font-size="10.00">AntusulAI::AIUpdate</text>
</a>
</g>
</g>
<!-- Node3&#45;&gt;Node38 -->
<g id="edge8_Node000003_Node000038" class="edge">
<title>Node3&#45;&gt;Node38</title>
<g id="a_edge8_Node000003_Node000038"><a xlink:title=" ">
<path fill="none" stroke="#63b8ff" d="M774.79,-771.71C769.16,-878.09 742.09,-1289.01 656,-1378.5 648.87,-1385.91 639.47,-1390.69 629.57,-1393.73"/>
<polygon fill="#63b8ff" stroke="#63b8ff" points="778.29,-771.75 775.31,-761.58 771.3,-771.39 778.29,-771.75"/>
</a>
</g>
</g>
<!-- Node39 -->
<g id="Node000039" class="node">
<title>Node39</title>
<g id="a_Node000039"><a xlink:href="classIllidariHeartseekerAI.html#ae765e486dd7ee810339b81d9021acd22" target="_top" xlink:title=" ">
<polygon fill="white" stroke="#666666" points="630.5,-1369.5 514.5,-1369.5 514.5,-1339.5 630.5,-1339.5 630.5,-1369.5"/>
<text text-anchor="start" x="522.5" y="-1357.5" font-family="Helvetica,sans-Serif" font-size="10.00">IllidariHeartseekerAI</text>
<text text-anchor="middle" x="572.5" y="-1346.5" font-family="Helvetica,sans-Serif" font-size="10.00">::AIUpdate</text>
</a>
</g>
</g>
<!-- Node3&#45;&gt;Node39 -->
<g id="edge9_Node000003_Node000039" class="edge">
<title>Node3&#45;&gt;Node39</title>
<g id="a_edge9_Node000003_Node000039"><a xlink:title=" ">
<path fill="none" stroke="#63b8ff" d="M774.2,-771.93C766.56,-873.21 733.46,-1246.54 656,-1330.5 649.12,-1337.96 640.08,-1343.14 630.5,-1346.74"/>
<polygon fill="#63b8ff" stroke="#63b8ff" points="777.71,-771.94 774.96,-761.71 770.73,-771.43 777.71,-771.94"/>
</a>
</g>
</g>
<!-- Node40 -->
<g id="Node000040" class="node">
<title>Node40</title>
<g id="a_Node000040"><a xlink:href="classAshtonguePrimalistAI.html#a8557da76ba2a1834044d5da98ed6a88b" target="_top" xlink:title=" ">
<polygon fill="white" stroke="#666666" points="633.5,-1321.5 511.5,-1321.5 511.5,-1291.5 633.5,-1291.5 633.5,-1321.5"/>
<text text-anchor="start" x="519.5" y="-1309.5" font-family="Helvetica,sans-Serif" font-size="10.00">AshtonguePrimalistAI</text>
<text text-anchor="middle" x="572.5" y="-1298.5" font-family="Helvetica,sans-Serif" font-size="10.00">::AIUpdate</text>
</a>
</g>
</g>
<!-- Node3&#45;&gt;Node40 -->
<g id="edge10_Node000003_Node000040" class="edge">
<title>Node3&#45;&gt;Node40</title>
<g id="a_edge10_Node000003_Node000040"><a xlink:title=" ">
<path fill="none" stroke="#63b8ff" d="M773.69,-771.98C764.51,-868 727.5,-1206.36 656,-1282.5 649.87,-1289.02 642.09,-1293.81 633.75,-1297.31"/>
<polygon fill="#63b8ff" stroke="#63b8ff" points="777.2,-772.03 774.65,-761.75 770.23,-771.38 777.2,-772.03"/>
</a>
</g>
</g>
<!-- Node41 -->
<g id="Node000041" class="node">
<title>Node41</title>
<g id="a_Node000041"><a xlink:href="classDragonmawSkyStalkerAI.html#a886f3e461c363337042c248400d80534" target="_top" xlink:title=" ">
<polygon fill="white" stroke="#666666" points="641,-1273.5 504,-1273.5 504,-1243.5 641,-1243.5 641,-1273.5"/>
<text text-anchor="start" x="512" y="-1261.5" font-family="Helvetica,sans-Serif" font-size="10.00">DragonmawSkyStalkerAI</text>
<text text-anchor="middle" x="572.5" y="-1250.5" font-family="Helvetica,sans-Serif" font-size="10.00">::AIUpdate</text>
</a>
</g>
</g>
<!-- Node3&#45;&gt;Node41 -->
<g id="edge11_Node000003_Node000041" class="edge">
<title>Node3&#45;&gt;Node41</title>
<g id="a_edge11_Node000003_Node000041"><a xlink:title=" ">
<path fill="none" stroke="#63b8ff" d="M773.12,-771.73C762.35,-861.84 721.65,-1166.04 656,-1234.5 651.77,-1238.91 646.77,-1242.53 641.37,-1245.49"/>
<polygon fill="#63b8ff" stroke="#63b8ff" points="776.62,-771.95 774.31,-761.61 769.67,-771.13 776.62,-771.95"/>
</a>
</g>
</g>
<!-- Node42 -->
<g id="Node000042" class="node">
<title>Node42</title>
<g id="a_Node000042"><a xlink:href="classDragonmawWindReaverAI.html#afb0a3778111190a2ab0a9b4435a03f0c" target="_top" xlink:title=" ">
<polygon fill="white" stroke="#666666" points="645,-1225.5 500,-1225.5 500,-1195.5 645,-1195.5 645,-1225.5"/>
<text text-anchor="start" x="508" y="-1213.5" font-family="Helvetica,sans-Serif" font-size="10.00">DragonmawWindReaverAI</text>
<text text-anchor="middle" x="572.5" y="-1202.5" font-family="Helvetica,sans-Serif" font-size="10.00">::AIUpdate</text>
</a>
</g>
</g>
<!-- Node3&#45;&gt;Node42 -->
<g id="edge12_Node000003_Node000042" class="edge">
<title>Node3&#45;&gt;Node42</title>
<g id="a_edge12_Node000003_Node000042"><a xlink:title=" ">
<path fill="none" stroke="#63b8ff" d="M772.36,-771.99C759.79,-856.53 715.7,-1125.79 656,-1186.5 652.65,-1189.9 648.85,-1192.83 644.77,-1195.35"/>
<polygon fill="#63b8ff" stroke="#63b8ff" points="775.84,-772.37 773.83,-761.97 768.91,-771.35 775.84,-772.37"/>
</a>
</g>
</g>
<!-- Node43 -->
<g id="Node000043" class="node">
<title>Node43</title>
<g id="a_Node000043"><a xlink:href="classShadowmoonDeathshaperAI.html#af0c62d530c1f9f178dc408b16aa7c9f5" target="_top" xlink:title=" ">
<polygon fill="white" stroke="#666666" points="650,-1177.5 495,-1177.5 495,-1147.5 650,-1147.5 650,-1177.5"/>
<text text-anchor="start" x="503" y="-1165.5" font-family="Helvetica,sans-Serif" font-size="10.00">ShadowmoonDeathshaperAI</text>
<text text-anchor="middle" x="572.5" y="-1154.5" font-family="Helvetica,sans-Serif" font-size="10.00">::AIUpdate</text>
</a>
</g>
</g>
<!-- Node3&#45;&gt;Node43 -->
<g id="edge13_Node000003_Node000043" class="edge">
<title>Node3&#45;&gt;Node43</title>
<g id="a_edge13_Node000003_Node000043"><a xlink:title=" ">
<path fill="none" stroke="#63b8ff" d="M776.03,-772.26C774.68,-841.76 761.13,-1034.83 656,-1138.5 652.5,-1141.96 648.52,-1144.92 644.26,-1147.46"/>
<polygon fill="#63b8ff" stroke="#63b8ff" points="779.54,-771.88 776.16,-761.84 772.54,-771.8 779.54,-771.88"/>
</a>
</g>
</g>
<!-- Node44 -->
<g id="Node000044" class="node">
<title>Node44</title>
<g id="a_Node000044"><a xlink:href="classShadowmoonHoundmasterAI.html#ad3befb72a2b3c34150964d5b6804faa1" target="_top" xlink:title=" ">
<polygon fill="white" stroke="#666666" points="651.5,-1129.5 493.5,-1129.5 493.5,-1099.5 651.5,-1099.5 651.5,-1129.5"/>
<text text-anchor="start" x="501.5" y="-1117.5" font-family="Helvetica,sans-Serif" font-size="10.00">ShadowmoonHoundmasterAI</text>
<text text-anchor="middle" x="572.5" y="-1106.5" font-family="Helvetica,sans-Serif" font-size="10.00">::AIUpdate</text>
</a>
</g>
</g>
<!-- Node3&#45;&gt;Node44 -->
<g id="edge14_Node000003_Node000044" class="edge">
<title>Node3&#45;&gt;Node44</title>
<g id="a_edge14_Node000003_Node000044"><a xlink:title=" ">
<path fill="none" stroke="#63b8ff" d="M774.76,-772.1C770.28,-835.59 749.71,-1001.58 656,-1090.5 652.43,-1093.89 648.41,-1096.8 644.11,-1099.31"/>
<polygon fill="#63b8ff" stroke="#63b8ff" points="778.27,-772.01 775.41,-761.81 771.29,-771.57 778.27,-772.01"/>
</a>
</g>
</g>
<!-- Node45 -->
<g id="Node000045" class="node">
<title>Node45</title>
<g id="a_Node000045"><a xlink:href="classShadowDemonAI.html#af2ab7863304119532ea6475a815617e2" target="_top" xlink:title=" ">
<polygon fill="white" stroke="#666666" points="648,-1081 497,-1081 497,-1062 648,-1062 648,-1081"/>
<text text-anchor="middle" x="572.5" y="-1069" font-family="Helvetica,sans-Serif" font-size="10.00">ShadowDemonAI::AIUpdate</text>
</a>
</g>
</g>
<!-- Node3&#45;&gt;Node45 -->
<g id="edge15_Node000003_Node000045" class="edge">
<title>Node3&#45;&gt;Node45</title>
<g id="a_edge15_Node000003_Node000045"><a xlink:title=" ">
<path fill="none" stroke="#63b8ff" d="M773.84,-771.98C767.42,-830.93 743.08,-977.4 656,-1052.5 651.55,-1056.34 646.47,-1059.44 641.08,-1061.95"/>
<polygon fill="#63b8ff" stroke="#63b8ff" points="777.35,-772.01 774.87,-761.71 770.39,-771.32 777.35,-772.01"/>
</a>
</g>
</g>
<!-- Node46 -->
<g id="Node000046" class="node">
<title>Node46</title>
<g id="a_Node000046"><a xlink:href="classSwamplordMuselekAI.html#ab6bb483013cccb2b253323bac1d527e4" target="_top" xlink:title=" ">
<polygon fill="white" stroke="#666666" points="633.5,-1043.5 511.5,-1043.5 511.5,-1013.5 633.5,-1013.5 633.5,-1043.5"/>
<text text-anchor="start" x="519.5" y="-1031.5" font-family="Helvetica,sans-Serif" font-size="10.00">SwamplordMuselekAI</text>
<text text-anchor="middle" x="572.5" y="-1020.5" font-family="Helvetica,sans-Serif" font-size="10.00">::AIUpdate</text>
</a>
</g>
</g>
<!-- Node3&#45;&gt;Node46 -->
<g id="edge16_Node000003_Node000046" class="edge">
<title>Node3&#45;&gt;Node46</title>
<g id="a_edge16_Node000003_Node000046"><a xlink:title=" ">
<path fill="none" stroke="#63b8ff" d="M771.51,-771.57C760.95,-823.08 729.67,-941.27 656,-1004.5 649.55,-1010.04 641.88,-1014.3 633.86,-1017.58"/>
<polygon fill="#63b8ff" stroke="#63b8ff" points="774.97,-772.12 773.45,-761.64 768.1,-770.78 774.97,-772.12"/>
</a>
</g>
</g>
<!-- Node47 -->
<g id="Node000047" class="node">
<title>Node47</title>
<g id="a_Node000047"><a xlink:href="classWaterEleAI.html#a6848fb18e640e11b02b44d47533e29ba" target="_top" xlink:title=" ">
<polygon fill="white" stroke="#666666" points="633,-995 512,-995 512,-976 633,-976 633,-995"/>
<text text-anchor="middle" x="572.5" y="-983" font-family="Helvetica,sans-Serif" font-size="10.00">WaterEleAI::AIUpdate</text>
</a>
</g>
</g>
<!-- Node3&#45;&gt;Node47 -->
<g id="edge17_Node000003_Node000047" class="edge">
<title>Node3&#45;&gt;Node47</title>
<g id="a_edge17_Node000003_Node000047"><a xlink:title=" ">
<path fill="none" stroke="#63b8ff" d="M769.83,-771.56C757.03,-817.98 723.05,-917.15 656,-967.5 649.2,-972.61 641.25,-976.32 633.01,-979.02"/>
<polygon fill="#63b8ff" stroke="#63b8ff" points="773.26,-772.29 772.44,-761.73 766.49,-770.49 773.26,-772.29"/>
</a>
</g>
</g>
<!-- Node48 -->
<g id="Node000048" class="node">
<title>Node48</title>
<g id="a_Node000048"><a xlink:href="classShadowofAranAI.html#ac75f4fd28946d432cf484c314bffb83d" target="_top" xlink:title=" ">
<polygon fill="white" stroke="#666666" points="646.5,-958 498.5,-958 498.5,-939 646.5,-939 646.5,-958"/>
<text text-anchor="middle" x="572.5" y="-946" font-family="Helvetica,sans-Serif" font-size="10.00">ShadowofAranAI::AIUpdate</text>
</a>
</g>
</g>
<!-- Node3&#45;&gt;Node48 -->
<g id="edge18_Node000003_Node000048" class="edge">
<title>Node3&#45;&gt;Node48</title>
<g id="a_edge18_Node000003_Node000048"><a xlink:title=" ">
<path fill="none" stroke="#63b8ff" d="M767.16,-771.03C751.39,-811.1 714.48,-890.16 656,-930.5 651.05,-933.91 645.57,-936.69 639.86,-938.96"/>
<polygon fill="#63b8ff" stroke="#63b8ff" points="770.5,-772.09 770.8,-761.5 763.96,-769.6 770.5,-772.09"/>
</a>
</g>
</g>
<!-- Node49 -->
<g id="Node000049" class="node">
<title>Node49</title>
<g id="a_Node000049"><a xlink:href="classIllhoofAI.html#a9207651cd4e49ecf2472769e11a5fabb" target="_top" xlink:title=" ">
<polygon fill="white" stroke="#666666" points="626.5,-921 518.5,-921 518.5,-902 626.5,-902 626.5,-921"/>
<text text-anchor="middle" x="572.5" y="-909" font-family="Helvetica,sans-Serif" font-size="10.00">IllhoofAI::AIUpdate</text>
</a>
</g>
</g>
<!-- Node3&#45;&gt;Node49 -->
<g id="edge19_Node000003_Node000049" class="edge">
<title>Node3&#45;&gt;Node49</title>
<g id="a_edge19_Node000003_Node000049"><a xlink:title=" ">
<path fill="none" stroke="#63b8ff" d="M763.12,-770.87C744.25,-804.08 705.83,-862.91 656,-893.5 647.13,-898.94 636.83,-902.75 626.58,-905.42"/>
<polygon fill="#63b8ff" stroke="#63b8ff" points="766.34,-772.28 768.13,-761.84 760.22,-768.88 766.34,-772.28"/>
</a>
</g>
</g>
<!-- Node50 -->
<g id="Node000050" class="node">
<title>Node50</title>
<g id="a_Node000050"><a xlink:href="classCapernianAI.html#abe33ecb546ac1594430238b27bc315a7" target="_top" xlink:title=" ">
<polygon fill="white" stroke="#666666" points="636,-884 509,-884 509,-865 636,-865 636,-884"/>
<text text-anchor="middle" x="572.5" y="-872" font-family="Helvetica,sans-Serif" font-size="10.00">CapernianAI::AIUpdate</text>
</a>
</g>
</g>
<!-- Node3&#45;&gt;Node50 -->
<g id="edge20_Node000003_Node000050" class="edge">
<title>Node3&#45;&gt;Node50</title>
<g id="a_edge20_Node000003_Node000050"><a xlink:title=" ">
<path fill="none" stroke="#63b8ff" d="M757.46,-769.62C735.84,-794.96 697.7,-834.88 656,-856.5 649.36,-859.94 642.1,-862.73 634.71,-864.98"/>
<polygon fill="#63b8ff" stroke="#63b8ff" points="760.41,-771.55 764.14,-761.64 755.04,-767.06 760.41,-771.55"/>
</a>
</g>
</g>
<!-- Node51 -->
<g id="Node000051" class="node">
<title>Node51</title>
<g id="a_Node000051"><a xlink:href="classEyeStalkerAI.html#af471987c6249d60a2bb305a6efab2d46" target="_top" xlink:title=" ">
<polygon fill="white" stroke="#666666" points="637,-847 508,-847 508,-828 637,-828 637,-847"/>
<text text-anchor="middle" x="572.5" y="-835" font-family="Helvetica,sans-Serif" font-size="10.00">EyeStalkerAI::AIUpdate</text>
</a>
</g>
</g>
<!-- Node3&#45;&gt;Node51 -->
<g id="edge21_Node000003_Node000051" class="edge">
<title>Node3&#45;&gt;Node51</title>
<g id="a_edge21_Node000003_Node000051"><a xlink:title=" ">
<path fill="none" stroke="#63b8ff" d="M746.94,-767.51C723.45,-783.59 688.97,-805.2 656,-818.5 646.59,-822.29 636.27,-825.42 626.2,-827.97"/>
<polygon fill="#63b8ff" stroke="#63b8ff" points="749.17,-770.22 755.38,-761.64 745.17,-764.47 749.17,-770.22"/>
</a>
</g>
</g>
<!-- Node52 -->
<g id="Node000052" class="node">
<title>Node52</title>
<g id="a_Node000052"><a xlink:href="classPortalOfShadowsAI.html#abef91f096aa7cb55a3749ccb7b2636cd" target="_top" xlink:title=" ">
<polygon fill="white" stroke="#666666" points="630.5,-809.5 514.5,-809.5 514.5,-779.5 630.5,-779.5 630.5,-809.5"/>
<text text-anchor="start" x="522.5" y="-797.5" font-family="Helvetica,sans-Serif" font-size="10.00">PortalOfShadowsAI::</text>
<text text-anchor="middle" x="572.5" y="-786.5" font-family="Helvetica,sans-Serif" font-size="10.00">AIUpdate</text>
</a>
</g>
</g>
<!-- Node3&#45;&gt;Node52 -->
<g id="edge22_Node000003_Node000052" class="edge">
<title>Node3&#45;&gt;Node52</title>
<g id="a_edge22_Node000003_Node000052"><a xlink:title=" ">
<path fill="none" stroke="#63b8ff" d="M702.49,-763.93C678.8,-769.54 652.93,-775.67 630.61,-780.96"/>
<polygon fill="#63b8ff" stroke="#63b8ff" points="703.56,-767.27 712.48,-761.56 701.95,-760.46 703.56,-767.27"/>
</a>
</g>
</g>
<!-- Node53 -->
<g id="Node000053" class="node">
<title>Node53</title>
<g id="a_Node000053"><a xlink:href="classSoldierOfTheFrozenWastesAI.html#ac1f95d7473bc622144418e2a168555bb" target="_top" xlink:title=" ">
<polygon fill="white" stroke="#666666" points="646,-761.5 499,-761.5 499,-731.5 646,-731.5 646,-761.5"/>
<text text-anchor="start" x="507" y="-749.5" font-family="Helvetica,sans-Serif" font-size="10.00">SoldierOfTheFrozenWastes</text>
<text text-anchor="middle" x="572.5" y="-738.5" font-family="Helvetica,sans-Serif" font-size="10.00">AI::AIUpdate</text>
</a>
</g>
</g>
<!-- Node3&#45;&gt;Node53 -->
<g id="edge23_Node000003_Node000053" class="edge">
<title>Node3&#45;&gt;Node53</title>
<g id="a_edge23_Node000003_Node000053"><a xlink:title=" ">
<path fill="none" stroke="#63b8ff" d="M691.9,-746.5C676.69,-746.5 660.95,-746.5 646.11,-746.5"/>
<polygon fill="#63b8ff" stroke="#63b8ff" points="692.32,-750 702.32,-746.5 692.32,-743 692.32,-750"/>
</a>
</g>
</g>
<!-- Node54 -->
<g id="Node000054" class="node">
<title>Node54</title>
<g id="a_Node000054"><a xlink:href="classGuardianOfIcecrownAI.html#aed1f86f6e51cbcf09c8cc043f8d8b663" target="_top" xlink:title=" ">
<polygon fill="white" stroke="#666666" points="635,-713.5 510,-713.5 510,-683.5 635,-683.5 635,-713.5"/>
<text text-anchor="start" x="518" y="-701.5" font-family="Helvetica,sans-Serif" font-size="10.00">GuardianOfIcecrownAI</text>
<text text-anchor="middle" x="572.5" y="-690.5" font-family="Helvetica,sans-Serif" font-size="10.00">::AIUpdate</text>
</a>
</g>
</g>
<!-- Node3&#45;&gt;Node54 -->
<g id="edge24_Node000003_Node000054" class="edge">
<title>Node3&#45;&gt;Node54</title>
<g id="a_edge24_Node000003_Node000054"><a xlink:title=" ">
<path fill="none" stroke="#63b8ff" d="M702.47,-729.07C680.35,-723.83 656.32,-718.13 635.06,-713.09"/>
<polygon fill="#63b8ff" stroke="#63b8ff" points="701.95,-732.54 712.48,-731.44 703.56,-725.73 701.95,-732.54"/>
</a>
</g>
</g>
<!-- Node55 -->
<g id="Node000055" class="node">
<title>Node55</title>
<g id="a_Node000055"><a xlink:href="classDancingRuneWeaponAI.html#a2dabbdb1259be9f7c3503ea5b5d0c7c9" target="_top" xlink:title=" ">
<polygon fill="white" stroke="#666666" points="637.5,-665.5 507.5,-665.5 507.5,-635.5 637.5,-635.5 637.5,-665.5"/>
<text text-anchor="start" x="515.5" y="-653.5" font-family="Helvetica,sans-Serif" font-size="10.00">DancingRuneWeaponAI</text>
<text text-anchor="middle" x="572.5" y="-642.5" font-family="Helvetica,sans-Serif" font-size="10.00">::AIUpdate</text>
</a>
</g>
</g>
<!-- Node3&#45;&gt;Node55 -->
<g id="edge25_Node000003_Node000055" class="edge">
<title>Node3&#45;&gt;Node55</title>
<g id="a_edge25_Node000003_Node000055"><a xlink:title=" ">
<path fill="none" stroke="#63b8ff" d="M746.3,-725.72C722.69,-709.95 688.38,-688.64 656,-674.5 648.48,-671.22 640.39,-668.24 632.31,-665.58"/>
<polygon fill="#63b8ff" stroke="#63b8ff" points="744.55,-728.76 754.79,-731.47 748.47,-722.96 744.55,-728.76"/>
</a>
</g>
</g>
<!-- Node56 -->
<g id="Node000056" class="node">
<title>Node56</title>
<g id="a_Node000056"><a xlink:href="classNightbaneAI.html#a3621932212a4fbbedab1ad04e6bc1df2" target="_top" xlink:title=" ">
<polygon fill="white" stroke="#666666" points="636,-617 509,-617 509,-598 636,-598 636,-617"/>
<text text-anchor="middle" x="572.5" y="-605" font-family="Helvetica,sans-Serif" font-size="10.00">NightbaneAI::FlyPhase</text>
</a>
</g>
</g>
<!-- Node3&#45;&gt;Node56 -->
<g id="edge26_Node000003_Node000056" class="edge">
<title>Node3&#45;&gt;Node56</title>
<g id="a_edge26_Node000003_Node000056"><a xlink:title=" ">
<path fill="none" stroke="#63b8ff" d="M759.17,-723.01C738.19,-695.53 699.72,-650.72 656,-626.5 648.93,-622.58 641.09,-619.47 633.13,-617"/>
<polygon fill="#63b8ff" stroke="#63b8ff" points="756.56,-725.37 765.35,-731.28 762.17,-721.17 756.56,-725.37"/>
</a>
</g>
</g>
<!-- Node58 -->
<g id="Node000058" class="node">
<title>Node58</title>
<g id="a_Node000058"><a xlink:href="classThreatManager.html#a0738346a2208577a6bac3b4ee0b756a3" target="_top" xlink:title=" ">
<polygon fill="white" stroke="#666666" points="646.5,-579.5 498.5,-579.5 498.5,-549.5 646.5,-549.5 646.5,-579.5"/>
<text text-anchor="start" x="506.5" y="-567.5" font-family="Helvetica,sans-Serif" font-size="10.00">ThreatManager::getSecond</text>
<text text-anchor="middle" x="572.5" y="-556.5" font-family="Helvetica,sans-Serif" font-size="10.00">MostHated</text>
</a>
</g>
</g>
<!-- Node3&#45;&gt;Node58 -->
<g id="edge28_Node000003_Node000058" class="edge">
<title>Node3&#45;&gt;Node58</title>
<g id="a_edge28_Node000003_Node000058"><a xlink:title=" ">
<path fill="none" stroke="#63b8ff" d="M763.99,-722.55C745.49,-688.06 706.77,-624.7 656,-589.5 650.47,-585.66 644.33,-582.4 637.97,-579.63"/>
<polygon fill="#63b8ff" stroke="#63b8ff" points="760.92,-724.23 768.67,-731.46 767.12,-720.98 760.92,-724.23"/>
</a>
</g>
</g>
<!-- Node61 -->
<g id="Node000061" class="node">
<title>Node61</title>
<g id="a_Node000061"><a xlink:href="classLairBruteAI.html#a42c2cbae3b53e212fa88f8f672496b08" target="_top" xlink:title=" ">
<polygon fill="white" stroke="#666666" points="640.5,-531 504.5,-531 504.5,-512 640.5,-512 640.5,-531"/>
<text text-anchor="middle" x="572.5" y="-519" font-family="Helvetica,sans-Serif" font-size="10.00">LairBruteAI::OnCastSpell</text>
</a>
</g>
</g>
<!-- Node3&#45;&gt;Node61 -->
<g id="edge31_Node000003_Node000061" class="edge">
<title>Node3&#45;&gt;Node61</title>
<g id="a_edge31_Node000003_Node000061"><a xlink:title=" ">
<path fill="none" stroke="#63b8ff" d="M768.76,-721.63C754.67,-677.82 719.25,-587.08 656,-540.5 650.79,-536.66 644.94,-533.59 638.81,-531.12"/>
<polygon fill="#63b8ff" stroke="#63b8ff" points="765.43,-722.71 771.74,-731.22 772.12,-720.63 765.43,-722.71"/>
</a>
</g>
</g>
<!-- Node62 -->
<g id="Node000062" class="node">
<title>Node62</title>
<g id="a_Node000062"><a xlink:href="classGuardianOfIcecrownAI.html#a22c6a0f3a255f885cbd09c2da896136a" target="_top" xlink:title=" ">
<polygon fill="white" stroke="#666666" points="635,-493.5 510,-493.5 510,-463.5 635,-463.5 635,-493.5"/>
<text text-anchor="start" x="518" y="-481.5" font-family="Helvetica,sans-Serif" font-size="10.00">GuardianOfIcecrownAI</text>
<text text-anchor="middle" x="572.5" y="-470.5" font-family="Helvetica,sans-Serif" font-size="10.00">::OnCombatStart</text>
</a>
</g>
</g>
<!-- Node3&#45;&gt;Node62 -->
<g id="edge32_Node000003_Node000062" class="edge">
<title>Node3&#45;&gt;Node62</title>
<g id="a_edge32_Node000003_Node000062"><a xlink:title=" ">
<path fill="none" stroke="#63b8ff" d="M765.32,-722.17C739.45,-663.71 674.28,-519 656,-503.5 649.84,-498.27 642.6,-494.14 635.02,-490.87"/>
<polygon fill="#63b8ff" stroke="#63b8ff" points="762.15,-723.67 769.39,-731.41 768.56,-720.85 762.15,-723.67"/>
</a>
</g>
</g>
<!-- Node63 -->
<g id="Node000063" class="node">
<title>Node63</title>
<g id="a_Node000063"><a xlink:href="classIllidanStormrageAI.html#a0cb0ec43e72834b190cbeac8b561982b" target="_top" xlink:title=" ">
<polygon fill="white" stroke="#666666" points="626,-445.5 519,-445.5 519,-415.5 626,-415.5 626,-445.5"/>
<text text-anchor="start" x="527" y="-433.5" font-family="Helvetica,sans-Serif" font-size="10.00">IllidanStormrageAI</text>
<text text-anchor="middle" x="572.5" y="-422.5" font-family="Helvetica,sans-Serif" font-size="10.00">::OnDamageTaken</text>
</a>
</g>
</g>
<!-- Node3&#45;&gt;Node63 -->
<g id="edge33_Node000003_Node000063" class="edge">
<title>Node3&#45;&gt;Node63</title>
<g id="a_edge33_Node000003_Node000063"><a xlink:title=" ">
<path fill="none" stroke="#63b8ff" d="M764.21,-721.95C747.28,-686.33 715.56,-618.05 692,-558.5 674.01,-513.02 691.44,-488.21 656,-454.5 647.79,-446.69 637.18,-441.4 626.32,-437.82"/>
<polygon fill="#63b8ff" stroke="#63b8ff" points="761.1,-723.58 768.57,-731.1 767.42,-720.56 761.1,-723.58"/>
</a>
</g>
</g>
<!-- Node64 -->
<g id="Node000064" class="node">
<title>Node64</title>
<g id="a_Node000064"><a xlink:href="classIllidanStormrageAI.html#a9dbc0321e8a46096cda74776796a3f68" target="_top" xlink:title=" ">
<polygon fill="white" stroke="#666666" points="626,-397.5 519,-397.5 519,-367.5 626,-367.5 626,-397.5"/>
<text text-anchor="start" x="527" y="-385.5" font-family="Helvetica,sans-Serif" font-size="10.00">IllidanStormrageAI</text>
<text text-anchor="middle" x="572.5" y="-374.5" font-family="Helvetica,sans-Serif" font-size="10.00">::OnHit</text>
</a>
</g>
</g>
<!-- Node3&#45;&gt;Node64 -->
<g id="edge34_Node000003_Node000064" class="edge">
<title>Node3&#45;&gt;Node64</title>
<g id="a_edge34_Node000003_Node000064"><a xlink:title=" ">
<path fill="none" stroke="#63b8ff" d="M763.39,-722.25C745.47,-686.99 712.53,-619.17 692,-558.5 669.74,-492.74 703.83,-456.82 656,-406.5 647.98,-398.07 637.19,-392.55 626.06,-388.94"/>
<polygon fill="#63b8ff" stroke="#63b8ff" points="760.35,-723.99 768.02,-731.3 766.58,-720.8 760.35,-723.99"/>
</a>
</g>
</g>
<!-- Node65 -->
<g id="Node000065" class="node">
<title>Node65</title>
<g id="a_Node000065"><a xlink:href="classProspectorAnvilward.html#a7201c899a7c9b2f88980ce77d632ad84" target="_top" xlink:title=" ">
<polygon fill="white" stroke="#666666" points="631,-349.5 514,-349.5 514,-319.5 631,-319.5 631,-349.5"/>
<text text-anchor="start" x="522" y="-337.5" font-family="Helvetica,sans-Serif" font-size="10.00">ProspectorAnvilward</text>
<text text-anchor="middle" x="572.5" y="-326.5" font-family="Helvetica,sans-Serif" font-size="10.00">::OnReachWP</text>
</a>
</g>
</g>
<!-- Node3&#45;&gt;Node65 -->
<g id="edge35_Node000003_Node000065" class="edge">
<title>Node3&#45;&gt;Node65</title>
<g id="a_edge35_Node000003_Node000065"><a xlink:title=" ">
<path fill="none" stroke="#63b8ff" d="M762.94,-722.39C744.47,-687.32 710.87,-619.7 692,-558.5 665.38,-472.19 716.42,-425.63 656,-358.5 649.31,-351.07 640.48,-345.89 631.07,-342.28"/>
<polygon fill="#63b8ff" stroke="#63b8ff" points="759.94,-724.21 767.72,-731.39 766.12,-720.92 759.94,-724.21"/>
</a>
</g>
</g>
<!-- Node66 -->
<g id="Node000066" class="node">
<title>Node66</title>
<g id="a_Node000066"><a xlink:href="classIllidanStormrageAI.html#a48a079ffea8150a8b76e0f7b505be1a8" target="_top" xlink:title=" ">
<polygon fill="white" stroke="#666666" points="626,-301.5 519,-301.5 519,-271.5 626,-271.5 626,-301.5"/>
<text text-anchor="start" x="527" y="-289.5" font-family="Helvetica,sans-Serif" font-size="10.00">IllidanStormrageAI</text>
<text text-anchor="middle" x="572.5" y="-278.5" font-family="Helvetica,sans-Serif" font-size="10.00">::OnReachWP</text>
</a>
</g>
</g>
<!-- Node3&#45;&gt;Node66 -->
<g id="edge36_Node000003_Node000066" class="edge">
<title>Node3&#45;&gt;Node66</title>
<g id="a_edge36_Node000003_Node000066"><a xlink:title=" ">
<path fill="none" stroke="#63b8ff" d="M762.66,-722.48C743.85,-687.5 709.83,-620.01 692,-558.5 660.99,-451.53 729.1,-394.53 656,-310.5 648.27,-301.61 637.45,-295.92 626.19,-292.3"/>
<polygon fill="#63b8ff" stroke="#63b8ff" points="759.68,-724.34 767.54,-731.45 765.83,-720.99 759.68,-724.34"/>
</a>
</g>
</g>
<!-- Node67 -->
<g id="Node000067" class="node">
<title>Node67</title>
<g id="a_Node000067"><a xlink:href="classIllidanStormrageAI.html#a99ca5f6ceaf09f5c5409ed7e2ba47cc8" target="_top" xlink:title=" ">
<polygon fill="white" stroke="#666666" points="250,-215.5 143,-215.5 143,-185.5 250,-185.5 250,-215.5"/>
<text text-anchor="start" x="151" y="-203.5" font-family="Helvetica,sans-Serif" font-size="10.00">IllidanStormrageAI</text>
<text text-anchor="middle" x="196.5" y="-192.5" font-family="Helvetica,sans-Serif" font-size="10.00">::PhaseFive</text>
</a>
</g>
</g>
<!-- Node3&#45;&gt;Node67 -->
<g id="edge37_Node000003_Node000067" class="edge">
<title>Node3&#45;&gt;Node67</title>
<g id="a_edge37_Node000003_Node000067"><a xlink:title=" ">
<path fill="none" stroke="#63b8ff" d="M762.47,-722.53C743.42,-687.63 709.12,-620.22 692,-558.5 674.29,-494.65 703.29,-308.91 656,-262.5 597.01,-204.6 367.27,-239.59 286,-224.5 273.32,-222.15 259.81,-218.88 247.25,-215.51"/>
<polygon fill="#63b8ff" stroke="#63b8ff" points="759.51,-724.42 767.41,-731.49 765.64,-721.04 759.51,-724.42"/>
</a>
</g>
</g>
<!-- Node69 -->
<g id="Node000069" class="node">
<title>Node69</title>
<g id="a_Node000069"><a xlink:href="classIllidanStormrageAI.html#a5b0e4d9d2cf11f7013bfd692757ae0d6" target="_top" xlink:title=" ">
<polygon fill="white" stroke="#666666" points="626,-215.5 519,-215.5 519,-185.5 626,-185.5 626,-215.5"/>
<text text-anchor="start" x="527" y="-203.5" font-family="Helvetica,sans-Serif" font-size="10.00">IllidanStormrageAI</text>
<text text-anchor="middle" x="572.5" y="-192.5" font-family="Helvetica,sans-Serif" font-size="10.00">::PhaseFour</text>
</a>
</g>
</g>
<!-- Node3&#45;&gt;Node69 -->
<g id="edge39_Node000003_Node000069" class="edge">
<title>Node3&#45;&gt;Node69</title>
<g id="a_edge39_Node000003_Node000069"><a xlink:title=" ">
<path fill="none" stroke="#63b8ff" d="M762.07,-722.02C742.84,-687 708.66,-620 692,-558.5 672.77,-487.51 701.72,-287.11 656,-229.5 648.45,-219.99 637.56,-213.59 626.16,-209.28"/>
<polygon fill="#63b8ff" stroke="#63b8ff" points="759.15,-723.98 767.07,-731.02 765.27,-720.58 759.15,-723.98"/>
</a>
</g>
</g>
<!-- Node72 -->
<g id="Node000072" class="node">
<title>Node72</title>
<g id="a_Node000072"><a xlink:href="classRagnarosAI.html#abf9f4dbf6d03edf55bf9021ff90d5400" target="_top" xlink:title=" ">
<polygon fill="white" stroke="#666666" points="634.5,-167 510.5,-167 510.5,-148 634.5,-148 634.5,-167"/>
<text text-anchor="middle" x="572.5" y="-155" font-family="Helvetica,sans-Serif" font-size="10.00">RagnarosAI::SpellCast</text>
</a>
</g>
</g>
<!-- Node3&#45;&gt;Node72 -->
<g id="edge44_Node000003_Node000072" class="edge">
<title>Node3&#45;&gt;Node72</title>
<g id="a_edge44_Node000003_Node000072"><a xlink:title=" ">
<path fill="none" stroke="#63b8ff" d="M761.94,-722.06C742.56,-687.07 708.2,-620.13 692,-558.5 670.32,-476.04 712.17,-240.65 656,-176.5 650.29,-169.98 642.83,-165.45 634.72,-162.35"/>
<polygon fill="#63b8ff" stroke="#63b8ff" points="759.04,-724.04 766.98,-731.05 765.15,-720.61 759.04,-724.04"/>
</a>
</g>
</g>
<!-- Node74 -->
<g id="Node000074" class="node">
<title>Node74</title>
<g id="a_Node000074"><a xlink:href="classSpell.html#a0e2fcde824bb2bf678dc974b0c67a966" target="_top" xlink:title=" ">
<polygon fill="white" stroke="#666666" points="645,-130 500,-130 500,-111 645,-111 645,-130"/>
<text text-anchor="middle" x="572.5" y="-118" font-family="Helvetica,sans-Serif" font-size="10.00">Spell::SpellEffectAttackMe</text>
</a>
</g>
</g>
<!-- Node3&#45;&gt;Node74 -->
<g id="edge46_Node000003_Node000074" class="edge">
<title>Node3&#45;&gt;Node74</title>
<g id="a_edge46_Node000003_Node000074"><a xlink:title=" ">
<path fill="none" stroke="#63b8ff" d="M761.87,-722.08C742.41,-687.11 707.95,-620.19 692,-558.5 668.61,-468.02 717.28,-210.06 656,-139.5 652.72,-135.73 648.86,-132.62 644.63,-130.07"/>
<polygon fill="#63b8ff" stroke="#63b8ff" points="758.98,-724.07 766.94,-731.06 765.07,-720.63 758.98,-724.07"/>
</a>
</g>
</g>
<!-- Node75 -->
<g id="Node000075" class="node">
<title>Node75</title>
<g id="a_Node000075"><a xlink:href="MiscSpells_8cpp.html#ad54693324daebed4ba08b48610bbf13c" target="_top" xlink:title=" ">
<polygon fill="white" stroke="#666666" points="599,-93 546,-93 546,-74 599,-74 599,-93"/>
<text text-anchor="middle" x="572.5" y="-81" font-family="Helvetica,sans-Serif" font-size="10.00">Temper</text>
</a>
</g>
</g>
<!-- Node3&#45;&gt;Node75 -->
<g id="edge47_Node000003_Node000075" class="edge">
<title>Node3&#45;&gt;Node75</title>
<g id="a_edge47_Node000003_Node000075"><a xlink:title=" ">
<path fill="none" stroke="#63b8ff" d="M761.81,-722.09C742.28,-687.15 707.73,-620.25 692,-558.5 666.9,-460 722.38,-179.48 656,-102.5 642.18,-86.47 617.8,-82.46 599.12,-82.02"/>
<polygon fill="#63b8ff" stroke="#63b8ff" points="758.92,-724.09 766.9,-731.07 765.02,-720.64 758.92,-724.09"/>
</a>
</g>
</g>
<!-- Node79 -->
<g id="Node000079" class="node">
<title>Node79</title>
<g id="a_Node000079"><a xlink:href="classAIInterface.html#a901df17926be3cd8b12363751e76123b" target="_top" xlink:title=" ">
<polygon fill="#fff0f0" stroke="red" points="645.5,-56 499.5,-56 499.5,-37 645.5,-37 645.5,-56"/>
<text text-anchor="middle" x="572.5" y="-44" font-family="Helvetica,sans-Serif" font-size="10.00">AIInterface::updateEmotes</text>
</a>
</g>
</g>
<!-- Node3&#45;&gt;Node79 -->
<g id="edge49_Node000003_Node000079" class="edge">
<title>Node3&#45;&gt;Node79</title>
<g id="a_edge49_Node000003_Node000079"><a xlink:title=" ">
<path fill="none" stroke="#63b8ff" d="M761.76,-722.11C742.17,-687.18 707.55,-620.29 692,-558.5 678.57,-505.13 692.06,-106.08 656,-64.5 653.02,-61.07 649.56,-58.2 645.76,-55.82"/>
<polygon fill="#63b8ff" stroke="#63b8ff" points="758.88,-724.11 766.86,-731.08 764.96,-720.66 758.88,-724.11"/>
</a>
</g>
</g>
<!-- Node5 -->
<g id="Node000005" class="node">
<title>Node5</title>
<g id="a_Node000005"><a xlink:href="classAIInterface.html#a906dba2a43eb7de6dce7520cf5b271ff" target="_top" xlink:title=" ">
<polygon fill="#fff0f0" stroke="red" points="434,-1540.5 305,-1540.5 305,-1510.5 434,-1510.5 434,-1540.5"/>
<text text-anchor="start" x="313" y="-1528.5" font-family="Helvetica,sans-Serif" font-size="10.00">AIInterface::_findFriend</text>
<text text-anchor="middle" x="369.5" y="-1517.5" font-family="Helvetica,sans-Serif" font-size="10.00">WhileFleeing</text>
</a>
</g>
</g>
<!-- Node4&#45;&gt;Node5 -->
<g id="edge4_Node000004_Node000005" class="edge">
<title>Node4&#45;&gt;Node5</title>
<g id="a_edge4_Node000004_Node000005"><a xlink:title=" ">
<path fill="none" stroke="#63b8ff" d="M498.46,-1494.94C477.12,-1500.04 453.98,-1505.57 433.32,-1510.5"/>
<polygon fill="#63b8ff" stroke="#63b8ff" points="499.54,-1498.28 508.45,-1492.56 497.91,-1491.47 499.54,-1498.28"/>
</a>
</g>
</g>
<!-- Node10 -->
<g id="Node000010" class="node">
<title>Node10</title>
<g id="a_Node000010"><a xlink:href="classAIInterface.html#a8371fadd83639755ec39127537beb46b" target="_top" xlink:title=" ">
<polygon fill="#fff0f0" stroke="red" points="445,-1492.5 294,-1492.5 294,-1462.5 445,-1462.5 445,-1492.5"/>
<text text-anchor="start" x="302" y="-1480.5" font-family="Helvetica,sans-Serif" font-size="10.00">AIInterface::_updateCurrent</text>
<text text-anchor="middle" x="369.5" y="-1469.5" font-family="Helvetica,sans-Serif" font-size="10.00">Target</text>
</a>
</g>
</g>
<!-- Node4&#45;&gt;Node10 -->
<g id="edge5_Node000004_Node000010" class="edge">
<title>Node4&#45;&gt;Node10</title>
<g id="a_edge5_Node000004_Node000010"><a xlink:title=" ">
<path fill="none" stroke="#63b8ff" d="M488.81,-1477.5C474.36,-1477.5 459.4,-1477.5 445.19,-1477.5"/>
<polygon fill="#63b8ff" stroke="#63b8ff" points="489.22,-1481 499.22,-1477.5 489.22,-1474 489.22,-1481"/>
</a>
</g>
</g>
<!-- Node11 -->
<g id="Node000011" class="node">
<title>Node11</title>
<g id="a_Node000011"><a xlink:href="classAIInterface.html#a0d3a41555ea43343f197473d072b4fe4" target="_top" xlink:title=" ">
<polygon fill="#fff0f0" stroke="red" points="434,-1444 305,-1444 305,-1425 434,-1425 434,-1444"/>
<text text-anchor="middle" x="369.5" y="-1432" font-family="Helvetica,sans-Serif" font-size="10.00">AIInterface::findFriends</text>
</a>
</g>
</g>
<!-- Node4&#45;&gt;Node11 -->
<g id="edge6_Node000004_Node000011" class="edge">
<title>Node4&#45;&gt;Node11</title>
<g id="a_edge6_Node000004_Node000011"><a xlink:title=" ">
<path fill="none" stroke="#63b8ff" d="M491.34,-1460.35C465.34,-1454.79 437.44,-1448.82 415.01,-1444.02"/>
<polygon fill="#63b8ff" stroke="#63b8ff" points="490.69,-1463.79 501.2,-1462.46 492.15,-1456.95 490.69,-1463.79"/>
</a>
</g>
</g>
<!-- Node57 -->
<g id="Node000057" class="node">
<title>Node57</title>
<g id="a_Node000057"><a xlink:href="classNightbaneAI.html#ab9ebf0fdc7426d106d0e2ca7c5be1fc4" target="_top" xlink:title=" ">
<polygon fill="white" stroke="#666666" points="433.5,-617 305.5,-617 305.5,-598 433.5,-598 433.5,-617"/>
<text text-anchor="middle" x="369.5" y="-605" font-family="Helvetica,sans-Serif" font-size="10.00">NightbaneAI::AIUpdate</text>
</a>
</g>
</g>
<!-- Node56&#45;&gt;Node57 -->
<g id="edge27_Node000056_Node000057" class="edge">
<title>Node56&#45;&gt;Node57</title>
<g id="a_edge27_Node000056_Node000057"><a xlink:title=" ">
<path fill="none" stroke="#63b8ff" d="M498.49,-607.5C477.31,-607.5 454.37,-607.5 433.83,-607.5"/>
<polygon fill="#63b8ff" stroke="#63b8ff" points="498.73,-611 508.73,-607.5 498.73,-604 498.73,-611"/>
</a>
</g>
</g>
<!-- Node59 -->
<g id="Node000059" class="node">
<title>Node59</title>
<g id="a_Node000059"><a xlink:href="classLuaUnit.html#a7796e8e1d106ed6d49262a680ca5273b" target="_top" xlink:title=" ">
<polygon fill="white" stroke="#666666" points="429,-577 310,-577 310,-558 429,-558 429,-577"/>
<text text-anchor="middle" x="369.5" y="-565" font-family="Helvetica,sans-Serif" font-size="10.00">LuaUnit::GetAddTank</text>
</a>
</g>
</g>
<!-- Node58&#45;&gt;Node59 -->
<g id="edge29_Node000058_Node000059" class="edge">
<title>Node58&#45;&gt;Node59</title>
<g id="a_edge29_Node000058_Node000059"><a xlink:title=" ">
<path fill="none" stroke="#63b8ff" d="M488.1,-565.74C468.28,-566.04 447.55,-566.35 429.1,-566.63"/>
<polygon fill="#63b8ff" stroke="#63b8ff" points="488.42,-569.24 498.37,-565.59 488.31,-562.24 488.42,-569.24"/>
</a>
</g>
</g>
<!-- Node60 -->
<g id="Node000060" class="node">
<title>Node60</title>
<g id="a_Node000060"><a xlink:href="classLuaUnit.html#af6cf6716b155bf48915f4d07dab17c56" target="_top" xlink:title=" ">
<polygon fill="white" stroke="#666666" points="440.5,-540 298.5,-540 298.5,-521 440.5,-521 440.5,-540"/>
<text text-anchor="middle" x="369.5" y="-528" font-family="Helvetica,sans-Serif" font-size="10.00">LuaUnit::GetSecondHated</text>
</a>
</g>
</g>
<!-- Node58&#45;&gt;Node60 -->
<g id="edge30_Node000058_Node000060" class="edge">
<title>Node58&#45;&gt;Node60</title>
<g id="a_edge30_Node000058_Node000060"><a xlink:title=" ">
<path fill="none" stroke="#63b8ff" d="M488.31,-550.43C467.62,-546.93 445.93,-543.26 426.88,-540.04"/>
<polygon fill="#63b8ff" stroke="#63b8ff" points="487.92,-553.91 498.37,-552.13 489.09,-547.01 487.92,-553.91"/>
</a>
</g>
</g>
<!-- Node68 -->
<g id="Node000068" class="node">
<title>Node68</title>
<g id="a_Node000068"><a xlink:href="classIllidanStormrageAI.html#a1638486c1a86dbaec508daa3b8694e94" target="_top" xlink:title=" ">
<polygon fill="white" stroke="#666666" points="107,-193.5 0,-193.5 0,-163.5 107,-163.5 107,-193.5"/>
<text text-anchor="start" x="8" y="-181.5" font-family="Helvetica,sans-Serif" font-size="10.00">IllidanStormrageAI</text>
<text text-anchor="middle" x="53.5" y="-170.5" font-family="Helvetica,sans-Serif" font-size="10.00">::AIUpdate</text>
</a>
</g>
</g>
<!-- Node67&#45;&gt;Node68 -->
<g id="edge38_Node000067_Node000068" class="edge">
<title>Node67&#45;&gt;Node68</title>
<g id="a_edge38_Node000067_Node000068"><a xlink:title=" ">
<path fill="none" stroke="#63b8ff" d="M132.95,-190.74C124.3,-189.39 115.49,-188.02 107.05,-186.7"/>
<polygon fill="#63b8ff" stroke="#63b8ff" points="132.58,-194.22 143,-192.31 133.66,-187.31 132.58,-194.22"/>
</a>
</g>
</g>
<!-- Node69&#45;&gt;Node68 -->
<g id="edge40_Node000069_Node000068" class="edge">
<title>Node69&#45;&gt;Node68</title>
<g id="a_edge40_Node000069_Node000068"><a xlink:title=" ">
<path fill="none" stroke="#63b8ff" d="M508.72,-185.36C490.83,-181.7 471.24,-178.33 453,-176.5 329.6,-164.13 183.64,-170.06 107.2,-174.73"/>
<polygon fill="#63b8ff" stroke="#63b8ff" points="508.25,-188.83 518.75,-187.47 509.69,-181.98 508.25,-188.83"/>
</a>
</g>
</g>
<!-- Node70 -->
<g id="Node000070" class="node">
<title>Node70</title>
<g id="a_Node000070"><a xlink:href="classIllidanStormrageAI.html#a3f7f0c93765a00dcea088d6411564fe0" target="_top" xlink:title=" ">
<polygon fill="#fff0f0" stroke="red" points="423,-215.5 316,-215.5 316,-185.5 423,-185.5 423,-215.5"/>
<text text-anchor="start" x="324" y="-203.5" font-family="Helvetica,sans-Serif" font-size="10.00">IllidanStormrageAI</text>
<text text-anchor="middle" x="369.5" y="-192.5" font-family="Helvetica,sans-Serif" font-size="10.00">::Transform</text>
</a>
</g>
</g>
<!-- Node69&#45;&gt;Node70 -->
<g id="edge41_Node000069_Node000070" class="edge">
<title>Node69&#45;&gt;Node70</title>
<g id="a_edge41_Node000069_Node000070"><a xlink:title=" ">
<path fill="none" stroke="#63b8ff" d="M508.65,-194.19C481.17,-193.52 449.29,-193.62 423.09,-194.48"/>
<polygon fill="#63b8ff" stroke="#63b8ff" points="508.86,-197.7 518.95,-194.49 509.06,-190.7 508.86,-197.7"/>
</a>
</g>
</g>
<!-- Node70&#45;&gt;Node67 -->
<g id="edge42_Node000070_Node000067" class="edge">
<title>Node70&#45;&gt;Node67</title>
<g id="a_edge42_Node000070_Node000067"><a xlink:title=" ">
<path fill="none" stroke="#63b8ff" d="M305.8,-200.5C287.48,-200.5 267.65,-200.5 250.03,-200.5"/>
<polygon fill="#63b8ff" stroke="#63b8ff" points="305.8,-204 315.8,-200.5 305.8,-197 305.8,-204"/>
</a>
</g>
</g>
<!-- Node70&#45;&gt;Node69 -->
<g id="edge43_Node000070_Node000069" class="edge">
<title>Node70&#45;&gt;Node69</title>
<g id="a_edge43_Node000070_Node000069"><a xlink:title=" ">
<path fill="none" stroke="#63b8ff" d="M433.39,-206.81C460.88,-207.48 492.75,-207.38 518.95,-206.51"/>
<polygon fill="#63b8ff" stroke="#63b8ff" points="433.19,-203.3 423.09,-206.52 432.99,-210.3 433.19,-203.3"/>
</a>
</g>
</g>
<!-- Node73 -->
<g id="Node000073" class="node">
<title>Node73</title>
<g id="a_Node000073"><a xlink:href="classRagnarosAI.html#a72b1923986631fd22485724f4459bc6f" target="_top" xlink:title=" ">
<polygon fill="white" stroke="#666666" points="431,-129 308,-129 308,-110 431,-110 431,-129"/>
<text text-anchor="middle" x="369.5" y="-117" font-family="Helvetica,sans-Serif" font-size="10.00">RagnarosAI::AIUpdate</text>
</a>
</g>
</g>
<!-- Node72&#45;&gt;Node73 -->
<g id="edge45_Node000072_Node000073" class="edge">
<title>Node72&#45;&gt;Node73</title>
<g id="a_edge45_Node000072_Node000073"><a xlink:title=" ">
<path fill="none" stroke="#63b8ff" d="M511.1,-146.08C482.34,-140.64 448.34,-134.22 420.98,-129.04"/>
<polygon fill="#63b8ff" stroke="#63b8ff" points="510.56,-149.54 521.04,-147.96 511.86,-142.66 510.56,-149.54"/>
</a>
</g>
</g>
<!-- Node76 -->
<g id="Node000076" class="node">
<title>Node76</title>
<g id="a_Node000076"><a xlink:href="MiscSpells_8cpp.html#a819d7c69488739dcf58f472d0d9c6f06" target="_top" xlink:title=" ">
<polygon fill="#fff0f0" stroke="red" points="453,-92 286,-92 286,-73 453,-73 453,-92"/>
<text text-anchor="middle" x="369.5" y="-80" font-family="Helvetica,sans-Serif" font-size="10.00">SetupLegacyMiscSpellhandlers</text>
</a>
</g>
</g>
<!-- Node75&#45;&gt;Node76 -->
<g id="edge48_Node000075_Node000076" class="edge">
<title>Node75&#45;&gt;Node76</title>
<g id="a_edge48_Node000075_Node000076"><a xlink:title=" ">
<path fill="none" stroke="#63b8ff" d="M535.37,-83.32C512.45,-83.21 481.83,-83.05 453.21,-82.91"/>
<polygon fill="#63b8ff" stroke="#63b8ff" points="535.62,-86.82 545.63,-83.37 535.65,-79.82 535.62,-86.82"/>
</a>
</g>
</g>
<!-- Node82 -->
<g id="Node000082" class="node">
<title>Node82</title>
<g id="a_Node000082"><a xlink:href="classThreatManager.html#a30f99f349e234710263e33f344a36677" target="_top" xlink:title=" ">
<polygon fill="#fff0f0" stroke="red" points="656,-19 489,-19 489,0 656,0 656,-19"/>
<text text-anchor="middle" x="572.5" y="-7" font-family="Helvetica,sans-Serif" font-size="10.00">ThreatManager::reselectVictim</text>
</a>
</g>
</g>
<!-- Node81&#45;&gt;Node82 -->
<g id="edge52_Node000081_Node000082" class="edge">
<title>Node81&#45;&gt;Node82</title>
<g id="a_edge52_Node000081_Node000082"><a xlink:title=" ">
<path fill="none" stroke="#63b8ff" d="M766.18,-155.59C748.63,-123.78 708.7,-59.85 656,-27.5 650.5,-24.13 644.46,-21.38 638.22,-19.15"/>
<polygon fill="#63b8ff" stroke="#63b8ff" points="763.27,-157.56 771.09,-164.71 769.43,-154.25 763.27,-157.56"/>
</a>
</g>
</g>
</g>
</svg>
