<?xml version="1.0" encoding="UTF-8" standalone="no"?>
<!DOCTYPE svg PUBLIC "-//W3C//DTD SVG 1.1//EN"
 "http://www.w3.org/Graphics/SVG/1.1/DTD/svg11.dtd">
<!-- Generated by graphviz version 2.43.0 (0)
 -->
<!-- Title: Unit::RemoveFromWorld Pages: 1 -->
<svg width="726pt" height="1751pt"
 viewBox="0.00 0.00 726.00 1751.00" xmlns="http://www.w3.org/2000/svg" xmlns:xlink="http://www.w3.org/1999/xlink">
<g id="graph0" class="graph" transform="scale(1 1) rotate(0) translate(4 1747)">
<title>Unit::RemoveFromWorld</title>
<!-- Node1 -->
<g id="Node000001" class="node">
<title>Node1</title>
<g id="a_Node000001"><a xlink:title="Remove object from world.">
<polygon fill="#999999" stroke="#666666" points="718,-890 582,-890 582,-871 718,-871 718,-890"/>
<text text-anchor="middle" x="650" y="-878" font-family="Helvetica,sans-Serif" font-size="10.00">Unit::RemoveFromWorld</text>
</a>
</g>
</g>
<!-- Node2 -->
<g id="Node000002" class="node">
<title>Node2</title>
<g id="a_Node000002"><a xlink:href="classCreature.html#ad6b06e34e15ac892a101486c854efcb0" target="_top" xlink:title=" ">
<polygon fill="white" stroke="#666666" points="521,-1364 413,-1364 413,-1345 521,-1345 521,-1364"/>
<text text-anchor="middle" x="467" y="-1352" font-family="Helvetica,sans-Serif" font-size="10.00">Creature::despawn</text>
</a>
</g>
</g>
<!-- Node1&#45;&gt;Node2 -->
<g id="edge1_Node000001_Node000002" class="edge">
<title>Node1&#45;&gt;Node2</title>
<g id="a_edge1_Node000001_Node000002"><a xlink:title=" ">
<path fill="none" stroke="#63b8ff" d="M641.63,-899.8C610.99,-980.04 494.24,-1285.77 471.76,-1344.65"/>
<polygon fill="#63b8ff" stroke="#63b8ff" points="644.92,-900.99 645.22,-890.4 638.38,-898.49 644.92,-900.99"/>
</a>
</g>
</g>
<!-- Node4 -->
<g id="Node000004" class="node">
<title>Node4</title>
<g id="a_Node000004"><a xlink:href="classCreature.html#acfa082500526cee83292e7c13d265e69" target="_top" xlink:title=" ">
<polygon fill="#fff0f0" stroke="red" points="522,-909 412,-909 412,-890 522,-890 522,-909"/>
<text text-anchor="middle" x="467" y="-897" font-family="Helvetica,sans-Serif" font-size="10.00">Creature::Despawn</text>
</a>
</g>
</g>
<!-- Node1&#45;&gt;Node4 -->
<g id="edge4_Node000001_Node000004" class="edge">
<title>Node1&#45;&gt;Node4</title>
<g id="a_edge4_Node000001_Node000004"><a xlink:title=" ">
<path fill="none" stroke="#63b8ff" d="M571.57,-888.63C554.89,-890.38 537.6,-892.19 522.04,-893.83"/>
<polygon fill="#63b8ff" stroke="#63b8ff" points="572.28,-892.07 581.86,-887.55 571.55,-885.11 572.28,-892.07"/>
</a>
</g>
</g>
<!-- Node787 -->
<g id="Node000787" class="node">
<title>Node787</title>
<g id="a_Node000787"><a xlink:href="classPlayer.html#a59afccee8b3fdccdd363475ab8dcee37" target="_top" xlink:title=" ">
<polygon fill="#fff0f0" stroke="red" points="538.5,-872 395.5,-872 395.5,-853 538.5,-853 538.5,-872"/>
<text text-anchor="middle" x="467" y="-860" font-family="Helvetica,sans-Serif" font-size="10.00">Player::removeFromWorld</text>
</a>
</g>
</g>
<!-- Node1&#45;&gt;Node787 -->
<g id="edge52_Node000001_Node000787" class="edge">
<title>Node1&#45;&gt;Node787</title>
<g id="a_edge52_Node000001_Node000787"><a xlink:title=" ">
<path fill="none" stroke="#63b8ff" d="M571.84,-872.83C560.83,-871.73 549.55,-870.61 538.67,-869.53"/>
<polygon fill="#63b8ff" stroke="#63b8ff" points="571.56,-876.32 581.86,-873.82 572.25,-869.35 571.56,-876.32"/>
</a>
</g>
</g>
<!-- Node1576 -->
<g id="Node001576" class="node">
<title>Node1576</title>
<g id="a_Node001576"><a xlink:href="classCreature.html#ab60611f6ccdea527c42a308024166294" target="_top" xlink:title="Remove object from world.">
<polygon fill="#fff0f0" stroke="red" points="546,-835 388,-835 388,-816 546,-816 546,-835"/>
<text text-anchor="middle" x="467" y="-823" font-family="Helvetica,sans-Serif" font-size="10.00">Creature::RemoveFromWorld</text>
</a>
</g>
</g>
<!-- Node1&#45;&gt;Node1576 -->
<g id="edge53_Node000001_Node001576" class="edge">
<title>Node1&#45;&gt;Node1576</title>
<g id="a_edge53_Node000001_Node001576"><a xlink:title=" ">
<path fill="none" stroke="#63b8ff" d="M614.29,-867.42C594.44,-860.18 569,-851.3 546,-844.5 534.51,-841.1 521.93,-837.84 510.3,-835.01"/>
<polygon fill="#63b8ff" stroke="#63b8ff" points="613.23,-870.76 623.83,-870.93 615.65,-864.19 613.23,-870.76"/>
</a>
</g>
</g>
<!-- Node2&#45;&gt;Node2 -->
<g id="edge2_Node000002_Node000002" class="edge">
<title>Node2&#45;&gt;Node2</title>
<g id="a_edge2_Node000002_Node000002"><a xlink:title=" ">
<path fill="none" stroke="#63b8ff" d="M501.11,-1372.07C500.61,-1377.62 489.24,-1382 467,-1382 434.65,-1382 425.3,-1372.73 438.95,-1364.08"/>
<polygon fill="#63b8ff" stroke="#63b8ff" points="503.88,-1369.94 495.05,-1364.08 498.3,-1374.17 503.88,-1369.94"/>
</a>
</g>
</g>
<!-- Node3 -->
<g id="Node000003" class="node">
<title>Node3</title>
<g id="a_Node000003"><a xlink:href="classCreature.html#a6e323860f5e1df0e75b36fb88f946c4d" target="_top" xlink:title=" ">
<polygon fill="white" stroke="#666666" points="348,-1743 190,-1743 190,-1724 348,-1724 348,-1743"/>
<text text-anchor="middle" x="269" y="-1731" font-family="Helvetica,sans-Serif" font-size="10.00">Creature::RemoveFromWorld</text>
</a>
</g>
</g>
<!-- Node2&#45;&gt;Node3 -->
<g id="edge3_Node000002_Node000003" class="edge">
<title>Node2&#45;&gt;Node3</title>
<g id="a_edge3_Node000002_Node000003"><a xlink:title=" ">
<path fill="none" stroke="#63b8ff" d="M466.17,-1374.22C465.57,-1435.06 455,-1621.36 352,-1715.5 348.34,-1718.84 344.21,-1721.62 339.79,-1723.91"/>
<polygon fill="#63b8ff" stroke="#63b8ff" points="469.67,-1374.09 466.19,-1364.08 462.67,-1374.08 469.67,-1374.09"/>
</a>
</g>
</g>
<!-- Node4&#45;&gt;Node3 -->
<g id="edge51_Node000004_Node000003" class="edge">
<title>Node4&#45;&gt;Node3</title>
<g id="a_edge51_Node000004_Node000003"><a xlink:title=" ">
<path fill="none" stroke="#63b8ff" d="M461.89,-919.19C449.19,-980.64 410.13,-1174.4 388,-1336.5 376.56,-1420.32 408.08,-1652.16 352,-1715.5 349.1,-1718.77 345.76,-1721.53 342.11,-1723.84"/>
<polygon fill="#63b8ff" stroke="#63b8ff" points="465.34,-919.8 463.94,-909.3 458.48,-918.38 465.34,-919.8"/>
</a>
</g>
</g>
<!-- Node4&#45;&gt;Node4 -->
<g id="edge50_Node000004_Node000004" class="edge">
<title>Node4&#45;&gt;Node4</title>
<g id="a_edge50_Node000004_Node000004"><a xlink:title=" ">
<path fill="none" stroke="#63b8ff" d="M501.11,-917.07C500.61,-922.62 489.24,-927 467,-927 434.65,-927 425.3,-917.73 438.95,-909.08"/>
<polygon fill="#63b8ff" stroke="#63b8ff" points="503.88,-914.94 495.05,-909.08 498.3,-919.17 503.88,-914.94"/>
</a>
</g>
</g>
<!-- Node5 -->
<g id="Node000005" class="node">
<title>Node5</title>
<g id="a_Node000005"><a xlink:href="QIspells_8cpp.html#ab62b461f0865725e1832b0a4a811a8a7" target="_top" xlink:title=" ">
<polygon fill="#fff0f0" stroke="red" points="334.5,-1706 203.5,-1706 203.5,-1687 334.5,-1687 334.5,-1706"/>
<text text-anchor="middle" x="269" y="-1694" font-family="Helvetica,sans-Serif" font-size="10.00">AdministreringtheSalve</text>
</a>
</g>
</g>
<!-- Node4&#45;&gt;Node5 -->
<g id="edge5_Node000004_Node000005" class="edge">
<title>Node4&#45;&gt;Node5</title>
<g id="a_edge5_Node000004_Node000005"><a xlink:title=" ">
<path fill="none" stroke="#63b8ff" d="M461.96,-919.2C449.47,-980.68 410.95,-1174.51 388,-1336.5 377.28,-1412.16 402.95,-1621.54 352,-1678.5 347.24,-1683.82 341.3,-1687.77 334.8,-1690.67"/>
<polygon fill="#63b8ff" stroke="#63b8ff" points="465.41,-919.8 463.98,-909.3 458.55,-918.4 465.41,-919.8"/>
</a>
</g>
</g>
<!-- Node9 -->
<g id="Node000009" class="node">
<title>Node9</title>
<g id="a_Node000009"><a xlink:href="classSamAI.html#aa9981eb551ebe7ef9c834b1dc7fb9e82" target="_top" xlink:title=" ">
<polygon fill="white" stroke="#666666" points="318.5,-1669 219.5,-1669 219.5,-1650 318.5,-1650 318.5,-1669"/>
<text text-anchor="middle" x="269" y="-1657" font-family="Helvetica,sans-Serif" font-size="10.00">SamAI::AIUpdate</text>
</a>
</g>
</g>
<!-- Node4&#45;&gt;Node9 -->
<g id="edge6_Node000004_Node000009" class="edge">
<title>Node4&#45;&gt;Node9</title>
<g id="a_edge6_Node000004_Node000009"><a xlink:title=" ">
<path fill="none" stroke="#63b8ff" d="M462.05,-919.22C449.82,-980.73 411.97,-1174.66 388,-1336.5 378,-1404.01 397.82,-1590.92 352,-1641.5 343.49,-1650.9 331.29,-1655.99 318.89,-1658.61"/>
<polygon fill="#63b8ff" stroke="#63b8ff" points="465.5,-919.8 464.03,-909.31 458.64,-918.43 465.5,-919.8"/>
</a>
</g>
</g>
<!-- Node10 -->
<g id="Node000010" class="node">
<title>Node10</title>
<g id="a_Node000010"><a xlink:href="classBerAI.html#abaa55c931b079f8dfecb5e3705ecc697" target="_top" xlink:title=" ">
<polygon fill="white" stroke="#666666" points="316,-1632 222,-1632 222,-1613 316,-1613 316,-1632"/>
<text text-anchor="middle" x="269" y="-1620" font-family="Helvetica,sans-Serif" font-size="10.00">BerAI::AIUpdate</text>
</a>
</g>
</g>
<!-- Node4&#45;&gt;Node10 -->
<g id="edge7_Node000004_Node000010" class="edge">
<title>Node4&#45;&gt;Node10</title>
<g id="a_edge7_Node000004_Node000010"><a xlink:title=" ">
<path fill="none" stroke="#63b8ff" d="M462.24,-918.83C450.43,-979.94 413.33,-1174.5 388,-1336.5 378.72,-1395.87 392.7,-1560.29 352,-1604.5 342.82,-1614.47 329.49,-1619.57 316.23,-1622.03"/>
<polygon fill="#63b8ff" stroke="#63b8ff" points="465.68,-919.49 464.15,-909.01 458.81,-918.16 465.68,-919.49"/>
</a>
</g>
</g>
<!-- Node11 -->
<g id="Node000011" class="node">
<title>Node11</title>
<g id="a_Node000011"><a xlink:href="classSigAI.html#afcaccbef6a0fc8aba6e0c8966e277619" target="_top" xlink:title=" ">
<polygon fill="white" stroke="#666666" points="315,-1595 223,-1595 223,-1576 315,-1576 315,-1595"/>
<text text-anchor="middle" x="269" y="-1583" font-family="Helvetica,sans-Serif" font-size="10.00">SigAI::AIUpdate</text>
</a>
</g>
</g>
<!-- Node4&#45;&gt;Node11 -->
<g id="edge8_Node000004_Node000011" class="edge">
<title>Node4&#45;&gt;Node11</title>
<g id="a_edge8_Node000004_Node000011"><a xlink:title=" ">
<path fill="none" stroke="#63b8ff" d="M462.32,-919.23C450.86,-980.84 414.98,-1175.11 388,-1336.5 379.44,-1387.74 387.59,-1529.65 352,-1567.5 342.51,-1577.59 328.78,-1582.67 315.25,-1585.07"/>
<polygon fill="#63b8ff" stroke="#63b8ff" points="465.83,-919.49 464.22,-909.02 458.95,-918.21 465.83,-919.49"/>
</a>
</g>
</g>
<!-- Node12 -->
<g id="Node000012" class="node">
<title>Node12</title>
<g id="a_Node000012"><a xlink:href="classMaiAI.html#af3cf114fe010c865c8475e61961176f4" target="_top" xlink:title=" ">
<polygon fill="white" stroke="#666666" points="316.5,-1558 221.5,-1558 221.5,-1539 316.5,-1539 316.5,-1558"/>
<text text-anchor="middle" x="269" y="-1546" font-family="Helvetica,sans-Serif" font-size="10.00">MaiAI::AIUpdate</text>
</a>
</g>
</g>
<!-- Node4&#45;&gt;Node12 -->
<g id="edge9_Node000004_Node000012" class="edge">
<title>Node4&#45;&gt;Node12</title>
<g id="a_edge9_Node000004_Node000012"><a xlink:title=" ">
<path fill="none" stroke="#63b8ff" d="M462.49,-919.16C443.44,-1025.68 353.38,-1529.07 352,-1530.5 342.8,-1540.05 329.78,-1545.09 316.81,-1547.61"/>
<polygon fill="#63b8ff" stroke="#63b8ff" points="465.96,-919.59 464.28,-909.14 459.07,-918.36 465.96,-919.59"/>
</a>
</g>
</g>
<!-- Node13 -->
<g id="Node000013" class="node">
<title>Node13</title>
<g id="a_Node000013"><a xlink:href="classThuAI.html#a64fa38e31fba2feb7c901618d02dcb4d" target="_top" xlink:title=" ">
<polygon fill="white" stroke="#666666" points="316.5,-1521 221.5,-1521 221.5,-1502 316.5,-1502 316.5,-1521"/>
<text text-anchor="middle" x="269" y="-1509" font-family="Helvetica,sans-Serif" font-size="10.00">ThuAI::AIUpdate</text>
</a>
</g>
</g>
<!-- Node4&#45;&gt;Node13 -->
<g id="edge10_Node000004_Node000013" class="edge">
<title>Node4&#45;&gt;Node13</title>
<g id="a_edge10_Node000004_Node000013"><a xlink:title=" ">
<path fill="none" stroke="#63b8ff" d="M462.52,-919.25C444.51,-1021.11 362.43,-1482.79 352,-1493.5 342.75,-1503 329.71,-1508.02 316.75,-1510.55"/>
<polygon fill="#63b8ff" stroke="#63b8ff" points="466.01,-919.58 464.3,-909.12 459.12,-918.36 466.01,-919.58"/>
</a>
</g>
</g>
<!-- Node14 -->
<g id="Node000014" class="node">
<title>Node14</title>
<g id="a_Node000014"><a xlink:href="classUndeadAI.html#aef37016eaa22c9f3c4d03d4ea9dc2920" target="_top" xlink:title=" ">
<polygon fill="white" stroke="#666666" points="326.5,-1484 211.5,-1484 211.5,-1465 326.5,-1465 326.5,-1484"/>
<text text-anchor="middle" x="269" y="-1472" font-family="Helvetica,sans-Serif" font-size="10.00">UndeadAI::AIUpdate</text>
</a>
</g>
</g>
<!-- Node4&#45;&gt;Node14 -->
<g id="edge11_Node000004_Node000014" class="edge">
<title>Node4&#45;&gt;Node14</title>
<g id="a_edge11_Node000004_Node000014"><a xlink:title=" ">
<path fill="none" stroke="#63b8ff" d="M462.6,-919.15C445.78,-1015.77 371.62,-1436.6 352,-1456.5 345.14,-1463.45 336.26,-1468 326.88,-1470.92"/>
<polygon fill="#63b8ff" stroke="#63b8ff" points="466.05,-919.7 464.32,-909.25 459.16,-918.5 466.05,-919.7"/>
</a>
</g>
</g>
<!-- Node15 -->
<g id="Node000015" class="node">
<title>Node15</title>
<g id="a_Node000015"><a xlink:href="classUndead2AI.html#a40ecf1ef8ec40da245301842d0eb659f" target="_top" xlink:title=" ">
<polygon fill="white" stroke="#666666" points="329.5,-1447 208.5,-1447 208.5,-1428 329.5,-1428 329.5,-1447"/>
<text text-anchor="middle" x="269" y="-1435" font-family="Helvetica,sans-Serif" font-size="10.00">Undead2AI::AIUpdate</text>
</a>
</g>
</g>
<!-- Node4&#45;&gt;Node15 -->
<g id="edge12_Node000004_Node000015" class="edge">
<title>Node4&#45;&gt;Node15</title>
<g id="a_edge12_Node000004_Node000015"><a xlink:title=" ">
<path fill="none" stroke="#63b8ff" d="M462.98,-919.05C448.9,-1009.3 388.74,-1382.75 352,-1419.5 345.82,-1425.68 338.03,-1429.96 329.73,-1432.88"/>
<polygon fill="#63b8ff" stroke="#63b8ff" points="466.46,-919.49 464.53,-909.08 459.54,-918.42 466.46,-919.49"/>
</a>
</g>
</g>
<!-- Node16 -->
<g id="Node000016" class="node">
<title>Node16</title>
<g id="a_Node000016"><a xlink:href="classUndead3AI.html#a1a5b78638c470493eb8bbfe4aa5026d2" target="_top" xlink:title=" ">
<polygon fill="white" stroke="#666666" points="329.5,-1410 208.5,-1410 208.5,-1391 329.5,-1391 329.5,-1410"/>
<text text-anchor="middle" x="269" y="-1398" font-family="Helvetica,sans-Serif" font-size="10.00">Undead3AI::AIUpdate</text>
</a>
</g>
</g>
<!-- Node4&#45;&gt;Node16 -->
<g id="edge13_Node000004_Node000016" class="edge">
<title>Node4&#45;&gt;Node16</title>
<g id="a_edge13_Node000004_Node000016"><a xlink:title=" ">
<path fill="none" stroke="#63b8ff" d="M464.11,-919.18C455.85,-1001.3 420.17,-1315.39 352,-1382.5 345.77,-1388.63 337.95,-1392.88 329.64,-1395.79"/>
<polygon fill="#63b8ff" stroke="#63b8ff" points="467.6,-919.48 465.1,-909.19 460.64,-918.8 467.6,-919.48"/>
</a>
</g>
</g>
<!-- Node17 -->
<g id="Node000017" class="node">
<title>Node17</title>
<g id="a_Node000017"><a xlink:href="classTriggerAI.html#a350bb9ee9e9e19020943a1ec40f30732" target="_top" xlink:title=" ">
<polygon fill="white" stroke="#666666" points="324,-1373 214,-1373 214,-1354 324,-1354 324,-1373"/>
<text text-anchor="middle" x="269" y="-1361" font-family="Helvetica,sans-Serif" font-size="10.00">TriggerAI::AIUpdate</text>
</a>
</g>
</g>
<!-- Node4&#45;&gt;Node17 -->
<g id="edge14_Node000004_Node000017" class="edge">
<title>Node4&#45;&gt;Node17</title>
<g id="a_edge14_Node000004_Node000017"><a xlink:title=" ">
<path fill="none" stroke="#63b8ff" d="M463.71,-919.16C454.2,-997.25 415.4,-1284.23 352,-1345.5 344.35,-1352.89 334.39,-1357.53 324.07,-1360.39"/>
<polygon fill="#63b8ff" stroke="#63b8ff" points="467.18,-919.55 464.9,-909.21 460.23,-918.72 467.18,-919.55"/>
</a>
</g>
</g>
<!-- Node18 -->
<g id="Node000018" class="node">
<title>Node18</title>
<g id="a_Node000018"><a xlink:href="classTrigger2AI.html#a513ef471c4bb1dc3e20a4f0e7070c68f" target="_top" xlink:title=" ">
<polygon fill="white" stroke="#666666" points="327,-1336 211,-1336 211,-1317 327,-1317 327,-1336"/>
<text text-anchor="middle" x="269" y="-1324" font-family="Helvetica,sans-Serif" font-size="10.00">Trigger2AI::AIUpdate</text>
</a>
</g>
</g>
<!-- Node4&#45;&gt;Node18 -->
<g id="edge15_Node000004_Node000018" class="edge">
<title>Node4&#45;&gt;Node18</title>
<g id="a_edge15_Node000004_Node000018"><a xlink:title=" ">
<path fill="none" stroke="#63b8ff" d="M463.19,-919.39C452.3,-993.64 410.59,-1253.09 352,-1308.5 345.12,-1315.01 336.44,-1319.37 327.33,-1322.26"/>
<polygon fill="#63b8ff" stroke="#63b8ff" points="466.71,-919.53 464.67,-909.13 459.78,-918.53 466.71,-919.53"/>
</a>
</g>
</g>
<!-- Node19 -->
<g id="Node000019" class="node">
<title>Node19</title>
<g id="a_Node000019"><a xlink:href="classEffectsground.html#a50d237aaf3dc6dbf17d27255a1ea052e" target="_top" xlink:title=" ">
<polygon fill="white" stroke="#666666" points="336,-1299 202,-1299 202,-1280 336,-1280 336,-1299"/>
<text text-anchor="middle" x="269" y="-1287" font-family="Helvetica,sans-Serif" font-size="10.00">Effectsground::AIUpdate</text>
</a>
</g>
</g>
<!-- Node4&#45;&gt;Node19 -->
<g id="edge16_Node000004_Node000019" class="edge">
<title>Node4&#45;&gt;Node19</title>
<g id="a_edge16_Node000004_Node000019"><a xlink:title=" ">
<path fill="none" stroke="#63b8ff" d="M466.39,-919.39C466.44,-981.6 457.68,-1174.08 352,-1271.5 347.39,-1275.75 342.02,-1279.08 336.27,-1281.68"/>
<polygon fill="#63b8ff" stroke="#63b8ff" points="469.88,-919.02 466.29,-909.05 462.88,-919.08 469.88,-919.02"/>
</a>
</g>
</g>
<!-- Node20 -->
<g id="Node000020" class="node">
<title>Node20</title>
<g id="a_Node000020"><a xlink:href="classEffectsair.html#a8926f4e907838fd45cb79995661c9564" target="_top" xlink:title=" ">
<polygon fill="white" stroke="#666666" points="325.5,-1262 212.5,-1262 212.5,-1243 325.5,-1243 325.5,-1262"/>
<text text-anchor="middle" x="269" y="-1250" font-family="Helvetica,sans-Serif" font-size="10.00">Effectsair::AIUpdate</text>
</a>
</g>
</g>
<!-- Node4&#45;&gt;Node20 -->
<g id="edge17_Node000004_Node000020" class="edge">
<title>Node4&#45;&gt;Node20</title>
<g id="a_edge17_Node000004_Node000020"><a xlink:title=" ">
<path fill="none" stroke="#63b8ff" d="M465.54,-919.23C463.09,-976.99 447.68,-1147.04 352,-1233.5 344.63,-1240.16 335.39,-1244.63 325.79,-1247.59"/>
<polygon fill="#63b8ff" stroke="#63b8ff" points="469.04,-919.35 465.88,-909.24 462.05,-919.11 469.04,-919.35"/>
</a>
</g>
</g>
<!-- Node21 -->
<g id="Node000021" class="node">
<title>Node21</title>
<g id="a_Node000021"><a xlink:href="classReliquaryOfSoulsAI.html#ad13ae6290626082e28f95d62f7c1ec8b" target="_top" xlink:title=" ">
<polygon fill="white" stroke="#666666" points="324,-1224.5 214,-1224.5 214,-1194.5 324,-1194.5 324,-1224.5"/>
<text text-anchor="start" x="222" y="-1212.5" font-family="Helvetica,sans-Serif" font-size="10.00">ReliquaryOfSoulsAI</text>
<text text-anchor="middle" x="269" y="-1201.5" font-family="Helvetica,sans-Serif" font-size="10.00">::AIUpdate</text>
</a>
</g>
</g>
<!-- Node4&#45;&gt;Node21 -->
<g id="edge18_Node000004_Node000021" class="edge">
<title>Node4&#45;&gt;Node21</title>
<g id="a_edge18_Node000004_Node000021"><a xlink:title=" ">
<path fill="none" stroke="#63b8ff" d="M464.01,-919.19C457.73,-970.83 433.61,-1111.27 352,-1185.5 344.21,-1192.59 334.43,-1197.59 324.37,-1201.12"/>
<polygon fill="#63b8ff" stroke="#63b8ff" points="467.51,-919.4 465.15,-909.07 460.55,-918.62 467.51,-919.4"/>
</a>
</g>
</g>
<!-- Node22 -->
<g id="Node000022" class="node">
<title>Node22</title>
<g id="a_Node000022"><a xlink:href="classDoomfireAI.html#a55a67ac60df46ab27ba48ccc2d4fdf43" target="_top" xlink:title=" ">
<polygon fill="white" stroke="#666666" points="330,-1176 208,-1176 208,-1157 330,-1157 330,-1176"/>
<text text-anchor="middle" x="269" y="-1164" font-family="Helvetica,sans-Serif" font-size="10.00">DoomfireAI::AIUpdate</text>
</a>
</g>
</g>
<!-- Node4&#45;&gt;Node22 -->
<g id="edge19_Node000004_Node000022" class="edge">
<title>Node4&#45;&gt;Node22</title>
<g id="a_edge19_Node000004_Node000022"><a xlink:title=" ">
<path fill="none" stroke="#63b8ff" d="M463.05,-919.16C454.85,-966.59 427.2,-1087.84 352,-1148.5 345.65,-1153.62 338.15,-1157.37 330.31,-1160.09"/>
<polygon fill="#63b8ff" stroke="#63b8ff" points="466.51,-919.68 464.66,-909.25 459.6,-918.55 466.51,-919.68"/>
</a>
</g>
</g>
<!-- Node23 -->
<g id="Node000023" class="node">
<title>Node23</title>
<g id="a_Node000023"><a xlink:href="classKaelThasAI.html#ad1443ec21d334d6e7ef7d7bd7987d6d0" target="_top" xlink:title=" ">
<polygon fill="white" stroke="#666666" points="330,-1139 208,-1139 208,-1120 330,-1120 330,-1139"/>
<text text-anchor="middle" x="269" y="-1127" font-family="Helvetica,sans-Serif" font-size="10.00">KaelThasAI::AIUpdate</text>
</a>
</g>
</g>
<!-- Node4&#45;&gt;Node23 -->
<g id="edge20_Node000004_Node000023" class="edge">
<title>Node4&#45;&gt;Node23</title>
<g id="a_edge20_Node000004_Node000023"><a xlink:title=" ">
<path fill="none" stroke="#63b8ff" d="M461.31,-919.36C450.21,-961.8 418.13,-1061.57 352,-1111.5 345.49,-1116.42 337.9,-1120.05 330.02,-1122.71"/>
<polygon fill="#63b8ff" stroke="#63b8ff" points="464.76,-919.98 463.8,-909.43 457.97,-918.28 464.76,-919.98"/>
</a>
</g>
</g>
<!-- Node24 -->
<g id="Node000024" class="node">
<title>Node24</title>
<g id="a_Node000024"><a xlink:href="classArthasAI.html#a9fd6f70a8f02ec7705ff78165b8f7eaf" target="_top" xlink:title=" ">
<polygon fill="white" stroke="#666666" points="323.5,-1102 214.5,-1102 214.5,-1083 323.5,-1083 323.5,-1102"/>
<text text-anchor="middle" x="269" y="-1090" font-family="Helvetica,sans-Serif" font-size="10.00">ArthasAI::AIUpdate</text>
</a>
</g>
</g>
<!-- Node4&#45;&gt;Node24 -->
<g id="edge21_Node000004_Node000024" class="edge">
<title>Node4&#45;&gt;Node24</title>
<g id="a_edge21_Node000004_Node000024"><a xlink:title=" ">
<path fill="none" stroke="#63b8ff" d="M459.14,-918.88C445.11,-955.49 409.56,-1034.72 352,-1074.5 343.61,-1080.3 333.67,-1084.28 323.67,-1086.99"/>
<polygon fill="#63b8ff" stroke="#63b8ff" points="462.47,-919.95 462.66,-909.36 455.9,-917.52 462.47,-919.95"/>
</a>
</g>
</g>
<!-- Node25 -->
<g id="Node000025" class="node">
<title>Node25</title>
<g id="a_Node000025"><a xlink:href="classBarrageAI.html#a0453c530059dcceff7ce6031ded08e0b" target="_top" xlink:title=" ">
<polygon fill="white" stroke="#666666" points="327,-1065 211,-1065 211,-1046 327,-1046 327,-1065"/>
<text text-anchor="middle" x="269" y="-1053" font-family="Helvetica,sans-Serif" font-size="10.00">BarrageAI::AIUpdate</text>
</a>
</g>
</g>
<!-- Node4&#45;&gt;Node25 -->
<g id="edge22_Node000004_Node000025" class="edge">
<title>Node4&#45;&gt;Node25</title>
<g id="a_edge22_Node000004_Node000025"><a xlink:title=" ">
<path fill="none" stroke="#63b8ff" d="M455.83,-918.3C438.6,-948.25 400.75,-1006.46 352,-1036.5 344.41,-1041.18 335.78,-1044.7 327.04,-1047.36"/>
<polygon fill="#63b8ff" stroke="#63b8ff" points="459.03,-919.75 460.86,-909.31 452.92,-916.32 459.03,-919.75"/>
</a>
</g>
</g>
<!-- Node26 -->
<g id="Node000026" class="node">
<title>Node26</title>
<g id="a_Node000026"><a xlink:href="classSoldierOfTheFrozenWastesAI.html#ac1f95d7473bc622144418e2a168555bb" target="_top" xlink:title=" ">
<polygon fill="white" stroke="#666666" points="342.5,-1027.5 195.5,-1027.5 195.5,-997.5 342.5,-997.5 342.5,-1027.5"/>
<text text-anchor="start" x="203.5" y="-1015.5" font-family="Helvetica,sans-Serif" font-size="10.00">SoldierOfTheFrozenWastes</text>
<text text-anchor="middle" x="269" y="-1004.5" font-family="Helvetica,sans-Serif" font-size="10.00">AI::AIUpdate</text>
</a>
</g>
</g>
<!-- Node4&#45;&gt;Node26 -->
<g id="edge23_Node000004_Node000026" class="edge">
<title>Node4&#45;&gt;Node26</title>
<g id="a_edge23_Node000004_Node000026"><a xlink:title=" ">
<path fill="none" stroke="#63b8ff" d="M449,-916.2C427.9,-936.07 390.04,-969 352,-988.5 345.4,-991.88 338.25,-994.86 331.02,-997.46"/>
<polygon fill="#63b8ff" stroke="#63b8ff" points="451.43,-918.72 456.23,-909.28 446.59,-913.67 451.43,-918.72"/>
</a>
</g>
</g>
<!-- Node27 -->
<g id="Node000027" class="node">
<title>Node27</title>
<g id="a_Node000027"><a xlink:href="classUnstoppableAbominationAI.html#ac5d9bf5427348470c5427ad837832158" target="_top" xlink:title=" ">
<polygon fill="white" stroke="#666666" points="344,-979.5 194,-979.5 194,-949.5 344,-949.5 344,-979.5"/>
<text text-anchor="start" x="202" y="-967.5" font-family="Helvetica,sans-Serif" font-size="10.00">UnstoppableAbominationAI</text>
<text text-anchor="middle" x="269" y="-956.5" font-family="Helvetica,sans-Serif" font-size="10.00">::AIUpdate</text>
</a>
</g>
</g>
<!-- Node4&#45;&gt;Node27 -->
<g id="edge24_Node000004_Node000027" class="edge">
<title>Node4&#45;&gt;Node27</title>
<g id="a_edge24_Node000004_Node000027"><a xlink:title=" ">
<path fill="none" stroke="#63b8ff" d="M431.34,-912.58C408.84,-920.92 378.83,-931.76 352,-940.5 342.69,-943.53 332.73,-946.6 323.08,-949.48"/>
<polygon fill="#63b8ff" stroke="#63b8ff" points="432.65,-915.83 440.8,-909.06 430.2,-909.27 432.65,-915.83"/>
</a>
</g>
</g>
<!-- Node28 -->
<g id="Node000028" class="node">
<title>Node28</title>
<g id="a_Node000028"><a xlink:href="classSoulWeaverAI.html#a1daa1b7e2f2510d5cdc261c77175d433" target="_top" xlink:title=" ">
<polygon fill="white" stroke="#666666" points="336.5,-931 201.5,-931 201.5,-912 336.5,-912 336.5,-931"/>
<text text-anchor="middle" x="269" y="-919" font-family="Helvetica,sans-Serif" font-size="10.00">SoulWeaverAI::AIUpdate</text>
</a>
</g>
</g>
<!-- Node4&#45;&gt;Node28 -->
<g id="edge25_Node000004_Node000028" class="edge">
<title>Node4&#45;&gt;Node28</title>
<g id="a_edge25_Node000004_Node000028"><a xlink:title=" ">
<path fill="none" stroke="#63b8ff" d="M401.9,-906.7C381.05,-909.04 357.87,-911.64 336.83,-914"/>
<polygon fill="#63b8ff" stroke="#63b8ff" points="402.38,-910.16 411.92,-905.57 401.6,-903.21 402.38,-910.16"/>
</a>
</g>
</g>
<!-- Node29 -->
<g id="Node000029" class="node">
<title>Node29</title>
<g id="a_Node000029"><a xlink:href="classGuardianOfIcecrownAI.html#aed1f86f6e51cbcf09c8cc043f8d8b663" target="_top" xlink:title=" ">
<polygon fill="white" stroke="#666666" points="331.5,-893.5 206.5,-893.5 206.5,-863.5 331.5,-863.5 331.5,-893.5"/>
<text text-anchor="start" x="214.5" y="-881.5" font-family="Helvetica,sans-Serif" font-size="10.00">GuardianOfIcecrownAI</text>
<text text-anchor="middle" x="269" y="-870.5" font-family="Helvetica,sans-Serif" font-size="10.00">::AIUpdate</text>
</a>
</g>
</g>
<!-- Node4&#45;&gt;Node29 -->
<g id="edge26_Node000004_Node000029" class="edge">
<title>Node4&#45;&gt;Node29</title>
<g id="a_edge26_Node000004_Node000029"><a xlink:title=" ">
<path fill="none" stroke="#63b8ff" d="M401.76,-892.62C379.17,-890.2 353.86,-887.49 331.51,-885.09"/>
<polygon fill="#63b8ff" stroke="#63b8ff" points="401.61,-896.12 411.92,-893.71 402.35,-889.16 401.61,-896.12"/>
</a>
</g>
</g>
<!-- Node30 -->
<g id="Node000030" class="node">
<title>Node30</title>
<g id="a_Node000030"><a xlink:href="classTelestraBossAI.html#a13a0fb565ec7fd41115fcbc72f414308" target="_top" xlink:title=" ">
<polygon fill="white" stroke="#666666" points="338.5,-845 199.5,-845 199.5,-826 338.5,-826 338.5,-845"/>
<text text-anchor="middle" x="269" y="-833" font-family="Helvetica,sans-Serif" font-size="10.00">TelestraBossAI::AIUpdate</text>
</a>
</g>
</g>
<!-- Node4&#45;&gt;Node30 -->
<g id="edge27_Node000004_Node000030" class="edge">
<title>Node4&#45;&gt;Node30</title>
<g id="a_edge27_Node000004_Node000030"><a xlink:title=" ">
<path fill="none" stroke="#63b8ff" d="M401.85,-887.01C397.08,-885.38 392.41,-883.55 388,-881.5 369.86,-873.07 370.13,-862.94 352,-854.5 343.79,-850.68 334.74,-847.59 325.75,-845.11"/>
<polygon fill="#63b8ff" stroke="#63b8ff" points="401.14,-890.45 411.73,-890.07 403.21,-883.76 401.14,-890.45"/>
</a>
</g>
</g>
<!-- Node31 -->
<g id="Node000031" class="node">
<title>Node31</title>
<g id="a_Node000031"><a xlink:href="classNestlewoodOwlkin.html#a4cf95bf5500b98247b6db42fe6a1ddc5" target="_top" xlink:title=" ">
<polygon fill="white" stroke="#666666" points="348.5,-808 189.5,-808 189.5,-789 348.5,-789 348.5,-808"/>
<text text-anchor="middle" x="269" y="-796" font-family="Helvetica,sans-Serif" font-size="10.00">NestlewoodOwlkin::AIUpdate</text>
</a>
</g>
</g>
<!-- Node4&#45;&gt;Node31 -->
<g id="edge28_Node000004_Node000031" class="edge">
<title>Node4&#45;&gt;Node31</title>
<g id="a_edge28_Node000004_Node000031"><a xlink:title=" ">
<path fill="none" stroke="#63b8ff" d="M402.38,-889.69C397.26,-887.48 392.38,-884.78 388,-881.5 361.87,-861.94 378.12,-837.07 352,-817.5 346.85,-813.64 341.06,-810.55 334.98,-808.08"/>
<polygon fill="#63b8ff" stroke="#63b8ff" points="401.2,-892.99 411.8,-893.18 403.64,-886.42 401.2,-892.99"/>
</a>
</g>
</g>
<!-- Node32 -->
<g id="Node000032" class="node">
<title>Node32</title>
<g id="a_Node000032"><a xlink:href="classWyrmcultBlackwhelp.html#aaac9534b56263e2906d098a53355a566" target="_top" xlink:title=" ">
<polygon fill="white" stroke="#666666" points="329,-770.5 209,-770.5 209,-740.5 329,-740.5 329,-770.5"/>
<text text-anchor="start" x="217" y="-758.5" font-family="Helvetica,sans-Serif" font-size="10.00">WyrmcultBlackwhelp</text>
<text text-anchor="middle" x="269" y="-747.5" font-family="Helvetica,sans-Serif" font-size="10.00">::AIUpdate</text>
</a>
</g>
</g>
<!-- Node4&#45;&gt;Node32 -->
<g id="edge29_Node000004_Node000032" class="edge">
<title>Node4&#45;&gt;Node32</title>
<g id="a_edge29_Node000004_Node000032"><a xlink:title=" ">
<path fill="none" stroke="#63b8ff" d="M402.22,-890.69C397.06,-888.27 392.22,-885.25 388,-881.5 352.41,-849.81 386.47,-813.41 352,-780.5 345.54,-774.33 337.6,-769.69 329.24,-766.18"/>
<polygon fill="#63b8ff" stroke="#63b8ff" points="401.21,-894.05 411.8,-894.43 403.75,-887.53 401.21,-894.05"/>
</a>
</g>
</g>
<!-- Node33 -->
<g id="Node000033" class="node">
<title>Node33</title>
<g id="a_Node000033"><a xlink:href="classFunnyDragon.html#a4b230a60a6cb9c933f958101b2e996af" target="_top" xlink:title=" ">
<polygon fill="white" stroke="#666666" points="335,-722 203,-722 203,-703 335,-703 335,-722"/>
<text text-anchor="middle" x="269" y="-710" font-family="Helvetica,sans-Serif" font-size="10.00">FunnyDragon::AIUpdate</text>
</a>
</g>
</g>
<!-- Node4&#45;&gt;Node33 -->
<g id="edge30_Node000004_Node000033" class="edge">
<title>Node4&#45;&gt;Node33</title>
<g id="a_edge30_Node000004_Node000033"><a xlink:title=" ">
<path fill="none" stroke="#63b8ff" d="M402.02,-891.27C396.86,-888.74 392.07,-885.54 388,-881.5 339.31,-833.23 400.67,-779.79 352,-731.5 347.23,-726.77 341.52,-723.12 335.38,-720.32"/>
<polygon fill="#63b8ff" stroke="#63b8ff" points="401.06,-894.66 411.64,-895.14 403.67,-888.16 401.06,-894.66"/>
</a>
</g>
</g>
<!-- Node34 -->
<g id="Node000034" class="node">
<title>Node34</title>
<g id="a_Node000034"><a xlink:href="classNotOnMyWatch.html#ada9eca5b4fc7e05b2bbe8c837a82ea08" target="_top" xlink:title=" ">
<polygon fill="white" stroke="#666666" points="340.5,-685 197.5,-685 197.5,-666 340.5,-666 340.5,-685"/>
<text text-anchor="middle" x="269" y="-673" font-family="Helvetica,sans-Serif" font-size="10.00">NotOnMyWatch::AIUpdate</text>
</a>
</g>
</g>
<!-- Node4&#45;&gt;Node34 -->
<g id="edge31_Node000004_Node000034" class="edge">
<title>Node4&#45;&gt;Node34</title>
<g id="a_edge31_Node000004_Node000034"><a xlink:title=" ">
<path fill="none" stroke="#63b8ff" d="M402.45,-891.77C397.08,-889.15 392.14,-885.79 388,-881.5 329.26,-820.57 410.71,-755.46 352,-694.5 348.35,-690.71 344.11,-687.61 339.51,-685.08"/>
<polygon fill="#63b8ff" stroke="#63b8ff" points="401.21,-895.05 411.8,-895.51 403.81,-888.55 401.21,-895.05"/>
</a>
</g>
</g>
<!-- Node35 -->
<g id="Node000035" class="node">
<title>Node35</title>
<g id="a_Node000035"><a xlink:href="classChickenEscapee.html#a79245cbb8b61e741065b9767baa7218c" target="_top" xlink:title=" ">
<polygon fill="white" stroke="#666666" points="342,-648 196,-648 196,-629 342,-629 342,-648"/>
<text text-anchor="middle" x="269" y="-636" font-family="Helvetica,sans-Serif" font-size="10.00">ChickenEscapee::AIUpdate</text>
</a>
</g>
</g>
<!-- Node4&#45;&gt;Node35 -->
<g id="edge32_Node000004_Node000035" class="edge">
<title>Node4&#45;&gt;Node35</title>
<g id="a_edge32_Node000004_Node000035"><a xlink:title=" ">
<path fill="none" stroke="#63b8ff" d="M402.31,-891.91C396.97,-889.26 392.07,-885.86 388,-881.5 319.14,-807.84 420.82,-731.19 352,-657.5 348.51,-653.76 344.44,-650.69 340.02,-648.17"/>
<polygon fill="#63b8ff" stroke="#63b8ff" points="401.05,-895.17 411.63,-895.68 403.67,-888.68 401.05,-895.17"/>
</a>
</g>
</g>
<!-- Node36 -->
<g id="Node000036" class="node">
<title>Node36</title>
<g id="a_Node000036"><a xlink:href="classTwiggyFlathead.html#a770e5c99259be085093973627c78487a" target="_top" xlink:title=" ">
<polygon fill="white" stroke="#666666" points="341,-611 197,-611 197,-592 341,-592 341,-611"/>
<text text-anchor="middle" x="269" y="-599" font-family="Helvetica,sans-Serif" font-size="10.00">TwiggyFlathead::AIUpdate</text>
</a>
</g>
</g>
<!-- Node4&#45;&gt;Node36 -->
<g id="edge33_Node000004_Node000036" class="edge">
<title>Node4&#45;&gt;Node36</title>
<g id="a_edge33_Node000004_Node000036"><a xlink:title=" ">
<path fill="none" stroke="#63b8ff" d="M402.45,-892.12C397.04,-889.44 392.08,-885.97 388,-881.5 309,-795.07 430.97,-706.97 352,-620.5 348.55,-616.72 344.51,-613.62 340.11,-611.09"/>
<polygon fill="#63b8ff" stroke="#63b8ff" points="401.32,-895.44 411.9,-895.92 403.93,-888.94 401.32,-895.44"/>
</a>
</g>
</g>
<!-- Node37 -->
<g id="Node000037" class="node">
<title>Node37</title>
<g id="a_Node000037"><a xlink:href="classVazrudenAI.html#af7eb5003307d25bed79a29e1470095c4" target="_top" xlink:title=" ">
<polygon fill="white" stroke="#666666" points="330,-574 208,-574 208,-555 330,-555 330,-574"/>
<text text-anchor="middle" x="269" y="-562" font-family="Helvetica,sans-Serif" font-size="10.00">VazrudenAI::AIUpdate</text>
</a>
</g>
</g>
<!-- Node4&#45;&gt;Node37 -->
<g id="edge34_Node000004_Node000037" class="edge">
<title>Node4&#45;&gt;Node37</title>
<g id="a_edge34_Node000004_Node000037"><a xlink:title=" ">
<path fill="none" stroke="#63b8ff" d="M402.37,-892.19C396.97,-889.49 392.05,-886 388,-881.5 298.83,-782.28 441.13,-682.76 352,-583.5 346.14,-576.98 338.53,-572.47 330.3,-569.39"/>
<polygon fill="#63b8ff" stroke="#63b8ff" points="401.22,-895.5 411.81,-896.01 403.85,-889.01 401.22,-895.5"/>
</a>
</g>
</g>
<!-- Node38 -->
<g id="Node000038" class="node">
<title>Node38</title>
<g id="a_Node000038"><a xlink:href="classVazrudenTheHeraldAI.html#acdf67adf0f10c95051bb5124bcb75f19" target="_top" xlink:title=" ">
<polygon fill="white" stroke="#666666" points="330,-536.5 208,-536.5 208,-506.5 330,-506.5 330,-536.5"/>
<text text-anchor="start" x="216" y="-524.5" font-family="Helvetica,sans-Serif" font-size="10.00">VazrudenTheHeraldAI</text>
<text text-anchor="middle" x="269" y="-513.5" font-family="Helvetica,sans-Serif" font-size="10.00">::AIUpdate</text>
</a>
</g>
</g>
<!-- Node4&#45;&gt;Node38 -->
<g id="edge35_Node000004_Node000038" class="edge">
<title>Node4&#45;&gt;Node38</title>
<g id="a_edge35_Node000004_Node000038"><a xlink:title=" ">
<path fill="none" stroke="#63b8ff" d="M402.31,-892.24C396.93,-889.54 392.02,-886.03 388,-881.5 288.64,-769.47 447.43,-661.9 352,-546.5 346.21,-539.5 338.53,-534.42 330.18,-530.74"/>
<polygon fill="#63b8ff" stroke="#63b8ff" points="401.15,-895.55 411.73,-896.07 403.79,-889.07 401.15,-895.55"/>
</a>
</g>
</g>
<!-- Node39 -->
<g id="Node000039" class="node">
<title>Node39</title>
<g id="a_Node000039"><a xlink:href="classMuradinSaurfangEvent.html#aa29277a1383b0ddc18b90cd1c16b3370" target="_top" xlink:title=" ">
<polygon fill="white" stroke="#666666" points="333,-488.5 205,-488.5 205,-458.5 333,-458.5 333,-488.5"/>
<text text-anchor="start" x="213" y="-476.5" font-family="Helvetica,sans-Serif" font-size="10.00">MuradinSaurfangEvent</text>
<text text-anchor="middle" x="269" y="-465.5" font-family="Helvetica,sans-Serif" font-size="10.00">::AIUpdate</text>
</a>
</g>
</g>
<!-- Node4&#45;&gt;Node39 -->
<g id="edge36_Node000004_Node000039" class="edge">
<title>Node4&#45;&gt;Node39</title>
<g id="a_edge36_Node000004_Node000039"><a xlink:title=" ">
<path fill="none" stroke="#63b8ff" d="M402.24,-892.3C396.87,-889.58 391.99,-886.06 388,-881.5 331.57,-816.99 406.54,-563.61 352,-497.5 346.9,-491.32 340.31,-486.68 333.07,-483.21"/>
<polygon fill="#63b8ff" stroke="#63b8ff" points="401.07,-895.6 411.65,-896.14 403.72,-889.12 401.07,-895.6"/>
</a>
</g>
</g>
<!-- Node40 -->
<g id="Node000040" class="node">
<title>Node40</title>
<g id="a_Node000040"><a xlink:href="QIspells_8cpp.html#add755ed452b78607ebc7cd5717cc2be7" target="_top" xlink:title=" ">
<polygon fill="#fff0f0" stroke="red" points="319,-440 219,-440 219,-421 319,-421 319,-440"/>
<text text-anchor="middle" x="269" y="-428" font-family="Helvetica,sans-Serif" font-size="10.00">AnUnusualPatron</text>
</a>
</g>
</g>
<!-- Node4&#45;&gt;Node40 -->
<g id="edge37_Node000004_Node000040" class="edge">
<title>Node4&#45;&gt;Node40</title>
<g id="a_edge37_Node000004_Node000040"><a xlink:title=" ">
<path fill="none" stroke="#63b8ff" d="M402.43,-892.46C396.98,-889.72 392.02,-886.14 388,-881.5 324.95,-808.67 415.02,-522.36 352,-449.5 343.68,-439.88 331.55,-434.61 319.15,-431.84"/>
<polygon fill="#63b8ff" stroke="#63b8ff" points="401.41,-895.82 411.99,-896.32 404.03,-889.33 401.41,-895.82"/>
</a>
</g>
</g>
<!-- Node41 -->
<g id="Node000041" class="node">
<title>Node41</title>
<g id="a_Node000041"><a xlink:href="Instance__ShadowfangKeep_8cpp.html#a640aa2bb20e1178f27e1afa6b2aec26c" target="_top" xlink:title=" ">
<polygon fill="#fff0f0" stroke="red" points="352,-403 186,-403 186,-384 352,-384 352,-403"/>
<text text-anchor="middle" x="269" y="-391" font-family="Helvetica,sans-Serif" font-size="10.00">ashrombeTeleportDummyAura</text>
</a>
</g>
</g>
<!-- Node4&#45;&gt;Node41 -->
<g id="edge38_Node000004_Node000041" class="edge">
<title>Node4&#45;&gt;Node41</title>
<g id="a_edge38_Node000004_Node000041"><a xlink:title=" ">
<path fill="none" stroke="#63b8ff" d="M402.4,-892.49C396.95,-889.74 392.01,-886.16 388,-881.5 319.84,-802.25 420.12,-491.78 352,-412.5 348.76,-408.73 344.94,-405.63 340.74,-403.08"/>
<polygon fill="#63b8ff" stroke="#63b8ff" points="401.37,-895.85 411.95,-896.36 404,-889.36 401.37,-895.85"/>
</a>
</g>
</g>
<!-- Node44 -->
<g id="Node000044" class="node">
<title>Node44</title>
<g id="a_Node000044"><a xlink:href="QIspells_8cpp.html#a91ed86a82a2756ec0d697e20335f8a10" target="_top" xlink:title=" ">
<polygon fill="#fff0f0" stroke="red" points="303,-366 235,-366 235,-347 303,-347 303,-366"/>
<text text-anchor="middle" x="269" y="-354" font-family="Helvetica,sans-Serif" font-size="10.00">ASpiritAlly</text>
</a>
</g>
</g>
<!-- Node4&#45;&gt;Node44 -->
<g id="edge39_Node000004_Node000044" class="edge">
<title>Node4&#45;&gt;Node44</title>
<g id="a_edge39_Node000004_Node000044"><a xlink:title=" ">
<path fill="none" stroke="#63b8ff" d="M402.37,-892.51C396.93,-889.76 391.99,-886.17 388,-881.5 314.73,-795.83 425.23,-461.2 352,-375.5 340.13,-361.61 320.31,-356.76 303.12,-355.42"/>
<polygon fill="#63b8ff" stroke="#63b8ff" points="401.34,-895.87 411.92,-896.38 403.97,-889.38 401.34,-895.87"/>
</a>
</g>
</g>
<!-- Node45 -->
<g id="Node000045" class="node">
<title>Node45</title>
<g id="a_Node000045"><a xlink:href="classArathiBasin.html#ac75433a5552ec59106b908c77015d46e" target="_top" xlink:title=" ">
<polygon fill="#fff0f0" stroke="red" points="150,-292.5 0,-292.5 0,-262.5 150,-262.5 150,-292.5"/>
<text text-anchor="start" x="8" y="-280.5" font-family="Helvetica,sans-Serif" font-size="10.00">ArathiBasin::AssaultControl</text>
<text text-anchor="middle" x="75" y="-269.5" font-family="Helvetica,sans-Serif" font-size="10.00">Point</text>
</a>
</g>
</g>
<!-- Node4&#45;&gt;Node45 -->
<g id="edge40_Node000004_Node000045" class="edge">
<title>Node4&#45;&gt;Node45</title>
<g id="a_edge40_Node000004_Node000045"><a xlink:title=" ">
<path fill="none" stroke="#63b8ff" d="M402.35,-892.53C396.91,-889.78 391.98,-886.18 388,-881.5 309.62,-789.4 430.8,-430.23 352,-338.5 348.63,-334.57 229.77,-309.32 149.15,-292.56"/>
<polygon fill="#63b8ff" stroke="#63b8ff" points="401.31,-895.89 411.89,-896.41 403.95,-889.4 401.31,-895.89"/>
</a>
</g>
</g>
<!-- Node47 -->
<g id="Node000047" class="node">
<title>Node47</title>
<g id="a_Node000047"><a xlink:href="QIspells_8cpp.html#a1071d262d24aef496379b70de5c46dd3" target="_top" xlink:title=" ">
<polygon fill="#fff0f0" stroke="red" points="304,-290 234,-290 234,-271 304,-271 304,-290"/>
<text text-anchor="middle" x="269" y="-278" font-family="Helvetica,sans-Serif" font-size="10.00">CallRexxar</text>
</a>
</g>
</g>
<!-- Node4&#45;&gt;Node47 -->
<g id="edge41_Node000004_Node000047" class="edge">
<title>Node4&#45;&gt;Node47</title>
<g id="a_edge41_Node000004_Node000047"><a xlink:title=" ">
<path fill="none" stroke="#63b8ff" d="M402.33,-892.55C396.9,-889.79 391.97,-886.19 388,-881.5 304.93,-783.5 432.2,-404.86 352,-304.5 340.61,-290.25 321.24,-284.15 304.18,-281.66"/>
<polygon fill="#63b8ff" stroke="#63b8ff" points="401.29,-895.9 411.87,-896.43 403.93,-889.42 401.29,-895.9"/>
</a>
</g>
</g>
<!-- Node48 -->
<g id="Node000048" class="node">
<title>Node48</title>
<g id="a_Node000048"><a xlink:href="classArathiBasin.html#a4f396a77b5b42519aab9d9a9e2947a2e" target="_top" xlink:title=" ">
<polygon fill="white" stroke="#666666" points="345,-252.5 193,-252.5 193,-222.5 345,-222.5 345,-252.5"/>
<text text-anchor="start" x="201" y="-240.5" font-family="Helvetica,sans-Serif" font-size="10.00">ArathiBasin::CaptureControl</text>
<text text-anchor="middle" x="269" y="-229.5" font-family="Helvetica,sans-Serif" font-size="10.00">Point</text>
</a>
</g>
</g>
<!-- Node4&#45;&gt;Node48 -->
<g id="edge42_Node000004_Node000048" class="edge">
<title>Node4&#45;&gt;Node48</title>
<g id="a_edge42_Node000004_Node000048"><a xlink:title=" ">
<path fill="none" stroke="#63b8ff" d="M402.31,-892.56C396.88,-889.8 391.96,-886.19 388,-881.5 299.12,-776.21 437.18,-370.8 352,-262.5 348.96,-258.64 345.35,-255.36 341.35,-252.57"/>
<polygon fill="#63b8ff" stroke="#63b8ff" points="401.26,-895.92 411.85,-896.45 403.9,-889.43 401.26,-895.92"/>
</a>
</g>
</g>
<!-- Node49 -->
<g id="Node000049" class="node">
<title>Node49</title>
<g id="a_Node000049"><a xlink:href="classSpell.html#a6bf009e2f4ca2546d9c0932a973d8c3c" target="_top" xlink:title=" ">
<polygon fill="#fff0f0" stroke="red" points="310,-204 228,-204 228,-185 310,-185 310,-204"/>
<text text-anchor="middle" x="269" y="-192" font-family="Helvetica,sans-Serif" font-size="10.00">Spell::castMe</text>
</a>
</g>
</g>
<!-- Node4&#45;&gt;Node49 -->
<g id="edge44_Node000004_Node000049" class="edge">
<title>Node4&#45;&gt;Node49</title>
<g id="a_edge44_Node000004_Node000049"><a xlink:title=" ">
<path fill="none" stroke="#63b8ff" d="M402.29,-892.58C396.87,-889.82 391.95,-886.2 388,-881.5 292.35,-767.7 447.6,-327.35 352,-213.5 341.85,-201.41 325.67,-196.14 310.36,-194.09"/>
<polygon fill="#63b8ff" stroke="#63b8ff" points="401.24,-895.93 411.82,-896.47 403.88,-889.45 401.24,-895.93"/>
</a>
</g>
</g>
<!-- Node938 -->
<g id="Node000938" class="node">
<title>Node938</title>
<g id="a_Node000938"><a xlink:href="classChillTriggerAI.html#a91e93edbd58079a5a0f57a29c40aada6" target="_top" xlink:title=" ">
<polygon fill="white" stroke="#666666" points="345,-167 193,-167 193,-148 345,-148 345,-167"/>
<text text-anchor="middle" x="269" y="-155" font-family="Helvetica,sans-Serif" font-size="10.00">ChillTriggerAI::ChillTriggerAI</text>
</a>
</g>
</g>
<!-- Node4&#45;&gt;Node938 -->
<g id="edge45_Node000004_Node000938" class="edge">
<title>Node4&#45;&gt;Node938</title>
<g id="a_edge45_Node000004_Node000938"><a xlink:title=" ">
<path fill="none" stroke="#63b8ff" d="M402.28,-892.59C396.85,-889.83 391.95,-886.21 388,-881.5 287.24,-761.27 452.71,-296.78 352,-176.5 348.9,-172.8 345.24,-169.74 341.22,-167.22"/>
<polygon fill="#63b8ff" stroke="#63b8ff" points="401.22,-895.94 411.8,-896.48 403.87,-889.46 401.22,-895.94"/>
</a>
</g>
</g>
<!-- Node1347 -->
<g id="Node001347" class="node">
<title>Node1347</title>
<g id="a_Node001347"><a xlink:href="classIllhoofAI.html#ad71bc9053de06f31a48cae40f801df82" target="_top" xlink:title=" ">
<polygon fill="#fff0f0" stroke="red" points="313.5,-130 224.5,-130 224.5,-111 313.5,-111 313.5,-130"/>
<text text-anchor="middle" x="269" y="-118" font-family="Helvetica,sans-Serif" font-size="10.00">IllhoofAI::clean</text>
</a>
</g>
</g>
<!-- Node4&#45;&gt;Node1347 -->
<g id="edge46_Node000004_Node001347" class="edge">
<title>Node4&#45;&gt;Node1347</title>
<g id="a_edge46_Node000004_Node001347"><a xlink:title=" ">
<path fill="none" stroke="#63b8ff" d="M402.26,-892.6C396.84,-889.84 391.94,-886.21 388,-881.5 282.13,-754.84 457.82,-266.21 352,-139.5 342.63,-128.28 328.07,-122.93 313.8,-120.57"/>
<polygon fill="#63b8ff" stroke="#63b8ff" points="401.21,-895.95 411.79,-896.5 403.86,-889.47 401.21,-895.95"/>
</a>
</g>
</g>
<!-- Node1350 -->
<g id="Node001350" class="node">
<title>Node1350</title>
<g id="a_Node001350"><a xlink:href="QIspells_8cpp.html#a2d71e22e463205ace75362c43a171d52" target="_top" xlink:title=" ">
<polygon fill="#fff0f0" stroke="red" points="310.5,-93 227.5,-93 227.5,-74 310.5,-74 310.5,-93"/>
<text text-anchor="middle" x="269" y="-81" font-family="Helvetica,sans-Serif" font-size="10.00">CleansingVial</text>
</a>
</g>
</g>
<!-- Node4&#45;&gt;Node1350 -->
<g id="edge47_Node000004_Node001350" class="edge">
<title>Node4&#45;&gt;Node1350</title>
<g id="a_edge47_Node000004_Node001350"><a xlink:title=" ">
<path fill="none" stroke="#63b8ff" d="M402.25,-892.61C396.84,-889.84 391.93,-886.22 388,-881.5 332.51,-814.95 407.46,-169.07 352,-102.5 341.99,-90.49 326.02,-85.2 310.83,-83.11"/>
<polygon fill="#63b8ff" stroke="#63b8ff" points="401.2,-895.96 411.78,-896.51 403.84,-889.48 401.2,-895.96"/>
</a>
</g>
</g>
<!-- Node1134 -->
<g id="Node001134" class="node">
<title>Node1134</title>
<g id="a_Node001134"><a xlink:href="classBarnesAI.html#a06bc0ab7b57d2852df385d18dd05985b" target="_top" xlink:title=" ">
<polygon fill="#fff0f0" stroke="red" points="329,-56 209,-56 209,-37 329,-37 329,-56"/>
<text text-anchor="middle" x="269" y="-44" font-family="Helvetica,sans-Serif" font-size="10.00">BarnesAI::cleanStage</text>
</a>
</g>
</g>
<!-- Node4&#45;&gt;Node1134 -->
<g id="edge48_Node000004_Node001134" class="edge">
<title>Node4&#45;&gt;Node1134</title>
<g id="a_edge48_Node000004_Node001134"><a xlink:title=" ">
<path fill="none" stroke="#63b8ff" d="M402.24,-892.62C396.83,-889.85 391.93,-886.22 388,-881.5 329.95,-811.74 410.02,-135.29 352,-65.5 346.02,-58.31 337.91,-53.53 329.1,-50.4"/>
<polygon fill="#63b8ff" stroke="#63b8ff" points="401.18,-895.97 411.76,-896.52 403.83,-889.49 401.18,-895.97"/>
</a>
</g>
</g>
<!-- Node1351 -->
<g id="Node001351" class="node">
<title>Node1351</title>
<g id="a_Node001351"><a xlink:href="QIspells_8cpp.html#a87f4f6a150df4b72e66c277c9aa7b682" target="_top" xlink:title=" ">
<polygon fill="#fff0f0" stroke="red" points="319.5,-19 218.5,-19 218.5,0 319.5,0 319.5,-19"/>
<text text-anchor="middle" x="269" y="-7" font-family="Helvetica,sans-Serif" font-size="10.00">ConvertingSentry</text>
</a>
</g>
</g>
<!-- Node4&#45;&gt;Node1351 -->
<g id="edge49_Node000004_Node001351" class="edge">
<title>Node4&#45;&gt;Node1351</title>
<g id="a_edge49_Node000004_Node001351"><a xlink:title=" ">
<path fill="none" stroke="#63b8ff" d="M402.23,-892.63C396.82,-889.86 391.92,-886.23 388,-881.5 327.39,-808.52 412.58,-101.5 352,-28.5 343.97,-18.83 332.09,-13.51 319.84,-10.71"/>
<polygon fill="#63b8ff" stroke="#63b8ff" points="401.17,-895.98 411.75,-896.53 403.82,-889.5 401.17,-895.98"/>
</a>
</g>
</g>
<!-- Node48&#45;&gt;Node45 -->
<g id="edge43_Node000048_Node000045" class="edge">
<title>Node48&#45;&gt;Node45</title>
<g id="a_edge43_Node000048_Node000045"><a xlink:title=" ">
<path fill="none" stroke="#63b8ff" d="M185.96,-254.59C173.38,-257.21 160.47,-259.9 148.12,-262.47"/>
<polygon fill="#63b8ff" stroke="#63b8ff" points="186.88,-257.97 195.96,-252.51 185.46,-251.12 186.88,-257.97"/>
</a>
</g>
</g>
</g>
</svg>
