<?xml version="1.0" encoding="UTF-8" standalone="no"?>
<!DOCTYPE svg PUBLIC "-//W3C//DTD SVG 1.1//EN"
 "http://www.w3.org/Graphics/SVG/1.1/DTD/svg11.dtd">
<!-- Generated by graphviz version 2.43.0 (0)
 -->
<!-- Title: MovementManager::moveLand Pages: 1 -->
<!--zoomable 398 -->

<svg id="main" version="1.1" xmlns="http://www.w3.org/2000/svg" xmlns:xlink="http://www.w3.org/1999/xlink" xml:space="preserve" onload="init(evt)">
<style type="text/css"><![CDATA[
.node, .edge {opacity: 0.7;}
.node.selected, .edge.selected {opacity: 1;}
.edge:hover path { stroke: red; }
.edge:hover polygon { stroke: red; fill: red; }
]]></style>

<defs>
  <circle id="rim" cx="0" cy="0" r="7"/>
  <circle id="rim2" cx="0" cy="0" r="3.5"/>
  <g id="zoomPlus">
    <use xlink:href="#rim" fill="#404040"><set attributeName="fill" to="#808080" begin="zoomplus.mouseover" end="zoomplus.mouseout"/></use>
    <path d="M-4,0h8M0,-4v8" fill="none" stroke="white" stroke-width="1.5" pointer-events="none"/>
  </g>
  <g id="zoomMin">
    <use xlink:href="#rim" fill="#404040"><set attributeName="fill" to="#808080" begin="zoomminus.mouseover" end="zoomminus.mouseout"/></use>
    <path d="M-4,0h8" fill="none" stroke="white" stroke-width="1.5" pointer-events="none"/>
  </g>
  <g id="arrowUp" transform="translate(30 24)">
    <use xlink:href="#rim"/>
    <path pointer-events="none" fill="none" stroke="white" stroke-width="1.5" d="M0,-3.0v7 M-2.5,-0.5L0,-3.0L2.5,-0.5"/>
  </g>
  <g id="arrowRight" transform="rotate(90) translate(36 -43)">
    <use xlink:href="#rim"/>
    <path pointer-events="none" fill="none" stroke="white" stroke-width="1.5" d="M0,-3.0v7 M-2.5,-0.5L0,-3.0L2.5,-0.5"/>
  </g>
  <g id="arrowDown" transform="rotate(180) translate(-30 -48)">
    <use xlink:href="#rim"/>
    <path pointer-events="none" fill="none" stroke="white" stroke-width="1.5" d="M0,-3.0v7 M-2.5,-0.5L0,-3.0L2.5,-0.5"/>
  </g>
  <g id="arrowLeft" transform="rotate(270) translate(-36 17)">
    <use xlink:href="#rim"/>
    <path pointer-events="none" fill="none" stroke="white" stroke-width="1.5" d="M0,-3.0v7 M-2.5,-0.5L0,-3.0L2.5,-0.5"/>
  </g>
  <g id="resetDef">
    <use xlink:href="#rim2" fill="#404040"><set attributeName="fill" to="#808080" begin="reset.mouseover" end="reset.mouseout"/></use>
  </g>
</defs>
<script type="application/ecmascript">
var viewWidth = 1366;
var viewHeight = 398;
var sectionId = 'dynsection-83';
</script>
<script type="application/ecmascript" xlink:href="svg.min.js"/>
<svg id="graph" class="graph">
<g id="viewport">
<title>MovementManager::moveLand</title>
<!-- Node1 -->
<g id="Node000001" class="node">
<title>Node1</title>
<g id="a_Node000001"><a xlink:title=" ">
<polygon fill="#999999" stroke="#666666" points="169,-56 0,-56 0,-37 169,-37 169,-56"/>
<text text-anchor="middle" x="84.5" y="-44" font-family="Helvetica,sans-Serif" font-size="10.00">MovementManager::moveLand</text>
</a>
</g>
</g>
<!-- Node2 -->
<g id="Node000002" class="node">
<title>Node2</title>
<g id="a_Node000002"><a xlink:href="classMovementManager.html#a1340623be775af3879492949dc60d34d" target="_top" xlink:title=" ">
<polygon fill="white" stroke="#666666" points="341,-113 205,-113 205,-94 341,-94 341,-113"/>
<text text-anchor="middle" x="273" y="-101" font-family="Helvetica,sans-Serif" font-size="10.00">MovementManager::add</text>
</a>
</g>
</g>
<!-- Node1&#45;&gt;Node2 -->
<g id="edge1_Node000001_Node000002" class="edge">
<title>Node1&#45;&gt;Node2</title>
<g id="a_edge1_Node000001_Node000002"><a xlink:title=" ">
<path fill="none" stroke="#63b8ff" d="M116.72,-56.04C148.05,-65.62 196.49,-80.42 230.92,-90.95"/>
<polygon fill="#63b8ff" stroke="#63b8ff" points="230.1,-94.35 240.68,-93.93 232.14,-87.66 230.1,-94.35"/>
</a>
</g>
</g>
<!-- Node16 -->
<g id="Node000016" class="node">
<title>Node16</title>
<g id="a_Node000016"><a xlink:href="ltm__desc_8c.html#a4f8948d7c94899bf8ddee4721114d593" target="_top" xlink:title=" ">
<polygon fill="white" stroke="#666666" points="289,-56 257,-56 257,-37 289,-37 289,-56"/>
<text text-anchor="middle" x="273" y="-44" font-family="Helvetica,sans-Serif" font-size="10.00">init</text>
</a>
</g>
</g>
<!-- Node1&#45;&gt;Node16 -->
<g id="edge21_Node000001_Node000016" class="edge">
<title>Node1&#45;&gt;Node16</title>
<g id="a_edge21_Node000001_Node000016"><a xlink:title=" ">
<path fill="none" stroke="#63b8ff" d="M169.2,-46.5C197.31,-46.5 226.58,-46.5 246.67,-46.5"/>
<polygon fill="#63b8ff" stroke="#63b8ff" points="246.82,-50 256.82,-46.5 246.82,-43 246.82,-50"/>
</a>
</g>
</g>
<!-- Node19 -->
<g id="Node000019" class="node">
<title>Node19</title>
<g id="a_Node000019"><a xlink:href="G3DPosition_8hpp.html#ac8f4e35176779173dda9c21cba18931e" target="_top" xlink:title=" ">
<polygon fill="white" stroke="#666666" points="324.5,-19 221.5,-19 221.5,0 324.5,0 324.5,-19"/>
<text text-anchor="middle" x="273" y="-7" font-family="Helvetica,sans-Serif" font-size="10.00">positionToVector3</text>
</a>
</g>
</g>
<!-- Node1&#45;&gt;Node19 -->
<g id="edge24_Node000001_Node000019" class="edge">
<title>Node1&#45;&gt;Node19</title>
<g id="a_edge24_Node000001_Node000019"><a xlink:title=" ">
<path fill="none" stroke="#63b8ff" d="M133.53,-36.97C158.02,-32.11 187.99,-26.17 213.78,-21.05"/>
<polygon fill="#63b8ff" stroke="#63b8ff" points="214.68,-24.44 223.81,-19.06 213.32,-17.57 214.68,-24.44"/>
</a>
</g>
</g>
<!-- Node2&#45;&gt;Node2 -->
<g id="edge2_Node000002_Node000002" class="edge">
<title>Node2&#45;&gt;Node2</title>
<g id="a_edge2_Node000002_Node000002"><a xlink:title=" ">
<path fill="none" stroke="#63b8ff" d="M244.33,-113.08C230.39,-121.73 239.94,-131 273,-131 295.73,-131 307.35,-126.62 307.86,-121.07"/>
<polygon fill="#63b8ff" stroke="#63b8ff" points="310.56,-118.84 301.67,-113.08 305.03,-123.13 310.56,-118.84"/>
</a>
</g>
</g>
<!-- Node3 -->
<g id="Node000003" class="node">
<title>Node3</title>
<g id="a_Node000003"><a xlink:href="classMovementManager.html#ad6af3abae7c0cacb492fb0612bac2ffb" target="_top" xlink:title=" ">
<polygon fill="white" stroke="#666666" points="541,-255 377,-255 377,-236 541,-236 541,-255"/>
<text text-anchor="middle" x="459" y="-243" font-family="Helvetica,sans-Serif" font-size="10.00">MovementManager::directAdd</text>
</a>
</g>
</g>
<!-- Node2&#45;&gt;Node3 -->
<g id="edge3_Node000002_Node000003" class="edge">
<title>Node2&#45;&gt;Node3</title>
<g id="a_edge3_Node000002_Node000003"><a xlink:title=" ">
<path fill="none" stroke="#63b8ff" d="M286.36,-113.04C317.37,-136.97 398.75,-199.78 437.25,-229.49"/>
<polygon fill="#63b8ff" stroke="#63b8ff" points="435.15,-232.29 445.21,-235.63 439.43,-226.75 435.15,-232.29"/>
</a>
</g>
</g>
<!-- Node14 -->
<g id="Node000014" class="node">
<title>Node14</title>
<g id="a_Node000014"><a xlink:href="classMovementManager.html#aa7cc3ad1c19a26296bd100036f2f9010" target="_top" xlink:title=" ">
<polygon fill="white" stroke="#666666" points="936.5,-131 780.5,-131 780.5,-112 936.5,-112 936.5,-131"/>
<text text-anchor="middle" x="858.5" y="-119" font-family="Helvetica,sans-Serif" font-size="10.00">MovementManager::hasFlag</text>
</a>
</g>
</g>
<!-- Node2&#45;&gt;Node14 -->
<g id="edge19_Node000002_Node000014" class="edge">
<title>Node2&#45;&gt;Node14</title>
<g id="a_edge19_Node000002_Node000014"><a xlink:title=" ">
<path fill="none" stroke="#63b8ff" d="M341.22,-105.57C447.21,-108.84 653.14,-115.2 770.35,-118.81"/>
<polygon fill="#63b8ff" stroke="#63b8ff" points="770.26,-122.31 780.37,-119.12 770.48,-115.31 770.26,-122.31"/>
</a>
</g>
</g>
<!-- Node15 -->
<g id="Node000015" class="node">
<title>Node15</title>
<g id="a_Node000015"><a xlink:href="MovementDefines_8h.html#ad8cdfa8e18b2a93192e3d4101a10388a" target="_top" xlink:title=" ">
<polygon fill="white" stroke="#666666" points="923,-94 794,-94 794,-75 923,-75 923,-94"/>
<text text-anchor="middle" x="858.5" y="-82" font-family="Helvetica,sans-Serif" font-size="10.00">isInvalidMovementSlot</text>
</a>
</g>
</g>
<!-- Node2&#45;&gt;Node15 -->
<g id="edge20_Node000002_Node000015" class="edge">
<title>Node2&#45;&gt;Node15</title>
<g id="a_edge20_Node000002_Node000015"><a xlink:title=" ">
<path fill="none" stroke="#63b8ff" d="M341.22,-101.31C451.32,-97.73 669.26,-90.63 783.58,-86.91"/>
<polygon fill="#63b8ff" stroke="#63b8ff" points="783.76,-90.4 793.64,-86.58 783.53,-83.41 783.76,-90.4"/>
</a>
</g>
</g>
<!-- Node4 -->
<g id="Node000004" class="node">
<title>Node4</title>
<g id="a_Node000004"><a xlink:href="classMovementManager.html#ad4d2ac6a143f74472c131de062862999" target="_top" xlink:title=" ">
<polygon fill="white" stroke="#666666" points="737,-389.5 577,-389.5 577,-359.5 737,-359.5 737,-389.5"/>
<text text-anchor="start" x="585" y="-377.5" font-family="Helvetica,sans-Serif" font-size="10.00">MovementManager::addBase</text>
<text text-anchor="middle" x="657" y="-366.5" font-family="Helvetica,sans-Serif" font-size="10.00">UnitState</text>
</a>
</g>
</g>
<!-- Node3&#45;&gt;Node4 -->
<g id="edge4_Node000003_Node000004" class="edge">
<title>Node3&#45;&gt;Node4</title>
<g id="a_edge4_Node000003_Node000004"><a xlink:title=" ">
<path fill="none" stroke="#63b8ff" d="M468.82,-255.05C487.23,-274.48 531.8,-319.05 577,-345.5 583.33,-349.2 590.21,-352.57 597.19,-355.59"/>
<polygon fill="#63b8ff" stroke="#63b8ff" points="596.14,-358.94 606.72,-359.49 598.79,-352.46 596.14,-358.94"/>
</a>
</g>
</g>
<!-- Node6 -->
<g id="Node000006" class="node">
<title>Node6</title>
<g id="a_Node000006"><a xlink:href="classMovementManager.html#a9279c501cd8be1aa5be3aae9a85835f1" target="_top" xlink:title=" ">
<polygon fill="white" stroke="#666666" points="1358,-325 1201,-325 1201,-306 1358,-306 1358,-325"/>
<text text-anchor="middle" x="1279.5" y="-313" font-family="Helvetica,sans-Serif" font-size="10.00">MovementManager::addFlag</text>
</a>
</g>
</g>
<!-- Node3&#45;&gt;Node6 -->
<g id="edge6_Node000003_Node000006" class="edge">
<title>Node3&#45;&gt;Node6</title>
<g id="a_edge6_Node000003_Node000006"><a xlink:title=" ">
<path fill="none" stroke="#63b8ff" d="M493.44,-255.03C550.3,-270.69 669.69,-301.26 773,-312.5 918.71,-328.36 1089.45,-324.8 1190.55,-320.41"/>
<polygon fill="#63b8ff" stroke="#63b8ff" points="1190.88,-323.9 1200.71,-319.96 1190.57,-316.91 1190.88,-323.9"/>
</a>
</g>
</g>
<!-- Node7 -->
<g id="Node000007" class="node">
<title>Node7</title>
<g id="a_Node000007"><a xlink:href="MovementManager_8cpp.html#a05fec3371a9aee5a6448115a645a505d" target="_top" xlink:title=" ">
<polygon fill="white" stroke="#666666" points="1099,-258 1046,-258 1046,-239 1099,-239 1099,-258"/>
<text text-anchor="middle" x="1072.5" y="-246" font-family="Helvetica,sans-Serif" font-size="10.00">isStatic</text>
</a>
</g>
</g>
<!-- Node3&#45;&gt;Node7 -->
<g id="edge7_Node000003_Node000007" class="edge">
<title>Node3&#45;&gt;Node7</title>
<g id="a_edge7_Node000003_Node000007"><a xlink:title=" ">
<path fill="none" stroke="#63b8ff" d="M541.2,-245.9C675.85,-246.56 940,-247.85 1035.76,-248.32"/>
<polygon fill="#63b8ff" stroke="#63b8ff" points="1035.78,-251.82 1045.8,-248.37 1035.82,-244.82 1035.78,-251.82"/>
</a>
</g>
</g>
<!-- Node9 -->
<g id="Node000009" class="node">
<title>Node9</title>
<g id="a_Node000009"><a xlink:href="classMovementManager.html#a151552ff71fb6eadaca8d4d4b110824d" target="_top" xlink:title=" ">
<polygon fill="white" stroke="#666666" points="734.5,-186 579.5,-186 579.5,-167 734.5,-167 734.5,-186"/>
<text text-anchor="middle" x="657" y="-174" font-family="Helvetica,sans-Serif" font-size="10.00">MovementManager::remove</text>
</a>
</g>
</g>
<!-- Node3&#45;&gt;Node9 -->
<g id="edge9_Node000003_Node000009" class="edge">
<title>Node3&#45;&gt;Node9</title>
<g id="a_edge9_Node000003_Node000009"><a xlink:title=" ">
<path fill="none" stroke="#63b8ff" d="M487.25,-235.91C521.63,-223.8 580.87,-202.95 619.23,-189.45"/>
<polygon fill="#63b8ff" stroke="#63b8ff" points="620.71,-192.63 628.98,-186.01 618.38,-186.03 620.71,-192.63"/>
</a>
</g>
</g>
<!-- Node5 -->
<g id="Node000005" class="node">
<title>Node5</title>
<g id="a_Node000005"><a xlink:href="classUnit.html#a476fa6a71e1488221771dff4550b58ac" target="_top" xlink:title=" ">
<polygon fill="white" stroke="#666666" points="922.5,-384 794.5,-384 794.5,-365 922.5,-365 922.5,-384"/>
<text text-anchor="middle" x="858.5" y="-372" font-family="Helvetica,sans-Serif" font-size="10.00">Unit::addUnitStateFlag</text>
</a>
</g>
</g>
<!-- Node4&#45;&gt;Node5 -->
<g id="edge5_Node000004_Node000005" class="edge">
<title>Node4&#45;&gt;Node5</title>
<g id="a_edge5_Node000004_Node000005"><a xlink:title=" ">
<path fill="none" stroke="#63b8ff" d="M737.13,-374.5C752.6,-374.5 768.76,-374.5 784.04,-374.5"/>
<polygon fill="#63b8ff" stroke="#63b8ff" points="784.45,-378 794.45,-374.5 784.45,-371 784.45,-378"/>
</a>
</g>
</g>
<!-- Node8 -->
<g id="Node000008" class="node">
<title>Node8</title>
<g id="a_Node000008"><a xlink:href="MovementManager_8cpp.html#a867ee2f9661203918eb1374e76d560c7" target="_top" xlink:title=" ">
<polygon fill="white" stroke="#666666" points="1355.5,-276 1203.5,-276 1203.5,-257 1355.5,-257 1355.5,-276"/>
<text text-anchor="middle" x="1279.5" y="-264" font-family="Helvetica,sans-Serif" font-size="10.00">getIdleMovementGenerator</text>
</a>
</g>
</g>
<!-- Node7&#45;&gt;Node8 -->
<g id="edge8_Node000007_Node000008" class="edge">
<title>Node7&#45;&gt;Node8</title>
<g id="a_edge8_Node000007_Node000008"><a xlink:title=" ">
<path fill="none" stroke="#63b8ff" d="M1099.05,-250.74C1122.59,-252.81 1158.89,-256 1192.7,-258.97"/>
<polygon fill="#63b8ff" stroke="#63b8ff" points="1192.82,-262.49 1203.09,-259.88 1193.44,-255.52 1192.82,-262.49"/>
</a>
</g>
</g>
<!-- Node9&#45;&gt;Node9 -->
<g id="edge18_Node000009_Node000009" class="edge">
<title>Node9&#45;&gt;Node9</title>
<g id="a_edge18_Node000009_Node000009"><a xlink:title=" ">
<path fill="none" stroke="#63b8ff" d="M626.48,-186.08C611.64,-194.73 621.81,-204 657,-204 681.74,-204 694.12,-199.42 694.12,-193.69"/>
<polygon fill="#63b8ff" stroke="#63b8ff" points="696.72,-191.34 687.52,-186.08 691.43,-195.93 696.72,-191.34"/>
</a>
</g>
</g>
<!-- Node10 -->
<g id="Node000010" class="node">
<title>Node10</title>
<g id="a_Node000010"><a xlink:href="classMovementManager.html#a0391adbd47fffa0ee8a4e296139ce0e3" target="_top" xlink:title=" ">
<polygon fill="white" stroke="#666666" points="944,-303.5 773,-303.5 773,-273.5 944,-273.5 944,-303.5"/>
<text text-anchor="start" x="781" y="-291.5" font-family="Helvetica,sans-Serif" font-size="10.00">MovementManager::directClear</text>
<text text-anchor="middle" x="858.5" y="-280.5" font-family="Helvetica,sans-Serif" font-size="10.00">Default</text>
</a>
</g>
</g>
<!-- Node9&#45;&gt;Node10 -->
<g id="edge10_Node000009_Node000010" class="edge">
<title>Node9&#45;&gt;Node10</title>
<g id="a_edge10_Node000009_Node000010"><a xlink:title=" ">
<path fill="none" stroke="#63b8ff" d="M675.01,-186.05C707.38,-204.22 778.48,-244.14 821.75,-268.43"/>
<polygon fill="#63b8ff" stroke="#63b8ff" points="820.11,-271.52 830.54,-273.37 823.54,-265.42 820.11,-271.52"/>
</a>
</g>
</g>
<!-- Node12 -->
<g id="Node000012" class="node">
<title>Node12</title>
<g id="a_Node000012"><a xlink:href="classMovementManager.html#ae7069e04b505c65968a300d463ecf128" target="_top" xlink:title=" ">
<polygon fill="white" stroke="#666666" points="933,-217 784,-217 784,-198 933,-198 933,-217"/>
<text text-anchor="middle" x="858.5" y="-205" font-family="Helvetica,sans-Serif" font-size="10.00">MovementManager::empty</text>
</a>
</g>
</g>
<!-- Node9&#45;&gt;Node12 -->
<g id="edge14_Node000009_Node000012" class="edge">
<title>Node9&#45;&gt;Node12</title>
<g id="a_edge14_Node000009_Node000012"><a xlink:title=" ">
<path fill="none" stroke="#63b8ff" d="M719.21,-186.01C740.37,-189.3 764.26,-193.01 786.16,-196.41"/>
<polygon fill="#63b8ff" stroke="#63b8ff" points="785.64,-199.88 796.06,-197.95 786.72,-192.96 785.64,-199.88"/>
</a>
</g>
</g>
<!-- Node13 -->
<g id="Node000013" class="node">
<title>Node13</title>
<g id="a_Node000013"><a xlink:href="classMovementManager.html#a27fb232bc85f34a6e102604abeea7836" target="_top" xlink:title=" ">
<polygon fill="white" stroke="#666666" points="943.5,-179.5 773.5,-179.5 773.5,-149.5 943.5,-149.5 943.5,-179.5"/>
<text text-anchor="start" x="781.5" y="-167.5" font-family="Helvetica,sans-Serif" font-size="10.00">MovementManager::getCurrent</text>
<text text-anchor="middle" x="858.5" y="-156.5" font-family="Helvetica,sans-Serif" font-size="10.00">MovementGenerator</text>
</a>
</g>
</g>
<!-- Node9&#45;&gt;Node13 -->
<g id="edge15_Node000009_Node000013" class="edge">
<title>Node9&#45;&gt;Node13</title>
<g id="a_edge15_Node000009_Node000013"><a xlink:title=" ">
<path fill="none" stroke="#63b8ff" d="M734.56,-171.89C743.84,-171.34 753.4,-170.76 762.91,-170.19"/>
<polygon fill="#63b8ff" stroke="#63b8ff" points="763.4,-173.67 773.17,-169.57 762.98,-166.68 763.4,-173.67"/>
</a>
</g>
</g>
<!-- Node9&#45;&gt;Node14 -->
<g id="edge16_Node000009_Node000014" class="edge">
<title>Node9&#45;&gt;Node14</title>
<g id="a_edge16_Node000009_Node000014"><a xlink:title=" ">
<path fill="none" stroke="#63b8ff" d="M686.17,-166.97C709.33,-159.31 743.1,-148.53 773,-140.5 782.27,-138.01 792.17,-135.58 801.81,-133.34"/>
<polygon fill="#63b8ff" stroke="#63b8ff" points="802.76,-136.71 811.72,-131.07 801.2,-129.89 802.76,-136.71"/>
</a>
</g>
</g>
<!-- Node9&#45;&gt;Node15 -->
<g id="edge17_Node000009_Node000015" class="edge">
<title>Node9&#45;&gt;Node15</title>
<g id="a_edge17_Node000009_Node000015"><a xlink:title=" ">
<path fill="none" stroke="#63b8ff" d="M669.98,-166.89C690.08,-151.26 732.37,-120.36 773,-103.5 779.16,-100.94 785.72,-98.7 792.36,-96.75"/>
<polygon fill="#63b8ff" stroke="#63b8ff" points="793.38,-100.09 802.1,-94.08 791.53,-93.34 793.38,-100.09"/>
</a>
</g>
</g>
<!-- Node11 -->
<g id="Node000011" class="node">
<title>Node11</title>
<g id="a_Node000011"><a xlink:href="classMovementManager.html#a714cd62791855e37c57678b9abd73bc0" target="_top" xlink:title=" ">
<polygon fill="white" stroke="#666666" points="1165,-298 980,-298 980,-279 1165,-279 1165,-298"/>
<text text-anchor="middle" x="1072.5" y="-286" font-family="Helvetica,sans-Serif" font-size="10.00">MovementManager::deleteDefault</text>
</a>
</g>
</g>
<!-- Node10&#45;&gt;Node11 -->
<g id="edge11_Node000010_Node000011" class="edge">
<title>Node10&#45;&gt;Node11</title>
<g id="a_edge11_Node000010_Node000011"><a xlink:title=" ">
<path fill="none" stroke="#63b8ff" d="M944.2,-288.5C952.66,-288.5 961.3,-288.5 969.91,-288.5"/>
<polygon fill="#63b8ff" stroke="#63b8ff" points="969.98,-292 979.98,-288.5 969.98,-285 969.98,-292"/>
</a>
</g>
</g>
<!-- Node11&#45;&gt;Node6 -->
<g id="edge12_Node000011_Node000006" class="edge">
<title>Node11&#45;&gt;Node6</title>
<g id="a_edge12_Node000011_Node000006"><a xlink:title=" ">
<path fill="none" stroke="#63b8ff" d="M1145.78,-298.02C1162,-300.16 1179.34,-302.44 1195.95,-304.63"/>
<polygon fill="#63b8ff" stroke="#63b8ff" points="1195.81,-308.14 1206.19,-305.98 1196.73,-301.2 1195.81,-308.14"/>
</a>
</g>
</g>
<!-- Node11&#45;&gt;Node8 -->
<g id="edge13_Node000011_Node000008" class="edge">
<title>Node11&#45;&gt;Node8</title>
<g id="a_edge13_Node000011_Node000008"><a xlink:title=" ">
<path fill="none" stroke="#63b8ff" d="M1162.22,-278.98C1172.53,-277.87 1183.03,-276.75 1193.29,-275.64"/>
<polygon fill="#63b8ff" stroke="#63b8ff" points="1193.88,-279.1 1203.45,-274.55 1193.13,-272.14 1193.88,-279.1"/>
</a>
</g>
</g>
<!-- Node17 -->
<g id="Node000017" class="node">
<title>Node17</title>
<g id="a_Node000017"><a xlink:href="bn__mp__init_8c.html#af40a43523654299f5178fb2d2d0c2211" target="_top" xlink:title=" ">
<polygon fill="white" stroke="#666666" points="485.5,-56 432.5,-56 432.5,-37 485.5,-37 485.5,-56"/>
<text text-anchor="middle" x="459" y="-44" font-family="Helvetica,sans-Serif" font-size="10.00">mp_init</text>
</a>
</g>
</g>
<!-- Node16&#45;&gt;Node17 -->
<g id="edge22_Node000016_Node000017" class="edge">
<title>Node16&#45;&gt;Node17</title>
<g id="a_edge22_Node000016_Node000017"><a xlink:title=" ">
<path fill="none" stroke="#63b8ff" d="M289.06,-46.5C317.89,-46.5 381.63,-46.5 422.05,-46.5"/>
<polygon fill="#63b8ff" stroke="#63b8ff" points="422.29,-50 432.29,-46.5 422.29,-43 422.29,-50"/>
</a>
</g>
</g>
<!-- Node18 -->
<g id="Node000018" class="node">
<title>Node18</title>
<g id="a_Node000018"><a xlink:href="ltm__desc_8c.html#abc21dd3358332c6bcdd2ec873ab5c5a6" target="_top" xlink:title=" ">
<polygon fill="white" stroke="#666666" points="507,-19 411,-19 411,0 507,0 507,-19"/>
<text text-anchor="middle" x="459" y="-7" font-family="Helvetica,sans-Serif" font-size="10.00">mpi_to_ltc_error</text>
</a>
</g>
</g>
<!-- Node16&#45;&gt;Node18 -->
<g id="edge23_Node000016_Node000018" class="edge">
<title>Node16&#45;&gt;Node18</title>
<g id="a_edge23_Node000016_Node000018"><a xlink:title=" ">
<path fill="none" stroke="#63b8ff" d="M289.06,-43.47C313.17,-38.62 361.67,-28.87 400.55,-21.05"/>
<polygon fill="#63b8ff" stroke="#63b8ff" points="401.6,-24.41 410.72,-19.01 400.22,-17.55 401.6,-24.41"/>
</a>
</g>
</g>
</g>
</svg>

<g id="navigator" transform="translate(0 0)" fill="#404254">
  <rect fill="#f2f5e9" fill-opacity="0.5" stroke="#606060" stroke-width=".5" x="0" y="0" width="60" height="60"/>
  <use id="zoomplus" xlink:href="#zoomPlus" x="17" y="9" onmousedown="handleZoom(evt,'in')"/>
  <use id="zoomminus" xlink:href="#zoomMin" x="42" y="9" onmousedown="handleZoom(evt,'out')"/>
  <use id="reset" xlink:href="#resetDef" x="30" y="36" onmousedown="handleReset()"/>
   <use id="arrowup" xlink:href="#arrowUp" x="0" y="0" onmousedown="handlePan(0,-1)"/>
  <use id="arrowright" xlink:href="#arrowRight" x="0" y="0" onmousedown="handlePan(1,0)"/>
  <use id="arrowdown" xlink:href="#arrowDown" x="0" y="0" onmousedown="handlePan(0,1)"/>
  <use id="arrowleft" xlink:href="#arrowLeft" x="0" y="0" onmousedown="handlePan(-1,0)"/>
</g>
<svg viewBox="0 0 15 15" width="100%" height="30px" preserveAspectRatio="xMaxYMin meet">
 <g id="arrow_out" transform="scale(0.3 0.3)">
  <a xlink:href="classMovementManager_aed639db595d58f7fa12ca124140ebdf5_cgraph_org.svg" target="_base">
   <rect id="button" ry="5" rx="5" y="6" x="6" height="38" width="38"
        fill="#f2f5e9" fill-opacity="0.5" stroke="#606060" stroke-width="1.0"/>
   <path id="arrow"
     d="M 11.500037,31.436501 C 11.940474,20.09759 22.043105,11.32322 32.158766,21.979434 L 37.068811,17.246167 C 37.068811,17.246167 37.088388,32 37.088388,32 L 22.160133,31.978069 C 22.160133,31.978069 26.997745,27.140456 26.997745,27.140456 C 18.528582,18.264221 13.291696,25.230495 11.500037,31.436501 z"
     style="fill:#404040;"/>
  </a>
 </g>
</svg>

<style type='text/css'>
<![CDATA[
[data-mouse-over-selected='false'] { opacity: 0.7; }
[data-mouse-over-selected='true']  { opacity: 1.0; }
]]>
</style>
<script type="application/ecmascript"><![CDATA[
document.addEventListener('DOMContentLoaded', (event) => {
  highlightEdges();
  highlightAdjacentNodes();
});
]]></script>
</svg>
