<?xml version="1.0" encoding="UTF-8" standalone="no"?>
<!DOCTYPE svg PUBLIC "-//W3C//DTD SVG 1.1//EN"
 "http://www.w3.org/Graphics/SVG/1.1/DTD/svg11.dtd">
<!-- Generated by graphviz version 2.43.0 (0)
 -->
<!-- Title: GossipTabardDesigner::onHello Pages: 1 -->
<!--zoomable 230 -->

<svg id="main" version="1.1" xmlns="http://www.w3.org/2000/svg" xmlns:xlink="http://www.w3.org/1999/xlink" xml:space="preserve" onload="init(evt)">
<style type="text/css"><![CDATA[
.node, .edge {opacity: 0.7;}
.node.selected, .edge.selected {opacity: 1;}
.edge:hover path { stroke: red; }
.edge:hover polygon { stroke: red; fill: red; }
]]></style>

<defs>
  <circle id="rim" cx="0" cy="0" r="7"/>
  <circle id="rim2" cx="0" cy="0" r="3.5"/>
  <g id="zoomPlus">
    <use xlink:href="#rim" fill="#404040"><set attributeName="fill" to="#808080" begin="zoomplus.mouseover" end="zoomplus.mouseout"/></use>
    <path d="M-4,0h8M0,-4v8" fill="none" stroke="white" stroke-width="1.5" pointer-events="none"/>
  </g>
  <g id="zoomMin">
    <use xlink:href="#rim" fill="#404040"><set attributeName="fill" to="#808080" begin="zoomminus.mouseover" end="zoomminus.mouseout"/></use>
    <path d="M-4,0h8" fill="none" stroke="white" stroke-width="1.5" pointer-events="none"/>
  </g>
  <g id="arrowUp" transform="translate(30 24)">
    <use xlink:href="#rim"/>
    <path pointer-events="none" fill="none" stroke="white" stroke-width="1.5" d="M0,-3.0v7 M-2.5,-0.5L0,-3.0L2.5,-0.5"/>
  </g>
  <g id="arrowRight" transform="rotate(90) translate(36 -43)">
    <use xlink:href="#rim"/>
    <path pointer-events="none" fill="none" stroke="white" stroke-width="1.5" d="M0,-3.0v7 M-2.5,-0.5L0,-3.0L2.5,-0.5"/>
  </g>
  <g id="arrowDown" transform="rotate(180) translate(-30 -48)">
    <use xlink:href="#rim"/>
    <path pointer-events="none" fill="none" stroke="white" stroke-width="1.5" d="M0,-3.0v7 M-2.5,-0.5L0,-3.0L2.5,-0.5"/>
  </g>
  <g id="arrowLeft" transform="rotate(270) translate(-36 17)">
    <use xlink:href="#rim"/>
    <path pointer-events="none" fill="none" stroke="white" stroke-width="1.5" d="M0,-3.0v7 M-2.5,-0.5L0,-3.0L2.5,-0.5"/>
  </g>
  <g id="resetDef">
    <use xlink:href="#rim2" fill="#404040"><set attributeName="fill" to="#808080" begin="reset.mouseover" end="reset.mouseout"/></use>
  </g>
</defs>
<script type="application/ecmascript">
var viewWidth = 867;
var viewHeight = 230;
var sectionId = 'dynsection-2';
</script>
<script type="application/ecmascript" xlink:href="svg.min.js"/>
<svg id="graph" class="graph">
<g id="viewport">
<title>GossipTabardDesigner::onHello</title>
<!-- Node1 -->
<g id="Node000001" class="node">
<title>Node1</title>
<g id="a_Node000001"><a xlink:title=" ">
<polygon fill="#999999" stroke="#666666" points="125,-153.5 0,-153.5 0,-123.5 125,-123.5 125,-153.5"/>
<text text-anchor="start" x="8" y="-141.5" font-family="Helvetica,sans-Serif" font-size="10.00">GossipTabardDesigner</text>
<text text-anchor="middle" x="62.5" y="-130.5" font-family="Helvetica,sans-Serif" font-size="10.00">::onHello</text>
</a>
</g>
</g>
<!-- Node2 -->
<g id="Node000002" class="node">
<title>Node2</title>
<g id="a_Node000002"><a xlink:href="classGossipMenu.html#aa077d476808c86279ffae37f83624bf9" target="_top" xlink:title=" ">
<polygon fill="white" stroke="#666666" points="307.5,-204 184.5,-204 184.5,-185 307.5,-185 307.5,-204"/>
<text text-anchor="middle" x="246" y="-192" font-family="Helvetica,sans-Serif" font-size="10.00">GossipMenu::addItem</text>
</a>
</g>
</g>
<!-- Node1&#45;&gt;Node2 -->
<g id="edge1_Node000001_Node000002" class="edge">
<title>Node1&#45;&gt;Node2</title>
<g id="a_edge1_Node000001_Node000002"><a xlink:title=" ">
<path fill="none" stroke="#63b8ff" d="M98.23,-153.6C116.63,-161.2 139.77,-170.13 161,-176.5 168.43,-178.73 176.31,-180.8 184.16,-182.67"/>
<polygon fill="#63b8ff" stroke="#63b8ff" points="183.5,-186.11 194.03,-184.95 185.07,-179.29 183.5,-186.11"/>
</a>
</g>
</g>
<!-- Node3 -->
<g id="Node000003" class="node">
<title>Node3</title>
<g id="a_Node000003"><a xlink:href="classPlayer.html#a9708bd2cc0a4f296c0ac6043c9f03815" target="_top" xlink:title=" ">
<polygon fill="white" stroke="#666666" points="296,-167 196,-167 196,-148 296,-148 296,-167"/>
<text text-anchor="middle" x="246" y="-155" font-family="Helvetica,sans-Serif" font-size="10.00">Player::canBuyAt</text>
</a>
</g>
</g>
<!-- Node1&#45;&gt;Node3 -->
<g id="edge2_Node000001_Node000003" class="edge">
<title>Node1&#45;&gt;Node3</title>
<g id="a_edge2_Node000001_Node000003"><a xlink:title=" ">
<path fill="none" stroke="#63b8ff" d="M125.2,-144.96C144.71,-147 166.23,-149.25 185.58,-151.28"/>
<polygon fill="#63b8ff" stroke="#63b8ff" points="185.47,-154.79 195.78,-152.35 186.2,-147.83 185.47,-154.79"/>
</a>
</g>
</g>
<!-- Node7 -->
<g id="Node000007" class="node">
<title>Node7</title>
<g id="a_Node000007"><a xlink:href="classPlayer.html#aee195158e07a0138b257f8d1ede0cc6b" target="_top" xlink:title=" ">
<polygon fill="white" stroke="#666666" points="493.5,-111 386.5,-111 386.5,-92 493.5,-92 493.5,-111"/>
<text text-anchor="middle" x="440" y="-99" font-family="Helvetica,sans-Serif" font-size="10.00">Player::getSession</text>
</a>
</g>
</g>
<!-- Node1&#45;&gt;Node7 -->
<g id="edge6_Node000001_Node000007" class="edge">
<title>Node1&#45;&gt;Node7</title>
<g id="a_edge6_Node000001_Node000007"><a xlink:title=" ">
<path fill="none" stroke="#63b8ff" d="M125.09,-132.43C194.49,-125.59 306.72,-114.53 376.5,-107.66"/>
<polygon fill="#63b8ff" stroke="#63b8ff" points="376.87,-111.14 386.48,-106.68 376.18,-104.17 376.87,-111.14"/>
</a>
</g>
</g>
<!-- Node8 -->
<g id="Node000008" class="node">
<title>Node8</title>
<g id="a_Node000008"><a xlink:href="classGossipMenu.html#a64f5b9a9b5b9947de95b8e7fa22b1f59" target="_top" xlink:title=" ">
<polygon fill="white" stroke="#666666" points="331,-91 161,-91 161,-72 331,-72 331,-91"/>
<text text-anchor="middle" x="246" y="-79" font-family="Helvetica,sans-Serif" font-size="10.00">GossipMenu::sendGossipPacket</text>
</a>
</g>
</g>
<!-- Node1&#45;&gt;Node8 -->
<g id="edge7_Node000001_Node000008" class="edge">
<title>Node1&#45;&gt;Node8</title>
<g id="a_edge7_Node000001_Node000008"><a xlink:title=" ">
<path fill="none" stroke="#63b8ff" d="M106.55,-123.43C123.47,-117.64 143.09,-111.09 161,-105.5 173.68,-101.54 187.52,-97.49 200.24,-93.86"/>
<polygon fill="#63b8ff" stroke="#63b8ff" points="201.48,-97.14 210.15,-91.05 199.57,-90.41 201.48,-97.14"/>
</a>
</g>
</g>
<!-- Node4 -->
<g id="Node000004" class="node">
<title>Node4</title>
<g id="a_Node000004"><a xlink:href="classUnit.html#ac8fda184f48446e05d797069a1bc3b6d" target="_top" xlink:title=" ">
<polygon fill="white" stroke="#666666" points="495.5,-222 384.5,-222 384.5,-203 495.5,-203 495.5,-222"/>
<text text-anchor="middle" x="440" y="-210" font-family="Helvetica,sans-Serif" font-size="10.00">Unit::getClassMask</text>
</a>
</g>
</g>
<!-- Node3&#45;&gt;Node4 -->
<g id="edge3_Node000003_Node000004" class="edge">
<title>Node3&#45;&gt;Node4</title>
<g id="a_edge3_Node000003_Node000004"><a xlink:title=" ">
<path fill="none" stroke="#63b8ff" d="M296.43,-166.59C307.93,-169.28 320.02,-172.58 331,-176.5 347.85,-182.52 350.22,-188.29 367,-194.5 372.57,-196.56 378.48,-198.47 384.41,-200.2"/>
<polygon fill="#63b8ff" stroke="#63b8ff" points="383.8,-203.66 394.37,-202.96 385.66,-196.92 383.8,-203.66"/>
</a>
</g>
</g>
<!-- Node5 -->
<g id="Node000005" class="node">
<title>Node5</title>
<g id="a_Node000005"><a xlink:href="classPlayer.html#aba80d5a643723fb5982b12670823c2de" target="_top" xlink:title=" ">
<polygon fill="white" stroke="#666666" points="513,-185 367,-185 367,-166 513,-166 513,-185"/>
<text text-anchor="middle" x="440" y="-173" font-family="Helvetica,sans-Serif" font-size="10.00">Player::getFactionStanding</text>
</a>
</g>
</g>
<!-- Node3&#45;&gt;Node5 -->
<g id="edge4_Node000003_Node000005" class="edge">
<title>Node3&#45;&gt;Node5</title>
<g id="a_edge4_Node000003_Node000005"><a xlink:title=" ">
<path fill="none" stroke="#63b8ff" d="M296.44,-162.14C314.87,-163.86 336.32,-165.87 356.9,-167.8"/>
<polygon fill="#63b8ff" stroke="#63b8ff" points="356.63,-171.29 366.92,-168.74 357.29,-164.32 356.63,-171.29"/>
</a>
</g>
</g>
<!-- Node6 -->
<g id="Node000006" class="node">
<title>Node6</title>
<g id="a_Node000006"><a xlink:href="classUnit.html#af0dd611d4c74308572364a5b5f85762b" target="_top" xlink:title=" ">
<polygon fill="white" stroke="#666666" points="494.5,-148 385.5,-148 385.5,-129 494.5,-129 494.5,-148"/>
<text text-anchor="middle" x="440" y="-136" font-family="Helvetica,sans-Serif" font-size="10.00">Unit::getRaceMask</text>
</a>
</g>
</g>
<!-- Node3&#45;&gt;Node6 -->
<g id="edge5_Node000003_Node000006" class="edge">
<title>Node3&#45;&gt;Node6</title>
<g id="a_edge5_Node000003_Node000006"><a xlink:title=" ">
<path fill="none" stroke="#63b8ff" d="M296.44,-152.61C320.48,-150.23 349.64,-147.34 375.32,-144.8"/>
<polygon fill="#63b8ff" stroke="#63b8ff" points="375.73,-148.28 385.34,-143.81 375.04,-141.31 375.73,-148.28"/>
</a>
</g>
</g>
<!-- Node8&#45;&gt;Node7 -->
<g id="edge8_Node000008_Node000007" class="edge">
<title>Node8&#45;&gt;Node7</title>
<g id="a_edge8_Node000008_Node000007"><a xlink:title=" ">
<path fill="none" stroke="#63b8ff" d="M331.21,-90.27C346.29,-91.84 361.77,-93.46 376.12,-94.95"/>
<polygon fill="#63b8ff" stroke="#63b8ff" points="376.04,-98.46 386.35,-96.02 376.76,-91.5 376.04,-98.46"/>
</a>
</g>
</g>
<!-- Node9 -->
<g id="Node000009" class="node">
<title>Node9</title>
<g id="a_Node000009"><a xlink:href="classWorldSession.html#a87a1bd80483f57f33a127d12c51d2331" target="_top" xlink:title=" ">
<polygon fill="white" stroke="#666666" points="511.5,-74 368.5,-74 368.5,-55 511.5,-55 511.5,-74"/>
<text text-anchor="middle" x="440" y="-62" font-family="Helvetica,sans-Serif" font-size="10.00">WorldSession::SendPacket</text>
</a>
</g>
</g>
<!-- Node8&#45;&gt;Node9 -->
<g id="edge9_Node000008_Node000009" class="edge">
<title>Node8&#45;&gt;Node9</title>
<g id="a_edge9_Node000008_Node000009"><a xlink:title=" ">
<path fill="none" stroke="#63b8ff" d="M331.21,-74.04C340.22,-73.25 349.36,-72.44 358.33,-71.64"/>
<polygon fill="#63b8ff" stroke="#63b8ff" points="358.7,-75.12 368.35,-70.76 358.08,-68.15 358.7,-75.12"/>
</a>
</g>
</g>
<!-- Node10 -->
<g id="Node000010" class="node">
<title>Node10</title>
<g id="a_Node000010"><a xlink:href="classWorldPacket.html#a3f359b4afd93497038c4f17e1ebd4380" target="_top" xlink:title=" ">
<polygon fill="white" stroke="#666666" points="859,-102 723,-102 723,-83 859,-83 859,-102"/>
<text text-anchor="middle" x="791" y="-90" font-family="Helvetica,sans-Serif" font-size="10.00">WorldPacket::GetOpcode</text>
</a>
</g>
</g>
<!-- Node9&#45;&gt;Node10 -->
<g id="edge10_Node000009_Node000010" class="edge">
<title>Node9&#45;&gt;Node10</title>
<g id="a_edge10_Node000009_Node000010"><a xlink:title=" ">
<path fill="none" stroke="#63b8ff" d="M487.05,-74.03C506.14,-77.61 528.55,-81.33 549,-83.5 603.5,-89.28 665.27,-91.51 712.63,-92.3"/>
<polygon fill="#63b8ff" stroke="#63b8ff" points="712.77,-95.8 722.82,-92.45 712.87,-88.8 712.77,-95.8"/>
</a>
</g>
</g>
<!-- Node11 -->
<g id="Node000011" class="node">
<title>Node11</title>
<g id="a_Node000011"><a xlink:href="classSocket.html#ae3bcf72d932e7b29656d368e81186e6a" target="_top" xlink:title=" ">
<polygon fill="white" stroke="#666666" points="675.5,-74 560.5,-74 560.5,-55 675.5,-55 675.5,-74"/>
<text text-anchor="middle" x="618" y="-62" font-family="Helvetica,sans-Serif" font-size="10.00">Socket::IsConnected</text>
</a>
</g>
</g>
<!-- Node9&#45;&gt;Node11 -->
<g id="edge11_Node000009_Node000011" class="edge">
<title>Node9&#45;&gt;Node11</title>
<g id="a_edge11_Node000009_Node000011"><a xlink:title=" ">
<path fill="none" stroke="#63b8ff" d="M511.57,-64.5C524.4,-64.5 537.74,-64.5 550.45,-64.5"/>
<polygon fill="#63b8ff" stroke="#63b8ff" points="550.48,-68 560.48,-64.5 550.48,-61 550.48,-68"/>
</a>
</g>
</g>
<!-- Node12 -->
<g id="Node000012" class="node">
<title>Node12</title>
<g id="a_Node000012"><a xlink:href="classWorldSocket.html#ab2fb0afb0aaf5d2229fea66a9923637e" target="_top" xlink:title=" ">
<polygon fill="white" stroke="#666666" points="687,-37 549,-37 549,-18 687,-18 687,-37"/>
<text text-anchor="middle" x="618" y="-25" font-family="Helvetica,sans-Serif" font-size="10.00">WorldSocket::SendPacket</text>
</a>
</g>
</g>
<!-- Node9&#45;&gt;Node12 -->
<g id="edge12_Node000009_Node000012" class="edge">
<title>Node9&#45;&gt;Node12</title>
<g id="a_edge12_Node000009_Node000012"><a xlink:title=" ">
<path fill="none" stroke="#63b8ff" d="M486.32,-54.97C509.33,-50.14 537.47,-44.22 561.74,-39.12"/>
<polygon fill="#63b8ff" stroke="#63b8ff" points="562.46,-42.54 571.52,-37.06 561.02,-35.69 562.46,-42.54"/>
</a>
</g>
</g>
<!-- Node12&#45;&gt;Node10 -->
<g id="edge14_Node000012_Node000010" class="edge">
<title>Node12&#45;&gt;Node10</title>
<g id="a_edge14_Node000012_Node000010"><a xlink:title=" ">
<path fill="none" stroke="#63b8ff" d="M661.19,-37.07C669.85,-39.48 678.81,-42.3 687,-45.5 703.85,-52.08 706.64,-56.78 723,-64.5 733.65,-69.52 745.45,-74.61 756.14,-79.04"/>
<polygon fill="#63b8ff" stroke="#63b8ff" points="755,-82.36 765.58,-82.91 757.65,-75.88 755,-82.36"/>
</a>
</g>
</g>
<!-- Node13 -->
<g id="Node000013" class="node">
<title>Node13</title>
<g id="a_Node000013"><a xlink:href="classByteBuffer.html#a8d712af2767c7ca45de60bd9d85738d8" target="_top" xlink:title=" ">
<polygon fill="white" stroke="#666666" points="849,-56 733,-56 733,-37 849,-37 849,-56"/>
<text text-anchor="middle" x="791" y="-44" font-family="Helvetica,sans-Serif" font-size="10.00">ByteBuffer::contents</text>
</a>
</g>
</g>
<!-- Node12&#45;&gt;Node13 -->
<g id="edge13_Node000012_Node000013" class="edge">
<title>Node12&#45;&gt;Node13</title>
<g id="a_edge13_Node000012_Node000013"><a xlink:title=" ">
<path fill="none" stroke="#63b8ff" d="M687.08,-35.06C698.82,-36.37 711.02,-37.72 722.74,-39.03"/>
<polygon fill="#63b8ff" stroke="#63b8ff" points="722.56,-42.53 732.89,-40.15 723.34,-35.57 722.56,-42.53"/>
</a>
</g>
</g>
<!-- Node14 -->
<g id="Node000014" class="node">
<title>Node14</title>
<g id="a_Node000014"><a xlink:href="classByteBuffer.html#ac06a598447807d32f6594a97a32bce94" target="_top" xlink:title=" ">
<polygon fill="white" stroke="#666666" points="838,-19 744,-19 744,0 838,0 838,-19"/>
<text text-anchor="middle" x="791" y="-7" font-family="Helvetica,sans-Serif" font-size="10.00">ByteBuffer::size</text>
</a>
</g>
</g>
<!-- Node12&#45;&gt;Node14 -->
<g id="edge15_Node000012_Node000014" class="edge">
<title>Node12&#45;&gt;Node14</title>
<g id="a_edge15_Node000012_Node000014"><a xlink:title=" ">
<path fill="none" stroke="#63b8ff" d="M687.08,-20.33C702.59,-18.7 718.9,-16.98 733.85,-15.41"/>
<polygon fill="#63b8ff" stroke="#63b8ff" points="734.38,-18.87 743.96,-14.35 733.64,-11.91 734.38,-18.87"/>
</a>
</g>
</g>
</g>
</svg>

<g id="navigator" transform="translate(0 0)" fill="#404254">
  <rect fill="#f2f5e9" fill-opacity="0.5" stroke="#606060" stroke-width=".5" x="0" y="0" width="60" height="60"/>
  <use id="zoomplus" xlink:href="#zoomPlus" x="17" y="9" onmousedown="handleZoom(evt,'in')"/>
  <use id="zoomminus" xlink:href="#zoomMin" x="42" y="9" onmousedown="handleZoom(evt,'out')"/>
  <use id="reset" xlink:href="#resetDef" x="30" y="36" onmousedown="handleReset()"/>
   <use id="arrowup" xlink:href="#arrowUp" x="0" y="0" onmousedown="handlePan(0,-1)"/>
  <use id="arrowright" xlink:href="#arrowRight" x="0" y="0" onmousedown="handlePan(1,0)"/>
  <use id="arrowdown" xlink:href="#arrowDown" x="0" y="0" onmousedown="handlePan(0,1)"/>
  <use id="arrowleft" xlink:href="#arrowLeft" x="0" y="0" onmousedown="handlePan(-1,0)"/>
</g>
<svg viewBox="0 0 15 15" width="100%" height="30px" preserveAspectRatio="xMaxYMin meet">
 <g id="arrow_out" transform="scale(0.3 0.3)">
  <a xlink:href="classGossipTabardDesigner_a16e578aa9570760786e35eab9342531e_cgraph_org.svg" target="_base">
   <rect id="button" ry="5" rx="5" y="6" x="6" height="38" width="38"
        fill="#f2f5e9" fill-opacity="0.5" stroke="#606060" stroke-width="1.0"/>
   <path id="arrow"
     d="M 11.500037,31.436501 C 11.940474,20.09759 22.043105,11.32322 32.158766,21.979434 L 37.068811,17.246167 C 37.068811,17.246167 37.088388,32 37.088388,32 L 22.160133,31.978069 C 22.160133,31.978069 26.997745,27.140456 26.997745,27.140456 C 18.528582,18.264221 13.291696,25.230495 11.500037,31.436501 z"
     style="fill:#404040;"/>
  </a>
 </g>
</svg>

<style type='text/css'>
<![CDATA[
[data-mouse-over-selected='false'] { opacity: 0.7; }
[data-mouse-over-selected='true']  { opacity: 1.0; }
]]>
</style>
<script type="application/ecmascript"><![CDATA[
document.addEventListener('DOMContentLoaded', (event) => {
  highlightEdges();
  highlightAdjacentNodes();
});
]]></script>
</svg>
