<?xml version="1.0" encoding="UTF-8" standalone="no"?>
<!DOCTYPE svg PUBLIC "-//W3C//DTD SVG 1.1//EN"
 "http://www.w3.org/Graphics/SVG/1.1/DTD/svg11.dtd">
<!-- Generated by graphviz version 2.43.0 (0)
 -->
<!-- Title: G3D::Rect2D::Rect2D Pages: 1 -->
<!--zoomable 138 -->

<svg id="main" version="1.1" xmlns="http://www.w3.org/2000/svg" xmlns:xlink="http://www.w3.org/1999/xlink" xml:space="preserve" onload="init(evt)">
<style type="text/css"><![CDATA[
.node, .edge {opacity: 0.7;}
.node.selected, .edge.selected {opacity: 1;}
.edge:hover path { stroke: red; }
.edge:hover polygon { stroke: red; fill: red; }
]]></style>

<defs>
  <circle id="rim" cx="0" cy="0" r="7"/>
  <circle id="rim2" cx="0" cy="0" r="3.5"/>
  <g id="zoomPlus">
    <use xlink:href="#rim" fill="#404040"><set attributeName="fill" to="#808080" begin="zoomplus.mouseover" end="zoomplus.mouseout"/></use>
    <path d="M-4,0h8M0,-4v8" fill="none" stroke="white" stroke-width="1.5" pointer-events="none"/>
  </g>
  <g id="zoomMin">
    <use xlink:href="#rim" fill="#404040"><set attributeName="fill" to="#808080" begin="zoomminus.mouseover" end="zoomminus.mouseout"/></use>
    <path d="M-4,0h8" fill="none" stroke="white" stroke-width="1.5" pointer-events="none"/>
  </g>
  <g id="arrowUp" transform="translate(30 24)">
    <use xlink:href="#rim"/>
    <path pointer-events="none" fill="none" stroke="white" stroke-width="1.5" d="M0,-3.0v7 M-2.5,-0.5L0,-3.0L2.5,-0.5"/>
  </g>
  <g id="arrowRight" transform="rotate(90) translate(36 -43)">
    <use xlink:href="#rim"/>
    <path pointer-events="none" fill="none" stroke="white" stroke-width="1.5" d="M0,-3.0v7 M-2.5,-0.5L0,-3.0L2.5,-0.5"/>
  </g>
  <g id="arrowDown" transform="rotate(180) translate(-30 -48)">
    <use xlink:href="#rim"/>
    <path pointer-events="none" fill="none" stroke="white" stroke-width="1.5" d="M0,-3.0v7 M-2.5,-0.5L0,-3.0L2.5,-0.5"/>
  </g>
  <g id="arrowLeft" transform="rotate(270) translate(-36 17)">
    <use xlink:href="#rim"/>
    <path pointer-events="none" fill="none" stroke="white" stroke-width="1.5" d="M0,-3.0v7 M-2.5,-0.5L0,-3.0L2.5,-0.5"/>
  </g>
  <g id="resetDef">
    <use xlink:href="#rim2" fill="#404040"><set attributeName="fill" to="#808080" begin="reset.mouseover" end="reset.mouseout"/></use>
  </g>
</defs>
<script type="application/ecmascript">
var viewWidth = 709;
var viewHeight = 138;
var sectionId = 'dynsection-2';
</script>
<script type="application/ecmascript" xlink:href="svg.min.js"/>
<svg id="graph" class="graph">
<g id="viewport">
<title>G3D::Rect2D::Rect2D</title>
<!-- Node1 -->
<g id="Node000001" class="node">
<title>Node1</title>
<g id="a_Node000001"><a xlink:title=" ">
<polygon fill="#999999" stroke="#666666" points="120,-93 0,-93 0,-74 120,-74 120,-93"/>
<text text-anchor="middle" x="60" y="-81" font-family="Helvetica,sans-Serif" font-size="10.00">G3D::Rect2D::Rect2D</text>
</a>
</g>
</g>
<!-- Node2 -->
<g id="Node000002" class="node">
<title>Node2</title>
<g id="a_Node000002"><a xlink:href="classG3D_1_1Rect2D.html#a6c9c7a18e67515e8d719a824f2169da1" target="_top" xlink:title=" ">
<polygon fill="white" stroke="#666666" points="272,-93 156,-93 156,-74 272,-74 272,-93"/>
<text text-anchor="middle" x="214" y="-81" font-family="Helvetica,sans-Serif" font-size="10.00">G3D::Rect2D::merge</text>
</a>
</g>
</g>
<!-- Node1&#45;&gt;Node2 -->
<g id="edge1_Node000001_Node000002" class="edge">
<title>Node1&#45;&gt;Node2</title>
<g id="a_edge1_Node000001_Node000002"><a xlink:title=" ">
<path fill="none" stroke="#63b8ff" d="M120.2,-83.5C128.5,-83.5 137.08,-83.5 145.51,-83.5"/>
<polygon fill="#63b8ff" stroke="#63b8ff" points="145.7,-87 155.7,-83.5 145.7,-80 145.7,-87"/>
</a>
</g>
</g>
<!-- Node3 -->
<g id="Node000003" class="node">
<title>Node3</title>
<g id="a_Node000003"><a xlink:href="classG3D_1_1Rect2D.html#ac4e1f2fa48b25e14e7d316824626a217" target="_top" xlink:title=" ">
<polygon fill="white" stroke="#666666" points="433,-130 308,-130 308,-111 433,-111 433,-130"/>
<text text-anchor="middle" x="370.5" y="-118" font-family="Helvetica,sans-Serif" font-size="10.00">G3D::Rect2D::isEmpty</text>
</a>
</g>
</g>
<!-- Node2&#45;&gt;Node3 -->
<g id="edge2_Node000002_Node000003" class="edge">
<title>Node2&#45;&gt;Node3</title>
<g id="a_edge2_Node000002_Node000003"><a xlink:title=" ">
<path fill="none" stroke="#63b8ff" d="M254.79,-93.03C274.62,-97.78 298.81,-103.57 319.85,-108.61"/>
<polygon fill="#63b8ff" stroke="#63b8ff" points="319.04,-112.01 329.58,-110.94 320.67,-105.21 319.04,-112.01"/>
</a>
</g>
</g>
<!-- Node6 -->
<g id="Node000006" class="node">
<title>Node6</title>
<g id="a_Node000006"><a xlink:href="classG3D_1_1Vector2.html#a5e9e58e6fd8cd64a455f572de366d6ad" target="_top" xlink:title=" ">
<polygon fill="white" stroke="#666666" points="424.5,-93 316.5,-93 316.5,-74 424.5,-74 424.5,-93"/>
<text text-anchor="middle" x="370.5" y="-81" font-family="Helvetica,sans-Serif" font-size="10.00">G3D::Vector2::max</text>
</a>
</g>
</g>
<!-- Node2&#45;&gt;Node6 -->
<g id="edge5_Node000002_Node000006" class="edge">
<title>Node2&#45;&gt;Node6</title>
<g id="a_edge5_Node000002_Node000006"><a xlink:title=" ">
<path fill="none" stroke="#63b8ff" d="M272.09,-83.5C283.21,-83.5 294.94,-83.5 306.24,-83.5"/>
<polygon fill="#63b8ff" stroke="#63b8ff" points="306.48,-87 316.48,-83.5 306.48,-80 306.48,-87"/>
</a>
</g>
</g>
<!-- Node9 -->
<g id="Node000009" class="node">
<title>Node9</title>
<g id="a_Node000009"><a xlink:href="classG3D_1_1Vector2.html#ae083e0f825f204c5fbefc58baf98d9de" target="_top" xlink:title=" ">
<polygon fill="white" stroke="#666666" points="423,-56 318,-56 318,-37 423,-37 423,-56"/>
<text text-anchor="middle" x="370.5" y="-44" font-family="Helvetica,sans-Serif" font-size="10.00">G3D::Vector2::min</text>
</a>
</g>
</g>
<!-- Node2&#45;&gt;Node9 -->
<g id="edge8_Node000002_Node000009" class="edge">
<title>Node2&#45;&gt;Node9</title>
<g id="a_edge8_Node000002_Node000009"><a xlink:title=" ">
<path fill="none" stroke="#63b8ff" d="M254.79,-73.97C274.62,-69.22 298.81,-63.43 319.85,-58.39"/>
<polygon fill="#63b8ff" stroke="#63b8ff" points="320.67,-61.79 329.58,-56.06 319.04,-54.99 320.67,-61.79"/>
</a>
</g>
</g>
<!-- Node4 -->
<g id="Node000004" class="node">
<title>Node4</title>
<g id="a_Node000004"><a xlink:href="classG3D_1_1Vector2.html#a601c7806ae53f86dc9030d72c8742ab0" target="_top" xlink:title=" ">
<polygon fill="white" stroke="#666666" points="588.5,-130 472.5,-130 472.5,-111 588.5,-111 588.5,-130"/>
<text text-anchor="middle" x="530.5" y="-118" font-family="Helvetica,sans-Serif" font-size="10.00">G3D::Vector2::isNaN</text>
</a>
</g>
</g>
<!-- Node3&#45;&gt;Node4 -->
<g id="edge3_Node000003_Node000004" class="edge">
<title>Node3&#45;&gt;Node4</title>
<g id="a_edge3_Node000003_Node000004"><a xlink:title=" ">
<path fill="none" stroke="#63b8ff" d="M433.04,-120.5C442.52,-120.5 452.35,-120.5 461.96,-120.5"/>
<polygon fill="#63b8ff" stroke="#63b8ff" points="462.26,-124 472.26,-120.5 462.26,-117 462.26,-124"/>
</a>
</g>
</g>
<!-- Node5 -->
<g id="Node000005" class="node">
<title>Node5</title>
<g id="a_Node000005"><a xlink:href="namespaceG3D.html#a8843e9ad0a3e34440585a11c43ceacd7" target="_top" xlink:title=" ">
<polygon fill="white" stroke="#666666" points="701,-130 628,-130 628,-111 701,-111 701,-130"/>
<text text-anchor="middle" x="664.5" y="-118" font-family="Helvetica,sans-Serif" font-size="10.00">G3D::isNaN</text>
</a>
</g>
</g>
<!-- Node4&#45;&gt;Node5 -->
<g id="edge4_Node000004_Node000005" class="edge">
<title>Node4&#45;&gt;Node5</title>
<g id="a_edge4_Node000004_Node000005"><a xlink:title=" ">
<path fill="none" stroke="#63b8ff" d="M588.63,-120.5C598.35,-120.5 608.33,-120.5 617.71,-120.5"/>
<polygon fill="#63b8ff" stroke="#63b8ff" points="618,-124 628,-120.5 618,-117 618,-124"/>
</a>
</g>
</g>
<!-- Node7 -->
<g id="Node000007" class="node">
<title>Node7</title>
<g id="a_Node000007"><a xlink:href="namespaceG3D.html#a08c0c3adc7299e964bea91de6cf24b8e" target="_top" xlink:title=" ">
<polygon fill="white" stroke="#666666" points="563,-93 498,-93 498,-74 563,-74 563,-93"/>
<text text-anchor="middle" x="530.5" y="-81" font-family="Helvetica,sans-Serif" font-size="10.00">G3D::max</text>
</a>
</g>
</g>
<!-- Node6&#45;&gt;Node7 -->
<g id="edge6_Node000006_Node000007" class="edge">
<title>Node6&#45;&gt;Node7</title>
<g id="a_edge6_Node000006_Node000007"><a xlink:title=" ">
<path fill="none" stroke="#63b8ff" d="M424.55,-83.5C445.07,-83.5 468.21,-83.5 487.54,-83.5"/>
<polygon fill="#63b8ff" stroke="#63b8ff" points="487.55,-87 497.55,-83.5 487.55,-80 487.55,-87"/>
</a>
</g>
</g>
<!-- Node8 -->
<g id="Node000008" class="node">
<title>Node8</title>
<g id="a_Node000008"><a xlink:href="classG3D_1_1Vector2.html#a298fba723e2a33fbba106e840f71ffad" target="_top" xlink:title=" ">
<polygon fill="white" stroke="#666666" points="592,-56 469,-56 469,-37 592,-37 592,-56"/>
<text text-anchor="middle" x="530.5" y="-44" font-family="Helvetica,sans-Serif" font-size="10.00">G3D::Vector2::Vector2</text>
</a>
</g>
</g>
<!-- Node6&#45;&gt;Node8 -->
<g id="edge7_Node000006_Node000008" class="edge">
<title>Node6&#45;&gt;Node8</title>
<g id="a_edge7_Node000006_Node000008"><a xlink:title=" ">
<path fill="none" stroke="#63b8ff" d="M412.19,-73.97C432.47,-69.22 457.21,-63.43 478.72,-58.39"/>
<polygon fill="#63b8ff" stroke="#63b8ff" points="479.74,-61.75 488.67,-56.06 478.14,-54.93 479.74,-61.75"/>
</a>
</g>
</g>
<!-- Node9&#45;&gt;Node8 -->
<g id="edge10_Node000009_Node000008" class="edge">
<title>Node9&#45;&gt;Node8</title>
<g id="a_edge10_Node000009_Node000008"><a xlink:title=" ">
<path fill="none" stroke="#63b8ff" d="M423.24,-46.5C434.51,-46.5 446.63,-46.5 458.51,-46.5"/>
<polygon fill="#63b8ff" stroke="#63b8ff" points="458.86,-50 468.86,-46.5 458.86,-43 458.86,-50"/>
</a>
</g>
</g>
<!-- Node10 -->
<g id="Node000010" class="node">
<title>Node10</title>
<g id="a_Node000010"><a xlink:href="namespaceG3D.html#ac963e578ad7f1b9c9ad9fbc82b0f034c" target="_top" xlink:title=" ">
<polygon fill="white" stroke="#666666" points="561.5,-19 499.5,-19 499.5,0 561.5,0 561.5,-19"/>
<text text-anchor="middle" x="530.5" y="-7" font-family="Helvetica,sans-Serif" font-size="10.00">G3D::min</text>
</a>
</g>
</g>
<!-- Node9&#45;&gt;Node10 -->
<g id="edge9_Node000009_Node000010" class="edge">
<title>Node9&#45;&gt;Node10</title>
<g id="a_edge9_Node000009_Node000010"><a xlink:title=" ">
<path fill="none" stroke="#63b8ff" d="M412.19,-36.97C435.92,-31.41 465.75,-24.43 489.38,-18.89"/>
<polygon fill="#63b8ff" stroke="#63b8ff" points="490.49,-22.23 499.43,-16.54 488.9,-15.41 490.49,-22.23"/>
</a>
</g>
</g>
</g>
</svg>

<g id="navigator" transform="translate(0 0)" fill="#404254">
  <rect fill="#f2f5e9" fill-opacity="0.5" stroke="#606060" stroke-width=".5" x="0" y="0" width="60" height="60"/>
  <use id="zoomplus" xlink:href="#zoomPlus" x="17" y="9" onmousedown="handleZoom(evt,'in')"/>
  <use id="zoomminus" xlink:href="#zoomMin" x="42" y="9" onmousedown="handleZoom(evt,'out')"/>
  <use id="reset" xlink:href="#resetDef" x="30" y="36" onmousedown="handleReset()"/>
   <use id="arrowup" xlink:href="#arrowUp" x="0" y="0" onmousedown="handlePan(0,-1)"/>
  <use id="arrowright" xlink:href="#arrowRight" x="0" y="0" onmousedown="handlePan(1,0)"/>
  <use id="arrowdown" xlink:href="#arrowDown" x="0" y="0" onmousedown="handlePan(0,1)"/>
  <use id="arrowleft" xlink:href="#arrowLeft" x="0" y="0" onmousedown="handlePan(-1,0)"/>
</g>
<svg viewBox="0 0 15 15" width="100%" height="30px" preserveAspectRatio="xMaxYMin meet">
 <g id="arrow_out" transform="scale(0.3 0.3)">
  <a xlink:href="classG3D_1_1Rect2D_a9cabf37116475d83d97c6951e1ef874c_cgraph_org.svg" target="_base">
   <rect id="button" ry="5" rx="5" y="6" x="6" height="38" width="38"
        fill="#f2f5e9" fill-opacity="0.5" stroke="#606060" stroke-width="1.0"/>
   <path id="arrow"
     d="M 11.500037,31.436501 C 11.940474,20.09759 22.043105,11.32322 32.158766,21.979434 L 37.068811,17.246167 C 37.068811,17.246167 37.088388,32 37.088388,32 L 22.160133,31.978069 C 22.160133,31.978069 26.997745,27.140456 26.997745,27.140456 C 18.528582,18.264221 13.291696,25.230495 11.500037,31.436501 z"
     style="fill:#404040;"/>
  </a>
 </g>
</svg>

<style type='text/css'>
<![CDATA[
[data-mouse-over-selected='false'] { opacity: 0.7; }
[data-mouse-over-selected='true']  { opacity: 1.0; }
]]>
</style>
<script type="application/ecmascript"><![CDATA[
document.addEventListener('DOMContentLoaded', (event) => {
  highlightEdges();
  highlightAdjacentNodes();
});
]]></script>
</svg>
