<?xml version="1.0" encoding="UTF-8" standalone="no"?>
<!DOCTYPE svg PUBLIC "-//W3C//DTD SVG 1.1//EN"
 "http://www.w3.org/Graphics/SVG/1.1/DTD/svg11.dtd">
<!-- Generated by graphviz version 2.43.0 (0)
 -->
<!-- Title: LuaUnit::GetPowerPct Pages: 1 -->
<svg width="807pt" height="270pt"
 viewBox="0.00 0.00 807.00 269.57" xmlns="http://www.w3.org/2000/svg" xmlns:xlink="http://www.w3.org/1999/xlink">
<g id="graph0" class="graph" transform="scale(1 1) rotate(0) translate(4 265.57)">
<title>LuaUnit::GetPowerPct</title>
<!-- Node1 -->
<g id="Node000001" class="node">
<title>Node1</title>
<g id="a_Node000001"><a xlink:title=" ">
<polygon fill="#999999" stroke="#666666" points="122,-75 0,-75 0,-56 122,-56 122,-75"/>
<text text-anchor="middle" x="61" y="-63" font-family="Helvetica,sans-Serif" font-size="10.00">LuaUnit::GetPowerPct</text>
</a>
</g>
</g>
<!-- Node2 -->
<g id="Node000002" class="node">
<title>Node2</title>
<g id="a_Node000002"><a xlink:href="classUnit.html#a2555d88ef0a98239332409c2ad414dd2" target="_top" xlink:title=" ">
<polygon fill="white" stroke="#666666" points="268.5,-75 158.5,-75 158.5,-56 268.5,-56 268.5,-75"/>
<text text-anchor="middle" x="213.5" y="-63" font-family="Helvetica,sans-Serif" font-size="10.00">Unit::getMaxPower</text>
</a>
</g>
</g>
<!-- Node1&#45;&gt;Node2 -->
<g id="edge1_Node000001_Node000002" class="edge">
<title>Node1&#45;&gt;Node2</title>
<g id="a_edge1_Node000001_Node000002"><a xlink:title=" ">
<path fill="none" stroke="#63b8ff" d="M122.35,-65.5C130.93,-65.5 139.78,-65.5 148.43,-65.5"/>
<polygon fill="#63b8ff" stroke="#63b8ff" points="148.46,-69 158.46,-65.5 148.46,-62 148.46,-69"/>
</a>
</g>
</g>
<!-- Node10 -->
<g id="Node000010" class="node">
<title>Node10</title>
<g id="a_Node000010"><a xlink:href="classUnit.html#ad5205943737a5fa86ce7db053518224e" target="_top" xlink:title=" ">
<polygon fill="white" stroke="#666666" points="258,-169 169,-169 169,-150 258,-150 258,-169"/>
<text text-anchor="middle" x="213.5" y="-157" font-family="Helvetica,sans-Serif" font-size="10.00">Unit::getPower</text>
</a>
</g>
</g>
<!-- Node1&#45;&gt;Node10 -->
<g id="edge11_Node000001_Node000010" class="edge">
<title>Node1&#45;&gt;Node10</title>
<g id="a_edge11_Node000001_Node000010"><a xlink:title=" ">
<path fill="none" stroke="#63b8ff" d="M77.26,-75.03C103.51,-91.43 157.41,-125.09 188.66,-144.61"/>
<polygon fill="#63b8ff" stroke="#63b8ff" points="186.86,-147.62 197.2,-149.94 190.57,-141.68 186.86,-147.62"/>
</a>
</g>
</g>
<!-- Node12 -->
<g id="Node000012" class="node">
<title>Node12</title>
<g id="a_Node000012"><a xlink:href="classUnit.html#a3e39b13b73d057b58ab91baec9feb8bf" target="_top" xlink:title=" ">
<polygon fill="white" stroke="#666666" points="269,-19 158,-19 158,0 269,0 269,-19"/>
<text text-anchor="middle" x="213.5" y="-7" font-family="Helvetica,sans-Serif" font-size="10.00">Unit::getPowerType</text>
</a>
</g>
</g>
<!-- Node1&#45;&gt;Node12 -->
<g id="edge16_Node000001_Node000012" class="edge">
<title>Node1&#45;&gt;Node12</title>
<g id="a_edge16_Node000001_Node000012"><a xlink:title=" ">
<path fill="none" stroke="#63b8ff" d="M87.87,-55.87C112.57,-46.68 149.98,-32.76 177.37,-22.57"/>
<polygon fill="#63b8ff" stroke="#63b8ff" points="178.81,-25.77 186.97,-19 176.37,-19.21 178.81,-25.77"/>
</a>
</g>
</g>
<!-- Node3 -->
<g id="Node000003" class="node">
<title>Node3</title>
<g id="a_Node000003"><a xlink:href="classUnit.html#a9420f408b81b31ea3f1533017f3a0727" target="_top" xlink:title=" ">
<polygon fill="white" stroke="#666666" points="441.5,-75 329.5,-75 329.5,-56 441.5,-56 441.5,-75"/>
<text text-anchor="middle" x="385.5" y="-63" font-family="Helvetica,sans-Serif" font-size="10.00">Unit::getMaxHealth</text>
</a>
</g>
</g>
<!-- Node2&#45;&gt;Node3 -->
<g id="edge2_Node000002_Node000003" class="edge">
<title>Node2&#45;&gt;Node3</title>
<g id="a_edge2_Node000002_Node000003"><a xlink:title=" ">
<path fill="none" stroke="#63b8ff" d="M268.76,-65.5C284.77,-65.5 302.47,-65.5 319.1,-65.5"/>
<polygon fill="#63b8ff" stroke="#63b8ff" points="319.3,-69 329.3,-65.5 319.3,-62 319.3,-69"/>
</a>
</g>
</g>
<!-- Node4 -->
<g id="Node000004" class="node">
<title>Node4</title>
<g id="a_Node000004"><a xlink:href="classUnit.html#a2b80af47340ac01ca2031723f37e839a" target="_top" xlink:title=" ">
<polygon fill="white" stroke="#666666" points="775,-94 690,-94 690,-75 775,-75 775,-94"/>
<text text-anchor="middle" x="732.5" y="-82" font-family="Helvetica,sans-Serif" font-size="10.00">Unit::unitData</text>
</a>
</g>
</g>
<!-- Node2&#45;&gt;Node4 -->
<g id="edge10_Node000002_Node000004" class="edge">
<title>Node2&#45;&gt;Node4</title>
<g id="a_edge10_Node000002_Node000004"><a xlink:title=" ">
<path fill="none" stroke="#63b8ff" d="M251.21,-55.99C267.56,-52.23 287.12,-48.36 305,-46.5 440.26,-32.45 599.98,-57.88 680.15,-73.55"/>
<polygon fill="#63b8ff" stroke="#63b8ff" points="679.5,-76.99 689.99,-75.5 680.86,-70.12 679.5,-76.99"/>
</a>
</g>
</g>
<!-- Node5 -->
<g id="Node000005" class="node">
<title>Node5</title>
<g id="a_Node000005"><a xlink:href="classUnit.html#a749073ba5a5d08e5ec23958bbb009fc1" target="_top" xlink:title=" ">
<polygon fill="white" stroke="#666666" points="466,-150 305,-150 305,-131 466,-131 466,-150"/>
<text text-anchor="middle" x="385.5" y="-138" font-family="Helvetica,sans-Serif" font-size="10.00">Unit::getPowerIndexFromDBC</text>
</a>
</g>
</g>
<!-- Node2&#45;&gt;Node5 -->
<g id="edge4_Node000002_Node000005" class="edge">
<title>Node2&#45;&gt;Node5</title>
<g id="a_edge4_Node000002_Node000005"><a xlink:title=" ">
<path fill="none" stroke="#63b8ff" d="M236.38,-75.15C266.09,-88.26 319.37,-111.76 353.27,-126.72"/>
<polygon fill="#63b8ff" stroke="#63b8ff" points="352.15,-130.05 362.71,-130.89 354.97,-123.65 352.15,-130.05"/>
</a>
</g>
</g>
<!-- Node3&#45;&gt;Node4 -->
<g id="edge3_Node000003_Node000004" class="edge">
<title>Node3&#45;&gt;Node4</title>
<g id="a_edge3_Node000003_Node000004"><a xlink:title=" ">
<path fill="none" stroke="#63b8ff" d="M441.55,-68.53C507.05,-72.14 615.59,-78.12 679.66,-81.64"/>
<polygon fill="#63b8ff" stroke="#63b8ff" points="679.75,-85.16 689.93,-82.21 680.13,-78.17 679.75,-85.16"/>
</a>
</g>
</g>
<!-- Node6 -->
<g id="Node000006" class="node">
<title>Node6</title>
<g id="a_Node000006"><a xlink:href="classUnit.html#a533b5c8f1fb379e5408ecf4c8292a9c7" target="_top" xlink:title=" ">
<polygon fill="white" stroke="#666666" points="608.5,-113 523.5,-113 523.5,-94 608.5,-94 608.5,-113"/>
<text text-anchor="middle" x="566" y="-101" font-family="Helvetica,sans-Serif" font-size="10.00">Unit::getClass</text>
</a>
</g>
</g>
<!-- Node5&#45;&gt;Node6 -->
<g id="edge5_Node000005_Node000006" class="edge">
<title>Node5&#45;&gt;Node6</title>
<g id="a_edge5_Node000005_Node000006"><a xlink:title=" ">
<path fill="none" stroke="#63b8ff" d="M432.47,-130.97C457.27,-125.83 487.96,-119.47 513.56,-114.16"/>
<polygon fill="#63b8ff" stroke="#63b8ff" points="514.38,-117.57 523.46,-112.11 512.96,-110.71 514.38,-117.57"/>
</a>
</g>
</g>
<!-- Node7 -->
<g id="Node000007" class="node">
<title>Node7</title>
<g id="a_Node000007"><a xlink:href="WDBStores_8cpp.html#ab9ee65f919c440f40bb60b1102fcbf53" target="_top" xlink:title=" ">
<polygon fill="white" stroke="#666666" points="630,-150 502,-150 502,-131 630,-131 630,-150"/>
<text text-anchor="middle" x="566" y="-138" font-family="Helvetica,sans-Serif" font-size="10.00">getPowerIndexByClass</text>
</a>
</g>
</g>
<!-- Node5&#45;&gt;Node7 -->
<g id="edge7_Node000005_Node000007" class="edge">
<title>Node5&#45;&gt;Node7</title>
<g id="a_edge7_Node000005_Node000007"><a xlink:title=" ">
<path fill="none" stroke="#63b8ff" d="M466.09,-140.5C474.62,-140.5 483.26,-140.5 491.71,-140.5"/>
<polygon fill="#63b8ff" stroke="#63b8ff" points="491.9,-144 501.9,-140.5 491.9,-137 491.9,-144"/>
</a>
</g>
</g>
<!-- Node8 -->
<g id="Node000008" class="node">
<title>Node8</title>
<g id="a_Node000008"><a xlink:href="classObject.html#ab65745f76d63eda49657413dccf0057d" target="_top" xlink:title=" ">
<polygon fill="white" stroke="#666666" points="612.5,-226 519.5,-226 519.5,-207 612.5,-207 612.5,-226"/>
<text text-anchor="middle" x="566" y="-214" font-family="Helvetica,sans-Serif" font-size="10.00">Object::isPlayer</text>
</a>
</g>
</g>
<!-- Node5&#45;&gt;Node8 -->
<g id="edge8_Node000005_Node000008" class="edge">
<title>Node5&#45;&gt;Node8</title>
<g id="a_edge8_Node000005_Node000008"><a xlink:title=" ">
<path fill="none" stroke="#63b8ff" d="M433.41,-150.08C444.29,-152.91 455.69,-156.38 466,-160.5 493.54,-171.52 522.84,-188.89 542.36,-201.36"/>
<polygon fill="#63b8ff" stroke="#63b8ff" points="540.56,-204.36 550.85,-206.87 544.37,-198.49 540.56,-204.36"/>
</a>
</g>
</g>
<!-- Node6&#45;&gt;Node4 -->
<g id="edge6_Node000006_Node000004" class="edge">
<title>Node6&#45;&gt;Node4</title>
<g id="a_edge6_Node000006_Node000004"><a xlink:title=" ">
<path fill="none" stroke="#63b8ff" d="M608.51,-98.71C630.05,-96.22 656.58,-93.15 679.48,-90.51"/>
<polygon fill="#63b8ff" stroke="#63b8ff" points="680.18,-93.95 689.72,-89.33 679.38,-87 680.18,-93.95"/>
</a>
</g>
</g>
<!-- Node9 -->
<g id="Node000009" class="node">
<title>Node9</title>
<g id="a_Node000009"><a xlink:href="classObject.html#aaee2ed63355af5e632aba82f859822b4" target="_top" xlink:title=" ">
<polygon fill="white" stroke="#666666" points="799,-226 666,-226 666,-207 799,-207 799,-226"/>
<text text-anchor="middle" x="732.5" y="-214" font-family="Helvetica,sans-Serif" font-size="10.00">Object::getObjectTypeId</text>
</a>
</g>
</g>
<!-- Node8&#45;&gt;Node9 -->
<g id="edge9_Node000008_Node000009" class="edge">
<title>Node8&#45;&gt;Node9</title>
<g id="a_edge9_Node000008_Node000009"><a xlink:title=" ">
<path fill="none" stroke="#63b8ff" d="M612.82,-216.5C626.19,-216.5 641.16,-216.5 655.84,-216.5"/>
<polygon fill="#63b8ff" stroke="#63b8ff" points="655.94,-220 665.94,-216.5 655.94,-213 655.94,-220"/>
</a>
</g>
</g>
<!-- Node10&#45;&gt;Node4 -->
<g id="edge15_Node000010_Node000004" class="edge">
<title>Node10&#45;&gt;Node4</title>
<g id="a_edge15_Node000010_Node000004"><a xlink:title=" ">
<path fill="none" stroke="#63b8ff" d="M230.31,-169.23C287.74,-203.2 489.23,-310.49 630,-235.5 657.27,-220.97 702.12,-140.49 721.77,-103.32"/>
<polygon fill="#63b8ff" stroke="#63b8ff" points="725.07,-104.56 726.61,-94.08 718.87,-101.31 725.07,-104.56"/>
</a>
</g>
</g>
<!-- Node10&#45;&gt;Node5 -->
<g id="edge14_Node000010_Node000005" class="edge">
<title>Node10&#45;&gt;Node5</title>
<g id="a_edge14_Node000010_Node000005"><a xlink:title=" ">
<path fill="none" stroke="#63b8ff" d="M258.28,-154.61C269.54,-153.35 282.06,-151.95 294.73,-150.53"/>
<polygon fill="#63b8ff" stroke="#63b8ff" points="295.35,-153.99 304.9,-149.4 294.58,-147.03 295.35,-153.99"/>
</a>
</g>
</g>
<!-- Node11 -->
<g id="Node000011" class="node">
<title>Node11</title>
<g id="a_Node000011"><a xlink:href="classUnit.html#acc90c457e972c21d29ddb12ffff96dec" target="_top" xlink:title=" ">
<polygon fill="white" stroke="#666666" points="431,-188 340,-188 340,-169 431,-169 431,-188"/>
<text text-anchor="middle" x="385.5" y="-176" font-family="Helvetica,sans-Serif" font-size="10.00">Unit::getHealth</text>
</a>
</g>
</g>
<!-- Node10&#45;&gt;Node11 -->
<g id="edge12_Node000010_Node000011" class="edge">
<title>Node10&#45;&gt;Node11</title>
<g id="a_edge12_Node000010_Node000011"><a xlink:title=" ">
<path fill="none" stroke="#63b8ff" d="M258.28,-164.39C280.13,-166.84 306.78,-169.81 329.95,-172.4"/>
<polygon fill="#63b8ff" stroke="#63b8ff" points="329.66,-175.89 339.98,-173.52 330.43,-168.94 329.66,-175.89"/>
</a>
</g>
</g>
<!-- Node11&#45;&gt;Node4 -->
<g id="edge13_Node000011_Node000004" class="edge">
<title>Node11&#45;&gt;Node4</title>
<g id="a_edge13_Node000011_Node000004"><a xlink:title=" ">
<path fill="none" stroke="#63b8ff" d="M431.17,-182.23C481.25,-184.79 564.05,-184.11 630,-159.5 663.95,-146.83 696.39,-119.23 715.11,-101.28"/>
<polygon fill="#63b8ff" stroke="#63b8ff" points="717.58,-103.76 722.25,-94.25 712.67,-98.77 717.58,-103.76"/>
</a>
</g>
</g>
<!-- Node12&#45;&gt;Node4 -->
<g id="edge17_Node000012_Node000004" class="edge">
<title>Node12&#45;&gt;Node4</title>
<g id="a_edge17_Node000012_Node000004"><a xlink:title=" ">
<path fill="none" stroke="#63b8ff" d="M269.07,-9.08C349.25,-9.58 503.12,-14.83 630,-44.5 655.52,-50.47 683.1,-61.67 703.06,-70.7"/>
<polygon fill="#63b8ff" stroke="#63b8ff" points="701.66,-73.91 712.21,-74.93 704.6,-67.56 701.66,-73.91"/>
</a>
</g>
</g>
</g>
</svg>
