<?xml version="1.0" encoding="UTF-8" standalone="no"?>
<!DOCTYPE svg PUBLIC "-//W3C//DTD SVG 1.1//EN"
 "http://www.w3.org/Graphics/SVG/1.1/DTD/svg11.dtd">
<!-- Generated by graphviz version 2.43.0 (0)
 -->
<!-- Title: ChatCommandHandler::executeCommand Pages: 1 -->
<svg width="1091pt" height="338pt"
 viewBox="0.00 0.00 1091.00 338.30" xmlns="http://www.w3.org/2000/svg" xmlns:xlink="http://www.w3.org/1999/xlink">
<g id="graph0" class="graph" transform="scale(1 1) rotate(0) translate(4 334.3)">
<title>ChatCommandHandler::executeCommand</title>
<!-- Node1 -->
<g id="Node000001" class="node">
<title>Node1</title>
<g id="a_Node000001"><a xlink:title=" ">
<polygon fill="#999999" stroke="#666666" points="128,-182.3 0,-182.3 0,-152.3 128,-152.3 128,-182.3"/>
<text text-anchor="start" x="8" y="-170.3" font-family="Helvetica,sans-Serif" font-size="10.00">ChatCommandHandler</text>
<text text-anchor="middle" x="64" y="-159.3" font-family="Helvetica,sans-Serif" font-size="10.00">::executeCommand</text>
</a>
</g>
</g>
<!-- Node2 -->
<g id="Node000002" class="node">
<title>Node2</title>
<g id="a_Node000002"><a xlink:href="classChatCommandHandler.html#a2e7e873ffa63bdcf1f654ce97ffc0da7" target="_top" xlink:title=" ">
<polygon fill="white" stroke="#666666" points="294,-182.3 164,-182.3 164,-152.3 294,-152.3 294,-182.3"/>
<text text-anchor="start" x="172" y="-170.3" font-family="Helvetica,sans-Serif" font-size="10.00">ChatCommandHandler</text>
<text text-anchor="middle" x="229" y="-159.3" font-family="Helvetica,sans-Serif" font-size="10.00">::executeCommandFlat</text>
</a>
</g>
</g>
<!-- Node1&#45;&gt;Node2 -->
<g id="edge1_Node000001_Node000002" class="edge">
<title>Node1&#45;&gt;Node2</title>
<g id="a_edge1_Node000001_Node000002"><a xlink:title=" ">
<path fill="none" stroke="#63b8ff" d="M128.02,-167.3C136.46,-167.3 145.17,-167.3 153.77,-167.3"/>
<polygon fill="#63b8ff" stroke="#63b8ff" points="153.8,-170.8 163.8,-167.3 153.8,-163.8 153.8,-170.8"/>
</a>
</g>
</g>
<!-- Node3 -->
<g id="Node000003" class="node">
<title>Node3</title>
<g id="a_Node000003"><a xlink:href="classChatCommandHandler.html#a1141a5b3f55d31ed3201e0bd266ef0ab" target="_top" xlink:title=" ">
<polygon fill="white" stroke="#666666" points="462,-330.3 334,-330.3 334,-300.3 462,-300.3 462,-330.3"/>
<text text-anchor="start" x="342" y="-318.3" font-family="Helvetica,sans-Serif" font-size="10.00">ChatCommandHandler</text>
<text text-anchor="middle" x="398" y="-307.3" font-family="Helvetica,sans-Serif" font-size="10.00">::blueSystemMessage</text>
</a>
</g>
</g>
<!-- Node2&#45;&gt;Node3 -->
<g id="edge2_Node000002_Node000003" class="edge">
<title>Node2&#45;&gt;Node3</title>
<g id="a_edge2_Node000002_Node000003"><a xlink:title=" ">
<path fill="none" stroke="#63b8ff" d="M239.31,-182.4C255.2,-207.08 289.75,-256.32 330,-286.3 334.51,-289.66 339.47,-292.73 344.59,-295.5"/>
<polygon fill="#63b8ff" stroke="#63b8ff" points="343.4,-298.82 353.91,-300.18 346.54,-292.56 343.4,-298.82"/>
</a>
</g>
</g>
<!-- Node4 -->
<g id="Node000004" class="node">
<title>Node4</title>
<g id="a_Node000004"><a xlink:href="classWorldSession.html#ad31ff6f9e25a3b2b70a5b9b46ccc7284" target="_top" xlink:title=" ">
<polygon fill="white" stroke="#666666" points="678,-192.8 502,-192.8 502,-173.8 678,-173.8 678,-192.8"/>
<text text-anchor="middle" x="590" y="-180.8" font-family="Helvetica,sans-Serif" font-size="10.00">WorldSession::CanUseCommand</text>
</a>
</g>
</g>
<!-- Node2&#45;&gt;Node4 -->
<g id="edge3_Node000002_Node000004" class="edge">
<title>Node2&#45;&gt;Node4</title>
<g id="a_edge3_Node000002_Node000004"><a xlink:title=" ">
<path fill="none" stroke="#63b8ff" d="M241.55,-182.44C258.37,-203.09 291.78,-239.13 330,-253.3 386.67,-274.32 407.57,-268.76 466,-253.3 505.6,-242.82 545.78,-216.31 569,-199.08"/>
<polygon fill="#63b8ff" stroke="#63b8ff" points="571.18,-201.82 577.03,-192.99 566.95,-196.25 571.18,-201.82"/>
</a>
</g>
</g>
<!-- Node7 -->
<g id="Node000007" class="node">
<title>Node7</title>
<g id="a_Node000007"><a xlink:href="ChatCommand_8hpp.html#a2df31f79d9750cfc96051732e510fdf0" target="_top" xlink:title=" ">
<polygon fill="white" stroke="#666666" points="435,-243.8 361,-243.8 361,-224.8 435,-224.8 435,-243.8"/>
<text text-anchor="middle" x="398" y="-231.8" font-family="Helvetica,sans-Serif" font-size="10.00">countWords</text>
</a>
</g>
</g>
<!-- Node2&#45;&gt;Node7 -->
<g id="edge6_Node000002_Node000007" class="edge">
<title>Node2&#45;&gt;Node7</title>
<g id="a_edge6_Node000002_Node000007"><a xlink:title=" ">
<path fill="none" stroke="#63b8ff" d="M258.31,-182.49C278.03,-192.68 305.15,-205.89 330,-215.3 336.76,-217.86 344.02,-220.26 351.18,-222.44"/>
<polygon fill="#63b8ff" stroke="#63b8ff" points="350.24,-225.81 360.82,-225.26 352.2,-219.09 350.24,-225.81"/>
</a>
</g>
</g>
<!-- Node8 -->
<g id="Node000008" class="node">
<title>Node8</title>
<g id="a_Node000008"><a xlink:href="classChatCommandHandler.html#a562947bc81997bcf5225df5cf1fbcaa6" target="_top" xlink:title=" ">
<polygon fill="white" stroke="#666666" points="463.5,-206.3 332.5,-206.3 332.5,-176.3 463.5,-176.3 463.5,-206.3"/>
<text text-anchor="start" x="340.5" y="-194.3" font-family="Helvetica,sans-Serif" font-size="10.00">ChatCommandHandler</text>
<text text-anchor="middle" x="398" y="-183.3" font-family="Helvetica,sans-Serif" font-size="10.00">::greenSystemMessage</text>
</a>
</g>
</g>
<!-- Node2&#45;&gt;Node8 -->
<g id="edge7_Node000002_Node000008" class="edge">
<title>Node2&#45;&gt;Node8</title>
<g id="a_edge7_Node000002_Node000008"><a xlink:title=" ">
<path fill="none" stroke="#63b8ff" d="M294.09,-176.51C303.28,-177.83 312.79,-179.2 322.17,-180.54"/>
<polygon fill="#63b8ff" stroke="#63b8ff" points="321.86,-184.04 332.25,-181.99 322.85,-177.11 321.86,-184.04"/>
</a>
</g>
</g>
<!-- Node9 -->
<g id="Node000009" class="node">
<title>Node9</title>
<g id="a_Node000009"><a xlink:href="classChatCommandHandler.html#ac481a38af41845bdacba6cfca6f08a2d" target="_top" xlink:title=" ">
<polygon fill="white" stroke="#666666" points="462,-158.3 334,-158.3 334,-128.3 462,-128.3 462,-158.3"/>
<text text-anchor="start" x="342" y="-146.3" font-family="Helvetica,sans-Serif" font-size="10.00">ChatCommandHandler</text>
<text text-anchor="middle" x="398" y="-135.3" font-family="Helvetica,sans-Serif" font-size="10.00">::redSystemMessage</text>
</a>
</g>
</g>
<!-- Node2&#45;&gt;Node9 -->
<g id="edge8_Node000002_Node000009" class="edge">
<title>Node2&#45;&gt;Node9</title>
<g id="a_edge8_Node000002_Node000009"><a xlink:title=" ">
<path fill="none" stroke="#63b8ff" d="M294.09,-158.09C303.78,-156.7 313.85,-155.25 323.72,-153.83"/>
<polygon fill="#63b8ff" stroke="#63b8ff" points="324.51,-157.25 333.91,-152.37 323.51,-150.32 324.51,-157.25"/>
</a>
</g>
</g>
<!-- Node10 -->
<g id="Node000010" class="node">
<title>Node10</title>
<g id="a_Node000010"><a xlink:href="classChatCommandHandler.html#a1a73390765ae1273b110e88409f65b14" target="_top" xlink:title=" ">
<polygon fill="white" stroke="#666666" points="466,-110.3 330,-110.3 330,-80.3 466,-80.3 466,-110.3"/>
<text text-anchor="start" x="338" y="-98.3" font-family="Helvetica,sans-Serif" font-size="10.00">ChatCommandHandler</text>
<text text-anchor="middle" x="398" y="-87.3" font-family="Helvetica,sans-Serif" font-size="10.00">::resolveTopLevelAbbrev</text>
</a>
</g>
</g>
<!-- Node2&#45;&gt;Node10 -->
<g id="edge9_Node000002_Node000010" class="edge">
<title>Node2&#45;&gt;Node10</title>
<g id="a_edge9_Node000002_Node000010"><a xlink:title=" ">
<path fill="none" stroke="#63b8ff" d="M259.39,-152.2C279.12,-142.31 305.83,-129.4 330,-119.3 334.33,-117.49 338.85,-115.69 343.42,-113.93"/>
<polygon fill="#63b8ff" stroke="#63b8ff" points="344.66,-117.2 352.78,-110.4 342.19,-110.65 344.66,-117.2"/>
</a>
</g>
</g>
<!-- Node11 -->
<g id="Node000011" class="node">
<title>Node11</title>
<g id="a_Node000011"><a xlink:href="classChatCommandHandler.html#adde0f624ec28fe10846d2aa948ea14f8" target="_top" xlink:title=" ">
<polygon fill="white" stroke="#666666" points="464.5,-62.3 331.5,-62.3 331.5,-32.3 464.5,-32.3 464.5,-62.3"/>
<text text-anchor="start" x="339.5" y="-50.3" font-family="Helvetica,sans-Serif" font-size="10.00">ChatCommandHandler</text>
<text text-anchor="middle" x="398" y="-39.3" font-family="Helvetica,sans-Serif" font-size="10.00">::SendMultilineMessage</text>
</a>
</g>
</g>
<!-- Node2&#45;&gt;Node11 -->
<g id="edge11_Node000002_Node000011" class="edge">
<title>Node2&#45;&gt;Node11</title>
<g id="a_edge11_Node000002_Node000011"><a xlink:title=" ">
<path fill="none" stroke="#63b8ff" d="M242.05,-152.27C259.46,-131.46 293.58,-93.85 330,-71.3 332.59,-69.69 335.31,-68.17 338.11,-66.74"/>
<polygon fill="#63b8ff" stroke="#63b8ff" points="339.67,-69.87 347.22,-62.44 336.69,-63.54 339.67,-69.87"/>
</a>
</g>
</g>
<!-- Node12 -->
<g id="Node000012" class="node">
<title>Node12</title>
<g id="a_Node000012"><a xlink:href="classChatCommandHandler.html#aabb272c702b97a0325b0b2cfff4a2402" target="_top" xlink:title=" ">
<polygon fill="white" stroke="#666666" points="654,-41.3 526,-41.3 526,-11.3 654,-11.3 654,-41.3"/>
<text text-anchor="start" x="534" y="-29.3" font-family="Helvetica,sans-Serif" font-size="10.00">ChatCommandHandler</text>
<text text-anchor="middle" x="590" y="-18.3" font-family="Helvetica,sans-Serif" font-size="10.00">::systemMessage</text>
</a>
</g>
</g>
<!-- Node2&#45;&gt;Node12 -->
<g id="edge14_Node000002_Node000012" class="edge">
<title>Node2&#45;&gt;Node12</title>
<g id="a_edge14_Node000002_Node000012"><a xlink:title=" ">
<path fill="none" stroke="#63b8ff" d="M235.19,-151.83C246.6,-120.67 277.14,-50.95 330,-23.3 390.02,8.09 469.07,1.51 523.99,-9.24"/>
<polygon fill="#63b8ff" stroke="#63b8ff" points="523.45,-12.7 533.95,-11.28 524.86,-5.84 523.45,-12.7"/>
</a>
</g>
</g>
<!-- Node5 -->
<g id="Node000005" class="node">
<title>Node5</title>
<g id="a_Node000005"><a xlink:href="classWorldSession.html#af4a7a95402ac085c9fb35d973736ac87" target="_top" xlink:title=" ">
<polygon fill="white" stroke="#666666" points="888,-192.8 714,-192.8 714,-173.8 888,-173.8 888,-192.8"/>
<text text-anchor="middle" x="801" y="-180.8" font-family="Helvetica,sans-Serif" font-size="10.00">WorldSession::canUseCommand</text>
</a>
</g>
</g>
<!-- Node4&#45;&gt;Node5 -->
<g id="edge4_Node000004_Node000005" class="edge">
<title>Node4&#45;&gt;Node5</title>
<g id="a_edge4_Node000004_Node000005"><a xlink:title=" ">
<path fill="none" stroke="#63b8ff" d="M678.12,-183.3C686.48,-183.3 695,-183.3 703.44,-183.3"/>
<polygon fill="#63b8ff" stroke="#63b8ff" points="703.69,-186.8 713.69,-183.3 703.69,-179.8 703.69,-186.8"/>
</a>
</g>
</g>
<!-- Node6 -->
<g id="Node000006" class="node">
<title>Node6</title>
<g id="a_Node000006"><a xlink:href="classWorldSession.html#aa314428f9770fbddad733783d57e5d3f" target="_top" xlink:title=" ">
<polygon fill="white" stroke="#666666" points="1083,-192.8 924,-192.8 924,-173.8 1083,-173.8 1083,-192.8"/>
<text text-anchor="middle" x="1003.5" y="-180.8" font-family="Helvetica,sans-Serif" font-size="10.00">WorldSession::hasPermission</text>
</a>
</g>
</g>
<!-- Node5&#45;&gt;Node6 -->
<g id="edge5_Node000005_Node000006" class="edge">
<title>Node5&#45;&gt;Node6</title>
<g id="a_edge5_Node000005_Node000006"><a xlink:title=" ">
<path fill="none" stroke="#63b8ff" d="M888.19,-183.3C896.64,-183.3 905.23,-183.3 913.71,-183.3"/>
<polygon fill="#63b8ff" stroke="#63b8ff" points="913.98,-186.8 923.98,-183.3 913.98,-179.8 913.98,-186.8"/>
</a>
</g>
</g>
<!-- Node10&#45;&gt;Node4 -->
<g id="edge10_Node000010_Node000004" class="edge">
<title>Node10&#45;&gt;Node4</title>
<g id="a_edge10_Node000010_Node000004"><a xlink:title=" ">
<path fill="none" stroke="#63b8ff" d="M443.66,-110.34C451.19,-113.15 458.87,-116.18 466,-119.3 500.47,-134.36 538.68,-154.88 563.23,-168.58"/>
<polygon fill="#63b8ff" stroke="#63b8ff" points="561.81,-171.8 572.24,-173.65 565.24,-165.7 561.81,-171.8"/>
</a>
</g>
</g>
<!-- Node11&#45;&gt;Node12 -->
<g id="edge12_Node000011_Node000012" class="edge">
<title>Node11&#45;&gt;Node12</title>
<g id="a_edge12_Node000011_Node000012"><a xlink:title=" ">
<path fill="none" stroke="#63b8ff" d="M464.65,-40.04C481.09,-38.23 498.82,-36.27 515.6,-34.41"/>
<polygon fill="#63b8ff" stroke="#63b8ff" points="516.35,-37.85 525.91,-33.27 515.58,-30.89 516.35,-37.85"/>
</a>
</g>
</g>
<!-- Node13 -->
<g id="Node000013" class="node">
<title>Node13</title>
<g id="a_Node000013"><a xlink:href="namespaceAscEmu.html#af79227cb68117f159a0cf3232904123a" target="_top" xlink:title=" ">
<polygon fill="white" stroke="#666666" points="863.5,-35.8 738.5,-35.8 738.5,-16.8 863.5,-16.8 863.5,-35.8"/>
<text text-anchor="middle" x="801" y="-23.8" font-family="Helvetica,sans-Serif" font-size="10.00">AscEmu::StringFormat</text>
</a>
</g>
</g>
<!-- Node12&#45;&gt;Node13 -->
<g id="edge13_Node000012_Node000013" class="edge">
<title>Node12&#45;&gt;Node13</title>
<g id="a_edge13_Node000012_Node000013"><a xlink:title=" ">
<path fill="none" stroke="#63b8ff" d="M654.27,-26.3C677.61,-26.3 704.22,-26.3 728.25,-26.3"/>
<polygon fill="#63b8ff" stroke="#63b8ff" points="728.38,-29.8 738.38,-26.3 728.38,-22.8 728.38,-29.8"/>
</a>
</g>
</g>
</g>
</svg>
