<?xml version="1.0" encoding="UTF-8" standalone="no"?>
<!DOCTYPE svg PUBLIC "-//W3C//DTD SVG 1.1//EN"
 "http://www.w3.org/Graphics/SVG/1.1/DTD/svg11.dtd">
<!-- Generated by graphviz version 2.43.0 (0)
 -->
<!-- Title: Battleground::isFull Pages: 1 -->
<svg width="484pt" height="27pt"
 viewBox="0.00 0.00 484.00 27.00" xmlns="http://www.w3.org/2000/svg" xmlns:xlink="http://www.w3.org/1999/xlink">
<g id="graph0" class="graph" transform="scale(1 1) rotate(0) translate(4 23)">
<title>Battleground::isFull</title>
<!-- Node1 -->
<g id="Node000001" class="node">
<title>Node1</title>
<g id="a_Node000001"><a xlink:title=" ">
<polygon fill="#999999" stroke="#666666" points="111,-19 0,-19 0,0 111,0 111,-19"/>
<text text-anchor="middle" x="55.5" y="-7" font-family="Helvetica,sans-Serif" font-size="10.00">Battleground::isFull</text>
</a>
</g>
</g>
<!-- Node2 -->
<g id="Node000002" class="node">
<title>Node2</title>
<g id="a_Node000002"><a xlink:href="classBattleground.html#adfbc52447eacf6ac688e4cc8d8d238c8" target="_top" xlink:title=" ">
<polygon fill="white" stroke="#666666" points="295,-19 147,-19 147,0 295,0 295,-19"/>
<text text-anchor="middle" x="221" y="-7" font-family="Helvetica,sans-Serif" font-size="10.00">Battleground::hasFreeSlots</text>
</a>
</g>
</g>
<!-- Node1&#45;&gt;Node2 -->
<g id="edge1_Node000001_Node000002" class="edge">
<title>Node1&#45;&gt;Node2</title>
<g id="a_edge1_Node000001_Node000002"><a xlink:title=" ">
<path fill="none" stroke="#63b8ff" d="M111.4,-9.5C119.6,-9.5 128.21,-9.5 136.83,-9.5"/>
<polygon fill="#63b8ff" stroke="#63b8ff" points="136.95,-13 146.95,-9.5 136.95,-6 136.95,-13"/>
</a>
</g>
</g>
<!-- Node3 -->
<g id="Node000003" class="node">
<title>Node3</title>
<g id="a_Node000003"><a xlink:href="classBattleground.html#a27220c64d452984805d78b38468f391b" target="_top" xlink:title=" ">
<polygon fill="white" stroke="#666666" points="476,-19 331,-19 331,0 476,0 476,-19"/>
<text text-anchor="middle" x="403.5" y="-7" font-family="Helvetica,sans-Serif" font-size="10.00">Battleground::isTypeArena</text>
</a>
</g>
</g>
<!-- Node2&#45;&gt;Node3 -->
<g id="edge2_Node000002_Node000003" class="edge">
<title>Node2&#45;&gt;Node3</title>
<g id="a_edge2_Node000002_Node000003"><a xlink:title=" ">
<path fill="none" stroke="#63b8ff" d="M295.16,-9.5C303.65,-9.5 312.36,-9.5 320.97,-9.5"/>
<polygon fill="#63b8ff" stroke="#63b8ff" points="321,-13 331,-9.5 321,-6 321,-13"/>
</a>
</g>
</g>
</g>
</svg>
