<?xml version="1.0" encoding="UTF-8" standalone="no"?>
<!DOCTYPE svg PUBLIC "-//W3C//DTD SVG 1.1//EN"
 "http://www.w3.org/Graphics/SVG/1.1/DTD/svg11.dtd">
<!-- Generated by graphviz version 2.43.0 (0)
 -->
<!-- Title: Item::repairItemCost Pages: 1 -->
<svg width="419pt" height="101pt"
 viewBox="0.00 0.00 419.00 101.00" xmlns="http://www.w3.org/2000/svg" xmlns:xlink="http://www.w3.org/1999/xlink">

<svg id="main" version="1.1" xmlns="http://www.w3.org/2000/svg" xmlns:xlink="http://www.w3.org/1999/xlink" xml:space="preserve" onload="init(evt)">
<style type="text/css"><![CDATA[
.node, .edge {opacity: 0.7;}
.node.selected, .edge.selected {opacity: 1;}
.edge:hover path { stroke: red; }
.edge:hover polygon { stroke: red; fill: red; }
]]></style>
<script type="application/ecmascript" xlink:href="svg.min.js"/>
<svg id="graph" class="graph">
<g id="graph0" class="graph" transform="scale(1 1) rotate(0) translate(4 97)">
<title>Item::repairItemCost</title>
<!-- Node1 -->
<g id="Node000001" class="node">
<title>Node1</title>
<g id="a_Node000001"><a xlink:title=" ">
<polygon fill="#999999" stroke="#666666" points="118,-56 0,-56 0,-37 118,-37 118,-56"/>
<text text-anchor="middle" x="59" y="-44" font-family="Helvetica,sans-Serif" font-size="10.00">Item::repairItemCost</text>
</a>
</g>
</g>
<!-- Node2 -->
<g id="Node000002" class="node">
<title>Node2</title>
<g id="a_Node000002"><a xlink:href="classItem.html#a17ecee81377d03aaabf35e735b1e4798" target="_top" xlink:title=" ">
<polygon fill="white" stroke="#666666" points="273.5,-93 164.5,-93 164.5,-74 273.5,-74 273.5,-93"/>
<text text-anchor="middle" x="219" y="-81" font-family="Helvetica,sans-Serif" font-size="10.00">Item::getDurability</text>
</a>
</g>
</g>
<!-- Node1&#45;&gt;Node2 -->
<g id="edge1_Node000001_Node000002" class="edge">
<title>Node1&#45;&gt;Node2</title>
<g id="a_edge1_Node000001_Node000002"><a xlink:title=" ">
<path fill="none" stroke="#63b8ff" d="M100.69,-56.03C120.97,-60.78 145.71,-66.57 167.22,-71.61"/>
<polygon fill="#63b8ff" stroke="#63b8ff" points="166.64,-75.07 177.17,-73.94 168.24,-68.25 166.64,-75.07"/>
</a>
</g>
</g>
<!-- Node4 -->
<g id="Node000004" class="node">
<title>Node4</title>
<g id="a_Node000004"><a xlink:href="classItem.html#a4bcc6fc035f6ffa88dbf313b64224da4" target="_top" xlink:title=" ">
<polygon fill="white" stroke="#666666" points="284,-56 154,-56 154,-37 284,-37 284,-56"/>
<text text-anchor="middle" x="219" y="-44" font-family="Helvetica,sans-Serif" font-size="10.00">Item::getMaxDurability</text>
</a>
</g>
</g>
<!-- Node1&#45;&gt;Node4 -->
<g id="edge3_Node000001_Node000004" class="edge">
<title>Node1&#45;&gt;Node4</title>
<g id="a_edge3_Node000001_Node000004"><a xlink:title=" ">
<path fill="none" stroke="#63b8ff" d="M118.38,-46.5C126.57,-46.5 135.08,-46.5 143.51,-46.5"/>
<polygon fill="#63b8ff" stroke="#63b8ff" points="143.74,-50 153.74,-46.5 143.74,-43 143.74,-50"/>
</a>
</g>
</g>
<!-- Node5 -->
<g id="Node000005" class="node">
<title>Node5</title>
<g id="a_Node000005"><a xlink:href="namespaceUtil.html#a4893ce479852ebb439dac7bedbf5fdaf" target="_top" xlink:title=" ">
<polygon fill="white" stroke="#666666" points="265,-19 173,-19 173,0 265,0 265,-19"/>
<text text-anchor="middle" x="219" y="-7" font-family="Helvetica,sans-Serif" font-size="10.00">Util::long2int32</text>
</a>
</g>
</g>
<!-- Node1&#45;&gt;Node5 -->
<g id="edge5_Node000001_Node000005" class="edge">
<title>Node1&#45;&gt;Node5</title>
<g id="a_edge5_Node000001_Node000005"><a xlink:title=" ">
<path fill="none" stroke="#63b8ff" d="M100.69,-36.97C120.97,-32.22 145.71,-26.43 167.22,-21.39"/>
<polygon fill="#63b8ff" stroke="#63b8ff" points="168.24,-24.75 177.17,-19.06 166.64,-17.93 168.24,-24.75"/>
</a>
</g>
</g>
<!-- Node3 -->
<g id="Node000003" class="node">
<title>Node3</title>
<g id="a_Node000003"><a xlink:href="classItem.html#a4f6780aeb09b44fa79884b1402b7e1fe" target="_top" xlink:title=" ">
<polygon fill="white" stroke="#666666" points="411,-74 320,-74 320,-55 411,-55 411,-74"/>
<text text-anchor="middle" x="365.5" y="-62" font-family="Helvetica,sans-Serif" font-size="10.00">Item::itemData</text>
</a>
</g>
</g>
<!-- Node2&#45;&gt;Node3 -->
<g id="edge2_Node000002_Node000003" class="edge">
<title>Node2&#45;&gt;Node3</title>
<g id="a_edge2_Node000002_Node000003"><a xlink:title=" ">
<path fill="none" stroke="#63b8ff" d="M273.81,-76.43C285.47,-74.89 297.83,-73.27 309.54,-71.73"/>
<polygon fill="#63b8ff" stroke="#63b8ff" points="310.17,-75.17 319.63,-70.4 309.26,-68.23 310.17,-75.17"/>
</a>
</g>
</g>
<!-- Node4&#45;&gt;Node3 -->
<g id="edge4_Node000004_Node000003" class="edge">
<title>Node4&#45;&gt;Node3</title>
<g id="a_edge4_Node000004_Node000003"><a xlink:title=" ">
<path fill="none" stroke="#63b8ff" d="M284.22,-54.5C292.8,-55.57 301.52,-56.65 309.91,-57.7"/>
<polygon fill="#63b8ff" stroke="#63b8ff" points="309.59,-61.19 319.94,-58.95 310.45,-54.24 309.59,-61.19"/>
</a>
</g>
</g>
</g>
</svg>
</svg>

<style type='text/css'>
<![CDATA[
[data-mouse-over-selected='false'] { opacity: 0.7; }
[data-mouse-over-selected='true']  { opacity: 1.0; }
]]>
</style>
<script type="application/ecmascript"><![CDATA[
document.addEventListener('DOMContentLoaded', (event) => {
  highlightEdges();
  highlightAdjacentNodes();
});
]]></script>
</svg>
