<?xml version="1.0" encoding="UTF-8" standalone="no"?>
<!DOCTYPE svg PUBLIC "-//W3C//DTD SVG 1.1//EN"
 "http://www.w3.org/Graphics/SVG/1.1/DTD/svg11.dtd">
<!-- Generated by graphviz version 2.43.0 (0)
 -->
<!-- Title: Aura::SpellAuraModAttackPower Pages: 1 -->
<svg width="1162pt" height="288pt"
 viewBox="0.00 0.00 1162.00 288.00" xmlns="http://www.w3.org/2000/svg" xmlns:xlink="http://www.w3.org/1999/xlink">
<g id="graph0" class="graph" transform="scale(1 1) rotate(0) translate(4 284)">
<title>Aura::SpellAuraModAttackPower</title>
<!-- Node1 -->
<g id="Node000001" class="node">
<title>Node1</title>
<g id="a_Node000001"><a xlink:title=" ">
<polygon fill="#999999" stroke="#666666" points="144,-145.5 0,-145.5 0,-115.5 144,-115.5 144,-145.5"/>
<text text-anchor="start" x="8" y="-133.5" font-family="Helvetica,sans-Serif" font-size="10.00">Aura::SpellAuraModAttack</text>
<text text-anchor="middle" x="72" y="-122.5" font-family="Helvetica,sans-Serif" font-size="10.00">Power</text>
</a>
</g>
</g>
<!-- Node2 -->
<g id="Node000002" class="node">
<title>Node2</title>
<g id="a_Node000002"><a xlink:href="classUnit.html#a84446e718f4e48a06ee74b1c46ede54d" target="_top" xlink:title=" ">
<polygon fill="white" stroke="#666666" points="308,-196 180,-196 180,-177 308,-177 308,-196"/>
<text text-anchor="middle" x="244" y="-184" font-family="Helvetica,sans-Serif" font-size="10.00">Unit::calculateDamage</text>
</a>
</g>
</g>
<!-- Node1&#45;&gt;Node2 -->
<g id="edge1_Node000001_Node000002" class="edge">
<title>Node1&#45;&gt;Node2</title>
<g id="a_edge1_Node000001_Node000002"><a xlink:title=" ">
<path fill="none" stroke="#63b8ff" d="M118.56,-145.51C145.39,-154.34 178.95,-165.4 204.46,-173.8"/>
<polygon fill="#63b8ff" stroke="#63b8ff" points="203.56,-177.19 214.16,-177 205.75,-170.55 203.56,-177.19"/>
</a>
</g>
</g>
<!-- Node18 -->
<g id="Node000018" class="node">
<title>Node18</title>
<g id="a_Node000018"><a xlink:href="structAuraEffectModifier.html#aeab95ea0073750f11de617348d95990a" target="_top" xlink:title=" ">
<polygon fill="white" stroke="#666666" points="297.5,-102.5 190.5,-102.5 190.5,-72.5 297.5,-72.5 297.5,-102.5"/>
<text text-anchor="start" x="198.5" y="-90.5" font-family="Helvetica,sans-Serif" font-size="10.00">AuraEffectModifier</text>
<text text-anchor="middle" x="244" y="-79.5" font-family="Helvetica,sans-Serif" font-size="10.00">::getEffectDamage</text>
</a>
</g>
</g>
<!-- Node1&#45;&gt;Node18 -->
<g id="edge23_Node000001_Node000018" class="edge">
<title>Node1&#45;&gt;Node18</title>
<g id="a_edge23_Node000001_Node000018"><a xlink:title=" ">
<path fill="none" stroke="#63b8ff" d="M132.46,-115.46C147.93,-111.55 164.65,-107.32 180.28,-103.36"/>
<polygon fill="#63b8ff" stroke="#63b8ff" points="181.54,-106.66 190.38,-100.81 179.83,-99.87 181.54,-106.66"/>
</a>
</g>
</g>
<!-- Node19 -->
<g id="Node000019" class="node">
<title>Node19</title>
<g id="a_Node000019"><a xlink:href="classUnit.html#aedfe88c9ebc7f07915b1a38d75a85462" target="_top" xlink:title=" ">
<polygon fill="white" stroke="#666666" points="496,-131 344,-131 344,-112 496,-112 496,-131"/>
<text text-anchor="middle" x="420" y="-119" font-family="Helvetica,sans-Serif" font-size="10.00">Unit::modAttackPowerMods</text>
</a>
</g>
</g>
<!-- Node1&#45;&gt;Node19 -->
<g id="edge24_Node000001_Node000019" class="edge">
<title>Node1&#45;&gt;Node19</title>
<g id="a_edge24_Node000001_Node000019"><a xlink:title=" ">
<path fill="none" stroke="#63b8ff" d="M144.27,-128.65C199.23,-127.22 275.44,-125.23 333.65,-123.72"/>
<polygon fill="#63b8ff" stroke="#63b8ff" points="334.02,-127.21 343.93,-123.45 333.84,-120.21 334.02,-127.21"/>
</a>
</g>
</g>
<!-- Node3 -->
<g id="Node000003" class="node">
<title>Node3</title>
<g id="a_Node000003"><a xlink:href="classUnit.html#a829a35d8fd56cda4db41fd547d6e3e96" target="_top" xlink:title=" ">
<polygon fill="white" stroke="#666666" points="489.5,-205 350.5,-205 350.5,-186 489.5,-186 489.5,-205"/>
<text text-anchor="middle" x="420" y="-193" font-family="Helvetica,sans-Serif" font-size="10.00">Unit::getBaseAttackTime</text>
</a>
</g>
</g>
<!-- Node2&#45;&gt;Node3 -->
<g id="edge2_Node000002_Node000003" class="edge">
<title>Node2&#45;&gt;Node3</title>
<g id="a_edge2_Node000002_Node000003"><a xlink:title=" ">
<path fill="none" stroke="#63b8ff" d="M308.31,-189.77C318.69,-190.31 329.56,-190.87 340.26,-191.43"/>
<polygon fill="#63b8ff" stroke="#63b8ff" points="340.28,-194.93 350.45,-191.95 340.65,-187.94 340.28,-194.93"/>
</a>
</g>
</g>
<!-- Node5 -->
<g id="Node000005" class="node">
<title>Node5</title>
<g id="a_Node000005"><a xlink:href="classUnit.html#ab1b6d30281e1cf6dcda9e751cd5bd322" target="_top" xlink:title=" ">
<polygon fill="white" stroke="#666666" points="491,-93.5 349,-93.5 349,-63.5 491,-63.5 491,-93.5"/>
<text text-anchor="start" x="357" y="-81.5" font-family="Helvetica,sans-Serif" font-size="10.00">Unit::getCalculatedAttack</text>
<text text-anchor="middle" x="420" y="-70.5" font-family="Helvetica,sans-Serif" font-size="10.00">Power</text>
</a>
</g>
</g>
<!-- Node2&#45;&gt;Node5 -->
<g id="edge4_Node000002_Node000005" class="edge">
<title>Node2&#45;&gt;Node5</title>
<g id="a_edge4_Node000002_Node000005"><a xlink:title=" ">
<path fill="none" stroke="#63b8ff" d="M253.93,-176.94C270.29,-159.94 306.8,-124.29 344,-103.5 347.88,-101.33 351.98,-99.31 356.17,-97.44"/>
<polygon fill="#63b8ff" stroke="#63b8ff" points="357.59,-100.64 365.48,-93.57 354.9,-94.18 357.59,-100.64"/>
</a>
</g>
</g>
<!-- Node10 -->
<g id="Node000010" class="node">
<title>Node10</title>
<g id="a_Node000010"><a xlink:href="classObject.html#aa6a2f469dc485ec3486f366af235d0cf" target="_top" xlink:title=" ">
<polygon fill="white" stroke="#666666" points="459,-168 381,-168 381,-149 459,-149 459,-168"/>
<text text-anchor="middle" x="420" y="-156" font-family="Helvetica,sans-Serif" font-size="10.00">Object::isPet</text>
</a>
</g>
</g>
<!-- Node2&#45;&gt;Node10 -->
<g id="edge12_Node000002_Node000010" class="edge">
<title>Node2&#45;&gt;Node10</title>
<g id="a_edge12_Node000002_Node000010"><a xlink:title=" ">
<path fill="none" stroke="#63b8ff" d="M304.39,-176.94C326.04,-173.46 350.23,-169.57 370.78,-166.26"/>
<polygon fill="#63b8ff" stroke="#63b8ff" points="371.54,-169.68 380.86,-164.64 370.43,-162.77 371.54,-169.68"/>
</a>
</g>
</g>
<!-- Node11 -->
<g id="Node000011" class="node">
<title>Node11</title>
<g id="a_Node000011"><a xlink:href="classUnit.html#ac8307bdc309c145cb17c9b2308aa1f15" target="_top" xlink:title=" ">
<polygon fill="white" stroke="#666666" points="675.5,-280 555.5,-280 555.5,-261 675.5,-261 675.5,-280"/>
<text text-anchor="middle" x="615.5" y="-268" font-family="Helvetica,sans-Serif" font-size="10.00">Unit::setMaxDamage</text>
</a>
</g>
</g>
<!-- Node2&#45;&gt;Node11 -->
<g id="edge13_Node000002_Node000011" class="edge">
<title>Node2&#45;&gt;Node11</title>
<g id="a_edge13_Node000002_Node000011"><a xlink:title=" ">
<path fill="none" stroke="#63b8ff" d="M260.45,-196.17C279.38,-207.54 312.8,-226.05 344,-235.5 410.56,-255.66 489.77,-264.21 545.22,-267.83"/>
<polygon fill="#63b8ff" stroke="#63b8ff" points="545.09,-271.33 555.28,-268.45 545.52,-264.35 545.09,-271.33"/>
</a>
</g>
</g>
<!-- Node17 -->
<g id="Node000017" class="node">
<title>Node17</title>
<g id="a_Node000017"><a xlink:href="classUnit.html#a736964e3dd46e99441fffcaa272845fd" target="_top" xlink:title=" ">
<polygon fill="white" stroke="#666666" points="674,-243 557,-243 557,-224 674,-224 674,-243"/>
<text text-anchor="middle" x="615.5" y="-231" font-family="Helvetica,sans-Serif" font-size="10.00">Unit::setMinDamage</text>
</a>
</g>
</g>
<!-- Node2&#45;&gt;Node17 -->
<g id="edge20_Node000002_Node000017" class="edge">
<title>Node2&#45;&gt;Node17</title>
<g id="a_edge20_Node000002_Node000017"><a xlink:title=" ">
<path fill="none" stroke="#63b8ff" d="M272.81,-196.02C292.46,-202.34 319.54,-210.23 344,-214.5 412.29,-226.43 491.52,-230.92 546.51,-232.58"/>
<polygon fill="#63b8ff" stroke="#63b8ff" points="546.74,-236.09 556.83,-232.87 546.93,-229.09 546.74,-236.09"/>
</a>
</g>
</g>
<!-- Node4 -->
<g id="Node000004" class="node">
<title>Node4</title>
<g id="a_Node000004"><a xlink:href="classUnit.html#a2b80af47340ac01ca2031723f37e839a" target="_top" xlink:title=" ">
<polygon fill="white" stroke="#666666" points="820,-167 735,-167 735,-148 820,-148 820,-167"/>
<text text-anchor="middle" x="777.5" y="-155" font-family="Helvetica,sans-Serif" font-size="10.00">Unit::unitData</text>
</a>
</g>
</g>
<!-- Node3&#45;&gt;Node4 -->
<g id="edge3_Node000003_Node000004" class="edge">
<title>Node3&#45;&gt;Node4</title>
<g id="a_edge3_Node000003_Node000004"><a xlink:title=" ">
<path fill="none" stroke="#63b8ff" d="M489.63,-194.09C546.12,-192.15 628.13,-187.52 699,-176.5 710.21,-174.76 722.19,-172.18 733.29,-169.49"/>
<polygon fill="#63b8ff" stroke="#63b8ff" points="734.34,-172.83 743.18,-167 732.63,-166.04 734.34,-172.83"/>
</a>
</g>
</g>
<!-- Node6 -->
<g id="Node000006" class="node">
<title>Node6</title>
<g id="a_Node000006"><a xlink:href="namespaceUtil.html#a70ebb44d97d6d7d2d17f30612e386e91" target="_top" xlink:title=" ">
<polygon fill="white" stroke="#666666" points="661.5,-93 569.5,-93 569.5,-74 661.5,-74 661.5,-93"/>
<text text-anchor="middle" x="615.5" y="-81" font-family="Helvetica,sans-Serif" font-size="10.00">Util::float2int32</text>
</a>
</g>
</g>
<!-- Node5&#45;&gt;Node6 -->
<g id="edge5_Node000005_Node000006" class="edge">
<title>Node5&#45;&gt;Node6</title>
<g id="a_edge5_Node000005_Node000006"><a xlink:title=" ">
<path fill="none" stroke="#63b8ff" d="M491.13,-80.31C513.53,-80.89 538,-81.52 559.19,-82.07"/>
<polygon fill="#63b8ff" stroke="#63b8ff" points="559.22,-85.57 569.31,-82.33 559.4,-78.58 559.22,-85.57"/>
</a>
</g>
</g>
<!-- Node7 -->
<g id="Node000007" class="node">
<title>Node7</title>
<g id="a_Node000007"><a xlink:href="classUnit.html#abe59901137ef5651e890e4363cf599ed" target="_top" xlink:title=" ">
<polygon fill="white" stroke="#666666" points="675.5,-56 555.5,-56 555.5,-37 675.5,-37 675.5,-56"/>
<text text-anchor="middle" x="615.5" y="-44" font-family="Helvetica,sans-Serif" font-size="10.00">Unit::getAttackPower</text>
</a>
</g>
</g>
<!-- Node5&#45;&gt;Node7 -->
<g id="edge6_Node000005_Node000007" class="edge">
<title>Node5&#45;&gt;Node7</title>
<g id="a_edge6_Node000005_Node000007"><a xlink:title=" ">
<path fill="none" stroke="#63b8ff" d="M491.13,-66.9C509.38,-63.88 529,-60.64 547.11,-57.64"/>
<polygon fill="#63b8ff" stroke="#63b8ff" points="547.7,-61.09 557,-56.01 546.56,-54.19 547.7,-61.09"/>
</a>
</g>
</g>
<!-- Node8 -->
<g id="Node000008" class="node">
<title>Node8</title>
<g id="a_Node000008"><a xlink:href="classUnit.html#ab5a05b694772b7abcb8c77b17c530a02" target="_top" xlink:title=" ">
<polygon fill="white" stroke="#666666" points="688.5,-130 542.5,-130 542.5,-111 688.5,-111 688.5,-130"/>
<text text-anchor="middle" x="615.5" y="-118" font-family="Helvetica,sans-Serif" font-size="10.00">Unit::getAttackPowerMods</text>
</a>
</g>
</g>
<!-- Node5&#45;&gt;Node8 -->
<g id="edge8_Node000005_Node000008" class="edge">
<title>Node5&#45;&gt;Node8</title>
<g id="a_edge8_Node000005_Node000008"><a xlink:title=" ">
<path fill="none" stroke="#63b8ff" d="M490.31,-93.54C513.43,-98.56 538.84,-104.08 560.61,-108.8"/>
<polygon fill="#63b8ff" stroke="#63b8ff" points="560.14,-112.28 570.66,-110.98 561.63,-105.44 560.14,-112.28"/>
</a>
</g>
</g>
<!-- Node9 -->
<g id="Node000009" class="node">
<title>Node9</title>
<g id="a_Node000009"><a xlink:href="classUnit.html#a169ea16d2b7a8057bb8ba14d74a8b708" target="_top" xlink:title=" ">
<polygon fill="white" stroke="#666666" points="699,-19 532,-19 532,0 699,0 699,-19"/>
<text text-anchor="middle" x="615.5" y="-7" font-family="Helvetica,sans-Serif" font-size="10.00">Unit::getAttackPowerMultiplier</text>
</a>
</g>
</g>
<!-- Node5&#45;&gt;Node9 -->
<g id="edge10_Node000005_Node000009" class="edge">
<title>Node5&#45;&gt;Node9</title>
<g id="a_edge10_Node000005_Node000009"><a xlink:title=" ">
<path fill="none" stroke="#63b8ff" d="M449.52,-63.32C471.54,-52.11 503.04,-37.19 532,-27.5 538.54,-25.31 545.46,-23.32 552.4,-21.53"/>
<polygon fill="#63b8ff" stroke="#63b8ff" points="553.66,-24.82 562.54,-19.04 552,-18.02 553.66,-24.82"/>
</a>
</g>
</g>
<!-- Node7&#45;&gt;Node4 -->
<g id="edge7_Node000007_Node000004" class="edge">
<title>Node7&#45;&gt;Node4</title>
<g id="a_edge7_Node000007_Node000004"><a xlink:title=" ">
<path fill="none" stroke="#63b8ff" d="M675.59,-55.17C683.8,-57.77 691.85,-61.13 699,-65.5 729.13,-83.92 753.27,-118.14 766.19,-139.26"/>
<polygon fill="#63b8ff" stroke="#63b8ff" points="763.21,-141.11 771.32,-147.94 769.24,-137.55 763.21,-141.11"/>
</a>
</g>
</g>
<!-- Node8&#45;&gt;Node4 -->
<g id="edge9_Node000008_Node000004" class="edge">
<title>Node8&#45;&gt;Node4</title>
<g id="a_edge9_Node000008_Node000004"><a xlink:title=" ">
<path fill="none" stroke="#63b8ff" d="M658.05,-130.05C671.15,-133.07 685.68,-136.42 699,-139.5 707.6,-141.49 716.75,-143.61 725.62,-145.67"/>
<polygon fill="#63b8ff" stroke="#63b8ff" points="724.95,-149.1 735.48,-147.96 726.53,-142.29 724.95,-149.1"/>
</a>
</g>
</g>
<!-- Node9&#45;&gt;Node4 -->
<g id="edge11_Node000009_Node000004" class="edge">
<title>Node9&#45;&gt;Node4</title>
<g id="a_edge11_Node000009_Node000004"><a xlink:title=" ">
<path fill="none" stroke="#63b8ff" d="M683.42,-19C688.96,-21.28 694.24,-24.07 699,-27.5 737.76,-55.41 760.55,-109.23 770.51,-138.09"/>
<polygon fill="#63b8ff" stroke="#63b8ff" points="767.26,-139.41 773.7,-147.82 773.91,-137.23 767.26,-139.41"/>
</a>
</g>
</g>
<!-- Node11&#45;&gt;Node4 -->
<g id="edge14_Node000011_Node000004" class="edge">
<title>Node11&#45;&gt;Node4</title>
<g id="a_edge14_Node000011_Node000004"><a xlink:title=" ">
<path fill="none" stroke="#63b8ff" d="M675.64,-262.71C683.84,-260.19 691.88,-256.87 699,-252.5 715.16,-242.57 746.39,-200.42 763.86,-175.73"/>
<polygon fill="#63b8ff" stroke="#63b8ff" points="766.95,-177.42 769.83,-167.22 761.22,-173.4 766.95,-177.42"/>
</a>
</g>
</g>
<!-- Node12 -->
<g id="Node000012" class="node">
<title>Node12</title>
<g id="a_Node000012"><a xlink:href="classObject.html#a8b600efb87d19216b881a2451ce3629f" target="_top" xlink:title=" ">
<polygon fill="white" stroke="#666666" points="817,-243 738,-243 738,-224 817,-224 817,-243"/>
<text text-anchor="middle" x="777.5" y="-231" font-family="Helvetica,sans-Serif" font-size="10.00">Object::write</text>
</a>
</g>
</g>
<!-- Node11&#45;&gt;Node12 -->
<g id="edge15_Node000011_Node000012" class="edge">
<title>Node11&#45;&gt;Node12</title>
<g id="a_edge15_Node000011_Node000012"><a xlink:title=" ">
<path fill="none" stroke="#63b8ff" d="M661.08,-260.99C673.38,-258.31 686.72,-255.34 699,-252.5 708.52,-250.3 718.67,-247.86 728.39,-245.5"/>
<polygon fill="#63b8ff" stroke="#63b8ff" points="729.43,-248.85 738.31,-243.07 727.76,-242.05 729.43,-248.85"/>
</a>
</g>
</g>
<!-- Node13 -->
<g id="Node000013" class="node">
<title>Node13</title>
<g id="a_Node000013"><a xlink:href="classUpdateMask.html#aaf858dd57840b7228abe64c6376d1c89" target="_top" xlink:title=" ">
<polygon fill="white" stroke="#666666" points="972,-262 859,-262 859,-243 972,-243 972,-262"/>
<text text-anchor="middle" x="915.5" y="-250" font-family="Helvetica,sans-Serif" font-size="10.00">UpdateMask::SetBit</text>
</a>
</g>
</g>
<!-- Node12&#45;&gt;Node13 -->
<g id="edge16_Node000012_Node000013" class="edge">
<title>Node12&#45;&gt;Node13</title>
<g id="a_edge16_Node000012_Node000013"><a xlink:title=" ">
<path fill="none" stroke="#63b8ff" d="M817.11,-238.89C827.03,-240.28 837.98,-241.81 848.86,-243.33"/>
<polygon fill="#63b8ff" stroke="#63b8ff" points="848.4,-246.8 858.79,-244.72 849.37,-239.87 848.4,-246.8"/>
</a>
</g>
</g>
<!-- Node14 -->
<g id="Node000014" class="node">
<title>Node14</title>
<g id="a_Node000014"><a xlink:href="classObject.html#a796330249e8c0e5f7c2cf52715638620" target="_top" xlink:title=" ">
<polygon fill="white" stroke="#666666" points="975,-225 856,-225 856,-206 975,-206 975,-225"/>
<text text-anchor="middle" x="915.5" y="-213" font-family="Helvetica,sans-Serif" font-size="10.00">Object::updateObject</text>
</a>
</g>
</g>
<!-- Node12&#45;&gt;Node14 -->
<g id="edge17_Node000012_Node000014" class="edge">
<title>Node12&#45;&gt;Node14</title>
<g id="a_edge17_Node000012_Node000014"><a xlink:title=" ">
<path fill="none" stroke="#63b8ff" d="M817.11,-228.39C826.18,-227.19 836.11,-225.87 846.06,-224.56"/>
<polygon fill="#63b8ff" stroke="#63b8ff" points="846.52,-228.03 855.98,-223.25 845.61,-221.09 846.52,-228.03"/>
</a>
</g>
</g>
<!-- Node15 -->
<g id="Node000015" class="node">
<title>Node15</title>
<g id="a_Node000015"><a xlink:href="classObject.html#a3aeab7def818ba6c50249f197ad2f9ca" target="_top" xlink:title=" ">
<polygon fill="white" stroke="#666666" points="1132,-244 1033,-244 1033,-225 1132,-225 1132,-244"/>
<text text-anchor="middle" x="1082.5" y="-232" font-family="Helvetica,sans-Serif" font-size="10.00">Object::IsInWorld</text>
</a>
</g>
</g>
<!-- Node14&#45;&gt;Node15 -->
<g id="edge18_Node000014_Node000015" class="edge">
<title>Node14&#45;&gt;Node15</title>
<g id="a_edge18_Node000014_Node000015"><a xlink:title=" ">
<path fill="none" stroke="#63b8ff" d="M975.14,-222.25C990.64,-224.04 1007.37,-225.96 1022.87,-227.75"/>
<polygon fill="#63b8ff" stroke="#63b8ff" points="1022.52,-231.23 1032.85,-228.9 1023.32,-224.28 1022.52,-231.23"/>
</a>
</g>
</g>
<!-- Node16 -->
<g id="Node000016" class="node">
<title>Node16</title>
<g id="a_Node000016"><a xlink:href="classWorldMap.html#aabf61e8d556612e51b4e87a605d314bf" target="_top" xlink:title=" ">
<polygon fill="white" stroke="#666666" points="1154,-207 1011,-207 1011,-188 1154,-188 1154,-207"/>
<text text-anchor="middle" x="1082.5" y="-195" font-family="Helvetica,sans-Serif" font-size="10.00">WorldMap::objectUpdated</text>
</a>
</g>
</g>
<!-- Node14&#45;&gt;Node16 -->
<g id="edge19_Node000014_Node000016" class="edge">
<title>Node14&#45;&gt;Node16</title>
<g id="a_edge19_Node000014_Node000016"><a xlink:title=" ">
<path fill="none" stroke="#63b8ff" d="M975.14,-209.1C983.46,-208.2 992.14,-207.25 1000.79,-206.31"/>
<polygon fill="#63b8ff" stroke="#63b8ff" points="1001.34,-209.77 1010.91,-205.2 1000.59,-202.81 1001.34,-209.77"/>
</a>
</g>
</g>
<!-- Node17&#45;&gt;Node4 -->
<g id="edge21_Node000017_Node000004" class="edge">
<title>Node17&#45;&gt;Node4</title>
<g id="a_edge21_Node000017_Node000004"><a xlink:title=" ">
<path fill="none" stroke="#63b8ff" d="M658.54,-223.96C671.8,-220.25 686.3,-215.43 699,-209.5 719.98,-199.7 741.7,-184.63 756.78,-173.23"/>
<polygon fill="#63b8ff" stroke="#63b8ff" points="759.06,-175.89 764.84,-167.01 754.79,-170.35 759.06,-175.89"/>
</a>
</g>
</g>
<!-- Node17&#45;&gt;Node12 -->
<g id="edge22_Node000017_Node000012" class="edge">
<title>Node17&#45;&gt;Node12</title>
<g id="a_edge22_Node000017_Node000012"><a xlink:title=" ">
<path fill="none" stroke="#63b8ff" d="M674.26,-233.5C691.76,-233.5 710.79,-233.5 727.64,-233.5"/>
<polygon fill="#63b8ff" stroke="#63b8ff" points="727.82,-237 737.82,-233.5 727.82,-230 727.82,-237"/>
</a>
</g>
</g>
<!-- Node19&#45;&gt;Node8 -->
<g id="edge25_Node000019_Node000008" class="edge">
<title>Node19&#45;&gt;Node8</title>
<g id="a_edge25_Node000019_Node000008"><a xlink:title=" ">
<path fill="none" stroke="#63b8ff" d="M496.09,-121.11C507.96,-121.05 520.28,-120.99 532.3,-120.92"/>
<polygon fill="#63b8ff" stroke="#63b8ff" points="532.33,-124.42 542.31,-120.87 532.29,-117.42 532.33,-124.42"/>
</a>
</g>
</g>
<!-- Node20 -->
<g id="Node000020" class="node">
<title>Node20</title>
<g id="a_Node000020"><a xlink:href="classUnit.html#a8cdc0251f650f6b873070e9b8af2bc5d" target="_top" xlink:title=" ">
<polygon fill="white" stroke="#666666" points="688.5,-167 542.5,-167 542.5,-148 688.5,-148 688.5,-167"/>
<text text-anchor="middle" x="615.5" y="-155" font-family="Helvetica,sans-Serif" font-size="10.00">Unit::setAttackPowerMods</text>
</a>
</g>
</g>
<!-- Node19&#45;&gt;Node20 -->
<g id="edge26_Node000019_Node000020" class="edge">
<title>Node19&#45;&gt;Node20</title>
<g id="a_edge26_Node000019_Node000020"><a xlink:title=" ">
<path fill="none" stroke="#63b8ff" d="M472.09,-131.01C496.9,-135.62 526.91,-141.2 552.97,-146.05"/>
<polygon fill="#63b8ff" stroke="#63b8ff" points="552.65,-149.55 563.12,-147.94 553.93,-142.67 552.65,-149.55"/>
</a>
</g>
</g>
<!-- Node20&#45;&gt;Node4 -->
<g id="edge27_Node000020_Node000004" class="edge">
<title>Node20&#45;&gt;Node4</title>
<g id="a_edge27_Node000020_Node000004"><a xlink:title=" ">
<path fill="none" stroke="#63b8ff" d="M688.54,-157.5C700.61,-157.5 712.92,-157.5 724.36,-157.5"/>
<polygon fill="#63b8ff" stroke="#63b8ff" points="724.59,-161 734.59,-157.5 724.59,-154 724.59,-161"/>
</a>
</g>
</g>
<!-- Node20&#45;&gt;Node12 -->
<g id="edge28_Node000020_Node000012" class="edge">
<title>Node20&#45;&gt;Node12</title>
<g id="a_edge28_Node000020_Node000012"><a xlink:title=" ">
<path fill="none" stroke="#63b8ff" d="M636.76,-167.13C664.66,-180.37 715.05,-204.31 747.09,-219.53"/>
<polygon fill="#63b8ff" stroke="#63b8ff" points="745.87,-222.82 756.4,-223.95 748.87,-216.5 745.87,-222.82"/>
</a>
</g>
</g>
</g>
</svg>
