<?xml version="1.0" encoding="UTF-8" standalone="no"?>
<!DOCTYPE svg PUBLIC "-//W3C//DTD SVG 1.1//EN"
 "http://www.w3.org/Graphics/SVG/1.1/DTD/svg11.dtd">
<!-- Generated by graphviz version 2.43.0 (0)
 -->
<!-- Title: LuaUnit::HandleEvent Pages: 1 -->
<svg width="472pt" height="138pt"
 viewBox="0.00 0.00 472.00 138.00" xmlns="http://www.w3.org/2000/svg" xmlns:xlink="http://www.w3.org/1999/xlink">

<svg id="main" version="1.1" xmlns="http://www.w3.org/2000/svg" xmlns:xlink="http://www.w3.org/1999/xlink" xml:space="preserve" onload="init(evt)">
<style type="text/css"><![CDATA[
.node, .edge {opacity: 0.7;}
.node.selected, .edge.selected {opacity: 1;}
.edge:hover path { stroke: red; }
.edge:hover polygon { stroke: red; fill: red; }
]]></style>
<script type="application/ecmascript" xlink:href="svg.min.js"/>
<svg id="graph" class="graph">
<g id="graph0" class="graph" transform="scale(1 1) rotate(0) translate(4 134)">
<title>LuaUnit::HandleEvent</title>
<!-- Node1 -->
<g id="Node000001" class="node">
<title>Node1</title>
<g id="a_Node000001"><a xlink:title=" ">
<polygon fill="#999999" stroke="#666666" points="122,-74 0,-74 0,-55 122,-55 122,-74"/>
<text text-anchor="middle" x="61" y="-62" font-family="Helvetica,sans-Serif" font-size="10.00">LuaUnit::HandleEvent</text>
</a>
</g>
</g>
<!-- Node2 -->
<g id="Node000002" class="node">
<title>Node2</title>
<g id="a_Node000002"><a xlink:href="classUnit.html#ac31c5d768d09773dcbdd613b24e10f50" target="_top" xlink:title=" ">
<polygon fill="white" stroke="#666666" points="282.5,-130 170.5,-130 170.5,-111 282.5,-111 282.5,-130"/>
<text text-anchor="middle" x="226.5" y="-118" font-family="Helvetica,sans-Serif" font-size="10.00">Unit::getAIInterface</text>
</a>
</g>
</g>
<!-- Node1&#45;&gt;Node2 -->
<g id="edge1_Node000001_Node000002" class="edge">
<title>Node1&#45;&gt;Node2</title>
<g id="a_edge1_Node000001_Node000002"><a xlink:title=" ">
<path fill="none" stroke="#63b8ff" d="M84.23,-74.15C103.52,-82.32 132.3,-94.02 158,-102.5 164.05,-104.5 170.45,-106.43 176.81,-108.24"/>
<polygon fill="#63b8ff" stroke="#63b8ff" points="176.15,-111.69 186.72,-110.99 178.02,-104.94 176.15,-111.69"/>
</a>
</g>
</g>
<!-- Node3 -->
<g id="Node000003" class="node">
<title>Node3</title>
<g id="a_Node000003"><a xlink:href="classAIInterface.html#a109c76ffd23ad0c50965b39a5269d49f" target="_top" xlink:title=" ">
<polygon fill="white" stroke="#666666" points="295,-93 158,-93 158,-74 295,-74 295,-93"/>
<text text-anchor="middle" x="226.5" y="-81" font-family="Helvetica,sans-Serif" font-size="10.00">AIInterface::handleEvent</text>
</a>
</g>
</g>
<!-- Node1&#45;&gt;Node3 -->
<g id="edge2_Node000001_Node000003" class="edge">
<title>Node1&#45;&gt;Node3</title>
<g id="a_edge2_Node000001_Node000003"><a xlink:title=" ">
<path fill="none" stroke="#63b8ff" d="M122.42,-71.52C130.72,-72.49 139.34,-73.49 147.9,-74.48"/>
<polygon fill="#63b8ff" stroke="#63b8ff" points="147.56,-77.97 157.89,-75.64 148.37,-71.01 147.56,-77.97"/>
</a>
</g>
</g>
<!-- Node4 -->
<g id="Node000004" class="node">
<title>Node4</title>
<g id="a_Node000004"><a xlink:href="classObject.html#ad867b68be484ae121ca3b1cb4e947244" target="_top" xlink:title=" ">
<polygon fill="white" stroke="#666666" points="278.5,-56 174.5,-56 174.5,-37 278.5,-37 278.5,-56"/>
<text text-anchor="middle" x="226.5" y="-44" font-family="Helvetica,sans-Serif" font-size="10.00">Object::isCreature</text>
</a>
</g>
</g>
<!-- Node1&#45;&gt;Node4 -->
<g id="edge3_Node000001_Node000004" class="edge">
<title>Node1&#45;&gt;Node4</title>
<g id="a_edge3_Node000001_Node000004"><a xlink:title=" ">
<path fill="none" stroke="#63b8ff" d="M122.42,-57.85C136.04,-56.35 150.52,-54.75 164.19,-53.25"/>
<polygon fill="#63b8ff" stroke="#63b8ff" points="164.89,-56.69 174.45,-52.12 164.13,-49.74 164.89,-56.69"/>
</a>
</g>
</g>
<!-- Node6 -->
<g id="Node000006" class="node">
<title>Node6</title>
<g id="a_Node000006"><a xlink:href="classObject.html#a3aeab7def818ba6c50249f197ad2f9ca" target="_top" xlink:title=" ">
<polygon fill="white" stroke="#666666" points="276,-19 177,-19 177,0 276,0 276,-19"/>
<text text-anchor="middle" x="226.5" y="-7" font-family="Helvetica,sans-Serif" font-size="10.00">Object::IsInWorld</text>
</a>
</g>
</g>
<!-- Node1&#45;&gt;Node6 -->
<g id="edge5_Node000001_Node000006" class="edge">
<title>Node1&#45;&gt;Node6</title>
<g id="a_edge5_Node000001_Node000006"><a xlink:title=" ">
<path fill="none" stroke="#63b8ff" d="M85.87,-54.91C105.17,-47.31 133.13,-36.65 158,-28.5 164.92,-26.23 172.29,-23.99 179.52,-21.88"/>
<polygon fill="#63b8ff" stroke="#63b8ff" points="180.6,-25.21 189.25,-19.1 178.67,-18.48 180.6,-25.21"/>
</a>
</g>
</g>
<!-- Node5 -->
<g id="Node000005" class="node">
<title>Node5</title>
<g id="a_Node000005"><a xlink:href="classObject.html#aaee2ed63355af5e632aba82f859822b4" target="_top" xlink:title=" ">
<polygon fill="white" stroke="#666666" points="464,-56 331,-56 331,-37 464,-37 464,-56"/>
<text text-anchor="middle" x="397.5" y="-44" font-family="Helvetica,sans-Serif" font-size="10.00">Object::getObjectTypeId</text>
</a>
</g>
</g>
<!-- Node4&#45;&gt;Node5 -->
<g id="edge4_Node000004_Node000005" class="edge">
<title>Node4&#45;&gt;Node5</title>
<g id="a_edge4_Node000004_Node000005"><a xlink:title=" ">
<path fill="none" stroke="#63b8ff" d="M278.66,-46.5C291.88,-46.5 306.38,-46.5 320.56,-46.5"/>
<polygon fill="#63b8ff" stroke="#63b8ff" points="320.81,-50 330.81,-46.5 320.81,-43 320.81,-50"/>
</a>
</g>
</g>
</g>
</svg>
</svg>

<style type='text/css'>
<![CDATA[
[data-mouse-over-selected='false'] { opacity: 0.7; }
[data-mouse-over-selected='true']  { opacity: 1.0; }
]]>
</style>
<script type="application/ecmascript"><![CDATA[
document.addEventListener('DOMContentLoaded', (event) => {
  highlightEdges();
  highlightAdjacentNodes();
});
]]></script>
</svg>
