<?xml version="1.0" encoding="UTF-8" standalone="no"?>
<!DOCTYPE svg PUBLIC "-//W3C//DTD SVG 1.1//EN"
 "http://www.w3.org/Graphics/SVG/1.1/DTD/svg11.dtd">
<!-- Generated by graphviz version 2.43.0 (0)
 -->
<!-- Title: SpellInfo::isDamagingSpell Pages: 1 -->
<svg width="686pt" height="113pt"
 viewBox="0.00 0.00 686.00 112.50" xmlns="http://www.w3.org/2000/svg" xmlns:xlink="http://www.w3.org/1999/xlink">
<g id="graph0" class="graph" transform="scale(1 1) rotate(0) translate(4 108.5)">
<title>SpellInfo::isDamagingSpell</title>
<!-- Node1 -->
<g id="Node000001" class="node">
<title>Node1</title>
<g id="a_Node000001"><a xlink:title=" ">
<polygon fill="#999999" stroke="#666666" points="148,-67.5 0,-67.5 0,-48.5 148,-48.5 148,-67.5"/>
<text text-anchor="middle" x="74" y="-55.5" font-family="Helvetica,sans-Serif" font-size="10.00">SpellInfo::isDamagingSpell</text>
</a>
</g>
</g>
<!-- Node2 -->
<g id="Node000002" class="node">
<title>Node2</title>
<g id="a_Node000002"><a xlink:href="classSpellInfo.html#a9322d21347fe0c16563eb5f202bcfb10" target="_top" xlink:title=" ">
<polygon fill="white" stroke="#666666" points="345,-104.5 184,-104.5 184,-85.5 345,-85.5 345,-104.5"/>
<text text-anchor="middle" x="264.5" y="-92.5" font-family="Helvetica,sans-Serif" font-size="10.00">SpellInfo::hasDamagingEffect</text>
</a>
</g>
</g>
<!-- Node1&#45;&gt;Node2 -->
<g id="edge1_Node000001_Node000002" class="edge">
<title>Node1&#45;&gt;Node2</title>
<g id="a_edge1_Node000001_Node000002"><a xlink:title=" ">
<path fill="none" stroke="#63b8ff" d="M123.54,-67.53C148.29,-72.39 178.59,-78.33 204.66,-83.45"/>
<polygon fill="#63b8ff" stroke="#63b8ff" points="204.31,-86.95 214.79,-85.44 205.66,-80.08 204.31,-86.95"/>
</a>
</g>
</g>
<!-- Node5 -->
<g id="Node000005" class="node">
<title>Node5</title>
<g id="a_Node000005"><a xlink:href="classSpellInfo.html#a532e1923d89941a58bc77917132aa21b" target="_top" xlink:title=" ">
<polygon fill="white" stroke="#666666" points="319.5,-67.5 209.5,-67.5 209.5,-48.5 319.5,-48.5 319.5,-67.5"/>
<text text-anchor="middle" x="264.5" y="-55.5" font-family="Helvetica,sans-Serif" font-size="10.00">SpellInfo::hasEffect</text>
</a>
</g>
</g>
<!-- Node1&#45;&gt;Node5 -->
<g id="edge4_Node000001_Node000005" class="edge">
<title>Node1&#45;&gt;Node5</title>
<g id="a_edge4_Node000001_Node000005"><a xlink:title=" ">
<path fill="none" stroke="#63b8ff" d="M148.15,-58C165.03,-58 182.87,-58 199.33,-58"/>
<polygon fill="#63b8ff" stroke="#63b8ff" points="199.39,-61.5 209.39,-58 199.39,-54.5 199.39,-61.5"/>
</a>
</g>
</g>
<!-- Node6 -->
<g id="Node000006" class="node">
<title>Node6</title>
<g id="a_Node000006"><a xlink:href="classSpellInfo.html#a5f71ae4b56e9e31e81ae1e91e8ab1fcb" target="_top" xlink:title=" ">
<polygon fill="white" stroke="#666666" points="333.5,-30 195.5,-30 195.5,0 333.5,0 333.5,-30"/>
<text text-anchor="start" x="203.5" y="-18" font-family="Helvetica,sans-Serif" font-size="10.00">SpellInfo::hasEffectApply</text>
<text text-anchor="middle" x="264.5" y="-7" font-family="Helvetica,sans-Serif" font-size="10.00">AuraName</text>
</a>
</g>
</g>
<!-- Node1&#45;&gt;Node6 -->
<g id="edge5_Node000001_Node000006" class="edge">
<title>Node1&#45;&gt;Node6</title>
<g id="a_edge5_Node000001_Node000006"><a xlink:title=" ">
<path fill="none" stroke="#63b8ff" d="M116.83,-48.46C137.71,-43.69 163.62,-37.78 187.83,-32.26"/>
<polygon fill="#63b8ff" stroke="#63b8ff" points="188.75,-35.64 197.72,-30.01 187.19,-28.82 188.75,-35.64"/>
</a>
</g>
</g>
<!-- Node3 -->
<g id="Node000003" class="node">
<title>Node3</title>
<g id="a_Node000003"><a xlink:href="classSpellInfo.html#abc0cba6ec154ec5fd4f923026366faf0" target="_top" xlink:title=" ">
<polygon fill="white" stroke="#666666" points="533,-104.5 381,-104.5 381,-85.5 533,-85.5 533,-104.5"/>
<text text-anchor="middle" x="457" y="-92.5" font-family="Helvetica,sans-Serif" font-size="10.00">SpellInfo::isDamagingEffect</text>
</a>
</g>
</g>
<!-- Node2&#45;&gt;Node3 -->
<g id="edge2_Node000002_Node000003" class="edge">
<title>Node2&#45;&gt;Node3</title>
<g id="a_edge2_Node000002_Node000003"><a xlink:title=" ">
<path fill="none" stroke="#63b8ff" d="M345.19,-95C353.59,-95 362.17,-95 370.64,-95"/>
<polygon fill="#63b8ff" stroke="#63b8ff" points="370.9,-98.5 380.9,-95 370.9,-91.5 370.9,-98.5"/>
</a>
</g>
</g>
<!-- Node4 -->
<g id="Node000004" class="node">
<title>Node4</title>
<g id="a_Node000004"><a xlink:href="classSpellInfo.html#ad17110cdb48d93fcd08303092ab41d7a" target="_top" xlink:title=" ">
<polygon fill="white" stroke="#666666" points="678,-104.5 569,-104.5 569,-85.5 678,-85.5 678,-104.5"/>
<text text-anchor="middle" x="623.5" y="-92.5" font-family="Helvetica,sans-Serif" font-size="10.00">SpellInfo::getEffect</text>
</a>
</g>
</g>
<!-- Node3&#45;&gt;Node4 -->
<g id="edge3_Node000003_Node000004" class="edge">
<title>Node3&#45;&gt;Node4</title>
<g id="a_edge3_Node000003_Node000004"><a xlink:title=" ">
<path fill="none" stroke="#63b8ff" d="M533.03,-95C541.58,-95 550.24,-95 558.63,-95"/>
<polygon fill="#63b8ff" stroke="#63b8ff" points="558.71,-98.5 568.71,-95 558.71,-91.5 558.71,-98.5"/>
</a>
</g>
</g>
</g>
</svg>
