<?xml version="1.0" encoding="UTF-8" standalone="no"?>
<!DOCTYPE svg PUBLIC "-//W3C//DTD SVG 1.1//EN"
 "http://www.w3.org/Graphics/SVG/1.1/DTD/svg11.dtd">
<!-- Generated by graphviz version 2.43.0 (0)
 -->
<!-- Title: Object::BuildFieldUpdatePacket Pages: 1 -->
<svg width="1560pt" height="589pt"
 viewBox="0.00 0.00 1560.00 589.00" xmlns="http://www.w3.org/2000/svg" xmlns:xlink="http://www.w3.org/1999/xlink">
<g id="graph0" class="graph" transform="scale(1 1) rotate(0) translate(4 585)">
<title>Object::BuildFieldUpdatePacket</title>
<!-- Node1 -->
<g id="Node000001" class="node">
<title>Node1</title>
<g id="a_Node000001"><a xlink:title=" ">
<polygon fill="#999999" stroke="#666666" points="137,-260.5 0,-260.5 0,-230.5 137,-230.5 137,-260.5"/>
<text text-anchor="start" x="8" y="-248.5" font-family="Helvetica,sans-Serif" font-size="10.00">Object::BuildFieldUpdate</text>
<text text-anchor="middle" x="68.5" y="-237.5" font-family="Helvetica,sans-Serif" font-size="10.00">Packet</text>
</a>
</g>
</g>
<!-- Node2 -->
<g id="Node000002" class="node">
<title>Node2</title>
<g id="a_Node000002"><a xlink:href="classByteBuffer.html#a5811e6da355e8c3d0f45997a557a666b" target="_top" xlink:title=" ">
<polygon fill="white" stroke="#666666" points="956.5,-581 846.5,-581 846.5,-562 956.5,-562 956.5,-581"/>
<text text-anchor="middle" x="901.5" y="-569" font-family="Helvetica,sans-Serif" font-size="10.00">ByteBuffer::append</text>
</a>
</g>
</g>
<!-- Node1&#45;&gt;Node2 -->
<g id="edge1_Node000001_Node000002" class="edge">
<title>Node1&#45;&gt;Node2</title>
<g id="a_edge1_Node000001_Node000002"><a xlink:title=" ">
<path fill="none" stroke="#63b8ff" d="M100.72,-260.57C181.89,-299.47 406.69,-405.27 600,-478.5 692.53,-513.55 717.26,-517.93 812,-546.5 826.15,-550.77 841.63,-555.21 855.63,-559.16"/>
<polygon fill="#63b8ff" stroke="#63b8ff" points="854.96,-562.6 865.53,-561.93 856.84,-555.86 854.96,-562.6"/>
</a>
</g>
</g>
<!-- Node3 -->
<g id="Node000003" class="node">
<title>Node3</title>
<g id="a_Node000003"><a xlink:href="classObject.html#aa3aa013391499be85d7ec4cebbd9dcfb" target="_top" xlink:title=" ">
<polygon fill="white" stroke="#666666" points="323.5,-237 204.5,-237 204.5,-218 323.5,-218 323.5,-237"/>
<text text-anchor="middle" x="264" y="-225" font-family="Helvetica,sans-Serif" font-size="10.00">Object::GetNewGUID</text>
</a>
</g>
</g>
<!-- Node1&#45;&gt;Node3 -->
<g id="edge2_Node000001_Node000003" class="edge">
<title>Node1&#45;&gt;Node3</title>
<g id="a_edge2_Node000001_Node000003"><a xlink:title=" ">
<path fill="none" stroke="#63b8ff" d="M137.18,-239.2C155.66,-237.49 175.7,-235.62 194.25,-233.9"/>
<polygon fill="#63b8ff" stroke="#63b8ff" points="194.74,-237.36 204.37,-232.95 194.09,-230.4 194.74,-237.36"/>
</a>
</g>
</g>
<!-- Node4 -->
<g id="Node000004" class="node">
<title>Node4</title>
<g id="a_Node000004"><a xlink:href="classPlayer.html#a5e665a3d864c4b0152adbb9333e07b00" target="_top" xlink:title=" ">
<polygon fill="white" stroke="#666666" points="325.5,-200 202.5,-200 202.5,-181 325.5,-181 325.5,-200"/>
<text text-anchor="middle" x="264" y="-188" font-family="Helvetica,sans-Serif" font-size="10.00">Player::getUpdateMgr</text>
</a>
</g>
</g>
<!-- Node1&#45;&gt;Node4 -->
<g id="edge3_Node000001_Node000004" class="edge">
<title>Node1&#45;&gt;Node4</title>
<g id="a_edge3_Node000001_Node000004"><a xlink:title=" ">
<path fill="none" stroke="#63b8ff" d="M108.94,-230.46C128.09,-223.5 151.56,-215.47 173,-209.5 182.46,-206.87 192.57,-204.4 202.47,-202.18"/>
<polygon fill="#63b8ff" stroke="#63b8ff" points="203.25,-205.59 212.27,-200.04 201.75,-198.75 203.25,-205.59"/>
</a>
</g>
</g>
<!-- Node5 -->
<g id="Node000005" class="node">
<title>Node5</title>
<g id="a_Node000005"><a xlink:href="classUpdateManager.html#ac878f7055dd1846297174d8d3b07d3c7" target="_top" xlink:title=" ">
<polygon fill="white" stroke="#666666" points="355,-274 173,-274 173,-255 355,-255 355,-274"/>
<text text-anchor="middle" x="264" y="-262" font-family="Helvetica,sans-Serif" font-size="10.00">UpdateManager::pushUpdateData</text>
</a>
</g>
</g>
<!-- Node1&#45;&gt;Node5 -->
<g id="edge4_Node000001_Node000005" class="edge">
<title>Node1&#45;&gt;Node5</title>
<g id="a_edge4_Node000001_Node000005"><a xlink:title=" ">
<path fill="none" stroke="#63b8ff" d="M137.18,-252.15C145.48,-252.96 154.1,-253.81 162.75,-254.66"/>
<polygon fill="#63b8ff" stroke="#63b8ff" points="162.62,-258.16 172.92,-255.65 163.31,-251.19 162.62,-258.16"/>
</a>
</g>
</g>
<!-- Node5&#45;&gt;Node2 -->
<g id="edge5_Node000005_Node000002" class="edge">
<title>Node5&#45;&gt;Node2</title>
<g id="a_edge5_Node000005_Node000002"><a xlink:title=" ">
<path fill="none" stroke="#63b8ff" d="M290.22,-274.05C366.89,-303.65 602.48,-398.92 776,-515.5 793.77,-527.44 793.17,-537.32 812,-547.5 820.52,-552.11 829.99,-555.88 839.48,-558.96"/>
<polygon fill="#63b8ff" stroke="#63b8ff" points="838.75,-562.39 849.34,-561.92 840.77,-555.69 838.75,-562.39"/>
</a>
</g>
</g>
<!-- Node6 -->
<g id="Node000006" class="node">
<title>Node6</title>
<g id="a_Node000006"><a xlink:href="classUpdateManager.html#ab759168bf438075e225a1ae2f497f066" target="_top" xlink:title=" ">
<polygon fill="white" stroke="#666666" points="558,-279.5 397,-279.5 397,-249.5 558,-249.5 558,-279.5"/>
<text text-anchor="start" x="405" y="-267.5" font-family="Helvetica,sans-Serif" font-size="10.00">UpdateManager::internalPush</text>
<text text-anchor="middle" x="477.5" y="-256.5" font-family="Helvetica,sans-Serif" font-size="10.00">UpdatesIfBufferIsFull</text>
</a>
</g>
</g>
<!-- Node5&#45;&gt;Node6 -->
<g id="edge6_Node000005_Node000006" class="edge">
<title>Node5&#45;&gt;Node6</title>
<g id="a_edge6_Node000005_Node000006"><a xlink:title=" ">
<path fill="none" stroke="#63b8ff" d="M355,-264.5C365.57,-264.5 376.35,-264.5 386.91,-264.5"/>
<polygon fill="#63b8ff" stroke="#63b8ff" points="386.95,-268 396.95,-264.5 386.95,-261 386.95,-268"/>
</a>
</g>
</g>
<!-- Node8 -->
<g id="Node000008" class="node">
<title>Node8</title>
<g id="a_Node000008"><a xlink:href="classByteBuffer.html#ac06a598447807d32f6594a97a32bce94" target="_top" xlink:title=" ">
<polygon fill="white" stroke="#666666" points="1531,-182 1437,-182 1437,-163 1531,-163 1531,-182"/>
<text text-anchor="middle" x="1484" y="-170" font-family="Helvetica,sans-Serif" font-size="10.00">ByteBuffer::size</text>
</a>
</g>
</g>
<!-- Node5&#45;&gt;Node8 -->
<g id="edge37_Node000005_Node000008" class="edge">
<title>Node5&#45;&gt;Node8</title>
<g id="a_edge37_Node000005_Node000008"><a xlink:title=" ">
<path fill="none" stroke="#63b8ff" d="M323.66,-254.99C334.22,-252.66 345.03,-249.84 355,-246.5 510.31,-194.47 523.2,-86.5 687,-86.5 687,-86.5 687,-86.5 1117.5,-86.5 1243.11,-86.5 1386.7,-135.22 1450.04,-159.32"/>
<polygon fill="#63b8ff" stroke="#63b8ff" points="1448.91,-162.64 1459.5,-162.97 1451.43,-156.11 1448.91,-162.64"/>
</a>
</g>
</g>
<!-- Node24 -->
<g id="Node000024" class="node">
<title>Node24</title>
<g id="a_Node000024"><a xlink:href="classUpdateManager.html#a595fcddb5fbffd30f7b085c25d12b3d3" target="_top" xlink:title=" ">
<polygon fill="white" stroke="#666666" points="564,-58.5 391,-58.5 391,-28.5 564,-28.5 564,-58.5"/>
<text text-anchor="start" x="399" y="-46.5" font-family="Helvetica,sans-Serif" font-size="10.00">UpdateManager::internalUpdate</text>
<text text-anchor="middle" x="477.5" y="-35.5" font-family="Helvetica,sans-Serif" font-size="10.00">MapMgr</text>
</a>
</g>
</g>
<!-- Node5&#45;&gt;Node24 -->
<g id="edge34_Node000005_Node000024" class="edge">
<title>Node5&#45;&gt;Node24</title>
<g id="a_edge34_Node000005_Node000024"><a xlink:title=" ">
<path fill="none" stroke="#63b8ff" d="M344.06,-254.82C348.03,-252.51 351.72,-249.76 355,-246.5 411.03,-190.84 338.7,-131.67 391,-72.5 393.73,-69.42 396.79,-66.66 400.1,-64.2"/>
<polygon fill="#63b8ff" stroke="#63b8ff" points="402.22,-67 408.76,-58.66 398.45,-61.1 402.22,-67"/>
</a>
</g>
</g>
<!-- Node7 -->
<g id="Node000007" class="node">
<title>Node7</title>
<g id="a_Node000007"><a xlink:href="classUpdateManager.html#aeabae63c1170b575090d845b42c7ef0c" target="_top" xlink:title=" ">
<polygon fill="white" stroke="#666666" points="974,-144.5 829,-144.5 829,-114.5 974,-114.5 974,-144.5"/>
<text text-anchor="start" x="837" y="-132.5" font-family="Helvetica,sans-Serif" font-size="10.00">UpdateManager::calculate</text>
<text text-anchor="middle" x="901.5" y="-121.5" font-family="Helvetica,sans-Serif" font-size="10.00">BufferSize</text>
</a>
</g>
</g>
<!-- Node6&#45;&gt;Node7 -->
<g id="edge7_Node000006_Node000007" class="edge">
<title>Node6&#45;&gt;Node7</title>
<g id="a_edge7_Node000006_Node000007"><a xlink:title=" ">
<path fill="none" stroke="#63b8ff" d="M525.68,-249.41C603.78,-224.42 759.63,-174.56 843.67,-147.68"/>
<polygon fill="#63b8ff" stroke="#63b8ff" points="844.84,-150.98 853.3,-144.6 842.71,-144.31 844.84,-150.98"/>
</a>
</g>
</g>
<!-- Node9 -->
<g id="Node000009" class="node">
<title>Node9</title>
<g id="a_Node000009"><a xlink:href="classUpdateManager.html#aecef5fff0183fd74ca24d7f1084dddd8" target="_top" xlink:title=" ">
<polygon fill="white" stroke="#666666" points="776,-338.5 600,-338.5 600,-308.5 776,-308.5 776,-338.5"/>
<text text-anchor="start" x="608" y="-326.5" font-family="Helvetica,sans-Serif" font-size="10.00">UpdateManager::internalProcess</text>
<text text-anchor="middle" x="688" y="-315.5" font-family="Helvetica,sans-Serif" font-size="10.00">PendingUpdates</text>
</a>
</g>
</g>
<!-- Node6&#45;&gt;Node9 -->
<g id="edge9_Node000006_Node000009" class="edge">
<title>Node6&#45;&gt;Node9</title>
<g id="a_edge9_Node000006_Node000009"><a xlink:title=" ">
<path fill="none" stroke="#63b8ff" d="M531.65,-279.54C559.84,-287.52 594.64,-297.36 624.15,-305.72"/>
<polygon fill="#63b8ff" stroke="#63b8ff" points="623.37,-309.13 633.94,-308.49 625.28,-302.4 623.37,-309.13"/>
</a>
</g>
</g>
<!-- Node7&#45;&gt;Node8 -->
<g id="edge8_Node000007_Node000008" class="edge">
<title>Node7&#45;&gt;Node8</title>
<g id="a_edge8_Node000007_Node000008"><a xlink:title=" ">
<path fill="none" stroke="#63b8ff" d="M974.26,-134.82C1091.25,-143.48 1320.64,-160.47 1426.73,-168.33"/>
<polygon fill="#63b8ff" stroke="#63b8ff" points="1426.67,-171.84 1436.9,-169.09 1427.19,-164.86 1426.67,-171.84"/>
</a>
</g>
</g>
<!-- Node9&#45;&gt;Node2 -->
<g id="edge10_Node000009_Node000002" class="edge">
<title>Node9&#45;&gt;Node2</title>
<g id="a_edge10_Node000009_Node000002"><a xlink:title=" ">
<path fill="none" stroke="#63b8ff" d="M715.84,-338.71C735.45,-351.21 761.12,-370.7 776,-394.5 813.03,-453.73 763.44,-497.28 812,-547.5 818.82,-554.55 827.48,-559.6 836.7,-563.2"/>
<polygon fill="#63b8ff" stroke="#63b8ff" points="835.87,-566.61 846.46,-566.45 838.08,-559.97 835.87,-566.61"/>
</a>
</g>
</g>
<!-- Node9&#45;&gt;Node7 -->
<g id="edge11_Node000009_Node000007" class="edge">
<title>Node9&#45;&gt;Node7</title>
<g id="a_edge11_Node000009_Node000007"><a xlink:title=" ">
<path fill="none" stroke="#63b8ff" d="M703.1,-308.28C721.04,-288.57 752.51,-252.77 776,-219.5 794.16,-193.79 787.47,-178.22 812,-158.5 816.52,-154.87 821.51,-151.68 826.75,-148.89"/>
<polygon fill="#63b8ff" stroke="#63b8ff" points="828.28,-152.04 835.77,-144.56 825.24,-145.73 828.28,-152.04"/>
</a>
</g>
</g>
<!-- Node9&#45;&gt;Node8 -->
<g id="edge32_Node000009_Node000008" class="edge">
<title>Node9&#45;&gt;Node8</title>
<g id="a_edge32_Node000009_Node000008"><a xlink:title=" ">
<path fill="none" stroke="#63b8ff" d="M769.63,-338.51C830.76,-347.5 916.65,-354.98 991,-342.5 1173.53,-311.85 1378.9,-221.44 1453.74,-186.5"/>
<polygon fill="#63b8ff" stroke="#63b8ff" points="1455.46,-189.56 1463.02,-182.14 1452.48,-183.23 1455.46,-189.56"/>
</a>
</g>
</g>
<!-- Node10 -->
<g id="Node000010" class="node">
<title>Node10</title>
<g id="a_Node000010"><a xlink:href="classByteBuffer.html#ab9fbbcf0abe4049e2016c1262795c97e" target="_top" xlink:title=" ">
<polygon fill="white" stroke="#666666" points="950.5,-220 852.5,-220 852.5,-201 950.5,-201 950.5,-220"/>
<text text-anchor="middle" x="901.5" y="-208" font-family="Helvetica,sans-Serif" font-size="10.00">ByteBuffer::clear</text>
</a>
</g>
</g>
<!-- Node9&#45;&gt;Node10 -->
<g id="edge12_Node000009_Node000010" class="edge">
<title>Node9&#45;&gt;Node10</title>
<g id="a_edge12_Node000009_Node000010"><a xlink:title=" ">
<path fill="none" stroke="#63b8ff" d="M705.65,-308.38C728.18,-288.67 770.38,-254.38 812,-234.5 821.79,-229.82 832.64,-225.94 843.29,-222.75"/>
<polygon fill="#63b8ff" stroke="#63b8ff" points="844.3,-226.1 852.97,-220.02 842.4,-219.36 844.3,-226.1"/>
</a>
</g>
</g>
<!-- Node11 -->
<g id="Node000011" class="node">
<title>Node11</title>
<g id="a_Node000011"><a xlink:href="classPlayer.html#a4d70bcb450d6e86232d25b3970fc4d21" target="_top" xlink:title=" ">
<polygon fill="white" stroke="#666666" points="991,-505.5 812,-505.5 812,-475.5 991,-475.5 991,-505.5"/>
<text text-anchor="start" x="820" y="-493.5" font-family="Helvetica,sans-Serif" font-size="10.00">Player::compressAndSendUpdate</text>
<text text-anchor="middle" x="901.5" y="-482.5" font-family="Helvetica,sans-Serif" font-size="10.00">Buffer</text>
</a>
</g>
</g>
<!-- Node9&#45;&gt;Node11 -->
<g id="edge13_Node000009_Node000011" class="edge">
<title>Node9&#45;&gt;Node11</title>
<g id="a_edge13_Node000009_Node000011"><a xlink:title=" ">
<path fill="none" stroke="#63b8ff" d="M712.2,-338.6C731.08,-351.72 757.52,-372.09 776,-394.5 797.51,-420.58 786.08,-439.8 812,-461.5 816.18,-465 820.8,-468.09 825.67,-470.8"/>
<polygon fill="#63b8ff" stroke="#63b8ff" points="824.15,-473.95 834.65,-475.3 827.28,-467.69 824.15,-473.95"/>
</a>
</g>
</g>
<!-- Node12 -->
<g id="Node000012" class="node">
<title>Node12</title>
<g id="a_Node000012"><a xlink:href="classWorldSession.html#a04ff79d4ef0fe6628465984f414b59a1" target="_top" xlink:title=" ">
<polygon fill="white" stroke="#666666" points="1185,-484 1048,-484 1048,-465 1185,-465 1185,-484"/>
<text text-anchor="middle" x="1116.5" y="-472" font-family="Helvetica,sans-Serif" font-size="10.00">WorldSession::OutPacket</text>
</a>
</g>
</g>
<!-- Node9&#45;&gt;Node12 -->
<g id="edge29_Node000009_Node000012" class="edge">
<title>Node9&#45;&gt;Node12</title>
<g id="a_edge29_Node000009_Node000012"><a xlink:title=" ">
<path fill="none" stroke="#63b8ff" d="M708.34,-338.62C726.19,-352.74 753.29,-374.56 776,-394.5 792.54,-409.02 792.22,-418.86 812,-428.5 850.68,-447.36 961.34,-460.73 1037.77,-468.03"/>
<polygon fill="#63b8ff" stroke="#63b8ff" points="1037.57,-471.53 1047.85,-468.98 1038.22,-464.56 1037.57,-471.53"/>
</a>
</g>
</g>
<!-- Node15 -->
<g id="Node000015" class="node">
<title>Node15</title>
<g id="a_Node000015"><a xlink:href="classByteBuffer.html#a8d712af2767c7ca45de60bd9d85738d8" target="_top" xlink:title=" ">
<polygon fill="white" stroke="#666666" points="1542,-487 1426,-487 1426,-468 1542,-468 1542,-487"/>
<text text-anchor="middle" x="1484" y="-475" font-family="Helvetica,sans-Serif" font-size="10.00">ByteBuffer::contents</text>
</a>
</g>
</g>
<!-- Node9&#45;&gt;Node15 -->
<g id="edge17_Node000009_Node000015" class="edge">
<title>Node9&#45;&gt;Node15</title>
<g id="a_edge17_Node000009_Node000015"><a xlink:title=" ">
<path fill="none" stroke="#63b8ff" d="M708.9,-338.57C728.46,-354.32 757.93,-380.72 776,-409.5 802.24,-451.28 771.86,-485.83 812,-514.5 914.71,-587.87 1255.65,-536.16 1380,-514.5 1405.74,-510.02 1433.54,-499.68 1453.77,-491.06"/>
<polygon fill="#63b8ff" stroke="#63b8ff" points="1455.28,-494.22 1463.05,-487.01 1452.48,-487.81 1455.28,-494.22"/>
</a>
</g>
</g>
<!-- Node16 -->
<g id="Node000016" class="node">
<title>Node16</title>
<g id="a_Node000016"><a xlink:href="classObject.html#a83139f119f64cd17f1dfa756e8aa5d0e" target="_top" xlink:title=" ">
<polygon fill="white" stroke="#666666" points="952,-333 851,-333 851,-314 952,-314 952,-333"/>
<text text-anchor="middle" x="901.5" y="-321" font-family="Helvetica,sans-Serif" font-size="10.00">Object::GetMapId</text>
</a>
</g>
</g>
<!-- Node9&#45;&gt;Node16 -->
<g id="edge18_Node000009_Node000016" class="edge">
<title>Node9&#45;&gt;Node16</title>
<g id="a_edge18_Node000009_Node000016"><a xlink:title=" ">
<path fill="none" stroke="#63b8ff" d="M776.25,-323.5C797.95,-323.5 820.73,-323.5 840.77,-323.5"/>
<polygon fill="#63b8ff" stroke="#63b8ff" points="840.98,-327 850.98,-323.5 840.98,-320 840.98,-327"/>
</a>
</g>
</g>
<!-- Node17 -->
<g id="Node000017" class="node">
<title>Node17</title>
<g id="a_Node000017"><a xlink:href="classPlayer.html#aee195158e07a0138b257f8d1ede0cc6b" target="_top" xlink:title=" ">
<polygon fill="white" stroke="#666666" points="1170,-393 1063,-393 1063,-374 1170,-374 1170,-393"/>
<text text-anchor="middle" x="1116.5" y="-381" font-family="Helvetica,sans-Serif" font-size="10.00">Player::getSession</text>
</a>
</g>
</g>
<!-- Node9&#45;&gt;Node17 -->
<g id="edge19_Node000009_Node000017" class="edge">
<title>Node9&#45;&gt;Node17</title>
<g id="a_edge19_Node000009_Node000017"><a xlink:title=" ">
<path fill="none" stroke="#63b8ff" d="M714.31,-308.37C738.44,-294.87 776.31,-276.12 812,-268.5 889.8,-251.9 916.91,-239.52 991,-268.5 1041.22,-288.15 1083.35,-338.61 1103.23,-365.69"/>
<polygon fill="#63b8ff" stroke="#63b8ff" points="1100.43,-367.8 1109.1,-373.9 1106.13,-363.73 1100.43,-367.8"/>
</a>
</g>
</g>
<!-- Node18 -->
<g id="Node000018" class="node">
<title>Node18</title>
<g id="a_Node000018"><a xlink:href="classUpdateManager.html#aa4e65c72059d55b2460d0c9652c8689a" target="_top" xlink:title=" ">
<polygon fill="white" stroke="#666666" points="982.5,-419.5 820.5,-419.5 820.5,-389.5 982.5,-389.5 982.5,-419.5"/>
<text text-anchor="start" x="828.5" y="-407.5" font-family="Helvetica,sans-Serif" font-size="10.00">UpdateManager::internalSend</text>
<text text-anchor="middle" x="901.5" y="-396.5" font-family="Helvetica,sans-Serif" font-size="10.00">DelayedPackets</text>
</a>
</g>
</g>
<!-- Node9&#45;&gt;Node18 -->
<g id="edge20_Node000009_Node000018" class="edge">
<title>Node9&#45;&gt;Node18</title>
<g id="a_edge20_Node000009_Node000018"><a xlink:title=" ">
<path fill="none" stroke="#63b8ff" d="M722.63,-338.61C747.18,-349.43 781.39,-364.04 812,-375.5 821.75,-379.15 832.2,-382.8 842.38,-386.22"/>
<polygon fill="#63b8ff" stroke="#63b8ff" points="841.43,-389.59 852.02,-389.42 843.63,-382.95 841.43,-389.59"/>
</a>
</g>
</g>
<!-- Node22 -->
<g id="Node000022" class="node">
<title>Node22</title>
<g id="a_Node000022"><a xlink:href="classUpdateManager.html#aae2b44de1c95eccada8f406ea3db38dc" target="_top" xlink:title=" ">
<polygon fill="white" stroke="#666666" points="1206,-182 1027,-182 1027,-163 1206,-163 1206,-182"/>
<text text-anchor="middle" x="1116.5" y="-170" font-family="Helvetica,sans-Serif" font-size="10.00">UpdateManager::readyForUpdate</text>
</a>
</g>
</g>
<!-- Node9&#45;&gt;Node22 -->
<g id="edge30_Node000009_Node000022" class="edge">
<title>Node9&#45;&gt;Node22</title>
<g id="a_edge30_Node000009_Node000022"><a xlink:title=" ">
<path fill="none" stroke="#63b8ff" d="M697.79,-308.28C715.29,-279.62 757.56,-218.22 812,-192.5 881.91,-159.47 971.13,-157.68 1034.7,-162.2"/>
<polygon fill="#63b8ff" stroke="#63b8ff" points="1034.44,-165.69 1044.68,-162.98 1034.98,-158.71 1034.44,-165.69"/>
</a>
</g>
</g>
<!-- Node23 -->
<g id="Node000023" class="node">
<title>Node23</title>
<g id="a_Node000023"><a xlink:href="classByteBuffer.html#acb89f3b8b4044ba9b3ceeb52e014e4cb" target="_top" xlink:title=" ">
<polygon fill="white" stroke="#666666" points="951.5,-296 851.5,-296 851.5,-277 951.5,-277 951.5,-296"/>
<text text-anchor="middle" x="901.5" y="-284" font-family="Helvetica,sans-Serif" font-size="10.00">ByteBuffer::wpos</text>
</a>
</g>
</g>
<!-- Node9&#45;&gt;Node23 -->
<g id="edge33_Node000009_Node000023" class="edge">
<title>Node9&#45;&gt;Node23</title>
<g id="a_edge33_Node000009_Node000023"><a xlink:title=" ">
<path fill="none" stroke="#63b8ff" d="M775.03,-308.45C797.23,-304.57 820.65,-300.47 841.15,-296.88"/>
<polygon fill="#63b8ff" stroke="#63b8ff" points="842.03,-300.28 851.28,-295.11 840.83,-293.39 842.03,-300.28"/>
</a>
</g>
</g>
<!-- Node11&#45;&gt;Node12 -->
<g id="edge14_Node000011_Node000012" class="edge">
<title>Node11&#45;&gt;Node12</title>
<g id="a_edge14_Node000011_Node000012"><a xlink:title=" ">
<path fill="none" stroke="#63b8ff" d="M991.29,-483.83C1006.68,-482.67 1022.59,-481.48 1037.66,-480.35"/>
<polygon fill="#63b8ff" stroke="#63b8ff" points="1038.24,-483.81 1047.95,-479.57 1037.72,-476.83 1038.24,-483.81"/>
</a>
</g>
</g>
<!-- Node13 -->
<g id="Node000013" class="node">
<title>Node13</title>
<g id="a_Node000013"><a xlink:href="classSocket.html#ae3bcf72d932e7b29656d368e81186e6a" target="_top" xlink:title=" ">
<polygon fill="white" stroke="#666666" points="1368.5,-468 1253.5,-468 1253.5,-449 1368.5,-449 1368.5,-468"/>
<text text-anchor="middle" x="1311" y="-456" font-family="Helvetica,sans-Serif" font-size="10.00">Socket::IsConnected</text>
</a>
</g>
</g>
<!-- Node12&#45;&gt;Node13 -->
<g id="edge15_Node000012_Node000013" class="edge">
<title>Node12&#45;&gt;Node13</title>
<g id="a_edge15_Node000012_Node000013"><a xlink:title=" ">
<path fill="none" stroke="#63b8ff" d="M1185.1,-468.88C1204.01,-467.31 1224.56,-465.6 1243.41,-464.03"/>
<polygon fill="#63b8ff" stroke="#63b8ff" points="1243.72,-467.52 1253.4,-463.2 1243.14,-460.54 1243.72,-467.52"/>
</a>
</g>
</g>
<!-- Node14 -->
<g id="Node000014" class="node">
<title>Node14</title>
<g id="a_Node000014"><a xlink:href="classWorldSocket.html#a49fd7a2f7a64fc7e7f4817f80f6b5eaf" target="_top" xlink:title=" ">
<polygon fill="white" stroke="#666666" points="1376.5,-505 1245.5,-505 1245.5,-486 1376.5,-486 1376.5,-505"/>
<text text-anchor="middle" x="1311" y="-493" font-family="Helvetica,sans-Serif" font-size="10.00">WorldSocket::OutPacket</text>
</a>
</g>
</g>
<!-- Node12&#45;&gt;Node14 -->
<g id="edge16_Node000012_Node000014" class="edge">
<title>Node12&#45;&gt;Node14</title>
<g id="a_edge16_Node000012_Node000014"><a xlink:title=" ">
<path fill="none" stroke="#63b8ff" d="M1185.1,-481.87C1201.34,-483.65 1218.77,-485.55 1235.31,-487.35"/>
<polygon fill="#63b8ff" stroke="#63b8ff" points="1235.15,-490.86 1245.48,-488.46 1235.91,-483.9 1235.15,-490.86"/>
</a>
</g>
</g>
<!-- Node18&#45;&gt;Node17 -->
<g id="edge21_Node000018_Node000017" class="edge">
<title>Node18&#45;&gt;Node17</title>
<g id="a_edge21_Node000018_Node000017"><a xlink:title=" ">
<path fill="none" stroke="#63b8ff" d="M982.72,-396.59C1005.83,-394.31 1030.7,-391.86 1052.6,-389.7"/>
<polygon fill="#63b8ff" stroke="#63b8ff" points="1053.15,-393.16 1062.76,-388.7 1052.47,-386.2 1053.15,-393.16"/>
</a>
</g>
</g>
<!-- Node19 -->
<g id="Node000019" class="node">
<title>Node19</title>
<g id="a_Node000019"><a xlink:href="classWorldSession.html#a87a1bd80483f57f33a127d12c51d2331" target="_top" xlink:title=" ">
<polygon fill="white" stroke="#666666" points="1188,-430 1045,-430 1045,-411 1188,-411 1188,-430"/>
<text text-anchor="middle" x="1116.5" y="-418" font-family="Helvetica,sans-Serif" font-size="10.00">WorldSession::SendPacket</text>
</a>
</g>
</g>
<!-- Node18&#45;&gt;Node19 -->
<g id="edge22_Node000018_Node000019" class="edge">
<title>Node18&#45;&gt;Node19</title>
<g id="a_edge22_Node000018_Node000019"><a xlink:title=" ">
<path fill="none" stroke="#63b8ff" d="M982.72,-410.53C999.62,-411.8 1017.45,-413.14 1034.38,-414.41"/>
<polygon fill="#63b8ff" stroke="#63b8ff" points="1034.55,-417.93 1044.79,-415.19 1035.08,-410.95 1034.55,-417.93"/>
</a>
</g>
</g>
<!-- Node19&#45;&gt;Node13 -->
<g id="edge24_Node000019_Node000013" class="edge">
<title>Node19&#45;&gt;Node13</title>
<g id="a_edge24_Node000019_Node000013"><a xlink:title=" ">
<path fill="none" stroke="#63b8ff" d="M1166.08,-430.09C1192.16,-435.24 1224.51,-441.62 1251.92,-447.03"/>
<polygon fill="#63b8ff" stroke="#63b8ff" points="1251.28,-450.48 1261.77,-448.98 1252.64,-443.61 1251.28,-450.48"/>
</a>
</g>
</g>
<!-- Node20 -->
<g id="Node000020" class="node">
<title>Node20</title>
<g id="a_Node000020"><a xlink:href="classWorldPacket.html#a3f359b4afd93497038c4f17e1ebd4380" target="_top" xlink:title=" ">
<polygon fill="white" stroke="#666666" points="1552,-393 1416,-393 1416,-374 1552,-374 1552,-393"/>
<text text-anchor="middle" x="1484" y="-381" font-family="Helvetica,sans-Serif" font-size="10.00">WorldPacket::GetOpcode</text>
</a>
</g>
</g>
<!-- Node19&#45;&gt;Node20 -->
<g id="edge23_Node000019_Node000020" class="edge">
<title>Node19&#45;&gt;Node20</title>
<g id="a_edge23_Node000019_Node000020"><a xlink:title=" ">
<path fill="none" stroke="#63b8ff" d="M1182.36,-410.98C1201.54,-408.35 1222.59,-405.63 1242,-403.5 1296.63,-397.51 1358.4,-392.41 1405.73,-388.87"/>
<polygon fill="#63b8ff" stroke="#63b8ff" points="1406.19,-392.34 1415.9,-388.11 1405.67,-385.36 1406.19,-392.34"/>
</a>
</g>
</g>
<!-- Node21 -->
<g id="Node000021" class="node">
<title>Node21</title>
<g id="a_Node000021"><a xlink:href="classWorldSocket.html#ab2fb0afb0aaf5d2229fea66a9923637e" target="_top" xlink:title=" ">
<polygon fill="white" stroke="#666666" points="1380,-431 1242,-431 1242,-412 1380,-412 1380,-431"/>
<text text-anchor="middle" x="1311" y="-419" font-family="Helvetica,sans-Serif" font-size="10.00">WorldSocket::SendPacket</text>
</a>
</g>
</g>
<!-- Node19&#45;&gt;Node21 -->
<g id="edge25_Node000019_Node000021" class="edge">
<title>Node19&#45;&gt;Node21</title>
<g id="a_edge25_Node000019_Node000021"><a xlink:title=" ">
<path fill="none" stroke="#63b8ff" d="M1188.09,-420.87C1202.25,-420.94 1217.21,-421.02 1231.61,-421.09"/>
<polygon fill="#63b8ff" stroke="#63b8ff" points="1231.97,-424.59 1241.99,-421.15 1232.01,-417.59 1231.97,-424.59"/>
</a>
</g>
</g>
<!-- Node21&#45;&gt;Node8 -->
<g id="edge28_Node000021_Node000008" class="edge">
<title>Node21&#45;&gt;Node8</title>
<g id="a_edge28_Node000021_Node000008"><a xlink:title=" ">
<path fill="none" stroke="#63b8ff" d="M1324.95,-411.83C1339.58,-400.45 1363.48,-380.45 1380,-359.5 1423.87,-303.84 1459.67,-227 1474.98,-191.67"/>
<polygon fill="#63b8ff" stroke="#63b8ff" points="1478.35,-192.68 1479.06,-182.11 1471.91,-189.93 1478.35,-192.68"/>
</a>
</g>
</g>
<!-- Node21&#45;&gt;Node15 -->
<g id="edge26_Node000021_Node000015" class="edge">
<title>Node21&#45;&gt;Node15</title>
<g id="a_edge26_Node000021_Node000015"><a xlink:title=" ">
<path fill="none" stroke="#63b8ff" d="M1348.14,-431.07C1358.48,-433.95 1369.72,-437.22 1380,-440.5 1402.92,-447.81 1428.36,-456.94 1448.23,-464.3"/>
<polygon fill="#63b8ff" stroke="#63b8ff" points="1447.18,-467.65 1457.78,-467.86 1449.63,-461.09 1447.18,-467.65"/>
</a>
</g>
</g>
<!-- Node21&#45;&gt;Node20 -->
<g id="edge27_Node000021_Node000020" class="edge">
<title>Node21&#45;&gt;Node20</title>
<g id="a_edge27_Node000021_Node000020"><a xlink:title=" ">
<path fill="none" stroke="#63b8ff" d="M1355.15,-411.91C1377.92,-406.85 1406.05,-400.6 1430.12,-395.25"/>
<polygon fill="#63b8ff" stroke="#63b8ff" points="1431.16,-398.61 1440.16,-393.02 1429.64,-391.77 1431.16,-398.61"/>
</a>
</g>
</g>
<!-- Node22&#45;&gt;Node8 -->
<g id="edge31_Node000022_Node000008" class="edge">
<title>Node22&#45;&gt;Node8</title>
<g id="a_edge31_Node000022_Node000008"><a xlink:title=" ">
<path fill="none" stroke="#63b8ff" d="M1206.44,-172.5C1275.12,-172.5 1368.03,-172.5 1426.75,-172.5"/>
<polygon fill="#63b8ff" stroke="#63b8ff" points="1426.94,-176 1436.94,-172.5 1426.94,-169 1426.94,-176"/>
</a>
</g>
</g>
<!-- Node25 -->
<g id="Node000025" class="node">
<title>Node25</title>
<g id="a_Node000025"><a xlink:href="classObject.html#a967af054c54b6d9846637ce8718efd75" target="_top" xlink:title=" ">
<polygon fill="white" stroke="#666666" points="747.5,-56 628.5,-56 628.5,-37 747.5,-37 747.5,-56"/>
<text text-anchor="middle" x="688" y="-44" font-family="Helvetica,sans-Serif" font-size="10.00">Object::getWorldMap</text>
</a>
</g>
</g>
<!-- Node24&#45;&gt;Node25 -->
<g id="edge35_Node000024_Node000025" class="edge">
<title>Node24&#45;&gt;Node25</title>
<g id="a_edge35_Node000024_Node000025"><a xlink:title=" ">
<path fill="none" stroke="#63b8ff" d="M564.21,-44.73C582.23,-44.99 601.03,-45.26 618.33,-45.51"/>
<polygon fill="#63b8ff" stroke="#63b8ff" points="618.28,-49.01 628.33,-45.66 618.38,-42.01 618.28,-49.01"/>
</a>
</g>
</g>
<!-- Node26 -->
<g id="Node000026" class="node">
<title>Node26</title>
<g id="a_Node000026"><a xlink:href="classWorldMap.html#ad3b0c0c761379f6373e698b72eeedec2" target="_top" xlink:title=" ">
<polygon fill="white" stroke="#666666" points="765.5,-19 610.5,-19 610.5,0 765.5,0 765.5,-19"/>
<text text-anchor="middle" x="688" y="-7" font-family="Helvetica,sans-Serif" font-size="10.00">WorldMap::pushToProcessed</text>
</a>
</g>
</g>
<!-- Node24&#45;&gt;Node26 -->
<g id="edge36_Node000024_Node000026" class="edge">
<title>Node24&#45;&gt;Node26</title>
<g id="a_edge36_Node000024_Node000026"><a xlink:title=" ">
<path fill="none" stroke="#63b8ff" d="M564.21,-29.52C582.33,-26.57 601.22,-23.49 618.6,-20.65"/>
<polygon fill="#63b8ff" stroke="#63b8ff" points="619.34,-24.08 628.64,-19.02 618.21,-17.17 619.34,-24.08"/>
</a>
</g>
</g>
</g>
</svg>
