<?xml version="1.0" encoding="UTF-8" standalone="no"?>
<!DOCTYPE svg PUBLIC "-//W3C//DTD SVG 1.1//EN"
 "http://www.w3.org/Graphics/SVG/1.1/DTD/svg11.dtd">
<!-- Generated by graphviz version 2.43.0 (0)
 -->
<!-- Title: BoneStormDamage::doCalculateEffect Pages: 1 -->
<svg width="495pt" height="138pt"
 viewBox="0.00 0.00 495.00 138.00" xmlns="http://www.w3.org/2000/svg" xmlns:xlink="http://www.w3.org/1999/xlink">
<g id="graph0" class="graph" transform="scale(1 1) rotate(0) translate(4 134)">
<title>BoneStormDamage::doCalculateEffect</title>
<!-- Node1 -->
<g id="Node000001" class="node">
<title>Node1</title>
<g id="a_Node000001"><a xlink:title="Spell: Bone Storm Damage.">
<polygon fill="#999999" stroke="#666666" points="176,-79.5 0,-79.5 0,-49.5 176,-49.5 176,-79.5"/>
<text text-anchor="start" x="8" y="-67.5" font-family="Helvetica,sans-Serif" font-size="10.00">BoneStormDamage::doCalculate</text>
<text text-anchor="middle" x="88" y="-56.5" font-family="Helvetica,sans-Serif" font-size="10.00">Effect</text>
</a>
</g>
</g>
<!-- Node2 -->
<g id="Node000002" class="node">
<title>Node2</title>
<g id="a_Node000002"><a xlink:href="namespaceUtil.html#a70ebb44d97d6d7d2d17f30612e386e91" target="_top" xlink:title=" ">
<polygon fill="white" stroke="#666666" points="327,-130 235,-130 235,-111 327,-111 327,-130"/>
<text text-anchor="middle" x="281" y="-118" font-family="Helvetica,sans-Serif" font-size="10.00">Util::float2int32</text>
</a>
</g>
</g>
<!-- Node1&#45;&gt;Node2 -->
<g id="edge1_Node000001_Node000002" class="edge">
<title>Node1&#45;&gt;Node2</title>
<g id="a_edge1_Node000001_Node000002"><a xlink:title=" ">
<path fill="none" stroke="#63b8ff" d="M136.18,-79.57C159.01,-86.74 186.86,-95.29 212,-102.5 218.7,-104.42 225.8,-106.38 232.78,-108.27"/>
<polygon fill="#63b8ff" stroke="#63b8ff" points="232.3,-111.76 242.87,-110.96 234.11,-105 232.3,-111.76"/>
</a>
</g>
</g>
<!-- Node3 -->
<g id="Node000003" class="node">
<title>Node3</title>
<g id="a_Node000003"><a xlink:href="classSpell.html#a1927fa984d50f63c0fc5d2d3f37d28f4" target="_top" xlink:title=" ">
<polygon fill="white" stroke="#666666" points="328,-93 234,-93 234,-74 328,-74 328,-93"/>
<text text-anchor="middle" x="281" y="-81" font-family="Helvetica,sans-Serif" font-size="10.00">Spell::getCaster</text>
</a>
</g>
</g>
<!-- Node1&#45;&gt;Node3 -->
<g id="edge2_Node000001_Node000003" class="edge">
<title>Node1&#45;&gt;Node3</title>
<g id="a_edge2_Node000001_Node000003"><a xlink:title=" ">
<path fill="none" stroke="#63b8ff" d="M176.12,-73.17C192.34,-74.78 208.9,-76.43 223.88,-77.92"/>
<polygon fill="#63b8ff" stroke="#63b8ff" points="223.68,-81.42 233.98,-78.92 224.38,-74.45 223.68,-81.42"/>
</a>
</g>
</g>
<!-- Node4 -->
<g id="Node000004" class="node">
<title>Node4</title>
<g id="a_Node000004"><a xlink:href="classObject.html#a713d8ac88b48af9b265ece6a488f8335" target="_top" xlink:title=" ">
<polygon fill="white" stroke="#666666" points="350,-56 212,-56 212,-37 350,-37 350,-56"/>
<text text-anchor="middle" x="281" y="-44" font-family="Helvetica,sans-Serif" font-size="10.00">Object::GetDistance2dSq</text>
</a>
</g>
</g>
<!-- Node1&#45;&gt;Node4 -->
<g id="edge3_Node000001_Node000004" class="edge">
<title>Node1&#45;&gt;Node4</title>
<g id="a_edge3_Node000001_Node000004"><a xlink:title=" ">
<path fill="none" stroke="#63b8ff" d="M176.12,-56.29C184.65,-55.49 193.27,-54.67 201.71,-53.88"/>
<polygon fill="#63b8ff" stroke="#63b8ff" points="202.27,-57.34 211.89,-52.92 201.61,-50.37 202.27,-57.34"/>
</a>
</g>
</g>
<!-- Node6 -->
<g id="Node000006" class="node">
<title>Node6</title>
<g id="a_Node000006"><a xlink:href="classSpell.html#a1e87f95ab5de37341fc84eef03fdcf6f" target="_top" xlink:title=" ">
<polygon fill="white" stroke="#666666" points="337.5,-19 224.5,-19 224.5,0 337.5,0 337.5,-19"/>
<text text-anchor="middle" x="281" y="-7" font-family="Helvetica,sans-Serif" font-size="10.00">Spell::getUnitTarget</text>
</a>
</g>
</g>
<!-- Node1&#45;&gt;Node6 -->
<g id="edge5_Node000001_Node000006" class="edge">
<title>Node1&#45;&gt;Node6</title>
<g id="a_edge5_Node000001_Node000006"><a xlink:title=" ">
<path fill="none" stroke="#63b8ff" d="M139.83,-49.47C161.98,-42.96 188.25,-35.29 212,-28.5 219.62,-26.32 227.74,-24.03 235.6,-21.82"/>
<polygon fill="#63b8ff" stroke="#63b8ff" points="236.7,-25.15 245.38,-19.08 234.81,-18.41 236.7,-25.15"/>
</a>
</g>
</g>
<!-- Node5 -->
<g id="Node000005" class="node">
<title>Node5</title>
<g id="a_Node000005"><a xlink:href="classObject.html#a83139f119f64cd17f1dfa756e8aa5d0e" target="_top" xlink:title=" ">
<polygon fill="white" stroke="#666666" points="487,-56 386,-56 386,-37 487,-37 487,-56"/>
<text text-anchor="middle" x="436.5" y="-44" font-family="Helvetica,sans-Serif" font-size="10.00">Object::GetMapId</text>
</a>
</g>
</g>
<!-- Node4&#45;&gt;Node5 -->
<g id="edge4_Node000004_Node000005" class="edge">
<title>Node4&#45;&gt;Node5</title>
<g id="a_edge4_Node000004_Node000005"><a xlink:title=" ">
<path fill="none" stroke="#63b8ff" d="M350.22,-46.5C358.76,-46.5 367.44,-46.5 375.84,-46.5"/>
<polygon fill="#63b8ff" stroke="#63b8ff" points="375.9,-50 385.9,-46.5 375.9,-43 375.9,-50"/>
</a>
</g>
</g>
</g>
</svg>
