<?xml version="1.0" encoding="UTF-8" standalone="no"?>
<!DOCTYPE svg PUBLIC "-//W3C//DTD SVG 1.1//EN"
 "http://www.w3.org/Graphics/SVG/1.1/DTD/svg11.dtd">
<!-- Generated by graphviz version 2.43.0 (0)
 -->
<!-- Title: Unit::setTransformAura Pages: 1 -->
<svg width="499pt" height="124pt"
 viewBox="0.00 0.00 499.00 123.50" xmlns="http://www.w3.org/2000/svg" xmlns:xlink="http://www.w3.org/1999/xlink">
<g id="graph0" class="graph" transform="scale(1 1) rotate(0) translate(4 119.5)">
<title>Unit::setTransformAura</title>
<!-- Node1 -->
<g id="Node000001" class="node">
<title>Node1</title>
<g id="a_Node000001"><a xlink:title=" ">
<polygon fill="#999999" stroke="#666666" points="491,-40 362,-40 362,-21 491,-21 491,-40"/>
<text text-anchor="middle" x="426.5" y="-28" font-family="Helvetica,sans-Serif" font-size="10.00">Unit::setTransformAura</text>
</a>
</g>
</g>
<!-- Node2 -->
<g id="Node000002" class="node">
<title>Node2</title>
<g id="a_Node000002"><a xlink:href="classUnit.html#ad1aa9839f8721fc49a92a6fcdb5e1731" target="_top" xlink:title=" ">
<polygon fill="white" stroke="#666666" points="326,-60 203,-60 203,-41 326,-41 326,-60"/>
<text text-anchor="middle" x="264.5" y="-48" font-family="Helvetica,sans-Serif" font-size="10.00">Unit::restoreDisplayId</text>
</a>
</g>
</g>
<!-- Node1&#45;&gt;Node2 -->
<g id="edge1_Node000001_Node000002" class="edge">
<title>Node1&#45;&gt;Node2</title>
<g id="a_edge1_Node000001_Node000002"><a xlink:title=" ">
<path fill="none" stroke="#63b8ff" d="M351.78,-39.71C343.19,-40.79 334.5,-41.87 326.11,-42.92"/>
<polygon fill="#63b8ff" stroke="#63b8ff" points="352.32,-43.18 361.8,-38.46 351.45,-36.23 352.32,-43.18"/>
</a>
</g>
</g>
<!-- Node5 -->
<g id="Node000005" class="node">
<title>Node5</title>
<g id="a_Node000005"><a xlink:href="classAura.html#a970a3bb3220107621081f2e467ace7a0" target="_top" xlink:title=" ">
<polygon fill="white" stroke="#666666" points="167,-19 0,-19 0,0 167,0 167,-19"/>
<text text-anchor="middle" x="83.5" y="-7" font-family="Helvetica,sans-Serif" font-size="10.00">Aura::spellAuraEffectTransform</text>
</a>
</g>
</g>
<!-- Node1&#45;&gt;Node5 -->
<g id="edge5_Node000001_Node000005" class="edge">
<title>Node1&#45;&gt;Node5</title>
<g id="a_edge5_Node000001_Node000005"><a xlink:title=" ">
<path fill="none" stroke="#63b8ff" d="M351.52,-25.94C297.24,-22.6 223.51,-18.06 167.28,-14.6"/>
<polygon fill="#63b8ff" stroke="#63b8ff" points="351.56,-29.45 361.76,-26.57 351.99,-22.47 351.56,-29.45"/>
</a>
</g>
</g>
<!-- Node3 -->
<g id="Node000003" class="node">
<title>Node3</title>
<g id="a_Node000003"><a xlink:href="classOrbOfDeception.html#a5d761049ec4a0d81e93f4adab1205187" target="_top" xlink:title=" ">
<polygon fill="white" stroke="#666666" points="161,-115.5 6,-115.5 6,-85.5 161,-85.5 161,-115.5"/>
<text text-anchor="start" x="14" y="-103.5" font-family="Helvetica,sans-Serif" font-size="10.00">OrbOfDeception::beforeAura</text>
<text text-anchor="middle" x="83.5" y="-92.5" font-family="Helvetica,sans-Serif" font-size="10.00">Effect</text>
</a>
</g>
</g>
<!-- Node2&#45;&gt;Node3 -->
<g id="edge2_Node000002_Node000003" class="edge">
<title>Node2&#45;&gt;Node3</title>
<g id="a_edge2_Node000002_Node000003"><a xlink:title=" ">
<path fill="none" stroke="#63b8ff" d="M219.68,-62.74C195.19,-69.58 164.49,-78.16 138.53,-85.41"/>
<polygon fill="#63b8ff" stroke="#63b8ff" points="220.72,-66.08 229.41,-60.02 218.84,-59.34 220.72,-66.08"/>
</a>
</g>
</g>
<!-- Node4 -->
<g id="Node000004" class="node">
<title>Node4</title>
<g id="a_Node000004"><a xlink:href="classAura.html#a65fe896b92205653e046d406e8737165" target="_top" xlink:title=" ">
<polygon fill="white" stroke="#666666" points="153.5,-67.5 13.5,-67.5 13.5,-37.5 153.5,-37.5 153.5,-67.5"/>
<text text-anchor="start" x="21.5" y="-55.5" font-family="Helvetica,sans-Serif" font-size="10.00">Aura::spellAuraEffectMod</text>
<text text-anchor="middle" x="83.5" y="-44.5" font-family="Helvetica,sans-Serif" font-size="10.00">Shapeshift</text>
</a>
</g>
</g>
<!-- Node2&#45;&gt;Node4 -->
<g id="edge3_Node000002_Node000004" class="edge">
<title>Node2&#45;&gt;Node4</title>
<g id="a_edge3_Node000002_Node000004"><a xlink:title=" ">
<path fill="none" stroke="#63b8ff" d="M192.73,-51.29C179.87,-51.43 166.48,-51.58 153.67,-51.73"/>
<polygon fill="#63b8ff" stroke="#63b8ff" points="192.94,-54.79 202.9,-51.18 192.86,-47.79 192.94,-54.79"/>
</a>
</g>
</g>
<!-- Node2&#45;&gt;Node5 -->
<g id="edge4_Node000002_Node000005" class="edge">
<title>Node2&#45;&gt;Node5</title>
<g id="a_edge4_Node000002_Node000005"><a xlink:title=" ">
<path fill="none" stroke="#63b8ff" d="M212.22,-38.75C184.92,-32.5 151.78,-24.91 126.1,-19.03"/>
<polygon fill="#63b8ff" stroke="#63b8ff" points="211.45,-42.17 221.98,-40.99 213.02,-35.35 211.45,-42.17"/>
</a>
</g>
</g>
</g>
</svg>
