<?xml version="1.0" encoding="UTF-8" standalone="no"?>
<!DOCTYPE svg PUBLIC "-//W3C//DTD SVG 1.1//EN"
 "http://www.w3.org/Graphics/SVG/1.1/DTD/svg11.dtd">
<!-- Generated by graphviz version 2.43.0 (0)
 -->
<!-- Title: WorldSession::sendVoidStorageTransferResult Pages: 1 -->
<svg width="665pt" height="86pt"
 viewBox="0.00 0.00 665.00 86.00" xmlns="http://www.w3.org/2000/svg" xmlns:xlink="http://www.w3.org/1999/xlink">
<g id="graph0" class="graph" transform="scale(1 1) rotate(0) translate(4 82)">
<title>WorldSession::sendVoidStorageTransferResult</title>
<!-- Node1 -->
<g id="Node000001" class="node">
<title>Node1</title>
<g id="a_Node000001"><a xlink:title=" ">
<polygon fill="#999999" stroke="#666666" points="657,-54 487,-54 487,-24 657,-24 657,-54"/>
<text text-anchor="start" x="495" y="-42" font-family="Helvetica,sans-Serif" font-size="10.00">WorldSession::sendVoidStorage</text>
<text text-anchor="middle" x="572" y="-31" font-family="Helvetica,sans-Serif" font-size="10.00">TransferResult</text>
</a>
</g>
</g>
<!-- Node2 -->
<g id="Node000002" class="node">
<title>Node2</title>
<g id="a_Node000002"><a xlink:href="classWorldSession.html#ab2f3f54a99f360c456744fda008f2fcd" target="_top" xlink:title=" ">
<polygon fill="white" stroke="#666666" points="451,-78 309,-78 309,-48 451,-48 451,-78"/>
<text text-anchor="start" x="317" y="-66" font-family="Helvetica,sans-Serif" font-size="10.00">WorldSession::handleVoid</text>
<text text-anchor="middle" x="380" y="-55" font-family="Helvetica,sans-Serif" font-size="10.00">StorageTransfer</text>
</a>
</g>
</g>
<!-- Node1&#45;&gt;Node2 -->
<g id="edge1_Node000001_Node000002" class="edge">
<title>Node1&#45;&gt;Node2</title>
<g id="a_edge1_Node000001_Node000002"><a xlink:title=" ">
<path fill="none" stroke="#63b8ff" d="M476.75,-50.91C468.13,-51.99 459.52,-53.08 451.17,-54.14"/>
<polygon fill="#63b8ff" stroke="#63b8ff" points="477.35,-54.36 486.83,-49.63 476.47,-47.41 477.35,-54.36"/>
</a>
</g>
</g>
<!-- Node5 -->
<g id="Node000005" class="node">
<title>Node5</title>
<g id="a_Node000005"><a xlink:href="classWorldSession.html#a45e2abfd01adb77ad75e34a9cb1d2a89" target="_top" xlink:title=" ">
<polygon fill="white" stroke="#666666" points="451,-30 309,-30 309,0 451,0 451,-30"/>
<text text-anchor="start" x="317" y="-18" font-family="Helvetica,sans-Serif" font-size="10.00">WorldSession::handleVoid</text>
<text text-anchor="middle" x="380" y="-7" font-family="Helvetica,sans-Serif" font-size="10.00">SwapItem</text>
</a>
</g>
</g>
<!-- Node1&#45;&gt;Node5 -->
<g id="edge4_Node000001_Node000005" class="edge">
<title>Node1&#45;&gt;Node5</title>
<g id="a_edge4_Node000001_Node000005"><a xlink:title=" ">
<path fill="none" stroke="#63b8ff" d="M476.75,-27.09C468.13,-26.01 459.52,-24.92 451.17,-23.86"/>
<polygon fill="#63b8ff" stroke="#63b8ff" points="476.47,-30.59 486.83,-28.37 477.35,-23.64 476.47,-30.59"/>
</a>
</g>
</g>
<!-- Node3 -->
<g id="Node000003" class="node">
<title>Node3</title>
<g id="a_Node000003"><a xlink:href="classWorldSession.html#a213cc2e7e497e0cddfde0a1460e4acd0" target="_top" xlink:title=" ">
<polygon fill="white" stroke="#666666" points="273,-54 111,-54 111,-24 273,-24 273,-54"/>
<text text-anchor="start" x="119" y="-42" font-family="Helvetica,sans-Serif" font-size="10.00">WorldSession::registerOpcode</text>
<text text-anchor="middle" x="192" y="-31" font-family="Helvetica,sans-Serif" font-size="10.00">Handler</text>
</a>
</g>
</g>
<!-- Node2&#45;&gt;Node3 -->
<g id="edge2_Node000002_Node000003" class="edge">
<title>Node2&#45;&gt;Node3</title>
<g id="a_edge2_Node000002_Node000003"><a xlink:title=" ">
<path fill="none" stroke="#63b8ff" d="M299.02,-52.68C290.5,-51.58 281.82,-50.46 273.3,-49.36"/>
<polygon fill="#63b8ff" stroke="#63b8ff" points="298.58,-56.15 308.95,-53.96 299.48,-49.21 298.58,-56.15"/>
</a>
</g>
</g>
<!-- Node4 -->
<g id="Node000004" class="node">
<title>Node4</title>
<g id="a_Node000004"><a xlink:href="classMaster.html#a12dde72f3398edffca613e77185fd6f3" target="_top" xlink:title=" ">
<polygon fill="white" stroke="#666666" points="75,-48.5 0,-48.5 0,-29.5 75,-29.5 75,-48.5"/>
<text text-anchor="middle" x="37.5" y="-36.5" font-family="Helvetica,sans-Serif" font-size="10.00">Master::Run</text>
</a>
</g>
</g>
<!-- Node3&#45;&gt;Node4 -->
<g id="edge3_Node000003_Node000004" class="edge">
<title>Node3&#45;&gt;Node4</title>
<g id="a_edge3_Node000003_Node000004"><a xlink:title=" ">
<path fill="none" stroke="#63b8ff" d="M100.55,-39C91.61,-39 82.94,-39 75.05,-39"/>
<polygon fill="#63b8ff" stroke="#63b8ff" points="100.73,-42.5 110.73,-39 100.73,-35.5 100.73,-42.5"/>
</a>
</g>
</g>
<!-- Node5&#45;&gt;Node3 -->
<g id="edge5_Node000005_Node000003" class="edge">
<title>Node5&#45;&gt;Node3</title>
<g id="a_edge5_Node000005_Node000003"><a xlink:title=" ">
<path fill="none" stroke="#63b8ff" d="M299.02,-25.32C290.5,-26.42 281.82,-27.54 273.3,-28.64"/>
<polygon fill="#63b8ff" stroke="#63b8ff" points="299.48,-28.79 308.95,-24.04 298.58,-21.85 299.48,-28.79"/>
</a>
</g>
</g>
</g>
</svg>
