<?xml version="1.0" encoding="UTF-8" standalone="no"?>
<!DOCTYPE svg PUBLIC "-//W3C//DTD SVG 1.1//EN"
 "http://www.w3.org/Graphics/SVG/1.1/DTD/svg11.dtd">
<!-- Generated by graphviz version 2.43.0 (0)
 -->
<!-- Title: World::sendAreaTriggerMessage Pages: 1 -->
<svg width="551pt" height="100pt"
 viewBox="0.00 0.00 551.00 99.50" xmlns="http://www.w3.org/2000/svg" xmlns:xlink="http://www.w3.org/1999/xlink">
<g id="graph0" class="graph" transform="scale(1 1) rotate(0) translate(4 95.5)">
<title>World::sendAreaTriggerMessage</title>
<!-- Node1 -->
<g id="Node000001" class="node">
<title>Node1</title>
<g id="a_Node000001"><a xlink:title=" ">
<polygon fill="#999999" stroke="#666666" points="173,-69.5 0,-69.5 0,-50.5 173,-50.5 173,-69.5"/>
<text text-anchor="middle" x="86.5" y="-57.5" font-family="Helvetica,sans-Serif" font-size="10.00">World::sendAreaTriggerMessage</text>
</a>
</g>
</g>
<!-- Node2 -->
<g id="Node000002" class="node">
<title>Node2</title>
<g id="a_Node000002"><a xlink:href="classWorld.html#a419674a82fb6c68f7862f342265df678" target="_top" xlink:title=" ">
<polygon fill="white" stroke="#666666" points="358,-91.5 209,-91.5 209,-72.5 358,-72.5 358,-91.5"/>
<text text-anchor="middle" x="283.5" y="-79.5" font-family="Helvetica,sans-Serif" font-size="10.00">World::sendGlobalMessage</text>
</a>
</g>
</g>
<!-- Node1&#45;&gt;Node2 -->
<g id="edge1_Node000001_Node000002" class="edge">
<title>Node1&#45;&gt;Node2</title>
<g id="a_edge1_Node000001_Node000002"><a xlink:title=" ">
<path fill="none" stroke="#63b8ff" d="M171.9,-69.52C180.87,-70.53 190,-71.56 198.96,-72.57"/>
<polygon fill="#63b8ff" stroke="#63b8ff" points="198.67,-76.06 209,-73.71 199.45,-69.11 198.67,-76.06"/>
</a>
</g>
</g>
<!-- Node3 -->
<g id="Node000003" class="node">
<title>Node3</title>
<g id="a_Node000003"><a xlink:href="classAscEmu_1_1Packets_1_1ManagedPacket.html#a935075449bc460e05a6d322f6b074909" target="_top" xlink:title=" ">
<polygon fill="white" stroke="#666666" points="358,-54 209,-54 209,-24 358,-24 358,-54"/>
<text text-anchor="start" x="217" y="-42" font-family="Helvetica,sans-Serif" font-size="10.00">AscEmu::Packets::Managed</text>
<text text-anchor="middle" x="283.5" y="-31" font-family="Helvetica,sans-Serif" font-size="10.00">Packet::serialise</text>
</a>
</g>
</g>
<!-- Node1&#45;&gt;Node3 -->
<g id="edge2_Node000001_Node000003" class="edge">
<title>Node1&#45;&gt;Node3</title>
<g id="a_edge2_Node000001_Node000003"><a xlink:title=" ">
<path fill="none" stroke="#63b8ff" d="M173.03,-50.79C181.64,-49.86 190.37,-48.92 198.95,-48"/>
<polygon fill="#63b8ff" stroke="#63b8ff" points="199.38,-51.47 208.94,-46.92 198.63,-44.51 199.38,-51.47"/>
</a>
</g>
</g>
<!-- Node4 -->
<g id="Node000004" class="node">
<title>Node4</title>
<g id="a_Node000004"><a xlink:href="classAscEmu_1_1Packets_1_1ManagedPacket.html#aac8bf10cbe130cf27b0452f0cd5eedb0" target="_top" xlink:title=" ">
<polygon fill="white" stroke="#666666" points="543,-78 394,-78 394,-48 543,-48 543,-78"/>
<text text-anchor="start" x="402" y="-66" font-family="Helvetica,sans-Serif" font-size="10.00">AscEmu::Packets::Managed</text>
<text text-anchor="middle" x="468.5" y="-55" font-family="Helvetica,sans-Serif" font-size="10.00">Packet::expectedSize</text>
</a>
</g>
</g>
<!-- Node3&#45;&gt;Node4 -->
<g id="edge3_Node000003_Node000004" class="edge">
<title>Node3&#45;&gt;Node4</title>
<g id="a_edge3_Node000003_Node000004"><a xlink:title=" ">
<path fill="none" stroke="#63b8ff" d="M358.14,-48.66C366.57,-49.76 375.2,-50.89 383.74,-52.02"/>
<polygon fill="#63b8ff" stroke="#63b8ff" points="383.34,-55.49 393.71,-53.32 384.25,-48.55 383.34,-55.49"/>
</a>
</g>
</g>
<!-- Node5 -->
<g id="Node000005" class="node">
<title>Node5</title>
<g id="a_Node000005"><a xlink:href="classAscEmu_1_1Packets_1_1ManagedPacket.html#a7e9f713ca1b9664f9ffccf5653432549" target="_top" xlink:title=" ">
<polygon fill="white" stroke="#666666" points="543,-30 394,-30 394,0 543,0 543,-30"/>
<text text-anchor="start" x="402" y="-18" font-family="Helvetica,sans-Serif" font-size="10.00">AscEmu::Packets::Managed</text>
<text text-anchor="middle" x="468.5" y="-7" font-family="Helvetica,sans-Serif" font-size="10.00">Packet::internalSerialise</text>
</a>
</g>
</g>
<!-- Node3&#45;&gt;Node5 -->
<g id="edge4_Node000003_Node000005" class="edge">
<title>Node3&#45;&gt;Node5</title>
<g id="a_edge4_Node000003_Node000005"><a xlink:title=" ">
<path fill="none" stroke="#63b8ff" d="M358.14,-29.34C366.57,-28.24 375.2,-27.11 383.74,-25.98"/>
<polygon fill="#63b8ff" stroke="#63b8ff" points="384.25,-29.45 393.71,-24.68 383.34,-22.51 384.25,-29.45"/>
</a>
</g>
</g>
</g>
</svg>
