<?xml version="1.0" encoding="UTF-8" standalone="no"?>
<!DOCTYPE svg PUBLIC "-//W3C//DTD SVG 1.1//EN"
 "http://www.w3.org/Graphics/SVG/1.1/DTD/svg11.dtd">
<!-- Generated by graphviz version 2.43.0 (0)
 -->
<!-- Title: GameObject::setCreatedByGuid Pages: 1 -->
<svg width="1113pt" height="209pt"
 viewBox="0.00 0.00 1113.00 209.00" xmlns="http://www.w3.org/2000/svg" xmlns:xlink="http://www.w3.org/1999/xlink">
<g id="graph0" class="graph" transform="scale(1 1) rotate(0) translate(4 205)">
<title>GameObject::setCreatedByGuid</title>
<!-- Node1 -->
<g id="Node000001" class="node">
<title>Node1</title>
<g id="a_Node000001"><a xlink:title=" ">
<polygon fill="#999999" stroke="#666666" points="1105,-84.5 933,-84.5 933,-65.5 1105,-65.5 1105,-84.5"/>
<text text-anchor="middle" x="1019" y="-72.5" font-family="Helvetica,sans-Serif" font-size="10.00">GameObject::setCreatedByGuid</text>
</a>
</g>
</g>
<!-- Node2 -->
<g id="Node000002" class="node">
<title>Node2</title>
<g id="a_Node000002"><a xlink:href="classGameObject.html#a8042dccb884249de158e82e1bbb0c076" target="_top" xlink:title=" ">
<polygon fill="white" stroke="#666666" points="897,-84.5 745,-84.5 745,-65.5 897,-65.5 897,-84.5"/>
<text text-anchor="middle" x="821" y="-72.5" font-family="Helvetica,sans-Serif" font-size="10.00">GameObject::setOwnerGuid</text>
</a>
</g>
</g>
<!-- Node1&#45;&gt;Node2 -->
<g id="edge1_Node000001_Node000002" class="edge">
<title>Node1&#45;&gt;Node2</title>
<g id="a_edge1_Node000001_Node000002"><a xlink:title=" ">
<path fill="none" stroke="#63b8ff" d="M922.82,-75C914.21,-75 905.58,-75 897.19,-75"/>
<polygon fill="#63b8ff" stroke="#63b8ff" points="922.89,-78.5 932.89,-75 922.89,-71.5 922.89,-78.5"/>
</a>
</g>
</g>
<!-- Node6 -->
<g id="Node000006" class="node">
<title>Node6</title>
<g id="a_Node000006"><a xlink:href="classSpell.html#a8aaed0bbed85fd315bf8bfb1ac270292" target="_top" xlink:title=" ">
<polygon fill="white" stroke="#666666" points="524,-201 382,-201 382,-171 524,-171 524,-201"/>
<text text-anchor="start" x="390" y="-189" font-family="Helvetica,sans-Serif" font-size="10.00">Spell::SpellEffectSummon</text>
<text text-anchor="middle" x="453" y="-178" font-family="Helvetica,sans-Serif" font-size="10.00">Object</text>
</a>
</g>
</g>
<!-- Node1&#45;&gt;Node6 -->
<g id="edge14_Node000001_Node000006" class="edge">
<title>Node1&#45;&gt;Node6</title>
<g id="a_edge14_Node000001_Node000006"><a xlink:title=" ">
<path fill="none" stroke="#63b8ff" d="M959.37,-86.54C854.85,-107.11 636.79,-150.03 524.37,-172.15"/>
<polygon fill="#63b8ff" stroke="#63b8ff" points="960.29,-89.93 969.43,-84.56 958.94,-83.06 960.29,-89.93"/>
</a>
</g>
</g>
<!-- Node7 -->
<g id="Node000007" class="node">
<title>Node7</title>
<g id="a_Node000007"><a xlink:href="classSpell.html#a63f0b7f078f17c5f1d279b96e5a7f381" target="_top" xlink:title=" ">
<polygon fill="white" stroke="#666666" points="524,-30 382,-30 382,0 524,0 524,-30"/>
<text text-anchor="start" x="390" y="-18" font-family="Helvetica,sans-Serif" font-size="10.00">Spell::SpellEffectSummon</text>
<text text-anchor="middle" x="453" y="-7" font-family="Helvetica,sans-Serif" font-size="10.00">ObjectSlot</text>
</a>
</g>
</g>
<!-- Node1&#45;&gt;Node7 -->
<g id="edge15_Node000001_Node000007" class="edge">
<title>Node1&#45;&gt;Node7</title>
<g id="a_edge15_Node000001_Node000007"><a xlink:title=" ">
<path fill="none" stroke="#63b8ff" d="M951.27,-63.85C933.65,-61.09 914.63,-58.27 897,-56 765.82,-39.08 611.9,-26.45 524.38,-19.94"/>
<polygon fill="#63b8ff" stroke="#63b8ff" points="951.03,-67.35 961.46,-65.46 952.13,-60.44 951.03,-67.35"/>
</a>
</g>
</g>
<!-- Node3 -->
<g id="Node000003" class="node">
<title>Node3</title>
<g id="a_Node000003"><a xlink:href="classUnit.html#a61ef43ca0e256fcc4856b735fd5996fe" target="_top" xlink:title=" ">
<polygon fill="white" stroke="#666666" points="699.5,-103.5 577.5,-103.5 577.5,-84.5 699.5,-84.5 699.5,-103.5"/>
<text text-anchor="middle" x="638.5" y="-91.5" font-family="Helvetica,sans-Serif" font-size="10.00">Unit::addGameObject</text>
</a>
</g>
</g>
<!-- Node2&#45;&gt;Node3 -->
<g id="edge2_Node000002_Node000003" class="edge">
<title>Node2&#45;&gt;Node3</title>
<g id="a_edge2_Node000002_Node000003"><a xlink:title=" ">
<path fill="none" stroke="#63b8ff" d="M734.79,-83.97C722.87,-85.22 710.83,-86.49 699.51,-87.68"/>
<polygon fill="#63b8ff" stroke="#63b8ff" points="735.18,-87.45 744.76,-82.92 734.45,-80.49 735.18,-87.45"/>
</a>
</g>
</g>
<!-- Node12 -->
<g id="Node000012" class="node">
<title>Node12</title>
<g id="a_Node000012"><a xlink:href="classUnit.html#a4c0eb8fa8a9ba0eb344109b63e61a77d" target="_top" xlink:title=" ">
<polygon fill="white" stroke="#666666" points="709,-65.5 568,-65.5 568,-46.5 709,-46.5 709,-65.5"/>
<text text-anchor="middle" x="638.5" y="-53.5" font-family="Helvetica,sans-Serif" font-size="10.00">Unit::removeGameObject</text>
</a>
</g>
</g>
<!-- Node2&#45;&gt;Node12 -->
<g id="edge12_Node000002_Node000012" class="edge">
<title>Node2&#45;&gt;Node12</title>
<g id="a_edge12_Node000002_Node000012"><a xlink:title=" ">
<path fill="none" stroke="#63b8ff" d="M734.74,-66.02C726.16,-65.12 717.52,-64.21 709.14,-63.33"/>
<polygon fill="#63b8ff" stroke="#63b8ff" points="734.45,-69.51 744.76,-67.08 735.18,-62.55 734.45,-69.51"/>
</a>
</g>
</g>
<!-- Node4 -->
<g id="Node000004" class="node">
<title>Node4</title>
<g id="a_Node000004"><a xlink:href="classPlayer.html#a1ac59a5554903c244ae0384254c4ae83" target="_top" xlink:title=" ">
<polygon fill="white" stroke="#666666" points="509.5,-67.5 396.5,-67.5 396.5,-48.5 509.5,-48.5 509.5,-67.5"/>
<text text-anchor="middle" x="453" y="-55.5" font-family="Helvetica,sans-Serif" font-size="10.00">Player::requestDuel</text>
</a>
</g>
</g>
<!-- Node3&#45;&gt;Node4 -->
<g id="edge3_Node000003_Node000004" class="edge">
<title>Node3&#45;&gt;Node4</title>
<g id="a_edge3_Node000003_Node000004"><a xlink:title=" ">
<path fill="none" stroke="#63b8ff" d="M578.87,-82.5C554.28,-77.67 526.01,-72.13 502.6,-67.53"/>
<polygon fill="#63b8ff" stroke="#63b8ff" points="578.32,-85.96 588.81,-84.45 579.67,-79.09 578.32,-85.96"/>
</a>
</g>
</g>
<!-- Node3&#45;&gt;Node6 -->
<g id="edge5_Node000003_Node000006" class="edge">
<title>Node3&#45;&gt;Node6</title>
<g id="a_edge5_Node000003_Node000006"><a xlink:title=" ">
<path fill="none" stroke="#63b8ff" d="M616.89,-109.73C596.31,-124.82 563.32,-147.43 532,-162 524.93,-165.29 517.31,-168.27 509.68,-170.93"/>
<polygon fill="#63b8ff" stroke="#63b8ff" points="619.23,-112.35 625.16,-103.57 615.05,-106.73 619.23,-112.35"/>
</a>
</g>
</g>
<!-- Node3&#45;&gt;Node7 -->
<g id="edge6_Node000003_Node000007" class="edge">
<title>Node3&#45;&gt;Node7</title>
<g id="a_edge6_Node000003_Node000007"><a xlink:title=" ">
<path fill="none" stroke="#63b8ff" d="M582.36,-80.91C577.36,-78.9 572.5,-76.61 568,-74 548.7,-62.8 551.2,-50.38 532,-39 526.27,-35.61 520.02,-32.65 513.62,-30.08"/>
<polygon fill="#63b8ff" stroke="#63b8ff" points="581.46,-84.3 592.05,-84.42 583.84,-77.72 581.46,-84.3"/>
</a>
</g>
</g>
<!-- Node8 -->
<g id="Node000008" class="node">
<title>Node8</title>
<g id="a_Node000008"><a xlink:href="classSpell.html#a83ce8df2a915d748660bcab9ed980183" target="_top" xlink:title=" ">
<polygon fill="white" stroke="#666666" points="524,-153 382,-153 382,-123 524,-123 524,-153"/>
<text text-anchor="start" x="390" y="-141" font-family="Helvetica,sans-Serif" font-size="10.00">Spell::SpellEffectSummon</text>
<text text-anchor="middle" x="453" y="-130" font-family="Helvetica,sans-Serif" font-size="10.00">ObjectWild</text>
</a>
</g>
</g>
<!-- Node3&#45;&gt;Node8 -->
<g id="edge7_Node000003_Node000008" class="edge">
<title>Node3&#45;&gt;Node8</title>
<g id="a_edge7_Node000003_Node000008"><a xlink:title=" ">
<path fill="none" stroke="#63b8ff" d="M587.94,-105.88C566.05,-111.13 540.06,-117.36 516.83,-122.93"/>
<polygon fill="#63b8ff" stroke="#63b8ff" points="588.78,-109.28 597.68,-103.55 587.14,-102.48 588.78,-109.28"/>
</a>
</g>
</g>
<!-- Node9 -->
<g id="Node000009" class="node">
<title>Node9</title>
<g id="a_Node000009"><a xlink:href="classObject.html#a1cbc77c5aeb5a37479dd7cc7a45f319e" target="_top" xlink:title=" ">
<polygon fill="white" stroke="#666666" points="532,-104.5 374,-104.5 374,-85.5 532,-85.5 532,-104.5"/>
<text text-anchor="middle" x="453" y="-92.5" font-family="Helvetica,sans-Serif" font-size="10.00">Object::summonGameObject</text>
</a>
</g>
</g>
<!-- Node3&#45;&gt;Node9 -->
<g id="edge8_Node000003_Node000009" class="edge">
<title>Node3&#45;&gt;Node9</title>
<g id="a_edge8_Node000003_Node000009"><a xlink:title=" ">
<path fill="none" stroke="#63b8ff" d="M567.1,-94.38C555.7,-94.45 543.83,-94.51 532.26,-94.57"/>
<polygon fill="#63b8ff" stroke="#63b8ff" points="567.43,-97.88 577.42,-94.33 567.4,-90.88 567.43,-97.88"/>
</a>
</g>
</g>
<!-- Node5 -->
<g id="Node000005" class="node">
<title>Node5</title>
<g id="a_Node000005"><a xlink:href="classSpell.html#a6592c7795f0dc0d7429003b56abe7e50" target="_top" xlink:title=" ">
<polygon fill="white" stroke="#666666" points="323,-64.5 202,-64.5 202,-45.5 323,-45.5 323,-64.5"/>
<text text-anchor="middle" x="262.5" y="-52.5" font-family="Helvetica,sans-Serif" font-size="10.00">Spell::SpellEffectDuel</text>
</a>
</g>
</g>
<!-- Node4&#45;&gt;Node5 -->
<g id="edge4_Node000004_Node000005" class="edge">
<title>Node4&#45;&gt;Node5</title>
<g id="a_edge4_Node000004_Node000005"><a xlink:title=" ">
<path fill="none" stroke="#63b8ff" d="M386.27,-56.95C365.78,-56.63 343.3,-56.27 323.24,-55.95"/>
<polygon fill="#63b8ff" stroke="#63b8ff" points="386.41,-60.46 396.46,-57.12 386.52,-53.46 386.41,-60.46"/>
</a>
</g>
</g>
<!-- Node10 -->
<g id="Node000010" class="node">
<title>Node10</title>
<g id="a_Node000010"><a xlink:href="classTrialOfTheCrusaderInstanceScript.html#a7c8cb40bd140b87036a4797a8a75aad1" target="_top" xlink:title=" ">
<polygon fill="white" stroke="#666666" points="338,-113 187,-113 187,-83 338,-83 338,-113"/>
<text text-anchor="start" x="195" y="-101" font-family="Helvetica,sans-Serif" font-size="10.00">TrialOfTheCrusaderInstance</text>
<text text-anchor="middle" x="262.5" y="-90" font-family="Helvetica,sans-Serif" font-size="10.00">Script::setBossState</text>
</a>
</g>
</g>
<!-- Node9&#45;&gt;Node10 -->
<g id="edge9_Node000009_Node000010" class="edge">
<title>Node9&#45;&gt;Node10</title>
<g id="a_edge9_Node000009_Node000010"><a xlink:title=" ">
<path fill="none" stroke="#63b8ff" d="M363.9,-96.4C355.29,-96.54 346.6,-96.68 338.14,-96.81"/>
<polygon fill="#63b8ff" stroke="#63b8ff" points="364.03,-99.9 373.97,-96.24 363.91,-92.9 364.03,-99.9"/>
</a>
</g>
</g>
<!-- Node11 -->
<g id="Node000011" class="node">
<title>Node11</title>
<g id="a_Node000011"><a xlink:href="classTrialOfTheCrusaderInstanceScript.html#a5341804c5a1dbd95d38bd96d83b081dd" target="_top" xlink:title=" ">
<polygon fill="white" stroke="#666666" points="151,-113 0,-113 0,-83 151,-83 151,-113"/>
<text text-anchor="start" x="8" y="-101" font-family="Helvetica,sans-Serif" font-size="10.00">TrialOfTheCrusaderInstance</text>
<text text-anchor="middle" x="75.5" y="-90" font-family="Helvetica,sans-Serif" font-size="10.00">Script::setLocalData</text>
</a>
</g>
</g>
<!-- Node10&#45;&gt;Node11 -->
<g id="edge10_Node000010_Node000011" class="edge">
<title>Node10&#45;&gt;Node11</title>
<g id="a_edge10_Node000010_Node000011"><a xlink:title=" ">
<path fill="none" stroke="#63b8ff" d="M176.53,-98C168.07,-98 159.53,-98 151.19,-98"/>
<polygon fill="#63b8ff" stroke="#63b8ff" points="176.79,-101.5 186.79,-98 176.79,-94.5 176.79,-101.5"/>
</a>
</g>
</g>
<!-- Node11&#45;&gt;Node11 -->
<g id="edge11_Node000011_Node000011" class="edge">
<title>Node11&#45;&gt;Node11</title>
<g id="a_edge11_Node000011_Node000011"><a xlink:title=" ">
<path fill="none" stroke="#63b8ff" d="M108.06,-123.6C103.61,-127.97 92.76,-131 75.5,-131 46.44,-131 35.54,-122.41 42.8,-113.28"/>
<polygon fill="#63b8ff" stroke="#63b8ff" points="111.56,-123.32 108.2,-113.28 104.56,-123.23 111.56,-123.32"/>
</a>
</g>
</g>
<!-- Node12&#45;&gt;Node7 -->
<g id="edge13_Node000012_Node000007" class="edge">
<title>Node12&#45;&gt;Node7</title>
<g id="a_edge13_Node000012_Node000007"><a xlink:title=" ">
<path fill="none" stroke="#63b8ff" d="M585.18,-44.31C565.36,-39.88 542.5,-34.77 521.48,-30.08"/>
<polygon fill="#63b8ff" stroke="#63b8ff" points="584.42,-47.73 594.94,-46.49 585.94,-40.89 584.42,-47.73"/>
</a>
</g>
</g>
</g>
</svg>
