<?xml version="1.0" encoding="UTF-8" standalone="no"?>
<!DOCTYPE svg PUBLIC "-//W3C//DTD SVG 1.1//EN"
 "http://www.w3.org/Graphics/SVG/1.1/DTD/svg11.dtd">
<!-- Generated by graphviz version 2.43.0 (0)
 -->
<!-- Title: LuaUnit::WipeTargetList Pages: 1 -->
<!--zoomable 300 -->

<svg id="main" version="1.1" xmlns="http://www.w3.org/2000/svg" xmlns:xlink="http://www.w3.org/1999/xlink" xml:space="preserve" onload="init(evt)">
<style type="text/css"><![CDATA[
.node, .edge {opacity: 0.7;}
.node.selected, .edge.selected {opacity: 1;}
.edge:hover path { stroke: red; }
.edge:hover polygon { stroke: red; fill: red; }
]]></style>

<defs>
  <circle id="rim" cx="0" cy="0" r="7"/>
  <circle id="rim2" cx="0" cy="0" r="3.5"/>
  <g id="zoomPlus">
    <use xlink:href="#rim" fill="#404040"><set attributeName="fill" to="#808080" begin="zoomplus.mouseover" end="zoomplus.mouseout"/></use>
    <path d="M-4,0h8M0,-4v8" fill="none" stroke="white" stroke-width="1.5" pointer-events="none"/>
  </g>
  <g id="zoomMin">
    <use xlink:href="#rim" fill="#404040"><set attributeName="fill" to="#808080" begin="zoomminus.mouseover" end="zoomminus.mouseout"/></use>
    <path d="M-4,0h8" fill="none" stroke="white" stroke-width="1.5" pointer-events="none"/>
  </g>
  <g id="arrowUp" transform="translate(30 24)">
    <use xlink:href="#rim"/>
    <path pointer-events="none" fill="none" stroke="white" stroke-width="1.5" d="M0,-3.0v7 M-2.5,-0.5L0,-3.0L2.5,-0.5"/>
  </g>
  <g id="arrowRight" transform="rotate(90) translate(36 -43)">
    <use xlink:href="#rim"/>
    <path pointer-events="none" fill="none" stroke="white" stroke-width="1.5" d="M0,-3.0v7 M-2.5,-0.5L0,-3.0L2.5,-0.5"/>
  </g>
  <g id="arrowDown" transform="rotate(180) translate(-30 -48)">
    <use xlink:href="#rim"/>
    <path pointer-events="none" fill="none" stroke="white" stroke-width="1.5" d="M0,-3.0v7 M-2.5,-0.5L0,-3.0L2.5,-0.5"/>
  </g>
  <g id="arrowLeft" transform="rotate(270) translate(-36 17)">
    <use xlink:href="#rim"/>
    <path pointer-events="none" fill="none" stroke="white" stroke-width="1.5" d="M0,-3.0v7 M-2.5,-0.5L0,-3.0L2.5,-0.5"/>
  </g>
  <g id="resetDef">
    <use xlink:href="#rim2" fill="#404040"><set attributeName="fill" to="#808080" begin="reset.mouseover" end="reset.mouseout"/></use>
  </g>
</defs>
<script type="application/ecmascript">
var viewWidth = 869;
var viewHeight = 300;
var sectionId = 'dynsection-410';
</script>
<script type="application/ecmascript" xlink:href="svg.min.js"/>
<svg id="graph" class="graph">
<g id="viewport">
<title>LuaUnit::WipeTargetList</title>
<!-- Node1 -->
<g id="Node000001" class="node">
<title>Node1</title>
<g id="a_Node000001"><a xlink:title=" ">
<polygon fill="#999999" stroke="#666666" points="132,-104.5 0,-104.5 0,-85.5 132,-85.5 132,-104.5"/>
<text text-anchor="middle" x="66" y="-92.5" font-family="Helvetica,sans-Serif" font-size="10.00">LuaUnit::WipeTargetList</text>
</a>
</g>
</g>
<!-- Node2 -->
<g id="Node000002" class="node">
<title>Node2</title>
<g id="a_Node000002"><a xlink:href="classThreatManager.html#a8fff91e387493480be12bb1ac5c628b9" target="_top" xlink:title=" ">
<polygon fill="white" stroke="#666666" points="337.5,-199.5 172.5,-199.5 172.5,-180.5 337.5,-180.5 337.5,-199.5"/>
<text text-anchor="middle" x="255" y="-187.5" font-family="Helvetica,sans-Serif" font-size="10.00">ThreatManager::clearAllThreat</text>
</a>
</g>
</g>
<!-- Node1&#45;&gt;Node2 -->
<g id="edge1_Node000001_Node000002" class="edge">
<title>Node1&#45;&gt;Node2</title>
<g id="a_edge1_Node000001_Node000002"><a xlink:title=" ">
<path fill="none" stroke="#63b8ff" d="M85.58,-104.65C105.82,-115.14 139.16,-132.36 168,-147 187.04,-156.66 208.52,-167.4 225.25,-175.73"/>
<polygon fill="#63b8ff" stroke="#63b8ff" points="223.99,-179.01 234.5,-180.33 227.1,-172.74 223.99,-179.01"/>
</a>
</g>
</g>
<!-- Node10 -->
<g id="Node000010" class="node">
<title>Node10</title>
<g id="a_Node000010"><a xlink:href="classObject.html#a3aeab7def818ba6c50249f197ad2f9ca" target="_top" xlink:title=" ">
<polygon fill="white" stroke="#666666" points="857,-143.5 758,-143.5 758,-124.5 857,-124.5 857,-143.5"/>
<text text-anchor="middle" x="807.5" y="-131.5" font-family="Helvetica,sans-Serif" font-size="10.00">Object::IsInWorld</text>
</a>
</g>
</g>
<!-- Node1&#45;&gt;Node10 -->
<g id="edge13_Node000001_Node000010" class="edge">
<title>Node1&#45;&gt;Node10</title>
<g id="a_edge13_Node000001_Node000010"><a xlink:title=" ">
<path fill="none" stroke="#63b8ff" d="M109.54,-104.51C127.49,-108.13 148.67,-111.89 168,-114 380.49,-137.17 634.93,-136.79 747.72,-135.19"/>
<polygon fill="#63b8ff" stroke="#63b8ff" points="747.92,-138.68 757.86,-135.03 747.81,-131.68 747.92,-138.68"/>
</a>
</g>
</g>
<!-- Node11 -->
<g id="Node000011" class="node">
<title>Node11</title>
<g id="a_Node000011"><a xlink:href="classUnit.html#abf6f96685e3a0231a368ded725b88814" target="_top" xlink:title=" ">
<polygon fill="white" stroke="#666666" points="321.5,-104.5 188.5,-104.5 188.5,-85.5 321.5,-85.5 321.5,-104.5"/>
<text text-anchor="middle" x="255" y="-92.5" font-family="Helvetica,sans-Serif" font-size="10.00">Unit::getThreatManager</text>
</a>
</g>
</g>
<!-- Node1&#45;&gt;Node11 -->
<g id="edge10_Node000001_Node000011" class="edge">
<title>Node1&#45;&gt;Node11</title>
<g id="a_edge10_Node000001_Node000011"><a xlink:title=" ">
<path fill="none" stroke="#63b8ff" d="M132.14,-95C146.96,-95 162.82,-95 178.04,-95"/>
<polygon fill="#63b8ff" stroke="#63b8ff" points="178.46,-98.5 188.46,-95 178.46,-91.5 178.46,-98.5"/>
</a>
</g>
</g>
<!-- Node12 -->
<g id="Node000012" class="node">
<title>Node12</title>
<g id="a_Node000012"><a xlink:href="classObject.html#ad867b68be484ae121ca3b1cb4e947244" target="_top" xlink:title=" ">
<polygon fill="white" stroke="#666666" points="307,-67.5 203,-67.5 203,-48.5 307,-48.5 307,-67.5"/>
<text text-anchor="middle" x="255" y="-55.5" font-family="Helvetica,sans-Serif" font-size="10.00">Object::isCreature</text>
</a>
</g>
</g>
<!-- Node1&#45;&gt;Node12 -->
<g id="edge11_Node000001_Node000012" class="edge">
<title>Node1&#45;&gt;Node12</title>
<g id="a_edge11_Node000001_Node000012"><a xlink:title=" ">
<path fill="none" stroke="#63b8ff" d="M115.16,-85.47C139.71,-80.61 169.77,-74.67 195.63,-69.55"/>
<polygon fill="#63b8ff" stroke="#63b8ff" points="196.55,-72.93 205.68,-67.56 195.19,-66.07 196.55,-72.93"/>
</a>
</g>
</g>
<!-- Node14 -->
<g id="Node000014" class="node">
<title>Node14</title>
<g id="a_Node000014"><a xlink:href="classThreatManager.html#a7714cc75912fc5f22cb82084f7d857eb" target="_top" xlink:title=" ">
<polygon fill="white" stroke="#666666" points="342,-30 168,-30 168,0 342,0 342,-30"/>
<text text-anchor="start" x="176" y="-18" font-family="Helvetica,sans-Serif" font-size="10.00">ThreatManager::removeMeFrom</text>
<text text-anchor="middle" x="255" y="-7" font-family="Helvetica,sans-Serif" font-size="10.00">ThreatLists</text>
</a>
</g>
</g>
<!-- Node1&#45;&gt;Node14 -->
<g id="edge14_Node000001_Node000014" class="edge">
<title>Node1&#45;&gt;Node14</title>
<g id="a_edge14_Node000001_Node000014"><a xlink:title=" ">
<path fill="none" stroke="#63b8ff" d="M81.85,-85.31C101.07,-73.11 135.91,-52.16 168,-39 173.02,-36.94 178.27,-35 183.61,-33.17"/>
<polygon fill="#63b8ff" stroke="#63b8ff" points="184.83,-36.46 193.25,-30.03 182.66,-29.8 184.83,-36.46"/>
</a>
</g>
</g>
<!-- Node3 -->
<g id="Node000003" class="node">
<title>Node3</title>
<g id="a_Node000003"><a xlink:href="classThreatManager.html#a1ebb3c6cf2f14f30726f62aff8c1487d" target="_top" xlink:title=" ">
<polygon fill="white" stroke="#666666" points="524,-223 378,-223 378,-193 524,-193 524,-223"/>
<text text-anchor="start" x="386" y="-211" font-family="Helvetica,sans-Serif" font-size="10.00">ThreatManager::sendClear</text>
<text text-anchor="middle" x="451" y="-200" font-family="Helvetica,sans-Serif" font-size="10.00">AllThreatToClients</text>
</a>
</g>
</g>
<!-- Node2&#45;&gt;Node3 -->
<g id="edge2_Node000002_Node000003" class="edge">
<title>Node2&#45;&gt;Node3</title>
<g id="a_edge2_Node000002_Node000003"><a xlink:title=" ">
<path fill="none" stroke="#63b8ff" d="M337.71,-197.58C347.63,-198.5 357.76,-199.44 367.68,-200.36"/>
<polygon fill="#63b8ff" stroke="#63b8ff" points="367.65,-203.87 377.93,-201.31 368.29,-196.9 367.65,-203.87"/>
</a>
</g>
</g>
<!-- Node4 -->
<g id="Node000004" class="node">
<title>Node4</title>
<g id="a_Node000004"><a xlink:href="classByteBuffer.html#a5811e6da355e8c3d0f45997a557a666b" target="_top" xlink:title=" ">
<polygon fill="white" stroke="#666666" points="694,-291.5 584,-291.5 584,-272.5 694,-272.5 694,-291.5"/>
<text text-anchor="middle" x="639" y="-279.5" font-family="Helvetica,sans-Serif" font-size="10.00">ByteBuffer::append</text>
</a>
</g>
</g>
<!-- Node3&#45;&gt;Node4 -->
<g id="edge3_Node000003_Node000004" class="edge">
<title>Node3&#45;&gt;Node4</title>
<g id="a_edge3_Node000003_Node000004"><a xlink:title=" ">
<path fill="none" stroke="#63b8ff" d="M476.92,-223.23C498.3,-235.71 530.27,-253.06 560,-264 565.82,-266.14 571.98,-268.08 578.19,-269.83"/>
<polygon fill="#63b8ff" stroke="#63b8ff" points="577.37,-273.23 587.94,-272.42 579.17,-266.47 577.37,-273.23"/>
</a>
</g>
</g>
<!-- Node5 -->
<g id="Node000005" class="node">
<title>Node5</title>
<g id="a_Node000005"><a xlink:href="classByteBuffer.html#a822506878cb491814caa02dce9361efa" target="_top" xlink:title=" ">
<polygon fill="white" stroke="#666666" points="718,-254.5 560,-254.5 560,-235.5 718,-235.5 718,-254.5"/>
<text text-anchor="middle" x="639" y="-242.5" font-family="Helvetica,sans-Serif" font-size="10.00">ByteBuffer::appendPackGUID</text>
</a>
</g>
</g>
<!-- Node3&#45;&gt;Node5 -->
<g id="edge4_Node000003_Node000005" class="edge">
<title>Node3&#45;&gt;Node5</title>
<g id="a_edge4_Node000003_Node000005"><a xlink:title=" ">
<path fill="none" stroke="#63b8ff" d="M524.18,-222.36C542.62,-226.03 562.21,-229.92 579.84,-233.43"/>
<polygon fill="#63b8ff" stroke="#63b8ff" points="579.48,-236.93 589.98,-235.45 580.85,-230.06 579.48,-236.93"/>
</a>
</g>
</g>
<!-- Node6 -->
<g id="Node000006" class="node">
<title>Node6</title>
<g id="a_Node000006"><a xlink:href="classObject.html#a0f6639fef4e90bc57ee1b34a81d6d489" target="_top" xlink:title=" ">
<polygon fill="white" stroke="#666666" points="685,-217.5 593,-217.5 593,-198.5 685,-198.5 685,-217.5"/>
<text text-anchor="middle" x="639" y="-205.5" font-family="Helvetica,sans-Serif" font-size="10.00">Object::getGuid</text>
</a>
</g>
</g>
<!-- Node3&#45;&gt;Node6 -->
<g id="edge5_Node000003_Node000006" class="edge">
<title>Node3&#45;&gt;Node6</title>
<g id="a_edge5_Node000003_Node000006"><a xlink:title=" ">
<path fill="none" stroke="#63b8ff" d="M524.18,-208C543.56,-208 564.21,-208 582.53,-208"/>
<polygon fill="#63b8ff" stroke="#63b8ff" points="582.73,-211.5 592.73,-208 582.73,-204.5 582.73,-211.5"/>
</a>
</g>
</g>
<!-- Node8 -->
<g id="Node000008" class="node">
<title>Node8</title>
<g id="a_Node000008"><a xlink:href="classObject.html#afbafc0f687c733c81277b15e53c082c7" target="_top" xlink:title=" ">
<polygon fill="white" stroke="#666666" points="712.5,-180.5 565.5,-180.5 565.5,-161.5 712.5,-161.5 712.5,-180.5"/>
<text text-anchor="middle" x="639" y="-168.5" font-family="Helvetica,sans-Serif" font-size="10.00">Object::sendMessageToSet</text>
</a>
</g>
</g>
<!-- Node3&#45;&gt;Node8 -->
<g id="edge7_Node000003_Node000008" class="edge">
<title>Node3&#45;&gt;Node8</title>
<g id="a_edge7_Node000003_Node000008"><a xlink:title=" ">
<path fill="none" stroke="#63b8ff" d="M524.18,-193.64C542.62,-189.97 562.21,-186.08 579.84,-182.57"/>
<polygon fill="#63b8ff" stroke="#63b8ff" points="580.85,-185.94 589.98,-180.55 579.48,-179.07 580.85,-185.94"/>
</a>
</g>
</g>
<!-- Node7 -->
<g id="Node000007" class="node">
<title>Node7</title>
<g id="a_Node000007"><a xlink:href="classObject.html#ae9814731421ab3e919a2e5c3b86e0eeb" target="_top" xlink:title=" ">
<polygon fill="white" stroke="#666666" points="861,-217.5 754,-217.5 754,-198.5 861,-198.5 861,-217.5"/>
<text text-anchor="middle" x="807.5" y="-205.5" font-family="Helvetica,sans-Serif" font-size="10.00">Object::objectData</text>
</a>
</g>
</g>
<!-- Node6&#45;&gt;Node7 -->
<g id="edge6_Node000006_Node000007" class="edge">
<title>Node6&#45;&gt;Node7</title>
<g id="a_edge6_Node000006_Node000007"><a xlink:title=" ">
<path fill="none" stroke="#63b8ff" d="M685.06,-208C703.1,-208 724.2,-208 743.7,-208"/>
<polygon fill="#63b8ff" stroke="#63b8ff" points="743.73,-211.5 753.73,-208 743.73,-204.5 743.73,-211.5"/>
</a>
</g>
</g>
<!-- Node9 -->
<g id="Node000009" class="node">
<title>Node9</title>
<g id="a_Node000009"><a xlink:href="classObject.html#ab32822d3603e26f4a51e881215d49520" target="_top" xlink:title=" ">
<polygon fill="white" stroke="#666666" points="858,-180.5 757,-180.5 757,-161.5 858,-161.5 858,-180.5"/>
<text text-anchor="middle" x="807.5" y="-168.5" font-family="Helvetica,sans-Serif" font-size="10.00">Object::GetPhase</text>
</a>
</g>
</g>
<!-- Node8&#45;&gt;Node9 -->
<g id="edge8_Node000008_Node000009" class="edge">
<title>Node8&#45;&gt;Node9</title>
<g id="a_edge8_Node000008_Node000009"><a xlink:title=" ">
<path fill="none" stroke="#63b8ff" d="M712.54,-171C723.83,-171 735.39,-171 746.37,-171"/>
<polygon fill="#63b8ff" stroke="#63b8ff" points="746.68,-174.5 756.68,-171 746.68,-167.5 746.68,-174.5"/>
</a>
</g>
</g>
<!-- Node8&#45;&gt;Node10 -->
<g id="edge9_Node000008_Node000010" class="edge">
<title>Node8&#45;&gt;Node10</title>
<g id="a_edge9_Node000008_Node000010"><a xlink:title=" ">
<path fill="none" stroke="#63b8ff" d="M682.88,-161.47C704.45,-156.68 730.79,-150.82 753.61,-145.75"/>
<polygon fill="#63b8ff" stroke="#63b8ff" points="754.48,-149.15 763.48,-143.56 752.96,-142.31 754.48,-149.15"/>
</a>
</g>
</g>
<!-- Node13 -->
<g id="Node000013" class="node">
<title>Node13</title>
<g id="a_Node000013"><a xlink:href="classObject.html#aaee2ed63355af5e632aba82f859822b4" target="_top" xlink:title=" ">
<polygon fill="white" stroke="#666666" points="517.5,-67.5 384.5,-67.5 384.5,-48.5 517.5,-48.5 517.5,-67.5"/>
<text text-anchor="middle" x="451" y="-55.5" font-family="Helvetica,sans-Serif" font-size="10.00">Object::getObjectTypeId</text>
</a>
</g>
</g>
<!-- Node12&#45;&gt;Node13 -->
<g id="edge12_Node000012_Node000013" class="edge">
<title>Node12&#45;&gt;Node13</title>
<g id="a_edge12_Node000012_Node000013"><a xlink:title=" ">
<path fill="none" stroke="#63b8ff" d="M307.22,-58C327.67,-58 351.63,-58 374.02,-58"/>
<polygon fill="#63b8ff" stroke="#63b8ff" points="374.18,-61.5 384.18,-58 374.18,-54.5 374.18,-61.5"/>
</a>
</g>
</g>
</g>
</svg>

<g id="navigator" transform="translate(0 0)" fill="#404254">
  <rect fill="#f2f5e9" fill-opacity="0.5" stroke="#606060" stroke-width=".5" x="0" y="0" width="60" height="60"/>
  <use id="zoomplus" xlink:href="#zoomPlus" x="17" y="9" onmousedown="handleZoom(evt,'in')"/>
  <use id="zoomminus" xlink:href="#zoomMin" x="42" y="9" onmousedown="handleZoom(evt,'out')"/>
  <use id="reset" xlink:href="#resetDef" x="30" y="36" onmousedown="handleReset()"/>
   <use id="arrowup" xlink:href="#arrowUp" x="0" y="0" onmousedown="handlePan(0,-1)"/>
  <use id="arrowright" xlink:href="#arrowRight" x="0" y="0" onmousedown="handlePan(1,0)"/>
  <use id="arrowdown" xlink:href="#arrowDown" x="0" y="0" onmousedown="handlePan(0,1)"/>
  <use id="arrowleft" xlink:href="#arrowLeft" x="0" y="0" onmousedown="handlePan(-1,0)"/>
</g>
<svg viewBox="0 0 15 15" width="100%" height="30px" preserveAspectRatio="xMaxYMin meet">
 <g id="arrow_out" transform="scale(0.3 0.3)">
  <a xlink:href="classLuaUnit_aff274100a3f0752886bfdf1b9e3facde_cgraph_org.svg" target="_base">
   <rect id="button" ry="5" rx="5" y="6" x="6" height="38" width="38"
        fill="#f2f5e9" fill-opacity="0.5" stroke="#606060" stroke-width="1.0"/>
   <path id="arrow"
     d="M 11.500037,31.436501 C 11.940474,20.09759 22.043105,11.32322 32.158766,21.979434 L 37.068811,17.246167 C 37.068811,17.246167 37.088388,32 37.088388,32 L 22.160133,31.978069 C 22.160133,31.978069 26.997745,27.140456 26.997745,27.140456 C 18.528582,18.264221 13.291696,25.230495 11.500037,31.436501 z"
     style="fill:#404040;"/>
  </a>
 </g>
</svg>

<style type='text/css'>
<![CDATA[
[data-mouse-over-selected='false'] { opacity: 0.7; }
[data-mouse-over-selected='true']  { opacity: 1.0; }
]]>
</style>
<script type="application/ecmascript"><![CDATA[
document.addEventListener('DOMContentLoaded', (event) => {
  highlightEdges();
  highlightAdjacentNodes();
});
]]></script>
</svg>
