<?xml version="1.0" encoding="UTF-8" standalone="no"?>
<!DOCTYPE svg PUBLIC "-//W3C//DTD SVG 1.1//EN"
 "http://www.w3.org/Graphics/SVG/1.1/DTD/svg11.dtd">
<!-- Generated by graphviz version 2.43.0 (0)
 -->
<!-- Title: G3D::Conduit Pages: 1 -->
<svg width="286pt" height="203pt"
 viewBox="0.00 0.00 285.50 203.00" xmlns="http://www.w3.org/2000/svg" xmlns:xlink="http://www.w3.org/1999/xlink">

<svg id="main" version="1.1" xmlns="http://www.w3.org/2000/svg" xmlns:xlink="http://www.w3.org/1999/xlink" xml:space="preserve" onload="init(evt)">
<style type="text/css"><![CDATA[
.node, .edge {opacity: 0.7;}
.node.selected, .edge.selected {opacity: 1;}
.edge:hover path { stroke: red; }
.edge:hover polygon { stroke: red; fill: red; }
]]></style>
<script type="application/ecmascript" xlink:href="svg.min.js"/>
<svg id="graph" class="graph">
<g id="graph0" class="graph" transform="scale(1 1) rotate(0) translate(4 199)">
<title>G3D::Conduit</title>
<!-- Node1 -->
<g id="Node000001" class="node">
<title>Node1</title>
<g id="a_Node000001"><a xlink:title=" ">
<polygon fill="#999999" stroke="#666666" points="183.5,-74 102.5,-74 102.5,-55 183.5,-55 183.5,-74"/>
<text text-anchor="middle" x="143" y="-62" font-family="Helvetica,sans-Serif" font-size="10.00">G3D::Conduit</text>
</a>
</g>
</g>
<!-- Node4 -->
<g id="Node000004" class="node">
<title>Node4</title>
<g id="a_Node000004"><a xlink:href="classG3D_1_1LightweightConduit.html" target="_top" xlink:title=" ">
<polygon fill="white" stroke="#666666" points="138,-19 0,-19 0,0 138,0 138,-19"/>
<text text-anchor="middle" x="69" y="-7" font-family="Helvetica,sans-Serif" font-size="10.00">G3D::LightweightConduit</text>
</a>
</g>
</g>
<!-- Node1&#45;&gt;Node4 -->
<g id="edge3_Node000001_Node000004" class="edge">
<title>Node1&#45;&gt;Node4</title>
<g id="a_edge3_Node000001_Node000004"><a xlink:title=" ">
<path fill="none" stroke="#63b8ff" d="M122.97,-49.15C109.59,-39.57 92.44,-27.29 81.11,-19.17"/>
<polygon fill="#63b8ff" stroke="#63b8ff" points="120.94,-52.01 131.11,-54.98 125.02,-46.32 120.94,-52.01"/>
</a>
</g>
</g>
<!-- Node5 -->
<g id="Node000005" class="node">
<title>Node5</title>
<g id="a_Node000005"><a xlink:href="classG3D_1_1ReliableConduit.html" target="_top" xlink:title=" ">
<polygon fill="white" stroke="#666666" points="277.5,-19 156.5,-19 156.5,0 277.5,0 277.5,-19"/>
<text text-anchor="middle" x="217" y="-7" font-family="Helvetica,sans-Serif" font-size="10.00">G3D::ReliableConduit</text>
</a>
</g>
</g>
<!-- Node1&#45;&gt;Node5 -->
<g id="edge4_Node000001_Node000005" class="edge">
<title>Node1&#45;&gt;Node5</title>
<g id="a_edge4_Node000001_Node000005"><a xlink:title=" ">
<path fill="none" stroke="#63b8ff" d="M163.03,-49.15C176.41,-39.57 193.56,-27.29 204.89,-19.17"/>
<polygon fill="#63b8ff" stroke="#63b8ff" points="160.98,-46.32 154.89,-54.98 165.06,-52.01 160.98,-46.32"/>
</a>
</g>
</g>
<!-- Node2 -->
<g id="Node000002" class="node">
<title>Node2</title>
<g id="a_Node000002"><a xlink:href="classG3D_1_1ReferenceCountedObject.html" target="_top" xlink:title=" ">
<polygon fill="white" stroke="#666666" points="225.5,-129 60.5,-129 60.5,-110 225.5,-110 225.5,-129"/>
<text text-anchor="middle" x="143" y="-117" font-family="Helvetica,sans-Serif" font-size="10.00">G3D::ReferenceCountedObject</text>
</a>
</g>
</g>
<!-- Node2&#45;&gt;Node1 -->
<g id="edge1_Node000001_Node000002" class="edge">
<title>Node2&#45;&gt;Node1</title>
<g id="a_edge1_Node000001_Node000002"><a xlink:title=" ">
<path fill="none" stroke="#63b8ff" d="M143,-99.66C143,-90.93 143,-80.99 143,-74.09"/>
<polygon fill="#63b8ff" stroke="#63b8ff" points="139.5,-99.75 143,-109.75 146.5,-99.75 139.5,-99.75"/>
</a>
</g>
</g>
<!-- Node3 -->
<g id="Node000003" class="node">
<title>Node3</title>
<g id="a_Node000003"><a xlink:title=" ">
<polygon fill="white" stroke="#666666" points="235,-195 51,-195 51,-165 235,-165 235,-195"/>
<text text-anchor="start" x="59" y="-183" font-family="Helvetica,sans-Serif" font-size="10.00">enable_shared_from</text>
<text text-anchor="middle" x="143" y="-172" font-family="Helvetica,sans-Serif" font-size="10.00">_this&lt; ReferenceCountedObject &gt;</text>
</a>
</g>
</g>
<!-- Node3&#45;&gt;Node2 -->
<g id="edge2_Node000002_Node000003" class="edge">
<title>Node3&#45;&gt;Node2</title>
<g id="a_edge2_Node000002_Node000003"><a xlink:title=" ">
<path fill="none" stroke="#63b8ff" d="M143,-154.75C143,-145.72 143,-136.03 143,-129.27"/>
<polygon fill="#63b8ff" stroke="#63b8ff" points="139.5,-154.84 143,-164.84 146.5,-154.84 139.5,-154.84"/>
</a>
</g>
</g>
</g>
</svg>
</svg>

<style type='text/css'>
<![CDATA[
[data-mouse-over-selected='false'] { opacity: 0.7; }
[data-mouse-over-selected='true']  { opacity: 1.0; }
]]>
</style>
<script type="application/ecmascript"><![CDATA[
document.addEventListener('DOMContentLoaded', (event) => {
  highlightEdges();
  highlightAdjacentNodes();
});
]]></script>
</svg>
