<?xml version="1.0" encoding="UTF-8" standalone="no"?>
<!DOCTYPE svg PUBLIC "-//W3C//DTD SVG 1.1//EN"
 "http://www.w3.org/Graphics/SVG/1.1/DTD/svg11.dtd">
<!-- Generated by graphviz version 2.43.0 (0)
 -->
<!-- Title: Aura::applyModifiers Pages: 1 -->
<svg width="438pt" height="237pt"
 viewBox="0.00 0.00 438.00 236.50" xmlns="http://www.w3.org/2000/svg" xmlns:xlink="http://www.w3.org/1999/xlink">
<g id="graph0" class="graph" transform="scale(1 1) rotate(0) translate(4 232.5)">
<title>Aura::applyModifiers</title>
<!-- Node1 -->
<g id="Node000001" class="node">
<title>Node1</title>
<g id="a_Node000001"><a xlink:title=" ">
<polygon fill="#999999" stroke="#666666" points="117,-93 0,-93 0,-74 117,-74 117,-93"/>
<text text-anchor="middle" x="58.5" y="-81" font-family="Helvetica,sans-Serif" font-size="10.00">Aura::applyModifiers</text>
</a>
</g>
</g>
<!-- Node2 -->
<g id="Node000002" class="node">
<title>Node2</title>
<g id="a_Node000002"><a xlink:href="structAuraEffectModifier.html#a1b394317928aa987924e765c682f753a" target="_top" xlink:title=" ">
<polygon fill="white" stroke="#666666" points="271.5,-180.5 164.5,-180.5 164.5,-150.5 271.5,-150.5 271.5,-180.5"/>
<text text-anchor="start" x="172.5" y="-168.5" font-family="Helvetica,sans-Serif" font-size="10.00">AuraEffectModifier</text>
<text text-anchor="middle" x="218" y="-157.5" font-family="Helvetica,sans-Serif" font-size="10.00">::applyEffect</text>
</a>
</g>
</g>
<!-- Node1&#45;&gt;Node2 -->
<g id="edge1_Node000001_Node000002" class="edge">
<title>Node1&#45;&gt;Node2</title>
<g id="a_edge1_Node000001_Node000002"><a xlink:title=" ">
<path fill="none" stroke="#63b8ff" d="M74.38,-93.09C92.55,-104.59 124.39,-124.13 153,-138.5 158.32,-141.17 163.96,-143.81 169.61,-146.34"/>
<polygon fill="#63b8ff" stroke="#63b8ff" points="168.49,-149.67 179.06,-150.47 171.3,-143.26 168.49,-149.67"/>
</a>
</g>
</g>
<!-- Node5 -->
<g id="Node000005" class="node">
<title>Node5</title>
<g id="a_Node000005"><a xlink:href="classAura.html#a5eb1b7963cabfb843c531caca0d75412" target="_top" xlink:title=" ">
<polygon fill="white" stroke="#666666" points="283,-130 153,-130 153,-111 283,-111 283,-130"/>
<text text-anchor="middle" x="218" y="-118" font-family="Helvetica,sans-Serif" font-size="10.00">Aura::getEffectDamage</text>
</a>
</g>
</g>
<!-- Node1&#45;&gt;Node5 -->
<g id="edge4_Node000001_Node000005" class="edge">
<title>Node1&#45;&gt;Node5</title>
<g id="a_edge4_Node000001_Node000005"><a xlink:title=" ">
<path fill="none" stroke="#63b8ff" d="M100.06,-93.03C120.28,-97.78 144.94,-103.57 166.38,-108.61"/>
<polygon fill="#63b8ff" stroke="#63b8ff" points="165.77,-112.06 176.3,-110.94 167.37,-105.25 165.77,-112.06"/>
</a>
</g>
</g>
<!-- Node7 -->
<g id="Node000007" class="node">
<title>Node7</title>
<g id="a_Node000007"><a xlink:href="classAura.html#a65b9a2cb49279d129328f9b6f58166cc" target="_top" xlink:title=" ">
<polygon fill="white" stroke="#666666" points="264,-93 172,-93 172,-74 264,-74 264,-93"/>
<text text-anchor="middle" x="218" y="-81" font-family="Helvetica,sans-Serif" font-size="10.00">Aura::getOwner</text>
</a>
</g>
</g>
<!-- Node1&#45;&gt;Node7 -->
<g id="edge6_Node000001_Node000007" class="edge">
<title>Node1&#45;&gt;Node7</title>
<g id="a_edge6_Node000001_Node000007"><a xlink:title=" ">
<path fill="none" stroke="#63b8ff" d="M117.25,-83.5C131.66,-83.5 147.09,-83.5 161.39,-83.5"/>
<polygon fill="#63b8ff" stroke="#63b8ff" points="161.58,-87 171.58,-83.5 161.58,-80 161.58,-87"/>
</a>
</g>
</g>
<!-- Node8 -->
<g id="Node000008" class="node">
<title>Node8</title>
<g id="a_Node000008"><a xlink:href="classAura.html#a160caec7494437c30e3cd0dcc513007b" target="_top" xlink:title=" ">
<polygon fill="white" stroke="#666666" points="270,-56 166,-56 166,-37 270,-37 270,-56"/>
<text text-anchor="middle" x="218" y="-44" font-family="Helvetica,sans-Serif" font-size="10.00">Aura::getSpellInfo</text>
</a>
</g>
</g>
<!-- Node1&#45;&gt;Node8 -->
<g id="edge7_Node000001_Node000008" class="edge">
<title>Node1&#45;&gt;Node8</title>
<g id="a_edge7_Node000001_Node000008"><a xlink:title=" ">
<path fill="none" stroke="#63b8ff" d="M100.06,-73.97C120.28,-69.22 144.94,-63.43 166.38,-58.39"/>
<polygon fill="#63b8ff" stroke="#63b8ff" points="167.37,-61.75 176.3,-56.06 165.77,-54.94 167.37,-61.75"/>
</a>
</g>
</g>
<!-- Node9 -->
<g id="Node000009" class="node">
<title>Node9</title>
<g id="a_Node000009"><a xlink:href="classAura.html#a0c3103017544f9d5ef8bbc7b16855a5a" target="_top" xlink:title=" ">
<polygon fill="white" stroke="#666666" points="270,-19 166,-19 166,0 270,0 270,-19"/>
<text text-anchor="middle" x="218" y="-7" font-family="Helvetica,sans-Serif" font-size="10.00">Aura::getTimeLeft</text>
</a>
</g>
</g>
<!-- Node1&#45;&gt;Node9 -->
<g id="edge8_Node000001_Node000009" class="edge">
<title>Node1&#45;&gt;Node9</title>
<g id="a_edge8_Node000001_Node000009"><a xlink:title=" ">
<path fill="none" stroke="#63b8ff" d="M72.83,-73.95C90.44,-61.72 122.76,-40.53 153,-27.5 157.47,-25.57 162.2,-23.79 166.99,-22.17"/>
<polygon fill="#63b8ff" stroke="#63b8ff" points="168.36,-25.4 176.83,-19.03 166.24,-18.73 168.36,-25.4"/>
</a>
</g>
</g>
<!-- Node3 -->
<g id="Node000003" class="node">
<title>Node3</title>
<g id="a_Node000003"><a xlink:href="structAuraEffectModifier.html#a029012b3acd63f9ec17206683d759529" target="_top" xlink:title=" ">
<polygon fill="white" stroke="#666666" points="428,-228.5 321,-228.5 321,-198.5 428,-198.5 428,-228.5"/>
<text text-anchor="start" x="329" y="-216.5" font-family="Helvetica,sans-Serif" font-size="10.00">AuraEffectModifier</text>
<text text-anchor="middle" x="374.5" y="-205.5" font-family="Helvetica,sans-Serif" font-size="10.00">::getAura</text>
</a>
</g>
</g>
<!-- Node2&#45;&gt;Node3 -->
<g id="edge2_Node000002_Node000003" class="edge">
<title>Node2&#45;&gt;Node3</title>
<g id="a_edge2_Node000002_Node000003"><a xlink:title=" ">
<path fill="none" stroke="#63b8ff" d="M267.46,-180.56C282.7,-185.29 299.69,-190.57 315.53,-195.49"/>
<polygon fill="#63b8ff" stroke="#63b8ff" points="314.62,-198.87 325.21,-198.5 316.7,-192.19 314.62,-198.87"/>
</a>
</g>
</g>
<!-- Node4 -->
<g id="Node000004" class="node">
<title>Node4</title>
<g id="a_Node000004"><a xlink:href="structAuraEffectModifier.html#a5ce46969d6f1e7eefe273e243a745ef8" target="_top" xlink:title=" ">
<polygon fill="white" stroke="#666666" points="430,-180.5 319,-180.5 319,-150.5 430,-150.5 430,-180.5"/>
<text text-anchor="start" x="327" y="-168.5" font-family="Helvetica,sans-Serif" font-size="10.00">AuraEffectModifier</text>
<text text-anchor="middle" x="374.5" y="-157.5" font-family="Helvetica,sans-Serif" font-size="10.00">::getAuraEffectType</text>
</a>
</g>
</g>
<!-- Node2&#45;&gt;Node4 -->
<g id="edge3_Node000002_Node000004" class="edge">
<title>Node2&#45;&gt;Node4</title>
<g id="a_edge3_Node000002_Node000004"><a xlink:title=" ">
<path fill="none" stroke="#63b8ff" d="M271.74,-165.5C283.62,-165.5 296.37,-165.5 308.68,-165.5"/>
<polygon fill="#63b8ff" stroke="#63b8ff" points="308.89,-169 318.89,-165.5 308.89,-162 308.89,-169"/>
</a>
</g>
</g>
<!-- Node6 -->
<g id="Node000006" class="node">
<title>Node6</title>
<g id="a_Node000006"><a xlink:href="structAuraEffectModifier.html#aeab95ea0073750f11de617348d95990a" target="_top" xlink:title=" ">
<polygon fill="white" stroke="#666666" points="428,-132.5 321,-132.5 321,-102.5 428,-102.5 428,-132.5"/>
<text text-anchor="start" x="329" y="-120.5" font-family="Helvetica,sans-Serif" font-size="10.00">AuraEffectModifier</text>
<text text-anchor="middle" x="374.5" y="-109.5" font-family="Helvetica,sans-Serif" font-size="10.00">::getEffectDamage</text>
</a>
</g>
</g>
<!-- Node5&#45;&gt;Node6 -->
<g id="edge5_Node000005_Node000006" class="edge">
<title>Node5&#45;&gt;Node6</title>
<g id="a_edge5_Node000005_Node000006"><a xlink:title=" ">
<path fill="none" stroke="#63b8ff" d="M283.18,-119.25C292.22,-119.08 301.5,-118.9 310.51,-118.72"/>
<polygon fill="#63b8ff" stroke="#63b8ff" points="310.61,-122.22 320.54,-118.53 310.48,-115.22 310.61,-122.22"/>
</a>
</g>
</g>
</g>
</svg>
