<?xml version="1.0" encoding="UTF-8" standalone="no"?>
<!DOCTYPE svg PUBLIC "-//W3C//DTD SVG 1.1//EN"
 "http://www.w3.org/Graphics/SVG/1.1/DTD/svg11.dtd">
<!-- Generated by graphviz version 2.43.0 (0)
 -->
<!-- Title: ChatCommandHandler::HandleGORebuildCommand Pages: 1 -->
<svg width="1509pt" height="344pt"
 viewBox="0.00 0.00 1509.00 343.50" xmlns="http://www.w3.org/2000/svg" xmlns:xlink="http://www.w3.org/1999/xlink">
<g id="graph0" class="graph" transform="scale(1 1) rotate(0) translate(4 339.5)">
<title>ChatCommandHandler::HandleGORebuildCommand</title>
<!-- Node1 -->
<g id="Node000001" class="node">
<title>Node1</title>
<g id="a_Node000001"><a xlink:title=" ">
<polygon fill="#999999" stroke="#666666" points="159,-207.5 0,-207.5 0,-177.5 159,-177.5 159,-207.5"/>
<text text-anchor="start" x="8" y="-195.5" font-family="Helvetica,sans-Serif" font-size="10.00">ChatCommandHandler</text>
<text text-anchor="middle" x="79.5" y="-184.5" font-family="Helvetica,sans-Serif" font-size="10.00">::HandleGORebuildCommand</text>
</a>
</g>
</g>
<!-- Node2 -->
<g id="Node000002" class="node">
<title>Node2</title>
<g id="a_Node000002"><a xlink:href="classChatCommandHandler.html#a1141a5b3f55d31ed3201e0bd266ef0ab" target="_top" xlink:title=" ">
<polygon fill="white" stroke="#666666" points="330,-335.5 202,-335.5 202,-305.5 330,-305.5 330,-335.5"/>
<text text-anchor="start" x="210" y="-323.5" font-family="Helvetica,sans-Serif" font-size="10.00">ChatCommandHandler</text>
<text text-anchor="middle" x="266" y="-312.5" font-family="Helvetica,sans-Serif" font-size="10.00">::blueSystemMessage</text>
</a>
</g>
</g>
<!-- Node1&#45;&gt;Node2 -->
<g id="edge1_Node000001_Node000002" class="edge">
<title>Node1&#45;&gt;Node2</title>
<g id="a_edge1_Node000001_Node000002"><a xlink:title=" ">
<path fill="none" stroke="#63b8ff" d="M93.45,-207.68C113.24,-230.02 153.16,-271.77 195,-296.5 197.82,-298.17 200.77,-299.74 203.8,-301.22"/>
<polygon fill="#63b8ff" stroke="#63b8ff" points="202.52,-304.48 213.08,-305.39 205.39,-298.1 202.52,-304.48"/>
</a>
</g>
</g>
<!-- Node3 -->
<g id="Node000003" class="node">
<title>Node3</title>
<g id="a_Node000003"><a xlink:href="classGameObject__Destructible.html#a2b3a035f674a74f688419fd97e93ec8c" target="_top" xlink:title=" ">
<polygon fill="white" stroke="#666666" points="337,-287.5 195,-287.5 195,-257.5 337,-257.5 337,-287.5"/>
<text text-anchor="start" x="203" y="-275.5" font-family="Helvetica,sans-Serif" font-size="10.00">GameObject_Destructible</text>
<text text-anchor="middle" x="266" y="-264.5" font-family="Helvetica,sans-Serif" font-size="10.00">::GetHP</text>
</a>
</g>
</g>
<!-- Node1&#45;&gt;Node3 -->
<g id="edge2_Node000001_Node000003" class="edge">
<title>Node1&#45;&gt;Node3</title>
<g id="a_edge2_Node000001_Node000003"><a xlink:title=" ">
<path fill="none" stroke="#63b8ff" d="M108.75,-207.54C131.65,-219.44 164.95,-236.06 195,-248.5 199.44,-250.34 204.08,-252.15 208.76,-253.91"/>
<polygon fill="#63b8ff" stroke="#63b8ff" points="207.79,-257.28 218.38,-257.43 210.19,-250.71 207.79,-257.28"/>
</a>
</g>
</g>
<!-- Node4 -->
<g id="Node000004" class="node">
<title>Node4</title>
<g id="a_Node000004"><a xlink:href="classWorldSession.html#a014d7fdeb157410b75dfd4bd0fe0efc2" target="_top" xlink:title=" ">
<polygon fill="white" stroke="#666666" points="334,-239 198,-239 198,-220 334,-220 334,-239"/>
<text text-anchor="middle" x="266" y="-227" font-family="Helvetica,sans-Serif" font-size="10.00">WorldSession::GetPlayer</text>
</a>
</g>
</g>
<!-- Node1&#45;&gt;Node4 -->
<g id="edge3_Node000001_Node000004" class="edge">
<title>Node1&#45;&gt;Node4</title>
<g id="a_edge3_Node000001_Node000004"><a xlink:title=" ">
<path fill="none" stroke="#63b8ff" d="M155.54,-207.55C172.89,-211.03 191.08,-214.68 207.54,-217.98"/>
<polygon fill="#63b8ff" stroke="#63b8ff" points="207.05,-221.45 217.55,-219.98 208.43,-214.59 207.05,-221.45"/>
</a>
</g>
</g>
<!-- Node5 -->
<g id="Node000005" class="node">
<title>Node5</title>
<g id="a_Node000005"><a xlink:href="classPlayer.html#a895cdafbde73ce3949d2700ce186c9ca" target="_top" xlink:title=" ">
<polygon fill="white" stroke="#666666" points="328.5,-202 203.5,-202 203.5,-183 328.5,-183 328.5,-202"/>
<text text-anchor="middle" x="266" y="-190" font-family="Helvetica,sans-Serif" font-size="10.00">Player::getSelectedGo</text>
</a>
</g>
</g>
<!-- Node1&#45;&gt;Node5 -->
<g id="edge4_Node000001_Node000005" class="edge">
<title>Node1&#45;&gt;Node5</title>
<g id="a_edge4_Node000001_Node000005"><a xlink:title=" ">
<path fill="none" stroke="#63b8ff" d="M159.01,-192.5C170.35,-192.5 181.97,-192.5 193.17,-192.5"/>
<polygon fill="#63b8ff" stroke="#63b8ff" points="193.32,-196 203.32,-192.5 193.32,-189 193.32,-196"/>
</a>
</g>
</g>
<!-- Node8 -->
<g id="Node000008" class="node">
<title>Node8</title>
<g id="a_Node000008"><a xlink:href="classChatCommandHandler.html#a562947bc81997bcf5225df5cf1fbcaa6" target="_top" xlink:title=" ">
<polygon fill="white" stroke="#666666" points="331.5,-116.5 200.5,-116.5 200.5,-86.5 331.5,-86.5 331.5,-116.5"/>
<text text-anchor="start" x="208.5" y="-104.5" font-family="Helvetica,sans-Serif" font-size="10.00">ChatCommandHandler</text>
<text text-anchor="middle" x="266" y="-93.5" font-family="Helvetica,sans-Serif" font-size="10.00">::greenSystemMessage</text>
</a>
</g>
</g>
<!-- Node1&#45;&gt;Node8 -->
<g id="edge7_Node000001_Node000008" class="edge">
<title>Node1&#45;&gt;Node8</title>
<g id="a_edge7_Node000001_Node000008"><a xlink:title=" ">
<path fill="none" stroke="#63b8ff" d="M103.45,-177.23C126.06,-162.63 161.92,-140.67 195,-125.5 199.05,-123.64 203.29,-121.85 207.59,-120.13"/>
<polygon fill="#63b8ff" stroke="#63b8ff" points="208.97,-123.35 217.06,-116.51 206.46,-116.82 208.97,-123.35"/>
</a>
</g>
</g>
<!-- Node9 -->
<g id="Node000009" class="node">
<title>Node9</title>
<g id="a_Node000009"><a xlink:href="classGameObject__Destructible.html#aa89a6dbb2d271b24c62ad218c3ee5835" target="_top" xlink:title=" ">
<polygon fill="white" stroke="#666666" points="337,-164.5 195,-164.5 195,-134.5 337,-134.5 337,-164.5"/>
<text text-anchor="start" x="203" y="-152.5" font-family="Helvetica,sans-Serif" font-size="10.00">GameObject_Destructible</text>
<text text-anchor="middle" x="266" y="-141.5" font-family="Helvetica,sans-Serif" font-size="10.00">::Rebuild</text>
</a>
</g>
</g>
<!-- Node1&#45;&gt;Node9 -->
<g id="edge8_Node000001_Node000009" class="edge">
<title>Node1&#45;&gt;Node9</title>
<g id="a_edge8_Node000001_Node000009"><a xlink:title=" ">
<path fill="none" stroke="#63b8ff" d="M145.03,-177.46C159.78,-174.02 175.57,-170.34 190.69,-166.82"/>
<polygon fill="#63b8ff" stroke="#63b8ff" points="191.56,-170.21 200.51,-164.53 189.97,-163.39 191.56,-170.21"/>
</a>
</g>
</g>
<!-- Node26 -->
<g id="Node000026" class="node">
<title>Node26</title>
<g id="a_Node000026"><a xlink:href="classChatCommandHandler.html#ac481a38af41845bdacba6cfca6f08a2d" target="_top" xlink:title=" ">
<polygon fill="white" stroke="#666666" points="330,-68.5 202,-68.5 202,-38.5 330,-38.5 330,-68.5"/>
<text text-anchor="start" x="210" y="-56.5" font-family="Helvetica,sans-Serif" font-size="10.00">ChatCommandHandler</text>
<text text-anchor="middle" x="266" y="-45.5" font-family="Helvetica,sans-Serif" font-size="10.00">::redSystemMessage</text>
</a>
</g>
</g>
<!-- Node1&#45;&gt;Node26 -->
<g id="edge30_Node000001_Node000026" class="edge">
<title>Node1&#45;&gt;Node26</title>
<g id="a_edge30_Node000001_Node000026"><a xlink:title=" ">
<path fill="none" stroke="#63b8ff" d="M91.84,-177.25C110.69,-152.89 150.81,-105.14 195,-77.5 197.59,-75.88 200.29,-74.36 203.08,-72.93"/>
<polygon fill="#63b8ff" stroke="#63b8ff" points="204.62,-76.07 212.18,-68.65 201.64,-69.73 204.62,-76.07"/>
</a>
</g>
</g>
<!-- Node6 -->
<g id="Node000006" class="node">
<title>Node6</title>
<g id="a_Node000006"><a xlink:href="classWorldMap.html#a41b18462725946a0ed119769be41561c" target="_top" xlink:title=" ">
<polygon fill="white" stroke="#666666" points="521,-240 373,-240 373,-221 521,-221 521,-240"/>
<text text-anchor="middle" x="447" y="-228" font-family="Helvetica,sans-Serif" font-size="10.00">WorldMap::getGameObject</text>
</a>
</g>
</g>
<!-- Node5&#45;&gt;Node6 -->
<g id="edge5_Node000005_Node000006" class="edge">
<title>Node5&#45;&gt;Node6</title>
<g id="a_edge5_Node000005_Node000006"><a xlink:title=" ">
<path fill="none" stroke="#63b8ff" d="M312.17,-202.09C336.22,-207.19 365.97,-213.51 391.32,-218.89"/>
<polygon fill="#63b8ff" stroke="#63b8ff" points="390.65,-222.33 401.16,-220.98 392.1,-215.48 390.65,-222.33"/>
</a>
</g>
</g>
<!-- Node7 -->
<g id="Node000007" class="node">
<title>Node7</title>
<g id="a_Node000007"><a xlink:href="classObject.html#a967af054c54b6d9846637ce8718efd75" target="_top" xlink:title=" ">
<polygon fill="white" stroke="#666666" points="1083.5,-266 964.5,-266 964.5,-247 1083.5,-247 1083.5,-266"/>
<text text-anchor="middle" x="1024" y="-254" font-family="Helvetica,sans-Serif" font-size="10.00">Object::getWorldMap</text>
</a>
</g>
</g>
<!-- Node5&#45;&gt;Node7 -->
<g id="edge6_Node000005_Node000007" class="edge">
<title>Node5&#45;&gt;Node7</title>
<g id="a_edge6_Node000005_Node000007"><a xlink:title=" ">
<path fill="none" stroke="#63b8ff" d="M328.6,-197.2C380.05,-201.16 455.32,-207.04 521,-212.5 675.78,-225.38 857.31,-241.55 954.05,-250.26"/>
<polygon fill="#63b8ff" stroke="#63b8ff" points="954,-253.77 964.28,-251.18 954.63,-246.8 954,-253.77"/>
</a>
</g>
</g>
<!-- Node10 -->
<g id="Node000010" class="node">
<title>Node10</title>
<g id="a_Node000010"><a xlink:href="classGameObject.html#a4e0c0bbe6f1d9a49d2723aa7d5fdf811" target="_top" xlink:title=" ">
<polygon fill="white" stroke="#666666" points="520.5,-121 373.5,-121 373.5,-102 520.5,-102 520.5,-121"/>
<text text-anchor="middle" x="447" y="-109" font-family="Helvetica,sans-Serif" font-size="10.00">GameObject::removeFlags</text>
</a>
</g>
</g>
<!-- Node9&#45;&gt;Node10 -->
<g id="edge9_Node000009_Node000010" class="edge">
<title>Node9&#45;&gt;Node10</title>
<g id="a_edge9_Node000009_Node000010"><a xlink:title=" ">
<path fill="none" stroke="#63b8ff" d="M337.23,-134.59C355.24,-130.77 374.35,-126.71 391.44,-123.08"/>
<polygon fill="#63b8ff" stroke="#63b8ff" points="392.19,-126.5 401.25,-121 390.74,-119.65 392.19,-126.5"/>
</a>
</g>
</g>
<!-- Node19 -->
<g id="Node000019" class="node">
<title>Node19</title>
<g id="a_Node000019"><a xlink:href="classGameObject.html#ad8cbd1040a83fd084813656730b5e7bd" target="_top" xlink:title=" ">
<polygon fill="white" stroke="#666666" points="701,-159 557,-159 557,-140 701,-140 701,-159"/>
<text text-anchor="middle" x="629" y="-147" font-family="Helvetica,sans-Serif" font-size="10.00">GameObject::setDisplayId</text>
</a>
</g>
</g>
<!-- Node9&#45;&gt;Node19 -->
<g id="edge19_Node000009_Node000019" class="edge">
<title>Node9&#45;&gt;Node19</title>
<g id="a_edge19_Node000009_Node000019"><a xlink:title=" ">
<path fill="none" stroke="#63b8ff" d="M337.03,-149.5C397.05,-149.5 483.54,-149.5 546.62,-149.5"/>
<polygon fill="#63b8ff" stroke="#63b8ff" points="546.93,-153 556.93,-149.5 546.93,-146 546.93,-153"/>
</a>
</g>
</g>
<!-- Node11 -->
<g id="Node000011" class="node">
<title>Node11</title>
<g id="a_Node000011"><a xlink:href="classGameObject.html#ac575e6a15986acd0b34cb4affd6c1a41" target="_top" xlink:title=" ">
<polygon fill="white" stroke="#666666" points="691.5,-84 566.5,-84 566.5,-65 691.5,-65 691.5,-84"/>
<text text-anchor="middle" x="629" y="-72" font-family="Helvetica,sans-Serif" font-size="10.00">GameObject::getFlags</text>
</a>
</g>
</g>
<!-- Node10&#45;&gt;Node11 -->
<g id="edge10_Node000010_Node000011" class="edge">
<title>Node10&#45;&gt;Node11</title>
<g id="a_edge10_Node000010_Node000011"><a xlink:title=" ">
<path fill="none" stroke="#63b8ff" d="M494.35,-101.97C517.88,-97.14 546.66,-91.22 571.48,-86.12"/>
<polygon fill="#63b8ff" stroke="#63b8ff" points="572.4,-89.5 581.49,-84.06 570.99,-82.65 572.4,-89.5"/>
</a>
</g>
</g>
<!-- Node13 -->
<g id="Node000013" class="node">
<title>Node13</title>
<g id="a_Node000013"><a xlink:href="classGameObject.html#acec9dae955d159ec70bce3e74c789d97" target="_top" xlink:title=" ">
<polygon fill="white" stroke="#666666" points="691.5,-121 566.5,-121 566.5,-102 691.5,-102 691.5,-121"/>
<text text-anchor="middle" x="629" y="-109" font-family="Helvetica,sans-Serif" font-size="10.00">GameObject::setFlags</text>
</a>
</g>
</g>
<!-- Node10&#45;&gt;Node13 -->
<g id="edge12_Node000010_Node000013" class="edge">
<title>Node10&#45;&gt;Node13</title>
<g id="a_edge12_Node000010_Node000013"><a xlink:title=" ">
<path fill="none" stroke="#63b8ff" d="M520.69,-111.5C532.39,-111.5 544.49,-111.5 556.17,-111.5"/>
<polygon fill="#63b8ff" stroke="#63b8ff" points="556.3,-115 566.3,-111.5 556.3,-108 556.3,-115"/>
</a>
</g>
</g>
<!-- Node12 -->
<g id="Node000012" class="node">
<title>Node12</title>
<g id="a_Node000012"><a xlink:href="classGameObject.html#a2dfe6a0fd0f47568098933027d7df6f1" target="_top" xlink:title=" ">
<polygon fill="white" stroke="#666666" points="903,-84 737,-84 737,-65 903,-65 903,-84"/>
<text text-anchor="middle" x="820" y="-72" font-family="Helvetica,sans-Serif" font-size="10.00">GameObject::gameObjectData</text>
</a>
</g>
</g>
<!-- Node11&#45;&gt;Node12 -->
<g id="edge11_Node000011_Node000012" class="edge">
<title>Node11&#45;&gt;Node12</title>
<g id="a_edge11_Node000011_Node000012"><a xlink:title=" ">
<path fill="none" stroke="#63b8ff" d="M691.62,-74.5C702.9,-74.5 714.89,-74.5 726.83,-74.5"/>
<polygon fill="#63b8ff" stroke="#63b8ff" points="726.84,-78 736.84,-74.5 726.84,-71 726.84,-78"/>
</a>
</g>
</g>
<!-- Node13&#45;&gt;Node12 -->
<g id="edge13_Node000013_Node000012" class="edge">
<title>Node13&#45;&gt;Node12</title>
<g id="a_edge13_Node000013_Node000012"><a xlink:title=" ">
<path fill="none" stroke="#63b8ff" d="M678.67,-101.97C703.6,-97.09 734.13,-91.11 760.35,-85.98"/>
<polygon fill="#63b8ff" stroke="#63b8ff" points="761.02,-89.42 770.16,-84.06 759.68,-82.55 761.02,-89.42"/>
</a>
</g>
</g>
<!-- Node14 -->
<g id="Node000014" class="node">
<title>Node14</title>
<g id="a_Node000014"><a xlink:href="classObject.html#a8b600efb87d19216b881a2451ce3629f" target="_top" xlink:title=" ">
<polygon fill="white" stroke="#666666" points="859.5,-121 780.5,-121 780.5,-102 859.5,-102 859.5,-121"/>
<text text-anchor="middle" x="820" y="-109" font-family="Helvetica,sans-Serif" font-size="10.00">Object::write</text>
</a>
</g>
</g>
<!-- Node13&#45;&gt;Node14 -->
<g id="edge14_Node000013_Node000014" class="edge">
<title>Node13&#45;&gt;Node14</title>
<g id="a_edge14_Node000013_Node000014"><a xlink:title=" ">
<path fill="none" stroke="#63b8ff" d="M691.62,-111.5C717.05,-111.5 746.11,-111.5 770.05,-111.5"/>
<polygon fill="#63b8ff" stroke="#63b8ff" points="770.31,-115 780.31,-111.5 770.31,-108 770.31,-115"/>
</a>
</g>
</g>
<!-- Node15 -->
<g id="Node000015" class="node">
<title>Node15</title>
<g id="a_Node000015"><a xlink:href="classUpdateMask.html#aaf858dd57840b7228abe64c6376d1c89" target="_top" xlink:title=" ">
<polygon fill="white" stroke="#666666" points="1080.5,-56 967.5,-56 967.5,-37 1080.5,-37 1080.5,-56"/>
<text text-anchor="middle" x="1024" y="-44" font-family="Helvetica,sans-Serif" font-size="10.00">UpdateMask::SetBit</text>
</a>
</g>
</g>
<!-- Node14&#45;&gt;Node15 -->
<g id="edge15_Node000014_Node000015" class="edge">
<title>Node14&#45;&gt;Node15</title>
<g id="a_edge15_Node000014_Node000015"><a xlink:title=" ">
<path fill="none" stroke="#63b8ff" d="M859.65,-105.97C873.72,-103.08 889.49,-98.79 903,-92.5 921.13,-84.06 920.85,-73.89 939,-65.5 944.79,-62.82 950.98,-60.51 957.28,-58.52"/>
<polygon fill="#63b8ff" stroke="#63b8ff" points="958.6,-61.78 967.23,-55.64 956.65,-55.06 958.6,-61.78"/>
</a>
</g>
</g>
<!-- Node16 -->
<g id="Node000016" class="node">
<title>Node16</title>
<g id="a_Node000016"><a xlink:href="classObject.html#a796330249e8c0e5f7c2cf52715638620" target="_top" xlink:title=" ">
<polygon fill="white" stroke="#666666" points="1083.5,-19 964.5,-19 964.5,0 1083.5,0 1083.5,-19"/>
<text text-anchor="middle" x="1024" y="-7" font-family="Helvetica,sans-Serif" font-size="10.00">Object::updateObject</text>
</a>
</g>
</g>
<!-- Node14&#45;&gt;Node16 -->
<g id="edge16_Node000014_Node000016" class="edge">
<title>Node14&#45;&gt;Node16</title>
<g id="a_edge16_Node000014_Node000016"><a xlink:title=" ">
<path fill="none" stroke="#63b8ff" d="M859.73,-109.18C874.45,-106.69 890.63,-101.83 903,-92.5 929.36,-72.61 912.47,-47.17 939,-27.5 943.76,-23.97 949.06,-21.1 954.63,-18.78"/>
<polygon fill="#63b8ff" stroke="#63b8ff" points="955.96,-22.02 964.19,-15.36 953.6,-15.43 955.96,-22.02"/>
</a>
</g>
</g>
<!-- Node17 -->
<g id="Node000017" class="node">
<title>Node17</title>
<g id="a_Node000017"><a xlink:href="classObject.html#a3aeab7def818ba6c50249f197ad2f9ca" target="_top" xlink:title=" ">
<polygon fill="white" stroke="#666666" points="1267.5,-99 1168.5,-99 1168.5,-80 1267.5,-80 1267.5,-99"/>
<text text-anchor="middle" x="1218" y="-87" font-family="Helvetica,sans-Serif" font-size="10.00">Object::IsInWorld</text>
</a>
</g>
</g>
<!-- Node16&#45;&gt;Node17 -->
<g id="edge17_Node000016_Node000017" class="edge">
<title>Node16&#45;&gt;Node17</title>
<g id="a_edge17_Node000016_Node000017"><a xlink:title=" ">
<path fill="none" stroke="#63b8ff" d="M1081.28,-19.03C1090.68,-21.34 1100.23,-24.14 1109,-27.5 1140.48,-39.57 1173.68,-59.94 1194.82,-74.02"/>
<polygon fill="#63b8ff" stroke="#63b8ff" points="1193.13,-77.1 1203.37,-79.81 1197.06,-71.3 1193.13,-77.1"/>
</a>
</g>
</g>
<!-- Node18 -->
<g id="Node000018" class="node">
<title>Node18</title>
<g id="a_Node000018"><a xlink:href="classWorldMap.html#aabf61e8d556612e51b4e87a605d314bf" target="_top" xlink:title=" ">
<polygon fill="white" stroke="#666666" points="1289.5,-19 1146.5,-19 1146.5,0 1289.5,0 1289.5,-19"/>
<text text-anchor="middle" x="1218" y="-7" font-family="Helvetica,sans-Serif" font-size="10.00">WorldMap::objectUpdated</text>
</a>
</g>
</g>
<!-- Node16&#45;&gt;Node18 -->
<g id="edge18_Node000016_Node000018" class="edge">
<title>Node16&#45;&gt;Node18</title>
<g id="a_edge18_Node000016_Node000018"><a xlink:title=" ">
<path fill="none" stroke="#63b8ff" d="M1083.65,-9.5C1100.15,-9.5 1118.4,-9.5 1135.96,-9.5"/>
<polygon fill="#63b8ff" stroke="#63b8ff" points="1136.2,-13 1146.2,-9.5 1136.2,-6 1136.2,-13"/>
</a>
</g>
</g>
<!-- Node19&#45;&gt;Node12 -->
<g id="edge20_Node000019_Node000012" class="edge">
<title>Node19&#45;&gt;Node12</title>
<g id="a_edge20_Node000019_Node000012"><a xlink:title=" ">
<path fill="none" stroke="#63b8ff" d="M677.27,-139.95C685.5,-137.25 693.74,-133.82 701,-129.5 720.72,-117.77 716.95,-103.65 737,-92.5 740.25,-90.69 743.66,-89.07 747.18,-87.61"/>
<polygon fill="#63b8ff" stroke="#63b8ff" points="748.5,-90.85 756.68,-84.1 746.08,-84.28 748.5,-90.85"/>
</a>
</g>
</g>
<!-- Node19&#45;&gt;Node14 -->
<g id="edge29_Node000019_Node000014" class="edge">
<title>Node19&#45;&gt;Node14</title>
<g id="a_edge29_Node000019_Node000014"><a xlink:title=" ">
<path fill="none" stroke="#63b8ff" d="M677.69,-139.91C705.94,-134.23 741.64,-127.05 770.1,-121.33"/>
<polygon fill="#63b8ff" stroke="#63b8ff" points="771.11,-124.7 780.23,-119.3 769.73,-117.84 771.11,-124.7"/>
</a>
</g>
</g>
<!-- Node20 -->
<g id="Node000020" class="node">
<title>Node20</title>
<g id="a_Node000020"><a xlink:href="classGameObject.html#ae6230c8efe64fc3c525a4a7c7e166f90" target="_top" xlink:title=" ">
<polygon fill="white" stroke="#666666" points="893.5,-161 746.5,-161 746.5,-142 893.5,-142 893.5,-161"/>
<text text-anchor="middle" x="820" y="-149" font-family="Helvetica,sans-Serif" font-size="10.00">GameObject::updateModel</text>
</a>
</g>
</g>
<!-- Node19&#45;&gt;Node20 -->
<g id="edge21_Node000019_Node000020" class="edge">
<title>Node19&#45;&gt;Node20</title>
<g id="a_edge21_Node000019_Node000020"><a xlink:title=" ">
<path fill="none" stroke="#63b8ff" d="M701.18,-150.25C712.59,-150.37 724.49,-150.5 736.15,-150.62"/>
<polygon fill="#63b8ff" stroke="#63b8ff" points="736.27,-154.12 746.31,-150.73 736.35,-147.13 736.27,-154.12"/>
</a>
</g>
</g>
<!-- Node20&#45;&gt;Node7 -->
<g id="edge25_Node000020_Node000007" class="edge">
<title>Node20&#45;&gt;Node7</title>
<g id="a_edge25_Node000020_Node000007"><a xlink:title=" ">
<path fill="none" stroke="#63b8ff" d="M868.95,-161.09C880.92,-165.08 893.14,-170.68 903,-178.5 927.07,-197.59 914.05,-219.58 939,-237.5 943.82,-240.96 949.17,-243.81 954.77,-246.15"/>
<polygon fill="#63b8ff" stroke="#63b8ff" points="953.77,-249.51 964.37,-249.62 956.15,-242.93 953.77,-249.51"/>
</a>
</g>
</g>
<!-- Node20&#45;&gt;Node17 -->
<g id="edge27_Node000020_Node000017" class="edge">
<title>Node20&#45;&gt;Node17</title>
<g id="a_edge27_Node000020_Node000017"><a xlink:title=" ">
<path fill="none" stroke="#63b8ff" d="M893.77,-143.68C952.16,-136.98 1036.12,-126.38 1109,-113.5 1128.39,-110.07 1149.57,-105.54 1168,-101.34"/>
<polygon fill="#63b8ff" stroke="#63b8ff" points="1168.96,-104.71 1177.92,-99.05 1167.39,-97.89 1168.96,-104.71"/>
</a>
</g>
</g>
<!-- Node21 -->
<g id="Node000021" class="node">
<title>Node21</title>
<g id="a_Node000021"><a xlink:href="classGameObject.html#a6bd24cb5ca27d20a78fc98ab5bb86b71" target="_top" xlink:title=" ">
<polygon fill="white" stroke="#666666" points="1096,-180 952,-180 952,-161 1096,-161 1096,-180"/>
<text text-anchor="middle" x="1024" y="-168" font-family="Helvetica,sans-Serif" font-size="10.00">GameObject::createModel</text>
</a>
</g>
</g>
<!-- Node20&#45;&gt;Node21 -->
<g id="edge22_Node000020_Node000021" class="edge">
<title>Node20&#45;&gt;Node21</title>
<g id="a_edge22_Node000020_Node000021"><a xlink:title=" ">
<path fill="none" stroke="#63b8ff" d="M893.64,-158.33C909.14,-159.79 925.6,-161.34 941.41,-162.83"/>
<polygon fill="#63b8ff" stroke="#63b8ff" points="941.4,-166.34 951.68,-163.79 942.05,-159.37 941.4,-166.34"/>
</a>
</g>
</g>
<!-- Node24 -->
<g id="Node000024" class="node">
<title>Node24</title>
<g id="a_Node000024"><a xlink:href="classWorldMap.html#a7e77c3355e1e231ddc0d87f865e9ae43" target="_top" xlink:title=" ">
<polygon fill="white" stroke="#666666" points="1104,-104.5 944,-104.5 944,-74.5 1104,-74.5 1104,-104.5"/>
<text text-anchor="start" x="952" y="-92.5" font-family="Helvetica,sans-Serif" font-size="10.00">WorldMap::insertGameObject</text>
<text text-anchor="middle" x="1024" y="-81.5" font-family="Helvetica,sans-Serif" font-size="10.00">Model</text>
</a>
</g>
</g>
<!-- Node20&#45;&gt;Node24 -->
<g id="edge26_Node000020_Node000024" class="edge">
<title>Node20&#45;&gt;Node24</title>
<g id="a_edge26_Node000020_Node000024"><a xlink:title=" ">
<path fill="none" stroke="#63b8ff" d="M858.69,-141.89C872.66,-138.2 888.6,-133.83 903,-129.5 925.15,-122.84 949.39,-114.89 970.24,-107.84"/>
<polygon fill="#63b8ff" stroke="#63b8ff" points="971.53,-111.1 979.87,-104.57 969.28,-104.47 971.53,-111.1"/>
</a>
</g>
</g>
<!-- Node25 -->
<g id="Node000025" class="node">
<title>Node25</title>
<g id="a_Node000025"><a xlink:href="classWorldMap.html#a592772ca3e627b7235469b4af6d62d54" target="_top" xlink:title=" ">
<polygon fill="white" stroke="#666666" points="1109,-228.5 939,-228.5 939,-198.5 1109,-198.5 1109,-228.5"/>
<text text-anchor="start" x="947" y="-216.5" font-family="Helvetica,sans-Serif" font-size="10.00">WorldMap::removeGameObject</text>
<text text-anchor="middle" x="1024" y="-205.5" font-family="Helvetica,sans-Serif" font-size="10.00">Model</text>
</a>
</g>
</g>
<!-- Node20&#45;&gt;Node25 -->
<g id="edge28_Node000020_Node000025" class="edge">
<title>Node20&#45;&gt;Node25</title>
<g id="a_edge28_Node000020_Node000025"><a xlink:title=" ">
<path fill="none" stroke="#63b8ff" d="M850.01,-161.14C873.85,-168.99 908.52,-180.24 939,-189.5 945.53,-191.48 952.37,-193.51 959.19,-195.51"/>
<polygon fill="#63b8ff" stroke="#63b8ff" points="958.57,-198.97 969.15,-198.4 960.52,-192.25 958.57,-198.97"/>
</a>
</g>
</g>
<!-- Node22 -->
<g id="Node000022" class="node">
<title>Node22</title>
<g id="a_Node000022"><a xlink:href="classGameObjectModel.html#ae866a739b572a60e2edd7674b027c289" target="_top" xlink:title=" ">
<polygon fill="white" stroke="#666666" points="1291,-180 1145,-180 1145,-161 1291,-161 1291,-180"/>
<text text-anchor="middle" x="1218" y="-168" font-family="Helvetica,sans-Serif" font-size="10.00">GameObjectModel::Create</text>
</a>
</g>
</g>
<!-- Node21&#45;&gt;Node22 -->
<g id="edge23_Node000021_Node000022" class="edge">
<title>Node21&#45;&gt;Node22</title>
<g id="a_edge23_Node000021_Node000022"><a xlink:title=" ">
<path fill="none" stroke="#63b8ff" d="M1096.22,-170.5C1108.77,-170.5 1121.92,-170.5 1134.74,-170.5"/>
<polygon fill="#63b8ff" stroke="#63b8ff" points="1134.93,-174 1144.93,-170.5 1134.93,-167 1134.93,-174"/>
</a>
</g>
</g>
<!-- Node23 -->
<g id="Node000023" class="node">
<title>Node23</title>
<g id="a_Node000023"><a xlink:href="classGameObjectModel.html#ac24a1a85d91ff49da1b1125571d300fb" target="_top" xlink:title=" ">
<polygon fill="white" stroke="#666666" points="1501,-185.5 1327,-185.5 1327,-155.5 1501,-155.5 1501,-185.5"/>
<text text-anchor="start" x="1335" y="-173.5" font-family="Helvetica,sans-Serif" font-size="10.00">GameObjectModel::GameObject</text>
<text text-anchor="middle" x="1414" y="-162.5" font-family="Helvetica,sans-Serif" font-size="10.00">Model</text>
</a>
</g>
</g>
<!-- Node22&#45;&gt;Node23 -->
<g id="edge24_Node000022_Node000023" class="edge">
<title>Node22&#45;&gt;Node23</title>
<g id="a_edge24_Node000022_Node000023"><a xlink:title=" ">
<path fill="none" stroke="#63b8ff" d="M1291.24,-170.5C1299.6,-170.5 1308.23,-170.5 1316.84,-170.5"/>
<polygon fill="#63b8ff" stroke="#63b8ff" points="1316.94,-174 1326.94,-170.5 1316.94,-167 1316.94,-174"/>
</a>
</g>
</g>
</g>
</svg>
