<?xml version="1.0" encoding="UTF-8" standalone="no"?>
<!DOCTYPE svg PUBLIC "-//W3C//DTD SVG 1.1//EN"
 "http://www.w3.org/Graphics/SVG/1.1/DTD/svg11.dtd">
<!-- Generated by graphviz version 2.43.0 (0)
 -->
<!-- Title: MySQLDataStore::loadGameobjectSpawns Pages: 1 -->
<svg width="717pt" height="225pt"
 viewBox="0.00 0.00 717.00 224.50" xmlns="http://www.w3.org/2000/svg" xmlns:xlink="http://www.w3.org/1999/xlink">
<g id="graph0" class="graph" transform="scale(1 1) rotate(0) translate(4 220.5)">
<title>MySQLDataStore::loadGameobjectSpawns</title>
<!-- Node1 -->
<g id="Node000001" class="node">
<title>Node1</title>
<g id="a_Node000001"><a xlink:title=" ">
<polygon fill="#999999" stroke="#666666" points="185,-129 0,-129 0,-99 185,-99 185,-129"/>
<text text-anchor="start" x="8" y="-117" font-family="Helvetica,sans-Serif" font-size="10.00">MySQLDataStore::loadGameobject</text>
<text text-anchor="middle" x="92.5" y="-106" font-family="Helvetica,sans-Serif" font-size="10.00">Spawns</text>
</a>
</g>
</g>
<!-- Node2 -->
<g id="Node000002" class="node">
<title>Node2</title>
<g id="a_Node000002"><a xlink:href="classField.html#a58b09aa3ec262373884d9870fddebace" target="_top" xlink:title=" ">
<polygon fill="white" stroke="#666666" points="349,-216.5 257,-216.5 257,-197.5 349,-197.5 349,-216.5"/>
<text text-anchor="middle" x="303" y="-204.5" font-family="Helvetica,sans-Serif" font-size="10.00">Field::asCString</text>
</a>
</g>
</g>
<!-- Node1&#45;&gt;Node2 -->
<g id="edge1_Node000001_Node000002" class="edge">
<title>Node1&#45;&gt;Node2</title>
<g id="a_edge1_Node000001_Node000002"><a xlink:title=" ">
<path fill="none" stroke="#63b8ff" d="M114.55,-129.19C139,-146.16 181.1,-173.28 221,-189 229.18,-192.22 238.06,-194.93 246.85,-197.19"/>
<polygon fill="#63b8ff" stroke="#63b8ff" points="246.15,-200.62 256.69,-199.55 247.78,-193.81 246.15,-200.62"/>
</a>
</g>
</g>
<!-- Node3 -->
<g id="Node000003" class="node">
<title>Node3</title>
<g id="a_Node000003"><a xlink:href="classField.html#ad35c786f28e02d6d13e8f63cd6a641d8" target="_top" xlink:title=" ">
<polygon fill="white" stroke="#666666" points="344,-179.5 262,-179.5 262,-160.5 344,-160.5 344,-179.5"/>
<text text-anchor="middle" x="303" y="-167.5" font-family="Helvetica,sans-Serif" font-size="10.00">Field::asFloat</text>
</a>
</g>
</g>
<!-- Node1&#45;&gt;Node3 -->
<g id="edge2_Node000001_Node000003" class="edge">
<title>Node1&#45;&gt;Node3</title>
<g id="a_edge2_Node000001_Node000003"><a xlink:title=" ">
<path fill="none" stroke="#63b8ff" d="M141.11,-129.06C164.98,-136.39 194.4,-145.09 221,-152 230.93,-154.58 241.61,-157.12 251.85,-159.44"/>
<polygon fill="#63b8ff" stroke="#63b8ff" points="251.38,-162.92 261.9,-161.68 252.9,-156.09 251.38,-162.92"/>
</a>
</g>
</g>
<!-- Node6 -->
<g id="Node000006" class="node">
<title>Node6</title>
<g id="a_Node000006"><a xlink:href="classField.html#a836008605f9952102e95fa9f2b9bedd6" target="_top" xlink:title=" ">
<polygon fill="white" stroke="#666666" points="347.5,-142.5 258.5,-142.5 258.5,-123.5 347.5,-123.5 347.5,-142.5"/>
<text text-anchor="middle" x="303" y="-130.5" font-family="Helvetica,sans-Serif" font-size="10.00">Field::asUint32</text>
</a>
</g>
</g>
<!-- Node1&#45;&gt;Node6 -->
<g id="edge5_Node000001_Node000006" class="edge">
<title>Node1&#45;&gt;Node6</title>
<g id="a_edge5_Node000001_Node000006"><a xlink:title=" ">
<path fill="none" stroke="#63b8ff" d="M185.25,-122.36C206.83,-124.33 229.14,-126.36 248.39,-128.11"/>
<polygon fill="#63b8ff" stroke="#63b8ff" points="248.18,-131.61 258.46,-129.03 248.82,-124.64 248.18,-131.61"/>
</a>
</g>
</g>
<!-- Node8 -->
<g id="Node000008" class="node">
<title>Node8</title>
<g id="a_Node000008"><a xlink:href="namespaceUtil.html#a9a604a54078fde28181624aa02db063d" target="_top" xlink:title="Returns the difference between start_time and now in milliseconds.">
<polygon fill="white" stroke="#666666" points="385,-105.5 221,-105.5 221,-86.5 385,-86.5 385,-105.5"/>
<text text-anchor="middle" x="303" y="-93.5" font-family="Helvetica,sans-Serif" font-size="10.00">Util::GetTimeDifferenceToNow</text>
</a>
</g>
</g>
<!-- Node1&#45;&gt;Node8 -->
<g id="edge7_Node000001_Node000008" class="edge">
<title>Node1&#45;&gt;Node8</title>
<g id="a_edge7_Node000001_Node000008"><a xlink:title=" ">
<path fill="none" stroke="#63b8ff" d="M185.25,-106.08C193.64,-105.35 202.14,-104.62 210.53,-103.9"/>
<polygon fill="#63b8ff" stroke="#63b8ff" points="211.02,-107.37 220.69,-103.02 210.42,-100.39 211.02,-107.37"/>
</a>
</g>
</g>
<!-- Node9 -->
<g id="Node000009" class="node">
<title>Node9</title>
<g id="a_Node000009"><a xlink:href="namespaceUtil.html#aee85a3996bf0f7eb58f931b3d01d3fe7" target="_top" xlink:title="Returns the current point in time.">
<polygon fill="white" stroke="#666666" points="523.5,-86.5 437.5,-86.5 437.5,-67.5 523.5,-67.5 523.5,-86.5"/>
<text text-anchor="middle" x="480.5" y="-74.5" font-family="Helvetica,sans-Serif" font-size="10.00">Util::TimeNow</text>
</a>
</g>
</g>
<!-- Node1&#45;&gt;Node9 -->
<g id="edge11_Node000001_Node000009" class="edge">
<title>Node1&#45;&gt;Node9</title>
<g id="a_edge11_Node000001_Node000009"><a xlink:title=" ">
<path fill="none" stroke="#63b8ff" d="M135.67,-98.98C160.22,-91.02 191.96,-82.08 221,-78 291.83,-68.05 374.66,-70.1 427.09,-73.07"/>
<polygon fill="#63b8ff" stroke="#63b8ff" points="426.97,-76.57 437.16,-73.67 427.39,-69.58 426.97,-76.57"/>
</a>
</g>
</g>
<!-- Node10 -->
<g id="Node000010" class="node">
<title>Node10</title>
<g id="a_Node000010"><a xlink:href="classMySQLDataStore.html#a66cfedf237b7be89fc17016740f73079" target="_top" xlink:title=" ">
<polygon fill="white" stroke="#666666" points="377.5,-30 228.5,-30 228.5,0 377.5,0 377.5,-30"/>
<text text-anchor="start" x="236.5" y="-18" font-family="Helvetica,sans-Serif" font-size="10.00">MySQLDataStore::getWorld</text>
<text text-anchor="middle" x="303" y="-7" font-family="Helvetica,sans-Serif" font-size="10.00">DBQuery</text>
</a>
</g>
</g>
<!-- Node1&#45;&gt;Node10 -->
<g id="edge9_Node000001_Node000010" class="edge">
<title>Node1&#45;&gt;Node10</title>
<g id="a_edge9_Node000001_Node000010"><a xlink:title=" ">
<path fill="none" stroke="#63b8ff" d="M118.3,-98.85C143.56,-83.78 184.16,-60.58 221,-44 229.11,-40.35 237.84,-36.82 246.45,-33.57"/>
<polygon fill="#63b8ff" stroke="#63b8ff" points="247.92,-36.76 256.09,-30.01 245.49,-30.19 247.92,-36.76"/>
</a>
</g>
</g>
<!-- Node4 -->
<g id="Node000004" class="node">
<title>Node4</title>
<g id="a_Node000004"><a xlink:href="namespaceUtil.html#aa8a8d9be227fc8af79fd7206bac708de" target="_top" xlink:title=" ">
<polygon fill="white" stroke="#666666" points="532,-179.5 429,-179.5 429,-160.5 532,-160.5 532,-179.5"/>
<text text-anchor="middle" x="480.5" y="-167.5" font-family="Helvetica,sans-Serif" font-size="10.00">Util::stringToFloat</text>
</a>
</g>
</g>
<!-- Node3&#45;&gt;Node4 -->
<g id="edge3_Node000003_Node000004" class="edge">
<title>Node3&#45;&gt;Node4</title>
<g id="a_edge3_Node000003_Node000004"><a xlink:title=" ">
<path fill="none" stroke="#63b8ff" d="M344.26,-170C366.22,-170 393.86,-170 418.42,-170"/>
<polygon fill="#63b8ff" stroke="#63b8ff" points="418.73,-173.5 428.73,-170 418.73,-166.5 418.73,-173.5"/>
</a>
</g>
</g>
<!-- Node5 -->
<g id="Node000005" class="node">
<title>Node5</title>
<g id="a_Node000005"><a xlink:href="namespaceUtil.html#a55be3e27c906ee12cb436c46d912ee1f" target="_top" xlink:title=" ">
<polygon fill="white" stroke="#666666" points="709,-185 576,-185 576,-155 709,-155 709,-185"/>
<text text-anchor="start" x="584" y="-173" font-family="Helvetica,sans-Serif" font-size="10.00">Util::safeStringToSigned</text>
<text text-anchor="middle" x="642.5" y="-162" font-family="Helvetica,sans-Serif" font-size="10.00">&lt; float &gt;</text>
</a>
</g>
</g>
<!-- Node4&#45;&gt;Node5 -->
<g id="edge4_Node000004_Node000005" class="edge">
<title>Node4&#45;&gt;Node5</title>
<g id="a_edge4_Node000004_Node000005"><a xlink:title=" ">
<path fill="none" stroke="#63b8ff" d="M532.12,-170C542.89,-170 554.48,-170 565.94,-170"/>
<polygon fill="#63b8ff" stroke="#63b8ff" points="565.96,-173.5 575.96,-170 565.96,-166.5 565.96,-173.5"/>
</a>
</g>
</g>
<!-- Node7 -->
<g id="Node000007" class="node">
<title>Node7</title>
<g id="a_Node000007"><a xlink:href="namespaceUtil.html#a51e197070f834900188d69aba878a158" target="_top" xlink:title=" ">
<polygon fill="white" stroke="#666666" points="535.5,-142.5 425.5,-142.5 425.5,-123.5 535.5,-123.5 535.5,-142.5"/>
<text text-anchor="middle" x="480.5" y="-130.5" font-family="Helvetica,sans-Serif" font-size="10.00">Util::stringToUint32</text>
</a>
</g>
</g>
<!-- Node6&#45;&gt;Node7 -->
<g id="edge6_Node000006_Node000007" class="edge">
<title>Node6&#45;&gt;Node7</title>
<g id="a_edge6_Node000006_Node000007"><a xlink:title=" ">
<path fill="none" stroke="#63b8ff" d="M347.83,-133C368.17,-133 392.75,-133 415.14,-133"/>
<polygon fill="#63b8ff" stroke="#63b8ff" points="415.25,-136.5 425.25,-133 415.25,-129.5 415.25,-136.5"/>
</a>
</g>
</g>
<!-- Node8&#45;&gt;Node9 -->
<g id="edge8_Node000008_Node000009" class="edge">
<title>Node8&#45;&gt;Node9</title>
<g id="a_edge8_Node000008_Node000009"><a xlink:title=" ">
<path fill="none" stroke="#63b8ff" d="M385.07,-87.22C399.25,-85.69 413.65,-84.13 426.8,-82.71"/>
<polygon fill="#63b8ff" stroke="#63b8ff" points="427.49,-86.15 437.05,-81.6 426.73,-79.19 427.49,-86.15"/>
</a>
</g>
</g>
<!-- Node11 -->
<g id="Node000011" class="node">
<title>Node11</title>
<g id="a_Node000011"><a xlink:href="namespaceAscEmu_1_1Util_1_1Strings.html#afc8947617898dce74e01c7463b3ca17d" target="_top" xlink:title="Returns true if string is in source.">
<polygon fill="white" stroke="#666666" points="540,-30 421,-30 421,0 540,0 540,-30"/>
<text text-anchor="start" x="429" y="-18" font-family="Helvetica,sans-Serif" font-size="10.00">AscEmu::Util::Strings</text>
<text text-anchor="middle" x="480.5" y="-7" font-family="Helvetica,sans-Serif" font-size="10.00">::contains</text>
</a>
</g>
</g>
<!-- Node10&#45;&gt;Node11 -->
<g id="edge10_Node000010_Node000011" class="edge">
<title>Node10&#45;&gt;Node11</title>
<g id="a_edge10_Node000010_Node000011"><a xlink:title=" ">
<path fill="none" stroke="#63b8ff" d="M377.66,-15C388.61,-15 399.86,-15 410.7,-15"/>
<polygon fill="#63b8ff" stroke="#63b8ff" points="410.95,-18.5 420.95,-15 410.95,-11.5 410.95,-18.5"/>
</a>
</g>
</g>
</g>
</svg>
