<?xml version="1.0" encoding="UTF-8" standalone="no"?>
<!DOCTYPE svg PUBLIC "-//W3C//DTD SVG 1.1//EN"
 "http://www.w3.org/Graphics/SVG/1.1/DTD/svg11.dtd">
<!-- Generated by graphviz version 2.43.0 (0)
 -->
<!-- Title: ItemInterface::mSaveItemsToDatabase Pages: 1 -->
<!--zoomable 641 -->

<svg id="main" version="1.1" xmlns="http://www.w3.org/2000/svg" xmlns:xlink="http://www.w3.org/1999/xlink" xml:space="preserve" onload="init(evt)">
<style type="text/css"><![CDATA[
.node, .edge {opacity: 0.7;}
.node.selected, .edge.selected {opacity: 1;}
.edge:hover path { stroke: red; }
.edge:hover polygon { stroke: red; fill: red; }
]]></style>

<defs>
  <circle id="rim" cx="0" cy="0" r="7"/>
  <circle id="rim2" cx="0" cy="0" r="3.5"/>
  <g id="zoomPlus">
    <use xlink:href="#rim" fill="#404040"><set attributeName="fill" to="#808080" begin="zoomplus.mouseover" end="zoomplus.mouseout"/></use>
    <path d="M-4,0h8M0,-4v8" fill="none" stroke="white" stroke-width="1.5" pointer-events="none"/>
  </g>
  <g id="zoomMin">
    <use xlink:href="#rim" fill="#404040"><set attributeName="fill" to="#808080" begin="zoomminus.mouseover" end="zoomminus.mouseout"/></use>
    <path d="M-4,0h8" fill="none" stroke="white" stroke-width="1.5" pointer-events="none"/>
  </g>
  <g id="arrowUp" transform="translate(30 24)">
    <use xlink:href="#rim"/>
    <path pointer-events="none" fill="none" stroke="white" stroke-width="1.5" d="M0,-3.0v7 M-2.5,-0.5L0,-3.0L2.5,-0.5"/>
  </g>
  <g id="arrowRight" transform="rotate(90) translate(36 -43)">
    <use xlink:href="#rim"/>
    <path pointer-events="none" fill="none" stroke="white" stroke-width="1.5" d="M0,-3.0v7 M-2.5,-0.5L0,-3.0L2.5,-0.5"/>
  </g>
  <g id="arrowDown" transform="rotate(180) translate(-30 -48)">
    <use xlink:href="#rim"/>
    <path pointer-events="none" fill="none" stroke="white" stroke-width="1.5" d="M0,-3.0v7 M-2.5,-0.5L0,-3.0L2.5,-0.5"/>
  </g>
  <g id="arrowLeft" transform="rotate(270) translate(-36 17)">
    <use xlink:href="#rim"/>
    <path pointer-events="none" fill="none" stroke="white" stroke-width="1.5" d="M0,-3.0v7 M-2.5,-0.5L0,-3.0L2.5,-0.5"/>
  </g>
  <g id="resetDef">
    <use xlink:href="#rim2" fill="#404040"><set attributeName="fill" to="#808080" begin="reset.mouseover" end="reset.mouseout"/></use>
  </g>
</defs>
<script type="application/ecmascript">
var viewWidth = 914;
var viewHeight = 641;
var sectionId = 'dynsection-83';
</script>
<script type="application/ecmascript" xlink:href="svg.min.js"/>
<svg id="graph" class="graph">
<g id="viewport">
<title>ItemInterface::mSaveItemsToDatabase</title>
<!-- Node1 -->
<g id="Node000001" class="node">
<title>Node1</title>
<g id="a_Node000001"><a xlink:title="Item saving.">
<polygon fill="#999999" stroke="#666666" points="150,-355.5 0,-355.5 0,-325.5 150,-325.5 150,-355.5"/>
<text text-anchor="start" x="8" y="-343.5" font-family="Helvetica,sans-Serif" font-size="10.00">ItemInterface::mSaveItems</text>
<text text-anchor="middle" x="75" y="-332.5" font-family="Helvetica,sans-Serif" font-size="10.00">ToDatabase</text>
</a>
</g>
</g>
<!-- Node2 -->
<g id="Node000002" class="node">
<title>Node2</title>
<g id="a_Node000002"><a xlink:href="classItemInterface.html#a0d90c8daf60d4d9f7463fff3e2a0073d" target="_top" xlink:title="Gets a item from Inventory.">
<polygon fill="white" stroke="#666666" points="361,-406 186,-406 186,-387 361,-387 361,-406"/>
<text text-anchor="middle" x="273.5" y="-394" font-family="Helvetica,sans-Serif" font-size="10.00">ItemInterface::GetInventoryItem</text>
</a>
</g>
</g>
<!-- Node1&#45;&gt;Node2 -->
<g id="edge1_Node000001_Node000002" class="edge">
<title>Node1&#45;&gt;Node2</title>
<g id="a_edge1_Node000001_Node000002"><a xlink:title=" ">
<path fill="none" stroke="#63b8ff" d="M115.59,-355.55C136.35,-363.09 162.33,-371.98 186,-378.5 194.08,-380.73 202.65,-382.82 211.13,-384.74"/>
<polygon fill="#63b8ff" stroke="#63b8ff" points="210.5,-388.19 221.01,-386.91 212,-381.35 210.5,-388.19"/>
</a>
</g>
</g>
<!-- Node3 -->
<g id="Node000003" class="node">
<title>Node3</title>
<g id="a_Node000003"><a xlink:href="classItemInterface.html#a1923e06073d8ed8abfd721556ac5f3c8" target="_top" xlink:title="Checks if the slot is a Bag slot.">
<polygon fill="white" stroke="#666666" points="340.5,-369 206.5,-369 206.5,-350 340.5,-350 340.5,-369"/>
<text text-anchor="middle" x="273.5" y="-357" font-family="Helvetica,sans-Serif" font-size="10.00">ItemInterface::IsBagSlot</text>
</a>
</g>
</g>
<!-- Node1&#45;&gt;Node3 -->
<g id="edge2_Node000001_Node000003" class="edge">
<title>Node1&#45;&gt;Node3</title>
<g id="a_edge2_Node000001_Node000003"><a xlink:title=" ">
<path fill="none" stroke="#63b8ff" d="M150.01,-347.66C165.04,-349.11 180.87,-350.64 195.98,-352.1"/>
<polygon fill="#63b8ff" stroke="#63b8ff" points="196.02,-355.62 206.31,-353.1 196.69,-348.65 196.02,-355.62"/>
</a>
</g>
</g>
<!-- Node4 -->
<g id="Node000004" class="node">
<title>Node4</title>
<g id="a_Node000004"><a xlink:href="classItem.html#a769535b47af7f132f20e58b2e6caba21" target="_top" xlink:title=" ">
<polygon fill="white" stroke="#666666" points="320,-332 227,-332 227,-313 320,-313 320,-332"/>
<text text-anchor="middle" x="273.5" y="-320" font-family="Helvetica,sans-Serif" font-size="10.00">Item::saveToDB</text>
</a>
</g>
</g>
<!-- Node1&#45;&gt;Node4 -->
<g id="edge3_Node000001_Node000004" class="edge">
<title>Node1&#45;&gt;Node4</title>
<g id="a_edge3_Node000001_Node000004"><a xlink:title=" ">
<path fill="none" stroke="#63b8ff" d="M150.01,-333.72C172.07,-331.7 195.86,-329.52 216.56,-327.62"/>
<polygon fill="#63b8ff" stroke="#63b8ff" points="217.12,-331.09 226.76,-326.69 216.49,-324.12 217.12,-331.09"/>
</a>
</g>
</g>
<!-- Node25 -->
<g id="Node000025" class="node">
<title>Node25</title>
<g id="a_Node000025"><a xlink:href="classItemInterface.html#a6d98f4789d5e3c4d6b4aca7b7f98e370" target="_top" xlink:title=" ">
<polygon fill="white" stroke="#666666" points="349,-294.5 198,-294.5 198,-264.5 349,-264.5 349,-294.5"/>
<text text-anchor="start" x="206" y="-282.5" font-family="Helvetica,sans-Serif" font-size="10.00">ItemInterface::sendEnchant</text>
<text text-anchor="middle" x="273.5" y="-271.5" font-family="Helvetica,sans-Serif" font-size="10.00">Durations</text>
</a>
</g>
</g>
<!-- Node1&#45;&gt;Node25 -->
<g id="edge34_Node000001_Node000025" class="edge">
<title>Node1&#45;&gt;Node25</title>
<g id="a_edge34_Node000001_Node000025"><a xlink:title=" ">
<path fill="none" stroke="#63b8ff" d="M118.93,-325.46C139.19,-318.52 163.75,-310.32 186,-303.5 192.61,-301.47 199.52,-299.43 206.44,-297.43"/>
<polygon fill="#63b8ff" stroke="#63b8ff" points="207.88,-300.66 216.53,-294.55 205.96,-293.93 207.88,-300.66"/>
</a>
</g>
</g>
<!-- Node5 -->
<g id="Node000005" class="node">
<title>Node5</title>
<g id="a_Node000005"><a xlink:href="classQueryBuffer.html#a17bd6c58fe15c4bbb0724e4234a8ed52" target="_top" xlink:title=" ">
<polygon fill="white" stroke="#666666" points="558,-633 415,-633 415,-614 558,-614 558,-633"/>
<text text-anchor="middle" x="486.5" y="-621" font-family="Helvetica,sans-Serif" font-size="10.00">QueryBuffer::AddQueryNA</text>
</a>
</g>
</g>
<!-- Node4&#45;&gt;Node5 -->
<g id="edge4_Node000004_Node000005" class="edge">
<title>Node4&#45;&gt;Node5</title>
<g id="a_edge4_Node000004_Node000005"><a xlink:title=" ">
<path fill="none" stroke="#63b8ff" d="M320.1,-322.48C335.1,-324.83 350.58,-330.2 361,-341.5 441.29,-428.54 316.04,-519.08 397,-605.5 399.68,-608.36 402.67,-610.83 405.9,-612.96"/>
<polygon fill="#63b8ff" stroke="#63b8ff" points="404.47,-616.16 414.93,-617.85 407.8,-610.01 404.47,-616.16"/>
</a>
</g>
</g>
<!-- Node6 -->
<g id="Node000006" class="node">
<title>Node6</title>
<g id="a_Node000006"><a xlink:href="classItem.html#a43885273141a05ebd18a486b3e5c7c14" target="_top" xlink:title=" ">
<polygon fill="white" stroke="#666666" points="546,-596 427,-596 427,-577 546,-577 546,-596"/>
<text text-anchor="middle" x="486.5" y="-584" font-family="Helvetica,sans-Serif" font-size="10.00">Item::getChargesLeft</text>
</a>
</g>
</g>
<!-- Node4&#45;&gt;Node6 -->
<g id="edge5_Node000004_Node000006" class="edge">
<title>Node4&#45;&gt;Node6</title>
<g id="a_edge5_Node000004_Node000006"><a xlink:title=" ">
<path fill="none" stroke="#63b8ff" d="M320.39,-322.7C335.23,-325.1 350.54,-330.45 361,-341.5 429.42,-413.77 330.36,-488.59 397,-562.5 402.61,-568.72 409.65,-573.4 417.3,-576.9"/>
<polygon fill="#63b8ff" stroke="#63b8ff" points="416.28,-580.26 426.87,-580.62 418.82,-573.74 416.28,-580.26"/>
</a>
</g>
</g>
<!-- Node9 -->
<g id="Node000009" class="node">
<title>Node9</title>
<g id="a_Node000009"><a xlink:href="classItem.html#a31640c43ff9b8d894604f4e00fbbde21" target="_top" xlink:title=" ">
<polygon fill="white" stroke="#666666" points="755,-557 636,-557 636,-538 755,-538 755,-557"/>
<text text-anchor="middle" x="695.5" y="-545" font-family="Helvetica,sans-Serif" font-size="10.00">Item::getCreatorGuid</text>
</a>
</g>
</g>
<!-- Node4&#45;&gt;Node9 -->
<g id="edge8_Node000004_Node000009" class="edge">
<title>Node4&#45;&gt;Node9</title>
<g id="a_edge8_Node000004_Node000009"><a xlink:title=" ">
<path fill="none" stroke="#63b8ff" d="M320.16,-322.92C334.98,-325.34 350.33,-330.64 361,-341.5 417.87,-399.39 336.61,-466.3 397,-520.5 465.05,-581.58 580.49,-571.33 645.75,-559.03"/>
<polygon fill="#63b8ff" stroke="#63b8ff" points="646.65,-562.42 655.78,-557.05 645.29,-555.56 646.65,-562.42"/>
</a>
</g>
</g>
<!-- Node10 -->
<g id="Node000010" class="node">
<title>Node10</title>
<g id="a_Node000010"><a xlink:href="classItem.html#a17ecee81377d03aaabf35e735b1e4798" target="_top" xlink:title=" ">
<polygon fill="white" stroke="#666666" points="750,-519 641,-519 641,-500 750,-500 750,-519"/>
<text text-anchor="middle" x="695.5" y="-507" font-family="Helvetica,sans-Serif" font-size="10.00">Item::getDurability</text>
</a>
</g>
</g>
<!-- Node4&#45;&gt;Node10 -->
<g id="edge10_Node000004_Node000010" class="edge">
<title>Node4&#45;&gt;Node10</title>
<g id="a_edge10_Node000004_Node000010"><a xlink:title=" ">
<path fill="none" stroke="#63b8ff" d="M320.31,-323.3C334.96,-325.78 350.18,-331.02 361,-341.5 407.77,-386.79 347.41,-441.32 397,-483.5 466.26,-542.41 580.23,-532.81 645.16,-520.92"/>
<polygon fill="#63b8ff" stroke="#63b8ff" points="645.99,-524.32 655.15,-519 644.67,-517.45 645.99,-524.32"/>
</a>
</g>
</g>
<!-- Node11 -->
<g id="Node000011" class="node">
<title>Node11</title>
<g id="a_Node000011"><a xlink:href="classItem.html#a62bbdcca25e786a2b863fa65b40ea690" target="_top" xlink:title=" ">
<polygon fill="white" stroke="#666666" points="779,-481 612,-481 612,-462 779,-462 779,-481"/>
<text text-anchor="middle" x="695.5" y="-469" font-family="Helvetica,sans-Serif" font-size="10.00">Item::getEnchantmentDuration</text>
</a>
</g>
</g>
<!-- Node4&#45;&gt;Node11 -->
<g id="edge12_Node000004_Node000011" class="edge">
<title>Node4&#45;&gt;Node11</title>
<g id="a_edge12_Node000004_Node000011"><a xlink:title=" ">
<path fill="none" stroke="#63b8ff" d="M320.31,-323.86C334.79,-326.4 349.9,-331.54 361,-341.5 398.35,-375.01 357.41,-417.67 397,-448.5 468.29,-504.02 580.53,-494.56 644.84,-482.9"/>
<polygon fill="#63b8ff" stroke="#63b8ff" points="645.56,-486.32 654.73,-481.01 644.25,-479.44 645.56,-486.32"/>
</a>
</g>
</g>
<!-- Node12 -->
<g id="Node000012" class="node">
<title>Node12</title>
<g id="a_Node000012"><a xlink:href="classItem.html#a92d7675f1ea1038c152be0fee04af593" target="_top" xlink:title=" ">
<polygon fill="white" stroke="#666666" points="762.5,-444 628.5,-444 628.5,-425 762.5,-425 762.5,-444"/>
<text text-anchor="middle" x="695.5" y="-432" font-family="Helvetica,sans-Serif" font-size="10.00">Item::getEnchantmentId</text>
</a>
</g>
</g>
<!-- Node4&#45;&gt;Node12 -->
<g id="edge14_Node000004_Node000012" class="edge">
<title>Node4&#45;&gt;Node12</title>
<g id="a_edge14_Node000004_Node000012"><a xlink:title=" ">
<path fill="none" stroke="#63b8ff" d="M320.04,-324.79C334.34,-327.41 349.4,-332.37 361,-341.5 389.73,-364.13 366.63,-395.12 397,-415.5 470.69,-464.94 579.12,-456.68 642.7,-445.83"/>
<polygon fill="#63b8ff" stroke="#63b8ff" points="643.66,-449.21 652.89,-444 642.43,-442.32 643.66,-449.21"/>
</a>
</g>
</g>
<!-- Node13 -->
<g id="Node000013" class="node">
<title>Node13</title>
<g id="a_Node000013"><a xlink:href="classObject.html#ad4e6bfe8fd236724215bc3e671eee225" target="_top" xlink:title=" ">
<polygon fill="white" stroke="#666666" points="534,-406 439,-406 439,-387 534,-387 534,-406"/>
<text text-anchor="middle" x="486.5" y="-394" font-family="Helvetica,sans-Serif" font-size="10.00">Object::getEntry</text>
</a>
</g>
</g>
<!-- Node4&#45;&gt;Node13 -->
<g id="edge16_Node000004_Node000013" class="edge">
<title>Node4&#45;&gt;Node13</title>
<g id="a_edge16_Node000004_Node000013"><a xlink:title=" ">
<path fill="none" stroke="#63b8ff" d="M320.3,-327.44C333.99,-330.24 348.64,-334.62 361,-341.5 381.05,-352.65 376.86,-367.5 397,-378.5 406.69,-383.79 417.75,-387.54 428.69,-390.18"/>
<polygon fill="#63b8ff" stroke="#63b8ff" points="428.15,-393.65 438.66,-392.32 429.61,-386.8 428.15,-393.65"/>
</a>
</g>
</g>
<!-- Node15 -->
<g id="Node000015" class="node">
<title>Node15</title>
<g id="a_Node000015"><a xlink:href="classItem.html#a6ecafd77b8028d8713aadf984e783751" target="_top" xlink:title=" ">
<polygon fill="white" stroke="#666666" points="739,-322 652,-322 652,-303 739,-303 739,-322"/>
<text text-anchor="middle" x="695.5" y="-310" font-family="Helvetica,sans-Serif" font-size="10.00">Item::getFlags</text>
</a>
</g>
</g>
<!-- Node4&#45;&gt;Node15 -->
<g id="edge18_Node000004_Node000015" class="edge">
<title>Node4&#45;&gt;Node15</title>
<g id="a_edge18_Node000004_Node000015"><a xlink:title=" ">
<path fill="none" stroke="#63b8ff" d="M320.26,-313.69C343.2,-309.71 371.46,-305.47 397,-303.5 482.3,-296.92 581.69,-302.62 641.28,-307.46"/>
<polygon fill="#63b8ff" stroke="#63b8ff" points="641.31,-310.98 651.57,-308.32 641.9,-304 641.31,-310.98"/>
</a>
</g>
</g>
<!-- Node16 -->
<g id="Node000016" class="node">
<title>Node16</title>
<g id="a_Node000016"><a xlink:href="classItem.html#a59d244bc502023649279ef60086bdbc9" target="_top" xlink:title=" ">
<polygon fill="white" stroke="#666666" points="764,-266 627,-266 627,-247 764,-247 764,-266"/>
<text text-anchor="middle" x="695.5" y="-254" font-family="Helvetica,sans-Serif" font-size="10.00">Item::getGiftCreatorGuid</text>
</a>
</g>
</g>
<!-- Node4&#45;&gt;Node16 -->
<g id="edge20_Node000004_Node000016" class="edge">
<title>Node4&#45;&gt;Node16</title>
<g id="a_edge20_Node000004_Node000016"><a xlink:title=" ">
<path fill="none" stroke="#63b8ff" d="M317.74,-312.97C341.14,-307.99 370.58,-302.01 397,-297.5 471.33,-284.81 556.63,-273.37 616.78,-265.82"/>
<polygon fill="#63b8ff" stroke="#63b8ff" points="617.47,-269.26 626.96,-264.55 616.61,-262.32 617.47,-269.26"/>
</a>
</g>
</g>
<!-- Node17 -->
<g id="Node000017" class="node">
<title>Node17</title>
<g id="a_Node000017"><a xlink:href="classObject.html#a0f6639fef4e90bc57ee1b34a81d6d489" target="_top" xlink:title=" ">
<polygon fill="white" stroke="#666666" points="532.5,-369 440.5,-369 440.5,-350 532.5,-350 532.5,-369"/>
<text text-anchor="middle" x="486.5" y="-357" font-family="Helvetica,sans-Serif" font-size="10.00">Object::getGuid</text>
</a>
</g>
</g>
<!-- Node4&#45;&gt;Node17 -->
<g id="edge22_Node000004_Node000017" class="edge">
<title>Node4&#45;&gt;Node17</title>
<g id="a_edge22_Node000004_Node000017"><a xlink:title=" ">
<path fill="none" stroke="#63b8ff" d="M320.02,-330.48C352.44,-336.17 396.17,-343.84 430.54,-349.86"/>
<polygon fill="#63b8ff" stroke="#63b8ff" points="429.97,-353.32 440.42,-351.6 431.18,-346.42 429.97,-353.32"/>
</a>
</g>
</g>
<!-- Node18 -->
<g id="Node000018" class="node">
<title>Node18</title>
<g id="a_Node000018"><a xlink:href="classObject.html#ad4bcb83b6b6f44f83f42dac01b12b339" target="_top" xlink:title=" ">
<polygon fill="white" stroke="#666666" points="542.5,-332 430.5,-332 430.5,-313 542.5,-313 542.5,-332"/>
<text text-anchor="middle" x="486.5" y="-320" font-family="Helvetica,sans-Serif" font-size="10.00">Object::getGuidLow</text>
</a>
</g>
</g>
<!-- Node4&#45;&gt;Node18 -->
<g id="edge24_Node000004_Node000018" class="edge">
<title>Node4&#45;&gt;Node18</title>
<g id="a_edge24_Node000004_Node000018"><a xlink:title=" ">
<path fill="none" stroke="#63b8ff" d="M320.02,-322.5C349.21,-322.5 387.57,-322.5 420.01,-322.5"/>
<polygon fill="#63b8ff" stroke="#63b8ff" points="420.31,-326 430.31,-322.5 420.31,-319 420.31,-326"/>
</a>
</g>
</g>
<!-- Node19 -->
<g id="Node000019" class="node">
<title>Node19</title>
<g id="a_Node000019"><a xlink:href="classWoWGuid.html#a0e1068a25c6a2f1896fdfd91f38c8422" target="_top" xlink:title=" ">
<polygon fill="white" stroke="#666666" points="572,-218.5 401,-218.5 401,-188.5 572,-188.5 572,-218.5"/>
<text text-anchor="start" x="409" y="-206.5" font-family="Helvetica,sans-Serif" font-size="10.00">WoWGuid::getGuidLowPartFrom</text>
<text text-anchor="middle" x="486.5" y="-195.5" font-family="Helvetica,sans-Serif" font-size="10.00">UInt64</text>
</a>
</g>
</g>
<!-- Node4&#45;&gt;Node19 -->
<g id="edge26_Node000004_Node000019" class="edge">
<title>Node4&#45;&gt;Node19</title>
<g id="a_edge26_Node000004_Node000019"><a xlink:title=" ">
<path fill="none" stroke="#63b8ff" d="M320.4,-320.02C334.56,-317.36 349.45,-312.44 361,-303.5 388.97,-281.84 370.15,-255.54 397,-232.5 401.14,-228.95 405.73,-225.83 410.57,-223.09"/>
<polygon fill="#63b8ff" stroke="#63b8ff" points="412.19,-226.19 419.53,-218.55 409.03,-219.95 412.19,-226.19"/>
</a>
</g>
</g>
<!-- Node20 -->
<g id="Node000020" class="node">
<title>Node20</title>
<g id="a_Node000020"><a xlink:href="classPlayer.html#a0d789feb80d9a2315d2aba24c75a07a8" target="_top" xlink:title=" ">
<polygon fill="white" stroke="#666666" points="554,-170 419,-170 419,-151 554,-151 554,-170"/>
<text text-anchor="middle" x="486.5" y="-158" font-family="Helvetica,sans-Serif" font-size="10.00">Player::getItemInterface</text>
</a>
</g>
</g>
<!-- Node4&#45;&gt;Node20 -->
<g id="edge27_Node000004_Node000020" class="edge">
<title>Node4&#45;&gt;Node20</title>
<g id="a_edge27_Node000004_Node000020"><a xlink:title=" ">
<path fill="none" stroke="#63b8ff" d="M320.1,-321.49C334.74,-318.99 350,-313.8 361,-303.5 402.9,-264.29 355.01,-218.61 397,-179.5 400.69,-176.07 404.84,-173.19 409.28,-170.8"/>
<polygon fill="#63b8ff" stroke="#63b8ff" points="411.08,-173.83 418.75,-166.52 408.2,-167.45 411.08,-173.83"/>
</a>
</g>
</g>
<!-- Node21 -->
<g id="Node000021" class="node">
<title>Node21</title>
<g id="a_Node000021"><a xlink:href="classItem.html#a68d0b5c37d439d5d9d5eb055ae06ebbb" target="_top" xlink:title=" ">
<polygon fill="white" stroke="#666666" points="532.5,-133 440.5,-133 440.5,-114 532.5,-114 532.5,-133"/>
<text text-anchor="middle" x="486.5" y="-121" font-family="Helvetica,sans-Serif" font-size="10.00">Item::getOwner</text>
</a>
</g>
</g>
<!-- Node4&#45;&gt;Node21 -->
<g id="edge28_Node000004_Node000021" class="edge">
<title>Node4&#45;&gt;Node21</title>
<g id="a_edge28_Node000004_Node000021"><a xlink:title=" ">
<path fill="none" stroke="#63b8ff" d="M320.04,-321.96C334.85,-319.53 350.22,-314.25 361,-303.5 413.22,-251.41 344.38,-193.18 397,-141.5 406,-132.66 418.09,-127.6 430.44,-124.81"/>
<polygon fill="#63b8ff" stroke="#63b8ff" points="431.11,-128.25 440.34,-123.04 429.88,-121.36 431.11,-128.25"/>
</a>
</g>
</g>
<!-- Node22 -->
<g id="Node000022" class="node">
<title>Node22</title>
<g id="a_Node000022"><a xlink:href="classItem.html#a4f2d01276fa030e49b217ccd7c6602c9" target="_top" xlink:title=" ">
<polygon fill="white" stroke="#666666" points="762.5,-188 628.5,-188 628.5,-169 762.5,-169 762.5,-188"/>
<text text-anchor="middle" x="695.5" y="-176" font-family="Helvetica,sans-Serif" font-size="10.00">Item::getOwnerGuidLow</text>
</a>
</g>
</g>
<!-- Node4&#45;&gt;Node22 -->
<g id="edge29_Node000004_Node000022" class="edge">
<title>Node4&#45;&gt;Node22</title>
<g id="a_edge29_Node000004_Node000022"><a xlink:title=" ">
<path fill="none" stroke="#63b8ff" d="M320.28,-322.2C335.11,-319.79 350.44,-314.46 361,-303.5 423.36,-238.77 328.02,-162.12 397,-104.5 458.06,-53.5 499.52,-82.58 576,-104.5 615.11,-115.71 653.84,-144 675.9,-162.17"/>
<polygon fill="#63b8ff" stroke="#63b8ff" points="673.87,-165.04 683.77,-168.81 678.38,-159.69 673.87,-165.04"/>
</a>
</g>
</g>
<!-- Node23 -->
<g id="Node000023" class="node">
<title>Node23</title>
<g id="a_Node000023"><a xlink:href="classItem.html#ab4f89eb7527aa74d0772257e8a92ba24" target="_top" xlink:title=" ">
<polygon fill="white" stroke="#666666" points="753.5,-69 637.5,-69 637.5,-50 753.5,-50 753.5,-69"/>
<text text-anchor="middle" x="695.5" y="-57" font-family="Helvetica,sans-Serif" font-size="10.00">Item::getStackCount</text>
</a>
</g>
</g>
<!-- Node4&#45;&gt;Node23 -->
<g id="edge31_Node000004_Node000023" class="edge">
<title>Node4&#45;&gt;Node23</title>
<g id="a_edge31_Node000004_Node000023"><a xlink:title=" ">
<path fill="none" stroke="#63b8ff" d="M320.43,-322.34C335.27,-319.94 350.57,-314.59 361,-303.5 432.17,-227.8 319.57,-141.79 397,-72.5 468.17,-8.82 591.52,-30.27 654.7,-47.15"/>
<polygon fill="#63b8ff" stroke="#63b8ff" points="654.1,-50.62 664.67,-49.91 655.97,-43.87 654.1,-50.62"/>
</a>
</g>
</g>
<!-- Node24 -->
<g id="Node000024" class="node">
<title>Node24</title>
<g id="a_Node000024"><a xlink:href="classItemInterface.html#adf13805aa8f613a9b5ea321d6bf2f1fd" target="_top" xlink:title="Looks up an item in the RefundableMap, and returns the data.">
<polygon fill="white" stroke="#666666" points="576,-19 397,-19 397,0 576,0 576,-19"/>
<text text-anchor="middle" x="486.5" y="-7" font-family="Helvetica,sans-Serif" font-size="10.00">ItemInterface::LookupRefundable</text>
</a>
</g>
</g>
<!-- Node4&#45;&gt;Node24 -->
<g id="edge33_Node000004_Node000024" class="edge">
<title>Node4&#45;&gt;Node24</title>
<g id="a_edge33_Node000004_Node000024"><a xlink:title=" ">
<path fill="none" stroke="#63b8ff" d="M320.12,-322.54C335.12,-320.19 350.59,-314.82 361,-303.5 442.95,-214.39 317.24,-124.57 397,-33.5 400.24,-29.8 403.98,-26.65 408.06,-23.96"/>
<polygon fill="#63b8ff" stroke="#63b8ff" points="409.82,-26.99 416.86,-19.07 406.42,-20.87 409.82,-26.99"/>
</a>
</g>
</g>
<!-- Node7 -->
<g id="Node000007" class="node">
<title>Node7</title>
<g id="a_Node000007"><a xlink:href="classItem.html#a67236e4bec440584383cb5c669933436" target="_top" xlink:title=" ">
<polygon fill="white" stroke="#666666" points="758,-595 633,-595 633,-576 758,-576 758,-595"/>
<text text-anchor="middle" x="695.5" y="-583" font-family="Helvetica,sans-Serif" font-size="10.00">Item::getSpellCharges</text>
</a>
</g>
</g>
<!-- Node6&#45;&gt;Node7 -->
<g id="edge6_Node000006_Node000007" class="edge">
<title>Node6&#45;&gt;Node7</title>
<g id="a_edge6_Node000006_Node000007"><a xlink:title=" ">
<path fill="none" stroke="#63b8ff" d="M546.26,-586.22C570.01,-586.1 597.64,-585.97 622.57,-585.85"/>
<polygon fill="#63b8ff" stroke="#63b8ff" points="622.72,-589.35 632.7,-585.8 622.68,-582.35 622.72,-589.35"/>
</a>
</g>
</g>
<!-- Node8 -->
<g id="Node000008" class="node">
<title>Node8</title>
<g id="a_Node000008"><a xlink:href="classItem.html#a4f6780aeb09b44fa79884b1402b7e1fe" target="_top" xlink:title=" ">
<polygon fill="white" stroke="#666666" points="906,-444 815,-444 815,-425 906,-425 906,-444"/>
<text text-anchor="middle" x="860.5" y="-432" font-family="Helvetica,sans-Serif" font-size="10.00">Item::itemData</text>
</a>
</g>
</g>
<!-- Node7&#45;&gt;Node8 -->
<g id="edge7_Node000007_Node000008" class="edge">
<title>Node7&#45;&gt;Node8</title>
<g id="a_edge7_Node000007_Node000008"><a xlink:title=" ">
<path fill="none" stroke="#63b8ff" d="M758.36,-577.05C765.72,-574.41 772.8,-570.97 779,-566.5 818.75,-537.84 842.75,-482.92 853.24,-453.77"/>
<polygon fill="#63b8ff" stroke="#63b8ff" points="856.56,-454.89 856.5,-444.3 849.94,-452.61 856.56,-454.89"/>
</a>
</g>
</g>
<!-- Node9&#45;&gt;Node8 -->
<g id="edge9_Node000009_Node000008" class="edge">
<title>Node9&#45;&gt;Node8</title>
<g id="a_edge9_Node000009_Node000008"><a xlink:title=" ">
<path fill="none" stroke="#63b8ff" d="M755.13,-538.91C763.49,-536.31 771.71,-532.92 779,-528.5 810.22,-509.6 835.45,-474.39 848.9,-452.84"/>
<polygon fill="#63b8ff" stroke="#63b8ff" points="851.9,-454.64 854.07,-444.27 845.91,-451.02 851.9,-454.64"/>
</a>
</g>
</g>
<!-- Node10&#45;&gt;Node8 -->
<g id="edge11_Node000010_Node000008" class="edge">
<title>Node10&#45;&gt;Node8</title>
<g id="a_edge11_Node000010_Node000008"><a xlink:title=" ">
<path fill="none" stroke="#63b8ff" d="M750.28,-500.25C760.05,-497.69 770,-494.49 779,-490.5 801.98,-480.32 825.23,-463.25 840.8,-450.63"/>
<polygon fill="#63b8ff" stroke="#63b8ff" points="843.15,-453.23 848.6,-444.15 838.67,-447.84 843.15,-453.23"/>
</a>
</g>
</g>
<!-- Node11&#45;&gt;Node8 -->
<g id="edge13_Node000011_Node000008" class="edge">
<title>Node11&#45;&gt;Node8</title>
<g id="a_edge13_Node000011_Node000008"><a xlink:title=" ">
<path fill="none" stroke="#63b8ff" d="M741.06,-461.92C753.36,-459.24 766.71,-456.29 779,-453.5 788.98,-451.23 799.64,-448.76 809.83,-446.36"/>
<polygon fill="#63b8ff" stroke="#63b8ff" points="810.88,-449.71 819.81,-444.01 809.28,-442.9 810.88,-449.71"/>
</a>
</g>
</g>
<!-- Node12&#45;&gt;Node8 -->
<g id="edge15_Node000012_Node000008" class="edge">
<title>Node12&#45;&gt;Node8</title>
<g id="a_edge15_Node000012_Node000008"><a xlink:title=" ">
<path fill="none" stroke="#63b8ff" d="M762.8,-434.5C776.71,-434.5 791.22,-434.5 804.66,-434.5"/>
<polygon fill="#63b8ff" stroke="#63b8ff" points="804.69,-438 814.69,-434.5 804.69,-431 804.69,-438"/>
</a>
</g>
</g>
<!-- Node14 -->
<g id="Node000014" class="node">
<title>Node14</title>
<g id="a_Node000014"><a xlink:href="classObject.html#ae9814731421ab3e919a2e5c3b86e0eeb" target="_top" xlink:title=" ">
<polygon fill="white" stroke="#666666" points="749,-369 642,-369 642,-350 749,-350 749,-369"/>
<text text-anchor="middle" x="695.5" y="-357" font-family="Helvetica,sans-Serif" font-size="10.00">Object::objectData</text>
</a>
</g>
</g>
<!-- Node13&#45;&gt;Node14 -->
<g id="edge17_Node000013_Node000014" class="edge">
<title>Node13&#45;&gt;Node14</title>
<g id="a_edge17_Node000013_Node000014"><a xlink:title=" ">
<path fill="none" stroke="#63b8ff" d="M534.21,-388.15C563.05,-383 600.4,-376.32 631.8,-370.71"/>
<polygon fill="#63b8ff" stroke="#63b8ff" points="632.53,-374.13 641.76,-368.93 631.3,-367.24 632.53,-374.13"/>
</a>
</g>
</g>
<!-- Node15&#45;&gt;Node8 -->
<g id="edge19_Node000015_Node000008" class="edge">
<title>Node15&#45;&gt;Node8</title>
<g id="a_edge19_Node000015_Node000008"><a xlink:title=" ">
<path fill="none" stroke="#63b8ff" d="M736.67,-322.03C750.81,-326.54 766.32,-332.87 779,-341.5 808.7,-361.72 834.13,-395.52 848.07,-416.33"/>
<polygon fill="#63b8ff" stroke="#63b8ff" points="845.25,-418.41 853.65,-424.88 851.12,-414.59 845.25,-418.41"/>
</a>
</g>
</g>
<!-- Node16&#45;&gt;Node8 -->
<g id="edge21_Node000016_Node000008" class="edge">
<title>Node16&#45;&gt;Node8</title>
<g id="a_edge21_Node000016_Node000008"><a xlink:title=" ">
<path fill="none" stroke="#63b8ff" d="M729.8,-266.02C746.05,-271.92 765.05,-280.84 779,-293.5 817.3,-328.25 842.05,-385.61 853,-415.33"/>
<polygon fill="#63b8ff" stroke="#63b8ff" points="849.76,-416.68 856.41,-424.93 856.36,-414.34 849.76,-416.68"/>
</a>
</g>
</g>
<!-- Node17&#45;&gt;Node14 -->
<g id="edge23_Node000017_Node000014" class="edge">
<title>Node17&#45;&gt;Node14</title>
<g id="a_edge23_Node000017_Node000014"><a xlink:title=" ">
<path fill="none" stroke="#63b8ff" d="M532.67,-359.5C561.65,-359.5 599.7,-359.5 631.61,-359.5"/>
<polygon fill="#63b8ff" stroke="#63b8ff" points="631.74,-363 641.74,-359.5 631.74,-356 631.74,-363"/>
</a>
</g>
</g>
<!-- Node18&#45;&gt;Node14 -->
<g id="edge25_Node000018_Node000014" class="edge">
<title>Node18&#45;&gt;Node14</title>
<g id="a_edge25_Node000018_Node000014"><a xlink:title=" ">
<path fill="none" stroke="#63b8ff" d="M540.81,-332.03C568.56,-336.99 602.67,-343.09 631.69,-348.27"/>
<polygon fill="#63b8ff" stroke="#63b8ff" points="631.27,-351.75 641.73,-350.07 632.5,-344.86 631.27,-351.75"/>
</a>
</g>
</g>
<!-- Node22&#45;&gt;Node8 -->
<g id="edge30_Node000022_Node000008" class="edge">
<title>Node22&#45;&gt;Node8</title>
<g id="a_edge30_Node000022_Node000008"><a xlink:title=" ">
<path fill="none" stroke="#63b8ff" d="M715.58,-188.03C734.02,-198.1 761.64,-215.54 779,-237.5 823.23,-293.45 846.53,-377.03 855.31,-414.76"/>
<polygon fill="#63b8ff" stroke="#63b8ff" points="851.99,-415.92 857.58,-424.92 858.82,-414.4 851.99,-415.92"/>
</a>
</g>
</g>
<!-- Node23&#45;&gt;Node8 -->
<g id="edge32_Node000023_Node000008" class="edge">
<title>Node23&#45;&gt;Node8</title>
<g id="a_edge32_Node000023_Node000008"><a xlink:title=" ">
<path fill="none" stroke="#63b8ff" d="M706.68,-69C723.98,-85.71 759.19,-122.11 779,-159.5 826.13,-248.43 849.04,-368.56 856.58,-415.03"/>
<polygon fill="#63b8ff" stroke="#63b8ff" points="853.13,-415.62 858.14,-424.96 860.05,-414.54 853.13,-415.62"/>
</a>
</g>
</g>
</g>
</svg>

<g id="navigator" transform="translate(0 0)" fill="#404254">
  <rect fill="#f2f5e9" fill-opacity="0.5" stroke="#606060" stroke-width=".5" x="0" y="0" width="60" height="60"/>
  <use id="zoomplus" xlink:href="#zoomPlus" x="17" y="9" onmousedown="handleZoom(evt,'in')"/>
  <use id="zoomminus" xlink:href="#zoomMin" x="42" y="9" onmousedown="handleZoom(evt,'out')"/>
  <use id="reset" xlink:href="#resetDef" x="30" y="36" onmousedown="handleReset()"/>
   <use id="arrowup" xlink:href="#arrowUp" x="0" y="0" onmousedown="handlePan(0,-1)"/>
  <use id="arrowright" xlink:href="#arrowRight" x="0" y="0" onmousedown="handlePan(1,0)"/>
  <use id="arrowdown" xlink:href="#arrowDown" x="0" y="0" onmousedown="handlePan(0,1)"/>
  <use id="arrowleft" xlink:href="#arrowLeft" x="0" y="0" onmousedown="handlePan(-1,0)"/>
</g>
<svg viewBox="0 0 15 15" width="100%" height="30px" preserveAspectRatio="xMaxYMin meet">
 <g id="arrow_out" transform="scale(0.3 0.3)">
  <a xlink:href="classItemInterface_a725b5d02f9e835c63409034b1af73665_cgraph_org.svg" target="_base">
   <rect id="button" ry="5" rx="5" y="6" x="6" height="38" width="38"
        fill="#f2f5e9" fill-opacity="0.5" stroke="#606060" stroke-width="1.0"/>
   <path id="arrow"
     d="M 11.500037,31.436501 C 11.940474,20.09759 22.043105,11.32322 32.158766,21.979434 L 37.068811,17.246167 C 37.068811,17.246167 37.088388,32 37.088388,32 L 22.160133,31.978069 C 22.160133,31.978069 26.997745,27.140456 26.997745,27.140456 C 18.528582,18.264221 13.291696,25.230495 11.500037,31.436501 z"
     style="fill:#404040;"/>
  </a>
 </g>
</svg>

<style type='text/css'>
<![CDATA[
[data-mouse-over-selected='false'] { opacity: 0.7; }
[data-mouse-over-selected='true']  { opacity: 1.0; }
]]>
</style>
<script type="application/ecmascript"><![CDATA[
document.addEventListener('DOMContentLoaded', (event) => {
  highlightEdges();
  highlightAdjacentNodes();
});
]]></script>
</svg>
