<?xml version="1.0" encoding="UTF-8" standalone="no"?>
<!DOCTYPE svg PUBLIC "-//W3C//DTD SVG 1.1//EN"
 "http://www.w3.org/Graphics/SVG/1.1/DTD/svg11.dtd">
<!-- Generated by graphviz version 2.43.0 (0)
 -->
<!-- Title: CreatureAIScript::moveAlongSplineChain Pages: 1 -->
<svg width="518pt" height="104pt"
 viewBox="0.00 0.00 518.00 104.00" xmlns="http://www.w3.org/2000/svg" xmlns:xlink="http://www.w3.org/1999/xlink">
<g id="graph0" class="graph" transform="scale(1 1) rotate(0) translate(4 100)">
<title>CreatureAIScript::moveAlongSplineChain</title>
<!-- Node1 -->
<g id="Node000001" class="node">
<title>Node1</title>
<g id="a_Node000001"><a xlink:title=" ">
<polygon fill="#999999" stroke="#666666" points="158,-63 0,-63 0,-33 158,-33 158,-63"/>
<text text-anchor="start" x="8" y="-51" font-family="Helvetica,sans-Serif" font-size="10.00">CreatureAIScript::moveAlong</text>
<text text-anchor="middle" x="79" y="-40" font-family="Helvetica,sans-Serif" font-size="10.00">SplineChain</text>
</a>
</g>
</g>
<!-- Node2 -->
<g id="Node000002" class="node">
<title>Node2</title>
<g id="a_Node000002"><a xlink:href="classCreatureAIScript.html#a27573ef4c4a6d2413dde46385568600e" target="_top" xlink:title=" ">
<polygon fill="white" stroke="#666666" points="365.5,-96 195.5,-96 195.5,-66 365.5,-66 365.5,-96"/>
<text text-anchor="start" x="203.5" y="-84" font-family="Helvetica,sans-Serif" font-size="10.00">CreatureAIScript::getMovement</text>
<text text-anchor="middle" x="280.5" y="-73" font-family="Helvetica,sans-Serif" font-size="10.00">Manager</text>
</a>
</g>
</g>
<!-- Node1&#45;&gt;Node2 -->
<g id="edge1_Node000001_Node000002" class="edge">
<title>Node1&#45;&gt;Node2</title>
<g id="a_edge1_Node000001_Node000002"><a xlink:title=" ">
<path fill="none" stroke="#63b8ff" d="M158.28,-60.95C167.08,-62.4 176.12,-63.9 185.1,-65.38"/>
<polygon fill="#63b8ff" stroke="#63b8ff" points="184.76,-68.88 195.2,-67.05 185.9,-61.97 184.76,-68.88"/>
</a>
</g>
</g>
<!-- Node3 -->
<g id="Node000003" class="node">
<title>Node3</title>
<g id="a_Node000003"><a xlink:href="classMovementManager.html#a605fae7b48b934a5628175803d2ef847" target="_top" xlink:title=" ">
<polygon fill="white" stroke="#666666" points="367,-30 194,-30 194,0 367,0 367,-30"/>
<text text-anchor="start" x="202" y="-18" font-family="Helvetica,sans-Serif" font-size="10.00">MovementManager::moveAlong</text>
<text text-anchor="middle" x="280.5" y="-7" font-family="Helvetica,sans-Serif" font-size="10.00">SplineChain</text>
</a>
</g>
</g>
<!-- Node1&#45;&gt;Node3 -->
<g id="edge2_Node000001_Node000003" class="edge">
<title>Node1&#45;&gt;Node3</title>
<g id="a_edge2_Node000001_Node000003"><a xlink:title=" ">
<path fill="none" stroke="#63b8ff" d="M158.28,-35.05C166.67,-33.66 175.28,-32.24 183.85,-30.82"/>
<polygon fill="#63b8ff" stroke="#63b8ff" points="184.58,-34.25 193.87,-29.16 183.43,-27.34 184.58,-34.25"/>
</a>
</g>
</g>
<!-- Node3&#45;&gt;Node3 -->
<g id="edge3_Node000003_Node000003" class="edge">
<title>Node3&#45;&gt;Node3</title>
<g id="a_edge3_Node000003_Node000003"><a xlink:title=" ">
<path fill="none" stroke="#63b8ff" d="M249.56,-30.28C242.69,-39.41 253,-48 280.5,-48 296.83,-48 307.1,-44.97 311.31,-40.6"/>
<polygon fill="#63b8ff" stroke="#63b8ff" points="314.81,-40.32 311.44,-30.28 307.81,-40.23 314.81,-40.32"/>
</a>
</g>
</g>
<!-- Node4 -->
<g id="Node000004" class="node">
<title>Node4</title>
<g id="a_Node000004"><a xlink:href="classObject.html#ab0e2ef1ac1daa91476f749e0ec6ad3c6" target="_top" xlink:title=" ">
<polygon fill="white" stroke="#666666" points="510,-24.5 403,-24.5 403,-5.5 510,-5.5 510,-24.5"/>
<text text-anchor="middle" x="456.5" y="-12.5" font-family="Helvetica,sans-Serif" font-size="10.00">Object::ToCreature</text>
</a>
</g>
</g>
<!-- Node3&#45;&gt;Node4 -->
<g id="edge4_Node000003_Node000004" class="edge">
<title>Node3&#45;&gt;Node4</title>
<g id="a_edge4_Node000003_Node000004"><a xlink:title=" ">
<path fill="none" stroke="#63b8ff" d="M367.23,-15C375.89,-15 384.56,-15 392.91,-15"/>
<polygon fill="#63b8ff" stroke="#63b8ff" points="392.91,-18.5 402.91,-15 392.91,-11.5 392.91,-18.5"/>
</a>
</g>
</g>
</g>
</svg>
