<?xml version="1.0" encoding="UTF-8" standalone="no"?>
<!DOCTYPE svg PUBLIC "-//W3C//DTD SVG 1.1//EN"
 "http://www.w3.org/Graphics/SVG/1.1/DTD/svg11.dtd">
<!-- Generated by graphviz version 2.43.0 (0)
 -->
<!-- Title: G3D::Color3::rainbowColorMap Pages: 1 -->
<svg width="586pt" height="138pt"
 viewBox="0.00 0.00 586.00 138.00" xmlns="http://www.w3.org/2000/svg" xmlns:xlink="http://www.w3.org/1999/xlink">
<g id="graph0" class="graph" transform="scale(1 1) rotate(0) translate(4 134)">
<title>G3D::Color3::rainbowColorMap</title>
<!-- Node1 -->
<g id="Node000001" class="node">
<title>Node1</title>
<g id="a_Node000001"><a xlink:title=" ">
<polygon fill="#999999" stroke="#666666" points="167,-74 0,-74 0,-55 167,-55 167,-74"/>
<text text-anchor="middle" x="83.5" y="-62" font-family="Helvetica,sans-Serif" font-size="10.00">G3D::Color3::rainbowColorMap</text>
</a>
</g>
</g>
<!-- Node2 -->
<g id="Node000002" class="node">
<title>Node2</title>
<g id="a_Node000002"><a xlink:href="classG3D_1_1Color3.html#ac96f71b1f16654c3f7821253476f6fb8" target="_top" xlink:title=" ">
<polygon fill="white" stroke="#666666" points="328,-74 203,-74 203,-55 328,-55 328,-74"/>
<text text-anchor="middle" x="265.5" y="-62" font-family="Helvetica,sans-Serif" font-size="10.00">G3D::Color3::fromHSV</text>
</a>
</g>
</g>
<!-- Node1&#45;&gt;Node2 -->
<g id="edge1_Node000001_Node000002" class="edge">
<title>Node1&#45;&gt;Node2</title>
<g id="a_edge1_Node000001_Node000002"><a xlink:title=" ">
<path fill="none" stroke="#63b8ff" d="M167.12,-64.5C175.67,-64.5 184.3,-64.5 192.71,-64.5"/>
<polygon fill="#63b8ff" stroke="#63b8ff" points="192.83,-68 202.83,-64.5 192.83,-61 192.83,-68"/>
</a>
</g>
</g>
<!-- Node3 -->
<g id="Node000003" class="node">
<title>Node3</title>
<g id="a_Node000003"><a xlink:href="classG3D_1_1Color3.html#a5bbc0e4a5e3ac258352edfd827b081e2" target="_top" xlink:title=" ">
<polygon fill="white" stroke="#666666" points="474,-130 367,-130 367,-111 474,-111 474,-130"/>
<text text-anchor="middle" x="420.5" y="-118" font-family="Helvetica,sans-Serif" font-size="10.00">G3D::Color3::black</text>
</a>
</g>
</g>
<!-- Node2&#45;&gt;Node3 -->
<g id="edge2_Node000002_Node000003" class="edge">
<title>Node2&#45;&gt;Node3</title>
<g id="a_edge2_Node000002_Node000003"><a xlink:title=" ">
<path fill="none" stroke="#63b8ff" d="M290,-74.1C309.66,-82.02 338.5,-93.41 364,-102.5 368.88,-104.24 374.03,-106.01 379.15,-107.72"/>
<polygon fill="#63b8ff" stroke="#63b8ff" points="378.27,-111.11 388.86,-110.91 380.45,-104.46 378.27,-111.11"/>
</a>
</g>
</g>
<!-- Node4 -->
<g id="Node000004" class="node">
<title>Node4</title>
<g id="a_Node000004"><a xlink:href="classG3D_1_1Color3.html#a09d63839dfce65ae4b31d581d35109c8" target="_top" xlink:title="Initializes to all zero.">
<polygon fill="white" stroke="#666666" points="477,-93 364,-93 364,-74 477,-74 477,-93"/>
<text text-anchor="middle" x="420.5" y="-81" font-family="Helvetica,sans-Serif" font-size="10.00">G3D::Color3::Color3</text>
</a>
</g>
</g>
<!-- Node2&#45;&gt;Node4 -->
<g id="edge3_Node000002_Node000004" class="edge">
<title>Node2&#45;&gt;Node4</title>
<g id="a_edge3_Node000002_Node000004"><a xlink:title=" ">
<path fill="none" stroke="#63b8ff" d="M328.29,-72.17C336.66,-73.21 345.28,-74.28 353.72,-75.33"/>
<polygon fill="#63b8ff" stroke="#63b8ff" points="353.54,-78.84 363.9,-76.6 354.4,-71.89 353.54,-78.84"/>
</a>
</g>
</g>
<!-- Node5 -->
<g id="Node000005" class="node">
<title>Node5</title>
<g id="a_Node000005"><a xlink:href="namespaceG3D.html#a089858f78e3de462ca594a17c07efbd5" target="_top" xlink:title=" ">
<polygon fill="white" stroke="#666666" points="456,-56 385,-56 385,-37 456,-37 456,-56"/>
<text text-anchor="middle" x="420.5" y="-44" font-family="Helvetica,sans-Serif" font-size="10.00">G3D::iFloor</text>
</a>
</g>
</g>
<!-- Node2&#45;&gt;Node5 -->
<g id="edge4_Node000002_Node000005" class="edge">
<title>Node2&#45;&gt;Node5</title>
<g id="a_edge4_Node000002_Node000005"><a xlink:title=" ">
<path fill="none" stroke="#63b8ff" d="M328.29,-57.23C343.77,-55.41 360.09,-53.49 374.58,-51.78"/>
<polygon fill="#63b8ff" stroke="#63b8ff" points="375.24,-55.23 384.76,-50.59 374.42,-48.28 375.24,-55.23"/>
</a>
</g>
</g>
<!-- Node7 -->
<g id="Node000007" class="node">
<title>Node7</title>
<g id="a_Node000007"><a xlink:href="namespaceG3D.html#ac2f67d78322a6125115ba9be6dd2b094" target="_top" xlink:title=" ">
<polygon fill="white" stroke="#666666" points="453,-19 388,-19 388,0 453,0 453,-19"/>
<text text-anchor="middle" x="420.5" y="-7" font-family="Helvetica,sans-Serif" font-size="10.00">G3D::iMin</text>
</a>
</g>
</g>
<!-- Node2&#45;&gt;Node7 -->
<g id="edge6_Node000002_Node000007" class="edge">
<title>Node2&#45;&gt;Node7</title>
<g id="a_edge6_Node000002_Node000007"><a xlink:title=" ">
<path fill="none" stroke="#63b8ff" d="M292.1,-54.86C311.73,-47.51 339.52,-37.21 364,-28.5 369.66,-26.49 375.65,-24.4 381.52,-22.37"/>
<polygon fill="#63b8ff" stroke="#63b8ff" points="382.9,-25.59 391.22,-19.04 380.63,-18.97 382.9,-25.59"/>
</a>
</g>
</g>
<!-- Node6 -->
<g id="Node000006" class="node">
<title>Node6</title>
<g id="a_Node000006"><a xlink:href="namespaceG3D.html#a07268390ec29a082a676017918f11f19" target="_top" xlink:title=" ">
<polygon fill="white" stroke="#666666" points="578,-56 513,-56 513,-37 578,-37 578,-56"/>
<text text-anchor="middle" x="545.5" y="-44" font-family="Helvetica,sans-Serif" font-size="10.00">G3D::floor</text>
</a>
</g>
</g>
<!-- Node5&#45;&gt;Node6 -->
<g id="edge5_Node000005_Node000006" class="edge">
<title>Node5&#45;&gt;Node6</title>
<g id="a_edge5_Node000005_Node000006"><a xlink:title=" ">
<path fill="none" stroke="#63b8ff" d="M456.09,-46.5C470.52,-46.5 487.42,-46.5 502.55,-46.5"/>
<polygon fill="#63b8ff" stroke="#63b8ff" points="502.7,-50 512.7,-46.5 502.7,-43 502.7,-50"/>
</a>
</g>
</g>
</g>
</svg>
