<?xml version="1.0" encoding="UTF-8" standalone="no"?>
<!DOCTYPE svg PUBLIC "-//W3C//DTD SVG 1.1//EN"
 "http://www.w3.org/Graphics/SVG/1.1/DTD/svg11.dtd">
<!-- Generated by graphviz version 2.43.0 (0)
 -->
<!-- Title: ChatCommandHandler::HandleDebugPVPCreditCommand Pages: 1 -->
<svg width="1090pt" height="341pt"
 viewBox="0.00 0.00 1090.00 341.00" xmlns="http://www.w3.org/2000/svg" xmlns:xlink="http://www.w3.org/1999/xlink">
<g id="graph0" class="graph" transform="scale(1 1) rotate(0) translate(4 337)">
<title>ChatCommandHandler::HandleDebugPVPCreditCommand</title>
<!-- Node1 -->
<g id="Node000001" class="node">
<title>Node1</title>
<g id="a_Node000001"><a xlink:title=" ">
<polygon fill="#999999" stroke="#666666" points="187,-179.5 0,-179.5 0,-149.5 187,-149.5 187,-179.5"/>
<text text-anchor="start" x="8" y="-167.5" font-family="Helvetica,sans-Serif" font-size="10.00">ChatCommandHandler</text>
<text text-anchor="middle" x="93.5" y="-156.5" font-family="Helvetica,sans-Serif" font-size="10.00">::HandleDebugPVPCreditCommand</text>
</a>
</g>
</g>
<!-- Node2 -->
<g id="Node000002" class="node">
<title>Node2</title>
<g id="a_Node000002"><a xlink:href="classWorldSession.html#a014d7fdeb157410b75dfd4bd0fe0efc2" target="_top" xlink:title=" ">
<polygon fill="white" stroke="#666666" points="541.5,-333 405.5,-333 405.5,-314 541.5,-314 541.5,-333"/>
<text text-anchor="middle" x="473.5" y="-321" font-family="Helvetica,sans-Serif" font-size="10.00">WorldSession::GetPlayer</text>
</a>
</g>
</g>
<!-- Node1&#45;&gt;Node2 -->
<g id="edge1_Node000001_Node000002" class="edge">
<title>Node1&#45;&gt;Node2</title>
<g id="a_edge1_Node000001_Node000002"><a xlink:title=" ">
<path fill="none" stroke="#63b8ff" d="M119.62,-179.75C145.19,-194.99 186.18,-218.66 223,-236.5 295.27,-271.52 313.36,-281.51 390,-305.5 397.1,-307.72 404.63,-309.77 412.14,-311.63"/>
<polygon fill="#63b8ff" stroke="#63b8ff" points="411.42,-315.05 421.96,-313.96 413.03,-308.24 411.42,-315.05"/>
</a>
</g>
</g>
<!-- Node3 -->
<g id="Node000003" class="node">
<title>Node3</title>
<g id="a_Node000003"><a xlink:href="classChatCommandHandler.html#abb463a1e2b89d32f293c3c16f19c7d70" target="_top" xlink:title=" ">
<polygon fill="white" stroke="#666666" points="352.5,-227.5 224.5,-227.5 224.5,-197.5 352.5,-197.5 352.5,-227.5"/>
<text text-anchor="start" x="232.5" y="-215.5" font-family="Helvetica,sans-Serif" font-size="10.00">ChatCommandHandler</text>
<text text-anchor="middle" x="288.5" y="-204.5" font-family="Helvetica,sans-Serif" font-size="10.00">::GetSelectedPlayer</text>
</a>
</g>
</g>
<!-- Node1&#45;&gt;Node3 -->
<g id="edge2_Node000001_Node000003" class="edge">
<title>Node1&#45;&gt;Node3</title>
<g id="a_edge2_Node000001_Node000003"><a xlink:title=" ">
<path fill="none" stroke="#63b8ff" d="M155.04,-179.56C174.8,-184.47 196.91,-189.97 217.31,-195.04"/>
<polygon fill="#63b8ff" stroke="#63b8ff" points="216.63,-198.48 227.18,-197.5 218.32,-191.69 216.63,-198.48"/>
</a>
</g>
</g>
<!-- Node12 -->
<g id="Node000012" class="node">
<title>Node12</title>
<g id="a_Node000012"><a xlink:href="classChatCommandHandler.html#a562947bc81997bcf5225df5cf1fbcaa6" target="_top" xlink:title=" ">
<polygon fill="white" stroke="#666666" points="354,-179.5 223,-179.5 223,-149.5 354,-149.5 354,-179.5"/>
<text text-anchor="start" x="231" y="-167.5" font-family="Helvetica,sans-Serif" font-size="10.00">ChatCommandHandler</text>
<text text-anchor="middle" x="288.5" y="-156.5" font-family="Helvetica,sans-Serif" font-size="10.00">::greenSystemMessage</text>
</a>
</g>
</g>
<!-- Node1&#45;&gt;Node12 -->
<g id="edge12_Node000001_Node000012" class="edge">
<title>Node1&#45;&gt;Node12</title>
<g id="a_edge12_Node000001_Node000012"><a xlink:title=" ">
<path fill="none" stroke="#63b8ff" d="M187.04,-164.5C195.64,-164.5 204.28,-164.5 212.69,-164.5"/>
<polygon fill="#63b8ff" stroke="#63b8ff" points="212.81,-168 222.81,-164.5 212.81,-161 212.81,-168"/>
</a>
</g>
</g>
<!-- Node13 -->
<g id="Node000013" class="node">
<title>Node13</title>
<g id="a_Node000013"><a xlink:href="classChatCommandHandler.html#ac481a38af41845bdacba6cfca6f08a2d" target="_top" xlink:title=" ">
<polygon fill="white" stroke="#666666" points="352.5,-131.5 224.5,-131.5 224.5,-101.5 352.5,-101.5 352.5,-131.5"/>
<text text-anchor="start" x="232.5" y="-119.5" font-family="Helvetica,sans-Serif" font-size="10.00">ChatCommandHandler</text>
<text text-anchor="middle" x="288.5" y="-108.5" font-family="Helvetica,sans-Serif" font-size="10.00">::redSystemMessage</text>
</a>
</g>
</g>
<!-- Node1&#45;&gt;Node13 -->
<g id="edge13_Node000001_Node000013" class="edge">
<title>Node1&#45;&gt;Node13</title>
<g id="a_edge13_Node000001_Node000013"><a xlink:title=" ">
<path fill="none" stroke="#63b8ff" d="M155.04,-149.44C174.8,-144.53 196.91,-139.03 217.31,-133.96"/>
<polygon fill="#63b8ff" stroke="#63b8ff" points="218.32,-137.31 227.18,-131.5 216.63,-130.52 218.32,-137.31"/>
</a>
</g>
</g>
<!-- Node14 -->
<g id="Node000014" class="node">
<title>Node14</title>
<g id="a_Node000014"><a xlink:href="classPlayer.html#a36458edf9fb051f135d21ccac51bad16" target="_top" xlink:title=" ">
<polygon fill="white" stroke="#666666" points="350.5,-79 226.5,-79 226.5,-60 350.5,-60 350.5,-79"/>
<text text-anchor="middle" x="288.5" y="-67" font-family="Helvetica,sans-Serif" font-size="10.00">Player::sendPvpCredit</text>
</a>
</g>
</g>
<!-- Node1&#45;&gt;Node14 -->
<g id="edge14_Node000001_Node000014" class="edge">
<title>Node1&#45;&gt;Node14</title>
<g id="a_edge14_Node000001_Node000014"><a xlink:title=" ">
<path fill="none" stroke="#63b8ff" d="M118.5,-149.44C143.85,-133.92 185.29,-109.64 223,-92.5 230.93,-88.89 239.61,-85.47 247.96,-82.41"/>
<polygon fill="#63b8ff" stroke="#63b8ff" points="249.29,-85.65 257.54,-79.01 246.95,-79.06 249.29,-85.65"/>
</a>
</g>
</g>
<!-- Node3&#45;&gt;Node2 -->
<g id="edge4_Node000003_Node000002" class="edge">
<title>Node3&#45;&gt;Node2</title>
<g id="a_edge4_Node000003_Node000002"><a xlink:title=" ">
<path fill="none" stroke="#63b8ff" d="M304.91,-227.61C330.54,-252.6 380.09,-300.33 390,-305.5 393.55,-307.35 397.29,-309.02 401.13,-310.51"/>
<polygon fill="#63b8ff" stroke="#63b8ff" points="400.24,-313.91 410.84,-313.88 402.54,-307.29 400.24,-313.91"/>
</a>
</g>
</g>
<!-- Node4 -->
<g id="Node000004" class="node">
<title>Node4</title>
<g id="a_Node000004"><a xlink:href="classWoWGuid.html#a8c5db0d6b72e4cc9e850a410f0030b92" target="_top" xlink:title=" ">
<polygon fill="white" stroke="#666666" points="527.5,-296 419.5,-296 419.5,-277 527.5,-277 527.5,-296"/>
<text text-anchor="middle" x="473.5" y="-284" font-family="Helvetica,sans-Serif" font-size="10.00">WoWGuid::getHigh</text>
</a>
</g>
</g>
<!-- Node3&#45;&gt;Node4 -->
<g id="edge3_Node000003_Node000004" class="edge">
<title>Node3&#45;&gt;Node4</title>
<g id="a_edge3_Node000003_Node000004"><a xlink:title=" ">
<path fill="none" stroke="#63b8ff" d="M312.11,-227.65C331.89,-240.26 361.79,-257.83 390,-268.5 396.26,-270.87 402.92,-272.97 409.63,-274.81"/>
<polygon fill="#63b8ff" stroke="#63b8ff" points="408.9,-278.24 419.46,-277.34 410.64,-271.46 408.9,-278.24"/>
</a>
</g>
</g>
<!-- Node5 -->
<g id="Node000005" class="node">
<title>Node5</title>
<g id="a_Node000005"><a xlink:href="classWorldMap.html#aaef96289a191fb47e1312a8938b835af" target="_top" xlink:title=" ">
<polygon fill="white" stroke="#666666" points="532.5,-259 414.5,-259 414.5,-240 532.5,-240 532.5,-259"/>
<text text-anchor="middle" x="473.5" y="-247" font-family="Helvetica,sans-Serif" font-size="10.00">WorldMap::getPlayer</text>
</a>
</g>
</g>
<!-- Node3&#45;&gt;Node5 -->
<g id="edge5_Node000003_Node000005" class="edge">
<title>Node3&#45;&gt;Node5</title>
<g id="a_edge5_Node000003_Node000005"><a xlink:title=" ">
<path fill="none" stroke="#63b8ff" d="M352.73,-225.29C373.15,-229.41 395.65,-233.96 415.58,-237.99"/>
<polygon fill="#63b8ff" stroke="#63b8ff" points="414.94,-241.43 425.44,-239.98 416.33,-234.57 414.94,-241.43"/>
</a>
</g>
</g>
<!-- Node6 -->
<g id="Node000006" class="node">
<title>Node6</title>
<g id="a_Node000006"><a xlink:href="classUnit.html#a50e5b30e1c170be2c8415a84d0e78cc8" target="_top" xlink:title=" ">
<polygon fill="white" stroke="#666666" points="529,-222 418,-222 418,-203 529,-203 529,-222"/>
<text text-anchor="middle" x="473.5" y="-210" font-family="Helvetica,sans-Serif" font-size="10.00">Unit::getTargetGuid</text>
</a>
</g>
</g>
<!-- Node3&#45;&gt;Node6 -->
<g id="edge6_Node000003_Node000006" class="edge">
<title>Node3&#45;&gt;Node6</title>
<g id="a_edge6_Node000003_Node000006"><a xlink:title=" ">
<path fill="none" stroke="#63b8ff" d="M352.73,-212.5C370.44,-212.5 389.71,-212.5 407.51,-212.5"/>
<polygon fill="#63b8ff" stroke="#63b8ff" points="407.8,-216 417.8,-212.5 407.8,-209 407.8,-216"/>
</a>
</g>
</g>
<!-- Node8 -->
<g id="Node000008" class="node">
<title>Node8</title>
<g id="a_Node000008"><a xlink:href="classObject.html#a967af054c54b6d9846637ce8718efd75" target="_top" xlink:title=" ">
<polygon fill="white" stroke="#666666" points="533,-185 414,-185 414,-166 533,-166 533,-185"/>
<text text-anchor="middle" x="473.5" y="-173" font-family="Helvetica,sans-Serif" font-size="10.00">Object::getWorldMap</text>
</a>
</g>
</g>
<!-- Node3&#45;&gt;Node8 -->
<g id="edge8_Node000003_Node000008" class="edge">
<title>Node3&#45;&gt;Node8</title>
<g id="a_edge8_Node000003_Node000008"><a xlink:title=" ">
<path fill="none" stroke="#63b8ff" d="M352.73,-199.71C373.15,-195.59 395.65,-191.04 415.58,-187.01"/>
<polygon fill="#63b8ff" stroke="#63b8ff" points="416.33,-190.43 425.44,-185.02 414.94,-183.57 416.33,-190.43"/>
</a>
</g>
</g>
<!-- Node9 -->
<g id="Node000009" class="node">
<title>Node9</title>
<g id="a_Node000009"><a xlink:href="classWoWGuid.html#af262e032110b2936fde7b85a73a21d1b" target="_top" xlink:title=" ">
<polygon fill="white" stroke="#666666" points="516.5,-148 430.5,-148 430.5,-129 516.5,-129 516.5,-148"/>
<text text-anchor="middle" x="473.5" y="-136" font-family="Helvetica,sans-Serif" font-size="10.00">WoWGuid::Init</text>
</a>
</g>
</g>
<!-- Node3&#45;&gt;Node9 -->
<g id="edge9_Node000003_Node000009" class="edge">
<title>Node3&#45;&gt;Node9</title>
<g id="a_edge9_Node000003_Node000009"><a xlink:title=" ">
<path fill="none" stroke="#63b8ff" d="M336.22,-197.38C342.36,-194.75 348.44,-191.78 354,-188.5 372.18,-177.76 371.16,-167.04 390,-157.5 399.44,-152.72 410.1,-149.13 420.54,-146.43"/>
<polygon fill="#63b8ff" stroke="#63b8ff" points="421.5,-149.8 430.43,-144.11 419.9,-142.98 421.5,-149.8"/>
</a>
</g>
</g>
<!-- Node10 -->
<g id="Node000010" class="node">
<title>Node10</title>
<g id="a_Node000010"><a xlink:href="classWorldSession.html#ab014961bae815ec29c0d062da893ce68" target="_top" xlink:title=" ">
<polygon fill="white" stroke="#666666" points="557,-111 390,-111 390,-92 557,-92 557,-111"/>
<text text-anchor="middle" x="473.5" y="-99" font-family="Helvetica,sans-Serif" font-size="10.00">WorldSession::systemMessage</text>
</a>
</g>
</g>
<!-- Node3&#45;&gt;Node10 -->
<g id="edge10_Node000003_Node000010" class="edge">
<title>Node3&#45;&gt;Node10</title>
<g id="a_edge10_Node000003_Node000010"><a xlink:title=" ">
<path fill="none" stroke="#63b8ff" d="M341.13,-197.34C345.75,-194.81 350.14,-191.89 354,-188.5 379.71,-165.95 362.88,-141.33 390,-120.5 392.35,-118.7 394.84,-117.06 397.44,-115.57"/>
<polygon fill="#63b8ff" stroke="#63b8ff" points="399.17,-118.62 406.61,-111.07 396.09,-112.33 399.17,-118.62"/>
</a>
</g>
</g>
<!-- Node7 -->
<g id="Node000007" class="node">
<title>Node7</title>
<g id="a_Node000007"><a xlink:href="classUnit.html#a2b80af47340ac01ca2031723f37e839a" target="_top" xlink:title=" ">
<polygon fill="white" stroke="#666666" points="707,-222 622,-222 622,-203 707,-203 707,-222"/>
<text text-anchor="middle" x="664.5" y="-210" font-family="Helvetica,sans-Serif" font-size="10.00">Unit::unitData</text>
</a>
</g>
</g>
<!-- Node6&#45;&gt;Node7 -->
<g id="edge7_Node000006_Node000007" class="edge">
<title>Node6&#45;&gt;Node7</title>
<g id="a_edge7_Node000006_Node000007"><a xlink:title=" ">
<path fill="none" stroke="#63b8ff" d="M529.17,-212.5C555.13,-212.5 586.01,-212.5 611.61,-212.5"/>
<polygon fill="#63b8ff" stroke="#63b8ff" points="611.87,-216 621.87,-212.5 611.87,-209 611.87,-216"/>
</a>
</g>
</g>
<!-- Node11 -->
<g id="Node000011" class="node">
<title>Node11</title>
<g id="a_Node000011"><a xlink:href="namespaceAscEmu.html#af79227cb68117f159a0cf3232904123a" target="_top" xlink:title=" ">
<polygon fill="white" stroke="#666666" points="727,-111 602,-111 602,-92 727,-92 727,-111"/>
<text text-anchor="middle" x="664.5" y="-99" font-family="Helvetica,sans-Serif" font-size="10.00">AscEmu::StringFormat</text>
</a>
</g>
</g>
<!-- Node10&#45;&gt;Node11 -->
<g id="edge11_Node000010_Node000011" class="edge">
<title>Node10&#45;&gt;Node11</title>
<g id="a_edge11_Node000010_Node000011"><a xlink:title=" ">
<path fill="none" stroke="#63b8ff" d="M557.12,-101.5C568.61,-101.5 580.33,-101.5 591.59,-101.5"/>
<polygon fill="#63b8ff" stroke="#63b8ff" points="591.79,-105 601.79,-101.5 591.79,-98 591.79,-105"/>
</a>
</g>
</g>
<!-- Node15 -->
<g id="Node000015" class="node">
<title>Node15</title>
<g id="a_Node000015"><a xlink:href="classPlayer.html#a0d728a8a0181a9524d648ac2701cf2c6" target="_top" xlink:title=" ">
<polygon fill="white" stroke="#666666" points="527.5,-74 419.5,-74 419.5,-55 527.5,-55 527.5,-74"/>
<text text-anchor="middle" x="473.5" y="-62" font-family="Helvetica,sans-Serif" font-size="10.00">Player::sendPacket</text>
</a>
</g>
</g>
<!-- Node14&#45;&gt;Node15 -->
<g id="edge15_Node000014_Node000015" class="edge">
<title>Node14&#45;&gt;Node15</title>
<g id="a_edge15_Node000014_Node000015"><a xlink:title=" ">
<path fill="none" stroke="#63b8ff" d="M350.69,-67.83C369.54,-67.31 390.32,-66.75 409.3,-66.23"/>
<polygon fill="#63b8ff" stroke="#63b8ff" points="409.44,-69.72 419.34,-65.95 409.25,-62.73 409.44,-69.72"/>
</a>
</g>
</g>
<!-- Node16 -->
<g id="Node000016" class="node">
<title>Node16</title>
<g id="a_Node000016"><a xlink:href="classWorldSession.html#a87a1bd80483f57f33a127d12c51d2331" target="_top" xlink:title=" ">
<polygon fill="white" stroke="#666666" points="736,-74 593,-74 593,-55 736,-55 736,-74"/>
<text text-anchor="middle" x="664.5" y="-62" font-family="Helvetica,sans-Serif" font-size="10.00">WorldSession::SendPacket</text>
</a>
</g>
</g>
<!-- Node15&#45;&gt;Node16 -->
<g id="edge16_Node000015_Node000016" class="edge">
<title>Node15&#45;&gt;Node16</title>
<g id="a_edge16_Node000015_Node000016"><a xlink:title=" ">
<path fill="none" stroke="#63b8ff" d="M527.65,-64.5C544.69,-64.5 563.97,-64.5 582.54,-64.5"/>
<polygon fill="#63b8ff" stroke="#63b8ff" points="582.76,-68 592.76,-64.5 582.76,-61 582.76,-68"/>
</a>
</g>
</g>
<!-- Node17 -->
<g id="Node000017" class="node">
<title>Node17</title>
<g id="a_Node000017"><a xlink:href="classWorldPacket.html#a3f359b4afd93497038c4f17e1ebd4380" target="_top" xlink:title=" ">
<polygon fill="white" stroke="#666666" points="1082,-102 946,-102 946,-83 1082,-83 1082,-102"/>
<text text-anchor="middle" x="1014" y="-90" font-family="Helvetica,sans-Serif" font-size="10.00">WorldPacket::GetOpcode</text>
</a>
</g>
</g>
<!-- Node16&#45;&gt;Node17 -->
<g id="edge17_Node000016_Node000017" class="edge">
<title>Node16&#45;&gt;Node17</title>
<g id="a_edge17_Node000016_Node000017"><a xlink:title=" ">
<path fill="none" stroke="#63b8ff" d="M710.91,-74.04C729.73,-77.62 751.83,-81.34 772,-83.5 826.49,-89.35 888.27,-91.57 935.63,-92.34"/>
<polygon fill="#63b8ff" stroke="#63b8ff" points="935.76,-95.85 945.81,-92.49 935.87,-88.85 935.76,-95.85"/>
</a>
</g>
</g>
<!-- Node18 -->
<g id="Node000018" class="node">
<title>Node18</title>
<g id="a_Node000018"><a xlink:href="classSocket.html#ae3bcf72d932e7b29656d368e81186e6a" target="_top" xlink:title=" ">
<polygon fill="white" stroke="#666666" points="898.5,-74 783.5,-74 783.5,-55 898.5,-55 898.5,-74"/>
<text text-anchor="middle" x="841" y="-62" font-family="Helvetica,sans-Serif" font-size="10.00">Socket::IsConnected</text>
</a>
</g>
</g>
<!-- Node16&#45;&gt;Node18 -->
<g id="edge18_Node000016_Node000018" class="edge">
<title>Node16&#45;&gt;Node18</title>
<g id="a_edge18_Node000016_Node000018"><a xlink:title=" ">
<path fill="none" stroke="#63b8ff" d="M736.22,-64.5C748.48,-64.5 761.18,-64.5 773.32,-64.5"/>
<polygon fill="#63b8ff" stroke="#63b8ff" points="773.36,-68 783.36,-64.5 773.36,-61 773.36,-68"/>
</a>
</g>
</g>
<!-- Node19 -->
<g id="Node000019" class="node">
<title>Node19</title>
<g id="a_Node000019"><a xlink:href="classWorldSocket.html#ab2fb0afb0aaf5d2229fea66a9923637e" target="_top" xlink:title=" ">
<polygon fill="white" stroke="#666666" points="910,-37 772,-37 772,-18 910,-18 910,-37"/>
<text text-anchor="middle" x="841" y="-25" font-family="Helvetica,sans-Serif" font-size="10.00">WorldSocket::SendPacket</text>
</a>
</g>
</g>
<!-- Node16&#45;&gt;Node19 -->
<g id="edge19_Node000016_Node000019" class="edge">
<title>Node16&#45;&gt;Node19</title>
<g id="a_edge19_Node000016_Node000019"><a xlink:title=" ">
<path fill="none" stroke="#63b8ff" d="M710.44,-54.97C733.15,-50.16 760.9,-44.27 784.89,-39.19"/>
<polygon fill="#63b8ff" stroke="#63b8ff" points="785.85,-42.56 794.91,-37.06 784.4,-35.71 785.85,-42.56"/>
</a>
</g>
</g>
<!-- Node19&#45;&gt;Node17 -->
<g id="edge21_Node000019_Node000017" class="edge">
<title>Node19&#45;&gt;Node17</title>
<g id="a_edge21_Node000019_Node000017"><a xlink:title=" ">
<path fill="none" stroke="#63b8ff" d="M884.19,-37.07C892.85,-39.48 901.81,-42.3 910,-45.5 926.85,-52.08 929.64,-56.78 946,-64.5 956.65,-69.52 968.45,-74.61 979.14,-79.04"/>
<polygon fill="#63b8ff" stroke="#63b8ff" points="978,-82.36 988.58,-82.91 980.65,-75.88 978,-82.36"/>
</a>
</g>
</g>
<!-- Node20 -->
<g id="Node000020" class="node">
<title>Node20</title>
<g id="a_Node000020"><a xlink:href="classByteBuffer.html#a8d712af2767c7ca45de60bd9d85738d8" target="_top" xlink:title=" ">
<polygon fill="white" stroke="#666666" points="1072,-56 956,-56 956,-37 1072,-37 1072,-56"/>
<text text-anchor="middle" x="1014" y="-44" font-family="Helvetica,sans-Serif" font-size="10.00">ByteBuffer::contents</text>
</a>
</g>
</g>
<!-- Node19&#45;&gt;Node20 -->
<g id="edge20_Node000019_Node000020" class="edge">
<title>Node19&#45;&gt;Node20</title>
<g id="a_edge20_Node000019_Node000020"><a xlink:title=" ">
<path fill="none" stroke="#63b8ff" d="M910.08,-35.06C921.82,-36.37 934.02,-37.72 945.74,-39.03"/>
<polygon fill="#63b8ff" stroke="#63b8ff" points="945.56,-42.53 955.89,-40.15 946.34,-35.57 945.56,-42.53"/>
</a>
</g>
</g>
<!-- Node21 -->
<g id="Node000021" class="node">
<title>Node21</title>
<g id="a_Node000021"><a xlink:href="classByteBuffer.html#ac06a598447807d32f6594a97a32bce94" target="_top" xlink:title=" ">
<polygon fill="white" stroke="#666666" points="1061,-19 967,-19 967,0 1061,0 1061,-19"/>
<text text-anchor="middle" x="1014" y="-7" font-family="Helvetica,sans-Serif" font-size="10.00">ByteBuffer::size</text>
</a>
</g>
</g>
<!-- Node19&#45;&gt;Node21 -->
<g id="edge22_Node000019_Node000021" class="edge">
<title>Node19&#45;&gt;Node21</title>
<g id="a_edge22_Node000019_Node000021"><a xlink:title=" ">
<path fill="none" stroke="#63b8ff" d="M910.08,-20.33C925.59,-18.7 941.9,-16.98 956.85,-15.41"/>
<polygon fill="#63b8ff" stroke="#63b8ff" points="957.38,-18.87 966.96,-14.35 956.64,-11.91 957.38,-18.87"/>
</a>
</g>
</g>
</g>
</svg>
