<?xml version="1.0" encoding="UTF-8" standalone="no"?>
<!DOCTYPE svg PUBLIC "-//W3C//DTD SVG 1.1//EN"
 "http://www.w3.org/Graphics/SVG/1.1/DTD/svg11.dtd">
<!-- Generated by graphviz version 2.43.0 (0)
 -->
<!-- Title: WorldSession::handleCalendarAddEvent Pages: 1 -->
<svg width="509pt" height="64pt"
 viewBox="0.00 0.00 509.00 64.00" xmlns="http://www.w3.org/2000/svg" xmlns:xlink="http://www.w3.org/1999/xlink">
<g id="graph0" class="graph" transform="scale(1 1) rotate(0) translate(4 60)">
<title>WorldSession::handleCalendarAddEvent</title>
<!-- Node1 -->
<g id="Node000001" class="node">
<title>Node1</title>
<g id="a_Node000001"><a xlink:title=" ">
<polygon fill="#999999" stroke="#666666" points="164,-42.5 0,-42.5 0,-12.5 164,-12.5 164,-42.5"/>
<text text-anchor="start" x="8" y="-30.5" font-family="Helvetica,sans-Serif" font-size="10.00">WorldSession::handleCalendar</text>
<text text-anchor="middle" x="82" y="-19.5" font-family="Helvetica,sans-Serif" font-size="10.00">AddEvent</text>
</a>
</g>
</g>
<!-- Node2 -->
<g id="Node000002" class="node">
<title>Node2</title>
<g id="a_Node000002"><a xlink:href="classObject.html#a0f6639fef4e90bc57ee1b34a81d6d489" target="_top" xlink:title=" ">
<polygon fill="white" stroke="#666666" points="325,-56 233,-56 233,-37 325,-37 325,-56"/>
<text text-anchor="middle" x="279" y="-44" font-family="Helvetica,sans-Serif" font-size="10.00">Object::getGuid</text>
</a>
</g>
</g>
<!-- Node1&#45;&gt;Node2 -->
<g id="edge1_Node000001_Node000002" class="edge">
<title>Node1&#45;&gt;Node2</title>
<g id="a_edge1_Node000001_Node000002"><a xlink:title=" ">
<path fill="none" stroke="#63b8ff" d="M164,-35.39C183.78,-37.32 204.48,-39.34 222.74,-41.12"/>
<polygon fill="#63b8ff" stroke="#63b8ff" points="222.6,-44.62 232.89,-42.1 223.28,-37.65 222.6,-44.62"/>
</a>
</g>
</g>
<!-- Node4 -->
<g id="Node000004" class="node">
<title>Node4</title>
<g id="a_Node000004"><a xlink:href="classByteBuffer.html#abd814a7c9264ead44f36e9aa260a9f88" target="_top" xlink:title=" ">
<polygon fill="white" stroke="#666666" points="358,-19 200,-19 200,0 358,0 358,-19"/>
<text text-anchor="middle" x="279" y="-7" font-family="Helvetica,sans-Serif" font-size="10.00">ByteBuffer::ReadPackedTime</text>
</a>
</g>
</g>
<!-- Node1&#45;&gt;Node4 -->
<g id="edge3_Node000001_Node000004" class="edge">
<title>Node1&#45;&gt;Node4</title>
<g id="a_edge3_Node000001_Node000004"><a xlink:title=" ">
<path fill="none" stroke="#63b8ff" d="M164,-20.02C172.5,-19.24 181.17,-18.44 189.75,-17.65"/>
<polygon fill="#63b8ff" stroke="#63b8ff" points="190.12,-21.13 199.75,-16.72 189.47,-14.16 190.12,-21.13"/>
</a>
</g>
</g>
<!-- Node3 -->
<g id="Node000003" class="node">
<title>Node3</title>
<g id="a_Node000003"><a xlink:href="classObject.html#ae9814731421ab3e919a2e5c3b86e0eeb" target="_top" xlink:title=" ">
<polygon fill="white" stroke="#666666" points="501,-56 394,-56 394,-37 501,-37 501,-56"/>
<text text-anchor="middle" x="447.5" y="-44" font-family="Helvetica,sans-Serif" font-size="10.00">Object::objectData</text>
</a>
</g>
</g>
<!-- Node2&#45;&gt;Node3 -->
<g id="edge2_Node000002_Node000003" class="edge">
<title>Node2&#45;&gt;Node3</title>
<g id="a_edge2_Node000002_Node000003"><a xlink:title=" ">
<path fill="none" stroke="#63b8ff" d="M325.06,-46.5C343.1,-46.5 364.2,-46.5 383.7,-46.5"/>
<polygon fill="#63b8ff" stroke="#63b8ff" points="383.73,-50 393.73,-46.5 383.73,-43 383.73,-50"/>
</a>
</g>
</g>
</g>
</svg>
