<?xml version="1.0" encoding="UTF-8" standalone="no"?>
<!DOCTYPE svg PUBLIC "-//W3C//DTD SVG 1.1//EN"
 "http://www.w3.org/Graphics/SVG/1.1/DTD/svg11.dtd">
<!-- Generated by graphviz version 2.43.0 (0)
 -->
<!-- Title: ChatCommandHandler::HandleDebugGetPlayerFlagsCommand Pages: 1 -->
<svg width="860pt" height="267pt"
 viewBox="0.00 0.00 860.00 267.00" xmlns="http://www.w3.org/2000/svg" xmlns:xlink="http://www.w3.org/1999/xlink">
<g id="graph0" class="graph" transform="scale(1 1) rotate(0) translate(4 263)">
<title>ChatCommandHandler::HandleDebugGetPlayerFlagsCommand</title>
<!-- Node1 -->
<g id="Node000001" class="node">
<title>Node1</title>
<g id="a_Node000001"><a xlink:title=" ">
<polygon fill="#999999" stroke="#666666" points="163,-135 0,-135 0,-94 163,-94 163,-135"/>
<text text-anchor="start" x="8" y="-123" font-family="Helvetica,sans-Serif" font-size="10.00">ChatCommandHandler</text>
<text text-anchor="start" x="8" y="-112" font-family="Helvetica,sans-Serif" font-size="10.00">::HandleDebugGetPlayerFlags</text>
<text text-anchor="middle" x="81.5" y="-101" font-family="Helvetica,sans-Serif" font-size="10.00">Command</text>
</a>
</g>
</g>
<!-- Node2 -->
<g id="Node000002" class="node">
<title>Node2</title>
<g id="a_Node000002"><a xlink:href="classChatCommandHandler.html#abb463a1e2b89d32f293c3c16f19c7d70" target="_top" xlink:title=" ">
<polygon fill="white" stroke="#666666" points="328.5,-153.5 200.5,-153.5 200.5,-123.5 328.5,-123.5 328.5,-153.5"/>
<text text-anchor="start" x="208.5" y="-141.5" font-family="Helvetica,sans-Serif" font-size="10.00">ChatCommandHandler</text>
<text text-anchor="middle" x="264.5" y="-130.5" font-family="Helvetica,sans-Serif" font-size="10.00">::GetSelectedPlayer</text>
</a>
</g>
</g>
<!-- Node1&#45;&gt;Node2 -->
<g id="edge1_Node000001_Node000002" class="edge">
<title>Node1&#45;&gt;Node2</title>
<g id="a_edge1_Node000001_Node000002"><a xlink:title=" ">
<path fill="none" stroke="#63b8ff" d="M163.21,-125.2C172.25,-126.4 181.42,-127.62 190.36,-128.8"/>
<polygon fill="#63b8ff" stroke="#63b8ff" points="189.96,-132.28 200.33,-130.12 190.88,-125.34 189.96,-132.28"/>
</a>
</g>
</g>
<!-- Node14 -->
<g id="Node000014" class="node">
<title>Node14</title>
<g id="a_Node000014"><a xlink:href="classChatCommandHandler.html#a562947bc81997bcf5225df5cf1fbcaa6" target="_top" xlink:title=" ">
<polygon fill="white" stroke="#666666" points="330,-105.5 199,-105.5 199,-75.5 330,-75.5 330,-105.5"/>
<text text-anchor="start" x="207" y="-93.5" font-family="Helvetica,sans-Serif" font-size="10.00">ChatCommandHandler</text>
<text text-anchor="middle" x="264.5" y="-82.5" font-family="Helvetica,sans-Serif" font-size="10.00">::greenSystemMessage</text>
</a>
</g>
</g>
<!-- Node1&#45;&gt;Node14 -->
<g id="edge13_Node000001_Node000014" class="edge">
<title>Node1&#45;&gt;Node14</title>
<g id="a_edge13_Node000001_Node000014"><a xlink:title=" ">
<path fill="none" stroke="#63b8ff" d="M163.21,-103.8C171.72,-102.67 180.35,-101.53 188.79,-100.41"/>
<polygon fill="#63b8ff" stroke="#63b8ff" points="189.51,-103.84 198.97,-99.06 188.59,-96.9 189.51,-103.84"/>
</a>
</g>
</g>
<!-- Node3 -->
<g id="Node000003" class="node">
<title>Node3</title>
<g id="a_Node000003"><a xlink:href="classWoWGuid.html#a8c5db0d6b72e4cc9e850a410f0030b92" target="_top" xlink:title=" ">
<polygon fill="white" stroke="#666666" points="503.5,-259 395.5,-259 395.5,-240 503.5,-240 503.5,-259"/>
<text text-anchor="middle" x="449.5" y="-247" font-family="Helvetica,sans-Serif" font-size="10.00">WoWGuid::getHigh</text>
</a>
</g>
</g>
<!-- Node2&#45;&gt;Node3 -->
<g id="edge2_Node000002_Node000003" class="edge">
<title>Node2&#45;&gt;Node3</title>
<g id="a_edge2_Node000002_Node000003"><a xlink:title=" ">
<path fill="none" stroke="#63b8ff" d="M277.36,-153.69C294.55,-174.61 328.48,-211.93 366,-231.5 372.03,-234.64 378.57,-237.24 385.26,-239.38"/>
<polygon fill="#63b8ff" stroke="#63b8ff" points="384.53,-242.81 395.11,-242.21 386.46,-236.08 384.53,-242.81"/>
</a>
</g>
</g>
<!-- Node4 -->
<g id="Node000004" class="node">
<title>Node4</title>
<g id="a_Node000004"><a xlink:href="classWorldSession.html#a014d7fdeb157410b75dfd4bd0fe0efc2" target="_top" xlink:title=" ">
<polygon fill="white" stroke="#666666" points="517.5,-222 381.5,-222 381.5,-203 517.5,-203 517.5,-222"/>
<text text-anchor="middle" x="449.5" y="-210" font-family="Helvetica,sans-Serif" font-size="10.00">WorldSession::GetPlayer</text>
</a>
</g>
</g>
<!-- Node2&#45;&gt;Node4 -->
<g id="edge3_Node000002_Node000004" class="edge">
<title>Node2&#45;&gt;Node4</title>
<g id="a_edge3_Node000002_Node000004"><a xlink:title=" ">
<path fill="none" stroke="#63b8ff" d="M288.11,-153.65C307.89,-166.26 337.79,-183.83 366,-194.5 371.76,-196.68 377.85,-198.63 384.01,-200.36"/>
<polygon fill="#63b8ff" stroke="#63b8ff" points="383.14,-203.75 393.7,-202.91 384.92,-196.98 383.14,-203.75"/>
</a>
</g>
</g>
<!-- Node5 -->
<g id="Node000005" class="node">
<title>Node5</title>
<g id="a_Node000005"><a xlink:href="classWorldMap.html#aaef96289a191fb47e1312a8938b835af" target="_top" xlink:title=" ">
<polygon fill="white" stroke="#666666" points="508.5,-185 390.5,-185 390.5,-166 508.5,-166 508.5,-185"/>
<text text-anchor="middle" x="449.5" y="-173" font-family="Helvetica,sans-Serif" font-size="10.00">WorldMap::getPlayer</text>
</a>
</g>
</g>
<!-- Node2&#45;&gt;Node5 -->
<g id="edge4_Node000002_Node000005" class="edge">
<title>Node2&#45;&gt;Node5</title>
<g id="a_edge4_Node000002_Node000005"><a xlink:title=" ">
<path fill="none" stroke="#63b8ff" d="M328.73,-151.29C349.15,-155.41 371.65,-159.96 391.58,-163.99"/>
<polygon fill="#63b8ff" stroke="#63b8ff" points="390.94,-167.43 401.44,-165.98 392.33,-160.57 390.94,-167.43"/>
</a>
</g>
</g>
<!-- Node6 -->
<g id="Node000006" class="node">
<title>Node6</title>
<g id="a_Node000006"><a xlink:href="classUnit.html#a50e5b30e1c170be2c8415a84d0e78cc8" target="_top" xlink:title=" ">
<polygon fill="white" stroke="#666666" points="505,-148 394,-148 394,-129 505,-129 505,-148"/>
<text text-anchor="middle" x="449.5" y="-136" font-family="Helvetica,sans-Serif" font-size="10.00">Unit::getTargetGuid</text>
</a>
</g>
</g>
<!-- Node2&#45;&gt;Node6 -->
<g id="edge5_Node000002_Node000006" class="edge">
<title>Node2&#45;&gt;Node6</title>
<g id="a_edge5_Node000002_Node000006"><a xlink:title=" ">
<path fill="none" stroke="#63b8ff" d="M328.73,-138.5C346.44,-138.5 365.71,-138.5 383.51,-138.5"/>
<polygon fill="#63b8ff" stroke="#63b8ff" points="383.8,-142 393.8,-138.5 383.8,-135 383.8,-142"/>
</a>
</g>
</g>
<!-- Node8 -->
<g id="Node000008" class="node">
<title>Node8</title>
<g id="a_Node000008"><a xlink:href="classObject.html#a967af054c54b6d9846637ce8718efd75" target="_top" xlink:title=" ">
<polygon fill="white" stroke="#666666" points="509,-111 390,-111 390,-92 509,-92 509,-111"/>
<text text-anchor="middle" x="449.5" y="-99" font-family="Helvetica,sans-Serif" font-size="10.00">Object::getWorldMap</text>
</a>
</g>
</g>
<!-- Node2&#45;&gt;Node8 -->
<g id="edge7_Node000002_Node000008" class="edge">
<title>Node2&#45;&gt;Node8</title>
<g id="a_edge7_Node000002_Node000008"><a xlink:title=" ">
<path fill="none" stroke="#63b8ff" d="M328.73,-125.71C349.15,-121.59 371.65,-117.04 391.58,-113.01"/>
<polygon fill="#63b8ff" stroke="#63b8ff" points="392.33,-116.43 401.44,-111.02 390.94,-109.57 392.33,-116.43"/>
</a>
</g>
</g>
<!-- Node9 -->
<g id="Node000009" class="node">
<title>Node9</title>
<g id="a_Node000009"><a xlink:href="classWoWGuid.html#af262e032110b2936fde7b85a73a21d1b" target="_top" xlink:title=" ">
<polygon fill="white" stroke="#666666" points="492.5,-74 406.5,-74 406.5,-55 492.5,-55 492.5,-74"/>
<text text-anchor="middle" x="449.5" y="-62" font-family="Helvetica,sans-Serif" font-size="10.00">WoWGuid::Init</text>
</a>
</g>
</g>
<!-- Node2&#45;&gt;Node9 -->
<g id="edge8_Node000002_Node000009" class="edge">
<title>Node2&#45;&gt;Node9</title>
<g id="a_edge8_Node000002_Node000009"><a xlink:title=" ">
<path fill="none" stroke="#63b8ff" d="M312.22,-123.38C318.36,-120.75 324.44,-117.78 330,-114.5 348.18,-103.76 347.16,-93.04 366,-83.5 375.44,-78.72 386.1,-75.13 396.54,-72.43"/>
<polygon fill="#63b8ff" stroke="#63b8ff" points="397.5,-75.8 406.43,-70.11 395.9,-68.98 397.5,-75.8"/>
</a>
</g>
</g>
<!-- Node10 -->
<g id="Node000010" class="node">
<title>Node10</title>
<g id="a_Node000010"><a xlink:href="classWorldSession.html#ab014961bae815ec29c0d062da893ce68" target="_top" xlink:title=" ">
<polygon fill="white" stroke="#666666" points="533,-37 366,-37 366,-18 533,-18 533,-37"/>
<text text-anchor="middle" x="449.5" y="-25" font-family="Helvetica,sans-Serif" font-size="10.00">WorldSession::systemMessage</text>
</a>
</g>
</g>
<!-- Node2&#45;&gt;Node10 -->
<g id="edge9_Node000002_Node000010" class="edge">
<title>Node2&#45;&gt;Node10</title>
<g id="a_edge9_Node000002_Node000010"><a xlink:title=" ">
<path fill="none" stroke="#63b8ff" d="M317.13,-123.34C321.75,-120.81 326.14,-117.89 330,-114.5 355.71,-91.95 338.88,-67.33 366,-46.5 368.35,-44.7 370.84,-43.06 373.44,-41.57"/>
<polygon fill="#63b8ff" stroke="#63b8ff" points="375.17,-44.62 382.61,-37.07 372.09,-38.33 375.17,-44.62"/>
</a>
</g>
</g>
<!-- Node7 -->
<g id="Node000007" class="node">
<title>Node7</title>
<g id="a_Node000007"><a xlink:href="classUnit.html#a2b80af47340ac01ca2031723f37e839a" target="_top" xlink:title=" ">
<polygon fill="white" stroke="#666666" points="674,-148 589,-148 589,-129 674,-129 674,-148"/>
<text text-anchor="middle" x="631.5" y="-136" font-family="Helvetica,sans-Serif" font-size="10.00">Unit::unitData</text>
</a>
</g>
</g>
<!-- Node6&#45;&gt;Node7 -->
<g id="edge6_Node000006_Node000007" class="edge">
<title>Node6&#45;&gt;Node7</title>
<g id="a_edge6_Node000006_Node000007"><a xlink:title=" ">
<path fill="none" stroke="#63b8ff" d="M505.48,-138.5C528.79,-138.5 555.82,-138.5 578.76,-138.5"/>
<polygon fill="#63b8ff" stroke="#63b8ff" points="578.99,-142 588.99,-138.5 578.99,-135 578.99,-142"/>
</a>
</g>
</g>
<!-- Node11 -->
<g id="Node000011" class="node">
<title>Node11</title>
<g id="a_Node000011"><a xlink:href="color_8h.html#af4a3b7f252e457605de5440249a15699" target="_top" xlink:title=" ">
<polygon fill="white" stroke="#666666" points="656.5,-56 606.5,-56 606.5,-37 656.5,-37 656.5,-56"/>
<text text-anchor="middle" x="631.5" y="-44" font-family="Helvetica,sans-Serif" font-size="10.00">format</text>
</a>
</g>
</g>
<!-- Node10&#45;&gt;Node11 -->
<g id="edge10_Node000010_Node000011" class="edge">
<title>Node10&#45;&gt;Node11</title>
<g id="a_edge10_Node000010_Node000011"><a xlink:title=" ">
<path fill="none" stroke="#63b8ff" d="M533.12,-36.22C555.37,-38.57 578.23,-40.98 596.2,-42.88"/>
<polygon fill="#63b8ff" stroke="#63b8ff" points="595.87,-46.36 606.18,-43.93 596.6,-39.4 595.87,-46.36"/>
</a>
</g>
</g>
<!-- Node13 -->
<g id="Node000013" class="node">
<title>Node13</title>
<g id="a_Node000013"><a xlink:href="namespaceAscEmu.html#af79227cb68117f159a0cf3232904123a" target="_top" xlink:title=" ">
<polygon fill="white" stroke="#666666" points="694,-19 569,-19 569,0 694,0 694,-19"/>
<text text-anchor="middle" x="631.5" y="-7" font-family="Helvetica,sans-Serif" font-size="10.00">AscEmu::StringFormat</text>
</a>
</g>
</g>
<!-- Node10&#45;&gt;Node13 -->
<g id="edge12_Node000010_Node000013" class="edge">
<title>Node10&#45;&gt;Node13</title>
<g id="a_edge12_Node000010_Node000013"><a xlink:title=" ">
<path fill="none" stroke="#63b8ff" d="M533.12,-19.24C541.67,-18.38 550.3,-17.52 558.71,-16.68"/>
<polygon fill="#63b8ff" stroke="#63b8ff" points="559.23,-20.14 568.83,-15.67 558.53,-13.18 559.23,-20.14"/>
</a>
</g>
</g>
<!-- Node12 -->
<g id="Node000012" class="node">
<title>Node12</title>
<g id="a_Node000012"><a xlink:href="namespacedetail.html#a4662b86e5cfc5c32eb3efea5a84d3040" target="_top" xlink:title=" ">
<polygon fill="white" stroke="#666666" points="852,-56 730,-56 730,-37 852,-37 852,-56"/>
<text text-anchor="middle" x="791" y="-44" font-family="Helvetica,sans-Serif" font-size="10.00">detail::to_string_view</text>
</a>
</g>
</g>
<!-- Node11&#45;&gt;Node12 -->
<g id="edge11_Node000011_Node000012" class="edge">
<title>Node11&#45;&gt;Node12</title>
<g id="a_edge11_Node000011_Node000012"><a xlink:title=" ">
<path fill="none" stroke="#63b8ff" d="M656.76,-46.5C673.68,-46.5 697.16,-46.5 719.71,-46.5"/>
<polygon fill="#63b8ff" stroke="#63b8ff" points="719.98,-50 729.98,-46.5 719.98,-43 719.98,-50"/>
</a>
</g>
</g>
</g>
</svg>
