<?xml version="1.0" encoding="UTF-8" standalone="no"?>
<!DOCTYPE svg PUBLIC "-//W3C//DTD SVG 1.1//EN"
 "http://www.w3.org/Graphics/SVG/1.1/DTD/svg11.dtd">
<!-- Generated by graphviz version 2.43.0 (0)
 -->
<!-- Title: UpdateManager::pushUpdateData Pages: 1 -->
<!--zoomable 728 -->

<svg id="main" version="1.1" xmlns="http://www.w3.org/2000/svg" xmlns:xlink="http://www.w3.org/1999/xlink" xml:space="preserve" onload="init(evt)">
<style type="text/css"><![CDATA[
.node, .edge {opacity: 0.7;}
.node.selected, .edge.selected {opacity: 1;}
.edge:hover path { stroke: red; }
.edge:hover polygon { stroke: red; fill: red; }
]]></style>

<defs>
  <circle id="rim" cx="0" cy="0" r="7"/>
  <circle id="rim2" cx="0" cy="0" r="3.5"/>
  <g id="zoomPlus">
    <use xlink:href="#rim" fill="#404040"><set attributeName="fill" to="#808080" begin="zoomplus.mouseover" end="zoomplus.mouseout"/></use>
    <path d="M-4,0h8M0,-4v8" fill="none" stroke="white" stroke-width="1.5" pointer-events="none"/>
  </g>
  <g id="zoomMin">
    <use xlink:href="#rim" fill="#404040"><set attributeName="fill" to="#808080" begin="zoomminus.mouseover" end="zoomminus.mouseout"/></use>
    <path d="M-4,0h8" fill="none" stroke="white" stroke-width="1.5" pointer-events="none"/>
  </g>
  <g id="arrowUp" transform="translate(30 24)">
    <use xlink:href="#rim"/>
    <path pointer-events="none" fill="none" stroke="white" stroke-width="1.5" d="M0,-3.0v7 M-2.5,-0.5L0,-3.0L2.5,-0.5"/>
  </g>
  <g id="arrowRight" transform="rotate(90) translate(36 -43)">
    <use xlink:href="#rim"/>
    <path pointer-events="none" fill="none" stroke="white" stroke-width="1.5" d="M0,-3.0v7 M-2.5,-0.5L0,-3.0L2.5,-0.5"/>
  </g>
  <g id="arrowDown" transform="rotate(180) translate(-30 -48)">
    <use xlink:href="#rim"/>
    <path pointer-events="none" fill="none" stroke="white" stroke-width="1.5" d="M0,-3.0v7 M-2.5,-0.5L0,-3.0L2.5,-0.5"/>
  </g>
  <g id="arrowLeft" transform="rotate(270) translate(-36 17)">
    <use xlink:href="#rim"/>
    <path pointer-events="none" fill="none" stroke="white" stroke-width="1.5" d="M0,-3.0v7 M-2.5,-0.5L0,-3.0L2.5,-0.5"/>
  </g>
  <g id="resetDef">
    <use xlink:href="#rim2" fill="#404040"><set attributeName="fill" to="#808080" begin="reset.mouseover" end="reset.mouseout"/></use>
  </g>
</defs>
<script type="application/ecmascript">
var viewWidth = 1639;
var viewHeight = 728;
var sectionId = 'dynsection-19';
</script>
<script type="application/ecmascript" xlink:href="svg.min.js"/>
<svg id="graph" class="graph">
<g id="viewport">
<title>UpdateManager::pushUpdateData</title>
<!-- Node1 -->
<g id="Node000001" class="node">
<title>Node1</title>
<g id="a_Node000001"><a xlink:title=" ">
<polygon fill="#999999" stroke="#666666" points="182,-660 0,-660 0,-641 182,-641 182,-660"/>
<text text-anchor="middle" x="91" y="-648" font-family="Helvetica,sans-Serif" font-size="10.00">UpdateManager::pushUpdateData</text>
</a>
</g>
</g>
<!-- Node2 -->
<g id="Node000002" class="node">
<title>Node2</title>
<g id="a_Node000002"><a xlink:href="classByteBuffer.html#a5811e6da355e8c3d0f45997a557a666b" target="_top" xlink:title=" ">
<polygon fill="white" stroke="#666666" points="359.5,-720 249.5,-720 249.5,-701 359.5,-701 359.5,-720"/>
<text text-anchor="middle" x="304.5" y="-708" font-family="Helvetica,sans-Serif" font-size="10.00">ByteBuffer::append</text>
</a>
</g>
</g>
<!-- Node1&#45;&gt;Node2 -->
<g id="edge1_Node000001_Node000002" class="edge">
<title>Node1&#45;&gt;Node2</title>
<g id="a_edge1_Node000001_Node000002"><a xlink:title=" ">
<path fill="none" stroke="#63b8ff" d="M125.15,-660.02C150.55,-667.3 186.48,-677.57 218,-686.5 231.48,-690.32 246.15,-694.45 259.48,-698.19"/>
<polygon fill="#63b8ff" stroke="#63b8ff" points="258.8,-701.63 269.37,-700.96 260.69,-694.89 258.8,-701.63"/>
</a>
</g>
</g>
<!-- Node3 -->
<g id="Node000003" class="node">
<title>Node3</title>
<g id="a_Node000003"><a xlink:href="classUpdateManager.html#ab759168bf438075e225a1ae2f497f066" target="_top" xlink:title=" ">
<polygon fill="white" stroke="#666666" points="385,-644.5 224,-644.5 224,-614.5 385,-614.5 385,-644.5"/>
<text text-anchor="start" x="232" y="-632.5" font-family="Helvetica,sans-Serif" font-size="10.00">UpdateManager::internalPush</text>
<text text-anchor="middle" x="304.5" y="-621.5" font-family="Helvetica,sans-Serif" font-size="10.00">UpdatesIfBufferIsFull</text>
</a>
</g>
</g>
<!-- Node1&#45;&gt;Node3 -->
<g id="edge2_Node000001_Node000003" class="edge">
<title>Node1&#45;&gt;Node3</title>
<g id="a_edge2_Node000001_Node000003"><a xlink:title=" ">
<path fill="none" stroke="#63b8ff" d="M182,-641.56C192.57,-640.51 203.35,-639.44 213.91,-638.4"/>
<polygon fill="#63b8ff" stroke="#63b8ff" points="214.34,-641.87 223.95,-637.4 213.65,-634.9 214.34,-641.87"/>
</a>
</g>
</g>
<!-- Node5 -->
<g id="Node000005" class="node">
<title>Node5</title>
<g id="a_Node000005"><a xlink:href="classByteBuffer.html#ac06a598447807d32f6594a97a32bce94" target="_top" xlink:title=" ">
<polygon fill="white" stroke="#666666" points="1358,-558 1264,-558 1264,-539 1358,-539 1358,-558"/>
<text text-anchor="middle" x="1311" y="-546" font-family="Helvetica,sans-Serif" font-size="10.00">ByteBuffer::size</text>
</a>
</g>
</g>
<!-- Node1&#45;&gt;Node5 -->
<g id="edge56_Node000001_Node000005" class="edge">
<title>Node1&#45;&gt;Node5</title>
<g id="a_edge56_Node000001_Node000005"><a xlink:title=" ">
<path fill="none" stroke="#63b8ff" d="M182.07,-657.92C267.46,-664.3 399.37,-672.5 514,-672.5 514,-672.5 514,-672.5 944.5,-672.5 1079.38,-672.5 1228.13,-595.83 1285.54,-563.07"/>
<polygon fill="#63b8ff" stroke="#63b8ff" points="1287.36,-566.06 1294.26,-558.02 1283.85,-560 1287.36,-566.06"/>
</a>
</g>
</g>
<!-- Node41 -->
<g id="Node000041" class="node">
<title>Node41</title>
<g id="a_Node000041"><a xlink:href="classUpdateManager.html#a595fcddb5fbffd30f7b085c25d12b3d3" target="_top" xlink:title=" ">
<polygon fill="white" stroke="#666666" points="391,-482.5 218,-482.5 218,-452.5 391,-452.5 391,-482.5"/>
<text text-anchor="start" x="226" y="-470.5" font-family="Helvetica,sans-Serif" font-size="10.00">UpdateManager::internalUpdate</text>
<text text-anchor="middle" x="304.5" y="-459.5" font-family="Helvetica,sans-Serif" font-size="10.00">MapMgr</text>
</a>
</g>
</g>
<!-- Node1&#45;&gt;Node41 -->
<g id="edge53_Node000001_Node000041" class="edge">
<title>Node1&#45;&gt;Node41</title>
<g id="a_edge53_Node000001_Node000041"><a xlink:title=" ">
<path fill="none" stroke="#63b8ff" d="M103.07,-640.92C135.71,-612.68 232.11,-529.27 278.28,-489.32"/>
<polygon fill="#63b8ff" stroke="#63b8ff" points="280.76,-491.8 286.03,-482.61 276.18,-486.51 280.76,-491.8"/>
</a>
</g>
</g>
<!-- Node4 -->
<g id="Node000004" class="node">
<title>Node4</title>
<g id="a_Node000004"><a xlink:href="classUpdateManager.html#aeabae63c1170b575090d845b42c7ef0c" target="_top" xlink:title=" ">
<polygon fill="white" stroke="#666666" points="801,-644.5 656,-644.5 656,-614.5 801,-614.5 801,-644.5"/>
<text text-anchor="start" x="664" y="-632.5" font-family="Helvetica,sans-Serif" font-size="10.00">UpdateManager::calculate</text>
<text text-anchor="middle" x="728.5" y="-621.5" font-family="Helvetica,sans-Serif" font-size="10.00">BufferSize</text>
</a>
</g>
</g>
<!-- Node3&#45;&gt;Node4 -->
<g id="edge3_Node000003_Node000004" class="edge">
<title>Node3&#45;&gt;Node4</title>
<g id="a_edge3_Node000003_Node000004"><a xlink:title=" ">
<path fill="none" stroke="#63b8ff" d="M385.37,-629.5C459.77,-629.5 570.2,-629.5 645.33,-629.5"/>
<polygon fill="#63b8ff" stroke="#63b8ff" points="645.69,-633 655.69,-629.5 645.69,-626 645.69,-633"/>
</a>
</g>
</g>
<!-- Node6 -->
<g id="Node000006" class="node">
<title>Node6</title>
<g id="a_Node000006"><a xlink:href="classUpdateManager.html#aecef5fff0183fd74ca24d7f1084dddd8" target="_top" xlink:title=" ">
<polygon fill="white" stroke="#666666" points="603,-525.5 427,-525.5 427,-495.5 603,-495.5 603,-525.5"/>
<text text-anchor="start" x="435" y="-513.5" font-family="Helvetica,sans-Serif" font-size="10.00">UpdateManager::internalProcess</text>
<text text-anchor="middle" x="515" y="-502.5" font-family="Helvetica,sans-Serif" font-size="10.00">PendingUpdates</text>
</a>
</g>
</g>
<!-- Node3&#45;&gt;Node6 -->
<g id="edge5_Node000003_Node000006" class="edge">
<title>Node3&#45;&gt;Node6</title>
<g id="a_edge5_Node000003_Node000006"><a xlink:title=" ">
<path fill="none" stroke="#63b8ff" d="M331.91,-614.43C369.17,-593.16 437.26,-554.3 478.79,-530.6"/>
<polygon fill="#63b8ff" stroke="#63b8ff" points="480.53,-533.63 487.48,-525.64 477.06,-527.55 480.53,-533.63"/>
</a>
</g>
</g>
<!-- Node4&#45;&gt;Node5 -->
<g id="edge4_Node000004_Node000005" class="edge">
<title>Node4&#45;&gt;Node5</title>
<g id="a_edge4_Node000004_Node000005"><a xlink:title=" ">
<path fill="none" stroke="#63b8ff" d="M801.26,-619.49C918.25,-603.16 1147.64,-571.15 1253.73,-556.35"/>
<polygon fill="#63b8ff" stroke="#63b8ff" points="1254.48,-559.78 1263.9,-554.93 1253.52,-552.85 1254.48,-559.78"/>
</a>
</g>
</g>
<!-- Node6&#45;&gt;Node4 -->
<g id="edge6_Node000006_Node000004" class="edge">
<title>Node6&#45;&gt;Node4</title>
<g id="a_edge6_Node000006_Node000004"><a xlink:title=" ">
<path fill="none" stroke="#63b8ff" d="M531.76,-525.75C553.94,-546.43 596.46,-583.21 639,-604.5 643.61,-606.81 648.47,-608.93 653.43,-610.88"/>
<polygon fill="#63b8ff" stroke="#63b8ff" points="652.49,-614.26 663.08,-614.41 654.9,-607.69 652.49,-614.26"/>
</a>
</g>
</g>
<!-- Node6&#45;&gt;Node5 -->
<g id="edge52_Node000006_Node000005" class="edge">
<title>Node6&#45;&gt;Node5</title>
<g id="a_edge52_Node000006_Node000005"><a xlink:title=" ">
<path fill="none" stroke="#63b8ff" d="M603.27,-521.28C615.26,-522.51 627.43,-523.64 639,-524.5 866.65,-541.5 1138.68,-546.54 1253.96,-547.96"/>
<polygon fill="#63b8ff" stroke="#63b8ff" points="1253.93,-551.46 1263.97,-548.08 1254.01,-544.46 1253.93,-551.46"/>
</a>
</g>
</g>
<!-- Node7 -->
<g id="Node000007" class="node">
<title>Node7</title>
<g id="a_Node000007"><a xlink:href="classByteBuffer.html#ab9fbbcf0abe4049e2016c1262795c97e" target="_top" xlink:title=" ">
<polygon fill="white" stroke="#666666" points="777.5,-596 679.5,-596 679.5,-577 777.5,-577 777.5,-596"/>
<text text-anchor="middle" x="728.5" y="-584" font-family="Helvetica,sans-Serif" font-size="10.00">ByteBuffer::clear</text>
</a>
</g>
</g>
<!-- Node6&#45;&gt;Node7 -->
<g id="edge7_Node000006_Node000007" class="edge">
<title>Node6&#45;&gt;Node7</title>
<g id="a_edge7_Node000006_Node000007"><a xlink:title=" ">
<path fill="none" stroke="#63b8ff" d="M548.16,-525.51C572.71,-536.62 607.55,-551.64 639,-562.5 651.47,-566.8 665.13,-570.84 677.92,-574.32"/>
<polygon fill="#63b8ff" stroke="#63b8ff" points="677.38,-577.8 687.94,-576.99 679.18,-571.04 677.38,-577.8"/>
</a>
</g>
</g>
<!-- Node8 -->
<g id="Node000008" class="node">
<title>Node8</title>
<g id="a_Node000008"><a xlink:href="classPlayer.html#a4d70bcb450d6e86232d25b3970fc4d21" target="_top" xlink:title=" ">
<polygon fill="white" stroke="#666666" points="818,-320.5 639,-320.5 639,-290.5 818,-290.5 818,-320.5"/>
<text text-anchor="start" x="647" y="-308.5" font-family="Helvetica,sans-Serif" font-size="10.00">Player::compressAndSendUpdate</text>
<text text-anchor="middle" x="728.5" y="-297.5" font-family="Helvetica,sans-Serif" font-size="10.00">Buffer</text>
</a>
</g>
</g>
<!-- Node6&#45;&gt;Node8 -->
<g id="edge8_Node000006_Node000008" class="edge">
<title>Node6&#45;&gt;Node8</title>
<g id="a_edge8_Node000006_Node000008"><a xlink:title=" ">
<path fill="none" stroke="#63b8ff" d="M590.48,-495.42C595.06,-492.64 599.31,-489.36 603,-485.5 650.66,-435.61 592.27,-385.26 639,-334.5 641.96,-331.29 645.27,-328.43 648.84,-325.89"/>
<polygon fill="#63b8ff" stroke="#63b8ff" points="650.9,-328.74 657.58,-320.52 647.23,-322.78 650.9,-328.74"/>
</a>
</g>
</g>
<!-- Node30 -->
<g id="Node000030" class="node">
<title>Node30</title>
<g id="a_Node000030"><a xlink:href="classWorldSession.html#a04ff79d4ef0fe6628465984f414b59a1" target="_top" xlink:title=" ">
<polygon fill="white" stroke="#666666" points="1012,-358 875,-358 875,-339 1012,-339 1012,-358"/>
<text text-anchor="middle" x="943.5" y="-346" font-family="Helvetica,sans-Serif" font-size="10.00">WorldSession::OutPacket</text>
</a>
</g>
</g>
<!-- Node6&#45;&gt;Node30 -->
<g id="edge49_Node000006_Node000030" class="edge">
<title>Node6&#45;&gt;Node30</title>
<g id="a_edge49_Node000006_Node000030"><a xlink:title=" ">
<path fill="none" stroke="#63b8ff" d="M589.8,-495.4C594.6,-492.63 599.08,-489.36 603,-485.5 642.09,-447.05 595.97,-401.49 639,-367.5 672.7,-340.88 786.15,-340.42 864.37,-343.62"/>
<polygon fill="#63b8ff" stroke="#63b8ff" points="864.54,-347.13 874.68,-344.07 864.84,-340.14 864.54,-347.13"/>
</a>
</g>
</g>
<!-- Node33 -->
<g id="Node000033" class="node">
<title>Node33</title>
<g id="a_Node000033"><a xlink:href="classObject.html#a83139f119f64cd17f1dfa756e8aa5d0e" target="_top" xlink:title=" ">
<polygon fill="white" stroke="#666666" points="779,-482 678,-482 678,-463 779,-463 779,-482"/>
<text text-anchor="middle" x="728.5" y="-470" font-family="Helvetica,sans-Serif" font-size="10.00">Object::GetMapId</text>
</a>
</g>
</g>
<!-- Node6&#45;&gt;Node33 -->
<g id="edge38_Node000006_Node000033" class="edge">
<title>Node6&#45;&gt;Node33</title>
<g id="a_edge38_Node000006_Node000033"><a xlink:title=" ">
<path fill="none" stroke="#63b8ff" d="M599.59,-495.48C622.31,-491.4 646.47,-487.06 667.59,-483.26"/>
<polygon fill="#63b8ff" stroke="#63b8ff" points="668.48,-486.66 677.7,-481.45 667.24,-479.77 668.48,-486.66"/>
</a>
</g>
</g>
<!-- Node34 -->
<g id="Node000034" class="node">
<title>Node34</title>
<g id="a_Node000034"><a xlink:href="classPlayer.html#aee195158e07a0138b257f8d1ede0cc6b" target="_top" xlink:title=" ">
<polygon fill="white" stroke="#666666" points="997,-443 890,-443 890,-424 997,-424 997,-443"/>
<text text-anchor="middle" x="943.5" y="-431" font-family="Helvetica,sans-Serif" font-size="10.00">Player::getSession</text>
</a>
</g>
</g>
<!-- Node6&#45;&gt;Node34 -->
<g id="edge39_Node000006_Node000034" class="edge">
<title>Node6&#45;&gt;Node34</title>
<g id="a_edge39_Node000006_Node000034"><a xlink:title=" ">
<path fill="none" stroke="#63b8ff" d="M580.97,-495.35C588.6,-492.55 596.12,-489.29 603,-485.5 621.75,-475.18 619.25,-461.76 639,-453.5 717.1,-420.83 816.41,-421.23 879.74,-426.1"/>
<polygon fill="#63b8ff" stroke="#63b8ff" points="879.71,-429.61 889.97,-426.95 880.29,-422.64 879.71,-429.61"/>
</a>
</g>
</g>
<!-- Node35 -->
<g id="Node000035" class="node">
<title>Node35</title>
<g id="a_Node000035"><a xlink:href="classUpdateManager.html#aa4e65c72059d55b2460d0c9652c8689a" target="_top" xlink:title=" ">
<polygon fill="white" stroke="#666666" points="809.5,-406.5 647.5,-406.5 647.5,-376.5 809.5,-376.5 809.5,-406.5"/>
<text text-anchor="start" x="655.5" y="-394.5" font-family="Helvetica,sans-Serif" font-size="10.00">UpdateManager::internalSend</text>
<text text-anchor="middle" x="728.5" y="-383.5" font-family="Helvetica,sans-Serif" font-size="10.00">DelayedPackets</text>
</a>
</g>
</g>
<!-- Node6&#45;&gt;Node35 -->
<g id="edge40_Node000006_Node000035" class="edge">
<title>Node6&#45;&gt;Node35</title>
<g id="a_edge40_Node000006_Node000035"><a xlink:title=" ">
<path fill="none" stroke="#63b8ff" d="M587.22,-495.29C592.85,-492.55 598.21,-489.32 603,-485.5 628.84,-464.93 613.55,-441.54 639,-420.5 643.28,-416.96 648.01,-413.85 652.99,-411.11"/>
<polygon fill="#63b8ff" stroke="#63b8ff" points="654.75,-414.14 662.17,-406.58 651.66,-407.86 654.75,-414.14"/>
</a>
</g>
</g>
<!-- Node40 -->
<g id="Node000040" class="node">
<title>Node40</title>
<g id="a_Node000040"><a xlink:href="classUpdateManager.html#aae2b44de1c95eccada8f406ea3db38dc" target="_top" xlink:title=" ">
<polygon fill="white" stroke="#666666" points="1033,-520 854,-520 854,-501 1033,-501 1033,-520"/>
<text text-anchor="middle" x="943.5" y="-508" font-family="Helvetica,sans-Serif" font-size="10.00">UpdateManager::readyForUpdate</text>
</a>
</g>
</g>
<!-- Node6&#45;&gt;Node40 -->
<g id="edge50_Node000006_Node000040" class="edge">
<title>Node6&#45;&gt;Node40</title>
<g id="a_edge50_Node000006_Node000040"><a xlink:title=" ">
<path fill="none" stroke="#63b8ff" d="M603.08,-510.5C672.89,-510.5 770.86,-510.5 843.61,-510.5"/>
<polygon fill="#63b8ff" stroke="#63b8ff" points="843.71,-514 853.71,-510.5 843.71,-507 843.71,-514"/>
</a>
</g>
</g>
<!-- Node9 -->
<g id="Node000009" class="node">
<title>Node9</title>
<g id="a_Node000009"><a xlink:href="StormLib_2src_2zlib_2deflate_8c.html#aedba3a94d6e827d61b660443ae5b9f09" target="_top" xlink:title=" ">
<polygon fill="white" stroke="#666666" points="968.5,-208 918.5,-208 918.5,-189 968.5,-189 968.5,-208"/>
<text text-anchor="middle" x="943.5" y="-196" font-family="Helvetica,sans-Serif" font-size="10.00">deflate</text>
</a>
</g>
</g>
<!-- Node8&#45;&gt;Node9 -->
<g id="edge9_Node000008_Node000009" class="edge">
<title>Node8&#45;&gt;Node9</title>
<g id="a_edge9_Node000008_Node000009"><a xlink:title=" ">
<path fill="none" stroke="#63b8ff" d="M759.57,-290.4C800.76,-269.7 874.19,-232.81 914.35,-212.64"/>
<polygon fill="#63b8ff" stroke="#63b8ff" points="915.97,-215.74 923.34,-208.13 912.83,-209.49 915.97,-215.74"/>
</a>
</g>
</g>
<!-- Node29 -->
<g id="Node000029" class="node">
<title>Node29</title>
<g id="a_Node000029"><a xlink:href="StormLib_2src_2zlib_2deflate_8c.html#ada68769789b1d84de7e708d6e848a075" target="_top" xlink:title=" ">
<polygon fill="white" stroke="#666666" points="977.5,-315 909.5,-315 909.5,-296 977.5,-296 977.5,-315"/>
<text text-anchor="middle" x="943.5" y="-303" font-family="Helvetica,sans-Serif" font-size="10.00">deflateEnd</text>
</a>
</g>
</g>
<!-- Node8&#45;&gt;Node29 -->
<g id="edge34_Node000008_Node000029" class="edge">
<title>Node8&#45;&gt;Node29</title>
<g id="a_edge34_Node000008_Node000029"><a xlink:title=" ">
<path fill="none" stroke="#63b8ff" d="M818.29,-305.5C846.2,-305.5 875.79,-305.5 899.08,-305.5"/>
<polygon fill="#63b8ff" stroke="#63b8ff" points="899.31,-309 909.31,-305.5 899.31,-302 899.31,-309"/>
</a>
</g>
</g>
<!-- Node8&#45;&gt;Node30 -->
<g id="edge35_Node000008_Node000030" class="edge">
<title>Node8&#45;&gt;Node30</title>
<g id="a_edge35_Node000008_Node000030"><a xlink:title=" ">
<path fill="none" stroke="#63b8ff" d="M804,-320.54C830.67,-325.92 860.3,-331.91 885.29,-336.95"/>
<polygon fill="#63b8ff" stroke="#63b8ff" points="884.84,-340.43 895.33,-338.98 886.22,-333.57 884.84,-340.43"/>
</a>
</g>
</g>
<!-- Node10 -->
<g id="Node000010" class="node">
<title>Node10</title>
<g id="a_Node000010"><a xlink:href="StormLib_2src_2zlib_2trees_8c.html#abd2aff56f489aac6182c99eb739c41be" target="_top" xlink:title=" ">
<polygon fill="white" stroke="#666666" points="1167.5,-208 1108.5,-208 1108.5,-189 1167.5,-189 1167.5,-208"/>
<text text-anchor="middle" x="1138" y="-196" font-family="Helvetica,sans-Serif" font-size="10.00">_tr_align</text>
</a>
</g>
</g>
<!-- Node9&#45;&gt;Node10 -->
<g id="edge10_Node000009_Node000010" class="edge">
<title>Node9&#45;&gt;Node10</title>
<g id="a_edge10_Node000009_Node000010"><a xlink:title=" ">
<path fill="none" stroke="#63b8ff" d="M968.88,-198.5C1001.43,-198.5 1059.46,-198.5 1098.1,-198.5"/>
<polygon fill="#63b8ff" stroke="#63b8ff" points="1098.44,-202 1108.44,-198.5 1098.44,-195 1098.44,-202"/>
</a>
</g>
</g>
<!-- Node12 -->
<g id="Node000012" class="node">
<title>Node12</title>
<g id="a_Node000012"><a xlink:href="StormLib_2src_2zlib_2trees_8c.html#a65fd19df7fed60e83492819918defec2" target="_top" xlink:title=" ">
<polygon fill="white" stroke="#666666" points="1186.5,-245 1089.5,-245 1089.5,-226 1186.5,-226 1186.5,-245"/>
<text text-anchor="middle" x="1138" y="-233" font-family="Helvetica,sans-Serif" font-size="10.00">_tr_stored_block</text>
</a>
</g>
</g>
<!-- Node9&#45;&gt;Node12 -->
<g id="edge12_Node000009_Node000012" class="edge">
<title>Node9&#45;&gt;Node12</title>
<g id="a_edge12_Node000009_Node000012"><a xlink:title=" ">
<path fill="none" stroke="#63b8ff" d="M968.88,-203.19C996.44,-208.48 1042.26,-217.29 1079.11,-224.37"/>
<polygon fill="#63b8ff" stroke="#63b8ff" points="1078.76,-227.87 1089.24,-226.32 1080.08,-221 1078.76,-227.87"/>
</a>
</g>
</g>
<!-- Node15 -->
<g id="Node000015" class="node">
<title>Node15</title>
<g id="a_Node000015"><a xlink:href="StormLib_2src_2zlib_2adler32_8c.html#a86607743a4b76949b24cf5cc2f01a40d" target="_top" xlink:title=" ">
<polygon fill="white" stroke="#666666" points="1609.5,-133 1556.5,-133 1556.5,-114 1609.5,-114 1609.5,-133"/>
<text text-anchor="middle" x="1583" y="-121" font-family="Helvetica,sans-Serif" font-size="10.00">adler32</text>
</a>
</g>
</g>
<!-- Node9&#45;&gt;Node15 -->
<g id="edge15_Node000009_Node000015" class="edge">
<title>Node9&#45;&gt;Node15</title>
<g id="a_edge15_Node000009_Node000015"><a xlink:title=" ">
<path fill="none" stroke="#63b8ff" d="M968.77,-194.35C993.82,-190.17 1034.05,-183.75 1069,-179.5 1259.49,-156.35 1309.15,-168.46 1499,-140.5 1514.57,-138.21 1531.63,-134.86 1546.21,-131.74"/>
<polygon fill="#63b8ff" stroke="#63b8ff" points="1547.31,-135.08 1556.33,-129.53 1545.82,-128.24 1547.31,-135.08"/>
</a>
</g>
</g>
<!-- Node16 -->
<g id="Node000016" class="node">
<title>Node16</title>
<g id="a_Node000016"><a xlink:href="StormLib_2src_2zlib_2crc32_8c.html#af5a1c7b05170540ef3bb084e6cf903c4" target="_top" xlink:title=" ">
<polygon fill="white" stroke="#666666" points="1604.5,-273 1561.5,-273 1561.5,-254 1604.5,-254 1604.5,-273"/>
<text text-anchor="middle" x="1583" y="-261" font-family="Helvetica,sans-Serif" font-size="10.00">crc32</text>
</a>
</g>
</g>
<!-- Node9&#45;&gt;Node16 -->
<g id="edge16_Node000009_Node000016" class="edge">
<title>Node9&#45;&gt;Node16</title>
<g id="a_edge16_Node000009_Node000016"><a xlink:title=" ">
<path fill="none" stroke="#63b8ff" d="M960.69,-208.18C983.78,-221.37 1027.93,-244.41 1069,-253.5 1247.96,-293.09 1470.65,-275.5 1551.16,-267.07"/>
<polygon fill="#63b8ff" stroke="#63b8ff" points="1551.56,-270.55 1561.13,-266 1550.81,-263.59 1551.56,-270.55"/>
</a>
</g>
</g>
<!-- Node17 -->
<g id="Node000017" class="node">
<title>Node17</title>
<g id="a_Node000017"><a xlink:href="StormLib_2src_2zlib_2deflate_8c.html#a5d5671ede8ee51f34a50cfd5f498d2f0" target="_top" xlink:title=" ">
<polygon fill="white" stroke="#666666" points="1175,-132 1101,-132 1101,-113 1175,-113 1175,-132"/>
<text text-anchor="middle" x="1138" y="-120" font-family="Helvetica,sans-Serif" font-size="10.00">deflate_huff</text>
</a>
</g>
</g>
<!-- Node9&#45;&gt;Node17 -->
<g id="edge17_Node000009_Node000017" class="edge">
<title>Node9&#45;&gt;Node17</title>
<g id="a_edge17_Node000009_Node000017"><a xlink:title=" ">
<path fill="none" stroke="#63b8ff" d="M966.39,-188.92C991.14,-178.19 1032.71,-160.47 1069,-146.5 1078.73,-142.76 1089.32,-138.91 1099.18,-135.42"/>
<polygon fill="#63b8ff" stroke="#63b8ff" points="1100.47,-138.68 1108.75,-132.07 1098.15,-132.07 1100.47,-138.68"/>
</a>
</g>
</g>
<!-- Node25 -->
<g id="Node000025" class="node">
<title>Node25</title>
<g id="a_Node000025"><a xlink:href="StormLib_2src_2zlib_2deflate_8c.html#aea13a1600dd641f5584b39b840eecaae" target="_top" xlink:title=" ">
<polygon fill="white" stroke="#666666" points="1172,-95 1104,-95 1104,-76 1172,-76 1172,-95"/>
<text text-anchor="middle" x="1138" y="-83" font-family="Helvetica,sans-Serif" font-size="10.00">deflate_rle</text>
</a>
</g>
</g>
<!-- Node9&#45;&gt;Node25 -->
<g id="edge28_Node000009_Node000025" class="edge">
<title>Node9&#45;&gt;Node25</title>
<g id="a_edge28_Node000009_Node000025"><a xlink:title=" ">
<path fill="none" stroke="#63b8ff" d="M954.23,-188.86C974.07,-169.73 1021.38,-126.81 1069,-103.5 1076.8,-99.68 1085.52,-96.59 1094.05,-94.12"/>
<polygon fill="#63b8ff" stroke="#63b8ff" points="1095.13,-97.46 1103.9,-91.51 1093.33,-90.69 1095.13,-97.46"/>
</a>
</g>
</g>
<!-- Node27 -->
<g id="Node000027" class="node">
<title>Node27</title>
<g id="a_Node000027"><a xlink:href="StormLib_2src_2zlib_2deflate_8c.html#ae9a3263767d40c4f7443bf07c31e0119" target="_top" xlink:title=" ">
<polygon fill="white" stroke="#666666" points="1499,-19 1415,-19 1415,0 1499,0 1499,-19"/>
<text text-anchor="middle" x="1457" y="-7" font-family="Helvetica,sans-Serif" font-size="10.00">flush_pending</text>
</a>
</g>
</g>
<!-- Node9&#45;&gt;Node27 -->
<g id="edge31_Node000009_Node000027" class="edge">
<title>Node9&#45;&gt;Node27</title>
<g id="a_edge31_Node000009_Node000027"><a xlink:title=" ">
<path fill="none" stroke="#63b8ff" d="M950.31,-188.79C965.9,-163.69 1011.45,-96.49 1069,-66.5 1178.29,-9.54 1327.09,-4.69 1404.48,-6.7"/>
<polygon fill="#63b8ff" stroke="#63b8ff" points="1404.81,-10.21 1414.91,-7.02 1405.02,-3.21 1404.81,-10.21"/>
</a>
</g>
</g>
<!-- Node28 -->
<g id="Node000028" class="node">
<title>Node28</title>
<g id="a_Node000028"><a xlink:href="StormLib_2src_2zlib_2deflate_8c.html#a6db0a0a840addf113cb217c4aa1c0384" target="_top" xlink:title=" ">
<polygon fill="white" stroke="#666666" points="1178,-321 1098,-321 1098,-302 1178,-302 1178,-321"/>
<text text-anchor="middle" x="1138" y="-309" font-family="Helvetica,sans-Serif" font-size="10.00">putShortMSB</text>
</a>
</g>
</g>
<!-- Node9&#45;&gt;Node28 -->
<g id="edge33_Node000009_Node000028" class="edge">
<title>Node9&#45;&gt;Node28</title>
<g id="a_edge33_Node000009_Node000028"><a xlink:title=" ">
<path fill="none" stroke="#63b8ff" d="M955.8,-208.27C976.84,-226.06 1023.99,-264.07 1069,-287.5 1076.99,-291.66 1085.85,-295.37 1094.48,-298.57"/>
<polygon fill="#63b8ff" stroke="#63b8ff" points="1093.45,-301.92 1104.05,-301.95 1095.78,-295.32 1093.45,-301.92"/>
</a>
</g>
</g>
<!-- Node11 -->
<g id="Node000011" class="node">
<title>Node11</title>
<g id="a_Node000011"><a xlink:href="StormLib_2src_2zlib_2trees_8c.html#ab3b46873b1a7611ee2ca275cfd1c8f79" target="_top" xlink:title=" ">
<polygon fill="white" stroke="#666666" points="1338,-208 1284,-208 1284,-189 1338,-189 1338,-208"/>
<text text-anchor="middle" x="1311" y="-196" font-family="Helvetica,sans-Serif" font-size="10.00">bi_flush</text>
</a>
</g>
</g>
<!-- Node10&#45;&gt;Node11 -->
<g id="edge11_Node000010_Node000011" class="edge">
<title>Node10&#45;&gt;Node11</title>
<g id="a_edge11_Node000010_Node000011"><a xlink:title=" ">
<path fill="none" stroke="#63b8ff" d="M1167.62,-198.5C1196.75,-198.5 1242,-198.5 1273.64,-198.5"/>
<polygon fill="#63b8ff" stroke="#63b8ff" points="1273.81,-202 1283.81,-198.5 1273.81,-195 1273.81,-202"/>
</a>
</g>
</g>
<!-- Node13 -->
<g id="Node000013" class="node">
<title>Node13</title>
<g id="a_Node000013"><a xlink:href="StormLib_2src_2zlib_2trees_8c.html#a1f3d6aa6a0147df6a48af35bcb5719d6" target="_top" xlink:title=" ">
<polygon fill="white" stroke="#666666" points="1346.5,-245 1275.5,-245 1275.5,-226 1346.5,-226 1346.5,-245"/>
<text text-anchor="middle" x="1311" y="-233" font-family="Helvetica,sans-Serif" font-size="10.00">copy_block</text>
</a>
</g>
</g>
<!-- Node12&#45;&gt;Node13 -->
<g id="edge13_Node000012_Node000013" class="edge">
<title>Node12&#45;&gt;Node13</title>
<g id="a_edge13_Node000012_Node000013"><a xlink:title=" ">
<path fill="none" stroke="#63b8ff" d="M1186.63,-235.5C1211.17,-235.5 1240.91,-235.5 1265.05,-235.5"/>
<polygon fill="#63b8ff" stroke="#63b8ff" points="1265.36,-239 1275.36,-235.5 1265.36,-232 1265.36,-239"/>
</a>
</g>
</g>
<!-- Node14 -->
<g id="Node000014" class="node">
<title>Node14</title>
<g id="a_Node000014"><a xlink:href="StormLib_2src_2zlib_2trees_8c.html#a8532fd6b0e6cd8b6a633fe249ac4353c" target="_top" xlink:title=" ">
<polygon fill="white" stroke="#666666" points="1490,-245 1424,-245 1424,-226 1490,-226 1490,-245"/>
<text text-anchor="middle" x="1457" y="-233" font-family="Helvetica,sans-Serif" font-size="10.00">bi_windup</text>
</a>
</g>
</g>
<!-- Node13&#45;&gt;Node14 -->
<g id="edge14_Node000013_Node000014" class="edge">
<title>Node13&#45;&gt;Node14</title>
<g id="a_edge14_Node000013_Node000014"><a xlink:title=" ">
<path fill="none" stroke="#63b8ff" d="M1346.86,-235.5C1367.03,-235.5 1392.56,-235.5 1413.85,-235.5"/>
<polygon fill="#63b8ff" stroke="#63b8ff" points="1413.92,-239 1423.92,-235.5 1413.92,-232 1413.92,-239"/>
</a>
</g>
</g>
<!-- Node18 -->
<g id="Node000018" class="node">
<title>Node18</title>
<g id="a_Node000018"><a xlink:href="StormLib_2src_2zlib_2deflate_8c.html#a6cf3c43817cac5f5c422e94b2a57ea49" target="_top" xlink:title=" ">
<polygon fill="white" stroke="#666666" points="1346.5,-132 1275.5,-132 1275.5,-113 1346.5,-113 1346.5,-132"/>
<text text-anchor="middle" x="1311" y="-120" font-family="Helvetica,sans-Serif" font-size="10.00">fill_window</text>
</a>
</g>
</g>
<!-- Node17&#45;&gt;Node18 -->
<g id="edge18_Node000017_Node000018" class="edge">
<title>Node17&#45;&gt;Node18</title>
<g id="a_edge18_Node000017_Node000018"><a xlink:title=" ">
<path fill="none" stroke="#63b8ff" d="M1175.26,-122.5C1201.43,-122.5 1236.93,-122.5 1264.92,-122.5"/>
<polygon fill="#63b8ff" stroke="#63b8ff" points="1265.25,-126 1275.25,-122.5 1265.25,-119 1265.25,-126"/>
</a>
</g>
</g>
<!-- Node19 -->
<g id="Node000019" class="node">
<title>Node19</title>
<g id="a_Node000019"><a xlink:href="ltm__desc_8c.html#a4f8948d7c94899bf8ddee4721114d593" target="_top" xlink:title=" ">
<polygon fill="white" stroke="#666666" points="1473,-208 1441,-208 1441,-189 1473,-189 1473,-208"/>
<text text-anchor="middle" x="1457" y="-196" font-family="Helvetica,sans-Serif" font-size="10.00">init</text>
</a>
</g>
</g>
<!-- Node18&#45;&gt;Node19 -->
<g id="edge19_Node000018_Node000019" class="edge">
<title>Node18&#45;&gt;Node19</title>
<g id="a_edge19_Node000018_Node000019"><a xlink:title=" ">
<path fill="none" stroke="#63b8ff" d="M1330.24,-132.13C1356.08,-145.76 1403.37,-170.73 1432.02,-185.85"/>
<polygon fill="#63b8ff" stroke="#63b8ff" points="1430.49,-188.99 1440.97,-190.57 1433.76,-182.8 1430.49,-188.99"/>
</a>
</g>
</g>
<!-- Node22 -->
<g id="Node000022" class="node">
<title>Node22</title>
<g id="a_Node000022"><a xlink:href="StormLib_2src_2zlib_2deflate_8c.html#a30b7fcd3e6bea023c1c00eafad492639" target="_top" xlink:title=" ">
<polygon fill="white" stroke="#666666" points="1486.5,-132 1427.5,-132 1427.5,-113 1486.5,-113 1486.5,-132"/>
<text text-anchor="middle" x="1457" y="-120" font-family="Helvetica,sans-Serif" font-size="10.00">read_buf</text>
</a>
</g>
</g>
<!-- Node18&#45;&gt;Node22 -->
<g id="edge22_Node000018_Node000022" class="edge">
<title>Node18&#45;&gt;Node22</title>
<g id="a_edge22_Node000018_Node000022"><a xlink:title=" ">
<path fill="none" stroke="#63b8ff" d="M1346.86,-122.5C1368.03,-122.5 1395.11,-122.5 1416.99,-122.5"/>
<polygon fill="#63b8ff" stroke="#63b8ff" points="1417.27,-126 1427.27,-122.5 1417.27,-119 1417.27,-126"/>
</a>
</g>
</g>
<!-- Node23 -->
<g id="Node000023" class="node">
<title>Node23</title>
<g id="a_Node000023"><a xlink:href="StormLib_2src_2zlib_2zutil_8c.html#aac7aa2bbd8584b96c89e311b6c3409a5" target="_top" xlink:title=" ">
<polygon fill="white" stroke="#666666" points="1615.5,-94 1550.5,-94 1550.5,-75 1615.5,-75 1615.5,-94"/>
<text text-anchor="middle" x="1583" y="-82" font-family="Helvetica,sans-Serif" font-size="10.00">zmemcpy</text>
</a>
</g>
</g>
<!-- Node18&#45;&gt;Node23 -->
<g id="edge26_Node000018_Node000023" class="edge">
<title>Node18&#45;&gt;Node23</title>
<g id="a_edge26_Node000018_Node000023"><a xlink:title=" ">
<path fill="none" stroke="#63b8ff" d="M1346.7,-115.48C1366.63,-111.6 1392.16,-106.9 1415,-103.5 1457.5,-97.17 1506.37,-91.83 1540.21,-88.45"/>
<polygon fill="#63b8ff" stroke="#63b8ff" points="1540.6,-91.92 1550.21,-87.46 1539.91,-84.96 1540.6,-91.92"/>
</a>
</g>
</g>
<!-- Node24 -->
<g id="Node000024" class="node">
<title>Node24</title>
<g id="a_Node000024"><a xlink:href="StormLib_2src_2zlib_2zutil_8c.html#a9d1ad31f82b89b791ce9c70c24d3947c" target="_top" xlink:title=" ">
<polygon fill="white" stroke="#666666" points="1491,-56 1423,-56 1423,-37 1491,-37 1491,-56"/>
<text text-anchor="middle" x="1457" y="-44" font-family="Helvetica,sans-Serif" font-size="10.00">zmemzero</text>
</a>
</g>
</g>
<!-- Node18&#45;&gt;Node24 -->
<g id="edge27_Node000018_Node000024" class="edge">
<title>Node18&#45;&gt;Node24</title>
<g id="a_edge27_Node000018_Node000024"><a xlink:title=" ">
<path fill="none" stroke="#63b8ff" d="M1346.61,-115.96C1357.41,-113.07 1369.08,-109.04 1379,-103.5 1397.95,-92.92 1397.54,-83.39 1415,-70.5 1419.29,-67.34 1424.02,-64.24 1428.7,-61.38"/>
<polygon fill="#63b8ff" stroke="#63b8ff" points="1430.66,-64.29 1437.51,-56.22 1427.12,-58.26 1430.66,-64.29"/>
</a>
</g>
</g>
<!-- Node20 -->
<g id="Node000020" class="node">
<title>Node20</title>
<g id="a_Node000020"><a xlink:href="bn__mp__init_8c.html#af40a43523654299f5178fb2d2d0c2211" target="_top" xlink:title=" ">
<polygon fill="white" stroke="#666666" points="1609.5,-180 1556.5,-180 1556.5,-161 1609.5,-161 1609.5,-180"/>
<text text-anchor="middle" x="1583" y="-168" font-family="Helvetica,sans-Serif" font-size="10.00">mp_init</text>
</a>
</g>
</g>
<!-- Node19&#45;&gt;Node20 -->
<g id="edge20_Node000019_Node000020" class="edge">
<title>Node19&#45;&gt;Node20</title>
<g id="a_edge20_Node000019_Node000020"><a xlink:title=" ">
<path fill="none" stroke="#63b8ff" d="M1473.2,-195.07C1491.31,-190.98 1522.15,-184.01 1546.38,-178.54"/>
<polygon fill="#63b8ff" stroke="#63b8ff" points="1547.32,-181.92 1556.31,-176.3 1545.78,-175.09 1547.32,-181.92"/>
</a>
</g>
</g>
<!-- Node21 -->
<g id="Node000021" class="node">
<title>Node21</title>
<g id="a_Node000021"><a xlink:href="ltm__desc_8c.html#abc21dd3358332c6bcdd2ec873ab5c5a6" target="_top" xlink:title=" ">
<polygon fill="white" stroke="#666666" points="1631,-217 1535,-217 1535,-198 1631,-198 1631,-217"/>
<text text-anchor="middle" x="1583" y="-205" font-family="Helvetica,sans-Serif" font-size="10.00">mpi_to_ltc_error</text>
</a>
</g>
</g>
<!-- Node19&#45;&gt;Node21 -->
<g id="edge21_Node000019_Node000021" class="edge">
<title>Node19&#45;&gt;Node21</title>
<g id="a_edge21_Node000019_Node000021"><a xlink:title=" ">
<path fill="none" stroke="#63b8ff" d="M1473.2,-199.6C1486.2,-200.55 1505.74,-201.97 1524.7,-203.34"/>
<polygon fill="#63b8ff" stroke="#63b8ff" points="1524.6,-206.84 1534.82,-204.08 1525.1,-199.86 1524.6,-206.84"/>
</a>
</g>
</g>
<!-- Node22&#45;&gt;Node15 -->
<g id="edge23_Node000022_Node000015" class="edge">
<title>Node22&#45;&gt;Node15</title>
<g id="a_edge23_Node000022_Node000015"><a xlink:title=" ">
<path fill="none" stroke="#63b8ff" d="M1486.76,-122.73C1504.51,-122.88 1527.41,-123.06 1546.31,-123.21"/>
<polygon fill="#63b8ff" stroke="#63b8ff" points="1546.32,-126.71 1556.34,-123.29 1546.37,-119.71 1546.32,-126.71"/>
</a>
</g>
</g>
<!-- Node22&#45;&gt;Node16 -->
<g id="edge24_Node000022_Node000016" class="edge">
<title>Node22&#45;&gt;Node16</title>
<g id="a_edge24_Node000022_Node000016"><a xlink:title=" ">
<path fill="none" stroke="#63b8ff" d="M1465.01,-132.15C1482.46,-156.17 1527.06,-217.26 1535,-225.5 1542.67,-233.47 1551.99,-241.31 1560.3,-247.79"/>
<polygon fill="#63b8ff" stroke="#63b8ff" points="1558.4,-250.74 1568.49,-253.99 1562.63,-245.16 1558.4,-250.74"/>
</a>
</g>
</g>
<!-- Node22&#45;&gt;Node23 -->
<g id="edge25_Node000022_Node000023" class="edge">
<title>Node22&#45;&gt;Node23</title>
<g id="a_edge25_Node000022_Node000023"><a xlink:title=" ">
<path fill="none" stroke="#63b8ff" d="M1486.76,-113.69C1502.94,-108.73 1523.4,-102.46 1541.21,-97"/>
<polygon fill="#63b8ff" stroke="#63b8ff" points="1542.25,-100.34 1550.79,-94.06 1540.2,-93.65 1542.25,-100.34"/>
</a>
</g>
</g>
<!-- Node25&#45;&gt;Node18 -->
<g id="edge29_Node000025_Node000018" class="edge">
<title>Node25&#45;&gt;Node18</title>
<g id="a_edge29_Node000025_Node000018"><a xlink:title=" ">
<path fill="none" stroke="#63b8ff" d="M1172.38,-92.72C1198.89,-98.46 1236.23,-106.54 1265.32,-112.83"/>
<polygon fill="#63b8ff" stroke="#63b8ff" points="1264.73,-116.28 1275.24,-114.98 1266.21,-109.44 1264.73,-116.28"/>
</a>
</g>
</g>
<!-- Node26 -->
<g id="Node000026" class="node">
<title>Node26</title>
<g id="a_Node000026"><a xlink:href="RecastContour_8cpp.html#a6f1109916123abdff2b46675c13307e3" target="_top" xlink:title=" ">
<polygon fill="white" stroke="#666666" points="1330,-95 1292,-95 1292,-76 1330,-76 1330,-95"/>
<text text-anchor="middle" x="1311" y="-83" font-family="Helvetica,sans-Serif" font-size="10.00">prev</text>
</a>
</g>
</g>
<!-- Node25&#45;&gt;Node26 -->
<g id="edge30_Node000025_Node000026" class="edge">
<title>Node25&#45;&gt;Node26</title>
<g id="a_edge30_Node000025_Node000026"><a xlink:title=" ">
<path fill="none" stroke="#63b8ff" d="M1172.38,-85.5C1204.23,-85.5 1251.7,-85.5 1281.74,-85.5"/>
<polygon fill="#63b8ff" stroke="#63b8ff" points="1281.95,-89 1291.95,-85.5 1281.95,-82 1281.95,-89"/>
</a>
</g>
</g>
<!-- Node27&#45;&gt;Node23 -->
<g id="edge32_Node000027_Node000023" class="edge">
<title>Node27&#45;&gt;Node23</title>
<g id="a_edge32_Node000027_Node000023"><a xlink:title=" ">
<path fill="none" stroke="#63b8ff" d="M1481.78,-19.04C1487.52,-21.58 1493.57,-24.48 1499,-27.5 1521.17,-39.83 1544.88,-56.5 1561.25,-68.63"/>
<polygon fill="#63b8ff" stroke="#63b8ff" points="1559.44,-71.64 1569.54,-74.84 1563.64,-66.04 1559.44,-71.64"/>
</a>
</g>
</g>
<!-- Node31 -->
<g id="Node000031" class="node">
<title>Node31</title>
<g id="a_Node000031"><a xlink:href="classSocket.html#ae3bcf72d932e7b29656d368e81186e6a" target="_top" xlink:title=" ">
<polygon fill="white" stroke="#666666" points="1195.5,-395 1080.5,-395 1080.5,-376 1195.5,-376 1195.5,-395"/>
<text text-anchor="middle" x="1138" y="-383" font-family="Helvetica,sans-Serif" font-size="10.00">Socket::IsConnected</text>
</a>
</g>
</g>
<!-- Node30&#45;&gt;Node31 -->
<g id="edge36_Node000030_Node000031" class="edge">
<title>Node30&#45;&gt;Node31</title>
<g id="a_edge36_Node000030_Node000031"><a xlink:title=" ">
<path fill="none" stroke="#63b8ff" d="M994.07,-358.03C1019.46,-362.91 1050.56,-368.89 1077.26,-374.02"/>
<polygon fill="#63b8ff" stroke="#63b8ff" points="1076.78,-377.49 1087.26,-375.94 1078.1,-370.61 1076.78,-377.49"/>
</a>
</g>
</g>
<!-- Node32 -->
<g id="Node000032" class="node">
<title>Node32</title>
<g id="a_Node000032"><a xlink:href="classWorldSocket.html#a49fd7a2f7a64fc7e7f4817f80f6b5eaf" target="_top" xlink:title=" ">
<polygon fill="white" stroke="#666666" points="1203.5,-358 1072.5,-358 1072.5,-339 1203.5,-339 1203.5,-358"/>
<text text-anchor="middle" x="1138" y="-346" font-family="Helvetica,sans-Serif" font-size="10.00">WorldSocket::OutPacket</text>
</a>
</g>
</g>
<!-- Node30&#45;&gt;Node32 -->
<g id="edge37_Node000030_Node000032" class="edge">
<title>Node30&#45;&gt;Node32</title>
<g id="a_edge37_Node000030_Node000032"><a xlink:title=" ">
<path fill="none" stroke="#63b8ff" d="M1012.1,-348.5C1028.34,-348.5 1045.77,-348.5 1062.31,-348.5"/>
<polygon fill="#63b8ff" stroke="#63b8ff" points="1062.48,-352 1072.48,-348.5 1062.48,-345 1062.48,-352"/>
</a>
</g>
</g>
<!-- Node35&#45;&gt;Node34 -->
<g id="edge41_Node000035_Node000034" class="edge">
<title>Node35&#45;&gt;Node34</title>
<g id="a_edge41_Node000035_Node000034"><a xlink:title=" ">
<path fill="none" stroke="#63b8ff" d="M805.8,-406.54C831.6,-411.63 859.97,-417.23 884.15,-422"/>
<polygon fill="#63b8ff" stroke="#63b8ff" points="883.75,-425.48 894.24,-423.98 885.11,-418.62 883.75,-425.48"/>
</a>
</g>
</g>
<!-- Node36 -->
<g id="Node000036" class="node">
<title>Node36</title>
<g id="a_Node000036"><a xlink:href="classWorldSession.html#a87a1bd80483f57f33a127d12c51d2331" target="_top" xlink:title=" ">
<polygon fill="white" stroke="#666666" points="1015,-404 872,-404 872,-385 1015,-385 1015,-404"/>
<text text-anchor="middle" x="943.5" y="-392" font-family="Helvetica,sans-Serif" font-size="10.00">WorldSession::SendPacket</text>
</a>
</g>
</g>
<!-- Node35&#45;&gt;Node36 -->
<g id="edge42_Node000035_Node000036" class="edge">
<title>Node35&#45;&gt;Node36</title>
<g id="a_edge42_Node000035_Node000036"><a xlink:title=" ">
<path fill="none" stroke="#63b8ff" d="M809.72,-392.63C826.62,-392.87 844.45,-393.12 861.38,-393.36"/>
<polygon fill="#63b8ff" stroke="#63b8ff" points="861.74,-396.86 871.79,-393.5 861.84,-389.86 861.74,-396.86"/>
</a>
</g>
</g>
<!-- Node36&#45;&gt;Node31 -->
<g id="edge44_Node000036_Node000031" class="edge">
<title>Node36&#45;&gt;Node31</title>
<g id="a_edge44_Node000036_Node000031"><a xlink:title=" ">
<path fill="none" stroke="#63b8ff" d="M1015.09,-391.2C1033.03,-390.36 1052.25,-389.46 1070,-388.63"/>
<polygon fill="#63b8ff" stroke="#63b8ff" points="1070.44,-392.12 1080.27,-388.15 1070.12,-385.12 1070.44,-392.12"/>
</a>
</g>
</g>
<!-- Node37 -->
<g id="Node000037" class="node">
<title>Node37</title>
<g id="a_Node000037"><a xlink:href="classWorldPacket.html#a3f359b4afd93497038c4f17e1ebd4380" target="_top" xlink:title=" ">
<polygon fill="white" stroke="#666666" points="1379,-433 1243,-433 1243,-414 1379,-414 1379,-433"/>
<text text-anchor="middle" x="1311" y="-421" font-family="Helvetica,sans-Serif" font-size="10.00">WorldPacket::GetOpcode</text>
</a>
</g>
</g>
<!-- Node36&#45;&gt;Node37 -->
<g id="edge43_Node000036_Node000037" class="edge">
<title>Node36&#45;&gt;Node37</title>
<g id="a_edge43_Node000036_Node000037"><a xlink:title=" ">
<path fill="none" stroke="#63b8ff" d="M1015.41,-400.13C1077.87,-405.08 1168.67,-412.29 1232.92,-417.38"/>
<polygon fill="#63b8ff" stroke="#63b8ff" points="1232.75,-420.88 1242.99,-418.18 1233.3,-413.9 1232.75,-420.88"/>
</a>
</g>
</g>
<!-- Node38 -->
<g id="Node000038" class="node">
<title>Node38</title>
<g id="a_Node000038"><a xlink:href="classWorldSocket.html#ab2fb0afb0aaf5d2229fea66a9923637e" target="_top" xlink:title=" ">
<polygon fill="white" stroke="#666666" points="1207,-471 1069,-471 1069,-452 1207,-452 1207,-471"/>
<text text-anchor="middle" x="1138" y="-459" font-family="Helvetica,sans-Serif" font-size="10.00">WorldSocket::SendPacket</text>
</a>
</g>
</g>
<!-- Node36&#45;&gt;Node38 -->
<g id="edge45_Node000036_Node000038" class="edge">
<title>Node36&#45;&gt;Node38</title>
<g id="a_edge45_Node000036_Node000038"><a xlink:title=" ">
<path fill="none" stroke="#63b8ff" d="M1000.65,-404.11C1011.6,-406.83 1022.82,-410.25 1033,-414.5 1050.52,-421.81 1051.94,-429.17 1069,-437.5 1077.43,-441.61 1086.75,-445.37 1095.71,-448.63"/>
<polygon fill="#63b8ff" stroke="#63b8ff" points="1094.65,-451.97 1105.24,-451.97 1096.96,-445.36 1094.65,-451.97"/>
</a>
</g>
</g>
<!-- Node38&#45;&gt;Node5 -->
<g id="edge48_Node000038_Node000005" class="edge">
<title>Node38&#45;&gt;Node5</title>
<g id="a_edge48_Node000038_Node000005"><a xlink:title=" ">
<path fill="none" stroke="#63b8ff" d="M1157.95,-471.14C1188.08,-486.47 1247.05,-516.47 1282.03,-534.27"/>
<polygon fill="#63b8ff" stroke="#63b8ff" points="1280.72,-537.53 1291.22,-538.95 1283.9,-531.29 1280.72,-537.53"/>
</a>
</g>
</g>
<!-- Node38&#45;&gt;Node37 -->
<g id="edge47_Node000038_Node000037" class="edge">
<title>Node38&#45;&gt;Node37</title>
<g id="a_edge47_Node000038_Node000037"><a xlink:title=" ">
<path fill="none" stroke="#63b8ff" d="M1182.15,-451.91C1204.92,-446.85 1233.05,-440.6 1257.12,-435.25"/>
<polygon fill="#63b8ff" stroke="#63b8ff" points="1258.16,-438.61 1267.16,-433.02 1256.64,-431.77 1258.16,-438.61"/>
</a>
</g>
</g>
<!-- Node39 -->
<g id="Node000039" class="node">
<title>Node39</title>
<g id="a_Node000039"><a xlink:href="classByteBuffer.html#a8d712af2767c7ca45de60bd9d85738d8" target="_top" xlink:title=" ">
<polygon fill="white" stroke="#666666" points="1369,-471 1253,-471 1253,-452 1369,-452 1369,-471"/>
<text text-anchor="middle" x="1311" y="-459" font-family="Helvetica,sans-Serif" font-size="10.00">ByteBuffer::contents</text>
</a>
</g>
</g>
<!-- Node38&#45;&gt;Node39 -->
<g id="edge46_Node000038_Node000039" class="edge">
<title>Node38&#45;&gt;Node39</title>
<g id="a_edge46_Node000038_Node000039"><a xlink:title=" ">
<path fill="none" stroke="#63b8ff" d="M1207.08,-461.5C1218.82,-461.5 1231.02,-461.5 1242.74,-461.5"/>
<polygon fill="#63b8ff" stroke="#63b8ff" points="1242.89,-465 1252.89,-461.5 1242.89,-458 1242.89,-465"/>
</a>
</g>
</g>
<!-- Node40&#45;&gt;Node5 -->
<g id="edge51_Node000040_Node000005" class="edge">
<title>Node40&#45;&gt;Node5</title>
<g id="a_edge51_Node000040_Node000005"><a xlink:title=" ">
<path fill="none" stroke="#63b8ff" d="M1033.3,-517.64C1084.2,-521.98 1149.25,-527.94 1207,-534.5 1222.15,-536.22 1238.52,-538.33 1253.66,-540.39"/>
<polygon fill="#63b8ff" stroke="#63b8ff" points="1253.52,-543.9 1263.91,-541.8 1254.48,-536.97 1253.52,-543.9"/>
</a>
</g>
</g>
<!-- Node42 -->
<g id="Node000042" class="node">
<title>Node42</title>
<g id="a_Node000042"><a xlink:href="classObject.html#a967af054c54b6d9846637ce8718efd75" target="_top" xlink:title=" ">
<polygon fill="white" stroke="#666666" points="574.5,-440 455.5,-440 455.5,-421 574.5,-421 574.5,-440"/>
<text text-anchor="middle" x="515" y="-428" font-family="Helvetica,sans-Serif" font-size="10.00">Object::getWorldMap</text>
</a>
</g>
</g>
<!-- Node41&#45;&gt;Node42 -->
<g id="edge54_Node000041_Node000042" class="edge">
<title>Node41&#45;&gt;Node42</title>
<g id="a_edge54_Node000041_Node000042"><a xlink:title=" ">
<path fill="none" stroke="#63b8ff" d="M390.3,-452.45C410.37,-448.89 431.44,-445.15 450.38,-441.79"/>
<polygon fill="#63b8ff" stroke="#63b8ff" points="451.14,-445.21 460.37,-440.02 449.92,-438.32 451.14,-445.21"/>
</a>
</g>
</g>
<!-- Node43 -->
<g id="Node000043" class="node">
<title>Node43</title>
<g id="a_Node000043"><a xlink:href="classWorldMap.html#ad3b0c0c761379f6373e698b72eeedec2" target="_top" xlink:title=" ">
<polygon fill="white" stroke="#666666" points="592.5,-477 437.5,-477 437.5,-458 592.5,-458 592.5,-477"/>
<text text-anchor="middle" x="515" y="-465" font-family="Helvetica,sans-Serif" font-size="10.00">WorldMap::pushToProcessed</text>
</a>
</g>
</g>
<!-- Node41&#45;&gt;Node43 -->
<g id="edge55_Node000041_Node000043" class="edge">
<title>Node41&#45;&gt;Node43</title>
<g id="a_edge55_Node000041_Node000043"><a xlink:title=" ">
<path fill="none" stroke="#63b8ff" d="M391.21,-467.5C403.02,-467.5 415.16,-467.5 427,-467.5"/>
<polygon fill="#63b8ff" stroke="#63b8ff" points="427.31,-471 437.31,-467.5 427.31,-464 427.31,-471"/>
</a>
</g>
</g>
</g>
</svg>

<g id="navigator" transform="translate(0 0)" fill="#404254">
  <rect fill="#f2f5e9" fill-opacity="0.5" stroke="#606060" stroke-width=".5" x="0" y="0" width="60" height="60"/>
  <use id="zoomplus" xlink:href="#zoomPlus" x="17" y="9" onmousedown="handleZoom(evt,'in')"/>
  <use id="zoomminus" xlink:href="#zoomMin" x="42" y="9" onmousedown="handleZoom(evt,'out')"/>
  <use id="reset" xlink:href="#resetDef" x="30" y="36" onmousedown="handleReset()"/>
   <use id="arrowup" xlink:href="#arrowUp" x="0" y="0" onmousedown="handlePan(0,-1)"/>
  <use id="arrowright" xlink:href="#arrowRight" x="0" y="0" onmousedown="handlePan(1,0)"/>
  <use id="arrowdown" xlink:href="#arrowDown" x="0" y="0" onmousedown="handlePan(0,1)"/>
  <use id="arrowleft" xlink:href="#arrowLeft" x="0" y="0" onmousedown="handlePan(-1,0)"/>
</g>
<svg viewBox="0 0 15 15" width="100%" height="30px" preserveAspectRatio="xMaxYMin meet">
 <g id="arrow_out" transform="scale(0.3 0.3)">
  <a xlink:href="classUpdateManager_ac878f7055dd1846297174d8d3b07d3c7_cgraph_org.svg" target="_base">
   <rect id="button" ry="5" rx="5" y="6" x="6" height="38" width="38"
        fill="#f2f5e9" fill-opacity="0.5" stroke="#606060" stroke-width="1.0"/>
   <path id="arrow"
     d="M 11.500037,31.436501 C 11.940474,20.09759 22.043105,11.32322 32.158766,21.979434 L 37.068811,17.246167 C 37.068811,17.246167 37.088388,32 37.088388,32 L 22.160133,31.978069 C 22.160133,31.978069 26.997745,27.140456 26.997745,27.140456 C 18.528582,18.264221 13.291696,25.230495 11.500037,31.436501 z"
     style="fill:#404040;"/>
  </a>
 </g>
</svg>

<style type='text/css'>
<![CDATA[
[data-mouse-over-selected='false'] { opacity: 0.7; }
[data-mouse-over-selected='true']  { opacity: 1.0; }
]]>
</style>
<script type="application/ecmascript"><![CDATA[
document.addEventListener('DOMContentLoaded', (event) => {
  highlightEdges();
  highlightAdjacentNodes();
});
]]></script>
</svg>
