<?xml version="1.0" encoding="UTF-8" standalone="no"?>
<!DOCTYPE svg PUBLIC "-//W3C//DTD SVG 1.1//EN"
 "http://www.w3.org/Graphics/SVG/1.1/DTD/svg11.dtd">
<!-- Generated by graphviz version 2.43.0 (0)
 -->
<!-- Title: Unit::createChatPacket Pages: 1 -->
<svg width="706pt" height="1901pt"
 viewBox="0.00 0.00 706.00 1901.00" xmlns="http://www.w3.org/2000/svg" xmlns:xlink="http://www.w3.org/1999/xlink">
<g id="graph0" class="graph" transform="scale(1 1) rotate(0) translate(4 1897)">
<title>Unit::createChatPacket</title>
<!-- Node1 -->
<g id="Node000001" class="node">
<title>Node1</title>
<g id="a_Node000001"><a xlink:title=" ">
<polygon fill="#999999" stroke="#666666" points="698,-950.5 570,-950.5 570,-931.5 698,-931.5 698,-950.5"/>
<text text-anchor="middle" x="634" y="-938.5" font-family="Helvetica,sans-Serif" font-size="10.00">Unit::createChatPacket</text>
</a>
</g>
</g>
<!-- Node2 -->
<g id="Node000002" class="node">
<title>Node2</title>
<g id="a_Node000002"><a xlink:href="classUnit.html#ac2f0c02f68ae1decbafd14b0a6cc402e" target="_top" xlink:title=" ">
<polygon fill="#fff0f0" stroke="red" points="513.5,-987.5 381.5,-987.5 381.5,-968.5 513.5,-968.5 513.5,-987.5"/>
<text text-anchor="middle" x="447.5" y="-975.5" font-family="Helvetica,sans-Serif" font-size="10.00">Unit::sendChatMessage</text>
</a>
</g>
</g>
<!-- Node1&#45;&gt;Node2 -->
<g id="edge1_Node000001_Node000002" class="edge">
<title>Node1&#45;&gt;Node2</title>
<g id="a_edge1_Node000001_Node000002"><a xlink:title=" ">
<path fill="none" stroke="#63b8ff" d="M575.58,-952.52C550.08,-957.63 520.42,-963.58 496.17,-968.44"/>
<polygon fill="#63b8ff" stroke="#63b8ff" points="576.37,-955.93 585.49,-950.53 574.99,-949.06 576.37,-955.93"/>
</a>
</g>
</g>
<!-- Node1720 -->
<g id="Node001720" class="node">
<title>Node1720</title>
<g id="a_Node001720"><a xlink:href="classUnit.html#aa557db38f351ab334090e11441998efa" target="_top" xlink:title=" ">
<polygon fill="#fff0f0" stroke="red" points="534,-950.5 361,-950.5 361,-931.5 534,-931.5 534,-950.5"/>
<text text-anchor="middle" x="447.5" y="-938.5" font-family="Helvetica,sans-Serif" font-size="10.00">Unit::sendChatMessageToPlayer</text>
</a>
</g>
</g>
<!-- Node1&#45;&gt;Node1720 -->
<g id="edge49_Node000001_Node001720" class="edge">
<title>Node1&#45;&gt;Node1720</title>
<g id="a_edge49_Node000001_Node001720"><a xlink:title=" ">
<path fill="none" stroke="#63b8ff" d="M559.67,-941C551.28,-941 542.68,-941 534.16,-941"/>
<polygon fill="#63b8ff" stroke="#63b8ff" points="559.76,-944.5 569.76,-941 559.76,-937.5 559.76,-944.5"/>
</a>
</g>
</g>
<!-- Node1722 -->
<g id="Node001722" class="node">
<title>Node1722</title>
<g id="a_Node001722"><a xlink:href="classObject.html#ac7722a71380e1dffcff7c72f07b7f0a3" target="_top" xlink:title=" ">
<polygon fill="#fff0f0" stroke="red" points="519,-913 376,-913 376,-883 519,-883 519,-913"/>
<text text-anchor="start" x="384" y="-901" font-family="Helvetica,sans-Serif" font-size="10.00">Object::SendCreatureChat</text>
<text text-anchor="middle" x="447.5" y="-890" font-family="Helvetica,sans-Serif" font-size="10.00">MessageInRange</text>
</a>
</g>
</g>
<!-- Node1&#45;&gt;Node1722 -->
<g id="edge50_Node000001_Node001722" class="edge">
<title>Node1&#45;&gt;Node1722</title>
<g id="a_edge50_Node000001_Node001722"><a xlink:title=" ">
<path fill="none" stroke="#63b8ff" d="M582.18,-929.16C560.77,-924.16 535.58,-918.3 512.89,-913.01"/>
<polygon fill="#63b8ff" stroke="#63b8ff" points="581.52,-932.6 592.05,-931.46 583.11,-925.78 581.52,-932.6"/>
</a>
</g>
</g>
<!-- Node3 -->
<g id="Node000003" class="node">
<title>Node3</title>
<g id="a_Node000003"><a xlink:href="classAIInterface.html#a906dba2a43eb7de6dce7520cf5b271ff" target="_top" xlink:title=" ">
<polygon fill="#fff0f0" stroke="red" points="285,-1893 156,-1893 156,-1863 285,-1863 285,-1893"/>
<text text-anchor="start" x="164" y="-1881" font-family="Helvetica,sans-Serif" font-size="10.00">AIInterface::_findFriend</text>
<text text-anchor="middle" x="220.5" y="-1870" font-family="Helvetica,sans-Serif" font-size="10.00">WhileFleeing</text>
</a>
</g>
</g>
<!-- Node2&#45;&gt;Node3 -->
<g id="edge2_Node000002_Node000003" class="edge">
<title>Node2&#45;&gt;Node3</title>
<g id="a_edge2_Node000002_Node000003"><a xlink:title=" ">
<path fill="none" stroke="#63b8ff" d="M446.67,-997.6C447.29,-1114.88 444.66,-1723.06 325,-1854 314.67,-1865.3 300.16,-1871.8 285.27,-1875.42"/>
<polygon fill="#63b8ff" stroke="#63b8ff" points="450.17,-997.53 446.6,-987.55 443.17,-997.58 450.17,-997.53"/>
</a>
</g>
</g>
<!-- Node8 -->
<g id="Node000008" class="node">
<title>Node8</title>
<g id="a_Node000008"><a xlink:href="classThuAI.html#a64fa38e31fba2feb7c901618d02dcb4d" target="_top" xlink:title=" ">
<polygon fill="white" stroke="#666666" points="268,-1844.5 173,-1844.5 173,-1825.5 268,-1825.5 268,-1844.5"/>
<text text-anchor="middle" x="220.5" y="-1832.5" font-family="Helvetica,sans-Serif" font-size="10.00">ThuAI::AIUpdate</text>
</a>
</g>
</g>
<!-- Node2&#45;&gt;Node8 -->
<g id="edge3_Node000002_Node000008" class="edge">
<title>Node2&#45;&gt;Node8</title>
<g id="a_edge3_Node000002_Node000008"><a xlink:title=" ">
<path fill="none" stroke="#63b8ff" d="M446.64,-997.94C447.05,-1113.4 443.15,-1695.45 325,-1817 310.44,-1831.97 288.2,-1837.15 268.07,-1838.31"/>
<polygon fill="#63b8ff" stroke="#63b8ff" points="450.14,-997.71 446.59,-987.73 443.14,-997.75 450.14,-997.71"/>
</a>
</g>
</g>
<!-- Node9 -->
<g id="Node000009" class="node">
<title>Node9</title>
<g id="a_Node000009"><a xlink:href="classAntusulAI.html#aa42ac5b7c432852bc60bd9949b46f2a3" target="_top" xlink:title=" ">
<polygon fill="white" stroke="#666666" points="277.5,-1807.5 163.5,-1807.5 163.5,-1788.5 277.5,-1788.5 277.5,-1807.5"/>
<text text-anchor="middle" x="220.5" y="-1795.5" font-family="Helvetica,sans-Serif" font-size="10.00">AntusulAI::AIUpdate</text>
</a>
</g>
</g>
<!-- Node2&#45;&gt;Node9 -->
<g id="edge4_Node000002_Node000009" class="edge">
<title>Node2&#45;&gt;Node9</title>
<g id="a_edge4_Node000002_Node000009"><a xlink:title=" ">
<path fill="none" stroke="#63b8ff" d="M446.5,-997.75C446.07,-1109.77 438.19,-1664.31 325,-1780 312.69,-1792.58 294.96,-1798.23 277.63,-1800.4"/>
<polygon fill="#63b8ff" stroke="#63b8ff" points="450,-997.57 446.52,-987.56 443,-997.55 450,-997.57"/>
</a>
</g>
</g>
<!-- Node10 -->
<g id="Node000010" class="node">
<title>Node10</title>
<g id="a_Node000010"><a xlink:href="classShadeofakamaAI.html#a6d5fe28a267f77c07a595948f23ee24b" target="_top" xlink:title=" ">
<polygon fill="white" stroke="#666666" points="295.5,-1770.5 145.5,-1770.5 145.5,-1751.5 295.5,-1751.5 295.5,-1770.5"/>
<text text-anchor="middle" x="220.5" y="-1758.5" font-family="Helvetica,sans-Serif" font-size="10.00">ShadeofakamaAI::AIUpdate</text>
</a>
</g>
</g>
<!-- Node2&#45;&gt;Node10 -->
<g id="edge5_Node000002_Node000010" class="edge">
<title>Node2&#45;&gt;Node10</title>
<g id="a_edge5_Node000002_Node000010"><a xlink:title=" ">
<path fill="none" stroke="#63b8ff" d="M446.32,-997.82C444.9,-1106.76 432.51,-1631.9 325,-1742 316.96,-1750.23 306.61,-1755.57 295.57,-1758.93"/>
<polygon fill="#63b8ff" stroke="#63b8ff" points="449.82,-997.64 446.43,-987.61 442.82,-997.56 449.82,-997.64"/>
</a>
</g>
</g>
<!-- Node11 -->
<g id="Node000011" class="node">
<title>Node11</title>
<g id="a_Node000011"><a xlink:href="classWardenMellicharAI.html#a1f45d93e594e451c08558eb006bc5f7f" target="_top" xlink:title=" ">
<polygon fill="white" stroke="#666666" points="277.5,-1733 163.5,-1733 163.5,-1703 277.5,-1703 277.5,-1733"/>
<text text-anchor="start" x="171.5" y="-1721" font-family="Helvetica,sans-Serif" font-size="10.00">WardenMellicharAI::</text>
<text text-anchor="middle" x="220.5" y="-1710" font-family="Helvetica,sans-Serif" font-size="10.00">AIUpdate</text>
</a>
</g>
</g>
<!-- Node2&#45;&gt;Node11 -->
<g id="edge6_Node000002_Node000011" class="edge">
<title>Node2&#45;&gt;Node11</title>
<g id="a_edge6_Node000002_Node000011"><a xlink:title=" ">
<path fill="none" stroke="#63b8ff" d="M445.99,-998.13C442.93,-1103.37 423.53,-1589.39 325,-1694 312.8,-1706.96 295.09,-1713.56 277.75,-1716.75"/>
<polygon fill="#63b8ff" stroke="#63b8ff" points="449.5,-998.03 446.27,-987.94 442.5,-997.84 449.5,-998.03"/>
</a>
</g>
</g>
<!-- Node12 -->
<g id="Node000012" class="node">
<title>Node12</title>
<g id="a_Node000012"><a xlink:href="classPatchwerkAI.html#a6a57e448a277d11f6e45f50d46731e7b" target="_top" xlink:title=" ">
<polygon fill="white" stroke="#666666" points="284.5,-1684.5 156.5,-1684.5 156.5,-1665.5 284.5,-1665.5 284.5,-1684.5"/>
<text text-anchor="middle" x="220.5" y="-1672.5" font-family="Helvetica,sans-Serif" font-size="10.00">PatchwerkAI::AIUpdate</text>
</a>
</g>
</g>
<!-- Node2&#45;&gt;Node12 -->
<g id="edge7_Node000002_Node000012" class="edge">
<title>Node2&#45;&gt;Node12</title>
<g id="a_edge7_Node000002_Node000012"><a xlink:title=" ">
<path fill="none" stroke="#63b8ff" d="M445.9,-998.15C442.4,-1100.42 421.45,-1561.02 325,-1657 314.27,-1667.68 299.62,-1673.32 284.71,-1676.08"/>
<polygon fill="#63b8ff" stroke="#63b8ff" points="449.4,-998.07 446.23,-987.96 442.4,-997.84 449.4,-998.07"/>
</a>
</g>
</g>
<!-- Node13 -->
<g id="Node000013" class="node">
<title>Node13</title>
<g id="a_Node000013"><a xlink:href="classFunnyDragon.html#a4b230a60a6cb9c933f958101b2e996af" target="_top" xlink:title=" ">
<polygon fill="white" stroke="#666666" points="286.5,-1647.5 154.5,-1647.5 154.5,-1628.5 286.5,-1628.5 286.5,-1647.5"/>
<text text-anchor="middle" x="220.5" y="-1635.5" font-family="Helvetica,sans-Serif" font-size="10.00">FunnyDragon::AIUpdate</text>
</a>
</g>
</g>
<!-- Node2&#45;&gt;Node13 -->
<g id="edge8_Node000002_Node000013" class="edge">
<title>Node2&#45;&gt;Node13</title>
<g id="a_edge8_Node000002_Node000013"><a xlink:title=" ">
<path fill="none" stroke="#63b8ff" d="M445.66,-997.93C441.08,-1096.26 415.98,-1528.55 325,-1619 314.7,-1629.24 300.82,-1634.95 286.57,-1637.96"/>
<polygon fill="#63b8ff" stroke="#63b8ff" points="449.16,-998.01 446.11,-987.86 442.16,-997.7 449.16,-998.01"/>
</a>
</g>
</g>
<!-- Node14 -->
<g id="Node000014" class="node">
<title>Node14</title>
<g id="a_Node000014"><a xlink:href="classDeathbringerJovaanAI.html#a267d4dc94c6c7a717e3050b731b90bd9" target="_top" xlink:title=" ">
<polygon fill="white" stroke="#666666" points="282,-1610 159,-1610 159,-1580 282,-1580 282,-1610"/>
<text text-anchor="start" x="167" y="-1598" font-family="Helvetica,sans-Serif" font-size="10.00">DeathbringerJovaanAI</text>
<text text-anchor="middle" x="220.5" y="-1587" font-family="Helvetica,sans-Serif" font-size="10.00">::AIUpdate</text>
</a>
</g>
</g>
<!-- Node2&#45;&gt;Node14 -->
<g id="edge9_Node000002_Node000014" class="edge">
<title>Node2&#45;&gt;Node14</title>
<g id="a_edge9_Node000002_Node000014"><a xlink:title=" ">
<path fill="none" stroke="#63b8ff" d="M445.27,-997.52C439,-1090.35 407.73,-1486.11 325,-1571 313.67,-1582.62 297.9,-1589.09 282.08,-1592.58"/>
<polygon fill="#63b8ff" stroke="#63b8ff" points="448.76,-997.74 445.92,-987.53 441.77,-997.28 448.76,-997.74"/>
</a>
</g>
</g>
<!-- Node15 -->
<g id="Node000015" class="node">
<title>Node15</title>
<g id="a_Node000015"><a xlink:href="classWarbringerRazuunAI.html#ad89d757152f35c4c7f31a20f1d1ece1d" target="_top" xlink:title=" ">
<polygon fill="white" stroke="#666666" points="278.5,-1562 162.5,-1562 162.5,-1532 278.5,-1532 278.5,-1562"/>
<text text-anchor="start" x="170.5" y="-1550" font-family="Helvetica,sans-Serif" font-size="10.00">WarbringerRazuunAI</text>
<text text-anchor="middle" x="220.5" y="-1539" font-family="Helvetica,sans-Serif" font-size="10.00">::AIUpdate</text>
</a>
</g>
</g>
<!-- Node2&#45;&gt;Node15 -->
<g id="edge10_Node000002_Node000015" class="edge">
<title>Node2&#45;&gt;Node15</title>
<g id="a_edge10_Node000002_Node000015"><a xlink:title=" ">
<path fill="none" stroke="#63b8ff" d="M444.88,-997.6C437.19,-1085.9 401.51,-1445.84 325,-1523 312.79,-1535.31 295.59,-1541.82 278.72,-1545.12"/>
<polygon fill="#63b8ff" stroke="#63b8ff" points="448.37,-997.86 445.73,-987.6 441.4,-997.27 448.37,-997.86"/>
</a>
</g>
</g>
<!-- Node16 -->
<g id="Node000016" class="node">
<title>Node16</title>
<g id="a_Node000016"><a xlink:href="classDashelStonefist.html#a5da32c9773dcd256c47fe0c7709ab014" target="_top" xlink:title=" ">
<polygon fill="white" stroke="#666666" points="292.5,-1513.5 148.5,-1513.5 148.5,-1494.5 292.5,-1494.5 292.5,-1513.5"/>
<text text-anchor="middle" x="220.5" y="-1501.5" font-family="Helvetica,sans-Serif" font-size="10.00">DashelStonefist::AIUpdate</text>
</a>
</g>
</g>
<!-- Node2&#45;&gt;Node16 -->
<g id="edge11_Node000002_Node000016" class="edge">
<title>Node2&#45;&gt;Node16</title>
<g id="a_edge11_Node000002_Node000016"><a xlink:title=" ">
<path fill="none" stroke="#63b8ff" d="M444.48,-997.64C435.42,-1081.65 395.96,-1409.72 325,-1480 316.09,-1488.83 304.61,-1494.66 292.55,-1498.46"/>
<polygon fill="#63b8ff" stroke="#63b8ff" points="447.96,-997.96 445.53,-987.65 441,-997.22 447.96,-997.96"/>
</a>
</g>
</g>
<!-- Node17 -->
<g id="Node000017" class="node">
<title>Node17</title>
<g id="a_Node000017"><a xlink:href="classCreature.html#a5668d3967de3ea51a8547e119016ad7e" target="_top" xlink:title=" ">
<polygon fill="#fff0f0" stroke="red" points="80,-1437.5 0,-1437.5 0,-1418.5 80,-1418.5 80,-1437.5"/>
<text text-anchor="middle" x="40" y="-1425.5" font-family="Helvetica,sans-Serif" font-size="10.00">Creature::die</text>
</a>
</g>
</g>
<!-- Node2&#45;&gt;Node17 -->
<g id="edge12_Node000002_Node000017" class="edge">
<title>Node2&#45;&gt;Node17</title>
<g id="a_edge12_Node000002_Node000017"><a xlink:title=" ">
<path fill="none" stroke="#63b8ff" d="M444.5,-998.04C435.85,-1080.24 398.7,-1389.96 325,-1447 245.08,-1508.85 111.62,-1459.76 61.15,-1437.51"/>
<polygon fill="#63b8ff" stroke="#63b8ff" points="448.03,-997.92 445.57,-987.62 441.07,-997.21 448.03,-997.92"/>
</a>
</g>
</g>
<!-- Node39 -->
<g id="Node000039" class="node">
<title>Node39</title>
<g id="a_Node000039"><a xlink:href="classLuaUnit.html#a36bfde0397409774625bedaf7db6c8e1" target="_top" xlink:title=" ">
<polygon fill="white" stroke="#666666" points="275.5,-1437.5 165.5,-1437.5 165.5,-1418.5 275.5,-1418.5 275.5,-1437.5"/>
<text text-anchor="middle" x="220.5" y="-1425.5" font-family="Helvetica,sans-Serif" font-size="10.00">LuaUnit::EventChat</text>
</a>
</g>
</g>
<!-- Node2&#45;&gt;Node39 -->
<g id="edge13_Node000002_Node000039" class="edge">
<title>Node2&#45;&gt;Node39</title>
<g id="a_edge13_Node000002_Node000039"><a xlink:title=" ">
<path fill="none" stroke="#63b8ff" d="M443.7,-998.11C432.51,-1075.51 388.53,-1352.64 325,-1410 311.67,-1422.04 293.27,-1427.48 275.68,-1429.61"/>
<polygon fill="#63b8ff" stroke="#63b8ff" points="447.22,-998.22 445.16,-987.83 440.29,-997.24 447.22,-998.22"/>
</a>
</g>
</g>
<!-- Node40 -->
<g id="Node000040" class="node">
<title>Node40</title>
<g id="a_Node000040"><a xlink:href="classAIInterface.html#ab5cd591bbba072f53ba73c48c5aa0640" target="_top" xlink:title="we have to tell our current enemies to stop attacking us, we should also forget about our targets">
<polygon fill="#fff0f0" stroke="red" points="305.5,-1400.5 135.5,-1400.5 135.5,-1381.5 305.5,-1381.5 305.5,-1400.5"/>
<text text-anchor="middle" x="220.5" y="-1388.5" font-family="Helvetica,sans-Serif" font-size="10.00">AIInterface::eventOnTargetDied</text>
</a>
</g>
</g>
<!-- Node2&#45;&gt;Node40 -->
<g id="edge14_Node000002_Node000040" class="edge">
<title>Node2&#45;&gt;Node40</title>
<g id="a_edge14_Node000002_Node000040"><a xlink:title=" ">
<path fill="none" stroke="#63b8ff" d="M447.06,-997.65C447.75,-1062.48 440.53,-1271.2 325,-1373 319.25,-1378.06 312.61,-1381.95 305.51,-1384.91"/>
<polygon fill="#63b8ff" stroke="#63b8ff" points="450.56,-997.52 446.87,-987.58 443.56,-997.65 450.56,-997.52"/>
</a>
</g>
</g>
<!-- Node44 -->
<g id="Node000044" class="node">
<title>Node44</title>
<g id="a_Node000044"><a xlink:href="classAIInterface.html#aff90b5b3fd13a6470ba50e7e2871ec5f" target="_top" xlink:title=" ">
<polygon fill="#fff0f0" stroke="red" points="292,-1363.5 149,-1363.5 149,-1344.5 292,-1344.5 292,-1363.5"/>
<text text-anchor="middle" x="220.5" y="-1351.5" font-family="Helvetica,sans-Serif" font-size="10.00">AIInterface::eventOnTaunt</text>
</a>
</g>
</g>
<!-- Node2&#45;&gt;Node44 -->
<g id="edge16_Node000002_Node000044" class="edge">
<title>Node2&#45;&gt;Node44</title>
<g id="a_edge16_Node000002_Node000044"><a xlink:title=" ">
<path fill="none" stroke="#63b8ff" d="M446.34,-997.8C444.7,-1058.83 430.87,-1245.39 325,-1336 315.72,-1343.95 304.2,-1348.97 292.26,-1352.05"/>
<polygon fill="#63b8ff" stroke="#63b8ff" points="449.84,-997.69 446.53,-987.62 442.85,-997.56 449.84,-997.69"/>
</a>
</g>
</g>
<!-- Node46 -->
<g id="Node000046" class="node">
<title>Node46</title>
<g id="a_Node000046"><a xlink:href="QIspells_8cpp.html#ac9b0f0dbe74c00c83f3642dbb3bcb564" target="_top" xlink:title=" ">
<polygon fill="#fff0f0" stroke="red" points="250,-1326.5 191,-1326.5 191,-1307.5 250,-1307.5 250,-1326.5"/>
<text text-anchor="middle" x="220.5" y="-1314.5" font-family="Helvetica,sans-Serif" font-size="10.00">Fumping</text>
</a>
</g>
</g>
<!-- Node2&#45;&gt;Node46 -->
<g id="edge17_Node000002_Node000046" class="edge">
<title>Node2&#45;&gt;Node46</title>
<g id="a_edge17_Node000002_Node000046"><a xlink:title=" ">
<path fill="none" stroke="#63b8ff" d="M445.49,-997.62C441.43,-1054.3 421.48,-1219.28 325,-1299 304.19,-1316.19 272.85,-1319.52 250.11,-1319.27"/>
<polygon fill="#63b8ff" stroke="#63b8ff" points="448.99,-997.71 446.12,-987.51 442,-997.28 448.99,-997.71"/>
</a>
</g>
</g>
<!-- Node50 -->
<g id="Node000050" class="node">
<title>Node50</title>
<g id="a_Node000050"><a xlink:href="classJainaAI.html#aad21aa7a12ba297e14d4b19e029803ff" target="_top" xlink:title=" ">
<polygon fill="#fff0f0" stroke="red" points="292,-1289.5 149,-1289.5 149,-1270.5 292,-1270.5 292,-1289.5"/>
<text text-anchor="middle" x="220.5" y="-1277.5" font-family="Helvetica,sans-Serif" font-size="10.00">JainaAI::InstanceRealStart</text>
</a>
</g>
</g>
<!-- Node2&#45;&gt;Node50 -->
<g id="edge18_Node000002_Node000050" class="edge">
<title>Node2&#45;&gt;Node50</title>
<g id="a_edge18_Node000002_Node000050"><a xlink:title=" ">
<path fill="none" stroke="#63b8ff" d="M444.4,-997.77C437.73,-1050.15 412,-1193.17 325,-1262 315.49,-1269.53 303.93,-1274.36 292.04,-1277.38"/>
<polygon fill="#63b8ff" stroke="#63b8ff" points="447.92,-997.85 445.61,-987.51 440.97,-997.04 447.92,-997.85"/>
</a>
</g>
</g>
<!-- Node52 -->
<g id="Node000052" class="node">
<title>Node52</title>
<g id="a_Node000052"><a xlink:href="classKelthuzadAI.html#a87f26c2128ef798ed3b4d317a3a3670e" target="_top" xlink:title=" ">
<polygon fill="white" stroke="#666666" points="298,-1252.5 143,-1252.5 143,-1233.5 298,-1233.5 298,-1252.5"/>
<text text-anchor="middle" x="220.5" y="-1240.5" font-family="Helvetica,sans-Serif" font-size="10.00">KelthuzadAI::OnCombatStart</text>
</a>
</g>
</g>
<!-- Node2&#45;&gt;Node52 -->
<g id="edge19_Node000002_Node000052" class="edge">
<title>Node2&#45;&gt;Node52</title>
<g id="a_edge19_Node000002_Node000052"><a xlink:title=" ">
<path fill="none" stroke="#63b8ff" d="M442.99,-997.63C433.41,-1044.94 402.24,-1165.67 325,-1224 317.05,-1230 307.8,-1234.31 298.16,-1237.37"/>
<polygon fill="#63b8ff" stroke="#63b8ff" points="446.44,-998.21 444.88,-987.73 439.56,-996.9 446.44,-998.21"/>
</a>
</g>
</g>
<!-- Node53 -->
<g id="Node000053" class="node">
<title>Node53</title>
<g id="a_Node000053"><a xlink:href="classCrimsonHammersmith.html#ae30ab9733d20c071fbe1c8a9ef7e741f" target="_top" xlink:title=" ">
<polygon fill="white" stroke="#666666" points="284.5,-1215 156.5,-1215 156.5,-1185 284.5,-1185 284.5,-1215"/>
<text text-anchor="start" x="164.5" y="-1203" font-family="Helvetica,sans-Serif" font-size="10.00">CrimsonHammersmith</text>
<text text-anchor="middle" x="220.5" y="-1192" font-family="Helvetica,sans-Serif" font-size="10.00">::OnCombatStart</text>
</a>
</g>
</g>
<!-- Node2&#45;&gt;Node53 -->
<g id="edge20_Node000002_Node000053" class="edge">
<title>Node2&#45;&gt;Node53</title>
<g id="a_edge20_Node000002_Node000053"><a xlink:title=" ">
<path fill="none" stroke="#63b8ff" d="M440.38,-997.34C426.65,-1037.4 389.45,-1129.58 325,-1176 313.18,-1184.52 298.79,-1190.06 284.56,-1193.66"/>
<polygon fill="#63b8ff" stroke="#63b8ff" points="443.74,-998.3 443.56,-987.71 437.1,-996.1 443.74,-998.3"/>
</a>
</g>
</g>
<!-- Node54 -->
<g id="Node000054" class="node">
<title>Node54</title>
<g id="a_Node000054"><a xlink:href="classNotOnMyWatch.html#a5fb7f1f0376de5eb17f05190e4b22482" target="_top" xlink:title=" ">
<polygon fill="white" stroke="#666666" points="307,-1166.5 134,-1166.5 134,-1147.5 307,-1147.5 307,-1166.5"/>
<text text-anchor="middle" x="220.5" y="-1154.5" font-family="Helvetica,sans-Serif" font-size="10.00">NotOnMyWatch::OnCombatStart</text>
</a>
</g>
</g>
<!-- Node2&#45;&gt;Node54 -->
<g id="edge21_Node000002_Node000054" class="edge">
<title>Node2&#45;&gt;Node54</title>
<g id="a_edge21_Node000002_Node000054"><a xlink:title=" ">
<path fill="none" stroke="#63b8ff" d="M438.01,-996.84C421.54,-1031.05 381.81,-1103.06 325,-1138 318.78,-1141.83 311.97,-1144.92 304.92,-1147.42"/>
<polygon fill="#63b8ff" stroke="#63b8ff" points="441.3,-998.06 442.37,-987.52 434.96,-995.1 441.3,-998.06"/>
</a>
</g>
</g>
<!-- Node55 -->
<g id="Node000055" class="node">
<title>Node55</title>
<g id="a_Node000055"><a xlink:href="classAntusulTriggerAI.html#ad5306280433cfbd5ab0a6535a79078aa" target="_top" xlink:title=" ">
<polygon fill="white" stroke="#666666" points="297.5,-1129 143.5,-1129 143.5,-1099 297.5,-1099 297.5,-1129"/>
<text text-anchor="start" x="151.5" y="-1117" font-family="Helvetica,sans-Serif" font-size="10.00">AntusulTriggerAI::OnCombat</text>
<text text-anchor="middle" x="220.5" y="-1106" font-family="Helvetica,sans-Serif" font-size="10.00">Start</text>
</a>
</g>
</g>
<!-- Node2&#45;&gt;Node55 -->
<g id="edge22_Node000002_Node000055" class="edge">
<title>Node2&#45;&gt;Node55</title>
<g id="a_edge22_Node000002_Node000055"><a xlink:title=" ">
<path fill="none" stroke="#63b8ff" d="M432.74,-995.45C412.08,-1020.4 370.6,-1065.89 325,-1090 316.52,-1094.48 307.22,-1098.13 297.77,-1101.11"/>
<polygon fill="#63b8ff" stroke="#63b8ff" points="435.56,-997.53 439.14,-987.56 430.13,-993.12 435.56,-997.53"/>
</a>
</g>
</g>
<!-- Node56 -->
<g id="Node000056" class="node">
<title>Node56</title>
<g id="a_Node000056"><a xlink:href="classUndead2AI.html#aae6295b74ce68cc8f5e4b122d52e1a20" target="_top" xlink:title=" ">
<polygon fill="white" stroke="#666666" points="287.5,-1080.5 153.5,-1080.5 153.5,-1061.5 287.5,-1061.5 287.5,-1080.5"/>
<text text-anchor="middle" x="220.5" y="-1068.5" font-family="Helvetica,sans-Serif" font-size="10.00">Undead2AI::OnDespawn</text>
</a>
</g>
</g>
<!-- Node2&#45;&gt;Node56 -->
<g id="edge23_Node000002_Node000056" class="edge">
<title>Node2&#45;&gt;Node56</title>
<g id="a_edge23_Node000002_Node000056"><a xlink:title=" ">
<path fill="none" stroke="#63b8ff" d="M426.57,-993.66C403.48,-1010.97 363.64,-1038.34 325,-1053 313.23,-1057.46 300.29,-1060.83 287.66,-1063.36"/>
<polygon fill="#63b8ff" stroke="#63b8ff" points="428.73,-996.41 434.56,-987.56 424.49,-990.85 428.73,-996.41"/>
</a>
</g>
</g>
<!-- Node57 -->
<g id="Node000057" class="node">
<title>Node57</title>
<g id="a_Node000057"><a xlink:href="classTriggerAI.html#ac7ce861aface8041ccd80d63bbd1f475" target="_top" xlink:title=" ">
<polygon fill="white" stroke="#666666" points="282.5,-1043.5 158.5,-1043.5 158.5,-1024.5 282.5,-1024.5 282.5,-1043.5"/>
<text text-anchor="middle" x="220.5" y="-1031.5" font-family="Helvetica,sans-Serif" font-size="10.00">TriggerAI::OnDespawn</text>
</a>
</g>
</g>
<!-- Node2&#45;&gt;Node57 -->
<g id="edge24_Node000002_Node000057" class="edge">
<title>Node2&#45;&gt;Node57</title>
<g id="a_edge24_Node000002_Node000057"><a xlink:title=" ">
<path fill="none" stroke="#63b8ff" d="M409.56,-990.94C385.66,-998.96 353.76,-1009.03 325,-1016 311.35,-1019.31 296.55,-1022.25 282.52,-1024.76"/>
<polygon fill="#63b8ff" stroke="#63b8ff" points="410.94,-994.17 419.28,-987.64 408.69,-987.54 410.94,-994.17"/>
</a>
</g>
</g>
<!-- Node58 -->
<g id="Node000058" class="node">
<title>Node58</title>
<g id="a_Node000058"><a xlink:href="classTrigger2AI.html#aa2decd8c8d4100f604d33d76bdfe6056" target="_top" xlink:title=" ">
<polygon fill="white" stroke="#666666" points="285.5,-1006.5 155.5,-1006.5 155.5,-987.5 285.5,-987.5 285.5,-1006.5"/>
<text text-anchor="middle" x="220.5" y="-994.5" font-family="Helvetica,sans-Serif" font-size="10.00">Trigger2AI::OnDespawn</text>
</a>
</g>
</g>
<!-- Node2&#45;&gt;Node58 -->
<g id="edge25_Node000002_Node000058" class="edge">
<title>Node2&#45;&gt;Node58</title>
<g id="a_edge25_Node000002_Node000058"><a xlink:title=" ">
<path fill="none" stroke="#63b8ff" d="M371.36,-984.35C343.58,-986.69 312.37,-989.33 285.66,-991.58"/>
<polygon fill="#63b8ff" stroke="#63b8ff" points="371.75,-987.82 381.42,-983.5 371.16,-980.85 371.75,-987.82"/>
</a>
</g>
</g>
<!-- Node59 -->
<g id="Node000059" class="node">
<title>Node59</title>
<g id="a_Node000059"><a xlink:href="classVaelastraszAI.html#a9211392b5d866e0c8a4a5f698d710d22" target="_top" xlink:title=" ">
<polygon fill="white" stroke="#666666" points="283,-969.5 158,-969.5 158,-950.5 283,-950.5 283,-969.5"/>
<text text-anchor="middle" x="220.5" y="-957.5" font-family="Helvetica,sans-Serif" font-size="10.00">VaelastraszAI::OnDied</text>
</a>
</g>
</g>
<!-- Node2&#45;&gt;Node59 -->
<g id="edge26_Node000002_Node000059" class="edge">
<title>Node2&#45;&gt;Node59</title>
<g id="a_edge26_Node000002_Node000059"><a xlink:title=" ">
<path fill="none" stroke="#63b8ff" d="M371.09,-971.97C342.57,-969.69 310.47,-967.12 283.34,-964.95"/>
<polygon fill="#63b8ff" stroke="#63b8ff" points="371.17,-975.48 381.42,-972.79 371.73,-968.51 371.17,-975.48"/>
</a>
</g>
</g>
<!-- Node60 -->
<g id="Node000060" class="node">
<title>Node60</title>
<g id="a_Node000060"><a xlink:href="classShadeofakamaAI.html#a118df7c143c771d09742bcbf03800fa3" target="_top" xlink:title=" ">
<polygon fill="white" stroke="#666666" points="291,-932.5 150,-932.5 150,-913.5 291,-913.5 291,-932.5"/>
<text text-anchor="middle" x="220.5" y="-920.5" font-family="Helvetica,sans-Serif" font-size="10.00">ShadeofakamaAI::OnDied</text>
</a>
</g>
</g>
<!-- Node2&#45;&gt;Node60 -->
<g id="edge27_Node000002_Node000060" class="edge">
<title>Node2&#45;&gt;Node60</title>
<g id="a_edge27_Node000002_Node000060"><a xlink:title=" ">
<path fill="none" stroke="#63b8ff" d="M380.83,-965.98C374.07,-964.2 367.35,-962.22 361,-960 344.11,-954.11 341.97,-947.67 325,-942 313.56,-938.18 301.15,-935.06 289.01,-932.55"/>
<polygon fill="#63b8ff" stroke="#63b8ff" points="380.19,-969.42 390.74,-968.42 381.87,-962.63 380.19,-969.42"/>
</a>
</g>
</g>
<!-- Node61 -->
<g id="Node000061" class="node">
<title>Node61</title>
<g id="a_Node000061"><a xlink:href="classBigBadWolfAI.html#a56165e276ee8576eaa52cca107ee09a4" target="_top" xlink:title=" ">
<polygon fill="white" stroke="#666666" points="283,-895.5 158,-895.5 158,-876.5 283,-876.5 283,-895.5"/>
<text text-anchor="middle" x="220.5" y="-883.5" font-family="Helvetica,sans-Serif" font-size="10.00">BigBadWolfAI::OnDied</text>
</a>
</g>
</g>
<!-- Node2&#45;&gt;Node61 -->
<g id="edge28_Node000002_Node000061" class="edge">
<title>Node2&#45;&gt;Node61</title>
<g id="a_edge28_Node000002_Node000061"><a xlink:title=" ">
<path fill="none" stroke="#63b8ff" d="M371.69,-966.06C367.95,-964.3 364.36,-962.29 361,-960 336.88,-943.52 349.33,-921.17 325,-905 312.67,-896.81 297.79,-891.9 283.19,-889.02"/>
<polygon fill="#63b8ff" stroke="#63b8ff" points="370.65,-969.42 381.24,-969.95 373.29,-962.94 370.65,-969.42"/>
</a>
</g>
</g>
<!-- Node62 -->
<g id="Node000062" class="node">
<title>Node62</title>
<g id="a_Node000062"><a xlink:href="classTHEBIGBADWOLFAI.html#ab42ae66caca5d78418cc8a15da7c518d" target="_top" xlink:title=" ">
<polygon fill="white" stroke="#666666" points="297,-858.5 144,-858.5 144,-839.5 297,-839.5 297,-858.5"/>
<text text-anchor="middle" x="220.5" y="-846.5" font-family="Helvetica,sans-Serif" font-size="10.00">THEBIGBADWOLFAI::OnDied</text>
</a>
</g>
</g>
<!-- Node2&#45;&gt;Node62 -->
<g id="edge29_Node000002_Node000062" class="edge">
<title>Node2&#45;&gt;Node62</title>
<g id="a_edge29_Node000002_Node000062"><a xlink:title=" ">
<path fill="none" stroke="#63b8ff" d="M371.84,-967.28C367.97,-965.22 364.32,-962.81 361,-960 327.49,-931.62 358.87,-895.94 325,-868 316.9,-861.32 307.21,-856.68 297.06,-853.5"/>
<polygon fill="#63b8ff" stroke="#63b8ff" points="370.63,-970.57 381.19,-971.48 373.5,-964.19 370.63,-970.57"/>
</a>
</g>
</g>
<!-- Node63 -->
<g id="Node000063" class="node">
<title>Node63</title>
<g id="a_Node000063"><a xlink:href="classRazuviousAI.html#a036e5cd04ccada2eca114f3b802dc8d1" target="_top" xlink:title=" ">
<polygon fill="white" stroke="#666666" points="280,-821.5 161,-821.5 161,-802.5 280,-802.5 280,-821.5"/>
<text text-anchor="middle" x="220.5" y="-809.5" font-family="Helvetica,sans-Serif" font-size="10.00">RazuviousAI::OnDied</text>
</a>
</g>
</g>
<!-- Node2&#45;&gt;Node63 -->
<g id="edge30_Node000002_Node000063" class="edge">
<title>Node2&#45;&gt;Node63</title>
<g id="a_edge30_Node000002_Node000063"><a xlink:title=" ">
<path fill="none" stroke="#63b8ff" d="M372.03,-967.97C368.05,-965.75 364.33,-963.12 361,-960 317.57,-919.29 368.95,-871.14 325,-831 312.79,-819.85 296.28,-814.21 280.03,-811.58"/>
<polygon fill="#63b8ff" stroke="#63b8ff" points="370.57,-971.15 381.11,-972.2 373.53,-964.81 370.57,-971.15"/>
</a>
</g>
</g>
<!-- Node64 -->
<g id="Node000064" class="node">
<title>Node64</title>
<g id="a_Node000064"><a xlink:href="classKelthuzadAI.html#a5f47708782dd61569657acaab72849a8" target="_top" xlink:title=" ">
<polygon fill="white" stroke="#666666" points="278.5,-784.5 162.5,-784.5 162.5,-765.5 278.5,-765.5 278.5,-784.5"/>
<text text-anchor="middle" x="220.5" y="-772.5" font-family="Helvetica,sans-Serif" font-size="10.00">KelthuzadAI::OnDied</text>
</a>
</g>
</g>
<!-- Node2&#45;&gt;Node64 -->
<g id="edge31_Node000002_Node000064" class="edge">
<title>Node2&#45;&gt;Node64</title>
<g id="a_edge31_Node000002_Node000064"><a xlink:title=" ">
<path fill="none" stroke="#63b8ff" d="M372.05,-968.33C368.03,-966.03 364.3,-963.28 361,-960 307.46,-906.78 379.23,-846.52 325,-794 312.66,-782.05 295.43,-776.32 278.56,-773.84"/>
<polygon fill="#63b8ff" stroke="#63b8ff" points="370.7,-971.56 381.23,-972.69 373.7,-965.24 370.7,-971.56"/>
</a>
</g>
</g>
<!-- Node65 -->
<g id="Node000065" class="node">
<title>Node65</title>
<g id="a_Node000065"><a xlink:href="classGuardRoberts.html#a3350d0de08d8ea30444b756d7dc92dba" target="_top" xlink:title=" ">
<polygon fill="white" stroke="#666666" points="283,-747.5 158,-747.5 158,-728.5 283,-728.5 283,-747.5"/>
<text text-anchor="middle" x="220.5" y="-735.5" font-family="Helvetica,sans-Serif" font-size="10.00">GuardRoberts::OnDied</text>
</a>
</g>
</g>
<!-- Node2&#45;&gt;Node65 -->
<g id="edge32_Node000002_Node000065" class="edge">
<title>Node2&#45;&gt;Node65</title>
<g id="a_edge32_Node000002_Node000065"><a xlink:title=" ">
<path fill="none" stroke="#63b8ff" d="M372.12,-968.61C368.06,-966.24 364.29,-963.4 361,-960 297.25,-894.18 389.6,-821.99 325,-757 313.92,-745.86 298.61,-740.06 283.15,-737.27"/>
<polygon fill="#63b8ff" stroke="#63b8ff" points="370.92,-971.91 381.45,-973.06 373.93,-965.59 370.92,-971.91"/>
</a>
</g>
</g>
<!-- Node66 -->
<g id="Node000066" class="node">
<title>Node66</title>
<g id="a_Node000066"><a xlink:href="classHighChiefBristlelimb.html#af9bab4324be2e2c09716fe76afb96a64" target="_top" xlink:title=" ">
<polygon fill="white" stroke="#666666" points="279.5,-710 161.5,-710 161.5,-680 279.5,-680 279.5,-710"/>
<text text-anchor="start" x="169.5" y="-698" font-family="Helvetica,sans-Serif" font-size="10.00">HighChiefBristlelimb</text>
<text text-anchor="middle" x="220.5" y="-687" font-family="Helvetica,sans-Serif" font-size="10.00">::OnDied</text>
</a>
</g>
</g>
<!-- Node2&#45;&gt;Node66 -->
<g id="edge33_Node000002_Node000066" class="edge">
<title>Node2&#45;&gt;Node66</title>
<g id="a_edge33_Node000002_Node000066"><a xlink:title=" ">
<path fill="none" stroke="#63b8ff" d="M372.02,-968.71C367.98,-966.32 364.25,-963.45 361,-960 287,-881.53 397.84,-799.55 325,-720 313.33,-707.25 296.38,-700.48 279.56,-697.02"/>
<polygon fill="#63b8ff" stroke="#63b8ff" points="370.78,-971.99 381.31,-973.2 373.83,-965.69 370.78,-971.99"/>
</a>
</g>
</g>
<!-- Node67 -->
<g id="Node000067" class="node">
<title>Node67</title>
<g id="a_Node000067"><a xlink:href="classNightlash.html#aa794c56a01e5f49147934902a679f369" target="_top" xlink:title=" ">
<polygon fill="white" stroke="#666666" points="273,-661.5 168,-661.5 168,-642.5 273,-642.5 273,-661.5"/>
<text text-anchor="middle" x="220.5" y="-649.5" font-family="Helvetica,sans-Serif" font-size="10.00">Nightlash::OnDied</text>
</a>
</g>
</g>
<!-- Node2&#45;&gt;Node67 -->
<g id="edge34_Node000002_Node000067" class="edge">
<title>Node2&#45;&gt;Node67</title>
<g id="a_edge34_Node000002_Node000067"><a xlink:title=" ">
<path fill="none" stroke="#63b8ff" d="M371.92,-968.8C367.9,-966.39 364.21,-963.49 361,-960 273.38,-864.73 413.85,-765.12 325,-671 311.77,-656.98 291.87,-651.29 273.04,-649.45"/>
<polygon fill="#63b8ff" stroke="#63b8ff" points="370.65,-972.07 381.17,-973.33 373.72,-965.79 370.65,-972.07"/>
</a>
</g>
</g>
<!-- Node68 -->
<g id="Node000068" class="node">
<title>Node68</title>
<g id="a_Node000068"><a xlink:href="classTakenInTheNight.html#ae37ab3c93ef0f38f5e1e45a4c6ac32d0" target="_top" xlink:title=" ">
<polygon fill="white" stroke="#666666" points="290.5,-624.5 150.5,-624.5 150.5,-605.5 290.5,-605.5 290.5,-624.5"/>
<text text-anchor="middle" x="220.5" y="-612.5" font-family="Helvetica,sans-Serif" font-size="10.00">TakenInTheNight::OnDied</text>
</a>
</g>
</g>
<!-- Node2&#45;&gt;Node68 -->
<g id="edge35_Node000002_Node000068" class="edge">
<title>Node2&#45;&gt;Node68</title>
<g id="a_edge35_Node000002_Node000068"><a xlink:title=" ">
<path fill="none" stroke="#63b8ff" d="M371.86,-968.85C367.86,-966.43 364.18,-963.51 361,-960 263.07,-852.02 424.32,-740.7 325,-634 315.91,-624.24 303.59,-618.5 290.62,-615.28"/>
<polygon fill="#63b8ff" stroke="#63b8ff" points="370.57,-972.12 381.09,-973.4 373.66,-965.84 370.57,-972.12"/>
</a>
</g>
</g>
<!-- Node69 -->
<g id="Node000069" class="node">
<title>Node69</title>
<g id="a_Node000069"><a xlink:href="classVerogtheDervish.html#a8a7a979fd746155f78ecd54a0c5df5af" target="_top" xlink:title=" ">
<polygon fill="white" stroke="#666666" points="290.5,-587.5 150.5,-587.5 150.5,-568.5 290.5,-568.5 290.5,-587.5"/>
<text text-anchor="middle" x="220.5" y="-575.5" font-family="Helvetica,sans-Serif" font-size="10.00">VerogtheDervish::OnDied</text>
</a>
</g>
</g>
<!-- Node2&#45;&gt;Node69 -->
<g id="edge36_Node000002_Node000069" class="edge">
<title>Node2&#45;&gt;Node69</title>
<g id="a_edge36_Node000002_Node000069"><a xlink:title=" ">
<path fill="none" stroke="#63b8ff" d="M372.37,-969.22C368.16,-966.73 364.31,-963.69 361,-960 306.88,-899.65 379.9,-656.64 325,-597 315.97,-587.19 303.67,-581.43 290.71,-578.2"/>
<polygon fill="#63b8ff" stroke="#63b8ff" points="370.92,-972.41 381.45,-973.62 373.97,-966.11 370.92,-972.41"/>
</a>
</g>
</g>
<!-- Node70 -->
<g id="Node000070" class="node">
<title>Node70</title>
<g id="a_Node000070"><a xlink:href="classWoodlandWalkerGossip.html#a8e97187774f46c01fae382346a79536d" target="_top" xlink:title=" ">
<polygon fill="white" stroke="#666666" points="286,-550 155,-550 155,-520 286,-520 286,-550"/>
<text text-anchor="start" x="163" y="-538" font-family="Helvetica,sans-Serif" font-size="10.00">WoodlandWalkerGossip</text>
<text text-anchor="middle" x="220.5" y="-527" font-family="Helvetica,sans-Serif" font-size="10.00">::onHello</text>
</a>
</g>
</g>
<!-- Node2&#45;&gt;Node70 -->
<g id="edge37_Node000002_Node000070" class="edge">
<title>Node2&#45;&gt;Node70</title>
<g id="a_edge37_Node000002_Node000070"><a xlink:title=" ">
<path fill="none" stroke="#63b8ff" d="M372.33,-969.26C368.13,-966.75 364.29,-963.7 361,-960 301.71,-893.29 383.29,-627.58 325,-560 315.1,-548.52 300.92,-541.83 286.22,-538.04"/>
<polygon fill="#63b8ff" stroke="#63b8ff" points="370.87,-972.44 381.39,-973.67 373.93,-966.15 370.87,-972.44"/>
</a>
</g>
</g>
<!-- Node71 -->
<g id="Node000071" class="node">
<title>Node71</title>
<g id="a_Node000071"><a xlink:href="classDustySpellbooks.html#a3c0ad47b57bc9c97f4f9ef0289de12c8" target="_top" xlink:title=" ">
<polygon fill="white" stroke="#666666" points="304,-501.5 137,-501.5 137,-482.5 304,-482.5 304,-501.5"/>
<text text-anchor="middle" x="220.5" y="-489.5" font-family="Helvetica,sans-Serif" font-size="10.00">DustySpellbooks::OnLootTaken</text>
</a>
</g>
</g>
<!-- Node2&#45;&gt;Node71 -->
<g id="edge38_Node000002_Node000071" class="edge">
<title>Node2&#45;&gt;Node71</title>
<g id="a_edge38_Node000002_Node000071"><a xlink:title=" ">
<path fill="none" stroke="#63b8ff" d="M372.29,-969.3C368.1,-966.78 364.27,-963.72 361,-960 294.87,-884.86 392.1,-585.28 325,-511 319.24,-504.63 312.11,-499.96 304.31,-496.57"/>
<polygon fill="#63b8ff" stroke="#63b8ff" points="370.82,-972.47 381.34,-973.72 373.89,-966.18 370.82,-972.47"/>
</a>
</g>
</g>
<!-- Node72 -->
<g id="Node000072" class="node">
<title>Node72</title>
<g id="a_Node000072"><a xlink:href="classQuest__The__Ring__of__Blood__The__Warmaul__Champion.html#a68fdfb2ba0dc143b42a8367d9292745d" target="_top" xlink:title=" ">
<polygon fill="white" stroke="#666666" points="292,-464.5 149,-464.5 149,-423.5 292,-423.5 292,-464.5"/>
<text text-anchor="start" x="157" y="-452.5" font-family="Helvetica,sans-Serif" font-size="10.00">Quest_The_Ring_of_Blood</text>
<text text-anchor="start" x="157" y="-441.5" font-family="Helvetica,sans-Serif" font-size="10.00">_The_Warmaul_Champion</text>
<text text-anchor="middle" x="220.5" y="-430.5" font-family="Helvetica,sans-Serif" font-size="10.00">::OnQuestComplete</text>
</a>
</g>
</g>
<!-- Node2&#45;&gt;Node72 -->
<g id="edge39_Node000002_Node000072" class="edge">
<title>Node2&#45;&gt;Node72</title>
<g id="a_edge39_Node000002_Node000072"><a xlink:title=" ">
<path fill="none" stroke="#63b8ff" d="M372.27,-969.32C368.08,-966.8 364.26,-963.73 361,-960 289.7,-878.48 393.21,-558.12 325,-474 316.58,-463.61 304.78,-456.68 292.16,-452.1"/>
<polygon fill="#63b8ff" stroke="#63b8ff" points="370.78,-972.49 381.3,-973.75 373.86,-966.2 370.78,-972.49"/>
</a>
</g>
</g>
<!-- Node73 -->
<g id="Node000073" class="node">
<title>Node73</title>
<g id="a_Node000073"><a xlink:href="classQuest__The__Ring__of__Blood__Skragath.html#a3c68d7a20379be6e685e1b4fb7b0576d" target="_top" xlink:title=" ">
<polygon fill="white" stroke="#666666" points="301,-405 140,-405 140,-375 301,-375 301,-405"/>
<text text-anchor="start" x="148" y="-393" font-family="Helvetica,sans-Serif" font-size="10.00">Quest_The_Ring_of_Blood</text>
<text text-anchor="middle" x="220.5" y="-382" font-family="Helvetica,sans-Serif" font-size="10.00">_Skragath::OnQuestComplete</text>
</a>
</g>
</g>
<!-- Node2&#45;&gt;Node73 -->
<g id="edge40_Node000002_Node000073" class="edge">
<title>Node2&#45;&gt;Node73</title>
<g id="a_edge40_Node000002_Node000073"><a xlink:title=" ">
<path fill="none" stroke="#63b8ff" d="M372.23,-969.35C368.06,-966.82 364.25,-963.74 361,-960 281.46,-868.32 403.18,-507.84 325,-415 318.57,-407.36 310.25,-401.84 301.12,-397.87"/>
<polygon fill="#63b8ff" stroke="#63b8ff" points="370.74,-972.51 381.26,-973.79 373.83,-966.23 370.74,-972.51"/>
</a>
</g>
</g>
<!-- Node74 -->
<g id="Node000074" class="node">
<title>Node74</title>
<g id="a_Node000074"><a xlink:href="classQuest__The__Ring__of__Blood__Rokdar__the__Sundered__Lord.html#a318175cd1b21f6b40d84c8f06caccb81" target="_top" xlink:title=" ">
<polygon fill="white" stroke="#666666" points="298,-356.5 143,-356.5 143,-315.5 298,-315.5 298,-356.5"/>
<text text-anchor="start" x="151" y="-344.5" font-family="Helvetica,sans-Serif" font-size="10.00">Quest_The_Ring_of_Blood</text>
<text text-anchor="start" x="151" y="-333.5" font-family="Helvetica,sans-Serif" font-size="10.00">_Rokdar_the_Sundered_Lord</text>
<text text-anchor="middle" x="220.5" y="-322.5" font-family="Helvetica,sans-Serif" font-size="10.00">::OnQuestComplete</text>
</a>
</g>
</g>
<!-- Node2&#45;&gt;Node74 -->
<g id="edge41_Node000002_Node000074" class="edge">
<title>Node2&#45;&gt;Node74</title>
<g id="a_edge41_Node000002_Node000074"><a xlink:title=" ">
<path fill="none" stroke="#63b8ff" d="M372.21,-969.37C368.04,-966.84 364.24,-963.75 361,-960 274.61,-859.88 407.6,-469.28 325,-366 317.93,-357.16 308.42,-350.82 298.02,-346.3"/>
<polygon fill="#63b8ff" stroke="#63b8ff" points="370.71,-972.53 381.22,-973.82 373.81,-966.25 370.71,-972.53"/>
</a>
</g>
</g>
<!-- Node75 -->
<g id="Node000075" class="node">
<title>Node75</title>
<g id="a_Node000075"><a xlink:href="classQuest__The__Ring__of__Blood__The__Blue__Brothers.html#a5918c6aa4d0f89095b410e4c4d0ff877" target="_top" xlink:title=" ">
<polygon fill="white" stroke="#666666" points="325,-297 116,-297 116,-267 325,-267 325,-297"/>
<text text-anchor="start" x="124" y="-285" font-family="Helvetica,sans-Serif" font-size="10.00">Quest_The_Ring_of_Blood</text>
<text text-anchor="middle" x="220.5" y="-274" font-family="Helvetica,sans-Serif" font-size="10.00">_The_Blue_Brothers::OnQuestComplete</text>
</a>
</g>
</g>
<!-- Node2&#45;&gt;Node75 -->
<g id="edge42_Node000002_Node000075" class="edge">
<title>Node2&#45;&gt;Node75</title>
<g id="a_edge42_Node000002_Node000075"><a xlink:title=" ">
<path fill="none" stroke="#63b8ff" d="M372.19,-969.39C368.02,-966.85 364.23,-963.76 361,-960 266.36,-849.71 418,-418.68 325,-307 321.81,-303.16 318.13,-299.86 314.12,-297.02"/>
<polygon fill="#63b8ff" stroke="#63b8ff" points="370.68,-972.55 381.19,-973.84 373.78,-966.27 370.68,-972.55"/>
</a>
</g>
</g>
<!-- Node76 -->
<g id="Node000076" class="node">
<title>Node76</title>
<g id="a_Node000076"><a xlink:href="classQuest__The__Ring__of__Blood__Brokentoe.html#a5d977fbe740e8336b9a9f6bea4e4c7ea" target="_top" xlink:title=" ">
<polygon fill="white" stroke="#666666" points="304,-249 137,-249 137,-219 304,-219 304,-249"/>
<text text-anchor="start" x="145" y="-237" font-family="Helvetica,sans-Serif" font-size="10.00">Quest_The_Ring_of_Blood</text>
<text text-anchor="middle" x="220.5" y="-226" font-family="Helvetica,sans-Serif" font-size="10.00">_Brokentoe::OnQuestComplete</text>
</a>
</g>
</g>
<!-- Node2&#45;&gt;Node76 -->
<g id="edge43_Node000002_Node000076" class="edge">
<title>Node2&#45;&gt;Node76</title>
<g id="a_edge43_Node000002_Node000076"><a xlink:title=" ">
<path fill="none" stroke="#63b8ff" d="M372.17,-969.4C368.01,-966.86 364.22,-963.77 361,-960 259.5,-841.26 425.28,-377.76 325,-258 319.32,-251.21 312.12,-246.13 304.19,-242.34"/>
<polygon fill="#63b8ff" stroke="#63b8ff" points="370.66,-972.56 381.17,-973.86 373.76,-966.29 370.66,-972.56"/>
</a>
</g>
</g>
<!-- Node77 -->
<g id="Node000077" class="node">
<title>Node77</title>
<g id="a_Node000077"><a xlink:href="classBloodscalpClanHeads.html#afa5b972319a5c153e1495dc0591f5d35" target="_top" xlink:title=" ">
<polygon fill="white" stroke="#666666" points="281.5,-201 159.5,-201 159.5,-171 281.5,-171 281.5,-201"/>
<text text-anchor="start" x="167.5" y="-189" font-family="Helvetica,sans-Serif" font-size="10.00">BloodscalpClanHeads</text>
<text text-anchor="middle" x="220.5" y="-178" font-family="Helvetica,sans-Serif" font-size="10.00">::OnQuestComplete</text>
</a>
</g>
</g>
<!-- Node2&#45;&gt;Node77 -->
<g id="edge44_Node000002_Node000077" class="edge">
<title>Node2&#45;&gt;Node77</title>
<g id="a_edge44_Node000002_Node000077"><a xlink:title=" ">
<path fill="none" stroke="#63b8ff" d="M372.15,-969.41C368,-966.87 364.21,-963.77 361,-960 306.89,-896.49 378.46,-274.05 325,-210 314.25,-197.11 298.06,-190.35 281.66,-187"/>
<polygon fill="#63b8ff" stroke="#63b8ff" points="370.64,-972.57 381.15,-973.88 373.75,-966.3 370.64,-972.57"/>
</a>
</g>
</g>
<!-- Node78 -->
<g id="Node000078" class="node">
<title>Node78</title>
<g id="a_Node000078"><a xlink:href="classBacktoBootyBay.html#a4c1da22041cd01f4e5c67aa9f67c974d" target="_top" xlink:title=" ">
<polygon fill="white" stroke="#666666" points="316.5,-152.5 124.5,-152.5 124.5,-133.5 316.5,-133.5 316.5,-152.5"/>
<text text-anchor="middle" x="220.5" y="-140.5" font-family="Helvetica,sans-Serif" font-size="10.00">BacktoBootyBay::OnQuestComplete</text>
</a>
</g>
</g>
<!-- Node2&#45;&gt;Node78 -->
<g id="edge45_Node000002_Node000078" class="edge">
<title>Node2&#45;&gt;Node78</title>
<g id="a_edge45_Node000002_Node000078"><a xlink:title=" ">
<path fill="none" stroke="#63b8ff" d="M372.14,-969.42C367.99,-966.88 364.21,-963.78 361,-960 303.54,-892.36 383.34,-228.89 325,-162 321.88,-158.42 318.32,-155.37 314.45,-152.78"/>
<polygon fill="#63b8ff" stroke="#63b8ff" points="370.62,-972.58 381.13,-973.9 373.74,-966.31 370.62,-972.58"/>
</a>
</g>
</g>
<!-- Node79 -->
<g id="Node000079" class="node">
<title>Node79</title>
<g id="a_Node000079"><a xlink:href="classVoodooDues.html#ac93d8485f4fc170d1413153200cb5360" target="_top" xlink:title=" ">
<polygon fill="white" stroke="#666666" points="307,-115.5 134,-115.5 134,-96.5 307,-96.5 307,-115.5"/>
<text text-anchor="middle" x="220.5" y="-103.5" font-family="Helvetica,sans-Serif" font-size="10.00">VoodooDues::OnQuestComplete</text>
</a>
</g>
</g>
<!-- Node2&#45;&gt;Node79 -->
<g id="edge46_Node000002_Node000079" class="edge">
<title>Node2&#45;&gt;Node79</title>
<g id="a_edge46_Node000002_Node000079"><a xlink:title=" ">
<path fill="none" stroke="#63b8ff" d="M372.13,-969.43C367.98,-966.89 364.2,-963.78 361,-960 300.95,-889.17 385.96,-195.05 325,-125 320.08,-119.35 314.09,-115.02 307.48,-111.74"/>
<polygon fill="#63b8ff" stroke="#63b8ff" points="370.61,-972.58 381.12,-973.9 373.73,-966.32 370.61,-972.58"/>
</a>
</g>
</g>
<!-- Node80 -->
<g id="Node000080" class="node">
<title>Node80</title>
<g id="a_Node000080"><a xlink:href="classRumorsforKravel.html#a143c789e7188b335f866bd776520bd9f" target="_top" xlink:title=" ">
<polygon fill="white" stroke="#666666" points="294,-78 147,-78 147,-48 294,-48 294,-78"/>
<text text-anchor="start" x="155" y="-66" font-family="Helvetica,sans-Serif" font-size="10.00">RumorsforKravel::OnQuest</text>
<text text-anchor="middle" x="220.5" y="-55" font-family="Helvetica,sans-Serif" font-size="10.00">Complete</text>
</a>
</g>
</g>
<!-- Node2&#45;&gt;Node80 -->
<g id="edge47_Node000002_Node000080" class="edge">
<title>Node2&#45;&gt;Node80</title>
<g id="a_edge47_Node000002_Node000080"><a xlink:title=" ">
<path fill="none" stroke="#63b8ff" d="M372.13,-969.44C367.97,-966.89 364.2,-963.78 361,-960 298.36,-885.97 386.54,-162.94 325,-88 317.02,-78.29 305.98,-71.97 294.06,-67.93"/>
<polygon fill="#63b8ff" stroke="#63b8ff" points="370.6,-972.59 381.11,-973.91 373.72,-966.32 370.6,-972.59"/>
</a>
</g>
</g>
<!-- Node81 -->
<g id="Node000081" class="node">
<title>Node81</title>
<g id="a_Node000081"><a xlink:href="classTheDormantShade.html#af98148cea0ab52f6fdaa2b63215e42a8" target="_top" xlink:title=" ">
<polygon fill="white" stroke="#666666" points="298,-30 143,-30 143,0 298,0 298,-30"/>
<text text-anchor="start" x="151" y="-18" font-family="Helvetica,sans-Serif" font-size="10.00">TheDormantShade::OnQuest</text>
<text text-anchor="middle" x="220.5" y="-7" font-family="Helvetica,sans-Serif" font-size="10.00">Complete</text>
</a>
</g>
</g>
<!-- Node2&#45;&gt;Node81 -->
<g id="edge48_Node000002_Node000081" class="edge">
<title>Node2&#45;&gt;Node81</title>
<g id="a_edge48_Node000002_Node000081"><a xlink:title=" ">
<path fill="none" stroke="#63b8ff" d="M372.12,-969.45C367.97,-966.9 364.2,-963.78 361,-960 294.93,-881.75 390.27,-117.92 325,-39 317.95,-30.47 308.51,-24.62 298.21,-20.67"/>
<polygon fill="#63b8ff" stroke="#63b8ff" points="370.59,-972.6 381.1,-973.93 373.71,-966.33 370.59,-972.6"/>
</a>
</g>
</g>
<!-- Node40&#45;&gt;Node17 -->
<g id="edge15_Node000040_Node000017" class="edge">
<title>Node40&#45;&gt;Node17</title>
<g id="a_edge15_Node000040_Node000017"><a xlink:title=" ">
<path fill="none" stroke="#63b8ff" d="M154.49,-1402.38C141.7,-1404.77 128.41,-1407.37 116,-1410 103.95,-1412.55 90.87,-1415.59 79.06,-1418.44"/>
<polygon fill="#63b8ff" stroke="#63b8ff" points="155.41,-1405.77 164.6,-1400.51 154.13,-1398.89 155.41,-1405.77"/>
</a>
</g>
</g>
</g>
</svg>
