<?xml version="1.0" encoding="UTF-8" standalone="no"?>
<!DOCTYPE svg PUBLIC "-//W3C//DTD SVG 1.1//EN"
 "http://www.w3.org/Graphics/SVG/1.1/DTD/svg11.dtd">
<!-- Generated by graphviz version 2.43.0 (0)
 -->
<!-- Title: G3D::Rect2D::border Pages: 1 -->
<!--zoomable 250 -->

<svg id="main" version="1.1" xmlns="http://www.w3.org/2000/svg" xmlns:xlink="http://www.w3.org/1999/xlink" xml:space="preserve" onload="init(evt)">
<style type="text/css"><![CDATA[
.node, .edge {opacity: 0.7;}
.node.selected, .edge.selected {opacity: 1;}
.edge:hover path { stroke: red; }
.edge:hover polygon { stroke: red; fill: red; }
]]></style>

<defs>
  <circle id="rim" cx="0" cy="0" r="7"/>
  <circle id="rim2" cx="0" cy="0" r="3.5"/>
  <g id="zoomPlus">
    <use xlink:href="#rim" fill="#404040"><set attributeName="fill" to="#808080" begin="zoomplus.mouseover" end="zoomplus.mouseout"/></use>
    <path d="M-4,0h8M0,-4v8" fill="none" stroke="white" stroke-width="1.5" pointer-events="none"/>
  </g>
  <g id="zoomMin">
    <use xlink:href="#rim" fill="#404040"><set attributeName="fill" to="#808080" begin="zoomminus.mouseover" end="zoomminus.mouseout"/></use>
    <path d="M-4,0h8" fill="none" stroke="white" stroke-width="1.5" pointer-events="none"/>
  </g>
  <g id="arrowUp" transform="translate(30 24)">
    <use xlink:href="#rim"/>
    <path pointer-events="none" fill="none" stroke="white" stroke-width="1.5" d="M0,-3.0v7 M-2.5,-0.5L0,-3.0L2.5,-0.5"/>
  </g>
  <g id="arrowRight" transform="rotate(90) translate(36 -43)">
    <use xlink:href="#rim"/>
    <path pointer-events="none" fill="none" stroke="white" stroke-width="1.5" d="M0,-3.0v7 M-2.5,-0.5L0,-3.0L2.5,-0.5"/>
  </g>
  <g id="arrowDown" transform="rotate(180) translate(-30 -48)">
    <use xlink:href="#rim"/>
    <path pointer-events="none" fill="none" stroke="white" stroke-width="1.5" d="M0,-3.0v7 M-2.5,-0.5L0,-3.0L2.5,-0.5"/>
  </g>
  <g id="arrowLeft" transform="rotate(270) translate(-36 17)">
    <use xlink:href="#rim"/>
    <path pointer-events="none" fill="none" stroke="white" stroke-width="1.5" d="M0,-3.0v7 M-2.5,-0.5L0,-3.0L2.5,-0.5"/>
  </g>
  <g id="resetDef">
    <use xlink:href="#rim2" fill="#404040"><set attributeName="fill" to="#808080" begin="reset.mouseover" end="reset.mouseout"/></use>
  </g>
</defs>
<script type="application/ecmascript">
var viewWidth = 698;
var viewHeight = 250;
var sectionId = 'dynsection-4';
</script>
<script type="application/ecmascript" xlink:href="svg.min.js"/>
<svg id="graph" class="graph">
<g id="viewport">
<title>G3D::Rect2D::border</title>
<!-- Node1 -->
<g id="Node000001" class="node">
<title>Node1</title>
<g id="a_Node000001"><a xlink:title=" ">
<polygon fill="#999999" stroke="#666666" points="116,-167 0,-167 0,-148 116,-148 116,-167"/>
<text text-anchor="middle" x="58" y="-155" font-family="Helvetica,sans-Serif" font-size="10.00">G3D::Rect2D::border</text>
</a>
</g>
</g>
<!-- Node2 -->
<g id="Node000002" class="node">
<title>Node2</title>
<g id="a_Node000002"><a xlink:href="classG3D_1_1Rect2D.html#af450afee5813781e6a6ef305c878bd74" target="_top" xlink:title=" ">
<polygon fill="white" stroke="#666666" points="268,-242 152,-242 152,-223 268,-223 268,-242"/>
<text text-anchor="middle" x="210" y="-230" font-family="Helvetica,sans-Serif" font-size="10.00">G3D::Rect2D::height</text>
</a>
</g>
</g>
<!-- Node1&#45;&gt;Node2 -->
<g id="edge1_Node000001_Node000002" class="edge">
<title>Node1&#45;&gt;Node2</title>
<g id="a_edge1_Node000001_Node000002"><a xlink:title=" ">
<path fill="none" stroke="#63b8ff" d="M72.28,-167.09C89.83,-179.41 122.02,-200.83 152,-214.5 156.04,-216.34 160.32,-218.07 164.65,-219.67"/>
<polygon fill="#63b8ff" stroke="#63b8ff" points="163.53,-222.99 174.13,-222.97 165.84,-216.38 163.53,-222.99"/>
</a>
</g>
</g>
<!-- Node6 -->
<g id="Node000006" class="node">
<title>Node6</title>
<g id="a_Node000006"><a xlink:href="classG3D_1_1Rect2D.html#a2c1404f1155b871d90665e6c41183ad2" target="_top" xlink:title=" ">
<polygon fill="white" stroke="#666666" points="266,-205 154,-205 154,-186 266,-186 266,-205"/>
<text text-anchor="middle" x="210" y="-193" font-family="Helvetica,sans-Serif" font-size="10.00">G3D::Rect2D::width</text>
</a>
</g>
</g>
<!-- Node1&#45;&gt;Node6 -->
<g id="edge5_Node000001_Node000006" class="edge">
<title>Node1&#45;&gt;Node6</title>
<g id="a_edge5_Node000001_Node000006"><a xlink:title=" ">
<path fill="none" stroke="#63b8ff" d="M96.85,-167.09C116.47,-172.06 140.62,-178.18 161.48,-183.46"/>
<polygon fill="#63b8ff" stroke="#63b8ff" points="160.87,-186.92 171.42,-185.98 162.59,-180.13 160.87,-186.92"/>
</a>
</g>
</g>
<!-- Node7 -->
<g id="Node000007" class="node">
<title>Node7</title>
<g id="a_Node000007"><a xlink:href="classG3D_1_1Rect2D.html#a0d826656fa6f48044c102e341152faed" target="_top" xlink:title=" ">
<polygon fill="white" stroke="#666666" points="571.5,-204 474.5,-204 474.5,-185 571.5,-185 571.5,-204"/>
<text text-anchor="middle" x="523" y="-192" font-family="Helvetica,sans-Serif" font-size="10.00">G3D::Rect2D::x0</text>
</a>
</g>
</g>
<!-- Node1&#45;&gt;Node7 -->
<g id="edge7_Node000001_Node000007" class="edge">
<title>Node1&#45;&gt;Node7</title>
<g id="a_edge7_Node000001_Node000007"><a xlink:title=" ">
<path fill="none" stroke="#63b8ff" d="M116.24,-162.07C205.02,-169.17 374.98,-182.75 464.14,-189.88"/>
<polygon fill="#63b8ff" stroke="#63b8ff" points="464.1,-193.38 474.35,-190.69 464.66,-186.41 464.1,-193.38"/>
</a>
</g>
</g>
<!-- Node8 -->
<g id="Node000008" class="node">
<title>Node8</title>
<g id="a_Node000008"><a xlink:href="classG3D_1_1Rect2D.html#a0536adbd113044ccb1cf3ad81660cbb0" target="_top" xlink:title=" ">
<polygon fill="white" stroke="#666666" points="265.5,-129 154.5,-129 154.5,-110 265.5,-110 265.5,-129"/>
<text text-anchor="middle" x="210" y="-117" font-family="Helvetica,sans-Serif" font-size="10.00">G3D::Rect2D::xywh</text>
</a>
</g>
</g>
<!-- Node1&#45;&gt;Node8 -->
<g id="edge8_Node000001_Node000008" class="edge">
<title>Node1&#45;&gt;Node8</title>
<g id="a_edge8_Node000001_Node000008"><a xlink:title=" ">
<path fill="none" stroke="#63b8ff" d="M96.85,-147.91C116.47,-142.94 140.62,-136.82 161.48,-131.54"/>
<polygon fill="#63b8ff" stroke="#63b8ff" points="162.59,-134.87 171.42,-129.02 160.87,-128.08 162.59,-134.87"/>
</a>
</g>
</g>
<!-- Node13 -->
<g id="Node000013" class="node">
<title>Node13</title>
<g id="a_Node000013"><a xlink:href="classG3D_1_1Rect2D.html#aea07e130bf8ea624e47e875cfbc85524" target="_top" xlink:title=" ">
<polygon fill="white" stroke="#666666" points="571.5,-19 474.5,-19 474.5,0 571.5,0 571.5,-19"/>
<text text-anchor="middle" x="523" y="-7" font-family="Helvetica,sans-Serif" font-size="10.00">G3D::Rect2D::y0</text>
</a>
</g>
</g>
<!-- Node1&#45;&gt;Node13 -->
<g id="edge16_Node000001_Node000013" class="edge">
<title>Node1&#45;&gt;Node13</title>
<g id="a_edge16_Node000001_Node000013"><a xlink:title=" ">
<path fill="none" stroke="#63b8ff" d="M72.19,-147.81C89.63,-135.41 121.7,-114.05 152,-101.5 258,-57.57 390.1,-30.95 464.35,-18.34"/>
<polygon fill="#63b8ff" stroke="#63b8ff" points="465.15,-21.76 474.43,-16.65 463.99,-14.85 465.15,-21.76"/>
</a>
</g>
</g>
<!-- Node3 -->
<g id="Node000003" class="node">
<title>Node3</title>
<g id="a_Node000003"><a xlink:href="classG3D_1_1Rect2D.html#ac4e1f2fa48b25e14e7d316824626a217" target="_top" xlink:title=" ">
<polygon fill="white" stroke="#666666" points="429,-242 304,-242 304,-223 429,-223 429,-242"/>
<text text-anchor="middle" x="366.5" y="-230" font-family="Helvetica,sans-Serif" font-size="10.00">G3D::Rect2D::isEmpty</text>
</a>
</g>
</g>
<!-- Node2&#45;&gt;Node3 -->
<g id="edge2_Node000002_Node000003" class="edge">
<title>Node2&#45;&gt;Node3</title>
<g id="a_edge2_Node000002_Node000003"><a xlink:title=" ">
<path fill="none" stroke="#63b8ff" d="M268.09,-232.5C276.49,-232.5 285.24,-232.5 293.89,-232.5"/>
<polygon fill="#63b8ff" stroke="#63b8ff" points="293.97,-236 303.97,-232.5 293.97,-229 293.97,-236"/>
</a>
</g>
</g>
<!-- Node4 -->
<g id="Node000004" class="node">
<title>Node4</title>
<g id="a_Node000004"><a xlink:href="classG3D_1_1Vector2.html#a601c7806ae53f86dc9030d72c8742ab0" target="_top" xlink:title=" ">
<polygon fill="white" stroke="#666666" points="581,-242 465,-242 465,-223 581,-223 581,-242"/>
<text text-anchor="middle" x="523" y="-230" font-family="Helvetica,sans-Serif" font-size="10.00">G3D::Vector2::isNaN</text>
</a>
</g>
</g>
<!-- Node3&#45;&gt;Node4 -->
<g id="edge3_Node000003_Node000004" class="edge">
<title>Node3&#45;&gt;Node4</title>
<g id="a_edge3_Node000003_Node000004"><a xlink:title=" ">
<path fill="none" stroke="#63b8ff" d="M429.01,-232.5C437.38,-232.5 446.02,-232.5 454.49,-232.5"/>
<polygon fill="#63b8ff" stroke="#63b8ff" points="454.72,-236 464.72,-232.5 454.72,-229 454.72,-236"/>
</a>
</g>
</g>
<!-- Node5 -->
<g id="Node000005" class="node">
<title>Node5</title>
<g id="a_Node000005"><a xlink:href="namespaceG3D.html#a8843e9ad0a3e34440585a11c43ceacd7" target="_top" xlink:title=" ">
<polygon fill="white" stroke="#666666" points="690,-242 617,-242 617,-223 690,-223 690,-242"/>
<text text-anchor="middle" x="653.5" y="-230" font-family="Helvetica,sans-Serif" font-size="10.00">G3D::isNaN</text>
</a>
</g>
</g>
<!-- Node4&#45;&gt;Node5 -->
<g id="edge4_Node000004_Node000005" class="edge">
<title>Node4&#45;&gt;Node5</title>
<g id="a_edge4_Node000004_Node000005"><a xlink:title=" ">
<path fill="none" stroke="#63b8ff" d="M581.11,-232.5C589.69,-232.5 598.44,-232.5 606.74,-232.5"/>
<polygon fill="#63b8ff" stroke="#63b8ff" points="606.96,-236 616.96,-232.5 606.96,-229 606.96,-236"/>
</a>
</g>
</g>
<!-- Node6&#45;&gt;Node3 -->
<g id="edge6_Node000006_Node000003" class="edge">
<title>Node6&#45;&gt;Node3</title>
<g id="a_edge6_Node000006_Node000003"><a xlink:title=" ">
<path fill="none" stroke="#63b8ff" d="M250.79,-205.03C270.62,-209.78 294.81,-215.57 315.85,-220.61"/>
<polygon fill="#63b8ff" stroke="#63b8ff" points="315.04,-224.01 325.58,-222.94 316.67,-217.21 315.04,-224.01"/>
</a>
</g>
</g>
<!-- Node9 -->
<g id="Node000009" class="node">
<title>Node9</title>
<g id="a_Node000009"><a xlink:href="classG3D_1_1Rect2D.html#aa713b10b94c8eba76553c3be3e9a12c9" target="_top" xlink:title=" ">
<polygon fill="white" stroke="#666666" points="421,-129 312,-129 312,-110 421,-110 421,-129"/>
<text text-anchor="middle" x="366.5" y="-117" font-family="Helvetica,sans-Serif" font-size="10.00">G3D::Rect2D::xyxy</text>
</a>
</g>
</g>
<!-- Node8&#45;&gt;Node9 -->
<g id="edge9_Node000008_Node000009" class="edge">
<title>Node8&#45;&gt;Node9</title>
<g id="a_edge9_Node000008_Node000009"><a xlink:title=" ">
<path fill="none" stroke="#63b8ff" d="M265.91,-119.5C277.44,-119.5 289.71,-119.5 301.55,-119.5"/>
<polygon fill="#63b8ff" stroke="#63b8ff" points="301.81,-123 311.81,-119.5 301.81,-116 301.81,-123"/>
</a>
</g>
</g>
<!-- Node9&#45;&gt;Node7 -->
<g id="edge12_Node000009_Node000007" class="edge">
<title>Node9&#45;&gt;Node7</title>
<g id="a_edge12_Node000009_Node000007"><a xlink:title=" ">
<path fill="none" stroke="#63b8ff" d="M398.6,-129.09C408.68,-132.85 419.66,-137.68 429,-143.5 447.42,-154.97 446.21,-165.64 465,-176.5 467.88,-178.16 470.92,-179.69 474.05,-181.09"/>
<polygon fill="#63b8ff" stroke="#63b8ff" points="473.03,-184.45 483.61,-184.92 475.63,-177.95 473.03,-184.45"/>
</a>
</g>
</g>
<!-- Node10 -->
<g id="Node000010" class="node">
<title>Node10</title>
<g id="a_Node000010"><a xlink:href="namespaceG3D.html#a08c0c3adc7299e964bea91de6cf24b8e" target="_top" xlink:title=" ">
<polygon fill="white" stroke="#666666" points="555.5,-167 490.5,-167 490.5,-148 555.5,-148 555.5,-167"/>
<text text-anchor="middle" x="523" y="-155" font-family="Helvetica,sans-Serif" font-size="10.00">G3D::max</text>
</a>
</g>
</g>
<!-- Node9&#45;&gt;Node10 -->
<g id="edge10_Node000009_Node000010" class="edge">
<title>Node9&#45;&gt;Node10</title>
<g id="a_edge10_Node000009_Node000010"><a xlink:title=" ">
<path fill="none" stroke="#63b8ff" d="M406.49,-129.09C429.07,-134.64 457.49,-141.63 480.49,-147.29"/>
<polygon fill="#63b8ff" stroke="#63b8ff" points="479.76,-150.71 490.3,-149.7 481.43,-143.92 479.76,-150.71"/>
</a>
</g>
</g>
<!-- Node11 -->
<g id="Node000011" class="node">
<title>Node11</title>
<g id="a_Node000011"><a xlink:href="namespaceG3D.html#ac963e578ad7f1b9c9ad9fbc82b0f034c" target="_top" xlink:title=" ">
<polygon fill="white" stroke="#666666" points="554,-130 492,-130 492,-111 554,-111 554,-130"/>
<text text-anchor="middle" x="523" y="-118" font-family="Helvetica,sans-Serif" font-size="10.00">G3D::min</text>
</a>
</g>
</g>
<!-- Node9&#45;&gt;Node11 -->
<g id="edge11_Node000009_Node000011" class="edge">
<title>Node9&#45;&gt;Node11</title>
<g id="a_edge11_Node000009_Node000011"><a xlink:title=" ">
<path fill="none" stroke="#63b8ff" d="M421.1,-119.85C441.01,-119.98 463.24,-120.12 481.76,-120.24"/>
<polygon fill="#63b8ff" stroke="#63b8ff" points="481.88,-123.74 491.9,-120.31 481.92,-116.74 481.88,-123.74"/>
</a>
</g>
</g>
<!-- Node12 -->
<g id="Node000012" class="node">
<title>Node12</title>
<g id="a_Node000012"><a xlink:href="classG3D_1_1Rect2D.html#aa8bbc63e5006caa09607ca21ba295691" target="_top" xlink:title=" ">
<polygon fill="white" stroke="#666666" points="571.5,-93 474.5,-93 474.5,-74 571.5,-74 571.5,-93"/>
<text text-anchor="middle" x="523" y="-81" font-family="Helvetica,sans-Serif" font-size="10.00">G3D::Rect2D::x1</text>
</a>
</g>
</g>
<!-- Node9&#45;&gt;Node12 -->
<g id="edge13_Node000009_Node000012" class="edge">
<title>Node9&#45;&gt;Node12</title>
<g id="a_edge13_Node000009_Node000012"><a xlink:title=" ">
<path fill="none" stroke="#63b8ff" d="M408.5,-109.95C427.78,-105.45 450.96,-100.05 471.33,-95.31"/>
<polygon fill="#63b8ff" stroke="#63b8ff" points="472.13,-98.71 481.08,-93.03 470.55,-91.9 472.13,-98.71"/>
</a>
</g>
</g>
<!-- Node9&#45;&gt;Node13 -->
<g id="edge14_Node000009_Node000013" class="edge">
<title>Node9&#45;&gt;Node13</title>
<g id="a_edge14_Node000009_Node000013"><a xlink:title=" ">
<path fill="none" stroke="#63b8ff" d="M377.65,-109.69C401.58,-86.59 459.91,-30.49 465,-27.5 467.86,-25.82 470.9,-24.28 474.03,-22.86"/>
<polygon fill="#63b8ff" stroke="#63b8ff" points="475.61,-26 483.57,-19.01 472.99,-19.51 475.61,-26"/>
</a>
</g>
</g>
<!-- Node14 -->
<g id="Node000014" class="node">
<title>Node14</title>
<g id="a_Node000014"><a xlink:href="classG3D_1_1Rect2D.html#a230b15a1d3993fe5a7256aa08f36c1b9" target="_top" xlink:title=" ">
<polygon fill="white" stroke="#666666" points="571.5,-56 474.5,-56 474.5,-37 571.5,-37 571.5,-56"/>
<text text-anchor="middle" x="523" y="-44" font-family="Helvetica,sans-Serif" font-size="10.00">G3D::Rect2D::y1</text>
</a>
</g>
</g>
<!-- Node9&#45;&gt;Node14 -->
<g id="edge15_Node000009_Node000014" class="edge">
<title>Node9&#45;&gt;Node14</title>
<g id="a_edge15_Node000009_Node000014"><a xlink:title=" ">
<path fill="none" stroke="#63b8ff" d="M382.2,-109.92C400.87,-98.07 434.34,-77.82 465,-64.5 469.18,-62.68 473.61,-60.96 478.07,-59.35"/>
<polygon fill="#63b8ff" stroke="#63b8ff" points="479.49,-62.57 487.82,-56.02 477.22,-55.94 479.49,-62.57"/>
</a>
</g>
</g>
</g>
</svg>

<g id="navigator" transform="translate(0 0)" fill="#404254">
  <rect fill="#f2f5e9" fill-opacity="0.5" stroke="#606060" stroke-width=".5" x="0" y="0" width="60" height="60"/>
  <use id="zoomplus" xlink:href="#zoomPlus" x="17" y="9" onmousedown="handleZoom(evt,'in')"/>
  <use id="zoomminus" xlink:href="#zoomMin" x="42" y="9" onmousedown="handleZoom(evt,'out')"/>
  <use id="reset" xlink:href="#resetDef" x="30" y="36" onmousedown="handleReset()"/>
   <use id="arrowup" xlink:href="#arrowUp" x="0" y="0" onmousedown="handlePan(0,-1)"/>
  <use id="arrowright" xlink:href="#arrowRight" x="0" y="0" onmousedown="handlePan(1,0)"/>
  <use id="arrowdown" xlink:href="#arrowDown" x="0" y="0" onmousedown="handlePan(0,1)"/>
  <use id="arrowleft" xlink:href="#arrowLeft" x="0" y="0" onmousedown="handlePan(-1,0)"/>
</g>
<svg viewBox="0 0 15 15" width="100%" height="30px" preserveAspectRatio="xMaxYMin meet">
 <g id="arrow_out" transform="scale(0.3 0.3)">
  <a xlink:href="classG3D_1_1Rect2D_acb947a892c1c7e8902f171c4759ff5a5_cgraph_org.svg" target="_base">
   <rect id="button" ry="5" rx="5" y="6" x="6" height="38" width="38"
        fill="#f2f5e9" fill-opacity="0.5" stroke="#606060" stroke-width="1.0"/>
   <path id="arrow"
     d="M 11.500037,31.436501 C 11.940474,20.09759 22.043105,11.32322 32.158766,21.979434 L 37.068811,17.246167 C 37.068811,17.246167 37.088388,32 37.088388,32 L 22.160133,31.978069 C 22.160133,31.978069 26.997745,27.140456 26.997745,27.140456 C 18.528582,18.264221 13.291696,25.230495 11.500037,31.436501 z"
     style="fill:#404040;"/>
  </a>
 </g>
</svg>

<style type='text/css'>
<![CDATA[
[data-mouse-over-selected='false'] { opacity: 0.7; }
[data-mouse-over-selected='true']  { opacity: 1.0; }
]]>
</style>
<script type="application/ecmascript"><![CDATA[
document.addEventListener('DOMContentLoaded', (event) => {
  highlightEdges();
  highlightAdjacentNodes();
});
]]></script>
</svg>
