<?xml version="1.0" encoding="UTF-8" standalone="no"?>
<!DOCTYPE svg PUBLIC "-//W3C//DTD SVG 1.1//EN"
 "http://www.w3.org/Graphics/SVG/1.1/DTD/svg11.dtd">
<!-- Generated by graphviz version 2.43.0 (0)
 -->
<!-- Title: G3D::Rect2D::largestCenteredSubRect Pages: 1 -->
<!--zoomable 276 -->

<svg id="main" version="1.1" xmlns="http://www.w3.org/2000/svg" xmlns:xlink="http://www.w3.org/1999/xlink" xml:space="preserve" onload="init(evt)">
<style type="text/css"><![CDATA[
.node, .edge {opacity: 0.7;}
.node.selected, .edge.selected {opacity: 1;}
.edge:hover path { stroke: red; }
.edge:hover polygon { stroke: red; fill: red; }
]]></style>

<defs>
  <circle id="rim" cx="0" cy="0" r="7"/>
  <circle id="rim2" cx="0" cy="0" r="3.5"/>
  <g id="zoomPlus">
    <use xlink:href="#rim" fill="#404040"><set attributeName="fill" to="#808080" begin="zoomplus.mouseover" end="zoomplus.mouseout"/></use>
    <path d="M-4,0h8M0,-4v8" fill="none" stroke="white" stroke-width="1.5" pointer-events="none"/>
  </g>
  <g id="zoomMin">
    <use xlink:href="#rim" fill="#404040"><set attributeName="fill" to="#808080" begin="zoomminus.mouseover" end="zoomminus.mouseout"/></use>
    <path d="M-4,0h8" fill="none" stroke="white" stroke-width="1.5" pointer-events="none"/>
  </g>
  <g id="arrowUp" transform="translate(30 24)">
    <use xlink:href="#rim"/>
    <path pointer-events="none" fill="none" stroke="white" stroke-width="1.5" d="M0,-3.0v7 M-2.5,-0.5L0,-3.0L2.5,-0.5"/>
  </g>
  <g id="arrowRight" transform="rotate(90) translate(36 -43)">
    <use xlink:href="#rim"/>
    <path pointer-events="none" fill="none" stroke="white" stroke-width="1.5" d="M0,-3.0v7 M-2.5,-0.5L0,-3.0L2.5,-0.5"/>
  </g>
  <g id="arrowDown" transform="rotate(180) translate(-30 -48)">
    <use xlink:href="#rim"/>
    <path pointer-events="none" fill="none" stroke="white" stroke-width="1.5" d="M0,-3.0v7 M-2.5,-0.5L0,-3.0L2.5,-0.5"/>
  </g>
  <g id="arrowLeft" transform="rotate(270) translate(-36 17)">
    <use xlink:href="#rim"/>
    <path pointer-events="none" fill="none" stroke="white" stroke-width="1.5" d="M0,-3.0v7 M-2.5,-0.5L0,-3.0L2.5,-0.5"/>
  </g>
  <g id="resetDef">
    <use xlink:href="#rim2" fill="#404040"><set attributeName="fill" to="#808080" begin="reset.mouseover" end="reset.mouseout"/></use>
  </g>
</defs>
<script type="application/ecmascript">
var viewWidth = 745;
var viewHeight = 276;
var sectionId = 'dynsection-21';
</script>
<script type="application/ecmascript" xlink:href="svg.min.js"/>
<svg id="graph" class="graph">
<g id="viewport">
<title>G3D::Rect2D::largestCenteredSubRect</title>
<!-- Node1 -->
<g id="Node000001" class="node">
<title>Node1</title>
<g id="a_Node000001"><a xlink:title=" ">
<polygon fill="#999999" stroke="#666666" points="163,-217.5 0,-217.5 0,-187.5 163,-187.5 163,-217.5"/>
<text text-anchor="start" x="8" y="-205.5" font-family="Helvetica,sans-Serif" font-size="10.00">G3D::Rect2D::largestCentered</text>
<text text-anchor="middle" x="81.5" y="-194.5" font-family="Helvetica,sans-Serif" font-size="10.00">SubRect</text>
</a>
</g>
</g>
<!-- Node2 -->
<g id="Node000002" class="node">
<title>Node2</title>
<g id="a_Node000002"><a xlink:href="classG3D_1_1Rect2D.html#a4bdee716fa3a4ed8a7c45c61581b09f8" target="_top" xlink:title=" ">
<polygon fill="white" stroke="#666666" points="315,-268 199,-268 199,-249 315,-249 315,-268"/>
<text text-anchor="middle" x="257" y="-256" font-family="Helvetica,sans-Serif" font-size="10.00">G3D::Rect2D::corner</text>
</a>
</g>
</g>
<!-- Node1&#45;&gt;Node2 -->
<g id="edge1_Node000001_Node000002" class="edge">
<title>Node1&#45;&gt;Node2</title>
<g id="a_edge1_Node000001_Node000002"><a xlink:title=" ">
<path fill="none" stroke="#63b8ff" d="M128.39,-217.58C149.83,-224.6 175.7,-233.02 199,-240.5 204.37,-242.22 210.03,-244.03 215.62,-245.8"/>
<polygon fill="#63b8ff" stroke="#63b8ff" points="214.92,-249.25 225.51,-248.93 217.04,-242.58 214.92,-249.25"/>
</a>
</g>
</g>
<!-- Node3 -->
<g id="Node000003" class="node">
<title>Node3</title>
<g id="a_Node000003"><a xlink:href="classG3D_1_1Rect2D.html#af450afee5813781e6a6ef305c878bd74" target="_top" xlink:title=" ">
<polygon fill="white" stroke="#666666" points="315,-231 199,-231 199,-212 315,-212 315,-231"/>
<text text-anchor="middle" x="257" y="-219" font-family="Helvetica,sans-Serif" font-size="10.00">G3D::Rect2D::height</text>
</a>
</g>
</g>
<!-- Node1&#45;&gt;Node3 -->
<g id="edge2_Node000001_Node000003" class="edge">
<title>Node1&#45;&gt;Node3</title>
<g id="a_edge2_Node000001_Node000003"><a xlink:title=" ">
<path fill="none" stroke="#63b8ff" d="M163.15,-211.33C171.71,-212.27 180.35,-213.22 188.73,-214.13"/>
<polygon fill="#63b8ff" stroke="#63b8ff" points="188.48,-217.63 198.8,-215.24 189.24,-210.67 188.48,-217.63"/>
</a>
</g>
</g>
<!-- Node7 -->
<g id="Node000007" class="node">
<title>Node7</title>
<g id="a_Node000007"><a xlink:href="classG3D_1_1Rect2D.html#a2c1404f1155b871d90665e6c41183ad2" target="_top" xlink:title=" ">
<polygon fill="white" stroke="#666666" points="313,-194 201,-194 201,-175 313,-175 313,-194"/>
<text text-anchor="middle" x="257" y="-182" font-family="Helvetica,sans-Serif" font-size="10.00">G3D::Rect2D::width</text>
</a>
</g>
</g>
<!-- Node1&#45;&gt;Node7 -->
<g id="edge6_Node000001_Node000007" class="edge">
<title>Node1&#45;&gt;Node7</title>
<g id="a_edge6_Node000001_Node000007"><a xlink:title=" ">
<path fill="none" stroke="#63b8ff" d="M163.15,-194.13C172.41,-193.17 181.77,-192.2 190.79,-191.27"/>
<polygon fill="#63b8ff" stroke="#63b8ff" points="191.22,-194.74 200.81,-190.23 190.5,-187.78 191.22,-194.74"/>
</a>
</g>
</g>
<!-- Node8 -->
<g id="Node000008" class="node">
<title>Node8</title>
<g id="a_Node000008"><a xlink:href="classG3D_1_1Rect2D.html#a0536adbd113044ccb1cf3ad81660cbb0" target="_top" xlink:title=" ">
<polygon fill="white" stroke="#666666" points="312.5,-148 201.5,-148 201.5,-129 312.5,-129 312.5,-148"/>
<text text-anchor="middle" x="257" y="-136" font-family="Helvetica,sans-Serif" font-size="10.00">G3D::Rect2D::xywh</text>
</a>
</g>
</g>
<!-- Node1&#45;&gt;Node8 -->
<g id="edge8_Node000001_Node000008" class="edge">
<title>Node1&#45;&gt;Node8</title>
<g id="a_edge8_Node000001_Node000008"><a xlink:title=" ">
<path fill="none" stroke="#63b8ff" d="M123.18,-187.49C152.74,-176.59 192.37,-161.97 220.63,-151.55"/>
<polygon fill="#63b8ff" stroke="#63b8ff" points="221.94,-154.79 230.11,-148.05 219.52,-148.23 221.94,-154.79"/>
</a>
</g>
</g>
<!-- Node4 -->
<g id="Node000004" class="node">
<title>Node4</title>
<g id="a_Node000004"><a xlink:href="classG3D_1_1Rect2D.html#ac4e1f2fa48b25e14e7d316824626a217" target="_top" xlink:title=" ">
<polygon fill="white" stroke="#666666" points="476,-231 351,-231 351,-212 476,-212 476,-231"/>
<text text-anchor="middle" x="413.5" y="-219" font-family="Helvetica,sans-Serif" font-size="10.00">G3D::Rect2D::isEmpty</text>
</a>
</g>
</g>
<!-- Node3&#45;&gt;Node4 -->
<g id="edge3_Node000003_Node000004" class="edge">
<title>Node3&#45;&gt;Node4</title>
<g id="a_edge3_Node000003_Node000004"><a xlink:title=" ">
<path fill="none" stroke="#63b8ff" d="M315.09,-221.5C323.49,-221.5 332.24,-221.5 340.89,-221.5"/>
<polygon fill="#63b8ff" stroke="#63b8ff" points="340.97,-225 350.97,-221.5 340.97,-218 340.97,-225"/>
</a>
</g>
</g>
<!-- Node5 -->
<g id="Node000005" class="node">
<title>Node5</title>
<g id="a_Node000005"><a xlink:href="classG3D_1_1Vector2.html#a601c7806ae53f86dc9030d72c8742ab0" target="_top" xlink:title=" ">
<polygon fill="white" stroke="#666666" points="628,-241 512,-241 512,-222 628,-222 628,-241"/>
<text text-anchor="middle" x="570" y="-229" font-family="Helvetica,sans-Serif" font-size="10.00">G3D::Vector2::isNaN</text>
</a>
</g>
</g>
<!-- Node4&#45;&gt;Node5 -->
<g id="edge4_Node000004_Node000005" class="edge">
<title>Node4&#45;&gt;Node5</title>
<g id="a_edge4_Node000004_Node000005"><a xlink:title=" ">
<path fill="none" stroke="#63b8ff" d="M476.01,-225.48C484.38,-226.02 493.02,-226.58 501.49,-227.13"/>
<polygon fill="#63b8ff" stroke="#63b8ff" points="501.52,-230.64 511.72,-227.79 501.97,-223.65 501.52,-230.64"/>
</a>
</g>
</g>
<!-- Node6 -->
<g id="Node000006" class="node">
<title>Node6</title>
<g id="a_Node000006"><a xlink:href="namespaceG3D.html#a8843e9ad0a3e34440585a11c43ceacd7" target="_top" xlink:title=" ">
<polygon fill="white" stroke="#666666" points="737,-241 664,-241 664,-222 737,-222 737,-241"/>
<text text-anchor="middle" x="700.5" y="-229" font-family="Helvetica,sans-Serif" font-size="10.00">G3D::isNaN</text>
</a>
</g>
</g>
<!-- Node5&#45;&gt;Node6 -->
<g id="edge5_Node000005_Node000006" class="edge">
<title>Node5&#45;&gt;Node6</title>
<g id="a_edge5_Node000005_Node000006"><a xlink:title=" ">
<path fill="none" stroke="#63b8ff" d="M628.11,-231.5C636.69,-231.5 645.44,-231.5 653.74,-231.5"/>
<polygon fill="#63b8ff" stroke="#63b8ff" points="653.96,-235 663.96,-231.5 653.96,-228 653.96,-235"/>
</a>
</g>
</g>
<!-- Node7&#45;&gt;Node4 -->
<g id="edge7_Node000007_Node000004" class="edge">
<title>Node7&#45;&gt;Node4</title>
<g id="a_edge7_Node000007_Node000004"><a xlink:title=" ">
<path fill="none" stroke="#63b8ff" d="M297.79,-194.03C317.62,-198.78 341.81,-204.57 362.85,-209.61"/>
<polygon fill="#63b8ff" stroke="#63b8ff" points="362.04,-213.01 372.58,-211.94 363.67,-206.21 362.04,-213.01"/>
</a>
</g>
</g>
<!-- Node9 -->
<g id="Node000009" class="node">
<title>Node9</title>
<g id="a_Node000009"><a xlink:href="classG3D_1_1Rect2D.html#aa713b10b94c8eba76553c3be3e9a12c9" target="_top" xlink:title=" ">
<polygon fill="white" stroke="#666666" points="468,-130 359,-130 359,-111 468,-111 468,-130"/>
<text text-anchor="middle" x="413.5" y="-118" font-family="Helvetica,sans-Serif" font-size="10.00">G3D::Rect2D::xyxy</text>
</a>
</g>
</g>
<!-- Node8&#45;&gt;Node9 -->
<g id="edge9_Node000008_Node000009" class="edge">
<title>Node8&#45;&gt;Node9</title>
<g id="a_edge9_Node000008_Node000009"><a xlink:title=" ">
<path fill="none" stroke="#63b8ff" d="M312.91,-132.1C324.44,-130.76 336.71,-129.33 348.55,-127.95"/>
<polygon fill="#63b8ff" stroke="#63b8ff" points="349.28,-131.39 358.81,-126.76 348.47,-124.44 349.28,-131.39"/>
</a>
</g>
</g>
<!-- Node10 -->
<g id="Node000010" class="node">
<title>Node10</title>
<g id="a_Node000010"><a xlink:href="namespaceG3D.html#a08c0c3adc7299e964bea91de6cf24b8e" target="_top" xlink:title=" ">
<polygon fill="white" stroke="#666666" points="602.5,-204 537.5,-204 537.5,-185 602.5,-185 602.5,-204"/>
<text text-anchor="middle" x="570" y="-192" font-family="Helvetica,sans-Serif" font-size="10.00">G3D::max</text>
</a>
</g>
</g>
<!-- Node9&#45;&gt;Node10 -->
<g id="edge10_Node000009_Node000010" class="edge">
<title>Node9&#45;&gt;Node10</title>
<g id="a_edge10_Node000009_Node000010"><a xlink:title=" ">
<path fill="none" stroke="#63b8ff" d="M429.56,-130.21C448.33,-142.01 481.62,-162.02 512,-175.5 517.01,-177.72 522.36,-179.83 527.7,-181.78"/>
<polygon fill="#63b8ff" stroke="#63b8ff" points="526.63,-185.12 537.23,-185.11 528.94,-178.51 526.63,-185.12"/>
</a>
</g>
</g>
<!-- Node11 -->
<g id="Node000011" class="node">
<title>Node11</title>
<g id="a_Node000011"><a xlink:href="namespaceG3D.html#ac963e578ad7f1b9c9ad9fbc82b0f034c" target="_top" xlink:title=" ">
<polygon fill="white" stroke="#666666" points="601,-167 539,-167 539,-148 601,-148 601,-167"/>
<text text-anchor="middle" x="570" y="-155" font-family="Helvetica,sans-Serif" font-size="10.00">G3D::min</text>
</a>
</g>
</g>
<!-- Node9&#45;&gt;Node11 -->
<g id="edge11_Node000009_Node000011" class="edge">
<title>Node9&#45;&gt;Node11</title>
<g id="a_edge11_Node000009_Node000011"><a xlink:title=" ">
<path fill="none" stroke="#63b8ff" d="M454.29,-130.03C477.19,-135.51 505.88,-142.38 528.84,-147.88"/>
<polygon fill="#63b8ff" stroke="#63b8ff" points="528.08,-151.3 538.62,-150.22 529.71,-144.49 528.08,-151.3"/>
</a>
</g>
</g>
<!-- Node12 -->
<g id="Node000012" class="node">
<title>Node12</title>
<g id="a_Node000012"><a xlink:href="classG3D_1_1Rect2D.html#a0d826656fa6f48044c102e341152faed" target="_top" xlink:title=" ">
<polygon fill="white" stroke="#666666" points="618.5,-130 521.5,-130 521.5,-111 618.5,-111 618.5,-130"/>
<text text-anchor="middle" x="570" y="-118" font-family="Helvetica,sans-Serif" font-size="10.00">G3D::Rect2D::x0</text>
</a>
</g>
</g>
<!-- Node9&#45;&gt;Node12 -->
<g id="edge12_Node000009_Node000012" class="edge">
<title>Node9&#45;&gt;Node12</title>
<g id="a_edge12_Node000009_Node000012"><a xlink:title=" ">
<path fill="none" stroke="#63b8ff" d="M468.1,-120.5C482.06,-120.5 497.16,-120.5 511.31,-120.5"/>
<polygon fill="#63b8ff" stroke="#63b8ff" points="511.43,-124 521.43,-120.5 511.43,-117 511.43,-124"/>
</a>
</g>
</g>
<!-- Node13 -->
<g id="Node000013" class="node">
<title>Node13</title>
<g id="a_Node000013"><a xlink:href="classG3D_1_1Rect2D.html#aa8bbc63e5006caa09607ca21ba295691" target="_top" xlink:title=" ">
<polygon fill="white" stroke="#666666" points="618.5,-93 521.5,-93 521.5,-74 618.5,-74 618.5,-93"/>
<text text-anchor="middle" x="570" y="-81" font-family="Helvetica,sans-Serif" font-size="10.00">G3D::Rect2D::x1</text>
</a>
</g>
</g>
<!-- Node9&#45;&gt;Node13 -->
<g id="edge13_Node000009_Node000013" class="edge">
<title>Node9&#45;&gt;Node13</title>
<g id="a_edge13_Node000009_Node000013"><a xlink:title=" ">
<path fill="none" stroke="#63b8ff" d="M454.29,-110.97C474.12,-106.22 498.31,-100.43 519.35,-95.39"/>
<polygon fill="#63b8ff" stroke="#63b8ff" points="520.17,-98.79 529.08,-93.06 518.54,-91.99 520.17,-98.79"/>
</a>
</g>
</g>
<!-- Node14 -->
<g id="Node000014" class="node">
<title>Node14</title>
<g id="a_Node000014"><a xlink:href="classG3D_1_1Rect2D.html#aea07e130bf8ea624e47e875cfbc85524" target="_top" xlink:title=" ">
<polygon fill="white" stroke="#666666" points="618.5,-56 521.5,-56 521.5,-37 618.5,-37 618.5,-56"/>
<text text-anchor="middle" x="570" y="-44" font-family="Helvetica,sans-Serif" font-size="10.00">G3D::Rect2D::y0</text>
</a>
</g>
</g>
<!-- Node9&#45;&gt;Node14 -->
<g id="edge14_Node000009_Node000014" class="edge">
<title>Node9&#45;&gt;Node14</title>
<g id="a_edge14_Node000009_Node000014"><a xlink:title=" ">
<path fill="none" stroke="#63b8ff" d="M428.85,-110.94C447.42,-98.88 481.08,-78.07 512,-64.5 516.12,-62.69 520.48,-60.98 524.88,-59.38"/>
<polygon fill="#63b8ff" stroke="#63b8ff" points="526.18,-62.64 534.5,-56.08 523.9,-56.02 526.18,-62.64"/>
</a>
</g>
</g>
<!-- Node15 -->
<g id="Node000015" class="node">
<title>Node15</title>
<g id="a_Node000015"><a xlink:href="classG3D_1_1Rect2D.html#a230b15a1d3993fe5a7256aa08f36c1b9" target="_top" xlink:title=" ">
<polygon fill="white" stroke="#666666" points="618.5,-19 521.5,-19 521.5,0 618.5,0 618.5,-19"/>
<text text-anchor="middle" x="570" y="-7" font-family="Helvetica,sans-Serif" font-size="10.00">G3D::Rect2D::y1</text>
</a>
</g>
</g>
<!-- Node9&#45;&gt;Node15 -->
<g id="edge15_Node000009_Node000015" class="edge">
<title>Node9&#45;&gt;Node15</title>
<g id="a_edge15_Node000009_Node000015"><a xlink:title=" ">
<path fill="none" stroke="#63b8ff" d="M422.01,-110.84C437.08,-92.09 472.93,-50.59 512,-27.5 514.81,-25.84 517.8,-24.31 520.87,-22.91"/>
<polygon fill="#63b8ff" stroke="#63b8ff" points="522.31,-26.1 530.25,-19.09 519.67,-19.62 522.31,-26.1"/>
</a>
</g>
</g>
</g>
</svg>

<g id="navigator" transform="translate(0 0)" fill="#404254">
  <rect fill="#f2f5e9" fill-opacity="0.5" stroke="#606060" stroke-width=".5" x="0" y="0" width="60" height="60"/>
  <use id="zoomplus" xlink:href="#zoomPlus" x="17" y="9" onmousedown="handleZoom(evt,'in')"/>
  <use id="zoomminus" xlink:href="#zoomMin" x="42" y="9" onmousedown="handleZoom(evt,'out')"/>
  <use id="reset" xlink:href="#resetDef" x="30" y="36" onmousedown="handleReset()"/>
   <use id="arrowup" xlink:href="#arrowUp" x="0" y="0" onmousedown="handlePan(0,-1)"/>
  <use id="arrowright" xlink:href="#arrowRight" x="0" y="0" onmousedown="handlePan(1,0)"/>
  <use id="arrowdown" xlink:href="#arrowDown" x="0" y="0" onmousedown="handlePan(0,1)"/>
  <use id="arrowleft" xlink:href="#arrowLeft" x="0" y="0" onmousedown="handlePan(-1,0)"/>
</g>
<svg viewBox="0 0 15 15" width="100%" height="30px" preserveAspectRatio="xMaxYMin meet">
 <g id="arrow_out" transform="scale(0.3 0.3)">
  <a xlink:href="classG3D_1_1Rect2D_a6502a82af3d52d797ce601eb27fff15a_cgraph_org.svg" target="_base">
   <rect id="button" ry="5" rx="5" y="6" x="6" height="38" width="38"
        fill="#f2f5e9" fill-opacity="0.5" stroke="#606060" stroke-width="1.0"/>
   <path id="arrow"
     d="M 11.500037,31.436501 C 11.940474,20.09759 22.043105,11.32322 32.158766,21.979434 L 37.068811,17.246167 C 37.068811,17.246167 37.088388,32 37.088388,32 L 22.160133,31.978069 C 22.160133,31.978069 26.997745,27.140456 26.997745,27.140456 C 18.528582,18.264221 13.291696,25.230495 11.500037,31.436501 z"
     style="fill:#404040;"/>
  </a>
 </g>
</svg>

<style type='text/css'>
<![CDATA[
[data-mouse-over-selected='false'] { opacity: 0.7; }
[data-mouse-over-selected='true']  { opacity: 1.0; }
]]>
</style>
<script type="application/ecmascript"><![CDATA[
document.addEventListener('DOMContentLoaded', (event) => {
  highlightEdges();
  highlightAdjacentNodes();
});
]]></script>
</svg>
