<?xml version="1.0" encoding="UTF-8" standalone="no"?>
<!DOCTYPE svg PUBLIC "-//W3C//DTD SVG 1.1//EN"
 "http://www.w3.org/Graphics/SVG/1.1/DTD/svg11.dtd">
<!-- Generated by graphviz version 2.43.0 (0)
 -->
<!-- Title: PatchJob::Update Pages: 1 -->
<!--zoomable 216 -->

<svg id="main" version="1.1" xmlns="http://www.w3.org/2000/svg" xmlns:xlink="http://www.w3.org/1999/xlink" xml:space="preserve" onload="init(evt)">
<style type="text/css"><![CDATA[
.node, .edge {opacity: 0.7;}
.node.selected, .edge.selected {opacity: 1;}
.edge:hover path { stroke: red; }
.edge:hover polygon { stroke: red; fill: red; }
]]></style>

<defs>
  <circle id="rim" cx="0" cy="0" r="7"/>
  <circle id="rim2" cx="0" cy="0" r="3.5"/>
  <g id="zoomPlus">
    <use xlink:href="#rim" fill="#404040"><set attributeName="fill" to="#808080" begin="zoomplus.mouseover" end="zoomplus.mouseout"/></use>
    <path d="M-4,0h8M0,-4v8" fill="none" stroke="white" stroke-width="1.5" pointer-events="none"/>
  </g>
  <g id="zoomMin">
    <use xlink:href="#rim" fill="#404040"><set attributeName="fill" to="#808080" begin="zoomminus.mouseover" end="zoomminus.mouseout"/></use>
    <path d="M-4,0h8" fill="none" stroke="white" stroke-width="1.5" pointer-events="none"/>
  </g>
  <g id="arrowUp" transform="translate(30 24)">
    <use xlink:href="#rim"/>
    <path pointer-events="none" fill="none" stroke="white" stroke-width="1.5" d="M0,-3.0v7 M-2.5,-0.5L0,-3.0L2.5,-0.5"/>
  </g>
  <g id="arrowRight" transform="rotate(90) translate(36 -43)">
    <use xlink:href="#rim"/>
    <path pointer-events="none" fill="none" stroke="white" stroke-width="1.5" d="M0,-3.0v7 M-2.5,-0.5L0,-3.0L2.5,-0.5"/>
  </g>
  <g id="arrowDown" transform="rotate(180) translate(-30 -48)">
    <use xlink:href="#rim"/>
    <path pointer-events="none" fill="none" stroke="white" stroke-width="1.5" d="M0,-3.0v7 M-2.5,-0.5L0,-3.0L2.5,-0.5"/>
  </g>
  <g id="arrowLeft" transform="rotate(270) translate(-36 17)">
    <use xlink:href="#rim"/>
    <path pointer-events="none" fill="none" stroke="white" stroke-width="1.5" d="M0,-3.0v7 M-2.5,-0.5L0,-3.0L2.5,-0.5"/>
  </g>
  <g id="resetDef">
    <use xlink:href="#rim2" fill="#404040"><set attributeName="fill" to="#808080" begin="reset.mouseover" end="reset.mouseout"/></use>
  </g>
</defs>
<script type="application/ecmascript">
var viewWidth = 594;
var viewHeight = 216;
var sectionId = 'dynsection-1';
</script>
<script type="application/ecmascript" xlink:href="svg.min.js"/>
<svg id="graph" class="graph">
<g id="viewport">
<title>PatchJob::Update</title>
<!-- Node1 -->
<g id="Node000001" class="node">
<title>Node1</title>
<g id="a_Node000001"><a xlink:title=" ">
<polygon fill="#999999" stroke="#666666" points="99,-133.5 0,-133.5 0,-114.5 99,-114.5 99,-133.5"/>
<text text-anchor="middle" x="49.5" y="-121.5" font-family="Helvetica,sans-Serif" font-size="10.00">PatchJob::Update</text>
</a>
</g>
</g>
<!-- Node2 -->
<g id="Node000002" class="node">
<title>Node2</title>
<g id="a_Node000002"><a xlink:href="classSocket.html#a30c157060cbfc3378e76ed4862b7ef7e" target="_top" xlink:title=" ">
<polygon fill="white" stroke="#666666" points="252.5,-207.5 144.5,-207.5 144.5,-188.5 252.5,-188.5 252.5,-207.5"/>
<text text-anchor="middle" x="198.5" y="-195.5" font-family="Helvetica,sans-Serif" font-size="10.00">Socket::BurstBegin</text>
</a>
</g>
</g>
<!-- Node1&#45;&gt;Node2 -->
<g id="edge1_Node000001_Node000002" class="edge">
<title>Node1&#45;&gt;Node2</title>
<g id="a_edge1_Node000001_Node000002"><a xlink:title=" ">
<path fill="none" stroke="#63b8ff" d="M62.4,-133.6C78.15,-145.9 107.2,-167.16 135,-180 139.09,-181.89 143.42,-183.63 147.82,-185.21"/>
<polygon fill="#63b8ff" stroke="#63b8ff" points="146.9,-188.6 157.5,-188.45 149.12,-181.96 146.9,-188.6"/>
</a>
</g>
</g>
<!-- Node3 -->
<g id="Node000003" class="node">
<title>Node3</title>
<g id="a_Node000003"><a xlink:href="classSocket.html#a980625f7b1a7649772a83cc3784e746a" target="_top" xlink:title=" ">
<polygon fill="white" stroke="#666666" points="247.5,-170.5 149.5,-170.5 149.5,-151.5 247.5,-151.5 247.5,-170.5"/>
<text text-anchor="middle" x="198.5" y="-158.5" font-family="Helvetica,sans-Serif" font-size="10.00">Socket::BurstEnd</text>
</a>
</g>
</g>
<!-- Node1&#45;&gt;Node3 -->
<g id="edge2_Node000001_Node000003" class="edge">
<title>Node1&#45;&gt;Node3</title>
<g id="a_edge2_Node000001_Node000003"><a xlink:title=" ">
<path fill="none" stroke="#63b8ff" d="M88.36,-133.53C107.06,-138.24 129.82,-143.97 149.72,-148.97"/>
<polygon fill="#63b8ff" stroke="#63b8ff" points="148.97,-152.39 159.52,-151.44 150.67,-145.6 148.97,-152.39"/>
</a>
</g>
</g>
<!-- Node4 -->
<g id="Node000004" class="node">
<title>Node4</title>
<g id="a_Node000004"><a xlink:href="classSocket.html#af9a48d047977de02421cb02d418ebd09" target="_top" xlink:title=" ">
<polygon fill="white" stroke="#666666" points="250.5,-133.5 146.5,-133.5 146.5,-114.5 250.5,-114.5 250.5,-133.5"/>
<text text-anchor="middle" x="198.5" y="-121.5" font-family="Helvetica,sans-Serif" font-size="10.00">Socket::BurstPush</text>
</a>
</g>
</g>
<!-- Node1&#45;&gt;Node4 -->
<g id="edge3_Node000001_Node000004" class="edge">
<title>Node1&#45;&gt;Node4</title>
<g id="a_edge3_Node000001_Node000004"><a xlink:title=" ">
<path fill="none" stroke="#63b8ff" d="M99.04,-124C110.93,-124 123.81,-124 136.21,-124"/>
<polygon fill="#63b8ff" stroke="#63b8ff" points="136.49,-127.5 146.49,-124 136.49,-120.5 136.49,-127.5"/>
</a>
</g>
</g>
<!-- Node5 -->
<g id="Node000005" class="node">
<title>Node5</title>
<g id="a_Node000005"><a xlink:href="classSocket.html#ac3b5df1c7c92b0ddc953849c8c216921" target="_top" xlink:title=" ">
<polygon fill="white" stroke="#666666" points="250.5,-96.5 146.5,-96.5 146.5,-77.5 250.5,-77.5 250.5,-96.5"/>
<text text-anchor="middle" x="198.5" y="-84.5" font-family="Helvetica,sans-Serif" font-size="10.00">Socket::BurstSend</text>
</a>
</g>
</g>
<!-- Node1&#45;&gt;Node5 -->
<g id="edge4_Node000001_Node000005" class="edge">
<title>Node1&#45;&gt;Node5</title>
<g id="a_edge4_Node000001_Node000005"><a xlink:title=" ">
<path fill="none" stroke="#63b8ff" d="M88.36,-114.47C107.06,-109.76 129.82,-104.03 149.72,-99.03"/>
<polygon fill="#63b8ff" stroke="#63b8ff" points="150.67,-102.4 159.52,-96.56 148.97,-95.61 150.67,-102.4"/>
</a>
</g>
</g>
<!-- Node11 -->
<g id="Node000011" class="node">
<title>Node11</title>
<g id="a_Node000011"><a xlink:href="classCircularBuffer.html#adcc8bdd0dd4d13db4a1fea295b02acbf" target="_top" xlink:title=" ">
<polygon fill="white" stroke="#666666" points="262,-59.5 135,-59.5 135,-40.5 262,-40.5 262,-59.5"/>
<text text-anchor="middle" x="198.5" y="-47.5" font-family="Helvetica,sans-Serif" font-size="10.00">CircularBuffer::GetSize</text>
</a>
</g>
</g>
<!-- Node1&#45;&gt;Node11 -->
<g id="edge10_Node000001_Node000011" class="edge">
<title>Node1&#45;&gt;Node11</title>
<g id="a_edge10_Node000001_Node000011"><a xlink:title=" ">
<path fill="none" stroke="#63b8ff" d="M62.73,-114.44C78.61,-102.41 107.55,-81.79 135,-69 139.76,-66.78 144.84,-64.74 149.98,-62.89"/>
<polygon fill="#63b8ff" stroke="#63b8ff" points="151.48,-66.08 159.84,-59.57 149.25,-59.45 151.48,-66.08"/>
</a>
</g>
</g>
<!-- Node6 -->
<g id="Node000006" class="node">
<title>Node6</title>
<g id="a_Node000006"><a xlink:href="classCircularBuffer.html#a200a74ba910181da4520d2862d1d9ac2" target="_top" xlink:title=" ">
<polygon fill="white" stroke="#666666" points="414,-96.5 298,-96.5 298,-77.5 414,-77.5 414,-96.5"/>
<text text-anchor="middle" x="356" y="-84.5" font-family="Helvetica,sans-Serif" font-size="10.00">CircularBuffer::Write</text>
</a>
</g>
</g>
<!-- Node5&#45;&gt;Node6 -->
<g id="edge5_Node000005_Node000006" class="edge">
<title>Node5&#45;&gt;Node6</title>
<g id="a_edge5_Node000005_Node000006"><a xlink:title=" ">
<path fill="none" stroke="#63b8ff" d="M250.85,-87C262.6,-87 275.26,-87 287.57,-87"/>
<polygon fill="#63b8ff" stroke="#63b8ff" points="287.8,-90.5 297.8,-87 287.8,-83.5 287.8,-90.5"/>
</a>
</g>
</g>
<!-- Node7 -->
<g id="Node000007" class="node">
<title>Node7</title>
<g id="a_Node000007"><a xlink:href="classCircularBuffer.html#a1a7b35478fc3aa45bd523c7e370be558" target="_top" xlink:title=" ">
<polygon fill="white" stroke="#666666" points="586,-163.5 450,-163.5 450,-144.5 586,-144.5 586,-163.5"/>
<text text-anchor="middle" x="518" y="-151.5" font-family="Helvetica,sans-Serif" font-size="10.00">CircularBuffer::AllocateB</text>
</a>
</g>
</g>
<!-- Node6&#45;&gt;Node7 -->
<g id="edge6_Node000006_Node000007" class="edge">
<title>Node6&#45;&gt;Node7</title>
<g id="a_edge6_Node000006_Node000007"><a xlink:title=" ">
<path fill="none" stroke="#63b8ff" d="M373,-96.52C391.17,-107.02 421.95,-123.91 450,-135 455.9,-137.33 462.2,-139.51 468.49,-141.49"/>
<polygon fill="#63b8ff" stroke="#63b8ff" points="467.71,-144.91 478.29,-144.45 469.73,-138.21 467.71,-144.91"/>
</a>
</g>
</g>
<!-- Node8 -->
<g id="Node000008" class="node">
<title>Node8</title>
<g id="a_Node000008"><a xlink:href="classCircularBuffer.html#a6ee48e9ae9b0b1d14ecfb3303b4a3258" target="_top" xlink:title=" ">
<polygon fill="white" stroke="#666666" points="585,-126 451,-126 451,-96 585,-96 585,-126"/>
<text text-anchor="start" x="459" y="-114" font-family="Helvetica,sans-Serif" font-size="10.00">CircularBuffer::GetAFree</text>
<text text-anchor="middle" x="518" y="-103" font-family="Helvetica,sans-Serif" font-size="10.00">Space</text>
</a>
</g>
</g>
<!-- Node6&#45;&gt;Node8 -->
<g id="edge7_Node000006_Node000008" class="edge">
<title>Node6&#45;&gt;Node8</title>
<g id="a_edge7_Node000006_Node000008"><a xlink:title=" ">
<path fill="none" stroke="#63b8ff" d="M414.31,-95.6C422.91,-96.89 431.89,-98.23 440.81,-99.57"/>
<polygon fill="#63b8ff" stroke="#63b8ff" points="440.42,-103.05 450.83,-101.07 441.46,-96.13 440.42,-103.05"/>
</a>
</g>
</g>
<!-- Node9 -->
<g id="Node000009" class="node">
<title>Node9</title>
<g id="a_Node000009"><a xlink:href="classCircularBuffer.html#a9773ab7c19eb952a4b8fa151dffee1a3" target="_top" xlink:title=" ">
<polygon fill="white" stroke="#666666" points="585,-78 451,-78 451,-48 585,-48 585,-78"/>
<text text-anchor="start" x="459" y="-66" font-family="Helvetica,sans-Serif" font-size="10.00">CircularBuffer::GetBFree</text>
<text text-anchor="middle" x="518" y="-55" font-family="Helvetica,sans-Serif" font-size="10.00">Space</text>
</a>
</g>
</g>
<!-- Node6&#45;&gt;Node9 -->
<g id="edge8_Node000006_Node000009" class="edge">
<title>Node6&#45;&gt;Node9</title>
<g id="a_edge8_Node000006_Node000009"><a xlink:title=" ">
<path fill="none" stroke="#63b8ff" d="M414.31,-78.4C422.91,-77.11 431.89,-75.77 440.81,-74.43"/>
<polygon fill="#63b8ff" stroke="#63b8ff" points="441.46,-77.87 450.83,-72.93 440.42,-70.95 441.46,-77.87"/>
</a>
</g>
</g>
<!-- Node10 -->
<g id="Node000010" class="node">
<title>Node10</title>
<g id="a_Node000010"><a xlink:href="classCircularBuffer.html#a6cd3e6603e9fe5dbd936e3caf7502066" target="_top" xlink:title=" ">
<polygon fill="white" stroke="#666666" points="586,-30 450,-30 450,0 586,0 586,-30"/>
<text text-anchor="start" x="458" y="-18" font-family="Helvetica,sans-Serif" font-size="10.00">CircularBuffer::GetSpace</text>
<text text-anchor="middle" x="518" y="-7" font-family="Helvetica,sans-Serif" font-size="10.00">BeforeA</text>
</a>
</g>
</g>
<!-- Node6&#45;&gt;Node10 -->
<g id="edge9_Node000006_Node000010" class="edge">
<title>Node6&#45;&gt;Node10</title>
<g id="a_edge9_Node000006_Node000010"><a xlink:title=" ">
<path fill="none" stroke="#63b8ff" d="M373.81,-77.46C392.19,-67.24 422.67,-50.88 450,-39 454.13,-37.21 458.44,-35.44 462.79,-33.72"/>
<polygon fill="#63b8ff" stroke="#63b8ff" points="464.26,-36.91 472.35,-30.06 461.76,-30.37 464.26,-36.91"/>
</a>
</g>
</g>
</g>
</svg>

<g id="navigator" transform="translate(0 0)" fill="#404254">
  <rect fill="#f2f5e9" fill-opacity="0.5" stroke="#606060" stroke-width=".5" x="0" y="0" width="60" height="60"/>
  <use id="zoomplus" xlink:href="#zoomPlus" x="17" y="9" onmousedown="handleZoom(evt,'in')"/>
  <use id="zoomminus" xlink:href="#zoomMin" x="42" y="9" onmousedown="handleZoom(evt,'out')"/>
  <use id="reset" xlink:href="#resetDef" x="30" y="36" onmousedown="handleReset()"/>
   <use id="arrowup" xlink:href="#arrowUp" x="0" y="0" onmousedown="handlePan(0,-1)"/>
  <use id="arrowright" xlink:href="#arrowRight" x="0" y="0" onmousedown="handlePan(1,0)"/>
  <use id="arrowdown" xlink:href="#arrowDown" x="0" y="0" onmousedown="handlePan(0,1)"/>
  <use id="arrowleft" xlink:href="#arrowLeft" x="0" y="0" onmousedown="handlePan(-1,0)"/>
</g>
<svg viewBox="0 0 15 15" width="100%" height="30px" preserveAspectRatio="xMaxYMin meet">
 <g id="arrow_out" transform="scale(0.3 0.3)">
  <a xlink:href="classPatchJob_ac792606219d45ae1265198ee06e342d5_cgraph_org.svg" target="_base">
   <rect id="button" ry="5" rx="5" y="6" x="6" height="38" width="38"
        fill="#f2f5e9" fill-opacity="0.5" stroke="#606060" stroke-width="1.0"/>
   <path id="arrow"
     d="M 11.500037,31.436501 C 11.940474,20.09759 22.043105,11.32322 32.158766,21.979434 L 37.068811,17.246167 C 37.068811,17.246167 37.088388,32 37.088388,32 L 22.160133,31.978069 C 22.160133,31.978069 26.997745,27.140456 26.997745,27.140456 C 18.528582,18.264221 13.291696,25.230495 11.500037,31.436501 z"
     style="fill:#404040;"/>
  </a>
 </g>
</svg>

<style type='text/css'>
<![CDATA[
[data-mouse-over-selected='false'] { opacity: 0.7; }
[data-mouse-over-selected='true']  { opacity: 1.0; }
]]>
</style>
<script type="application/ecmascript"><![CDATA[
document.addEventListener('DOMContentLoaded', (event) => {
  highlightEdges();
  highlightAdjacentNodes();
});
]]></script>
</svg>
