<?xml version="1.0" encoding="UTF-8" standalone="no"?>
<!DOCTYPE svg PUBLIC "-//W3C//DTD SVG 1.1//EN"
 "http://www.w3.org/Graphics/SVG/1.1/DTD/svg11.dtd">
<!-- Generated by graphviz version 2.43.0 (0)
 -->
<!-- Title: G3D::CollisionDetection::collisionTimeForMovingPointFixedRectangle Pages: 1 -->
<!--zoomable 302 -->

<svg id="main" version="1.1" xmlns="http://www.w3.org/2000/svg" xmlns:xlink="http://www.w3.org/1999/xlink" xml:space="preserve" onload="init(evt)">
<style type="text/css"><![CDATA[
.node, .edge {opacity: 0.7;}
.node.selected, .edge.selected {opacity: 1;}
.edge:hover path { stroke: red; }
.edge:hover polygon { stroke: red; fill: red; }
]]></style>

<defs>
  <circle id="rim" cx="0" cy="0" r="7"/>
  <circle id="rim2" cx="0" cy="0" r="3.5"/>
  <g id="zoomPlus">
    <use xlink:href="#rim" fill="#404040"><set attributeName="fill" to="#808080" begin="zoomplus.mouseover" end="zoomplus.mouseout"/></use>
    <path d="M-4,0h8M0,-4v8" fill="none" stroke="white" stroke-width="1.5" pointer-events="none"/>
  </g>
  <g id="zoomMin">
    <use xlink:href="#rim" fill="#404040"><set attributeName="fill" to="#808080" begin="zoomminus.mouseover" end="zoomminus.mouseout"/></use>
    <path d="M-4,0h8" fill="none" stroke="white" stroke-width="1.5" pointer-events="none"/>
  </g>
  <g id="arrowUp" transform="translate(30 24)">
    <use xlink:href="#rim"/>
    <path pointer-events="none" fill="none" stroke="white" stroke-width="1.5" d="M0,-3.0v7 M-2.5,-0.5L0,-3.0L2.5,-0.5"/>
  </g>
  <g id="arrowRight" transform="rotate(90) translate(36 -43)">
    <use xlink:href="#rim"/>
    <path pointer-events="none" fill="none" stroke="white" stroke-width="1.5" d="M0,-3.0v7 M-2.5,-0.5L0,-3.0L2.5,-0.5"/>
  </g>
  <g id="arrowDown" transform="rotate(180) translate(-30 -48)">
    <use xlink:href="#rim"/>
    <path pointer-events="none" fill="none" stroke="white" stroke-width="1.5" d="M0,-3.0v7 M-2.5,-0.5L0,-3.0L2.5,-0.5"/>
  </g>
  <g id="arrowLeft" transform="rotate(270) translate(-36 17)">
    <use xlink:href="#rim"/>
    <path pointer-events="none" fill="none" stroke="white" stroke-width="1.5" d="M0,-3.0v7 M-2.5,-0.5L0,-3.0L2.5,-0.5"/>
  </g>
  <g id="resetDef">
    <use xlink:href="#rim2" fill="#404040"><set attributeName="fill" to="#808080" begin="reset.mouseover" end="reset.mouseout"/></use>
  </g>
</defs>
<script type="application/ecmascript">
var viewWidth = 822;
var viewHeight = 302;
var sectionId = 'dynsection-24';
</script>
<script type="application/ecmascript" xlink:href="svg.min.js"/>
<svg id="graph" class="graph">
<g id="viewport">
<title>G3D::CollisionDetection::collisionTimeForMovingPointFixedRectangle</title>
<!-- Node1 -->
<g id="Node000001" class="node">
<title>Node1</title>
<g id="a_Node000001"><a xlink:title=" ">
<polygon fill="#999999" stroke="#666666" points="164,-106 0,-106 0,-65 164,-65 164,-106"/>
<text text-anchor="start" x="8" y="-94" font-family="Helvetica,sans-Serif" font-size="10.00">G3D::CollisionDetection</text>
<text text-anchor="start" x="8" y="-83" font-family="Helvetica,sans-Serif" font-size="10.00">::collisionTimeForMovingPoint</text>
<text text-anchor="middle" x="82" y="-72" font-family="Helvetica,sans-Serif" font-size="10.00">FixedRectangle</text>
</a>
</g>
</g>
<!-- Node2 -->
<g id="Node000002" class="node">
<title>Node2</title>
<g id="a_Node000002"><a xlink:href="classG3D_1_1CollisionDetection.html#a0a5fe27c3be103a1538fa3fa9dd7c1ee" target="_top" xlink:title=" ">
<polygon fill="white" stroke="#666666" points="364,-163 200,-163 200,-122 364,-122 364,-163"/>
<text text-anchor="start" x="208" y="-151" font-family="Helvetica,sans-Serif" font-size="10.00">G3D::CollisionDetection</text>
<text text-anchor="start" x="208" y="-140" font-family="Helvetica,sans-Serif" font-size="10.00">::collisionTimeForMovingPoint</text>
<text text-anchor="middle" x="282" y="-129" font-family="Helvetica,sans-Serif" font-size="10.00">FixedPlane</text>
</a>
</g>
</g>
<!-- Node1&#45;&gt;Node2 -->
<g id="edge1_Node000001_Node000002" class="edge">
<title>Node1&#45;&gt;Node2</title>
<g id="a_edge1_Node000001_Node000002"><a xlink:title=" ">
<path fill="none" stroke="#63b8ff" d="M154.48,-106.08C169.2,-110.32 184.81,-114.81 199.84,-119.14"/>
<polygon fill="#63b8ff" stroke="#63b8ff" points="199.04,-122.55 209.62,-121.95 200.98,-115.82 199.04,-122.55"/>
</a>
</g>
</g>
<!-- Node4 -->
<g id="Node000004" class="node">
<title>Node4</title>
<g id="a_Node000004"><a xlink:href="namespaceG3D.html#a75b289f04a486b3026012c289513e4d8" target="_top" xlink:title=" ">
<polygon fill="white" stroke="#666666" points="673.5,-95 614.5,-95 614.5,-76 673.5,-76 673.5,-95"/>
<text text-anchor="middle" x="644" y="-83" font-family="Helvetica,sans-Serif" font-size="10.00">G3D::finf</text>
</a>
</g>
</g>
<!-- Node1&#45;&gt;Node4 -->
<g id="edge12_Node000001_Node000004" class="edge">
<title>Node1&#45;&gt;Node4</title>
<g id="a_edge12_Node000001_Node000004"><a xlink:title=" ">
<path fill="none" stroke="#63b8ff" d="M164.39,-75.77C254.99,-66.41 405.7,-55.21 535,-66.5 558.2,-68.53 583.89,-72.95 604.39,-77.03"/>
<polygon fill="#63b8ff" stroke="#63b8ff" points="603.8,-80.48 614.3,-79.05 605.2,-73.62 603.8,-80.48"/>
</a>
</g>
</g>
<!-- Node11 -->
<g id="Node000011" class="node">
<title>Node11</title>
<g id="a_Node000011"><a xlink:href="classG3D_1_1CollisionDetection.html#a635193417d861b4dc49cc896cad65a8a" target="_top" xlink:title=" ">
<polygon fill="white" stroke="#666666" points="349,-261.5 215,-261.5 215,-231.5 349,-231.5 349,-261.5"/>
<text text-anchor="start" x="223" y="-249.5" font-family="Helvetica,sans-Serif" font-size="10.00">G3D::CollisionDetection</text>
<text text-anchor="middle" x="282" y="-238.5" font-family="Helvetica,sans-Serif" font-size="10.00">::isPointInsideRectangle</text>
</a>
</g>
</g>
<!-- Node1&#45;&gt;Node11 -->
<g id="edge13_Node000001_Node000011" class="edge">
<title>Node1&#45;&gt;Node11</title>
<g id="a_edge13_Node000001_Node000011"><a xlink:title=" ">
<path fill="none" stroke="#63b8ff" d="M108.48,-106.22C146.06,-136.77 216.01,-193.66 254.29,-224.78"/>
<polygon fill="#63b8ff" stroke="#63b8ff" points="252.43,-227.78 262.4,-231.38 256.85,-222.35 252.43,-227.78"/>
</a>
</g>
</g>
<!-- Node14 -->
<g id="Node000014" class="node">
<title>Node14</title>
<g id="a_Node000014"><a xlink:href="classG3D_1_1Plane.html#a4d9ef89e9b447b2fe28d9d46902bd346" target="_top" xlink:title=" ">
<polygon fill="white" stroke="#666666" points="337.5,-19 226.5,-19 226.5,0 337.5,0 337.5,-19"/>
<text text-anchor="middle" x="282" y="-7" font-family="Helvetica,sans-Serif" font-size="10.00">G3D::Plane::normal</text>
</a>
</g>
</g>
<!-- Node1&#45;&gt;Node14 -->
<g id="edge17_Node000001_Node000014" class="edge">
<title>Node1&#45;&gt;Node14</title>
<g id="a_edge17_Node000001_Node000014"><a xlink:title=" ">
<path fill="none" stroke="#63b8ff" d="M125.79,-64.88C147.7,-54.73 174.97,-42.73 200,-33.5 211.28,-29.34 223.65,-25.38 235.24,-21.93"/>
<polygon fill="#63b8ff" stroke="#63b8ff" points="236.57,-25.19 245.19,-19.03 234.61,-18.47 236.57,-25.19"/>
</a>
</g>
</g>
<!-- Node3 -->
<g id="Node000003" class="node">
<title>Node3</title>
<g id="a_Node000003"><a xlink:href="classG3D_1_1Vector3.html#a738e0282cf91f7835e0299aaed0b2fa7" target="_top" xlink:title=" ">
<polygon fill="white" stroke="#666666" points="518.5,-208 416.5,-208 416.5,-189 518.5,-189 518.5,-208"/>
<text text-anchor="middle" x="467.5" y="-196" font-family="Helvetica,sans-Serif" font-size="10.00">G3D::Vector3::dot</text>
</a>
</g>
</g>
<!-- Node2&#45;&gt;Node3 -->
<g id="edge2_Node000002_Node000003" class="edge">
<title>Node2&#45;&gt;Node3</title>
<g id="a_edge2_Node000002_Node000003"><a xlink:title=" ">
<path fill="none" stroke="#63b8ff" d="M346.96,-163.08C364.16,-168.52 382.76,-174.31 400,-179.5 407.28,-181.69 415.02,-183.96 422.55,-186.13"/>
<polygon fill="#63b8ff" stroke="#63b8ff" points="421.7,-189.53 432.27,-188.92 423.63,-182.8 421.7,-189.53"/>
</a>
</g>
</g>
<!-- Node2&#45;&gt;Node4 -->
<g id="edge3_Node000002_Node000004" class="edge">
<title>Node2&#45;&gt;Node4</title>
<g id="a_edge3_Node000002_Node000004"><a xlink:title=" ">
<path fill="none" stroke="#63b8ff" d="M364.18,-130.18C413.59,-122.62 477.96,-112.67 535,-103.5 557.96,-99.81 583.64,-95.54 604.19,-92.08"/>
<polygon fill="#63b8ff" stroke="#63b8ff" points="604.86,-95.52 614.14,-90.4 603.69,-88.61 604.86,-95.52"/>
</a>
</g>
</g>
<!-- Node5 -->
<g id="Node000005" class="node">
<title>Node5</title>
<g id="a_Node000005"><a xlink:href="namespaceG3D.html#a777646c1deb0c353be54782691193ac4" target="_top" xlink:title=" ">
<polygon fill="white" stroke="#666666" points="508.5,-171 426.5,-171 426.5,-152 508.5,-152 508.5,-171"/>
<text text-anchor="middle" x="467.5" y="-159" font-family="Helvetica,sans-Serif" font-size="10.00">G3D::fuzzyEq</text>
</a>
</g>
</g>
<!-- Node2&#45;&gt;Node5 -->
<g id="edge4_Node000002_Node000005" class="edge">
<title>Node2&#45;&gt;Node5</title>
<g id="a_edge4_Node000002_Node000005"><a xlink:title=" ">
<path fill="none" stroke="#63b8ff" d="M364.02,-150.89C381.66,-152.72 399.84,-154.6 415.9,-156.26"/>
<polygon fill="#63b8ff" stroke="#63b8ff" points="415.81,-159.77 426.12,-157.32 416.53,-152.81 415.81,-159.77"/>
</a>
</g>
</g>
<!-- Node9 -->
<g id="Node000009" class="node">
<title>Node9</title>
<g id="a_Node000009"><a xlink:href="classG3D_1_1Plane.html#ad42b18c66bc402c16fbfaa438bc42b9c" target="_top" xlink:title=" ">
<polygon fill="white" stroke="#666666" points="535,-245 400,-245 400,-226 535,-226 535,-245"/>
<text text-anchor="middle" x="467.5" y="-233" font-family="Helvetica,sans-Serif" font-size="10.00">G3D::Plane::getEquation</text>
</a>
</g>
</g>
<!-- Node2&#45;&gt;Node9 -->
<g id="edge9_Node000002_Node000009" class="edge">
<title>Node2&#45;&gt;Node9</title>
<g id="a_edge9_Node000002_Node000009"><a xlink:title=" ">
<path fill="none" stroke="#63b8ff" d="M310.57,-163.13C333.5,-179.5 367.54,-201.96 400,-216.5 405.26,-218.86 410.9,-221 416.57,-222.93"/>
<polygon fill="#63b8ff" stroke="#63b8ff" points="415.51,-226.26 426.1,-225.96 417.64,-219.59 415.51,-226.26"/>
</a>
</g>
</g>
<!-- Node10 -->
<g id="Node000010" class="node">
<title>Node10</title>
<g id="a_Node000010"><a xlink:href="classG3D_1_1Vector3.html#aa30928c1850c01f4456e83b4bab0254c" target="_top" xlink:title=" ">
<polygon fill="white" stroke="#666666" points="517,-95 418,-95 418,-76 517,-76 517,-95"/>
<text text-anchor="middle" x="467.5" y="-83" font-family="Helvetica,sans-Serif" font-size="10.00">G3D::Vector3::inf</text>
</a>
</g>
</g>
<!-- Node2&#45;&gt;Node10 -->
<g id="edge10_Node000002_Node000010" class="edge">
<title>Node2&#45;&gt;Node10</title>
<g id="a_edge10_Node000002_Node000010"><a xlink:title=" ">
<path fill="none" stroke="#63b8ff" d="M349.25,-121.92C375,-113.92 403.67,-105.02 426.21,-98.01"/>
<polygon fill="#63b8ff" stroke="#63b8ff" points="427.27,-101.35 435.79,-95.04 425.2,-94.66 427.27,-101.35"/>
</a>
</g>
</g>
<!-- Node6 -->
<g id="Node000006" class="node">
<title>Node6</title>
<g id="a_Node000006"><a xlink:href="namespaceG3D.html#aca937b9666bc57d5f6319bcbd847fd4c" target="_top" xlink:title=" ">
<polygon fill="white" stroke="#666666" points="814,-209 753,-209 753,-190 814,-190 814,-209"/>
<text text-anchor="middle" x="783.5" y="-197" font-family="Helvetica,sans-Serif" font-size="10.00">G3D::abs</text>
</a>
</g>
</g>
<!-- Node5&#45;&gt;Node6 -->
<g id="edge5_Node000005_Node000006" class="edge">
<title>Node5&#45;&gt;Node6</title>
<g id="a_edge5_Node000005_Node000006"><a xlink:title=" ">
<path fill="none" stroke="#63b8ff" d="M508.79,-169.34C527.63,-172.81 550.41,-176.72 571,-179.5 630.64,-187.54 700.18,-193.46 742.77,-196.69"/>
<polygon fill="#63b8ff" stroke="#63b8ff" points="742.76,-200.2 752.99,-197.45 743.28,-193.22 742.76,-200.2"/>
</a>
</g>
</g>
<!-- Node7 -->
<g id="Node000007" class="node">
<title>Node7</title>
<g id="a_Node000007"><a xlink:href="namespaceG3D.html#a91d6afc0bd460dd68e1ebba259120cea" target="_top" xlink:title=" ">
<polygon fill="white" stroke="#666666" points="674.5,-171 613.5,-171 613.5,-152 674.5,-152 674.5,-171"/>
<text text-anchor="middle" x="644" y="-159" font-family="Helvetica,sans-Serif" font-size="10.00">G3D::eps</text>
</a>
</g>
</g>
<!-- Node5&#45;&gt;Node7 -->
<g id="edge6_Node000005_Node000007" class="edge">
<title>Node5&#45;&gt;Node7</title>
<g id="a_edge6_Node000005_Node000007"><a xlink:title=" ">
<path fill="none" stroke="#63b8ff" d="M508.53,-161.5C536.91,-161.5 574.81,-161.5 603.15,-161.5"/>
<polygon fill="#63b8ff" stroke="#63b8ff" points="603.5,-165 613.5,-161.5 603.5,-158 603.5,-165"/>
</a>
</g>
</g>
<!-- Node7&#45;&gt;Node6 -->
<g id="edge7_Node000007_Node000006" class="edge">
<title>Node7&#45;&gt;Node6</title>
<g id="a_edge7_Node000007_Node000006"><a xlink:title=" ">
<path fill="none" stroke="#63b8ff" d="M674.84,-169.75C694.75,-175.25 721.15,-182.54 742.82,-188.54"/>
<polygon fill="#63b8ff" stroke="#63b8ff" points="742.15,-191.98 752.72,-191.27 744.02,-185.23 742.15,-191.98"/>
</a>
</g>
</g>
<!-- Node8 -->
<g id="Node000008" class="node">
<title>Node8</title>
<g id="a_Node000008"><a xlink:href="namespaceG3D.html#a86bb20cad66ebd418f73ff28684856c2" target="_top" xlink:title=" ">
<polygon fill="white" stroke="#666666" points="811.5,-171 755.5,-171 755.5,-152 811.5,-152 811.5,-171"/>
<text text-anchor="middle" x="783.5" y="-159" font-family="Helvetica,sans-Serif" font-size="10.00">G3D::inf</text>
</a>
</g>
</g>
<!-- Node7&#45;&gt;Node8 -->
<g id="edge8_Node000007_Node000008" class="edge">
<title>Node7&#45;&gt;Node8</title>
<g id="a_edge8_Node000007_Node000008"><a xlink:title=" ">
<path fill="none" stroke="#63b8ff" d="M674.84,-161.5C695.43,-161.5 722.96,-161.5 745.03,-161.5"/>
<polygon fill="#63b8ff" stroke="#63b8ff" points="745.06,-165 755.06,-161.5 745.06,-158 745.06,-165"/>
</a>
</g>
</g>
<!-- Node10&#45;&gt;Node4 -->
<g id="edge11_Node000010_Node000004" class="edge">
<title>Node10&#45;&gt;Node4</title>
<g id="a_edge11_Node000010_Node000004"><a xlink:title=" ">
<path fill="none" stroke="#63b8ff" d="M517.11,-85.5C544.58,-85.5 578.47,-85.5 604.16,-85.5"/>
<polygon fill="#63b8ff" stroke="#63b8ff" points="604.27,-89 614.27,-85.5 604.27,-82 604.27,-89"/>
</a>
</g>
</g>
<!-- Node12 -->
<g id="Node000012" class="node">
<title>Node12</title>
<g id="a_Node000012"><a xlink:href="classG3D_1_1CollisionDetection.html#a3b33fa81f077790450f541f925dc2a8c" target="_top" xlink:title=" ">
<polygon fill="white" stroke="#666666" points="534,-293.5 401,-293.5 401,-263.5 534,-263.5 534,-293.5"/>
<text text-anchor="start" x="409" y="-281.5" font-family="Helvetica,sans-Serif" font-size="10.00">G3D::CollisionDetection</text>
<text text-anchor="middle" x="467.5" y="-270.5" font-family="Helvetica,sans-Serif" font-size="10.00">::isPointInsideTriangle</text>
</a>
</g>
</g>
<!-- Node11&#45;&gt;Node12 -->
<g id="edge14_Node000011_Node000012" class="edge">
<title>Node11&#45;&gt;Node12</title>
<g id="a_edge14_Node000011_Node000012"><a xlink:title=" ">
<path fill="none" stroke="#63b8ff" d="M349.25,-258.05C362.8,-260.42 377.15,-262.92 390.99,-265.33"/>
<polygon fill="#63b8ff" stroke="#63b8ff" points="390.51,-268.8 400.96,-267.07 391.71,-261.91 390.51,-268.8"/>
</a>
</g>
</g>
<!-- Node13 -->
<g id="Node000013" class="node">
<title>Node13</title>
<g id="a_Node000013"><a xlink:href="classG3D_1_1Vector3.html#a7d176141142d9d79c35b788abf0f5da2" target="_top" xlink:title=" ">
<polygon fill="white" stroke="#666666" points="717,-267 571,-267 571,-248 717,-248 717,-267"/>
<text text-anchor="middle" x="644" y="-255" font-family="Helvetica,sans-Serif" font-size="10.00">G3D::Vector3::primaryAxis</text>
</a>
</g>
</g>
<!-- Node12&#45;&gt;Node13 -->
<g id="edge15_Node000012_Node000013" class="edge">
<title>Node12&#45;&gt;Node13</title>
<g id="a_edge15_Node000012_Node000013"><a xlink:title=" ">
<path fill="none" stroke="#63b8ff" d="M534.47,-270.56C543.1,-269.52 552.02,-268.45 560.87,-267.38"/>
<polygon fill="#63b8ff" stroke="#63b8ff" points="561.3,-270.86 570.81,-266.19 560.46,-263.91 561.3,-270.86"/>
</a>
</g>
</g>
<!-- Node13&#45;&gt;Node6 -->
<g id="edge16_Node000013_Node000006" class="edge">
<title>Node13&#45;&gt;Node6</title>
<g id="a_edge16_Node000013_Node000006"><a xlink:title=" ">
<path fill="none" stroke="#63b8ff" d="M667.71,-247.92C690.3,-238.39 725.16,-223.69 750.54,-212.98"/>
<polygon fill="#63b8ff" stroke="#63b8ff" points="751.91,-216.2 759.76,-209.09 749.19,-209.75 751.91,-216.2"/>
</a>
</g>
</g>
</g>
</svg>

<g id="navigator" transform="translate(0 0)" fill="#404254">
  <rect fill="#f2f5e9" fill-opacity="0.5" stroke="#606060" stroke-width=".5" x="0" y="0" width="60" height="60"/>
  <use id="zoomplus" xlink:href="#zoomPlus" x="17" y="9" onmousedown="handleZoom(evt,'in')"/>
  <use id="zoomminus" xlink:href="#zoomMin" x="42" y="9" onmousedown="handleZoom(evt,'out')"/>
  <use id="reset" xlink:href="#resetDef" x="30" y="36" onmousedown="handleReset()"/>
   <use id="arrowup" xlink:href="#arrowUp" x="0" y="0" onmousedown="handlePan(0,-1)"/>
  <use id="arrowright" xlink:href="#arrowRight" x="0" y="0" onmousedown="handlePan(1,0)"/>
  <use id="arrowdown" xlink:href="#arrowDown" x="0" y="0" onmousedown="handlePan(0,1)"/>
  <use id="arrowleft" xlink:href="#arrowLeft" x="0" y="0" onmousedown="handlePan(-1,0)"/>
</g>
<svg viewBox="0 0 15 15" width="100%" height="30px" preserveAspectRatio="xMaxYMin meet">
 <g id="arrow_out" transform="scale(0.3 0.3)">
  <a xlink:href="classG3D_1_1CollisionDetection_ade433cc64c91539d1bd681d1e3019b67_cgraph_org.svg" target="_base">
   <rect id="button" ry="5" rx="5" y="6" x="6" height="38" width="38"
        fill="#f2f5e9" fill-opacity="0.5" stroke="#606060" stroke-width="1.0"/>
   <path id="arrow"
     d="M 11.500037,31.436501 C 11.940474,20.09759 22.043105,11.32322 32.158766,21.979434 L 37.068811,17.246167 C 37.068811,17.246167 37.088388,32 37.088388,32 L 22.160133,31.978069 C 22.160133,31.978069 26.997745,27.140456 26.997745,27.140456 C 18.528582,18.264221 13.291696,25.230495 11.500037,31.436501 z"
     style="fill:#404040;"/>
  </a>
 </g>
</svg>

<style type='text/css'>
<![CDATA[
[data-mouse-over-selected='false'] { opacity: 0.7; }
[data-mouse-over-selected='true']  { opacity: 1.0; }
]]>
</style>
<script type="application/ecmascript"><![CDATA[
document.addEventListener('DOMContentLoaded', (event) => {
  highlightEdges();
  highlightAdjacentNodes();
});
]]></script>
</svg>
