<?xml version="1.0" encoding="UTF-8" standalone="no"?>
<!DOCTYPE svg PUBLIC "-//W3C//DTD SVG 1.1//EN"
 "http://www.w3.org/Graphics/SVG/1.1/DTD/svg11.dtd">
<!-- Generated by graphviz version 2.43.0 (0)
 -->
<!-- Title: Player::isSummoningDisabled Pages: 1 -->
<svg width="557pt" height="86pt"
 viewBox="0.00 0.00 557.00 86.00" xmlns="http://www.w3.org/2000/svg" xmlns:xlink="http://www.w3.org/1999/xlink">
<g id="graph0" class="graph" transform="scale(1 1) rotate(0) translate(4 82)">
<title>Player::isSummoningDisabled</title>
<!-- Node1 -->
<g id="Node000001" class="node">
<title>Node1</title>
<g id="a_Node000001"><a xlink:title=" ">
<polygon fill="#999999" stroke="#666666" points="549,-48.5 386,-48.5 386,-29.5 549,-29.5 549,-48.5"/>
<text text-anchor="middle" x="467.5" y="-36.5" font-family="Helvetica,sans-Serif" font-size="10.00">Player::isSummoningDisabled</text>
</a>
</g>
</g>
<!-- Node2 -->
<g id="Node000002" class="node">
<title>Node2</title>
<g id="a_Node000002"><a xlink:href="classChatCommandHandler.html#a6f9c98c5b18a008dea69a541bb17999e" target="_top" xlink:title=" ">
<polygon fill="white" stroke="#666666" points="350,-78 172,-78 172,-48 350,-48 350,-78"/>
<text text-anchor="start" x="180" y="-66" font-family="Helvetica,sans-Serif" font-size="10.00">ChatCommandHandler</text>
<text text-anchor="middle" x="261" y="-55" font-family="Helvetica,sans-Serif" font-size="10.00">::HandleBlockSummonCommand</text>
</a>
</g>
</g>
<!-- Node1&#45;&gt;Node2 -->
<g id="edge1_Node000001_Node000002" class="edge">
<title>Node1&#45;&gt;Node2</title>
<g id="a_edge1_Node000001_Node000002"><a xlink:title=" ">
<path fill="none" stroke="#63b8ff" d="M375.99,-49.62C367.43,-50.63 358.76,-51.64 350.22,-52.65"/>
<polygon fill="#63b8ff" stroke="#63b8ff" points="376.45,-53.09 385.97,-48.45 375.63,-46.14 376.45,-53.09"/>
</a>
</g>
</g>
<!-- Node4 -->
<g id="Node000004" class="node">
<title>Node4</title>
<g id="a_Node000004"><a xlink:href="classChatCommandHandler.html#a28c854e238bfd971b02ac89f627214cc" target="_top" xlink:title=" ">
<polygon fill="white" stroke="#666666" points="336.5,-30 185.5,-30 185.5,0 336.5,0 336.5,-30"/>
<text text-anchor="start" x="193.5" y="-18" font-family="Helvetica,sans-Serif" font-size="10.00">ChatCommandHandler</text>
<text text-anchor="middle" x="261" y="-7" font-family="Helvetica,sans-Serif" font-size="10.00">::HandleSummonCommand</text>
</a>
</g>
</g>
<!-- Node1&#45;&gt;Node4 -->
<g id="edge3_Node000001_Node000004" class="edge">
<title>Node1&#45;&gt;Node4</title>
<g id="a_edge3_Node000001_Node000004"><a xlink:title=" ">
<path fill="none" stroke="#63b8ff" d="M376.01,-28.38C362.91,-26.84 349.54,-25.27 336.79,-23.78"/>
<polygon fill="#63b8ff" stroke="#63b8ff" points="375.63,-31.86 385.97,-29.55 376.45,-24.91 375.63,-31.86"/>
</a>
</g>
</g>
<!-- Node3 -->
<g id="Node000003" class="node">
<title>Node3</title>
<g id="a_Node000003"><a xlink:href="classCommandTableStorage.html#a3e4c1b5de1a9cb06c059165e7997a8d0" target="_top" xlink:title=" ">
<polygon fill="white" stroke="#666666" points="136,-54 0,-54 0,-24 136,-24 136,-54"/>
<text text-anchor="start" x="8" y="-42" font-family="Helvetica,sans-Serif" font-size="10.00">CommandTableStorage</text>
<text text-anchor="middle" x="68" y="-31" font-family="Helvetica,sans-Serif" font-size="10.00">::CommandTableStorage</text>
</a>
</g>
</g>
<!-- Node2&#45;&gt;Node3 -->
<g id="edge2_Node000002_Node000003" class="edge">
<title>Node2&#45;&gt;Node3</title>
<g id="a_edge2_Node000002_Node000003"><a xlink:title=" ">
<path fill="none" stroke="#63b8ff" d="M161.6,-50.64C152.94,-49.55 144.32,-48.46 136,-47.42"/>
<polygon fill="#63b8ff" stroke="#63b8ff" points="161.41,-54.14 171.77,-51.91 162.28,-47.19 161.41,-54.14"/>
</a>
</g>
</g>
<!-- Node4&#45;&gt;Node3 -->
<g id="edge4_Node000004_Node000003" class="edge">
<title>Node4&#45;&gt;Node3</title>
<g id="a_edge4_Node000004_Node000003"><a xlink:title=" ">
<path fill="none" stroke="#63b8ff" d="M175.36,-25.63C162.23,-27.28 148.83,-28.97 136.15,-30.56"/>
<polygon fill="#63b8ff" stroke="#63b8ff" points="175.85,-29.1 185.33,-24.38 174.98,-22.16 175.85,-29.1"/>
</a>
</g>
</g>
</g>
</svg>
