<?xml version="1.0" encoding="UTF-8" standalone="no"?>
<!DOCTYPE svg PUBLIC "-//W3C//DTD SVG 1.1//EN"
 "http://www.w3.org/Graphics/SVG/1.1/DTD/svg11.dtd">
<!-- Generated by graphviz version 2.43.0 (0)
 -->
<!-- Title: WarsongGulch::HookOnPlayerKill Pages: 1 -->
<!--zoomable 245 -->

<svg id="main" version="1.1" xmlns="http://www.w3.org/2000/svg" xmlns:xlink="http://www.w3.org/1999/xlink" xml:space="preserve" onload="init(evt)">
<style type="text/css"><![CDATA[
.node, .edge {opacity: 0.7;}
.node.selected, .edge.selected {opacity: 1;}
.edge:hover path { stroke: red; }
.edge:hover polygon { stroke: red; fill: red; }
]]></style>

<defs>
  <circle id="rim" cx="0" cy="0" r="7"/>
  <circle id="rim2" cx="0" cy="0" r="3.5"/>
  <g id="zoomPlus">
    <use xlink:href="#rim" fill="#404040"><set attributeName="fill" to="#808080" begin="zoomplus.mouseover" end="zoomplus.mouseout"/></use>
    <path d="M-4,0h8M0,-4v8" fill="none" stroke="white" stroke-width="1.5" pointer-events="none"/>
  </g>
  <g id="zoomMin">
    <use xlink:href="#rim" fill="#404040"><set attributeName="fill" to="#808080" begin="zoomminus.mouseover" end="zoomminus.mouseout"/></use>
    <path d="M-4,0h8" fill="none" stroke="white" stroke-width="1.5" pointer-events="none"/>
  </g>
  <g id="arrowUp" transform="translate(30 24)">
    <use xlink:href="#rim"/>
    <path pointer-events="none" fill="none" stroke="white" stroke-width="1.5" d="M0,-3.0v7 M-2.5,-0.5L0,-3.0L2.5,-0.5"/>
  </g>
  <g id="arrowRight" transform="rotate(90) translate(36 -43)">
    <use xlink:href="#rim"/>
    <path pointer-events="none" fill="none" stroke="white" stroke-width="1.5" d="M0,-3.0v7 M-2.5,-0.5L0,-3.0L2.5,-0.5"/>
  </g>
  <g id="arrowDown" transform="rotate(180) translate(-30 -48)">
    <use xlink:href="#rim"/>
    <path pointer-events="none" fill="none" stroke="white" stroke-width="1.5" d="M0,-3.0v7 M-2.5,-0.5L0,-3.0L2.5,-0.5"/>
  </g>
  <g id="arrowLeft" transform="rotate(270) translate(-36 17)">
    <use xlink:href="#rim"/>
    <path pointer-events="none" fill="none" stroke="white" stroke-width="1.5" d="M0,-3.0v7 M-2.5,-0.5L0,-3.0L2.5,-0.5"/>
  </g>
  <g id="resetDef">
    <use xlink:href="#rim2" fill="#404040"><set attributeName="fill" to="#808080" begin="reset.mouseover" end="reset.mouseout"/></use>
  </g>
</defs>
<script type="application/ecmascript">
var viewWidth = 905;
var viewHeight = 245;
var sectionId = 'dynsection-18';
</script>
<script type="application/ecmascript" xlink:href="svg.min.js"/>
<svg id="graph" class="graph">
<g id="viewport">
<title>WarsongGulch::HookOnPlayerKill</title>
<!-- Node1 -->
<g id="Node000001" class="node">
<title>Node1</title>
<g id="a_Node000001"><a xlink:title=" ">
<polygon fill="#999999" stroke="#666666" points="178,-67.5 0,-67.5 0,-48.5 178,-48.5 178,-67.5"/>
<text text-anchor="middle" x="89" y="-55.5" font-family="Helvetica,sans-Serif" font-size="10.00">WarsongGulch::HookOnPlayerKill</text>
</a>
</g>
</g>
<!-- Node2 -->
<g id="Node000002" class="node">
<title>Node2</title>
<g id="a_Node000002"><a xlink:href="classBattleground.html#a14ffc13bbe1fde737abde53b7e5f6044" target="_top" xlink:title=" ">
<polygon fill="white" stroke="#666666" points="375,-67.5 214,-67.5 214,-48.5 375,-48.5 375,-67.5"/>
<text text-anchor="middle" x="294.5" y="-55.5" font-family="Helvetica,sans-Serif" font-size="10.00">Battleground::updatePvPData</text>
</a>
</g>
</g>
<!-- Node1&#45;&gt;Node2 -->
<g id="edge1_Node000001_Node000002" class="edge">
<title>Node1&#45;&gt;Node2</title>
<g id="a_edge1_Node000001_Node000002"><a xlink:title=" ">
<path fill="none" stroke="#63b8ff" d="M178.07,-58C186.64,-58 195.35,-58 203.93,-58"/>
<polygon fill="#63b8ff" stroke="#63b8ff" points="203.94,-61.5 213.94,-58 203.94,-54.5 203.94,-61.5"/>
</a>
</g>
</g>
<!-- Node3 -->
<g id="Node000003" class="node">
<title>Node3</title>
<g id="a_Node000003"><a xlink:href="classBattleground.html#a220efc851bc02233ca3dd7c74a19798b" target="_top" xlink:title=" ">
<polygon fill="white" stroke="#666666" points="574,-131 411,-131 411,-101 574,-101 574,-131"/>
<text text-anchor="start" x="419" y="-119" font-family="Helvetica,sans-Serif" font-size="10.00">Battleground::buildPvPUpdate</text>
<text text-anchor="middle" x="492.5" y="-108" font-family="Helvetica,sans-Serif" font-size="10.00">DataPacket</text>
</a>
</g>
</g>
<!-- Node2&#45;&gt;Node3 -->
<g id="edge2_Node000002_Node000003" class="edge">
<title>Node2&#45;&gt;Node3</title>
<g id="a_edge2_Node000002_Node000003"><a xlink:title=" ">
<path fill="none" stroke="#63b8ff" d="M327.87,-67.58C355.77,-75.84 396.82,-87.98 430.82,-98.04"/>
<polygon fill="#63b8ff" stroke="#63b8ff" points="430.08,-101.48 440.67,-100.96 432.07,-94.76 430.08,-101.48"/>
</a>
</g>
</g>
<!-- Node8 -->
<g id="Node000008" class="node">
<title>Node8</title>
<g id="a_Node000008"><a xlink:href="classBattleground.html#a27220c64d452984805d78b38468f391b" target="_top" xlink:title=" ">
<polygon fill="white" stroke="#666666" points="759,-51.5 614,-51.5 614,-32.5 759,-32.5 759,-51.5"/>
<text text-anchor="middle" x="686.5" y="-39.5" font-family="Helvetica,sans-Serif" font-size="10.00">Battleground::isTypeArena</text>
</a>
</g>
</g>
<!-- Node2&#45;&gt;Node8 -->
<g id="edge11_Node000002_Node000008" class="edge">
<title>Node2&#45;&gt;Node8</title>
<g id="a_edge11_Node000002_Node000008"><a xlink:title=" ">
<path fill="none" stroke="#63b8ff" d="M375.36,-54.72C442.03,-51.99 536.66,-48.11 603.83,-45.35"/>
<polygon fill="#63b8ff" stroke="#63b8ff" points="604.1,-48.84 613.95,-44.94 603.81,-41.85 604.1,-48.84"/>
</a>
</g>
</g>
<!-- Node11 -->
<g id="Node000011" class="node">
<title>Node11</title>
<g id="a_Node000011"><a xlink:href="classBattleground.html#a69fe57f68c833fe5e851a7b1574bd5a7" target="_top" xlink:title=" ">
<polygon fill="white" stroke="#666666" points="558.5,-30 426.5,-30 426.5,0 558.5,0 558.5,-30"/>
<text text-anchor="start" x="434.5" y="-18" font-family="Helvetica,sans-Serif" font-size="10.00">Battleground::distribute</text>
<text text-anchor="middle" x="492.5" y="-7" font-family="Helvetica,sans-Serif" font-size="10.00">PacketToAll</text>
</a>
</g>
</g>
<!-- Node2&#45;&gt;Node11 -->
<g id="edge10_Node000002_Node000011" class="edge">
<title>Node2&#45;&gt;Node11</title>
<g id="a_edge10_Node000002_Node000011"><a xlink:title=" ">
<path fill="none" stroke="#63b8ff" d="M339,-48.46C361.7,-43.48 390.12,-37.24 416.26,-31.51"/>
<polygon fill="#63b8ff" stroke="#63b8ff" points="417.13,-34.9 426.15,-29.34 415.63,-28.06 417.13,-34.9"/>
</a>
</g>
</g>
<!-- Node4 -->
<g id="Node000004" class="node">
<title>Node4</title>
<g id="a_Node000004"><a xlink:href="classBattleground.html#ab5f8eff10feff63af68a3f1c6d1380c8" target="_top" xlink:title=" ">
<polygon fill="white" stroke="#666666" points="763,-236.5 610,-236.5 610,-217.5 763,-217.5 763,-236.5"/>
<text text-anchor="middle" x="686.5" y="-224.5" font-family="Helvetica,sans-Serif" font-size="10.00">Battleground::getFieldCount</text>
</a>
</g>
</g>
<!-- Node3&#45;&gt;Node4 -->
<g id="edge3_Node000003_Node000004" class="edge">
<title>Node3&#45;&gt;Node4</title>
<g id="a_edge3_Node000003_Node000004"><a xlink:title=" ">
<path fill="none" stroke="#63b8ff" d="M507.82,-131.01C528.45,-151.73 568.6,-188.8 610,-209 613.99,-210.95 618.21,-212.69 622.52,-214.25"/>
<polygon fill="#63b8ff" stroke="#63b8ff" points="621.48,-217.6 632.08,-217.38 623.66,-210.94 621.48,-217.6"/>
</a>
</g>
</g>
<!-- Node5 -->
<g id="Node000005" class="node">
<title>Node5</title>
<g id="a_Node000005"><a xlink:href="classBattleground.html#a677aefa78cea44d437969127645398a8" target="_top" xlink:title=" ">
<polygon fill="white" stroke="#666666" points="748.5,-199.5 624.5,-199.5 624.5,-180.5 748.5,-180.5 748.5,-199.5"/>
<text text-anchor="middle" x="686.5" y="-187.5" font-family="Helvetica,sans-Serif" font-size="10.00">Battleground::getType</text>
</a>
</g>
</g>
<!-- Node3&#45;&gt;Node5 -->
<g id="edge4_Node000003_Node000005" class="edge">
<title>Node3&#45;&gt;Node5</title>
<g id="a_edge4_Node000003_Node000005"><a xlink:title=" ">
<path fill="none" stroke="#63b8ff" d="M520.56,-131.06C543.73,-143.45 578.28,-160.74 610,-172 616,-174.13 622.36,-176.09 628.74,-177.86"/>
<polygon fill="#63b8ff" stroke="#63b8ff" points="628.17,-181.33 638.73,-180.5 629.95,-174.56 628.17,-181.33"/>
</a>
</g>
</g>
<!-- Node6 -->
<g id="Node000006" class="node">
<title>Node6</title>
<g id="a_Node000006"><a xlink:href="classWorldPacket.html#ac08ded00d1a72d7835a73d0283f9a910" target="_top" xlink:title=" ">
<polygon fill="white" stroke="#666666" points="748.5,-162.5 624.5,-162.5 624.5,-143.5 748.5,-143.5 748.5,-162.5"/>
<text text-anchor="middle" x="686.5" y="-150.5" font-family="Helvetica,sans-Serif" font-size="10.00">WorldPacket::Initialize</text>
</a>
</g>
</g>
<!-- Node3&#45;&gt;Node6 -->
<g id="edge5_Node000003_Node000006" class="edge">
<title>Node3&#45;&gt;Node6</title>
<g id="a_edge5_Node000003_Node000006"><a xlink:title=" ">
<path fill="none" stroke="#63b8ff" d="M571.59,-131.05C589.82,-134.56 608.94,-138.25 626.19,-141.57"/>
<polygon fill="#63b8ff" stroke="#63b8ff" points="625.64,-145.03 636.12,-143.48 626.96,-138.15 625.64,-145.03"/>
</a>
</g>
</g>
<!-- Node3&#45;&gt;Node8 -->
<g id="edge7_Node000003_Node000008" class="edge">
<title>Node3&#45;&gt;Node8</title>
<g id="a_edge7_Node000003_Node000008"><a xlink:title=" ">
<path fill="none" stroke="#63b8ff" d="M520.56,-100.94C543.73,-88.55 578.28,-71.26 610,-60 616,-57.87 622.36,-55.91 628.74,-54.14"/>
<polygon fill="#63b8ff" stroke="#63b8ff" points="629.95,-57.44 638.73,-51.5 628.17,-50.67 629.95,-57.44"/>
</a>
</g>
</g>
<!-- Node9 -->
<g id="Node000009" class="node">
<title>Node9</title>
<g id="a_Node000009"><a xlink:href="classBattleground.html#ad998da32c78f57e4f7e6f0b90444c7e1" target="_top" xlink:title=" ">
<polygon fill="white" stroke="#666666" points="743.5,-125.5 629.5,-125.5 629.5,-106.5 743.5,-106.5 743.5,-125.5"/>
<text text-anchor="middle" x="686.5" y="-113.5" font-family="Helvetica,sans-Serif" font-size="10.00">Battleground::Rated</text>
</a>
</g>
</g>
<!-- Node3&#45;&gt;Node9 -->
<g id="edge8_Node000003_Node000009" class="edge">
<title>Node3&#45;&gt;Node9</title>
<g id="a_edge8_Node000003_Node000009"><a xlink:title=" ">
<path fill="none" stroke="#63b8ff" d="M574.09,-116C589.04,-116 604.5,-116 618.97,-116"/>
<polygon fill="#63b8ff" stroke="#63b8ff" points="619.31,-119.5 629.31,-116 619.31,-112.5 619.31,-119.5"/>
</a>
</g>
</g>
<!-- Node10 -->
<g id="Node000010" class="node">
<title>Node10</title>
<g id="a_Node000010"><a xlink:href="classByteBuffer.html#a2561da6a9423880162eaf47c60284dbe" target="_top" xlink:title=" ">
<polygon fill="white" stroke="#666666" points="742,-88.5 631,-88.5 631,-69.5 742,-69.5 742,-88.5"/>
<text text-anchor="middle" x="686.5" y="-76.5" font-family="Helvetica,sans-Serif" font-size="10.00">ByteBuffer::reserve</text>
</a>
</g>
</g>
<!-- Node3&#45;&gt;Node10 -->
<g id="edge9_Node000003_Node000010" class="edge">
<title>Node3&#45;&gt;Node10</title>
<g id="a_edge9_Node000003_Node000010"><a xlink:title=" ">
<path fill="none" stroke="#63b8ff" d="M571.59,-100.95C589.82,-97.44 608.94,-93.75 626.19,-90.43"/>
<polygon fill="#63b8ff" stroke="#63b8ff" points="626.96,-93.85 636.12,-88.52 625.64,-86.97 626.96,-93.85"/>
</a>
</g>
</g>
<!-- Node7 -->
<g id="Node000007" class="node">
<title>Node7</title>
<g id="a_Node000007"><a xlink:href="classByteBuffer.html#ab9fbbcf0abe4049e2016c1262795c97e" target="_top" xlink:title=" ">
<polygon fill="white" stroke="#666666" points="897,-162.5 799,-162.5 799,-143.5 897,-143.5 897,-162.5"/>
<text text-anchor="middle" x="848" y="-150.5" font-family="Helvetica,sans-Serif" font-size="10.00">ByteBuffer::clear</text>
</a>
</g>
</g>
<!-- Node6&#45;&gt;Node7 -->
<g id="edge6_Node000006_Node000007" class="edge">
<title>Node6&#45;&gt;Node7</title>
<g id="a_edge6_Node000006_Node000007"><a xlink:title=" ">
<path fill="none" stroke="#63b8ff" d="M748.71,-153C761.81,-153 775.62,-153 788.61,-153"/>
<polygon fill="#63b8ff" stroke="#63b8ff" points="788.83,-156.5 798.83,-153 788.83,-149.5 788.83,-156.5"/>
</a>
</g>
</g>
</g>
</svg>

<g id="navigator" transform="translate(0 0)" fill="#404254">
  <rect fill="#f2f5e9" fill-opacity="0.5" stroke="#606060" stroke-width=".5" x="0" y="0" width="60" height="60"/>
  <use id="zoomplus" xlink:href="#zoomPlus" x="17" y="9" onmousedown="handleZoom(evt,'in')"/>
  <use id="zoomminus" xlink:href="#zoomMin" x="42" y="9" onmousedown="handleZoom(evt,'out')"/>
  <use id="reset" xlink:href="#resetDef" x="30" y="36" onmousedown="handleReset()"/>
   <use id="arrowup" xlink:href="#arrowUp" x="0" y="0" onmousedown="handlePan(0,-1)"/>
  <use id="arrowright" xlink:href="#arrowRight" x="0" y="0" onmousedown="handlePan(1,0)"/>
  <use id="arrowdown" xlink:href="#arrowDown" x="0" y="0" onmousedown="handlePan(0,1)"/>
  <use id="arrowleft" xlink:href="#arrowLeft" x="0" y="0" onmousedown="handlePan(-1,0)"/>
</g>
<svg viewBox="0 0 15 15" width="100%" height="30px" preserveAspectRatio="xMaxYMin meet">
 <g id="arrow_out" transform="scale(0.3 0.3)">
  <a xlink:href="classWarsongGulch_ac81eef64a6b2a9c3785227f1c7d811c2_cgraph_org.svg" target="_base">
   <rect id="button" ry="5" rx="5" y="6" x="6" height="38" width="38"
        fill="#f2f5e9" fill-opacity="0.5" stroke="#606060" stroke-width="1.0"/>
   <path id="arrow"
     d="M 11.500037,31.436501 C 11.940474,20.09759 22.043105,11.32322 32.158766,21.979434 L 37.068811,17.246167 C 37.068811,17.246167 37.088388,32 37.088388,32 L 22.160133,31.978069 C 22.160133,31.978069 26.997745,27.140456 26.997745,27.140456 C 18.528582,18.264221 13.291696,25.230495 11.500037,31.436501 z"
     style="fill:#404040;"/>
  </a>
 </g>
</svg>

<style type='text/css'>
<![CDATA[
[data-mouse-over-selected='false'] { opacity: 0.7; }
[data-mouse-over-selected='true']  { opacity: 1.0; }
]]>
</style>
<script type="application/ecmascript"><![CDATA[
document.addEventListener('DOMContentLoaded', (event) => {
  highlightEdges();
  highlightAdjacentNodes();
});
]]></script>
</svg>
