<?xml version="1.0" encoding="UTF-8" standalone="no"?>
<!DOCTYPE svg PUBLIC "-//W3C//DTD SVG 1.1//EN"
 "http://www.w3.org/Graphics/SVG/1.1/DTD/svg11.dtd">
<!-- Generated by graphviz version 2.43.0 (0)
 -->
<!-- Title: FathomStone::OnActivate Pages: 1 -->
<svg width="879pt" height="1489pt"
 viewBox="0.00 0.00 879.00 1489.00" xmlns="http://www.w3.org/2000/svg" xmlns:xlink="http://www.w3.org/1999/xlink">
<g id="graph0" class="graph" transform="scale(1 1) rotate(0) translate(4 1485)">
<title>FathomStone::OnActivate</title>
<!-- Node1 -->
<g id="Node000001" class="node">
<title>Node1</title>
<g id="a_Node000001"><a xlink:title=" ">
<polygon fill="#999999" stroke="#666666" points="140,-882 0,-882 0,-863 140,-863 140,-882"/>
<text text-anchor="middle" x="70" y="-870" font-family="Helvetica,sans-Serif" font-size="10.00">FathomStone::OnActivate</text>
</a>
</g>
</g>
<!-- Node2 -->
<g id="Node000002" class="node">
<title>Node2</title>
<g id="a_Node000002"><a xlink:href="classWorldMap.html#a40584ff6455da37438a0ee2a2dff79bb" target="_top" xlink:title=" ">
<polygon fill="white" stroke="#666666" points="307,-938 176,-938 176,-919 307,-919 307,-938"/>
<text text-anchor="middle" x="241.5" y="-926" font-family="Helvetica,sans-Serif" font-size="10.00">WorldMap::getInterface</text>
</a>
</g>
</g>
<!-- Node1&#45;&gt;Node2 -->
<g id="edge1_Node000001_Node000002" class="edge">
<title>Node1&#45;&gt;Node2</title>
<g id="a_edge1_Node000001_Node000002"><a xlink:title=" ">
<path fill="none" stroke="#63b8ff" d="M95.85,-882.09C117.02,-890.11 148.3,-901.64 176,-910.5 182.03,-912.43 188.42,-914.35 194.73,-916.19"/>
<polygon fill="#63b8ff" stroke="#63b8ff" points="193.96,-919.61 204.53,-918.98 195.88,-912.87 193.96,-919.61"/>
</a>
</g>
</g>
<!-- Node3 -->
<g id="Node000003" class="node">
<title>Node3</title>
<g id="a_Node000003"><a xlink:href="classObject.html#a967af054c54b6d9846637ce8718efd75" target="_top" xlink:title=" ">
<polygon fill="white" stroke="#666666" points="301,-901 182,-901 182,-882 301,-882 301,-901"/>
<text text-anchor="middle" x="241.5" y="-889" font-family="Helvetica,sans-Serif" font-size="10.00">Object::getWorldMap</text>
</a>
</g>
</g>
<!-- Node1&#45;&gt;Node3 -->
<g id="edge2_Node000001_Node000003" class="edge">
<title>Node1&#45;&gt;Node3</title>
<g id="a_edge2_Node000001_Node000003"><a xlink:title=" ">
<path fill="none" stroke="#63b8ff" d="M140.43,-880.28C150.79,-881.44 161.45,-882.64 171.79,-883.8"/>
<polygon fill="#63b8ff" stroke="#63b8ff" points="171.67,-887.31 182,-884.94 172.45,-880.35 171.67,-887.31"/>
</a>
</g>
</g>
<!-- Node4 -->
<g id="Node000004" class="node">
<title>Node4</title>
<g id="a_Node000004"><a xlink:href="classPlayer.html#a43c8f0596bcb43f43e127a345dd7c4e1" target="_top" xlink:title=" ">
<polygon fill="white" stroke="#666666" points="300,-864 183,-864 183,-845 300,-845 300,-864"/>
<text text-anchor="middle" x="241.5" y="-852" font-family="Helvetica,sans-Serif" font-size="10.00">Player::isTeamHorde</text>
</a>
</g>
</g>
<!-- Node1&#45;&gt;Node4 -->
<g id="edge3_Node000001_Node000004" class="edge">
<title>Node1&#45;&gt;Node4</title>
<g id="a_edge3_Node000001_Node000004"><a xlink:title=" ">
<path fill="none" stroke="#63b8ff" d="M140.43,-865.13C151.1,-863.99 162.11,-862.83 172.74,-861.7"/>
<polygon fill="#63b8ff" stroke="#63b8ff" points="173.22,-865.16 182.8,-860.63 172.48,-858.2 173.22,-865.16"/>
</a>
</g>
</g>
<!-- Node6 -->
<g id="Node000006" class="node">
<title>Node6</title>
<g id="a_Node000006"><a xlink:href="classMapScriptInterface.html#a8916e528d57c8c8207e2b961d861cdb0" target="_top" xlink:title=" ">
<polygon fill="white" stroke="#666666" points="296,-793.5 187,-793.5 187,-763.5 296,-763.5 296,-793.5"/>
<text text-anchor="start" x="195" y="-781.5" font-family="Helvetica,sans-Serif" font-size="10.00">MapScriptInterface</text>
<text text-anchor="middle" x="241.5" y="-770.5" font-family="Helvetica,sans-Serif" font-size="10.00">::spawnCreature</text>
</a>
</g>
</g>
<!-- Node1&#45;&gt;Node6 -->
<g id="edge5_Node000001_Node000006" class="edge">
<title>Node1&#45;&gt;Node6</title>
<g id="a_edge5_Node000001_Node000006"><a xlink:title=" ">
<path fill="none" stroke="#63b8ff" d="M88.19,-862.97C115.23,-847.97 168.31,-818.54 204.1,-798.69"/>
<polygon fill="#63b8ff" stroke="#63b8ff" points="206.2,-801.52 213.25,-793.61 202.81,-795.4 206.2,-801.52"/>
</a>
</g>
</g>
<!-- Node5 -->
<g id="Node000005" class="node">
<title>Node5</title>
<g id="a_Node000005"><a xlink:href="classPlayer.html#a5648707ed12c03a2419add4f8c882102" target="_top" xlink:title=" ">
<polygon fill="white" stroke="#666666" points="476,-1188 381,-1188 381,-1169 476,-1169 476,-1188"/>
<text text-anchor="middle" x="428.5" y="-1176" font-family="Helvetica,sans-Serif" font-size="10.00">Player::getTeam</text>
</a>
</g>
</g>
<!-- Node4&#45;&gt;Node5 -->
<g id="edge4_Node000004_Node000005" class="edge">
<title>Node4&#45;&gt;Node5</title>
<g id="a_edge4_Node000004_Node000005"><a xlink:title=" ">
<path fill="none" stroke="#63b8ff" d="M295.4,-864.13C299.77,-866.6 303.75,-869.68 307,-873.5 390.26,-971.45 256.05,-1065.81 343,-1160.5 350.38,-1168.54 360.39,-1173.46 370.93,-1176.39"/>
<polygon fill="#63b8ff" stroke="#63b8ff" points="370.19,-1179.81 380.71,-1178.55 371.7,-1172.97 370.19,-1179.81"/>
</a>
</g>
</g>
<!-- Node7 -->
<g id="Node000007" class="node">
<title>Node7</title>
<g id="a_Node000007"><a xlink:href="classWorldMap.html#ab23a61c608fbb4aacc3b8be21a5ec303" target="_top" xlink:title=" ">
<polygon fill="white" stroke="#666666" points="500.5,-1151 356.5,-1151 356.5,-1132 500.5,-1132 500.5,-1151"/>
<text text-anchor="middle" x="428.5" y="-1139" font-family="Helvetica,sans-Serif" font-size="10.00">WorldMap::createCreature</text>
</a>
</g>
</g>
<!-- Node6&#45;&gt;Node7 -->
<g id="edge6_Node000006_Node000007" class="edge">
<title>Node6&#45;&gt;Node7</title>
<g id="a_edge6_Node000006_Node000007"><a xlink:title=" ">
<path fill="none" stroke="#63b8ff" d="M266.44,-793.51C280.68,-803.79 297.72,-818.75 307,-836.5 366.55,-950.43 256.05,-1028.81 343,-1123.5 344.57,-1125.21 346.25,-1126.77 348.03,-1128.21"/>
<polygon fill="#63b8ff" stroke="#63b8ff" points="346.14,-1131.15 356.42,-1133.7 349.98,-1125.29 346.14,-1131.15"/>
</a>
</g>
</g>
<!-- Node9 -->
<g id="Node000009" class="node">
<title>Node9</title>
<g id="a_Node000009"><a xlink:href="structCreatureProperties.html#a809fb11b081a4e52ee562464f0b82a9c" target="_top" xlink:title=" ">
<polygon fill="white" stroke="#666666" points="514,-1114 343,-1114 343,-1073 514,-1073 514,-1114"/>
<text text-anchor="start" x="351" y="-1102" font-family="Helvetica,sans-Serif" font-size="10.00">CreatureProperties</text>
<text text-anchor="start" x="351" y="-1091" font-family="Helvetica,sans-Serif" font-size="10.00">::generateRandomDisplayIdAnd</text>
<text text-anchor="middle" x="428.5" y="-1080" font-family="Helvetica,sans-Serif" font-size="10.00">ReturnGender</text>
</a>
</g>
</g>
<!-- Node6&#45;&gt;Node9 -->
<g id="edge8_Node000006_Node000009" class="edge">
<title>Node6&#45;&gt;Node9</title>
<g id="a_edge8_Node000006_Node000009"><a xlink:title=" ">
<path fill="none" stroke="#63b8ff" d="M263.38,-793.71C277.1,-804.49 294.71,-819.93 307,-836.5 361.67,-910.17 400.56,-1012.61 417.7,-1063.01"/>
<polygon fill="#63b8ff" stroke="#63b8ff" points="414.44,-1064.29 420.93,-1072.66 421.07,-1062.07 414.44,-1064.29"/>
</a>
</g>
</g>
<!-- Node12 -->
<g id="Node000012" class="node">
<title>Node12</title>
<g id="a_Node000012"><a xlink:href="classCreature.html#ae4d345f9d8ccd87e67b01d2dc1226feb" target="_top" xlink:title=" ">
<polygon fill="#fff0f0" stroke="red" points="472.5,-764 384.5,-764 384.5,-745 472.5,-745 472.5,-764"/>
<text text-anchor="middle" x="428.5" y="-752" font-family="Helvetica,sans-Serif" font-size="10.00">Creature::Load</text>
</a>
</g>
</g>
<!-- Node6&#45;&gt;Node12 -->
<g id="edge12_Node000006_Node000012" class="edge">
<title>Node6&#45;&gt;Node12</title>
<g id="a_edge12_Node000006_Node000012"><a xlink:title=" ">
<path fill="none" stroke="#63b8ff" d="M296.01,-771.56C320.57,-768.37 349.61,-764.6 374.15,-761.42"/>
<polygon fill="#63b8ff" stroke="#63b8ff" points="374.9,-764.85 384.36,-760.1 374,-757.91 374.9,-764.85"/>
</a>
</g>
</g>
<!-- Node863 -->
<g id="Node000863" class="node">
<title>Node863</title>
<g id="a_Node000863"><a xlink:href="classObject.html#a08c09297b7cbb0af1898da2e8031b724" target="_top" xlink:title=" ">
<polygon fill="#fff0f0" stroke="red" points="486.5,-727 370.5,-727 370.5,-708 486.5,-708 486.5,-727"/>
<text text-anchor="middle" x="428.5" y="-715" font-family="Helvetica,sans-Serif" font-size="10.00">Object::PushToWorld</text>
</a>
</g>
</g>
<!-- Node6&#45;&gt;Node863 -->
<g id="edge51_Node000006_Node000863" class="edge">
<title>Node6&#45;&gt;Node863</title>
<g id="a_edge51_Node000006_Node000863"><a xlink:title=" ">
<path fill="none" stroke="#63b8ff" d="M274.55,-763.42C294.03,-754.68 319.58,-743.96 343,-736.5 351.13,-733.91 359.82,-731.53 368.41,-729.4"/>
<polygon fill="#63b8ff" stroke="#63b8ff" points="369.49,-732.74 378.41,-727.02 367.87,-725.93 369.49,-732.74"/>
</a>
</g>
</g>
<!-- Node2194 -->
<g id="Node002194" class="node">
<title>Node2194</title>
<g id="a_Node002194"><a xlink:href="classUnit.html#a5f0b34362f22d261a3424e72c2fdb079" target="_top" xlink:title=" ">
<polygon fill="#fff0f0" stroke="red" points="475,-690 382,-690 382,-671 475,-671 475,-690"/>
<text text-anchor="middle" x="428.5" y="-678" font-family="Helvetica,sans-Serif" font-size="10.00">Unit::setGender</text>
</a>
</g>
</g>
<!-- Node6&#45;&gt;Node2194 -->
<g id="edge52_Node000006_Node002194" class="edge">
<title>Node6&#45;&gt;Node2194</title>
<g id="a_edge52_Node000006_Node002194"><a xlink:title=" ">
<path fill="none" stroke="#63b8ff" d="M257.37,-763.23C275.79,-745.22 308.92,-715.7 343,-699.5 352.07,-695.19 362.15,-691.84 372.1,-689.23"/>
<polygon fill="#63b8ff" stroke="#63b8ff" points="373.06,-692.6 381.97,-686.87 371.43,-685.8 373.06,-692.6"/>
</a>
</g>
</g>
<!-- Node8 -->
<g id="Node000008" class="node">
<title>Node8</title>
<g id="a_Node000008"><a xlink:href="classWorldMap.html#ad528a6eaf7ba3c55c6591d0c01a4f20a" target="_top" xlink:title=" ">
<polygon fill="white" stroke="#666666" points="730,-1481 551,-1481 551,-1462 730,-1462 730,-1481"/>
<text text-anchor="middle" x="640.5" y="-1469" font-family="Helvetica,sans-Serif" font-size="10.00">WorldMap::generateCreatureGuid</text>
</a>
</g>
</g>
<!-- Node7&#45;&gt;Node8 -->
<g id="edge7_Node000007_Node000008" class="edge">
<title>Node7&#45;&gt;Node8</title>
<g id="a_edge7_Node000007_Node000008"><a xlink:title=" ">
<path fill="none" stroke="#63b8ff" d="M500.62,-1150.16C505.6,-1152.87 510.16,-1156.27 514,-1160.5 601.8,-1257.4 461.62,-1356.13 550,-1452.5 551.07,-1453.67 552.2,-1454.78 553.37,-1455.83"/>
<polygon fill="#63b8ff" stroke="#63b8ff" points="551.59,-1458.86 561.74,-1461.92 555.72,-1453.2 551.59,-1458.86"/>
</a>
</g>
</g>
<!-- Node10 -->
<g id="Node000010" class="node">
<title>Node10</title>
<g id="a_Node000010"><a xlink:href="structCreatureProperties.html#a8b78bb994d36cab16a5e0cb8a683cfcf" target="_top" xlink:title=" ">
<polygon fill="white" stroke="#666666" points="728.5,-1443.5 552.5,-1443.5 552.5,-1413.5 728.5,-1413.5 728.5,-1443.5"/>
<text text-anchor="start" x="560.5" y="-1431.5" font-family="Helvetica,sans-Serif" font-size="10.00">CreatureProperties</text>
<text text-anchor="middle" x="640.5" y="-1420.5" font-family="Helvetica,sans-Serif" font-size="10.00">::getInvisibleModelForTriggerNpc</text>
</a>
</g>
</g>
<!-- Node9&#45;&gt;Node10 -->
<g id="edge9_Node000009_Node000010" class="edge">
<title>Node9&#45;&gt;Node10</title>
<g id="a_edge9_Node000009_Node000010"><a xlink:title=" ">
<path fill="none" stroke="#63b8ff" d="M504.31,-1114.14C507.89,-1116.88 511.17,-1119.99 514,-1123.5 593.03,-1221.52 467.16,-1309.68 550,-1404.5 550.74,-1405.35 551.51,-1406.17 552.3,-1406.96"/>
<polygon fill="#63b8ff" stroke="#63b8ff" points="550.1,-1409.68 560.03,-1413.37 554.57,-1404.29 550.1,-1409.68"/>
</a>
</g>
</g>
<!-- Node11 -->
<g id="Node000011" class="node">
<title>Node11</title>
<g id="a_Node000011"><a xlink:href="namespaceUtil.html#ac09cb1bbc978b41e11720b88fec2800e" target="_top" xlink:title=" ">
<polygon fill="white" stroke="#666666" points="698.5,-1377 582.5,-1377 582.5,-1358 698.5,-1358 698.5,-1377"/>
<text text-anchor="middle" x="640.5" y="-1365" font-family="Helvetica,sans-Serif" font-size="10.00">Util::getRandomUInt</text>
</a>
</g>
</g>
<!-- Node9&#45;&gt;Node11 -->
<g id="edge10_Node000009_Node000011" class="edge">
<title>Node9&#45;&gt;Node11</title>
<g id="a_edge10_Node000009_Node000011"><a xlink:title=" ">
<path fill="none" stroke="#63b8ff" d="M504.18,-1114.25C507.8,-1116.96 511.11,-1120.03 514,-1123.5 579.04,-1201.7 479.55,-1276.14 550,-1349.5 556.22,-1355.98 564.07,-1360.47 572.53,-1363.54"/>
<polygon fill="#63b8ff" stroke="#63b8ff" points="571.7,-1366.94 582.28,-1366.43 573.69,-1360.23 571.7,-1366.94"/>
</a>
</g>
</g>
<!-- Node11&#45;&gt;Node11 -->
<g id="edge11_Node000011_Node000011" class="edge">
<title>Node11&#45;&gt;Node11</title>
<g id="a_edge11_Node000011_Node000011"><a xlink:title=" ">
<path fill="none" stroke="#63b8ff" d="M613.07,-1377.08C599.72,-1385.73 608.86,-1395 640.5,-1395 661.76,-1395 672.86,-1390.82 673.81,-1385.45"/>
<polygon fill="#63b8ff" stroke="#63b8ff" points="676.55,-1383.26 667.93,-1377.08 670.82,-1387.28 676.55,-1383.26"/>
</a>
</g>
</g>
<!-- Node12&#45;&gt;Node11 -->
<g id="edge31_Node000012_Node000011" class="edge">
<title>Node12&#45;&gt;Node11</title>
<g id="a_edge31_Node000012_Node000011"><a xlink:title=" ">
<path fill="none" stroke="#63b8ff" d="M432.63,-764.03C444.88,-801.7 490.11,-944.12 514,-1064.5 526.42,-1127.12 506.53,-1302.75 550,-1349.5 556.12,-1356.08 563.91,-1360.63 572.34,-1363.72"/>
<polygon fill="#63b8ff" stroke="#63b8ff" points="571.49,-1367.12 582.07,-1366.63 573.49,-1360.41 571.49,-1367.12"/>
</a>
</g>
</g>
<!-- Node13 -->
<g id="Node000013" class="node">
<title>Node13</title>
<g id="a_Node000013"><a xlink:href="classCreature.html#a3017404d48d86e06a9981bf7448e3a6c" target="_top" xlink:title=" ">
<polygon fill="white" stroke="#666666" points="704,-1340 577,-1340 577,-1321 704,-1321 704,-1340"/>
<text text-anchor="middle" x="640.5" y="-1328" font-family="Helvetica,sans-Serif" font-size="10.00">Creature::_LoadQuests</text>
</a>
</g>
</g>
<!-- Node12&#45;&gt;Node13 -->
<g id="edge13_Node000012_Node000013" class="edge">
<title>Node12&#45;&gt;Node13</title>
<g id="a_edge13_Node000012_Node000013"><a xlink:title=" ">
<path fill="none" stroke="#63b8ff" d="M432.56,-764.04C444.56,-801.77 489,-944.35 514,-1064.5 525.34,-1119.02 511.71,-1272.07 550,-1312.5 554.83,-1317.6 560.68,-1321.48 567.04,-1324.4"/>
<polygon fill="#63b8ff" stroke="#63b8ff" points="566.07,-1327.77 576.67,-1328.02 568.54,-1321.22 566.07,-1327.77"/>
</a>
</g>
</g>
<!-- Node14 -->
<g id="Node000014" class="node">
<title>Node14</title>
<g id="a_Node000014"><a xlink:href="classUnit.html#aaddde8a184d9e1a1319dc17c4b750420" target="_top" xlink:title=" ">
<polygon fill="#fff0f0" stroke="red" points="693.5,-1303 587.5,-1303 587.5,-1284 693.5,-1284 693.5,-1303"/>
<text text-anchor="middle" x="640.5" y="-1291" font-family="Helvetica,sans-Serif" font-size="10.00">Unit::addNpcFlags</text>
</a>
</g>
</g>
<!-- Node12&#45;&gt;Node14 -->
<g id="edge14_Node000012_Node000014" class="edge">
<title>Node12&#45;&gt;Node14</title>
<g id="a_edge14_Node000012_Node000014"><a xlink:title=" ">
<path fill="none" stroke="#63b8ff" d="M432.47,-764.06C444.14,-801.85 487.51,-944.67 514,-1064.5 534.53,-1157.39 483.73,-1207.25 550,-1275.5 557.45,-1283.17 567.18,-1288.05 577.48,-1291.07"/>
<polygon fill="#63b8ff" stroke="#63b8ff" points="576.94,-1294.54 587.48,-1293.43 578.55,-1287.73 576.94,-1294.54"/>
</a>
</g>
</g>
<!-- Node23 -->
<g id="Node000023" class="node">
<title>Node23</title>
<g id="a_Node000023"><a xlink:href="classUnit.html#af31134ebcca3fa4d81115046cebeaebb" target="_top" xlink:title=" ">
<polygon fill="white" stroke="#666666" points="706.5,-1266 574.5,-1266 574.5,-1247 706.5,-1247 706.5,-1266"/>
<text text-anchor="middle" x="640.5" y="-1254" font-family="Helvetica,sans-Serif" font-size="10.00">Unit::addSpellImmunity</text>
</a>
</g>
</g>
<!-- Node12&#45;&gt;Node23 -->
<g id="edge15_Node000012_Node000023" class="edge">
<title>Node12&#45;&gt;Node23</title>
<g id="a_edge15_Node000012_Node000023"><a xlink:title=" ">
<path fill="none" stroke="#63b8ff" d="M432.35,-764.09C443.56,-801.99 485.42,-945.15 514,-1064.5 532.39,-1141.3 494,-1182.81 550,-1238.5 554.32,-1242.8 559.36,-1246.21 564.81,-1248.9"/>
<polygon fill="#63b8ff" stroke="#63b8ff" points="563.72,-1252.24 574.3,-1252.79 566.38,-1245.76 563.72,-1252.24"/>
</a>
</g>
</g>
<!-- Node24 -->
<g id="Node000024" class="node">
<title>Node24</title>
<g id="a_Node000024"><a xlink:href="classLocationVector.html#a139f72fdce307e30088a96977e3a4f5e" target="_top" xlink:title=" ">
<polygon fill="white" stroke="#666666" points="723,-1229 558,-1229 558,-1210 723,-1210 723,-1229"/>
<text text-anchor="middle" x="640.5" y="-1217" font-family="Helvetica,sans-Serif" font-size="10.00">LocationVector::ChangeCoords</text>
</a>
</g>
</g>
<!-- Node12&#45;&gt;Node24 -->
<g id="edge16_Node000012_Node000024" class="edge">
<title>Node12&#45;&gt;Node24</title>
<g id="a_edge16_Node000012_Node000024"><a xlink:title=" ">
<path fill="none" stroke="#63b8ff" d="M432.16,-764.13C442.67,-802.22 482.27,-945.95 514,-1064.5 530.28,-1125.32 504.2,-1158.3 550,-1201.5 550.97,-1202.42 551.98,-1203.29 553.01,-1204.13"/>
<polygon fill="#63b8ff" stroke="#63b8ff" points="551.23,-1207.15 561.49,-1209.81 555.13,-1201.34 551.23,-1207.15"/>
</a>
</g>
</g>
<!-- Node25 -->
<g id="Node000025" class="node">
<title>Node25</title>
<g id="a_Node000025"><a xlink:href="classUnit.html#a0c640228026c1a578af342436b52bd09" target="_top" xlink:title=" ">
<polygon fill="white" stroke="#666666" points="709,-1192 572,-1192 572,-1173 709,-1173 709,-1192"/>
<text text-anchor="middle" x="640.5" y="-1180" font-family="Helvetica,sans-Serif" font-size="10.00">Unit::eventModelChange</text>
</a>
</g>
</g>
<!-- Node12&#45;&gt;Node25 -->
<g id="edge17_Node000012_Node000025" class="edge">
<title>Node12&#45;&gt;Node25</title>
<g id="a_edge17_Node000012_Node000025"><a xlink:title=" ">
<path fill="none" stroke="#63b8ff" d="M432.08,-764.1C448.18,-823.92 534.78,-1143.7 550,-1158.5 554.04,-1162.43 558.64,-1165.73 563.59,-1168.5"/>
<polygon fill="#63b8ff" stroke="#63b8ff" points="562.27,-1171.75 572.8,-1172.94 565.31,-1165.45 562.27,-1171.75"/>
</a>
</g>
</g>
<!-- Node26 -->
<g id="Node000026" class="node">
<title>Node26</title>
<g id="a_Node000026"><a xlink:href="classUnit.html#a5c157aedab3d3cbd8682505c8e0d512f" target="_top" xlink:title=" ">
<polygon fill="#fff0f0" stroke="red" points="871,-1173 767,-1173 767,-1154 871,-1154 871,-1173"/>
<text text-anchor="middle" x="819" y="-1161" font-family="Helvetica,sans-Serif" font-size="10.00">Unit::getDisplayId</text>
</a>
</g>
</g>
<!-- Node12&#45;&gt;Node26 -->
<g id="edge20_Node000012_Node000026" class="edge">
<title>Node12&#45;&gt;Node26</title>
<g id="a_edge20_Node000012_Node000026"><a xlink:title=" ">
<path fill="none" stroke="#63b8ff" d="M431.96,-764.06C446.36,-819.73 520.12,-1100.4 550,-1125.5 580.37,-1151.02 687.25,-1159.41 756.51,-1162.16"/>
<polygon fill="#63b8ff" stroke="#63b8ff" points="756.74,-1165.67 766.86,-1162.54 757,-1158.67 756.74,-1165.67"/>
</a>
</g>
</g>
<!-- Node27 -->
<g id="Node000027" class="node">
<title>Node27</title>
<g id="a_Node000027"><a xlink:href="classUnit.html#ac31c5d768d09773dcbdd613b24e10f50" target="_top" xlink:title=" ">
<polygon fill="white" stroke="#666666" points="696.5,-1116 584.5,-1116 584.5,-1097 696.5,-1097 696.5,-1116"/>
<text text-anchor="middle" x="640.5" y="-1104" font-family="Helvetica,sans-Serif" font-size="10.00">Unit::getAIInterface</text>
</a>
</g>
</g>
<!-- Node12&#45;&gt;Node27 -->
<g id="edge19_Node000012_Node000027" class="edge">
<title>Node12&#45;&gt;Node27</title>
<g id="a_edge19_Node000012_Node000027"><a xlink:title=" ">
<path fill="none" stroke="#63b8ff" d="M429.75,-764.02C431.48,-808.56 444.95,-997.93 550,-1088.5 557.05,-1094.58 565.58,-1098.82 574.54,-1101.74"/>
<polygon fill="#63b8ff" stroke="#63b8ff" points="573.81,-1105.17 584.37,-1104.41 575.64,-1098.41 573.81,-1105.17"/>
</a>
</g>
</g>
<!-- Node28 -->
<g id="Node000028" class="node">
<title>Node28</title>
<g id="a_Node000028"><a xlink:href="classObject.html#ad4e6bfe8fd236724215bc3e671eee225" target="_top" xlink:title=" ">
<polygon fill="#fff0f0" stroke="red" points="688,-1079 593,-1079 593,-1060 688,-1060 688,-1079"/>
<text text-anchor="middle" x="640.5" y="-1067" font-family="Helvetica,sans-Serif" font-size="10.00">Object::getEntry</text>
</a>
</g>
</g>
<!-- Node12&#45;&gt;Node28 -->
<g id="edge21_Node000012_Node000028" class="edge">
<title>Node12&#45;&gt;Node28</title>
<g id="a_edge21_Node000012_Node000028"><a xlink:title=" ">
<path fill="none" stroke="#63b8ff" d="M430.23,-764.09C433.93,-805.72 454.45,-972.33 550,-1051.5 559.34,-1059.24 571.1,-1063.96 583,-1066.78"/>
<polygon fill="#63b8ff" stroke="#63b8ff" points="582.49,-1070.24 592.97,-1068.72 583.83,-1063.37 582.49,-1070.24"/>
</a>
</g>
</g>
<!-- Node30 -->
<g id="Node000030" class="node">
<title>Node30</title>
<g id="a_Node000030"><a xlink:href="classUnit.html#adfa16ac0ecbefbac2e41e3fb1590a1a5" target="_top" xlink:title=" ">
<polygon fill="#fff0f0" stroke="red" points="683,-1042 598,-1042 598,-1023 683,-1023 683,-1042"/>
<text text-anchor="middle" x="640.5" y="-1030" font-family="Helvetica,sans-Serif" font-size="10.00">Unit::getLevel</text>
</a>
</g>
</g>
<!-- Node12&#45;&gt;Node30 -->
<g id="edge22_Node000012_Node000030" class="edge">
<title>Node12&#45;&gt;Node30</title>
<g id="a_edge22_Node000012_Node000030"><a xlink:title=" ">
<path fill="none" stroke="#63b8ff" d="M430.84,-764.19C436.71,-802.77 463.85,-946.58 550,-1014.5 560.71,-1022.95 574.34,-1027.75 587.7,-1030.4"/>
<polygon fill="#63b8ff" stroke="#63b8ff" points="587.39,-1033.89 597.83,-1032.03 588.51,-1026.98 587.39,-1033.89"/>
</a>
</g>
</g>
<!-- Node31 -->
<g id="Node000031" class="node">
<title>Node31</title>
<g id="a_Node000031"><a xlink:href="classUnit.html#a0e9d4dc26e2fbd774c66450638839a01" target="_top" xlink:title=" ">
<polygon fill="#fff0f0" stroke="red" points="701,-1005 580,-1005 580,-986 701,-986 701,-1005"/>
<text text-anchor="middle" x="640.5" y="-993" font-family="Helvetica,sans-Serif" font-size="10.00">Unit::getMaxDamage</text>
</a>
</g>
</g>
<!-- Node12&#45;&gt;Node31 -->
<g id="edge23_Node000012_Node000031" class="edge">
<title>Node12&#45;&gt;Node31</title>
<g id="a_edge23_Node000012_Node000031"><a xlink:title=" ">
<path fill="none" stroke="#63b8ff" d="M431.58,-764.01C439.72,-798.85 472.88,-920.45 550,-977.5 555.96,-981.91 562.72,-985.3 569.8,-987.91"/>
<polygon fill="#63b8ff" stroke="#63b8ff" points="569.02,-991.34 579.61,-991.01 571.12,-984.66 569.02,-991.34"/>
</a>
</g>
</g>
<!-- Node32 -->
<g id="Node000032" class="node">
<title>Node32</title>
<g id="a_Node000032"><a xlink:href="classUnit.html#a285d459d1f892a495e0b209dcbd6c17a" target="_top" xlink:title=" ">
<polygon fill="#fff0f0" stroke="red" points="720,-968 561,-968 561,-949 720,-949 720,-968"/>
<text text-anchor="middle" x="640.5" y="-956" font-family="Helvetica,sans-Serif" font-size="10.00">Unit::getMaxOffhandDamage</text>
</a>
</g>
</g>
<!-- Node12&#45;&gt;Node32 -->
<g id="edge24_Node000012_Node000032" class="edge">
<title>Node12&#45;&gt;Node32</title>
<g id="a_edge24_Node000012_Node000032"><a xlink:title=" ">
<path fill="none" stroke="#63b8ff" d="M432.67,-764.14C443.45,-795.33 481.91,-894.2 550,-940.5 552.26,-942.03 554.61,-943.44 557.05,-944.74"/>
<polygon fill="#63b8ff" stroke="#63b8ff" points="555.62,-947.93 566.17,-948.94 558.55,-941.58 555.62,-947.93"/>
</a>
</g>
</g>
<!-- Node33 -->
<g id="Node000033" class="node">
<title>Node33</title>
<g id="a_Node000033"><a xlink:href="classUnit.html#a1318f14d702da24f16aa70a48021da88" target="_top" xlink:title=" ">
<polygon fill="#fff0f0" stroke="red" points="719.5,-931 561.5,-931 561.5,-912 719.5,-912 719.5,-931"/>
<text text-anchor="middle" x="640.5" y="-919" font-family="Helvetica,sans-Serif" font-size="10.00">Unit::getMaxRangedDamage</text>
</a>
</g>
</g>
<!-- Node12&#45;&gt;Node33 -->
<g id="edge25_Node000012_Node000033" class="edge">
<title>Node12&#45;&gt;Node33</title>
<g id="a_edge25_Node000012_Node000033"><a xlink:title=" ">
<path fill="none" stroke="#63b8ff" d="M434.18,-764.08C447.85,-790.96 490.53,-867.48 550,-903.5 552.69,-905.13 555.51,-906.62 558.4,-907.97"/>
<polygon fill="#63b8ff" stroke="#63b8ff" points="557.33,-911.31 567.91,-911.86 559.98,-904.83 557.33,-911.31"/>
</a>
</g>
</g>
<!-- Node34 -->
<g id="Node000034" class="node">
<title>Node34</title>
<g id="a_Node000034"><a xlink:href="classCreature.html#aec78a1373e622ac1152e8e448b9dcd20" target="_top" xlink:title=" ">
<polygon fill="white" stroke="#666666" points="731,-894 550,-894 550,-875 731,-875 731,-894"/>
<text text-anchor="middle" x="640.5" y="-882" font-family="Helvetica,sans-Serif" font-size="10.00">Creature::getMaxWanderDistance</text>
</a>
</g>
</g>
<!-- Node12&#45;&gt;Node34 -->
<g id="edge26_Node000012_Node000034" class="edge">
<title>Node12&#45;&gt;Node34</title>
<g id="a_edge26_Node000012_Node000034"><a xlink:title=" ">
<path fill="none" stroke="#63b8ff" d="M436.72,-764.16C453.76,-786.2 498.91,-840.31 550,-866.5 553.73,-868.41 557.64,-870.12 561.66,-871.65"/>
<polygon fill="#63b8ff" stroke="#63b8ff" points="560.6,-874.98 571.2,-874.89 562.86,-868.36 560.6,-874.98"/>
</a>
</g>
</g>
<!-- Node35 -->
<g id="Node000035" class="node">
<title>Node35</title>
<g id="a_Node000035"><a xlink:href="classUnit.html#aa9a34ffc52ac9039b39767ec6b092256" target="_top" xlink:title=" ">
<polygon fill="#fff0f0" stroke="red" points="699.5,-857 581.5,-857 581.5,-838 699.5,-838 699.5,-857"/>
<text text-anchor="middle" x="640.5" y="-845" font-family="Helvetica,sans-Serif" font-size="10.00">Unit::getMinDamage</text>
</a>
</g>
</g>
<!-- Node12&#45;&gt;Node35 -->
<g id="edge27_Node000012_Node000035" class="edge">
<title>Node12&#45;&gt;Node35</title>
<g id="a_edge27_Node000012_Node000035"><a xlink:title=" ">
<path fill="none" stroke="#63b8ff" d="M441.71,-764.21C462.61,-780.32 507.17,-812.51 550,-829.5 556.79,-832.19 564.03,-834.5 571.34,-836.47"/>
<polygon fill="#63b8ff" stroke="#63b8ff" points="570.77,-839.93 581.32,-838.96 572.47,-833.14 570.77,-839.93"/>
</a>
</g>
</g>
<!-- Node36 -->
<g id="Node000036" class="node">
<title>Node36</title>
<g id="a_Node000036"><a xlink:href="classUnit.html#a5742d7f3c6f40c8432f1a109e85dde98" target="_top" xlink:title=" ">
<polygon fill="#fff0f0" stroke="red" points="718.5,-820 562.5,-820 562.5,-801 718.5,-801 718.5,-820"/>
<text text-anchor="middle" x="640.5" y="-808" font-family="Helvetica,sans-Serif" font-size="10.00">Unit::getMinOffhandDamage</text>
</a>
</g>
</g>
<!-- Node12&#45;&gt;Node36 -->
<g id="edge28_Node000012_Node000036" class="edge">
<title>Node12&#45;&gt;Node36</title>
<g id="a_edge28_Node000012_Node000036"><a xlink:title=" ">
<path fill="none" stroke="#63b8ff" d="M457.02,-764.1C481.28,-772.35 517.71,-784.19 550,-792.5 558.79,-794.76 568.13,-796.92 577.33,-798.89"/>
<polygon fill="#63b8ff" stroke="#63b8ff" points="576.72,-802.34 587.23,-800.97 578.16,-795.49 576.72,-802.34"/>
</a>
</g>
</g>
<!-- Node37 -->
<g id="Node000037" class="node">
<title>Node37</title>
<g id="a_Node000037"><a xlink:href="classUnit.html#a001fd0c27657c84c9cd5d32a347da670" target="_top" xlink:title=" ">
<polygon fill="#fff0f0" stroke="red" points="718,-783 563,-783 563,-764 718,-764 718,-783"/>
<text text-anchor="middle" x="640.5" y="-771" font-family="Helvetica,sans-Serif" font-size="10.00">Unit::getMinRangedDamage</text>
</a>
</g>
</g>
<!-- Node12&#45;&gt;Node37 -->
<g id="edge29_Node000012_Node000037" class="edge">
<title>Node12&#45;&gt;Node37</title>
<g id="a_edge29_Node000012_Node000037"><a xlink:title=" ">
<path fill="none" stroke="#63b8ff" d="M472.5,-758.39C495.59,-760.48 524.9,-763.13 552.5,-765.63"/>
<polygon fill="#63b8ff" stroke="#63b8ff" points="552.31,-769.13 562.58,-766.54 552.94,-762.15 552.31,-769.13"/>
</a>
</g>
</g>
<!-- Node38 -->
<g id="Node000038" class="node">
<title>Node38</title>
<g id="a_Node000038"><a xlink:href="classCreature.html#acc6077199e3427ee49a0c6a2ea69b729" target="_top" xlink:title=" ">
<polygon fill="#fff0f0" stroke="red" points="729.5,-746 551.5,-746 551.5,-727 729.5,-727 729.5,-746"/>
<text text-anchor="middle" x="640.5" y="-734" font-family="Helvetica,sans-Serif" font-size="10.00">Creature::getMovementTemplate</text>
</a>
</g>
</g>
<!-- Node12&#45;&gt;Node38 -->
<g id="edge30_Node000012_Node000038" class="edge">
<title>Node12&#45;&gt;Node38</title>
<g id="a_edge30_Node000012_Node000038"><a xlink:title=" ">
<path fill="none" stroke="#63b8ff" d="M472.5,-750.81C492.54,-749.1 517.27,-746.98 541.51,-744.9"/>
<polygon fill="#63b8ff" stroke="#63b8ff" points="541.82,-748.39 551.48,-744.04 541.22,-741.41 541.82,-748.39"/>
</a>
</g>
</g>
<!-- Node40 -->
<g id="Node000040" class="node">
<title>Node40</title>
<g id="a_Node000040"><a xlink:href="classUnit.html#a1042f4ea1179938e1c53f10132dfd497" target="_top" xlink:title=" ">
<polygon fill="#fff0f0" stroke="red" points="696.5,-709 584.5,-709 584.5,-690 696.5,-690 696.5,-709"/>
<text text-anchor="middle" x="640.5" y="-697" font-family="Helvetica,sans-Serif" font-size="10.00">Unit::getResistance</text>
</a>
</g>
</g>
<!-- Node12&#45;&gt;Node40 -->
<g id="edge32_Node000012_Node000040" class="edge">
<title>Node12&#45;&gt;Node40</title>
<g id="a_edge32_Node000012_Node000040"><a xlink:title=" ">
<path fill="none" stroke="#63b8ff" d="M472.63,-747.51C486.08,-744.75 500.83,-741.11 514,-736.5 530.88,-730.59 533.11,-724.41 550,-718.5 557.87,-715.75 566.27,-713.33 574.66,-711.22"/>
<polygon fill="#63b8ff" stroke="#63b8ff" points="575.55,-714.6 584.46,-708.88 573.92,-707.79 575.55,-714.6"/>
</a>
</g>
</g>
<!-- Node41 -->
<g id="Node000041" class="node">
<title>Node41</title>
<g id="a_Node000041"><a xlink:href="classUnit.html#a4e39d9d4324c54fd5b1769fe51a98b0a" target="_top" xlink:title=" ">
<polygon fill="#fff0f0" stroke="red" points="679.5,-672 601.5,-672 601.5,-653 679.5,-653 679.5,-672"/>
<text text-anchor="middle" x="640.5" y="-660" font-family="Helvetica,sans-Serif" font-size="10.00">Unit::getStat</text>
</a>
</g>
</g>
<!-- Node12&#45;&gt;Node41 -->
<g id="edge33_Node000012_Node000041" class="edge">
<title>Node12&#45;&gt;Node41</title>
<g id="a_edge33_Node000012_Node000041"><a xlink:title=" ">
<path fill="none" stroke="#63b8ff" d="M472.91,-751.81C486.96,-749.3 502,-744.72 514,-736.5 538.1,-719.99 525.89,-698 550,-681.5 562.02,-673.27 576.92,-668.5 591.09,-665.76"/>
<polygon fill="#63b8ff" stroke="#63b8ff" points="591.92,-669.17 601.23,-664.11 590.8,-662.27 591.92,-669.17"/>
</a>
</g>
</g>
<!-- Node42 -->
<g id="Node000042" class="node">
<title>Node42</title>
<g id="a_Node000042"><a xlink:href="classAIInterface.html#ae1c3d598a2f552ebf974cb5413f0dc96" target="_top" xlink:title=" ">
<polygon fill="#fff0f0" stroke="red" points="713.5,-634.5 567.5,-634.5 567.5,-604.5 713.5,-604.5 713.5,-634.5"/>
<text text-anchor="start" x="575.5" y="-622.5" font-family="Helvetica,sans-Serif" font-size="10.00">AIInterface::initializeReact</text>
<text text-anchor="middle" x="640.5" y="-611.5" font-family="Helvetica,sans-Serif" font-size="10.00">State</text>
</a>
</g>
</g>
<!-- Node12&#45;&gt;Node42 -->
<g id="edge34_Node000012_Node000042" class="edge">
<title>Node12&#45;&gt;Node42</title>
<g id="a_edge34_Node000012_Node000042"><a xlink:title=" ">
<path fill="none" stroke="#63b8ff" d="M472.65,-753.41C487.17,-751.08 502.57,-746.21 514,-736.5 547.47,-708.08 517.43,-673.95 550,-644.5 552.65,-642.1 555.52,-639.93 558.54,-637.97"/>
<polygon fill="#63b8ff" stroke="#63b8ff" points="560.42,-640.92 567.41,-632.96 556.98,-634.82 560.42,-640.92"/>
</a>
</g>
</g>
<!-- Node45 -->
<g id="Node000045" class="node">
<title>Node45</title>
<g id="a_Node000045"><a xlink:href="classCreature.html#a0d226f6b812810dae9b7a98c673d0a42" target="_top" xlink:title=" ">
<polygon fill="white" stroke="#666666" points="702.5,-586 578.5,-586 578.5,-567 702.5,-567 702.5,-586"/>
<text text-anchor="middle" x="640.5" y="-574" font-family="Helvetica,sans-Serif" font-size="10.00">Creature::isattackable</text>
</a>
</g>
</g>
<!-- Node12&#45;&gt;Node45 -->
<g id="edge35_Node000012_Node000045" class="edge">
<title>Node12&#45;&gt;Node45</title>
<g id="a_edge35_Node000012_Node000045"><a xlink:title=" ">
<path fill="none" stroke="#63b8ff" d="M472.91,-754.24C487.62,-752.01 503.08,-747 514,-736.5 560.64,-691.69 503.34,-640.29 550,-595.5 555.36,-590.36 561.74,-586.46 568.6,-583.52"/>
<polygon fill="#63b8ff" stroke="#63b8ff" points="569.96,-586.75 578.2,-580.09 567.6,-580.16 569.96,-586.75"/>
</a>
</g>
</g>
<!-- Node46 -->
<g id="Node000046" class="node">
<title>Node46</title>
<g id="a_Node000046"><a xlink:href="classCreature.html#a89bf17ce1bda104fb989ef8bd62b7000" target="_top" xlink:title=" ">
<polygon fill="#fff0f0" stroke="red" points="703,-549 578,-549 578,-530 703,-530 703,-549"/>
<text text-anchor="middle" x="640.5" y="-537" font-family="Helvetica,sans-Serif" font-size="10.00">Creature::isAuctioneer</text>
</a>
</g>
</g>
<!-- Node12&#45;&gt;Node46 -->
<g id="edge36_Node000012_Node000046" class="edge">
<title>Node12&#45;&gt;Node46</title>
<g id="a_edge36_Node000012_Node000046"><a xlink:title=" ">
<path fill="none" stroke="#63b8ff" d="M472.76,-754.6C487.64,-752.44 503.24,-747.37 514,-736.5 570.78,-679.13 493.2,-615.85 550,-558.5 555.23,-553.22 561.53,-549.24 568.34,-546.26"/>
<polygon fill="#63b8ff" stroke="#63b8ff" points="569.69,-549.49 577.89,-542.77 567.29,-542.91 569.69,-549.49"/>
</a>
</g>
</g>
<!-- Node47 -->
<g id="Node000047" class="node">
<title>Node47</title>
<g id="a_Node000047"><a xlink:href="classCreature.html#afaa0faf736d157b335e99aa3217c0a82" target="_top" xlink:title=" ">
<polygon fill="white" stroke="#666666" points="710.5,-512 570.5,-512 570.5,-493 710.5,-493 710.5,-512"/>
<text text-anchor="middle" x="640.5" y="-500" font-family="Helvetica,sans-Serif" font-size="10.00">Creature::isDungeonBoss</text>
</a>
</g>
</g>
<!-- Node12&#45;&gt;Node47 -->
<g id="edge37_Node000012_Node000047" class="edge">
<title>Node12&#45;&gt;Node47</title>
<g id="a_edge37_Node000012_Node000047"><a xlink:title=" ">
<path fill="none" stroke="#63b8ff" d="M472.52,-754.86C487.55,-752.76 503.32,-747.66 514,-736.5 580.99,-666.5 482.99,-591.48 550,-521.5 553.39,-517.96 557.27,-514.99 561.46,-512.52"/>
<polygon fill="#63b8ff" stroke="#63b8ff" points="563.03,-515.65 570.46,-508.1 559.94,-509.37 563.03,-515.65"/>
</a>
</g>
</g>
<!-- Node48 -->
<g id="Node000048" class="node">
<title>Node48</title>
<g id="a_Node000048"><a xlink:href="classCreature.html#a3c5ced9bd4d24ae6f59cbd921c953760" target="_top" xlink:title=" ">
<polygon fill="#fff0f0" stroke="red" points="719,-475 562,-475 562,-456 719,-456 719,-475"/>
<text text-anchor="middle" x="640.5" y="-463" font-family="Helvetica,sans-Serif" font-size="10.00">Creature::isProfessionTrainer</text>
</a>
</g>
</g>
<!-- Node12&#45;&gt;Node48 -->
<g id="edge38_Node000012_Node000048" class="edge">
<title>Node12&#45;&gt;Node48</title>
<g id="a_edge38_Node000012_Node000048"><a xlink:title=" ">
<path fill="none" stroke="#63b8ff" d="M472.67,-754.99C487.71,-752.91 503.45,-747.79 514,-736.5 591.23,-653.83 472.74,-567.15 550,-484.5 551.08,-483.34 552.22,-482.24 553.4,-481.2"/>
<polygon fill="#63b8ff" stroke="#63b8ff" points="555.74,-483.83 561.82,-475.16 551.66,-478.15 555.74,-483.83"/>
</a>
</g>
</g>
<!-- Node49 -->
<g id="Node000049" class="node">
<title>Node49</title>
<g id="a_Node000049"><a xlink:href="classCreature.html#ad7f7eff8b07d598c67902d6b29f5ad36" target="_top" xlink:title=" ">
<polygon fill="#fff0f0" stroke="red" points="704.5,-438 576.5,-438 576.5,-419 704.5,-419 704.5,-438"/>
<text text-anchor="middle" x="640.5" y="-426" font-family="Helvetica,sans-Serif" font-size="10.00">Creature::isQuestGiver</text>
</a>
</g>
</g>
<!-- Node12&#45;&gt;Node49 -->
<g id="edge39_Node000012_Node000049" class="edge">
<title>Node12&#45;&gt;Node49</title>
<g id="a_edge39_Node000012_Node000049"><a xlink:title=" ">
<path fill="none" stroke="#63b8ff" d="M472.78,-755.1C487.84,-753.02 503.56,-747.88 514,-736.5 601.51,-641.13 462.46,-542.84 550,-447.5 554.76,-442.31 560.56,-438.35 566.9,-435.35"/>
<polygon fill="#63b8ff" stroke="#63b8ff" points="568.45,-438.5 576.5,-431.6 565.91,-431.98 568.45,-438.5"/>
</a>
</g>
</g>
<!-- Node50 -->
<g id="Node000050" class="node">
<title>Node50</title>
<g id="a_Node000050"><a xlink:href="classUnit.html#a7c6fa14c887a543c0047b510551566cb" target="_top" xlink:title=" ">
<polygon fill="#fff0f0" stroke="red" points="683.5,-401 597.5,-401 597.5,-382 683.5,-382 683.5,-401"/>
<text text-anchor="middle" x="640.5" y="-389" font-family="Helvetica,sans-Serif" font-size="10.00">Unit::isRooted</text>
</a>
</g>
</g>
<!-- Node12&#45;&gt;Node50 -->
<g id="edge40_Node000012_Node000050" class="edge">
<title>Node12&#45;&gt;Node50</title>
<g id="a_edge40_Node000012_Node000050"><a xlink:title=" ">
<path fill="none" stroke="#63b8ff" d="M472.86,-755.17C487.93,-753.11 503.63,-747.96 514,-736.5 611.8,-628.41 452.16,-518.56 550,-410.5 559.52,-399.98 573.3,-394.49 587.19,-391.8"/>
<polygon fill="#63b8ff" stroke="#63b8ff" points="587.9,-395.23 597.28,-390.3 586.87,-388.31 587.9,-395.23"/>
</a>
</g>
</g>
<!-- Node52 -->
<g id="Node000052" class="node">
<title>Node52</title>
<g id="a_Node000052"><a xlink:href="classObject.html#a398de94ec4bf1a231775d1f845938c6a" target="_top" xlink:title=" ">
<polygon fill="white" stroke="#666666" points="693.5,-364 587.5,-364 587.5,-345 693.5,-345 693.5,-364"/>
<text text-anchor="middle" x="640.5" y="-352" font-family="Helvetica,sans-Serif" font-size="10.00">Object::isSummon</text>
</a>
</g>
</g>
<!-- Node12&#45;&gt;Node52 -->
<g id="edge41_Node000012_Node000052" class="edge">
<title>Node12&#45;&gt;Node52</title>
<g id="a_edge41_Node000012_Node000052"><a xlink:title=" ">
<path fill="none" stroke="#63b8ff" d="M472.93,-755.23C488.01,-753.18 503.7,-748.01 514,-736.5 568.05,-676.09 495.93,-433.89 550,-373.5 557.3,-365.35 567.16,-360.2 577.66,-357.04"/>
<polygon fill="#63b8ff" stroke="#63b8ff" points="578.54,-360.43 587.44,-354.67 576.89,-353.63 578.54,-360.43"/>
</a>
</g>
</g>
<!-- Node53 -->
<g id="Node000053" class="node">
<title>Node53</title>
<g id="a_Node000053"><a xlink:href="classCreature.html#aceabad5114ae7e94cfbb907f388f5e89" target="_top" xlink:title=" ">
<polygon fill="#fff0f0" stroke="red" points="693.5,-327 587.5,-327 587.5,-308 693.5,-308 693.5,-327"/>
<text text-anchor="middle" x="640.5" y="-315" font-family="Helvetica,sans-Serif" font-size="10.00">Creature::isTrainer</text>
</a>
</g>
</g>
<!-- Node12&#45;&gt;Node53 -->
<g id="edge42_Node000012_Node000053" class="edge">
<title>Node12&#45;&gt;Node53</title>
<g id="a_edge42_Node000012_Node000053"><a xlink:title=" ">
<path fill="none" stroke="#63b8ff" d="M472.55,-755.34C487.77,-753.33 503.65,-748.17 514,-736.5 573.21,-669.72 490.77,-403.26 550,-336.5 557.26,-328.31 567.1,-323.16 577.6,-319.99"/>
<polygon fill="#63b8ff" stroke="#63b8ff" points="578.48,-323.38 587.38,-317.62 576.83,-316.58 578.48,-323.38"/>
</a>
</g>
</g>
<!-- Node54 -->
<g id="Node000054" class="node">
<title>Node54</title>
<g id="a_Node000054"><a xlink:href="classCreature.html#ac38b513096d5c6ea8b43c5ad89d836da" target="_top" xlink:title=" ">
<polygon fill="white" stroke="#666666" points="694.5,-290 586.5,-290 586.5,-271 694.5,-271 694.5,-290"/>
<text text-anchor="middle" x="640.5" y="-278" font-family="Helvetica,sans-Serif" font-size="10.00">Creature::isVehicle</text>
</a>
</g>
</g>
<!-- Node12&#45;&gt;Node54 -->
<g id="edge43_Node000012_Node000054" class="edge">
<title>Node12&#45;&gt;Node54</title>
<g id="a_edge43_Node000012_Node000054"><a xlink:title=" ">
<path fill="none" stroke="#63b8ff" d="M472.6,-755.38C487.82,-753.38 503.7,-748.21 514,-736.5 578.36,-663.34 485.61,-372.63 550,-299.5 557,-291.55 566.43,-286.45 576.54,-283.26"/>
<polygon fill="#63b8ff" stroke="#63b8ff" points="577.56,-286.61 586.39,-280.75 575.84,-279.83 577.56,-286.61"/>
</a>
</g>
</g>
<!-- Node55 -->
<g id="Node000055" class="node">
<title>Node55</title>
<g id="a_Node000055"><a xlink:href="classCreature.html#a4615f2199e17c0fc52735227c4de9888" target="_top" xlink:title=" ">
<polygon fill="#fff0f0" stroke="red" points="694,-253 587,-253 587,-234 694,-234 694,-253"/>
<text text-anchor="middle" x="640.5" y="-241" font-family="Helvetica,sans-Serif" font-size="10.00">Creature::isVendor</text>
</a>
</g>
</g>
<!-- Node12&#45;&gt;Node55 -->
<g id="edge44_Node000012_Node000055" class="edge">
<title>Node12&#45;&gt;Node55</title>
<g id="a_edge44_Node000012_Node000055"><a xlink:title=" ">
<path fill="none" stroke="#63b8ff" d="M472.64,-755.42C487.86,-753.42 503.73,-748.24 514,-736.5 583.52,-656.97 480.45,-342.01 550,-262.5 557.05,-254.44 566.6,-249.3 576.84,-246.12"/>
<polygon fill="#63b8ff" stroke="#63b8ff" points="577.96,-249.44 586.81,-243.62 576.26,-242.65 577.96,-249.44"/>
</a>
</g>
</g>
<!-- Node56 -->
<g id="Node000056" class="node">
<title>Node56</title>
<g id="a_Node000056"><a xlink:href="classUnit.html#abe3105a2555346f2789ca17a377add4c" target="_top" xlink:title=" ">
<polygon fill="white" stroke="#666666" points="710,-216 571,-216 571,-197 710,-197 710,-216"/>
<text text-anchor="middle" x="640.5" y="-204" font-family="Helvetica,sans-Serif" font-size="10.00">Unit::resetCurrentSpeeds</text>
</a>
</g>
</g>
<!-- Node12&#45;&gt;Node56 -->
<g id="edge45_Node000012_Node000056" class="edge">
<title>Node12&#45;&gt;Node56</title>
<g id="a_edge45_Node000012_Node000056"><a xlink:title=" ">
<path fill="none" stroke="#63b8ff" d="M472.67,-755.45C487.9,-753.45 503.77,-748.27 514,-736.5 588.69,-650.59 475.28,-311.38 550,-225.5 553.34,-221.66 557.25,-218.48 561.53,-215.86"/>
<polygon fill="#63b8ff" stroke="#63b8ff" points="563.41,-218.84 570.78,-211.23 560.27,-212.58 563.41,-218.84"/>
</a>
</g>
</g>
<!-- Node57 -->
<g id="Node000057" class="node">
<title>Node57</title>
<g id="a_Node000057"><a xlink:href="classUnit.html#ad84a325f624b4d5fa83ea78ee2e89cb3" target="_top" xlink:title=" ">
<polygon fill="white" stroke="#666666" points="688.5,-179 592.5,-179 592.5,-160 688.5,-160 688.5,-179"/>
<text text-anchor="middle" x="640.5" y="-167" font-family="Helvetica,sans-Serif" font-size="10.00">Unit::setAItoUse</text>
</a>
</g>
</g>
<!-- Node12&#45;&gt;Node57 -->
<g id="edge46_Node000012_Node000057" class="edge">
<title>Node12&#45;&gt;Node57</title>
<g id="a_edge46_Node000012_Node000057"><a xlink:title=" ">
<path fill="none" stroke="#63b8ff" d="M472.7,-755.47C487.93,-753.48 503.79,-748.3 514,-736.5 593.85,-644.21 470.12,-280.76 550,-188.5 558.29,-178.93 570.09,-173.48 582.41,-170.5"/>
<polygon fill="#63b8ff" stroke="#63b8ff" points="583.18,-173.92 592.35,-168.62 581.87,-167.04 583.18,-173.92"/>
</a>
</g>
</g>
<!-- Node58 -->
<g id="Node000058" class="node">
<title>Node58</title>
<g id="a_Node000058"><a xlink:href="classAIInterface.html#ad994b9d83f57d6419189962ee71ae413" target="_top" xlink:title=" ">
<polygon fill="#fff0f0" stroke="red" points="710.5,-141.5 570.5,-141.5 570.5,-111.5 710.5,-111.5 710.5,-141.5"/>
<text text-anchor="start" x="578.5" y="-129.5" font-family="Helvetica,sans-Serif" font-size="10.00">AIInterface::setAllowedTo</text>
<text text-anchor="middle" x="640.5" y="-118.5" font-family="Helvetica,sans-Serif" font-size="10.00">EnterCombat</text>
</a>
</g>
</g>
<!-- Node12&#45;&gt;Node58 -->
<g id="edge47_Node000012_Node000058" class="edge">
<title>Node12&#45;&gt;Node58</title>
<g id="a_edge47_Node000012_Node000058"><a xlink:title=" ">
<path fill="none" stroke="#63b8ff" d="M472.72,-755.5C487.96,-753.5 503.82,-748.32 514,-736.5 599.02,-637.83 468.11,-252.78 550,-151.5 553.34,-147.37 557.3,-143.89 561.66,-140.96"/>
<polygon fill="#63b8ff" stroke="#63b8ff" points="563.51,-143.94 570.5,-135.98 560.07,-137.84 563.51,-143.94"/>
</a>
</g>
</g>
<!-- Node65 -->
<g id="Node000065" class="node">
<title>Node65</title>
<g id="a_Node000065"><a xlink:href="classUnit.html#af78e86c9eb39c7ea4c69ff91267aac80" target="_top" xlink:title=" ">
<polygon fill="#fff0f0" stroke="red" points="709.5,-93 571.5,-93 571.5,-74 709.5,-74 709.5,-93"/>
<text text-anchor="middle" x="640.5" y="-81" font-family="Helvetica,sans-Serif" font-size="10.00">Unit::setBaseAttackTime</text>
</a>
</g>
</g>
<!-- Node12&#45;&gt;Node65 -->
<g id="edge48_Node000012_Node000065" class="edge">
<title>Node12&#45;&gt;Node65</title>
<g id="a_edge48_Node000012_Node000065"><a xlink:title=" ">
<path fill="none" stroke="#63b8ff" d="M472.75,-755.52C488,-753.53 503.85,-748.34 514,-736.5 605.86,-629.37 458.11,-209.59 550,-102.5 553.47,-98.46 557.56,-95.15 562.06,-92.45"/>
<polygon fill="#63b8ff" stroke="#63b8ff" points="563.71,-95.54 571.14,-87.98 560.62,-89.26 563.71,-95.54"/>
</a>
</g>
</g>
<!-- Node66 -->
<g id="Node000066" class="node">
<title>Node66</title>
<g id="a_Node000066"><a xlink:href="classUnit.html#a6d31b4f862c61224da02fc4ecce495b4" target="_top" xlink:title=" ">
<polygon fill="#fff0f0" stroke="red" points="697.5,-56 583.5,-56 583.5,-37 697.5,-37 697.5,-56"/>
<text text-anchor="middle" x="640.5" y="-44" font-family="Helvetica,sans-Serif" font-size="10.00">Unit::setBaseHealth</text>
</a>
</g>
</g>
<!-- Node12&#45;&gt;Node66 -->
<g id="edge49_Node000012_Node000066" class="edge">
<title>Node12&#45;&gt;Node66</title>
<g id="a_edge49_Node000012_Node000066"><a xlink:title=" ">
<path fill="none" stroke="#63b8ff" d="M472.77,-755.54C488.02,-753.55 503.86,-748.36 514,-736.5 611.02,-622.99 452.94,-178.98 550,-65.5 556.28,-58.15 564.64,-53.23 573.72,-49.98"/>
<polygon fill="#63b8ff" stroke="#63b8ff" points="574.77,-53.33 583.4,-47.18 572.82,-46.6 574.77,-53.33"/>
</a>
</g>
</g>
<!-- Node67 -->
<g id="Node000067" class="node">
<title>Node67</title>
<g id="a_Node000067"><a xlink:href="classUnit.html#ae87357871ca186380321a29547c9f243" target="_top" xlink:title=" ">
<polygon fill="#fff0f0" stroke="red" points="695,-19 586,-19 586,0 695,0 695,-19"/>
<text text-anchor="middle" x="640.5" y="-7" font-family="Helvetica,sans-Serif" font-size="10.00">Unit::setBaseMana</text>
</a>
</g>
</g>
<!-- Node12&#45;&gt;Node67 -->
<g id="edge50_Node000012_Node000067" class="edge">
<title>Node12&#45;&gt;Node67</title>
<g id="a_edge50_Node000012_Node000067"><a xlink:title=" ">
<path fill="none" stroke="#63b8ff" d="M472.79,-755.55C488.04,-753.57 503.88,-748.37 514,-736.5 616.19,-616.61 447.77,-148.36 550,-28.5 556.8,-20.53 566.03,-15.41 575.99,-12.19"/>
<polygon fill="#63b8ff" stroke="#63b8ff" points="576.91,-15.57 585.71,-9.66 575.15,-8.79 576.91,-15.57"/>
</a>
</g>
</g>
<!-- Node25&#45;&gt;Node26 -->
<g id="edge18_Node000025_Node000026" class="edge">
<title>Node25&#45;&gt;Node26</title>
<g id="a_edge18_Node000025_Node000026"><a xlink:title=" ">
<path fill="none" stroke="#63b8ff" d="M709.23,-1175.21C724.8,-1173.53 741.26,-1171.76 756.53,-1170.12"/>
<polygon fill="#63b8ff" stroke="#63b8ff" points="757.33,-1173.55 766.9,-1169 756.58,-1166.59 757.33,-1173.55"/>
</a>
</g>
</g>
</g>
</svg>
