<?xml version="1.0" encoding="UTF-8" standalone="no"?>
<!DOCTYPE svg PUBLIC "-//W3C//DTD SVG 1.1//EN"
 "http://www.w3.org/Graphics/SVG/1.1/DTD/svg11.dtd">
<!-- Generated by graphviz version 2.43.0 (0)
 -->
<!-- Title: InstanceForgeOfSoulsScript::OnPlayerEnter Pages: 1 -->
<svg width="1092pt" height="1557pt"
 viewBox="0.00 0.00 1092.00 1557.00" xmlns="http://www.w3.org/2000/svg" xmlns:xlink="http://www.w3.org/1999/xlink">
<g id="graph0" class="graph" transform="scale(1 1) rotate(0) translate(4 1553)">
<title>InstanceForgeOfSoulsScript::OnPlayerEnter</title>
<!-- Node1 -->
<g id="Node000001" class="node">
<title>Node1</title>
<g id="a_Node000001"><a xlink:title=" ">
<polygon fill="#999999" stroke="#666666" points="150,-1489.5 0,-1489.5 0,-1459.5 150,-1459.5 150,-1489.5"/>
<text text-anchor="start" x="8" y="-1477.5" font-family="Helvetica,sans-Serif" font-size="10.00">InstanceForgeOfSoulsScript</text>
<text text-anchor="middle" x="75" y="-1466.5" font-family="Helvetica,sans-Serif" font-size="10.00">::OnPlayerEnter</text>
</a>
</g>
</g>
<!-- Node2 -->
<g id="Node000002" class="node">
<title>Node2</title>
<g id="a_Node000002"><a xlink:href="classPlayer.html#a5648707ed12c03a2419add4f8c882102" target="_top" xlink:title=" ">
<polygon fill="white" stroke="#666666" points="317,-1549 222,-1549 222,-1530 317,-1530 317,-1549"/>
<text text-anchor="middle" x="269.5" y="-1537" font-family="Helvetica,sans-Serif" font-size="10.00">Player::getTeam</text>
</a>
</g>
</g>
<!-- Node1&#45;&gt;Node2 -->
<g id="edge1_Node000001_Node000002" class="edge">
<title>Node1&#45;&gt;Node2</title>
<g id="a_edge1_Node000001_Node000002"><a xlink:title=" ">
<path fill="none" stroke="#63b8ff" d="M108.18,-1489.66C129.83,-1499.44 159.2,-1511.88 186,-1520.5 194.34,-1523.18 203.26,-1525.64 212.05,-1527.84"/>
<polygon fill="#63b8ff" stroke="#63b8ff" points="211.33,-1531.27 221.87,-1530.21 212.97,-1524.47 211.33,-1531.27"/>
</a>
</g>
</g>
<!-- Node3 -->
<g id="Node000003" class="node">
<title>Node3</title>
<g id="a_Node000003"><a xlink:href="classInstanceScript.html#a4e1db4ae2ddcf0b6307946dcd0016b24" target="_top" xlink:title=" ">
<polygon fill="white" stroke="#666666" points="341.5,-1511.5 197.5,-1511.5 197.5,-1481.5 341.5,-1481.5 341.5,-1511.5"/>
<text text-anchor="start" x="205.5" y="-1499.5" font-family="Helvetica,sans-Serif" font-size="10.00">InstanceScript::setSpawns</text>
<text text-anchor="middle" x="269.5" y="-1488.5" font-family="Helvetica,sans-Serif" font-size="10.00">Created</text>
</a>
</g>
</g>
<!-- Node1&#45;&gt;Node3 -->
<g id="edge2_Node000001_Node000003" class="edge">
<title>Node1&#45;&gt;Node3</title>
<g id="a_edge2_Node000001_Node000003"><a xlink:title=" ">
<path fill="none" stroke="#63b8ff" d="M150.15,-1482.97C162.23,-1484.35 174.8,-1485.79 187.05,-1487.19"/>
<polygon fill="#63b8ff" stroke="#63b8ff" points="186.91,-1490.7 197.24,-1488.36 187.7,-1483.74 186.91,-1490.7"/>
</a>
</g>
</g>
<!-- Node4 -->
<g id="Node000004" class="node">
<title>Node4</title>
<g id="a_Node000004"><a xlink:href="classInstanceScript.html#a2560858662d25320e53e4c20531a2108" target="_top" xlink:title=" ">
<polygon fill="white" stroke="#666666" points="352,-1463 187,-1463 187,-1444 352,-1444 352,-1463"/>
<text text-anchor="middle" x="269.5" y="-1451" font-family="Helvetica,sans-Serif" font-size="10.00">InstanceScript::spawnCreature</text>
</a>
</g>
</g>
<!-- Node1&#45;&gt;Node4 -->
<g id="edge3_Node000001_Node000004" class="edge">
<title>Node1&#45;&gt;Node4</title>
<g id="a_edge3_Node000001_Node000004"><a xlink:title=" ">
<path fill="none" stroke="#63b8ff" d="M150.15,-1466.41C158.85,-1465.46 167.8,-1464.49 176.7,-1463.52"/>
<polygon fill="#63b8ff" stroke="#63b8ff" points="177.14,-1466.99 186.71,-1462.42 176.38,-1460.03 177.14,-1466.99"/>
</a>
</g>
</g>
<!-- Node1629 -->
<g id="Node001629" class="node">
<title>Node1629</title>
<g id="a_Node001629"><a xlink:href="classInstanceScript.html#ad387ee88698b53311f3e0ed875faf8c0" target="_top" xlink:title=" ">
<polygon fill="white" stroke="#666666" points="353,-1426 186,-1426 186,-1407 353,-1407 353,-1426"/>
<text text-anchor="middle" x="269.5" y="-1414" font-family="Helvetica,sans-Serif" font-size="10.00">InstanceScript::spawnsCreated</text>
</a>
</g>
</g>
<!-- Node1&#45;&gt;Node1629 -->
<g id="edge53_Node000001_Node001629" class="edge">
<title>Node1&#45;&gt;Node1629</title>
<g id="a_edge53_Node000001_Node001629"><a xlink:title=" ">
<path fill="none" stroke="#63b8ff" d="M115.1,-1459.41C135.96,-1451.67 162.17,-1442.44 186,-1435.5 194.7,-1432.96 204,-1430.55 213.11,-1428.34"/>
<polygon fill="#63b8ff" stroke="#63b8ff" points="213.95,-1431.74 222.87,-1426.03 212.33,-1424.92 213.95,-1431.74"/>
</a>
</g>
</g>
<!-- Node5 -->
<g id="Node000005" class="node">
<title>Node5</title>
<g id="a_Node000005"><a xlink:href="classWorldMap.html#a40584ff6455da37438a0ee2a2dff79bb" target="_top" xlink:title=" ">
<polygon fill="white" stroke="#666666" points="520,-1501 389,-1501 389,-1482 520,-1482 520,-1501"/>
<text text-anchor="middle" x="454.5" y="-1489" font-family="Helvetica,sans-Serif" font-size="10.00">WorldMap::getInterface</text>
</a>
</g>
</g>
<!-- Node4&#45;&gt;Node5 -->
<g id="edge4_Node000004_Node000005" class="edge">
<title>Node4&#45;&gt;Node5</title>
<g id="a_edge4_Node000004_Node000005"><a xlink:title=" ">
<path fill="none" stroke="#63b8ff" d="M316.68,-1463.09C341.26,-1468.19 371.69,-1474.51 397.6,-1479.89"/>
<polygon fill="#63b8ff" stroke="#63b8ff" points="397.15,-1483.37 407.65,-1481.98 398.57,-1476.52 397.15,-1483.37"/>
</a>
</g>
</g>
<!-- Node6 -->
<g id="Node000006" class="node">
<title>Node6</title>
<g id="a_Node000006"><a xlink:href="classUnit.html#a8f7fc8bb5f537a4a74c2de797cf13e64" target="_top" xlink:title=" ">
<polygon fill="white" stroke="#666666" points="899.5,-1407 807.5,-1407 807.5,-1388 899.5,-1388 899.5,-1407"/>
<text text-anchor="middle" x="853.5" y="-1395" font-family="Helvetica,sans-Serif" font-size="10.00">Unit::setFaction</text>
</a>
</g>
</g>
<!-- Node4&#45;&gt;Node6 -->
<g id="edge5_Node000004_Node000006" class="edge">
<title>Node4&#45;&gt;Node6</title>
<g id="a_edge5_Node000004_Node000006"><a xlink:title=" ">
<path fill="none" stroke="#63b8ff" d="M352.4,-1460.29C444.95,-1465.62 599.31,-1467.46 727,-1434.5 744.32,-1430.03 746.11,-1422.41 763,-1416.5 773.9,-1412.69 785.83,-1409.51 797.32,-1406.91"/>
<polygon fill="#63b8ff" stroke="#63b8ff" points="798.23,-1410.3 807.27,-1404.77 796.76,-1403.45 798.23,-1410.3"/>
</a>
</g>
</g>
<!-- Node7 -->
<g id="Node000007" class="node">
<title>Node7</title>
<g id="a_Node000007"><a xlink:href="classMapScriptInterface.html#a8916e528d57c8c8207e2b961d861cdb0" target="_top" xlink:title=" ">
<polygon fill="white" stroke="#666666" points="509,-1375.5 400,-1375.5 400,-1345.5 509,-1345.5 509,-1375.5"/>
<text text-anchor="start" x="408" y="-1363.5" font-family="Helvetica,sans-Serif" font-size="10.00">MapScriptInterface</text>
<text text-anchor="middle" x="454.5" y="-1352.5" font-family="Helvetica,sans-Serif" font-size="10.00">::spawnCreature</text>
</a>
</g>
</g>
<!-- Node4&#45;&gt;Node7 -->
<g id="edge6_Node000004_Node000007" class="edge">
<title>Node4&#45;&gt;Node7</title>
<g id="a_edge6_Node000004_Node000007"><a xlink:title=" ">
<path fill="none" stroke="#63b8ff" d="M329.21,-1443.95C337.38,-1441.68 345.53,-1438.91 353,-1435.5 382.12,-1422.22 410.93,-1399.46 430.19,-1382.49"/>
<polygon fill="#63b8ff" stroke="#63b8ff" points="432.74,-1384.9 437.83,-1375.61 428.06,-1379.7 432.74,-1384.9"/>
</a>
</g>
</g>
<!-- Node8 -->
<g id="Node000008" class="node">
<title>Node8</title>
<g id="a_Node000008"><a xlink:href="classWorldMap.html#ab23a61c608fbb4aacc3b8be21a5ec303" target="_top" xlink:title=" ">
<polygon fill="white" stroke="#666666" points="713.5,-1351 569.5,-1351 569.5,-1332 713.5,-1332 713.5,-1351"/>
<text text-anchor="middle" x="641.5" y="-1339" font-family="Helvetica,sans-Serif" font-size="10.00">WorldMap::createCreature</text>
</a>
</g>
</g>
<!-- Node7&#45;&gt;Node8 -->
<g id="edge7_Node000007_Node000008" class="edge">
<title>Node7&#45;&gt;Node8</title>
<g id="a_edge7_Node000007_Node000008"><a xlink:title=" ">
<path fill="none" stroke="#63b8ff" d="M509.01,-1355C524.56,-1353.41 541.92,-1351.62 558.79,-1349.89"/>
<polygon fill="#63b8ff" stroke="#63b8ff" points="559.62,-1353.33 569.21,-1348.82 558.9,-1346.36 559.62,-1353.33"/>
</a>
</g>
</g>
<!-- Node10 -->
<g id="Node000010" class="node">
<title>Node10</title>
<g id="a_Node000010"><a xlink:href="structCreatureProperties.html#a809fb11b081a4e52ee562464f0b82a9c" target="_top" xlink:title=" ">
<polygon fill="white" stroke="#666666" points="727,-1314 556,-1314 556,-1273 727,-1273 727,-1314"/>
<text text-anchor="start" x="564" y="-1302" font-family="Helvetica,sans-Serif" font-size="10.00">CreatureProperties</text>
<text text-anchor="start" x="564" y="-1291" font-family="Helvetica,sans-Serif" font-size="10.00">::generateRandomDisplayIdAnd</text>
<text text-anchor="middle" x="641.5" y="-1280" font-family="Helvetica,sans-Serif" font-size="10.00">ReturnGender</text>
</a>
</g>
</g>
<!-- Node7&#45;&gt;Node10 -->
<g id="edge9_Node000007_Node000010" class="edge">
<title>Node7&#45;&gt;Node10</title>
<g id="a_edge9_Node000007_Node000010"><a xlink:title=" ">
<path fill="none" stroke="#63b8ff" d="M496.05,-1345.45C514.35,-1338.69 536.24,-1330.64 556,-1323.5 561.44,-1321.53 567.08,-1319.51 572.75,-1317.48"/>
<polygon fill="#63b8ff" stroke="#63b8ff" points="574.05,-1320.73 582.28,-1314.07 571.69,-1314.14 574.05,-1320.73"/>
</a>
</g>
</g>
<!-- Node13 -->
<g id="Node000013" class="node">
<title>Node13</title>
<g id="a_Node000013"><a xlink:href="classCreature.html#ae4d345f9d8ccd87e67b01d2dc1226feb" target="_top" xlink:title=" ">
<polygon fill="#fff0f0" stroke="red" points="685.5,-697 597.5,-697 597.5,-678 685.5,-678 685.5,-697"/>
<text text-anchor="middle" x="641.5" y="-685" font-family="Helvetica,sans-Serif" font-size="10.00">Creature::Load</text>
</a>
</g>
</g>
<!-- Node7&#45;&gt;Node13 -->
<g id="edge13_Node000007_Node000013" class="edge">
<title>Node7&#45;&gt;Node13</title>
<g id="a_edge13_Node000007_Node000013"><a xlink:title=" ">
<path fill="none" stroke="#63b8ff" d="M459.62,-1345.5C483.88,-1257.27 607.84,-806.31 635.17,-706.9"/>
<polygon fill="#63b8ff" stroke="#63b8ff" points="638.55,-707.81 637.82,-697.24 631.8,-705.96 638.55,-707.81"/>
</a>
</g>
</g>
<!-- Node419 -->
<g id="Node000419" class="node">
<title>Node419</title>
<g id="a_Node000419"><a xlink:href="classObject.html#a08c09297b7cbb0af1898da2e8031b724" target="_top" xlink:title=" ">
<polygon fill="#fff0f0" stroke="red" points="699.5,-1425 583.5,-1425 583.5,-1406 699.5,-1406 699.5,-1425"/>
<text text-anchor="middle" x="641.5" y="-1413" font-family="Helvetica,sans-Serif" font-size="10.00">Object::PushToWorld</text>
</a>
</g>
</g>
<!-- Node7&#45;&gt;Node419 -->
<g id="edge51_Node000007_Node000419" class="edge">
<title>Node7&#45;&gt;Node419</title>
<g id="a_edge51_Node000007_Node000419"><a xlink:title=" ">
<path fill="none" stroke="#63b8ff" d="M492.78,-1375.67C511.53,-1382.93 534.74,-1391.36 556,-1397.5 563.68,-1399.72 571.83,-1401.8 579.92,-1403.69"/>
<polygon fill="#63b8ff" stroke="#63b8ff" points="579.19,-1407.12 589.72,-1405.91 580.74,-1400.29 579.19,-1407.12"/>
</a>
</g>
</g>
<!-- Node1628 -->
<g id="Node001628" class="node">
<title>Node1628</title>
<g id="a_Node001628"><a xlink:href="classUnit.html#a5f0b34362f22d261a3424e72c2fdb079" target="_top" xlink:title=" ">
<polygon fill="#fff0f0" stroke="red" points="688,-1388 595,-1388 595,-1369 688,-1369 688,-1388"/>
<text text-anchor="middle" x="641.5" y="-1376" font-family="Helvetica,sans-Serif" font-size="10.00">Unit::setGender</text>
</a>
</g>
</g>
<!-- Node7&#45;&gt;Node1628 -->
<g id="edge52_Node000007_Node001628" class="edge">
<title>Node7&#45;&gt;Node1628</title>
<g id="a_edge52_Node000007_Node001628"><a xlink:title=" ">
<path fill="none" stroke="#63b8ff" d="M509.01,-1365.71C532.82,-1368.02 560.85,-1370.75 584.9,-1373.09"/>
<polygon fill="#63b8ff" stroke="#63b8ff" points="584.65,-1376.58 594.94,-1374.07 585.32,-1369.61 584.65,-1376.58"/>
</a>
</g>
</g>
<!-- Node9 -->
<g id="Node000009" class="node">
<title>Node9</title>
<g id="a_Node000009"><a xlink:href="classWorldMap.html#ad528a6eaf7ba3c55c6591d0c01a4f20a" target="_top" xlink:title=" ">
<polygon fill="white" stroke="#666666" points="943,-1444 764,-1444 764,-1425 943,-1425 943,-1444"/>
<text text-anchor="middle" x="853.5" y="-1432" font-family="Helvetica,sans-Serif" font-size="10.00">WorldMap::generateCreatureGuid</text>
</a>
</g>
</g>
<!-- Node8&#45;&gt;Node9 -->
<g id="edge8_Node000008_Node000009" class="edge">
<title>Node8&#45;&gt;Node9</title>
<g id="a_edge8_Node000008_Node000009"><a xlink:title=" ">
<path fill="none" stroke="#63b8ff" d="M708.78,-1351.04C715.25,-1353.52 721.46,-1356.62 727,-1360.5 751.25,-1377.46 738.56,-1399.82 763,-1416.5 765.25,-1418.04 767.61,-1419.45 770.04,-1420.75"/>
<polygon fill="#63b8ff" stroke="#63b8ff" points="768.61,-1423.94 779.15,-1424.96 771.54,-1417.59 768.61,-1423.94"/>
</a>
</g>
</g>
<!-- Node11 -->
<g id="Node000011" class="node">
<title>Node11</title>
<g id="a_Node000011"><a xlink:href="structCreatureProperties.html#a8b78bb994d36cab16a5e0cb8a683cfcf" target="_top" xlink:title=" ">
<polygon fill="white" stroke="#666666" points="941.5,-1369.5 765.5,-1369.5 765.5,-1339.5 941.5,-1339.5 941.5,-1369.5"/>
<text text-anchor="start" x="773.5" y="-1357.5" font-family="Helvetica,sans-Serif" font-size="10.00">CreatureProperties</text>
<text text-anchor="middle" x="853.5" y="-1346.5" font-family="Helvetica,sans-Serif" font-size="10.00">::getInvisibleModelForTriggerNpc</text>
</a>
</g>
</g>
<!-- Node10&#45;&gt;Node11 -->
<g id="edge10_Node000010_Node000011" class="edge">
<title>Node10&#45;&gt;Node11</title>
<g id="a_edge10_Node000010_Node000011"><a xlink:title=" ">
<path fill="none" stroke="#63b8ff" d="M708.04,-1314.09C725.83,-1319.55 745.12,-1325.36 763,-1330.5 770.2,-1332.57 777.75,-1334.68 785.27,-1336.75"/>
<polygon fill="#63b8ff" stroke="#63b8ff" points="784.55,-1340.18 795.12,-1339.44 786.4,-1333.43 784.55,-1340.18"/>
</a>
</g>
</g>
<!-- Node12 -->
<g id="Node000012" class="node">
<title>Node12</title>
<g id="a_Node000012"><a xlink:href="namespaceUtil.html#ac09cb1bbc978b41e11720b88fec2800e" target="_top" xlink:title=" ">
<polygon fill="white" stroke="#666666" points="911.5,-1303 795.5,-1303 795.5,-1284 911.5,-1284 911.5,-1303"/>
<text text-anchor="middle" x="853.5" y="-1291" font-family="Helvetica,sans-Serif" font-size="10.00">Util::getRandomUInt</text>
</a>
</g>
</g>
<!-- Node10&#45;&gt;Node12 -->
<g id="edge11_Node000010_Node000012" class="edge">
<title>Node10&#45;&gt;Node12</title>
<g id="a_edge11_Node000010_Node000012"><a xlink:title=" ">
<path fill="none" stroke="#63b8ff" d="M727.01,-1293.5C746.34,-1293.5 766.63,-1293.5 785.13,-1293.5"/>
<polygon fill="#63b8ff" stroke="#63b8ff" points="785.2,-1297 795.2,-1293.5 785.2,-1290 785.2,-1297"/>
</a>
</g>
</g>
<!-- Node12&#45;&gt;Node12 -->
<g id="edge12_Node000012_Node000012" class="edge">
<title>Node12&#45;&gt;Node12</title>
<g id="a_edge12_Node000012_Node000012"><a xlink:title=" ">
<path fill="none" stroke="#63b8ff" d="M826.07,-1303.08C812.72,-1311.73 821.86,-1321 853.5,-1321 874.76,-1321 885.86,-1316.82 886.81,-1311.45"/>
<polygon fill="#63b8ff" stroke="#63b8ff" points="889.55,-1309.26 880.93,-1303.08 883.82,-1313.28 889.55,-1309.26"/>
</a>
</g>
</g>
<!-- Node13&#45;&gt;Node6 -->
<g id="edge50_Node000013_Node000006" class="edge">
<title>Node13&#45;&gt;Node6</title>
<g id="a_edge50_Node000013_Node000006"><a xlink:title=" ">
<path fill="none" stroke="#63b8ff" d="M643.87,-697.14C655.49,-778.8 737.88,-1352.45 763,-1378.5 772.05,-1387.88 784.49,-1393.2 797.22,-1396.1"/>
<polygon fill="#63b8ff" stroke="#63b8ff" points="796.98,-1399.61 807.44,-1397.94 798.21,-1392.72 796.98,-1399.61"/>
</a>
</g>
</g>
<!-- Node13&#45;&gt;Node12 -->
<g id="edge32_Node000013_Node000012" class="edge">
<title>Node13&#45;&gt;Node12</title>
<g id="a_edge32_Node000013_Node000012"><a xlink:title=" ">
<path fill="none" stroke="#63b8ff" d="M643.08,-697.42C647.35,-767.63 676.45,-1189.26 763,-1275.5 769.28,-1281.76 777.09,-1286.14 785.46,-1289.17"/>
<polygon fill="#63b8ff" stroke="#63b8ff" points="784.52,-1292.54 795.1,-1292.04 786.52,-1285.83 784.52,-1292.54"/>
</a>
</g>
</g>
<!-- Node14 -->
<g id="Node000014" class="node">
<title>Node14</title>
<g id="a_Node000014"><a xlink:href="classCreature.html#a3017404d48d86e06a9981bf7448e3a6c" target="_top" xlink:title=" ">
<polygon fill="white" stroke="#666666" points="917,-958 790,-958 790,-939 917,-939 917,-958"/>
<text text-anchor="middle" x="853.5" y="-946" font-family="Helvetica,sans-Serif" font-size="10.00">Creature::_LoadQuests</text>
</a>
</g>
</g>
<!-- Node13&#45;&gt;Node14 -->
<g id="edge14_Node000013_Node000014" class="edge">
<title>Node13&#45;&gt;Node14</title>
<g id="a_edge14_Node000013_Node000014"><a xlink:title=" ">
<path fill="none" stroke="#63b8ff" d="M644.15,-697.07C651.03,-733.91 680.99,-867.58 763,-930.5 768.12,-934.43 773.87,-937.56 779.92,-940.05"/>
<polygon fill="#63b8ff" stroke="#63b8ff" points="779.04,-943.45 789.64,-943.46 781.36,-936.85 779.04,-943.45"/>
</a>
</g>
</g>
<!-- Node15 -->
<g id="Node000015" class="node">
<title>Node15</title>
<g id="a_Node000015"><a xlink:href="classUnit.html#aaddde8a184d9e1a1319dc17c4b750420" target="_top" xlink:title=" ">
<polygon fill="#fff0f0" stroke="red" points="906.5,-921 800.5,-921 800.5,-902 906.5,-902 906.5,-921"/>
<text text-anchor="middle" x="853.5" y="-909" font-family="Helvetica,sans-Serif" font-size="10.00">Unit::addNpcFlags</text>
</a>
</g>
</g>
<!-- Node13&#45;&gt;Node15 -->
<g id="edge15_Node000013_Node000015" class="edge">
<title>Node13&#45;&gt;Node15</title>
<g id="a_edge15_Node000013_Node000015"><a xlink:title=" ">
<path fill="none" stroke="#63b8ff" d="M645.07,-697.21C654.45,-730.6 690.16,-841.5 763,-893.5 771.13,-899.3 780.67,-903.34 790.45,-906.13"/>
<polygon fill="#63b8ff" stroke="#63b8ff" points="789.71,-909.55 800.26,-908.52 791.37,-902.75 789.71,-909.55"/>
</a>
</g>
</g>
<!-- Node24 -->
<g id="Node000024" class="node">
<title>Node24</title>
<g id="a_Node000024"><a xlink:href="classUnit.html#af31134ebcca3fa4d81115046cebeaebb" target="_top" xlink:title=" ">
<polygon fill="white" stroke="#666666" points="919.5,-884 787.5,-884 787.5,-865 919.5,-865 919.5,-884"/>
<text text-anchor="middle" x="853.5" y="-872" font-family="Helvetica,sans-Serif" font-size="10.00">Unit::addSpellImmunity</text>
</a>
</g>
</g>
<!-- Node13&#45;&gt;Node24 -->
<g id="edge16_Node000013_Node000024" class="edge">
<title>Node13&#45;&gt;Node24</title>
<g id="a_edge16_Node000013_Node000024"><a xlink:title=" ">
<path fill="none" stroke="#63b8ff" d="M646.27,-697.08C658.32,-726.32 698.89,-814.96 763,-856.5 767.57,-859.46 772.53,-861.95 777.69,-864.05"/>
<polygon fill="#63b8ff" stroke="#63b8ff" points="776.55,-867.36 787.15,-867.4 778.89,-860.76 776.55,-867.36"/>
</a>
</g>
</g>
<!-- Node25 -->
<g id="Node000025" class="node">
<title>Node25</title>
<g id="a_Node000025"><a xlink:href="classLocationVector.html#a139f72fdce307e30088a96977e3a4f5e" target="_top" xlink:title=" ">
<polygon fill="white" stroke="#666666" points="936,-847 771,-847 771,-828 936,-828 936,-847"/>
<text text-anchor="middle" x="853.5" y="-835" font-family="Helvetica,sans-Serif" font-size="10.00">LocationVector::ChangeCoords</text>
</a>
</g>
</g>
<!-- Node13&#45;&gt;Node25 -->
<g id="edge17_Node000013_Node000025" class="edge">
<title>Node13&#45;&gt;Node25</title>
<g id="a_edge17_Node000013_Node000025"><a xlink:title=" ">
<path fill="none" stroke="#63b8ff" d="M648.82,-697.09C664.9,-720.7 709.88,-782.03 763,-813.5 770.83,-818.14 779.56,-821.9 788.42,-824.94"/>
<polygon fill="#63b8ff" stroke="#63b8ff" points="787.46,-828.31 798.05,-827.97 789.56,-821.63 787.46,-828.31"/>
</a>
</g>
</g>
<!-- Node26 -->
<g id="Node000026" class="node">
<title>Node26</title>
<g id="a_Node000026"><a xlink:href="classUnit.html#a0c640228026c1a578af342436b52bd09" target="_top" xlink:title=" ">
<polygon fill="white" stroke="#666666" points="922,-771 785,-771 785,-752 922,-752 922,-771"/>
<text text-anchor="middle" x="853.5" y="-759" font-family="Helvetica,sans-Serif" font-size="10.00">Unit::eventModelChange</text>
</a>
</g>
</g>
<!-- Node13&#45;&gt;Node26 -->
<g id="edge18_Node000013_Node000026" class="edge">
<title>Node13&#45;&gt;Node26</title>
<g id="a_edge18_Node000013_Node000026"><a xlink:title=" ">
<path fill="none" stroke="#63b8ff" d="M659.93,-697.21C682.9,-709.62 724.86,-731 763,-743.5 770.02,-745.8 777.44,-747.86 784.9,-749.69"/>
<polygon fill="#63b8ff" stroke="#63b8ff" points="784.15,-753.11 794.68,-751.96 785.73,-746.29 784.15,-753.11"/>
</a>
</g>
</g>
<!-- Node27 -->
<g id="Node000027" class="node">
<title>Node27</title>
<g id="a_Node000027"><a xlink:href="classUnit.html#a5c157aedab3d3cbd8682505c8e0d512f" target="_top" xlink:title=" ">
<polygon fill="#fff0f0" stroke="red" points="1084,-790 980,-790 980,-771 1084,-771 1084,-790"/>
<text text-anchor="middle" x="1032" y="-778" font-family="Helvetica,sans-Serif" font-size="10.00">Unit::getDisplayId</text>
</a>
</g>
</g>
<!-- Node13&#45;&gt;Node27 -->
<g id="edge21_Node000013_Node000027" class="edge">
<title>Node13&#45;&gt;Node27</title>
<g id="a_edge21_Node000013_Node000027"><a xlink:title=" ">
<path fill="none" stroke="#63b8ff" d="M650.63,-697.06C668.48,-717.21 713.48,-763.61 763,-780.5 831.09,-803.72 914.7,-798.89 970.24,-791.42"/>
<polygon fill="#63b8ff" stroke="#63b8ff" points="970.86,-794.87 980.27,-790.01 969.88,-787.94 970.86,-794.87"/>
</a>
</g>
</g>
<!-- Node28 -->
<g id="Node000028" class="node">
<title>Node28</title>
<g id="a_Node000028"><a xlink:href="classUnit.html#ac31c5d768d09773dcbdd613b24e10f50" target="_top" xlink:title=" ">
<polygon fill="white" stroke="#666666" points="909.5,-734 797.5,-734 797.5,-715 909.5,-715 909.5,-734"/>
<text text-anchor="middle" x="853.5" y="-722" font-family="Helvetica,sans-Serif" font-size="10.00">Unit::getAIInterface</text>
</a>
</g>
</g>
<!-- Node13&#45;&gt;Node28 -->
<g id="edge20_Node000013_Node000028" class="edge">
<title>Node13&#45;&gt;Node28</title>
<g id="a_edge20_Node000013_Node000028"><a xlink:title=" ">
<path fill="none" stroke="#63b8ff" d="M685.5,-695.08C715.08,-700.29 754.89,-707.3 788.22,-713.17"/>
<polygon fill="#63b8ff" stroke="#63b8ff" points="787.88,-716.67 798.33,-714.96 789.09,-709.77 787.88,-716.67"/>
</a>
</g>
</g>
<!-- Node29 -->
<g id="Node000029" class="node">
<title>Node29</title>
<g id="a_Node000029"><a xlink:href="classObject.html#ad4e6bfe8fd236724215bc3e671eee225" target="_top" xlink:title=" ">
<polygon fill="#fff0f0" stroke="red" points="901,-697 806,-697 806,-678 901,-678 901,-697"/>
<text text-anchor="middle" x="853.5" y="-685" font-family="Helvetica,sans-Serif" font-size="10.00">Object::getEntry</text>
</a>
</g>
</g>
<!-- Node13&#45;&gt;Node29 -->
<g id="edge22_Node000013_Node000029" class="edge">
<title>Node13&#45;&gt;Node29</title>
<g id="a_edge22_Node000013_Node000029"><a xlink:title=" ">
<path fill="none" stroke="#63b8ff" d="M685.5,-687.5C717.39,-687.5 761.17,-687.5 795.91,-687.5"/>
<polygon fill="#63b8ff" stroke="#63b8ff" points="795.91,-691 805.91,-687.5 795.91,-684 795.91,-691"/>
</a>
</g>
</g>
<!-- Node31 -->
<g id="Node000031" class="node">
<title>Node31</title>
<g id="a_Node000031"><a xlink:href="classUnit.html#adfa16ac0ecbefbac2e41e3fb1590a1a5" target="_top" xlink:title=" ">
<polygon fill="#fff0f0" stroke="red" points="896,-660 811,-660 811,-641 896,-641 896,-660"/>
<text text-anchor="middle" x="853.5" y="-648" font-family="Helvetica,sans-Serif" font-size="10.00">Unit::getLevel</text>
</a>
</g>
</g>
<!-- Node13&#45;&gt;Node31 -->
<g id="edge23_Node000013_Node000031" class="edge">
<title>Node13&#45;&gt;Node31</title>
<g id="a_edge23_Node000013_Node000031"><a xlink:title=" ">
<path fill="none" stroke="#63b8ff" d="M685.5,-679.92C718.92,-674.03 765.4,-665.85 800.84,-659.6"/>
<polygon fill="#63b8ff" stroke="#63b8ff" points="801.74,-663 810.99,-657.81 800.53,-656.1 801.74,-663"/>
</a>
</g>
</g>
<!-- Node32 -->
<g id="Node000032" class="node">
<title>Node32</title>
<g id="a_Node000032"><a xlink:href="classUnit.html#a0e9d4dc26e2fbd774c66450638839a01" target="_top" xlink:title=" ">
<polygon fill="#fff0f0" stroke="red" points="914,-623 793,-623 793,-604 914,-604 914,-623"/>
<text text-anchor="middle" x="853.5" y="-611" font-family="Helvetica,sans-Serif" font-size="10.00">Unit::getMaxDamage</text>
</a>
</g>
</g>
<!-- Node13&#45;&gt;Node32 -->
<g id="edge24_Node000013_Node000032" class="edge">
<title>Node13&#45;&gt;Node32</title>
<g id="a_edge24_Node000013_Node000032"><a xlink:title=" ">
<path fill="none" stroke="#63b8ff" d="M660.37,-677.84C683.47,-665.7 725.22,-644.96 763,-632.5 771.02,-629.85 779.58,-627.49 788.09,-625.4"/>
<polygon fill="#63b8ff" stroke="#63b8ff" points="789.1,-628.76 798.04,-623.07 787.5,-621.94 789.1,-628.76"/>
</a>
</g>
</g>
<!-- Node33 -->
<g id="Node000033" class="node">
<title>Node33</title>
<g id="a_Node000033"><a xlink:href="classUnit.html#a285d459d1f892a495e0b209dcbd6c17a" target="_top" xlink:title=" ">
<polygon fill="#fff0f0" stroke="red" points="933,-586 774,-586 774,-567 933,-567 933,-586"/>
<text text-anchor="middle" x="853.5" y="-574" font-family="Helvetica,sans-Serif" font-size="10.00">Unit::getMaxOffhandDamage</text>
</a>
</g>
</g>
<!-- Node13&#45;&gt;Node33 -->
<g id="edge25_Node000013_Node000033" class="edge">
<title>Node13&#45;&gt;Node33</title>
<g id="a_edge25_Node000013_Node000033"><a xlink:title=" ">
<path fill="none" stroke="#63b8ff" d="M651.82,-677.97C670.86,-659.09 716.36,-616.93 763,-595.5 768.36,-593.04 774.06,-590.89 779.87,-589.01"/>
<polygon fill="#63b8ff" stroke="#63b8ff" points="781.12,-592.29 789.72,-586.11 779.14,-585.58 781.12,-592.29"/>
</a>
</g>
</g>
<!-- Node34 -->
<g id="Node000034" class="node">
<title>Node34</title>
<g id="a_Node000034"><a xlink:href="classUnit.html#a1318f14d702da24f16aa70a48021da88" target="_top" xlink:title=" ">
<polygon fill="#fff0f0" stroke="red" points="932.5,-549 774.5,-549 774.5,-530 932.5,-530 932.5,-549"/>
<text text-anchor="middle" x="853.5" y="-537" font-family="Helvetica,sans-Serif" font-size="10.00">Unit::getMaxRangedDamage</text>
</a>
</g>
</g>
<!-- Node13&#45;&gt;Node34 -->
<g id="edge26_Node000013_Node000034" class="edge">
<title>Node13&#45;&gt;Node34</title>
<g id="a_edge26_Node000013_Node000034"><a xlink:title=" ">
<path fill="none" stroke="#63b8ff" d="M648.43,-677.86C663.94,-653.54 708.3,-589.41 763,-558.5 767,-556.24 771.23,-554.25 775.6,-552.5"/>
<polygon fill="#63b8ff" stroke="#63b8ff" points="777.1,-555.68 785.34,-549.02 774.75,-549.08 777.1,-555.68"/>
</a>
</g>
</g>
<!-- Node35 -->
<g id="Node000035" class="node">
<title>Node35</title>
<g id="a_Node000035"><a xlink:href="classCreature.html#aec78a1373e622ac1152e8e448b9dcd20" target="_top" xlink:title=" ">
<polygon fill="white" stroke="#666666" points="944,-512 763,-512 763,-493 944,-493 944,-512"/>
<text text-anchor="middle" x="853.5" y="-500" font-family="Helvetica,sans-Serif" font-size="10.00">Creature::getMaxWanderDistance</text>
</a>
</g>
</g>
<!-- Node13&#45;&gt;Node35 -->
<g id="edge27_Node000013_Node000035" class="edge">
<title>Node13&#45;&gt;Node35</title>
<g id="a_edge27_Node000013_Node000035"><a xlink:title=" ">
<path fill="none" stroke="#63b8ff" d="M646.52,-677.71C658.99,-648.66 699.98,-562.43 763,-521.5 766.18,-519.43 769.55,-517.58 773.05,-515.93"/>
<polygon fill="#63b8ff" stroke="#63b8ff" points="774.64,-519.06 782.54,-512.01 771.96,-512.6 774.64,-519.06"/>
</a>
</g>
</g>
<!-- Node36 -->
<g id="Node000036" class="node">
<title>Node36</title>
<g id="a_Node000036"><a xlink:href="classUnit.html#aa9a34ffc52ac9039b39767ec6b092256" target="_top" xlink:title=" ">
<polygon fill="#fff0f0" stroke="red" points="912.5,-475 794.5,-475 794.5,-456 912.5,-456 912.5,-475"/>
<text text-anchor="middle" x="853.5" y="-463" font-family="Helvetica,sans-Serif" font-size="10.00">Unit::getMinDamage</text>
</a>
</g>
</g>
<!-- Node13&#45;&gt;Node36 -->
<g id="edge28_Node000013_Node000036" class="edge">
<title>Node13&#45;&gt;Node36</title>
<g id="a_edge28_Node000013_Node000036"><a xlink:title=" ">
<path fill="none" stroke="#63b8ff" d="M645.14,-677.96C654.73,-645.14 691.06,-536.09 763,-484.5 769.44,-479.88 776.78,-476.34 784.41,-473.63"/>
<polygon fill="#63b8ff" stroke="#63b8ff" points="785.66,-476.91 794.19,-470.63 783.61,-470.22 785.66,-476.91"/>
</a>
</g>
</g>
<!-- Node37 -->
<g id="Node000037" class="node">
<title>Node37</title>
<g id="a_Node000037"><a xlink:href="classUnit.html#a5742d7f3c6f40c8432f1a109e85dde98" target="_top" xlink:title=" ">
<polygon fill="#fff0f0" stroke="red" points="931.5,-438 775.5,-438 775.5,-419 931.5,-419 931.5,-438"/>
<text text-anchor="middle" x="853.5" y="-426" font-family="Helvetica,sans-Serif" font-size="10.00">Unit::getMinOffhandDamage</text>
</a>
</g>
</g>
<!-- Node13&#45;&gt;Node37 -->
<g id="edge29_Node000013_Node000037" class="edge">
<title>Node13&#45;&gt;Node37</title>
<g id="a_edge29_Node000013_Node000037"><a xlink:title=" ">
<path fill="none" stroke="#63b8ff" d="M644.26,-677.82C651.45,-641.17 682.17,-509.89 763,-447.5 765.22,-445.78 767.56,-444.22 770,-442.78"/>
<polygon fill="#63b8ff" stroke="#63b8ff" points="771.82,-445.78 779.17,-438.15 768.67,-439.53 771.82,-445.78"/>
</a>
</g>
</g>
<!-- Node38 -->
<g id="Node000038" class="node">
<title>Node38</title>
<g id="a_Node000038"><a xlink:href="classUnit.html#a001fd0c27657c84c9cd5d32a347da670" target="_top" xlink:title=" ">
<polygon fill="#fff0f0" stroke="red" points="931,-401 776,-401 776,-382 931,-382 931,-401"/>
<text text-anchor="middle" x="853.5" y="-389" font-family="Helvetica,sans-Serif" font-size="10.00">Unit::getMinRangedDamage</text>
</a>
</g>
</g>
<!-- Node13&#45;&gt;Node38 -->
<g id="edge30_Node000013_Node000038" class="edge">
<title>Node13&#45;&gt;Node38</title>
<g id="a_edge30_Node000013_Node000038"><a xlink:title=" ">
<path fill="none" stroke="#63b8ff" d="M643.57,-677.77C648.54,-637.68 673.03,-483.98 763,-410.5 765.05,-408.83 767.2,-407.3 769.45,-405.89"/>
<polygon fill="#63b8ff" stroke="#63b8ff" points="771.32,-408.86 778.5,-401.06 768.03,-402.68 771.32,-408.86"/>
</a>
</g>
</g>
<!-- Node39 -->
<g id="Node000039" class="node">
<title>Node39</title>
<g id="a_Node000039"><a xlink:href="classCreature.html#acc6077199e3427ee49a0c6a2ea69b729" target="_top" xlink:title=" ">
<polygon fill="#fff0f0" stroke="red" points="942.5,-364 764.5,-364 764.5,-345 942.5,-345 942.5,-364"/>
<text text-anchor="middle" x="853.5" y="-352" font-family="Helvetica,sans-Serif" font-size="10.00">Creature::getMovementTemplate</text>
</a>
</g>
</g>
<!-- Node13&#45;&gt;Node39 -->
<g id="edge31_Node000013_Node000039" class="edge">
<title>Node13&#45;&gt;Node39</title>
<g id="a_edge31_Node000013_Node000039"><a xlink:title=" ">
<path fill="none" stroke="#63b8ff" d="M643.02,-677.99C645.88,-635.14 663.54,-458.44 763,-373.5 764.82,-371.95 766.73,-370.52 768.72,-369.19"/>
<polygon fill="#63b8ff" stroke="#63b8ff" points="770.87,-371.99 777.88,-364.04 767.45,-365.89 770.87,-371.99"/>
</a>
</g>
</g>
<!-- Node41 -->
<g id="Node000041" class="node">
<title>Node41</title>
<g id="a_Node000041"><a xlink:href="classUnit.html#a1042f4ea1179938e1c53f10132dfd497" target="_top" xlink:title=" ">
<polygon fill="#fff0f0" stroke="red" points="909.5,-327 797.5,-327 797.5,-308 909.5,-308 909.5,-327"/>
<text text-anchor="middle" x="853.5" y="-315" font-family="Helvetica,sans-Serif" font-size="10.00">Unit::getResistance</text>
</a>
</g>
</g>
<!-- Node13&#45;&gt;Node41 -->
<g id="edge33_Node000013_Node000041" class="edge">
<title>Node13&#45;&gt;Node41</title>
<g id="a_edge33_Node000013_Node000041"><a xlink:title=" ">
<path fill="none" stroke="#63b8ff" d="M642.59,-677.84C643.58,-631.79 654.22,-432.81 763,-336.5 769.99,-330.31 778.48,-325.97 787.42,-322.94"/>
<polygon fill="#63b8ff" stroke="#63b8ff" points="788.59,-326.25 797.25,-320.15 786.67,-319.51 788.59,-326.25"/>
</a>
</g>
</g>
<!-- Node42 -->
<g id="Node000042" class="node">
<title>Node42</title>
<g id="a_Node000042"><a xlink:href="classUnit.html#a4e39d9d4324c54fd5b1769fe51a98b0a" target="_top" xlink:title=" ">
<polygon fill="#fff0f0" stroke="red" points="892.5,-290 814.5,-290 814.5,-271 892.5,-271 892.5,-290"/>
<text text-anchor="middle" x="853.5" y="-278" font-family="Helvetica,sans-Serif" font-size="10.00">Unit::getStat</text>
</a>
</g>
</g>
<!-- Node13&#45;&gt;Node42 -->
<g id="edge34_Node000013_Node000042" class="edge">
<title>Node13&#45;&gt;Node42</title>
<g id="a_edge34_Node000013_Node000042"><a xlink:title=" ">
<path fill="none" stroke="#63b8ff" d="M642.23,-677.84C641.45,-629.02 644.7,-407.4 763,-299.5 774.16,-289.32 789.37,-284.09 804.09,-281.52"/>
<polygon fill="#63b8ff" stroke="#63b8ff" points="804.71,-284.97 814.14,-280.15 803.76,-278.03 804.71,-284.97"/>
</a>
</g>
</g>
<!-- Node43 -->
<g id="Node000043" class="node">
<title>Node43</title>
<g id="a_Node000043"><a xlink:href="classAIInterface.html#ae1c3d598a2f552ebf974cb5413f0dc96" target="_top" xlink:title=" ">
<polygon fill="#fff0f0" stroke="red" points="926.5,-252.5 780.5,-252.5 780.5,-222.5 926.5,-222.5 926.5,-252.5"/>
<text text-anchor="start" x="788.5" y="-240.5" font-family="Helvetica,sans-Serif" font-size="10.00">AIInterface::initializeReact</text>
<text text-anchor="middle" x="853.5" y="-229.5" font-family="Helvetica,sans-Serif" font-size="10.00">State</text>
</a>
</g>
</g>
<!-- Node13&#45;&gt;Node43 -->
<g id="edge35_Node000013_Node000043" class="edge">
<title>Node13&#45;&gt;Node43</title>
<g id="a_edge35_Node000013_Node000043"><a xlink:title=" ">
<path fill="none" stroke="#63b8ff" d="M642.06,-677.79C640.32,-626.61 639.11,-385.9 763,-262.5 765.67,-259.84 768.6,-257.45 771.72,-255.32"/>
<polygon fill="#63b8ff" stroke="#63b8ff" points="773.53,-258.32 780.37,-250.23 769.98,-252.29 773.53,-258.32"/>
</a>
</g>
</g>
<!-- Node46 -->
<g id="Node000046" class="node">
<title>Node46</title>
<g id="a_Node000046"><a xlink:href="classCreature.html#a0d226f6b812810dae9b7a98c673d0a42" target="_top" xlink:title=" ">
<polygon fill="white" stroke="#666666" points="915.5,-204 791.5,-204 791.5,-185 915.5,-185 915.5,-204"/>
<text text-anchor="middle" x="853.5" y="-192" font-family="Helvetica,sans-Serif" font-size="10.00">Creature::isattackable</text>
</a>
</g>
</g>
<!-- Node13&#45;&gt;Node46 -->
<g id="edge36_Node000013_Node000046" class="edge">
<title>Node13&#45;&gt;Node46</title>
<g id="a_edge36_Node000013_Node000046"><a xlink:title=" ">
<path fill="none" stroke="#63b8ff" d="M643.56,-677.98C650.54,-617.03 691.83,-281.9 763,-213.5 768.35,-208.35 774.74,-204.45 781.6,-201.52"/>
<polygon fill="#63b8ff" stroke="#63b8ff" points="782.96,-204.75 791.19,-198.08 780.6,-198.16 782.96,-204.75"/>
</a>
</g>
</g>
<!-- Node47 -->
<g id="Node000047" class="node">
<title>Node47</title>
<g id="a_Node000047"><a xlink:href="classCreature.html#a89bf17ce1bda104fb989ef8bd62b7000" target="_top" xlink:title=" ">
<polygon fill="#fff0f0" stroke="red" points="916,-167 791,-167 791,-148 916,-148 916,-167"/>
<text text-anchor="middle" x="853.5" y="-155" font-family="Helvetica,sans-Serif" font-size="10.00">Creature::isAuctioneer</text>
</a>
</g>
</g>
<!-- Node13&#45;&gt;Node47 -->
<g id="edge37_Node000013_Node000047" class="edge">
<title>Node13&#45;&gt;Node47</title>
<g id="a_edge37_Node000013_Node000047"><a xlink:title=" ">
<path fill="none" stroke="#63b8ff" d="M643.4,-677.66C649.54,-613.14 687.08,-250.74 763,-176.5 768.23,-171.38 774.48,-167.49 781.2,-164.56"/>
<polygon fill="#63b8ff" stroke="#63b8ff" points="782.44,-167.83 790.62,-161.11 780.03,-161.26 782.44,-167.83"/>
</a>
</g>
</g>
<!-- Node48 -->
<g id="Node000048" class="node">
<title>Node48</title>
<g id="a_Node000048"><a xlink:href="classCreature.html#afaa0faf736d157b335e99aa3217c0a82" target="_top" xlink:title=" ">
<polygon fill="white" stroke="#666666" points="923.5,-130 783.5,-130 783.5,-111 923.5,-111 923.5,-130"/>
<text text-anchor="middle" x="853.5" y="-118" font-family="Helvetica,sans-Serif" font-size="10.00">Creature::isDungeonBoss</text>
</a>
</g>
</g>
<!-- Node13&#45;&gt;Node48 -->
<g id="edge38_Node000013_Node000048" class="edge">
<title>Node13&#45;&gt;Node48</title>
<g id="a_edge38_Node000013_Node000048"><a xlink:title=" ">
<path fill="none" stroke="#63b8ff" d="M643.22,-677.83C648.42,-611.16 682.12,-219.8 763,-139.5 766.32,-136.2 770.07,-133.41 774.09,-131.05"/>
<polygon fill="#63b8ff" stroke="#63b8ff" points="775.85,-134.09 783.3,-126.56 772.78,-127.8 775.85,-134.09"/>
</a>
</g>
</g>
<!-- Node49 -->
<g id="Node000049" class="node">
<title>Node49</title>
<g id="a_Node000049"><a xlink:href="classCreature.html#a3c5ced9bd4d24ae6f59cbd921c953760" target="_top" xlink:title=" ">
<polygon fill="#fff0f0" stroke="red" points="932,-93 775,-93 775,-74 932,-74 932,-93"/>
<text text-anchor="middle" x="853.5" y="-81" font-family="Helvetica,sans-Serif" font-size="10.00">Creature::isProfessionTrainer</text>
</a>
</g>
</g>
<!-- Node13&#45;&gt;Node49 -->
<g id="edge39_Node000013_Node000049" class="edge">
<title>Node13&#45;&gt;Node49</title>
<g id="a_edge39_Node000013_Node000049"><a xlink:title=" ">
<path fill="none" stroke="#63b8ff" d="M643.08,-677.61C647.39,-607.64 676.7,-187.43 763,-101.5 764.09,-100.42 765.22,-99.39 766.4,-98.42"/>
<polygon fill="#63b8ff" stroke="#63b8ff" points="768.41,-101.28 774.69,-92.74 764.46,-95.5 768.41,-101.28"/>
</a>
</g>
</g>
<!-- Node50 -->
<g id="Node000050" class="node">
<title>Node50</title>
<g id="a_Node000050"><a xlink:href="classCreature.html#ad7f7eff8b07d598c67902d6b29f5ad36" target="_top" xlink:title=" ">
<polygon fill="#fff0f0" stroke="red" points="917.5,-56 789.5,-56 789.5,-37 917.5,-37 917.5,-56"/>
<text text-anchor="middle" x="853.5" y="-44" font-family="Helvetica,sans-Serif" font-size="10.00">Creature::isQuestGiver</text>
</a>
</g>
</g>
<!-- Node13&#45;&gt;Node50 -->
<g id="edge40_Node000013_Node000050" class="edge">
<title>Node13&#45;&gt;Node50</title>
<g id="a_edge40_Node000013_Node000050"><a xlink:title=" ">
<path fill="none" stroke="#63b8ff" d="M642.94,-677.93C646.39,-606.46 671.62,-156.56 763,-64.5 767.88,-59.59 773.69,-55.83 779.99,-52.97"/>
<polygon fill="#63b8ff" stroke="#63b8ff" points="781.37,-56.19 789.5,-49.4 778.91,-49.64 781.37,-56.19"/>
</a>
</g>
</g>
<!-- Node51 -->
<g id="Node000051" class="node">
<title>Node51</title>
<g id="a_Node000051"><a xlink:href="classUnit.html#a7c6fa14c887a543c0047b510551566cb" target="_top" xlink:title=" ">
<polygon fill="#fff0f0" stroke="red" points="896.5,-19 810.5,-19 810.5,0 896.5,0 896.5,-19"/>
<text text-anchor="middle" x="853.5" y="-7" font-family="Helvetica,sans-Serif" font-size="10.00">Unit::isRooted</text>
</a>
</g>
</g>
<!-- Node13&#45;&gt;Node51 -->
<g id="edge41_Node000013_Node000051" class="edge">
<title>Node13&#45;&gt;Node51</title>
<g id="a_edge41_Node000013_Node000051"><a xlink:title=" ">
<path fill="none" stroke="#63b8ff" d="M642.83,-677.84C645.54,-603.72 666.69,-125.55 763,-27.5 772.83,-17.49 786.56,-12.25 800.32,-9.68"/>
<polygon fill="#63b8ff" stroke="#63b8ff" points="800.89,-13.14 810.29,-8.25 799.9,-6.21 800.89,-13.14"/>
</a>
</g>
</g>
<!-- Node53 -->
<g id="Node000053" class="node">
<title>Node53</title>
<g id="a_Node000053"><a xlink:href="classObject.html#a398de94ec4bf1a231775d1f845938c6a" target="_top" xlink:title=" ">
<polygon fill="white" stroke="#666666" points="906.5,-1266 800.5,-1266 800.5,-1247 906.5,-1247 906.5,-1266"/>
<text text-anchor="middle" x="853.5" y="-1254" font-family="Helvetica,sans-Serif" font-size="10.00">Object::isSummon</text>
</a>
</g>
</g>
<!-- Node13&#45;&gt;Node53 -->
<g id="edge42_Node000013_Node000053" class="edge">
<title>Node13&#45;&gt;Node53</title>
<g id="a_edge42_Node000013_Node000053"><a xlink:title=" ">
<path fill="none" stroke="#63b8ff" d="M643.21,-697.23C648.28,-764.33 681.31,-1158.17 763,-1238.5 770.54,-1245.91 780.22,-1250.68 790.42,-1253.69"/>
<polygon fill="#63b8ff" stroke="#63b8ff" points="789.76,-1257.13 800.31,-1256.05 791.4,-1250.32 789.76,-1257.13"/>
</a>
</g>
</g>
<!-- Node54 -->
<g id="Node000054" class="node">
<title>Node54</title>
<g id="a_Node000054"><a xlink:href="classCreature.html#aceabad5114ae7e94cfbb907f388f5e89" target="_top" xlink:title=" ">
<polygon fill="#fff0f0" stroke="red" points="906.5,-1229 800.5,-1229 800.5,-1210 906.5,-1210 906.5,-1229"/>
<text text-anchor="middle" x="853.5" y="-1217" font-family="Helvetica,sans-Serif" font-size="10.00">Creature::isTrainer</text>
</a>
</g>
</g>
<!-- Node13&#45;&gt;Node54 -->
<g id="edge43_Node000013_Node000054" class="edge">
<title>Node13&#45;&gt;Node54</title>
<g id="a_edge43_Node000013_Node000054"><a xlink:title=" ">
<path fill="none" stroke="#63b8ff" d="M643.39,-697.4C649.4,-762.36 686.3,-1127.21 763,-1201.5 770.59,-1208.85 780.3,-1213.6 790.51,-1216.59"/>
<polygon fill="#63b8ff" stroke="#63b8ff" points="789.86,-1220.04 800.4,-1218.96 791.49,-1213.23 789.86,-1220.04"/>
</a>
</g>
</g>
<!-- Node55 -->
<g id="Node000055" class="node">
<title>Node55</title>
<g id="a_Node000055"><a xlink:href="classCreature.html#ac38b513096d5c6ea8b43c5ad89d836da" target="_top" xlink:title=" ">
<polygon fill="white" stroke="#666666" points="907.5,-1192 799.5,-1192 799.5,-1173 907.5,-1173 907.5,-1192"/>
<text text-anchor="middle" x="853.5" y="-1180" font-family="Helvetica,sans-Serif" font-size="10.00">Creature::isVehicle</text>
</a>
</g>
</g>
<!-- Node13&#45;&gt;Node55 -->
<g id="edge44_Node000013_Node000055" class="edge">
<title>Node13&#45;&gt;Node55</title>
<g id="a_edge44_Node000013_Node000055"><a xlink:title=" ">
<path fill="none" stroke="#63b8ff" d="M643.54,-697.09C650.41,-758.48 691.09,-1096.03 763,-1164.5 770.32,-1171.47 779.54,-1176.08 789.27,-1179.08"/>
<polygon fill="#63b8ff" stroke="#63b8ff" points="788.55,-1182.51 799.11,-1181.57 790.27,-1175.73 788.55,-1182.51"/>
</a>
</g>
</g>
<!-- Node56 -->
<g id="Node000056" class="node">
<title>Node56</title>
<g id="a_Node000056"><a xlink:href="classCreature.html#a4615f2199e17c0fc52735227c4de9888" target="_top" xlink:title=" ">
<polygon fill="#fff0f0" stroke="red" points="907,-1155 800,-1155 800,-1136 907,-1136 907,-1155"/>
<text text-anchor="middle" x="853.5" y="-1143" font-family="Helvetica,sans-Serif" font-size="10.00">Creature::isVendor</text>
</a>
</g>
</g>
<!-- Node13&#45;&gt;Node56 -->
<g id="edge45_Node000013_Node000056" class="edge">
<title>Node13&#45;&gt;Node56</title>
<g id="a_edge45_Node000013_Node000056"><a xlink:title=" ">
<path fill="none" stroke="#63b8ff" d="M643.76,-697.1C651.63,-755.72 695.98,-1064.94 763,-1127.5 770.47,-1134.48 779.86,-1139.08 789.73,-1142.06"/>
<polygon fill="#63b8ff" stroke="#63b8ff" points="789.15,-1145.52 799.7,-1144.53 790.83,-1138.73 789.15,-1145.52"/>
</a>
</g>
</g>
<!-- Node57 -->
<g id="Node000057" class="node">
<title>Node57</title>
<g id="a_Node000057"><a xlink:href="classUnit.html#abe3105a2555346f2789ca17a377add4c" target="_top" xlink:title=" ">
<polygon fill="white" stroke="#666666" points="923,-1118 784,-1118 784,-1099 923,-1099 923,-1118"/>
<text text-anchor="middle" x="853.5" y="-1106" font-family="Helvetica,sans-Serif" font-size="10.00">Unit::resetCurrentSpeeds</text>
</a>
</g>
</g>
<!-- Node13&#45;&gt;Node57 -->
<g id="edge46_Node000013_Node000057" class="edge">
<title>Node13&#45;&gt;Node57</title>
<g id="a_edge46_Node000013_Node000057"><a xlink:title=" ">
<path fill="none" stroke="#63b8ff" d="M642.08,-697.21C640.5,-747.31 640.24,-978.56 763,-1090.5 766.45,-1093.65 770.3,-1096.31 774.4,-1098.56"/>
<polygon fill="#63b8ff" stroke="#63b8ff" points="773.18,-1101.85 783.73,-1102.84 776.1,-1095.49 773.18,-1101.85"/>
</a>
</g>
</g>
<!-- Node58 -->
<g id="Node000058" class="node">
<title>Node58</title>
<g id="a_Node000058"><a xlink:href="classUnit.html#ad84a325f624b4d5fa83ea78ee2e89cb3" target="_top" xlink:title=" ">
<polygon fill="white" stroke="#666666" points="901.5,-1081 805.5,-1081 805.5,-1062 901.5,-1062 901.5,-1081"/>
<text text-anchor="middle" x="853.5" y="-1069" font-family="Helvetica,sans-Serif" font-size="10.00">Unit::setAItoUse</text>
</a>
</g>
</g>
<!-- Node13&#45;&gt;Node58 -->
<g id="edge47_Node000013_Node000058" class="edge">
<title>Node13&#45;&gt;Node58</title>
<g id="a_edge47_Node000013_Node000058"><a xlink:title=" ">
<path fill="none" stroke="#63b8ff" d="M642.45,-697.22C642.76,-744.45 650.67,-951.86 763,-1052.5 771.97,-1060.53 783.47,-1065.47 795.21,-1068.45"/>
<polygon fill="#63b8ff" stroke="#63b8ff" points="794.59,-1071.9 805.09,-1070.51 796.02,-1065.04 794.59,-1071.9"/>
</a>
</g>
</g>
<!-- Node59 -->
<g id="Node000059" class="node">
<title>Node59</title>
<g id="a_Node000059"><a xlink:href="classAIInterface.html#ad994b9d83f57d6419189962ee71ae413" target="_top" xlink:title=" ">
<polygon fill="#fff0f0" stroke="red" points="923.5,-1043.5 783.5,-1043.5 783.5,-1013.5 923.5,-1013.5 923.5,-1043.5"/>
<text text-anchor="start" x="791.5" y="-1031.5" font-family="Helvetica,sans-Serif" font-size="10.00">AIInterface::setAllowedTo</text>
<text text-anchor="middle" x="853.5" y="-1020.5" font-family="Helvetica,sans-Serif" font-size="10.00">EnterCombat</text>
</a>
</g>
</g>
<!-- Node13&#45;&gt;Node59 -->
<g id="edge48_Node000013_Node000059" class="edge">
<title>Node13&#45;&gt;Node59</title>
<g id="a_edge48_Node000013_Node000059"><a xlink:title=" ">
<path fill="none" stroke="#63b8ff" d="M643.11,-697.26C646.36,-740.48 665.36,-916.28 763,-1004.5 766.38,-1007.56 770.11,-1010.23 774.07,-1012.57"/>
<polygon fill="#63b8ff" stroke="#63b8ff" points="772.56,-1015.72 783.05,-1017.17 775.75,-1009.49 772.56,-1015.72"/>
</a>
</g>
</g>
<!-- Node66 -->
<g id="Node000066" class="node">
<title>Node66</title>
<g id="a_Node000066"><a xlink:href="classUnit.html#af78e86c9eb39c7ea4c69ff91267aac80" target="_top" xlink:title=" ">
<polygon fill="#fff0f0" stroke="red" points="922.5,-995 784.5,-995 784.5,-976 922.5,-976 922.5,-995"/>
<text text-anchor="middle" x="853.5" y="-983" font-family="Helvetica,sans-Serif" font-size="10.00">Unit::setBaseAttackTime</text>
</a>
</g>
</g>
<!-- Node13&#45;&gt;Node66 -->
<g id="edge49_Node000013_Node000066" class="edge">
<title>Node13&#45;&gt;Node66</title>
<g id="a_edge49_Node000013_Node000066"><a xlink:title=" ">
<path fill="none" stroke="#63b8ff" d="M643.48,-697.09C648.14,-737.28 671.75,-893.49 763,-967.5 766.63,-970.44 770.61,-972.95 774.81,-975.08"/>
<polygon fill="#63b8ff" stroke="#63b8ff" points="773.75,-978.43 784.32,-979.15 776.51,-971.99 773.75,-978.43"/>
</a>
</g>
</g>
<!-- Node26&#45;&gt;Node27 -->
<g id="edge19_Node000026_Node000027" class="edge">
<title>Node26&#45;&gt;Node27</title>
<g id="a_edge19_Node000026_Node000027"><a xlink:title=" ">
<path fill="none" stroke="#63b8ff" d="M922.23,-768.79C937.8,-770.47 954.26,-772.24 969.53,-773.88"/>
<polygon fill="#63b8ff" stroke="#63b8ff" points="969.58,-777.41 979.9,-775 970.33,-770.45 969.58,-777.41"/>
</a>
</g>
</g>
</g>
</svg>
