<?xml version="1.0" encoding="UTF-8" standalone="no"?>
<!DOCTYPE svg PUBLIC "-//W3C//DTD SVG 1.1//EN"
 "http://www.w3.org/Graphics/SVG/1.1/DTD/svg11.dtd">
<!-- Generated by graphviz version 2.43.0 (0)
 -->
<!-- Title: Object::getNearPoint2D Pages: 1 -->
<svg width="1577pt" height="1195pt"
 viewBox="0.00 0.00 1577.00 1195.46" xmlns="http://www.w3.org/2000/svg" xmlns:xlink="http://www.w3.org/1999/xlink">
<g id="graph0" class="graph" transform="scale(1 1) rotate(0) translate(4 1191.46)">
<title>Object::getNearPoint2D</title>
<!-- Node1 -->
<g id="Node000001" class="node">
<title>Node1</title>
<g id="a_Node000001"><a xlink:title=" ">
<polygon fill="#999999" stroke="#666666" points="1569,-643.96 1438,-643.96 1438,-624.96 1569,-624.96 1569,-643.96"/>
<text text-anchor="middle" x="1503.5" y="-631.96" font-family="Helvetica,sans-Serif" font-size="10.00">Object::getNearPoint2D</text>
</a>
</g>
</g>
<!-- Node2 -->
<g id="Node000002" class="node">
<title>Node2</title>
<g id="a_Node000002"><a xlink:href="classObject.html#aad0c31e350590c8a997a7373c5b2eb2d" target="_top" xlink:title=" ">
<polygon fill="white" stroke="#666666" points="1370.5,-680.96 1252.5,-680.96 1252.5,-661.96 1370.5,-661.96 1370.5,-680.96"/>
<text text-anchor="middle" x="1311.5" y="-668.96" font-family="Helvetica,sans-Serif" font-size="10.00">Object::getNearPoint</text>
</a>
</g>
</g>
<!-- Node1&#45;&gt;Node2 -->
<g id="edge1_Node000001_Node000002" class="edge">
<title>Node1&#45;&gt;Node2</title>
<g id="a_edge1_Node000001_Node000002"><a xlink:title=" ">
<path fill="none" stroke="#63b8ff" d="M1443.71,-645.91C1417.38,-651.04 1386.68,-657.02 1361.59,-661.9"/>
<polygon fill="#63b8ff" stroke="#63b8ff" points="1444.42,-649.34 1453.57,-643.99 1443.09,-642.47 1444.42,-649.34"/>
</a>
</g>
</g>
<!-- Node1607 -->
<g id="Node001607" class="node">
<title>Node1607</title>
<g id="a_Node001607"><a xlink:href="classMovementManager.html#a02b7ae579940184ba6ee063887b494de" target="_top" xlink:title=" ">
<polygon fill="white" stroke="#666666" points="1402,-625.96 1221,-625.96 1221,-606.96 1402,-606.96 1402,-625.96"/>
<text text-anchor="middle" x="1311.5" y="-613.96" font-family="Helvetica,sans-Serif" font-size="10.00">MovementManager::moveJumpTo</text>
</a>
</g>
</g>
<!-- Node1&#45;&gt;Node1607 -->
<g id="edge53_Node000001_Node001607" class="edge">
<title>Node1&#45;&gt;Node1607</title>
<g id="a_edge53_Node000001_Node001607"><a xlink:title=" ">
<path fill="none" stroke="#63b8ff" d="M1427.78,-627.39C1419.37,-626.59 1410.73,-625.77 1402.16,-624.96"/>
<polygon fill="#63b8ff" stroke="#63b8ff" points="1427.62,-630.89 1437.91,-628.35 1428.28,-623.92 1427.62,-630.89"/>
</a>
</g>
</g>
<!-- Node3 -->
<g id="Node000003" class="node">
<title>Node3</title>
<g id="a_Node000003"><a xlink:href="classObject.html#a85c580df68b7be57deb6a39fd58f53ed" target="_top" xlink:title=" ">
<polygon fill="white" stroke="#666666" points="1171.5,-680.96 1049.5,-680.96 1049.5,-661.96 1171.5,-661.96 1171.5,-680.96"/>
<text text-anchor="middle" x="1110.5" y="-668.96" font-family="Helvetica,sans-Serif" font-size="10.00">Object::getClosePoint</text>
</a>
</g>
</g>
<!-- Node2&#45;&gt;Node3 -->
<g id="edge2_Node000002_Node000003" class="edge">
<title>Node2&#45;&gt;Node3</title>
<g id="a_edge2_Node000002_Node000003"><a xlink:title=" ">
<path fill="none" stroke="#63b8ff" d="M1242.4,-671.46C1219.46,-671.46 1194.03,-671.46 1171.74,-671.46"/>
<polygon fill="#63b8ff" stroke="#63b8ff" points="1242.41,-674.96 1252.41,-671.46 1242.41,-667.96 1242.41,-674.96"/>
</a>
</g>
</g>
<!-- Node1606 -->
<g id="Node001606" class="node">
<title>Node1606</title>
<g id="a_Node001606"><a xlink:href="classUnit.html#a9b71f8104b87d10d4c38240e7dce45c3" target="_top" xlink:title=" ">
<polygon fill="white" stroke="#666666" points="1149.5,-643.96 1071.5,-643.96 1071.5,-624.96 1149.5,-624.96 1149.5,-643.96"/>
<text text-anchor="middle" x="1110.5" y="-631.96" font-family="Helvetica,sans-Serif" font-size="10.00">Unit::jumpTo</text>
</a>
</g>
</g>
<!-- Node2&#45;&gt;Node1606 -->
<g id="edge50_Node000002_Node001606" class="edge">
<title>Node2&#45;&gt;Node1606</title>
<g id="a_edge50_Node000002_Node001606"><a xlink:title=" ">
<path fill="none" stroke="#63b8ff" d="M1249.39,-660.1C1216.87,-654.06 1177.89,-646.81 1149.69,-641.56"/>
<polygon fill="#63b8ff" stroke="#63b8ff" points="1248.78,-663.55 1259.25,-661.94 1250.06,-656.67 1248.78,-663.55"/>
</a>
</g>
</g>
<!-- Node1093 -->
<g id="Node001093" class="node">
<title>Node1093</title>
<g id="a_Node001093"><a xlink:href="classChaseMovementGenerator.html#a259bde10b2125ef1971bb1fea393160d" target="_top" xlink:title=" ">
<polygon fill="white" stroke="#666666" points="1184.5,-777.46 1036.5,-777.46 1036.5,-747.46 1184.5,-747.46 1184.5,-777.46"/>
<text text-anchor="start" x="1044.5" y="-765.46" font-family="Helvetica,sans-Serif" font-size="10.00">ChaseMovementGenerator</text>
<text text-anchor="middle" x="1110.5" y="-754.46" font-family="Helvetica,sans-Serif" font-size="10.00">::update</text>
</a>
</g>
</g>
<!-- Node2&#45;&gt;Node1093 -->
<g id="edge51_Node000002_Node001093" class="edge">
<title>Node2&#45;&gt;Node1093</title>
<g id="a_edge51_Node000002_Node001093"><a xlink:title=" ">
<path fill="none" stroke="#63b8ff" d="M1285.94,-686.23C1261.09,-700.78 1221.26,-723 1185,-738.46 1177.59,-741.62 1169.62,-744.62 1161.75,-747.36"/>
<polygon fill="#63b8ff" stroke="#63b8ff" points="1287.87,-689.16 1294.7,-681.06 1284.31,-683.13 1287.87,-689.16"/>
</a>
</g>
</g>
<!-- Node1094 -->
<g id="Node001094" class="node">
<title>Node1094</title>
<g id="a_Node001094"><a xlink:href="classFollowMovementGenerator.html#a7a68f1e248698985ab18ef560bb492a7" target="_top" xlink:title=" ">
<polygon fill="white" stroke="#666666" points="1185,-729.46 1036,-729.46 1036,-699.46 1185,-699.46 1185,-729.46"/>
<text text-anchor="start" x="1044" y="-717.46" font-family="Helvetica,sans-Serif" font-size="10.00">FollowMovementGenerator</text>
<text text-anchor="middle" x="1110.5" y="-706.46" font-family="Helvetica,sans-Serif" font-size="10.00">::update</text>
</a>
</g>
</g>
<!-- Node2&#45;&gt;Node1094 -->
<g id="edge52_Node000002_Node001094" class="edge">
<title>Node2&#45;&gt;Node1094</title>
<g id="a_edge52_Node000002_Node001094"><a xlink:title=" ">
<path fill="none" stroke="#63b8ff" d="M1256.32,-683.17C1233.08,-688.19 1205.65,-694.12 1180.95,-699.46"/>
<polygon fill="#63b8ff" stroke="#63b8ff" points="1257.3,-686.54 1266.34,-681.01 1255.82,-679.7 1257.3,-686.54"/>
</a>
</g>
</g>
<!-- Node4 -->
<g id="Node000004" class="node">
<title>Node4</title>
<g id="a_Node000004"><a xlink:href="classSpell.html#ac88ced9955cd63bd45c19c549a0edcbb" target="_top" xlink:title=" ">
<polygon fill="white" stroke="#666666" points="954,-639.96 867,-639.96 867,-620.96 954,-620.96 954,-639.96"/>
<text text-anchor="middle" x="910.5" y="-627.96" font-family="Helvetica,sans-Serif" font-size="10.00">Spell::CanCast</text>
</a>
</g>
</g>
<!-- Node3&#45;&gt;Node4 -->
<g id="edge3_Node000003_Node000004" class="edge">
<title>Node3&#45;&gt;Node4</title>
<g id="a_edge3_Node000003_Node000004"><a xlink:title=" ">
<path fill="none" stroke="#63b8ff" d="M1053.61,-659.89C1022.04,-653.36 983.22,-645.32 954.13,-639.29"/>
<polygon fill="#63b8ff" stroke="#63b8ff" points="1053.08,-663.36 1063.58,-661.96 1054.49,-656.5 1053.08,-663.36"/>
</a>
</g>
</g>
<!-- Node528 -->
<g id="Node000528" class="node">
<title>Node528</title>
<g id="a_Node000528"><a xlink:href="classSpell.html#a8aaed0bbed85fd315bf8bfb1ac270292" target="_top" xlink:title=" ">
<polygon fill="white" stroke="#666666" points="981.5,-736.46 839.5,-736.46 839.5,-706.46 981.5,-706.46 981.5,-736.46"/>
<text text-anchor="start" x="847.5" y="-724.46" font-family="Helvetica,sans-Serif" font-size="10.00">Spell::SpellEffectSummon</text>
<text text-anchor="middle" x="910.5" y="-713.46" font-family="Helvetica,sans-Serif" font-size="10.00">Object</text>
</a>
</g>
</g>
<!-- Node3&#45;&gt;Node528 -->
<g id="edge48_Node000003_Node000528" class="edge">
<title>Node3&#45;&gt;Node528</title>
<g id="a_edge48_Node000003_Node000528"><a xlink:title=" ">
<path fill="none" stroke="#63b8ff" d="M1061.74,-683.52C1034.55,-690.39 1000.23,-699.06 971.26,-706.37"/>
<polygon fill="#63b8ff" stroke="#63b8ff" points="1062.95,-686.83 1071.79,-680.99 1061.24,-680.04 1062.95,-686.83"/>
</a>
</g>
</g>
<!-- Node529 -->
<g id="Node000529" class="node">
<title>Node529</title>
<g id="a_Node000529"><a xlink:href="classSpell.html#a83ce8df2a915d748660bcab9ed980183" target="_top" xlink:title=" ">
<polygon fill="white" stroke="#666666" points="981.5,-688.46 839.5,-688.46 839.5,-658.46 981.5,-658.46 981.5,-688.46"/>
<text text-anchor="start" x="847.5" y="-676.46" font-family="Helvetica,sans-Serif" font-size="10.00">Spell::SpellEffectSummon</text>
<text text-anchor="middle" x="910.5" y="-665.46" font-family="Helvetica,sans-Serif" font-size="10.00">ObjectWild</text>
</a>
</g>
</g>
<!-- Node3&#45;&gt;Node529 -->
<g id="edge49_Node000003_Node000529" class="edge">
<title>Node3&#45;&gt;Node529</title>
<g id="a_edge49_Node000003_Node000529"><a xlink:title=" ">
<path fill="none" stroke="#63b8ff" d="M1039.07,-672.18C1020.37,-672.37 1000.18,-672.57 981.5,-672.76"/>
<polygon fill="#63b8ff" stroke="#63b8ff" points="1039.32,-675.67 1049.29,-672.07 1039.25,-668.67 1039.32,-675.67"/>
</a>
</g>
</g>
<!-- Node5 -->
<g id="Node000005" class="node">
<title>Node5</title>
<g id="a_Node000005"><a xlink:href="classSpell.html#a5ac3f03ad111236f1244f18b81b793ce" target="_top" xlink:title=" ">
<polygon fill="white" stroke="#666666" points="785,-639.96 699,-639.96 699,-620.96 785,-620.96 785,-639.96"/>
<text text-anchor="middle" x="742" y="-627.96" font-family="Helvetica,sans-Serif" font-size="10.00">Spell::canCast</text>
</a>
</g>
</g>
<!-- Node4&#45;&gt;Node5 -->
<g id="edge4_Node000004_Node000005" class="edge">
<title>Node4&#45;&gt;Node5</title>
<g id="a_edge4_Node000004_Node000005"><a xlink:title=" ">
<path fill="none" stroke="#63b8ff" d="M856.33,-630.46C833.32,-630.46 806.77,-630.46 785.16,-630.46"/>
<polygon fill="#63b8ff" stroke="#63b8ff" points="856.62,-633.96 866.62,-630.46 856.62,-626.96 856.62,-633.96"/>
</a>
</g>
</g>
<!-- Node6 -->
<g id="Node000006" class="node">
<title>Node6</title>
<g id="a_Node000006"><a xlink:href="classFireNova.html#a9953c778aa4afa7ed5f7db8e38818ec0" target="_top" xlink:title=" ">
<polygon fill="white" stroke="#666666" points="648.5,-732.96 543.5,-732.96 543.5,-713.96 648.5,-713.96 648.5,-732.96"/>
<text text-anchor="middle" x="596" y="-720.96" font-family="Helvetica,sans-Serif" font-size="10.00">FireNova::canCast</text>
</a>
</g>
</g>
<!-- Node5&#45;&gt;Node6 -->
<g id="edge5_Node000005_Node000006" class="edge">
<title>Node5&#45;&gt;Node6</title>
<g id="a_edge5_Node000005_Node000006"><a xlink:title=" ">
<path fill="none" stroke="#63b8ff" d="M727.15,-648.18C712.85,-665.29 689.02,-690.7 663,-705.46 657.01,-708.86 650.34,-711.65 643.62,-713.92"/>
<polygon fill="#63b8ff" stroke="#63b8ff" points="730.13,-650.06 733.71,-640.1 724.69,-645.65 730.13,-650.06"/>
</a>
</g>
</g>
<!-- Node7 -->
<g id="Node000007" class="node">
<title>Node7</title>
<g id="a_Node000007"><a xlink:href="classDeathCoilSpell.html#af5a80d6a4b08ab3d3040aa05732de7ec" target="_top" xlink:title=" ">
<polygon fill="white" stroke="#666666" points="663,-695.96 529,-695.96 529,-676.96 663,-676.96 663,-695.96"/>
<text text-anchor="middle" x="596" y="-683.96" font-family="Helvetica,sans-Serif" font-size="10.00">DeathCoilSpell::canCast</text>
</a>
</g>
</g>
<!-- Node5&#45;&gt;Node7 -->
<g id="edge6_Node000005_Node000007" class="edge">
<title>Node5&#45;&gt;Node7</title>
<g id="a_edge6_Node000005_Node000007"><a xlink:title=" ">
<path fill="none" stroke="#63b8ff" d="M714.65,-644.83C699.79,-652.55 680.69,-661.81 663,-668.46 654.66,-671.6 645.55,-674.44 636.82,-676.9"/>
<polygon fill="#63b8ff" stroke="#63b8ff" points="716.55,-647.79 723.76,-640.03 713.28,-641.6 716.55,-647.79"/>
</a>
</g>
</g>
<!-- Node8 -->
<g id="Node000008" class="node">
<title>Node8</title>
<g id="a_Node000008"><a xlink:href="classLuaSpell.html#a0a9dc8bc28008349b08bce5e1f212fb9" target="_top" xlink:title=" ">
<polygon fill="white" stroke="#666666" points="648,-658.96 544,-658.96 544,-639.96 648,-639.96 648,-658.96"/>
<text text-anchor="middle" x="596" y="-646.96" font-family="Helvetica,sans-Serif" font-size="10.00">LuaSpell::CanCast</text>
</a>
</g>
</g>
<!-- Node5&#45;&gt;Node8 -->
<g id="edge7_Node000005_Node000008" class="edge">
<title>Node5&#45;&gt;Node8</title>
<g id="a_edge7_Node000005_Node000008"><a xlink:title=" ">
<path fill="none" stroke="#63b8ff" d="M688.99,-637.33C675.65,-639.09 661.31,-640.98 648.02,-642.73"/>
<polygon fill="#63b8ff" stroke="#63b8ff" points="689.51,-640.79 698.96,-636.01 688.59,-633.85 689.51,-640.79"/>
</a>
</g>
</g>
<!-- Node9 -->
<g id="Node000009" class="node">
<title>Node9</title>
<g id="a_Node000009"><a xlink:href="classSpell.html#a6bf009e2f4ca2546d9c0932a973d8c3c" target="_top" xlink:title=" ">
<polygon fill="white" stroke="#666666" points="637,-415.96 555,-415.96 555,-396.96 637,-396.96 637,-415.96"/>
<text text-anchor="middle" x="596" y="-403.96" font-family="Helvetica,sans-Serif" font-size="10.00">Spell::castMe</text>
</a>
</g>
</g>
<!-- Node5&#45;&gt;Node9 -->
<g id="edge8_Node000005_Node000009" class="edge">
<title>Node5&#45;&gt;Node9</title>
<g id="a_edge8_Node000005_Node000009"><a xlink:title=" ">
<path fill="none" stroke="#63b8ff" d="M729.34,-612.32C700.24,-567.05 625.19,-450.32 603.16,-416.05"/>
<polygon fill="#63b8ff" stroke="#63b8ff" points="726.46,-614.32 734.81,-620.84 732.35,-610.54 726.46,-614.32"/>
</a>
</g>
</g>
<!-- Node11 -->
<g id="Node000011" class="node">
<title>Node11</title>
<g id="a_Node000011"><a xlink:href="classSpell.html#a74470d225650378f32b2c915e27adee2" target="_top" xlink:title=" ">
<polygon fill="#fff0f0" stroke="red" points="492,-582.96 408,-582.96 408,-563.96 492,-563.96 492,-582.96"/>
<text text-anchor="middle" x="450" y="-570.96" font-family="Helvetica,sans-Serif" font-size="10.00">Spell::prepare</text>
</a>
</g>
</g>
<!-- Node5&#45;&gt;Node11 -->
<g id="edge47_Node000005_Node000011" class="edge">
<title>Node5&#45;&gt;Node11</title>
<g id="a_edge47_Node000005_Node000011"><a xlink:title=" ">
<path fill="none" stroke="#63b8ff" d="M713.18,-616.39C698.6,-609.61 680.22,-601.98 663,-597.46 604.96,-582.24 535.48,-576.68 492.28,-574.64"/>
<polygon fill="#63b8ff" stroke="#63b8ff" points="712.09,-619.74 722.62,-620.9 715.11,-613.43 712.09,-619.74"/>
</a>
</g>
</g>
<!-- Node96 -->
<g id="Node000096" class="node">
<title>Node96</title>
<g id="a_Node000096"><a xlink:href="classWorldSession.html#ace40e3581bd5883753d921dc760140f9" target="_top" xlink:title=" ">
<polygon fill="white" stroke="#666666" points="361.5,-1187.46 207.5,-1187.46 207.5,-1157.46 361.5,-1157.46 361.5,-1187.46"/>
<text text-anchor="start" x="215.5" y="-1175.46" font-family="Helvetica,sans-Serif" font-size="10.00">WorldSession::handleAccept</text>
<text text-anchor="middle" x="284.5" y="-1164.46" font-family="Helvetica,sans-Serif" font-size="10.00">Trade</text>
</a>
</g>
</g>
<!-- Node5&#45;&gt;Node96 -->
<g id="edge46_Node000005_Node000096" class="edge">
<title>Node5&#45;&gt;Node96</title>
<g id="a_edge46_Node000005_Node000096"><a xlink:title=" ">
<path fill="none" stroke="#63b8ff" d="M703.18,-618.09C657.24,-605.6 579.6,-593 529,-630.46 335.56,-773.7 543.09,-980.19 371,-1148.46 367.47,-1151.91 363.49,-1154.88 359.22,-1157.42"/>
<polygon fill="#63b8ff" stroke="#63b8ff" points="702.46,-621.53 713.04,-620.9 704.38,-614.79 702.46,-621.53"/>
</a>
</g>
</g>
<!-- Node10 -->
<g id="Node000010" class="node">
<title>Node10</title>
<g id="a_Node000010"><a xlink:href="classLuaSpell.html#a546ca0002f085c2a87d1cce1cf1a3911" target="_top" xlink:title=" ">
<polygon fill="white" stroke="#666666" points="493,-415.96 407,-415.96 407,-396.96 493,-396.96 493,-415.96"/>
<text text-anchor="middle" x="450" y="-403.96" font-family="Helvetica,sans-Serif" font-size="10.00">LuaSpell::Cast</text>
</a>
</g>
</g>
<!-- Node9&#45;&gt;Node10 -->
<g id="edge9_Node000009_Node000010" class="edge">
<title>Node9&#45;&gt;Node10</title>
<g id="a_edge9_Node000009_Node000010"><a xlink:title=" ">
<path fill="none" stroke="#63b8ff" d="M544.68,-406.46C527.85,-406.46 509.29,-406.46 493.16,-406.46"/>
<polygon fill="#63b8ff" stroke="#63b8ff" points="544.89,-409.96 554.89,-406.46 544.89,-402.96 544.89,-409.96"/>
</a>
</g>
</g>
<!-- Node9&#45;&gt;Node11 -->
<g id="edge10_Node000009_Node000011" class="edge">
<title>Node9&#45;&gt;Node11</title>
<g id="a_edge10_Node000009_Node000011"><a xlink:title=" ">
<path fill="none" stroke="#63b8ff" d="M579.53,-424.4C549.18,-459.6 482.74,-536.65 459.35,-563.78"/>
<polygon fill="#63b8ff" stroke="#63b8ff" points="582.54,-426.27 586.42,-416.41 577.24,-421.7 582.54,-426.27"/>
</a>
</g>
</g>
<!-- Node188 -->
<g id="Node000188" class="node">
<title>Node188</title>
<g id="a_Node000188"><a xlink:href="classSpell.html#a64ef6ad0bf3ad2988133d294d6f501d3" target="_top" xlink:title=" ">
<polygon fill="#fff0f0" stroke="red" points="121,-28.96 41,-28.96 41,-9.96 121,-9.96 121,-28.96"/>
<text text-anchor="middle" x="81" y="-16.96" font-family="Helvetica,sans-Serif" font-size="10.00">Spell::update</text>
</a>
</g>
</g>
<!-- Node9&#45;&gt;Node188 -->
<g id="edge45_Node000009_Node000188" class="edge">
<title>Node9&#45;&gt;Node188</title>
<g id="a_edge45_Node000009_Node000188"><a xlink:title=" ">
<path fill="none" stroke="#63b8ff" d="M593.57,-386.43C588.75,-332.43 568.87,-181.67 493,-88.46 402.33,22.92 205.16,3.06 121.17,-11.49"/>
<polygon fill="#63b8ff" stroke="#63b8ff" points="590.1,-387.01 594.4,-396.69 597.08,-386.44 590.1,-387.01"/>
</a>
</g>
</g>
<!-- Node12 -->
<g id="Node000012" class="node">
<title>Node12</title>
<g id="a_Node000012"><a xlink:href="classPlayer.html#a99bae0dc336f795307bec17491d3efe5" target="_top" xlink:title=" ">
<polygon fill="#fff0f0" stroke="red" points="358,-860.96 211,-860.96 211,-841.96 358,-841.96 358,-860.96"/>
<text text-anchor="middle" x="284.5" y="-848.96" font-family="Helvetica,sans-Serif" font-size="10.00">Player::addShapeShiftSpell</text>
</a>
</g>
</g>
<!-- Node11&#45;&gt;Node12 -->
<g id="edge11_Node000011_Node000012" class="edge">
<title>Node11&#45;&gt;Node12</title>
<g id="a_edge11_Node000011_Node000012"><a xlink:title=" ">
<path fill="none" stroke="#63b8ff" d="M415.42,-588.65C412.2,-591.21 409.29,-594.13 407,-597.46 346.96,-684.94 443.89,-756.36 371,-833.46 367.25,-837.43 362.86,-840.64 358.09,-843.22"/>
<polygon fill="#63b8ff" stroke="#63b8ff" points="417.48,-591.48 423.88,-583.03 413.61,-585.65 417.48,-591.48"/>
</a>
</g>
</g>
<!-- Node13 -->
<g id="Node000013" class="node">
<title>Node13</title>
<g id="a_Node000013"><a xlink:href="classPlayer.html#a6d6f3ea32e87efcd881ab04b6d663e19" target="_top" xlink:title=" ">
<polygon fill="#fff0f0" stroke="red" points="145.5,-879.96 16.5,-879.96 16.5,-860.96 145.5,-860.96 145.5,-879.96"/>
<text text-anchor="middle" x="81" y="-867.96" font-family="Helvetica,sans-Serif" font-size="10.00">Player::applyItemMods</text>
</a>
</g>
</g>
<!-- Node11&#45;&gt;Node13 -->
<g id="edge14_Node000011_Node000013" class="edge">
<title>Node11&#45;&gt;Node13</title>
<g id="a_edge14_Node000011_Node000013"><a xlink:title=" ">
<path fill="none" stroke="#63b8ff" d="M415.35,-588.6C412.14,-591.17 409.25,-594.11 407,-597.46 338.77,-699.06 463.02,-789.78 371,-870.46 295.74,-936.45 162.27,-899.59 107.02,-880.11"/>
<polygon fill="#63b8ff" stroke="#63b8ff" points="417.41,-591.43 423.8,-582.98 413.54,-585.61 417.41,-591.43"/>
</a>
</g>
</g>
<!-- Node1550 -->
<g id="Node001550" class="node">
<title>Node1550</title>
<g id="a_Node001550"><a xlink:href="classItem.html#aa06c704172cad05b915d64e0637f9ceb" target="_top" xlink:title=" ">
<polygon fill="#fff0f0" stroke="red" points="368,-823.96 201,-823.96 201,-804.96 368,-804.96 368,-823.96"/>
<text text-anchor="middle" x="284.5" y="-811.96" font-family="Helvetica,sans-Serif" font-size="10.00">Item::applyEnchantmentBonus</text>
</a>
</g>
</g>
<!-- Node11&#45;&gt;Node1550 -->
<g id="edge13_Node000011_Node001550" class="edge">
<title>Node11&#45;&gt;Node1550</title>
<g id="a_edge13_Node000011_Node001550"><a xlink:title=" ">
<path fill="none" stroke="#63b8ff" d="M415.51,-588.71C412.27,-591.26 409.33,-594.16 407,-597.46 355.12,-670.86 433.64,-732.01 371,-796.46 367.83,-799.73 364.23,-802.47 360.34,-804.78"/>
<polygon fill="#63b8ff" stroke="#63b8ff" points="417.57,-591.54 423.99,-583.11 413.72,-585.7 417.57,-591.54"/>
</a>
</g>
</g>
<!-- Node1044 -->
<g id="Node001044" class="node">
<title>Node1044</title>
<g id="a_Node001044"><a xlink:href="classPlayer.html#aaed01b57a6bde7536367bf2bde4fae9d" target="_top" xlink:title=" ">
<polygon fill="#fff0f0" stroke="red" points="338.5,-786.96 230.5,-786.96 230.5,-767.96 338.5,-767.96 338.5,-786.96"/>
<text text-anchor="middle" x="284.5" y="-774.96" font-family="Helvetica,sans-Serif" font-size="10.00">Player::buildRepop</text>
</a>
</g>
</g>
<!-- Node11&#45;&gt;Node1044 -->
<g id="edge15_Node000011_Node001044" class="edge">
<title>Node11&#45;&gt;Node1044</title>
<g id="a_edge15_Node000011_Node001044"><a xlink:title=" ">
<path fill="none" stroke="#63b8ff" d="M416.15,-588.41C412.69,-591.04 409.52,-594.04 407,-597.46 363.24,-656.84 423.44,-707.6 371,-759.46 362.37,-768 350.79,-772.96 338.93,-775.74"/>
<polygon fill="#63b8ff" stroke="#63b8ff" points="418.07,-591.34 424.58,-582.98 414.28,-585.45 418.07,-591.34"/>
</a>
</g>
</g>
<!-- Node1567 -->
<g id="Node001567" class="node">
<title>Node1567</title>
<g id="a_Node001567"><a xlink:href="classLuaGameObject.html#a42e881c41e53a6087d5c23cf3374357a" target="_top" xlink:title=" ">
<polygon fill="white" stroke="#666666" points="357.5,-749.96 211.5,-749.96 211.5,-730.96 357.5,-730.96 357.5,-749.96"/>
<text text-anchor="middle" x="284.5" y="-737.96" font-family="Helvetica,sans-Serif" font-size="10.00">LuaGameObject::CastSpell</text>
</a>
</g>
</g>
<!-- Node11&#45;&gt;Node1567 -->
<g id="edge16_Node000011_Node001567" class="edge">
<title>Node11&#45;&gt;Node1567</title>
<g id="a_edge16_Node000011_Node001567"><a xlink:title=" ">
<path fill="none" stroke="#63b8ff" d="M416.35,-588.57C412.86,-591.16 409.63,-594.12 407,-597.46 371.28,-642.92 413.34,-683.1 371,-722.46 367,-726.18 362.43,-729.21 357.54,-731.67"/>
<polygon fill="#63b8ff" stroke="#63b8ff" points="418.27,-591.49 424.81,-583.16 414.5,-585.59 418.27,-591.49"/>
</a>
</g>
</g>
<!-- Node1568 -->
<g id="Node001568" class="node">
<title>Node1568</title>
<g id="a_Node001568"><a xlink:href="classUnit.html#ade53b5eeb7729600570ea1a349a68b09" target="_top" xlink:title=" ">
<polygon fill="white" stroke="#666666" points="328,-712.96 241,-712.96 241,-693.96 328,-693.96 328,-712.96"/>
<text text-anchor="middle" x="284.5" y="-700.96" font-family="Helvetica,sans-Serif" font-size="10.00">Unit::castSpell</text>
</a>
</g>
</g>
<!-- Node11&#45;&gt;Node1568 -->
<g id="edge17_Node000011_Node001568" class="edge">
<title>Node11&#45;&gt;Node1568</title>
<g id="a_edge17_Node000011_Node001568"><a xlink:title=" ">
<path fill="none" stroke="#63b8ff" d="M417.48,-588.29C413.63,-590.98 410.01,-594.03 407,-597.46 379.14,-629.23 403.46,-658.4 371,-685.46 359.12,-695.37 343.13,-700.24 328.19,-702.52"/>
<polygon fill="#63b8ff" stroke="#63b8ff" points="419.4,-591.22 426.08,-583 415.73,-585.26 419.4,-591.22"/>
</a>
</g>
</g>
<!-- Node1569 -->
<g id="Node001569" class="node">
<title>Node1569</title>
<g id="a_Node001569"><a xlink:href="classGameObject.html#a8e201a5d81b86d28512bbdd42c50613c" target="_top" xlink:title=" ">
<polygon fill="#fff0f0" stroke="red" points="349,-675.96 220,-675.96 220,-656.96 349,-656.96 349,-675.96"/>
<text text-anchor="middle" x="284.5" y="-663.96" font-family="Helvetica,sans-Serif" font-size="10.00">GameObject::CastSpell</text>
</a>
</g>
</g>
<!-- Node11&#45;&gt;Node1569 -->
<g id="edge18_Node000011_Node001569" class="edge">
<title>Node11&#45;&gt;Node1569</title>
<g id="a_edge18_Node000011_Node001569"><a xlink:title=" ">
<path fill="none" stroke="#63b8ff" d="M419.29,-588.29C414.95,-591.05 410.71,-594.13 407,-597.46 386.65,-615.79 393.86,-632.4 371,-647.46 364.4,-651.82 356.95,-655.18 349.27,-657.79"/>
<polygon fill="#63b8ff" stroke="#63b8ff" points="421.31,-591.16 428.17,-583.08 417.78,-585.12 421.31,-591.16"/>
</a>
</g>
</g>
<!-- Node1576 -->
<g id="Node001576" class="node">
<title>Node1576</title>
<g id="a_Node001576"><a xlink:href="classUnit.html#a15bfc180acf201af8bd4a3a6a6b40428" target="_top" xlink:title=" ">
<polygon fill="white" stroke="#666666" points="328,-638.96 241,-638.96 241,-619.96 328,-619.96 328,-638.96"/>
<text text-anchor="middle" x="284.5" y="-626.96" font-family="Helvetica,sans-Serif" font-size="10.00">Unit::castSpell</text>
</a>
</g>
</g>
<!-- Node11&#45;&gt;Node1576 -->
<g id="edge19_Node000011_Node001576" class="edge">
<title>Node11&#45;&gt;Node1576</title>
<g id="a_edge19_Node000011_Node001576"><a xlink:title=" ">
<path fill="none" stroke="#63b8ff" d="M422.73,-587.74C407.89,-595.34 388.79,-604.36 371,-610.46 357.34,-615.16 342.04,-618.98 328.2,-621.94"/>
<polygon fill="#63b8ff" stroke="#63b8ff" points="424.57,-590.73 431.81,-583 421.33,-584.53 424.57,-590.73"/>
</a>
</g>
</g>
<!-- Node1577 -->
<g id="Node001577" class="node">
<title>Node1577</title>
<g id="a_Node001577"><a xlink:href="classAIInterface.html#a812199539251437c90b457b20ae05e3d" target="_top" xlink:title=" ">
<polygon fill="#fff0f0" stroke="red" points="344.5,-601.96 224.5,-601.96 224.5,-582.96 344.5,-582.96 344.5,-601.96"/>
<text text-anchor="middle" x="284.5" y="-589.96" font-family="Helvetica,sans-Serif" font-size="10.00">AIInterface::castSpell</text>
</a>
</g>
</g>
<!-- Node11&#45;&gt;Node1577 -->
<g id="edge20_Node000011_Node001577" class="edge">
<title>Node11&#45;&gt;Node1577</title>
<g id="a_edge20_Node000011_Node001577"><a xlink:title=" ">
<path fill="none" stroke="#63b8ff" d="M397.57,-579.44C380.77,-581.39 361.98,-583.58 344.66,-585.59"/>
<polygon fill="#63b8ff" stroke="#63b8ff" points="398.21,-582.89 407.74,-578.26 397.4,-575.94 398.21,-582.89"/>
</a>
</g>
</g>
<!-- Node1579 -->
<g id="Node001579" class="node">
<title>Node1579</title>
<g id="a_Node001579"><a xlink:href="classUnit.html#a1744ac0b3a0cdc32ffe7c197ef902d0e" target="_top" xlink:title=" ">
<polygon fill="white" stroke="#666666" points="328,-564.96 241,-564.96 241,-545.96 328,-545.96 328,-564.96"/>
<text text-anchor="middle" x="284.5" y="-552.96" font-family="Helvetica,sans-Serif" font-size="10.00">Unit::castSpell</text>
</a>
</g>
</g>
<!-- Node11&#45;&gt;Node1579 -->
<g id="edge21_Node000011_Node001579" class="edge">
<title>Node11&#45;&gt;Node1579</title>
<g id="a_edge21_Node000011_Node001579"><a xlink:title=" ">
<path fill="none" stroke="#63b8ff" d="M397.75,-567.82C375.38,-565.36 349.46,-562.51 328.17,-560.16"/>
<polygon fill="#63b8ff" stroke="#63b8ff" points="397.42,-571.31 407.74,-568.92 398.19,-564.35 397.42,-571.31"/>
</a>
</g>
</g>
<!-- Node1580 -->
<g id="Node001580" class="node">
<title>Node1580</title>
<g id="a_Node001580"><a xlink:href="classUnit.html#a52886ddfeda9780fe9195eb64c0680fc" target="_top" xlink:title=" ">
<polygon fill="white" stroke="#666666" points="328,-527.96 241,-527.96 241,-508.96 328,-508.96 328,-527.96"/>
<text text-anchor="middle" x="284.5" y="-515.96" font-family="Helvetica,sans-Serif" font-size="10.00">Unit::castSpell</text>
</a>
</g>
</g>
<!-- Node11&#45;&gt;Node1580 -->
<g id="edge22_Node000011_Node001580" class="edge">
<title>Node11&#45;&gt;Node1580</title>
<g id="a_edge22_Node000011_Node001580"><a xlink:title=" ">
<path fill="none" stroke="#63b8ff" d="M422.76,-559.11C407.92,-551.49 388.83,-542.48 371,-536.46 357.34,-531.86 342.05,-528.19 328.21,-525.4"/>
<polygon fill="#63b8ff" stroke="#63b8ff" points="421.35,-562.33 431.83,-563.87 424.61,-556.13 421.35,-562.33"/>
</a>
</g>
</g>
<!-- Node1581 -->
<g id="Node001581" class="node">
<title>Node1581</title>
<g id="a_Node001581"><a xlink:href="classSpellProc.html#a283a613e73992bfdadb9089790afe959" target="_top" xlink:title=" ">
<polygon fill="#fff0f0" stroke="red" points="340.5,-490.96 228.5,-490.96 228.5,-471.96 340.5,-471.96 340.5,-490.96"/>
<text text-anchor="middle" x="284.5" y="-478.96" font-family="Helvetica,sans-Serif" font-size="10.00">SpellProc::castSpell</text>
</a>
</g>
</g>
<!-- Node11&#45;&gt;Node1581 -->
<g id="edge23_Node000011_Node001581" class="edge">
<title>Node11&#45;&gt;Node1581</title>
<g id="a_edge23_Node000011_Node001581"><a xlink:title=" ">
<path fill="none" stroke="#63b8ff" d="M435.27,-555.66C421.08,-538.54 397.32,-513.28 371,-499.46 361.73,-494.6 351.25,-491.05 340.88,-488.46"/>
<polygon fill="#63b8ff" stroke="#63b8ff" points="432.8,-558.17 441.79,-563.77 438.26,-553.78 432.8,-558.17"/>
</a>
</g>
</g>
<!-- Node1582 -->
<g id="Node001582" class="node">
<title>Node1582</title>
<g id="a_Node001582"><a xlink:href="classEmpoweredRenewSpellProc.html#a648f64148f06efa10849ec9d28a5074a" target="_top" xlink:title=" ">
<polygon fill="white" stroke="#666666" points="360.5,-453.46 208.5,-453.46 208.5,-423.46 360.5,-423.46 360.5,-453.46"/>
<text text-anchor="start" x="216.5" y="-441.46" font-family="Helvetica,sans-Serif" font-size="10.00">EmpoweredRenewSpellProc</text>
<text text-anchor="middle" x="284.5" y="-430.46" font-family="Helvetica,sans-Serif" font-size="10.00">::castSpell</text>
</a>
</g>
</g>
<!-- Node11&#45;&gt;Node1582 -->
<g id="edge24_Node000011_Node001582" class="edge">
<title>Node11&#45;&gt;Node1582</title>
<g id="a_edge24_Node000011_Node001582"><a xlink:title=" ">
<path fill="none" stroke="#63b8ff" d="M440.78,-554.64C428.95,-529.79 404.79,-486.38 371,-462.46 366.09,-458.99 360.7,-456.02 355.07,-453.48"/>
<polygon fill="#63b8ff" stroke="#63b8ff" points="437.61,-556.13 444.96,-563.76 443.97,-553.21 437.61,-556.13"/>
</a>
</g>
</g>
<!-- Node1583 -->
<g id="Node001583" class="node">
<title>Node1583</title>
<g id="a_Node001583"><a xlink:href="classUnit.html#ad20ea03c921d0226035efca537ef07a5" target="_top" xlink:title=" ">
<polygon fill="white" stroke="#666666" points="336.5,-404.96 232.5,-404.96 232.5,-385.96 336.5,-385.96 336.5,-404.96"/>
<text text-anchor="middle" x="284.5" y="-392.96" font-family="Helvetica,sans-Serif" font-size="10.00">Unit::castSpellLoc</text>
</a>
</g>
</g>
<!-- Node11&#45;&gt;Node1583 -->
<g id="edge25_Node000011_Node001583" class="edge">
<title>Node11&#45;&gt;Node1583</title>
<g id="a_edge25_Node000011_Node001583"><a xlink:title=" ">
<path fill="none" stroke="#63b8ff" d="M445.11,-553.7C437.35,-519.7 416.59,-450.34 371,-414.46 361.2,-406.75 348.91,-402.03 336.72,-399.18"/>
<polygon fill="#63b8ff" stroke="#63b8ff" points="441.75,-554.73 447.26,-563.78 448.6,-553.27 441.75,-554.73"/>
</a>
</g>
</g>
<!-- Node1584 -->
<g id="Node001584" class="node">
<title>Node1584</title>
<g id="a_Node001584"><a xlink:href="classLuaGameObject.html#ac38d4d1cadfcfa7d4afc88406e511598" target="_top" xlink:title=" ">
<polygon fill="white" stroke="#666666" points="357.5,-367.46 211.5,-367.46 211.5,-337.46 357.5,-337.46 357.5,-367.46"/>
<text text-anchor="start" x="219.5" y="-355.46" font-family="Helvetica,sans-Serif" font-size="10.00">LuaGameObject::CastSpell</text>
<text text-anchor="middle" x="284.5" y="-344.46" font-family="Helvetica,sans-Serif" font-size="10.00">OnTarget</text>
</a>
</g>
</g>
<!-- Node11&#45;&gt;Node1584 -->
<g id="edge26_Node000011_Node001584" class="edge">
<title>Node11&#45;&gt;Node1584</title>
<g id="a_edge26_Node000011_Node001584"><a xlink:title=" ">
<path fill="none" stroke="#63b8ff" d="M443.62,-553.78C431.01,-508.97 398.51,-401.27 371,-376.46 366.99,-372.85 362.48,-369.78 357.68,-367.16"/>
<polygon fill="#63b8ff" stroke="#63b8ff" points="440.27,-554.81 446.32,-563.51 447.02,-552.93 440.27,-554.81"/>
</a>
</g>
</g>
<!-- Node349 -->
<g id="Node000349" class="node">
<title>Node349</title>
<g id="a_Node000349"><a xlink:href="classPlayer.html#ab7fb62d43cf009b997c20c384b94dd59" target="_top" xlink:title=" ">
<polygon fill="#fff0f0" stroke="red" points="353,-318.96 216,-318.96 216,-299.96 353,-299.96 353,-318.96"/>
<text text-anchor="middle" x="284.5" y="-306.96" font-family="Helvetica,sans-Serif" font-size="10.00">Player::completeLoading</text>
</a>
</g>
</g>
<!-- Node11&#45;&gt;Node349 -->
<g id="edge27_Node000011_Node000349" class="edge">
<title>Node11&#45;&gt;Node349</title>
<g id="a_edge27_Node000011_Node000349"><a xlink:title=" ">
<path fill="none" stroke="#63b8ff" d="M443.41,-554.1C427.02,-497.6 379.69,-336.41 371,-328.46 365.84,-323.75 359.77,-320.11 353.29,-317.32"/>
<polygon fill="#63b8ff" stroke="#63b8ff" points="440.11,-555.3 446.25,-563.93 446.83,-553.35 440.11,-555.3"/>
</a>
</g>
</g>
<!-- Node41 -->
<g id="Node000041" class="node">
<title>Node41</title>
<g id="a_Node000041"><a xlink:href="classPlayer.html#a4e588198d13cd4d38e557fc8c2be8900" target="_top" xlink:title=" ">
<polygon fill="#fff0f0" stroke="red" points="318.5,-281.96 250.5,-281.96 250.5,-262.96 318.5,-262.96 318.5,-281.96"/>
<text text-anchor="middle" x="284.5" y="-269.96" font-family="Helvetica,sans-Serif" font-size="10.00">Player::die</text>
</a>
</g>
</g>
<!-- Node11&#45;&gt;Node41 -->
<g id="edge28_Node000011_Node000041" class="edge">
<title>Node11&#45;&gt;Node41</title>
<g id="a_edge28_Node000011_Node000041"><a xlink:title=" ">
<path fill="none" stroke="#63b8ff" d="M443.38,-553.82C435.25,-525.34 419.78,-470.9 407,-424.46 390.63,-365.01 415.79,-332.86 371,-290.46 357.12,-277.33 336.19,-272.76 318.51,-271.51"/>
<polygon fill="#63b8ff" stroke="#63b8ff" points="440.09,-555.06 446.21,-563.71 446.82,-553.14 440.09,-555.06"/>
</a>
</g>
</g>
<!-- Node133 -->
<g id="Node000133" class="node">
<title>Node133</title>
<g id="a_Node000133"><a xlink:href="classPlayer.html#ad9640f79100e3c42ac19ed8178c93c9c" target="_top" xlink:title=" ">
<polygon fill="#fff0f0" stroke="red" points="357,-244.96 212,-244.96 212,-225.96 357,-225.96 357,-244.96"/>
<text text-anchor="middle" x="284.5" y="-232.96" font-family="Helvetica,sans-Serif" font-size="10.00">Player::eventCharmAttack</text>
</a>
</g>
</g>
<!-- Node11&#45;&gt;Node133 -->
<g id="edge29_Node000011_Node000133" class="edge">
<title>Node11&#45;&gt;Node133</title>
<g id="a_edge29_Node000011_Node000133"><a xlink:title=" ">
<path fill="none" stroke="#63b8ff" d="M443.03,-553.91C434.48,-525.54 418.5,-471.24 407,-424.46 388.45,-349.05 425.92,-308.38 371,-253.46 366.92,-249.39 362.17,-246.13 357.04,-243.53"/>
<polygon fill="#63b8ff" stroke="#63b8ff" points="439.77,-555.21 446.02,-563.76 446.47,-553.18 439.77,-555.21"/>
</a>
</g>
</g>
<!-- Node1585 -->
<g id="Node001585" class="node">
<title>Node1585</title>
<g id="a_Node001585"><a xlink:href="classPlayer.html#a9671ae02bc6c8a1d6b6d714826f418f1" target="_top" xlink:title=" ">
<polygon fill="white" stroke="#666666" points="354.5,-207.96 214.5,-207.96 214.5,-188.96 354.5,-188.96 354.5,-207.96"/>
<text text-anchor="middle" x="284.5" y="-195.96" font-family="Helvetica,sans-Serif" font-size="10.00">Player::eventSummonPet</text>
</a>
</g>
</g>
<!-- Node11&#45;&gt;Node1585 -->
<g id="edge30_Node000011_Node001585" class="edge">
<title>Node11&#45;&gt;Node1585</title>
<g id="a_edge30_Node000011_Node001585"><a xlink:title=" ">
<path fill="none" stroke="#63b8ff" d="M442.81,-553.97C433.97,-525.66 417.66,-471.44 407,-424.46 386.25,-332.97 436.13,-283.99 371,-216.46 366.37,-211.66 360.8,-207.98 354.76,-205.17"/>
<polygon fill="#63b8ff" stroke="#63b8ff" points="439.56,-555.3 445.9,-563.79 446.23,-553.2 439.56,-555.3"/>
</a>
</g>
</g>
<!-- Node1586 -->
<g id="Node001586" class="node">
<title>Node1586</title>
<g id="a_Node001586"><a xlink:href="classLuaGameObject.html#a04369de2d68c5308210fdbeee74ad803" target="_top" xlink:title=" ">
<polygon fill="white" stroke="#666666" points="366.5,-170.96 202.5,-170.96 202.5,-151.96 366.5,-151.96 366.5,-170.96"/>
<text text-anchor="middle" x="284.5" y="-158.96" font-family="Helvetica,sans-Serif" font-size="10.00">LuaGameObject::FullCastSpell</text>
</a>
</g>
</g>
<!-- Node11&#45;&gt;Node1586 -->
<g id="edge31_Node000011_Node001586" class="edge">
<title>Node11&#45;&gt;Node1586</title>
<g id="a_edge31_Node000011_Node001586"><a xlink:title=" ">
<path fill="none" stroke="#63b8ff" d="M442.64,-554C433.62,-525.74 417.06,-471.57 407,-424.46 395.51,-370.65 408.69,-219.56 371,-179.46 367.88,-176.15 364.32,-173.36 360.46,-171.03"/>
<polygon fill="#63b8ff" stroke="#63b8ff" points="439.41,-555.37 445.81,-563.81 446.07,-553.22 439.41,-555.37"/>
</a>
</g>
</g>
<!-- Node1587 -->
<g id="Node001587" class="node">
<title>Node1587</title>
<g id="a_Node001587"><a xlink:href="classLuaGameObject.html#ac8811efd9ad429e78dad67ca222e3374" target="_top" xlink:title=" ">
<polygon fill="white" stroke="#666666" points="366.5,-133.46 202.5,-133.46 202.5,-103.46 366.5,-103.46 366.5,-133.46"/>
<text text-anchor="start" x="210.5" y="-121.46" font-family="Helvetica,sans-Serif" font-size="10.00">LuaGameObject::FullCastSpell</text>
<text text-anchor="middle" x="284.5" y="-110.46" font-family="Helvetica,sans-Serif" font-size="10.00">OnTarget</text>
</a>
</g>
</g>
<!-- Node11&#45;&gt;Node1587 -->
<g id="edge32_Node000011_Node001587" class="edge">
<title>Node11&#45;&gt;Node1587</title>
<g id="a_edge32_Node000011_Node001587"><a xlink:title=" ">
<path fill="none" stroke="#63b8ff" d="M442.52,-554.03C433.35,-525.8 416.61,-471.66 407,-424.46 394.4,-362.56 412.28,-190.29 371,-142.46 368.08,-139.08 364.72,-136.15 361.07,-133.63"/>
<polygon fill="#63b8ff" stroke="#63b8ff" points="439.3,-555.42 445.74,-563.82 445.95,-553.23 439.3,-555.42"/>
</a>
</g>
</g>
<!-- Node1588 -->
<g id="Node001588" class="node">
<title>Node1588</title>
<g id="a_Node001588"><a xlink:href="MiscSpells_8cpp.html#a0e7b171421af44c095c56b9b94248539" target="_top" xlink:title=" ">
<polygon fill="#fff0f0" stroke="red" points="316,-84.96 253,-84.96 253,-65.96 316,-65.96 316,-84.96"/>
<text text-anchor="middle" x="284.5" y="-72.96" font-family="Helvetica,sans-Serif" font-size="10.00">GiftOfLife</text>
</a>
</g>
</g>
<!-- Node11&#45;&gt;Node1588 -->
<g id="edge33_Node000011_Node001588" class="edge">
<title>Node11&#45;&gt;Node1588</title>
<g id="a_edge33_Node000011_Node001588"><a xlink:title=" ">
<path fill="none" stroke="#63b8ff" d="M442.41,-554.05C433.09,-525.85 416.18,-471.75 407,-424.46 392.94,-352.05 420.22,-149.42 371,-94.46 357.51,-79.4 334.96,-74.86 316.4,-73.98"/>
<polygon fill="#63b8ff" stroke="#63b8ff" points="439.19,-555.46 445.68,-563.84 445.83,-553.24 439.19,-555.46"/>
</a>
</g>
</g>
<!-- Node11&#45;&gt;Node96 -->
<g id="edge34_Node000011_Node000096" class="edge">
<title>Node11&#45;&gt;Node96</title>
<g id="a_edge34_Node000011_Node000096"><a xlink:title=" ">
<path fill="none" stroke="#63b8ff" d="M414.65,-588.86C411.68,-591.35 409.03,-594.21 407,-597.46 341.98,-701.53 448.27,-1053.14 371,-1148.46 368.28,-1151.82 365.13,-1154.73 361.69,-1157.24"/>
<polygon fill="#63b8ff" stroke="#63b8ff" points="416.84,-591.6 423.1,-583.06 412.87,-585.83 416.84,-591.6"/>
</a>
</g>
</g>
<!-- Node187 -->
<g id="Node000187" class="node">
<title>Node187</title>
<g id="a_Node000187"><a xlink:href="classSpell.html#a666a4800c3a7f743798f538561d1a7d1" target="_top" xlink:title=" ">
<polygon fill="white" stroke="#666666" points="345.5,-47.96 223.5,-47.96 223.5,-28.96 345.5,-28.96 345.5,-47.96"/>
<text text-anchor="middle" x="284.5" y="-35.96" font-family="Helvetica,sans-Serif" font-size="10.00">Spell::HandleAddAura</text>
</a>
</g>
</g>
<!-- Node11&#45;&gt;Node187 -->
<g id="edge36_Node000011_Node000187" class="edge">
<title>Node11&#45;&gt;Node187</title>
<g id="a_edge36_Node000011_Node000187"><a xlink:title=" ">
<path fill="none" stroke="#63b8ff" d="M442.34,-554.07C432.93,-525.88 415.91,-471.8 407,-424.46 391.79,-343.72 425.82,-117.67 371,-56.46 364.32,-49.01 355.4,-44.2 345.84,-41.17"/>
<polygon fill="#63b8ff" stroke="#63b8ff" points="439.12,-555.49 445.64,-563.84 445.76,-553.25 439.12,-555.49"/>
</a>
</g>
</g>
<!-- Node1589 -->
<g id="Node001589" class="node">
<title>Node1589</title>
<g id="a_Node001589"><a xlink:href="classChatCommandHandler.html#ac24f2e27e050ac7bdc36d243034e90cf" target="_top" xlink:title=" ">
<polygon fill="#fff0f0" stroke="red" points="371,-1091.46 198,-1091.46 198,-1061.46 371,-1061.46 371,-1091.46"/>
<text text-anchor="start" x="206" y="-1079.46" font-family="Helvetica,sans-Serif" font-size="10.00">ChatCommandHandler</text>
<text text-anchor="middle" x="284.5" y="-1068.46" font-family="Helvetica,sans-Serif" font-size="10.00">::HandleAdminCastAllCommand</text>
</a>
</g>
</g>
<!-- Node11&#45;&gt;Node1589 -->
<g id="edge39_Node000011_Node001589" class="edge">
<title>Node11&#45;&gt;Node1589</title>
<g id="a_edge39_Node000011_Node001589"><a xlink:title=" ">
<path fill="none" stroke="#63b8ff" d="M414.7,-588.88C411.71,-591.38 409.06,-594.22 407,-597.46 352.67,-683.11 435.41,-974.11 371,-1052.46 368.26,-1055.8 365.09,-1058.69 361.63,-1061.2"/>
<polygon fill="#63b8ff" stroke="#63b8ff" points="416.88,-591.63 423.15,-583.09 412.93,-585.86 416.88,-591.63"/>
</a>
</g>
</g>
<!-- Node1590 -->
<g id="Node001590" class="node">
<title>Node1590</title>
<g id="a_Node001590"><a xlink:href="classAIInterface.html#ab05a0fd6c6b029f9efefa0db9be662ff" target="_top" xlink:title=" ">
<polygon fill="#fff0f0" stroke="red" points="353,-1043.46 216,-1043.46 216,-1013.46 353,-1013.46 353,-1043.46"/>
<text text-anchor="start" x="224" y="-1031.46" font-family="Helvetica,sans-Serif" font-size="10.00">AIInterface::handleAgent</text>
<text text-anchor="middle" x="284.5" y="-1020.46" font-family="Helvetica,sans-Serif" font-size="10.00">Ranged</text>
</a>
</g>
</g>
<!-- Node11&#45;&gt;Node1590 -->
<g id="edge40_Node000011_Node001590" class="edge">
<title>Node11&#45;&gt;Node1590</title>
<g id="a_edge40_Node000011_Node001590"><a xlink:title=" ">
<path fill="none" stroke="#63b8ff" d="M414.73,-588.9C411.74,-591.39 409.07,-594.23 407,-597.46 358.01,-673.91 428.98,-934.59 371,-1004.46 366.18,-1010.28 360.07,-1014.75 353.34,-1018.17"/>
<polygon fill="#63b8ff" stroke="#63b8ff" points="416.91,-591.65 423.19,-583.11 412.96,-585.87 416.91,-591.65"/>
</a>
</g>
</g>
<!-- Node1591 -->
<g id="Node001591" class="node">
<title>Node1591</title>
<g id="a_Node001591"><a xlink:href="classChatCommandHandler.html#ad0a5182ae9f4a3a06baaf91f8d6f0dd4" target="_top" xlink:title=" ">
<polygon fill="#fff0f0" stroke="red" points="358.5,-995.46 210.5,-995.46 210.5,-965.46 358.5,-965.46 358.5,-995.46"/>
<text text-anchor="start" x="218.5" y="-983.46" font-family="Helvetica,sans-Serif" font-size="10.00">ChatCommandHandler</text>
<text text-anchor="middle" x="284.5" y="-972.46" font-family="Helvetica,sans-Serif" font-size="10.00">::HandleCastSelfCommand</text>
</a>
</g>
</g>
<!-- Node11&#45;&gt;Node1591 -->
<g id="edge41_Node000011_Node001591" class="edge">
<title>Node11&#45;&gt;Node1591</title>
<g id="a_edge41_Node000011_Node001591"><a xlink:title=" ">
<path fill="none" stroke="#63b8ff" d="M414.77,-588.93C411.77,-591.41 409.09,-594.25 407,-597.46 363.34,-664.71 422.56,-895.07 371,-956.46 367.53,-960.6 363.41,-964.05 358.88,-966.93"/>
<polygon fill="#63b8ff" stroke="#63b8ff" points="416.95,-591.67 423.24,-583.14 413.01,-585.89 416.95,-591.67"/>
</a>
</g>
</g>
<!-- Node1592 -->
<g id="Node001592" class="node">
<title>Node1592</title>
<g id="a_Node001592"><a xlink:href="classChatCommandHandler.html#ace37901ac9bc1c04e3948c46890f8148" target="_top" xlink:title=" ">
<polygon fill="#fff0f0" stroke="red" points="361,-947.46 208,-947.46 208,-917.46 361,-917.46 361,-947.46"/>
<text text-anchor="start" x="216" y="-935.46" font-family="Helvetica,sans-Serif" font-size="10.00">ChatCommandHandler</text>
<text text-anchor="middle" x="284.5" y="-924.46" font-family="Helvetica,sans-Serif" font-size="10.00">::HandleCastSpellCommand</text>
</a>
</g>
</g>
<!-- Node11&#45;&gt;Node1592 -->
<g id="edge42_Node000011_Node001592" class="edge">
<title>Node11&#45;&gt;Node1592</title>
<g id="a_edge42_Node000011_Node001592"><a xlink:title=" ">
<path fill="none" stroke="#63b8ff" d="M414.82,-588.96C411.82,-591.44 409.12,-594.26 407,-597.46 331.45,-711.68 457.15,-797.02 371,-903.46 366.46,-909.07 360.8,-913.6 354.55,-917.25"/>
<polygon fill="#63b8ff" stroke="#63b8ff" points="417.01,-591.71 423.31,-583.19 413.07,-585.92 417.01,-591.71"/>
</a>
</g>
</g>
<!-- Node800 -->
<g id="Node000800" class="node">
<title>Node800</title>
<g id="a_Node000800"><a xlink:href="classWorldSession.html#a20d6f6d1af71b953ca6514c608b47542" target="_top" xlink:title=" ">
<polygon fill="white" stroke="#666666" points="356,-1139.46 213,-1139.46 213,-1109.46 356,-1109.46 356,-1139.46"/>
<text text-anchor="start" x="221" y="-1127.46" font-family="Helvetica,sans-Serif" font-size="10.00">WorldSession::handleCast</text>
<text text-anchor="middle" x="284.5" y="-1116.46" font-family="Helvetica,sans-Serif" font-size="10.00">SpellOpcode</text>
</a>
</g>
</g>
<!-- Node11&#45;&gt;Node800 -->
<g id="edge43_Node000011_Node000800" class="edge">
<title>Node11&#45;&gt;Node800</title>
<g id="a_edge43_Node000011_Node000800"><a xlink:title=" ">
<path fill="none" stroke="#63b8ff" d="M414.67,-588.87C411.69,-591.36 409.04,-594.22 407,-597.46 347.33,-692.32 441.84,-1013.63 371,-1100.46 366.91,-1105.48 361.86,-1109.5 356.27,-1112.71"/>
<polygon fill="#63b8ff" stroke="#63b8ff" points="416.86,-591.61 423.12,-583.07 412.9,-585.84 416.86,-591.61"/>
</a>
</g>
</g>
<!-- Node12&#45;&gt;Node13 -->
<g id="edge12_Node000012_Node000013" class="edge">
<title>Node12&#45;&gt;Node13</title>
<g id="a_edge12_Node000012_Node000013"><a xlink:title=" ">
<path fill="none" stroke="#63b8ff" d="M200.65,-859.28C182.28,-861.01 163.09,-862.82 145.63,-864.46"/>
<polygon fill="#63b8ff" stroke="#63b8ff" points="201.13,-862.75 210.75,-858.32 200.47,-855.78 201.13,-862.75"/>
</a>
</g>
</g>
<!-- Node44 -->
<g id="Node000044" class="node">
<title>Node44</title>
<g id="a_Node000044"><a xlink:href="classWorldSession.html#a213cc2e7e497e0cddfde0a1460e4acd0" target="_top" xlink:title=" ">
<polygon fill="#fff0f0" stroke="red" points="162,-1163.46 0,-1163.46 0,-1133.46 162,-1133.46 162,-1163.46"/>
<text text-anchor="start" x="8" y="-1151.46" font-family="Helvetica,sans-Serif" font-size="10.00">WorldSession::registerOpcode</text>
<text text-anchor="middle" x="81" y="-1140.46" font-family="Helvetica,sans-Serif" font-size="10.00">Handler</text>
</a>
</g>
</g>
<!-- Node96&#45;&gt;Node44 -->
<g id="edge35_Node000096_Node000044" class="edge">
<title>Node96&#45;&gt;Node44</title>
<g id="a_edge35_Node000096_Node000044"><a xlink:title=" ">
<path fill="none" stroke="#63b8ff" d="M197.22,-1162.19C185.64,-1160.81 173.79,-1159.4 162.32,-1158.03"/>
<polygon fill="#63b8ff" stroke="#63b8ff" points="196.98,-1165.68 207.32,-1163.39 197.81,-1158.73 196.98,-1165.68"/>
</a>
</g>
</g>
<!-- Node187&#45;&gt;Node9 -->
<g id="edge37_Node000187_Node000009" class="edge">
<title>Node187&#45;&gt;Node9</title>
<g id="a_edge37_Node000187_Node000009"><a xlink:title=" ">
<path fill="none" stroke="#63b8ff" d="M355.4,-48.19C360.92,-50.43 366.2,-53.15 371,-56.46 504.85,-148.92 576.7,-350.07 591.92,-396.68"/>
<polygon fill="#63b8ff" stroke="#63b8ff" points="356.54,-44.88 345.94,-44.87 354.22,-51.48 356.54,-44.88"/>
</a>
</g>
</g>
<!-- Node187&#45;&gt;Node188 -->
<g id="edge38_Node000187_Node000188" class="edge">
<title>Node187&#45;&gt;Node188</title>
<g id="a_edge38_Node000187_Node000188"><a xlink:title=" ">
<path fill="none" stroke="#63b8ff" d="M213.05,-31.82C182.25,-28.92 147.28,-25.62 121.21,-23.16"/>
<polygon fill="#63b8ff" stroke="#63b8ff" points="213.03,-35.34 223.32,-32.79 213.69,-28.37 213.03,-35.34"/>
</a>
</g>
</g>
<!-- Node800&#45;&gt;Node44 -->
<g id="edge44_Node000800_Node000044" class="edge">
<title>Node800&#45;&gt;Node44</title>
<g id="a_edge44_Node000800_Node000044"><a xlink:title=" ">
<path fill="none" stroke="#63b8ff" d="M202.66,-1134.09C189.34,-1135.68 175.53,-1137.32 162.23,-1138.91"/>
<polygon fill="#63b8ff" stroke="#63b8ff" points="203.23,-1137.55 212.74,-1132.89 202.4,-1130.6 203.23,-1137.55"/>
</a>
</g>
</g>
<!-- Node1608 -->
<g id="Node001608" class="node">
<title>Node1608</title>
<g id="a_Node001608"><a xlink:href="classUnit.html#a2fcbc74e5c13647b35b9df42d9e64486" target="_top" xlink:title=" ">
<polygon fill="white" stroke="#666666" points="1149.5,-605.96 1071.5,-605.96 1071.5,-586.96 1149.5,-586.96 1149.5,-605.96"/>
<text text-anchor="middle" x="1110.5" y="-593.96" font-family="Helvetica,sans-Serif" font-size="10.00">Unit::jumpTo</text>
</a>
</g>
</g>
<!-- Node1607&#45;&gt;Node1608 -->
<g id="edge54_Node001607_Node001608" class="edge">
<title>Node1607&#45;&gt;Node1608</title>
<g id="a_edge54_Node001607_Node001608"><a xlink:title=" ">
<path fill="none" stroke="#63b8ff" d="M1210.88,-606.45C1189.04,-604.26 1167.22,-602.06 1149.6,-600.29"/>
<polygon fill="#63b8ff" stroke="#63b8ff" points="1210.6,-609.94 1220.9,-607.46 1211.3,-602.98 1210.6,-609.94"/>
</a>
</g>
</g>
<!-- Node1609 -->
<g id="Node001609" class="node">
<title>Node1609</title>
<g id="a_Node001609"><a xlink:href="classSpell.html#ae061c81e0c1091f08060e22176eab297" target="_top" xlink:title=" ">
<polygon fill="white" stroke="#666666" points="1000,-602.96 821,-602.96 821,-583.96 1000,-583.96 1000,-602.96"/>
<text text-anchor="middle" x="910.5" y="-590.96" font-family="Helvetica,sans-Serif" font-size="10.00">Spell::SpellEffectPullTowardsDest</text>
</a>
</g>
</g>
<!-- Node1608&#45;&gt;Node1609 -->
<g id="edge55_Node001608_Node001609" class="edge">
<title>Node1608&#45;&gt;Node1609</title>
<g id="a_edge55_Node001608_Node001609"><a xlink:title=" ">
<path fill="none" stroke="#63b8ff" d="M1061.15,-595.73C1042.7,-595.45 1021.04,-595.12 1000.02,-594.81"/>
<polygon fill="#63b8ff" stroke="#63b8ff" points="1061.27,-599.23 1071.32,-595.89 1061.38,-592.24 1061.27,-599.23"/>
</a>
</g>
</g>
</g>
</svg>
