<?xml version="1.0" encoding="UTF-8" standalone="no"?>
<!DOCTYPE svg PUBLIC "-//W3C//DTD SVG 1.1//EN"
 "http://www.w3.org/Graphics/SVG/1.1/DTD/svg11.dtd">
<!-- Generated by graphviz version 2.43.0 (0)
 -->
<!-- Title: Guild::createRank Pages: 1 -->
<svg width="418pt" height="88pt"
 viewBox="0.00 0.00 418.00 88.00" xmlns="http://www.w3.org/2000/svg" xmlns:xlink="http://www.w3.org/1999/xlink">
<g id="graph0" class="graph" transform="scale(1 1) rotate(0) translate(4 84)">
<title>Guild::createRank</title>
<!-- Node1 -->
<g id="Node000001" class="node">
<title>Node1</title>
<g id="a_Node000001"><a xlink:title=" ">
<polygon fill="#999999" stroke="#666666" points="410,-40 306,-40 306,-21 410,-21 410,-40"/>
<text text-anchor="middle" x="358" y="-28" font-family="Helvetica,sans-Serif" font-size="10.00">Guild::createRank</text>
</a>
</g>
</g>
<!-- Node2 -->
<g id="Node000002" class="node">
<title>Node2</title>
<g id="a_Node000002"><a xlink:href="classGuild.html#a6e53e53bf22dc79eb0b44d12056c4cb2" target="_top" xlink:title=" ">
<polygon fill="white" stroke="#666666" points="267,-67.5 127,-67.5 127,-37.5 267,-37.5 267,-67.5"/>
<text text-anchor="start" x="135" y="-55.5" font-family="Helvetica,sans-Serif" font-size="10.00">Guild::createDefaultGuild</text>
<text text-anchor="middle" x="197" y="-44.5" font-family="Helvetica,sans-Serif" font-size="10.00">Ranks</text>
</a>
</g>
</g>
<!-- Node1&#45;&gt;Node2 -->
<g id="edge1_Node000001_Node000002" class="edge">
<title>Node1&#45;&gt;Node2</title>
<g id="a_edge1_Node000001_Node000002"><a xlink:title=" ">
<path fill="none" stroke="#63b8ff" d="M295.78,-38.97C286.38,-40.27 276.62,-41.62 267.06,-42.94"/>
<polygon fill="#63b8ff" stroke="#63b8ff" points="296.39,-42.42 305.82,-37.58 295.43,-35.49 296.39,-42.42"/>
</a>
</g>
</g>
<!-- Node5 -->
<g id="Node000005" class="node">
<title>Node5</title>
<g id="a_Node000005"><a xlink:href="classGuild.html#ad881253b3188e617830d749ae939d9f4" target="_top" xlink:title=" ">
<polygon fill="white" stroke="#666666" points="270,-19 124,-19 124,0 270,0 270,-19"/>
<text text-anchor="middle" x="197" y="-7" font-family="Helvetica,sans-Serif" font-size="10.00">Guild::handleAddNewRank</text>
</a>
</g>
</g>
<!-- Node1&#45;&gt;Node5 -->
<g id="edge4_Node000001_Node000005" class="edge">
<title>Node1&#45;&gt;Node5</title>
<g id="a_edge4_Node000001_Node000005"><a xlink:title=" ">
<path fill="none" stroke="#63b8ff" d="M295.7,-22.4C287.26,-21.29 278.54,-20.14 269.94,-19"/>
<polygon fill="#63b8ff" stroke="#63b8ff" points="295.44,-25.9 305.82,-23.74 296.36,-18.96 295.44,-25.9"/>
</a>
</g>
</g>
<!-- Node3 -->
<g id="Node000003" class="node">
<title>Node3</title>
<g id="a_Node000003"><a xlink:href="classGuild.html#a68cc9187c5d45c117f130c24382ee51d" target="_top" xlink:title=" ">
<polygon fill="white" stroke="#666666" points="83.5,-80 4.5,-80 4.5,-61 83.5,-61 83.5,-80"/>
<text text-anchor="middle" x="44" y="-68" font-family="Helvetica,sans-Serif" font-size="10.00">Guild::create</text>
</a>
</g>
</g>
<!-- Node2&#45;&gt;Node3 -->
<g id="edge2_Node000002_Node000003" class="edge">
<title>Node2&#45;&gt;Node3</title>
<g id="a_edge2_Node000002_Node000003"><a xlink:title=" ">
<path fill="none" stroke="#63b8ff" d="M116.65,-61.96C105.24,-63.32 93.94,-64.67 83.81,-65.87"/>
<polygon fill="#63b8ff" stroke="#63b8ff" points="117.17,-65.42 126.69,-60.76 116.34,-58.47 117.17,-65.42"/>
</a>
</g>
</g>
<!-- Node4 -->
<g id="Node000004" class="node">
<title>Node4</title>
<g id="a_Node000004"><a xlink:href="classGuild.html#ace41bad4aacb63dfb3c3a79a2e22609c" target="_top" xlink:title=" ">
<polygon fill="white" stroke="#666666" points="88,-43 0,-43 0,-24 88,-24 88,-43"/>
<text text-anchor="middle" x="44" y="-31" font-family="Helvetica,sans-Serif" font-size="10.00">Guild::validate</text>
</a>
</g>
</g>
<!-- Node2&#45;&gt;Node4 -->
<g id="edge3_Node000002_Node000004" class="edge">
<title>Node2&#45;&gt;Node4</title>
<g id="a_edge3_Node000002_Node000004"><a xlink:title=" ">
<path fill="none" stroke="#63b8ff" d="M116.47,-42.49C106.67,-41.26 96.96,-40.04 88.01,-38.91"/>
<polygon fill="#63b8ff" stroke="#63b8ff" points="116.33,-46 126.69,-43.78 117.2,-39.06 116.33,-46"/>
</a>
</g>
</g>
</g>
</svg>
