<?xml version="1.0" encoding="UTF-8" standalone="no"?>
<!DOCTYPE svg PUBLIC "-//W3C//DTD SVG 1.1//EN"
 "http://www.w3.org/Graphics/SVG/1.1/DTD/svg11.dtd">
<!-- Generated by graphviz version 2.43.0 (0)
 -->
<!-- Title: LuaGameObject::GetCreatureNearestCoords Pages: 1 -->
<svg width="525pt" height="329pt"
 viewBox="0.00 0.00 525.00 329.00" xmlns="http://www.w3.org/2000/svg" xmlns:xlink="http://www.w3.org/1999/xlink">
<g id="graph0" class="graph" transform="scale(1 1) rotate(0) translate(4 325)">
<title>LuaGameObject::GetCreatureNearestCoords</title>
<!-- Node1 -->
<g id="Node000001" class="node">
<title>Node1</title>
<g id="a_Node000001"><a xlink:title=" ">
<polygon fill="#999999" stroke="#666666" points="160,-135.5 0,-135.5 0,-105.5 160,-105.5 160,-135.5"/>
<text text-anchor="start" x="8" y="-123.5" font-family="Helvetica,sans-Serif" font-size="10.00">LuaGameObject::GetCreature</text>
<text text-anchor="middle" x="80" y="-112.5" font-family="Helvetica,sans-Serif" font-size="10.00">NearestCoords</text>
</a>
</g>
</g>
<!-- Node2 -->
<g id="Node000002" class="node">
<title>Node2</title>
<g id="a_Node000002"><a xlink:href="classMapScriptInterface.html#a302fa9d8f8f2de14fcbeef7fa6dc82ed" target="_top" xlink:title=" ">
<polygon fill="white" stroke="#666666" points="348,-252.5 196,-252.5 196,-222.5 348,-222.5 348,-252.5"/>
<text text-anchor="start" x="204" y="-240.5" font-family="Helvetica,sans-Serif" font-size="10.00">MapScriptInterface</text>
<text text-anchor="middle" x="272" y="-229.5" font-family="Helvetica,sans-Serif" font-size="10.00">::getCreatureNearestCoords</text>
</a>
</g>
</g>
<!-- Node1&#45;&gt;Node2 -->
<g id="edge1_Node000001_Node000002" class="edge">
<title>Node1&#45;&gt;Node2</title>
<g id="a_edge1_Node000001_Node000002"><a xlink:title=" ">
<path fill="none" stroke="#63b8ff" d="M96.02,-135.78C116.79,-156.13 156.23,-192.04 196,-213.5 199.26,-215.26 202.67,-216.91 206.16,-218.47"/>
<polygon fill="#63b8ff" stroke="#63b8ff" points="204.97,-221.76 215.55,-222.35 207.64,-215.29 204.97,-221.76"/>
</a>
</g>
</g>
<!-- Node8 -->
<g id="Node000008" class="node">
<title>Node8</title>
<g id="a_Node000008"><a xlink:href="classWorldMap.html#a40584ff6455da37438a0ee2a2dff79bb" target="_top" xlink:title=" ">
<polygon fill="white" stroke="#666666" points="337.5,-204 206.5,-204 206.5,-185 337.5,-185 337.5,-204"/>
<text text-anchor="middle" x="272" y="-192" font-family="Helvetica,sans-Serif" font-size="10.00">WorldMap::getInterface</text>
</a>
</g>
</g>
<!-- Node1&#45;&gt;Node8 -->
<g id="edge7_Node000001_Node000008" class="edge">
<title>Node1&#45;&gt;Node8</title>
<g id="a_edge7_Node000001_Node000008"><a xlink:title=" ">
<path fill="none" stroke="#63b8ff" d="M107.69,-135.57C130.55,-147.96 164.65,-165.26 196,-176.5 201.87,-178.61 208.09,-180.54 214.34,-182.3"/>
<polygon fill="#63b8ff" stroke="#63b8ff" points="213.56,-185.72 224.13,-184.91 215.37,-178.95 213.56,-185.72"/>
</a>
</g>
</g>
<!-- Node9 -->
<g id="Node000009" class="node">
<title>Node9</title>
<g id="a_Node000009"><a xlink:href="classObject.html#a967af054c54b6d9846637ce8718efd75" target="_top" xlink:title=" ">
<polygon fill="white" stroke="#666666" points="331.5,-167 212.5,-167 212.5,-148 331.5,-148 331.5,-167"/>
<text text-anchor="middle" x="272" y="-155" font-family="Helvetica,sans-Serif" font-size="10.00">Object::getWorldMap</text>
</a>
</g>
</g>
<!-- Node1&#45;&gt;Node9 -->
<g id="edge8_Node000001_Node000009" class="edge">
<title>Node1&#45;&gt;Node9</title>
<g id="a_edge8_Node000001_Node000009"><a xlink:title=" ">
<path fill="none" stroke="#63b8ff" d="M158.28,-135.55C176.32,-139.06 195.23,-142.75 212.31,-146.07"/>
<polygon fill="#63b8ff" stroke="#63b8ff" points="211.65,-149.51 222.13,-147.98 212.99,-142.64 211.65,-149.51"/>
</a>
</g>
</g>
<!-- Node10 -->
<g id="Node000010" class="node">
<title>Node10</title>
<g id="a_Node000010"><a xlink:href="classObject.html#ac118c5c3e9396f353488efad4f6f6f4f" target="_top" xlink:title=" ">
<polygon fill="white" stroke="#666666" points="345,-130 199,-130 199,-111 345,-111 345,-130"/>
<text text-anchor="middle" x="272" y="-118" font-family="Helvetica,sans-Serif" font-size="10.00">Object::isCreatureOrPlayer</text>
</a>
</g>
</g>
<!-- Node1&#45;&gt;Node10 -->
<g id="edge9_Node000001_Node000010" class="edge">
<title>Node1&#45;&gt;Node10</title>
<g id="a_edge9_Node000001_Node000010"><a xlink:title=" ">
<path fill="none" stroke="#63b8ff" d="M160.2,-120.5C169.62,-120.5 179.26,-120.5 188.72,-120.5"/>
<polygon fill="#63b8ff" stroke="#63b8ff" points="188.91,-124 198.91,-120.5 188.91,-117 188.91,-124"/>
</a>
</g>
</g>
<!-- Node12 -->
<g id="Node000012" class="node">
<title>Node12</title>
<g id="a_Node000012"><a xlink:href="lapi_8c.html#a56bbb7479265e38da2e2596e6ec25faa" target="_top" xlink:title=" ">
<polygon fill="white" stroke="#666666" points="321.5,-93 222.5,-93 222.5,-74 321.5,-74 321.5,-93"/>
<text text-anchor="middle" x="272" y="-81" font-family="Helvetica,sans-Serif" font-size="10.00">lua_pushboolean</text>
</a>
</g>
</g>
<!-- Node1&#45;&gt;Node12 -->
<g id="edge11_Node000001_Node000012" class="edge">
<title>Node1&#45;&gt;Node12</title>
<g id="a_edge11_Node000001_Node000012"><a xlink:title=" ">
<path fill="none" stroke="#63b8ff" d="M158.28,-105.45C176.4,-101.92 195.42,-98.22 212.56,-94.88"/>
<polygon fill="#63b8ff" stroke="#63b8ff" points="213.26,-98.31 222.41,-92.96 211.92,-91.44 213.26,-98.31"/>
</a>
</g>
</g>
<!-- Node13 -->
<g id="Node000013" class="node">
<title>Node13</title>
<g id="a_Node000013"><a xlink:href="lapi_8c.html#a1b4cd0d80f51e5545a97ca6c28c03c50" target="_top" xlink:title=" ">
<polygon fill="white" stroke="#666666" points="308,-56 236,-56 236,-37 308,-37 308,-56"/>
<text text-anchor="middle" x="272" y="-44" font-family="Helvetica,sans-Serif" font-size="10.00">lua_pushnil</text>
</a>
</g>
</g>
<!-- Node1&#45;&gt;Node13 -->
<g id="edge12_Node000001_Node000013" class="edge">
<title>Node1&#45;&gt;Node13</title>
<g id="a_edge12_Node000001_Node000013"><a xlink:title=" ">
<path fill="none" stroke="#63b8ff" d="M107.69,-105.43C130.55,-93.04 164.65,-75.74 196,-64.5 205.55,-61.08 216.01,-58.1 226.01,-55.61"/>
<polygon fill="#63b8ff" stroke="#63b8ff" points="226.89,-59 235.81,-53.28 225.27,-52.19 226.89,-59"/>
</a>
</g>
</g>
<!-- Node14 -->
<g id="Node000014" class="node">
<title>Node14</title>
<g id="a_Node000014"><a xlink:href="fmt_2include_2fmt_2format_8h.html#adb6e274f8eb0b74b2865215e1b49c535" target="_top" xlink:title=" ">
<polygon fill="white" stroke="#666666" points="287,-19 257,-19 257,0 287,0 287,-19"/>
<text text-anchor="middle" x="272" y="-7" font-family="Helvetica,sans-Serif" font-size="10.00">ptr</text>
</a>
</g>
</g>
<!-- Node1&#45;&gt;Node14 -->
<g id="edge13_Node000001_Node000014" class="edge">
<title>Node1&#45;&gt;Node14</title>
<g id="a_edge13_Node000001_Node000014"><a xlink:title=" ">
<path fill="none" stroke="#63b8ff" d="M95.1,-105.49C115.42,-84.77 155,-47.7 196,-27.5 211.95,-19.64 231.53,-15.09 246.68,-12.53"/>
<polygon fill="#63b8ff" stroke="#63b8ff" points="247.45,-15.96 256.82,-11 246.41,-9.04 247.45,-15.96"/>
</a>
</g>
</g>
<!-- Node3 -->
<g id="Node000003" class="node">
<title>Node3</title>
<g id="a_Node000003"><a xlink:href="classMapCell.html#ae74f78010ec5cdc4b1b7def95bb67061" target="_top" xlink:title=" ">
<polygon fill="white" stroke="#666666" points="495.5,-321 405.5,-321 405.5,-302 495.5,-302 495.5,-321"/>
<text text-anchor="middle" x="450.5" y="-309" font-family="Helvetica,sans-Serif" font-size="10.00">MapCell::Begin</text>
</a>
</g>
</g>
<!-- Node2&#45;&gt;Node3 -->
<g id="edge2_Node000002_Node000003" class="edge">
<title>Node2&#45;&gt;Node3</title>
<g id="a_edge2_Node000002_Node000003"><a xlink:title=" ">
<path fill="none" stroke="#63b8ff" d="M299.24,-252.61C321.31,-264.86 353.99,-281.94 384,-293.5 389.16,-295.49 394.62,-297.35 400.11,-299.07"/>
<polygon fill="#63b8ff" stroke="#63b8ff" points="399.37,-302.5 409.95,-302 401.36,-295.79 399.37,-302.5"/>
</a>
</g>
</g>
<!-- Node4 -->
<g id="Node000004" class="node">
<title>Node4</title>
<g id="a_Node000004"><a xlink:href="classMapCell.html#a4abc283ae405a30e14442e1944db7173" target="_top" xlink:title=" ">
<polygon fill="white" stroke="#666666" points="490.5,-284 410.5,-284 410.5,-265 490.5,-265 490.5,-284"/>
<text text-anchor="middle" x="450.5" y="-272" font-family="Helvetica,sans-Serif" font-size="10.00">MapCell::End</text>
</a>
</g>
</g>
<!-- Node2&#45;&gt;Node4 -->
<g id="edge3_Node000002_Node000004" class="edge">
<title>Node2&#45;&gt;Node4</title>
<g id="a_edge3_Node000002_Node000004"><a xlink:title=" ">
<path fill="none" stroke="#63b8ff" d="M344.79,-252.55C363.46,-256.46 383.15,-260.59 400.35,-264.2"/>
<polygon fill="#63b8ff" stroke="#63b8ff" points="399.66,-267.63 410.16,-266.25 401.1,-260.78 399.66,-267.63"/>
</a>
</g>
</g>
<!-- Node5 -->
<g id="Node000005" class="node">
<title>Node5</title>
<g id="a_Node000005"><a xlink:href="classCellHandler.html#aeaa452ae72ce20672727dc6ce8009b2f" target="_top" xlink:title=" ">
<polygon fill="white" stroke="#666666" points="507.5,-247 393.5,-247 393.5,-228 507.5,-228 507.5,-247"/>
<text text-anchor="middle" x="450.5" y="-235" font-family="Helvetica,sans-Serif" font-size="10.00">CellHandler::getCell</text>
</a>
</g>
</g>
<!-- Node2&#45;&gt;Node5 -->
<g id="edge4_Node000002_Node000005" class="edge">
<title>Node2&#45;&gt;Node5</title>
<g id="a_edge4_Node000002_Node000005"><a xlink:title=" ">
<path fill="none" stroke="#63b8ff" d="M348.11,-237.5C359.75,-237.5 371.69,-237.5 383.12,-237.5"/>
<polygon fill="#63b8ff" stroke="#63b8ff" points="383.44,-241 393.44,-237.5 383.44,-234 383.44,-241"/>
</a>
</g>
</g>
<!-- Node6 -->
<g id="Node000006" class="node">
<title>Node6</title>
<g id="a_Node000006"><a xlink:href="classCellHandler.html#a1028b35ec952874c4d00e0feac46ba24" target="_top" xlink:title=" ">
<polygon fill="white" stroke="#666666" points="510,-210 391,-210 391,-191 510,-191 510,-210"/>
<text text-anchor="middle" x="450.5" y="-198" font-family="Helvetica,sans-Serif" font-size="10.00">CellHandler::getPosX</text>
</a>
</g>
</g>
<!-- Node2&#45;&gt;Node6 -->
<g id="edge5_Node000002_Node000006" class="edge">
<title>Node2&#45;&gt;Node6</title>
<g id="a_edge5_Node000002_Node000006"><a xlink:title=" ">
<path fill="none" stroke="#63b8ff" d="M344.79,-222.45C361.23,-219 378.46,-215.39 394.09,-212.12"/>
<polygon fill="#63b8ff" stroke="#63b8ff" points="395.04,-215.49 404.1,-210.02 393.6,-208.64 395.04,-215.49"/>
</a>
</g>
</g>
<!-- Node7 -->
<g id="Node000007" class="node">
<title>Node7</title>
<g id="a_Node000007"><a xlink:href="classCellHandler.html#a040c42bfe1d1156018fabb9bbb15a766" target="_top" xlink:title=" ">
<polygon fill="white" stroke="#666666" points="510,-173 391,-173 391,-154 510,-154 510,-173"/>
<text text-anchor="middle" x="450.5" y="-161" font-family="Helvetica,sans-Serif" font-size="10.00">CellHandler::getPosY</text>
</a>
</g>
</g>
<!-- Node2&#45;&gt;Node7 -->
<g id="edge6_Node000002_Node000007" class="edge">
<title>Node2&#45;&gt;Node7</title>
<g id="a_edge6_Node000002_Node000007"><a xlink:title=" ">
<path fill="none" stroke="#63b8ff" d="M328.95,-222.37C335.54,-219.79 342.04,-216.84 348,-213.5 366.42,-203.19 365.44,-192.56 384,-182.5 388.03,-180.31 392.34,-178.36 396.76,-176.6"/>
<polygon fill="#63b8ff" stroke="#63b8ff" points="398.29,-179.77 406.52,-173.1 395.92,-173.19 398.29,-179.77"/>
</a>
</g>
</g>
<!-- Node11 -->
<g id="Node000011" class="node">
<title>Node11</title>
<g id="a_Node000011"><a xlink:href="classObject.html#aaee2ed63355af5e632aba82f859822b4" target="_top" xlink:title=" ">
<polygon fill="white" stroke="#666666" points="517,-130 384,-130 384,-111 517,-111 517,-130"/>
<text text-anchor="middle" x="450.5" y="-118" font-family="Helvetica,sans-Serif" font-size="10.00">Object::getObjectTypeId</text>
</a>
</g>
</g>
<!-- Node10&#45;&gt;Node11 -->
<g id="edge10_Node000010_Node000011" class="edge">
<title>Node10&#45;&gt;Node11</title>
<g id="a_edge10_Node000010_Node000011"><a xlink:title=" ">
<path fill="none" stroke="#63b8ff" d="M345.04,-120.5C354.49,-120.5 364.2,-120.5 373.71,-120.5"/>
<polygon fill="#63b8ff" stroke="#63b8ff" points="373.93,-124 383.93,-120.5 373.93,-117 373.93,-124"/>
</a>
</g>
</g>
</g>
</svg>
