<?xml version="1.0" encoding="UTF-8" standalone="no"?>
<!DOCTYPE svg PUBLIC "-//W3C//DTD SVG 1.1//EN"
 "http://www.w3.org/Graphics/SVG/1.1/DTD/svg11.dtd">
<!-- Generated by graphviz version 2.43.0 (0)
 -->
<!-- Title: Unit::modPowerCostMultiplier Pages: 1 -->
<svg width="819pt" height="100pt"
 viewBox="0.00 0.00 819.00 100.00" xmlns="http://www.w3.org/2000/svg" xmlns:xlink="http://www.w3.org/1999/xlink">
<g id="graph0" class="graph" transform="scale(1 1) rotate(0) translate(4 96)">
<title>Unit::modPowerCostMultiplier</title>
<!-- Node1 -->
<g id="Node000001" class="node">
<title>Node1</title>
<g id="a_Node000001"><a xlink:title=" ">
<polygon fill="#999999" stroke="#666666" points="163,-73 0,-73 0,-54 163,-54 163,-73"/>
<text text-anchor="middle" x="81.5" y="-61" font-family="Helvetica,sans-Serif" font-size="10.00">Unit::modPowerCostMultiplier</text>
</a>
</g>
</g>
<!-- Node2 -->
<g id="Node000002" class="node">
<title>Node2</title>
<g id="a_Node000002"><a xlink:href="classUnit.html#a4f9820c6c3ce63bf59f405c6ab16e9da" target="_top" xlink:title=" ">
<polygon fill="white" stroke="#666666" points="356,-92 199,-92 199,-73 356,-73 356,-92"/>
<text text-anchor="middle" x="277.5" y="-80" font-family="Helvetica,sans-Serif" font-size="10.00">Unit::getPowerCostMultiplier</text>
</a>
</g>
</g>
<!-- Node1&#45;&gt;Node2 -->
<g id="edge1_Node000001_Node000002" class="edge">
<title>Node1&#45;&gt;Node2</title>
<g id="a_edge1_Node000001_Node000002"><a xlink:title=" ">
<path fill="none" stroke="#63b8ff" d="M163.09,-71.39C171.62,-72.23 180.32,-73.08 188.93,-73.92"/>
<polygon fill="#63b8ff" stroke="#63b8ff" points="188.67,-77.41 198.97,-74.91 189.35,-70.45 188.67,-77.41"/>
</a>
</g>
</g>
<!-- Node4 -->
<g id="Node000004" class="node">
<title>Node4</title>
<g id="a_Node000004"><a xlink:href="classUnit.html#a7ca050ae3dcdb947a73768fccc3ed3a3" target="_top" xlink:title=" ">
<polygon fill="white" stroke="#666666" points="355.5,-55 199.5,-55 199.5,-36 355.5,-36 355.5,-55"/>
<text text-anchor="middle" x="277.5" y="-43" font-family="Helvetica,sans-Serif" font-size="10.00">Unit::setPowerCostMultiplier</text>
</a>
</g>
</g>
<!-- Node1&#45;&gt;Node4 -->
<g id="edge3_Node000001_Node000004" class="edge">
<title>Node1&#45;&gt;Node4</title>
<g id="a_edge3_Node000001_Node000004"><a xlink:title=" ">
<path fill="none" stroke="#63b8ff" d="M163.09,-56.02C171.69,-55.22 180.48,-54.41 189.15,-53.6"/>
<polygon fill="#63b8ff" stroke="#63b8ff" points="189.64,-57.07 199.28,-52.67 189,-50.1 189.64,-57.07"/>
</a>
</g>
</g>
<!-- Node3 -->
<g id="Node000003" class="node">
<title>Node3</title>
<g id="a_Node000003"><a xlink:href="classUnit.html#a2b80af47340ac01ca2031723f37e839a" target="_top" xlink:title=" ">
<polygon fill="white" stroke="#666666" points="477,-92 392,-92 392,-73 477,-73 477,-92"/>
<text text-anchor="middle" x="434.5" y="-80" font-family="Helvetica,sans-Serif" font-size="10.00">Unit::unitData</text>
</a>
</g>
</g>
<!-- Node2&#45;&gt;Node3 -->
<g id="edge2_Node000002_Node000003" class="edge">
<title>Node2&#45;&gt;Node3</title>
<g id="a_edge2_Node000002_Node000003"><a xlink:title=" ">
<path fill="none" stroke="#63b8ff" d="M356.45,-82.5C365.04,-82.5 373.62,-82.5 381.77,-82.5"/>
<polygon fill="#63b8ff" stroke="#63b8ff" points="381.83,-86 391.83,-82.5 381.83,-79 381.83,-86"/>
</a>
</g>
</g>
<!-- Node4&#45;&gt;Node3 -->
<g id="edge4_Node000004_Node000003" class="edge">
<title>Node4&#45;&gt;Node3</title>
<g id="a_edge4_Node000004_Node000003"><a xlink:title=" ">
<path fill="none" stroke="#63b8ff" d="M318.42,-55.03C338.32,-59.78 362.58,-65.57 383.69,-70.61"/>
<polygon fill="#63b8ff" stroke="#63b8ff" points="382.91,-74.02 393.45,-72.94 384.54,-67.21 382.91,-74.02"/>
</a>
</g>
</g>
<!-- Node5 -->
<g id="Node000005" class="node">
<title>Node5</title>
<g id="a_Node000005"><a xlink:href="classObject.html#a8b600efb87d19216b881a2451ce3629f" target="_top" xlink:title=" ">
<polygon fill="white" stroke="#666666" points="474,-55 395,-55 395,-36 474,-36 474,-55"/>
<text text-anchor="middle" x="434.5" y="-43" font-family="Helvetica,sans-Serif" font-size="10.00">Object::write</text>
</a>
</g>
</g>
<!-- Node4&#45;&gt;Node5 -->
<g id="edge5_Node000004_Node000005" class="edge">
<title>Node4&#45;&gt;Node5</title>
<g id="a_edge5_Node000004_Node000005"><a xlink:title=" ">
<path fill="none" stroke="#63b8ff" d="M355.55,-45.5C365.48,-45.5 375.43,-45.5 384.73,-45.5"/>
<polygon fill="#63b8ff" stroke="#63b8ff" points="384.93,-49 394.93,-45.5 384.93,-42 384.93,-49"/>
</a>
</g>
</g>
<!-- Node6 -->
<g id="Node000006" class="node">
<title>Node6</title>
<g id="a_Node000006"><a xlink:href="classUpdateMask.html#aaf858dd57840b7228abe64c6376d1c89" target="_top" xlink:title=" ">
<polygon fill="white" stroke="#666666" points="629,-74 516,-74 516,-55 629,-55 629,-74"/>
<text text-anchor="middle" x="572.5" y="-62" font-family="Helvetica,sans-Serif" font-size="10.00">UpdateMask::SetBit</text>
</a>
</g>
</g>
<!-- Node5&#45;&gt;Node6 -->
<g id="edge6_Node000005_Node000006" class="edge">
<title>Node5&#45;&gt;Node6</title>
<g id="a_edge6_Node000005_Node000006"><a xlink:title=" ">
<path fill="none" stroke="#63b8ff" d="M474.11,-50.89C484.03,-52.28 494.98,-53.81 505.86,-55.33"/>
<polygon fill="#63b8ff" stroke="#63b8ff" points="505.4,-58.8 515.79,-56.72 506.37,-51.87 505.4,-58.8"/>
</a>
</g>
</g>
<!-- Node7 -->
<g id="Node000007" class="node">
<title>Node7</title>
<g id="a_Node000007"><a xlink:href="classObject.html#a796330249e8c0e5f7c2cf52715638620" target="_top" xlink:title=" ">
<polygon fill="white" stroke="#666666" points="632,-37 513,-37 513,-18 632,-18 632,-37"/>
<text text-anchor="middle" x="572.5" y="-25" font-family="Helvetica,sans-Serif" font-size="10.00">Object::updateObject</text>
</a>
</g>
</g>
<!-- Node5&#45;&gt;Node7 -->
<g id="edge7_Node000005_Node000007" class="edge">
<title>Node5&#45;&gt;Node7</title>
<g id="a_edge7_Node000005_Node000007"><a xlink:title=" ">
<path fill="none" stroke="#63b8ff" d="M474.11,-40.39C483.18,-39.19 493.11,-37.87 503.06,-36.56"/>
<polygon fill="#63b8ff" stroke="#63b8ff" points="503.52,-40.03 512.98,-35.25 502.61,-33.09 503.52,-40.03"/>
</a>
</g>
</g>
<!-- Node8 -->
<g id="Node000008" class="node">
<title>Node8</title>
<g id="a_Node000008"><a xlink:href="classObject.html#a3aeab7def818ba6c50249f197ad2f9ca" target="_top" xlink:title=" ">
<polygon fill="white" stroke="#666666" points="789,-56 690,-56 690,-37 789,-37 789,-56"/>
<text text-anchor="middle" x="739.5" y="-44" font-family="Helvetica,sans-Serif" font-size="10.00">Object::IsInWorld</text>
</a>
</g>
</g>
<!-- Node7&#45;&gt;Node8 -->
<g id="edge8_Node000007_Node000008" class="edge">
<title>Node7&#45;&gt;Node8</title>
<g id="a_edge8_Node000007_Node000008"><a xlink:title=" ">
<path fill="none" stroke="#63b8ff" d="M632.14,-34.25C647.64,-36.04 664.37,-37.96 679.87,-39.75"/>
<polygon fill="#63b8ff" stroke="#63b8ff" points="679.52,-43.23 689.85,-40.9 680.32,-36.28 679.52,-43.23"/>
</a>
</g>
</g>
<!-- Node9 -->
<g id="Node000009" class="node">
<title>Node9</title>
<g id="a_Node000009"><a xlink:href="classWorldMap.html#aabf61e8d556612e51b4e87a605d314bf" target="_top" xlink:title=" ">
<polygon fill="white" stroke="#666666" points="811,-19 668,-19 668,0 811,0 811,-19"/>
<text text-anchor="middle" x="739.5" y="-7" font-family="Helvetica,sans-Serif" font-size="10.00">WorldMap::objectUpdated</text>
</a>
</g>
</g>
<!-- Node7&#45;&gt;Node9 -->
<g id="edge9_Node000007_Node000009" class="edge">
<title>Node7&#45;&gt;Node9</title>
<g id="a_edge9_Node000007_Node000009"><a xlink:title=" ">
<path fill="none" stroke="#63b8ff" d="M632.14,-21.1C640.46,-20.2 649.14,-19.25 657.79,-18.31"/>
<polygon fill="#63b8ff" stroke="#63b8ff" points="658.34,-21.77 667.91,-17.2 657.59,-14.81 658.34,-21.77"/>
</a>
</g>
</g>
</g>
</svg>
