<?xml version="1.0" encoding="UTF-8" standalone="no"?>
<!DOCTYPE svg PUBLIC "-//W3C//DTD SVG 1.1//EN"
 "http://www.w3.org/Graphics/SVG/1.1/DTD/svg11.dtd">
<!-- Generated by graphviz version 2.43.0 (0)
 -->
<!-- Title: Object::getExactDist2d Pages: 1 -->
<svg width="670pt" height="298pt"
 viewBox="0.00 0.00 670.00 298.00" xmlns="http://www.w3.org/2000/svg" xmlns:xlink="http://www.w3.org/1999/xlink">
<g id="graph0" class="graph" transform="scale(1 1) rotate(0) translate(4 294)">
<title>Object::getExactDist2d</title>
<!-- Node1 -->
<g id="Node000001" class="node">
<title>Node1</title>
<g id="a_Node000001"><a xlink:title=" ">
<polygon fill="#999999" stroke="#666666" points="662,-120 534,-120 534,-101 662,-101 662,-120"/>
<text text-anchor="middle" x="598" y="-108" font-family="Helvetica,sans-Serif" font-size="10.00">Object::getExactDist2d</text>
</a>
</g>
</g>
<!-- Node2 -->
<g id="Node000002" class="node">
<title>Node2</title>
<g id="a_Node000002"><a xlink:href="classObject.html#aece26c57a75bbefcc9fb7f3270656ae7" target="_top" xlink:title=" ">
<polygon fill="white" stroke="#666666" points="482,-216 357,-216 357,-197 482,-197 482,-216"/>
<text text-anchor="middle" x="419.5" y="-204" font-family="Helvetica,sans-Serif" font-size="10.00">Object::getDistance2d</text>
</a>
</g>
</g>
<!-- Node1&#45;&gt;Node2 -->
<g id="edge1_Node000001_Node000002" class="edge">
<title>Node1&#45;&gt;Node2</title>
<g id="a_edge1_Node000001_Node000002"><a xlink:title=" ">
<path fill="none" stroke="#63b8ff" d="M580.58,-127.25C562.12,-145.11 530.47,-172.9 498,-188.5 490.9,-191.91 483.12,-194.69 475.32,-196.96"/>
<polygon fill="#63b8ff" stroke="#63b8ff" points="583.21,-129.57 587.87,-120.05 578.29,-124.59 583.21,-129.57"/>
</a>
</g>
</g>
<!-- Node3 -->
<g id="Node000003" class="node">
<title>Node3</title>
<g id="a_Node000003"><a xlink:href="classObject.html#ae8be23cecf3f6481d123e89342fab189" target="_top" xlink:title=" ">
<polygon fill="white" stroke="#666666" points="482,-179 357,-179 357,-160 482,-160 482,-179"/>
<text text-anchor="middle" x="419.5" y="-167" font-family="Helvetica,sans-Serif" font-size="10.00">Object::getDistance2d</text>
</a>
</g>
</g>
<!-- Node1&#45;&gt;Node3 -->
<g id="edge2_Node000001_Node000003" class="edge">
<title>Node1&#45;&gt;Node3</title>
<g id="a_edge2_Node000001_Node000003"><a xlink:title=" ">
<path fill="none" stroke="#63b8ff" d="M567.28,-124.31C547.87,-132.96 521.79,-143.87 498,-151.5 488.14,-154.66 477.4,-157.52 467.15,-159.98"/>
<polygon fill="#63b8ff" stroke="#63b8ff" points="568.84,-127.45 576.51,-120.15 565.96,-121.07 568.84,-127.45"/>
</a>
</g>
</g>
<!-- Node12 -->
<g id="Node000012" class="node">
<title>Node12</title>
<g id="a_Node000012"><a xlink:href="classUnit.html#a9b71f8104b87d10d4c38240e7dce45c3" target="_top" xlink:title=" ">
<polygon fill="white" stroke="#666666" points="458.5,-142 380.5,-142 380.5,-123 458.5,-123 458.5,-142"/>
<text text-anchor="middle" x="419.5" y="-130" font-family="Helvetica,sans-Serif" font-size="10.00">Unit::jumpTo</text>
</a>
</g>
</g>
<!-- Node1&#45;&gt;Node12 -->
<g id="edge11_Node000001_Node000012" class="edge">
<title>Node1&#45;&gt;Node12</title>
<g id="a_edge11_Node000001_Node000012"><a xlink:title=" ">
<path fill="none" stroke="#63b8ff" d="M523.63,-119.64C501.3,-122.43 477.67,-125.37 458.66,-127.74"/>
<polygon fill="#63b8ff" stroke="#63b8ff" points="524.29,-123.09 533.78,-118.38 523.42,-116.14 524.29,-123.09"/>
</a>
</g>
</g>
<!-- Node13 -->
<g id="Node000013" class="node">
<title>Node13</title>
<g id="a_Node000013"><a xlink:href="classSpell.html#a7c73b79bcba637f425345622bcdb0aa9" target="_top" xlink:title=" ">
<polygon fill="white" stroke="#666666" points="498,-104.5 341,-104.5 341,-74.5 498,-74.5 498,-104.5"/>
<text text-anchor="start" x="349" y="-92.5" font-family="Helvetica,sans-Serif" font-size="10.00">Spell::SpellEffectJumpBehind</text>
<text text-anchor="middle" x="419.5" y="-81.5" font-family="Helvetica,sans-Serif" font-size="10.00">Target</text>
</a>
</g>
</g>
<!-- Node1&#45;&gt;Node13 -->
<g id="edge12_Node000001_Node000013" class="edge">
<title>Node1&#45;&gt;Node13</title>
<g id="a_edge12_Node000001_Node000013"><a xlink:title=" ">
<path fill="none" stroke="#63b8ff" d="M523.61,-101.77C515.17,-100.76 506.56,-99.74 498.07,-98.73"/>
<polygon fill="#63b8ff" stroke="#63b8ff" points="523.43,-105.27 533.78,-102.98 524.26,-98.32 523.43,-105.27"/>
</a>
</g>
</g>
<!-- Node14 -->
<g id="Node000014" class="node">
<title>Node14</title>
<g id="a_Node000014"><a xlink:href="classSpell.html#a4375da27f1ea5123932cde75415ae739" target="_top" xlink:title=" ">
<polygon fill="white" stroke="#666666" points="496,-56 343,-56 343,-37 496,-37 496,-56"/>
<text text-anchor="middle" x="419.5" y="-44" font-family="Helvetica,sans-Serif" font-size="10.00">Spell::SpellEffectJumpTarget</text>
</a>
</g>
</g>
<!-- Node1&#45;&gt;Node14 -->
<g id="edge13_Node000001_Node000014" class="edge">
<title>Node1&#45;&gt;Node14</title>
<g id="a_edge13_Node000001_Node000014"><a xlink:title=" ">
<path fill="none" stroke="#63b8ff" d="M569.86,-96.5C550.27,-86.81 522.99,-74.16 498,-65.5 487.66,-61.92 476.32,-58.74 465.58,-56.05"/>
<polygon fill="#63b8ff" stroke="#63b8ff" points="568.3,-99.64 578.81,-100.99 571.44,-93.38 568.3,-99.64"/>
</a>
</g>
</g>
<!-- Node15 -->
<g id="Node000015" class="node">
<title>Node15</title>
<g id="a_Node000015"><a xlink:href="classSpell.html#acec5ae46c72f9bb5ddd5f0f036820001" target="_top" xlink:title=" ">
<polygon fill="white" stroke="#666666" points="480.5,-19 358.5,-19 358.5,0 480.5,0 480.5,-19"/>
<text text-anchor="middle" x="419.5" y="-7" font-family="Helvetica,sans-Serif" font-size="10.00">Spell::SpellEffectLeap</text>
</a>
</g>
</g>
<!-- Node1&#45;&gt;Node15 -->
<g id="edge14_Node000001_Node000015" class="edge">
<title>Node1&#45;&gt;Node15</title>
<g id="a_edge14_Node000001_Node000015"><a xlink:title=" ">
<path fill="none" stroke="#63b8ff" d="M581.25,-93.48C562.99,-74.77 531.15,-45.17 498,-28.5 490.33,-24.64 481.83,-21.54 473.35,-19.05"/>
<polygon fill="#63b8ff" stroke="#63b8ff" points="578.77,-95.95 588.21,-100.76 583.83,-91.11 578.77,-95.95"/>
</a>
</g>
</g>
<!-- Node4 -->
<g id="Node000004" class="node">
<title>Node4</title>
<g id="a_Node000004"><a xlink:href="classFactionChampionsAI.html#a7ddbb5485a4d2660ad357b994986dbdd" target="_top" xlink:title=" ">
<polygon fill="white" stroke="#666666" points="305,-184.5 189,-184.5 189,-154.5 305,-154.5 305,-184.5"/>
<text text-anchor="start" x="197" y="-172.5" font-family="Helvetica,sans-Serif" font-size="10.00">FactionChampionsAI</text>
<text text-anchor="middle" x="247" y="-161.5" font-family="Helvetica,sans-Serif" font-size="10.00">::enemiesInRange</text>
</a>
</g>
</g>
<!-- Node3&#45;&gt;Node4 -->
<g id="edge3_Node000003_Node000004" class="edge">
<title>Node3&#45;&gt;Node4</title>
<g id="a_edge3_Node000003_Node000004"><a xlink:title=" ">
<path fill="none" stroke="#63b8ff" d="M346.92,-169.5C333,-169.5 318.58,-169.5 305.2,-169.5"/>
<polygon fill="#63b8ff" stroke="#63b8ff" points="346.95,-173 356.95,-169.5 346.95,-166 346.95,-173"/>
</a>
</g>
</g>
<!-- Node5 -->
<g id="Node000005" class="node">
<title>Node5</title>
<g id="a_Node000005"><a xlink:href="classPriestAI.html#a31b270730234331d444b324620942502" target="_top" xlink:title="Priest AI.">
<polygon fill="white" stroke="#666666" points="134,-290 19,-290 19,-271 134,-271 134,-290"/>
<text text-anchor="middle" x="76.5" y="-278" font-family="Helvetica,sans-Serif" font-size="10.00">PriestAI::InitOrReset</text>
</a>
</g>
</g>
<!-- Node4&#45;&gt;Node5 -->
<g id="edge4_Node000004_Node000005" class="edge">
<title>Node4&#45;&gt;Node5</title>
<g id="a_edge4_Node000004_Node000005"><a xlink:title=" ">
<path fill="none" stroke="#63b8ff" d="M229.12,-192.56C212.23,-213.94 184.32,-244.99 153,-262.5 146.88,-265.92 140.14,-268.69 133.27,-270.94"/>
<polygon fill="#63b8ff" stroke="#63b8ff" points="231.91,-194.67 235.24,-184.62 226.36,-190.4 231.91,-194.67"/>
</a>
</g>
</g>
<!-- Node6 -->
<g id="Node000006" class="node">
<title>Node6</title>
<g id="a_Node000006"><a xlink:href="classShadowPriestAI.html#ad848cfbc273e1fdbdad4c16b69062d52" target="_top" xlink:title=" ">
<polygon fill="white" stroke="#666666" points="153,-253 0,-253 0,-234 153,-234 153,-253"/>
<text text-anchor="middle" x="76.5" y="-241" font-family="Helvetica,sans-Serif" font-size="10.00">ShadowPriestAI::InitOrReset</text>
</a>
</g>
</g>
<!-- Node4&#45;&gt;Node6 -->
<g id="edge5_Node000004_Node000006" class="edge">
<title>Node4&#45;&gt;Node6</title>
<g id="a_edge5_Node000004_Node000006"><a xlink:title=" ">
<path fill="none" stroke="#63b8ff" d="M216.49,-190.49C198.79,-202.24 175.43,-216.33 153,-225.5 144.89,-228.81 136.03,-231.61 127.33,-233.93"/>
<polygon fill="#63b8ff" stroke="#63b8ff" points="218.88,-193.11 225.19,-184.6 214.95,-187.31 218.88,-193.11"/>
</a>
</g>
</g>
<!-- Node7 -->
<g id="Node000007" class="node">
<title>Node7</title>
<g id="a_Node000007"><a xlink:href="classWarlockAI.html#a84af26657cfe5a6955af5448d10ba612" target="_top" xlink:title=" ">
<polygon fill="white" stroke="#666666" points="139.5,-216 13.5,-216 13.5,-197 139.5,-197 139.5,-216"/>
<text text-anchor="middle" x="76.5" y="-204" font-family="Helvetica,sans-Serif" font-size="10.00">WarlockAI::InitOrReset</text>
</a>
</g>
</g>
<!-- Node4&#45;&gt;Node7 -->
<g id="edge6_Node000004_Node000007" class="edge">
<title>Node4&#45;&gt;Node7</title>
<g id="a_edge6_Node000004_Node000007"><a xlink:title=" ">
<path fill="none" stroke="#63b8ff" d="M179.15,-184.18C159.55,-188.48 138.63,-193.08 120.9,-196.97"/>
<polygon fill="#63b8ff" stroke="#63b8ff" points="179.94,-187.59 188.95,-182.03 178.44,-180.75 179.94,-187.59"/>
</a>
</g>
</g>
<!-- Node8 -->
<g id="Node000008" class="node">
<title>Node8</title>
<g id="a_Node000008"><a xlink:href="classMageAI.html#a3f1e8981ced9e9b09d8e376ce05a2052" target="_top" xlink:title=" ">
<polygon fill="white" stroke="#666666" points="133.5,-179 19.5,-179 19.5,-160 133.5,-160 133.5,-179"/>
<text text-anchor="middle" x="76.5" y="-167" font-family="Helvetica,sans-Serif" font-size="10.00">MageAI::InitOrReset</text>
</a>
</g>
</g>
<!-- Node4&#45;&gt;Node8 -->
<g id="edge7_Node000004_Node000008" class="edge">
<title>Node4&#45;&gt;Node8</title>
<g id="a_edge7_Node000004_Node000008"><a xlink:title=" ">
<path fill="none" stroke="#63b8ff" d="M178.74,-169.5C163.79,-169.5 148.08,-169.5 133.63,-169.5"/>
<polygon fill="#63b8ff" stroke="#63b8ff" points="178.95,-173 188.95,-169.5 178.95,-166 178.95,-173"/>
</a>
</g>
</g>
<!-- Node9 -->
<g id="Node000009" class="node">
<title>Node9</title>
<g id="a_Node000009"><a xlink:href="classHunterAI.html#a992daecca6094dd48f4b8d662aa9a278" target="_top" xlink:title=" ">
<polygon fill="white" stroke="#666666" points="136.5,-142 16.5,-142 16.5,-123 136.5,-123 136.5,-142"/>
<text text-anchor="middle" x="76.5" y="-130" font-family="Helvetica,sans-Serif" font-size="10.00">HunterAI::InitOrReset</text>
</a>
</g>
</g>
<!-- Node4&#45;&gt;Node9 -->
<g id="edge8_Node000004_Node000009" class="edge">
<title>Node4&#45;&gt;Node9</title>
<g id="a_edge8_Node000004_Node000009"><a xlink:title=" ">
<path fill="none" stroke="#63b8ff" d="M179.15,-154.82C159.55,-150.52 138.63,-145.92 120.9,-142.03"/>
<polygon fill="#63b8ff" stroke="#63b8ff" points="178.44,-158.25 188.95,-156.97 179.94,-151.41 178.44,-158.25"/>
</a>
</g>
</g>
<!-- Node10 -->
<g id="Node000010" class="node">
<title>Node10</title>
<g id="a_Node000010"><a xlink:href="classRogueAI.html#a828e7f66d19656f41fcbc24b6225098e" target="_top" xlink:title=" ">
<polygon fill="white" stroke="#666666" points="135.5,-105 17.5,-105 17.5,-86 135.5,-86 135.5,-105"/>
<text text-anchor="middle" x="76.5" y="-93" font-family="Helvetica,sans-Serif" font-size="10.00">RogueAI::InitOrReset</text>
</a>
</g>
</g>
<!-- Node4&#45;&gt;Node10 -->
<g id="edge9_Node000004_Node000010" class="edge">
<title>Node4&#45;&gt;Node10</title>
<g id="a_edge9_Node000004_Node000010"><a xlink:title=" ">
<path fill="none" stroke="#63b8ff" d="M215.69,-148.55C198.05,-137.15 175.01,-123.56 153,-114.5 144,-110.8 134.09,-107.67 124.49,-105.1"/>
<polygon fill="#63b8ff" stroke="#63b8ff" points="214.11,-151.7 224.39,-154.28 217.96,-145.86 214.11,-151.7"/>
</a>
</g>
</g>
<!-- Node11 -->
<g id="Node000011" class="node">
<title>Node11</title>
<g id="a_Node000011"><a xlink:href="classRetriAI.html#a331d9696a52bd57054dd4021ebf0e49c" target="_top" xlink:title=" ">
<polygon fill="white" stroke="#666666" points="131.5,-68 21.5,-68 21.5,-49 131.5,-49 131.5,-68"/>
<text text-anchor="middle" x="76.5" y="-56" font-family="Helvetica,sans-Serif" font-size="10.00">RetriAI::InitOrReset</text>
</a>
</g>
</g>
<!-- Node4&#45;&gt;Node11 -->
<g id="edge10_Node000004_Node000011" class="edge">
<title>Node4&#45;&gt;Node11</title>
<g id="a_edge10_Node000004_Node000011"><a xlink:title=" ">
<path fill="none" stroke="#63b8ff" d="M228.5,-146.14C211.49,-125.09 183.78,-94.85 153,-77.5 146.17,-73.65 138.56,-70.57 130.87,-68.11"/>
<polygon fill="#63b8ff" stroke="#63b8ff" points="225.96,-148.57 234.9,-154.26 231.46,-144.24 225.96,-148.57"/>
</a>
</g>
</g>
</g>
</svg>
