<?xml version="1.0" encoding="UTF-8" standalone="no"?>
<!DOCTYPE svg PUBLIC "-//W3C//DTD SVG 1.1//EN"
 "http://www.w3.org/Graphics/SVG/1.1/DTD/svg11.dtd">
<!-- Generated by graphviz version 2.43.0 (0)
 -->
<!-- Title: RegularGrid2D::getGrid Pages: 1 -->
<svg width="625pt" height="27pt"
 viewBox="0.00 0.00 625.00 27.00" xmlns="http://www.w3.org/2000/svg" xmlns:xlink="http://www.w3.org/1999/xlink">
<g id="graph0" class="graph" transform="scale(1 1) rotate(0) translate(4 23)">
<title>RegularGrid2D::getGrid</title>
<!-- Node1 -->
<g id="Node000001" class="node">
<title>Node1</title>
<g id="a_Node000001"><a xlink:title=" ">
<polygon fill="#999999" stroke="#666666" points="617,-19 487,-19 487,0 617,0 617,-19"/>
<text text-anchor="middle" x="552" y="-7" font-family="Helvetica,sans-Serif" font-size="10.00">RegularGrid2D::getGrid</text>
</a>
</g>
</g>
<!-- Node2 -->
<g id="Node000002" class="node">
<title>Node2</title>
<g id="a_Node000002"><a xlink:href="classRegularGrid2D.html#a038d866c2d0b029b1b60991f0d7ac106" target="_top" xlink:title=" ">
<polygon fill="white" stroke="#666666" points="451,-19 306,-19 306,0 451,0 451,-19"/>
<text text-anchor="middle" x="378.5" y="-7" font-family="Helvetica,sans-Serif" font-size="10.00">RegularGrid2D::getGridFor</text>
</a>
</g>
</g>
<!-- Node1&#45;&gt;Node2 -->
<g id="edge1_Node000001_Node000002" class="edge">
<title>Node1&#45;&gt;Node2</title>
<g id="a_edge1_Node000001_Node000002"><a xlink:title=" ">
<path fill="none" stroke="#63b8ff" d="M476.48,-9.5C468.06,-9.5 459.5,-9.5 451.12,-9.5"/>
<polygon fill="#63b8ff" stroke="#63b8ff" points="476.65,-13 486.65,-9.5 476.65,-6 476.65,-13"/>
</a>
</g>
</g>
<!-- Node3 -->
<g id="Node000003" class="node">
<title>Node3</title>
<g id="a_Node000003"><a xlink:href="classRegularGrid2D.html#acd03acd7829c13772c49580724ca4b1c" target="_top" xlink:title=" ">
<polygon fill="white" stroke="#666666" points="270,-19 148,-19 148,0 270,0 270,-19"/>
<text text-anchor="middle" x="209" y="-7" font-family="Helvetica,sans-Serif" font-size="10.00">RegularGrid2D::insert</text>
</a>
</g>
</g>
<!-- Node2&#45;&gt;Node3 -->
<g id="edge2_Node000002_Node000003" class="edge">
<title>Node2&#45;&gt;Node3</title>
<g id="a_edge2_Node000002_Node000003"><a xlink:title=" ">
<path fill="none" stroke="#63b8ff" d="M295.87,-9.5C287.22,-9.5 278.55,-9.5 270.21,-9.5"/>
<polygon fill="#63b8ff" stroke="#63b8ff" points="295.98,-13 305.98,-9.5 295.98,-6 295.98,-13"/>
</a>
</g>
</g>
<!-- Node4 -->
<g id="Node000004" class="node">
<title>Node4</title>
<g id="a_Node000004"><a xlink:href="structDynTreeImpl.html#ab31def0d383072bc7ca3def402d7e052" target="_top" xlink:title=" ">
<polygon fill="white" stroke="#666666" points="112,-19 0,-19 0,0 112,0 112,-19"/>
<text text-anchor="middle" x="56" y="-7" font-family="Helvetica,sans-Serif" font-size="10.00">DynTreeImpl::insert</text>
</a>
</g>
</g>
<!-- Node3&#45;&gt;Node4 -->
<g id="edge3_Node000003_Node000004" class="edge">
<title>Node3&#45;&gt;Node4</title>
<g id="a_edge3_Node000003_Node000004"><a xlink:title=" ">
<path fill="none" stroke="#63b8ff" d="M137.8,-9.5C129.14,-9.5 120.39,-9.5 112.01,-9.5"/>
<polygon fill="#63b8ff" stroke="#63b8ff" points="137.89,-13 147.89,-9.5 137.89,-6 137.89,-13"/>
</a>
</g>
</g>
</g>
</svg>
