<?xml version="1.0" encoding="UTF-8" standalone="no"?>
<!DOCTYPE svg PUBLIC "-//W3C//DTD SVG 1.1//EN"
 "http://www.w3.org/Graphics/SVG/1.1/DTD/svg11.dtd">
<!-- Generated by graphviz version 2.43.0 (0)
 -->
<!-- Title: FireswornAI::OnCombatStart Pages: 1 -->
<svg width="700pt" height="107pt"
 viewBox="0.00 0.00 700.00 107.00" xmlns="http://www.w3.org/2000/svg" xmlns:xlink="http://www.w3.org/1999/xlink">
<g id="graph0" class="graph" transform="scale(1 1) rotate(0) translate(4 103)">
<title>FireswornAI::OnCombatStart</title>
<!-- Node1 -->
<g id="Node000001" class="node">
<title>Node1</title>
<g id="a_Node000001"><a xlink:title=" ">
<polygon fill="#999999" stroke="#666666" points="155,-40 0,-40 0,-21 155,-21 155,-40"/>
<text text-anchor="middle" x="77.5" y="-28" font-family="Helvetica,sans-Serif" font-size="10.00">FireswornAI::OnCombatStart</text>
</a>
</g>
</g>
<!-- Node2 -->
<g id="Node000002" class="node">
<title>Node2</title>
<g id="a_Node000002"><a xlink:href="classCreatureAIScript.html#a4c07eeb8321924220560c3665561f73e" target="_top" xlink:title=" ">
<polygon fill="white" stroke="#666666" points="347,-45.5 191,-45.5 191,-15.5 347,-15.5 347,-45.5"/>
<text text-anchor="start" x="199" y="-33.5" font-family="Helvetica,sans-Serif" font-size="10.00">CreatureAIScript::getNearest</text>
<text text-anchor="middle" x="269" y="-22.5" font-family="Helvetica,sans-Serif" font-size="10.00">CreatureAI</text>
</a>
</g>
</g>
<!-- Node1&#45;&gt;Node2 -->
<g id="edge1_Node000001_Node000002" class="edge">
<title>Node1&#45;&gt;Node2</title>
<g id="a_edge1_Node000001_Node000002"><a xlink:title=" ">
<path fill="none" stroke="#63b8ff" d="M155.03,-30.5C163.52,-30.5 172.21,-30.5 180.82,-30.5"/>
<polygon fill="#63b8ff" stroke="#63b8ff" points="180.88,-34 190.88,-30.5 180.88,-27 180.88,-34"/>
</a>
</g>
</g>
<!-- Node3 -->
<g id="Node000003" class="node">
<title>Node3</title>
<g id="a_Node000003"><a xlink:href="classCreatureAIScript.html#a0a24ad0de21a1a4ea586f869aa345d45" target="_top" xlink:title=" ">
<polygon fill="white" stroke="#666666" points="539,-67.5 383,-67.5 383,-37.5 539,-37.5 539,-67.5"/>
<text text-anchor="start" x="391" y="-55.5" font-family="Helvetica,sans-Serif" font-size="10.00">CreatureAIScript::getNearest</text>
<text text-anchor="middle" x="461" y="-44.5" font-family="Helvetica,sans-Serif" font-size="10.00">Creature</text>
</a>
</g>
</g>
<!-- Node2&#45;&gt;Node3 -->
<g id="edge2_Node000002_Node000003" class="edge">
<title>Node2&#45;&gt;Node3</title>
<g id="a_edge2_Node000002_Node000003"><a xlink:title=" ">
<path fill="none" stroke="#63b8ff" d="M347.01,-39.42C355.51,-40.4 364.21,-41.41 372.83,-42.41"/>
<polygon fill="#63b8ff" stroke="#63b8ff" points="372.55,-45.9 382.88,-43.57 373.35,-38.94 372.55,-45.9"/>
</a>
</g>
</g>
<!-- Node7 -->
<g id="Node000007" class="node">
<title>Node7</title>
<g id="a_Node000007"><a xlink:href="classCreature.html#a4741a4d1f2ae430afad44cfb608aaf31" target="_top" xlink:title=" ">
<polygon fill="white" stroke="#666666" points="516,-19 406,-19 406,0 516,0 516,-19"/>
<text text-anchor="middle" x="461" y="-7" font-family="Helvetica,sans-Serif" font-size="10.00">Creature::GetScript</text>
</a>
</g>
</g>
<!-- Node2&#45;&gt;Node7 -->
<g id="edge7_Node000002_Node000007" class="edge">
<title>Node2&#45;&gt;Node7</title>
<g id="a_edge7_Node000002_Node000007"><a xlink:title=" ">
<path fill="none" stroke="#63b8ff" d="M347.01,-21.99C363.21,-20.2 380.13,-18.33 395.81,-16.6"/>
<polygon fill="#63b8ff" stroke="#63b8ff" points="396.35,-20.06 405.9,-15.48 395.58,-13.1 396.35,-20.06"/>
</a>
</g>
</g>
<!-- Node3&#45;&gt;Node3 -->
<g id="edge3_Node000003_Node000003" class="edge">
<title>Node3&#45;&gt;Node3</title>
<g id="a_edge3_Node000003_Node000003"><a xlink:title=" ">
<path fill="none" stroke="#63b8ff" d="M430.77,-67.78C424.05,-76.91 434.12,-85.5 461,-85.5 476.96,-85.5 486.99,-82.47 491.11,-78.1"/>
<polygon fill="#63b8ff" stroke="#63b8ff" points="494.61,-77.82 491.23,-67.78 487.61,-77.73 494.61,-77.82"/>
</a>
</g>
</g>
<!-- Node4 -->
<g id="Node000004" class="node">
<title>Node4</title>
<g id="a_Node000004"><a xlink:href="classObject.html#a86d65d3e698fa64f7ba3ac898dad3ba0" target="_top" xlink:title=" ">
<polygon fill="white" stroke="#666666" points="692,-99 575,-99 575,-80 692,-80 692,-99"/>
<text text-anchor="middle" x="633.5" y="-87" font-family="Helvetica,sans-Serif" font-size="10.00">Object::GetPositionX</text>
</a>
</g>
</g>
<!-- Node3&#45;&gt;Node4 -->
<g id="edge4_Node000003_Node000004" class="edge">
<title>Node3&#45;&gt;Node4</title>
<g id="a_edge4_Node000003_Node000004"><a xlink:title=" ">
<path fill="none" stroke="#63b8ff" d="M531.35,-67.55C547.08,-70.96 563.56,-74.54 578.54,-77.79"/>
<polygon fill="#63b8ff" stroke="#63b8ff" points="578.13,-81.28 588.65,-79.98 579.62,-74.44 578.13,-81.28"/>
</a>
</g>
</g>
<!-- Node5 -->
<g id="Node000005" class="node">
<title>Node5</title>
<g id="a_Node000005"><a xlink:href="classObject.html#af5cb4bc9ecb20cf640a58bf23da23d19" target="_top" xlink:title=" ">
<polygon fill="white" stroke="#666666" points="691.5,-62 575.5,-62 575.5,-43 691.5,-43 691.5,-62"/>
<text text-anchor="middle" x="633.5" y="-50" font-family="Helvetica,sans-Serif" font-size="10.00">Object::GetPositionY</text>
</a>
</g>
</g>
<!-- Node3&#45;&gt;Node5 -->
<g id="edge5_Node000003_Node000005" class="edge">
<title>Node3&#45;&gt;Node5</title>
<g id="a_edge5_Node000003_Node000005"><a xlink:title=" ">
<path fill="none" stroke="#63b8ff" d="M539.27,-52.5C547.91,-52.5 556.67,-52.5 565.17,-52.5"/>
<polygon fill="#63b8ff" stroke="#63b8ff" points="565.4,-56 575.4,-52.5 565.4,-49 565.4,-56"/>
</a>
</g>
</g>
<!-- Node6 -->
<g id="Node000006" class="node">
<title>Node6</title>
<g id="a_Node000006"><a xlink:href="classObject.html#a9c3cfe65940e81ae45107eaafd57d1dc" target="_top" xlink:title=" ">
<polygon fill="white" stroke="#666666" points="692,-25 575,-25 575,-6 692,-6 692,-25"/>
<text text-anchor="middle" x="633.5" y="-13" font-family="Helvetica,sans-Serif" font-size="10.00">Object::GetPositionZ</text>
</a>
</g>
</g>
<!-- Node3&#45;&gt;Node6 -->
<g id="edge6_Node000003_Node000006" class="edge">
<title>Node3&#45;&gt;Node6</title>
<g id="a_edge6_Node000003_Node000006"><a xlink:title=" ">
<path fill="none" stroke="#63b8ff" d="M531.35,-37.45C547.08,-34.04 563.56,-30.46 578.54,-27.21"/>
<polygon fill="#63b8ff" stroke="#63b8ff" points="579.62,-30.56 588.65,-25.02 578.13,-23.72 579.62,-30.56"/>
</a>
</g>
</g>
</g>
</svg>
