<?xml version="1.0" encoding="UTF-8" standalone="no"?>
<!DOCTYPE svg PUBLIC "-//W3C//DTD SVG 1.1//EN"
 "http://www.w3.org/Graphics/SVG/1.1/DTD/svg11.dtd">
<!-- Generated by graphviz version 2.43.0 (0)
 -->
<!-- Title: G3D::Vector3::getTangents Pages: 1 -->
<!--zoomable 237 -->

<svg id="main" version="1.1" xmlns="http://www.w3.org/2000/svg" xmlns:xlink="http://www.w3.org/1999/xlink" xml:space="preserve" onload="init(evt)">
<style type="text/css"><![CDATA[
.node, .edge {opacity: 0.7;}
.node.selected, .edge.selected {opacity: 1;}
.edge:hover path { stroke: red; }
.edge:hover polygon { stroke: red; fill: red; }
]]></style>

<defs>
  <circle id="rim" cx="0" cy="0" r="7"/>
  <circle id="rim2" cx="0" cy="0" r="3.5"/>
  <g id="zoomPlus">
    <use xlink:href="#rim" fill="#404040"><set attributeName="fill" to="#808080" begin="zoomplus.mouseover" end="zoomplus.mouseout"/></use>
    <path d="M-4,0h8M0,-4v8" fill="none" stroke="white" stroke-width="1.5" pointer-events="none"/>
  </g>
  <g id="zoomMin">
    <use xlink:href="#rim" fill="#404040"><set attributeName="fill" to="#808080" begin="zoomminus.mouseover" end="zoomminus.mouseout"/></use>
    <path d="M-4,0h8" fill="none" stroke="white" stroke-width="1.5" pointer-events="none"/>
  </g>
  <g id="arrowUp" transform="translate(30 24)">
    <use xlink:href="#rim"/>
    <path pointer-events="none" fill="none" stroke="white" stroke-width="1.5" d="M0,-3.0v7 M-2.5,-0.5L0,-3.0L2.5,-0.5"/>
  </g>
  <g id="arrowRight" transform="rotate(90) translate(36 -43)">
    <use xlink:href="#rim"/>
    <path pointer-events="none" fill="none" stroke="white" stroke-width="1.5" d="M0,-3.0v7 M-2.5,-0.5L0,-3.0L2.5,-0.5"/>
  </g>
  <g id="arrowDown" transform="rotate(180) translate(-30 -48)">
    <use xlink:href="#rim"/>
    <path pointer-events="none" fill="none" stroke="white" stroke-width="1.5" d="M0,-3.0v7 M-2.5,-0.5L0,-3.0L2.5,-0.5"/>
  </g>
  <g id="arrowLeft" transform="rotate(270) translate(-36 17)">
    <use xlink:href="#rim"/>
    <path pointer-events="none" fill="none" stroke="white" stroke-width="1.5" d="M0,-3.0v7 M-2.5,-0.5L0,-3.0L2.5,-0.5"/>
  </g>
  <g id="resetDef">
    <use xlink:href="#rim2" fill="#404040"><set attributeName="fill" to="#808080" begin="reset.mouseover" end="reset.mouseout"/></use>
  </g>
</defs>
<script type="application/ecmascript">
var viewWidth = 579;
var viewHeight = 237;
var sectionId = 'dynsection-30';
</script>
<script type="application/ecmascript" xlink:href="svg.min.js"/>
<svg id="graph" class="graph">
<g id="viewport">
<title>G3D::Vector3::getTangents</title>
<!-- Node1 -->
<g id="Node000001" class="node">
<title>Node1</title>
<g id="a_Node000001"><a xlink:title=" ">
<polygon fill="#999999" stroke="#666666" points="146,-130 0,-130 0,-111 146,-111 146,-130"/>
<text text-anchor="middle" x="73" y="-118" font-family="Helvetica,sans-Serif" font-size="10.00">G3D::Vector3::getTangents</text>
</a>
</g>
</g>
<!-- Node2 -->
<g id="Node000002" class="node">
<title>Node2</title>
<g id="a_Node000002"><a xlink:href="namespaceG3D.html#aca937b9666bc57d5f6319bcbd847fd4c" target="_top" xlink:title=" ">
<polygon fill="white" stroke="#666666" points="571,-168 510,-168 510,-149 571,-149 571,-168"/>
<text text-anchor="middle" x="540.5" y="-156" font-family="Helvetica,sans-Serif" font-size="10.00">G3D::abs</text>
</a>
</g>
</g>
<!-- Node1&#45;&gt;Node2 -->
<g id="edge1_Node000001_Node000002" class="edge">
<title>Node1&#45;&gt;Node2</title>
<g id="a_edge1_Node000001_Node000002"><a xlink:title=" ">
<path fill="none" stroke="#63b8ff" d="M81.05,-130.03C96.58,-150.14 136.07,-196.45 182,-213.5 298.51,-256.75 448.54,-200.26 510.63,-172.39"/>
<polygon fill="#63b8ff" stroke="#63b8ff" points="512.19,-175.53 519.82,-168.18 509.27,-169.16 512.19,-175.53"/>
</a>
</g>
</g>
<!-- Node3 -->
<g id="Node000003" class="node">
<title>Node3</title>
<g id="a_Node000003"><a xlink:href="classG3D_1_1Vector3.html#a170512b2ba05f094c150c36567d89a57" target="_top" xlink:title=" ">
<polygon fill="white" stroke="#666666" points="296.5,-204 184.5,-204 184.5,-185 296.5,-185 296.5,-204"/>
<text text-anchor="middle" x="240.5" y="-192" font-family="Helvetica,sans-Serif" font-size="10.00">G3D::Vector3::cross</text>
</a>
</g>
</g>
<!-- Node1&#45;&gt;Node3 -->
<g id="edge2_Node000001_Node000003" class="edge">
<title>Node1&#45;&gt;Node3</title>
<g id="a_edge2_Node000001_Node000003"><a xlink:title=" ">
<path fill="none" stroke="#63b8ff" d="M90.4,-130.16C111.21,-142.14 148.41,-162.66 182,-176.5 186.42,-178.32 191.1,-180.07 195.8,-181.71"/>
<polygon fill="#63b8ff" stroke="#63b8ff" points="194.81,-185.06 205.4,-184.91 197.02,-178.42 194.81,-185.06"/>
</a>
</g>
</g>
<!-- Node4 -->
<g id="Node000004" class="node">
<title>Node4</title>
<g id="a_Node000004"><a xlink:href="classG3D_1_1Vector3.html#a738e0282cf91f7835e0299aaed0b2fa7" target="_top" xlink:title=" ">
<polygon fill="white" stroke="#666666" points="291.5,-167 189.5,-167 189.5,-148 291.5,-148 291.5,-167"/>
<text text-anchor="middle" x="240.5" y="-155" font-family="Helvetica,sans-Serif" font-size="10.00">G3D::Vector3::dot</text>
</a>
</g>
</g>
<!-- Node1&#45;&gt;Node4 -->
<g id="edge3_Node000001_Node000004" class="edge">
<title>Node1&#45;&gt;Node4</title>
<g id="a_edge3_Node000001_Node000004"><a xlink:title=" ">
<path fill="none" stroke="#63b8ff" d="M116.62,-130.03C138.06,-134.82 164.25,-140.68 186.93,-145.75"/>
<polygon fill="#63b8ff" stroke="#63b8ff" points="186.21,-149.17 196.74,-147.94 187.74,-142.34 186.21,-149.17"/>
</a>
</g>
</g>
<!-- Node5 -->
<g id="Node000005" class="node">
<title>Node5</title>
<g id="a_Node000005"><a xlink:href="namespaceG3D.html#a777646c1deb0c353be54782691193ac4" target="_top" xlink:title=" ">
<polygon fill="white" stroke="#666666" points="281.5,-130 199.5,-130 199.5,-111 281.5,-111 281.5,-130"/>
<text text-anchor="middle" x="240.5" y="-118" font-family="Helvetica,sans-Serif" font-size="10.00">G3D::fuzzyEq</text>
</a>
</g>
</g>
<!-- Node1&#45;&gt;Node5 -->
<g id="edge4_Node000001_Node000005" class="edge">
<title>Node1&#45;&gt;Node5</title>
<g id="a_edge4_Node000001_Node000005"><a xlink:title=" ">
<path fill="none" stroke="#63b8ff" d="M146.11,-120.5C160.69,-120.5 175.71,-120.5 189.33,-120.5"/>
<polygon fill="#63b8ff" stroke="#63b8ff" points="189.45,-124 199.45,-120.5 189.45,-117 189.45,-124"/>
</a>
</g>
</g>
<!-- Node8 -->
<g id="Node000008" class="node">
<title>Node8</title>
<g id="a_Node000008"><a xlink:href="classG3D_1_1Vector3.html#a9b8f676987a04ae547f5b08657e782ac" target="_top" xlink:title=" ">
<polygon fill="white" stroke="#666666" points="299,-93 182,-93 182,-74 299,-74 299,-93"/>
<text text-anchor="middle" x="240.5" y="-81" font-family="Helvetica,sans-Serif" font-size="10.00">G3D::Vector3::length</text>
</a>
</g>
</g>
<!-- Node1&#45;&gt;Node8 -->
<g id="edge9_Node000001_Node000008" class="edge">
<title>Node1&#45;&gt;Node8</title>
<g id="a_edge9_Node000001_Node000008"><a xlink:title=" ">
<path fill="none" stroke="#63b8ff" d="M116.62,-110.97C138.06,-106.18 164.25,-100.32 186.93,-95.25"/>
<polygon fill="#63b8ff" stroke="#63b8ff" points="187.74,-98.66 196.74,-93.06 186.21,-91.83 187.74,-98.66"/>
</a>
</g>
</g>
<!-- Node10 -->
<g id="Node000010" class="node">
<title>Node10</title>
<g id="a_Node000010"><a xlink:href="classG3D_1_1Vector3.html#a7669f254a704358b831e7c12426cd438" target="_top" xlink:title=" ">
<polygon fill="white" stroke="#666666" points="296.5,-56 184.5,-56 184.5,-37 296.5,-37 296.5,-56"/>
<text text-anchor="middle" x="240.5" y="-44" font-family="Helvetica,sans-Serif" font-size="10.00">G3D::Vector3::unitX</text>
</a>
</g>
</g>
<!-- Node1&#45;&gt;Node10 -->
<g id="edge11_Node000001_Node000010" class="edge">
<title>Node1&#45;&gt;Node10</title>
<g id="a_edge11_Node000001_Node000010"><a xlink:title=" ">
<path fill="none" stroke="#63b8ff" d="M90.4,-110.84C111.21,-98.86 148.41,-78.34 182,-64.5 186.42,-62.68 191.1,-60.93 195.8,-59.29"/>
<polygon fill="#63b8ff" stroke="#63b8ff" points="197.02,-62.58 205.4,-56.09 194.81,-55.94 197.02,-62.58"/>
</a>
</g>
</g>
<!-- Node11 -->
<g id="Node000011" class="node">
<title>Node11</title>
<g id="a_Node000011"><a xlink:href="classG3D_1_1Vector3.html#a9d95e8492784a0fd4a3fcf096a996f43" target="_top" xlink:title=" ">
<polygon fill="white" stroke="#666666" points="296,-19 185,-19 185,0 296,0 296,-19"/>
<text text-anchor="middle" x="240.5" y="-7" font-family="Helvetica,sans-Serif" font-size="10.00">G3D::Vector3::unitY</text>
</a>
</g>
</g>
<!-- Node1&#45;&gt;Node11 -->
<g id="edge12_Node000001_Node000011" class="edge">
<title>Node1&#45;&gt;Node11</title>
<g id="a_edge12_Node000001_Node000011"><a xlink:title=" ">
<path fill="none" stroke="#63b8ff" d="M82.55,-110.88C99.65,-92.2 140.04,-50.81 182,-27.5 185.06,-25.8 188.31,-24.23 191.64,-22.8"/>
<polygon fill="#63b8ff" stroke="#63b8ff" points="193.11,-25.98 201.16,-19.09 190.58,-19.46 193.11,-25.98"/>
</a>
</g>
</g>
<!-- Node5&#45;&gt;Node2 -->
<g id="edge5_Node000005_Node000002" class="edge">
<title>Node5&#45;&gt;Node2</title>
<g id="a_edge5_Node000005_Node000002"><a xlink:title=" ">
<path fill="none" stroke="#63b8ff" d="M281.83,-129.69C298.26,-133.17 317.47,-136.91 335,-139.5 391.95,-147.91 458.4,-153.27 499.72,-156.08"/>
<polygon fill="#63b8ff" stroke="#63b8ff" points="499.71,-159.59 509.92,-156.76 500.17,-152.6 499.71,-159.59"/>
</a>
</g>
</g>
<!-- Node6 -->
<g id="Node000006" class="node">
<title>Node6</title>
<g id="a_Node000006"><a xlink:href="namespaceG3D.html#a91d6afc0bd460dd68e1ebba259120cea" target="_top" xlink:title=" ">
<polygon fill="white" stroke="#666666" points="435,-130 374,-130 374,-111 435,-111 435,-130"/>
<text text-anchor="middle" x="404.5" y="-118" font-family="Helvetica,sans-Serif" font-size="10.00">G3D::eps</text>
</a>
</g>
</g>
<!-- Node5&#45;&gt;Node6 -->
<g id="edge6_Node000005_Node000006" class="edge">
<title>Node5&#45;&gt;Node6</title>
<g id="a_edge6_Node000005_Node000006"><a xlink:title=" ">
<path fill="none" stroke="#63b8ff" d="M281.54,-120.5C306.55,-120.5 338.62,-120.5 363.6,-120.5"/>
<polygon fill="#63b8ff" stroke="#63b8ff" points="363.83,-124 373.83,-120.5 363.83,-117 363.83,-124"/>
</a>
</g>
</g>
<!-- Node6&#45;&gt;Node2 -->
<g id="edge7_Node000006_Node000002" class="edge">
<title>Node6&#45;&gt;Node2</title>
<g id="a_edge7_Node000006_Node000002"><a xlink:title=" ">
<path fill="none" stroke="#63b8ff" d="M435.24,-128.93C454.32,-134.35 479.32,-141.43 500.05,-147.31"/>
<polygon fill="#63b8ff" stroke="#63b8ff" points="499.27,-150.73 509.84,-150.09 501.18,-143.99 499.27,-150.73"/>
</a>
</g>
</g>
<!-- Node7 -->
<g id="Node000007" class="node">
<title>Node7</title>
<g id="a_Node000007"><a xlink:href="namespaceG3D.html#a86bb20cad66ebd418f73ff28684856c2" target="_top" xlink:title=" ">
<polygon fill="white" stroke="#666666" points="568.5,-130 512.5,-130 512.5,-111 568.5,-111 568.5,-130"/>
<text text-anchor="middle" x="540.5" y="-118" font-family="Helvetica,sans-Serif" font-size="10.00">G3D::inf</text>
</a>
</g>
</g>
<!-- Node6&#45;&gt;Node7 -->
<g id="edge8_Node000006_Node000007" class="edge">
<title>Node6&#45;&gt;Node7</title>
<g id="a_edge8_Node000006_Node000007"><a xlink:title=" ">
<path fill="none" stroke="#63b8ff" d="M435.24,-120.5C454.9,-120.5 480.83,-120.5 501.91,-120.5"/>
<polygon fill="#63b8ff" stroke="#63b8ff" points="502.13,-124 512.13,-120.5 502.13,-117 502.13,-124"/>
</a>
</g>
</g>
<!-- Node9 -->
<g id="Node000009" class="node">
<title>Node9</title>
<g id="a_Node000009"><a xlink:href="classG3D_1_1Vector3.html#a4ab82e1f74df7c27d6452f333f807736" target="_top" xlink:title=" ">
<polygon fill="white" stroke="#666666" points="474,-93 335,-93 335,-74 474,-74 474,-93"/>
<text text-anchor="middle" x="404.5" y="-81" font-family="Helvetica,sans-Serif" font-size="10.00">G3D::Vector3::magnitude</text>
</a>
</g>
</g>
<!-- Node8&#45;&gt;Node9 -->
<g id="edge10_Node000008_Node000009" class="edge">
<title>Node8&#45;&gt;Node9</title>
<g id="a_edge10_Node000008_Node000009"><a xlink:title=" ">
<path fill="none" stroke="#63b8ff" d="M299.07,-83.5C307.37,-83.5 316.03,-83.5 324.66,-83.5"/>
<polygon fill="#63b8ff" stroke="#63b8ff" points="324.75,-87 334.75,-83.5 324.75,-80 324.75,-87"/>
</a>
</g>
</g>
</g>
</svg>

<g id="navigator" transform="translate(0 0)" fill="#404254">
  <rect fill="#f2f5e9" fill-opacity="0.5" stroke="#606060" stroke-width=".5" x="0" y="0" width="60" height="60"/>
  <use id="zoomplus" xlink:href="#zoomPlus" x="17" y="9" onmousedown="handleZoom(evt,'in')"/>
  <use id="zoomminus" xlink:href="#zoomMin" x="42" y="9" onmousedown="handleZoom(evt,'out')"/>
  <use id="reset" xlink:href="#resetDef" x="30" y="36" onmousedown="handleReset()"/>
   <use id="arrowup" xlink:href="#arrowUp" x="0" y="0" onmousedown="handlePan(0,-1)"/>
  <use id="arrowright" xlink:href="#arrowRight" x="0" y="0" onmousedown="handlePan(1,0)"/>
  <use id="arrowdown" xlink:href="#arrowDown" x="0" y="0" onmousedown="handlePan(0,1)"/>
  <use id="arrowleft" xlink:href="#arrowLeft" x="0" y="0" onmousedown="handlePan(-1,0)"/>
</g>
<svg viewBox="0 0 15 15" width="100%" height="30px" preserveAspectRatio="xMaxYMin meet">
 <g id="arrow_out" transform="scale(0.3 0.3)">
  <a xlink:href="classG3D_1_1Vector3_a7e291649e871f5f13694d38df9cdb403_cgraph_org.svg" target="_base">
   <rect id="button" ry="5" rx="5" y="6" x="6" height="38" width="38"
        fill="#f2f5e9" fill-opacity="0.5" stroke="#606060" stroke-width="1.0"/>
   <path id="arrow"
     d="M 11.500037,31.436501 C 11.940474,20.09759 22.043105,11.32322 32.158766,21.979434 L 37.068811,17.246167 C 37.068811,17.246167 37.088388,32 37.088388,32 L 22.160133,31.978069 C 22.160133,31.978069 26.997745,27.140456 26.997745,27.140456 C 18.528582,18.264221 13.291696,25.230495 11.500037,31.436501 z"
     style="fill:#404040;"/>
  </a>
 </g>
</svg>

<style type='text/css'>
<![CDATA[
[data-mouse-over-selected='false'] { opacity: 0.7; }
[data-mouse-over-selected='true']  { opacity: 1.0; }
]]>
</style>
<script type="application/ecmascript"><![CDATA[
document.addEventListener('DOMContentLoaded', (event) => {
  highlightEdges();
  highlightAdjacentNodes();
});
]]></script>
</svg>
