<?xml version="1.0" encoding="UTF-8" standalone="no"?>
<!DOCTYPE svg PUBLIC "-//W3C//DTD SVG 1.1//EN"
 "http://www.w3.org/Graphics/SVG/1.1/DTD/svg11.dtd">
<!-- Generated by graphviz version 2.43.0 (0)
 -->
<!-- Title: LuaItem::GetContainerItemCount Pages: 1 -->
<svg width="501pt" height="175pt"
 viewBox="0.00 0.00 501.00 175.00" xmlns="http://www.w3.org/2000/svg" xmlns:xlink="http://www.w3.org/1999/xlink">
<g id="graph0" class="graph" transform="scale(1 1) rotate(0) translate(4 171)">
<title>LuaItem::GetContainerItemCount</title>
<!-- Node1 -->
<g id="Node000001" class="node">
<title>Node1</title>
<g id="a_Node000001"><a xlink:title=" ">
<polygon fill="#999999" stroke="#666666" points="149,-98.5 0,-98.5 0,-68.5 149,-68.5 149,-98.5"/>
<text text-anchor="start" x="8" y="-86.5" font-family="Helvetica,sans-Serif" font-size="10.00">LuaItem::GetContainerItem</text>
<text text-anchor="middle" x="74.5" y="-75.5" font-family="Helvetica,sans-Serif" font-size="10.00">Count</text>
</a>
</g>
</g>
<!-- Node2 -->
<g id="Node000002" class="node">
<title>Node2</title>
<g id="a_Node000002"><a xlink:href="classObject.html#ad4e6bfe8fd236724215bc3e671eee225" target="_top" xlink:title=" ">
<polygon fill="white" stroke="#666666" points="299,-167 204,-167 204,-148 299,-148 299,-167"/>
<text text-anchor="middle" x="251.5" y="-155" font-family="Helvetica,sans-Serif" font-size="10.00">Object::getEntry</text>
</a>
</g>
</g>
<!-- Node1&#45;&gt;Node2 -->
<g id="edge1_Node000001_Node000002" class="edge">
<title>Node1&#45;&gt;Node2</title>
<g id="a_edge1_Node000001_Node000002"><a xlink:title=" ">
<path fill="none" stroke="#63b8ff" d="M101.35,-98.63C123.11,-110.9 155.34,-127.98 185,-139.5 190.08,-141.47 195.47,-143.32 200.88,-145.03"/>
<polygon fill="#63b8ff" stroke="#63b8ff" points="200.01,-148.42 210.59,-147.93 202.01,-141.71 200.01,-148.42"/>
</a>
</g>
</g>
<!-- Node4 -->
<g id="Node000004" class="node">
<title>Node4</title>
<g id="a_Node000004"><a xlink:href="classContainer.html#a558998dda2b5e78e4e7321f7f6536c21" target="_top" xlink:title=" ">
<polygon fill="white" stroke="#666666" points="305.5,-130 197.5,-130 197.5,-111 305.5,-111 305.5,-130"/>
<text text-anchor="middle" x="251.5" y="-118" font-family="Helvetica,sans-Serif" font-size="10.00">Container::getItem</text>
</a>
</g>
</g>
<!-- Node1&#45;&gt;Node4 -->
<g id="edge3_Node000001_Node000004" class="edge">
<title>Node1&#45;&gt;Node4</title>
<g id="a_edge3_Node000001_Node000004"><a xlink:title=" ">
<path fill="none" stroke="#63b8ff" d="M146.68,-98.55C162.98,-102 180.07,-105.61 195.56,-108.88"/>
<polygon fill="#63b8ff" stroke="#63b8ff" points="194.98,-112.34 205.49,-110.98 196.43,-105.49 194.98,-112.34"/>
</a>
</g>
</g>
<!-- Node6 -->
<g id="Node000006" class="node">
<title>Node6</title>
<g id="a_Node000006"><a xlink:href="classContainer.html#afce9dece0f0b8b01acf1797250286a7e" target="_top" xlink:title=" ">
<polygon fill="white" stroke="#666666" points="318,-93 185,-93 185,-74 318,-74 318,-93"/>
<text text-anchor="middle" x="251.5" y="-81" font-family="Helvetica,sans-Serif" font-size="10.00">Container::getSlotCount</text>
</a>
</g>
</g>
<!-- Node1&#45;&gt;Node6 -->
<g id="edge5_Node000001_Node000006" class="edge">
<title>Node1&#45;&gt;Node6</title>
<g id="a_edge5_Node000001_Node000006"><a xlink:title=" ">
<path fill="none" stroke="#63b8ff" d="M149.21,-83.5C157.64,-83.5 166.25,-83.5 174.71,-83.5"/>
<polygon fill="#63b8ff" stroke="#63b8ff" points="174.94,-87 184.94,-83.5 174.94,-80 174.94,-87"/>
</a>
</g>
</g>
<!-- Node8 -->
<g id="Node000008" class="node">
<title>Node8</title>
<g id="a_Node000008"><a xlink:href="classItem.html#ab4f89eb7527aa74d0772257e8a92ba24" target="_top" xlink:title=" ">
<polygon fill="white" stroke="#666666" points="309.5,-56 193.5,-56 193.5,-37 309.5,-37 309.5,-56"/>
<text text-anchor="middle" x="251.5" y="-44" font-family="Helvetica,sans-Serif" font-size="10.00">Item::getStackCount</text>
</a>
</g>
</g>
<!-- Node1&#45;&gt;Node8 -->
<g id="edge7_Node000001_Node000008" class="edge">
<title>Node1&#45;&gt;Node8</title>
<g id="a_edge7_Node000001_Node000008"><a xlink:title=" ">
<path fill="none" stroke="#63b8ff" d="M146.68,-68.45C162.98,-65 180.07,-61.39 195.56,-58.12"/>
<polygon fill="#63b8ff" stroke="#63b8ff" points="196.43,-61.51 205.49,-56.02 194.98,-54.66 196.43,-61.51"/>
</a>
</g>
</g>
<!-- Node10 -->
<g id="Node000010" class="node">
<title>Node10</title>
<g id="a_Node000010"><a xlink:href="classObject.html#aa5589394a913f28d18a577af43e5a6f1" target="_top" xlink:title=" ">
<polygon fill="white" stroke="#666666" points="306.5,-19 196.5,-19 196.5,0 306.5,0 306.5,-19"/>
<text text-anchor="middle" x="251.5" y="-7" font-family="Helvetica,sans-Serif" font-size="10.00">Object::isContainer</text>
</a>
</g>
</g>
<!-- Node1&#45;&gt;Node10 -->
<g id="edge9_Node000001_Node000010" class="edge">
<title>Node1&#45;&gt;Node10</title>
<g id="a_edge9_Node000001_Node000010"><a xlink:title=" ">
<path fill="none" stroke="#63b8ff" d="M102.32,-68.29C124.1,-56.36 155.89,-39.92 185,-28.5 190.86,-26.2 197.11,-24.04 203.33,-22.05"/>
<polygon fill="#63b8ff" stroke="#63b8ff" points="204.5,-25.36 213.04,-19.09 202.45,-18.66 204.5,-25.36"/>
</a>
</g>
</g>
<!-- Node3 -->
<g id="Node000003" class="node">
<title>Node3</title>
<g id="a_Node000003"><a xlink:href="classObject.html#ae9814731421ab3e919a2e5c3b86e0eeb" target="_top" xlink:title=" ">
<polygon fill="white" stroke="#666666" points="477,-167 370,-167 370,-148 477,-148 477,-167"/>
<text text-anchor="middle" x="423.5" y="-155" font-family="Helvetica,sans-Serif" font-size="10.00">Object::objectData</text>
</a>
</g>
</g>
<!-- Node2&#45;&gt;Node3 -->
<g id="edge2_Node000002_Node000003" class="edge">
<title>Node2&#45;&gt;Node3</title>
<g id="a_edge2_Node000002_Node000003"><a xlink:title=" ">
<path fill="none" stroke="#63b8ff" d="M299.4,-157.5C317.98,-157.5 339.62,-157.5 359.53,-157.5"/>
<polygon fill="#63b8ff" stroke="#63b8ff" points="359.76,-161 369.76,-157.5 359.76,-154 359.76,-161"/>
</a>
</g>
</g>
<!-- Node5 -->
<g id="Node000005" class="node">
<title>Node5</title>
<g id="a_Node000005"><a xlink:href="classItem.html#a59d1e4ccdae9b2b77493861fd8f8221e" target="_top" xlink:title=" ">
<polygon fill="white" stroke="#666666" points="490,-130 357,-130 357,-111 490,-111 490,-130"/>
<text text-anchor="middle" x="423.5" y="-118" font-family="Helvetica,sans-Serif" font-size="10.00">Item::getItemProperties</text>
</a>
</g>
</g>
<!-- Node4&#45;&gt;Node5 -->
<g id="edge4_Node000004_Node000005" class="edge">
<title>Node4&#45;&gt;Node5</title>
<g id="a_edge4_Node000004_Node000005"><a xlink:title=" ">
<path fill="none" stroke="#63b8ff" d="M305.82,-120.5C318.7,-120.5 332.72,-120.5 346.42,-120.5"/>
<polygon fill="#63b8ff" stroke="#63b8ff" points="346.81,-124 356.81,-120.5 346.81,-117 346.81,-124"/>
</a>
</g>
</g>
<!-- Node7 -->
<g id="Node000007" class="node">
<title>Node7</title>
<g id="a_Node000007"><a xlink:href="classContainer.html#a6a0cbf4b2241f71461169f1f4d6c064e" target="_top" xlink:title=" ">
<polygon fill="white" stroke="#666666" points="493,-93 354,-93 354,-74 493,-74 493,-93"/>
<text text-anchor="middle" x="423.5" y="-81" font-family="Helvetica,sans-Serif" font-size="10.00">Container::containerData</text>
</a>
</g>
</g>
<!-- Node6&#45;&gt;Node7 -->
<g id="edge6_Node000006_Node000007" class="edge">
<title>Node6&#45;&gt;Node7</title>
<g id="a_edge6_Node000006_Node000007"><a xlink:title=" ">
<path fill="none" stroke="#63b8ff" d="M318.23,-83.5C326.62,-83.5 335.28,-83.5 343.85,-83.5"/>
<polygon fill="#63b8ff" stroke="#63b8ff" points="343.86,-87 353.86,-83.5 343.85,-80 343.86,-87"/>
</a>
</g>
</g>
<!-- Node9 -->
<g id="Node000009" class="node">
<title>Node9</title>
<g id="a_Node000009"><a xlink:href="classItem.html#a4f6780aeb09b44fa79884b1402b7e1fe" target="_top" xlink:title=" ">
<polygon fill="white" stroke="#666666" points="469,-56 378,-56 378,-37 469,-37 469,-56"/>
<text text-anchor="middle" x="423.5" y="-44" font-family="Helvetica,sans-Serif" font-size="10.00">Item::itemData</text>
</a>
</g>
</g>
<!-- Node8&#45;&gt;Node9 -->
<g id="edge8_Node000008_Node000009" class="edge">
<title>Node8&#45;&gt;Node9</title>
<g id="a_edge8_Node000008_Node000009"><a xlink:title=" ">
<path fill="none" stroke="#63b8ff" d="M309.58,-46.5C328.38,-46.5 349.23,-46.5 367.85,-46.5"/>
<polygon fill="#63b8ff" stroke="#63b8ff" points="367.93,-50 377.93,-46.5 367.93,-43 367.93,-50"/>
</a>
</g>
</g>
<!-- Node11 -->
<g id="Node000011" class="node">
<title>Node11</title>
<g id="a_Node000011"><a xlink:href="classObject.html#aaee2ed63355af5e632aba82f859822b4" target="_top" xlink:title=" ">
<polygon fill="white" stroke="#666666" points="490,-19 357,-19 357,0 490,0 490,-19"/>
<text text-anchor="middle" x="423.5" y="-7" font-family="Helvetica,sans-Serif" font-size="10.00">Object::getObjectTypeId</text>
</a>
</g>
</g>
<!-- Node10&#45;&gt;Node11 -->
<g id="edge10_Node000010_Node000011" class="edge">
<title>Node10&#45;&gt;Node11</title>
<g id="a_edge10_Node000010_Node000011"><a xlink:title=" ">
<path fill="none" stroke="#63b8ff" d="M306.76,-9.5C319.46,-9.5 333.21,-9.5 346.66,-9.5"/>
<polygon fill="#63b8ff" stroke="#63b8ff" points="346.86,-13 356.86,-9.5 346.86,-6 346.86,-13"/>
</a>
</g>
</g>
</g>
</svg>
