<?xml version="1.0" encoding="UTF-8" standalone="no"?>
<!DOCTYPE svg PUBLIC "-//W3C//DTD SVG 1.1//EN"
 "http://www.w3.org/Graphics/SVG/1.1/DTD/svg11.dtd">
<!-- Generated by graphviz version 2.43.0 (0)
 -->
<!-- Title: G3D::Rect2D::toAny Pages: 1 -->
<!--zoomable 214 -->

<svg id="main" version="1.1" xmlns="http://www.w3.org/2000/svg" xmlns:xlink="http://www.w3.org/1999/xlink" xml:space="preserve" onload="init(evt)">
<style type="text/css"><![CDATA[
.node, .edge {opacity: 0.7;}
.node.selected, .edge.selected {opacity: 1;}
.edge:hover path { stroke: red; }
.edge:hover polygon { stroke: red; fill: red; }
]]></style>

<defs>
  <circle id="rim" cx="0" cy="0" r="7"/>
  <circle id="rim2" cx="0" cy="0" r="3.5"/>
  <g id="zoomPlus">
    <use xlink:href="#rim" fill="#404040"><set attributeName="fill" to="#808080" begin="zoomplus.mouseover" end="zoomplus.mouseout"/></use>
    <path d="M-4,0h8M0,-4v8" fill="none" stroke="white" stroke-width="1.5" pointer-events="none"/>
  </g>
  <g id="zoomMin">
    <use xlink:href="#rim" fill="#404040"><set attributeName="fill" to="#808080" begin="zoomminus.mouseover" end="zoomminus.mouseout"/></use>
    <path d="M-4,0h8" fill="none" stroke="white" stroke-width="1.5" pointer-events="none"/>
  </g>
  <g id="arrowUp" transform="translate(30 24)">
    <use xlink:href="#rim"/>
    <path pointer-events="none" fill="none" stroke="white" stroke-width="1.5" d="M0,-3.0v7 M-2.5,-0.5L0,-3.0L2.5,-0.5"/>
  </g>
  <g id="arrowRight" transform="rotate(90) translate(36 -43)">
    <use xlink:href="#rim"/>
    <path pointer-events="none" fill="none" stroke="white" stroke-width="1.5" d="M0,-3.0v7 M-2.5,-0.5L0,-3.0L2.5,-0.5"/>
  </g>
  <g id="arrowDown" transform="rotate(180) translate(-30 -48)">
    <use xlink:href="#rim"/>
    <path pointer-events="none" fill="none" stroke="white" stroke-width="1.5" d="M0,-3.0v7 M-2.5,-0.5L0,-3.0L2.5,-0.5"/>
  </g>
  <g id="arrowLeft" transform="rotate(270) translate(-36 17)">
    <use xlink:href="#rim"/>
    <path pointer-events="none" fill="none" stroke="white" stroke-width="1.5" d="M0,-3.0v7 M-2.5,-0.5L0,-3.0L2.5,-0.5"/>
  </g>
  <g id="resetDef">
    <use xlink:href="#rim2" fill="#404040"><set attributeName="fill" to="#808080" begin="reset.mouseover" end="reset.mouseout"/></use>
  </g>
</defs>
<script type="application/ecmascript">
var viewWidth = 695;
var viewHeight = 214;
var sectionId = 'dynsection-33';
</script>
<script type="application/ecmascript" xlink:href="svg.min.js"/>
<svg id="graph" class="graph">
<g id="viewport">
<title>G3D::Rect2D::toAny</title>
<!-- Node1 -->
<g id="Node000001" class="node">
<title>Node1</title>
<g id="a_Node000001"><a xlink:title=" ">
<polygon fill="#999999" stroke="#666666" points="113,-112 0,-112 0,-93 113,-93 113,-112"/>
<text text-anchor="middle" x="56.5" y="-100" font-family="Helvetica,sans-Serif" font-size="10.00">G3D::Rect2D::toAny</text>
</a>
</g>
</g>
<!-- Node2 -->
<g id="Node000002" class="node">
<title>Node2</title>
<g id="a_Node000002"><a xlink:href="namespaceG3D.html#aa35c8e4edb80fd1e98044a26cb556b9d" target="_top" xlink:title=" ">
<polygon fill="white" stroke="#666666" points="238,-206 176,-206 176,-187 238,-187 238,-206"/>
<text text-anchor="middle" x="207" y="-194" font-family="Helvetica,sans-Serif" font-size="10.00">G3D::any</text>
</a>
</g>
</g>
<!-- Node1&#45;&gt;Node2 -->
<g id="edge1_Node000001_Node000002" class="edge">
<title>Node1&#45;&gt;Node2</title>
<g id="a_edge1_Node000001_Node000002"><a xlink:title=" ">
<path fill="none" stroke="#63b8ff" d="M66.47,-112.06C81.9,-127.98 115.1,-160 149,-178.5 154.31,-181.4 160.16,-183.91 166.02,-186.06"/>
<polygon fill="#63b8ff" stroke="#63b8ff" points="165.22,-189.48 175.82,-189.34 167.45,-182.85 165.22,-189.48"/>
</a>
</g>
</g>
<!-- Node3 -->
<g id="Node000003" class="node">
<title>Node3</title>
<g id="a_Node000003"><a xlink:href="classG3D_1_1Rect2D.html#af450afee5813781e6a6ef305c878bd74" target="_top" xlink:title=" ">
<polygon fill="white" stroke="#666666" points="265,-169 149,-169 149,-150 265,-150 265,-169"/>
<text text-anchor="middle" x="207" y="-157" font-family="Helvetica,sans-Serif" font-size="10.00">G3D::Rect2D::height</text>
</a>
</g>
</g>
<!-- Node1&#45;&gt;Node3 -->
<g id="edge2_Node000001_Node000003" class="edge">
<title>Node1&#45;&gt;Node3</title>
<g id="a_edge2_Node000001_Node000003"><a xlink:title=" ">
<path fill="none" stroke="#63b8ff" d="M82.36,-112.04C106.77,-121.41 144.22,-135.79 171.51,-146.26"/>
<polygon fill="#63b8ff" stroke="#63b8ff" points="170.47,-149.61 181.06,-149.93 172.98,-143.08 170.47,-149.61"/>
</a>
</g>
</g>
<!-- Node4 -->
<g id="Node000004" class="node">
<title>Node4</title>
<g id="a_Node000004"><a xlink:href="classG3D_1_1Rect2D.html#ac4e1f2fa48b25e14e7d316824626a217" target="_top" xlink:title=" ">
<polygon fill="white" stroke="#666666" points="426,-131 301,-131 301,-112 426,-112 426,-131"/>
<text text-anchor="middle" x="363.5" y="-119" font-family="Helvetica,sans-Serif" font-size="10.00">G3D::Rect2D::isEmpty</text>
</a>
</g>
</g>
<!-- Node1&#45;&gt;Node4 -->
<g id="edge6_Node000001_Node000004" class="edge">
<title>Node1&#45;&gt;Node4</title>
<g id="a_edge6_Node000001_Node000004"><a xlink:title=" ">
<path fill="none" stroke="#63b8ff" d="M113.09,-105.96C162.88,-109.06 236.22,-113.63 290.49,-117.01"/>
<polygon fill="#63b8ff" stroke="#63b8ff" points="290.54,-120.52 300.74,-117.65 290.98,-113.54 290.54,-120.52"/>
</a>
</g>
</g>
<!-- Node7 -->
<g id="Node000007" class="node">
<title>Node7</title>
<g id="a_Node000007"><a xlink:href="classG3D_1_1Rect2D.html#a2c1404f1155b871d90665e6c41183ad2" target="_top" xlink:title=" ">
<polygon fill="white" stroke="#666666" points="263,-93 151,-93 151,-74 263,-74 263,-93"/>
<text text-anchor="middle" x="207" y="-81" font-family="Helvetica,sans-Serif" font-size="10.00">G3D::Rect2D::width</text>
</a>
</g>
</g>
<!-- Node1&#45;&gt;Node7 -->
<g id="edge7_Node000001_Node000007" class="edge">
<title>Node1&#45;&gt;Node7</title>
<g id="a_edge7_Node000001_Node000007"><a xlink:title=" ">
<path fill="none" stroke="#63b8ff" d="M113.22,-95.37C122.28,-94.21 131.74,-93 141.01,-91.82"/>
<polygon fill="#63b8ff" stroke="#63b8ff" points="141.48,-95.28 150.96,-90.54 140.59,-88.34 141.48,-95.28"/>
</a>
</g>
</g>
<!-- Node8 -->
<g id="Node000008" class="node">
<title>Node8</title>
<g id="a_Node000008"><a xlink:href="classG3D_1_1Rect2D.html#a0d826656fa6f48044c102e341152faed" target="_top" xlink:title=" ">
<polygon fill="white" stroke="#666666" points="255.5,-56 158.5,-56 158.5,-37 255.5,-37 255.5,-56"/>
<text text-anchor="middle" x="207" y="-44" font-family="Helvetica,sans-Serif" font-size="10.00">G3D::Rect2D::x0</text>
</a>
</g>
</g>
<!-- Node1&#45;&gt;Node8 -->
<g id="edge9_Node000001_Node000008" class="edge">
<title>Node1&#45;&gt;Node8</title>
<g id="a_edge9_Node000001_Node000008"><a xlink:title=" ">
<path fill="none" stroke="#63b8ff" d="M79.91,-92.98C98.34,-85.26 125.2,-74.27 149,-65.5 154.64,-63.42 160.64,-61.31 166.53,-59.3"/>
<polygon fill="#63b8ff" stroke="#63b8ff" points="167.93,-62.52 176.29,-56.01 165.7,-55.89 167.93,-62.52"/>
</a>
</g>
</g>
<!-- Node9 -->
<g id="Node000009" class="node">
<title>Node9</title>
<g id="a_Node000009"><a xlink:href="classG3D_1_1Rect2D.html#aea07e130bf8ea624e47e875cfbc85524" target="_top" xlink:title=" ">
<polygon fill="white" stroke="#666666" points="255.5,-19 158.5,-19 158.5,0 255.5,0 255.5,-19"/>
<text text-anchor="middle" x="207" y="-7" font-family="Helvetica,sans-Serif" font-size="10.00">G3D::Rect2D::y0</text>
</a>
</g>
</g>
<!-- Node1&#45;&gt;Node9 -->
<g id="edge10_Node000001_Node000009" class="edge">
<title>Node1&#45;&gt;Node9</title>
<g id="a_edge10_Node000001_Node000009"><a xlink:title=" ">
<path fill="none" stroke="#63b8ff" d="M67.32,-92.52C83.18,-76.88 116.03,-46.55 149,-28.5 152.91,-26.36 157.11,-24.4 161.39,-22.63"/>
<polygon fill="#63b8ff" stroke="#63b8ff" points="162.71,-25.87 170.8,-19.03 160.21,-19.33 162.71,-25.87"/>
</a>
</g>
</g>
<!-- Node3&#45;&gt;Node4 -->
<g id="edge3_Node000003_Node000004" class="edge">
<title>Node3&#45;&gt;Node4</title>
<g id="a_edge3_Node000003_Node000004"><a xlink:title=" ">
<path fill="none" stroke="#63b8ff" d="M246.99,-149.91C267.28,-144.92 292.29,-138.77 313.85,-133.47"/>
<polygon fill="#63b8ff" stroke="#63b8ff" points="314.92,-136.81 323.79,-131.02 313.25,-130.01 314.92,-136.81"/>
</a>
</g>
</g>
<!-- Node5 -->
<g id="Node000005" class="node">
<title>Node5</title>
<g id="a_Node000005"><a xlink:href="classG3D_1_1Vector2.html#a601c7806ae53f86dc9030d72c8742ab0" target="_top" xlink:title=" ">
<polygon fill="white" stroke="#666666" points="578,-131 462,-131 462,-112 578,-112 578,-131"/>
<text text-anchor="middle" x="520" y="-119" font-family="Helvetica,sans-Serif" font-size="10.00">G3D::Vector2::isNaN</text>
</a>
</g>
</g>
<!-- Node4&#45;&gt;Node5 -->
<g id="edge4_Node000004_Node000005" class="edge">
<title>Node4&#45;&gt;Node5</title>
<g id="a_edge4_Node000004_Node000005"><a xlink:title=" ">
<path fill="none" stroke="#63b8ff" d="M426.01,-121.5C434.38,-121.5 443.02,-121.5 451.49,-121.5"/>
<polygon fill="#63b8ff" stroke="#63b8ff" points="451.72,-125 461.72,-121.5 451.72,-118 451.72,-125"/>
</a>
</g>
</g>
<!-- Node6 -->
<g id="Node000006" class="node">
<title>Node6</title>
<g id="a_Node000006"><a xlink:href="namespaceG3D.html#a8843e9ad0a3e34440585a11c43ceacd7" target="_top" xlink:title=" ">
<polygon fill="white" stroke="#666666" points="687,-131 614,-131 614,-112 687,-112 687,-131"/>
<text text-anchor="middle" x="650.5" y="-119" font-family="Helvetica,sans-Serif" font-size="10.00">G3D::isNaN</text>
</a>
</g>
</g>
<!-- Node5&#45;&gt;Node6 -->
<g id="edge5_Node000005_Node000006" class="edge">
<title>Node5&#45;&gt;Node6</title>
<g id="a_edge5_Node000005_Node000006"><a xlink:title=" ">
<path fill="none" stroke="#63b8ff" d="M578.11,-121.5C586.69,-121.5 595.44,-121.5 603.74,-121.5"/>
<polygon fill="#63b8ff" stroke="#63b8ff" points="603.96,-125 613.96,-121.5 603.96,-118 603.96,-125"/>
</a>
</g>
</g>
<!-- Node7&#45;&gt;Node4 -->
<g id="edge8_Node000007_Node000004" class="edge">
<title>Node7&#45;&gt;Node4</title>
<g id="a_edge8_Node000007_Node000004"><a xlink:title=" ">
<path fill="none" stroke="#63b8ff" d="M246.99,-93.09C267.28,-98.08 292.29,-104.23 313.85,-109.53"/>
<polygon fill="#63b8ff" stroke="#63b8ff" points="313.25,-112.99 323.79,-111.98 314.92,-106.19 313.25,-112.99"/>
</a>
</g>
</g>
</g>
</svg>

<g id="navigator" transform="translate(0 0)" fill="#404254">
  <rect fill="#f2f5e9" fill-opacity="0.5" stroke="#606060" stroke-width=".5" x="0" y="0" width="60" height="60"/>
  <use id="zoomplus" xlink:href="#zoomPlus" x="17" y="9" onmousedown="handleZoom(evt,'in')"/>
  <use id="zoomminus" xlink:href="#zoomMin" x="42" y="9" onmousedown="handleZoom(evt,'out')"/>
  <use id="reset" xlink:href="#resetDef" x="30" y="36" onmousedown="handleReset()"/>
   <use id="arrowup" xlink:href="#arrowUp" x="0" y="0" onmousedown="handlePan(0,-1)"/>
  <use id="arrowright" xlink:href="#arrowRight" x="0" y="0" onmousedown="handlePan(1,0)"/>
  <use id="arrowdown" xlink:href="#arrowDown" x="0" y="0" onmousedown="handlePan(0,1)"/>
  <use id="arrowleft" xlink:href="#arrowLeft" x="0" y="0" onmousedown="handlePan(-1,0)"/>
</g>
<svg viewBox="0 0 15 15" width="100%" height="30px" preserveAspectRatio="xMaxYMin meet">
 <g id="arrow_out" transform="scale(0.3 0.3)">
  <a xlink:href="classG3D_1_1Rect2D_a75f566a73d9ed450c139e26ebf4ecfcf_cgraph_org.svg" target="_base">
   <rect id="button" ry="5" rx="5" y="6" x="6" height="38" width="38"
        fill="#f2f5e9" fill-opacity="0.5" stroke="#606060" stroke-width="1.0"/>
   <path id="arrow"
     d="M 11.500037,31.436501 C 11.940474,20.09759 22.043105,11.32322 32.158766,21.979434 L 37.068811,17.246167 C 37.068811,17.246167 37.088388,32 37.088388,32 L 22.160133,31.978069 C 22.160133,31.978069 26.997745,27.140456 26.997745,27.140456 C 18.528582,18.264221 13.291696,25.230495 11.500037,31.436501 z"
     style="fill:#404040;"/>
  </a>
 </g>
</svg>

<style type='text/css'>
<![CDATA[
[data-mouse-over-selected='false'] { opacity: 0.7; }
[data-mouse-over-selected='true']  { opacity: 1.0; }
]]>
</style>
<script type="application/ecmascript"><![CDATA[
document.addEventListener('DOMContentLoaded', (event) => {
  highlightEdges();
  highlightAdjacentNodes();
});
]]></script>
</svg>
