<?xml version="1.0" encoding="UTF-8" standalone="no"?>
<!DOCTYPE svg PUBLIC "-//W3C//DTD SVG 1.1//EN"
 "http://www.w3.org/Graphics/SVG/1.1/DTD/svg11.dtd">
<!-- Generated by graphviz version 2.43.0 (0)
 -->
<!-- Title: Effectsground::OnCombatStart Pages: 1 -->
<svg width="1010pt" height="86pt"
 viewBox="0.00 0.00 1010.00 86.00" xmlns="http://www.w3.org/2000/svg" xmlns:xlink="http://www.w3.org/1999/xlink">
<g id="graph0" class="graph" transform="scale(1 1) rotate(0) translate(4 82)">
<title>Effectsground::OnCombatStart</title>
<!-- Node1 -->
<g id="Node000001" class="node">
<title>Node1</title>
<g id="a_Node000001"><a xlink:title=" ">
<polygon fill="#999999" stroke="#666666" points="164,-47.5 0,-47.5 0,-28.5 164,-28.5 164,-47.5"/>
<text text-anchor="middle" x="82" y="-35.5" font-family="Helvetica,sans-Serif" font-size="10.00">Effectsground::OnCombatStart</text>
</a>
</g>
</g>
<!-- Node2 -->
<g id="Node000002" class="node">
<title>Node2</title>
<g id="a_Node000002"><a xlink:href="classCreatureAIScript.html#a5debfe41f977b46f935785d0dcf3556e" target="_top" xlink:title=" ">
<polygon fill="white" stroke="#666666" points="343,-53 200,-53 200,-23 343,-23 343,-53"/>
<text text-anchor="start" x="208" y="-41" font-family="Helvetica,sans-Serif" font-size="10.00">CreatureAIScript::Register</text>
<text text-anchor="middle" x="271.5" y="-30" font-family="Helvetica,sans-Serif" font-size="10.00">AIUpdateEvent</text>
</a>
</g>
</g>
<!-- Node1&#45;&gt;Node2 -->
<g id="edge1_Node000001_Node000002" class="edge">
<title>Node1&#45;&gt;Node2</title>
<g id="a_edge1_Node000001_Node000002"><a xlink:title=" ">
<path fill="none" stroke="#63b8ff" d="M164.15,-38C172.59,-38 181.18,-38 189.62,-38"/>
<polygon fill="#63b8ff" stroke="#63b8ff" points="189.82,-41.5 199.82,-38 189.82,-34.5 189.82,-41.5"/>
</a>
</g>
</g>
<!-- Node3 -->
<g id="Node000003" class="node">
<title>Node3</title>
<g id="a_Node000003"><a xlink:href="classCreatureAIScript.html#a26b1d717782567cdcff4c1ebcf3fa866" target="_top" xlink:title=" ">
<polygon fill="white" stroke="#666666" points="652,-78 550,-78 550,-48 652,-48 652,-78"/>
<text text-anchor="start" x="558" y="-66" font-family="Helvetica,sans-Serif" font-size="10.00">CreatureAIScript::</text>
<text text-anchor="middle" x="601" y="-55" font-family="Helvetica,sans-Serif" font-size="10.00">_addTimer</text>
</a>
</g>
</g>
<!-- Node2&#45;&gt;Node3 -->
<g id="edge2_Node000002_Node000003" class="edge">
<title>Node2&#45;&gt;Node3</title>
<g id="a_edge2_Node000002_Node000003"><a xlink:title=" ">
<path fill="none" stroke="#63b8ff" d="M343.16,-43.39C401.84,-47.87 484.41,-54.18 539.94,-58.42"/>
<polygon fill="#63b8ff" stroke="#63b8ff" points="539.75,-61.91 549.99,-59.18 540.28,-54.93 539.75,-61.91"/>
</a>
</g>
</g>
<!-- Node7 -->
<g id="Node000007" class="node">
<title>Node7</title>
<g id="a_Node000007"><a xlink:href="classCreatureAIScript.html#ae1c4ea9dd3a81090778f6e9ea842ec89" target="_top" xlink:title=" ">
<polygon fill="white" stroke="#666666" points="514,-32 379,-32 379,-2 514,-2 514,-32"/>
<text text-anchor="start" x="387" y="-20" font-family="Helvetica,sans-Serif" font-size="10.00">CreatureAIScript::Modify</text>
<text text-anchor="middle" x="446.5" y="-9" font-family="Helvetica,sans-Serif" font-size="10.00">AIUpdateEvent</text>
</a>
</g>
</g>
<!-- Node2&#45;&gt;Node7 -->
<g id="edge6_Node000002_Node000007" class="edge">
<title>Node2&#45;&gt;Node7</title>
<g id="a_edge6_Node000002_Node000007"><a xlink:title=" ">
<path fill="none" stroke="#63b8ff" d="M343.36,-29.4C351.82,-28.37 360.47,-27.32 369,-26.29"/>
<polygon fill="#63b8ff" stroke="#63b8ff" points="369.42,-29.76 378.92,-25.08 368.58,-22.81 369.42,-29.76"/>
</a>
</g>
</g>
<!-- Node4 -->
<g id="Node000004" class="node">
<title>Node4</title>
<g id="a_Node000004"><a xlink:href="classCreatureAIScript.html#a6e3fced499a84b9cb1a1c9a6dfa60b7a" target="_top" xlink:title=" ">
<polygon fill="white" stroke="#666666" points="847,-54 688,-54 688,-24 847,-24 847,-54"/>
<text text-anchor="start" x="696" y="-42" font-family="Helvetica,sans-Serif" font-size="10.00">CreatureAIScript::getInstance</text>
<text text-anchor="middle" x="767.5" y="-31" font-family="Helvetica,sans-Serif" font-size="10.00">Script</text>
</a>
</g>
</g>
<!-- Node3&#45;&gt;Node4 -->
<g id="edge3_Node000003_Node000004" class="edge">
<title>Node3&#45;&gt;Node4</title>
<g id="a_edge3_Node000003_Node000004"><a xlink:title=" ">
<path fill="none" stroke="#63b8ff" d="M652.25,-55.67C660.42,-54.48 669.09,-53.21 677.85,-51.93"/>
<polygon fill="#63b8ff" stroke="#63b8ff" points="678.38,-55.39 687.77,-50.49 677.37,-48.47 678.38,-55.39"/>
</a>
</g>
</g>
<!-- Node5 -->
<g id="Node000005" class="node">
<title>Node5</title>
<g id="a_Node000005"><a xlink:href="classWorldMap.html#a4af3c5d2b3b7bf0b3bfc5c3b92aa3c90" target="_top" xlink:title=" ">
<polygon fill="white" stroke="#666666" points="1000,-67.5 885,-67.5 885,-48.5 1000,-48.5 1000,-67.5"/>
<text text-anchor="middle" x="942.5" y="-55.5" font-family="Helvetica,sans-Serif" font-size="10.00">WorldMap::getScript</text>
</a>
</g>
</g>
<!-- Node4&#45;&gt;Node5 -->
<g id="edge4_Node000004_Node000005" class="edge">
<title>Node4&#45;&gt;Node5</title>
<g id="a_edge4_Node000004_Node000005"><a xlink:title=" ">
<path fill="none" stroke="#63b8ff" d="M847.15,-47.64C856.36,-48.65 865.69,-49.67 874.72,-50.67"/>
<polygon fill="#63b8ff" stroke="#63b8ff" points="874.43,-54.16 884.76,-51.77 875.2,-47.2 874.43,-54.16"/>
</a>
</g>
</g>
<!-- Node6 -->
<g id="Node000006" class="node">
<title>Node6</title>
<g id="a_Node000006"><a xlink:href="classObject.html#a967af054c54b6d9846637ce8718efd75" target="_top" xlink:title=" ">
<polygon fill="white" stroke="#666666" points="1002,-30.5 883,-30.5 883,-11.5 1002,-11.5 1002,-30.5"/>
<text text-anchor="middle" x="942.5" y="-18.5" font-family="Helvetica,sans-Serif" font-size="10.00">Object::getWorldMap</text>
</a>
</g>
</g>
<!-- Node4&#45;&gt;Node6 -->
<g id="edge5_Node000004_Node000006" class="edge">
<title>Node4&#45;&gt;Node6</title>
<g id="a_edge5_Node000004_Node000006"><a xlink:title=" ">
<path fill="none" stroke="#63b8ff" d="M847.15,-30.82C855.72,-29.93 864.39,-29.02 872.82,-28.15"/>
<polygon fill="#63b8ff" stroke="#63b8ff" points="873.39,-31.61 882.97,-27.09 872.66,-24.64 873.39,-31.61"/>
</a>
</g>
</g>
<!-- Node8 -->
<g id="Node000008" class="node">
<title>Node8</title>
<g id="a_Node000008"><a xlink:href="classCreatureAIScript.html#a5c7d1c3f09992e5b292f2f23930bbf50" target="_top" xlink:title=" ">
<polygon fill="white" stroke="#666666" points="652,-30 550,-30 550,0 652,0 652,-30"/>
<text text-anchor="start" x="558" y="-18" font-family="Helvetica,sans-Serif" font-size="10.00">CreatureAIScript::</text>
<text text-anchor="middle" x="601" y="-7" font-family="Helvetica,sans-Serif" font-size="10.00">_resetTimer</text>
</a>
</g>
</g>
<!-- Node7&#45;&gt;Node8 -->
<g id="edge7_Node000007_Node000008" class="edge">
<title>Node7&#45;&gt;Node8</title>
<g id="a_edge7_Node000007_Node000008"><a xlink:title=" ">
<path fill="none" stroke="#63b8ff" d="M514.39,-16.12C522.72,-16.01 531.2,-15.9 539.42,-15.79"/>
<polygon fill="#63b8ff" stroke="#63b8ff" points="539.72,-19.29 549.67,-15.66 539.63,-12.29 539.72,-19.29"/>
</a>
</g>
</g>
<!-- Node8&#45;&gt;Node4 -->
<g id="edge8_Node000008_Node000004" class="edge">
<title>Node8&#45;&gt;Node4</title>
<g id="a_edge8_Node000008_Node000004"><a xlink:title=" ">
<path fill="none" stroke="#63b8ff" d="M652.25,-22.33C660.42,-23.52 669.09,-24.79 677.85,-26.07"/>
<polygon fill="#63b8ff" stroke="#63b8ff" points="677.37,-29.53 687.77,-27.51 678.38,-22.61 677.37,-29.53"/>
</a>
</g>
</g>
</g>
</svg>
