<?xml version="1.0" encoding="UTF-8" standalone="no"?>
<!DOCTYPE svg PUBLIC "-//W3C//DTD SVG 1.1//EN"
 "http://www.w3.org/Graphics/SVG/1.1/DTD/svg11.dtd">
<!-- Generated by graphviz version 2.43.0 (0)
 -->
<!-- Title: CombatHandler::_notifyOwner Pages: 1 -->
<svg width="1405pt" height="381pt"
 viewBox="0.00 0.00 1405.00 381.00" xmlns="http://www.w3.org/2000/svg" xmlns:xlink="http://www.w3.org/1999/xlink">
<g id="graph0" class="graph" transform="scale(1 1) rotate(0) translate(4 377)">
<title>CombatHandler::_notifyOwner</title>
<!-- Node1 -->
<g id="Node000001" class="node">
<title>Node1</title>
<g id="a_Node000001"><a xlink:title=" ">
<polygon fill="#999999" stroke="#666666" points="164,-167 0,-167 0,-148 164,-148 164,-167"/>
<text text-anchor="middle" x="82" y="-155" font-family="Helvetica,sans-Serif" font-size="10.00">CombatHandler::_notifyOwner</text>
</a>
</g>
</g>
<!-- Node2 -->
<g id="Node000002" class="node">
<title>Node2</title>
<g id="a_Node000002"><a xlink:href="classCombatHandler.html#a02051ddb68c7105e39d748c688538caf" target="_top" xlink:title=" ">
<polygon fill="white" stroke="#666666" points="372,-248 200,-248 200,-229 372,-229 372,-248"/>
<text text-anchor="middle" x="286" y="-236" font-family="Helvetica,sans-Serif" font-size="10.00">CombatHandler::_combatAction</text>
</a>
</g>
</g>
<!-- Node1&#45;&gt;Node2 -->
<g id="edge1_Node000001_Node000002" class="edge">
<title>Node1&#45;&gt;Node2</title>
<g id="a_edge1_Node000001_Node000002"><a xlink:title=" ">
<path fill="none" stroke="#63b8ff" d="M119.79,-167.09C142.66,-176.41 172.79,-189.83 200,-200.5 221.6,-208.97 246.81,-217.39 264.13,-224.72"/>
<polygon fill="#63b8ff" stroke="#63b8ff" points="262.78,-227.95 273.33,-228.91 265.68,-221.58 262.78,-227.95"/>
</a>
</g>
</g>
<!-- Node13 -->
<g id="Node000013" class="node">
<title>Node13</title>
<g id="a_Node000013"><a xlink:href="classCombatHandler.html#a66e61846714a4fbc5771ce1aa4072d4c" target="_top" xlink:title=" ">
<polygon fill="white" stroke="#666666" points="766,-360 620,-360 620,-341 766,-341 766,-360"/>
<text text-anchor="middle" x="693" y="-348" font-family="Helvetica,sans-Serif" font-size="10.00">CombatHandler::getOwner</text>
</a>
</g>
</g>
<!-- Node1&#45;&gt;Node13 -->
<g id="edge23_Node000001_Node000013" class="edge">
<title>Node1&#45;&gt;Node13</title>
<g id="a_edge23_Node000001_Node000013"><a xlink:title=" ">
<path fill="none" stroke="#63b8ff" d="M92.14,-167.29C110.78,-186.77 155.23,-230.84 200,-257.5 285.1,-308.18 311.06,-317.2 408,-337.5 474.88,-351.51 552.48,-354.17 609.64,-353.66"/>
<polygon fill="#63b8ff" stroke="#63b8ff" points="609.76,-357.15 619.71,-353.53 609.67,-350.15 609.76,-357.15"/>
</a>
</g>
</g>
<!-- Node18 -->
<g id="Node000018" class="node">
<title>Node18</title>
<g id="a_Node000018"><a xlink:href="classObject.html#a70e96689a305f5cf35139bae2f15df00" target="_top" xlink:title=" ">
<polygon fill="white" stroke="#666666" points="942,-224 810,-224 810,-205 942,-205 942,-224"/>
<text text-anchor="middle" x="876" y="-212" font-family="Helvetica,sans-Serif" font-size="10.00">Object::getPlayerOwner</text>
</a>
</g>
</g>
<!-- Node1&#45;&gt;Node18 -->
<g id="edge24_Node000001_Node000018" class="edge">
<title>Node1&#45;&gt;Node18</title>
<g id="a_edge24_Node000001_Node000018"><a xlink:title=" ">
<path fill="none" stroke="#63b8ff" d="M134.39,-167.04C154.75,-170.51 178.42,-174.15 200,-176.5 416.77,-200.14 674.4,-209.48 799.43,-212.83"/>
<polygon fill="#63b8ff" stroke="#63b8ff" points="799.56,-216.33 809.65,-213.09 799.75,-209.33 799.56,-216.33"/>
</a>
</g>
</g>
<!-- Node20 -->
<g id="Node000020" class="node">
<title>Node20</title>
<g id="a_Node000020"><a xlink:href="classUnit.html#ae24524f5980ca871287dcbfc07168b6b" target="_top" xlink:title=" ">
<polygon fill="white" stroke="#666666" points="353.5,-167 218.5,-167 218.5,-148 353.5,-148 353.5,-167"/>
<text text-anchor="middle" x="286" y="-155" font-family="Helvetica,sans-Serif" font-size="10.00">Unit::getCombatHandler</text>
</a>
</g>
</g>
<!-- Node1&#45;&gt;Node20 -->
<g id="edge21_Node000001_Node000020" class="edge">
<title>Node1&#45;&gt;Node20</title>
<g id="a_edge21_Node000001_Node000020"><a xlink:title=" ">
<path fill="none" stroke="#63b8ff" d="M164.29,-157.5C178.76,-157.5 193.78,-157.5 208.12,-157.5"/>
<polygon fill="#63b8ff" stroke="#63b8ff" points="208.43,-161 218.43,-157.5 208.43,-154 208.43,-161"/>
</a>
</g>
</g>
<!-- Node21 -->
<g id="Node000021" class="node">
<title>Node21</title>
<g id="a_Node000021"><a xlink:href="namespaceUtil.html#a15e1eefda0759ccb5e7f818f9574272b" target="_top" xlink:title=" ">
<polygon fill="white" stroke="#666666" points="333.5,-130 238.5,-130 238.5,-111 333.5,-111 333.5,-130"/>
<text text-anchor="middle" x="286" y="-118" font-family="Helvetica,sans-Serif" font-size="10.00">Util::getMSTime</text>
</a>
</g>
</g>
<!-- Node1&#45;&gt;Node21 -->
<g id="edge22_Node000001_Node000021" class="edge">
<title>Node1&#45;&gt;Node21</title>
<g id="a_edge22_Node000001_Node000021"><a xlink:title=" ">
<path fill="none" stroke="#63b8ff" d="M135.02,-147.97C163.57,-142.74 199,-136.25 228.26,-130.89"/>
<polygon fill="#63b8ff" stroke="#63b8ff" points="229.12,-134.29 238.33,-129.05 227.86,-127.41 229.12,-134.29"/>
</a>
</g>
</g>
<!-- Node22 -->
<g id="Node000022" class="node">
<title>Node22</title>
<g id="a_Node000022"><a xlink:href="classObject.html#a42476d3306a3fb6000c861f93596a7c3" target="_top" xlink:title=" ">
<polygon fill="white" stroke="#666666" points="347,-93 225,-93 225,-74 347,-74 347,-93"/>
<text text-anchor="middle" x="286" y="-81" font-family="Helvetica,sans-Serif" font-size="10.00">Object::getUnitOwner</text>
</a>
</g>
</g>
<!-- Node1&#45;&gt;Node22 -->
<g id="edge25_Node000001_Node000022" class="edge">
<title>Node1&#45;&gt;Node22</title>
<g id="a_edge25_Node000001_Node000022"><a xlink:title=" ">
<path fill="none" stroke="#63b8ff" d="M100.34,-147.87C122.75,-135.77 163.26,-115.07 200,-102.5 207.63,-99.89 215.77,-97.54 223.87,-95.46"/>
<polygon fill="#63b8ff" stroke="#63b8ff" points="224.82,-98.83 233.7,-93.06 223.16,-92.03 224.82,-98.83"/>
</a>
</g>
</g>
<!-- Node23 -->
<g id="Node000023" class="node">
<title>Node23</title>
<g id="a_Node000023"><a xlink:href="classObject.html#ad867b68be484ae121ca3b1cb4e947244" target="_top" xlink:title=" ">
<polygon fill="white" stroke="#666666" points="338,-56 234,-56 234,-37 338,-37 338,-56"/>
<text text-anchor="middle" x="286" y="-44" font-family="Helvetica,sans-Serif" font-size="10.00">Object::isCreature</text>
</a>
</g>
</g>
<!-- Node1&#45;&gt;Node23 -->
<g id="edge26_Node000001_Node000023" class="edge">
<title>Node1&#45;&gt;Node23</title>
<g id="a_edge26_Node000001_Node000023"><a xlink:title=" ">
<path fill="none" stroke="#63b8ff" d="M92.01,-148C110.42,-129.18 154.48,-87.1 200,-65.5 207.56,-61.91 215.82,-58.99 224.13,-56.61"/>
<polygon fill="#63b8ff" stroke="#63b8ff" points="225.09,-59.98 233.87,-54.06 223.31,-53.2 225.09,-59.98"/>
</a>
</g>
</g>
<!-- Node25 -->
<g id="Node000025" class="node">
<title>Node25</title>
<g id="a_Node000025"><a xlink:href="classObject.html#ab65745f76d63eda49657413dccf0057d" target="_top" xlink:title=" ">
<polygon fill="white" stroke="#666666" points="332.5,-19 239.5,-19 239.5,0 332.5,0 332.5,-19"/>
<text text-anchor="middle" x="286" y="-7" font-family="Helvetica,sans-Serif" font-size="10.00">Object::isPlayer</text>
</a>
</g>
</g>
<!-- Node1&#45;&gt;Node25 -->
<g id="edge28_Node000001_Node000025" class="edge">
<title>Node1&#45;&gt;Node25</title>
<g id="a_edge28_Node000001_Node000025"><a xlink:title=" ">
<path fill="none" stroke="#63b8ff" d="M88.66,-147.78C103.49,-123.26 146.08,-58.61 200,-27.5 209.01,-22.3 219.33,-18.6 229.61,-15.96"/>
<polygon fill="#63b8ff" stroke="#63b8ff" points="230.42,-19.36 239.4,-13.74 228.88,-12.54 230.42,-19.36"/>
</a>
</g>
</g>
<!-- Node2&#45;&gt;Node1 -->
<g id="edge14_Node000002_Node000001" class="edge">
<title>Node2&#45;&gt;Node1</title>
<g id="a_edge14_Node000002_Node000001"><a xlink:title=" ">
<path fill="none" stroke="#63b8ff" d="M228.5,-228.88C218.94,-225.66 209.15,-222.08 200,-218.5 164.51,-204.59 124.06,-185.98 101.23,-172.5"/>
<polygon fill="#63b8ff" stroke="#63b8ff" points="102.91,-169.43 92.58,-167.07 99.19,-175.36 102.91,-169.43"/>
</a>
</g>
</g>
<!-- Node3 -->
<g id="Node000003" class="node">
<title>Node3</title>
<g id="a_Node000003"><a xlink:href="classCombatHandler.html#a8c7512352a3d91ff5478be83a59aae47" target="_top" xlink:title=" ">
<polygon fill="white" stroke="#666666" points="576,-291 408,-291 408,-272 576,-272 576,-291"/>
<text text-anchor="middle" x="492" y="-279" font-family="Helvetica,sans-Serif" font-size="10.00">CombatHandler::_enterCombat</text>
</a>
</g>
</g>
<!-- Node2&#45;&gt;Node3 -->
<g id="edge2_Node000002_Node000003" class="edge">
<title>Node2&#45;&gt;Node3</title>
<g id="a_edge2_Node000002_Node000003"><a xlink:title=" ">
<path fill="none" stroke="#63b8ff" d="M332.27,-248.04C362.91,-254.5 403.56,-263.07 436.05,-269.92"/>
<polygon fill="#63b8ff" stroke="#63b8ff" points="435.35,-273.35 445.85,-271.98 436.79,-266.5 435.35,-273.35"/>
</a>
</g>
</g>
<!-- Node14 -->
<g id="Node000014" class="node">
<title>Node14</title>
<g id="a_Node000014"><a xlink:href="classCombatHandler.html#ac60a85ffd0d68cc1193fb814a884b164" target="_top" xlink:title=" ">
<polygon fill="white" stroke="#666666" points="565.5,-253.5 418.5,-253.5 418.5,-223.5 565.5,-223.5 565.5,-253.5"/>
<text text-anchor="start" x="426.5" y="-241.5" font-family="Helvetica,sans-Serif" font-size="10.00">CombatHandler::_resetPvp</text>
<text text-anchor="middle" x="492" y="-230.5" font-family="Helvetica,sans-Serif" font-size="10.00">CombatTimer</text>
</a>
</g>
</g>
<!-- Node2&#45;&gt;Node14 -->
<g id="edge15_Node000002_Node000014" class="edge">
<title>Node2&#45;&gt;Node14</title>
<g id="a_edge15_Node000002_Node000014"><a xlink:title=" ">
<path fill="none" stroke="#63b8ff" d="M372.04,-238.5C383.96,-238.5 396.2,-238.5 408.08,-238.5"/>
<polygon fill="#63b8ff" stroke="#63b8ff" points="408.42,-242 418.42,-238.5 408.42,-235 408.42,-242"/>
</a>
</g>
</g>
<!-- Node19 -->
<g id="Node000019" class="node">
<title>Node19</title>
<g id="a_Node000019"><a xlink:href="classCombatHandler.html#aa1158c382b0333858277f7a573a45048" target="_top" xlink:title=" ">
<polygon fill="white" stroke="#666666" points="569.5,-328 414.5,-328 414.5,-309 569.5,-309 569.5,-328"/>
<text text-anchor="middle" x="492" y="-316" font-family="Helvetica,sans-Serif" font-size="10.00">CombatHandler::isInCombat</text>
</a>
</g>
</g>
<!-- Node2&#45;&gt;Node19 -->
<g id="edge20_Node000002_Node000019" class="edge">
<title>Node2&#45;&gt;Node19</title>
<g id="a_edge20_Node000002_Node000019"><a xlink:title=" ">
<path fill="none" stroke="#63b8ff" d="M302.46,-248.09C324.91,-261.63 368.22,-286.27 408,-300.5 414.25,-302.74 420.87,-304.74 427.53,-306.53"/>
<polygon fill="#63b8ff" stroke="#63b8ff" points="426.74,-309.94 437.29,-308.99 428.45,-303.15 426.74,-309.94"/>
</a>
</g>
</g>
<!-- Node4 -->
<g id="Node000004" class="node">
<title>Node4</title>
<g id="a_Node000004"><a xlink:href="classUnit.html#a2ac6a3a63629788ab412b9729851dd20" target="_top" xlink:title=" ">
<polygon fill="white" stroke="#666666" points="746.5,-317 639.5,-317 639.5,-298 746.5,-298 746.5,-317"/>
<text text-anchor="middle" x="693" y="-305" font-family="Helvetica,sans-Serif" font-size="10.00">Unit::addUnitFlags</text>
</a>
</g>
</g>
<!-- Node3&#45;&gt;Node4 -->
<g id="edge3_Node000003_Node000004" class="edge">
<title>Node3&#45;&gt;Node4</title>
<g id="a_edge3_Node000003_Node000004"><a xlink:title=" ">
<path fill="none" stroke="#63b8ff" d="M565.97,-291.03C586.75,-293.75 609.2,-296.68 629.31,-299.31"/>
<polygon fill="#63b8ff" stroke="#63b8ff" points="628.92,-302.79 639.29,-300.61 629.82,-295.85 628.92,-302.79"/>
</a>
</g>
</g>
<!-- Node3&#45;&gt;Node13 -->
<g id="edge13_Node000003_Node000013" class="edge">
<title>Node3&#45;&gt;Node13</title>
<g id="a_edge13_Node000003_Node000013"><a xlink:title=" ">
<path fill="none" stroke="#63b8ff" d="M548.93,-291.06C558.18,-293.56 567.52,-296.66 576,-300.5 593.98,-308.64 594.3,-317.77 612,-326.5 621.07,-330.98 631.14,-334.79 640.98,-337.98"/>
<polygon fill="#63b8ff" stroke="#63b8ff" points="640.12,-341.38 650.71,-340.96 642.17,-334.69 640.12,-341.38"/>
</a>
</g>
</g>
<!-- Node5 -->
<g id="Node000005" class="node">
<title>Node5</title>
<g id="a_Node000005"><a xlink:href="classUnit.html#a67095c70ac3cc853e32e1b9d17c4bab7" target="_top" xlink:title=" ">
<polygon fill="white" stroke="#666666" points="928.5,-317 823.5,-317 823.5,-298 928.5,-298 928.5,-317"/>
<text text-anchor="middle" x="876" y="-305" font-family="Helvetica,sans-Serif" font-size="10.00">Unit::getUnitFlags</text>
</a>
</g>
</g>
<!-- Node4&#45;&gt;Node5 -->
<g id="edge4_Node000004_Node000005" class="edge">
<title>Node4&#45;&gt;Node5</title>
<g id="a_edge4_Node000004_Node000005"><a xlink:title=" ">
<path fill="none" stroke="#63b8ff" d="M746.84,-307.5C767.65,-307.5 791.69,-307.5 813.29,-307.5"/>
<polygon fill="#63b8ff" stroke="#63b8ff" points="813.34,-311 823.34,-307.5 813.34,-304 813.34,-311"/>
</a>
</g>
</g>
<!-- Node7 -->
<g id="Node000007" class="node">
<title>Node7</title>
<g id="a_Node000007"><a xlink:href="classUnit.html#a887727aa4db30d7fee65b72961457abf" target="_top" xlink:title=" ">
<polygon fill="white" stroke="#666666" points="928,-354 824,-354 824,-335 928,-335 928,-354"/>
<text text-anchor="middle" x="876" y="-342" font-family="Helvetica,sans-Serif" font-size="10.00">Unit::setUnitFlags</text>
</a>
</g>
</g>
<!-- Node4&#45;&gt;Node7 -->
<g id="edge6_Node000004_Node000007" class="edge">
<title>Node4&#45;&gt;Node7</title>
<g id="a_edge6_Node000004_Node000007"><a xlink:title=" ">
<path fill="none" stroke="#63b8ff" d="M740.61,-317.03C764.27,-321.86 793.21,-327.78 818.17,-332.88"/>
<polygon fill="#63b8ff" stroke="#63b8ff" points="817.73,-336.37 828.23,-334.94 819.14,-329.51 817.73,-336.37"/>
</a>
</g>
</g>
<!-- Node6 -->
<g id="Node000006" class="node">
<title>Node6</title>
<g id="a_Node000006"><a xlink:href="classUnit.html#a2b80af47340ac01ca2031723f37e839a" target="_top" xlink:title=" ">
<polygon fill="white" stroke="#666666" points="1063,-317 978,-317 978,-298 1063,-298 1063,-317"/>
<text text-anchor="middle" x="1020.5" y="-305" font-family="Helvetica,sans-Serif" font-size="10.00">Unit::unitData</text>
</a>
</g>
</g>
<!-- Node5&#45;&gt;Node6 -->
<g id="edge5_Node000005_Node000006" class="edge">
<title>Node5&#45;&gt;Node6</title>
<g id="a_edge5_Node000005_Node000006"><a xlink:title=" ">
<path fill="none" stroke="#63b8ff" d="M928.85,-307.5C941.41,-307.5 954.84,-307.5 967.41,-307.5"/>
<polygon fill="#63b8ff" stroke="#63b8ff" points="967.72,-311 977.72,-307.5 967.72,-304 967.72,-311"/>
</a>
</g>
</g>
<!-- Node7&#45;&gt;Node6 -->
<g id="edge7_Node000007_Node000006" class="edge">
<title>Node7&#45;&gt;Node6</title>
<g id="a_edge7_Node000007_Node000006"><a xlink:title=" ">
<path fill="none" stroke="#63b8ff" d="M913.7,-334.97C931.67,-330.3 953.52,-324.63 972.69,-319.65"/>
<polygon fill="#63b8ff" stroke="#63b8ff" points="973.63,-323.03 982.43,-317.12 971.87,-316.25 973.63,-323.03"/>
</a>
</g>
</g>
<!-- Node8 -->
<g id="Node000008" class="node">
<title>Node8</title>
<g id="a_Node000008"><a xlink:href="classObject.html#a8b600efb87d19216b881a2451ce3629f" target="_top" xlink:title=" ">
<polygon fill="white" stroke="#666666" points="1060,-354 981,-354 981,-335 1060,-335 1060,-354"/>
<text text-anchor="middle" x="1020.5" y="-342" font-family="Helvetica,sans-Serif" font-size="10.00">Object::write</text>
</a>
</g>
</g>
<!-- Node7&#45;&gt;Node8 -->
<g id="edge8_Node000007_Node000008" class="edge">
<title>Node7&#45;&gt;Node8</title>
<g id="a_edge8_Node000007_Node000008"><a xlink:title=" ">
<path fill="none" stroke="#63b8ff" d="M928.04,-344.5C941.92,-344.5 956.9,-344.5 970.65,-344.5"/>
<polygon fill="#63b8ff" stroke="#63b8ff" points="970.89,-348 980.89,-344.5 970.89,-341 970.89,-348"/>
</a>
</g>
</g>
<!-- Node9 -->
<g id="Node000009" class="node">
<title>Node9</title>
<g id="a_Node000009"><a xlink:href="classUpdateMask.html#aaf858dd57840b7228abe64c6376d1c89" target="_top" xlink:title=" ">
<polygon fill="white" stroke="#666666" points="1215,-373 1102,-373 1102,-354 1215,-354 1215,-373"/>
<text text-anchor="middle" x="1158.5" y="-361" font-family="Helvetica,sans-Serif" font-size="10.00">UpdateMask::SetBit</text>
</a>
</g>
</g>
<!-- Node8&#45;&gt;Node9 -->
<g id="edge9_Node000008_Node000009" class="edge">
<title>Node8&#45;&gt;Node9</title>
<g id="a_edge9_Node000008_Node000009"><a xlink:title=" ">
<path fill="none" stroke="#63b8ff" d="M1060.11,-349.89C1070.03,-351.28 1080.98,-352.81 1091.86,-354.33"/>
<polygon fill="#63b8ff" stroke="#63b8ff" points="1091.4,-357.8 1101.79,-355.72 1092.37,-350.87 1091.4,-357.8"/>
</a>
</g>
</g>
<!-- Node10 -->
<g id="Node000010" class="node">
<title>Node10</title>
<g id="a_Node000010"><a xlink:href="classObject.html#a796330249e8c0e5f7c2cf52715638620" target="_top" xlink:title=" ">
<polygon fill="white" stroke="#666666" points="1218,-336 1099,-336 1099,-317 1218,-317 1218,-336"/>
<text text-anchor="middle" x="1158.5" y="-324" font-family="Helvetica,sans-Serif" font-size="10.00">Object::updateObject</text>
</a>
</g>
</g>
<!-- Node8&#45;&gt;Node10 -->
<g id="edge10_Node000008_Node000010" class="edge">
<title>Node8&#45;&gt;Node10</title>
<g id="a_edge10_Node000008_Node000010"><a xlink:title=" ">
<path fill="none" stroke="#63b8ff" d="M1060.11,-339.39C1069.18,-338.19 1079.11,-336.87 1089.06,-335.56"/>
<polygon fill="#63b8ff" stroke="#63b8ff" points="1089.52,-339.03 1098.98,-334.25 1088.61,-332.09 1089.52,-339.03"/>
</a>
</g>
</g>
<!-- Node11 -->
<g id="Node000011" class="node">
<title>Node11</title>
<g id="a_Node000011"><a xlink:href="classObject.html#a3aeab7def818ba6c50249f197ad2f9ca" target="_top" xlink:title=" ">
<polygon fill="white" stroke="#666666" points="1375,-355 1276,-355 1276,-336 1375,-336 1375,-355"/>
<text text-anchor="middle" x="1325.5" y="-343" font-family="Helvetica,sans-Serif" font-size="10.00">Object::IsInWorld</text>
</a>
</g>
</g>
<!-- Node10&#45;&gt;Node11 -->
<g id="edge11_Node000010_Node000011" class="edge">
<title>Node10&#45;&gt;Node11</title>
<g id="a_edge11_Node000010_Node000011"><a xlink:title=" ">
<path fill="none" stroke="#63b8ff" d="M1218.14,-333.25C1233.64,-335.04 1250.37,-336.96 1265.87,-338.75"/>
<polygon fill="#63b8ff" stroke="#63b8ff" points="1265.52,-342.23 1275.85,-339.9 1266.32,-335.28 1265.52,-342.23"/>
</a>
</g>
</g>
<!-- Node12 -->
<g id="Node000012" class="node">
<title>Node12</title>
<g id="a_Node000012"><a xlink:href="classWorldMap.html#aabf61e8d556612e51b4e87a605d314bf" target="_top" xlink:title=" ">
<polygon fill="white" stroke="#666666" points="1397,-318 1254,-318 1254,-299 1397,-299 1397,-318"/>
<text text-anchor="middle" x="1325.5" y="-306" font-family="Helvetica,sans-Serif" font-size="10.00">WorldMap::objectUpdated</text>
</a>
</g>
</g>
<!-- Node10&#45;&gt;Node12 -->
<g id="edge12_Node000010_Node000012" class="edge">
<title>Node10&#45;&gt;Node12</title>
<g id="a_edge12_Node000010_Node000012"><a xlink:title=" ">
<path fill="none" stroke="#63b8ff" d="M1218.14,-320.1C1226.46,-319.2 1235.14,-318.25 1243.79,-317.31"/>
<polygon fill="#63b8ff" stroke="#63b8ff" points="1244.34,-320.77 1253.91,-316.2 1243.59,-313.81 1244.34,-320.77"/>
</a>
</g>
</g>
<!-- Node15 -->
<g id="Node000015" class="node">
<title>Node15</title>
<g id="a_Node000015"><a xlink:href="classObject.html#a0f6639fef4e90bc57ee1b34a81d6d489" target="_top" xlink:title=" ">
<polygon fill="white" stroke="#666666" points="739,-280 647,-280 647,-261 739,-261 739,-280"/>
<text text-anchor="middle" x="693" y="-268" font-family="Helvetica,sans-Serif" font-size="10.00">Object::getGuid</text>
</a>
</g>
</g>
<!-- Node14&#45;&gt;Node15 -->
<g id="edge16_Node000014_Node000015" class="edge">
<title>Node14&#45;&gt;Node15</title>
<g id="a_edge16_Node000014_Node000015"><a xlink:title=" ">
<path fill="none" stroke="#63b8ff" d="M565.69,-250.19C589.17,-253.96 614.81,-258.09 636.81,-261.63"/>
<polygon fill="#63b8ff" stroke="#63b8ff" points="636.54,-265.13 646.97,-263.26 637.65,-258.22 636.54,-265.13"/>
</a>
</g>
</g>
<!-- Node17 -->
<g id="Node000017" class="node">
<title>Node17</title>
<g id="a_Node000017"><a xlink:href="classObject.html#a6920adc38030f87e090b7ea7fe2230bb" target="_top" xlink:title=" ">
<polygon fill="white" stroke="#666666" points="774,-243 612,-243 612,-224 774,-224 774,-243"/>
<text text-anchor="middle" x="693" y="-231" font-family="Helvetica,sans-Serif" font-size="10.00">Object::getPlayerOwnerOrSelf</text>
</a>
</g>
</g>
<!-- Node14&#45;&gt;Node17 -->
<g id="edge18_Node000014_Node000017" class="edge">
<title>Node14&#45;&gt;Node17</title>
<g id="a_edge18_Node000014_Node000017"><a xlink:title=" ">
<path fill="none" stroke="#63b8ff" d="M565.69,-236.67C577.4,-236.38 589.64,-236.07 601.71,-235.77"/>
<polygon fill="#63b8ff" stroke="#63b8ff" points="601.87,-239.27 611.78,-235.52 601.7,-232.27 601.87,-239.27"/>
</a>
</g>
</g>
<!-- Node16 -->
<g id="Node000016" class="node">
<title>Node16</title>
<g id="a_Node000016"><a xlink:href="classObject.html#ae9814731421ab3e919a2e5c3b86e0eeb" target="_top" xlink:title=" ">
<polygon fill="white" stroke="#666666" points="929.5,-280 822.5,-280 822.5,-261 929.5,-261 929.5,-280"/>
<text text-anchor="middle" x="876" y="-268" font-family="Helvetica,sans-Serif" font-size="10.00">Object::objectData</text>
</a>
</g>
</g>
<!-- Node15&#45;&gt;Node16 -->
<g id="edge17_Node000015_Node000016" class="edge">
<title>Node15&#45;&gt;Node16</title>
<g id="a_edge17_Node000015_Node000016"><a xlink:title=" ">
<path fill="none" stroke="#63b8ff" d="M739.21,-270.5C761.29,-270.5 788.21,-270.5 812.25,-270.5"/>
<polygon fill="#63b8ff" stroke="#63b8ff" points="812.35,-274 822.35,-270.5 812.35,-267 812.35,-274"/>
</a>
</g>
</g>
<!-- Node17&#45;&gt;Node18 -->
<g id="edge19_Node000017_Node000018" class="edge">
<title>Node17&#45;&gt;Node18</title>
<g id="a_edge19_Node000017_Node000018"><a xlink:title=" ">
<path fill="none" stroke="#63b8ff" d="M774.18,-225.08C782.65,-224.19 791.24,-223.29 799.66,-222.41"/>
<polygon fill="#63b8ff" stroke="#63b8ff" points="800.23,-225.87 809.81,-221.34 799.5,-218.91 800.23,-225.87"/>
</a>
</g>
</g>
<!-- Node24 -->
<g id="Node000024" class="node">
<title>Node24</title>
<g id="a_Node000024"><a xlink:href="classObject.html#aaee2ed63355af5e632aba82f859822b4" target="_top" xlink:title=" ">
<polygon fill="white" stroke="#666666" points="558.5,-38 425.5,-38 425.5,-19 558.5,-19 558.5,-38"/>
<text text-anchor="middle" x="492" y="-26" font-family="Helvetica,sans-Serif" font-size="10.00">Object::getObjectTypeId</text>
</a>
</g>
</g>
<!-- Node23&#45;&gt;Node24 -->
<g id="edge27_Node000023_Node000024" class="edge">
<title>Node23&#45;&gt;Node24</title>
<g id="a_edge27_Node000023_Node000024"><a xlink:title=" ">
<path fill="none" stroke="#63b8ff" d="M338.21,-41.98C361.55,-39.92 389.66,-37.44 415.36,-35.17"/>
<polygon fill="#63b8ff" stroke="#63b8ff" points="415.8,-38.65 425.45,-34.28 415.18,-31.68 415.8,-38.65"/>
</a>
</g>
</g>
<!-- Node25&#45;&gt;Node24 -->
<g id="edge29_Node000025_Node000024" class="edge">
<title>Node25&#45;&gt;Node24</title>
<g id="a_edge29_Node000025_Node000024"><a xlink:title=" ">
<path fill="none" stroke="#63b8ff" d="M332.53,-13.74C356.9,-16.01 387.54,-18.86 415.38,-21.46"/>
<polygon fill="#63b8ff" stroke="#63b8ff" points="415.21,-24.96 425.49,-22.4 415.86,-17.99 415.21,-24.96"/>
</a>
</g>
</g>
</g>
</svg>
