<?xml version="1.0" encoding="UTF-8" standalone="no"?>
<!DOCTYPE svg PUBLIC "-//W3C//DTD SVG 1.1//EN"
 "http://www.w3.org/Graphics/SVG/1.1/DTD/svg11.dtd">
<!-- Generated by graphviz version 2.43.0 (0)
 -->
<!-- Title: G3D::CollisionDetection::isPointInsideTriangle Pages: 1 -->
<svg width="1214pt" height="221pt"
 viewBox="0.00 0.00 1214.00 221.00" xmlns="http://www.w3.org/2000/svg" xmlns:xlink="http://www.w3.org/1999/xlink">
<g id="graph0" class="graph" transform="scale(1 1) rotate(0) translate(4 217)">
<title>G3D::CollisionDetection::isPointInsideTriangle</title>
<!-- Node1 -->
<g id="Node000001" class="node">
<title>Node1</title>
<g id="a_Node000001"><a xlink:title=" ">
<polygon fill="#999999" stroke="#666666" points="1206,-121.5 1073,-121.5 1073,-91.5 1206,-91.5 1206,-121.5"/>
<text text-anchor="start" x="1081" y="-109.5" font-family="Helvetica,sans-Serif" font-size="10.00">G3D::CollisionDetection</text>
<text text-anchor="middle" x="1139.5" y="-98.5" font-family="Helvetica,sans-Serif" font-size="10.00">::isPointInsideTriangle</text>
</a>
</g>
</g>
<!-- Node2 -->
<g id="Node000002" class="node">
<title>Node2</title>
<g id="a_Node000002"><a xlink:href="classG3D_1_1CollisionDetection.html#af7ec68564513142c726a15fa469c56ac" target="_top" xlink:title=" ">
<polygon fill="white" stroke="#666666" points="1037,-213 864,-213 864,-172 1037,-172 1037,-213"/>
<text text-anchor="start" x="872" y="-201" font-family="Helvetica,sans-Serif" font-size="10.00">G3D::CollisionDetection</text>
<text text-anchor="start" x="872" y="-190" font-family="Helvetica,sans-Serif" font-size="10.00">::collisionTimeForMovingSphere</text>
<text text-anchor="middle" x="950.5" y="-179" font-family="Helvetica,sans-Serif" font-size="10.00">FixedTriangle</text>
</a>
</g>
</g>
<!-- Node1&#45;&gt;Node2 -->
<g id="edge1_Node000001_Node000002" class="edge">
<title>Node1&#45;&gt;Node2</title>
<g id="a_edge1_Node000001_Node000002"><a xlink:title=" ">
<path fill="none" stroke="#63b8ff" d="M1105.76,-126.93C1086.25,-138.58 1060.74,-152.92 1037,-163.5 1030.41,-166.44 1023.44,-169.25 1016.42,-171.9"/>
<polygon fill="#63b8ff" stroke="#63b8ff" points="1107.79,-129.79 1114.54,-121.62 1104.17,-123.8 1107.79,-129.79"/>
</a>
</g>
</g>
<!-- Node3 -->
<g id="Node000003" class="node">
<title>Node3</title>
<g id="a_Node000003"><a xlink:href="classG3D_1_1CollisionDetection.html#a3a7c529c5c4d4b6694dd1e9ab5f48d13" target="_top" xlink:title=" ">
<polygon fill="white" stroke="#666666" points="1026.5,-154 874.5,-154 874.5,-113 1026.5,-113 1026.5,-154"/>
<text text-anchor="start" x="882.5" y="-142" font-family="Helvetica,sans-Serif" font-size="10.00">G3D::CollisionDetection</text>
<text text-anchor="start" x="882.5" y="-131" font-family="Helvetica,sans-Serif" font-size="10.00">::fixedSolidSphereIntersects</text>
<text text-anchor="middle" x="950.5" y="-120" font-family="Helvetica,sans-Serif" font-size="10.00">FixedTriangle</text>
</a>
</g>
</g>
<!-- Node1&#45;&gt;Node3 -->
<g id="edge2_Node000001_Node000003" class="edge">
<title>Node1&#45;&gt;Node3</title>
<g id="a_edge2_Node000001_Node000003"><a xlink:title=" ">
<path fill="none" stroke="#63b8ff" d="M1062.9,-117.42C1050.93,-119.14 1038.55,-120.93 1026.6,-122.66"/>
<polygon fill="#63b8ff" stroke="#63b8ff" points="1063.44,-120.87 1072.83,-115.98 1062.44,-113.95 1063.44,-120.87"/>
</a>
</g>
</g>
<!-- Node4 -->
<g id="Node000004" class="node">
<title>Node4</title>
<g id="a_Node000004"><a xlink:href="classG3D_1_1CollisionDetection.html#a635193417d861b4dc49cc896cad65a8a" target="_top" xlink:title=" ">
<polygon fill="white" stroke="#666666" points="1017.5,-94.5 883.5,-94.5 883.5,-64.5 1017.5,-64.5 1017.5,-94.5"/>
<text text-anchor="start" x="891.5" y="-82.5" font-family="Helvetica,sans-Serif" font-size="10.00">G3D::CollisionDetection</text>
<text text-anchor="middle" x="950.5" y="-71.5" font-family="Helvetica,sans-Serif" font-size="10.00">::isPointInsideRectangle</text>
</a>
</g>
</g>
<!-- Node1&#45;&gt;Node4 -->
<g id="edge3_Node000001_Node000004" class="edge">
<title>Node1&#45;&gt;Node4</title>
<g id="a_edge3_Node000001_Node000004"><a xlink:title=" ">
<path fill="none" stroke="#63b8ff" d="M1062.63,-95.55C1047.72,-93.39 1032.2,-91.15 1017.64,-89.05"/>
<polygon fill="#63b8ff" stroke="#63b8ff" points="1062.44,-99.05 1072.83,-97.02 1063.44,-92.13 1062.44,-99.05"/>
</a>
</g>
</g>
<!-- Node13 -->
<g id="Node000013" class="node">
<title>Node13</title>
<g id="a_Node000013"><a xlink:href="classG3D_1_1CollisionDetection.html#aff9474ec6c0080c4614c83c1e102d057" target="_top" xlink:title=" ">
<polygon fill="white" stroke="#666666" points="1017,-46.5 884,-46.5 884,-16.5 1017,-16.5 1017,-46.5"/>
<text text-anchor="start" x="892" y="-34.5" font-family="Helvetica,sans-Serif" font-size="10.00">G3D::CollisionDetection</text>
<text text-anchor="middle" x="950.5" y="-23.5" font-family="Helvetica,sans-Serif" font-size="10.00">::isPointInsideTriangle</text>
</a>
</g>
</g>
<!-- Node1&#45;&gt;Node13 -->
<g id="edge14_Node000001_Node000013" class="edge">
<title>Node1&#45;&gt;Node13</title>
<g id="a_edge14_Node000001_Node000013"><a xlink:title=" ">
<path fill="none" stroke="#63b8ff" d="M1103.04,-86.58C1083.89,-76.36 1059.6,-64.26 1037,-55.5 1028.66,-52.27 1019.71,-49.27 1010.86,-46.56"/>
<polygon fill="#63b8ff" stroke="#63b8ff" points="1101.54,-89.74 1112,-91.42 1104.87,-83.58 1101.54,-89.74"/>
</a>
</g>
</g>
<!-- Node5 -->
<g id="Node000005" class="node">
<title>Node5</title>
<g id="a_Node000005"><a xlink:href="classG3D_1_1CollisionDetection.html#a68bc126ff8547c423229450e90755403" target="_top" xlink:title=" ">
<polygon fill="white" stroke="#666666" points="816.5,-94.5 675.5,-94.5 675.5,-64.5 816.5,-64.5 816.5,-94.5"/>
<text text-anchor="start" x="683.5" y="-82.5" font-family="Helvetica,sans-Serif" font-size="10.00">G3D::CollisionDetection</text>
<text text-anchor="middle" x="746" y="-71.5" font-family="Helvetica,sans-Serif" font-size="10.00">::closestPointToRectangle</text>
</a>
</g>
</g>
<!-- Node4&#45;&gt;Node5 -->
<g id="edge4_Node000004_Node000005" class="edge">
<title>Node4&#45;&gt;Node5</title>
<g id="a_edge4_Node000004_Node000005"><a xlink:title=" ">
<path fill="none" stroke="#63b8ff" d="M873.31,-79.5C854.76,-79.5 835.01,-79.5 816.77,-79.5"/>
<polygon fill="#63b8ff" stroke="#63b8ff" points="873.47,-83 883.47,-79.5 873.47,-76 873.47,-83"/>
</a>
</g>
</g>
<!-- Node9 -->
<g id="Node000009" class="node">
<title>Node9</title>
<g id="a_Node000009"><a xlink:href="classG3D_1_1CollisionDetection.html#ade433cc64c91539d1bd681d1e3019b67" target="_top" xlink:title=" ">
<polygon fill="white" stroke="#666666" points="828,-44 664,-44 664,-3 828,-3 828,-44"/>
<text text-anchor="start" x="672" y="-32" font-family="Helvetica,sans-Serif" font-size="10.00">G3D::CollisionDetection</text>
<text text-anchor="start" x="672" y="-21" font-family="Helvetica,sans-Serif" font-size="10.00">::collisionTimeForMovingPoint</text>
<text text-anchor="middle" x="746" y="-10" font-family="Helvetica,sans-Serif" font-size="10.00">FixedRectangle</text>
</a>
</g>
</g>
<!-- Node4&#45;&gt;Node9 -->
<g id="edge9_Node000004_Node000009" class="edge">
<title>Node4&#45;&gt;Node9</title>
<g id="a_edge9_Node000004_Node000009"><a xlink:title=" ">
<path fill="none" stroke="#63b8ff" d="M885.42,-61.78C865.02,-56.14 842.27,-49.85 821.21,-44.02"/>
<polygon fill="#63b8ff" stroke="#63b8ff" points="884.66,-65.2 895.23,-64.49 886.53,-58.45 884.66,-65.2"/>
</a>
</g>
</g>
<!-- Node12 -->
<g id="Node000012" class="node">
<title>Node12</title>
<g id="a_Node000012"><a xlink:href="classG3D_1_1CollisionDetection.html#a1eff10d6fb9ec8e7998b03ce397b6700" target="_top" xlink:title=" ">
<polygon fill="white" stroke="#666666" points="628,-159 455,-159 455,-118 628,-118 628,-159"/>
<text text-anchor="start" x="463" y="-147" font-family="Helvetica,sans-Serif" font-size="10.00">G3D::CollisionDetection</text>
<text text-anchor="start" x="463" y="-136" font-family="Helvetica,sans-Serif" font-size="10.00">::collisionTimeForMovingSphere</text>
<text text-anchor="middle" x="541.5" y="-125" font-family="Helvetica,sans-Serif" font-size="10.00">FixedRectangle</text>
</a>
</g>
</g>
<!-- Node4&#45;&gt;Node12 -->
<g id="edge12_Node000004_Node000012" class="edge">
<title>Node4&#45;&gt;Node12</title>
<g id="a_edge12_Node000004_Node000012"><a xlink:title=" ">
<path fill="none" stroke="#63b8ff" d="M873.21,-95.45C858.26,-98.33 842.66,-101.16 828,-103.5 761.18,-114.18 685.11,-123.36 628.31,-129.64"/>
<polygon fill="#63b8ff" stroke="#63b8ff" points="874.3,-98.81 883.45,-93.46 872.96,-91.94 874.3,-98.81"/>
</a>
</g>
</g>
<!-- Node6 -->
<g id="Node000006" class="node">
<title>Node6</title>
<g id="a_Node000006"><a xlink:href="classG3D_1_1CollisionDetection.html#a3e586ebc3a3b046ae3e3b21e57c8e9fa" target="_top" xlink:title=" ">
<polygon fill="white" stroke="#666666" points="617.5,-100 465.5,-100 465.5,-59 617.5,-59 617.5,-100"/>
<text text-anchor="start" x="473.5" y="-88" font-family="Helvetica,sans-Serif" font-size="10.00">G3D::CollisionDetection</text>
<text text-anchor="start" x="473.5" y="-77" font-family="Helvetica,sans-Serif" font-size="10.00">::fixedSolidSphereIntersects</text>
<text text-anchor="middle" x="541.5" y="-66" font-family="Helvetica,sans-Serif" font-size="10.00">FixedSolidBox</text>
</a>
</g>
</g>
<!-- Node5&#45;&gt;Node6 -->
<g id="edge5_Node000005_Node000006" class="edge">
<title>Node5&#45;&gt;Node6</title>
<g id="a_edge5_Node000005_Node000006"><a xlink:title=" ">
<path fill="none" stroke="#63b8ff" d="M665.12,-79.5C649.43,-79.5 633.03,-79.5 617.51,-79.5"/>
<polygon fill="#63b8ff" stroke="#63b8ff" points="665.31,-83 675.31,-79.5 665.31,-76 665.31,-83"/>
</a>
</g>
</g>
<!-- Node7 -->
<g id="Node000007" class="node">
<title>Node7</title>
<g id="a_Node000007"><a xlink:href="classG3D_1_1CollisionDetection.html#a248799ae911a8ac8a91e0356db61ab8b" target="_top" xlink:title=" ">
<polygon fill="white" stroke="#666666" points="419,-149 246,-149 246,-108 419,-108 419,-149"/>
<text text-anchor="start" x="254" y="-137" font-family="Helvetica,sans-Serif" font-size="10.00">G3D::CollisionDetection</text>
<text text-anchor="start" x="254" y="-126" font-family="Helvetica,sans-Serif" font-size="10.00">::collisionTimeForMovingSphere</text>
<text text-anchor="middle" x="332.5" y="-115" font-family="Helvetica,sans-Serif" font-size="10.00">FixedBox</text>
</a>
</g>
</g>
<!-- Node6&#45;&gt;Node7 -->
<g id="edge6_Node000006_Node000007" class="edge">
<title>Node6&#45;&gt;Node7</title>
<g id="a_edge6_Node000006_Node000007"><a xlink:title=" ">
<path fill="none" stroke="#63b8ff" d="M455.49,-99.62C443.5,-102.46 431.16,-105.38 419.15,-108.22"/>
<polygon fill="#63b8ff" stroke="#63b8ff" points="456.55,-102.97 465.48,-97.26 454.94,-96.16 456.55,-102.97"/>
</a>
</g>
</g>
<!-- Node8 -->
<g id="Node000008" class="node">
<title>Node8</title>
<g id="a_Node000008"><a xlink:href="classG3D_1_1CollisionDetection.html#a12fd66553c91794f06f6bde43f8adc19" target="_top" xlink:title=" ">
<polygon fill="white" stroke="#666666" points="210,-118.5 0,-118.5 0,-88.5 210,-88.5 210,-118.5"/>
<text text-anchor="start" x="8" y="-106.5" font-family="Helvetica,sans-Serif" font-size="10.00">G3D::CollisionDetection</text>
<text text-anchor="middle" x="105" y="-95.5" font-family="Helvetica,sans-Serif" font-size="10.00">::movingSpherePassesThroughFixedBox</text>
</a>
</g>
</g>
<!-- Node6&#45;&gt;Node8 -->
<g id="edge8_Node000006_Node000008" class="edge">
<title>Node6&#45;&gt;Node8</title>
<g id="a_edge8_Node000006_Node000008"><a xlink:title=" ">
<path fill="none" stroke="#63b8ff" d="M455.18,-84.21C385,-88.09 285.27,-93.6 210.35,-97.74"/>
<polygon fill="#63b8ff" stroke="#63b8ff" points="455.52,-87.7 465.31,-83.65 455.13,-80.71 455.52,-87.7"/>
</a>
</g>
</g>
<!-- Node7&#45;&gt;Node8 -->
<g id="edge7_Node000007_Node000008" class="edge">
<title>Node7&#45;&gt;Node8</title>
<g id="a_edge7_Node000007_Node000008"><a xlink:title=" ">
<path fill="none" stroke="#63b8ff" d="M235.96,-117.91C227.4,-116.96 218.71,-116 210.09,-115.04"/>
<polygon fill="#63b8ff" stroke="#63b8ff" points="235.6,-121.39 245.93,-119.01 236.37,-114.43 235.6,-121.39"/>
</a>
</g>
</g>
<!-- Node10 -->
<g id="Node000010" class="node">
<title>Node10</title>
<g id="a_Node000010"><a xlink:href="classG3D_1_1CollisionDetection.html#a5e57cc3a0bbce076c8b5459ca92b968a" target="_top" xlink:title=" ">
<polygon fill="white" stroke="#666666" points="623.5,-41 459.5,-41 459.5,0 623.5,0 623.5,-41"/>
<text text-anchor="start" x="467.5" y="-29" font-family="Helvetica,sans-Serif" font-size="10.00">G3D::CollisionDetection</text>
<text text-anchor="start" x="467.5" y="-18" font-family="Helvetica,sans-Serif" font-size="10.00">::collisionTimeForMovingPoint</text>
<text text-anchor="middle" x="541.5" y="-7" font-family="Helvetica,sans-Serif" font-size="10.00">FixedBox</text>
</a>
</g>
</g>
<!-- Node9&#45;&gt;Node10 -->
<g id="edge10_Node000009_Node000010" class="edge">
<title>Node9&#45;&gt;Node10</title>
<g id="a_edge10_Node000009_Node000010"><a xlink:title=" ">
<path fill="none" stroke="#63b8ff" d="M653.51,-22.14C643.58,-22 633.52,-21.85 623.72,-21.7"/>
<polygon fill="#63b8ff" stroke="#63b8ff" points="653.75,-25.65 663.8,-22.3 653.86,-18.65 653.75,-25.65"/>
</a>
</g>
</g>
<!-- Node11 -->
<g id="Node000011" class="node">
<title>Node11</title>
<g id="a_Node000011"><a xlink:href="classG3D_1_1Ray.html#a00fd2cc3ccc83077c501dced72522484" target="_top" xlink:title=" ">
<polygon fill="white" stroke="#666666" points="407.5,-30 257.5,-30 257.5,-11 407.5,-11 407.5,-30"/>
<text text-anchor="middle" x="332.5" y="-18" font-family="Helvetica,sans-Serif" font-size="10.00">G3D::Ray::intersectionTime</text>
</a>
</g>
</g>
<!-- Node10&#45;&gt;Node11 -->
<g id="edge11_Node000010_Node000011" class="edge">
<title>Node10&#45;&gt;Node11</title>
<g id="a_edge11_Node000010_Node000011"><a xlink:title=" ">
<path fill="none" stroke="#63b8ff" d="M449.25,-20.5C435.37,-20.5 421.2,-20.5 407.74,-20.5"/>
<polygon fill="#63b8ff" stroke="#63b8ff" points="449.28,-24 459.28,-20.5 449.28,-17 449.28,-24"/>
</a>
</g>
</g>
<!-- Node12&#45;&gt;Node7 -->
<g id="edge13_Node000012_Node000007" class="edge">
<title>Node12&#45;&gt;Node7</title>
<g id="a_edge13_Node000012_Node000007"><a xlink:title=" ">
<path fill="none" stroke="#63b8ff" d="M444.8,-133.88C436.24,-133.46 427.6,-133.05 419.12,-132.64"/>
<polygon fill="#63b8ff" stroke="#63b8ff" points="444.65,-137.37 454.81,-134.36 444.99,-130.38 444.65,-137.37"/>
</a>
</g>
</g>
</g>
</svg>
