<?xml version="1.0" encoding="UTF-8" standalone="no"?>
<!DOCTYPE svg PUBLIC "-//W3C//DTD SVG 1.1//EN"
 "http://www.w3.org/Graphics/SVG/1.1/DTD/svg11.dtd">
<!-- Generated by graphviz version 2.43.0 (0)
 -->
<!-- Title: Undead2AI::OnDespawn Pages: 1 -->
<svg width="901pt" height="300pt"
 viewBox="0.00 0.00 901.00 300.00" xmlns="http://www.w3.org/2000/svg" xmlns:xlink="http://www.w3.org/1999/xlink">
<g id="graph0" class="graph" transform="scale(1 1) rotate(0) translate(4 296)">
<title>Undead2AI::OnDespawn</title>
<!-- Node1 -->
<g id="Node000001" class="node">
<title>Node1</title>
<g id="a_Node000001"><a xlink:title=" ">
<polygon fill="#999999" stroke="#666666" points="134,-215 0,-215 0,-196 134,-196 134,-215"/>
<text text-anchor="middle" x="67" y="-203" font-family="Helvetica,sans-Serif" font-size="10.00">Undead2AI::OnDespawn</text>
</a>
</g>
</g>
<!-- Node2 -->
<g id="Node000002" class="node">
<title>Node2</title>
<g id="a_Node000002"><a xlink:href="classUnit.html#a0dae38077fd2ab3a5da5ad5433f67e5f" target="_top" xlink:title=" ">
<polygon fill="white" stroke="#666666" points="293.5,-274 206.5,-274 206.5,-255 293.5,-255 293.5,-274"/>
<text text-anchor="middle" x="250" y="-262" font-family="Helvetica,sans-Serif" font-size="10.00">Unit::castSpell</text>
</a>
</g>
</g>
<!-- Node1&#45;&gt;Node2 -->
<g id="edge1_Node000001_Node000002" class="edge">
<title>Node1&#45;&gt;Node2</title>
<g id="a_edge1_Node000001_Node000002"><a xlink:title=" ">
<path fill="none" stroke="#63b8ff" d="M89.13,-215.14C109.52,-224.16 141.4,-237.56 170,-246.5 178.49,-249.15 187.6,-251.59 196.51,-253.77"/>
<polygon fill="#63b8ff" stroke="#63b8ff" points="195.91,-257.22 206.44,-256.1 197.51,-250.4 195.91,-257.22"/>
</a>
</g>
</g>
<!-- Node3 -->
<g id="Node000003" class="node">
<title>Node3</title>
<g id="a_Node000003"><a xlink:href="classCreatureAIScript.html#a971bb1373556b3ec594d8f7ba5f5e6e6" target="_top" xlink:title=" ">
<polygon fill="white" stroke="#666666" points="330,-237 170,-237 170,-218 330,-218 330,-237"/>
<text text-anchor="middle" x="250" y="-225" font-family="Helvetica,sans-Serif" font-size="10.00">CreatureAIScript::getCreature</text>
</a>
</g>
</g>
<!-- Node1&#45;&gt;Node3 -->
<g id="edge3_Node000001_Node000003" class="edge">
<title>Node1&#45;&gt;Node3</title>
<g id="a_edge3_Node000001_Node000003"><a xlink:title=" ">
<path fill="none" stroke="#63b8ff" d="M134.11,-213.54C142.77,-214.59 151.75,-215.68 160.7,-216.77"/>
<polygon fill="#63b8ff" stroke="#63b8ff" points="160.43,-220.26 170.78,-217.99 161.27,-213.31 160.43,-220.26"/>
</a>
</g>
</g>
<!-- Node4 -->
<g id="Node000004" class="node">
<title>Node4</title>
<g id="a_Node000004"><a xlink:href="classCreatureAIScript.html#a1b1859463c4776791e89010eb424c0f9" target="_top" xlink:title=" ">
<polygon fill="white" stroke="#666666" points="321.5,-199.5 178.5,-199.5 178.5,-169.5 321.5,-169.5 321.5,-199.5"/>
<text text-anchor="start" x="186.5" y="-187.5" font-family="Helvetica,sans-Serif" font-size="10.00">CreatureAIScript::Remove</text>
<text text-anchor="middle" x="250" y="-176.5" font-family="Helvetica,sans-Serif" font-size="10.00">AIUpdateEvent</text>
</a>
</g>
</g>
<!-- Node1&#45;&gt;Node4 -->
<g id="edge4_Node000001_Node000004" class="edge">
<title>Node1&#45;&gt;Node4</title>
<g id="a_edge4_Node000001_Node000004"><a xlink:title=" ">
<path fill="none" stroke="#63b8ff" d="M134.11,-197.83C145.28,-196.53 156.99,-195.18 168.48,-193.84"/>
<polygon fill="#63b8ff" stroke="#63b8ff" points="168.97,-197.31 178.5,-192.68 168.16,-190.36 168.97,-197.31"/>
</a>
</g>
</g>
<!-- Node9 -->
<g id="Node000009" class="node">
<title>Node9</title>
<g id="a_Node000009"><a xlink:href="classUnit.html#ac2f0c02f68ae1decbafd14b0a6cc402e" target="_top" xlink:title=" ">
<polygon fill="white" stroke="#666666" points="316,-142 184,-142 184,-123 316,-123 316,-142"/>
<text text-anchor="middle" x="250" y="-130" font-family="Helvetica,sans-Serif" font-size="10.00">Unit::sendChatMessage</text>
</a>
</g>
</g>
<!-- Node1&#45;&gt;Node9 -->
<g id="edge9_Node000001_Node000009" class="edge">
<title>Node1&#45;&gt;Node9</title>
<g id="a_edge9_Node000001_Node000009"><a xlink:title=" ">
<path fill="none" stroke="#63b8ff" d="M88.52,-195.91C108.98,-186.47 141.4,-171.86 170,-160.5 183.15,-155.28 197.7,-149.98 210.7,-145.43"/>
<polygon fill="#63b8ff" stroke="#63b8ff" points="211.99,-148.68 220.29,-142.1 209.69,-142.07 211.99,-148.68"/>
</a>
</g>
</g>
<!-- Node2&#45;&gt;Node2 -->
<g id="edge2_Node000002_Node000002" class="edge">
<title>Node2&#45;&gt;Node2</title>
<g id="a_edge2_Node000002_Node000002"><a xlink:title=" ">
<path fill="none" stroke="#63b8ff" d="M221.95,-274.08C208.3,-282.73 217.65,-292 250,-292 272.24,-292 283.61,-287.62 284.11,-282.07"/>
<polygon fill="#63b8ff" stroke="#63b8ff" points="286.88,-279.94 278.05,-274.08 281.3,-284.17 286.88,-279.94"/>
</a>
</g>
</g>
<!-- Node5 -->
<g id="Node000005" class="node">
<title>Node5</title>
<g id="a_Node000005"><a xlink:href="classCreatureAIScript.html#ac34016d2eba45757e62c2b086662924b" target="_top" xlink:title=" ">
<polygon fill="white" stroke="#666666" points="490.5,-217.5 388.5,-217.5 388.5,-187.5 490.5,-187.5 490.5,-217.5"/>
<text text-anchor="start" x="396.5" y="-205.5" font-family="Helvetica,sans-Serif" font-size="10.00">CreatureAIScript::</text>
<text text-anchor="middle" x="439.5" y="-194.5" font-family="Helvetica,sans-Serif" font-size="10.00">_removeTimer</text>
</a>
</g>
</g>
<!-- Node4&#45;&gt;Node5 -->
<g id="edge5_Node000004_Node000005" class="edge">
<title>Node4&#45;&gt;Node5</title>
<g id="a_edge5_Node000004_Node000005"><a xlink:title=" ">
<path fill="none" stroke="#63b8ff" d="M321.62,-191.28C340.28,-193.07 360.24,-194.99 378.29,-196.72"/>
<polygon fill="#63b8ff" stroke="#63b8ff" points="378.09,-200.22 388.38,-197.69 378.76,-193.25 378.09,-200.22"/>
</a>
</g>
</g>
<!-- Node6 -->
<g id="Node000006" class="node">
<title>Node6</title>
<g id="a_Node000006"><a xlink:href="classCreatureAIScript.html#a6e3fced499a84b9cb1a1c9a6dfa60b7a" target="_top" xlink:title=" ">
<polygon fill="white" stroke="#666666" points="708,-227.5 549,-227.5 549,-197.5 708,-197.5 708,-227.5"/>
<text text-anchor="start" x="557" y="-215.5" font-family="Helvetica,sans-Serif" font-size="10.00">CreatureAIScript::getInstance</text>
<text text-anchor="middle" x="628.5" y="-204.5" font-family="Helvetica,sans-Serif" font-size="10.00">Script</text>
</a>
</g>
</g>
<!-- Node5&#45;&gt;Node6 -->
<g id="edge6_Node000005_Node000006" class="edge">
<title>Node5&#45;&gt;Node6</title>
<g id="a_edge6_Node000005_Node000006"><a xlink:title=" ">
<path fill="none" stroke="#63b8ff" d="M490.61,-205.18C505.4,-205.97 522.04,-206.86 538.49,-207.74"/>
<polygon fill="#63b8ff" stroke="#63b8ff" points="538.52,-211.25 548.7,-208.29 538.9,-204.26 538.52,-211.25"/>
</a>
</g>
</g>
<!-- Node7 -->
<g id="Node000007" class="node">
<title>Node7</title>
<g id="a_Node000007"><a xlink:href="classWorldMap.html#a4af3c5d2b3b7bf0b3bfc5c3b92aa3c90" target="_top" xlink:title=" ">
<polygon fill="white" stroke="#666666" points="876,-256 761,-256 761,-237 876,-237 876,-256"/>
<text text-anchor="middle" x="818.5" y="-244" font-family="Helvetica,sans-Serif" font-size="10.00">WorldMap::getScript</text>
</a>
</g>
</g>
<!-- Node6&#45;&gt;Node7 -->
<g id="edge7_Node000006_Node000007" class="edge">
<title>Node6&#45;&gt;Node7</title>
<g id="a_edge7_Node000006_Node000007"><a xlink:title=" ">
<path fill="none" stroke="#63b8ff" d="M708.14,-226.72C723.67,-229.53 739.78,-232.44 754.71,-235.14"/>
<polygon fill="#63b8ff" stroke="#63b8ff" points="754.36,-238.64 764.83,-236.97 755.61,-231.75 754.36,-238.64"/>
</a>
</g>
</g>
<!-- Node8 -->
<g id="Node000008" class="node">
<title>Node8</title>
<g id="a_Node000008"><a xlink:href="classObject.html#a967af054c54b6d9846637ce8718efd75" target="_top" xlink:title=" ">
<polygon fill="white" stroke="#666666" points="878,-219 759,-219 759,-200 878,-200 878,-219"/>
<text text-anchor="middle" x="818.5" y="-207" font-family="Helvetica,sans-Serif" font-size="10.00">Object::getWorldMap</text>
</a>
</g>
</g>
<!-- Node6&#45;&gt;Node8 -->
<g id="edge8_Node000006_Node000008" class="edge">
<title>Node6&#45;&gt;Node8</title>
<g id="a_edge8_Node000006_Node000008"><a xlink:title=" ">
<path fill="none" stroke="#63b8ff" d="M708.14,-211.25C721.56,-211.03 735.4,-210.81 748.55,-210.6"/>
<polygon fill="#63b8ff" stroke="#63b8ff" points="748.97,-214.09 758.91,-210.43 748.86,-207.09 748.97,-214.09"/>
</a>
</g>
</g>
<!-- Node10 -->
<g id="Node000010" class="node">
<title>Node10</title>
<g id="a_Node000010"><a xlink:href="classUnit.html#aaa7a603be82b75f4f095d7829485cdbc" target="_top" xlink:title=" ">
<polygon fill="white" stroke="#666666" points="503.5,-142 375.5,-142 375.5,-123 503.5,-123 503.5,-142"/>
<text text-anchor="middle" x="439.5" y="-130" font-family="Helvetica,sans-Serif" font-size="10.00">Unit::createChatPacket</text>
</a>
</g>
</g>
<!-- Node9&#45;&gt;Node10 -->
<g id="edge10_Node000009_Node000010" class="edge">
<title>Node9&#45;&gt;Node10</title>
<g id="a_edge10_Node000009_Node000010"><a xlink:title=" ">
<path fill="none" stroke="#63b8ff" d="M316.05,-132.5C331.99,-132.5 349.16,-132.5 365.45,-132.5"/>
<polygon fill="#63b8ff" stroke="#63b8ff" points="365.46,-136 375.46,-132.5 365.46,-129 365.46,-136"/>
</a>
</g>
</g>
<!-- Node18 -->
<g id="Node000018" class="node">
<title>Node18</title>
<g id="a_Node000018"><a xlink:href="classObject.html#afbafc0f687c733c81277b15e53c082c7" target="_top" xlink:title=" ">
<polygon fill="white" stroke="#666666" points="513,-56 366,-56 366,-37 513,-37 513,-56"/>
<text text-anchor="middle" x="439.5" y="-44" font-family="Helvetica,sans-Serif" font-size="10.00">Object::sendMessageToSet</text>
</a>
</g>
</g>
<!-- Node9&#45;&gt;Node18 -->
<g id="edge18_Node000009_Node000018" class="edge">
<title>Node9&#45;&gt;Node18</title>
<g id="a_edge18_Node000009_Node000018"><a xlink:title=" ">
<path fill="none" stroke="#63b8ff" d="M271.78,-122.97C305.01,-107.73 370.23,-77.81 408.51,-60.26"/>
<polygon fill="#63b8ff" stroke="#63b8ff" points="409.99,-63.43 417.62,-56.07 407.08,-57.06 409.99,-63.43"/>
</a>
</g>
</g>
<!-- Node11 -->
<g id="Node000011" class="node">
<title>Node11</title>
<g id="a_Node000011"><a xlink:href="classObject.html#a0f6639fef4e90bc57ee1b34a81d6d489" target="_top" xlink:title=" ">
<polygon fill="white" stroke="#666666" points="674.5,-179 582.5,-179 582.5,-160 674.5,-160 674.5,-179"/>
<text text-anchor="middle" x="628.5" y="-167" font-family="Helvetica,sans-Serif" font-size="10.00">Object::getGuid</text>
</a>
</g>
</g>
<!-- Node10&#45;&gt;Node11 -->
<g id="edge11_Node000010_Node000011" class="edge">
<title>Node10&#45;&gt;Node11</title>
<g id="a_edge11_Node000010_Node000011"><a xlink:title=" ">
<path fill="none" stroke="#63b8ff" d="M488.66,-142.03C514.28,-147.1 545.89,-153.35 572.48,-158.61"/>
<polygon fill="#63b8ff" stroke="#63b8ff" points="571.91,-162.07 582.4,-160.58 573.27,-155.2 571.91,-162.07"/>
</a>
</g>
</g>
<!-- Node13 -->
<g id="Node000013" class="node">
<title>Node13</title>
<g id="a_Node000013"><a xlink:href="classObject.html#ab65745f76d63eda49657413dccf0057d" target="_top" xlink:title=" ">
<polygon fill="white" stroke="#666666" points="675,-142 582,-142 582,-123 675,-123 675,-142"/>
<text text-anchor="middle" x="628.5" y="-130" font-family="Helvetica,sans-Serif" font-size="10.00">Object::isPlayer</text>
</a>
</g>
</g>
<!-- Node10&#45;&gt;Node13 -->
<g id="edge13_Node000010_Node000013" class="edge">
<title>Node10&#45;&gt;Node13</title>
<g id="a_edge13_Node000010_Node000013"><a xlink:title=" ">
<path fill="none" stroke="#63b8ff" d="M503.55,-132.5C525.6,-132.5 550.19,-132.5 571.61,-132.5"/>
<polygon fill="#63b8ff" stroke="#63b8ff" points="571.85,-136 581.85,-132.5 571.85,-129 571.85,-136"/>
</a>
</g>
</g>
<!-- Node15 -->
<g id="Node000015" class="node">
<title>Node15</title>
<g id="a_Node000015"><a xlink:href="classAscEmu_1_1Packets_1_1ManagedPacket.html#a935075449bc460e05a6d322f6b074909" target="_top" xlink:title=" ">
<polygon fill="white" stroke="#666666" points="703,-104.5 554,-104.5 554,-74.5 703,-74.5 703,-104.5"/>
<text text-anchor="start" x="562" y="-92.5" font-family="Helvetica,sans-Serif" font-size="10.00">AscEmu::Packets::Managed</text>
<text text-anchor="middle" x="628.5" y="-81.5" font-family="Helvetica,sans-Serif" font-size="10.00">Packet::serialise</text>
</a>
</g>
</g>
<!-- Node10&#45;&gt;Node15 -->
<g id="edge15_Node000010_Node000015" class="edge">
<title>Node10&#45;&gt;Node15</title>
<g id="a_edge15_Node000010_Node000015"><a xlink:title=" ">
<path fill="none" stroke="#63b8ff" d="M482,-122.96C502.71,-118.19 528.41,-112.28 552.43,-106.76"/>
<polygon fill="#63b8ff" stroke="#63b8ff" points="553.28,-110.16 562.24,-104.51 551.71,-103.34 553.28,-110.16"/>
</a>
</g>
</g>
<!-- Node12 -->
<g id="Node000012" class="node">
<title>Node12</title>
<g id="a_Node000012"><a xlink:href="classObject.html#ae9814731421ab3e919a2e5c3b86e0eeb" target="_top" xlink:title=" ">
<polygon fill="white" stroke="#666666" points="872,-179 765,-179 765,-160 872,-160 872,-179"/>
<text text-anchor="middle" x="818.5" y="-167" font-family="Helvetica,sans-Serif" font-size="10.00">Object::objectData</text>
</a>
</g>
</g>
<!-- Node11&#45;&gt;Node12 -->
<g id="edge12_Node000011_Node000012" class="edge">
<title>Node11&#45;&gt;Node12</title>
<g id="a_edge12_Node000011_Node000012"><a xlink:title=" ">
<path fill="none" stroke="#63b8ff" d="M674.53,-169.5C698.51,-169.5 728.38,-169.5 754.61,-169.5"/>
<polygon fill="#63b8ff" stroke="#63b8ff" points="754.84,-173 764.84,-169.5 754.84,-166 754.84,-173"/>
</a>
</g>
</g>
<!-- Node14 -->
<g id="Node000014" class="node">
<title>Node14</title>
<g id="a_Node000014"><a xlink:href="classObject.html#aaee2ed63355af5e632aba82f859822b4" target="_top" xlink:title=" ">
<polygon fill="white" stroke="#666666" points="885,-142 752,-142 752,-123 885,-123 885,-142"/>
<text text-anchor="middle" x="818.5" y="-130" font-family="Helvetica,sans-Serif" font-size="10.00">Object::getObjectTypeId</text>
</a>
</g>
</g>
<!-- Node13&#45;&gt;Node14 -->
<g id="edge14_Node000013_Node000014" class="edge">
<title>Node13&#45;&gt;Node14</title>
<g id="a_edge14_Node000013_Node000014"><a xlink:title=" ">
<path fill="none" stroke="#63b8ff" d="M675.01,-132.5C694.99,-132.5 718.99,-132.5 741.55,-132.5"/>
<polygon fill="#63b8ff" stroke="#63b8ff" points="741.8,-136 751.8,-132.5 741.8,-129 741.8,-136"/>
</a>
</g>
</g>
<!-- Node16 -->
<g id="Node000016" class="node">
<title>Node16</title>
<g id="a_Node000016"><a xlink:href="classAscEmu_1_1Packets_1_1ManagedPacket.html#aac8bf10cbe130cf27b0452f0cd5eedb0" target="_top" xlink:title=" ">
<polygon fill="white" stroke="#666666" points="893,-104.5 744,-104.5 744,-74.5 893,-74.5 893,-104.5"/>
<text text-anchor="start" x="752" y="-92.5" font-family="Helvetica,sans-Serif" font-size="10.00">AscEmu::Packets::Managed</text>
<text text-anchor="middle" x="818.5" y="-81.5" font-family="Helvetica,sans-Serif" font-size="10.00">Packet::expectedSize</text>
</a>
</g>
</g>
<!-- Node15&#45;&gt;Node16 -->
<g id="edge16_Node000015_Node000016" class="edge">
<title>Node15&#45;&gt;Node16</title>
<g id="a_edge16_Node000015_Node000016"><a xlink:title=" ">
<path fill="none" stroke="#63b8ff" d="M703.26,-89.5C713.29,-89.5 723.65,-89.5 733.83,-89.5"/>
<polygon fill="#63b8ff" stroke="#63b8ff" points="733.95,-93 743.95,-89.5 733.95,-86 733.95,-93"/>
</a>
</g>
</g>
<!-- Node17 -->
<g id="Node000017" class="node">
<title>Node17</title>
<g id="a_Node000017"><a xlink:href="classAscEmu_1_1Packets_1_1ManagedPacket.html#a7e9f713ca1b9664f9ffccf5653432549" target="_top" xlink:title=" ">
<polygon fill="white" stroke="#666666" points="893,-56.5 744,-56.5 744,-26.5 893,-26.5 893,-56.5"/>
<text text-anchor="start" x="752" y="-44.5" font-family="Helvetica,sans-Serif" font-size="10.00">AscEmu::Packets::Managed</text>
<text text-anchor="middle" x="818.5" y="-33.5" font-family="Helvetica,sans-Serif" font-size="10.00">Packet::internalSerialise</text>
</a>
</g>
</g>
<!-- Node15&#45;&gt;Node17 -->
<g id="edge17_Node000015_Node000017" class="edge">
<title>Node15&#45;&gt;Node17</title>
<g id="a_edge17_Node000015_Node000017"><a xlink:title=" ">
<path fill="none" stroke="#63b8ff" d="M688.47,-74.44C707.63,-69.55 729.06,-64.08 748.86,-59.02"/>
<polygon fill="#63b8ff" stroke="#63b8ff" points="749.92,-62.37 758.74,-56.5 748.19,-55.59 749.92,-62.37"/>
</a>
</g>
</g>
<!-- Node19 -->
<g id="Node000019" class="node">
<title>Node19</title>
<g id="a_Node000019"><a xlink:href="classObject.html#ab32822d3603e26f4a51e881215d49520" target="_top" xlink:title=" ">
<polygon fill="white" stroke="#666666" points="679,-56 578,-56 578,-37 679,-37 679,-56"/>
<text text-anchor="middle" x="628.5" y="-44" font-family="Helvetica,sans-Serif" font-size="10.00">Object::GetPhase</text>
</a>
</g>
</g>
<!-- Node18&#45;&gt;Node19 -->
<g id="edge19_Node000018_Node000019" class="edge">
<title>Node18&#45;&gt;Node19</title>
<g id="a_edge19_Node000018_Node000019"><a xlink:title=" ">
<path fill="none" stroke="#63b8ff" d="M513.07,-46.5C531.18,-46.5 550.39,-46.5 567.79,-46.5"/>
<polygon fill="#63b8ff" stroke="#63b8ff" points="567.81,-50 577.81,-46.5 567.81,-43 567.81,-50"/>
</a>
</g>
</g>
<!-- Node20 -->
<g id="Node000020" class="node">
<title>Node20</title>
<g id="a_Node000020"><a xlink:href="classObject.html#a3aeab7def818ba6c50249f197ad2f9ca" target="_top" xlink:title=" ">
<polygon fill="white" stroke="#666666" points="678,-19 579,-19 579,0 678,0 678,-19"/>
<text text-anchor="middle" x="628.5" y="-7" font-family="Helvetica,sans-Serif" font-size="10.00">Object::IsInWorld</text>
</a>
</g>
</g>
<!-- Node18&#45;&gt;Node20 -->
<g id="edge20_Node000018_Node000020" class="edge">
<title>Node18&#45;&gt;Node20</title>
<g id="a_edge20_Node000018_Node000020"><a xlink:title=" ">
<path fill="none" stroke="#63b8ff" d="M488.66,-36.97C513.21,-32.11 543.27,-26.17 569.13,-21.05"/>
<polygon fill="#63b8ff" stroke="#63b8ff" points="570.05,-24.43 579.18,-19.06 568.69,-17.57 570.05,-24.43"/>
</a>
</g>
</g>
</g>
</svg>
