<?xml version="1.0" encoding="UTF-8" standalone="no"?>
<!DOCTYPE svg PUBLIC "-//W3C//DTD SVG 1.1//EN"
 "http://www.w3.org/Graphics/SVG/1.1/DTD/svg11.dtd">
<!-- Generated by graphviz version 2.43.0 (0)
 -->
<!-- Title: DayWatcherThread::dupe_tm_pointer Pages: 1 -->
<svg width="743pt" height="210pt"
 viewBox="0.00 0.00 743.00 210.00" xmlns="http://www.w3.org/2000/svg" xmlns:xlink="http://www.w3.org/1999/xlink">
<g id="graph0" class="graph" transform="scale(1 1) rotate(0) translate(4 206)">
<title>DayWatcherThread::dupe_tm_pointer</title>
<!-- Node1 -->
<g id="Node000001" class="node">
<title>Node1</title>
<g id="a_Node000001"><a xlink:title=" ">
<polygon fill="#999999" stroke="#666666" points="735,-121 595,-121 595,-91 735,-91 735,-121"/>
<text text-anchor="start" x="603" y="-109" font-family="Helvetica,sans-Serif" font-size="10.00">DayWatcherThread::dupe</text>
<text text-anchor="middle" x="665" y="-98" font-family="Helvetica,sans-Serif" font-size="10.00">_tm_pointer</text>
</a>
</g>
</g>
<!-- Node2 -->
<g id="Node000002" class="node">
<title>Node2</title>
<g id="a_Node000002"><a xlink:href="classDayWatcherThread.html#ac5ce80ac0a1770635bd8f422e8b319fe" target="_top" xlink:title=" ">
<polygon fill="white" stroke="#666666" points="550,-202 419,-202 419,-172 550,-172 550,-202"/>
<text text-anchor="start" x="427" y="-190" font-family="Helvetica,sans-Serif" font-size="10.00">DayWatcherThread::set</text>
<text text-anchor="middle" x="484.5" y="-179" font-family="Helvetica,sans-Serif" font-size="10.00">_tm_pointers</text>
</a>
</g>
</g>
<!-- Node1&#45;&gt;Node2 -->
<g id="edge1_Node000001_Node000002" class="edge">
<title>Node1&#45;&gt;Node2</title>
<g id="a_edge1_Node000001_Node000002"><a xlink:title=" ">
<path fill="none" stroke="#63b8ff" d="M626.32,-125.62C606.48,-135.7 581.63,-147.95 559,-158 548.22,-162.79 536.38,-167.63 525.42,-171.95"/>
<polygon fill="#63b8ff" stroke="#63b8ff" points="628.03,-128.68 635.34,-121.01 624.84,-122.44 628.03,-128.68"/>
</a>
</g>
</g>
<!-- Node3 -->
<g id="Node000003" class="node">
<title>Node3</title>
<g id="a_Node000003"><a xlink:href="classDayWatcherThread.html#aa8855119e590a534a6c1deedb0bb7e06" target="_top" xlink:title=" ">
<polygon fill="white" stroke="#666666" points="374,-153.5 211,-153.5 211,-134.5 374,-134.5 374,-153.5"/>
<text text-anchor="middle" x="292.5" y="-141.5" font-family="Helvetica,sans-Serif" font-size="10.00">DayWatcherThread::threadInit</text>
</a>
</g>
</g>
<!-- Node1&#45;&gt;Node3 -->
<g id="edge4_Node000001_Node000003" class="edge">
<title>Node1&#45;&gt;Node3</title>
<g id="a_edge4_Node000001_Node000003"><a xlink:title=" ">
<path fill="none" stroke="#63b8ff" d="M584.6,-114.14C522.47,-120.52 436.43,-129.34 374.02,-135.74"/>
<polygon fill="#63b8ff" stroke="#63b8ff" points="585.16,-117.61 594.75,-113.1 584.44,-110.64 585.16,-117.61"/>
</a>
</g>
</g>
<!-- Node5 -->
<g id="Node000005" class="node">
<title>Node5</title>
<g id="a_Node000005"><a xlink:href="classDayWatcherThread.html#af668c677ef84136c7d8d2781b82d752d" target="_top" xlink:title=" ">
<polygon fill="white" stroke="#666666" points="366,-97 219,-97 219,-67 366,-67 366,-97"/>
<text text-anchor="start" x="227" y="-85" font-family="Helvetica,sans-Serif" font-size="10.00">DayWatcherThread::thread</text>
<text text-anchor="middle" x="292.5" y="-74" font-family="Helvetica,sans-Serif" font-size="10.00">Runner</text>
</a>
</g>
</g>
<!-- Node1&#45;&gt;Node5 -->
<g id="edge5_Node000001_Node000005" class="edge">
<title>Node1&#45;&gt;Node5</title>
<g id="a_edge5_Node000001_Node000005"><a xlink:title=" ">
<path fill="none" stroke="#63b8ff" d="M584.58,-100.86C519.82,-96.66 429.09,-90.78 366.21,-86.71"/>
<polygon fill="#63b8ff" stroke="#63b8ff" points="584.54,-104.36 594.75,-101.51 584.99,-97.37 584.54,-104.36"/>
</a>
</g>
</g>
<!-- Node6 -->
<g id="Node000006" class="node">
<title>Node6</title>
<g id="a_Node000006"><a xlink:href="classDayWatcherThread.html#a43623a65ed433f12cdf66d2d2fd96853" target="_top" xlink:title=" ">
<polygon fill="white" stroke="#666666" points="559,-78 410,-78 410,-48 559,-48 559,-78"/>
<text text-anchor="start" x="418" y="-66" font-family="Helvetica,sans-Serif" font-size="10.00">DayWatcherThread::update</text>
<text text-anchor="middle" x="484.5" y="-55" font-family="Helvetica,sans-Serif" font-size="10.00">_arena</text>
</a>
</g>
</g>
<!-- Node1&#45;&gt;Node6 -->
<g id="edge7_Node000001_Node000006" class="edge">
<title>Node1&#45;&gt;Node6</title>
<g id="a_edge7_Node000001_Node000006"><a xlink:title=" ">
<path fill="none" stroke="#63b8ff" d="M591.65,-88.57C577.15,-85.08 562.03,-81.43 547.9,-78.03"/>
<polygon fill="#63b8ff" stroke="#63b8ff" points="591.03,-92.02 601.57,-90.96 592.67,-85.22 591.03,-92.02"/>
</a>
</g>
</g>
<!-- Node7 -->
<g id="Node000007" class="node">
<title>Node7</title>
<g id="a_Node000007"><a xlink:href="classDayWatcherThread.html#a275cca341b098c2beebc4cbc6ab6f998" target="_top" xlink:title=" ">
<polygon fill="white" stroke="#666666" points="559,-30 410,-30 410,0 559,0 559,-30"/>
<text text-anchor="start" x="418" y="-18" font-family="Helvetica,sans-Serif" font-size="10.00">DayWatcherThread::update</text>
<text text-anchor="middle" x="484.5" y="-7" font-family="Helvetica,sans-Serif" font-size="10.00">_daily</text>
</a>
</g>
</g>
<!-- Node1&#45;&gt;Node7 -->
<g id="edge9_Node000001_Node000007" class="edge">
<title>Node1&#45;&gt;Node7</title>
<g id="a_edge9_Node000001_Node000007"><a xlink:title=" ">
<path fill="none" stroke="#63b8ff" d="M635.33,-84.9C614.84,-70.53 586.2,-51.86 559,-39 552.08,-35.73 544.6,-32.72 537.15,-30.03"/>
<polygon fill="#63b8ff" stroke="#63b8ff" points="633.41,-87.82 643.59,-90.76 637.46,-82.12 633.41,-87.82"/>
</a>
</g>
</g>
<!-- Node2&#45;&gt;Node3 -->
<g id="edge2_Node000002_Node000003" class="edge">
<title>Node2&#45;&gt;Node3</title>
<g id="a_edge2_Node000002_Node000003"><a xlink:title=" ">
<path fill="none" stroke="#63b8ff" d="M409.09,-170.16C384.12,-164.51 357.15,-158.4 335.55,-153.52"/>
<polygon fill="#63b8ff" stroke="#63b8ff" points="408.38,-173.59 418.91,-172.38 409.93,-166.76 408.38,-173.59"/>
</a>
</g>
</g>
<!-- Node4 -->
<g id="Node000004" class="node">
<title>Node4</title>
<g id="a_Node000004"><a xlink:href="classDayWatcherThread.html#a21ff0e4eee16b6f0003768012ee310bc" target="_top" xlink:title=" ">
<polygon fill="white" stroke="#666666" points="175,-118 0,-118 0,-88 175,-88 175,-118"/>
<text text-anchor="start" x="8" y="-106" font-family="Helvetica,sans-Serif" font-size="10.00">DayWatcherThread::DayWatcher</text>
<text text-anchor="middle" x="87.5" y="-95" font-family="Helvetica,sans-Serif" font-size="10.00">Thread</text>
</a>
</g>
</g>
<!-- Node3&#45;&gt;Node4 -->
<g id="edge3_Node000003_Node000004" class="edge">
<title>Node3&#45;&gt;Node4</title>
<g id="a_edge3_Node000003_Node000004"><a xlink:title=" ">
<path fill="none" stroke="#63b8ff" d="M234.52,-132.49C212.38,-128.02 186.73,-122.84 163.15,-118.08"/>
<polygon fill="#63b8ff" stroke="#63b8ff" points="233.92,-135.94 244.42,-134.49 235.31,-129.08 233.92,-135.94"/>
</a>
</g>
</g>
<!-- Node5&#45;&gt;Node4 -->
<g id="edge6_Node000005_Node000004" class="edge">
<title>Node5&#45;&gt;Node4</title>
<g id="a_edge6_Node000005_Node000004"><a xlink:title=" ">
<path fill="none" stroke="#63b8ff" d="M208.75,-90.56C197.71,-91.7 186.36,-92.88 175.26,-94.03"/>
<polygon fill="#63b8ff" stroke="#63b8ff" points="209.2,-94.03 218.79,-89.52 208.48,-87.07 209.2,-94.03"/>
</a>
</g>
</g>
<!-- Node6&#45;&gt;Node5 -->
<g id="edge8_Node000006_Node000005" class="edge">
<title>Node6&#45;&gt;Node5</title>
<g id="a_edge8_Node000006_Node000005"><a xlink:title=" ">
<path fill="none" stroke="#63b8ff" d="M399.63,-71.39C388.5,-72.5 377.17,-73.63 366.25,-74.72"/>
<polygon fill="#63b8ff" stroke="#63b8ff" points="400.17,-74.85 409.77,-70.37 399.47,-67.89 400.17,-74.85"/>
</a>
</g>
</g>
<!-- Node7&#45;&gt;Node5 -->
<g id="edge10_Node000007_Node000005" class="edge">
<title>Node7&#45;&gt;Node5</title>
<g id="a_edge10_Node000007_Node000005"><a xlink:title=" ">
<path fill="none" stroke="#63b8ff" d="M426.82,-33.27C421.13,-35.18 415.44,-37.11 410,-39 384.24,-47.96 355.49,-58.56 333,-67"/>
<polygon fill="#63b8ff" stroke="#63b8ff" points="427.97,-36.57 436.36,-30.1 425.77,-29.93 427.97,-36.57"/>
</a>
</g>
</g>
</g>
</svg>
