<?xml version="1.0" encoding="UTF-8" standalone="no"?>
<!DOCTYPE svg PUBLIC "-//W3C//DTD SVG 1.1//EN"
 "http://www.w3.org/Graphics/SVG/1.1/DTD/svg11.dtd">
<!-- Generated by graphviz version 2.43.0 (0)
 -->
<!-- Title: AvatarOfTheMartyredAI::AIUpdate Pages: 1 -->
<svg width="1294pt" height="217pt"
 viewBox="0.00 0.00 1294.00 217.00" xmlns="http://www.w3.org/2000/svg" xmlns:xlink="http://www.w3.org/1999/xlink">
<g id="graph0" class="graph" transform="scale(1 1) rotate(0) translate(4 213)">
<title>AvatarOfTheMartyredAI::AIUpdate</title>
<!-- Node1 -->
<g id="Node000001" class="node">
<title>Node1</title>
<g id="a_Node000001"><a xlink:title=" ">
<polygon fill="#999999" stroke="#666666" points="131,-140.5 0,-140.5 0,-110.5 131,-110.5 131,-140.5"/>
<text text-anchor="start" x="8" y="-128.5" font-family="Helvetica,sans-Serif" font-size="10.00">AvatarOfTheMartyredAI</text>
<text text-anchor="middle" x="65.5" y="-117.5" font-family="Helvetica,sans-Serif" font-size="10.00">::AIUpdate</text>
</a>
</g>
</g>
<!-- Node2 -->
<g id="Node000002" class="node">
<title>Node2</title>
<g id="a_Node000002"><a xlink:href="classUnit.html#a0dae38077fd2ab3a5da5ad5433f67e5f" target="_top" xlink:title=" ">
<polygon fill="white" stroke="#666666" points="290.5,-191 203.5,-191 203.5,-172 290.5,-172 290.5,-191"/>
<text text-anchor="middle" x="247" y="-179" font-family="Helvetica,sans-Serif" font-size="10.00">Unit::castSpell</text>
</a>
</g>
</g>
<!-- Node1&#45;&gt;Node2 -->
<g id="edge1_Node000001_Node000002" class="edge">
<title>Node1&#45;&gt;Node2</title>
<g id="a_edge1_Node000001_Node000002"><a xlink:title=" ">
<path fill="none" stroke="#63b8ff" d="M102.84,-140.62C121.76,-148.14 145.39,-156.99 167,-163.5 175.51,-166.07 184.64,-168.46 193.56,-170.62"/>
<polygon fill="#63b8ff" stroke="#63b8ff" points="192.96,-174.07 203.49,-172.94 194.55,-167.25 192.96,-174.07"/>
</a>
</g>
</g>
<!-- Node3 -->
<g id="Node000003" class="node">
<title>Node3</title>
<g id="a_Node000003"><a xlink:href="classUnit.html#ac31c5d768d09773dcbdd613b24e10f50" target="_top" xlink:title=" ">
<polygon fill="white" stroke="#666666" points="303,-154 191,-154 191,-135 303,-135 303,-154"/>
<text text-anchor="middle" x="247" y="-142" font-family="Helvetica,sans-Serif" font-size="10.00">Unit::getAIInterface</text>
</a>
</g>
</g>
<!-- Node1&#45;&gt;Node3 -->
<g id="edge3_Node000001_Node000003" class="edge">
<title>Node1&#45;&gt;Node3</title>
<g id="a_edge3_Node000001_Node000003"><a xlink:title=" ">
<path fill="none" stroke="#63b8ff" d="M131.05,-132.33C147.28,-134.05 164.71,-135.9 180.96,-137.62"/>
<polygon fill="#63b8ff" stroke="#63b8ff" points="180.6,-141.1 190.91,-138.67 181.33,-134.14 180.6,-141.1"/>
</a>
</g>
</g>
<!-- Node4 -->
<g id="Node000004" class="node">
<title>Node4</title>
<g id="a_Node000004"><a xlink:href="classCreatureAIScript.html#a971bb1373556b3ec594d8f7ba5f5e6e6" target="_top" xlink:title=" ">
<polygon fill="white" stroke="#666666" points="327,-117 167,-117 167,-98 327,-98 327,-117"/>
<text text-anchor="middle" x="247" y="-105" font-family="Helvetica,sans-Serif" font-size="10.00">CreatureAIScript::getCreature</text>
</a>
</g>
</g>
<!-- Node1&#45;&gt;Node4 -->
<g id="edge4_Node000001_Node000004" class="edge">
<title>Node1&#45;&gt;Node4</title>
<g id="a_edge4_Node000001_Node000004"><a xlink:title=" ">
<path fill="none" stroke="#63b8ff" d="M131.05,-119.03C139.36,-118.19 147.98,-117.33 156.6,-116.47"/>
<polygon fill="#63b8ff" stroke="#63b8ff" points="157.09,-119.93 166.69,-115.45 156.39,-112.97 157.09,-119.93"/>
</a>
</g>
</g>
<!-- Node5 -->
<g id="Node000005" class="node">
<title>Node5</title>
<g id="a_Node000005"><a xlink:href="classAIInterface.html#ad994b9d83f57d6419189962ee71ae413" target="_top" xlink:title=" ">
<polygon fill="white" stroke="#666666" points="317,-79.5 177,-79.5 177,-49.5 317,-49.5 317,-79.5"/>
<text text-anchor="start" x="185" y="-67.5" font-family="Helvetica,sans-Serif" font-size="10.00">AIInterface::setAllowedTo</text>
<text text-anchor="middle" x="247" y="-56.5" font-family="Helvetica,sans-Serif" font-size="10.00">EnterCombat</text>
</a>
</g>
</g>
<!-- Node1&#45;&gt;Node5 -->
<g id="edge5_Node000001_Node000005" class="edge">
<title>Node1&#45;&gt;Node5</title>
<g id="a_edge5_Node000001_Node000005"><a xlink:title=" ">
<path fill="none" stroke="#63b8ff" d="M107.45,-110.44C125.64,-103.85 147.33,-96.13 167,-89.5 173.75,-87.22 180.84,-84.89 187.89,-82.62"/>
<polygon fill="#63b8ff" stroke="#63b8ff" points="188.99,-85.94 197.44,-79.55 186.85,-79.27 188.99,-85.94"/>
</a>
</g>
</g>
<!-- Node2&#45;&gt;Node2 -->
<g id="edge2_Node000002_Node000002" class="edge">
<title>Node2&#45;&gt;Node2</title>
<g id="a_edge2_Node000002_Node000002"><a xlink:title=" ">
<path fill="none" stroke="#63b8ff" d="M219.26,-191.08C205.76,-199.73 215.01,-209 247,-209 268.49,-209 279.72,-204.82 280.68,-199.45"/>
<polygon fill="#63b8ff" stroke="#63b8ff" points="283.39,-197.21 274.74,-191.08 277.68,-201.26 283.39,-197.21"/>
</a>
</g>
</g>
<!-- Node6 -->
<g id="Node000006" class="node">
<title>Node6</title>
<g id="a_Node000006"><a xlink:href="classAIInterface.html#aca6db9b8e3bb02a8bb6d0a1ba68f6cc5" target="_top" xlink:title=" ">
<polygon fill="white" stroke="#666666" points="527,-103.5 363,-103.5 363,-73.5 527,-73.5 527,-103.5"/>
<text text-anchor="start" x="371" y="-91.5" font-family="Helvetica,sans-Serif" font-size="10.00">AIInterface::setIgnoreCreature</text>
<text text-anchor="middle" x="445" y="-80.5" font-family="Helvetica,sans-Serif" font-size="10.00">Combat</text>
</a>
</g>
</g>
<!-- Node5&#45;&gt;Node6 -->
<g id="edge6_Node000005_Node000006" class="edge">
<title>Node5&#45;&gt;Node6</title>
<g id="a_edge6_Node000005_Node000006"><a xlink:title=" ">
<path fill="none" stroke="#63b8ff" d="M317.1,-72.96C328.64,-74.37 340.77,-75.86 352.75,-77.33"/>
<polygon fill="#63b8ff" stroke="#63b8ff" points="352.43,-80.81 362.78,-78.55 353.28,-73.86 352.43,-80.81"/>
</a>
</g>
</g>
<!-- Node17 -->
<g id="Node000017" class="node">
<title>Node17</title>
<g id="a_Node000017"><a xlink:href="classAIInterface.html#a0a465b003f70eccb891d1ffb816300dd" target="_top" xlink:title=" ">
<polygon fill="white" stroke="#666666" points="521,-55.5 369,-55.5 369,-25.5 521,-25.5 521,-55.5"/>
<text text-anchor="start" x="377" y="-43.5" font-family="Helvetica,sans-Serif" font-size="10.00">AIInterface::setIgnorePlayer</text>
<text text-anchor="middle" x="445" y="-32.5" font-family="Helvetica,sans-Serif" font-size="10.00">Combat</text>
</a>
</g>
</g>
<!-- Node5&#45;&gt;Node17 -->
<g id="edge20_Node000005_Node000017" class="edge">
<title>Node5&#45;&gt;Node17</title>
<g id="a_edge20_Node000005_Node000017"><a xlink:title=" ">
<path fill="none" stroke="#63b8ff" d="M317.1,-56.04C330.58,-54.39 344.86,-52.64 358.8,-50.93"/>
<polygon fill="#63b8ff" stroke="#63b8ff" points="359.36,-54.39 368.86,-49.7 358.51,-47.44 359.36,-54.39"/>
</a>
</g>
</g>
<!-- Node7 -->
<g id="Node000007" class="node">
<title>Node7</title>
<g id="a_Node000007"><a xlink:href="classUnit.html#a2ac6a3a63629788ab412b9729851dd20" target="_top" xlink:title=" ">
<polygon fill="white" stroke="#666666" points="680,-92 573,-92 573,-73 680,-73 680,-92"/>
<text text-anchor="middle" x="626.5" y="-80" font-family="Helvetica,sans-Serif" font-size="10.00">Unit::addUnitFlags</text>
</a>
</g>
</g>
<!-- Node6&#45;&gt;Node7 -->
<g id="edge7_Node000006_Node000007" class="edge">
<title>Node6&#45;&gt;Node7</title>
<g id="a_edge7_Node000006_Node000007"><a xlink:title=" ">
<path fill="none" stroke="#63b8ff" d="M527.09,-85.79C538.96,-85.39 551.05,-84.99 562.49,-84.61"/>
<polygon fill="#63b8ff" stroke="#63b8ff" points="562.92,-88.09 572.8,-84.26 562.69,-81.1 562.92,-88.09"/>
</a>
</g>
</g>
<!-- Node16 -->
<g id="Node000016" class="node">
<title>Node16</title>
<g id="a_Node000016"><a xlink:href="classUnit.html#a3efa33ec534afc65910d40bfcc9cab4b" target="_top" xlink:title=" ">
<polygon fill="white" stroke="#666666" points="690,-55 563,-55 563,-36 690,-36 690,-55"/>
<text text-anchor="middle" x="626.5" y="-43" font-family="Helvetica,sans-Serif" font-size="10.00">Unit::removeUnitFlags</text>
</a>
</g>
</g>
<!-- Node6&#45;&gt;Node16 -->
<g id="edge17_Node000006_Node000016" class="edge">
<title>Node6&#45;&gt;Node16</title>
<g id="a_edge17_Node000006_Node000016"><a xlink:title=" ">
<path fill="none" stroke="#63b8ff" d="M508.78,-73.46C530.76,-68.2 555.12,-62.36 575.88,-57.39"/>
<polygon fill="#63b8ff" stroke="#63b8ff" points="576.84,-60.76 585.75,-55.02 575.21,-53.95 576.84,-60.76"/>
</a>
</g>
</g>
<!-- Node8 -->
<g id="Node000008" class="node">
<title>Node8</title>
<g id="a_Node000008"><a xlink:href="classUnit.html#a67095c70ac3cc853e32e1b9d17c4bab7" target="_top" xlink:title=" ">
<polygon fill="white" stroke="#666666" points="831,-92 726,-92 726,-73 831,-73 831,-92"/>
<text text-anchor="middle" x="778.5" y="-80" font-family="Helvetica,sans-Serif" font-size="10.00">Unit::getUnitFlags</text>
</a>
</g>
</g>
<!-- Node7&#45;&gt;Node8 -->
<g id="edge8_Node000007_Node000008" class="edge">
<title>Node7&#45;&gt;Node8</title>
<g id="a_edge8_Node000007_Node000008"><a xlink:title=" ">
<path fill="none" stroke="#63b8ff" d="M680.38,-82.5C691.8,-82.5 703.97,-82.5 715.69,-82.5"/>
<polygon fill="#63b8ff" stroke="#63b8ff" points="715.85,-86 725.85,-82.5 715.85,-79 715.85,-86"/>
</a>
</g>
</g>
<!-- Node10 -->
<g id="Node000010" class="node">
<title>Node10</title>
<g id="a_Node000010"><a xlink:href="classUnit.html#a887727aa4db30d7fee65b72961457abf" target="_top" xlink:title=" ">
<polygon fill="white" stroke="#666666" points="830.5,-55 726.5,-55 726.5,-36 830.5,-36 830.5,-55"/>
<text text-anchor="middle" x="778.5" y="-43" font-family="Helvetica,sans-Serif" font-size="10.00">Unit::setUnitFlags</text>
</a>
</g>
</g>
<!-- Node7&#45;&gt;Node10 -->
<g id="edge10_Node000007_Node000010" class="edge">
<title>Node7&#45;&gt;Node10</title>
<g id="a_edge10_Node000007_Node000010"><a xlink:title=" ">
<path fill="none" stroke="#63b8ff" d="M666.13,-72.97C685.3,-68.24 708.66,-62.48 729.02,-57.46"/>
<polygon fill="#63b8ff" stroke="#63b8ff" points="729.87,-60.85 738.74,-55.06 728.19,-54.06 729.87,-60.85"/>
</a>
</g>
</g>
<!-- Node9 -->
<g id="Node000009" class="node">
<title>Node9</title>
<g id="a_Node000009"><a xlink:href="classUnit.html#a2b80af47340ac01ca2031723f37e839a" target="_top" xlink:title=" ">
<polygon fill="white" stroke="#666666" points="952,-92 867,-92 867,-73 952,-73 952,-92"/>
<text text-anchor="middle" x="909.5" y="-80" font-family="Helvetica,sans-Serif" font-size="10.00">Unit::unitData</text>
</a>
</g>
</g>
<!-- Node8&#45;&gt;Node9 -->
<g id="edge9_Node000008_Node000009" class="edge">
<title>Node8&#45;&gt;Node9</title>
<g id="a_edge9_Node000008_Node000009"><a xlink:title=" ">
<path fill="none" stroke="#63b8ff" d="M831.23,-82.5C839.6,-82.5 848.27,-82.5 856.64,-82.5"/>
<polygon fill="#63b8ff" stroke="#63b8ff" points="856.67,-86 866.67,-82.5 856.67,-79 856.67,-86"/>
</a>
</g>
</g>
<!-- Node10&#45;&gt;Node9 -->
<g id="edge11_Node000010_Node000009" class="edge">
<title>Node10&#45;&gt;Node9</title>
<g id="a_edge11_Node000010_Node000009"><a xlink:title=" ">
<path fill="none" stroke="#63b8ff" d="M812.72,-55.03C828.7,-59.61 848.05,-65.16 865.17,-70.07"/>
<polygon fill="#63b8ff" stroke="#63b8ff" points="864.37,-73.48 874.94,-72.88 866.3,-66.75 864.37,-73.48"/>
</a>
</g>
</g>
<!-- Node11 -->
<g id="Node000011" class="node">
<title>Node11</title>
<g id="a_Node000011"><a xlink:href="classObject.html#a8b600efb87d19216b881a2451ce3629f" target="_top" xlink:title=" ">
<polygon fill="white" stroke="#666666" points="949,-55 870,-55 870,-36 949,-36 949,-55"/>
<text text-anchor="middle" x="909.5" y="-43" font-family="Helvetica,sans-Serif" font-size="10.00">Object::write</text>
</a>
</g>
</g>
<!-- Node10&#45;&gt;Node11 -->
<g id="edge12_Node000010_Node000011" class="edge">
<title>Node10&#45;&gt;Node11</title>
<g id="a_edge12_Node000010_Node000011"><a xlink:title=" ">
<path fill="none" stroke="#63b8ff" d="M830.85,-45.5C840.25,-45.5 850.03,-45.5 859.36,-45.5"/>
<polygon fill="#63b8ff" stroke="#63b8ff" points="859.65,-49 869.65,-45.5 859.65,-42 859.65,-49"/>
</a>
</g>
</g>
<!-- Node12 -->
<g id="Node000012" class="node">
<title>Node12</title>
<g id="a_Node000012"><a xlink:href="classUpdateMask.html#aaf858dd57840b7228abe64c6376d1c89" target="_top" xlink:title=" ">
<polygon fill="white" stroke="#666666" points="1104,-74 991,-74 991,-55 1104,-55 1104,-74"/>
<text text-anchor="middle" x="1047.5" y="-62" font-family="Helvetica,sans-Serif" font-size="10.00">UpdateMask::SetBit</text>
</a>
</g>
</g>
<!-- Node11&#45;&gt;Node12 -->
<g id="edge13_Node000011_Node000012" class="edge">
<title>Node11&#45;&gt;Node12</title>
<g id="a_edge13_Node000011_Node000012"><a xlink:title=" ">
<path fill="none" stroke="#63b8ff" d="M949.11,-50.89C959.03,-52.28 969.98,-53.81 980.86,-55.33"/>
<polygon fill="#63b8ff" stroke="#63b8ff" points="980.4,-58.8 990.79,-56.72 981.37,-51.87 980.4,-58.8"/>
</a>
</g>
</g>
<!-- Node13 -->
<g id="Node000013" class="node">
<title>Node13</title>
<g id="a_Node000013"><a xlink:href="classObject.html#a796330249e8c0e5f7c2cf52715638620" target="_top" xlink:title=" ">
<polygon fill="white" stroke="#666666" points="1107,-37 988,-37 988,-18 1107,-18 1107,-37"/>
<text text-anchor="middle" x="1047.5" y="-25" font-family="Helvetica,sans-Serif" font-size="10.00">Object::updateObject</text>
</a>
</g>
</g>
<!-- Node11&#45;&gt;Node13 -->
<g id="edge14_Node000011_Node000013" class="edge">
<title>Node11&#45;&gt;Node13</title>
<g id="a_edge14_Node000011_Node000013"><a xlink:title=" ">
<path fill="none" stroke="#63b8ff" d="M949.11,-40.39C958.18,-39.19 968.11,-37.87 978.06,-36.56"/>
<polygon fill="#63b8ff" stroke="#63b8ff" points="978.52,-40.03 987.98,-35.25 977.61,-33.09 978.52,-40.03"/>
</a>
</g>
</g>
<!-- Node14 -->
<g id="Node000014" class="node">
<title>Node14</title>
<g id="a_Node000014"><a xlink:href="classObject.html#a3aeab7def818ba6c50249f197ad2f9ca" target="_top" xlink:title=" ">
<polygon fill="white" stroke="#666666" points="1264,-56 1165,-56 1165,-37 1264,-37 1264,-56"/>
<text text-anchor="middle" x="1214.5" y="-44" font-family="Helvetica,sans-Serif" font-size="10.00">Object::IsInWorld</text>
</a>
</g>
</g>
<!-- Node13&#45;&gt;Node14 -->
<g id="edge15_Node000013_Node000014" class="edge">
<title>Node13&#45;&gt;Node14</title>
<g id="a_edge15_Node000013_Node000014"><a xlink:title=" ">
<path fill="none" stroke="#63b8ff" d="M1107.14,-34.25C1122.64,-36.04 1139.37,-37.96 1154.87,-39.75"/>
<polygon fill="#63b8ff" stroke="#63b8ff" points="1154.52,-43.23 1164.85,-40.9 1155.32,-36.28 1154.52,-43.23"/>
</a>
</g>
</g>
<!-- Node15 -->
<g id="Node000015" class="node">
<title>Node15</title>
<g id="a_Node000015"><a xlink:href="classWorldMap.html#aabf61e8d556612e51b4e87a605d314bf" target="_top" xlink:title=" ">
<polygon fill="white" stroke="#666666" points="1286,-19 1143,-19 1143,0 1286,0 1286,-19"/>
<text text-anchor="middle" x="1214.5" y="-7" font-family="Helvetica,sans-Serif" font-size="10.00">WorldMap::objectUpdated</text>
</a>
</g>
</g>
<!-- Node13&#45;&gt;Node15 -->
<g id="edge16_Node000013_Node000015" class="edge">
<title>Node13&#45;&gt;Node15</title>
<g id="a_edge16_Node000013_Node000015"><a xlink:title=" ">
<path fill="none" stroke="#63b8ff" d="M1107.14,-21.1C1115.46,-20.2 1124.14,-19.25 1132.79,-18.31"/>
<polygon fill="#63b8ff" stroke="#63b8ff" points="1133.34,-21.77 1142.91,-17.2 1132.59,-14.81 1133.34,-21.77"/>
</a>
</g>
</g>
<!-- Node16&#45;&gt;Node8 -->
<g id="edge18_Node000016_Node000008" class="edge">
<title>Node16&#45;&gt;Node8</title>
<g id="a_edge18_Node000016_Node000008"><a xlink:title=" ">
<path fill="none" stroke="#63b8ff" d="M666.13,-55.03C685.3,-59.76 708.66,-65.52 729.02,-70.54"/>
<polygon fill="#63b8ff" stroke="#63b8ff" points="728.19,-73.94 738.74,-72.94 729.87,-67.15 728.19,-73.94"/>
</a>
</g>
</g>
<!-- Node16&#45;&gt;Node10 -->
<g id="edge19_Node000016_Node000010" class="edge">
<title>Node16&#45;&gt;Node10</title>
<g id="a_edge19_Node000016_Node000010"><a xlink:title=" ">
<path fill="none" stroke="#63b8ff" d="M690.24,-45.5C698.81,-45.5 707.59,-45.5 716.12,-45.5"/>
<polygon fill="#63b8ff" stroke="#63b8ff" points="716.38,-49 726.38,-45.5 716.38,-42 716.38,-49"/>
</a>
</g>
</g>
<!-- Node17&#45;&gt;Node7 -->
<g id="edge21_Node000017_Node000007" class="edge">
<title>Node17&#45;&gt;Node7</title>
<g id="a_edge21_Node000017_Node000007"><a xlink:title=" ">
<path fill="none" stroke="#63b8ff" d="M510.3,-55.54C531.55,-60.52 554.89,-65.98 574.96,-70.67"/>
<polygon fill="#63b8ff" stroke="#63b8ff" points="574.3,-74.11 584.83,-72.98 575.89,-67.3 574.3,-74.11"/>
</a>
</g>
</g>
<!-- Node17&#45;&gt;Node16 -->
<g id="edge22_Node000017_Node000016" class="edge">
<title>Node17&#45;&gt;Node16</title>
<g id="a_edge22_Node000017_Node000016"><a xlink:title=" ">
<path fill="none" stroke="#63b8ff" d="M521.08,-42.59C531.53,-42.88 542.25,-43.18 552.66,-43.47"/>
<polygon fill="#63b8ff" stroke="#63b8ff" points="552.84,-46.98 562.94,-43.76 553.04,-39.98 552.84,-46.98"/>
</a>
</g>
</g>
</g>
</svg>
