<?xml version="1.0" encoding="UTF-8" standalone="no"?>
<!DOCTYPE svg PUBLIC "-//W3C//DTD SVG 1.1//EN"
 "http://www.w3.org/Graphics/SVG/1.1/DTD/svg11.dtd">
<!-- Generated by graphviz version 2.43.0 (0)
 -->
<!-- Title: Player::isSummoningDisabled Pages: 1 -->
<svg width="557pt" height="38pt"
 viewBox="0.00 0.00 557.00 38.00" xmlns="http://www.w3.org/2000/svg" xmlns:xlink="http://www.w3.org/1999/xlink">
<g id="graph0" class="graph" transform="scale(1 1) rotate(0) translate(4 34)">
<title>Player::isSummoningDisabled</title>
<!-- Node1 -->
<g id="Node000001" class="node">
<title>Node1</title>
<g id="a_Node000001"><a xlink:title=" ">
<polygon fill="#999999" stroke="#666666" points="549,-24.5 386,-24.5 386,-5.5 549,-5.5 549,-24.5"/>
<text text-anchor="middle" x="467.5" y="-12.5" font-family="Helvetica,sans-Serif" font-size="10.00">Player::isSummoningDisabled</text>
</a>
</g>
</g>
<!-- Node2 -->
<g id="Node000002" class="node">
<title>Node2</title>
<g id="a_Node000002"><a xlink:href="classChatCommandHandler.html#a6f9c98c5b18a008dea69a541bb17999e" target="_top" xlink:title=" ">
<polygon fill="white" stroke="#666666" points="350,-30 172,-30 172,0 350,0 350,-30"/>
<text text-anchor="start" x="180" y="-18" font-family="Helvetica,sans-Serif" font-size="10.00">ChatCommandHandler</text>
<text text-anchor="middle" x="261" y="-7" font-family="Helvetica,sans-Serif" font-size="10.00">::HandleBlockSummonCommand</text>
</a>
</g>
</g>
<!-- Node1&#45;&gt;Node2 -->
<g id="edge1_Node000001_Node000002" class="edge">
<title>Node1&#45;&gt;Node2</title>
<g id="a_edge1_Node000001_Node000002"><a xlink:title=" ">
<path fill="none" stroke="#63b8ff" d="M375.71,-15C367.24,-15 358.66,-15 350.22,-15"/>
<polygon fill="#63b8ff" stroke="#63b8ff" points="375.97,-18.5 385.97,-15 375.97,-11.5 375.97,-18.5"/>
</a>
</g>
</g>
<!-- Node3 -->
<g id="Node000003" class="node">
<title>Node3</title>
<g id="a_Node000003"><a xlink:href="classCommandTableStorage.html#a3e4c1b5de1a9cb06c059165e7997a8d0" target="_top" xlink:title=" ">
<polygon fill="white" stroke="#666666" points="136,-30 0,-30 0,0 136,0 136,-30"/>
<text text-anchor="start" x="8" y="-18" font-family="Helvetica,sans-Serif" font-size="10.00">CommandTableStorage</text>
<text text-anchor="middle" x="68" y="-7" font-family="Helvetica,sans-Serif" font-size="10.00">::CommandTableStorage</text>
</a>
</g>
</g>
<!-- Node2&#45;&gt;Node3 -->
<g id="edge2_Node000002_Node000003" class="edge">
<title>Node2&#45;&gt;Node3</title>
<g id="a_edge2_Node000002_Node000003"><a xlink:title=" ">
<path fill="none" stroke="#63b8ff" d="M161.6,-15C152.94,-15 144.32,-15 136,-15"/>
<polygon fill="#63b8ff" stroke="#63b8ff" points="161.77,-18.5 171.77,-15 161.77,-11.5 161.77,-18.5"/>
</a>
</g>
</g>
</g>
</svg>
