<?xml version="1.0" encoding="UTF-8" standalone="no"?>
<!DOCTYPE svg PUBLIC "-//W3C//DTD SVG 1.1//EN"
 "http://www.w3.org/Graphics/SVG/1.1/DTD/svg11.dtd">
<!-- Generated by graphviz version 2.43.0 (0)
 -->
<!-- Title: G3D::Array::fastRemove Pages: 1 -->
<svg width="555pt" height="139pt"
 viewBox="0.00 0.00 555.00 139.00" xmlns="http://www.w3.org/2000/svg" xmlns:xlink="http://www.w3.org/1999/xlink">
<g id="graph0" class="graph" transform="scale(1 1) rotate(0) translate(4 135)">
<title>G3D::Array::fastRemove</title>
<!-- Node1 -->
<g id="Node000001" class="node">
<title>Node1</title>
<g id="a_Node000001"><a xlink:title=" ">
<polygon fill="#999999" stroke="#666666" points="134,-74 0,-74 0,-55 134,-55 134,-74"/>
<text text-anchor="middle" x="67" y="-62" font-family="Helvetica,sans-Serif" font-size="10.00">G3D::Array::fastRemove</text>
</a>
</g>
</g>
<!-- Node2 -->
<g id="Node000002" class="node">
<title>Node2</title>
<g id="a_Node000002"><a xlink:href="classG3D_1_1Array.html#a9608f092af416439743fc785e6bdddb0" target="_top" xlink:title=" ">
<polygon fill="white" stroke="#666666" points="274,-93 170,-93 170,-74 274,-74 274,-93"/>
<text text-anchor="middle" x="222" y="-81" font-family="Helvetica,sans-Serif" font-size="10.00">G3D::Array::resize</text>
</a>
</g>
</g>
<!-- Node1&#45;&gt;Node2 -->
<g id="edge1_Node000001_Node000002" class="edge">
<title>Node1&#45;&gt;Node2</title>
<g id="a_edge1_Node000001_Node000002"><a xlink:title=" ">
<path fill="none" stroke="#63b8ff" d="M134.22,-72.72C142.72,-73.78 151.39,-74.86 159.8,-75.9"/>
<polygon fill="#63b8ff" stroke="#63b8ff" points="159.55,-79.4 169.9,-77.15 160.41,-72.45 159.55,-79.4"/>
</a>
</g>
</g>
<!-- Node8 -->
<g id="Node000008" class="node">
<title>Node8</title>
<g id="a_Node000008"><a xlink:href="classG3D_1_1Array.html#ab0008321250181c65ffe7f06500caf92" target="_top" xlink:title=" ">
<polygon fill="white" stroke="#666666" points="269.5,-56 174.5,-56 174.5,-37 269.5,-37 269.5,-56"/>
<text text-anchor="middle" x="222" y="-44" font-family="Helvetica,sans-Serif" font-size="10.00">G3D::Array::size</text>
</a>
</g>
</g>
<!-- Node1&#45;&gt;Node8 -->
<g id="edge8_Node000001_Node000008" class="edge">
<title>Node1&#45;&gt;Node8</title>
<g id="a_edge8_Node000001_Node000008"><a xlink:title=" ">
<path fill="none" stroke="#63b8ff" d="M134.22,-56.71C144.29,-55.52 154.6,-54.31 164.44,-53.15"/>
<polygon fill="#63b8ff" stroke="#63b8ff" points="164.97,-56.62 174.49,-51.97 164.15,-49.66 164.97,-56.62"/>
</a>
</g>
</g>
<!-- Node3 -->
<g id="Node000003" class="node">
<title>Node3</title>
<g id="a_Node000003"><a xlink:href="namespaceG3D.html#a08c0c3adc7299e964bea91de6cf24b8e" target="_top" xlink:title=" ">
<polygon fill="white" stroke="#666666" points="396.5,-131 331.5,-131 331.5,-112 396.5,-112 396.5,-131"/>
<text text-anchor="middle" x="364" y="-119" font-family="Helvetica,sans-Serif" font-size="10.00">G3D::max</text>
</a>
</g>
</g>
<!-- Node2&#45;&gt;Node3 -->
<g id="edge2_Node000002_Node000003" class="edge">
<title>Node2&#45;&gt;Node3</title>
<g id="a_edge2_Node000002_Node000003"><a xlink:title=" ">
<path fill="none" stroke="#63b8ff" d="M258.33,-93.09C277.45,-98.28 301.2,-104.73 321.24,-110.16"/>
<polygon fill="#63b8ff" stroke="#63b8ff" points="320.47,-113.58 331.03,-112.82 322.3,-106.83 320.47,-113.58"/>
</a>
</g>
</g>
<!-- Node4 -->
<g id="Node000004" class="node">
<title>Node4</title>
<g id="a_Node000004"><a xlink:href="namespaceG3D.html#ac963e578ad7f1b9c9ad9fbc82b0f034c" target="_top" xlink:title=" ">
<polygon fill="white" stroke="#666666" points="531.5,-93 469.5,-93 469.5,-74 531.5,-74 531.5,-93"/>
<text text-anchor="middle" x="500.5" y="-81" font-family="Helvetica,sans-Serif" font-size="10.00">G3D::min</text>
</a>
</g>
</g>
<!-- Node2&#45;&gt;Node4 -->
<g id="edge3_Node000002_Node000004" class="edge">
<title>Node2&#45;&gt;Node4</title>
<g id="a_edge3_Node000002_Node000004"><a xlink:title=" ">
<path fill="none" stroke="#63b8ff" d="M274.04,-83.5C327.39,-83.5 410.03,-83.5 459.05,-83.5"/>
<polygon fill="#63b8ff" stroke="#63b8ff" points="459.27,-87 469.27,-83.5 459.27,-80 459.27,-87"/>
</a>
</g>
</g>
<!-- Node5 -->
<g id="Node000005" class="node">
<title>Node5</title>
<g id="a_Node000005"><a xlink:href="classG3D_1_1Array.html#a990c3dfa1da9fc289b8d0805f6cc1e4e" target="_top" xlink:title=" ">
<polygon fill="white" stroke="#666666" points="418,-55 310,-55 310,-36 418,-36 418,-55"/>
<text text-anchor="middle" x="364" y="-43" font-family="Helvetica,sans-Serif" font-size="10.00">G3D::Array::realloc</text>
</a>
</g>
</g>
<!-- Node2&#45;&gt;Node5 -->
<g id="edge4_Node000002_Node000005" class="edge">
<title>Node2&#45;&gt;Node5</title>
<g id="a_edge4_Node000002_Node000005"><a xlink:title=" ">
<path fill="none" stroke="#63b8ff" d="M258.33,-73.91C276.4,-69.01 298.6,-62.98 317.89,-57.74"/>
<polygon fill="#63b8ff" stroke="#63b8ff" points="318.95,-61.08 327.68,-55.09 317.12,-54.33 318.95,-61.08"/>
</a>
</g>
</g>
<!-- Node5&#45;&gt;Node4 -->
<g id="edge6_Node000005_Node000004" class="edge">
<title>Node5&#45;&gt;Node4</title>
<g id="a_edge6_Node000005_Node000004"><a xlink:title=" ">
<path fill="none" stroke="#63b8ff" d="M398.94,-55.09C417.36,-60.29 440.25,-66.76 459.53,-72.21"/>
<polygon fill="#63b8ff" stroke="#63b8ff" points="458.67,-75.6 469.24,-74.95 460.57,-68.86 458.67,-75.6"/>
</a>
</g>
</g>
<!-- Node6 -->
<g id="Node000006" class="node">
<title>Node6</title>
<g id="a_Node000006"><a xlink:href="classG3D_1_1Array.html#a679bb066709b4c04181b97a4d1c5fbca" target="_top" xlink:title=" ">
<polygon fill="white" stroke="#666666" points="547,-56 454,-56 454,-37 547,-37 547,-56"/>
<text text-anchor="middle" x="500.5" y="-44" font-family="Helvetica,sans-Serif" font-size="10.00">G3D::Array::end</text>
</a>
</g>
</g>
<!-- Node5&#45;&gt;Node6 -->
<g id="edge5_Node000005_Node000006" class="edge">
<title>Node5&#45;&gt;Node6</title>
<g id="a_edge5_Node000005_Node000006"><a xlink:title=" ">
<path fill="none" stroke="#63b8ff" d="M418.16,-45.9C426.51,-45.96 435.17,-46.02 443.58,-46.08"/>
<polygon fill="#63b8ff" stroke="#63b8ff" points="443.66,-49.58 453.68,-46.16 443.71,-42.59 443.66,-49.58"/>
</a>
</g>
</g>
<!-- Node7 -->
<g id="Node000007" class="node">
<title>Node7</title>
<g id="a_Node000007"><a xlink:href="fmt_2include_2fmt_2format_8h.html#adb6e274f8eb0b74b2865215e1b49c535" target="_top" xlink:title=" ">
<polygon fill="white" stroke="#666666" points="515.5,-19 485.5,-19 485.5,0 515.5,0 515.5,-19"/>
<text text-anchor="middle" x="500.5" y="-7" font-family="Helvetica,sans-Serif" font-size="10.00">ptr</text>
</a>
</g>
</g>
<!-- Node5&#45;&gt;Node7 -->
<g id="edge7_Node000005_Node000007" class="edge">
<title>Node5&#45;&gt;Node7</title>
<g id="a_edge7_Node000005_Node000007"><a xlink:title=" ">
<path fill="none" stroke="#63b8ff" d="M400.69,-35.95C424.28,-29.63 454.58,-21.52 475.37,-15.96"/>
<polygon fill="#63b8ff" stroke="#63b8ff" points="476.53,-19.27 485.29,-13.3 474.72,-12.51 476.53,-19.27"/>
</a>
</g>
</g>
</g>
</svg>
