<?xml version="1.0" encoding="UTF-8" standalone="no"?>
<!DOCTYPE svg PUBLIC "-//W3C//DTD SVG 1.1//EN"
 "http://www.w3.org/Graphics/SVG/1.1/DTD/svg11.dtd">
<!-- Generated by graphviz version 2.43.0 (0)
 -->
<!-- Title: SpellScript::calcProcChance Pages: 1 -->
<svg width="693pt" height="150pt"
 viewBox="0.00 0.00 693.00 150.00" xmlns="http://www.w3.org/2000/svg" xmlns:xlink="http://www.w3.org/1999/xlink">
<g id="graph0" class="graph" transform="scale(1 1) rotate(0) translate(4 146)">
<title>SpellScript::calcProcChance</title>
<!-- Node1 -->
<g id="Node000001" class="node">
<title>Node1</title>
<g id="a_Node000001"><a xlink:title=" ">
<polygon fill="#999999" stroke="#666666" points="151,-83 0,-83 0,-64 151,-64 151,-83"/>
<text text-anchor="middle" x="75.5" y="-71" font-family="Helvetica,sans-Serif" font-size="10.00">SpellScript::calcProcChance</text>
</a>
</g>
</g>
<!-- Node2 -->
<g id="Node000002" class="node">
<title>Node2</title>
<g id="a_Node000002"><a xlink:href="classSpellProc.html#a1eb9328f876bdab96bd976366a2c73da" target="_top" xlink:title=" ">
<polygon fill="white" stroke="#666666" points="331,-83 187,-83 187,-64 331,-64 331,-83"/>
<text text-anchor="middle" x="259" y="-71" font-family="Helvetica,sans-Serif" font-size="10.00">SpellProc::calcProcChance</text>
</a>
</g>
</g>
<!-- Node1&#45;&gt;Node2 -->
<g id="edge1_Node000001_Node000002" class="edge">
<title>Node1&#45;&gt;Node2</title>
<g id="a_edge1_Node000001_Node000002"><a xlink:title=" ">
<path fill="none" stroke="#63b8ff" d="M151.11,-73.5C159.61,-73.5 168.31,-73.5 176.89,-73.5"/>
<polygon fill="#63b8ff" stroke="#63b8ff" points="176.9,-77 186.9,-73.5 176.9,-70 176.9,-77"/>
</a>
</g>
</g>
<!-- Node3 -->
<g id="Node000003" class="node">
<title>Node3</title>
<g id="a_Node000003"><a xlink:href="classSpellInfo.html#ae129aa18aacd281dea5726ccf6c63e2c" target="_top" xlink:title=" ">
<polygon fill="white" stroke="#666666" points="512,-142 371,-142 371,-123 512,-123 512,-142"/>
<text text-anchor="middle" x="441.5" y="-130" font-family="Helvetica,sans-Serif" font-size="10.00">SpellInfo::getAttributesEx</text>
</a>
</g>
</g>
<!-- Node2&#45;&gt;Node3 -->
<g id="edge2_Node000002_Node000003" class="edge">
<title>Node2&#45;&gt;Node3</title>
<g id="a_edge2_Node000002_Node000003"><a xlink:title=" ">
<path fill="none" stroke="#63b8ff" d="M282.67,-83.14C304.13,-92.04 337.38,-105.24 367,-114.5 373.57,-116.55 380.53,-118.52 387.45,-120.35"/>
<polygon fill="#63b8ff" stroke="#63b8ff" points="386.94,-123.84 397.5,-122.93 388.68,-117.06 386.94,-123.84"/>
</a>
</g>
</g>
<!-- Node4 -->
<g id="Node000004" class="node">
<title>Node4</title>
<g id="a_Node000004"><a xlink:href="classSpellInfo.html#a8f88ec9fcd5055a06d615bf93112d613" target="_top" xlink:title=" ">
<polygon fill="white" stroke="#666666" points="516,-105 367,-105 367,-86 516,-86 516,-105"/>
<text text-anchor="middle" x="441.5" y="-93" font-family="Helvetica,sans-Serif" font-size="10.00">SpellInfo::getAttributesExD</text>
</a>
</g>
</g>
<!-- Node2&#45;&gt;Node4 -->
<g id="edge3_Node000002_Node000004" class="edge">
<title>Node2&#45;&gt;Node4</title>
<g id="a_edge3_Node000002_Node000004"><a xlink:title=" ">
<path fill="none" stroke="#63b8ff" d="M331.08,-82.16C339.52,-83.19 348.19,-84.25 356.78,-85.3"/>
<polygon fill="#63b8ff" stroke="#63b8ff" points="356.46,-88.78 366.81,-86.52 357.31,-81.83 356.46,-88.78"/>
</a>
</g>
</g>
<!-- Node5 -->
<g id="Node000005" class="node">
<title>Node5</title>
<g id="a_Node000005"><a xlink:href="classSpellInfo.html#a22bb719cff61766416e9f51290de77a5" target="_top" xlink:title=" ">
<polygon fill="white" stroke="#666666" points="511,-67.5 372,-67.5 372,-37.5 511,-37.5 511,-67.5"/>
<text text-anchor="start" x="380" y="-55.5" font-family="Helvetica,sans-Serif" font-size="10.00">SpellInfo::getEffectPoints</text>
<text text-anchor="middle" x="441.5" y="-44.5" font-family="Helvetica,sans-Serif" font-size="10.00">PerComboPoint</text>
</a>
</g>
</g>
<!-- Node2&#45;&gt;Node5 -->
<g id="edge4_Node000002_Node000005" class="edge">
<title>Node2&#45;&gt;Node5</title>
<g id="a_edge4_Node000002_Node000005"><a xlink:title=" ">
<path fill="none" stroke="#63b8ff" d="M331.08,-65.23C341.14,-64.06 351.54,-62.85 361.74,-61.66"/>
<polygon fill="#63b8ff" stroke="#63b8ff" points="362.32,-65.12 371.85,-60.49 361.51,-58.17 362.32,-65.12"/>
</a>
</g>
</g>
<!-- Node6 -->
<g id="Node000006" class="node">
<title>Node6</title>
<g id="a_Node000006"><a xlink:href="classObject.html#ab65745f76d63eda49657413dccf0057d" target="_top" xlink:title=" ">
<polygon fill="white" stroke="#666666" points="488,-19 395,-19 395,0 488,0 488,-19"/>
<text text-anchor="middle" x="441.5" y="-7" font-family="Helvetica,sans-Serif" font-size="10.00">Object::isPlayer</text>
</a>
</g>
</g>
<!-- Node2&#45;&gt;Node6 -->
<g id="edge5_Node000002_Node000006" class="edge">
<title>Node2&#45;&gt;Node6</title>
<g id="a_edge5_Node000002_Node000006"><a xlink:title=" ">
<path fill="none" stroke="#63b8ff" d="M280.17,-63.98C301.44,-54.19 336.07,-38.94 367,-28.5 374.21,-26.07 381.9,-23.77 389.49,-21.66"/>
<polygon fill="#63b8ff" stroke="#63b8ff" points="390.62,-24.98 399.37,-19.01 388.8,-18.22 390.62,-24.98"/>
</a>
</g>
</g>
<!-- Node7 -->
<g id="Node000007" class="node">
<title>Node7</title>
<g id="a_Node000007"><a xlink:href="classObject.html#aaee2ed63355af5e632aba82f859822b4" target="_top" xlink:title=" ">
<polygon fill="white" stroke="#666666" points="685,-19 552,-19 552,0 685,0 685,-19"/>
<text text-anchor="middle" x="618.5" y="-7" font-family="Helvetica,sans-Serif" font-size="10.00">Object::getObjectTypeId</text>
</a>
</g>
</g>
<!-- Node6&#45;&gt;Node7 -->
<g id="edge6_Node000006_Node000007" class="edge">
<title>Node6&#45;&gt;Node7</title>
<g id="a_edge6_Node000006_Node000007"><a xlink:title=" ">
<path fill="none" stroke="#63b8ff" d="M488.02,-9.5C504.43,-9.5 523.42,-9.5 541.71,-9.5"/>
<polygon fill="#63b8ff" stroke="#63b8ff" points="541.78,-13 551.78,-9.5 541.78,-6 541.78,-13"/>
</a>
</g>
</g>
</g>
</svg>
