<?xml version="1.0" encoding="UTF-8" standalone="no"?>
<!DOCTYPE svg PUBLIC "-//W3C//DTD SVG 1.1//EN"
 "http://www.w3.org/Graphics/SVG/1.1/DTD/svg11.dtd">
<!-- Generated by graphviz version 2.43.0 (0)
 -->
<!-- Title: CreatureAIScript::setIgnoreAllCombat Pages: 1 -->
<svg width="1115pt" height="149pt"
 viewBox="0.00 0.00 1115.00 149.00" xmlns="http://www.w3.org/2000/svg" xmlns:xlink="http://www.w3.org/1999/xlink">
<g id="graph0" class="graph" transform="scale(1 1) rotate(0) translate(4 145)">
<title>CreatureAIScript::setIgnoreAllCombat</title>
<!-- Node1 -->
<g id="Node000001" class="node">
<title>Node1</title>
<g id="a_Node000001"><a xlink:title=" ">
<polygon fill="#999999" stroke="#666666" points="148,-103.5 0,-103.5 0,-73.5 148,-73.5 148,-103.5"/>
<text text-anchor="start" x="8" y="-91.5" font-family="Helvetica,sans-Serif" font-size="10.00">CreatureAIScript::setIgnore</text>
<text text-anchor="middle" x="74" y="-80.5" font-family="Helvetica,sans-Serif" font-size="10.00">AllCombat</text>
</a>
</g>
</g>
<!-- Node2 -->
<g id="Node000002" class="node">
<title>Node2</title>
<g id="a_Node000002"><a xlink:href="classUnit.html#ac31c5d768d09773dcbdd613b24e10f50" target="_top" xlink:title=" ">
<polygon fill="white" stroke="#666666" points="322,-141 210,-141 210,-122 322,-122 322,-141"/>
<text text-anchor="middle" x="266" y="-129" font-family="Helvetica,sans-Serif" font-size="10.00">Unit::getAIInterface</text>
</a>
</g>
</g>
<!-- Node1&#45;&gt;Node2 -->
<g id="edge1_Node000001_Node000002" class="edge">
<title>Node1&#45;&gt;Node2</title>
<g id="a_edge1_Node000001_Node000002"><a xlink:title=" ">
<path fill="none" stroke="#63b8ff" d="M141.45,-103.54C164.93,-108.85 190.97,-114.75 213.07,-119.75"/>
<polygon fill="#63b8ff" stroke="#63b8ff" points="212.4,-123.18 222.92,-121.98 213.94,-116.36 212.4,-123.18"/>
</a>
</g>
</g>
<!-- Node3 -->
<g id="Node000003" class="node">
<title>Node3</title>
<g id="a_Node000003"><a xlink:href="classAIInterface.html#aca6db9b8e3bb02a8bb6d0a1ba68f6cc5" target="_top" xlink:title=" ">
<polygon fill="white" stroke="#666666" points="348,-55.5 184,-55.5 184,-25.5 348,-25.5 348,-55.5"/>
<text text-anchor="start" x="192" y="-43.5" font-family="Helvetica,sans-Serif" font-size="10.00">AIInterface::setIgnoreCreature</text>
<text text-anchor="middle" x="266" y="-32.5" font-family="Helvetica,sans-Serif" font-size="10.00">Combat</text>
</a>
</g>
</g>
<!-- Node1&#45;&gt;Node3 -->
<g id="edge2_Node000001_Node000003" class="edge">
<title>Node1&#45;&gt;Node3</title>
<g id="a_edge2_Node000001_Node000003"><a xlink:title=" ">
<path fill="none" stroke="#63b8ff" d="M134.6,-73.44C154.05,-68.53 175.81,-63.03 195.9,-57.96"/>
<polygon fill="#63b8ff" stroke="#63b8ff" points="196.78,-61.35 205.62,-55.5 195.06,-54.56 196.78,-61.35"/>
</a>
</g>
</g>
<!-- Node14 -->
<g id="Node000014" class="node">
<title>Node14</title>
<g id="a_Node000014"><a xlink:href="classAIInterface.html#a0a465b003f70eccb891d1ffb816300dd" target="_top" xlink:title=" ">
<polygon fill="white" stroke="#666666" points="342,-103.5 190,-103.5 190,-73.5 342,-73.5 342,-103.5"/>
<text text-anchor="start" x="198" y="-91.5" font-family="Helvetica,sans-Serif" font-size="10.00">AIInterface::setIgnorePlayer</text>
<text text-anchor="middle" x="266" y="-80.5" font-family="Helvetica,sans-Serif" font-size="10.00">Combat</text>
</a>
</g>
</g>
<!-- Node1&#45;&gt;Node14 -->
<g id="edge16_Node000001_Node000014" class="edge">
<title>Node1&#45;&gt;Node14</title>
<g id="a_edge16_Node000001_Node000014"><a xlink:title=" ">
<path fill="none" stroke="#63b8ff" d="M148.19,-88.5C158.57,-88.5 169.31,-88.5 179.89,-88.5"/>
<polygon fill="#63b8ff" stroke="#63b8ff" points="179.97,-92 189.97,-88.5 179.97,-85 179.97,-92"/>
</a>
</g>
</g>
<!-- Node4 -->
<g id="Node000004" class="node">
<title>Node4</title>
<g id="a_Node000004"><a xlink:href="classUnit.html#a2ac6a3a63629788ab412b9729851dd20" target="_top" xlink:title=" ">
<polygon fill="white" stroke="#666666" points="501,-92 394,-92 394,-73 501,-73 501,-92"/>
<text text-anchor="middle" x="447.5" y="-80" font-family="Helvetica,sans-Serif" font-size="10.00">Unit::addUnitFlags</text>
</a>
</g>
</g>
<!-- Node3&#45;&gt;Node4 -->
<g id="edge3_Node000003_Node000004" class="edge">
<title>Node3&#45;&gt;Node4</title>
<g id="a_edge3_Node000003_Node000004"><a xlink:title=" ">
<path fill="none" stroke="#63b8ff" d="M331.3,-55.54C352.55,-60.52 375.89,-65.98 395.96,-70.67"/>
<polygon fill="#63b8ff" stroke="#63b8ff" points="395.3,-74.11 405.83,-72.98 396.89,-67.3 395.3,-74.11"/>
</a>
</g>
</g>
<!-- Node13 -->
<g id="Node000013" class="node">
<title>Node13</title>
<g id="a_Node000013"><a xlink:href="classUnit.html#a3efa33ec534afc65910d40bfcc9cab4b" target="_top" xlink:title=" ">
<polygon fill="white" stroke="#666666" points="511,-55 384,-55 384,-36 511,-36 511,-55"/>
<text text-anchor="middle" x="447.5" y="-43" font-family="Helvetica,sans-Serif" font-size="10.00">Unit::removeUnitFlags</text>
</a>
</g>
</g>
<!-- Node3&#45;&gt;Node13 -->
<g id="edge13_Node000003_Node000013" class="edge">
<title>Node3&#45;&gt;Node13</title>
<g id="a_edge13_Node000003_Node000013"><a xlink:title=" ">
<path fill="none" stroke="#63b8ff" d="M348.09,-42.76C356.61,-43 365.23,-43.24 373.65,-43.47"/>
<polygon fill="#63b8ff" stroke="#63b8ff" points="373.71,-46.97 383.8,-43.75 373.9,-39.98 373.71,-46.97"/>
</a>
</g>
</g>
<!-- Node5 -->
<g id="Node000005" class="node">
<title>Node5</title>
<g id="a_Node000005"><a xlink:href="classUnit.html#a67095c70ac3cc853e32e1b9d17c4bab7" target="_top" xlink:title=" ">
<polygon fill="white" stroke="#666666" points="652,-92 547,-92 547,-73 652,-73 652,-92"/>
<text text-anchor="middle" x="599.5" y="-80" font-family="Helvetica,sans-Serif" font-size="10.00">Unit::getUnitFlags</text>
</a>
</g>
</g>
<!-- Node4&#45;&gt;Node5 -->
<g id="edge4_Node000004_Node000005" class="edge">
<title>Node4&#45;&gt;Node5</title>
<g id="a_edge4_Node000004_Node000005"><a xlink:title=" ">
<path fill="none" stroke="#63b8ff" d="M501.38,-82.5C512.8,-82.5 524.97,-82.5 536.69,-82.5"/>
<polygon fill="#63b8ff" stroke="#63b8ff" points="536.85,-86 546.85,-82.5 536.85,-79 536.85,-86"/>
</a>
</g>
</g>
<!-- Node7 -->
<g id="Node000007" class="node">
<title>Node7</title>
<g id="a_Node000007"><a xlink:href="classUnit.html#a887727aa4db30d7fee65b72961457abf" target="_top" xlink:title=" ">
<polygon fill="white" stroke="#666666" points="651.5,-55 547.5,-55 547.5,-36 651.5,-36 651.5,-55"/>
<text text-anchor="middle" x="599.5" y="-43" font-family="Helvetica,sans-Serif" font-size="10.00">Unit::setUnitFlags</text>
</a>
</g>
</g>
<!-- Node4&#45;&gt;Node7 -->
<g id="edge6_Node000004_Node000007" class="edge">
<title>Node4&#45;&gt;Node7</title>
<g id="a_edge6_Node000004_Node000007"><a xlink:title=" ">
<path fill="none" stroke="#63b8ff" d="M487.13,-72.97C506.3,-68.24 529.66,-62.48 550.02,-57.46"/>
<polygon fill="#63b8ff" stroke="#63b8ff" points="550.87,-60.85 559.74,-55.06 549.19,-54.06 550.87,-60.85"/>
</a>
</g>
</g>
<!-- Node6 -->
<g id="Node000006" class="node">
<title>Node6</title>
<g id="a_Node000006"><a xlink:href="classUnit.html#a2b80af47340ac01ca2031723f37e839a" target="_top" xlink:title=" ">
<polygon fill="white" stroke="#666666" points="773,-92 688,-92 688,-73 773,-73 773,-92"/>
<text text-anchor="middle" x="730.5" y="-80" font-family="Helvetica,sans-Serif" font-size="10.00">Unit::unitData</text>
</a>
</g>
</g>
<!-- Node5&#45;&gt;Node6 -->
<g id="edge5_Node000005_Node000006" class="edge">
<title>Node5&#45;&gt;Node6</title>
<g id="a_edge5_Node000005_Node000006"><a xlink:title=" ">
<path fill="none" stroke="#63b8ff" d="M652.23,-82.5C660.6,-82.5 669.27,-82.5 677.64,-82.5"/>
<polygon fill="#63b8ff" stroke="#63b8ff" points="677.67,-86 687.67,-82.5 677.67,-79 677.67,-86"/>
</a>
</g>
</g>
<!-- Node7&#45;&gt;Node6 -->
<g id="edge7_Node000007_Node000006" class="edge">
<title>Node7&#45;&gt;Node6</title>
<g id="a_edge7_Node000007_Node000006"><a xlink:title=" ">
<path fill="none" stroke="#63b8ff" d="M633.72,-55.03C649.7,-59.61 669.05,-65.16 686.17,-70.07"/>
<polygon fill="#63b8ff" stroke="#63b8ff" points="685.37,-73.48 695.94,-72.88 687.3,-66.75 685.37,-73.48"/>
</a>
</g>
</g>
<!-- Node8 -->
<g id="Node000008" class="node">
<title>Node8</title>
<g id="a_Node000008"><a xlink:href="classObject.html#a8b600efb87d19216b881a2451ce3629f" target="_top" xlink:title=" ">
<polygon fill="white" stroke="#666666" points="770,-55 691,-55 691,-36 770,-36 770,-55"/>
<text text-anchor="middle" x="730.5" y="-43" font-family="Helvetica,sans-Serif" font-size="10.00">Object::write</text>
</a>
</g>
</g>
<!-- Node7&#45;&gt;Node8 -->
<g id="edge8_Node000007_Node000008" class="edge">
<title>Node7&#45;&gt;Node8</title>
<g id="a_edge8_Node000007_Node000008"><a xlink:title=" ">
<path fill="none" stroke="#63b8ff" d="M651.85,-45.5C661.25,-45.5 671.03,-45.5 680.36,-45.5"/>
<polygon fill="#63b8ff" stroke="#63b8ff" points="680.65,-49 690.65,-45.5 680.65,-42 680.65,-49"/>
</a>
</g>
</g>
<!-- Node9 -->
<g id="Node000009" class="node">
<title>Node9</title>
<g id="a_Node000009"><a xlink:href="classUpdateMask.html#aaf858dd57840b7228abe64c6376d1c89" target="_top" xlink:title=" ">
<polygon fill="white" stroke="#666666" points="925,-74 812,-74 812,-55 925,-55 925,-74"/>
<text text-anchor="middle" x="868.5" y="-62" font-family="Helvetica,sans-Serif" font-size="10.00">UpdateMask::SetBit</text>
</a>
</g>
</g>
<!-- Node8&#45;&gt;Node9 -->
<g id="edge9_Node000008_Node000009" class="edge">
<title>Node8&#45;&gt;Node9</title>
<g id="a_edge9_Node000008_Node000009"><a xlink:title=" ">
<path fill="none" stroke="#63b8ff" d="M770.11,-50.89C780.03,-52.28 790.98,-53.81 801.86,-55.33"/>
<polygon fill="#63b8ff" stroke="#63b8ff" points="801.4,-58.8 811.79,-56.72 802.37,-51.87 801.4,-58.8"/>
</a>
</g>
</g>
<!-- Node10 -->
<g id="Node000010" class="node">
<title>Node10</title>
<g id="a_Node000010"><a xlink:href="classObject.html#a796330249e8c0e5f7c2cf52715638620" target="_top" xlink:title=" ">
<polygon fill="white" stroke="#666666" points="928,-37 809,-37 809,-18 928,-18 928,-37"/>
<text text-anchor="middle" x="868.5" y="-25" font-family="Helvetica,sans-Serif" font-size="10.00">Object::updateObject</text>
</a>
</g>
</g>
<!-- Node8&#45;&gt;Node10 -->
<g id="edge10_Node000008_Node000010" class="edge">
<title>Node8&#45;&gt;Node10</title>
<g id="a_edge10_Node000008_Node000010"><a xlink:title=" ">
<path fill="none" stroke="#63b8ff" d="M770.11,-40.39C779.18,-39.19 789.11,-37.87 799.06,-36.56"/>
<polygon fill="#63b8ff" stroke="#63b8ff" points="799.52,-40.03 808.98,-35.25 798.61,-33.09 799.52,-40.03"/>
</a>
</g>
</g>
<!-- Node11 -->
<g id="Node000011" class="node">
<title>Node11</title>
<g id="a_Node000011"><a xlink:href="classObject.html#a3aeab7def818ba6c50249f197ad2f9ca" target="_top" xlink:title=" ">
<polygon fill="white" stroke="#666666" points="1085,-56 986,-56 986,-37 1085,-37 1085,-56"/>
<text text-anchor="middle" x="1035.5" y="-44" font-family="Helvetica,sans-Serif" font-size="10.00">Object::IsInWorld</text>
</a>
</g>
</g>
<!-- Node10&#45;&gt;Node11 -->
<g id="edge11_Node000010_Node000011" class="edge">
<title>Node10&#45;&gt;Node11</title>
<g id="a_edge11_Node000010_Node000011"><a xlink:title=" ">
<path fill="none" stroke="#63b8ff" d="M928.14,-34.25C943.64,-36.04 960.37,-37.96 975.87,-39.75"/>
<polygon fill="#63b8ff" stroke="#63b8ff" points="975.52,-43.23 985.85,-40.9 976.32,-36.28 975.52,-43.23"/>
</a>
</g>
</g>
<!-- Node12 -->
<g id="Node000012" class="node">
<title>Node12</title>
<g id="a_Node000012"><a xlink:href="classWorldMap.html#aabf61e8d556612e51b4e87a605d314bf" target="_top" xlink:title=" ">
<polygon fill="white" stroke="#666666" points="1107,-19 964,-19 964,0 1107,0 1107,-19"/>
<text text-anchor="middle" x="1035.5" y="-7" font-family="Helvetica,sans-Serif" font-size="10.00">WorldMap::objectUpdated</text>
</a>
</g>
</g>
<!-- Node10&#45;&gt;Node12 -->
<g id="edge12_Node000010_Node000012" class="edge">
<title>Node10&#45;&gt;Node12</title>
<g id="a_edge12_Node000010_Node000012"><a xlink:title=" ">
<path fill="none" stroke="#63b8ff" d="M928.14,-21.1C936.46,-20.2 945.14,-19.25 953.79,-18.31"/>
<polygon fill="#63b8ff" stroke="#63b8ff" points="954.34,-21.77 963.91,-17.2 953.59,-14.81 954.34,-21.77"/>
</a>
</g>
</g>
<!-- Node13&#45;&gt;Node5 -->
<g id="edge14_Node000013_Node000005" class="edge">
<title>Node13&#45;&gt;Node5</title>
<g id="a_edge14_Node000013_Node000005"><a xlink:title=" ">
<path fill="none" stroke="#63b8ff" d="M487.13,-55.03C506.3,-59.76 529.66,-65.52 550.02,-70.54"/>
<polygon fill="#63b8ff" stroke="#63b8ff" points="549.19,-73.94 559.74,-72.94 550.87,-67.15 549.19,-73.94"/>
</a>
</g>
</g>
<!-- Node13&#45;&gt;Node7 -->
<g id="edge15_Node000013_Node000007" class="edge">
<title>Node13&#45;&gt;Node7</title>
<g id="a_edge15_Node000013_Node000007"><a xlink:title=" ">
<path fill="none" stroke="#63b8ff" d="M511.24,-45.5C519.81,-45.5 528.59,-45.5 537.12,-45.5"/>
<polygon fill="#63b8ff" stroke="#63b8ff" points="537.38,-49 547.38,-45.5 537.38,-42 537.38,-49"/>
</a>
</g>
</g>
<!-- Node14&#45;&gt;Node4 -->
<g id="edge17_Node000014_Node000004" class="edge">
<title>Node14&#45;&gt;Node4</title>
<g id="a_edge17_Node000014_Node000004"><a xlink:title=" ">
<path fill="none" stroke="#63b8ff" d="M342.08,-85.99C355.94,-85.53 370.28,-85.05 383.72,-84.6"/>
<polygon fill="#63b8ff" stroke="#63b8ff" points="383.93,-88.09 393.81,-84.26 383.7,-81.1 383.93,-88.09"/>
</a>
</g>
</g>
<!-- Node14&#45;&gt;Node13 -->
<g id="edge18_Node000014_Node000013" class="edge">
<title>Node14&#45;&gt;Node13</title>
<g id="a_edge18_Node000014_Node000013"><a xlink:title=" ">
<path fill="none" stroke="#63b8ff" d="M329.78,-73.46C351.76,-68.2 376.12,-62.36 396.88,-57.39"/>
<polygon fill="#63b8ff" stroke="#63b8ff" points="397.84,-60.76 406.75,-55.02 396.21,-53.95 397.84,-60.76"/>
</a>
</g>
</g>
</g>
</svg>
