<?xml version="1.0" encoding="UTF-8" standalone="no"?>
<!DOCTYPE svg PUBLIC "-//W3C//DTD SVG 1.1//EN"
 "http://www.w3.org/Graphics/SVG/1.1/DTD/svg11.dtd">
<!-- Generated by graphviz version 2.43.0 (0)
 -->
<!-- Title: G3D::Plane::halfSpaceContains Pages: 1 -->
<svg width="505pt" height="156pt"
 viewBox="0.00 0.00 505.00 156.00" xmlns="http://www.w3.org/2000/svg" xmlns:xlink="http://www.w3.org/1999/xlink">
<g id="graph0" class="graph" transform="scale(1 1) rotate(0) translate(4 152)">
<title>G3D::Plane::halfSpaceContains</title>
<!-- Node1 -->
<g id="Node000001" class="node">
<title>Node1</title>
<g id="a_Node000001"><a xlink:title=" ">
<polygon fill="#999999" stroke="#666666" points="167,-74 0,-74 0,-55 167,-55 167,-74"/>
<text text-anchor="middle" x="83.5" y="-62" font-family="Helvetica,sans-Serif" font-size="10.00">G3D::Plane::halfSpaceContains</text>
</a>
</g>
</g>
<!-- Node2 -->
<g id="Node000002" class="node">
<title>Node2</title>
<g id="a_Node000002"><a xlink:href="classG3D_1_1Vector3.html#a734c340d6139a06bc5991fc2a05bd821" target="_top" xlink:title=" ">
<polygon fill="white" stroke="#666666" points="328.5,-130 212.5,-130 212.5,-111 328.5,-111 328.5,-130"/>
<text text-anchor="middle" x="270.5" y="-118" font-family="Helvetica,sans-Serif" font-size="10.00">G3D::Vector3::clamp</text>
</a>
</g>
</g>
<!-- Node1&#45;&gt;Node2 -->
<g id="edge1_Node000001_Node000002" class="edge">
<title>Node1&#45;&gt;Node2</title>
<g id="a_edge1_Node000001_Node000002"><a xlink:title=" ">
<path fill="none" stroke="#63b8ff" d="M113.12,-74.09C137.05,-82 172.13,-93.38 203,-102.5 209.55,-104.44 216.49,-106.4 223.31,-108.29"/>
<polygon fill="#63b8ff" stroke="#63b8ff" points="222.61,-111.73 233.18,-110.99 224.45,-104.98 222.61,-111.73"/>
</a>
</g>
</g>
<!-- Node5 -->
<g id="Node000005" class="node">
<title>Node5</title>
<g id="a_Node000005"><a xlink:href="classG3D_1_1Vector3.html#a738e0282cf91f7835e0299aaed0b2fa7" target="_top" xlink:title=" ">
<polygon fill="white" stroke="#666666" points="321.5,-93 219.5,-93 219.5,-74 321.5,-74 321.5,-93"/>
<text text-anchor="middle" x="270.5" y="-81" font-family="Helvetica,sans-Serif" font-size="10.00">G3D::Vector3::dot</text>
</a>
</g>
</g>
<!-- Node1&#45;&gt;Node5 -->
<g id="edge4_Node000001_Node000005" class="edge">
<title>Node1&#45;&gt;Node5</title>
<g id="a_edge4_Node000001_Node000005"><a xlink:title=" ">
<path fill="none" stroke="#63b8ff" d="M167.26,-73C181.44,-74.46 195.93,-75.94 209.38,-77.33"/>
<polygon fill="#63b8ff" stroke="#63b8ff" points="209.13,-80.82 219.44,-78.36 209.85,-73.86 209.13,-80.82"/>
</a>
</g>
</g>
<!-- Node6 -->
<g id="Node000006" class="node">
<title>Node6</title>
<g id="a_Node000006"><a xlink:href="classG3D_1_1Vector3.html#a5a2f60ade6dfd57f861e5e7589a670a6" target="_top" xlink:title=" ">
<polygon fill="white" stroke="#666666" points="338,-56 203,-56 203,-37 338,-37 338,-56"/>
<text text-anchor="middle" x="270.5" y="-44" font-family="Helvetica,sans-Serif" font-size="10.00">G3D::Vector3::maxFinite</text>
</a>
</g>
</g>
<!-- Node1&#45;&gt;Node6 -->
<g id="edge5_Node000001_Node000006" class="edge">
<title>Node1&#45;&gt;Node6</title>
<g id="a_edge5_Node000001_Node000006"><a xlink:title=" ">
<path fill="none" stroke="#63b8ff" d="M167.26,-56.45C175.74,-55.62 184.33,-54.79 192.75,-53.97"/>
<polygon fill="#63b8ff" stroke="#63b8ff" points="193.28,-57.43 202.9,-52.98 192.61,-50.47 193.28,-57.43"/>
</a>
</g>
</g>
<!-- Node7 -->
<g id="Node000007" class="node">
<title>Node7</title>
<g id="a_Node000007"><a xlink:href="classG3D_1_1Vector3.html#a2f12879c6c17895568f4d836ec8968aa" target="_top" xlink:title=" ">
<polygon fill="white" stroke="#666666" points="336.5,-19 204.5,-19 204.5,0 336.5,0 336.5,-19"/>
<text text-anchor="middle" x="270.5" y="-7" font-family="Helvetica,sans-Serif" font-size="10.00">G3D::Vector3::minFinite</text>
</a>
</g>
</g>
<!-- Node1&#45;&gt;Node7 -->
<g id="edge6_Node000001_Node000007" class="edge">
<title>Node1&#45;&gt;Node7</title>
<g id="a_edge6_Node000001_Node000007"><a xlink:title=" ">
<path fill="none" stroke="#63b8ff" d="M115.64,-54.88C139.52,-47.55 173.3,-37.25 203,-28.5 210.37,-26.33 218.21,-24.06 225.82,-21.87"/>
<polygon fill="#63b8ff" stroke="#63b8ff" points="226.99,-25.17 235.64,-19.06 225.06,-18.44 226.99,-25.17"/>
</a>
</g>
</g>
<!-- Node3 -->
<g id="Node000003" class="node">
<title>Node3</title>
<g id="a_Node000003"><a xlink:href="namespaceG3D.html#a190f1d60ffcfb2fdea117c59bb68515d" target="_top" xlink:title=" ">
<polygon fill="white" stroke="#666666" points="472.5,-148 398.5,-148 398.5,-129 472.5,-129 472.5,-148"/>
<text text-anchor="middle" x="435.5" y="-136" font-family="Helvetica,sans-Serif" font-size="10.00">G3D::clamp</text>
</a>
</g>
</g>
<!-- Node2&#45;&gt;Node3 -->
<g id="edge2_Node000002_Node000003" class="edge">
<title>Node2&#45;&gt;Node3</title>
<g id="a_edge2_Node000002_Node000003"><a xlink:title=" ">
<path fill="none" stroke="#63b8ff" d="M328.51,-126.8C348.03,-128.95 369.62,-131.33 388.19,-133.39"/>
<polygon fill="#63b8ff" stroke="#63b8ff" points="387.84,-136.87 398.16,-134.49 388.61,-129.91 387.84,-136.87"/>
</a>
</g>
</g>
<!-- Node4 -->
<g id="Node000004" class="node">
<title>Node4</title>
<g id="a_Node000004"><a xlink:href="classG3D_1_1Vector3.html#ab67b8cd6401c6dce004df38ea7076882" target="_top" xlink:title=" ">
<polygon fill="white" stroke="#666666" points="497,-111 374,-111 374,-92 497,-92 497,-111"/>
<text text-anchor="middle" x="435.5" y="-99" font-family="Helvetica,sans-Serif" font-size="10.00">G3D::Vector3::Vector3</text>
</a>
</g>
</g>
<!-- Node2&#45;&gt;Node4 -->
<g id="edge3_Node000002_Node000004" class="edge">
<title>Node2&#45;&gt;Node4</title>
<g id="a_edge3_Node000002_Node000004"><a xlink:title=" ">
<path fill="none" stroke="#63b8ff" d="M328.51,-113.85C339.87,-112.53 351.93,-111.12 363.69,-109.75"/>
<polygon fill="#63b8ff" stroke="#63b8ff" points="364.39,-113.2 373.92,-108.56 363.58,-106.24 364.39,-113.2"/>
</a>
</g>
</g>
</g>
</svg>
