<?xml version="1.0" encoding="UTF-8" standalone="no"?>
<!DOCTYPE svg PUBLIC "-//W3C//DTD SVG 1.1//EN"
 "http://www.w3.org/Graphics/SVG/1.1/DTD/svg11.dtd">
<!-- Generated by graphviz version 2.43.0 (0)
 -->
<!-- Title: CreatureAIScript::_isInCombat Pages: 1 -->
<svg width="301pt" height="64pt"
 viewBox="0.00 0.00 301.00 64.00" xmlns="http://www.w3.org/2000/svg" xmlns:xlink="http://www.w3.org/1999/xlink">
<g id="graph0" class="graph" transform="scale(1 1) rotate(0) translate(4 60)">
<title>CreatureAIScript::_isInCombat</title>
<!-- Node1 -->
<g id="Node000001" class="node">
<title>Node1</title>
<g id="a_Node000001"><a xlink:title=" ">
<polygon fill="#999999" stroke="#666666" points="102,-42.5 0,-42.5 0,-12.5 102,-12.5 102,-42.5"/>
<text text-anchor="start" x="8" y="-30.5" font-family="Helvetica,sans-Serif" font-size="10.00">CreatureAIScript::</text>
<text text-anchor="middle" x="51" y="-19.5" font-family="Helvetica,sans-Serif" font-size="10.00">_isInCombat</text>
</a>
</g>
</g>
<!-- Node2 -->
<g id="Node000002" class="node">
<title>Node2</title>
<g id="a_Node000002"><a xlink:href="classUnit.html#ae24524f5980ca871287dcbfc07168b6b" target="_top" xlink:title=" ">
<polygon fill="white" stroke="#666666" points="283,-56 148,-56 148,-37 283,-37 283,-56"/>
<text text-anchor="middle" x="215.5" y="-44" font-family="Helvetica,sans-Serif" font-size="10.00">Unit::getCombatHandler</text>
</a>
</g>
</g>
<!-- Node1&#45;&gt;Node2 -->
<g id="edge1_Node000001_Node000002" class="edge">
<title>Node1&#45;&gt;Node2</title>
<g id="a_edge1_Node000001_Node000002"><a xlink:title=" ">
<path fill="none" stroke="#63b8ff" d="M102.08,-33.36C113.37,-34.68 125.61,-36.11 137.72,-37.52"/>
<polygon fill="#63b8ff" stroke="#63b8ff" points="137.5,-41.02 147.83,-38.71 138.31,-34.07 137.5,-41.02"/>
</a>
</g>
</g>
<!-- Node3 -->
<g id="Node000003" class="node">
<title>Node3</title>
<g id="a_Node000003"><a xlink:href="classCombatHandler.html#aa1158c382b0333858277f7a573a45048" target="_top" xlink:title=" ">
<polygon fill="white" stroke="#666666" points="293,-19 138,-19 138,0 293,0 293,-19"/>
<text text-anchor="middle" x="215.5" y="-7" font-family="Helvetica,sans-Serif" font-size="10.00">CombatHandler::isInCombat</text>
</a>
</g>
</g>
<!-- Node1&#45;&gt;Node3 -->
<g id="edge2_Node000001_Node000003" class="edge">
<title>Node1&#45;&gt;Node3</title>
<g id="a_edge2_Node000001_Node000003"><a xlink:title=" ">
<path fill="none" stroke="#63b8ff" d="M102.08,-21.95C110.35,-21.04 119.12,-20.07 127.98,-19.08"/>
<polygon fill="#63b8ff" stroke="#63b8ff" points="128.44,-22.55 137.99,-17.97 127.67,-15.6 128.44,-22.55"/>
</a>
</g>
</g>
</g>
</svg>
