<?xml version="1.0" encoding="UTF-8" standalone="no"?>
<!DOCTYPE svg PUBLIC "-//W3C//DTD SVG 1.1//EN"
 "http://www.w3.org/Graphics/SVG/1.1/DTD/svg11.dtd">
<!-- Generated by graphviz version 2.43.0 (0)
 -->
<!-- Title: G3D::ImageFormat::DEPTH16 Pages: 1 -->
<svg width="570pt" height="64pt"
 viewBox="0.00 0.00 570.00 64.00" xmlns="http://www.w3.org/2000/svg" xmlns:xlink="http://www.w3.org/1999/xlink">
<g id="graph0" class="graph" transform="scale(1 1) rotate(0) translate(4 60)">
<title>G3D::ImageFormat::DEPTH16</title>
<!-- Node1 -->
<g id="Node000001" class="node">
<title>Node1</title>
<g id="a_Node000001"><a xlink:title=" ">
<polygon fill="#999999" stroke="#666666" points="562,-37 402,-37 402,-18 562,-18 562,-37"/>
<text text-anchor="middle" x="482" y="-25" font-family="Helvetica,sans-Serif" font-size="10.00">G3D::ImageFormat::DEPTH16</text>
</a>
</g>
</g>
<!-- Node2 -->
<g id="Node000002" class="node">
<title>Node2</title>
<g id="a_Node000002"><a xlink:href="classG3D_1_1ImageFormat.html#a579b60fb2659255fd449ab04c0540438" target="_top" xlink:title=" ">
<polygon fill="white" stroke="#666666" points="356,-56 213,-56 213,-37 356,-37 356,-56"/>
<text text-anchor="middle" x="284.5" y="-44" font-family="Helvetica,sans-Serif" font-size="10.00">G3D::ImageFormat::depth</text>
</a>
</g>
</g>
<!-- Node1&#45;&gt;Node2 -->
<g id="edge1_Node000001_Node000002" class="edge">
<title>Node1&#45;&gt;Node2</title>
<g id="a_edge1_Node000001_Node000002"><a xlink:title=" ">
<path fill="none" stroke="#63b8ff" d="M391.76,-36.17C379.78,-37.34 367.63,-38.52 356.04,-39.64"/>
<polygon fill="#63b8ff" stroke="#63b8ff" points="392.15,-39.65 401.76,-35.2 391.47,-32.68 392.15,-39.65"/>
</a>
</g>
</g>
<!-- Node3 -->
<g id="Node000003" class="node">
<title>Node3</title>
<g id="a_Node000003"><a xlink:href="classG3D_1_1ImageFormat.html#ad87e81097e503e009228922b85b462a7" target="_top" xlink:title=" ">
<polygon fill="white" stroke="#666666" points="366,-19 203,-19 203,0 366,0 366,-19"/>
<text text-anchor="middle" x="284.5" y="-7" font-family="Helvetica,sans-Serif" font-size="10.00">G3D::ImageFormat::fromCode</text>
</a>
</g>
</g>
<!-- Node1&#45;&gt;Node3 -->
<g id="edge2_Node000001_Node000003" class="edge">
<title>Node1&#45;&gt;Node3</title>
<g id="a_edge2_Node000001_Node000003"><a xlink:title=" ">
<path fill="none" stroke="#63b8ff" d="M391.78,-19.29C383.23,-18.5 374.58,-17.7 366.12,-16.92"/>
<polygon fill="#63b8ff" stroke="#63b8ff" points="391.49,-22.77 401.76,-20.2 392.13,-15.8 391.49,-22.77"/>
</a>
</g>
</g>
<!-- Node4 -->
<g id="Node000004" class="node">
<title>Node4</title>
<g id="a_Node000004"><a xlink:href="classG3D_1_1ImageFormat.html#aa875d2c08db05b77d1a819b4abe1fb03" target="_top" xlink:title=" ">
<polygon fill="white" stroke="#666666" points="167,-19 0,-19 0,0 167,0 167,-19"/>
<text text-anchor="middle" x="83.5" y="-7" font-family="Helvetica,sans-Serif" font-size="10.00">G3D::ImageFormat::fromString</text>
</a>
</g>
</g>
<!-- Node3&#45;&gt;Node4 -->
<g id="edge3_Node000003_Node000004" class="edge">
<title>Node3&#45;&gt;Node4</title>
<g id="a_edge3_Node000003_Node000004"><a xlink:title=" ">
<path fill="none" stroke="#63b8ff" d="M192.59,-9.5C184.13,-9.5 175.59,-9.5 167.21,-9.5"/>
<polygon fill="#63b8ff" stroke="#63b8ff" points="192.85,-13 202.85,-9.5 192.85,-6 192.85,-13"/>
</a>
</g>
</g>
</g>
</svg>
