<?xml version="1.0" encoding="UTF-8" standalone="no"?>
<!DOCTYPE svg PUBLIC "-//W3C//DTD SVG 1.1//EN"
 "http://www.w3.org/Graphics/SVG/1.1/DTD/svg11.dtd">
<!-- Generated by graphviz version 2.43.0 (0)
 -->
<!-- Title: TirionAI::summonChampions Pages: 1 -->
<!--zoomable 131 -->

<svg id="main" version="1.1" xmlns="http://www.w3.org/2000/svg" xmlns:xlink="http://www.w3.org/1999/xlink" xml:space="preserve" onload="init(evt)">
<style type="text/css"><![CDATA[
.node, .edge {opacity: 0.7;}
.node.selected, .edge.selected {opacity: 1;}
.edge:hover path { stroke: red; }
.edge:hover polygon { stroke: red; fill: red; }
]]></style>

<defs>
  <circle id="rim" cx="0" cy="0" r="7"/>
  <circle id="rim2" cx="0" cy="0" r="3.5"/>
  <g id="zoomPlus">
    <use xlink:href="#rim" fill="#404040"><set attributeName="fill" to="#808080" begin="zoomplus.mouseover" end="zoomplus.mouseout"/></use>
    <path d="M-4,0h8M0,-4v8" fill="none" stroke="white" stroke-width="1.5" pointer-events="none"/>
  </g>
  <g id="zoomMin">
    <use xlink:href="#rim" fill="#404040"><set attributeName="fill" to="#808080" begin="zoomminus.mouseover" end="zoomminus.mouseout"/></use>
    <path d="M-4,0h8" fill="none" stroke="white" stroke-width="1.5" pointer-events="none"/>
  </g>
  <g id="arrowUp" transform="translate(30 24)">
    <use xlink:href="#rim"/>
    <path pointer-events="none" fill="none" stroke="white" stroke-width="1.5" d="M0,-3.0v7 M-2.5,-0.5L0,-3.0L2.5,-0.5"/>
  </g>
  <g id="arrowRight" transform="rotate(90) translate(36 -43)">
    <use xlink:href="#rim"/>
    <path pointer-events="none" fill="none" stroke="white" stroke-width="1.5" d="M0,-3.0v7 M-2.5,-0.5L0,-3.0L2.5,-0.5"/>
  </g>
  <g id="arrowDown" transform="rotate(180) translate(-30 -48)">
    <use xlink:href="#rim"/>
    <path pointer-events="none" fill="none" stroke="white" stroke-width="1.5" d="M0,-3.0v7 M-2.5,-0.5L0,-3.0L2.5,-0.5"/>
  </g>
  <g id="arrowLeft" transform="rotate(270) translate(-36 17)">
    <use xlink:href="#rim"/>
    <path pointer-events="none" fill="none" stroke="white" stroke-width="1.5" d="M0,-3.0v7 M-2.5,-0.5L0,-3.0L2.5,-0.5"/>
  </g>
  <g id="resetDef">
    <use xlink:href="#rim2" fill="#404040"><set attributeName="fill" to="#808080" begin="reset.mouseover" end="reset.mouseout"/></use>
  </g>
</defs>
<script type="application/ecmascript">
var viewWidth = 723;
var viewHeight = 131;
var sectionId = 'dynsection-34';
</script>
<script type="application/ecmascript" xlink:href="svg.min.js"/>
<svg id="graph" class="graph">
<g id="viewport">
<title>TirionAI::summonChampions</title>
<!-- Node1 -->
<g id="Node000001" class="node">
<title>Node1</title>
<g id="a_Node000001"><a xlink:title=" ">
<polygon fill="#999999" stroke="#666666" points="158,-85.5 0,-85.5 0,-66.5 158,-66.5 158,-85.5"/>
<text text-anchor="middle" x="79" y="-73.5" font-family="Helvetica,sans-Serif" font-size="10.00">TirionAI::summonChampions</text>
</a>
</g>
</g>
<!-- Node2 -->
<g id="Node000002" class="node">
<title>Node2</title>
<g id="a_Node000002"><a xlink:href="classCreatureAIScript.html#add0de2a72b7c67e05f3074b151b38299" target="_top" xlink:title=" ">
<polygon fill="white" stroke="#666666" points="365,-122.5 194,-122.5 194,-103.5 365,-103.5 365,-122.5"/>
<text text-anchor="middle" x="279.5" y="-110.5" font-family="Helvetica,sans-Serif" font-size="10.00">CreatureAIScript::addAIFunction</text>
</a>
</g>
</g>
<!-- Node1&#45;&gt;Node2 -->
<g id="edge1_Node000001_Node000002" class="edge">
<title>Node1&#45;&gt;Node2</title>
<g id="a_edge1_Node000001_Node000002"><a xlink:title=" ">
<path fill="none" stroke="#63b8ff" d="M131.12,-85.53C157.41,-90.43 189.65,-96.44 217.27,-101.59"/>
<polygon fill="#63b8ff" stroke="#63b8ff" points="216.74,-105.05 227.21,-103.44 218.02,-98.17 216.74,-105.05"/>
</a>
</g>
</g>
<!-- Node3 -->
<g id="Node000003" class="node">
<title>Node3</title>
<g id="a_Node000003"><a xlink:href="classTirionAI.html#afa78e400bac850c74aa2719c51d36525" target="_top" xlink:title=" ">
<polygon fill="white" stroke="#666666" points="348.5,-85.5 210.5,-85.5 210.5,-66.5 348.5,-66.5 348.5,-85.5"/>
<text text-anchor="middle" x="279.5" y="-73.5" font-family="Helvetica,sans-Serif" font-size="10.00">TirionAI::ChampionsStart</text>
</a>
</g>
</g>
<!-- Node1&#45;&gt;Node3 -->
<g id="edge2_Node000001_Node000003" class="edge">
<title>Node1&#45;&gt;Node3</title>
<g id="a_edge2_Node000001_Node000003"><a xlink:title=" ">
<path fill="none" stroke="#63b8ff" d="M158.17,-76C171.91,-76 186.23,-76 199.98,-76"/>
<polygon fill="#63b8ff" stroke="#63b8ff" points="200.37,-79.5 210.37,-76 200.37,-72.5 200.37,-79.5"/>
</a>
</g>
</g>
<!-- Node7 -->
<g id="Node000007" class="node">
<title>Node7</title>
<g id="a_Node000007"><a xlink:href="classCreatureAIScript.html#a4cf9f4f4ddf6050d050dc4a08e857a2e" target="_top" xlink:title=" ">
<polygon fill="white" stroke="#666666" points="352,-30 207,-30 207,0 352,0 352,-30"/>
<text text-anchor="start" x="215" y="-18" font-family="Helvetica,sans-Serif" font-size="10.00">CreatureAIScript::summon</text>
<text text-anchor="middle" x="279.5" y="-7" font-family="Helvetica,sans-Serif" font-size="10.00">Creature</text>
</a>
</g>
</g>
<!-- Node1&#45;&gt;Node7 -->
<g id="edge6_Node000001_Node000007" class="edge">
<title>Node1&#45;&gt;Node7</title>
<g id="a_edge6_Node000001_Node000007"><a xlink:title=" ">
<path fill="none" stroke="#63b8ff" d="M111.02,-66.47C140.02,-57.56 184.09,-44.01 219.75,-33.06"/>
<polygon fill="#63b8ff" stroke="#63b8ff" points="221.03,-36.32 229.56,-30.04 218.97,-29.63 221.03,-36.32"/>
</a>
</g>
</g>
<!-- Node4 -->
<g id="Node000004" class="node">
<title>Node4</title>
<g id="a_Node000004"><a xlink:href="classCreatureAIScript.html#a6e3fced499a84b9cb1a1c9a6dfa60b7a" target="_top" xlink:title=" ">
<polygon fill="white" stroke="#666666" points="560,-91 401,-91 401,-61 560,-61 560,-91"/>
<text text-anchor="start" x="409" y="-79" font-family="Helvetica,sans-Serif" font-size="10.00">CreatureAIScript::getInstance</text>
<text text-anchor="middle" x="480.5" y="-68" font-family="Helvetica,sans-Serif" font-size="10.00">Script</text>
</a>
</g>
</g>
<!-- Node3&#45;&gt;Node4 -->
<g id="edge3_Node000003_Node000004" class="edge">
<title>Node3&#45;&gt;Node4</title>
<g id="a_edge3_Node000003_Node000004"><a xlink:title=" ">
<path fill="none" stroke="#63b8ff" d="M348.71,-76C362.2,-76 376.54,-76 390.6,-76"/>
<polygon fill="#63b8ff" stroke="#63b8ff" points="390.77,-79.5 400.77,-76 390.77,-72.5 390.77,-79.5"/>
</a>
</g>
</g>
<!-- Node5 -->
<g id="Node000005" class="node">
<title>Node5</title>
<g id="a_Node000005"><a xlink:href="classWorldMap.html#a4af3c5d2b3b7bf0b3bfc5c3b92aa3c90" target="_top" xlink:title=" ">
<polygon fill="white" stroke="#666666" points="713,-104.5 598,-104.5 598,-85.5 713,-85.5 713,-104.5"/>
<text text-anchor="middle" x="655.5" y="-92.5" font-family="Helvetica,sans-Serif" font-size="10.00">WorldMap::getScript</text>
</a>
</g>
</g>
<!-- Node4&#45;&gt;Node5 -->
<g id="edge4_Node000004_Node000005" class="edge">
<title>Node4&#45;&gt;Node5</title>
<g id="a_edge4_Node000004_Node000005"><a xlink:title=" ">
<path fill="none" stroke="#63b8ff" d="M560.15,-84.64C569.36,-85.65 578.69,-86.67 587.72,-87.67"/>
<polygon fill="#63b8ff" stroke="#63b8ff" points="587.43,-91.16 597.76,-88.77 588.2,-84.2 587.43,-91.16"/>
</a>
</g>
</g>
<!-- Node6 -->
<g id="Node000006" class="node">
<title>Node6</title>
<g id="a_Node000006"><a xlink:href="classObject.html#a967af054c54b6d9846637ce8718efd75" target="_top" xlink:title=" ">
<polygon fill="white" stroke="#666666" points="715,-67.5 596,-67.5 596,-48.5 715,-48.5 715,-67.5"/>
<text text-anchor="middle" x="655.5" y="-55.5" font-family="Helvetica,sans-Serif" font-size="10.00">Object::getWorldMap</text>
</a>
</g>
</g>
<!-- Node4&#45;&gt;Node6 -->
<g id="edge5_Node000004_Node000006" class="edge">
<title>Node4&#45;&gt;Node6</title>
<g id="a_edge5_Node000004_Node000006"><a xlink:title=" ">
<path fill="none" stroke="#63b8ff" d="M560.15,-67.82C568.72,-66.93 577.39,-66.02 585.82,-65.15"/>
<polygon fill="#63b8ff" stroke="#63b8ff" points="586.39,-68.61 595.97,-64.09 585.66,-61.64 586.39,-68.61"/>
</a>
</g>
</g>
<!-- Node7&#45;&gt;Node7 -->
<g id="edge7_Node000007_Node000007" class="edge">
<title>Node7&#45;&gt;Node7</title>
<g id="a_edge7_Node000007_Node000007"><a xlink:title=" ">
<path fill="none" stroke="#63b8ff" d="M244.34,-30.28C236.53,-39.41 248.25,-48 279.5,-48 298.05,-48 309.72,-44.97 314.51,-40.6"/>
<polygon fill="#63b8ff" stroke="#63b8ff" points="318.01,-40.32 314.66,-30.28 311.01,-40.22 318.01,-40.32"/>
</a>
</g>
</g>
</g>
</svg>

<g id="navigator" transform="translate(0 0)" fill="#404254">
  <rect fill="#f2f5e9" fill-opacity="0.5" stroke="#606060" stroke-width=".5" x="0" y="0" width="60" height="60"/>
  <use id="zoomplus" xlink:href="#zoomPlus" x="17" y="9" onmousedown="handleZoom(evt,'in')"/>
  <use id="zoomminus" xlink:href="#zoomMin" x="42" y="9" onmousedown="handleZoom(evt,'out')"/>
  <use id="reset" xlink:href="#resetDef" x="30" y="36" onmousedown="handleReset()"/>
   <use id="arrowup" xlink:href="#arrowUp" x="0" y="0" onmousedown="handlePan(0,-1)"/>
  <use id="arrowright" xlink:href="#arrowRight" x="0" y="0" onmousedown="handlePan(1,0)"/>
  <use id="arrowdown" xlink:href="#arrowDown" x="0" y="0" onmousedown="handlePan(0,1)"/>
  <use id="arrowleft" xlink:href="#arrowLeft" x="0" y="0" onmousedown="handlePan(-1,0)"/>
</g>
<svg viewBox="0 0 15 15" width="100%" height="30px" preserveAspectRatio="xMaxYMin meet">
 <g id="arrow_out" transform="scale(0.3 0.3)">
  <a xlink:href="classTirionAI_a6346755358c62904da213c3f3412477f_cgraph_org.svg" target="_base">
   <rect id="button" ry="5" rx="5" y="6" x="6" height="38" width="38"
        fill="#f2f5e9" fill-opacity="0.5" stroke="#606060" stroke-width="1.0"/>
   <path id="arrow"
     d="M 11.500037,31.436501 C 11.940474,20.09759 22.043105,11.32322 32.158766,21.979434 L 37.068811,17.246167 C 37.068811,17.246167 37.088388,32 37.088388,32 L 22.160133,31.978069 C 22.160133,31.978069 26.997745,27.140456 26.997745,27.140456 C 18.528582,18.264221 13.291696,25.230495 11.500037,31.436501 z"
     style="fill:#404040;"/>
  </a>
 </g>
</svg>

<style type='text/css'>
<![CDATA[
[data-mouse-over-selected='false'] { opacity: 0.7; }
[data-mouse-over-selected='true']  { opacity: 1.0; }
]]>
</style>
<script type="application/ecmascript"><![CDATA[
document.addEventListener('DOMContentLoaded', (event) => {
  highlightEdges();
  highlightAdjacentNodes();
});
]]></script>
</svg>
