<?xml version="1.0" encoding="UTF-8" standalone="no"?>
<!DOCTYPE svg PUBLIC "-//W3C//DTD SVG 1.1//EN"
 "http://www.w3.org/Graphics/SVG/1.1/DTD/svg11.dtd">
<!-- Generated by graphviz version 2.43.0 (0)
 -->
<!-- Title: WorldSession::handleLfgSetRolesOpcode Pages: 1 -->
<svg width="530pt" height="134pt"
 viewBox="0.00 0.00 530.00 133.50" xmlns="http://www.w3.org/2000/svg" xmlns:xlink="http://www.w3.org/1999/xlink">
<g id="graph0" class="graph" transform="scale(1 1) rotate(0) translate(4 129.5)">
<title>WorldSession::handleLfgSetRolesOpcode</title>
<!-- Node1 -->
<g id="Node000001" class="node">
<title>Node1</title>
<g id="a_Node000001"><a xlink:title=" ">
<polygon fill="#999999" stroke="#666666" points="152,-61.5 0,-61.5 0,-31.5 152,-31.5 152,-61.5"/>
<text text-anchor="start" x="8" y="-49.5" font-family="Helvetica,sans-Serif" font-size="10.00">WorldSession::handleLfgSet</text>
<text text-anchor="middle" x="76" y="-38.5" font-family="Helvetica,sans-Serif" font-size="10.00">RolesOpcode</text>
</a>
</g>
</g>
<!-- Node2 -->
<g id="Node000002" class="node">
<title>Node2</title>
<g id="a_Node000002"><a xlink:href="classAscEmu_1_1Packets_1_1ManagedPacket.html#a22aad69ee4b8ada36d6718436097f52c" target="_top" xlink:title=" ">
<polygon fill="white" stroke="#666666" points="337,-104.5 188,-104.5 188,-74.5 337,-74.5 337,-104.5"/>
<text text-anchor="start" x="196" y="-92.5" font-family="Helvetica,sans-Serif" font-size="10.00">AscEmu::Packets::Managed</text>
<text text-anchor="middle" x="262.5" y="-81.5" font-family="Helvetica,sans-Serif" font-size="10.00">Packet::deserialise</text>
</a>
</g>
</g>
<!-- Node1&#45;&gt;Node2 -->
<g id="edge1_Node000001_Node000002" class="edge">
<title>Node1&#45;&gt;Node2</title>
<g id="a_edge1_Node000001_Node000002"><a xlink:title=" ">
<path fill="none" stroke="#63b8ff" d="M141.53,-61.54C156.28,-64.98 172.07,-68.66 187.19,-72.18"/>
<polygon fill="#63b8ff" stroke="#63b8ff" points="186.47,-75.61 197.01,-74.47 188.06,-68.79 186.47,-75.61"/>
</a>
</g>
</g>
<!-- Node5 -->
<g id="Node000005" class="node">
<title>Node5</title>
<g id="a_Node000005"><a xlink:href="classPlayer.html#a5895a59587da18a4655b8174805b7de0" target="_top" xlink:title=" ">
<polygon fill="white" stroke="#666666" points="311.5,-56 213.5,-56 213.5,-37 311.5,-37 311.5,-56"/>
<text text-anchor="middle" x="262.5" y="-44" font-family="Helvetica,sans-Serif" font-size="10.00">Player::getGroup</text>
</a>
</g>
</g>
<!-- Node1&#45;&gt;Node5 -->
<g id="edge4_Node000001_Node000005" class="edge">
<title>Node1&#45;&gt;Node5</title>
<g id="a_edge4_Node000001_Node000005"><a xlink:title=" ">
<path fill="none" stroke="#63b8ff" d="M152.04,-46.5C168.98,-46.5 186.73,-46.5 202.88,-46.5"/>
<polygon fill="#63b8ff" stroke="#63b8ff" points="203.24,-50 213.24,-46.5 203.24,-43 203.24,-50"/>
</a>
</g>
</g>
<!-- Node6 -->
<g id="Node000006" class="node">
<title>Node6</title>
<g id="a_Node000006"><a xlink:href="classObject.html#a0f6639fef4e90bc57ee1b34a81d6d489" target="_top" xlink:title=" ">
<polygon fill="white" stroke="#666666" points="308.5,-19 216.5,-19 216.5,0 308.5,0 308.5,-19"/>
<text text-anchor="middle" x="262.5" y="-7" font-family="Helvetica,sans-Serif" font-size="10.00">Object::getGuid</text>
</a>
</g>
</g>
<!-- Node1&#45;&gt;Node6 -->
<g id="edge5_Node000001_Node000006" class="edge">
<title>Node1&#45;&gt;Node6</title>
<g id="a_edge5_Node000001_Node000006"><a xlink:title=" ">
<path fill="none" stroke="#63b8ff" d="M152.04,-31.45C170.31,-27.79 189.5,-23.94 206.63,-20.5"/>
<polygon fill="#63b8ff" stroke="#63b8ff" points="207.34,-23.93 216.45,-18.53 205.96,-17.07 207.34,-23.93"/>
</a>
</g>
</g>
<!-- Node3 -->
<g id="Node000003" class="node">
<title>Node3</title>
<g id="a_Node000003"><a xlink:href="classAscEmu_1_1Packets_1_1ManagedPacket.html#acd76de075aab7b8c3d80f90cb85b361c" target="_top" xlink:title=" ">
<polygon fill="white" stroke="#666666" points="522,-125.5 373,-125.5 373,-95.5 522,-95.5 522,-125.5"/>
<text text-anchor="start" x="381" y="-113.5" font-family="Helvetica,sans-Serif" font-size="10.00">AscEmu::Packets::Managed</text>
<text text-anchor="middle" x="447.5" y="-102.5" font-family="Helvetica,sans-Serif" font-size="10.00">Packet::internalDeserialise</text>
</a>
</g>
</g>
<!-- Node2&#45;&gt;Node3 -->
<g id="edge2_Node000002_Node000003" class="edge">
<title>Node2&#45;&gt;Node3</title>
<g id="a_edge2_Node000002_Node000003"><a xlink:title=" ">
<path fill="none" stroke="#63b8ff" d="M337.14,-97.95C345.57,-98.92 354.2,-99.91 362.74,-100.89"/>
<polygon fill="#63b8ff" stroke="#63b8ff" points="362.38,-104.37 372.71,-102.03 363.17,-97.42 362.38,-104.37"/>
</a>
</g>
</g>
<!-- Node4 -->
<g id="Node000004" class="node">
<title>Node4</title>
<g id="a_Node000004"><a xlink:href="classByteBuffer.html#ab94674043b3dfb23f2eb386e8699cec9" target="_top" xlink:title=" ">
<polygon fill="white" stroke="#666666" points="509.5,-77 385.5,-77 385.5,-58 509.5,-58 509.5,-77"/>
<text text-anchor="middle" x="447.5" y="-65" font-family="Helvetica,sans-Serif" font-size="10.00">ByteBuffer::remaining</text>
</a>
</g>
</g>
<!-- Node2&#45;&gt;Node4 -->
<g id="edge3_Node000002_Node000004" class="edge">
<title>Node2&#45;&gt;Node4</title>
<g id="a_edge3_Node000002_Node000004"><a xlink:title=" ">
<path fill="none" stroke="#63b8ff" d="M337.14,-80.65C349.76,-79.13 362.85,-77.56 375.4,-76.05"/>
<polygon fill="#63b8ff" stroke="#63b8ff" points="375.82,-79.52 385.33,-74.85 374.98,-72.57 375.82,-79.52"/>
</a>
</g>
</g>
<!-- Node7 -->
<g id="Node000007" class="node">
<title>Node7</title>
<g id="a_Node000007"><a xlink:href="classObject.html#ae9814731421ab3e919a2e5c3b86e0eeb" target="_top" xlink:title=" ">
<polygon fill="white" stroke="#666666" points="501,-19 394,-19 394,0 501,0 501,-19"/>
<text text-anchor="middle" x="447.5" y="-7" font-family="Helvetica,sans-Serif" font-size="10.00">Object::objectData</text>
</a>
</g>
</g>
<!-- Node6&#45;&gt;Node7 -->
<g id="edge6_Node000006_Node000007" class="edge">
<title>Node6&#45;&gt;Node7</title>
<g id="a_edge6_Node000006_Node000007"><a xlink:title=" ">
<path fill="none" stroke="#63b8ff" d="M308.74,-9.5C331.24,-9.5 358.81,-9.5 383.36,-9.5"/>
<polygon fill="#63b8ff" stroke="#63b8ff" points="383.67,-13 393.67,-9.5 383.67,-6 383.67,-13"/>
</a>
</g>
</g>
</g>
</svg>
