<?xml version="1.0" encoding="UTF-8" standalone="no"?>
<!DOCTYPE svg PUBLIC "-//W3C//DTD SVG 1.1//EN"
 "http://www.w3.org/Graphics/SVG/1.1/DTD/svg11.dtd">
<!-- Generated by graphviz version 2.43.0 (0)
 -->
<!-- Title: G3D::AABox::deserialize Pages: 1 -->
<svg width="313pt" height="122pt"
 viewBox="0.00 0.00 313.00 122.00" xmlns="http://www.w3.org/2000/svg" xmlns:xlink="http://www.w3.org/1999/xlink">
<g id="graph0" class="graph" transform="scale(1 1) rotate(0) translate(4 118)">
<title>G3D::AABox::deserialize</title>
<!-- Node1 -->
<g id="Node000001" class="node">
<title>Node1</title>
<g id="a_Node000001"><a xlink:title=" ">
<polygon fill="#999999" stroke="#666666" points="305,-57.5 170,-57.5 170,-38.5 305,-38.5 305,-57.5"/>
<text text-anchor="middle" x="237.5" y="-45.5" font-family="Helvetica,sans-Serif" font-size="10.00">G3D::AABox::deserialize</text>
</a>
</g>
</g>
<!-- Node2 -->
<g id="Node000002" class="node">
<title>Node2</title>
<g id="a_Node000002"><a xlink:href="classG3D_1_1KDTree_1_1Node.html#afd95c42e46886f4f350a203a63717f8a" target="_top" xlink:title=" ">
<polygon fill="white" stroke="#666666" points="125,-96 9,-96 9,-66 125,-66 125,-96"/>
<text text-anchor="start" x="17" y="-84" font-family="Helvetica,sans-Serif" font-size="10.00">G3D::KDTree::Node::</text>
<text text-anchor="middle" x="67" y="-73" font-family="Helvetica,sans-Serif" font-size="10.00">deserializeStructure</text>
</a>
</g>
</g>
<!-- Node1&#45;&gt;Node2 -->
<g id="edge1_Node000001_Node000002" class="edge">
<title>Node1&#45;&gt;Node2</title>
<g id="a_edge1_Node000001_Node000002"><a xlink:title=" ">
<path fill="none" stroke="#63b8ff" d="M177.92,-59.47C160.86,-62.81 142.24,-66.46 125.26,-69.79"/>
<polygon fill="#63b8ff" stroke="#63b8ff" points="178.62,-62.9 187.76,-57.54 177.28,-56.03 178.62,-62.9"/>
</a>
</g>
</g>
<!-- Node3 -->
<g id="Node000003" class="node">
<title>Node3</title>
<g id="a_Node000003"><a xlink:href="classG3D_1_1PointKDTree_1_1Node.html#aeb71d12d9cefa8879a1748ec1595a8a0" target="_top" xlink:title=" ">
<polygon fill="white" stroke="#666666" points="134,-30 0,-30 0,0 134,0 134,-30"/>
<text text-anchor="start" x="8" y="-18" font-family="Helvetica,sans-Serif" font-size="10.00">G3D::PointKDTree::Node</text>
<text text-anchor="middle" x="67" y="-7" font-family="Helvetica,sans-Serif" font-size="10.00">::deserializeStructure</text>
</a>
</g>
</g>
<!-- Node1&#45;&gt;Node3 -->
<g id="edge3_Node000001_Node000003" class="edge">
<title>Node1&#45;&gt;Node3</title>
<g id="a_edge3_Node000001_Node000003"><a xlink:title=" ">
<path fill="none" stroke="#63b8ff" d="M177.73,-36.49C163.67,-33.74 148.55,-30.78 134.18,-27.96"/>
<polygon fill="#63b8ff" stroke="#63b8ff" points="177.28,-39.97 187.76,-38.46 178.62,-33.1 177.28,-39.97"/>
</a>
</g>
</g>
<!-- Node2&#45;&gt;Node2 -->
<g id="edge2_Node000002_Node000002" class="edge">
<title>Node2&#45;&gt;Node2</title>
<g id="a_edge2_Node000002_Node000002"><a xlink:title=" ">
<path fill="none" stroke="#63b8ff" d="M96.76,-106.6C92.69,-110.97 82.77,-114 67,-114 40.44,-114 30.48,-105.41 37.12,-96.28"/>
<polygon fill="#63b8ff" stroke="#63b8ff" points="100.26,-106.32 96.88,-96.28 93.26,-106.23 100.26,-106.32"/>
</a>
</g>
</g>
<!-- Node3&#45;&gt;Node3 -->
<g id="edge4_Node000003_Node000003" class="edge">
<title>Node3&#45;&gt;Node3</title>
<g id="a_edge4_Node000003_Node000003"><a xlink:title=" ">
<path fill="none" stroke="#63b8ff" d="M96.76,-40.6C92.69,-44.97 82.77,-48 67,-48 40.44,-48 30.48,-39.41 37.12,-30.28"/>
<polygon fill="#63b8ff" stroke="#63b8ff" points="100.26,-40.32 96.88,-30.28 93.26,-40.23 100.26,-40.32"/>
</a>
</g>
</g>
</g>
</svg>
