<?xml version="1.0" encoding="UTF-8" standalone="no"?>
<!DOCTYPE svg PUBLIC "-//W3C//DTD SVG 1.1//EN"
 "http://www.w3.org/Graphics/SVG/1.1/DTD/svg11.dtd">
<!-- Generated by graphviz version 2.43.0 (0)
 -->
<!-- Title: MapScriptInterface::spawnGameObject Pages: 1 -->
<svg width="884pt" height="498pt"
 viewBox="0.00 0.00 884.00 498.00" xmlns="http://www.w3.org/2000/svg" xmlns:xlink="http://www.w3.org/1999/xlink">
<g id="graph0" class="graph" transform="scale(1 1) rotate(0) translate(4 494)">
<title>MapScriptInterface::spawnGameObject</title>
<!-- Node1 -->
<g id="Node000001" class="node">
<title>Node1</title>
<g id="a_Node000001"><a xlink:title=" ">
<polygon fill="#999999" stroke="#666666" points="876,-305 761,-305 761,-275 876,-275 876,-305"/>
<text text-anchor="start" x="769" y="-293" font-family="Helvetica,sans-Serif" font-size="10.00">MapScriptInterface</text>
<text text-anchor="middle" x="818.5" y="-282" font-family="Helvetica,sans-Serif" font-size="10.00">::spawnGameObject</text>
</a>
</g>
</g>
<!-- Node2 -->
<g id="Node000002" class="node">
<title>Node2</title>
<g id="a_Node000002"><a xlink:href="classSapphironAI.html#a815fb1c5c3085eeab293ea19564bea07" target="_top" xlink:title=" ">
<polygon fill="white" stroke="#666666" points="713.5,-333.5 584.5,-333.5 584.5,-314.5 713.5,-314.5 713.5,-333.5"/>
<text text-anchor="middle" x="649" y="-321.5" font-family="Helvetica,sans-Serif" font-size="10.00">SapphironAI::PhaseTwo</text>
</a>
</g>
</g>
<!-- Node1&#45;&gt;Node2 -->
<g id="edge1_Node000001_Node000002" class="edge">
<title>Node1&#45;&gt;Node2</title>
<g id="a_edge1_Node000001_Node000002"><a xlink:title=" ">
<path fill="none" stroke="#63b8ff" d="M750.89,-303.52C732.82,-307.19 713.63,-311.08 696.9,-314.48"/>
<polygon fill="#63b8ff" stroke="#63b8ff" points="751.69,-306.93 760.79,-301.51 750.3,-300.07 751.69,-306.93"/>
</a>
</g>
</g>
<!-- Node4 -->
<g id="Node000004" class="node">
<title>Node4</title>
<g id="a_Node000004"><a xlink:href="classInstanceScript.html#af9664afdb51d0686d0fd3883b81365ae" target="_top" xlink:title=" ">
<polygon fill="white" stroke="#666666" points="725,-284 573,-284 573,-254 725,-254 725,-284"/>
<text text-anchor="start" x="581" y="-272" font-family="Helvetica,sans-Serif" font-size="10.00">InstanceScript::spawnGame</text>
<text text-anchor="middle" x="649" y="-261" font-family="Helvetica,sans-Serif" font-size="10.00">Object</text>
</a>
</g>
</g>
<!-- Node1&#45;&gt;Node4 -->
<g id="edge3_Node000001_Node000004" class="edge">
<title>Node1&#45;&gt;Node4</title>
<g id="a_edge3_Node000001_Node000004"><a xlink:title=" ">
<path fill="none" stroke="#63b8ff" d="M750.67,-281.62C742.25,-280.57 733.59,-279.48 725.06,-278.41"/>
<polygon fill="#63b8ff" stroke="#63b8ff" points="750.43,-285.12 760.79,-282.89 751.31,-278.17 750.43,-285.12"/>
</a>
</g>
</g>
<!-- Node3 -->
<g id="Node000003" class="node">
<title>Node3</title>
<g id="a_Node000003"><a xlink:href="classSapphironAI.html#ab8a84162d7f80f324638e88e99ca5a77" target="_top" xlink:title=" ">
<polygon fill="white" stroke="#666666" points="531.5,-345.5 405.5,-345.5 405.5,-326.5 531.5,-326.5 531.5,-345.5"/>
<text text-anchor="middle" x="468.5" y="-333.5" font-family="Helvetica,sans-Serif" font-size="10.00">SapphironAI::AIUpdate</text>
</a>
</g>
</g>
<!-- Node2&#45;&gt;Node3 -->
<g id="edge2_Node000002_Node000003" class="edge">
<title>Node2&#45;&gt;Node3</title>
<g id="a_edge2_Node000002_Node000003"><a xlink:title=" ">
<path fill="none" stroke="#63b8ff" d="M574.15,-328.96C560.02,-329.91 545.37,-330.9 531.66,-331.82"/>
<polygon fill="#63b8ff" stroke="#63b8ff" points="574.57,-332.44 584.31,-328.28 574.1,-325.46 574.57,-332.44"/>
</a>
</g>
</g>
<!-- Node5 -->
<g id="Node000005" class="node">
<title>Node5</title>
<g id="a_Node000005"><a xlink:href="classMuradinSaurfangEvent.html#aa29277a1383b0ddc18b90cd1c16b3370" target="_top" xlink:title=" ">
<polygon fill="white" stroke="#666666" points="532.5,-308 404.5,-308 404.5,-278 532.5,-278 532.5,-308"/>
<text text-anchor="start" x="412.5" y="-296" font-family="Helvetica,sans-Serif" font-size="10.00">MuradinSaurfangEvent</text>
<text text-anchor="middle" x="468.5" y="-285" font-family="Helvetica,sans-Serif" font-size="10.00">::AIUpdate</text>
</a>
</g>
</g>
<!-- Node4&#45;&gt;Node5 -->
<g id="edge4_Node000004_Node000005" class="edge">
<title>Node4&#45;&gt;Node5</title>
<g id="a_edge4_Node000004_Node000005"><a xlink:title=" ">
<path fill="none" stroke="#63b8ff" d="M562.75,-280.46C552.64,-281.82 542.47,-283.19 532.74,-284.5"/>
<polygon fill="#63b8ff" stroke="#63b8ff" points="563.37,-283.91 572.82,-279.11 562.44,-276.97 563.37,-283.91"/>
</a>
</g>
</g>
<!-- Node6 -->
<g id="Node000006" class="node">
<title>Node6</title>
<g id="a_Node000006"><a xlink:href="classIceCrownCitadelScript.html#ae25919e56ec2cedf7ea4fe73dd29d7f9" target="_top" xlink:title=" ">
<polygon fill="white" stroke="#666666" points="530.5,-260 406.5,-260 406.5,-230 530.5,-230 530.5,-260"/>
<text text-anchor="start" x="414.5" y="-248" font-family="Helvetica,sans-Serif" font-size="10.00">IceCrownCitadelScript</text>
<text text-anchor="middle" x="468.5" y="-237" font-family="Helvetica,sans-Serif" font-size="10.00">::DoAction</text>
</a>
</g>
</g>
<!-- Node4&#45;&gt;Node6 -->
<g id="edge5_Node000004_Node000006" class="edge">
<title>Node4&#45;&gt;Node6</title>
<g id="a_edge5_Node000004_Node000006"><a xlink:title=" ">
<path fill="none" stroke="#63b8ff" d="M562.84,-257.55C551.93,-256.08 540.95,-254.61 530.53,-253.21"/>
<polygon fill="#63b8ff" stroke="#63b8ff" points="562.44,-261.03 572.82,-258.89 563.37,-254.09 562.44,-261.03"/>
</a>
</g>
</g>
<!-- Node20 -->
<g id="Node000020" class="node">
<title>Node20</title>
<g id="a_Node000020"><a xlink:href="classOldHilsbradInstance.html#a0a1eb6ba268f0a36d1388398830b2fde" target="_top" xlink:title=" ">
<polygon fill="white" stroke="#666666" points="537,-212 400,-212 400,-182 537,-182 537,-212"/>
<text text-anchor="start" x="408" y="-200" font-family="Helvetica,sans-Serif" font-size="10.00">OldHilsbradInstance</text>
<text text-anchor="middle" x="468.5" y="-189" font-family="Helvetica,sans-Serif" font-size="10.00">::OnGameObjectActivate</text>
</a>
</g>
</g>
<!-- Node4&#45;&gt;Node20 -->
<g id="edge19_Node000004_Node000020" class="edge">
<title>Node4&#45;&gt;Node20</title>
<g id="a_edge19_Node000004_Node000020"><a xlink:title=" ">
<path fill="none" stroke="#63b8ff" d="M605.34,-249.76C584.81,-240.71 559.77,-229.96 537,-221 529.36,-217.99 521.17,-214.94 513.23,-212.07"/>
<polygon fill="#63b8ff" stroke="#63b8ff" points="604.16,-253.07 614.73,-253.92 607,-246.67 604.16,-253.07"/>
</a>
</g>
</g>
<!-- Node7 -->
<g id="Node000007" class="node">
<title>Node7</title>
<g id="a_Node000007"><a xlink:href="classOverlordSaurfangEvent.html#ad62500293e1c465431e3301d031138e4" target="_top" xlink:title=" ">
<polygon fill="white" stroke="#666666" points="344,-490 214,-490 214,-460 344,-460 344,-490"/>
<text text-anchor="start" x="222" y="-478" font-family="Helvetica,sans-Serif" font-size="10.00">OverlordSaurfangEvent</text>
<text text-anchor="middle" x="279" y="-467" font-family="Helvetica,sans-Serif" font-size="10.00">::AIUpdate</text>
</a>
</g>
</g>
<!-- Node6&#45;&gt;Node7 -->
<g id="edge6_Node000006_Node000007" class="edge">
<title>Node6&#45;&gt;Node7</title>
<g id="a_edge6_Node000006_Node000007"><a xlink:title=" ">
<path fill="none" stroke="#63b8ff" d="M402.29,-266.55C401.5,-267.34 400.73,-268.15 400,-269 346.11,-331.41 419.84,-390.33 364,-451 358.45,-457.03 351.51,-461.58 344.01,-465.01"/>
<polygon fill="#63b8ff" stroke="#63b8ff" points="404.55,-269.22 410.11,-260.2 400.14,-263.78 404.55,-269.22"/>
</a>
</g>
</g>
<!-- Node8 -->
<g id="Node000008" class="node">
<title>Node8</title>
<g id="a_Node000008"><a xlink:href="classMuradinSaurfangEvent.html#a884d97eb12e9628c58a0e1325dc40406" target="_top" xlink:title=" ">
<polygon fill="white" stroke="#666666" points="343,-442 215,-442 215,-412 343,-412 343,-442"/>
<text text-anchor="start" x="223" y="-430" font-family="Helvetica,sans-Serif" font-size="10.00">MuradinSaurfangEvent</text>
<text text-anchor="middle" x="279" y="-419" font-family="Helvetica,sans-Serif" font-size="10.00">::DoAction</text>
</a>
</g>
</g>
<!-- Node6&#45;&gt;Node8 -->
<g id="edge7_Node000006_Node000008" class="edge">
<title>Node6&#45;&gt;Node8</title>
<g id="a_edge7_Node000006_Node000008"><a xlink:title=" ">
<path fill="none" stroke="#63b8ff" d="M402.83,-266.19C401.85,-267.09 400.9,-268.02 400,-269 358.15,-314.3 407.26,-359.05 364,-403 358.15,-408.95 350.93,-413.44 343.21,-416.84"/>
<polygon fill="#63b8ff" stroke="#63b8ff" points="405.13,-268.84 411,-260.02 400.91,-263.25 405.13,-268.84"/>
</a>
</g>
</g>
<!-- Node9 -->
<g id="Node000009" class="node">
<title>Node9</title>
<g id="a_Node000009"><a xlink:href="classIceCrownCitadelScript.html#a362b9794f5bbc3a3a7db1aa42f10eb68" target="_top" xlink:title=" ">
<polygon fill="white" stroke="#666666" points="341,-394 217,-394 217,-364 341,-364 341,-394"/>
<text text-anchor="start" x="225" y="-382" font-family="Helvetica,sans-Serif" font-size="10.00">IceCrownCitadelScript</text>
<text text-anchor="middle" x="279" y="-371" font-family="Helvetica,sans-Serif" font-size="10.00">::OnAreaTrigger</text>
</a>
</g>
</g>
<!-- Node6&#45;&gt;Node9 -->
<g id="edge8_Node000006_Node000009" class="edge">
<title>Node6&#45;&gt;Node9</title>
<g id="a_edge8_Node000006_Node000009"><a xlink:title=" ">
<path fill="none" stroke="#63b8ff" d="M403.53,-265.93C402.31,-266.91 401.13,-267.93 400,-269 369.91,-297.49 394.98,-327.48 364,-355 357.42,-360.84 349.51,-365.27 341.22,-368.62"/>
<polygon fill="#63b8ff" stroke="#63b8ff" points="405.81,-268.62 412.15,-260.12 401.9,-262.81 405.81,-268.62"/>
</a>
</g>
</g>
<!-- Node10 -->
<g id="Node000010" class="node">
<title>Node10</title>
<g id="a_Node000010"><a xlink:href="classGunshipAI.html#ad487912fea4b7984b1525d42bc5412a2" target="_top" xlink:title=" ">
<polygon fill="white" stroke="#666666" points="333,-345.5 225,-345.5 225,-326.5 333,-326.5 333,-345.5"/>
<text text-anchor="middle" x="279" y="-333.5" font-family="Helvetica,sans-Serif" font-size="10.00">GunshipAI::OnDied</text>
</a>
</g>
</g>
<!-- Node6&#45;&gt;Node10 -->
<g id="edge9_Node000006_Node000010" class="edge">
<title>Node6&#45;&gt;Node10</title>
<g id="a_edge9_Node000006_Node000010"><a xlink:title=" ">
<path fill="none" stroke="#63b8ff" d="M405.85,-265.08C403.83,-266.32 401.87,-267.62 400,-269 378.52,-284.81 386.38,-302.5 364,-317 354.84,-322.93 344.07,-327.03 333.36,-329.85"/>
<polygon fill="#63b8ff" stroke="#63b8ff" points="407.92,-267.94 415.06,-260.11 404.6,-261.78 407.92,-267.94"/>
</a>
</g>
</g>
<!-- Node12 -->
<g id="Node000012" class="node">
<title>Node12</title>
<g id="a_Node000012"><a xlink:href="classIceCrownCitadelScript.html#a63772a747903461c872dc28751deaa8a" target="_top" xlink:title=" ">
<polygon fill="white" stroke="#666666" points="352.5,-308 205.5,-308 205.5,-278 352.5,-278 352.5,-308"/>
<text text-anchor="start" x="213.5" y="-296" font-family="Helvetica,sans-Serif" font-size="10.00">IceCrownCitadelScript</text>
<text text-anchor="middle" x="279" y="-285" font-family="Helvetica,sans-Serif" font-size="10.00">::OnEncounterStateChange</text>
</a>
</g>
</g>
<!-- Node6&#45;&gt;Node12 -->
<g id="edge11_Node000006_Node000012" class="edge">
<title>Node6&#45;&gt;Node12</title>
<g id="a_edge11_Node000006_Node000012"><a xlink:title=" ">
<path fill="none" stroke="#63b8ff" d="M398.83,-262.58C379.06,-267.64 357.7,-273.11 338.6,-278"/>
<polygon fill="#63b8ff" stroke="#63b8ff" points="399.87,-265.93 408.69,-260.06 398.13,-259.15 399.87,-265.93"/>
</a>
</g>
</g>
<!-- Node13 -->
<g id="Node000013" class="node">
<title>Node13</title>
<g id="a_Node000013"><a xlink:href="classMuradinSaurfangEvent.html#a8c74b78025e8fb83335a6e8babda464f" target="_top" xlink:title=" ">
<polygon fill="white" stroke="#666666" points="343,-260 215,-260 215,-230 343,-230 343,-260"/>
<text text-anchor="start" x="223" y="-248" font-family="Helvetica,sans-Serif" font-size="10.00">MuradinSaurfangEvent</text>
<text text-anchor="middle" x="279" y="-237" font-family="Helvetica,sans-Serif" font-size="10.00">::OnReachWP</text>
</a>
</g>
</g>
<!-- Node6&#45;&gt;Node13 -->
<g id="edge12_Node000006_Node000013" class="edge">
<title>Node6&#45;&gt;Node13</title>
<g id="a_edge12_Node000006_Node000013"><a xlink:title=" ">
<path fill="none" stroke="#63b8ff" d="M396.26,-245C378.84,-245 360.32,-245 343.3,-245"/>
<polygon fill="#63b8ff" stroke="#63b8ff" points="396.36,-248.5 406.36,-245 396.36,-241.5 396.36,-248.5"/>
</a>
</g>
</g>
<!-- Node14 -->
<g id="Node000014" class="node">
<title>Node14</title>
<g id="a_Node000014"><a xlink:href="classOverlordSaurfangEvent.html#afdde064b5593abc7be0cce67daa7d9bd" target="_top" xlink:title=" ">
<polygon fill="white" stroke="#666666" points="344,-212 214,-212 214,-182 344,-182 344,-212"/>
<text text-anchor="start" x="222" y="-200" font-family="Helvetica,sans-Serif" font-size="10.00">OverlordSaurfangEvent</text>
<text text-anchor="middle" x="279" y="-189" font-family="Helvetica,sans-Serif" font-size="10.00">::OnReachWP</text>
</a>
</g>
</g>
<!-- Node6&#45;&gt;Node14 -->
<g id="edge13_Node000006_Node000014" class="edge">
<title>Node6&#45;&gt;Node14</title>
<g id="a_edge13_Node000006_Node000014"><a xlink:title=" ">
<path fill="none" stroke="#63b8ff" d="M398.83,-227.42C379.06,-222.36 357.7,-216.89 338.6,-212"/>
<polygon fill="#63b8ff" stroke="#63b8ff" points="398.13,-230.85 408.69,-229.94 399.87,-224.07 398.13,-230.85"/>
</a>
</g>
</g>
<!-- Node15 -->
<g id="Node000015" class="node">
<title>Node15</title>
<g id="a_Node000015"><a xlink:href="classMuradinGossip.html#ac448a1bf77b5186daf323b3b8cccb496" target="_top" xlink:title=" ">
<polygon fill="white" stroke="#666666" points="364,-163.5 194,-163.5 194,-144.5 364,-144.5 364,-163.5"/>
<text text-anchor="middle" x="279" y="-151.5" font-family="Helvetica,sans-Serif" font-size="10.00">MuradinGossip::onSelectOption</text>
</a>
</g>
</g>
<!-- Node6&#45;&gt;Node15 -->
<g id="edge14_Node000006_Node000015" class="edge">
<title>Node6&#45;&gt;Node15</title>
<g id="a_edge14_Node000006_Node000015"><a xlink:title=" ">
<path fill="none" stroke="#63b8ff" d="M405.85,-224.92C403.83,-223.68 401.87,-222.38 400,-221 378.52,-205.19 386.38,-187.5 364,-173 357.98,-169.1 351.26,-165.99 344.32,-163.52"/>
<polygon fill="#63b8ff" stroke="#63b8ff" points="404.6,-228.22 415.06,-229.89 407.92,-222.06 404.6,-228.22"/>
</a>
</g>
</g>
<!-- Node16 -->
<g id="Node000016" class="node">
<title>Node16</title>
<g id="a_Node000016"><a xlink:href="classSaurfangGossip.html#a6464add5ace58039a18451a3e268d5e9" target="_top" xlink:title=" ">
<polygon fill="white" stroke="#666666" points="349.5,-126 208.5,-126 208.5,-96 349.5,-96 349.5,-126"/>
<text text-anchor="start" x="216.5" y="-114" font-family="Helvetica,sans-Serif" font-size="10.00">SaurfangGossip::onSelect</text>
<text text-anchor="middle" x="279" y="-103" font-family="Helvetica,sans-Serif" font-size="10.00">Option</text>
</a>
</g>
</g>
<!-- Node6&#45;&gt;Node16 -->
<g id="edge15_Node000006_Node000016" class="edge">
<title>Node6&#45;&gt;Node16</title>
<g id="a_edge15_Node000006_Node000016"><a xlink:title=" ">
<path fill="none" stroke="#63b8ff" d="M403.54,-224.06C402.31,-223.09 401.13,-222.07 400,-221 370.15,-192.86 394.58,-163.35 364,-136 359.69,-132.15 354.81,-128.88 349.62,-126.13"/>
<polygon fill="#63b8ff" stroke="#63b8ff" points="401.91,-227.18 412.16,-229.86 405.82,-221.38 401.91,-227.18"/>
</a>
</g>
</g>
<!-- Node17 -->
<g id="Node000017" class="node">
<title>Node17</title>
<g id="a_Node000017"><a xlink:href="classIceCrownCitadelScript.html#abdad16e50f056094cdaab5d7d8c91b04" target="_top" xlink:title=" ">
<polygon fill="white" stroke="#666666" points="343,-78 215,-78 215,-48 343,-48 343,-78"/>
<text text-anchor="start" x="223" y="-66" font-family="Helvetica,sans-Serif" font-size="10.00">IceCrownCitadelScript</text>
<text text-anchor="middle" x="279" y="-55" font-family="Helvetica,sans-Serif" font-size="10.00">::SetGameobjectStates</text>
</a>
</g>
</g>
<!-- Node6&#45;&gt;Node17 -->
<g id="edge16_Node000006_Node000017" class="edge">
<title>Node6&#45;&gt;Node17</title>
<g id="a_edge16_Node000006_Node000017"><a xlink:title=" ">
<path fill="none" stroke="#63b8ff" d="M402.83,-223.81C401.85,-222.91 400.9,-221.98 400,-221 358.15,-175.7 407.26,-130.95 364,-87 358.15,-81.05 350.93,-76.56 343.21,-73.16"/>
<polygon fill="#63b8ff" stroke="#63b8ff" points="400.91,-226.75 411,-229.98 405.13,-221.16 400.91,-226.75"/>
</a>
</g>
</g>
<!-- Node19 -->
<g id="Node000019" class="node">
<title>Node19</title>
<g id="a_Node000019"><a xlink:href="classIceCrownCitadelScript.html#adcc3112135ac7aa373ac1b736e30bba8" target="_top" xlink:title=" ">
<polygon fill="white" stroke="#666666" points="341,-30 217,-30 217,0 341,0 341,-30"/>
<text text-anchor="start" x="225" y="-18" font-family="Helvetica,sans-Serif" font-size="10.00">IceCrownCitadelScript</text>
<text text-anchor="middle" x="279" y="-7" font-family="Helvetica,sans-Serif" font-size="10.00">::UpdateEvent</text>
</a>
</g>
</g>
<!-- Node6&#45;&gt;Node19 -->
<g id="edge18_Node000006_Node000019" class="edge">
<title>Node6&#45;&gt;Node19</title>
<g id="a_edge18_Node000006_Node000019"><a xlink:title=" ">
<path fill="none" stroke="#63b8ff" d="M402.29,-223.45C401.5,-222.66 400.73,-221.85 400,-221 346.11,-158.59 419.84,-99.67 364,-39 357.74,-32.19 349.69,-27.27 341.06,-23.71"/>
<polygon fill="#63b8ff" stroke="#63b8ff" points="400.14,-226.22 410.11,-229.8 404.55,-220.78 400.14,-226.22"/>
</a>
</g>
</g>
<!-- Node11 -->
<g id="Node000011" class="node">
<title>Node11</title>
<g id="a_Node000011"><a xlink:href="classGunshipAI.html#a0d012f04082cf2bfc464467e50286b9a" target="_top" xlink:title=" ">
<polygon fill="white" stroke="#666666" points="149.5,-345.5 8.5,-345.5 8.5,-326.5 149.5,-326.5 149.5,-345.5"/>
<text text-anchor="middle" x="79" y="-333.5" font-family="Helvetica,sans-Serif" font-size="10.00">GunshipAI::DamageTaken</text>
</a>
</g>
</g>
<!-- Node10&#45;&gt;Node11 -->
<g id="edge10_Node000010_Node000011" class="edge">
<title>Node10&#45;&gt;Node11</title>
<g id="a_edge10_Node000010_Node000011"><a xlink:title=" ">
<path fill="none" stroke="#63b8ff" d="M214.66,-336C193.92,-336 170.78,-336 149.61,-336"/>
<polygon fill="#63b8ff" stroke="#63b8ff" points="214.94,-339.5 224.94,-336 214.94,-332.5 214.94,-339.5"/>
</a>
</g>
</g>
<!-- Node18 -->
<g id="Node000018" class="node">
<title>Node18</title>
<g id="a_Node000018"><a xlink:href="classIceCrownCitadelScript.html#a55bcf6c97e062d196cbdd82eee3418af" target="_top" xlink:title=" ">
<polygon fill="white" stroke="#666666" points="158,-78 0,-78 0,-48 158,-48 158,-78"/>
<text text-anchor="start" x="8" y="-66" font-family="Helvetica,sans-Serif" font-size="10.00">IceCrownCitadelScript</text>
<text text-anchor="middle" x="79" y="-55" font-family="Helvetica,sans-Serif" font-size="10.00">::OnGameObjectPushToWorld</text>
</a>
</g>
</g>
<!-- Node17&#45;&gt;Node18 -->
<g id="edge17_Node000017_Node000018" class="edge">
<title>Node17&#45;&gt;Node18</title>
<g id="a_edge17_Node000017_Node000018"><a xlink:title=" ">
<path fill="none" stroke="#63b8ff" d="M204.51,-63C189.42,-63 173.47,-63 158.22,-63"/>
<polygon fill="#63b8ff" stroke="#63b8ff" points="204.81,-66.5 214.81,-63 204.81,-59.5 204.81,-66.5"/>
</a>
</g>
</g>
</g>
</svg>
