<?xml version="1.0" encoding="UTF-8" standalone="no"?>
<!DOCTYPE svg PUBLIC "-//W3C//DTD SVG 1.1//EN"
 "http://www.w3.org/Graphics/SVG/1.1/DTD/svg11.dtd">
<!-- Generated by graphviz version 2.43.0 (0)
 -->
<!-- Title: G3D::Any::boolean Pages: 1 -->
<!--zoomable 183 -->

<svg id="main" version="1.1" xmlns="http://www.w3.org/2000/svg" xmlns:xlink="http://www.w3.org/1999/xlink" xml:space="preserve" onload="init(evt)">
<style type="text/css"><![CDATA[
.node, .edge {opacity: 0.7;}
.node.selected, .edge.selected {opacity: 1;}
.edge:hover path { stroke: red; }
.edge:hover polygon { stroke: red; fill: red; }
]]></style>

<defs>
  <circle id="rim" cx="0" cy="0" r="7"/>
  <circle id="rim2" cx="0" cy="0" r="3.5"/>
  <g id="zoomPlus">
    <use xlink:href="#rim" fill="#404040"><set attributeName="fill" to="#808080" begin="zoomplus.mouseover" end="zoomplus.mouseout"/></use>
    <path d="M-4,0h8M0,-4v8" fill="none" stroke="white" stroke-width="1.5" pointer-events="none"/>
  </g>
  <g id="zoomMin">
    <use xlink:href="#rim" fill="#404040"><set attributeName="fill" to="#808080" begin="zoomminus.mouseover" end="zoomminus.mouseout"/></use>
    <path d="M-4,0h8" fill="none" stroke="white" stroke-width="1.5" pointer-events="none"/>
  </g>
  <g id="arrowUp" transform="translate(30 24)">
    <use xlink:href="#rim"/>
    <path pointer-events="none" fill="none" stroke="white" stroke-width="1.5" d="M0,-3.0v7 M-2.5,-0.5L0,-3.0L2.5,-0.5"/>
  </g>
  <g id="arrowRight" transform="rotate(90) translate(36 -43)">
    <use xlink:href="#rim"/>
    <path pointer-events="none" fill="none" stroke="white" stroke-width="1.5" d="M0,-3.0v7 M-2.5,-0.5L0,-3.0L2.5,-0.5"/>
  </g>
  <g id="arrowDown" transform="rotate(180) translate(-30 -48)">
    <use xlink:href="#rim"/>
    <path pointer-events="none" fill="none" stroke="white" stroke-width="1.5" d="M0,-3.0v7 M-2.5,-0.5L0,-3.0L2.5,-0.5"/>
  </g>
  <g id="arrowLeft" transform="rotate(270) translate(-36 17)">
    <use xlink:href="#rim"/>
    <path pointer-events="none" fill="none" stroke="white" stroke-width="1.5" d="M0,-3.0v7 M-2.5,-0.5L0,-3.0L2.5,-0.5"/>
  </g>
  <g id="resetDef">
    <use xlink:href="#rim2" fill="#404040"><set attributeName="fill" to="#808080" begin="reset.mouseover" end="reset.mouseout"/></use>
  </g>
</defs>
<script type="application/ecmascript">
var viewWidth = 887;
var viewHeight = 183;
var sectionId = 'dynsection-30';
</script>
<script type="application/ecmascript" xlink:href="svg.min.js"/>
<svg id="graph" class="graph">
<g id="viewport">
<title>G3D::Any::boolean</title>
<!-- Node1 -->
<g id="Node000001" class="node">
<title>Node1</title>
<g id="a_Node000001"><a xlink:title=" ">
<polygon fill="#999999" stroke="#666666" points="107,-152 0,-152 0,-133 107,-133 107,-152"/>
<text text-anchor="middle" x="53.5" y="-140" font-family="Helvetica,sans-Serif" font-size="10.00">G3D::Any::boolean</text>
</a>
</g>
</g>
<!-- Node2 -->
<g id="Node000002" class="node">
<title>Node2</title>
<g id="a_Node000002"><a xlink:href="classG3D_1_1Any.html#adf08d9cd9b8b7f062959d5b749dade39" target="_top" xlink:title=" ">
<polygon fill="white" stroke="#666666" points="710,-95 586,-95 586,-76 710,-76 710,-95"/>
<text text-anchor="middle" x="648" y="-83" font-family="Helvetica,sans-Serif" font-size="10.00">G3D::Any::beforeRead</text>
</a>
</g>
</g>
<!-- Node1&#45;&gt;Node2 -->
<g id="edge1_Node000001_Node000002" class="edge">
<title>Node1&#45;&gt;Node2</title>
<g id="a_edge1_Node000001_Node000002"><a xlink:title=" ">
<path fill="none" stroke="#63b8ff" d="M99.45,-152C188.35,-168.78 391.72,-197.09 550,-143.5 578.72,-133.78 608.11,-114.66 626.9,-101.03"/>
<polygon fill="#63b8ff" stroke="#63b8ff" points="629.04,-103.8 634.98,-95.03 624.87,-98.18 629.04,-103.8"/>
</a>
</g>
</g>
<!-- Node4 -->
<g id="Node000004" class="node">
<title>Node4</title>
<g id="a_Node000004"><a xlink:href="classG3D_1_1Any.html#a4eadb655918aa5ef064e6a7b77fce8b8" target="_top" xlink:title=" ">
<polygon fill="white" stroke="#666666" points="261,-114 143,-114 143,-95 261,-95 261,-114"/>
<text text-anchor="middle" x="202" y="-102" font-family="Helvetica,sans-Serif" font-size="10.00">G3D::Any::verifyType</text>
</a>
</g>
</g>
<!-- Node1&#45;&gt;Node4 -->
<g id="edge3_Node000001_Node000004" class="edge">
<title>Node1&#45;&gt;Node4</title>
<g id="a_edge3_Node000001_Node000004"><a xlink:title=" ">
<path fill="none" stroke="#63b8ff" d="M91.47,-132.91C110.63,-127.94 134.21,-121.82 154.59,-116.54"/>
<polygon fill="#63b8ff" stroke="#63b8ff" points="155.5,-119.92 164.3,-114.02 153.74,-113.14 155.5,-119.92"/>
</a>
</g>
</g>
<!-- Node3 -->
<g id="Node000003" class="node">
<title>Node3</title>
<g id="a_Node000003"><a xlink:href="classG3D_1_1Any.html#aa8be2781942610891b266f6f26c5803a" target="_top" xlink:title=" ">
<polygon fill="white" stroke="#666666" points="879,-95 746,-95 746,-76 879,-76 879,-95"/>
<text text-anchor="middle" x="812.5" y="-83" font-family="Helvetica,sans-Serif" font-size="10.00">G3D::Any::isPlaceholder</text>
</a>
</g>
</g>
<!-- Node2&#45;&gt;Node3 -->
<g id="edge2_Node000002_Node000003" class="edge">
<title>Node2&#45;&gt;Node3</title>
<g id="a_edge2_Node000002_Node000003"><a xlink:title=" ">
<path fill="none" stroke="#63b8ff" d="M710.43,-85.5C718.68,-85.5 727.21,-85.5 735.66,-85.5"/>
<polygon fill="#63b8ff" stroke="#63b8ff" points="735.91,-89 745.91,-85.5 735.91,-82 735.91,-89"/>
</a>
</g>
</g>
<!-- Node4&#45;&gt;Node2 -->
<g id="edge4_Node000004_Node000002" class="edge">
<title>Node4&#45;&gt;Node2</title>
<g id="a_edge4_Node000004_Node000002"><a xlink:title=" ">
<path fill="none" stroke="#63b8ff" d="M221.11,-114C239.6,-123.12 269.43,-136.27 297,-141.5 412.69,-163.45 550.97,-121.3 613.44,-98.61"/>
<polygon fill="#63b8ff" stroke="#63b8ff" points="614.99,-101.77 623.15,-95.02 612.56,-95.21 614.99,-101.77"/>
</a>
</g>
</g>
<!-- Node5 -->
<g id="Node000005" class="node">
<title>Node5</title>
<g id="a_Node000005"><a xlink:href="namespaceG3D.html#ad647637b21387a5e600f895d189d4e38" target="_top" xlink:title=" ">
<polygon fill="white" stroke="#666666" points="419,-132 297,-132 297,-113 419,-113 419,-132"/>
<text text-anchor="middle" x="358" y="-120" font-family="Helvetica,sans-Serif" font-size="10.00">G3D::isContainerType</text>
</a>
</g>
</g>
<!-- Node4&#45;&gt;Node5 -->
<g id="edge5_Node000004_Node000005" class="edge">
<title>Node4&#45;&gt;Node5</title>
<g id="a_edge5_Node000004_Node000005"><a xlink:title=" ">
<path fill="none" stroke="#63b8ff" d="M261.22,-111.31C269.61,-112.29 278.31,-113.3 286.9,-114.31"/>
<polygon fill="#63b8ff" stroke="#63b8ff" points="286.56,-117.79 296.9,-115.48 287.38,-110.84 286.56,-117.79"/>
</a>
</g>
</g>
<!-- Node6 -->
<g id="Node000006" class="node">
<title>Node6</title>
<g id="a_Node000006"><a xlink:href="namespaceG3D.html#a50c1a494b577aa54c898bf8fc1310fc1" target="_top" xlink:title=" ">
<polygon fill="white" stroke="#666666" points="399,-95 317,-95 317,-76 399,-76 399,-95"/>
<text text-anchor="middle" x="358" y="-83" font-family="Helvetica,sans-Serif" font-size="10.00">G3D::toString</text>
</a>
</g>
</g>
<!-- Node4&#45;&gt;Node6 -->
<g id="edge6_Node000004_Node000006" class="edge">
<title>Node4&#45;&gt;Node6</title>
<g id="a_edge6_Node000004_Node000006"><a xlink:title=" ">
<path fill="none" stroke="#63b8ff" d="M261.22,-97.32C276.16,-95.47 292.11,-93.51 306.62,-91.72"/>
<polygon fill="#63b8ff" stroke="#63b8ff" points="307.4,-95.15 316.89,-90.45 306.54,-88.2 307.4,-95.15"/>
</a>
</g>
</g>
<!-- Node7 -->
<g id="Node000007" class="node">
<title>Node7</title>
<g id="a_Node000007"><a xlink:href="classG3D_1_1Any.html#aeb2a968f455a8710b241b79d6911bc7d" target="_top" xlink:title=" ">
<polygon fill="white" stroke="#666666" points="547,-95 458,-95 458,-76 547,-76 547,-95"/>
<text text-anchor="middle" x="502.5" y="-83" font-family="Helvetica,sans-Serif" font-size="10.00">G3D::Any::type</text>
</a>
</g>
</g>
<!-- Node4&#45;&gt;Node7 -->
<g id="edge7_Node000004_Node000007" class="edge">
<title>Node4&#45;&gt;Node7</title>
<g id="a_edge7_Node000004_Node000007"><a xlink:title=" ">
<path fill="none" stroke="#63b8ff" d="M221.11,-95C239.6,-85.88 269.43,-72.73 297,-67.5 350.27,-57.39 365.09,-61.69 419,-67.5 430.95,-68.79 443.71,-71.1 455.53,-73.64"/>
<polygon fill="#63b8ff" stroke="#63b8ff" points="455.11,-77.13 465.63,-75.92 456.65,-70.31 455.11,-77.13"/>
</a>
</g>
</g>
<!-- Node8 -->
<g id="Node000008" class="node">
<title>Node8</title>
<g id="a_Node000008"><a xlink:href="classG3D_1_1Any.html#afb63e8187bea7f179d80bfad701c3ad8" target="_top" xlink:title=" ">
<polygon fill="white" stroke="#666666" points="405.5,-19 310.5,-19 310.5,0 405.5,0 405.5,-19"/>
<text text-anchor="middle" x="358" y="-7" font-family="Helvetica,sans-Serif" font-size="10.00">G3D::Any::verify</text>
</a>
</g>
</g>
<!-- Node4&#45;&gt;Node8 -->
<g id="edge9_Node000004_Node000008" class="edge">
<title>Node4&#45;&gt;Node8</title>
<g id="a_edge9_Node000004_Node000008"><a xlink:title=" ">
<path fill="none" stroke="#63b8ff" d="M213.62,-94.96C230.38,-80.27 264.4,-51.89 297,-33.5 304.01,-29.55 311.8,-25.92 319.38,-22.76"/>
<polygon fill="#63b8ff" stroke="#63b8ff" points="320.81,-25.96 328.81,-19 318.22,-19.45 320.81,-25.96"/>
</a>
</g>
</g>
<!-- Node7&#45;&gt;Node2 -->
<g id="edge8_Node000007_Node000002" class="edge">
<title>Node7&#45;&gt;Node2</title>
<g id="a_edge8_Node000007_Node000002"><a xlink:title=" ">
<path fill="none" stroke="#63b8ff" d="M547.33,-85.5C556.33,-85.5 566.01,-85.5 575.69,-85.5"/>
<polygon fill="#63b8ff" stroke="#63b8ff" points="575.74,-89 585.74,-85.5 575.74,-82 575.74,-89"/>
</a>
</g>
</g>
<!-- Node8&#45;&gt;Node2 -->
<g id="edge10_Node000008_Node000002" class="edge">
<title>Node8&#45;&gt;Node2</title>
<g id="a_edge10_Node000008_Node000002"><a xlink:title=" ">
<path fill="none" stroke="#63b8ff" d="M395.18,-19.05C447.35,-32.81 543.67,-58.23 600.87,-73.33"/>
<polygon fill="#63b8ff" stroke="#63b8ff" points="600.18,-76.76 610.74,-75.93 601.96,-70 600.18,-76.76"/>
</a>
</g>
</g>
<!-- Node9 -->
<g id="Node000009" class="node">
<title>Node9</title>
<g id="a_Node000009"><a xlink:href="classG3D_1_1Any.html#a6a22188c1122e6a02565fb03449b33da" target="_top" xlink:title=" ">
<polygon fill="white" stroke="#666666" points="550,-19 455,-19 455,0 550,0 550,-19"/>
<text text-anchor="middle" x="502.5" y="-7" font-family="Helvetica,sans-Serif" font-size="10.00">G3D::Any::name</text>
</a>
</g>
</g>
<!-- Node8&#45;&gt;Node9 -->
<g id="edge11_Node000008_Node000009" class="edge">
<title>Node8&#45;&gt;Node9</title>
<g id="a_edge11_Node000008_Node000009"><a xlink:title=" ">
<path fill="none" stroke="#63b8ff" d="M405.66,-9.5C418.09,-9.5 431.65,-9.5 444.56,-9.5"/>
<polygon fill="#63b8ff" stroke="#63b8ff" points="444.74,-13 454.74,-9.5 444.74,-6 444.74,-13"/>
</a>
</g>
</g>
<!-- Node9&#45;&gt;Node2 -->
<g id="edge12_Node000009_Node000002" class="edge">
<title>Node9&#45;&gt;Node2</title>
<g id="a_edge12_Node000009_Node000002"><a xlink:title=" ">
<path fill="none" stroke="#63b8ff" d="M522.09,-19.01C530.61,-23.39 540.83,-28.68 550,-33.5 573.83,-46.04 600.82,-60.53 620.27,-71.03"/>
<polygon fill="#63b8ff" stroke="#63b8ff" points="618.7,-74.16 629.17,-75.83 622.03,-68 618.7,-74.16"/>
</a>
</g>
</g>
</g>
</svg>

<g id="navigator" transform="translate(0 0)" fill="#404254">
  <rect fill="#f2f5e9" fill-opacity="0.5" stroke="#606060" stroke-width=".5" x="0" y="0" width="60" height="60"/>
  <use id="zoomplus" xlink:href="#zoomPlus" x="17" y="9" onmousedown="handleZoom(evt,'in')"/>
  <use id="zoomminus" xlink:href="#zoomMin" x="42" y="9" onmousedown="handleZoom(evt,'out')"/>
  <use id="reset" xlink:href="#resetDef" x="30" y="36" onmousedown="handleReset()"/>
   <use id="arrowup" xlink:href="#arrowUp" x="0" y="0" onmousedown="handlePan(0,-1)"/>
  <use id="arrowright" xlink:href="#arrowRight" x="0" y="0" onmousedown="handlePan(1,0)"/>
  <use id="arrowdown" xlink:href="#arrowDown" x="0" y="0" onmousedown="handlePan(0,1)"/>
  <use id="arrowleft" xlink:href="#arrowLeft" x="0" y="0" onmousedown="handlePan(-1,0)"/>
</g>
<svg viewBox="0 0 15 15" width="100%" height="30px" preserveAspectRatio="xMaxYMin meet">
 <g id="arrow_out" transform="scale(0.3 0.3)">
  <a xlink:href="classG3D_1_1Any_ac0aa327b5dcab075825e796f244c855a_cgraph_org.svg" target="_base">
   <rect id="button" ry="5" rx="5" y="6" x="6" height="38" width="38"
        fill="#f2f5e9" fill-opacity="0.5" stroke="#606060" stroke-width="1.0"/>
   <path id="arrow"
     d="M 11.500037,31.436501 C 11.940474,20.09759 22.043105,11.32322 32.158766,21.979434 L 37.068811,17.246167 C 37.068811,17.246167 37.088388,32 37.088388,32 L 22.160133,31.978069 C 22.160133,31.978069 26.997745,27.140456 26.997745,27.140456 C 18.528582,18.264221 13.291696,25.230495 11.500037,31.436501 z"
     style="fill:#404040;"/>
  </a>
 </g>
</svg>

<style type='text/css'>
<![CDATA[
[data-mouse-over-selected='false'] { opacity: 0.7; }
[data-mouse-over-selected='true']  { opacity: 1.0; }
]]>
</style>
<script type="application/ecmascript"><![CDATA[
document.addEventListener('DOMContentLoaded', (event) => {
  highlightEdges();
  highlightAdjacentNodes();
});
]]></script>
</svg>
