<?xml version="1.0" encoding="UTF-8" standalone="no"?>
<!DOCTYPE svg PUBLIC "-//W3C//DTD SVG 1.1//EN"
 "http://www.w3.org/Graphics/SVG/1.1/DTD/svg11.dtd">
<!-- Generated by graphviz version 2.43.0 (0)
 -->
<!-- Title: GuardianSummon Pages: 1 -->
<svg width="112pt" height="302pt"
 viewBox="0.00 0.00 112.00 302.00" xmlns="http://www.w3.org/2000/svg" xmlns:xlink="http://www.w3.org/1999/xlink">
<g id="graph0" class="graph" transform="scale(1 1) rotate(0) translate(4 298)">
<title>GuardianSummon</title>
<!-- Node1 -->
<g id="Node000001" class="node">
<title>Node1</title>
<g id="a_Node000001"><a xlink:title=" ">
<polygon fill="#999999" stroke="#666666" points="104,-19 0,-19 0,0 104,0 104,-19"/>
<text text-anchor="middle" x="52" y="-7" font-family="Helvetica,sans-Serif" font-size="10.00">GuardianSummon</text>
</a>
</g>
</g>
<!-- Node2 -->
<g id="Node000002" class="node">
<title>Node2</title>
<g id="a_Node000002"><a xlink:href="classSummon.html" target="_top" xlink:title=" ">
<polygon fill="white" stroke="#666666" points="82,-74 22,-74 22,-55 82,-55 82,-74"/>
<text text-anchor="middle" x="52" y="-62" font-family="Helvetica,sans-Serif" font-size="10.00">Summon</text>
</a>
</g>
</g>
<!-- Node2&#45;&gt;Node1 -->
<g id="edge1_Node000001_Node000002" class="edge">
<title>Node2&#45;&gt;Node1</title>
<g id="a_edge1_Node000001_Node000002"><a xlink:title=" ">
<path fill="none" stroke="#63b8ff" d="M52,-44.66C52,-35.93 52,-25.99 52,-19.09"/>
<polygon fill="#63b8ff" stroke="#63b8ff" points="48.5,-44.75 52,-54.75 55.5,-44.75 48.5,-44.75"/>
</a>
</g>
</g>
<!-- Node3 -->
<g id="Node000003" class="node">
<title>Node3</title>
<g id="a_Node000003"><a xlink:href="classCreature.html" target="_top" xlink:title=" ">
<polygon fill="white" stroke="#666666" points="81.5,-129 22.5,-129 22.5,-110 81.5,-110 81.5,-129"/>
<text text-anchor="middle" x="52" y="-117" font-family="Helvetica,sans-Serif" font-size="10.00">Creature</text>
</a>
</g>
</g>
<!-- Node3&#45;&gt;Node2 -->
<g id="edge2_Node000002_Node000003" class="edge">
<title>Node3&#45;&gt;Node2</title>
<g id="a_edge2_Node000002_Node000003"><a xlink:title=" ">
<path fill="none" stroke="#63b8ff" d="M52,-99.66C52,-90.93 52,-80.99 52,-74.09"/>
<polygon fill="#63b8ff" stroke="#63b8ff" points="48.5,-99.75 52,-109.75 55.5,-99.75 48.5,-99.75"/>
</a>
</g>
</g>
<!-- Node4 -->
<g id="Node000004" class="node">
<title>Node4</title>
<g id="a_Node000004"><a xlink:href="classUnit.html" target="_top" xlink:title=" ">
<polygon fill="white" stroke="#666666" points="70.5,-184 33.5,-184 33.5,-165 70.5,-165 70.5,-184"/>
<text text-anchor="middle" x="52" y="-172" font-family="Helvetica,sans-Serif" font-size="10.00">Unit</text>
</a>
</g>
</g>
<!-- Node4&#45;&gt;Node3 -->
<g id="edge3_Node000003_Node000004" class="edge">
<title>Node4&#45;&gt;Node3</title>
<g id="a_edge3_Node000003_Node000004"><a xlink:title=" ">
<path fill="none" stroke="#63b8ff" d="M52,-154.66C52,-145.93 52,-135.99 52,-129.09"/>
<polygon fill="#63b8ff" stroke="#63b8ff" points="48.5,-154.75 52,-164.75 55.5,-154.75 48.5,-154.75"/>
</a>
</g>
</g>
<!-- Node5 -->
<g id="Node000005" class="node">
<title>Node5</title>
<g id="a_Node000005"><a xlink:href="classObject.html" target="_top" xlink:title=" ">
<polygon fill="white" stroke="#666666" points="76,-239 28,-239 28,-220 76,-220 76,-239"/>
<text text-anchor="middle" x="52" y="-227" font-family="Helvetica,sans-Serif" font-size="10.00">Object</text>
</a>
</g>
</g>
<!-- Node5&#45;&gt;Node4 -->
<g id="edge4_Node000004_Node000005" class="edge">
<title>Node5&#45;&gt;Node4</title>
<g id="a_edge4_Node000004_Node000005"><a xlink:title=" ">
<path fill="none" stroke="#63b8ff" d="M52,-209.66C52,-200.93 52,-190.99 52,-184.09"/>
<polygon fill="#63b8ff" stroke="#63b8ff" points="48.5,-209.75 52,-219.75 55.5,-209.75 48.5,-209.75"/>
</a>
</g>
</g>
<!-- Node6 -->
<g id="Node000006" class="node">
<title>Node6</title>
<g id="a_Node000006"><a xlink:href="classEventableObject.html" target="_top" xlink:title=" ">
<polygon fill="white" stroke="#666666" points="100.5,-294 3.5,-294 3.5,-275 100.5,-275 100.5,-294"/>
<text text-anchor="middle" x="52" y="-282" font-family="Helvetica,sans-Serif" font-size="10.00">EventableObject</text>
</a>
</g>
</g>
<!-- Node6&#45;&gt;Node5 -->
<g id="edge5_Node000005_Node000006" class="edge">
<title>Node6&#45;&gt;Node5</title>
<g id="a_edge5_Node000005_Node000006"><a xlink:title=" ">
<path fill="none" stroke="#63b8ff" d="M52,-264.66C52,-255.93 52,-245.99 52,-239.09"/>
<polygon fill="#63b8ff" stroke="#63b8ff" points="48.5,-264.75 52,-274.75 55.5,-264.75 48.5,-264.75"/>
</a>
</g>
</g>
</g>
</svg>
