<?xml version="1.0" encoding="UTF-8" standalone="no"?>
<!DOCTYPE svg PUBLIC "-//W3C//DTD SVG 1.1//EN"
 "http://www.w3.org/Graphics/SVG/1.1/DTD/svg11.dtd">
<!-- Generated by graphviz version 2.43.0 (0)
 -->
<!-- Title: SpellCastTargets::SpellCastTargets Pages: 1 -->
<svg width="955pt" height="175pt"
 viewBox="0.00 0.00 955.00 175.00" xmlns="http://www.w3.org/2000/svg" xmlns:xlink="http://www.w3.org/1999/xlink">
<g id="graph0" class="graph" transform="scale(1 1) rotate(0) translate(4 171)">
<title>SpellCastTargets::SpellCastTargets</title>
<!-- Node1 -->
<g id="Node000001" class="node">
<title>Node1</title>
<g id="a_Node000001"><a xlink:title=" ">
<polygon fill="#999999" stroke="#666666" points="149,-98.5 0,-98.5 0,-68.5 149,-68.5 149,-98.5"/>
<text text-anchor="start" x="8" y="-86.5" font-family="Helvetica,sans-Serif" font-size="10.00">SpellCastTargets::SpellCast</text>
<text text-anchor="middle" x="74.5" y="-75.5" font-family="Helvetica,sans-Serif" font-size="10.00">Targets</text>
</a>
</g>
</g>
<!-- Node2 -->
<g id="Node000002" class="node">
<title>Node2</title>
<g id="a_Node000002"><a xlink:href="classSpellCastTargets.html#a8e98c1b9e4f7109ca06d50a8fc7dcf72" target="_top" xlink:title=" ">
<polygon fill="white" stroke="#666666" points="310,-93 185,-93 185,-74 310,-74 310,-93"/>
<text text-anchor="middle" x="247.5" y="-81" font-family="Helvetica,sans-Serif" font-size="10.00">SpellCastTargets::read</text>
</a>
</g>
</g>
<!-- Node1&#45;&gt;Node2 -->
<g id="edge1_Node000001_Node000002" class="edge">
<title>Node1&#45;&gt;Node2</title>
<g id="a_edge1_Node000001_Node000002"><a xlink:title=" ">
<path fill="none" stroke="#63b8ff" d="M149.01,-83.5C157.51,-83.5 166.16,-83.5 174.64,-83.5"/>
<polygon fill="#63b8ff" stroke="#63b8ff" points="174.86,-87 184.86,-83.5 174.86,-80 174.86,-87"/>
</a>
</g>
</g>
<!-- Node3 -->
<g id="Node000003" class="node">
<title>Node3</title>
<g id="a_Node000003"><a xlink:href="classWoWGuid.html#ace5ff0d369d8072eeb9cbdcdd60596bd" target="_top" xlink:title=" ">
<polygon fill="white" stroke="#666666" points="497.5,-167 369.5,-167 369.5,-148 497.5,-148 497.5,-167"/>
<text text-anchor="middle" x="433.5" y="-155" font-family="Helvetica,sans-Serif" font-size="10.00">WoWGuid::getGuidLow</text>
</a>
</g>
</g>
<!-- Node2&#45;&gt;Node3 -->
<g id="edge2_Node000002_Node000003" class="edge">
<title>Node2&#45;&gt;Node3</title>
<g id="a_edge2_Node000002_Node000003"><a xlink:title=" ">
<path fill="none" stroke="#63b8ff" d="M262.02,-93.13C280.23,-105.65 314.07,-127.36 346,-139.5 351.83,-141.72 358,-143.68 364.24,-145.43"/>
<polygon fill="#63b8ff" stroke="#63b8ff" points="363.52,-148.85 374.08,-147.98 365.28,-142.08 363.52,-148.85"/>
</a>
</g>
</g>
<!-- Node4 -->
<g id="Node000004" class="node">
<title>Node4</title>
<g id="a_Node000004"><a xlink:href="classWoWGuid.html#ae2ebb34eec8642eff1eb0ea3970acd5c" target="_top" xlink:title=" ">
<polygon fill="white" stroke="#666666" points="498,-130 369,-130 369,-111 498,-111 498,-130"/>
<text text-anchor="middle" x="433.5" y="-118" font-family="Helvetica,sans-Serif" font-size="10.00">WoWGuid::getRawGuid</text>
</a>
</g>
</g>
<!-- Node2&#45;&gt;Node4 -->
<g id="edge3_Node000002_Node000004" class="edge">
<title>Node2&#45;&gt;Node4</title>
<g id="a_edge3_Node000002_Node000004"><a xlink:title=" ">
<path fill="none" stroke="#63b8ff" d="M295.88,-93.03C320.04,-97.89 349.62,-103.83 375.06,-108.95"/>
<polygon fill="#63b8ff" stroke="#63b8ff" points="374.46,-112.4 384.96,-110.94 375.84,-105.54 374.46,-112.4"/>
</a>
</g>
</g>
<!-- Node5 -->
<g id="Node000005" class="node">
<title>Node5</title>
<g id="a_Node000005"><a xlink:href="classSpellCastTargets.html#a42ba6792dd439e08dffdbd3535fed38b" target="_top" xlink:title=" ">
<polygon fill="white" stroke="#666666" points="497.5,-93 369.5,-93 369.5,-74 497.5,-74 497.5,-93"/>
<text text-anchor="middle" x="433.5" y="-81" font-family="Helvetica,sans-Serif" font-size="10.00">SpellCastTargets::reset</text>
</a>
</g>
</g>
<!-- Node2&#45;&gt;Node5 -->
<g id="edge4_Node000002_Node000005" class="edge">
<title>Node2&#45;&gt;Node5</title>
<g id="a_edge4_Node000002_Node000005"><a xlink:title=" ">
<path fill="none" stroke="#63b8ff" d="M310.03,-83.5C325.86,-83.5 343.05,-83.5 359.4,-83.5"/>
<polygon fill="#63b8ff" stroke="#63b8ff" points="359.46,-87 369.46,-83.5 359.46,-80 359.46,-87"/>
</a>
</g>
</g>
<!-- Node6 -->
<g id="Node000006" class="node">
<title>Node6</title>
<g id="a_Node000006"><a xlink:href="classSpellCastTargets.html#a3ff8446a2c24f038a18cf60291449486" target="_top" xlink:title=" ">
<polygon fill="white" stroke="#666666" points="521,-56 346,-56 346,-37 521,-37 521,-56"/>
<text text-anchor="middle" x="433.5" y="-44" font-family="Helvetica,sans-Serif" font-size="10.00">SpellCastTargets::setDestination</text>
</a>
</g>
</g>
<!-- Node2&#45;&gt;Node6 -->
<g id="edge5_Node000002_Node000006" class="edge">
<title>Node2&#45;&gt;Node6</title>
<g id="a_edge5_Node000002_Node000006"><a xlink:title=" ">
<path fill="none" stroke="#63b8ff" d="M295.88,-73.97C320.04,-69.11 349.62,-63.17 375.06,-58.05"/>
<polygon fill="#63b8ff" stroke="#63b8ff" points="375.84,-61.46 384.96,-56.06 374.46,-54.6 375.84,-61.46"/>
</a>
</g>
</g>
<!-- Node10 -->
<g id="Node000010" class="node">
<title>Node10</title>
<g id="a_Node000010"><a xlink:href="classSpellCastTargets.html#a44a4567b024b641db2e5ece39922fe79" target="_top" xlink:title=" ">
<polygon fill="white" stroke="#666666" points="509.5,-19 357.5,-19 357.5,0 509.5,0 509.5,-19"/>
<text text-anchor="middle" x="433.5" y="-7" font-family="Helvetica,sans-Serif" font-size="10.00">SpellCastTargets::setSource</text>
</a>
</g>
</g>
<!-- Node2&#45;&gt;Node10 -->
<g id="edge9_Node000002_Node000010" class="edge">
<title>Node2&#45;&gt;Node10</title>
<g id="a_edge9_Node000002_Node000010"><a xlink:title=" ">
<path fill="none" stroke="#63b8ff" d="M262.38,-73.9C280.72,-61.64 314.41,-40.57 346,-28.5 352.81,-25.9 360.07,-23.61 367.38,-21.6"/>
<polygon fill="#63b8ff" stroke="#63b8ff" points="368.52,-24.92 377.33,-19.04 366.77,-18.14 368.52,-24.92"/>
</a>
</g>
</g>
<!-- Node7 -->
<g id="Node000007" class="node">
<title>Node7</title>
<g id="a_Node000007"><a xlink:href="classSpellCastTargets.html#a1b018df13fbac9d3e8454740a7d3e513" target="_top" xlink:title=" ">
<polygon fill="white" stroke="#666666" points="735,-37 557,-37 557,-18 735,-18 735,-37"/>
<text text-anchor="middle" x="646" y="-25" font-family="Helvetica,sans-Serif" font-size="10.00">SpellCastTargets::addTargetMask</text>
</a>
</g>
</g>
<!-- Node6&#45;&gt;Node7 -->
<g id="edge6_Node000006_Node000007" class="edge">
<title>Node6&#45;&gt;Node7</title>
<g id="a_edge6_Node000006_Node000007"><a xlink:title=" ">
<path fill="none" stroke="#63b8ff" d="M521.03,-38.69C529.51,-37.92 538.15,-37.14 546.73,-36.37"/>
<polygon fill="#63b8ff" stroke="#63b8ff" points="547.12,-39.85 556.76,-35.46 546.49,-32.88 547.12,-39.85"/>
</a>
</g>
</g>
<!-- Node8 -->
<g id="Node000008" class="node">
<title>Node8</title>
<g id="a_Node000008"><a xlink:href="classSpellCastTargets.html#af29ba7f8180d7dad07136a46c81d446a" target="_top" xlink:title=" ">
<polygon fill="white" stroke="#666666" points="947,-56 771,-56 771,-37 947,-37 947,-56"/>
<text text-anchor="middle" x="859" y="-44" font-family="Helvetica,sans-Serif" font-size="10.00">SpellCastTargets::getTargetMask</text>
</a>
</g>
</g>
<!-- Node7&#45;&gt;Node8 -->
<g id="edge7_Node000007_Node000008" class="edge">
<title>Node7&#45;&gt;Node8</title>
<g id="a_edge7_Node000007_Node000008"><a xlink:title=" ">
<path fill="none" stroke="#63b8ff" d="M735.26,-35.45C743.61,-36.2 752.11,-36.96 760.54,-37.72"/>
<polygon fill="#63b8ff" stroke="#63b8ff" points="760.5,-41.23 770.77,-38.65 761.12,-34.26 760.5,-41.23"/>
</a>
</g>
</g>
<!-- Node9 -->
<g id="Node000009" class="node">
<title>Node9</title>
<g id="a_Node000009"><a xlink:href="classSpellCastTargets.html#ab4a95e1a2cac2ba9f1cbbdd89feed7f6" target="_top" xlink:title=" ">
<polygon fill="white" stroke="#666666" points="946.5,-19 771.5,-19 771.5,0 946.5,0 946.5,-19"/>
<text text-anchor="middle" x="859" y="-7" font-family="Helvetica,sans-Serif" font-size="10.00">SpellCastTargets::setTargetMask</text>
</a>
</g>
</g>
<!-- Node7&#45;&gt;Node9 -->
<g id="edge8_Node000007_Node000009" class="edge">
<title>Node7&#45;&gt;Node9</title>
<g id="a_edge8_Node000007_Node000009"><a xlink:title=" ">
<path fill="none" stroke="#63b8ff" d="M735.26,-19.97C743.86,-19.24 752.63,-18.49 761.31,-17.75"/>
<polygon fill="#63b8ff" stroke="#63b8ff" points="761.78,-21.22 771.45,-16.88 761.18,-14.25 761.78,-21.22"/>
</a>
</g>
</g>
<!-- Node10&#45;&gt;Node7 -->
<g id="edge10_Node000010_Node000007" class="edge">
<title>Node10&#45;&gt;Node7</title>
<g id="a_edge10_Node000010_Node000007"><a xlink:title=" ">
<path fill="none" stroke="#63b8ff" d="M509.6,-15.92C521.72,-16.96 534.41,-18.04 546.96,-19.12"/>
<polygon fill="#63b8ff" stroke="#63b8ff" points="546.73,-22.61 556.99,-19.97 547.32,-15.63 546.73,-22.61"/>
</a>
</g>
</g>
</g>
</svg>
