<?xml version="1.0" encoding="UTF-8" standalone="no"?>
<!DOCTYPE svg PUBLIC "-//W3C//DTD SVG 1.1//EN"
 "http://www.w3.org/Graphics/SVG/1.1/DTD/svg11.dtd">
<!-- Generated by graphviz version 2.43.0 (0)
 -->
<!-- Title: AkamaAI::FindClosestTargetToUnit Pages: 1 -->
<svg width="662pt" height="38pt"
 viewBox="0.00 0.00 662.00 38.00" xmlns="http://www.w3.org/2000/svg" xmlns:xlink="http://www.w3.org/1999/xlink">
<g id="graph0" class="graph" transform="scale(1 1) rotate(0) translate(4 34)">
<title>AkamaAI::FindClosestTargetToUnit</title>
<!-- Node1 -->
<g id="Node000001" class="node">
<title>Node1</title>
<g id="a_Node000001"><a xlink:title=" ">
<polygon fill="#999999" stroke="#666666" points="654,-30 502,-30 502,0 654,0 654,-30"/>
<text text-anchor="start" x="510" y="-18" font-family="Helvetica,sans-Serif" font-size="10.00">AkamaAI::FindClosestTarget</text>
<text text-anchor="middle" x="578" y="-7" font-family="Helvetica,sans-Serif" font-size="10.00">ToUnit</text>
</a>
</g>
</g>
<!-- Node2 -->
<g id="Node000002" class="node">
<title>Node2</title>
<g id="a_Node000002"><a xlink:href="classAkamaAI.html#a36a2c926f324e85f74cca2c9f238fe7c" target="_top" xlink:title=" ">
<polygon fill="white" stroke="#666666" points="466,-24.5 311,-24.5 311,-5.5 466,-5.5 466,-24.5"/>
<text text-anchor="middle" x="388.5" y="-12.5" font-family="Helvetica,sans-Serif" font-size="10.00">AkamaAI::IllidanDialogEvent</text>
</a>
</g>
</g>
<!-- Node1&#45;&gt;Node2 -->
<g id="edge1_Node000001_Node000002" class="edge">
<title>Node1&#45;&gt;Node2</title>
<g id="a_edge1_Node000001_Node000002"><a xlink:title=" ">
<path fill="none" stroke="#63b8ff" d="M491.57,-15C483.12,-15 474.58,-15 466.23,-15"/>
<polygon fill="#63b8ff" stroke="#63b8ff" points="491.82,-18.5 501.82,-15 491.82,-11.5 491.82,-18.5"/>
</a>
</g>
</g>
<!-- Node3 -->
<g id="Node000003" class="node">
<title>Node3</title>
<g id="a_Node000003"><a xlink:href="classAkamaAI.html#ac52d54e1746fbc2daba00d86a1c3c84c" target="_top" xlink:title=" ">
<polygon fill="white" stroke="#666666" points="275,-24.5 147,-24.5 147,-5.5 275,-5.5 275,-24.5"/>
<text text-anchor="middle" x="211" y="-12.5" font-family="Helvetica,sans-Serif" font-size="10.00">AkamaAI::WayToIllidan</text>
</a>
</g>
</g>
<!-- Node2&#45;&gt;Node3 -->
<g id="edge2_Node000002_Node000003" class="edge">
<title>Node2&#45;&gt;Node3</title>
<g id="a_edge2_Node000002_Node000003"><a xlink:title=" ">
<path fill="none" stroke="#63b8ff" d="M300.69,-15C292.08,-15 283.46,-15 275.15,-15"/>
<polygon fill="#63b8ff" stroke="#63b8ff" points="300.78,-18.5 310.78,-15 300.78,-11.5 300.78,-18.5"/>
</a>
</g>
</g>
<!-- Node4 -->
<g id="Node000004" class="node">
<title>Node4</title>
<g id="a_Node000004"><a xlink:href="classAkamaAI.html#af16a9c31fcb5ee3b24dde1e5aafb6840" target="_top" xlink:title=" ">
<polygon fill="white" stroke="#666666" points="111,-24.5 0,-24.5 0,-5.5 111,-5.5 111,-24.5"/>
<text text-anchor="middle" x="55.5" y="-12.5" font-family="Helvetica,sans-Serif" font-size="10.00">AkamaAI::AIUpdate</text>
</a>
</g>
</g>
<!-- Node3&#45;&gt;Node4 -->
<g id="edge3_Node000003_Node000004" class="edge">
<title>Node3&#45;&gt;Node4</title>
<g id="a_edge3_Node000003_Node000004"><a xlink:title=" ">
<path fill="none" stroke="#63b8ff" d="M136.43,-15C127.98,-15 119.48,-15 111.34,-15"/>
<polygon fill="#63b8ff" stroke="#63b8ff" points="136.68,-18.5 146.68,-15 136.68,-11.5 136.68,-18.5"/>
</a>
</g>
</g>
</g>
</svg>
