<?xml version="1.0" encoding="UTF-8" standalone="no"?>
<!DOCTYPE svg PUBLIC "-//W3C//DTD SVG 1.1//EN"
 "http://www.w3.org/Graphics/SVG/1.1/DTD/svg11.dtd">
<!-- Generated by graphviz version 2.43.0 (0)
 -->
<!-- Title: loc_value::visit Pages: 1 -->
<svg width="373pt" height="94pt"
 viewBox="0.00 0.00 373.00 93.50" xmlns="http://www.w3.org/2000/svg" xmlns:xlink="http://www.w3.org/1999/xlink">

<svg id="main" version="1.1" xmlns="http://www.w3.org/2000/svg" xmlns:xlink="http://www.w3.org/1999/xlink" xml:space="preserve" onload="init(evt)">
<style type="text/css"><![CDATA[
.node, .edge {opacity: 0.7;}
.node.selected, .edge.selected {opacity: 1;}
.edge:hover path { stroke: red; }
.edge:hover polygon { stroke: red; fill: red; }
]]></style>
<script type="application/ecmascript" xlink:href="svg.min.js"/>
<svg id="graph" class="graph">
<g id="graph0" class="graph" transform="scale(1 1) rotate(0) translate(4 89.5)">
<title>loc_value::visit</title>
<!-- Node1 -->
<g id="Node000001" class="node">
<title>Node1</title>
<g id="a_Node000001"><a xlink:title=" ">
<polygon fill="#999999" stroke="#666666" points="90,-45.5 0,-45.5 0,-26.5 90,-26.5 90,-45.5"/>
<text text-anchor="middle" x="45" y="-33.5" font-family="Helvetica,sans-Serif" font-size="10.00">loc_value::visit</text>
</a>
</g>
</g>
<!-- Node2 -->
<g id="Node000002" class="node">
<title>Node2</title>
<g id="a_Node000002"><a xlink:href="fmt_2include_2fmt_2core_8h.html#a05783ffcc62709c2284ee0da45486a98" target="_top" xlink:title=" ">
<polygon fill="white" stroke="#666666" points="223,-45.5 126,-45.5 126,-26.5 223,-26.5 223,-45.5"/>
<text text-anchor="middle" x="174.5" y="-33.5" font-family="Helvetica,sans-Serif" font-size="10.00">visit_format_arg</text>
</a>
</g>
</g>
<!-- Node1&#45;&gt;Node2 -->
<g id="edge1_Node000001_Node000002" class="edge">
<title>Node1&#45;&gt;Node2</title>
<g id="a_edge1_Node000001_Node000002"><a xlink:title=" ">
<path fill="none" stroke="#63b8ff" d="M90.24,-36C98.42,-36 107.07,-36 115.59,-36"/>
<polygon fill="#63b8ff" stroke="#63b8ff" points="115.87,-39.5 125.87,-36 115.87,-32.5 115.87,-39.5"/>
</a>
</g>
</g>
<!-- Node3 -->
<g id="Node000003" class="node">
<title>Node3</title>
<g id="a_Node000003"><a xlink:href="fmt_2include_2fmt_2core_8h.html#a2c8e80c1b1c8b7747e99b8e9a24a0429" target="_top" xlink:title=" ">
<polygon fill="white" stroke="#666666" points="328,-67.5 296,-67.5 296,-48.5 328,-48.5 328,-67.5"/>
<text text-anchor="middle" x="312" y="-55.5" font-family="Helvetica,sans-Serif" font-size="10.00">arg</text>
</a>
</g>
</g>
<!-- Node2&#45;&gt;Node3 -->
<g id="edge2_Node000002_Node000003" class="edge">
<title>Node2&#45;&gt;Node3</title>
<g id="a_edge2_Node000002_Node000003"><a xlink:title=" ">
<path fill="none" stroke="#63b8ff" d="M223.27,-43.76C244.35,-47.18 268.25,-51.06 285.78,-53.91"/>
<polygon fill="#63b8ff" stroke="#63b8ff" points="285.36,-57.38 295.79,-55.53 286.48,-50.47 285.36,-57.38"/>
</a>
</g>
</g>
<!-- Node4 -->
<g id="Node000004" class="node">
<title>Node4</title>
<g id="a_Node000004"><a xlink:href="namespacedetail.html#a49b6442202d11af60b96dc09859dd027" target="_top" xlink:title=" ">
<polygon fill="white" stroke="#666666" points="365,-30 259,-30 259,0 365,0 365,-30"/>
<text text-anchor="start" x="267" y="-18" font-family="Helvetica,sans-Serif" font-size="10.00">detail::convert_for</text>
<text text-anchor="middle" x="312" y="-7" font-family="Helvetica,sans-Serif" font-size="10.00">_visit</text>
</a>
</g>
</g>
<!-- Node2&#45;&gt;Node4 -->
<g id="edge4_Node000002_Node000004" class="edge">
<title>Node2&#45;&gt;Node4</title>
<g id="a_edge4_Node000002_Node000004"><a xlink:title=" ">
<path fill="none" stroke="#63b8ff" d="M223.27,-28.6C231.49,-27.32 240.13,-25.98 248.66,-24.66"/>
<polygon fill="#63b8ff" stroke="#63b8ff" points="249.24,-28.11 258.59,-23.12 248.17,-21.2 249.24,-28.11"/>
</a>
</g>
</g>
<!-- Node3&#45;&gt;Node3 -->
<g id="edge3_Node000003_Node000003" class="edge">
<title>Node3&#45;&gt;Node3</title>
<g id="a_edge3_Node000003_Node000003"><a xlink:title=" ">
<path fill="none" stroke="#63b8ff" d="M295.97,-64.22C279.3,-73.63 284.64,-85.5 312,-85.5 333.37,-85.5 341.31,-78.25 335.81,-70.6"/>
<polygon fill="#63b8ff" stroke="#63b8ff" points="337.98,-67.85 328.03,-64.22 333.54,-73.26 337.98,-67.85"/>
</a>
</g>
</g>
</g>
</svg>
</svg>

<style type='text/css'>
<![CDATA[
[data-mouse-over-selected='false'] { opacity: 0.7; }
[data-mouse-over-selected='true']  { opacity: 1.0; }
]]>
</style>
<script type="application/ecmascript"><![CDATA[
document.addEventListener('DOMContentLoaded', (event) => {
  highlightEdges();
  highlightAdjacentNodes();
});
]]></script>
</svg>
