<?xml version="1.0" encoding="UTF-8" standalone="no"?>
<!DOCTYPE svg PUBLIC "-//W3C//DTD SVG 1.1//EN"
 "http://www.w3.org/Graphics/SVG/1.1/DTD/svg11.dtd">
<!-- Generated by graphviz version 2.43.0 (0)
 -->
<!-- Title: ChunkedFile::GetChunk Pages: 1 -->
<svg width="667pt" height="64pt"
 viewBox="0.00 0.00 667.00 64.00" xmlns="http://www.w3.org/2000/svg" xmlns:xlink="http://www.w3.org/1999/xlink">
<g id="graph0" class="graph" transform="scale(1 1) rotate(0) translate(4 60)">
<title>ChunkedFile::GetChunk</title>
<!-- Node1 -->
<g id="Node000001" class="node">
<title>Node1</title>
<g id="a_Node000001"><a xlink:title=" ">
<polygon fill="#999999" stroke="#666666" points="659,-38 529,-38 529,-19 659,-19 659,-38"/>
<text text-anchor="middle" x="594" y="-26" font-family="Helvetica,sans-Serif" font-size="10.00">ChunkedFile::GetChunk</text>
</a>
</g>
</g>
<!-- Node2 -->
<g id="Node000002" class="node">
<title>Node2</title>
<g id="a_Node000002"><a xlink:href="ToolsCataMop_2map__extractor_2System_8cpp.html#a3fa72e55afde87fc85ee2c2e6fbb65d0" target="_top" xlink:title=" ">
<polygon fill="white" stroke="#666666" points="99,-56 24,-56 24,-37 99,-37 99,-56"/>
<text text-anchor="middle" x="61.5" y="-44" font-family="Helvetica,sans-Serif" font-size="10.00">ConvertADT</text>
</a>
</g>
</g>
<!-- Node1&#45;&gt;Node2 -->
<g id="edge1_Node000001_Node000002" class="edge">
<title>Node1&#45;&gt;Node2</title>
<g id="a_edge1_Node000001_Node000002"><a xlink:title=" ">
<path fill="none" stroke="#63b8ff" d="M542.33,-40.04C526.61,-43.1 509.16,-45.98 493,-47.5 347.71,-61.18 173.62,-53.41 99.18,-48.95"/>
<polygon fill="#63b8ff" stroke="#63b8ff" points="543.27,-43.42 552.38,-38.01 541.88,-36.56 543.27,-43.42"/>
</a>
</g>
</g>
<!-- Node3 -->
<g id="Node000003" class="node">
<title>Node3</title>
<g id="a_Node000003"><a xlink:href="ToolsCataMop_2map__extractor_2System_8cpp.html#a71d75eb31bf7e4d81a31bdde92cde089" target="_top" xlink:title=" ">
<polygon fill="white" stroke="#666666" points="123,-19 0,-19 0,0 123,0 123,-19"/>
<text text-anchor="middle" x="61.5" y="-7" font-family="Helvetica,sans-Serif" font-size="10.00">ExtractMapsFromMpq</text>
</a>
</g>
</g>
<!-- Node1&#45;&gt;Node3 -->
<g id="edge2_Node000001_Node000003" class="edge">
<title>Node1&#45;&gt;Node3</title>
<g id="a_edge2_Node000001_Node000003"><a xlink:title=" ">
<path fill="none" stroke="#63b8ff" d="M539.33,-17.05C524.4,-14.35 508.13,-11.87 493,-10.5 361.62,1.38 206.76,-2.64 123.25,-6.29"/>
<polygon fill="#63b8ff" stroke="#63b8ff" points="538.94,-20.54 549.42,-18.94 540.23,-13.66 538.94,-20.54"/>
</a>
</g>
</g>
<!-- Node4 -->
<g id="Node000004" class="node">
<title>Node4</title>
<g id="a_Node000004"><a xlink:href="classChunkedFile.html#ac493da450dc88ad13265efb9ee4771a5" target="_top" xlink:title=" ">
<polygon fill="white" stroke="#666666" points="493,-38 315,-38 315,-19 493,-19 493,-38"/>
<text text-anchor="middle" x="404" y="-26" font-family="Helvetica,sans-Serif" font-size="10.00">ChunkedFile::prepareLoadedData</text>
</a>
</g>
</g>
<!-- Node1&#45;&gt;Node4 -->
<g id="edge3_Node000001_Node000004" class="edge">
<title>Node1&#45;&gt;Node4</title>
<g id="a_edge3_Node000001_Node000004"><a xlink:title=" ">
<path fill="none" stroke="#63b8ff" d="M518.72,-28.5C510.32,-28.5 501.71,-28.5 493.16,-28.5"/>
<polygon fill="#63b8ff" stroke="#63b8ff" points="518.83,-32 528.83,-28.5 518.83,-25 518.83,-32"/>
</a>
</g>
</g>
<!-- Node5 -->
<g id="Node000005" class="node">
<title>Node5</title>
<g id="a_Node000005"><a xlink:href="classChunkedFile.html#a23a0097d1a8bd4e35e92bd05a6f25db2" target="_top" xlink:title=" ">
<polygon fill="white" stroke="#666666" points="279,-38 159,-38 159,-19 279,-19 279,-38"/>
<text text-anchor="middle" x="219" y="-26" font-family="Helvetica,sans-Serif" font-size="10.00">ChunkedFile::loadFile</text>
</a>
</g>
</g>
<!-- Node4&#45;&gt;Node5 -->
<g id="edge4_Node000004_Node000005" class="edge">
<title>Node4&#45;&gt;Node5</title>
<g id="a_edge4_Node000004_Node000005"><a xlink:title=" ">
<path fill="none" stroke="#63b8ff" d="M304.71,-28.5C295.97,-28.5 287.32,-28.5 279.07,-28.5"/>
<polygon fill="#63b8ff" stroke="#63b8ff" points="304.98,-32 314.98,-28.5 304.98,-25 304.98,-32"/>
</a>
</g>
</g>
<!-- Node5&#45;&gt;Node2 -->
<g id="edge5_Node000005_Node000002" class="edge">
<title>Node5&#45;&gt;Node2</title>
<g id="a_edge5_Node000005_Node000002"><a xlink:title=" ">
<path fill="none" stroke="#63b8ff" d="M148.77,-36.51C131.63,-38.5 113.93,-40.55 99.06,-42.27"/>
<polygon fill="#63b8ff" stroke="#63b8ff" points="149.24,-39.98 158.77,-35.36 148.43,-33.03 149.24,-39.98"/>
</a>
</g>
</g>
<!-- Node5&#45;&gt;Node3 -->
<g id="edge6_Node000005_Node000003" class="edge">
<title>Node5&#45;&gt;Node3</title>
<g id="a_edge6_Node000005_Node000003"><a xlink:title=" ">
<path fill="none" stroke="#63b8ff" d="M148.8,-20.05C140.24,-19 131.54,-17.94 123.11,-16.91"/>
<polygon fill="#63b8ff" stroke="#63b8ff" points="148.42,-23.52 158.77,-21.26 149.27,-16.58 148.42,-23.52"/>
</a>
</g>
</g>
</g>
</svg>
