<?xml version="1.0" encoding="UTF-8" standalone="no"?>
<!DOCTYPE svg PUBLIC "-//W3C//DTD SVG 1.1//EN"
 "http://www.w3.org/Graphics/SVG/1.1/DTD/svg11.dtd">
<!-- Generated by graphviz version 2.43.0 (0)
 -->
<!-- Title: LogonCommServerSocket::HandlePacket Pages: 1 -->
<svg width="1070pt" height="748pt"
 viewBox="0.00 0.00 1070.00 747.50" xmlns="http://www.w3.org/2000/svg" xmlns:xlink="http://www.w3.org/1999/xlink">
<g id="graph0" class="graph" transform="scale(1 1) rotate(0) translate(4 743.5)">
<title>LogonCommServerSocket::HandlePacket</title>
<!-- Node1 -->
<g id="Node000001" class="node">
<title>Node1</title>
<g id="a_Node000001"><a xlink:title=" ">
<polygon fill="#999999" stroke="#666666" points="142,-308 0,-308 0,-278 142,-278 142,-308"/>
<text text-anchor="start" x="8" y="-296" font-family="Helvetica,sans-Serif" font-size="10.00">LogonCommServerSocket</text>
<text text-anchor="middle" x="71" y="-285" font-family="Helvetica,sans-Serif" font-size="10.00">::HandlePacket</text>
</a>
</g>
</g>
<!-- Node2 -->
<g id="Node000002" class="node">
<title>Node2</title>
<g id="a_Node000002"><a xlink:href="classSocket.html#aaa10d0fa473ad69e665b8c49ca938cfa" target="_top" xlink:title=" ">
<polygon fill="white" stroke="#666666" points="315.5,-684.5 206.5,-684.5 206.5,-665.5 315.5,-665.5 315.5,-684.5"/>
<text text-anchor="middle" x="261" y="-672.5" font-family="Helvetica,sans-Serif" font-size="10.00">Socket::Disconnect</text>
</a>
</g>
</g>
<!-- Node1&#45;&gt;Node2 -->
<g id="edge1_Node000001_Node000002" class="edge">
<title>Node1&#45;&gt;Node2</title>
<g id="a_edge1_Node000001_Node000002"><a xlink:title=" ">
<path fill="none" stroke="#63b8ff" d="M73.73,-308.2C79.93,-357 104.68,-512.39 178,-614 192.15,-633.6 214.46,-649.62 232.24,-660.31"/>
<polygon fill="#63b8ff" stroke="#63b8ff" points="230.65,-663.44 241.06,-665.41 234.16,-657.38 230.65,-663.44"/>
</a>
</g>
</g>
<!-- Node8 -->
<g id="Node000008" class="node">
<title>Node8</title>
<g id="a_Node000008"><a xlink:href="classWorldPacket.html#a3f359b4afd93497038c4f17e1ebd4380" target="_top" xlink:title=" ">
<polygon fill="white" stroke="#666666" points="700,-516.5 564,-516.5 564,-497.5 700,-497.5 700,-516.5"/>
<text text-anchor="middle" x="632" y="-504.5" font-family="Helvetica,sans-Serif" font-size="10.00">WorldPacket::GetOpcode</text>
</a>
</g>
</g>
<!-- Node1&#45;&gt;Node8 -->
<g id="edge8_Node000001_Node000008" class="edge">
<title>Node1&#45;&gt;Node8</title>
<g id="a_edge8_Node000001_Node000008"><a xlink:title=" ">
<path fill="none" stroke="#63b8ff" d="M75.27,-308.23C84.42,-347.27 113.95,-451.85 178,-509 294.55,-612.99 382.29,-650.86 522,-581 545.85,-569.07 536.53,-548.81 558,-533 565.08,-527.78 573.31,-523.54 581.64,-520.1"/>
<polygon fill="#63b8ff" stroke="#63b8ff" points="582.9,-523.37 591.02,-516.56 580.43,-516.82 582.9,-523.37"/>
</a>
</g>
</g>
<!-- Node9 -->
<g id="Node000009" class="node">
<title>Node9</title>
<g id="a_Node000009"><a xlink:href="classLogonCommServerSocket.html#ac8f80f192792e45a5e8220b1659d2946" target="_top" xlink:title=" ">
<polygon fill="white" stroke="#666666" points="332,-500 190,-500 190,-470 332,-470 332,-500"/>
<text text-anchor="start" x="198" y="-488" font-family="Helvetica,sans-Serif" font-size="10.00">LogonCommServerSocket</text>
<text text-anchor="middle" x="261" y="-477" font-family="Helvetica,sans-Serif" font-size="10.00">::HandleAuthChallenge</text>
</a>
</g>
</g>
<!-- Node1&#45;&gt;Node9 -->
<g id="edge9_Node000001_Node000009" class="edge">
<title>Node1&#45;&gt;Node9</title>
<g id="a_edge9_Node000001_Node000009"><a xlink:title=" ">
<path fill="none" stroke="#63b8ff" d="M77.28,-308.13C89.55,-341.08 123.21,-419.67 178,-461 179.83,-462.38 181.73,-463.68 183.7,-464.9"/>
<polygon fill="#63b8ff" stroke="#63b8ff" points="182.22,-468.08 192.67,-469.81 185.58,-461.94 182.22,-468.08"/>
</a>
</g>
</g>
<!-- Node32 -->
<g id="Node000032" class="node">
<title>Node32</title>
<g id="a_Node000032"><a xlink:href="classLogonCommServerSocket.html#a5e3495177a7b93b499800f28aa07c86b" target="_top" xlink:title=" ">
<polygon fill="white" stroke="#666666" points="332,-260 190,-260 190,-230 332,-230 332,-260"/>
<text text-anchor="start" x="198" y="-248" font-family="Helvetica,sans-Serif" font-size="10.00">LogonCommServerSocket</text>
<text text-anchor="middle" x="261" y="-237" font-family="Helvetica,sans-Serif" font-size="10.00">::HandleDatabaseModify</text>
</a>
</g>
</g>
<!-- Node1&#45;&gt;Node32 -->
<g id="edge33_Node000001_Node000032" class="edge">
<title>Node1&#45;&gt;Node32</title>
<g id="a_edge33_Node000001_Node000032"><a xlink:title=" ">
<path fill="none" stroke="#63b8ff" d="M130.97,-277.94C150.13,-273.05 171.56,-267.58 191.36,-262.52"/>
<polygon fill="#63b8ff" stroke="#63b8ff" points="192.42,-265.87 201.24,-260 190.69,-259.09 192.42,-265.87"/>
</a>
</g>
</g>
<!-- Node35 -->
<g id="Node000035" class="node">
<title>Node35</title>
<g id="a_Node000035"><a xlink:href="classLogonCommServerSocket.html#a65edd1a43646e438b0aa97d48d4d2c59" target="_top" xlink:title=" ">
<polygon fill="white" stroke="#666666" points="522,-169 380,-169 380,-139 522,-139 522,-169"/>
<text text-anchor="start" x="388" y="-157" font-family="Helvetica,sans-Serif" font-size="10.00">LogonCommServerSocket</text>
<text text-anchor="middle" x="451" y="-146" font-family="Helvetica,sans-Serif" font-size="10.00">::HandleMappingReply</text>
</a>
</g>
</g>
<!-- Node1&#45;&gt;Node35 -->
<g id="edge37_Node000001_Node000035" class="edge">
<title>Node1&#45;&gt;Node35</title>
<g id="a_edge37_Node000001_Node000035"><a xlink:title=" ">
<path fill="none" stroke="#63b8ff" d="M80.06,-277.85C95.19,-251.15 130.64,-196.38 178,-173 237.34,-143.71 312.99,-140.74 369.43,-144.09"/>
<polygon fill="#63b8ff" stroke="#63b8ff" points="369.53,-147.6 379.74,-144.78 370,-140.62 369.53,-147.6"/>
</a>
</g>
</g>
<!-- Node38 -->
<g id="Node000038" class="node">
<title>Node38</title>
<g id="a_Node000038"><a xlink:href="classLogonCommServerSocket.html#a6fe92ec98c5448df5005f25d87ddc507" target="_top" xlink:title=" ">
<polygon fill="white" stroke="#666666" points="332,-452 190,-452 190,-422 332,-422 332,-452"/>
<text text-anchor="start" x="198" y="-440" font-family="Helvetica,sans-Serif" font-size="10.00">LogonCommServerSocket</text>
<text text-anchor="middle" x="261" y="-429" font-family="Helvetica,sans-Serif" font-size="10.00">::HandlePing</text>
</a>
</g>
</g>
<!-- Node1&#45;&gt;Node38 -->
<g id="edge42_Node000001_Node000038" class="edge">
<title>Node1&#45;&gt;Node38</title>
<g id="a_edge42_Node000001_Node000038"><a xlink:title=" ">
<path fill="none" stroke="#63b8ff" d="M81.39,-308.38C97.79,-333.94 134.13,-385.12 178,-413 180.61,-414.66 183.33,-416.2 186.14,-417.65"/>
<polygon fill="#63b8ff" stroke="#63b8ff" points="184.8,-420.88 195.34,-421.91 187.74,-414.53 184.8,-420.88"/>
</a>
</g>
</g>
<!-- Node39 -->
<g id="Node000039" class="node">
<title>Node39</title>
<g id="a_Node000039"><a xlink:href="classLogonCommServerSocket.html#ac987693b697eb83ae2a630b3086ecffd" target="_top" xlink:title=" ">
<polygon fill="white" stroke="#666666" points="336.5,-78 185.5,-78 185.5,-48 336.5,-48 336.5,-78"/>
<text text-anchor="start" x="193.5" y="-66" font-family="Helvetica,sans-Serif" font-size="10.00">LogonCommServerSocket</text>
<text text-anchor="middle" x="261" y="-55" font-family="Helvetica,sans-Serif" font-size="10.00">::HandlePopulationRespond</text>
</a>
</g>
</g>
<!-- Node1&#45;&gt;Node39 -->
<g id="edge44_Node000001_Node000039" class="edge">
<title>Node1&#45;&gt;Node39</title>
<g id="a_edge44_Node000001_Node000039"><a xlink:title=" ">
<path fill="none" stroke="#63b8ff" d="M75.37,-277.98C84.69,-240.01 114.42,-139.49 178,-87 179.54,-85.73 181.15,-84.52 182.82,-83.37"/>
<polygon fill="#63b8ff" stroke="#63b8ff" points="184.74,-86.31 191.53,-78.18 181.15,-80.29 184.74,-86.31"/>
</a>
</g>
</g>
<!-- Node40 -->
<g id="Node000040" class="node">
<title>Node40</title>
<g id="a_Node000040"><a xlink:href="classLogonCommServerSocket.html#a8a966b34cae936b1e278e16610fb4044" target="_top" xlink:title=" ">
<polygon fill="white" stroke="#666666" points="332,-126 190,-126 190,-96 332,-96 332,-126"/>
<text text-anchor="start" x="198" y="-114" font-family="Helvetica,sans-Serif" font-size="10.00">LogonCommServerSocket</text>
<text text-anchor="middle" x="261" y="-103" font-family="Helvetica,sans-Serif" font-size="10.00">::HandleRegister</text>
</a>
</g>
</g>
<!-- Node1&#45;&gt;Node40 -->
<g id="edge45_Node000001_Node000040" class="edge">
<title>Node1&#45;&gt;Node40</title>
<g id="a_edge45_Node000001_Node000040"><a xlink:title=" ">
<path fill="none" stroke="#63b8ff" d="M78.66,-277.6C92.64,-247 127.93,-178.26 178,-140 182.69,-136.42 187.86,-133.25 193.25,-130.46"/>
<polygon fill="#63b8ff" stroke="#63b8ff" points="194.93,-133.54 202.49,-126.11 191.95,-127.21 194.93,-133.54"/>
</a>
</g>
</g>
<!-- Node42 -->
<g id="Node000042" class="node">
<title>Node42</title>
<g id="a_Node000042"><a xlink:href="classLogonCommServerSocket.html#a92f34e5b9ae631d2cfaf37e9f95cdcf7" target="_top" xlink:title=" ">
<polygon fill="white" stroke="#666666" points="338,-404 184,-404 184,-374 338,-374 338,-404"/>
<text text-anchor="start" x="192" y="-392" font-family="Helvetica,sans-Serif" font-size="10.00">LogonCommServerSocket</text>
<text text-anchor="middle" x="261" y="-381" font-family="Helvetica,sans-Serif" font-size="10.00">::HandleRequestAllAccounts</text>
</a>
</g>
</g>
<!-- Node1&#45;&gt;Node42 -->
<g id="edge49_Node000001_Node000042" class="edge">
<title>Node1&#45;&gt;Node42</title>
<g id="a_edge49_Node000001_Node000042"><a xlink:title=" ">
<path fill="none" stroke="#63b8ff" d="M90.44,-308.18C110.78,-324.27 145,-349.44 178,-365 182.11,-366.94 186.41,-368.76 190.8,-370.46"/>
<polygon fill="#63b8ff" stroke="#63b8ff" points="189.91,-373.86 200.5,-373.99 192.3,-367.28 189.91,-373.86"/>
</a>
</g>
</g>
<!-- Node43 -->
<g id="Node000043" class="node">
<title>Node43</title>
<g id="a_Node000043"><a xlink:href="classLogonCommServerSocket.html#a1f39c3be4a35661cc81c64f759a36125" target="_top" xlink:title=" ">
<polygon fill="white" stroke="#666666" points="344,-308 178,-308 178,-278 344,-278 344,-308"/>
<text text-anchor="start" x="186" y="-296" font-family="Helvetica,sans-Serif" font-size="10.00">LogonCommServerSocket</text>
<text text-anchor="middle" x="261" y="-285" font-family="Helvetica,sans-Serif" font-size="10.00">::HandleRequestCheckAccount</text>
</a>
</g>
</g>
<!-- Node1&#45;&gt;Node43 -->
<g id="edge51_Node000001_Node000043" class="edge">
<title>Node1&#45;&gt;Node43</title>
<g id="a_edge51_Node000001_Node000043"><a xlink:title=" ">
<path fill="none" stroke="#63b8ff" d="M142,-293C150.41,-293 159.09,-293 167.74,-293"/>
<polygon fill="#63b8ff" stroke="#63b8ff" points="167.88,-296.5 177.88,-293 167.88,-289.5 167.88,-296.5"/>
</a>
</g>
</g>
<!-- Node44 -->
<g id="Node000044" class="node">
<title>Node44</title>
<g id="a_Node000044"><a xlink:href="classLogonCommServerSocket.html#a7047e5dfce016c561ae943bf75469326" target="_top" xlink:title=" ">
<polygon fill="white" stroke="#666666" points="332,-212 190,-212 190,-182 332,-182 332,-212"/>
<text text-anchor="start" x="198" y="-200" font-family="Helvetica,sans-Serif" font-size="10.00">LogonCommServerSocket</text>
<text text-anchor="middle" x="261" y="-189" font-family="Helvetica,sans-Serif" font-size="10.00">::HandleSessionRequest</text>
</a>
</g>
</g>
<!-- Node1&#45;&gt;Node44 -->
<g id="edge54_Node000001_Node000044" class="edge">
<title>Node1&#45;&gt;Node44</title>
<g id="a_edge54_Node000001_Node000044"><a xlink:title=" ">
<path fill="none" stroke="#63b8ff" d="M90.44,-277.82C110.78,-261.73 145,-236.56 178,-221 182.11,-219.06 186.41,-217.24 190.8,-215.54"/>
<polygon fill="#63b8ff" stroke="#63b8ff" points="192.3,-218.72 200.5,-212.01 189.91,-212.14 192.3,-218.72"/>
</a>
</g>
</g>
<!-- Node45 -->
<g id="Node000045" class="node">
<title>Node45</title>
<g id="a_Node000045"><a xlink:href="classLogonCommServerSocket.html#a12719c4c9a4dc94723bde8b28c9731b6" target="_top" xlink:title=" ">
<polygon fill="white" stroke="#666666" points="332,-356 190,-356 190,-326 332,-326 332,-356"/>
<text text-anchor="start" x="198" y="-344" font-family="Helvetica,sans-Serif" font-size="10.00">LogonCommServerSocket</text>
<text text-anchor="middle" x="261" y="-333" font-family="Helvetica,sans-Serif" font-size="10.00">::HandleTestConsoleLogin</text>
</a>
</g>
</g>
<!-- Node1&#45;&gt;Node45 -->
<g id="edge57_Node000001_Node000045" class="edge">
<title>Node1&#45;&gt;Node45</title>
<g id="a_edge57_Node000001_Node000045"><a xlink:title=" ">
<path fill="none" stroke="#63b8ff" d="M130.97,-308.06C150.13,-312.95 171.56,-318.42 191.36,-323.48"/>
<polygon fill="#63b8ff" stroke="#63b8ff" points="190.69,-326.91 201.24,-326 192.42,-320.13 190.69,-326.91"/>
</a>
</g>
</g>
<!-- Node46 -->
<g id="Node000046" class="node">
<title>Node46</title>
<g id="a_Node000046"><a xlink:href="classLogonCommServerSocket.html#a98d8a9e155a0282ec8ab39ce1ac55095" target="_top" xlink:title=" ">
<polygon fill="white" stroke="#666666" points="332,-30 190,-30 190,0 332,0 332,-30"/>
<text text-anchor="start" x="198" y="-18" font-family="Helvetica,sans-Serif" font-size="10.00">LogonCommServerSocket</text>
<text text-anchor="middle" x="261" y="-7" font-family="Helvetica,sans-Serif" font-size="10.00">::HandleUpdateMapping</text>
</a>
</g>
</g>
<!-- Node1&#45;&gt;Node46 -->
<g id="edge59_Node000001_Node000046" class="edge">
<title>Node1&#45;&gt;Node46</title>
<g id="a_edge59_Node000001_Node000046"><a xlink:title=" ">
<path fill="none" stroke="#63b8ff" d="M73.8,-277.83C79.8,-233.97 103.23,-105.92 178,-39 179.33,-37.81 180.72,-36.68 182.15,-35.6"/>
<polygon fill="#63b8ff" stroke="#63b8ff" points="184.3,-38.38 190.83,-30.04 180.52,-32.49 184.3,-38.38"/>
</a>
</g>
</g>
<!-- Node3 -->
<g id="Node000003" class="node">
<title>Node3</title>
<g id="a_Node000003"><a xlink:href="classSocket.html#a78e4136d373de810ec9ef5bd074fea2b" target="_top" xlink:title=" ">
<polygon fill="white" stroke="#666666" points="494.5,-721.5 407.5,-721.5 407.5,-702.5 494.5,-702.5 494.5,-721.5"/>
<text text-anchor="middle" x="451" y="-709.5" font-family="Helvetica,sans-Serif" font-size="10.00">Socket::Delete</text>
</a>
</g>
</g>
<!-- Node2&#45;&gt;Node3 -->
<g id="edge2_Node000002_Node000003" class="edge">
<title>Node2&#45;&gt;Node3</title>
<g id="a_edge2_Node000002_Node000003"><a xlink:title=" ">
<path fill="none" stroke="#63b8ff" d="M315.62,-679.39C347.71,-684.71 387.56,-692.82 415.49,-699.84"/>
<polygon fill="#63b8ff" stroke="#63b8ff" points="414.65,-703.24 425.21,-702.37 416.42,-696.47 414.65,-703.24"/>
</a>
</g>
</g>
<!-- Node6 -->
<g id="Node000006" class="node">
<title>Node6</title>
<g id="a_Node000006"><a xlink:href="classSocket.html#a99b8cdcd955c1a403d8fae22cc8e0497" target="_top" xlink:title=" ">
<polygon fill="white" stroke="#666666" points="501.5,-684.5 400.5,-684.5 400.5,-665.5 501.5,-665.5 501.5,-684.5"/>
<text text-anchor="middle" x="451" y="-672.5" font-family="Helvetica,sans-Serif" font-size="10.00">Socket::IsDeleted</text>
</a>
</g>
</g>
<!-- Node2&#45;&gt;Node6 -->
<g id="edge6_Node000002_Node000006" class="edge">
<title>Node2&#45;&gt;Node6</title>
<g id="a_edge6_Node000002_Node000006"><a xlink:title=" ">
<path fill="none" stroke="#63b8ff" d="M315.62,-675C338.98,-675 366.45,-675 390.45,-675"/>
<polygon fill="#63b8ff" stroke="#63b8ff" points="390.49,-678.5 400.49,-675 390.49,-671.5 390.49,-678.5"/>
</a>
</g>
</g>
<!-- Node7 -->
<g id="Node000007" class="node">
<title>Node7</title>
<g id="a_Node000007"><a xlink:href="classSocket.html#aa92fcc39a258062f3a6501b388b6398b" target="_top" xlink:title=" ">
<polygon fill="white" stroke="#666666" points="512,-647.5 390,-647.5 390,-628.5 512,-628.5 512,-647.5"/>
<text text-anchor="middle" x="451" y="-635.5" font-family="Helvetica,sans-Serif" font-size="10.00">Socket::OnDisconnect</text>
</a>
</g>
</g>
<!-- Node2&#45;&gt;Node7 -->
<g id="edge7_Node000002_Node000007" class="edge">
<title>Node2&#45;&gt;Node7</title>
<g id="a_edge7_Node000002_Node000007"><a xlink:title=" ">
<path fill="none" stroke="#63b8ff" d="M310.41,-665.47C335.1,-660.61 365.32,-654.67 391.31,-649.55"/>
<polygon fill="#63b8ff" stroke="#63b8ff" points="392.29,-652.93 401.42,-647.56 390.94,-646.06 392.29,-652.93"/>
</a>
</g>
</g>
<!-- Node3&#45;&gt;Node2 -->
<g id="edge4_Node000003_Node000002" class="edge">
<title>Node3&#45;&gt;Node2</title>
<g id="a_edge4_Node000003_Node000002"><a xlink:title=" ">
<path fill="none" stroke="#63b8ff" d="M407.44,-709.38C373.93,-704.23 327.82,-695.02 296.57,-687.17"/>
<polygon fill="#63b8ff" stroke="#63b8ff" points="297.14,-683.7 286.58,-684.57 295.37,-690.48 297.14,-683.7"/>
</a>
</g>
</g>
<!-- Node4 -->
<g id="Node000004" class="node">
<title>Node4</title>
<g id="a_Node000004"><a xlink:href="namespaceSocketOps.html#adfff312a4c45581aa6313ef5c9a9e796" target="_top" xlink:title=" ">
<polygon fill="white" stroke="#666666" points="698.5,-739.5 565.5,-739.5 565.5,-720.5 698.5,-720.5 698.5,-739.5"/>
<text text-anchor="middle" x="632" y="-727.5" font-family="Helvetica,sans-Serif" font-size="10.00">SocketOps::CloseSocket</text>
</a>
</g>
</g>
<!-- Node3&#45;&gt;Node4 -->
<g id="edge3_Node000003_Node000004" class="edge">
<title>Node3&#45;&gt;Node4</title>
<g id="a_edge3_Node000003_Node000004"><a xlink:title=" ">
<path fill="none" stroke="#63b8ff" d="M494.87,-716.31C513.01,-718.13 534.68,-720.31 555.35,-722.39"/>
<polygon fill="#63b8ff" stroke="#63b8ff" points="555.09,-725.88 565.39,-723.4 555.79,-718.92 555.09,-725.88"/>
</a>
</g>
</g>
<!-- Node5 -->
<g id="Node000005" class="node">
<title>Node5</title>
<g id="a_Node000005"><a xlink:href="classSocket.html#ae3bcf72d932e7b29656d368e81186e6a" target="_top" xlink:title=" ">
<polygon fill="white" stroke="#666666" points="689.5,-702.5 574.5,-702.5 574.5,-683.5 689.5,-683.5 689.5,-702.5"/>
<text text-anchor="middle" x="632" y="-690.5" font-family="Helvetica,sans-Serif" font-size="10.00">Socket::IsConnected</text>
</a>
</g>
</g>
<!-- Node3&#45;&gt;Node5 -->
<g id="edge5_Node000003_Node000005" class="edge">
<title>Node3&#45;&gt;Node5</title>
<g id="a_edge5_Node000003_Node000005"><a xlink:title=" ">
<path fill="none" stroke="#63b8ff" d="M494.87,-707.45C515.6,-705.25 540.95,-702.56 564.13,-700.1"/>
<polygon fill="#63b8ff" stroke="#63b8ff" points="564.68,-703.56 574.25,-699.02 563.94,-696.6 564.68,-703.56"/>
</a>
</g>
</g>
<!-- Node10 -->
<g id="Node000010" class="node">
<title>Node10</title>
<g id="a_Node000010"><a xlink:href="classSha1Hash.html#a58df29b84c350667bd6e259bc980b31d" target="_top" xlink:title=" ">
<polygon fill="white" stroke="#666666" points="504.5,-449.5 397.5,-449.5 397.5,-430.5 504.5,-430.5 504.5,-449.5"/>
<text text-anchor="middle" x="451" y="-437.5" font-family="Helvetica,sans-Serif" font-size="10.00">Sha1Hash::finalize</text>
</a>
</g>
</g>
<!-- Node9&#45;&gt;Node10 -->
<g id="edge10_Node000009_Node000010" class="edge">
<title>Node9&#45;&gt;Node10</title>
<g id="a_edge10_Node000009_Node000010"><a xlink:title=" ">
<path fill="none" stroke="#63b8ff" d="M324.86,-469.95C349.41,-464.08 377.15,-457.44 400.27,-451.9"/>
<polygon fill="#63b8ff" stroke="#63b8ff" points="401.29,-455.26 410.2,-449.53 399.66,-448.45 401.29,-455.26"/>
</a>
</g>
</g>
<!-- Node11 -->
<g id="Node000011" class="node">
<title>Node11</title>
<g id="a_Node000011"><a xlink:href="classSha1Hash.html#a43dd315b96ef9918baf76a781c35c8ff" target="_top" xlink:title=" ">
<polygon fill="white" stroke="#666666" points="510.5,-412.5 391.5,-412.5 391.5,-393.5 510.5,-393.5 510.5,-412.5"/>
<text text-anchor="middle" x="451" y="-400.5" font-family="Helvetica,sans-Serif" font-size="10.00">Sha1Hash::getDigest</text>
</a>
</g>
</g>
<!-- Node9&#45;&gt;Node11 -->
<g id="edge11_Node000009_Node000011" class="edge">
<title>Node9&#45;&gt;Node11</title>
<g id="a_edge11_Node000009_Node000011"><a xlink:title=" ">
<path fill="none" stroke="#63b8ff" d="M326.15,-469.96C332.39,-467.41 338.45,-464.44 344,-461 364.05,-448.57 359.83,-434.23 380,-422 383.57,-419.83 387.4,-417.91 391.34,-416.2"/>
<polygon fill="#63b8ff" stroke="#63b8ff" points="392.65,-419.45 400.73,-412.59 390.14,-412.91 392.65,-419.45"/>
</a>
</g>
</g>
<!-- Node12 -->
<g id="Node000012" class="node">
<title>Node12</title>
<g id="a_Node000012"><a xlink:href="classSocket.html#a88867f665b015f46723dcde56b8e743c" target="_top" xlink:title=" ">
<polygon fill="white" stroke="#666666" points="510.5,-375.5 391.5,-375.5 391.5,-356.5 510.5,-356.5 510.5,-375.5"/>
<text text-anchor="middle" x="451" y="-363.5" font-family="Helvetica,sans-Serif" font-size="10.00">Socket::GetRemoteIP</text>
</a>
</g>
</g>
<!-- Node9&#45;&gt;Node12 -->
<g id="edge12_Node000009_Node000012" class="edge">
<title>Node9&#45;&gt;Node12</title>
<g id="a_edge12_Node000009_Node000012"><a xlink:title=" ">
<path fill="none" stroke="#63b8ff" d="M330.59,-469.97C335.4,-467.43 339.94,-464.47 344,-461 372.43,-436.73 351.34,-408.98 380,-385 382.03,-383.3 384.19,-381.76 386.46,-380.35"/>
<polygon fill="#63b8ff" stroke="#63b8ff" points="388.39,-383.29 395.64,-375.56 385.16,-377.08 388.39,-383.29"/>
</a>
</g>
</g>
<!-- Node13 -->
<g id="Node000013" class="node">
<title>Node13</title>
<g id="a_Node000013"><a xlink:href="classByteBuffer.html#afab3484e1af821859f16b7bdacf2af9c" target="_top" xlink:title=" ">
<polygon fill="white" stroke="#666666" points="499,-523.5 403,-523.5 403,-504.5 499,-504.5 499,-523.5"/>
<text text-anchor="middle" x="451" y="-511.5" font-family="Helvetica,sans-Serif" font-size="10.00">ByteBuffer::read</text>
</a>
</g>
</g>
<!-- Node9&#45;&gt;Node13 -->
<g id="edge13_Node000009_Node000013" class="edge">
<title>Node9&#45;&gt;Node13</title>
<g id="a_edge13_Node000009_Node000013"><a xlink:title=" ">
<path fill="none" stroke="#63b8ff" d="M332,-495.8C352,-498.88 373.56,-502.21 392.7,-505.16"/>
<polygon fill="#63b8ff" stroke="#63b8ff" points="392.35,-508.65 402.76,-506.71 393.41,-501.73 392.35,-508.65"/>
</a>
</g>
</g>
<!-- Node14 -->
<g id="Node000014" class="node">
<title>Node14</title>
<g id="a_Node000014"><a xlink:href="classLogonCommServerSocket.html#ad66eb9e53d251e98c35d599127e25dc3" target="_top" xlink:title=" ">
<polygon fill="white" stroke="#666666" points="522,-338 380,-338 380,-308 522,-308 522,-338"/>
<text text-anchor="start" x="388" y="-326" font-family="Helvetica,sans-Serif" font-size="10.00">LogonCommServerSocket</text>
<text text-anchor="middle" x="451" y="-315" font-family="Helvetica,sans-Serif" font-size="10.00">::SendPacket</text>
</a>
</g>
</g>
<!-- Node9&#45;&gt;Node14 -->
<g id="edge14_Node000009_Node000014" class="edge">
<title>Node9&#45;&gt;Node14</title>
<g id="a_edge14_Node000009_Node000014"><a xlink:title=" ">
<path fill="none" stroke="#63b8ff" d="M332.29,-469.88C336.54,-467.36 340.5,-464.42 344,-461 381.71,-424.17 343.38,-385.91 380,-348 381.41,-346.54 382.92,-345.16 384.49,-343.87"/>
<polygon fill="#63b8ff" stroke="#63b8ff" points="386.7,-346.6 392.93,-338.03 382.71,-340.84 386.7,-346.6"/>
</a>
</g>
</g>
<!-- Node29 -->
<g id="Node000029" class="node">
<title>Node29</title>
<g id="a_Node000029"><a xlink:href="classAscEmu_1_1RC4Engine.html#aeebafca4068bf8a987c27a12488372ab" target="_top" xlink:title=" ">
<polygon fill="white" stroke="#666666" points="511,-572 391,-572 391,-542 511,-542 511,-572"/>
<text text-anchor="start" x="399" y="-560" font-family="Helvetica,sans-Serif" font-size="10.00">AscEmu::RC4Engine::</text>
<text text-anchor="middle" x="451" y="-549" font-family="Helvetica,sans-Serif" font-size="10.00">setup</text>
</a>
</g>
</g>
<!-- Node9&#45;&gt;Node29 -->
<g id="edge30_Node000009_Node000029" class="edge">
<title>Node9&#45;&gt;Node29</title>
<g id="a_edge30_Node000009_Node000029"><a xlink:title=" ">
<path fill="none" stroke="#63b8ff" d="M297.43,-500.02C320.75,-509.75 352.04,-522.53 380,-533 384.84,-534.81 389.88,-536.65 394.95,-538.45"/>
<polygon fill="#63b8ff" stroke="#63b8ff" points="394.09,-541.86 404.68,-541.88 396.41,-535.26 394.09,-541.86"/>
</a>
</g>
</g>
<!-- Node31 -->
<g id="Node000031" class="node">
<title>Node31</title>
<g id="a_Node000031"><a xlink:href="classSha1Hash.html#a9e2a36395afa3a5b119712cc8fa85fb2" target="_top" xlink:title=" ">
<polygon fill="white" stroke="#666666" points="515,-486.5 387,-486.5 387,-467.5 515,-467.5 515,-486.5"/>
<text text-anchor="middle" x="451" y="-474.5" font-family="Helvetica,sans-Serif" font-size="10.00">Sha1Hash::updateData</text>
</a>
</g>
</g>
<!-- Node9&#45;&gt;Node31 -->
<g id="edge32_Node000009_Node000031" class="edge">
<title>Node9&#45;&gt;Node31</title>
<g id="a_edge32_Node000009_Node000031"><a xlink:title=" ">
<path fill="none" stroke="#63b8ff" d="M332,-482.02C346.59,-481.4 362.01,-480.74 376.71,-480.12"/>
<polygon fill="#63b8ff" stroke="#63b8ff" points="376.92,-483.61 386.76,-479.69 376.62,-476.62 376.92,-483.61"/>
</a>
</g>
</g>
<!-- Node14&#45;&gt;Node8 -->
<g id="edge26_Node000014_Node000008" class="edge">
<title>Node14&#45;&gt;Node8</title>
<g id="a_edge26_Node000014_Node000008"><a xlink:title=" ">
<path fill="none" stroke="#63b8ff" d="M509.54,-338.11C514.13,-340.87 518.39,-344.14 522,-348 562.08,-390.85 519.45,-430.77 558,-475 564.89,-482.9 574.1,-488.93 583.65,-493.5"/>
<polygon fill="#63b8ff" stroke="#63b8ff" points="582.27,-496.72 592.84,-497.45 585.04,-490.29 582.27,-496.72"/>
</a>
</g>
</g>
<!-- Node15 -->
<g id="Node000015" class="node">
<title>Node15</title>
<g id="a_Node000015"><a xlink:href="classSocket.html#a30c157060cbfc3378e76ed4862b7ef7e" target="_top" xlink:title=" ">
<polygon fill="white" stroke="#666666" points="686,-268.5 578,-268.5 578,-249.5 686,-249.5 686,-268.5"/>
<text text-anchor="middle" x="632" y="-256.5" font-family="Helvetica,sans-Serif" font-size="10.00">Socket::BurstBegin</text>
</a>
</g>
</g>
<!-- Node14&#45;&gt;Node15 -->
<g id="edge15_Node000014_Node000015" class="edge">
<title>Node14&#45;&gt;Node15</title>
<g id="a_edge15_Node000014_Node000015"><a xlink:title=" ">
<path fill="none" stroke="#63b8ff" d="M484,-307.96C504.78,-298.56 532.64,-286.63 558,-278 565.15,-275.56 572.79,-273.26 580.33,-271.16"/>
<polygon fill="#63b8ff" stroke="#63b8ff" points="581.4,-274.49 590.14,-268.51 579.58,-267.74 581.4,-274.49"/>
</a>
</g>
</g>
<!-- Node16 -->
<g id="Node000016" class="node">
<title>Node16</title>
<g id="a_Node000016"><a xlink:href="classSocket.html#a980625f7b1a7649772a83cc3784e746a" target="_top" xlink:title=" ">
<polygon fill="white" stroke="#666666" points="681,-465.5 583,-465.5 583,-446.5 681,-446.5 681,-465.5"/>
<text text-anchor="middle" x="632" y="-453.5" font-family="Helvetica,sans-Serif" font-size="10.00">Socket::BurstEnd</text>
</a>
</g>
</g>
<!-- Node14&#45;&gt;Node16 -->
<g id="edge16_Node000014_Node000016" class="edge">
<title>Node14&#45;&gt;Node16</title>
<g id="a_edge16_Node000014_Node000016"><a xlink:title=" ">
<path fill="none" stroke="#63b8ff" d="M508.44,-338.13C513.37,-340.89 518,-344.15 522,-348 553.03,-377.89 525.5,-409.72 558,-438 562.48,-441.9 567.67,-444.98 573.18,-447.41"/>
<polygon fill="#63b8ff" stroke="#63b8ff" points="572.09,-450.74 582.68,-450.92 574.52,-444.17 572.09,-450.74"/>
</a>
</g>
</g>
<!-- Node17 -->
<g id="Node000017" class="node">
<title>Node17</title>
<g id="a_Node000017"><a xlink:href="classSocket.html#af9a48d047977de02421cb02d418ebd09" target="_top" xlink:title=" ">
<polygon fill="white" stroke="#666666" points="684,-428.5 580,-428.5 580,-409.5 684,-409.5 684,-428.5"/>
<text text-anchor="middle" x="632" y="-416.5" font-family="Helvetica,sans-Serif" font-size="10.00">Socket::BurstPush</text>
</a>
</g>
</g>
<!-- Node14&#45;&gt;Node17 -->
<g id="edge17_Node000014_Node000017" class="edge">
<title>Node14&#45;&gt;Node17</title>
<g id="a_edge17_Node000014_Node000017"><a xlink:title=" ">
<path fill="none" stroke="#63b8ff" d="M505.48,-338.01C511.35,-340.83 517,-344.13 522,-348 544.52,-365.43 534.63,-384.74 558,-401 561.78,-403.63 565.9,-405.88 570.2,-407.8"/>
<polygon fill="#63b8ff" stroke="#63b8ff" points="569.25,-411.18 579.84,-411.5 571.76,-404.64 569.25,-411.18"/>
</a>
</g>
</g>
<!-- Node18 -->
<g id="Node000018" class="node">
<title>Node18</title>
<g id="a_Node000018"><a xlink:href="classSocket.html#ac3b5df1c7c92b0ddc953849c8c216921" target="_top" xlink:title=" ">
<polygon fill="white" stroke="#666666" points="684,-391.5 580,-391.5 580,-372.5 684,-372.5 684,-391.5"/>
<text text-anchor="middle" x="632" y="-379.5" font-family="Helvetica,sans-Serif" font-size="10.00">Socket::BurstSend</text>
</a>
</g>
</g>
<!-- Node14&#45;&gt;Node18 -->
<g id="edge18_Node000014_Node000018" class="edge">
<title>Node14&#45;&gt;Node18</title>
<g id="a_edge18_Node000014_Node000018"><a xlink:title=" ">
<path fill="none" stroke="#63b8ff" d="M495.88,-338.1C504.58,-341.25 513.61,-344.64 522,-348 538.26,-354.5 541.44,-358.33 558,-364 564.08,-366.08 570.52,-368.03 576.95,-369.81"/>
<polygon fill="#63b8ff" stroke="#63b8ff" points="576.45,-373.3 587.02,-372.49 578.25,-366.54 576.45,-373.3"/>
</a>
</g>
</g>
<!-- Node24 -->
<g id="Node000024" class="node">
<title>Node24</title>
<g id="a_Node000024"><a xlink:href="LogonCommDefines_8h.html#ad14a63939e559215fdf61dc7d1fa8b75" target="_top" xlink:title=" ">
<polygon fill="white" stroke="#666666" points="680.5,-354.5 583.5,-354.5 583.5,-335.5 680.5,-335.5 680.5,-354.5"/>
<text text-anchor="middle" x="632" y="-342.5" font-family="Helvetica,sans-Serif" font-size="10.00">byteSwapUInt32</text>
</a>
</g>
</g>
<!-- Node14&#45;&gt;Node24 -->
<g id="edge24_Node000014_Node000024" class="edge">
<title>Node14&#45;&gt;Node24</title>
<g id="a_edge24_Node000014_Node000024"><a xlink:title=" ">
<path fill="none" stroke="#63b8ff" d="M522.23,-331.63C539.02,-333.7 556.77,-335.88 572.94,-337.86"/>
<polygon fill="#63b8ff" stroke="#63b8ff" points="572.96,-341.39 583.32,-339.14 573.82,-334.45 572.96,-341.39"/>
</a>
</g>
</g>
<!-- Node25 -->
<g id="Node000025" class="node">
<title>Node25</title>
<g id="a_Node000025"><a xlink:href="classByteBuffer.html#a8d712af2767c7ca45de60bd9d85738d8" target="_top" xlink:title=" ">
<polygon fill="white" stroke="#666666" points="690,-231.5 574,-231.5 574,-212.5 690,-212.5 690,-231.5"/>
<text text-anchor="middle" x="632" y="-219.5" font-family="Helvetica,sans-Serif" font-size="10.00">ByteBuffer::contents</text>
</a>
</g>
</g>
<!-- Node14&#45;&gt;Node25 -->
<g id="edge25_Node000014_Node000025" class="edge">
<title>Node14&#45;&gt;Node25</title>
<g id="a_edge25_Node000014_Node000025"><a xlink:title=" ">
<path fill="none" stroke="#63b8ff" d="M484.99,-307.9C497.27,-301.46 510.9,-293.28 522,-284 541.38,-267.79 536.64,-253.49 558,-240 560.62,-238.35 563.38,-236.84 566.23,-235.48"/>
<polygon fill="#63b8ff" stroke="#63b8ff" points="567.72,-238.65 575.61,-231.57 565.03,-232.19 567.72,-238.65"/>
</a>
</g>
</g>
<!-- Node26 -->
<g id="Node000026" class="node">
<title>Node26</title>
<g id="a_Node000026"><a xlink:href="classAscEmu_1_1RC4Engine.html#a68e9ff43cd84b7450067a60cb3ef57c0" target="_top" xlink:title=" ">
<polygon fill="white" stroke="#666666" points="692,-317 572,-317 572,-287 692,-287 692,-317"/>
<text text-anchor="start" x="580" y="-305" font-family="Helvetica,sans-Serif" font-size="10.00">AscEmu::RC4Engine::</text>
<text text-anchor="middle" x="632" y="-294" font-family="Helvetica,sans-Serif" font-size="10.00">process</text>
</a>
</g>
</g>
<!-- Node14&#45;&gt;Node26 -->
<g id="edge27_Node000014_Node000026" class="edge">
<title>Node14&#45;&gt;Node26</title>
<g id="a_edge27_Node000014_Node000026"><a xlink:title=" ">
<path fill="none" stroke="#63b8ff" d="M522.23,-314.76C535.22,-313.24 548.77,-311.65 561.72,-310.13"/>
<polygon fill="#63b8ff" stroke="#63b8ff" points="562.44,-313.57 571.96,-308.93 561.62,-306.62 562.44,-313.57"/>
</a>
</g>
</g>
<!-- Node28 -->
<g id="Node000028" class="node">
<title>Node28</title>
<g id="a_Node000028"><a xlink:href="classByteBuffer.html#ac06a598447807d32f6594a97a32bce94" target="_top" xlink:title=" ">
<polygon fill="white" stroke="#666666" points="679,-194.5 585,-194.5 585,-175.5 679,-175.5 679,-194.5"/>
<text text-anchor="middle" x="632" y="-182.5" font-family="Helvetica,sans-Serif" font-size="10.00">ByteBuffer::size</text>
</a>
</g>
</g>
<!-- Node14&#45;&gt;Node28 -->
<g id="edge29_Node000014_Node000028" class="edge">
<title>Node14&#45;&gt;Node28</title>
<g id="a_edge29_Node000014_Node000028"><a xlink:title=" ">
<path fill="none" stroke="#63b8ff" d="M489.29,-307.89C500.9,-301.81 512.99,-293.86 522,-284 548.57,-254.92 527.8,-228.29 558,-203 562.99,-198.82 568.81,-195.59 574.94,-193.09"/>
<polygon fill="#63b8ff" stroke="#63b8ff" points="576.43,-196.28 584.76,-189.74 574.17,-189.65 576.43,-196.28"/>
</a>
</g>
</g>
<!-- Node19 -->
<g id="Node000019" class="node">
<title>Node19</title>
<g id="a_Node000019"><a xlink:href="classCircularBuffer.html#a200a74ba910181da4520d2862d1d9ac2" target="_top" xlink:title=" ">
<polygon fill="white" stroke="#666666" points="874,-391.5 758,-391.5 758,-372.5 874,-372.5 874,-391.5"/>
<text text-anchor="middle" x="816" y="-379.5" font-family="Helvetica,sans-Serif" font-size="10.00">CircularBuffer::Write</text>
</a>
</g>
</g>
<!-- Node18&#45;&gt;Node19 -->
<g id="edge19_Node000018_Node000019" class="edge">
<title>Node18&#45;&gt;Node19</title>
<g id="a_edge19_Node000018_Node000019"><a xlink:title=" ">
<path fill="none" stroke="#63b8ff" d="M684.18,-382C703.88,-382 726.68,-382 747.67,-382"/>
<polygon fill="#63b8ff" stroke="#63b8ff" points="747.81,-385.5 757.81,-382 747.81,-378.5 747.81,-385.5"/>
</a>
</g>
</g>
<!-- Node20 -->
<g id="Node000020" class="node">
<title>Node20</title>
<g id="a_Node000020"><a xlink:href="classCircularBuffer.html#a1a7b35478fc3aa45bd523c7e370be558" target="_top" xlink:title=" ">
<polygon fill="white" stroke="#666666" points="1062,-458.5 926,-458.5 926,-439.5 1062,-439.5 1062,-458.5"/>
<text text-anchor="middle" x="994" y="-446.5" font-family="Helvetica,sans-Serif" font-size="10.00">CircularBuffer::AllocateB</text>
</a>
</g>
</g>
<!-- Node19&#45;&gt;Node20 -->
<g id="edge20_Node000019_Node000020" class="edge">
<title>Node19&#45;&gt;Node20</title>
<g id="a_edge20_Node000019_Node000020"><a xlink:title=" ">
<path fill="none" stroke="#63b8ff" d="M836.36,-391.5C857.9,-401.84 893.9,-418.44 926,-430 932.42,-432.31 939.27,-434.53 946.04,-436.58"/>
<polygon fill="#63b8ff" stroke="#63b8ff" points="945.27,-440 955.85,-439.45 947.24,-433.28 945.27,-440"/>
</a>
</g>
</g>
<!-- Node21 -->
<g id="Node000021" class="node">
<title>Node21</title>
<g id="a_Node000021"><a xlink:href="classCircularBuffer.html#a6ee48e9ae9b0b1d14ecfb3303b4a3258" target="_top" xlink:title=" ">
<polygon fill="white" stroke="#666666" points="1061,-421 927,-421 927,-391 1061,-391 1061,-421"/>
<text text-anchor="start" x="935" y="-409" font-family="Helvetica,sans-Serif" font-size="10.00">CircularBuffer::GetAFree</text>
<text text-anchor="middle" x="994" y="-398" font-family="Helvetica,sans-Serif" font-size="10.00">Space</text>
</a>
</g>
</g>
<!-- Node19&#45;&gt;Node21 -->
<g id="edge21_Node000019_Node000021" class="edge">
<title>Node19&#45;&gt;Node21</title>
<g id="a_edge21_Node000019_Node000021"><a xlink:title=" ">
<path fill="none" stroke="#63b8ff" d="M874.14,-389.79C887.71,-391.64 902.4,-393.65 916.67,-395.59"/>
<polygon fill="#63b8ff" stroke="#63b8ff" points="916.59,-399.11 926.97,-397 917.54,-392.18 916.59,-399.11"/>
</a>
</g>
</g>
<!-- Node22 -->
<g id="Node000022" class="node">
<title>Node22</title>
<g id="a_Node000022"><a xlink:href="classCircularBuffer.html#a9773ab7c19eb952a4b8fa151dffee1a3" target="_top" xlink:title=" ">
<polygon fill="white" stroke="#666666" points="1061,-373 927,-373 927,-343 1061,-343 1061,-373"/>
<text text-anchor="start" x="935" y="-361" font-family="Helvetica,sans-Serif" font-size="10.00">CircularBuffer::GetBFree</text>
<text text-anchor="middle" x="994" y="-350" font-family="Helvetica,sans-Serif" font-size="10.00">Space</text>
</a>
</g>
</g>
<!-- Node19&#45;&gt;Node22 -->
<g id="edge22_Node000019_Node000022" class="edge">
<title>Node19&#45;&gt;Node22</title>
<g id="a_edge22_Node000019_Node000022"><a xlink:title=" ">
<path fill="none" stroke="#63b8ff" d="M874.14,-374.21C887.71,-372.36 902.4,-370.35 916.67,-368.41"/>
<polygon fill="#63b8ff" stroke="#63b8ff" points="917.54,-371.82 926.97,-367 916.59,-364.89 917.54,-371.82"/>
</a>
</g>
</g>
<!-- Node23 -->
<g id="Node000023" class="node">
<title>Node23</title>
<g id="a_Node000023"><a xlink:href="classCircularBuffer.html#a6cd3e6603e9fe5dbd936e3caf7502066" target="_top" xlink:title=" ">
<polygon fill="white" stroke="#666666" points="1062,-325 926,-325 926,-295 1062,-295 1062,-325"/>
<text text-anchor="start" x="934" y="-313" font-family="Helvetica,sans-Serif" font-size="10.00">CircularBuffer::GetSpace</text>
<text text-anchor="middle" x="994" y="-302" font-family="Helvetica,sans-Serif" font-size="10.00">BeforeA</text>
</a>
</g>
</g>
<!-- Node19&#45;&gt;Node23 -->
<g id="edge23_Node000019_Node000023" class="edge">
<title>Node19&#45;&gt;Node23</title>
<g id="a_edge23_Node000019_Node000023"><a xlink:title=" ">
<path fill="none" stroke="#63b8ff" d="M837.71,-372.36C859.5,-362.33 894.88,-346.41 926,-334 930.5,-332.21 935.19,-330.4 939.91,-328.63"/>
<polygon fill="#63b8ff" stroke="#63b8ff" points="941.42,-331.8 949.58,-325.05 938.99,-325.23 941.42,-331.8"/>
</a>
</g>
</g>
<!-- Node27 -->
<g id="Node000027" class="node">
<title>Node27</title>
<g id="a_Node000027"><a xlink:href="classAscEmu_1_1RC4StreamCipher.html#a54effc8cbd278c0d6edc71d48528c37d" target="_top" xlink:title=" ">
<polygon fill="white" stroke="#666666" points="890,-317 742,-317 742,-287 890,-287 890,-317"/>
<text text-anchor="start" x="750" y="-305" font-family="Helvetica,sans-Serif" font-size="10.00">AscEmu::RC4StreamCipher</text>
<text text-anchor="middle" x="816" y="-294" font-family="Helvetica,sans-Serif" font-size="10.00">::process</text>
</a>
</g>
</g>
<!-- Node26&#45;&gt;Node27 -->
<g id="edge28_Node000026_Node000027" class="edge">
<title>Node26&#45;&gt;Node27</title>
<g id="a_edge28_Node000026_Node000027"><a xlink:title=" ">
<path fill="none" stroke="#63b8ff" d="M692.09,-302C704.75,-302 718.34,-302 731.72,-302"/>
<polygon fill="#63b8ff" stroke="#63b8ff" points="731.88,-305.5 741.88,-302 731.88,-298.5 731.88,-305.5"/>
</a>
</g>
</g>
<!-- Node30 -->
<g id="Node000030" class="node">
<title>Node30</title>
<g id="a_Node000030"><a xlink:href="classAscEmu_1_1RC4StreamCipher.html#a963beaa7541c836ba7e0b669a182242d" target="_top" xlink:title=" ">
<polygon fill="white" stroke="#666666" points="706,-572 558,-572 558,-542 706,-542 706,-572"/>
<text text-anchor="start" x="566" y="-560" font-family="Helvetica,sans-Serif" font-size="10.00">AscEmu::RC4StreamCipher</text>
<text text-anchor="middle" x="632" y="-549" font-family="Helvetica,sans-Serif" font-size="10.00">::setKey</text>
</a>
</g>
</g>
<!-- Node29&#45;&gt;Node30 -->
<g id="edge31_Node000029_Node000030" class="edge">
<title>Node29&#45;&gt;Node30</title>
<g id="a_edge31_Node000029_Node000030"><a xlink:title=" ">
<path fill="none" stroke="#63b8ff" d="M511.11,-557C522.8,-557 535.28,-557 547.61,-557"/>
<polygon fill="#63b8ff" stroke="#63b8ff" points="547.9,-560.5 557.9,-557 547.9,-553.5 547.9,-560.5"/>
</a>
</g>
</g>
<!-- Node32&#45;&gt;Node14 -->
<g id="edge35_Node000032_Node000014" class="edge">
<title>Node32&#45;&gt;Node14</title>
<g id="a_edge35_Node000032_Node000014"><a xlink:title=" ">
<path fill="none" stroke="#63b8ff" d="M318.49,-260.03C327.13,-262.75 335.87,-265.77 344,-269 368.3,-278.65 394.49,-291.96 414.76,-302.96"/>
<polygon fill="#63b8ff" stroke="#63b8ff" points="413.18,-306.08 423.63,-307.82 416.55,-299.94 413.18,-306.08"/>
</a>
</g>
</g>
<!-- Node33 -->
<g id="Node000033" class="node">
<title>Node33</title>
<g id="a_Node000033"><a xlink:href="classByteBuffer.html#a5811e6da355e8c3d0f45997a557a666b" target="_top" xlink:title=" ">
<polygon fill="white" stroke="#666666" points="506,-216.5 396,-216.5 396,-197.5 506,-197.5 506,-216.5"/>
<text text-anchor="middle" x="451" y="-204.5" font-family="Helvetica,sans-Serif" font-size="10.00">ByteBuffer::append</text>
</a>
</g>
</g>
<!-- Node32&#45;&gt;Node33 -->
<g id="edge34_Node000032_Node000033" class="edge">
<title>Node32&#45;&gt;Node33</title>
<g id="a_edge34_Node000032_Node000033"><a xlink:title=" ">
<path fill="none" stroke="#63b8ff" d="M332,-230.85C352,-226.81 373.56,-222.45 392.7,-218.58"/>
<polygon fill="#63b8ff" stroke="#63b8ff" points="393.66,-221.96 402.76,-216.55 392.27,-215.1 393.66,-221.96"/>
</a>
</g>
</g>
<!-- Node34 -->
<g id="Node000034" class="node">
<title>Node34</title>
<g id="a_Node000034"><a xlink:href="namespaceAscEmu_1_1Util_1_1Strings.html#a712a85e2a9305864d3897d34109284d4" target="_top" xlink:title="Manipulates the string to uppercase.">
<polygon fill="white" stroke="#666666" points="510.5,-275 391.5,-275 391.5,-245 510.5,-245 510.5,-275"/>
<text text-anchor="start" x="399.5" y="-263" font-family="Helvetica,sans-Serif" font-size="10.00">AscEmu::Util::Strings</text>
<text text-anchor="middle" x="451" y="-252" font-family="Helvetica,sans-Serif" font-size="10.00">::toUpperCase</text>
</a>
</g>
</g>
<!-- Node32&#45;&gt;Node34 -->
<g id="edge36_Node000032_Node000034" class="edge">
<title>Node32&#45;&gt;Node34</title>
<g id="a_edge36_Node000032_Node000034"><a xlink:title=" ">
<path fill="none" stroke="#63b8ff" d="M332,-250.59C348.02,-251.86 365.03,-253.22 381,-254.49"/>
<polygon fill="#63b8ff" stroke="#63b8ff" points="381.08,-258.01 391.33,-255.32 381.64,-251.03 381.08,-258.01"/>
</a>
</g>
</g>
<!-- Node35&#45;&gt;Node25 -->
<g id="edge39_Node000035_Node000025" class="edge">
<title>Node35&#45;&gt;Node25</title>
<g id="a_edge39_Node000035_Node000025"><a xlink:title=" ">
<path fill="none" stroke="#63b8ff" d="M483.09,-169.12C508.84,-181.51 543.49,-197.81 558,-203 564.78,-205.43 572.02,-207.69 579.2,-209.74"/>
<polygon fill="#63b8ff" stroke="#63b8ff" points="578.35,-213.14 588.92,-212.41 580.2,-206.39 578.35,-213.14"/>
</a>
</g>
</g>
<!-- Node35&#45;&gt;Node28 -->
<g id="edge41_Node000035_Node000028" class="edge">
<title>Node35&#45;&gt;Node28</title>
<g id="a_edge41_Node000035_Node000028"><a xlink:title=" ">
<path fill="none" stroke="#63b8ff" d="M522.23,-166.16C539.67,-169.18 558.13,-172.38 574.8,-175.27"/>
<polygon fill="#63b8ff" stroke="#63b8ff" points="574.47,-178.76 584.92,-177.02 575.66,-171.86 574.47,-178.76"/>
</a>
</g>
</g>
<!-- Node36 -->
<g id="Node000036" class="node">
<title>Node36</title>
<g id="a_Node000036"><a xlink:href="classByteBuffer.html#ab9fbbcf0abe4049e2016c1262795c97e" target="_top" xlink:title=" ">
<polygon fill="white" stroke="#666666" points="681,-120.5 583,-120.5 583,-101.5 681,-101.5 681,-120.5"/>
<text text-anchor="middle" x="632" y="-108.5" font-family="Helvetica,sans-Serif" font-size="10.00">ByteBuffer::clear</text>
</a>
</g>
</g>
<!-- Node35&#45;&gt;Node36 -->
<g id="edge38_Node000035_Node000036" class="edge">
<title>Node35&#45;&gt;Node36</title>
<g id="a_edge38_Node000035_Node000036"><a xlink:title=" ">
<path fill="none" stroke="#63b8ff" d="M514.61,-138.96C536.53,-133.7 560.82,-127.86 581.52,-122.89"/>
<polygon fill="#63b8ff" stroke="#63b8ff" points="582.46,-126.26 591.36,-120.52 580.82,-119.45 582.46,-126.26"/>
</a>
</g>
</g>
<!-- Node37 -->
<g id="Node000037" class="node">
<title>Node37</title>
<g id="a_Node000037"><a xlink:href="classByteBuffer.html#a4062fd07fb3de1b099c21fe98e73751c" target="_top" xlink:title=" ">
<polygon fill="white" stroke="#666666" points="684,-157.5 580,-157.5 580,-138.5 684,-138.5 684,-157.5"/>
<text text-anchor="middle" x="632" y="-145.5" font-family="Helvetica,sans-Serif" font-size="10.00">ByteBuffer::resize</text>
</a>
</g>
</g>
<!-- Node35&#45;&gt;Node37 -->
<g id="edge40_Node000035_Node000037" class="edge">
<title>Node35&#45;&gt;Node37</title>
<g id="a_edge40_Node000035_Node000037"><a xlink:title=" ">
<path fill="none" stroke="#63b8ff" d="M522.23,-151.65C537.83,-151.12 554.25,-150.57 569.47,-150.06"/>
<polygon fill="#63b8ff" stroke="#63b8ff" points="569.91,-153.55 579.78,-149.72 569.67,-146.55 569.91,-153.55"/>
</a>
</g>
</g>
<!-- Node38&#45;&gt;Node14 -->
<g id="edge43_Node000038_Node000014" class="edge">
<title>Node38&#45;&gt;Node14</title>
<g id="a_edge43_Node000038_Node000014"><a xlink:title=" ">
<path fill="none" stroke="#63b8ff" d="M329.95,-421.89C334.96,-419.37 339.71,-416.43 344,-413 369.78,-392.37 354.83,-369.38 380,-348 381.98,-346.32 384.08,-344.75 386.27,-343.28"/>
<polygon fill="#63b8ff" stroke="#63b8ff" points="388.24,-346.18 395.1,-338.11 384.7,-340.14 388.24,-346.18"/>
</a>
</g>
</g>
<!-- Node40&#45;&gt;Node14 -->
<g id="edge48_Node000040_Node000014" class="edge">
<title>Node40&#45;&gt;Node14</title>
<g id="a_edge48_Node000040_Node000014"><a xlink:title=" ">
<path fill="none" stroke="#63b8ff" d="M289.88,-126.06C307.66,-136.96 329.93,-153.22 344,-173 374.07,-215.26 347.07,-243.94 380,-284 386.1,-291.42 394,-297.67 402.28,-302.85"/>
<polygon fill="#63b8ff" stroke="#63b8ff" points="400.58,-305.91 410.99,-307.86 404.07,-299.84 400.58,-305.91"/>
</a>
</g>
</g>
<!-- Node41 -->
<g id="Node000041" class="node">
<title>Node41</title>
<g id="a_Node000041"><a xlink:href="classWorldPacket.html#ac08ded00d1a72d7835a73d0283f9a910" target="_top" xlink:title=" ">
<polygon fill="white" stroke="#666666" points="513,-120.5 389,-120.5 389,-101.5 513,-101.5 513,-120.5"/>
<text text-anchor="middle" x="451" y="-108.5" font-family="Helvetica,sans-Serif" font-size="10.00">WorldPacket::Initialize</text>
</a>
</g>
</g>
<!-- Node40&#45;&gt;Node41 -->
<g id="edge46_Node000040_Node000041" class="edge">
<title>Node40&#45;&gt;Node41</title>
<g id="a_edge46_Node000040_Node000041"><a xlink:title=" ">
<path fill="none" stroke="#63b8ff" d="M332,-111C347.19,-111 363.27,-111 378.51,-111"/>
<polygon fill="#63b8ff" stroke="#63b8ff" points="378.9,-114.5 388.9,-111 378.9,-107.5 378.9,-114.5"/>
</a>
</g>
</g>
<!-- Node41&#45;&gt;Node36 -->
<g id="edge47_Node000041_Node000036" class="edge">
<title>Node41&#45;&gt;Node36</title>
<g id="a_edge47_Node000041_Node000036"><a xlink:title=" ">
<path fill="none" stroke="#63b8ff" d="M513.1,-111C532.42,-111 553.7,-111 572.81,-111"/>
<polygon fill="#63b8ff" stroke="#63b8ff" points="572.88,-114.5 582.88,-111 572.88,-107.5 572.88,-114.5"/>
</a>
</g>
</g>
<!-- Node42&#45;&gt;Node14 -->
<g id="edge50_Node000042_Node000014" class="edge">
<title>Node42&#45;&gt;Node14</title>
<g id="a_edge50_Node000042_Node000014"><a xlink:title=" ">
<path fill="none" stroke="#63b8ff" d="M317.97,-373.89C326.76,-371.16 335.68,-368.16 344,-365 360.54,-358.72 363.65,-354.76 380,-348 385.14,-345.87 390.54,-343.75 395.96,-341.7"/>
<polygon fill="#63b8ff" stroke="#63b8ff" points="397.53,-344.85 405.69,-338.08 395.09,-338.29 397.53,-344.85"/>
</a>
</g>
</g>
<!-- Node43&#45;&gt;Node14 -->
<g id="edge52_Node000043_Node000014" class="edge">
<title>Node43&#45;&gt;Node14</title>
<g id="a_edge52_Node000043_Node000014"><a xlink:title=" ">
<path fill="none" stroke="#63b8ff" d="M344.19,-306.11C352.71,-307.47 361.36,-308.86 369.86,-310.21"/>
<polygon fill="#63b8ff" stroke="#63b8ff" points="369.32,-313.67 379.75,-311.79 370.43,-306.76 369.32,-313.67"/>
</a>
</g>
</g>
<!-- Node43&#45;&gt;Node34 -->
<g id="edge53_Node000043_Node000034" class="edge">
<title>Node43&#45;&gt;Node34</title>
<g id="a_edge53_Node000043_Node000034"><a xlink:title=" ">
<path fill="none" stroke="#63b8ff" d="M344.19,-278.57C356.61,-276.39 369.32,-274.16 381.42,-272.04"/>
<polygon fill="#63b8ff" stroke="#63b8ff" points="382.18,-275.46 391.42,-270.28 380.97,-268.56 382.18,-275.46"/>
</a>
</g>
</g>
<!-- Node44&#45;&gt;Node14 -->
<g id="edge56_Node000044_Node000014" class="edge">
<title>Node44&#45;&gt;Node14</title>
<g id="a_edge56_Node000044_Node000014"><a xlink:title=" ">
<path fill="none" stroke="#63b8ff" d="M329.9,-212.18C334.92,-214.68 339.69,-217.6 344,-221 369.31,-240.98 357.07,-261.32 380,-284 387.34,-291.26 396.32,-297.6 405.35,-302.92"/>
<polygon fill="#63b8ff" stroke="#63b8ff" points="403.91,-306.13 414.36,-307.92 407.31,-300.01 403.91,-306.13"/>
</a>
</g>
</g>
<!-- Node44&#45;&gt;Node33 -->
<g id="edge55_Node000044_Node000033" class="edge">
<title>Node44&#45;&gt;Node33</title>
<g id="a_edge55_Node000044_Node000033"><a xlink:title=" ">
<path fill="none" stroke="#63b8ff" d="M332,-200.72C349.63,-201.66 368.47,-202.66 385.8,-203.58"/>
<polygon fill="#63b8ff" stroke="#63b8ff" points="385.63,-207.08 395.8,-204.12 386,-200.09 385.63,-207.08"/>
</a>
</g>
</g>
<!-- Node45&#45;&gt;Node14 -->
<g id="edge58_Node000045_Node000014" class="edge">
<title>Node45&#45;&gt;Node14</title>
<g id="a_edge58_Node000045_Node000014"><a xlink:title=" ">
<path fill="none" stroke="#63b8ff" d="M332,-334.3C344.36,-333.11 357.31,-331.87 369.92,-330.67"/>
<polygon fill="#63b8ff" stroke="#63b8ff" points="370.32,-334.15 379.94,-329.71 369.65,-327.18 370.32,-334.15"/>
</a>
</g>
</g>
</g>
</svg>
