<?xml version="1.0" encoding="UTF-8" standalone="no"?>
<!DOCTYPE svg PUBLIC "-//W3C//DTD SVG 1.1//EN"
 "http://www.w3.org/Graphics/SVG/1.1/DTD/svg11.dtd">
<!-- Generated by graphviz version 2.43.0 (0)
 -->
<!-- Title: Sha1Hash::updateBigNumbers Pages: 1 -->
<svg width="529pt" height="103pt"
 viewBox="0.00 0.00 529.00 103.00" xmlns="http://www.w3.org/2000/svg" xmlns:xlink="http://www.w3.org/1999/xlink">
<g id="graph0" class="graph" transform="scale(1 1) rotate(0) translate(4 99)">
<title>Sha1Hash::updateBigNumbers</title>
<!-- Node1 -->
<g id="Node000001" class="node">
<title>Node1</title>
<g id="a_Node000001"><a xlink:title=" ">
<polygon fill="#999999" stroke="#666666" points="165,-57 0,-57 0,-38 165,-38 165,-57"/>
<text text-anchor="middle" x="82.5" y="-45" font-family="Helvetica,sans-Serif" font-size="10.00">Sha1Hash::updateBigNumbers</text>
</a>
</g>
</g>
<!-- Node2 -->
<g id="Node000002" class="node">
<title>Node2</title>
<g id="a_Node000002"><a xlink:href="classBigNumber.html#aa18eadb6929b151cbb9de5074b37ddc0" target="_top" xlink:title=" ">
<polygon fill="white" stroke="#666666" points="339,-95 201,-95 201,-76 339,-76 339,-95"/>
<text text-anchor="middle" x="270" y="-83" font-family="Helvetica,sans-Serif" font-size="10.00">BigNumber::AsByteArray</text>
</a>
</g>
</g>
<!-- Node1&#45;&gt;Node2 -->
<g id="edge1_Node000001_Node000002" class="edge">
<title>Node1&#45;&gt;Node2</title>
<g id="a_edge1_Node000001_Node000002"><a xlink:title=" ">
<path fill="none" stroke="#63b8ff" d="M130.31,-57.09C155.34,-62.22 186.34,-68.57 212.68,-73.96"/>
<polygon fill="#63b8ff" stroke="#63b8ff" points="212.03,-77.4 222.53,-75.98 213.43,-70.54 212.03,-77.4"/>
</a>
</g>
</g>
<!-- Node3 -->
<g id="Node000003" class="node">
<title>Node3</title>
<g id="a_Node000003"><a xlink:href="classBigNumber.html#ae81809bd760592d8268f1a63aef0d146" target="_top" xlink:title=" ">
<polygon fill="white" stroke="#666666" points="521,-76 375,-76 375,-57 521,-57 521,-76"/>
<text text-anchor="middle" x="448" y="-64" font-family="Helvetica,sans-Serif" font-size="10.00">BigNumber::GetNumBytes</text>
</a>
</g>
</g>
<!-- Node1&#45;&gt;Node3 -->
<g id="edge3_Node000001_Node000003" class="edge">
<title>Node1&#45;&gt;Node3</title>
<g id="a_edge3_Node000001_Node000003"><a xlink:title=" ">
<path fill="none" stroke="#63b8ff" d="M165.08,-51.76C224.64,-54.88 305.07,-59.08 364.78,-62.2"/>
<polygon fill="#63b8ff" stroke="#63b8ff" points="364.76,-65.71 374.92,-62.73 365.12,-58.72 364.76,-65.71"/>
</a>
</g>
</g>
<!-- Node4 -->
<g id="Node000004" class="node">
<title>Node4</title>
<g id="a_Node000004"><a xlink:href="classSha1Hash.html#a9e2a36395afa3a5b119712cc8fa85fb2" target="_top" xlink:title=" ">
<polygon fill="white" stroke="#666666" points="334,-19 206,-19 206,0 334,0 334,-19"/>
<text text-anchor="middle" x="270" y="-7" font-family="Helvetica,sans-Serif" font-size="10.00">Sha1Hash::updateData</text>
</a>
</g>
</g>
<!-- Node1&#45;&gt;Node4 -->
<g id="edge4_Node000001_Node000004" class="edge">
<title>Node1&#45;&gt;Node4</title>
<g id="a_edge4_Node000001_Node000004"><a xlink:title=" ">
<path fill="none" stroke="#63b8ff" d="M130.31,-37.91C155.34,-32.78 186.34,-26.43 212.68,-21.04"/>
<polygon fill="#63b8ff" stroke="#63b8ff" points="213.43,-24.46 222.53,-19.02 212.03,-17.6 213.43,-24.46"/>
</a>
</g>
</g>
<!-- Node2&#45;&gt;Node3 -->
<g id="edge2_Node000002_Node000003" class="edge">
<title>Node2&#45;&gt;Node3</title>
<g id="a_edge2_Node000002_Node000003"><a xlink:title=" ">
<path fill="none" stroke="#63b8ff" d="M339.05,-78.15C347.46,-77.25 356.13,-76.31 364.72,-75.38"/>
<polygon fill="#63b8ff" stroke="#63b8ff" points="365.2,-78.85 374.76,-74.3 364.44,-71.89 365.2,-78.85"/>
</a>
</g>
</g>
</g>
</svg>
