<?xml version="1.0" encoding="UTF-8" standalone="no"?>
<!DOCTYPE svg PUBLIC "-//W3C//DTD SVG 1.1//EN"
 "http://www.w3.org/Graphics/SVG/1.1/DTD/svg11.dtd">
<!-- Generated by graphviz version 2.43.0 (0)
 -->
<!-- Title: BroadcastMgr::threadRunner Pages: 1 -->
<svg width="514pt" height="45pt"
 viewBox="0.00 0.00 514.00 45.00" xmlns="http://www.w3.org/2000/svg" xmlns:xlink="http://www.w3.org/1999/xlink">
<g id="graph0" class="graph" transform="scale(1 1) rotate(0) translate(4 41)">
<title>BroadcastMgr::threadRunner</title>
<!-- Node1 -->
<g id="Node000001" class="node">
<title>Node1</title>
<g id="a_Node000001"><a xlink:title=" ">
<polygon fill="#999999" stroke="#666666" points="156,-19 0,-19 0,0 156,0 156,-19"/>
<text text-anchor="middle" x="78" y="-7" font-family="Helvetica,sans-Serif" font-size="10.00">BroadcastMgr::threadRunner</text>
</a>
</g>
</g>
<!-- Node2 -->
<g id="Node000002" class="node">
<title>Node2</title>
<g id="a_Node000002"><a xlink:href="classBroadcastMgr.html#a0ec52847afafb57e8e79b55d2ff56ed3" target="_top" xlink:title=" ">
<polygon fill="white" stroke="#666666" points="354,-19 192,-19 192,0 354,0 354,-19"/>
<text text-anchor="middle" x="273" y="-7" font-family="Helvetica,sans-Serif" font-size="10.00">BroadcastMgr::sendBroadcast</text>
</a>
</g>
</g>
<!-- Node1&#45;&gt;Node2 -->
<g id="edge1_Node000001_Node000002" class="edge">
<title>Node1&#45;&gt;Node2</title>
<g id="a_edge1_Node000001_Node000002"><a xlink:title=" ">
<path fill="none" stroke="#63b8ff" d="M156.11,-9.5C164.56,-9.5 173.22,-9.5 181.81,-9.5"/>
<polygon fill="#63b8ff" stroke="#63b8ff" points="181.85,-13 191.85,-9.5 181.85,-6 181.85,-13"/>
</a>
</g>
</g>
<!-- Node3 -->
<g id="Node000003" class="node">
<title>Node3</title>
<g id="a_Node000003"><a xlink:href="namespaceUtil.html#ac09cb1bbc978b41e11720b88fec2800e" target="_top" xlink:title=" ">
<polygon fill="white" stroke="#666666" points="506,-19 390,-19 390,0 506,0 506,-19"/>
<text text-anchor="middle" x="448" y="-7" font-family="Helvetica,sans-Serif" font-size="10.00">Util::getRandomUInt</text>
</a>
</g>
</g>
<!-- Node2&#45;&gt;Node3 -->
<g id="edge2_Node000002_Node000003" class="edge">
<title>Node2&#45;&gt;Node3</title>
<g id="a_edge2_Node000002_Node000003"><a xlink:title=" ">
<path fill="none" stroke="#63b8ff" d="M354.17,-9.5C362.72,-9.5 371.34,-9.5 379.72,-9.5"/>
<polygon fill="#63b8ff" stroke="#63b8ff" points="379.79,-13 389.79,-9.5 379.79,-6 379.79,-13"/>
</a>
</g>
</g>
<!-- Node3&#45;&gt;Node3 -->
<g id="edge3_Node000003_Node000003" class="edge">
<title>Node3&#45;&gt;Node3</title>
<g id="a_edge3_Node000003_Node000003"><a xlink:title=" ">
<path fill="none" stroke="#63b8ff" d="M421.18,-19.08C408.13,-27.73 417.07,-37 448,-37 468.78,-37 479.63,-32.82 480.56,-27.45"/>
<polygon fill="#63b8ff" stroke="#63b8ff" points="483.36,-25.35 474.82,-19.08 477.59,-29.31 483.36,-25.35"/>
</a>
</g>
</g>
</g>
</svg>
