<?xml version="1.0" encoding="UTF-8" standalone="no"?>
<!DOCTYPE svg PUBLIC "-//W3C//DTD SVG 1.1//EN"
 "http://www.w3.org/Graphics/SVG/1.1/DTD/svg11.dtd">
<!-- Generated by graphviz version 2.43.0 (0)
 -->
<!-- Title: ZerekethAI::OnCombatStart Pages: 1 -->
<svg width="661pt" height="107pt"
 viewBox="0.00 0.00 661.00 107.00" xmlns="http://www.w3.org/2000/svg" xmlns:xlink="http://www.w3.org/1999/xlink">
<g id="graph0" class="graph" transform="scale(1 1) rotate(0) translate(4 103)">
<title>ZerekethAI::OnCombatStart</title>
<!-- Node1 -->
<g id="Node000001" class="node">
<title>Node1</title>
<g id="a_Node000001"><a xlink:title=" ">
<polygon fill="#999999" stroke="#666666" points="151,-49 0,-49 0,-30 151,-30 151,-49"/>
<text text-anchor="middle" x="75.5" y="-37" font-family="Helvetica,sans-Serif" font-size="10.00">ZerekethAI::OnCombatStart</text>
</a>
</g>
</g>
<!-- Node2 -->
<g id="Node000002" class="node">
<title>Node2</title>
<g id="a_Node000002"><a xlink:href="classCreatureAIScript.html#a26b1d717782567cdcff4c1ebcf3fa866" target="_top" xlink:title=" ">
<polygon fill="white" stroke="#666666" points="296,-85.5 194,-85.5 194,-55.5 296,-55.5 296,-85.5"/>
<text text-anchor="start" x="202" y="-73.5" font-family="Helvetica,sans-Serif" font-size="10.00">CreatureAIScript::</text>
<text text-anchor="middle" x="245" y="-62.5" font-family="Helvetica,sans-Serif" font-size="10.00">_addTimer</text>
</a>
</g>
</g>
<!-- Node1&#45;&gt;Node2 -->
<g id="edge1_Node000001_Node000002" class="edge">
<title>Node1&#45;&gt;Node2</title>
<g id="a_edge1_Node000001_Node000002"><a xlink:title=" ">
<path fill="none" stroke="#63b8ff" d="M128.12,-49.05C145.8,-52.33 165.74,-56.02 184.02,-59.4"/>
<polygon fill="#63b8ff" stroke="#63b8ff" points="183.51,-62.86 193.98,-61.24 184.79,-55.98 183.51,-62.86"/>
</a>
</g>
</g>
<!-- Node6 -->
<g id="Node000006" class="node">
<title>Node6</title>
<g id="a_Node000006"><a xlink:href="namespaceUtil.html#ac09cb1bbc978b41e11720b88fec2800e" target="_top" xlink:title=" ">
<polygon fill="white" stroke="#666666" points="303,-19 187,-19 187,0 303,0 303,-19"/>
<text text-anchor="middle" x="245" y="-7" font-family="Helvetica,sans-Serif" font-size="10.00">Util::getRandomUInt</text>
</a>
</g>
</g>
<!-- Node1&#45;&gt;Node6 -->
<g id="edge5_Node000001_Node000006" class="edge">
<title>Node1&#45;&gt;Node6</title>
<g id="a_edge5_Node000001_Node000006"><a xlink:title=" ">
<path fill="none" stroke="#63b8ff" d="M129.96,-29.93C146.05,-27.04 163.87,-23.85 180.55,-20.86"/>
<polygon fill="#63b8ff" stroke="#63b8ff" points="181.54,-24.24 190.76,-19.04 180.3,-17.35 181.54,-24.24"/>
</a>
</g>
</g>
<!-- Node3 -->
<g id="Node000003" class="node">
<title>Node3</title>
<g id="a_Node000003"><a xlink:href="classCreatureAIScript.html#a6e3fced499a84b9cb1a1c9a6dfa60b7a" target="_top" xlink:title=" ">
<polygon fill="white" stroke="#666666" points="498,-85.5 339,-85.5 339,-55.5 498,-55.5 498,-85.5"/>
<text text-anchor="start" x="347" y="-73.5" font-family="Helvetica,sans-Serif" font-size="10.00">CreatureAIScript::getInstance</text>
<text text-anchor="middle" x="418.5" y="-62.5" font-family="Helvetica,sans-Serif" font-size="10.00">Script</text>
</a>
</g>
</g>
<!-- Node2&#45;&gt;Node3 -->
<g id="edge2_Node000002_Node000003" class="edge">
<title>Node2&#45;&gt;Node3</title>
<g id="a_edge2_Node000002_Node000003"><a xlink:title=" ">
<path fill="none" stroke="#63b8ff" d="M296.07,-70.5C306.36,-70.5 317.49,-70.5 328.69,-70.5"/>
<polygon fill="#63b8ff" stroke="#63b8ff" points="328.97,-74 338.97,-70.5 328.97,-67 328.97,-74"/>
</a>
</g>
</g>
<!-- Node4 -->
<g id="Node000004" class="node">
<title>Node4</title>
<g id="a_Node000004"><a xlink:href="classWorldMap.html#a4af3c5d2b3b7bf0b3bfc5c3b92aa3c90" target="_top" xlink:title=" ">
<polygon fill="white" stroke="#666666" points="651,-99 536,-99 536,-80 651,-80 651,-99"/>
<text text-anchor="middle" x="593.5" y="-87" font-family="Helvetica,sans-Serif" font-size="10.00">WorldMap::getScript</text>
</a>
</g>
</g>
<!-- Node3&#45;&gt;Node4 -->
<g id="edge3_Node000003_Node000004" class="edge">
<title>Node3&#45;&gt;Node4</title>
<g id="a_edge3_Node000003_Node000004"><a xlink:title=" ">
<path fill="none" stroke="#63b8ff" d="M498.15,-79.14C507.36,-80.15 516.69,-81.17 525.72,-82.17"/>
<polygon fill="#63b8ff" stroke="#63b8ff" points="525.43,-85.66 535.76,-83.27 526.2,-78.7 525.43,-85.66"/>
</a>
</g>
</g>
<!-- Node5 -->
<g id="Node000005" class="node">
<title>Node5</title>
<g id="a_Node000005"><a xlink:href="classObject.html#a967af054c54b6d9846637ce8718efd75" target="_top" xlink:title=" ">
<polygon fill="white" stroke="#666666" points="653,-62 534,-62 534,-43 653,-43 653,-62"/>
<text text-anchor="middle" x="593.5" y="-50" font-family="Helvetica,sans-Serif" font-size="10.00">Object::getWorldMap</text>
</a>
</g>
</g>
<!-- Node3&#45;&gt;Node5 -->
<g id="edge4_Node000003_Node000005" class="edge">
<title>Node3&#45;&gt;Node5</title>
<g id="a_edge4_Node000003_Node000005"><a xlink:title=" ">
<path fill="none" stroke="#63b8ff" d="M498.15,-62.32C506.72,-61.43 515.39,-60.52 523.82,-59.65"/>
<polygon fill="#63b8ff" stroke="#63b8ff" points="524.39,-63.11 533.97,-58.59 523.66,-56.14 524.39,-63.11"/>
</a>
</g>
</g>
<!-- Node6&#45;&gt;Node6 -->
<g id="edge6_Node000006_Node000006" class="edge">
<title>Node6&#45;&gt;Node6</title>
<g id="a_edge6_Node000006_Node000006"><a xlink:title=" ">
<path fill="none" stroke="#63b8ff" d="M219.11,-19.08C206.51,-27.73 215.14,-37 245,-37 265.06,-37 275.54,-32.82 276.44,-27.45"/>
<polygon fill="#63b8ff" stroke="#63b8ff" points="279.34,-25.49 270.89,-19.08 273.5,-29.35 279.34,-25.49"/>
</a>
</g>
</g>
</g>
</svg>
