<?xml version="1.0" encoding="UTF-8" standalone="no"?>
<!DOCTYPE svg PUBLIC "-//W3C//DTD SVG 1.1//EN"
 "http://www.w3.org/Graphics/SVG/1.1/DTD/svg11.dtd">
<!-- Generated by graphviz version 2.43.0 (0)
 -->
<!-- Title: ChatCommandHandler::HandleNpcRespawnCommand Pages: 1 -->
<svg width="645pt" height="335pt"
 viewBox="0.00 0.00 645.00 334.50" xmlns="http://www.w3.org/2000/svg" xmlns:xlink="http://www.w3.org/1999/xlink">
<g id="graph0" class="graph" transform="scale(1 1) rotate(0) translate(4 330.5)">
<title>ChatCommandHandler::HandleNpcRespawnCommand</title>
<!-- Node1 -->
<g id="Node000001" class="node">
<title>Node1</title>
<g id="a_Node000001"><a xlink:title=" ">
<polygon fill="#999999" stroke="#666666" points="170,-165 0,-165 0,-135 170,-135 170,-165"/>
<text text-anchor="start" x="8" y="-153" font-family="Helvetica,sans-Serif" font-size="10.00">ChatCommandHandler</text>
<text text-anchor="middle" x="85" y="-142" font-family="Helvetica,sans-Serif" font-size="10.00">::HandleNpcRespawnCommand</text>
</a>
</g>
</g>
<!-- Node2 -->
<g id="Node000002" class="node">
<title>Node2</title>
<g id="a_Node000002"><a xlink:href="classChatCommandHandler.html#a1141a5b3f55d31ed3201e0bd266ef0ab" target="_top" xlink:title=" ">
<polygon fill="white" stroke="#666666" points="334,-213 206,-213 206,-183 334,-183 334,-213"/>
<text text-anchor="start" x="214" y="-201" font-family="Helvetica,sans-Serif" font-size="10.00">ChatCommandHandler</text>
<text text-anchor="middle" x="270" y="-190" font-family="Helvetica,sans-Serif" font-size="10.00">::blueSystemMessage</text>
</a>
</g>
</g>
<!-- Node1&#45;&gt;Node2 -->
<g id="edge1_Node000001_Node000002" class="edge">
<title>Node1&#45;&gt;Node2</title>
<g id="a_edge1_Node000001_Node000002"><a xlink:title=" ">
<path fill="none" stroke="#63b8ff" d="M143.4,-165.06C161.97,-169.93 182.72,-175.37 201.92,-180.41"/>
<polygon fill="#63b8ff" stroke="#63b8ff" points="201.24,-183.85 211.8,-183 203.02,-177.07 201.24,-183.85"/>
</a>
</g>
</g>
<!-- Node3 -->
<g id="Node000003" class="node">
<title>Node3</title>
<g id="a_Node000003"><a xlink:href="classChatCommandHandler.html#aad658f88986db7a7526dff8a75f806cd" target="_top" xlink:title=" ">
<polygon fill="white" stroke="#666666" points="334,-165 206,-165 206,-135 334,-135 334,-165"/>
<text text-anchor="start" x="214" y="-153" font-family="Helvetica,sans-Serif" font-size="10.00">ChatCommandHandler</text>
<text text-anchor="middle" x="270" y="-142" font-family="Helvetica,sans-Serif" font-size="10.00">::GetSelectedCreature</text>
</a>
</g>
</g>
<!-- Node1&#45;&gt;Node3 -->
<g id="edge2_Node000001_Node000003" class="edge">
<title>Node1&#45;&gt;Node3</title>
<g id="a_edge2_Node000001_Node000003"><a xlink:title=" ">
<path fill="none" stroke="#63b8ff" d="M170,-150C178.55,-150 187.19,-150 195.62,-150"/>
<polygon fill="#63b8ff" stroke="#63b8ff" points="195.77,-153.5 205.77,-150 195.77,-146.5 195.77,-153.5"/>
</a>
</g>
</g>
<!-- Node13 -->
<g id="Node000013" class="node">
<title>Node13</title>
<g id="a_Node000013"><a xlink:href="classChatCommandHandler.html#ac481a38af41845bdacba6cfca6f08a2d" target="_top" xlink:title=" ">
<polygon fill="white" stroke="#666666" points="507,-30 379,-30 379,0 507,0 507,-30"/>
<text text-anchor="start" x="387" y="-18" font-family="Helvetica,sans-Serif" font-size="10.00">ChatCommandHandler</text>
<text text-anchor="middle" x="443" y="-7" font-family="Helvetica,sans-Serif" font-size="10.00">::redSystemMessage</text>
</a>
</g>
</g>
<!-- Node1&#45;&gt;Node13 -->
<g id="edge13_Node000001_Node000013" class="edge">
<title>Node1&#45;&gt;Node13</title>
<g id="a_edge13_Node000001_Node000013"><a xlink:title=" ">
<path fill="none" stroke="#63b8ff" d="M122.99,-134.85C176.97,-112.89 280.65,-71.33 370,-39 375.19,-37.12 380.61,-35.22 386.04,-33.34"/>
<polygon fill="#63b8ff" stroke="#63b8ff" points="387.45,-36.56 395.79,-30.02 385.19,-29.93 387.45,-36.56"/>
</a>
</g>
</g>
<!-- Node4 -->
<g id="Node000004" class="node">
<title>Node4</title>
<g id="a_Node000004"><a xlink:href="classWorldMap.html#aaca4751736f7fd902ca0745a950148bd" target="_top" xlink:title=" ">
<polygon fill="white" stroke="#666666" points="507.5,-326.5 378.5,-326.5 378.5,-307.5 507.5,-307.5 507.5,-326.5"/>
<text text-anchor="middle" x="443" y="-314.5" font-family="Helvetica,sans-Serif" font-size="10.00">WorldMap::getCreature</text>
</a>
</g>
</g>
<!-- Node3&#45;&gt;Node4 -->
<g id="edge3_Node000003_Node000004" class="edge">
<title>Node3&#45;&gt;Node4</title>
<g id="a_edge3_Node000003_Node000004"><a xlink:title=" ">
<path fill="none" stroke="#63b8ff" d="M323.1,-165.07C327.11,-167.6 330.83,-170.55 334,-174 373.14,-216.55 328.4,-258.85 370,-299 371.1,-300.06 372.25,-301.07 373.45,-302.01"/>
<polygon fill="#63b8ff" stroke="#63b8ff" points="371.65,-305.01 381.95,-307.47 375.43,-299.12 371.65,-305.01"/>
</a>
</g>
</g>
<!-- Node5 -->
<g id="Node000005" class="node">
<title>Node5</title>
<g id="a_Node000005"><a xlink:href="classWoWGuid.html#aaa546e886497d5fb0e2eb2a267a81786" target="_top" xlink:title=" ">
<polygon fill="white" stroke="#666666" points="516,-289.5 370,-289.5 370,-270.5 516,-270.5 516,-289.5"/>
<text text-anchor="middle" x="443" y="-277.5" font-family="Helvetica,sans-Serif" font-size="10.00">WoWGuid::getGuidLowPart</text>
</a>
</g>
</g>
<!-- Node3&#45;&gt;Node5 -->
<g id="edge4_Node000003_Node000005" class="edge">
<title>Node3&#45;&gt;Node5</title>
<g id="a_edge4_Node000003_Node000005"><a xlink:title=" ">
<path fill="none" stroke="#63b8ff" d="M322.09,-165.08C326.42,-167.61 330.48,-170.57 334,-174 364.24,-203.51 338.06,-234.34 370,-262 371.34,-263.16 372.74,-264.25 374.2,-265.27"/>
<polygon fill="#63b8ff" stroke="#63b8ff" points="372.64,-268.41 383.04,-270.39 376.14,-262.35 372.64,-268.41"/>
</a>
</g>
</g>
<!-- Node6 -->
<g id="Node000006" class="node">
<title>Node6</title>
<g id="a_Node000006"><a xlink:href="classWoWGuid.html#a8c5db0d6b72e4cc9e850a410f0030b92" target="_top" xlink:title=" ">
<polygon fill="white" stroke="#666666" points="497,-252.5 389,-252.5 389,-233.5 497,-233.5 497,-252.5"/>
<text text-anchor="middle" x="443" y="-240.5" font-family="Helvetica,sans-Serif" font-size="10.00">WoWGuid::getHigh</text>
</a>
</g>
</g>
<!-- Node3&#45;&gt;Node6 -->
<g id="edge5_Node000003_Node000006" class="edge">
<title>Node3&#45;&gt;Node6</title>
<g id="a_edge5_Node000003_Node000006"><a xlink:title=" ">
<path fill="none" stroke="#63b8ff" d="M319.72,-165.13C324.78,-167.68 329.65,-170.63 334,-174 355.92,-191.01 347.11,-209.32 370,-225 373.05,-227.09 376.32,-228.94 379.72,-230.57"/>
<polygon fill="#63b8ff" stroke="#63b8ff" points="378.4,-233.81 388.98,-234.41 381.09,-227.34 378.4,-233.81"/>
</a>
</g>
</g>
<!-- Node7 -->
<g id="Node000007" class="node">
<title>Node7</title>
<g id="a_Node000007"><a xlink:href="classWorldMap.html#a54a7a06ee3df07916e9eb107e1d41313" target="_top" xlink:title=" ">
<polygon fill="white" stroke="#666666" points="494.5,-215.5 391.5,-215.5 391.5,-196.5 494.5,-196.5 494.5,-215.5"/>
<text text-anchor="middle" x="443" y="-203.5" font-family="Helvetica,sans-Serif" font-size="10.00">WorldMap::getPet</text>
</a>
</g>
</g>
<!-- Node3&#45;&gt;Node7 -->
<g id="edge6_Node000003_Node000007" class="edge">
<title>Node3&#45;&gt;Node7</title>
<g id="a_edge6_Node000003_Node000007"><a xlink:title=" ">
<path fill="none" stroke="#63b8ff" d="M310.67,-165.07C318.41,-168.02 326.46,-171.1 334,-174 350.02,-180.17 353.64,-182.8 370,-188 376.43,-190.05 383.25,-192.01 390.03,-193.84"/>
<polygon fill="#63b8ff" stroke="#63b8ff" points="389.31,-197.27 399.87,-196.41 391.08,-190.5 389.31,-197.27"/>
</a>
</g>
</g>
<!-- Node8 -->
<g id="Node000008" class="node">
<title>Node8</title>
<g id="a_Node000008"><a xlink:href="classWorldSession.html#a014d7fdeb157410b75dfd4bd0fe0efc2" target="_top" xlink:title=" ">
<polygon fill="white" stroke="#666666" points="511,-178.5 375,-178.5 375,-159.5 511,-159.5 511,-178.5"/>
<text text-anchor="middle" x="443" y="-166.5" font-family="Helvetica,sans-Serif" font-size="10.00">WorldSession::GetPlayer</text>
</a>
</g>
</g>
<!-- Node3&#45;&gt;Node8 -->
<g id="edge7_Node000003_Node000008" class="edge">
<title>Node3&#45;&gt;Node8</title>
<g id="a_edge7_Node000003_Node000008"><a xlink:title=" ">
<path fill="none" stroke="#63b8ff" d="M334.19,-157.02C344.11,-158.12 354.46,-159.27 364.65,-160.41"/>
<polygon fill="#63b8ff" stroke="#63b8ff" points="364.44,-163.9 374.77,-161.53 365.22,-156.95 364.44,-163.9"/>
</a>
</g>
</g>
<!-- Node9 -->
<g id="Node000009" class="node">
<title>Node9</title>
<g id="a_Node000009"><a xlink:href="classUnit.html#a50e5b30e1c170be2c8415a84d0e78cc8" target="_top" xlink:title=" ">
<polygon fill="white" stroke="#666666" points="498.5,-141.5 387.5,-141.5 387.5,-122.5 498.5,-122.5 498.5,-141.5"/>
<text text-anchor="middle" x="443" y="-129.5" font-family="Helvetica,sans-Serif" font-size="10.00">Unit::getTargetGuid</text>
</a>
</g>
</g>
<!-- Node3&#45;&gt;Node9 -->
<g id="edge8_Node000003_Node000009" class="edge">
<title>Node3&#45;&gt;Node9</title>
<g id="a_edge8_Node000003_Node000009"><a xlink:title=" ">
<path fill="none" stroke="#63b8ff" d="M334.19,-143.35C348.2,-141.87 363.07,-140.31 377.14,-138.83"/>
<polygon fill="#63b8ff" stroke="#63b8ff" points="377.65,-142.29 387.23,-137.77 376.92,-135.33 377.65,-142.29"/>
</a>
</g>
</g>
<!-- Node11 -->
<g id="Node000011" class="node">
<title>Node11</title>
<g id="a_Node000011"><a xlink:href="classObject.html#a967af054c54b6d9846637ce8718efd75" target="_top" xlink:title=" ">
<polygon fill="white" stroke="#666666" points="502.5,-104.5 383.5,-104.5 383.5,-85.5 502.5,-85.5 502.5,-104.5"/>
<text text-anchor="middle" x="443" y="-92.5" font-family="Helvetica,sans-Serif" font-size="10.00">Object::getWorldMap</text>
</a>
</g>
</g>
<!-- Node3&#45;&gt;Node11 -->
<g id="edge10_Node000003_Node000011" class="edge">
<title>Node3&#45;&gt;Node11</title>
<g id="a_edge10_Node000003_Node000011"><a xlink:title=" ">
<path fill="none" stroke="#63b8ff" d="M308.26,-134.94C326.67,-127.79 349.32,-119.43 370,-113 376.53,-110.97 383.45,-109.01 390.31,-107.17"/>
<polygon fill="#63b8ff" stroke="#63b8ff" points="391.48,-110.49 400.28,-104.58 389.72,-103.71 391.48,-110.49"/>
</a>
</g>
</g>
<!-- Node12 -->
<g id="Node000012" class="node">
<title>Node12</title>
<g id="a_Node000012"><a xlink:href="classWoWGuid.html#af262e032110b2936fde7b85a73a21d1b" target="_top" xlink:title=" ">
<polygon fill="white" stroke="#666666" points="486,-67.5 400,-67.5 400,-48.5 486,-48.5 486,-67.5"/>
<text text-anchor="middle" x="443" y="-55.5" font-family="Helvetica,sans-Serif" font-size="10.00">WoWGuid::Init</text>
</a>
</g>
</g>
<!-- Node3&#45;&gt;Node12 -->
<g id="edge11_Node000003_Node000012" class="edge">
<title>Node3&#45;&gt;Node12</title>
<g id="a_edge11_Node000003_Node000012"><a xlink:title=" ">
<path fill="none" stroke="#63b8ff" d="M286.84,-134.96C305.36,-118.18 337.63,-91.37 370,-76 376.26,-73.03 383.06,-70.51 389.9,-68.39"/>
<polygon fill="#63b8ff" stroke="#63b8ff" points="391.24,-71.65 399.9,-65.55 389.33,-64.91 391.24,-71.65"/>
</a>
</g>
</g>
<!-- Node3&#45;&gt;Node13 -->
<g id="edge12_Node000003_Node000013" class="edge">
<title>Node3&#45;&gt;Node13</title>
<g id="a_edge12_Node000003_Node000013"><a xlink:title=" ">
<path fill="none" stroke="#63b8ff" d="M286.16,-134.89C299.17,-121.73 318.26,-102.01 334,-84 350.86,-64.72 348.99,-53.65 370,-39 372.13,-37.52 374.35,-36.12 376.65,-34.8"/>
<polygon fill="#63b8ff" stroke="#63b8ff" points="378.49,-37.79 385.8,-30.12 375.31,-31.56 378.49,-37.79"/>
</a>
</g>
</g>
<!-- Node10 -->
<g id="Node000010" class="node">
<title>Node10</title>
<g id="a_Node000010"><a xlink:href="classUnit.html#a2b80af47340ac01ca2031723f37e839a" target="_top" xlink:title=" ">
<polygon fill="white" stroke="#666666" points="637,-141.5 552,-141.5 552,-122.5 637,-122.5 637,-141.5"/>
<text text-anchor="middle" x="594.5" y="-129.5" font-family="Helvetica,sans-Serif" font-size="10.00">Unit::unitData</text>
</a>
</g>
</g>
<!-- Node9&#45;&gt;Node10 -->
<g id="edge9_Node000009_Node000010" class="edge">
<title>Node9&#45;&gt;Node10</title>
<g id="a_edge9_Node000009_Node000010"><a xlink:title=" ">
<path fill="none" stroke="#63b8ff" d="M498.82,-132C512.76,-132 527.71,-132 541.51,-132"/>
<polygon fill="#63b8ff" stroke="#63b8ff" points="541.8,-135.5 551.8,-132 541.8,-128.5 541.8,-135.5"/>
</a>
</g>
</g>
</g>
</svg>
