<?xml version="1.0" encoding="UTF-8" standalone="no"?>
<!DOCTYPE svg PUBLIC "-//W3C//DTD SVG 1.1//EN"
 "http://www.w3.org/Graphics/SVG/1.1/DTD/svg11.dtd">
<!-- Generated by graphviz version 2.43.0 (0)
 -->
<!-- Title: Creature::UpdateItemAmount Pages: 1 -->
<!--zoomable 113 -->

<svg id="main" version="1.1" xmlns="http://www.w3.org/2000/svg" xmlns:xlink="http://www.w3.org/1999/xlink" xml:space="preserve" onload="init(evt)">
<style type="text/css"><![CDATA[
.node, .edge {opacity: 0.7;}
.node.selected, .edge.selected {opacity: 1;}
.edge:hover path { stroke: red; }
.edge:hover polygon { stroke: red; fill: red; }
]]></style>

<defs>
  <circle id="rim" cx="0" cy="0" r="7"/>
  <circle id="rim2" cx="0" cy="0" r="3.5"/>
  <g id="zoomPlus">
    <use xlink:href="#rim" fill="#404040"><set attributeName="fill" to="#808080" begin="zoomplus.mouseover" end="zoomplus.mouseout"/></use>
    <path d="M-4,0h8M0,-4v8" fill="none" stroke="white" stroke-width="1.5" pointer-events="none"/>
  </g>
  <g id="zoomMin">
    <use xlink:href="#rim" fill="#404040"><set attributeName="fill" to="#808080" begin="zoomminus.mouseover" end="zoomminus.mouseout"/></use>
    <path d="M-4,0h8" fill="none" stroke="white" stroke-width="1.5" pointer-events="none"/>
  </g>
  <g id="arrowUp" transform="translate(30 24)">
    <use xlink:href="#rim"/>
    <path pointer-events="none" fill="none" stroke="white" stroke-width="1.5" d="M0,-3.0v7 M-2.5,-0.5L0,-3.0L2.5,-0.5"/>
  </g>
  <g id="arrowRight" transform="rotate(90) translate(36 -43)">
    <use xlink:href="#rim"/>
    <path pointer-events="none" fill="none" stroke="white" stroke-width="1.5" d="M0,-3.0v7 M-2.5,-0.5L0,-3.0L2.5,-0.5"/>
  </g>
  <g id="arrowDown" transform="rotate(180) translate(-30 -48)">
    <use xlink:href="#rim"/>
    <path pointer-events="none" fill="none" stroke="white" stroke-width="1.5" d="M0,-3.0v7 M-2.5,-0.5L0,-3.0L2.5,-0.5"/>
  </g>
  <g id="arrowLeft" transform="rotate(270) translate(-36 17)">
    <use xlink:href="#rim"/>
    <path pointer-events="none" fill="none" stroke="white" stroke-width="1.5" d="M0,-3.0v7 M-2.5,-0.5L0,-3.0L2.5,-0.5"/>
  </g>
  <g id="resetDef">
    <use xlink:href="#rim2" fill="#404040"><set attributeName="fill" to="#808080" begin="reset.mouseover" end="reset.mouseout"/></use>
  </g>
</defs>
<script type="application/ecmascript">
var viewWidth = 879;
var viewHeight = 113;
var sectionId = 'dynsection-225';
</script>
<script type="application/ecmascript" xlink:href="svg.min.js"/>
<svg id="graph" class="graph">
<g id="viewport">
<title>Creature::UpdateItemAmount</title>
<!-- Node1 -->
<g id="Node000001" class="node">
<title>Node1</title>
<g id="a_Node000001"><a xlink:title=" ">
<polygon fill="#999999" stroke="#666666" points="871,-77 710,-77 710,-58 871,-58 871,-77"/>
<text text-anchor="middle" x="790.5" y="-65" font-family="Helvetica,sans-Serif" font-size="10.00">Creature::UpdateItemAmount</text>
</a>
</g>
</g>
<!-- Node2 -->
<g id="Node000002" class="node">
<title>Node2</title>
<g id="a_Node000002"><a xlink:href="classCreature.html#a752986d4abdf64cc5444fca61c219333" target="_top" xlink:title=" ">
<polygon fill="white" stroke="#666666" points="674,-97 516,-97 516,-78 674,-78 674,-97"/>
<text text-anchor="middle" x="595" y="-85" font-family="Helvetica,sans-Serif" font-size="10.00">Creature::ModAvItemAmount</text>
</a>
</g>
</g>
<!-- Node1&#45;&gt;Node2 -->
<g id="edge1_Node000001_Node000002" class="edge">
<title>Node1&#45;&gt;Node2</title>
<g id="a_edge1_Node000001_Node000002"><a xlink:title=" ">
<path fill="none" stroke="#63b8ff" d="M699.95,-76.76C691.39,-77.64 682.74,-78.53 674.3,-79.41"/>
<polygon fill="#63b8ff" stroke="#63b8ff" points="700.37,-80.23 709.96,-75.72 699.65,-73.27 700.37,-80.23"/>
</a>
</g>
</g>
<!-- Node6 -->
<g id="Node000006" class="node">
<title>Node6</title>
<g id="a_Node000006"><a xlink:href="classCreature.html#abad82c827705055a1e4ea5cf95140246" target="_top" xlink:title=" ">
<polygon fill="white" stroke="#666666" points="665,-59 525,-59 525,-40 665,-40 665,-59"/>
<text text-anchor="middle" x="595" y="-47" font-family="Helvetica,sans-Serif" font-size="10.00">Creature::OnPushToWorld</text>
</a>
</g>
</g>
<!-- Node1&#45;&gt;Node6 -->
<g id="edge5_Node000001_Node000006" class="edge">
<title>Node1&#45;&gt;Node6</title>
<g id="a_edge5_Node000001_Node000006"><a xlink:title=" ">
<path fill="none" stroke="#63b8ff" d="M699.76,-59.15C688.09,-58.07 676.29,-56.97 665.03,-55.92"/>
<polygon fill="#63b8ff" stroke="#63b8ff" points="699.68,-62.66 709.96,-60.1 700.33,-55.69 699.68,-62.66"/>
</a>
</g>
</g>
<!-- Node3 -->
<g id="Node000003" class="node">
<title>Node3</title>
<g id="a_Node000003"><a xlink:href="classWorldSession.html#a5f46e6272a547d683c0006104629098e" target="_top" xlink:title=" ">
<polygon fill="white" stroke="#666666" points="480,-104.5 318,-104.5 318,-74.5 480,-74.5 480,-104.5"/>
<text text-anchor="start" x="326" y="-92.5" font-family="Helvetica,sans-Serif" font-size="10.00">WorldSession::handleBuyItem</text>
<text text-anchor="middle" x="399" y="-81.5" font-family="Helvetica,sans-Serif" font-size="10.00">InSlotOpcode</text>
</a>
</g>
</g>
<!-- Node2&#45;&gt;Node3 -->
<g id="edge2_Node000002_Node000003" class="edge">
<title>Node2&#45;&gt;Node3</title>
<g id="a_edge2_Node000002_Node000003"><a xlink:title=" ">
<path fill="none" stroke="#63b8ff" d="M505.91,-88.41C497.31,-88.5 488.63,-88.59 480.12,-88.67"/>
<polygon fill="#63b8ff" stroke="#63b8ff" points="505.97,-91.91 515.93,-88.3 505.9,-84.91 505.97,-91.91"/>
</a>
</g>
</g>
<!-- Node4 -->
<g id="Node000004" class="node">
<title>Node4</title>
<g id="a_Node000004"><a xlink:href="classWorldSession.html#a213cc2e7e497e0cddfde0a1460e4acd0" target="_top" xlink:title=" ">
<polygon fill="white" stroke="#666666" points="277.5,-104.5 115.5,-104.5 115.5,-74.5 277.5,-74.5 277.5,-104.5"/>
<text text-anchor="start" x="123.5" y="-92.5" font-family="Helvetica,sans-Serif" font-size="10.00">WorldSession::registerOpcode</text>
<text text-anchor="middle" x="196.5" y="-81.5" font-family="Helvetica,sans-Serif" font-size="10.00">Handler</text>
</a>
</g>
</g>
<!-- Node3&#45;&gt;Node4 -->
<g id="edge3_Node000003_Node000004" class="edge">
<title>Node3&#45;&gt;Node4</title>
<g id="a_edge3_Node000003_Node000004"><a xlink:title=" ">
<path fill="none" stroke="#63b8ff" d="M307.6,-89.5C297.67,-89.5 287.61,-89.5 277.81,-89.5"/>
<polygon fill="#63b8ff" stroke="#63b8ff" points="307.89,-93 317.89,-89.5 307.89,-86 307.89,-93"/>
</a>
</g>
</g>
<!-- Node5 -->
<g id="Node000005" class="node">
<title>Node5</title>
<g id="a_Node000005"><a xlink:href="classMaster.html#a12dde72f3398edffca613e77185fd6f3" target="_top" xlink:title=" ">
<polygon fill="white" stroke="#666666" points="75,-99 0,-99 0,-80 75,-80 75,-99"/>
<text text-anchor="middle" x="37.5" y="-87" font-family="Helvetica,sans-Serif" font-size="10.00">Master::Run</text>
</a>
</g>
</g>
<!-- Node4&#45;&gt;Node5 -->
<g id="edge4_Node000004_Node000005" class="edge">
<title>Node4&#45;&gt;Node5</title>
<g id="a_edge4_Node000004_Node000005"><a xlink:title=" ">
<path fill="none" stroke="#63b8ff" d="M105,-89.5C94.48,-89.5 84.25,-89.5 75.09,-89.5"/>
<polygon fill="#63b8ff" stroke="#63b8ff" points="105.16,-93 115.16,-89.5 105.16,-86 105.16,-93"/>
</a>
</g>
</g>
<!-- Node7 -->
<g id="Node000007" class="node">
<title>Node7</title>
<g id="a_Node000007"><a xlink:href="classSummon.html#a769d02e8a64acba8cb223e8885685479" target="_top" xlink:title=" ">
<polygon fill="white" stroke="#666666" points="469.5,-56 328.5,-56 328.5,-37 469.5,-37 469.5,-56"/>
<text text-anchor="middle" x="399" y="-44" font-family="Helvetica,sans-Serif" font-size="10.00">Summon::OnPushToWorld</text>
</a>
</g>
</g>
<!-- Node6&#45;&gt;Node7 -->
<g id="edge6_Node000006_Node000007" class="edge">
<title>Node6&#45;&gt;Node7</title>
<g id="a_edge6_Node000006_Node000007"><a xlink:title=" ">
<path fill="none" stroke="#63b8ff" d="M514.56,-48.27C499.62,-48.04 484.12,-47.8 469.52,-47.58"/>
<polygon fill="#63b8ff" stroke="#63b8ff" points="514.73,-51.77 524.78,-48.43 514.84,-44.78 514.73,-51.77"/>
</a>
</g>
</g>
<!-- Node8 -->
<g id="Node000008" class="node">
<title>Node8</title>
<g id="a_Node000008"><a xlink:href="classPet.html#abb88d3234046a967950d80fd54a0fa4b" target="_top" xlink:title=" ">
<polygon fill="white" stroke="#666666" points="253,-56 140,-56 140,-37 253,-37 253,-56"/>
<text text-anchor="middle" x="196.5" y="-44" font-family="Helvetica,sans-Serif" font-size="10.00">Pet::OnPushToWorld</text>
</a>
</g>
</g>
<!-- Node7&#45;&gt;Node8 -->
<g id="edge7_Node000007_Node000008" class="edge">
<title>Node7&#45;&gt;Node8</title>
<g id="a_edge7_Node000007_Node000008"><a xlink:title=" ">
<path fill="none" stroke="#63b8ff" d="M318.19,-46.5C296.37,-46.5 273.19,-46.5 253.05,-46.5"/>
<polygon fill="#63b8ff" stroke="#63b8ff" points="318.44,-50 328.44,-46.5 318.44,-43 318.44,-50"/>
</a>
</g>
</g>
<!-- Node9 -->
<g id="Node000009" class="node">
<title>Node9</title>
<g id="a_Node000009"><a xlink:href="classTotemSummon.html#a19fa5f9863eaa1993b5af3b87661c844" target="_top" xlink:title=" ">
<polygon fill="white" stroke="#666666" points="282,-19 111,-19 111,0 282,0 282,-19"/>
<text text-anchor="middle" x="196.5" y="-7" font-family="Helvetica,sans-Serif" font-size="10.00">TotemSummon::OnPushToWorld</text>
</a>
</g>
</g>
<!-- Node7&#45;&gt;Node9 -->
<g id="edge8_Node000007_Node000009" class="edge">
<title>Node7&#45;&gt;Node9</title>
<g id="a_edge8_Node000007_Node000009"><a xlink:title=" ">
<path fill="none" stroke="#63b8ff" d="M336.33,-35.12C308.46,-29.98 275.89,-23.97 249.31,-19.06"/>
<polygon fill="#63b8ff" stroke="#63b8ff" points="335.9,-38.6 346.37,-36.97 337.17,-31.71 335.9,-38.6"/>
</a>
</g>
</g>
</g>
</svg>

<g id="navigator" transform="translate(0 0)" fill="#404254">
  <rect fill="#f2f5e9" fill-opacity="0.5" stroke="#606060" stroke-width=".5" x="0" y="0" width="60" height="60"/>
  <use id="zoomplus" xlink:href="#zoomPlus" x="17" y="9" onmousedown="handleZoom(evt,'in')"/>
  <use id="zoomminus" xlink:href="#zoomMin" x="42" y="9" onmousedown="handleZoom(evt,'out')"/>
  <use id="reset" xlink:href="#resetDef" x="30" y="36" onmousedown="handleReset()"/>
   <use id="arrowup" xlink:href="#arrowUp" x="0" y="0" onmousedown="handlePan(0,-1)"/>
  <use id="arrowright" xlink:href="#arrowRight" x="0" y="0" onmousedown="handlePan(1,0)"/>
  <use id="arrowdown" xlink:href="#arrowDown" x="0" y="0" onmousedown="handlePan(0,1)"/>
  <use id="arrowleft" xlink:href="#arrowLeft" x="0" y="0" onmousedown="handlePan(-1,0)"/>
</g>
<svg viewBox="0 0 15 15" width="100%" height="30px" preserveAspectRatio="xMaxYMin meet">
 <g id="arrow_out" transform="scale(0.3 0.3)">
  <a xlink:href="classCreature_a48765de6fbb5ce1e271579b261bb31c7_icgraph_org.svg" target="_base">
   <rect id="button" ry="5" rx="5" y="6" x="6" height="38" width="38"
        fill="#f2f5e9" fill-opacity="0.5" stroke="#606060" stroke-width="1.0"/>
   <path id="arrow"
     d="M 11.500037,31.436501 C 11.940474,20.09759 22.043105,11.32322 32.158766,21.979434 L 37.068811,17.246167 C 37.068811,17.246167 37.088388,32 37.088388,32 L 22.160133,31.978069 C 22.160133,31.978069 26.997745,27.140456 26.997745,27.140456 C 18.528582,18.264221 13.291696,25.230495 11.500037,31.436501 z"
     style="fill:#404040;"/>
  </a>
 </g>
</svg>

<style type='text/css'>
<![CDATA[
[data-mouse-over-selected='false'] { opacity: 0.7; }
[data-mouse-over-selected='true']  { opacity: 1.0; }
]]>
</style>
<script type="application/ecmascript"><![CDATA[
document.addEventListener('DOMContentLoaded', (event) => {
  highlightEdges();
  highlightAdjacentNodes();
});
]]></script>
</svg>
