<?xml version="1.0" encoding="UTF-8" standalone="no"?>
<!DOCTYPE svg PUBLIC "-//W3C//DTD SVG 1.1//EN"
 "http://www.w3.org/Graphics/SVG/1.1/DTD/svg11.dtd">
<!-- Generated by graphviz version 2.43.0 (0)
 -->
<!-- Title: DayWatcherThread::threadInit Pages: 1 -->
<!--zoomable 152 -->

<svg id="main" version="1.1" xmlns="http://www.w3.org/2000/svg" xmlns:xlink="http://www.w3.org/1999/xlink" xml:space="preserve" onload="init(evt)">
<style type="text/css"><![CDATA[
.node, .edge {opacity: 0.7;}
.node.selected, .edge.selected {opacity: 1;}
.edge:hover path { stroke: red; }
.edge:hover polygon { stroke: red; fill: red; }
]]></style>

<defs>
  <circle id="rim" cx="0" cy="0" r="7"/>
  <circle id="rim2" cx="0" cy="0" r="3.5"/>
  <g id="zoomPlus">
    <use xlink:href="#rim" fill="#404040"><set attributeName="fill" to="#808080" begin="zoomplus.mouseover" end="zoomplus.mouseout"/></use>
    <path d="M-4,0h8M0,-4v8" fill="none" stroke="white" stroke-width="1.5" pointer-events="none"/>
  </g>
  <g id="zoomMin">
    <use xlink:href="#rim" fill="#404040"><set attributeName="fill" to="#808080" begin="zoomminus.mouseover" end="zoomminus.mouseout"/></use>
    <path d="M-4,0h8" fill="none" stroke="white" stroke-width="1.5" pointer-events="none"/>
  </g>
  <g id="arrowUp" transform="translate(30 24)">
    <use xlink:href="#rim"/>
    <path pointer-events="none" fill="none" stroke="white" stroke-width="1.5" d="M0,-3.0v7 M-2.5,-0.5L0,-3.0L2.5,-0.5"/>
  </g>
  <g id="arrowRight" transform="rotate(90) translate(36 -43)">
    <use xlink:href="#rim"/>
    <path pointer-events="none" fill="none" stroke="white" stroke-width="1.5" d="M0,-3.0v7 M-2.5,-0.5L0,-3.0L2.5,-0.5"/>
  </g>
  <g id="arrowDown" transform="rotate(180) translate(-30 -48)">
    <use xlink:href="#rim"/>
    <path pointer-events="none" fill="none" stroke="white" stroke-width="1.5" d="M0,-3.0v7 M-2.5,-0.5L0,-3.0L2.5,-0.5"/>
  </g>
  <g id="arrowLeft" transform="rotate(270) translate(-36 17)">
    <use xlink:href="#rim"/>
    <path pointer-events="none" fill="none" stroke="white" stroke-width="1.5" d="M0,-3.0v7 M-2.5,-0.5L0,-3.0L2.5,-0.5"/>
  </g>
  <g id="resetDef">
    <use xlink:href="#rim2" fill="#404040"><set attributeName="fill" to="#808080" begin="reset.mouseover" end="reset.mouseout"/></use>
  </g>
</defs>
<script type="application/ecmascript">
var viewWidth = 832;
var viewHeight = 152;
var sectionId = 'dynsection-10';
</script>
<script type="application/ecmascript" xlink:href="svg.min.js"/>
<svg id="graph" class="graph">
<g id="viewport">
<title>DayWatcherThread::threadInit</title>
<!-- Node1 -->
<g id="Node000001" class="node">
<title>Node1</title>
<g id="a_Node000001"><a xlink:title=" ">
<polygon fill="#999999" stroke="#666666" points="163,-73 0,-73 0,-54 163,-54 163,-73"/>
<text text-anchor="middle" x="81.5" y="-61" font-family="Helvetica,sans-Serif" font-size="10.00">DayWatcherThread::threadInit</text>
</a>
</g>
</g>
<!-- Node2 -->
<g id="Node000002" class="node">
<title>Node2</title>
<g id="a_Node000002"><a xlink:href="classDayWatcherThread.html#a8ca9865177c35284224663e76f4c48ae" target="_top" xlink:title=" ">
<polygon fill="white" stroke="#666666" points="512,-86.5 372,-86.5 372,-56.5 512,-56.5 512,-86.5"/>
<text text-anchor="start" x="380" y="-74.5" font-family="Helvetica,sans-Serif" font-size="10.00">DayWatcherThread::dupe</text>
<text text-anchor="middle" x="442" y="-63.5" font-family="Helvetica,sans-Serif" font-size="10.00">_tm_pointer</text>
</a>
</g>
</g>
<!-- Node1&#45;&gt;Node2 -->
<g id="edge1_Node000001_Node000002" class="edge">
<title>Node1&#45;&gt;Node2</title>
<g id="a_edge1_Node000001_Node000002"><a xlink:title=" ">
<path fill="none" stroke="#63b8ff" d="M163.03,-65.63C175.09,-65.93 187.37,-66.23 199,-66.5 253.31,-67.76 314.47,-69.02 361.72,-69.96"/>
<polygon fill="#63b8ff" stroke="#63b8ff" points="361.82,-73.47 371.89,-70.17 361.96,-66.47 361.82,-73.47"/>
</a>
</g>
</g>
<!-- Node3 -->
<g id="Node000003" class="node">
<title>Node3</title>
<g id="a_Node000003"><a xlink:href="classDayWatcherThread.html#a7bcad5d7a0c3063796cc58f10c731a7f" target="_top" xlink:title=" ">
<polygon fill="white" stroke="#666666" points="336,-143.5 199,-143.5 199,-113.5 336,-113.5 336,-143.5"/>
<text text-anchor="start" x="207" y="-131.5" font-family="Helvetica,sans-Serif" font-size="10.00">DayWatcherThread::load</text>
<text text-anchor="middle" x="267.5" y="-120.5" font-family="Helvetica,sans-Serif" font-size="10.00">_settings</text>
</a>
</g>
</g>
<!-- Node1&#45;&gt;Node3 -->
<g id="edge2_Node000001_Node000003" class="edge">
<title>Node1&#45;&gt;Node3</title>
<g id="a_edge2_Node000001_Node000003"><a xlink:title=" ">
<path fill="none" stroke="#63b8ff" d="M109.65,-73.09C137.04,-82.77 180.02,-97.95 214.07,-109.98"/>
<polygon fill="#63b8ff" stroke="#63b8ff" points="213.28,-113.41 223.87,-113.44 215.61,-106.81 213.28,-113.41"/>
</a>
</g>
</g>
<!-- Node8 -->
<g id="Node000008" class="node">
<title>Node8</title>
<g id="a_Node000008"><a xlink:href="chrono_8h.html#a206f24de3f0fff46c4daeb318c02a45e" target="_top" xlink:title=" ">
<polygon fill="white" stroke="#666666" points="473,-19 411,-19 411,0 473,0 473,-19"/>
<text text-anchor="middle" x="442" y="-7" font-family="Helvetica,sans-Serif" font-size="10.00">localtime</text>
</a>
</g>
</g>
<!-- Node1&#45;&gt;Node8 -->
<g id="edge7_Node000001_Node000008" class="edge">
<title>Node1&#45;&gt;Node8</title>
<g id="a_edge7_Node000001_Node000008"><a xlink:title=" ">
<path fill="none" stroke="#63b8ff" d="M101.28,-54C123.83,-43.13 163.11,-25.88 199,-18.5 268.83,-4.14 352.32,-4.85 400.74,-6.97"/>
<polygon fill="#63b8ff" stroke="#63b8ff" points="400.66,-10.47 410.82,-7.46 400.99,-3.48 400.66,-10.47"/>
</a>
</g>
</g>
<!-- Node9 -->
<g id="Node000009" class="node">
<title>Node9</title>
<g id="a_Node000009"><a xlink:href="classDayWatcherThread.html#ac5ce80ac0a1770635bd8f422e8b319fe" target="_top" xlink:title=" ">
<polygon fill="white" stroke="#666666" points="333,-57.5 202,-57.5 202,-27.5 333,-27.5 333,-57.5"/>
<text text-anchor="start" x="210" y="-45.5" font-family="Helvetica,sans-Serif" font-size="10.00">DayWatcherThread::set</text>
<text text-anchor="middle" x="267.5" y="-34.5" font-family="Helvetica,sans-Serif" font-size="10.00">_tm_pointers</text>
</a>
</g>
</g>
<!-- Node1&#45;&gt;Node9 -->
<g id="edge8_Node000001_Node000009" class="edge">
<title>Node1&#45;&gt;Node9</title>
<g id="a_edge8_Node000001_Node000009"><a xlink:title=" ">
<path fill="none" stroke="#63b8ff" d="M163.21,-54.29C172.71,-53.2 182.37,-52.1 191.79,-51.03"/>
<polygon fill="#63b8ff" stroke="#63b8ff" points="192.35,-54.49 201.89,-49.87 191.55,-47.53 192.35,-54.49"/>
</a>
</g>
</g>
<!-- Node4 -->
<g id="Node000004" class="node">
<title>Node4</title>
<g id="a_Node000004"><a xlink:href="classDayWatcherThread.html#a39f75b1b655298e4c0084e7cc06b76eb" target="_top" xlink:title=" ">
<polygon fill="white" stroke="#666666" points="507.5,-143.5 376.5,-143.5 376.5,-113.5 507.5,-113.5 507.5,-143.5"/>
<text text-anchor="start" x="384.5" y="-131.5" font-family="Helvetica,sans-Serif" font-size="10.00">DayWatcherThread::get</text>
<text text-anchor="middle" x="442" y="-120.5" font-family="Helvetica,sans-Serif" font-size="10.00">_timeout_from_string</text>
</a>
</g>
</g>
<!-- Node3&#45;&gt;Node4 -->
<g id="edge3_Node000003_Node000004" class="edge">
<title>Node3&#45;&gt;Node4</title>
<g id="a_edge3_Node000003_Node000004"><a xlink:title=" ">
<path fill="none" stroke="#63b8ff" d="M336.18,-128.5C345.99,-128.5 356.13,-128.5 366.07,-128.5"/>
<polygon fill="#63b8ff" stroke="#63b8ff" points="366.33,-132 376.33,-128.5 366.33,-125 366.33,-132"/>
</a>
</g>
</g>
<!-- Node5 -->
<g id="Node000005" class="node">
<title>Node5</title>
<g id="a_Node000005"><a xlink:href="ltm__desc_8c.html#aecfc62c80bd6acc7a95d1391ad8252f7" target="_top" xlink:title=" ">
<polygon fill="white" stroke="#666666" points="607,-138 548,-138 548,-119 607,-119 607,-138"/>
<text text-anchor="middle" x="577.5" y="-126" font-family="Helvetica,sans-Serif" font-size="10.00">compare</text>
</a>
</g>
</g>
<!-- Node4&#45;&gt;Node5 -->
<g id="edge4_Node000004_Node000005" class="edge">
<title>Node4&#45;&gt;Node5</title>
<g id="a_edge4_Node000004_Node000005"><a xlink:title=" ">
<path fill="none" stroke="#63b8ff" d="M507.79,-128.5C518.03,-128.5 528.32,-128.5 537.71,-128.5"/>
<polygon fill="#63b8ff" stroke="#63b8ff" points="537.88,-132 547.88,-128.5 537.88,-125 537.88,-132"/>
</a>
</g>
</g>
<!-- Node6 -->
<g id="Node000006" class="node">
<title>Node6</title>
<g id="a_Node000006"><a xlink:href="bn__mp__cmp_8c.html#aef0e3ca529e27bb381e55bbda6279009" target="_top" xlink:title=" ">
<polygon fill="white" stroke="#666666" points="702,-138 643,-138 643,-119 702,-119 702,-138"/>
<text text-anchor="middle" x="672.5" y="-126" font-family="Helvetica,sans-Serif" font-size="10.00">mp_cmp</text>
</a>
</g>
</g>
<!-- Node5&#45;&gt;Node6 -->
<g id="edge5_Node000005_Node000006" class="edge">
<title>Node5&#45;&gt;Node6</title>
<g id="a_edge5_Node000005_Node000006"><a xlink:title=" ">
<path fill="none" stroke="#63b8ff" d="M607.16,-128.5C615.21,-128.5 624.09,-128.5 632.62,-128.5"/>
<polygon fill="#63b8ff" stroke="#63b8ff" points="632.77,-132 642.77,-128.5 632.77,-125 632.77,-132"/>
</a>
</g>
</g>
<!-- Node7 -->
<g id="Node000007" class="node">
<title>Node7</title>
<g id="a_Node000007"><a xlink:href="bn__mp__cmp__mag_8c.html#a121088764f89bf3b1c563a5d81c8ed9a" target="_top" xlink:title=" ">
<polygon fill="white" stroke="#666666" points="824,-138 738,-138 738,-119 824,-119 824,-138"/>
<text text-anchor="middle" x="781" y="-126" font-family="Helvetica,sans-Serif" font-size="10.00">mp_cmp_mag</text>
</a>
</g>
</g>
<!-- Node6&#45;&gt;Node7 -->
<g id="edge6_Node000006_Node000007" class="edge">
<title>Node6&#45;&gt;Node7</title>
<g id="a_edge6_Node000006_Node000007"><a xlink:title=" ">
<path fill="none" stroke="#63b8ff" d="M702.04,-128.5C709.92,-128.5 718.73,-128.5 727.52,-128.5"/>
<polygon fill="#63b8ff" stroke="#63b8ff" points="727.76,-132 737.76,-128.5 727.76,-125 727.76,-132"/>
</a>
</g>
</g>
<!-- Node9&#45;&gt;Node2 -->
<g id="edge9_Node000009_Node000002" class="edge">
<title>Node9&#45;&gt;Node2</title>
<g id="a_edge9_Node000009_Node000002"><a xlink:title=" ">
<path fill="none" stroke="#63b8ff" d="M333.22,-53.38C342.59,-54.96 352.32,-56.59 361.93,-58.21"/>
<polygon fill="#63b8ff" stroke="#63b8ff" points="361.43,-61.67 371.87,-59.88 362.59,-54.77 361.43,-61.67"/>
</a>
</g>
</g>
<!-- Node9&#45;&gt;Node8 -->
<g id="edge10_Node000009_Node000008" class="edge">
<title>Node9&#45;&gt;Node8</title>
<g id="a_edge10_Node000009_Node000008"><a xlink:title=" ">
<path fill="none" stroke="#63b8ff" d="M333.22,-30.12C355.86,-25.79 380.6,-21.05 400.66,-17.22"/>
<polygon fill="#63b8ff" stroke="#63b8ff" points="401.53,-20.61 410.7,-15.3 400.22,-13.74 401.53,-20.61"/>
</a>
</g>
</g>
</g>
</svg>

<g id="navigator" transform="translate(0 0)" fill="#404254">
  <rect fill="#f2f5e9" fill-opacity="0.5" stroke="#606060" stroke-width=".5" x="0" y="0" width="60" height="60"/>
  <use id="zoomplus" xlink:href="#zoomPlus" x="17" y="9" onmousedown="handleZoom(evt,'in')"/>
  <use id="zoomminus" xlink:href="#zoomMin" x="42" y="9" onmousedown="handleZoom(evt,'out')"/>
  <use id="reset" xlink:href="#resetDef" x="30" y="36" onmousedown="handleReset()"/>
   <use id="arrowup" xlink:href="#arrowUp" x="0" y="0" onmousedown="handlePan(0,-1)"/>
  <use id="arrowright" xlink:href="#arrowRight" x="0" y="0" onmousedown="handlePan(1,0)"/>
  <use id="arrowdown" xlink:href="#arrowDown" x="0" y="0" onmousedown="handlePan(0,1)"/>
  <use id="arrowleft" xlink:href="#arrowLeft" x="0" y="0" onmousedown="handlePan(-1,0)"/>
</g>
<svg viewBox="0 0 15 15" width="100%" height="30px" preserveAspectRatio="xMaxYMin meet">
 <g id="arrow_out" transform="scale(0.3 0.3)">
  <a xlink:href="classDayWatcherThread_aa8855119e590a534a6c1deedb0bb7e06_cgraph_org.svg" target="_base">
   <rect id="button" ry="5" rx="5" y="6" x="6" height="38" width="38"
        fill="#f2f5e9" fill-opacity="0.5" stroke="#606060" stroke-width="1.0"/>
   <path id="arrow"
     d="M 11.500037,31.436501 C 11.940474,20.09759 22.043105,11.32322 32.158766,21.979434 L 37.068811,17.246167 C 37.068811,17.246167 37.088388,32 37.088388,32 L 22.160133,31.978069 C 22.160133,31.978069 26.997745,27.140456 26.997745,27.140456 C 18.528582,18.264221 13.291696,25.230495 11.500037,31.436501 z"
     style="fill:#404040;"/>
  </a>
 </g>
</svg>

<style type='text/css'>
<![CDATA[
[data-mouse-over-selected='false'] { opacity: 0.7; }
[data-mouse-over-selected='true']  { opacity: 1.0; }
]]>
</style>
<script type="application/ecmascript"><![CDATA[
document.addEventListener('DOMContentLoaded', (event) => {
  highlightEdges();
  highlightAdjacentNodes();
});
]]></script>
</svg>
