<?xml version="1.0" encoding="UTF-8" standalone="no"?>
<!DOCTYPE svg PUBLIC "-//W3C//DTD SVG 1.1//EN"
 "http://www.w3.org/Graphics/SVG/1.1/DTD/svg11.dtd">
<!-- Generated by graphviz version 2.43.0 (0)
 -->
<!-- Title: NorthrendBeastsAI::handleInitialMovement Pages: 1 -->
<svg width="616pt" height="64pt"
 viewBox="0.00 0.00 616.00 64.00" xmlns="http://www.w3.org/2000/svg" xmlns:xlink="http://www.w3.org/1999/xlink">
<g id="graph0" class="graph" transform="scale(1 1) rotate(0) translate(4 60)">
<title>NorthrendBeastsAI::handleInitialMovement</title>
<!-- Node1 -->
<g id="Node000001" class="node">
<title>Node1</title>
<g id="a_Node000001"><a xlink:title=" ">
<polygon fill="#999999" stroke="#666666" points="608,-42.5 478,-42.5 478,-12.5 608,-12.5 608,-42.5"/>
<text text-anchor="start" x="486" y="-30.5" font-family="Helvetica,sans-Serif" font-size="10.00">NorthrendBeastsAI::</text>
<text text-anchor="middle" x="543" y="-19.5" font-family="Helvetica,sans-Serif" font-size="10.00">handleInitialMovement</text>
</a>
</g>
</g>
<!-- Node2 -->
<g id="Node000002" class="node">
<title>Node2</title>
<g id="a_Node000002"><a xlink:href="classNorthrendBeastsAI.html#ab662889d680668dc1af45e491fabb173" target="_top" xlink:title=" ">
<polygon fill="white" stroke="#666666" points="442,-42.5 328,-42.5 328,-12.5 442,-12.5 442,-42.5"/>
<text text-anchor="start" x="336" y="-30.5" font-family="Helvetica,sans-Serif" font-size="10.00">NorthrendBeastsAI::</text>
<text text-anchor="middle" x="385" y="-19.5" font-family="Helvetica,sans-Serif" font-size="10.00">initialMove</text>
</a>
</g>
</g>
<!-- Node1&#45;&gt;Node2 -->
<g id="edge1_Node000001_Node000002" class="edge">
<title>Node1&#45;&gt;Node2</title>
<g id="a_edge1_Node000001_Node000002"><a xlink:title=" ">
<path fill="none" stroke="#63b8ff" d="M467.38,-27.5C458.92,-27.5 450.4,-27.5 442.23,-27.5"/>
<polygon fill="#63b8ff" stroke="#63b8ff" points="467.65,-31 477.65,-27.5 467.65,-24 467.65,-31"/>
</a>
</g>
</g>
<!-- Node3 -->
<g id="Node000003" class="node">
<title>Node3</title>
<g id="a_Node000003"><a xlink:href="classNorthrendBeastsAI.html#a581b314a35b29b7ba515b59a2f5fbb90" target="_top" xlink:title=" ">
<polygon fill="white" stroke="#666666" points="292,-42.5 178,-42.5 178,-12.5 292,-12.5 292,-42.5"/>
<text text-anchor="start" x="186" y="-30.5" font-family="Helvetica,sans-Serif" font-size="10.00">NorthrendBeastsAI::</text>
<text text-anchor="middle" x="235" y="-19.5" font-family="Helvetica,sans-Serif" font-size="10.00">InitOrReset</text>
</a>
</g>
</g>
<!-- Node2&#45;&gt;Node3 -->
<g id="edge2_Node000002_Node000003" class="edge">
<title>Node2&#45;&gt;Node3</title>
<g id="a_edge2_Node000002_Node000003"><a xlink:title=" ">
<path fill="none" stroke="#63b8ff" d="M317.44,-27.5C309.02,-27.5 300.46,-27.5 292.22,-27.5"/>
<polygon fill="#63b8ff" stroke="#63b8ff" points="317.63,-31 327.63,-27.5 317.63,-24 317.63,-31"/>
</a>
</g>
</g>
<!-- Node4 -->
<g id="Node000004" class="node">
<title>Node4</title>
<g id="a_Node000004"><a xlink:href="classDreadscaleAI.html#a2e5e32035d9c76a98cc51322fc998d07" target="_top" xlink:title=" ">
<polygon fill="white" stroke="#666666" points="142,-56 0,-56 0,-37 142,-37 142,-56"/>
<text text-anchor="middle" x="71" y="-44" font-family="Helvetica,sans-Serif" font-size="10.00">DreadscaleAI::InitOrReset</text>
</a>
</g>
</g>
<!-- Node3&#45;&gt;Node4 -->
<g id="edge3_Node000003_Node000004" class="edge">
<title>Node3&#45;&gt;Node4</title>
<g id="a_edge3_Node000003_Node000004"><a xlink:title=" ">
<path fill="none" stroke="#63b8ff" d="M167.65,-35.28C159.22,-36.27 150.58,-37.28 142.09,-38.28"/>
<polygon fill="#63b8ff" stroke="#63b8ff" points="168.27,-38.73 177.79,-34.09 167.46,-31.78 168.27,-38.73"/>
</a>
</g>
</g>
<!-- Node5 -->
<g id="Node000005" class="node">
<title>Node5</title>
<g id="a_Node000005"><a xlink:href="classAcidmawAI.html#a2314c2e8455b47ab4d48f3100bb6662e" target="_top" xlink:title=" ">
<polygon fill="white" stroke="#666666" points="137,-19 5,-19 5,0 137,0 137,-19"/>
<text text-anchor="middle" x="71" y="-7" font-family="Helvetica,sans-Serif" font-size="10.00">AcidmawAI::InitOrReset</text>
</a>
</g>
</g>
<!-- Node3&#45;&gt;Node5 -->
<g id="edge4_Node000003_Node000005" class="edge">
<title>Node3&#45;&gt;Node5</title>
<g id="a_edge4_Node000003_Node000005"><a xlink:title=" ">
<path fill="none" stroke="#63b8ff" d="M167.77,-20.14C157.61,-19.01 147.13,-17.85 137,-16.72"/>
<polygon fill="#63b8ff" stroke="#63b8ff" points="167.47,-23.63 177.79,-21.25 168.24,-16.67 167.47,-23.63"/>
</a>
</g>
</g>
</g>
</svg>
