<?xml version="1.0" encoding="UTF-8" standalone="no"?>
<!DOCTYPE svg PUBLIC "-//W3C//DTD SVG 1.1//EN"
 "http://www.w3.org/Graphics/SVG/1.1/DTD/svg11.dtd">
<!-- Generated by graphviz version 2.43.0 (0)
 -->
<!-- Title: G3D::KDTree::contains Pages: 1 -->
<svg width="470pt" height="139pt"
 viewBox="0.00 0.00 470.00 139.00" xmlns="http://www.w3.org/2000/svg" xmlns:xlink="http://www.w3.org/1999/xlink">
<g id="graph0" class="graph" transform="scale(1 1) rotate(0) translate(4 135)">
<title>G3D::KDTree::contains</title>
<!-- Node1 -->
<g id="Node000001" class="node">
<title>Node1</title>
<g id="a_Node000001"><a xlink:title=" ">
<polygon fill="#999999" stroke="#666666" points="462,-57 337,-57 337,-38 462,-38 462,-57"/>
<text text-anchor="middle" x="399.5" y="-45" font-family="Helvetica,sans-Serif" font-size="10.00">G3D::KDTree::contains</text>
</a>
</g>
</g>
<!-- Node2 -->
<g id="Node000002" class="node">
<title>Node2</title>
<g id="a_Node000002"><a xlink:href="classG3D_1_1KDTree.html#a123584d0d7b24cae03644e35249892d3" target="_top" xlink:title=" ">
<polygon fill="white" stroke="#666666" points="296,-95 184,-95 184,-76 296,-76 296,-95"/>
<text text-anchor="middle" x="240" y="-83" font-family="Helvetica,sans-Serif" font-size="10.00">G3D::KDTree::insert</text>
</a>
</g>
</g>
<!-- Node1&#45;&gt;Node2 -->
<g id="edge1_Node000001_Node000002" class="edge">
<title>Node1&#45;&gt;Node2</title>
<g id="a_edge1_Node000001_Node000002"><a xlink:title=" ">
<path fill="none" stroke="#63b8ff" d="M348.9,-59.47C326.82,-64.79 301.2,-70.98 280.46,-75.98"/>
<polygon fill="#63b8ff" stroke="#63b8ff" points="349.86,-62.84 358.76,-57.09 348.21,-56.03 349.86,-62.84"/>
</a>
</g>
</g>
<!-- Node5 -->
<g id="Node000005" class="node">
<title>Node5</title>
<g id="a_Node000005"><a xlink:href="classG3D_1_1KDTree.html#a6717d5d15e096cb53af03b88050b116e" target="_top" xlink:title=" ">
<polygon fill="white" stroke="#666666" points="130.5,-57 12.5,-57 12.5,-38 130.5,-38 130.5,-57"/>
<text text-anchor="middle" x="71.5" y="-45" font-family="Helvetica,sans-Serif" font-size="10.00">G3D::KDTree::update</text>
</a>
</g>
</g>
<!-- Node1&#45;&gt;Node5 -->
<g id="edge7_Node000001_Node000005" class="edge">
<title>Node1&#45;&gt;Node5</title>
<g id="a_edge7_Node000001_Node000005"><a xlink:title=" ">
<path fill="none" stroke="#63b8ff" d="M326.46,-47.5C267.58,-47.5 185.41,-47.5 130.66,-47.5"/>
<polygon fill="#63b8ff" stroke="#63b8ff" points="326.8,-51 336.8,-47.5 326.8,-44 326.8,-51"/>
</a>
</g>
</g>
<!-- Node6 -->
<g id="Node000006" class="node">
<title>Node6</title>
<g id="a_Node000006"><a xlink:href="classG3D_1_1KDTree.html#a739c5a93a109f2108be49935f6699e62" target="_top" xlink:title=" ">
<polygon fill="white" stroke="#666666" points="301,-19 179,-19 179,0 301,0 301,-19"/>
<text text-anchor="middle" x="240" y="-7" font-family="Helvetica,sans-Serif" font-size="10.00">G3D::KDTree::remove</text>
</a>
</g>
</g>
<!-- Node1&#45;&gt;Node6 -->
<g id="edge5_Node000001_Node000006" class="edge">
<title>Node1&#45;&gt;Node6</title>
<g id="a_edge5_Node000001_Node000006"><a xlink:title=" ">
<path fill="none" stroke="#63b8ff" d="M348.9,-35.53C326.82,-30.21 301.2,-24.02 280.46,-19.02"/>
<polygon fill="#63b8ff" stroke="#63b8ff" points="348.21,-38.97 358.76,-37.91 349.86,-32.16 348.21,-38.97"/>
</a>
</g>
</g>
<!-- Node3 -->
<g id="Node000003" class="node">
<title>Node3</title>
<g id="a_Node000003"><a xlink:href="classG3D_1_1KDTree.html#a21b199944ac538cd1ee751868f8bc28d" target="_top" xlink:title=" ">
<polygon fill="white" stroke="#666666" points="127.5,-131 15.5,-131 15.5,-112 127.5,-112 127.5,-131"/>
<text text-anchor="middle" x="71.5" y="-119" font-family="Helvetica,sans-Serif" font-size="10.00">G3D::KDTree::insert</text>
</a>
</g>
</g>
<!-- Node2&#45;&gt;Node3 -->
<g id="edge2_Node000002_Node000003" class="edge">
<title>Node2&#45;&gt;Node3</title>
<g id="a_edge2_Node000002_Node000003"><a xlink:title=" ">
<path fill="none" stroke="#63b8ff" d="M184.91,-97.2C162.8,-101.97 137.56,-107.43 116.6,-111.97"/>
<polygon fill="#63b8ff" stroke="#63b8ff" points="185.78,-100.59 194.82,-95.05 184.3,-93.75 185.78,-100.59"/>
</a>
</g>
</g>
<!-- Node4 -->
<g id="Node000004" class="node">
<title>Node4</title>
<g id="a_Node000004"><a xlink:href="classG3D_1_1KDTree.html#a63839bda2d6dbfb182ab9c9e927b3d2d" target="_top" xlink:title=" ">
<polygon fill="white" stroke="#666666" points="143,-94 0,-94 0,-75 143,-75 143,-94"/>
<text text-anchor="middle" x="71.5" y="-82" font-family="Helvetica,sans-Serif" font-size="10.00">G3D::KDTree::setContents</text>
</a>
</g>
</g>
<!-- Node2&#45;&gt;Node4 -->
<g id="edge3_Node000002_Node000004" class="edge">
<title>Node2&#45;&gt;Node4</title>
<g id="a_edge3_Node000002_Node000004"><a xlink:title=" ">
<path fill="none" stroke="#63b8ff" d="M173.36,-85.11C163.42,-85.05 153.14,-84.98 143.1,-84.92"/>
<polygon fill="#63b8ff" stroke="#63b8ff" points="173.54,-88.61 183.56,-85.17 173.58,-81.61 173.54,-88.61"/>
</a>
</g>
</g>
<!-- Node2&#45;&gt;Node5 -->
<g id="edge4_Node000002_Node000005" class="edge">
<title>Node2&#45;&gt;Node5</title>
<g id="a_edge4_Node000002_Node000005"><a xlink:title=" ">
<path fill="none" stroke="#63b8ff" d="M187.19,-73.68C163.72,-68.32 136.33,-62.07 114.21,-57.02"/>
<polygon fill="#63b8ff" stroke="#63b8ff" points="186.46,-77.1 196.99,-75.91 188.01,-70.27 186.46,-77.1"/>
</a>
</g>
</g>
<!-- Node6&#45;&gt;Node5 -->
<g id="edge6_Node000006_Node000005" class="edge">
<title>Node6&#45;&gt;Node5</title>
<g id="a_edge6_Node000006_Node000005"><a xlink:title=" ">
<path fill="none" stroke="#63b8ff" d="M187.19,-21.32C163.72,-26.68 136.33,-32.93 114.21,-37.98"/>
<polygon fill="#63b8ff" stroke="#63b8ff" points="188.01,-24.73 196.99,-19.09 186.46,-17.9 188.01,-24.73"/>
</a>
</g>
</g>
</g>
</svg>
