<?xml version="1.0" encoding="UTF-8" standalone="no"?>
<!DOCTYPE svg PUBLIC "-//W3C//DTD SVG 1.1//EN"
 "http://www.w3.org/Graphics/SVG/1.1/DTD/svg11.dtd">
<!-- Generated by graphviz version 2.43.0 (0)
 -->
<!-- Title: WorldSession::readAddonInfoPacket Pages: 1 -->
<svg width="356pt" height="175pt"
 viewBox="0.00 0.00 356.00 175.00" xmlns="http://www.w3.org/2000/svg" xmlns:xlink="http://www.w3.org/1999/xlink">
<g id="graph0" class="graph" transform="scale(1 1) rotate(0) translate(4 171)">
<title>WorldSession::readAddonInfoPacket</title>
<!-- Node1 -->
<g id="Node000001" class="node">
<title>Node1</title>
<g id="a_Node000001"><a xlink:title=" ">
<polygon fill="#999999" stroke="#666666" points="159,-98.5 0,-98.5 0,-68.5 159,-68.5 159,-98.5"/>
<text text-anchor="start" x="8" y="-86.5" font-family="Helvetica,sans-Serif" font-size="10.00">WorldSession::readAddonInfo</text>
<text text-anchor="middle" x="79.5" y="-75.5" font-family="Helvetica,sans-Serif" font-size="10.00">Packet</text>
</a>
</g>
</g>
<!-- Node2 -->
<g id="Node000002" class="node">
<title>Node2</title>
<g id="a_Node000002"><a xlink:href="classByteBuffer.html#a8d712af2767c7ca45de60bd9d85738d8" target="_top" xlink:title=" ">
<polygon fill="white" stroke="#666666" points="329.5,-167 213.5,-167 213.5,-148 329.5,-148 329.5,-167"/>
<text text-anchor="middle" x="271.5" y="-155" font-family="Helvetica,sans-Serif" font-size="10.00">ByteBuffer::contents</text>
</a>
</g>
</g>
<!-- Node1&#45;&gt;Node2 -->
<g id="edge1_Node000001_Node000002" class="edge">
<title>Node1&#45;&gt;Node2</title>
<g id="a_edge1_Node000001_Node000002"><a xlink:title=" ">
<path fill="none" stroke="#63b8ff" d="M107.07,-98.59C129.82,-110.99 163.76,-128.29 195,-139.5 200.91,-141.62 207.17,-143.56 213.46,-145.33"/>
<polygon fill="#63b8ff" stroke="#63b8ff" points="212.75,-148.76 223.31,-147.95 214.54,-142 212.75,-148.76"/>
</a>
</g>
</g>
<!-- Node3 -->
<g id="Node000003" class="node">
<title>Node3</title>
<g id="a_Node000003"><a xlink:href="classWorldSession.html#a1f1da993370f8057991ff448345b6cc3" target="_top" xlink:title=" ">
<polygon fill="white" stroke="#666666" points="348,-130 195,-130 195,-111 348,-111 348,-130"/>
<text text-anchor="middle" x="271.5" y="-118" font-family="Helvetica,sans-Serif" font-size="10.00">WorldSession::GetAccountId</text>
</a>
</g>
</g>
<!-- Node1&#45;&gt;Node3 -->
<g id="edge2_Node000001_Node000003" class="edge">
<title>Node1&#45;&gt;Node3</title>
<g id="a_edge2_Node000001_Node000003"><a xlink:title=" ">
<path fill="none" stroke="#63b8ff" d="M157.78,-98.55C175.82,-102.06 194.73,-105.75 211.81,-109.07"/>
<polygon fill="#63b8ff" stroke="#63b8ff" points="211.15,-112.51 221.63,-110.98 212.49,-105.64 211.15,-112.51"/>
</a>
</g>
</g>
<!-- Node4 -->
<g id="Node000004" class="node">
<title>Node4</title>
<g id="a_Node000004"><a xlink:href="classByteBuffer.html#a4062fd07fb3de1b099c21fe98e73751c" target="_top" xlink:title=" ">
<polygon fill="white" stroke="#666666" points="323.5,-93 219.5,-93 219.5,-74 323.5,-74 323.5,-93"/>
<text text-anchor="middle" x="271.5" y="-81" font-family="Helvetica,sans-Serif" font-size="10.00">ByteBuffer::resize</text>
</a>
</g>
</g>
<!-- Node1&#45;&gt;Node4 -->
<g id="edge3_Node000001_Node000004" class="edge">
<title>Node1&#45;&gt;Node4</title>
<g id="a_edge3_Node000001_Node000004"><a xlink:title=" ">
<path fill="none" stroke="#63b8ff" d="M159.15,-83.5C175.82,-83.5 193.17,-83.5 209.09,-83.5"/>
<polygon fill="#63b8ff" stroke="#63b8ff" points="209.32,-87 219.32,-83.5 209.32,-80 209.32,-87"/>
</a>
</g>
</g>
<!-- Node5 -->
<g id="Node000005" class="node">
<title>Node5</title>
<g id="a_Node000005"><a xlink:href="classByteBuffer.html#a7e57b041b6461514a73bed480707c790" target="_top" xlink:title=" ">
<polygon fill="white" stroke="#666666" points="319,-56 224,-56 224,-37 319,-37 319,-56"/>
<text text-anchor="middle" x="271.5" y="-44" font-family="Helvetica,sans-Serif" font-size="10.00">ByteBuffer::rpos</text>
</a>
</g>
</g>
<!-- Node1&#45;&gt;Node5 -->
<g id="edge4_Node000001_Node000005" class="edge">
<title>Node1&#45;&gt;Node5</title>
<g id="a_edge4_Node000001_Node000005"><a xlink:title=" ">
<path fill="none" stroke="#63b8ff" d="M157.78,-68.45C176.5,-64.8 196.18,-60.97 213.75,-57.55"/>
<polygon fill="#63b8ff" stroke="#63b8ff" points="214.69,-60.93 223.84,-55.59 213.35,-54.06 214.69,-60.93"/>
</a>
</g>
</g>
<!-- Node6 -->
<g id="Node000006" class="node">
<title>Node6</title>
<g id="a_Node000006"><a xlink:href="classByteBuffer.html#ac06a598447807d32f6594a97a32bce94" target="_top" xlink:title=" ">
<polygon fill="white" stroke="#666666" points="318.5,-19 224.5,-19 224.5,0 318.5,0 318.5,-19"/>
<text text-anchor="middle" x="271.5" y="-7" font-family="Helvetica,sans-Serif" font-size="10.00">ByteBuffer::size</text>
</a>
</g>
</g>
<!-- Node1&#45;&gt;Node6 -->
<g id="edge5_Node000001_Node000006" class="edge">
<title>Node1&#45;&gt;Node6</title>
<g id="a_edge5_Node000001_Node000006"><a xlink:title=" ">
<path fill="none" stroke="#63b8ff" d="M108.05,-68.32C130.84,-56.25 164.31,-39.6 195,-28.5 201.82,-26.03 209.09,-23.77 216.33,-21.72"/>
<polygon fill="#63b8ff" stroke="#63b8ff" points="217.39,-25.06 226.13,-19.08 215.57,-18.3 217.39,-25.06"/>
</a>
</g>
</g>
</g>
</svg>
