<?xml version="1.0" encoding="UTF-8" standalone="no"?>
<!DOCTYPE svg PUBLIC "-//W3C//DTD SVG 1.1//EN"
 "http://www.w3.org/Graphics/SVG/1.1/DTD/svg11.dtd">
<!-- Generated by graphviz version 2.43.0 (0)
 -->
<!-- Title: Database::queryBufferRunAllQueries Pages: 1 -->
<!--zoomable 192 -->

<svg id="main" version="1.1" xmlns="http://www.w3.org/2000/svg" xmlns:xlink="http://www.w3.org/1999/xlink" xml:space="preserve" onload="init(evt)">
<style type="text/css"><![CDATA[
.node, .edge {opacity: 0.7;}
.node.selected, .edge.selected {opacity: 1;}
.edge:hover path { stroke: red; }
.edge:hover polygon { stroke: red; fill: red; }
]]></style>

<defs>
  <circle id="rim" cx="0" cy="0" r="7"/>
  <circle id="rim2" cx="0" cy="0" r="3.5"/>
  <g id="zoomPlus">
    <use xlink:href="#rim" fill="#404040"><set attributeName="fill" to="#808080" begin="zoomplus.mouseover" end="zoomplus.mouseout"/></use>
    <path d="M-4,0h8M0,-4v8" fill="none" stroke="white" stroke-width="1.5" pointer-events="none"/>
  </g>
  <g id="zoomMin">
    <use xlink:href="#rim" fill="#404040"><set attributeName="fill" to="#808080" begin="zoomminus.mouseover" end="zoomminus.mouseout"/></use>
    <path d="M-4,0h8" fill="none" stroke="white" stroke-width="1.5" pointer-events="none"/>
  </g>
  <g id="arrowUp" transform="translate(30 24)">
    <use xlink:href="#rim"/>
    <path pointer-events="none" fill="none" stroke="white" stroke-width="1.5" d="M0,-3.0v7 M-2.5,-0.5L0,-3.0L2.5,-0.5"/>
  </g>
  <g id="arrowRight" transform="rotate(90) translate(36 -43)">
    <use xlink:href="#rim"/>
    <path pointer-events="none" fill="none" stroke="white" stroke-width="1.5" d="M0,-3.0v7 M-2.5,-0.5L0,-3.0L2.5,-0.5"/>
  </g>
  <g id="arrowDown" transform="rotate(180) translate(-30 -48)">
    <use xlink:href="#rim"/>
    <path pointer-events="none" fill="none" stroke="white" stroke-width="1.5" d="M0,-3.0v7 M-2.5,-0.5L0,-3.0L2.5,-0.5"/>
  </g>
  <g id="arrowLeft" transform="rotate(270) translate(-36 17)">
    <use xlink:href="#rim"/>
    <path pointer-events="none" fill="none" stroke="white" stroke-width="1.5" d="M0,-3.0v7 M-2.5,-0.5L0,-3.0L2.5,-0.5"/>
  </g>
  <g id="resetDef">
    <use xlink:href="#rim2" fill="#404040"><set attributeName="fill" to="#808080" begin="reset.mouseover" end="reset.mouseout"/></use>
  </g>
</defs>
<script type="application/ecmascript">
var viewWidth = 719;
var viewHeight = 192;
var sectionId = 'dynsection-40';
</script>
<script type="application/ecmascript" xlink:href="svg.min.js"/>
<svg id="graph" class="graph">
<g id="viewport">
<title>Database::queryBufferRunAllQueries</title>
<!-- Node1 -->
<g id="Node000001" class="node">
<title>Node1</title>
<g id="a_Node000001"><a xlink:title=" ">
<polygon fill="#999999" stroke="#666666" points="145,-113.5 0,-113.5 0,-83.5 145,-83.5 145,-113.5"/>
<text text-anchor="start" x="8" y="-101.5" font-family="Helvetica,sans-Serif" font-size="10.00">Database::queryBufferRun</text>
<text text-anchor="middle" x="72.5" y="-90.5" font-family="Helvetica,sans-Serif" font-size="10.00">AllQueries</text>
</a>
</g>
</g>
<!-- Node2 -->
<g id="Node000002" class="node">
<title>Node2</title>
<g id="a_Node000002"><a xlink:href="classDatabase.html#a0514bbd79adceb1d8bf2e5fd2e6362b2" target="_top" xlink:title=" ">
<polygon fill="white" stroke="#666666" points="343.5,-183.5 185.5,-183.5 185.5,-153.5 343.5,-153.5 343.5,-183.5"/>
<text text-anchor="start" x="193.5" y="-171.5" font-family="Helvetica,sans-Serif" font-size="10.00">Database::createQueryBuffer</text>
<text text-anchor="middle" x="264.5" y="-160.5" font-family="Helvetica,sans-Serif" font-size="10.00">Connection</text>
</a>
</g>
</g>
<!-- Node1&#45;&gt;Node2 -->
<g id="edge1_Node000001_Node000002" class="edge">
<title>Node1&#45;&gt;Node2</title>
<g id="a_edge1_Node000001_Node000002"><a xlink:title=" ">
<path fill="none" stroke="#63b8ff" d="M106.02,-113.64C127.14,-123.16 155.39,-135.33 181,-144.5 186.58,-146.5 192.41,-148.45 198.29,-150.33"/>
<polygon fill="#63b8ff" stroke="#63b8ff" points="197.59,-153.78 208.17,-153.41 199.67,-147.09 197.59,-153.78"/>
</a>
</g>
</g>
<!-- Node5 -->
<g id="Node000005" class="node">
<title>Node5</title>
<g id="a_Node000005"><a xlink:href="classDatabase.html#aada9b56e8c678e672dfd97dcd3b1e63b" target="_top" xlink:title=" ">
<polygon fill="white" stroke="#666666" points="346.5,-135.5 182.5,-135.5 182.5,-105.5 346.5,-105.5 346.5,-135.5"/>
<text text-anchor="start" x="190.5" y="-123.5" font-family="Helvetica,sans-Serif" font-size="10.00">Database::destroyQueryBuffer</text>
<text text-anchor="middle" x="264.5" y="-112.5" font-family="Helvetica,sans-Serif" font-size="10.00">Connection</text>
</a>
</g>
</g>
<!-- Node1&#45;&gt;Node5 -->
<g id="edge4_Node000001_Node000005" class="edge">
<title>Node1&#45;&gt;Node5</title>
<g id="a_edge4_Node000001_Node000005"><a xlink:title=" ">
<path fill="none" stroke="#63b8ff" d="M145.06,-106.79C154.02,-107.82 163.28,-108.9 172.49,-109.96"/>
<polygon fill="#63b8ff" stroke="#63b8ff" points="172.11,-113.44 182.44,-111.11 172.91,-106.49 172.11,-113.44"/>
</a>
</g>
</g>
<!-- Node7 -->
<g id="Node000007" class="node">
<title>Node7</title>
<g id="a_Node000007"><a xlink:href="classDatabase.html#affa9800e4c328344ac6cfbcd6bd56e73" target="_top" xlink:title=" ">
<polygon fill="white" stroke="#666666" points="348,-87 181,-87 181,-68 348,-68 348,-87"/>
<text text-anchor="middle" x="264.5" y="-75" font-family="Helvetica,sans-Serif" font-size="10.00">Database::PerformQueryBuffer</text>
</a>
</g>
</g>
<!-- Node1&#45;&gt;Node7 -->
<g id="edge6_Node000001_Node000007" class="edge">
<title>Node1&#45;&gt;Node7</title>
<g id="a_edge6_Node000001_Node000007"><a xlink:title=" ">
<path fill="none" stroke="#63b8ff" d="M145.06,-90.59C153.45,-89.66 162.11,-88.71 170.73,-87.75"/>
<polygon fill="#63b8ff" stroke="#63b8ff" points="171.28,-91.21 180.83,-86.64 170.51,-84.26 171.28,-91.21"/>
</a>
</g>
</g>
<!-- Node11 -->
<g id="Node000011" class="node">
<title>Node11</title>
<g id="a_Node000011"><a xlink:href="classThreadSafeQueue.html#af63a11e90a58a5988cfe41a5d6aea73d" target="_top" xlink:title=" ">
<polygon fill="white" stroke="#666666" points="328.5,-50 200.5,-50 200.5,-31 328.5,-31 328.5,-50"/>
<text text-anchor="middle" x="264.5" y="-38" font-family="Helvetica,sans-Serif" font-size="10.00">ThreadSafeQueue::pop</text>
</a>
</g>
</g>
<!-- Node1&#45;&gt;Node11 -->
<g id="edge12_Node000001_Node000011" class="edge">
<title>Node1&#45;&gt;Node11</title>
<g id="a_edge12_Node000001_Node000011"><a xlink:title=" ">
<path fill="none" stroke="#63b8ff" d="M111.43,-83.46C131.85,-75.69 157.58,-66.42 181,-59.5 189.5,-56.99 198.57,-54.61 207.48,-52.43"/>
<polygon fill="#63b8ff" stroke="#63b8ff" points="208.5,-55.79 217.42,-50.07 206.88,-48.98 208.5,-55.79"/>
</a>
</g>
</g>
<!-- Node3 -->
<g id="Node000003" class="node">
<title>Node3</title>
<g id="a_Node000003"><a xlink:href="classDatabase.html#a400a64e1a900a28f3abf2363f17ac30c" target="_top" xlink:title=" ">
<polygon fill="white" stroke="#666666" points="546,-173 384,-173 384,-154 546,-154 546,-173"/>
<text text-anchor="middle" x="465" y="-161" font-family="Helvetica,sans-Serif" font-size="10.00">Database::GetFreeConnection</text>
</a>
</g>
</g>
<!-- Node2&#45;&gt;Node3 -->
<g id="edge2_Node000002_Node000003" class="edge">
<title>Node2&#45;&gt;Node3</title>
<g id="a_edge2_Node000002_Node000003"><a xlink:title=" ">
<path fill="none" stroke="#63b8ff" d="M343.67,-166.53C353.59,-166.28 363.82,-166.02 373.91,-165.77"/>
<polygon fill="#63b8ff" stroke="#63b8ff" points="374.04,-169.27 383.95,-165.52 373.86,-162.27 374.04,-169.27"/>
</a>
</g>
</g>
<!-- Node4 -->
<g id="Node000004" class="node">
<title>Node4</title>
<g id="a_Node000004"><a xlink:href="classMutex.html#a3828547015b9172a5fc24c003098e8f1" target="_top" xlink:title=" ">
<polygon fill="white" stroke="#666666" points="711,-173 582,-173 582,-154 711,-154 711,-173"/>
<text text-anchor="middle" x="646.5" y="-161" font-family="Helvetica,sans-Serif" font-size="10.00">Mutex::attemptAcquire</text>
</a>
</g>
</g>
<!-- Node3&#45;&gt;Node4 -->
<g id="edge3_Node000003_Node000004" class="edge">
<title>Node3&#45;&gt;Node4</title>
<g id="a_edge3_Node000003_Node000004"><a xlink:title=" ">
<path fill="none" stroke="#63b8ff" d="M546.04,-163.5C554.55,-163.5 563.17,-163.5 571.6,-163.5"/>
<polygon fill="#63b8ff" stroke="#63b8ff" points="571.77,-167 581.77,-163.5 571.77,-160 571.77,-167"/>
</a>
</g>
</g>
<!-- Node6 -->
<g id="Node000006" class="node">
<title>Node6</title>
<g id="a_Node000006"><a xlink:href="classMutex.html#ad43ff97f225007f2fbb0da2e98676b07" target="_top" xlink:title=" ">
<polygon fill="white" stroke="#666666" points="509.5,-130 420.5,-130 420.5,-111 509.5,-111 509.5,-130"/>
<text text-anchor="middle" x="465" y="-118" font-family="Helvetica,sans-Serif" font-size="10.00">Mutex::release</text>
</a>
</g>
</g>
<!-- Node5&#45;&gt;Node6 -->
<g id="edge5_Node000005_Node000006" class="edge">
<title>Node5&#45;&gt;Node6</title>
<g id="a_edge5_Node000005_Node000006"><a xlink:title=" ">
<path fill="none" stroke="#63b8ff" d="M346.52,-120.5C367.97,-120.5 390.59,-120.5 410.19,-120.5"/>
<polygon fill="#63b8ff" stroke="#63b8ff" points="410.45,-124 420.45,-120.5 410.45,-117 410.45,-124"/>
</a>
</g>
</g>
<!-- Node7&#45;&gt;Node3 -->
<g id="edge10_Node000007_Node000003" class="edge">
<title>Node7&#45;&gt;Node3</title>
<g id="a_edge10_Node000007_Node000003"><a xlink:title=" ">
<path fill="none" stroke="#63b8ff" d="M327.19,-87C334.49,-89.47 341.61,-92.58 348,-96.5 369.25,-109.53 363.19,-125.79 384,-139.5 390.8,-143.98 398.47,-147.65 406.29,-150.65"/>
<polygon fill="#63b8ff" stroke="#63b8ff" points="405.28,-154 415.87,-153.99 407.58,-147.39 405.28,-154"/>
</a>
</g>
</g>
<!-- Node7&#45;&gt;Node6 -->
<g id="edge11_Node000007_Node000006" class="edge">
<title>Node7&#45;&gt;Node6</title>
<g id="a_edge11_Node000007_Node000006"><a xlink:title=" ">
<path fill="none" stroke="#63b8ff" d="M309.55,-87.04C339.34,-93.5 378.85,-102.05 410.45,-108.9"/>
<polygon fill="#63b8ff" stroke="#63b8ff" points="409.9,-112.36 420.41,-111.06 411.38,-105.52 409.9,-112.36"/>
</a>
</g>
</g>
<!-- Node8 -->
<g id="Node000008" class="node">
<title>Node8</title>
<g id="a_Node000008"><a xlink:href="classDatabase.html#a0a67f9e3baeb2356b10daa59ebc5c285" target="_top" xlink:title=" ">
<polygon fill="white" stroke="#666666" points="544,-93 386,-93 386,-74 544,-74 544,-93"/>
<text text-anchor="middle" x="465" y="-81" font-family="Helvetica,sans-Serif" font-size="10.00">Database::_BeginTransaction</text>
</a>
</g>
</g>
<!-- Node7&#45;&gt;Node8 -->
<g id="edge7_Node000007_Node000008" class="edge">
<title>Node7&#45;&gt;Node8</title>
<g id="a_edge7_Node000007_Node000008"><a xlink:title=" ">
<path fill="none" stroke="#63b8ff" d="M348.24,-80C357.29,-80.27 366.52,-80.55 375.63,-80.83"/>
<polygon fill="#63b8ff" stroke="#63b8ff" points="375.74,-84.33 385.84,-81.14 375.95,-77.34 375.74,-84.33"/>
</a>
</g>
</g>
<!-- Node9 -->
<g id="Node000009" class="node">
<title>Node9</title>
<g id="a_Node000009"><a xlink:href="classDatabase.html#acb2170994ec063862e3ed252ca9e3019" target="_top" xlink:title=" ">
<polygon fill="white" stroke="#666666" points="539,-56 391,-56 391,-37 539,-37 539,-56"/>
<text text-anchor="middle" x="465" y="-44" font-family="Helvetica,sans-Serif" font-size="10.00">Database::_EndTransaction</text>
</a>
</g>
</g>
<!-- Node7&#45;&gt;Node9 -->
<g id="edge8_Node000007_Node000009" class="edge">
<title>Node7&#45;&gt;Node9</title>
<g id="a_edge8_Node000007_Node000009"><a xlink:title=" ">
<path fill="none" stroke="#63b8ff" d="M326.41,-67.99C347.36,-64.72 371.01,-61.02 392.72,-57.63"/>
<polygon fill="#63b8ff" stroke="#63b8ff" points="393.53,-61.05 402.87,-56.05 392.45,-54.13 393.53,-61.05"/>
</a>
</g>
</g>
<!-- Node10 -->
<g id="Node000010" class="node">
<title>Node10</title>
<g id="a_Node000010"><a xlink:href="classDatabase.html#a2de1a140e2328cf84ddccf4ad930cb1a" target="_top" xlink:title=" ">
<polygon fill="white" stroke="#666666" points="529,-19 401,-19 401,0 529,0 529,-19"/>
<text text-anchor="middle" x="465" y="-7" font-family="Helvetica,sans-Serif" font-size="10.00">Database::_SendQuery</text>
</a>
</g>
</g>
<!-- Node7&#45;&gt;Node10 -->
<g id="edge9_Node000007_Node000010" class="edge">
<title>Node7&#45;&gt;Node10</title>
<g id="a_edge9_Node000007_Node000010"><a xlink:title=" ">
<path fill="none" stroke="#63b8ff" d="M326.66,-67.88C334.05,-65.65 341.34,-62.89 348,-59.5 367.08,-49.79 364.95,-37.27 384,-27.5 387.78,-25.56 391.76,-23.83 395.85,-22.29"/>
<polygon fill="#63b8ff" stroke="#63b8ff" points="397.18,-25.53 405.53,-19.01 394.94,-18.9 397.18,-25.53"/>
</a>
</g>
</g>
</g>
</svg>

<g id="navigator" transform="translate(0 0)" fill="#404254">
  <rect fill="#f2f5e9" fill-opacity="0.5" stroke="#606060" stroke-width=".5" x="0" y="0" width="60" height="60"/>
  <use id="zoomplus" xlink:href="#zoomPlus" x="17" y="9" onmousedown="handleZoom(evt,'in')"/>
  <use id="zoomminus" xlink:href="#zoomMin" x="42" y="9" onmousedown="handleZoom(evt,'out')"/>
  <use id="reset" xlink:href="#resetDef" x="30" y="36" onmousedown="handleReset()"/>
   <use id="arrowup" xlink:href="#arrowUp" x="0" y="0" onmousedown="handlePan(0,-1)"/>
  <use id="arrowright" xlink:href="#arrowRight" x="0" y="0" onmousedown="handlePan(1,0)"/>
  <use id="arrowdown" xlink:href="#arrowDown" x="0" y="0" onmousedown="handlePan(0,1)"/>
  <use id="arrowleft" xlink:href="#arrowLeft" x="0" y="0" onmousedown="handlePan(-1,0)"/>
</g>
<svg viewBox="0 0 15 15" width="100%" height="30px" preserveAspectRatio="xMaxYMin meet">
 <g id="arrow_out" transform="scale(0.3 0.3)">
  <a xlink:href="classDatabase_a04f843aa3eea157e7e874fa2a322bff8_cgraph_org.svg" target="_base">
   <rect id="button" ry="5" rx="5" y="6" x="6" height="38" width="38"
        fill="#f2f5e9" fill-opacity="0.5" stroke="#606060" stroke-width="1.0"/>
   <path id="arrow"
     d="M 11.500037,31.436501 C 11.940474,20.09759 22.043105,11.32322 32.158766,21.979434 L 37.068811,17.246167 C 37.068811,17.246167 37.088388,32 37.088388,32 L 22.160133,31.978069 C 22.160133,31.978069 26.997745,27.140456 26.997745,27.140456 C 18.528582,18.264221 13.291696,25.230495 11.500037,31.436501 z"
     style="fill:#404040;"/>
  </a>
 </g>
</svg>

<style type='text/css'>
<![CDATA[
[data-mouse-over-selected='false'] { opacity: 0.7; }
[data-mouse-over-selected='true']  { opacity: 1.0; }
]]>
</style>
<script type="application/ecmascript"><![CDATA[
document.addEventListener('DOMContentLoaded', (event) => {
  highlightEdges();
  highlightAdjacentNodes();
});
]]></script>
</svg>
