<?xml version="1.0" encoding="UTF-8" standalone="no"?>
<!DOCTYPE svg PUBLIC "-//W3C//DTD SVG 1.1//EN"
 "http://www.w3.org/Graphics/SVG/1.1/DTD/svg11.dtd">
<!-- Generated by graphviz version 2.43.0 (0)
 -->
<!-- Title: KrickAI::OnCombatStart Pages: 1 -->
<!--zoomable 162 -->

<svg id="main" version="1.1" xmlns="http://www.w3.org/2000/svg" xmlns:xlink="http://www.w3.org/1999/xlink" xml:space="preserve" onload="init(evt)">
<style type="text/css"><![CDATA[
.node, .edge {opacity: 0.7;}
.node.selected, .edge.selected {opacity: 1;}
.edge:hover path { stroke: red; }
.edge:hover polygon { stroke: red; fill: red; }
]]></style>

<defs>
  <circle id="rim" cx="0" cy="0" r="7"/>
  <circle id="rim2" cx="0" cy="0" r="3.5"/>
  <g id="zoomPlus">
    <use xlink:href="#rim" fill="#404040"><set attributeName="fill" to="#808080" begin="zoomplus.mouseover" end="zoomplus.mouseout"/></use>
    <path d="M-4,0h8M0,-4v8" fill="none" stroke="white" stroke-width="1.5" pointer-events="none"/>
  </g>
  <g id="zoomMin">
    <use xlink:href="#rim" fill="#404040"><set attributeName="fill" to="#808080" begin="zoomminus.mouseover" end="zoomminus.mouseout"/></use>
    <path d="M-4,0h8" fill="none" stroke="white" stroke-width="1.5" pointer-events="none"/>
  </g>
  <g id="arrowUp" transform="translate(30 24)">
    <use xlink:href="#rim"/>
    <path pointer-events="none" fill="none" stroke="white" stroke-width="1.5" d="M0,-3.0v7 M-2.5,-0.5L0,-3.0L2.5,-0.5"/>
  </g>
  <g id="arrowRight" transform="rotate(90) translate(36 -43)">
    <use xlink:href="#rim"/>
    <path pointer-events="none" fill="none" stroke="white" stroke-width="1.5" d="M0,-3.0v7 M-2.5,-0.5L0,-3.0L2.5,-0.5"/>
  </g>
  <g id="arrowDown" transform="rotate(180) translate(-30 -48)">
    <use xlink:href="#rim"/>
    <path pointer-events="none" fill="none" stroke="white" stroke-width="1.5" d="M0,-3.0v7 M-2.5,-0.5L0,-3.0L2.5,-0.5"/>
  </g>
  <g id="arrowLeft" transform="rotate(270) translate(-36 17)">
    <use xlink:href="#rim"/>
    <path pointer-events="none" fill="none" stroke="white" stroke-width="1.5" d="M0,-3.0v7 M-2.5,-0.5L0,-3.0L2.5,-0.5"/>
  </g>
  <g id="resetDef">
    <use xlink:href="#rim2" fill="#404040"><set attributeName="fill" to="#808080" begin="reset.mouseover" end="reset.mouseout"/></use>
  </g>
</defs>
<script type="application/ecmascript">
var viewWidth = 682;
var viewHeight = 162;
var sectionId = 'dynsection-5';
</script>
<script type="application/ecmascript" xlink:href="svg.min.js"/>
<svg id="graph" class="graph">
<g id="viewport">
<title>KrickAI::OnCombatStart</title>
<!-- Node1 -->
<g id="Node000001" class="node">
<title>Node1</title>
<g id="a_Node000001"><a xlink:title=" ">
<polygon fill="#999999" stroke="#666666" points="132,-96 0,-96 0,-77 132,-77 132,-96"/>
<text text-anchor="middle" x="66" y="-84" font-family="Helvetica,sans-Serif" font-size="10.00">KrickAI::OnCombatStart</text>
</a>
</g>
</g>
<!-- Node2 -->
<g id="Node000002" class="node">
<title>Node2</title>
<g id="a_Node000002"><a xlink:href="classCreatureAIScript.html#a26b1d717782567cdcff4c1ebcf3fa866" target="_top" xlink:title=" ">
<polygon fill="white" stroke="#666666" points="297,-137.5 195,-137.5 195,-107.5 297,-107.5 297,-137.5"/>
<text text-anchor="start" x="203" y="-125.5" font-family="Helvetica,sans-Serif" font-size="10.00">CreatureAIScript::</text>
<text text-anchor="middle" x="246" y="-114.5" font-family="Helvetica,sans-Serif" font-size="10.00">_addTimer</text>
</a>
</g>
</g>
<!-- Node1&#45;&gt;Node2 -->
<g id="edge1_Node000001_Node000002" class="edge">
<title>Node1&#45;&gt;Node2</title>
<g id="a_edge1_Node000001_Node000002"><a xlink:title=" ">
<path fill="none" stroke="#63b8ff" d="M114.23,-96.05C135.86,-100.43 161.73,-105.66 184.74,-110.31"/>
<polygon fill="#63b8ff" stroke="#63b8ff" points="184.24,-113.78 194.74,-112.33 185.63,-106.92 184.24,-113.78"/>
</a>
</g>
</g>
<!-- Node6 -->
<g id="Node000006" class="node">
<title>Node6</title>
<g id="a_Node000006"><a xlink:href="classCreatureAIScript.html#a0a24ad0de21a1a4ea586f869aa345d45" target="_top" xlink:title=" ">
<polygon fill="white" stroke="#666666" points="324,-68.5 168,-68.5 168,-38.5 324,-38.5 324,-68.5"/>
<text text-anchor="start" x="176" y="-56.5" font-family="Helvetica,sans-Serif" font-size="10.00">CreatureAIScript::getNearest</text>
<text text-anchor="middle" x="246" y="-45.5" font-family="Helvetica,sans-Serif" font-size="10.00">Creature</text>
</a>
</g>
</g>
<!-- Node1&#45;&gt;Node6 -->
<g id="edge5_Node000001_Node000006" class="edge">
<title>Node1&#45;&gt;Node6</title>
<g id="a_edge5_Node000001_Node000006"><a xlink:title=" ">
<path fill="none" stroke="#63b8ff" d="M118.48,-76.96C130.76,-74.68 144.2,-72.19 157.59,-69.71"/>
<polygon fill="#63b8ff" stroke="#63b8ff" points="158.6,-73.08 167.8,-67.81 157.33,-66.19 158.6,-73.08"/>
</a>
</g>
</g>
<!-- Node3 -->
<g id="Node000003" class="node">
<title>Node3</title>
<g id="a_Node000003"><a xlink:href="classCreatureAIScript.html#a6e3fced499a84b9cb1a1c9a6dfa60b7a" target="_top" xlink:title=" ">
<polygon fill="white" stroke="#666666" points="519,-141.5 360,-141.5 360,-111.5 519,-111.5 519,-141.5"/>
<text text-anchor="start" x="368" y="-129.5" font-family="Helvetica,sans-Serif" font-size="10.00">CreatureAIScript::getInstance</text>
<text text-anchor="middle" x="439.5" y="-118.5" font-family="Helvetica,sans-Serif" font-size="10.00">Script</text>
</a>
</g>
</g>
<!-- Node2&#45;&gt;Node3 -->
<g id="edge2_Node000002_Node000003" class="edge">
<title>Node2&#45;&gt;Node3</title>
<g id="a_edge2_Node000002_Node000003"><a xlink:title=" ">
<path fill="none" stroke="#63b8ff" d="M297.31,-123.55C313.42,-123.89 331.75,-124.27 349.75,-124.65"/>
<polygon fill="#63b8ff" stroke="#63b8ff" points="349.92,-128.15 359.99,-124.86 350.07,-121.15 349.92,-128.15"/>
</a>
</g>
</g>
<!-- Node4 -->
<g id="Node000004" class="node">
<title>Node4</title>
<g id="a_Node000004"><a xlink:href="classWorldMap.html#a4af3c5d2b3b7bf0b3bfc5c3b92aa3c90" target="_top" xlink:title=" ">
<polygon fill="white" stroke="#666666" points="672,-154 557,-154 557,-135 672,-135 672,-154"/>
<text text-anchor="middle" x="614.5" y="-142" font-family="Helvetica,sans-Serif" font-size="10.00">WorldMap::getScript</text>
</a>
</g>
</g>
<!-- Node3&#45;&gt;Node4 -->
<g id="edge3_Node000003_Node000004" class="edge">
<title>Node3&#45;&gt;Node4</title>
<g id="a_edge3_Node000003_Node000004"><a xlink:title=" ">
<path fill="none" stroke="#63b8ff" d="M519.15,-134.68C528.36,-135.64 537.69,-136.61 546.72,-137.55"/>
<polygon fill="#63b8ff" stroke="#63b8ff" points="546.45,-141.04 556.76,-138.6 547.17,-134.08 546.45,-141.04"/>
</a>
</g>
</g>
<!-- Node5 -->
<g id="Node000005" class="node">
<title>Node5</title>
<g id="a_Node000005"><a xlink:href="classObject.html#a967af054c54b6d9846637ce8718efd75" target="_top" xlink:title=" ">
<polygon fill="white" stroke="#666666" points="674,-117 555,-117 555,-98 674,-98 674,-117"/>
<text text-anchor="middle" x="614.5" y="-105" font-family="Helvetica,sans-Serif" font-size="10.00">Object::getWorldMap</text>
</a>
</g>
</g>
<!-- Node3&#45;&gt;Node5 -->
<g id="edge4_Node000003_Node000005" class="edge">
<title>Node3&#45;&gt;Node5</title>
<g id="a_edge4_Node000003_Node000005"><a xlink:title=" ">
<path fill="none" stroke="#63b8ff" d="M519.15,-117.86C527.72,-116.92 536.39,-115.97 544.82,-115.04"/>
<polygon fill="#63b8ff" stroke="#63b8ff" points="545.41,-118.5 554.97,-113.93 544.65,-111.54 545.41,-118.5"/>
</a>
</g>
</g>
<!-- Node6&#45;&gt;Node6 -->
<g id="edge6_Node000006_Node000006" class="edge">
<title>Node6&#45;&gt;Node6</title>
<g id="a_edge6_Node000006_Node000006"><a xlink:title=" ">
<path fill="none" stroke="#63b8ff" d="M214.36,-68.78C207.33,-77.91 217.88,-86.5 246,-86.5 262.7,-86.5 273.2,-83.47 277.51,-79.1"/>
<polygon fill="#63b8ff" stroke="#63b8ff" points="281.01,-78.82 277.64,-68.78 274.01,-78.73 281.01,-78.82"/>
</a>
</g>
</g>
<!-- Node7 -->
<g id="Node000007" class="node">
<title>Node7</title>
<g id="a_Node000007"><a xlink:href="classObject.html#a86d65d3e698fa64f7ba3ac898dad3ba0" target="_top" xlink:title=" ">
<polygon fill="white" stroke="#666666" points="498,-93 381,-93 381,-74 498,-74 498,-93"/>
<text text-anchor="middle" x="439.5" y="-81" font-family="Helvetica,sans-Serif" font-size="10.00">Object::GetPositionX</text>
</a>
</g>
</g>
<!-- Node6&#45;&gt;Node7 -->
<g id="edge7_Node000006_Node000007" class="edge">
<title>Node6&#45;&gt;Node7</title>
<g id="a_edge7_Node000006_Node000007"><a xlink:title=" ">
<path fill="none" stroke="#63b8ff" d="M324.06,-65.57C339.43,-67.98 355.47,-70.49 370.51,-72.85"/>
<polygon fill="#63b8ff" stroke="#63b8ff" points="370.32,-76.36 380.74,-74.45 371.4,-69.45 370.32,-76.36"/>
</a>
</g>
</g>
<!-- Node8 -->
<g id="Node000008" class="node">
<title>Node8</title>
<g id="a_Node000008"><a xlink:href="classObject.html#af5cb4bc9ecb20cf640a58bf23da23d19" target="_top" xlink:title=" ">
<polygon fill="white" stroke="#666666" points="497.5,-56 381.5,-56 381.5,-37 497.5,-37 497.5,-56"/>
<text text-anchor="middle" x="439.5" y="-44" font-family="Helvetica,sans-Serif" font-size="10.00">Object::GetPositionY</text>
</a>
</g>
</g>
<!-- Node6&#45;&gt;Node8 -->
<g id="edge8_Node000006_Node000008" class="edge">
<title>Node6&#45;&gt;Node8</title>
<g id="a_edge8_Node000006_Node000008"><a xlink:title=" ">
<path fill="none" stroke="#63b8ff" d="M324.06,-50.68C339.6,-50.12 355.82,-49.52 371,-48.97"/>
<polygon fill="#63b8ff" stroke="#63b8ff" points="371.46,-52.45 381.32,-48.59 371.2,-45.46 371.46,-52.45"/>
</a>
</g>
</g>
<!-- Node9 -->
<g id="Node000009" class="node">
<title>Node9</title>
<g id="a_Node000009"><a xlink:href="classObject.html#a9c3cfe65940e81ae45107eaafd57d1dc" target="_top" xlink:title=" ">
<polygon fill="white" stroke="#666666" points="498,-19 381,-19 381,0 498,0 498,-19"/>
<text text-anchor="middle" x="439.5" y="-7" font-family="Helvetica,sans-Serif" font-size="10.00">Object::GetPositionZ</text>
</a>
</g>
</g>
<!-- Node6&#45;&gt;Node9 -->
<g id="edge9_Node000006_Node000009" class="edge">
<title>Node6&#45;&gt;Node9</title>
<g id="a_edge9_Node000006_Node000009"><a xlink:title=" ">
<path fill="none" stroke="#63b8ff" d="M312.43,-38.44C328.02,-34.85 344.6,-31.04 360,-27.5 368.71,-25.5 377.97,-23.37 386.96,-21.31"/>
<polygon fill="#63b8ff" stroke="#63b8ff" points="387.98,-24.67 396.94,-19.02 386.41,-17.85 387.98,-24.67"/>
</a>
</g>
</g>
</g>
</svg>

<g id="navigator" transform="translate(0 0)" fill="#404254">
  <rect fill="#f2f5e9" fill-opacity="0.5" stroke="#606060" stroke-width=".5" x="0" y="0" width="60" height="60"/>
  <use id="zoomplus" xlink:href="#zoomPlus" x="17" y="9" onmousedown="handleZoom(evt,'in')"/>
  <use id="zoomminus" xlink:href="#zoomMin" x="42" y="9" onmousedown="handleZoom(evt,'out')"/>
  <use id="reset" xlink:href="#resetDef" x="30" y="36" onmousedown="handleReset()"/>
   <use id="arrowup" xlink:href="#arrowUp" x="0" y="0" onmousedown="handlePan(0,-1)"/>
  <use id="arrowright" xlink:href="#arrowRight" x="0" y="0" onmousedown="handlePan(1,0)"/>
  <use id="arrowdown" xlink:href="#arrowDown" x="0" y="0" onmousedown="handlePan(0,1)"/>
  <use id="arrowleft" xlink:href="#arrowLeft" x="0" y="0" onmousedown="handlePan(-1,0)"/>
</g>
<svg viewBox="0 0 15 15" width="100%" height="30px" preserveAspectRatio="xMaxYMin meet">
 <g id="arrow_out" transform="scale(0.3 0.3)">
  <a xlink:href="classKrickAI_a2a06fda9d999be44fba4320b1ffa244a_cgraph_org.svg" target="_base">
   <rect id="button" ry="5" rx="5" y="6" x="6" height="38" width="38"
        fill="#f2f5e9" fill-opacity="0.5" stroke="#606060" stroke-width="1.0"/>
   <path id="arrow"
     d="M 11.500037,31.436501 C 11.940474,20.09759 22.043105,11.32322 32.158766,21.979434 L 37.068811,17.246167 C 37.068811,17.246167 37.088388,32 37.088388,32 L 22.160133,31.978069 C 22.160133,31.978069 26.997745,27.140456 26.997745,27.140456 C 18.528582,18.264221 13.291696,25.230495 11.500037,31.436501 z"
     style="fill:#404040;"/>
  </a>
 </g>
</svg>

<style type='text/css'>
<![CDATA[
[data-mouse-over-selected='false'] { opacity: 0.7; }
[data-mouse-over-selected='true']  { opacity: 1.0; }
]]>
</style>
<script type="application/ecmascript"><![CDATA[
document.addEventListener('DOMContentLoaded', (event) => {
  highlightEdges();
  highlightAdjacentNodes();
});
]]></script>
</svg>
