<?xml version="1.0" encoding="UTF-8" standalone="no"?>
<!DOCTYPE svg PUBLIC "-//W3C//DTD SVG 1.1//EN"
 "http://www.w3.org/Graphics/SVG/1.1/DTD/svg11.dtd">
<!-- Generated by graphviz version 2.43.0 (0)
 -->
<!-- Title: Item::isSoulbound Pages: 1 -->
<!--zoomable 306 -->

<svg id="main" version="1.1" xmlns="http://www.w3.org/2000/svg" xmlns:xlink="http://www.w3.org/1999/xlink" xml:space="preserve" onload="init(evt)">
<style type="text/css"><![CDATA[
.node, .edge {opacity: 0.7;}
.node.selected, .edge.selected {opacity: 1;}
.edge:hover path { stroke: red; }
.edge:hover polygon { stroke: red; fill: red; }
]]></style>

<defs>
  <circle id="rim" cx="0" cy="0" r="7"/>
  <circle id="rim2" cx="0" cy="0" r="3.5"/>
  <g id="zoomPlus">
    <use xlink:href="#rim" fill="#404040"><set attributeName="fill" to="#808080" begin="zoomplus.mouseover" end="zoomplus.mouseout"/></use>
    <path d="M-4,0h8M0,-4v8" fill="none" stroke="white" stroke-width="1.5" pointer-events="none"/>
  </g>
  <g id="zoomMin">
    <use xlink:href="#rim" fill="#404040"><set attributeName="fill" to="#808080" begin="zoomminus.mouseover" end="zoomminus.mouseout"/></use>
    <path d="M-4,0h8" fill="none" stroke="white" stroke-width="1.5" pointer-events="none"/>
  </g>
  <g id="arrowUp" transform="translate(30 24)">
    <use xlink:href="#rim"/>
    <path pointer-events="none" fill="none" stroke="white" stroke-width="1.5" d="M0,-3.0v7 M-2.5,-0.5L0,-3.0L2.5,-0.5"/>
  </g>
  <g id="arrowRight" transform="rotate(90) translate(36 -43)">
    <use xlink:href="#rim"/>
    <path pointer-events="none" fill="none" stroke="white" stroke-width="1.5" d="M0,-3.0v7 M-2.5,-0.5L0,-3.0L2.5,-0.5"/>
  </g>
  <g id="arrowDown" transform="rotate(180) translate(-30 -48)">
    <use xlink:href="#rim"/>
    <path pointer-events="none" fill="none" stroke="white" stroke-width="1.5" d="M0,-3.0v7 M-2.5,-0.5L0,-3.0L2.5,-0.5"/>
  </g>
  <g id="arrowLeft" transform="rotate(270) translate(-36 17)">
    <use xlink:href="#rim"/>
    <path pointer-events="none" fill="none" stroke="white" stroke-width="1.5" d="M0,-3.0v7 M-2.5,-0.5L0,-3.0L2.5,-0.5"/>
  </g>
  <g id="resetDef">
    <use xlink:href="#rim2" fill="#404040"><set attributeName="fill" to="#808080" begin="reset.mouseover" end="reset.mouseout"/></use>
  </g>
</defs>
<script type="application/ecmascript">
var viewWidth = 837;
var viewHeight = 306;
var sectionId = 'dynsection-104';
</script>
<script type="application/ecmascript" xlink:href="svg.min.js"/>
<svg id="graph" class="graph">
<g id="viewport">
<title>Item::isSoulbound</title>
<!-- Node1 -->
<g id="Node000001" class="node">
<title>Node1</title>
<g id="a_Node000001"><a xlink:title=" ">
<polygon fill="#999999" stroke="#666666" points="829,-136.5 725,-136.5 725,-117.5 829,-117.5 829,-136.5"/>
<text text-anchor="middle" x="777" y="-124.5" font-family="Helvetica,sans-Serif" font-size="10.00">Item::isSoulbound</text>
</a>
</g>
</g>
<!-- Node2 -->
<g id="Node000002" class="node">
<title>Node2</title>
<g id="a_Node000002"><a xlink:href="classWorldSession.html#a044c2a09f405da3a4fb1a195d1d0c337" target="_top" xlink:title=" ">
<polygon fill="white" stroke="#666666" points="678.5,-255 529.5,-255 529.5,-225 678.5,-225 678.5,-255"/>
<text text-anchor="start" x="537.5" y="-243" font-family="Helvetica,sans-Serif" font-size="10.00">WorldSession::handleQuest</text>
<text text-anchor="middle" x="604" y="-232" font-family="Helvetica,sans-Serif" font-size="10.00">GiverQueryQuestOpcode</text>
</a>
</g>
</g>
<!-- Node1&#45;&gt;Node2 -->
<g id="edge1_Node000001_Node000002" class="edge">
<title>Node1&#45;&gt;Node2</title>
<g id="a_edge1_Node000001_Node000002"><a xlink:title=" ">
<path fill="none" stroke="#63b8ff" d="M760.35,-144.44C743.95,-161.88 716.76,-188.56 689,-206 677.14,-213.45 663.38,-219.83 650.46,-224.98"/>
<polygon fill="#63b8ff" stroke="#63b8ff" points="763.28,-146.42 767.49,-136.7 758.13,-141.68 763.28,-146.42"/>
</a>
</g>
</g>
<!-- Node6 -->
<g id="Node000006" class="node">
<title>Node6</title>
<g id="a_Node000006"><a xlink:href="classWorldSession.html#af135e45bb95252004bf61a0aff21837a" target="_top" xlink:title=" ">
<polygon fill="white" stroke="#666666" points="468.5,-212 323.5,-212 323.5,-182 468.5,-182 468.5,-212"/>
<text text-anchor="start" x="331.5" y="-200" font-family="Helvetica,sans-Serif" font-size="10.00">WorldSession::handleSend</text>
<text text-anchor="middle" x="396" y="-189" font-family="Helvetica,sans-Serif" font-size="10.00">MailOpcode</text>
</a>
</g>
</g>
<!-- Node1&#45;&gt;Node6 -->
<g id="edge6_Node000001_Node000006" class="edge">
<title>Node1&#45;&gt;Node6</title>
<g id="a_edge6_Node000001_Node000006"><a xlink:title=" ">
<path fill="none" stroke="#63b8ff" d="M735.13,-139.3C720.65,-143.38 704.18,-147.72 689,-151 614.38,-167.12 527.89,-180.03 468.52,-188.03"/>
<polygon fill="#63b8ff" stroke="#63b8ff" points="736.15,-142.65 744.8,-136.53 734.22,-135.92 736.15,-142.65"/>
</a>
</g>
</g>
<!-- Node7 -->
<g id="Node000007" class="node">
<title>Node7</title>
<g id="a_Node000007"><a xlink:href="classWorldSession.html#a028c05b773bb98f19ace6a642aacf962" target="_top" xlink:title=" ">
<polygon fill="white" stroke="#666666" points="477,-164 315,-164 315,-134 477,-134 477,-164"/>
<text text-anchor="start" x="323" y="-152" font-family="Helvetica,sans-Serif" font-size="10.00">WorldSession::handleUseItem</text>
<text text-anchor="middle" x="396" y="-141" font-family="Helvetica,sans-Serif" font-size="10.00">Opcode</text>
</a>
</g>
</g>
<!-- Node1&#45;&gt;Node7 -->
<g id="edge8_Node000001_Node000007" class="edge">
<title>Node1&#45;&gt;Node7</title>
<g id="a_edge8_Node000001_Node000007"><a xlink:title=" ">
<path fill="none" stroke="#63b8ff" d="M714.85,-130.55C650.21,-134.3 548,-140.23 477,-144.36"/>
<polygon fill="#63b8ff" stroke="#63b8ff" points="715.11,-134.04 724.89,-129.97 714.7,-127.05 715.11,-134.04"/>
</a>
</g>
</g>
<!-- Node8 -->
<g id="Node000008" class="node">
<title>Node8</title>
<g id="a_Node000008"><a xlink:href="classWorldSession.html#a65d69dc3c2c14223dfaab4699adfe7fc" target="_top" xlink:title=" ">
<polygon fill="white" stroke="#666666" points="677,-121 531,-121 531,-91 677,-91 677,-121"/>
<text text-anchor="start" x="539" y="-109" font-family="Helvetica,sans-Serif" font-size="10.00">WorldSession::handleWrap</text>
<text text-anchor="middle" x="604" y="-98" font-family="Helvetica,sans-Serif" font-size="10.00">ItemOpcode</text>
</a>
</g>
</g>
<!-- Node1&#45;&gt;Node8 -->
<g id="edge10_Node000001_Node000008" class="edge">
<title>Node1&#45;&gt;Node8</title>
<g id="a_edge10_Node000001_Node000008"><a xlink:title=" ">
<path fill="none" stroke="#63b8ff" d="M714.67,-119.47C702.5,-117.97 689.62,-116.39 677.13,-114.86"/>
<polygon fill="#63b8ff" stroke="#63b8ff" points="714.34,-122.95 724.69,-120.7 715.2,-116.01 714.34,-122.95"/>
</a>
</g>
</g>
<!-- Node9 -->
<g id="Node000009" class="node">
<title>Node9</title>
<g id="a_Node000009"><a xlink:href="classItem.html#adb71257a79c05b44ffb06fd766afa27f" target="_top" xlink:title=" ">
<polygon fill="white" stroke="#666666" points="665.5,-72.5 542.5,-72.5 542.5,-53.5 665.5,-53.5 665.5,-72.5"/>
<text text-anchor="middle" x="604" y="-60.5" font-family="Helvetica,sans-Serif" font-size="10.00">Item::isTradeableWith</text>
</a>
</g>
</g>
<!-- Node1&#45;&gt;Node9 -->
<g id="edge12_Node000001_Node000009" class="edge">
<title>Node1&#45;&gt;Node9</title>
<g id="a_edge12_Node000001_Node000009"><a xlink:title=" ">
<path fill="none" stroke="#63b8ff" d="M751.78,-112.34C734.73,-102.56 711.1,-90.07 689,-82 678.75,-78.26 667.51,-75.11 656.69,-72.51"/>
<polygon fill="#63b8ff" stroke="#63b8ff" points="750.12,-115.42 760.52,-117.45 753.65,-109.38 750.12,-115.42"/>
</a>
</g>
</g>
<!-- Node11 -->
<g id="Node000011" class="node">
<title>Node11</title>
<g id="a_Node000011"><a xlink:href="classGuild.html#ac13e7c9fa36ebbca20bafd76857eac60" target="_top" xlink:title=" ">
<polygon fill="white" stroke="#666666" points="689,-30.5 519,-30.5 519,-11.5 689,-11.5 689,-30.5"/>
<text text-anchor="middle" x="604" y="-18.5" font-family="Helvetica,sans-Serif" font-size="10.00">Guild::swapItemsWithInventory</text>
</a>
</g>
</g>
<!-- Node1&#45;&gt;Node11 -->
<g id="edge15_Node000001_Node000011" class="edge">
<title>Node1&#45;&gt;Node11</title>
<g id="a_edge15_Node000001_Node000011"><a xlink:title=" ">
<path fill="none" stroke="#63b8ff" d="M762.38,-109.64C746.67,-90.76 719.1,-61.02 689,-44 678.87,-38.27 667.23,-33.91 655.91,-30.61"/>
<polygon fill="#63b8ff" stroke="#63b8ff" points="759.71,-111.9 768.73,-117.46 765.15,-107.49 759.71,-111.9"/>
</a>
</g>
</g>
<!-- Node3 -->
<g id="Node000003" class="node">
<title>Node3</title>
<g id="a_Node000003"><a xlink:href="classWorldSession.html#ac7c1059d539862e37ae0d3842febc05f" target="_top" xlink:title=" ">
<polygon fill="white" stroke="#666666" points="483,-298 309,-298 309,-268 483,-268 483,-298"/>
<text text-anchor="start" x="317" y="-286" font-family="Helvetica,sans-Serif" font-size="10.00">WorldSession::handleQuestgiver</text>
<text text-anchor="middle" x="396" y="-275" font-family="Helvetica,sans-Serif" font-size="10.00">ChooseRewardOpcode</text>
</a>
</g>
</g>
<!-- Node2&#45;&gt;Node3 -->
<g id="edge2_Node000002_Node000003" class="edge">
<title>Node2&#45;&gt;Node3</title>
<g id="a_edge2_Node000002_Node000003"><a xlink:title=" ">
<path fill="none" stroke="#63b8ff" d="M520.95,-257.13C503.77,-260.71 485.79,-264.47 469.01,-267.97"/>
<polygon fill="#63b8ff" stroke="#63b8ff" points="521.88,-260.51 530.95,-255.04 520.45,-253.66 521.88,-260.51"/>
</a>
</g>
</g>
<!-- Node4 -->
<g id="Node000004" class="node">
<title>Node4</title>
<g id="a_Node000004"><a xlink:href="classWorldSession.html#a213cc2e7e497e0cddfde0a1460e4acd0" target="_top" xlink:title=" ">
<polygon fill="white" stroke="#666666" points="273,-164 111,-164 111,-134 273,-134 273,-164"/>
<text text-anchor="start" x="119" y="-152" font-family="Helvetica,sans-Serif" font-size="10.00">WorldSession::registerOpcode</text>
<text text-anchor="middle" x="192" y="-141" font-family="Helvetica,sans-Serif" font-size="10.00">Handler</text>
</a>
</g>
</g>
<!-- Node2&#45;&gt;Node4 -->
<g id="edge5_Node000002_Node000004" class="edge">
<title>Node2&#45;&gt;Node4</title>
<g id="a_edge5_Node000002_Node000004"><a xlink:title=" ">
<path fill="none" stroke="#63b8ff" d="M519.1,-245.28C459.17,-246.5 377.38,-242.9 309,-221 270.85,-208.78 232.52,-181.32 210.87,-164.06"/>
<polygon fill="#63b8ff" stroke="#63b8ff" points="519.37,-248.77 529.28,-245.02 519.19,-241.78 519.37,-248.77"/>
</a>
</g>
</g>
<!-- Node3&#45;&gt;Node4 -->
<g id="edge3_Node000003_Node000004" class="edge">
<title>Node3&#45;&gt;Node4</title>
<g id="a_edge3_Node000003_Node000004"><a xlink:title=" ">
<path fill="none" stroke="#63b8ff" d="M329.6,-264.15C322.46,-261.16 315.45,-257.78 309,-254 266.59,-229.13 226.16,-186.94 206.11,-164.35"/>
<polygon fill="#63b8ff" stroke="#63b8ff" points="328.8,-267.59 339.39,-267.99 331.36,-261.08 328.8,-267.59"/>
</a>
</g>
</g>
<!-- Node5 -->
<g id="Node000005" class="node">
<title>Node5</title>
<g id="a_Node000005"><a xlink:href="classMaster.html#a12dde72f3398edffca613e77185fd6f3" target="_top" xlink:title=" ">
<polygon fill="white" stroke="#666666" points="75,-158.5 0,-158.5 0,-139.5 75,-139.5 75,-158.5"/>
<text text-anchor="middle" x="37.5" y="-146.5" font-family="Helvetica,sans-Serif" font-size="10.00">Master::Run</text>
</a>
</g>
</g>
<!-- Node4&#45;&gt;Node5 -->
<g id="edge4_Node000004_Node000005" class="edge">
<title>Node4&#45;&gt;Node5</title>
<g id="a_edge4_Node000004_Node000005"><a xlink:title=" ">
<path fill="none" stroke="#63b8ff" d="M100.55,-149C91.61,-149 82.94,-149 75.05,-149"/>
<polygon fill="#63b8ff" stroke="#63b8ff" points="100.73,-152.5 110.73,-149 100.73,-145.5 100.73,-152.5"/>
</a>
</g>
</g>
<!-- Node6&#45;&gt;Node4 -->
<g id="edge7_Node000006_Node000004" class="edge">
<title>Node6&#45;&gt;Node4</title>
<g id="a_edge7_Node000006_Node000004"><a xlink:title=" ">
<path fill="none" stroke="#63b8ff" d="M321.89,-179.63C300.36,-174.51 276.99,-168.96 256.14,-164"/>
<polygon fill="#63b8ff" stroke="#63b8ff" points="321.1,-183.04 331.64,-181.94 322.72,-176.23 321.1,-183.04"/>
</a>
</g>
</g>
<!-- Node7&#45;&gt;Node4 -->
<g id="edge9_Node000007_Node000004" class="edge">
<title>Node7&#45;&gt;Node4</title>
<g id="a_edge9_Node000007_Node000004"><a xlink:title=" ">
<path fill="none" stroke="#63b8ff" d="M304.79,-149C294.21,-149 283.46,-149 273.03,-149"/>
<polygon fill="#63b8ff" stroke="#63b8ff" points="304.87,-152.5 314.87,-149 304.87,-145.5 304.87,-152.5"/>
</a>
</g>
</g>
<!-- Node8&#45;&gt;Node4 -->
<g id="edge11_Node000008_Node000004" class="edge">
<title>Node8&#45;&gt;Node4</title>
<g id="a_edge11_Node000008_Node000004"><a xlink:title=" ">
<path fill="none" stroke="#63b8ff" d="M520.8,-108.24C461.68,-110.6 380.15,-115.39 309,-125 292.29,-127.26 274.38,-130.53 257.76,-133.94"/>
<polygon fill="#63b8ff" stroke="#63b8ff" points="520.97,-111.74 530.83,-107.86 520.7,-104.75 520.97,-111.74"/>
</a>
</g>
</g>
<!-- Node10 -->
<g id="Node000010" class="node">
<title>Node10</title>
<g id="a_Node000010"><a xlink:href="classWorldSession.html#ace40e3581bd5883753d921dc760140f9" target="_top" xlink:title=" ">
<polygon fill="white" stroke="#666666" points="473,-78 319,-78 319,-48 473,-48 473,-78"/>
<text text-anchor="start" x="327" y="-66" font-family="Helvetica,sans-Serif" font-size="10.00">WorldSession::handleAccept</text>
<text text-anchor="middle" x="396" y="-55" font-family="Helvetica,sans-Serif" font-size="10.00">Trade</text>
</a>
</g>
</g>
<!-- Node9&#45;&gt;Node10 -->
<g id="edge13_Node000009_Node000010" class="edge">
<title>Node9&#45;&gt;Node10</title>
<g id="a_edge13_Node000009_Node000010"><a xlink:title=" ">
<path fill="none" stroke="#63b8ff" d="M532.24,-63C513.25,-63 492.64,-63 473.36,-63"/>
<polygon fill="#63b8ff" stroke="#63b8ff" points="532.31,-66.5 542.31,-63 532.31,-59.5 532.31,-66.5"/>
</a>
</g>
</g>
<!-- Node10&#45;&gt;Node4 -->
<g id="edge14_Node000010_Node000004" class="edge">
<title>Node10&#45;&gt;Node4</title>
<g id="a_edge14_Node000010_Node000004"><a xlink:title=" ">
<path fill="none" stroke="#63b8ff" d="M337.37,-81.27C327.81,-84.63 318.07,-88.26 309,-92 278.3,-104.66 244.32,-121.73 221.12,-133.88"/>
<polygon fill="#63b8ff" stroke="#63b8ff" points="338.51,-84.57 346.82,-78 336.23,-77.96 338.51,-84.57"/>
</a>
</g>
</g>
<!-- Node12 -->
<g id="Node000012" class="node">
<title>Node12</title>
<g id="a_Node000012"><a xlink:href="classWorldSession.html#a3e6174271c9d5179ba47cd10949781f7" target="_top" xlink:title=" ">
<polygon fill="white" stroke="#666666" points="469,-30 323,-30 323,0 469,0 469,-30"/>
<text text-anchor="start" x="331" y="-18" font-family="Helvetica,sans-Serif" font-size="10.00">WorldSession::handleGuild</text>
<text text-anchor="middle" x="396" y="-7" font-family="Helvetica,sans-Serif" font-size="10.00">BankSwapItems</text>
</a>
</g>
</g>
<!-- Node11&#45;&gt;Node12 -->
<g id="edge16_Node000011_Node000012" class="edge">
<title>Node11&#45;&gt;Node12</title>
<g id="a_edge16_Node000011_Node000012"><a xlink:title=" ">
<path fill="none" stroke="#63b8ff" d="M508.81,-18.26C495.53,-17.87 482.06,-17.48 469.28,-17.11"/>
<polygon fill="#63b8ff" stroke="#63b8ff" points="508.82,-21.76 518.91,-18.55 509.02,-14.76 508.82,-21.76"/>
</a>
</g>
</g>
<!-- Node12&#45;&gt;Node4 -->
<g id="edge17_Node000012_Node000004" class="edge">
<title>Node12&#45;&gt;Node4</title>
<g id="a_edge17_Node000012_Node000004"><a xlink:title=" ">
<path fill="none" stroke="#63b8ff" d="M319.06,-33.91C315.6,-35.48 312.22,-37.17 309,-39 264.57,-64.17 224.08,-109.99 204.82,-133.76"/>
<polygon fill="#63b8ff" stroke="#63b8ff" points="320.51,-37.09 328.41,-30.03 317.83,-30.63 320.51,-37.09"/>
</a>
</g>
</g>
</g>
</svg>

<g id="navigator" transform="translate(0 0)" fill="#404254">
  <rect fill="#f2f5e9" fill-opacity="0.5" stroke="#606060" stroke-width=".5" x="0" y="0" width="60" height="60"/>
  <use id="zoomplus" xlink:href="#zoomPlus" x="17" y="9" onmousedown="handleZoom(evt,'in')"/>
  <use id="zoomminus" xlink:href="#zoomMin" x="42" y="9" onmousedown="handleZoom(evt,'out')"/>
  <use id="reset" xlink:href="#resetDef" x="30" y="36" onmousedown="handleReset()"/>
   <use id="arrowup" xlink:href="#arrowUp" x="0" y="0" onmousedown="handlePan(0,-1)"/>
  <use id="arrowright" xlink:href="#arrowRight" x="0" y="0" onmousedown="handlePan(1,0)"/>
  <use id="arrowdown" xlink:href="#arrowDown" x="0" y="0" onmousedown="handlePan(0,1)"/>
  <use id="arrowleft" xlink:href="#arrowLeft" x="0" y="0" onmousedown="handlePan(-1,0)"/>
</g>
<svg viewBox="0 0 15 15" width="100%" height="30px" preserveAspectRatio="xMaxYMin meet">
 <g id="arrow_out" transform="scale(0.3 0.3)">
  <a xlink:href="classItem_a0e3b34516a85a3e1fbba8121e2d7a943_icgraph_org.svg" target="_base">
   <rect id="button" ry="5" rx="5" y="6" x="6" height="38" width="38"
        fill="#f2f5e9" fill-opacity="0.5" stroke="#606060" stroke-width="1.0"/>
   <path id="arrow"
     d="M 11.500037,31.436501 C 11.940474,20.09759 22.043105,11.32322 32.158766,21.979434 L 37.068811,17.246167 C 37.068811,17.246167 37.088388,32 37.088388,32 L 22.160133,31.978069 C 22.160133,31.978069 26.997745,27.140456 26.997745,27.140456 C 18.528582,18.264221 13.291696,25.230495 11.500037,31.436501 z"
     style="fill:#404040;"/>
  </a>
 </g>
</svg>

<style type='text/css'>
<![CDATA[
[data-mouse-over-selected='false'] { opacity: 0.7; }
[data-mouse-over-selected='true']  { opacity: 1.0; }
]]>
</style>
<script type="application/ecmascript"><![CDATA[
document.addEventListener('DOMContentLoaded', (event) => {
  highlightEdges();
  highlightAdjacentNodes();
});
]]></script>
</svg>
