<?xml version="1.0" encoding="UTF-8" standalone="no"?>
<!DOCTYPE svg PUBLIC "-//W3C//DTD SVG 1.1//EN"
 "http://www.w3.org/Graphics/SVG/1.1/DTD/svg11.dtd">
<!-- Generated by graphviz version 2.43.0 (0)
 -->
<!-- Title: ChatCommandHandler::HandleCharListSkillsCommand Pages: 1 -->
<!--zoomable 267 -->

<svg id="main" version="1.1" xmlns="http://www.w3.org/2000/svg" xmlns:xlink="http://www.w3.org/1999/xlink" xml:space="preserve" onload="init(evt)">
<style type="text/css"><![CDATA[
.node, .edge {opacity: 0.7;}
.node.selected, .edge.selected {opacity: 1;}
.edge:hover path { stroke: red; }
.edge:hover polygon { stroke: red; fill: red; }
]]></style>

<defs>
  <circle id="rim" cx="0" cy="0" r="7"/>
  <circle id="rim2" cx="0" cy="0" r="3.5"/>
  <g id="zoomPlus">
    <use xlink:href="#rim" fill="#404040"><set attributeName="fill" to="#808080" begin="zoomplus.mouseover" end="zoomplus.mouseout"/></use>
    <path d="M-4,0h8M0,-4v8" fill="none" stroke="white" stroke-width="1.5" pointer-events="none"/>
  </g>
  <g id="zoomMin">
    <use xlink:href="#rim" fill="#404040"><set attributeName="fill" to="#808080" begin="zoomminus.mouseover" end="zoomminus.mouseout"/></use>
    <path d="M-4,0h8" fill="none" stroke="white" stroke-width="1.5" pointer-events="none"/>
  </g>
  <g id="arrowUp" transform="translate(30 24)">
    <use xlink:href="#rim"/>
    <path pointer-events="none" fill="none" stroke="white" stroke-width="1.5" d="M0,-3.0v7 M-2.5,-0.5L0,-3.0L2.5,-0.5"/>
  </g>
  <g id="arrowRight" transform="rotate(90) translate(36 -43)">
    <use xlink:href="#rim"/>
    <path pointer-events="none" fill="none" stroke="white" stroke-width="1.5" d="M0,-3.0v7 M-2.5,-0.5L0,-3.0L2.5,-0.5"/>
  </g>
  <g id="arrowDown" transform="rotate(180) translate(-30 -48)">
    <use xlink:href="#rim"/>
    <path pointer-events="none" fill="none" stroke="white" stroke-width="1.5" d="M0,-3.0v7 M-2.5,-0.5L0,-3.0L2.5,-0.5"/>
  </g>
  <g id="arrowLeft" transform="rotate(270) translate(-36 17)">
    <use xlink:href="#rim"/>
    <path pointer-events="none" fill="none" stroke="white" stroke-width="1.5" d="M0,-3.0v7 M-2.5,-0.5L0,-3.0L2.5,-0.5"/>
  </g>
  <g id="resetDef">
    <use xlink:href="#rim2" fill="#404040"><set attributeName="fill" to="#808080" begin="reset.mouseover" end="reset.mouseout"/></use>
  </g>
</defs>
<script type="application/ecmascript">
var viewWidth = 867;
var viewHeight = 267;
var sectionId = 'dynsection-145';
</script>
<script type="application/ecmascript" xlink:href="svg.min.js"/>
<svg id="graph" class="graph">
<g id="viewport">
<title>ChatCommandHandler::HandleCharListSkillsCommand</title>
<!-- Node1 -->
<g id="Node000001" class="node">
<title>Node1</title>
<g id="a_Node000001"><a xlink:title=" ">
<polygon fill="#999999" stroke="#666666" points="173,-153.5 0,-153.5 0,-123.5 173,-123.5 173,-153.5"/>
<text text-anchor="start" x="8" y="-141.5" font-family="Helvetica,sans-Serif" font-size="10.00">ChatCommandHandler</text>
<text text-anchor="middle" x="86.5" y="-130.5" font-family="Helvetica,sans-Serif" font-size="10.00">::HandleCharListSkillsCommand</text>
</a>
</g>
</g>
<!-- Node2 -->
<g id="Node000002" class="node">
<title>Node2</title>
<g id="a_Node000002"><a xlink:href="classChatCommandHandler.html#a1141a5b3f55d31ed3201e0bd266ef0ab" target="_top" xlink:title=" ">
<polygon fill="white" stroke="#666666" points="337,-201.5 209,-201.5 209,-171.5 337,-171.5 337,-201.5"/>
<text text-anchor="start" x="217" y="-189.5" font-family="Helvetica,sans-Serif" font-size="10.00">ChatCommandHandler</text>
<text text-anchor="middle" x="273" y="-178.5" font-family="Helvetica,sans-Serif" font-size="10.00">::blueSystemMessage</text>
</a>
</g>
</g>
<!-- Node1&#45;&gt;Node2 -->
<g id="edge1_Node000001_Node000002" class="edge">
<title>Node1&#45;&gt;Node2</title>
<g id="a_edge1_Node000001_Node000002"><a xlink:title=" ">
<path fill="none" stroke="#63b8ff" d="M145.37,-153.56C164.18,-158.45 185.2,-163.92 204.64,-168.98"/>
<polygon fill="#63b8ff" stroke="#63b8ff" points="203.78,-172.37 214.33,-171.5 205.54,-165.59 203.78,-172.37"/>
</a>
</g>
</g>
<!-- Node3 -->
<g id="Node000003" class="node">
<title>Node3</title>
<g id="a_Node000003"><a xlink:href="classChatCommandHandler.html#abb463a1e2b89d32f293c3c16f19c7d70" target="_top" xlink:title=" ">
<polygon fill="white" stroke="#666666" points="337,-153.5 209,-153.5 209,-123.5 337,-123.5 337,-153.5"/>
<text text-anchor="start" x="217" y="-141.5" font-family="Helvetica,sans-Serif" font-size="10.00">ChatCommandHandler</text>
<text text-anchor="middle" x="273" y="-130.5" font-family="Helvetica,sans-Serif" font-size="10.00">::GetSelectedPlayer</text>
</a>
</g>
</g>
<!-- Node1&#45;&gt;Node3 -->
<g id="edge2_Node000001_Node000003" class="edge">
<title>Node1&#45;&gt;Node3</title>
<g id="a_edge2_Node000001_Node000003"><a xlink:title=" ">
<path fill="none" stroke="#63b8ff" d="M173.27,-138.5C181.76,-138.5 190.34,-138.5 198.69,-138.5"/>
<polygon fill="#63b8ff" stroke="#63b8ff" points="198.75,-142 208.75,-138.5 198.75,-135 198.75,-142"/>
</a>
</g>
</g>
<!-- Node15 -->
<g id="Node000015" class="node">
<title>Node15</title>
<g id="a_Node000015"><a xlink:href="classChatCommandHandler.html#ac481a38af41845bdacba6cfca6f08a2d" target="_top" xlink:title=" ">
<polygon fill="white" stroke="#666666" points="337,-105.5 209,-105.5 209,-75.5 337,-75.5 337,-105.5"/>
<text text-anchor="start" x="217" y="-93.5" font-family="Helvetica,sans-Serif" font-size="10.00">ChatCommandHandler</text>
<text text-anchor="middle" x="273" y="-82.5" font-family="Helvetica,sans-Serif" font-size="10.00">::redSystemMessage</text>
</a>
</g>
</g>
<!-- Node1&#45;&gt;Node15 -->
<g id="edge14_Node000001_Node000015" class="edge">
<title>Node1&#45;&gt;Node15</title>
<g id="a_edge14_Node000001_Node000015"><a xlink:title=" ">
<path fill="none" stroke="#63b8ff" d="M145.37,-123.44C164.18,-118.55 185.2,-113.08 204.64,-108.02"/>
<polygon fill="#63b8ff" stroke="#63b8ff" points="205.54,-111.41 214.33,-105.5 203.78,-104.63 205.54,-111.41"/>
</a>
</g>
</g>
<!-- Node4 -->
<g id="Node000004" class="node">
<title>Node4</title>
<g id="a_Node000004"><a xlink:href="classWoWGuid.html#a8c5db0d6b72e4cc9e850a410f0030b92" target="_top" xlink:title=" ">
<polygon fill="white" stroke="#666666" points="510.5,-259 402.5,-259 402.5,-240 510.5,-240 510.5,-259"/>
<text text-anchor="middle" x="456.5" y="-247" font-family="Helvetica,sans-Serif" font-size="10.00">WoWGuid::getHigh</text>
</a>
</g>
</g>
<!-- Node3&#45;&gt;Node4 -->
<g id="edge3_Node000003_Node000004" class="edge">
<title>Node3&#45;&gt;Node4</title>
<g id="a_edge3_Node000003_Node000004"><a xlink:title=" ">
<path fill="none" stroke="#63b8ff" d="M324.14,-153.58C328.77,-156.12 333.15,-159.08 337,-162.5 362.85,-185.49 345.51,-210.5 373,-231.5 378.85,-235.97 385.57,-239.37 392.61,-241.96"/>
<polygon fill="#63b8ff" stroke="#63b8ff" points="391.75,-245.36 402.34,-245.02 393.84,-238.68 391.75,-245.36"/>
</a>
</g>
</g>
<!-- Node5 -->
<g id="Node000005" class="node">
<title>Node5</title>
<g id="a_Node000005"><a xlink:href="classWorldSession.html#a014d7fdeb157410b75dfd4bd0fe0efc2" target="_top" xlink:title=" ">
<polygon fill="white" stroke="#666666" points="524.5,-222 388.5,-222 388.5,-203 524.5,-203 524.5,-222"/>
<text text-anchor="middle" x="456.5" y="-210" font-family="Helvetica,sans-Serif" font-size="10.00">WorldSession::GetPlayer</text>
</a>
</g>
</g>
<!-- Node3&#45;&gt;Node5 -->
<g id="edge4_Node000003_Node000005" class="edge">
<title>Node3&#45;&gt;Node5</title>
<g id="a_edge4_Node000003_Node000005"><a xlink:title=" ">
<path fill="none" stroke="#63b8ff" d="M319.68,-153.62C325.67,-156.26 331.6,-159.22 337,-162.5 355.3,-173.6 353.92,-184.79 373,-194.5 376.75,-196.41 380.69,-198.11 384.74,-199.64"/>
<polygon fill="#63b8ff" stroke="#63b8ff" points="383.74,-203 394.34,-202.88 385.98,-196.36 383.74,-203"/>
</a>
</g>
</g>
<!-- Node6 -->
<g id="Node000006" class="node">
<title>Node6</title>
<g id="a_Node000006"><a xlink:href="classWorldMap.html#aaef96289a191fb47e1312a8938b835af" target="_top" xlink:title=" ">
<polygon fill="white" stroke="#666666" points="515.5,-185 397.5,-185 397.5,-166 515.5,-166 515.5,-185"/>
<text text-anchor="middle" x="456.5" y="-173" font-family="Helvetica,sans-Serif" font-size="10.00">WorldMap::getPlayer</text>
</a>
</g>
</g>
<!-- Node3&#45;&gt;Node6 -->
<g id="edge5_Node000003_Node000006" class="edge">
<title>Node3&#45;&gt;Node6</title>
<g id="a_edge5_Node000003_Node000006"><a xlink:title=" ">
<path fill="none" stroke="#63b8ff" d="M337.23,-151.39C357.26,-155.47 379.28,-159.96 398.83,-163.95"/>
<polygon fill="#63b8ff" stroke="#63b8ff" points="398.3,-167.41 408.8,-165.98 399.7,-160.55 398.3,-167.41"/>
</a>
</g>
</g>
<!-- Node7 -->
<g id="Node000007" class="node">
<title>Node7</title>
<g id="a_Node000007"><a xlink:href="classUnit.html#a50e5b30e1c170be2c8415a84d0e78cc8" target="_top" xlink:title=" ">
<polygon fill="white" stroke="#666666" points="512,-148 401,-148 401,-129 512,-129 512,-148"/>
<text text-anchor="middle" x="456.5" y="-136" font-family="Helvetica,sans-Serif" font-size="10.00">Unit::getTargetGuid</text>
</a>
</g>
</g>
<!-- Node3&#45;&gt;Node7 -->
<g id="edge6_Node000003_Node000007" class="edge">
<title>Node3&#45;&gt;Node7</title>
<g id="a_edge6_Node000003_Node000007"><a xlink:title=" ">
<path fill="none" stroke="#63b8ff" d="M337.23,-138.5C354.59,-138.5 373.43,-138.5 390.87,-138.5"/>
<polygon fill="#63b8ff" stroke="#63b8ff" points="390.95,-142 400.95,-138.5 390.95,-135 390.95,-142"/>
</a>
</g>
</g>
<!-- Node9 -->
<g id="Node000009" class="node">
<title>Node9</title>
<g id="a_Node000009"><a xlink:href="classObject.html#a967af054c54b6d9846637ce8718efd75" target="_top" xlink:title=" ">
<polygon fill="white" stroke="#666666" points="516,-111 397,-111 397,-92 516,-92 516,-111"/>
<text text-anchor="middle" x="456.5" y="-99" font-family="Helvetica,sans-Serif" font-size="10.00">Object::getWorldMap</text>
</a>
</g>
</g>
<!-- Node3&#45;&gt;Node9 -->
<g id="edge8_Node000003_Node000009" class="edge">
<title>Node3&#45;&gt;Node9</title>
<g id="a_edge8_Node000003_Node000009"><a xlink:title=" ">
<path fill="none" stroke="#63b8ff" d="M337.23,-125.61C357.26,-121.53 379.28,-117.04 398.83,-113.05"/>
<polygon fill="#63b8ff" stroke="#63b8ff" points="399.7,-116.45 408.8,-111.02 398.3,-109.59 399.7,-116.45"/>
</a>
</g>
</g>
<!-- Node10 -->
<g id="Node000010" class="node">
<title>Node10</title>
<g id="a_Node000010"><a xlink:href="classWoWGuid.html#af262e032110b2936fde7b85a73a21d1b" target="_top" xlink:title=" ">
<polygon fill="white" stroke="#666666" points="499.5,-74 413.5,-74 413.5,-55 499.5,-55 499.5,-74"/>
<text text-anchor="middle" x="456.5" y="-62" font-family="Helvetica,sans-Serif" font-size="10.00">WoWGuid::Init</text>
</a>
</g>
</g>
<!-- Node3&#45;&gt;Node10 -->
<g id="edge9_Node000003_Node000010" class="edge">
<title>Node3&#45;&gt;Node10</title>
<g id="a_edge9_Node000003_Node000010"><a xlink:title=" ">
<path fill="none" stroke="#63b8ff" d="M319.3,-123.44C325.41,-120.78 331.47,-117.8 337,-114.5 355.14,-103.69 354.16,-93.04 373,-83.5 382.44,-78.72 393.1,-75.13 403.54,-72.43"/>
<polygon fill="#63b8ff" stroke="#63b8ff" points="404.5,-75.8 413.43,-70.11 402.9,-68.98 404.5,-75.8"/>
</a>
</g>
</g>
<!-- Node11 -->
<g id="Node000011" class="node">
<title>Node11</title>
<g id="a_Node000011"><a xlink:href="classWorldSession.html#ab014961bae815ec29c0d062da893ce68" target="_top" xlink:title=" ">
<polygon fill="white" stroke="#666666" points="540,-37 373,-37 373,-18 540,-18 540,-37"/>
<text text-anchor="middle" x="456.5" y="-25" font-family="Helvetica,sans-Serif" font-size="10.00">WorldSession::systemMessage</text>
</a>
</g>
</g>
<!-- Node3&#45;&gt;Node11 -->
<g id="edge10_Node000003_Node000011" class="edge">
<title>Node3&#45;&gt;Node11</title>
<g id="a_edge10_Node000003_Node000011"><a xlink:title=" ">
<path fill="none" stroke="#63b8ff" d="M324.12,-123.4C328.75,-120.86 333.14,-117.91 337,-114.5 362.62,-91.85 345.88,-67.33 373,-46.5 375.35,-44.7 377.84,-43.06 380.44,-41.57"/>
<polygon fill="#63b8ff" stroke="#63b8ff" points="382.17,-44.62 389.61,-37.07 379.09,-38.33 382.17,-44.62"/>
</a>
</g>
</g>
<!-- Node8 -->
<g id="Node000008" class="node">
<title>Node8</title>
<g id="a_Node000008"><a xlink:href="classUnit.html#a2b80af47340ac01ca2031723f37e839a" target="_top" xlink:title=" ">
<polygon fill="white" stroke="#666666" points="681,-148 596,-148 596,-129 681,-129 681,-148"/>
<text text-anchor="middle" x="638.5" y="-136" font-family="Helvetica,sans-Serif" font-size="10.00">Unit::unitData</text>
</a>
</g>
</g>
<!-- Node7&#45;&gt;Node8 -->
<g id="edge7_Node000007_Node000008" class="edge">
<title>Node7&#45;&gt;Node8</title>
<g id="a_edge7_Node000007_Node000008"><a xlink:title=" ">
<path fill="none" stroke="#63b8ff" d="M512.48,-138.5C535.79,-138.5 562.82,-138.5 585.76,-138.5"/>
<polygon fill="#63b8ff" stroke="#63b8ff" points="585.99,-142 595.99,-138.5 585.99,-135 585.99,-142"/>
</a>
</g>
</g>
<!-- Node12 -->
<g id="Node000012" class="node">
<title>Node12</title>
<g id="a_Node000012"><a xlink:href="color_8h.html#af4a3b7f252e457605de5440249a15699" target="_top" xlink:title=" ">
<polygon fill="white" stroke="#666666" points="663.5,-56 613.5,-56 613.5,-37 663.5,-37 663.5,-56"/>
<text text-anchor="middle" x="638.5" y="-44" font-family="Helvetica,sans-Serif" font-size="10.00">format</text>
</a>
</g>
</g>
<!-- Node11&#45;&gt;Node12 -->
<g id="edge11_Node000011_Node000012" class="edge">
<title>Node11&#45;&gt;Node12</title>
<g id="a_edge11_Node000011_Node000012"><a xlink:title=" ">
<path fill="none" stroke="#63b8ff" d="M540.12,-36.22C562.37,-38.57 585.23,-40.98 603.2,-42.88"/>
<polygon fill="#63b8ff" stroke="#63b8ff" points="602.87,-46.36 613.18,-43.93 603.6,-39.4 602.87,-46.36"/>
</a>
</g>
</g>
<!-- Node14 -->
<g id="Node000014" class="node">
<title>Node14</title>
<g id="a_Node000014"><a xlink:href="namespaceAscEmu.html#af79227cb68117f159a0cf3232904123a" target="_top" xlink:title=" ">
<polygon fill="white" stroke="#666666" points="701,-19 576,-19 576,0 701,0 701,-19"/>
<text text-anchor="middle" x="638.5" y="-7" font-family="Helvetica,sans-Serif" font-size="10.00">AscEmu::StringFormat</text>
</a>
</g>
</g>
<!-- Node11&#45;&gt;Node14 -->
<g id="edge13_Node000011_Node000014" class="edge">
<title>Node11&#45;&gt;Node14</title>
<g id="a_edge13_Node000011_Node000014"><a xlink:title=" ">
<path fill="none" stroke="#63b8ff" d="M540.12,-19.24C548.67,-18.38 557.3,-17.52 565.71,-16.68"/>
<polygon fill="#63b8ff" stroke="#63b8ff" points="566.23,-20.14 575.83,-15.67 565.53,-13.18 566.23,-20.14"/>
</a>
</g>
</g>
<!-- Node13 -->
<g id="Node000013" class="node">
<title>Node13</title>
<g id="a_Node000013"><a xlink:href="namespacedetail.html#a4662b86e5cfc5c32eb3efea5a84d3040" target="_top" xlink:title=" ">
<polygon fill="white" stroke="#666666" points="859,-56 737,-56 737,-37 859,-37 859,-56"/>
<text text-anchor="middle" x="798" y="-44" font-family="Helvetica,sans-Serif" font-size="10.00">detail::to_string_view</text>
</a>
</g>
</g>
<!-- Node12&#45;&gt;Node13 -->
<g id="edge12_Node000012_Node000013" class="edge">
<title>Node12&#45;&gt;Node13</title>
<g id="a_edge12_Node000012_Node000013"><a xlink:title=" ">
<path fill="none" stroke="#63b8ff" d="M663.76,-46.5C680.68,-46.5 704.16,-46.5 726.71,-46.5"/>
<polygon fill="#63b8ff" stroke="#63b8ff" points="726.98,-50 736.98,-46.5 726.98,-43 726.98,-50"/>
</a>
</g>
</g>
</g>
</svg>

<g id="navigator" transform="translate(0 0)" fill="#404254">
  <rect fill="#f2f5e9" fill-opacity="0.5" stroke="#606060" stroke-width=".5" x="0" y="0" width="60" height="60"/>
  <use id="zoomplus" xlink:href="#zoomPlus" x="17" y="9" onmousedown="handleZoom(evt,'in')"/>
  <use id="zoomminus" xlink:href="#zoomMin" x="42" y="9" onmousedown="handleZoom(evt,'out')"/>
  <use id="reset" xlink:href="#resetDef" x="30" y="36" onmousedown="handleReset()"/>
   <use id="arrowup" xlink:href="#arrowUp" x="0" y="0" onmousedown="handlePan(0,-1)"/>
  <use id="arrowright" xlink:href="#arrowRight" x="0" y="0" onmousedown="handlePan(1,0)"/>
  <use id="arrowdown" xlink:href="#arrowDown" x="0" y="0" onmousedown="handlePan(0,1)"/>
  <use id="arrowleft" xlink:href="#arrowLeft" x="0" y="0" onmousedown="handlePan(-1,0)"/>
</g>
<svg viewBox="0 0 15 15" width="100%" height="30px" preserveAspectRatio="xMaxYMin meet">
 <g id="arrow_out" transform="scale(0.3 0.3)">
  <a xlink:href="classChatCommandHandler_aad16b9522469131ede682aac5d3e3778_cgraph_org.svg" target="_base">
   <rect id="button" ry="5" rx="5" y="6" x="6" height="38" width="38"
        fill="#f2f5e9" fill-opacity="0.5" stroke="#606060" stroke-width="1.0"/>
   <path id="arrow"
     d="M 11.500037,31.436501 C 11.940474,20.09759 22.043105,11.32322 32.158766,21.979434 L 37.068811,17.246167 C 37.068811,17.246167 37.088388,32 37.088388,32 L 22.160133,31.978069 C 22.160133,31.978069 26.997745,27.140456 26.997745,27.140456 C 18.528582,18.264221 13.291696,25.230495 11.500037,31.436501 z"
     style="fill:#404040;"/>
  </a>
 </g>
</svg>

<style type='text/css'>
<![CDATA[
[data-mouse-over-selected='false'] { opacity: 0.7; }
[data-mouse-over-selected='true']  { opacity: 1.0; }
]]>
</style>
<script type="application/ecmascript"><![CDATA[
document.addEventListener('DOMContentLoaded', (event) => {
  highlightEdges();
  highlightAdjacentNodes();
});
]]></script>
</svg>
