<?xml version="1.0" encoding="UTF-8" standalone="no"?>
<!DOCTYPE svg PUBLIC "-//W3C//DTD SVG 1.1//EN"
 "http://www.w3.org/Graphics/SVG/1.1/DTD/svg11.dtd">
<!-- Generated by graphviz version 2.43.0 (0)
 -->
<!-- Title: ChatCommandHandler::HandlePlayerInfo Pages: 1 -->
<svg width="709pt" height="785pt"
 viewBox="0.00 0.00 709.00 785.00" xmlns="http://www.w3.org/2000/svg" xmlns:xlink="http://www.w3.org/1999/xlink">
<g id="graph0" class="graph" transform="scale(1 1) rotate(0) translate(4 781)">
<title>ChatCommandHandler::HandlePlayerInfo</title>
<!-- Node1 -->
<g id="Node000001" class="node">
<title>Node1</title>
<g id="a_Node000001"><a xlink:title=" ">
<polygon fill="#999999" stroke="#666666" points="128,-413 0,-413 0,-383 128,-383 128,-413"/>
<text text-anchor="start" x="8" y="-401" font-family="Helvetica,sans-Serif" font-size="10.00">ChatCommandHandler</text>
<text text-anchor="middle" x="64" y="-390" font-family="Helvetica,sans-Serif" font-size="10.00">::HandlePlayerInfo</text>
</a>
</g>
</g>
<!-- Node2 -->
<g id="Node000002" class="node">
<title>Node2</title>
<g id="a_Node000002"><a xlink:href="classChatCommandHandler.html#a1141a5b3f55d31ed3201e0bd266ef0ab" target="_top" xlink:title=" ">
<polygon fill="white" stroke="#666666" points="314.5,-777 186.5,-777 186.5,-747 314.5,-747 314.5,-777"/>
<text text-anchor="start" x="194.5" y="-765" font-family="Helvetica,sans-Serif" font-size="10.00">ChatCommandHandler</text>
<text text-anchor="middle" x="250.5" y="-754" font-family="Helvetica,sans-Serif" font-size="10.00">::blueSystemMessage</text>
</a>
</g>
</g>
<!-- Node1&#45;&gt;Node2 -->
<g id="edge1_Node000001_Node000002" class="edge">
<title>Node1&#45;&gt;Node2</title>
<g id="a_edge1_Node000001_Node000002"><a xlink:title=" ">
<path fill="none" stroke="#63b8ff" d="M64.59,-413.1C64.01,-465.92 69.43,-644.34 164,-738 167.8,-741.77 172.15,-744.96 176.82,-747.65"/>
<polygon fill="#63b8ff" stroke="#63b8ff" points="175.63,-750.97 186.15,-752.25 178.73,-744.69 175.63,-750.97"/>
</a>
</g>
</g>
<!-- Node3 -->
<g id="Node000003" class="node">
<title>Node3</title>
<g id="a_Node000003"><a xlink:href="classWorldSession.html#a1f1da993370f8057991ff448345b6cc3" target="_top" xlink:title=" ">
<polygon fill="white" stroke="#666666" points="327,-728.5 174,-728.5 174,-709.5 327,-709.5 327,-728.5"/>
<text text-anchor="middle" x="250.5" y="-716.5" font-family="Helvetica,sans-Serif" font-size="10.00">WorldSession::GetAccountId</text>
</a>
</g>
</g>
<!-- Node1&#45;&gt;Node3 -->
<g id="edge2_Node000001_Node000003" class="edge">
<title>Node1&#45;&gt;Node3</title>
<g id="a_edge2_Node000001_Node000003"><a xlink:title=" ">
<path fill="none" stroke="#63b8ff" d="M65,-413.06C65.85,-462.57 75.64,-621.73 164,-701 165.16,-702.04 166.37,-703.03 167.62,-703.97"/>
<polygon fill="#63b8ff" stroke="#63b8ff" points="166.04,-707.11 176.38,-709.43 169.74,-701.17 166.04,-707.11"/>
</a>
</g>
</g>
<!-- Node4 -->
<g id="Node000004" class="node">
<title>Node4</title>
<g id="a_Node000004"><a xlink:href="classWorldSession.html#aab6bd976dd7f9e18bbebcf609628dad7" target="_top" xlink:title=" ">
<polygon fill="white" stroke="#666666" points="337,-691.5 164,-691.5 164,-672.5 337,-672.5 337,-691.5"/>
<text text-anchor="middle" x="250.5" y="-679.5" font-family="Helvetica,sans-Serif" font-size="10.00">WorldSession::GetAccountName</text>
</a>
</g>
</g>
<!-- Node1&#45;&gt;Node4 -->
<g id="edge3_Node000001_Node000004" class="edge">
<title>Node1&#45;&gt;Node4</title>
<g id="a_edge3_Node000001_Node000004"><a xlink:title=" ">
<path fill="none" stroke="#63b8ff" d="M66.16,-413.22C70.38,-457.83 88.94,-589.42 164,-658 168.45,-662.06 173.53,-665.45 178.95,-668.26"/>
<polygon fill="#63b8ff" stroke="#63b8ff" points="177.78,-671.57 188.34,-672.48 180.65,-665.19 177.78,-671.57"/>
</a>
</g>
</g>
<!-- Node5 -->
<g id="Node000005" class="node">
<title>Node5</title>
<g id="a_Node000005"><a xlink:href="classUnit.html#a533b5c8f1fb379e5408ecf4c8292a9c7" target="_top" xlink:title=" ">
<polygon fill="white" stroke="#666666" points="499,-623.5 414,-623.5 414,-604.5 499,-604.5 499,-623.5"/>
<text text-anchor="middle" x="456.5" y="-611.5" font-family="Helvetica,sans-Serif" font-size="10.00">Unit::getClass</text>
</a>
</g>
</g>
<!-- Node1&#45;&gt;Node5 -->
<g id="edge4_Node000001_Node000005" class="edge">
<title>Node1&#45;&gt;Node5</title>
<g id="a_edge4_Node000001_Node000005"><a xlink:title=" ">
<path fill="none" stroke="#63b8ff" d="M66.18,-413.17C70.41,-455.62 88.83,-575.77 164,-625 243.54,-677.08 363.18,-646.86 421.33,-627.04"/>
<polygon fill="#63b8ff" stroke="#63b8ff" points="422.85,-630.22 431.12,-623.6 420.53,-623.62 422.85,-630.22"/>
</a>
</g>
</g>
<!-- Node7 -->
<g id="Node000007" class="node">
<title>Node7</title>
<g id="a_Node000007"><a xlink:href="classWorldSession.html#ab5d86aaaeaa009a0bcc5eaf9032f892e" target="_top" xlink:title=" ">
<polygon fill="white" stroke="#666666" points="329.5,-615.5 171.5,-615.5 171.5,-596.5 329.5,-596.5 329.5,-615.5"/>
<text text-anchor="middle" x="250.5" y="-603.5" font-family="Helvetica,sans-Serif" font-size="10.00">WorldSession::GetClientBuild</text>
</a>
</g>
</g>
<!-- Node1&#45;&gt;Node7 -->
<g id="edge6_Node000001_Node000007" class="edge">
<title>Node1&#45;&gt;Node7</title>
<g id="a_edge6_Node000001_Node000007"><a xlink:title=" ">
<path fill="none" stroke="#63b8ff" d="M68.79,-413.25C78.38,-448.55 106.95,-536.3 164,-582 169.34,-586.27 175.39,-589.79 181.75,-592.68"/>
<polygon fill="#63b8ff" stroke="#63b8ff" points="180.66,-596.01 191.24,-596.48 183.26,-589.51 180.66,-596.01"/>
</a>
</g>
</g>
<!-- Node8 -->
<g id="Node000008" class="node">
<title>Node8</title>
<g id="a_Node000008"><a xlink:href="classUnit.html#aab74c46d71788015a5f13f91a80b0f58" target="_top" xlink:title=" ">
<polygon fill="white" stroke="#666666" points="525.5,-557.5 387.5,-557.5 387.5,-538.5 525.5,-538.5 525.5,-557.5"/>
<text text-anchor="middle" x="456.5" y="-545.5" font-family="Helvetica,sans-Serif" font-size="10.00">Unit::getFactionTemplate</text>
</a>
</g>
</g>
<!-- Node1&#45;&gt;Node8 -->
<g id="edge7_Node000001_Node000008" class="edge">
<title>Node1&#45;&gt;Node8</title>
<g id="a_edge7_Node000001_Node000008"><a xlink:title=" ">
<path fill="none" stroke="#63b8ff" d="M69.53,-413.2C80.03,-445.31 109.39,-519.5 164,-549 243.55,-591.97 354.05,-574.48 413.55,-559.98"/>
<polygon fill="#63b8ff" stroke="#63b8ff" points="414.5,-563.35 423.34,-557.51 412.79,-556.56 414.5,-563.35"/>
</a>
</g>
</g>
<!-- Node9 -->
<g id="Node000009" class="node">
<title>Node9</title>
<g id="a_Node000009"><a xlink:href="classWorldSession.html#a6428619fe56c0dda85a86e45a847c594" target="_top" xlink:title=" ">
<polygon fill="white" stroke="#666666" points="316,-539.5 185,-539.5 185,-520.5 316,-520.5 316,-539.5"/>
<text text-anchor="middle" x="250.5" y="-527.5" font-family="Helvetica,sans-Serif" font-size="10.00">WorldSession::GetFlags</text>
</a>
</g>
</g>
<!-- Node1&#45;&gt;Node9 -->
<g id="edge9_Node000001_Node000009" class="edge">
<title>Node1&#45;&gt;Node9</title>
<g id="a_edge9_Node000001_Node000009"><a xlink:title=" ">
<path fill="none" stroke="#63b8ff" d="M74.63,-413.01C90.43,-436.42 124.13,-481.49 164,-506 171.44,-510.58 179.78,-514.3 188.25,-517.33"/>
<polygon fill="#63b8ff" stroke="#63b8ff" points="187.24,-520.68 197.83,-520.46 189.41,-514.03 187.24,-520.68"/>
</a>
</g>
</g>
<!-- Node10 -->
<g id="Node000010" class="node">
<title>Node10</title>
<g id="a_Node000010"><a xlink:href="classUnit.html#a64c7f368c3b6015ceccad0bd19720143" target="_top" xlink:title=" ">
<polygon fill="white" stroke="#666666" points="503.5,-501.5 409.5,-501.5 409.5,-482.5 503.5,-482.5 503.5,-501.5"/>
<text text-anchor="middle" x="456.5" y="-489.5" font-family="Helvetica,sans-Serif" font-size="10.00">Unit::getGender</text>
</a>
</g>
</g>
<!-- Node1&#45;&gt;Node10 -->
<g id="edge10_Node000001_Node000010" class="edge">
<title>Node1&#45;&gt;Node10</title>
<g id="a_edge10_Node000001_Node000010"><a xlink:title=" ">
<path fill="none" stroke="#63b8ff" d="M79.07,-413.06C96.88,-430.99 129.45,-460.12 164,-473 241.72,-501.96 339.1,-501.67 399.31,-497.69"/>
<polygon fill="#63b8ff" stroke="#63b8ff" points="399.65,-501.17 409.37,-496.96 399.14,-494.19 399.65,-501.17"/>
</a>
</g>
</g>
<!-- Node11 -->
<g id="Node000011" class="node">
<title>Node11</title>
<g id="a_Node000011"><a xlink:href="classWorldSession.html#a3766733ba5403370dbcaf9501340545f" target="_top" xlink:title=" ">
<polygon fill="white" stroke="#666666" points="322,-463.5 179,-463.5 179,-444.5 322,-444.5 322,-463.5"/>
<text text-anchor="middle" x="250.5" y="-451.5" font-family="Helvetica,sans-Serif" font-size="10.00">WorldSession::GetLatency</text>
</a>
</g>
</g>
<!-- Node1&#45;&gt;Node11 -->
<g id="edge12_Node000001_Node000011" class="edge">
<title>Node1&#45;&gt;Node11</title>
<g id="a_edge12_Node000001_Node000011"><a xlink:title=" ">
<path fill="none" stroke="#63b8ff" d="M100.27,-413.11C118.96,-420.71 142.46,-429.64 164,-436 171.65,-438.26 179.77,-440.35 187.84,-442.25"/>
<polygon fill="#63b8ff" stroke="#63b8ff" points="187.1,-445.67 197.63,-444.46 188.65,-438.84 187.1,-445.67"/>
</a>
</g>
</g>
<!-- Node12 -->
<g id="Node000012" class="node">
<title>Node12</title>
<g id="a_Node000012"><a xlink:href="classPlayer.html#a406231b7f86c1622142ea0ad1dfa773a" target="_top" xlink:title=" ">
<polygon fill="white" stroke="#666666" points="299.5,-426.5 201.5,-426.5 201.5,-407.5 299.5,-407.5 299.5,-426.5"/>
<text text-anchor="middle" x="250.5" y="-414.5" font-family="Helvetica,sans-Serif" font-size="10.00">Player::getName</text>
</a>
</g>
</g>
<!-- Node1&#45;&gt;Node12 -->
<g id="edge13_Node000001_Node000012" class="edge">
<title>Node1&#45;&gt;Node12</title>
<g id="a_edge13_Node000001_Node000012"><a xlink:title=" ">
<path fill="none" stroke="#63b8ff" d="M128.24,-404.51C148.76,-406.63 171.42,-408.96 191.54,-411.03"/>
<polygon fill="#63b8ff" stroke="#63b8ff" points="191.19,-414.51 201.5,-412.06 191.91,-407.55 191.19,-414.51"/>
</a>
</g>
</g>
<!-- Node13 -->
<g id="Node000013" class="node">
<title>Node13</title>
<g id="a_Node000013"><a xlink:href="classWorldSession.html#a316d788f183b5eaabd6d4ad5aaeb1408" target="_top" xlink:title=" ">
<polygon fill="white" stroke="#666666" points="332.5,-389.5 168.5,-389.5 168.5,-370.5 332.5,-370.5 332.5,-389.5"/>
<text text-anchor="middle" x="250.5" y="-377.5" font-family="Helvetica,sans-Serif" font-size="10.00">WorldSession::GetPermissions</text>
</a>
</g>
</g>
<!-- Node1&#45;&gt;Node13 -->
<g id="edge14_Node000001_Node000013" class="edge">
<title>Node1&#45;&gt;Node13</title>
<g id="a_edge14_Node000001_Node000013"><a xlink:title=" ">
<path fill="none" stroke="#63b8ff" d="M128.24,-391.83C137.94,-390.88 148.12,-389.89 158.28,-388.9"/>
<polygon fill="#63b8ff" stroke="#63b8ff" points="158.8,-392.37 168.41,-387.91 158.12,-385.4 158.8,-392.37"/>
</a>
</g>
</g>
<!-- Node14 -->
<g id="Node000014" class="node">
<title>Node14</title>
<g id="a_Node000014"><a xlink:href="classPlayer.html#a9f360a1964ff5bb24fed8f64a55167a0" target="_top" xlink:title=" ">
<polygon fill="white" stroke="#666666" points="314,-352.5 187,-352.5 187,-333.5 314,-333.5 314,-352.5"/>
<text text-anchor="middle" x="250.5" y="-340.5" font-family="Helvetica,sans-Serif" font-size="10.00">Player::getPlayedTime</text>
</a>
</g>
</g>
<!-- Node1&#45;&gt;Node14 -->
<g id="edge15_Node000001_Node000014" class="edge">
<title>Node1&#45;&gt;Node14</title>
<g id="a_edge15_Node000001_Node000014"><a xlink:title=" ">
<path fill="none" stroke="#63b8ff" d="M102.7,-382.98C121.01,-376.02 143.46,-367.99 164,-362 172.79,-359.44 182.18,-357.03 191.39,-354.84"/>
<polygon fill="#63b8ff" stroke="#63b8ff" points="192.33,-358.22 201.29,-352.56 190.76,-351.4 192.33,-358.22"/>
</a>
</g>
</g>
<!-- Node15 -->
<g id="Node000015" class="node">
<title>Node15</title>
<g id="a_Node000015"><a xlink:href="classUnit.html#aa1a6468c30ebc19a03d2d6ac03ec723e" target="_top" xlink:title=" ">
<polygon fill="white" stroke="#666666" points="498,-441.5 415,-441.5 415,-422.5 498,-422.5 498,-441.5"/>
<text text-anchor="middle" x="456.5" y="-429.5" font-family="Helvetica,sans-Serif" font-size="10.00">Unit::getRace</text>
</a>
</g>
</g>
<!-- Node1&#45;&gt;Node15 -->
<g id="edge16_Node000001_Node000015" class="edge">
<title>Node1&#45;&gt;Node15</title>
<g id="a_edge16_Node000001_Node000015"><a xlink:title=" ">
<path fill="none" stroke="#63b8ff" d="M79.02,-382.97C96.79,-365.15 129.31,-336.41 164,-325 237.04,-300.98 268.23,-290.61 337,-325 360.85,-336.93 353.93,-354.36 373,-373 390.42,-390.03 413.12,-405.89 430.29,-416.87"/>
<polygon fill="#63b8ff" stroke="#63b8ff" points="428.86,-420.1 439.19,-422.44 432.57,-414.17 428.86,-420.1"/>
</a>
</g>
</g>
<!-- Node16 -->
<g id="Node000016" class="node">
<title>Node16</title>
<g id="a_Node000016"><a xlink:href="classSocket.html#a88867f665b015f46723dcde56b8e743c" target="_top" xlink:title=" ">
<polygon fill="white" stroke="#666666" points="310,-276.5 191,-276.5 191,-257.5 310,-257.5 310,-276.5"/>
<text text-anchor="middle" x="250.5" y="-264.5" font-family="Helvetica,sans-Serif" font-size="10.00">Socket::GetRemoteIP</text>
</a>
</g>
</g>
<!-- Node1&#45;&gt;Node16 -->
<g id="edge18_Node000001_Node000016" class="edge">
<title>Node1&#45;&gt;Node16</title>
<g id="a_edge18_Node000001_Node000016"><a xlink:title=" ">
<path fill="none" stroke="#63b8ff" d="M74.92,-382.76C90.88,-359.46 124.49,-315.17 164,-291 171.45,-286.44 179.8,-282.72 188.27,-279.7"/>
<polygon fill="#63b8ff" stroke="#63b8ff" points="189.43,-283 197.85,-276.57 187.26,-276.35 189.43,-283"/>
</a>
</g>
</g>
<!-- Node17 -->
<g id="Node000017" class="node">
<title>Node17</title>
<g id="a_Node000017"><a xlink:href="classChatCommandHandler.html#abb463a1e2b89d32f293c3c16f19c7d70" target="_top" xlink:title=" ">
<polygon fill="white" stroke="#666666" points="314.5,-239 186.5,-239 186.5,-209 314.5,-209 314.5,-239"/>
<text text-anchor="start" x="194.5" y="-227" font-family="Helvetica,sans-Serif" font-size="10.00">ChatCommandHandler</text>
<text text-anchor="middle" x="250.5" y="-216" font-family="Helvetica,sans-Serif" font-size="10.00">::GetSelectedPlayer</text>
</a>
</g>
</g>
<!-- Node1&#45;&gt;Node17 -->
<g id="edge19_Node000001_Node000017" class="edge">
<title>Node1&#45;&gt;Node17</title>
<g id="a_edge19_Node000001_Node000017"><a xlink:title=" ">
<path fill="none" stroke="#63b8ff" d="M70.88,-382.77C83.31,-352.56 115.22,-284.9 164,-249 168.1,-245.98 172.56,-243.33 177.21,-240.99"/>
<polygon fill="#63b8ff" stroke="#63b8ff" points="178.68,-244.17 186.37,-236.89 175.82,-237.79 178.68,-244.17"/>
</a>
</g>
</g>
<!-- Node26 -->
<g id="Node000026" class="node">
<title>Node26</title>
<g id="a_Node000026"><a xlink:href="classPlayer.html#aee195158e07a0138b257f8d1ede0cc6b" target="_top" xlink:title=" ">
<polygon fill="white" stroke="#666666" points="304,-190.5 197,-190.5 197,-171.5 304,-171.5 304,-190.5"/>
<text text-anchor="middle" x="250.5" y="-178.5" font-family="Helvetica,sans-Serif" font-size="10.00">Player::getSession</text>
</a>
</g>
</g>
<!-- Node1&#45;&gt;Node26 -->
<g id="edge29_Node000001_Node000026" class="edge">
<title>Node1&#45;&gt;Node26</title>
<g id="a_edge29_Node000001_Node000026"><a xlink:title=" ">
<path fill="none" stroke="#63b8ff" d="M67.95,-382.78C76.03,-345.33 102.2,-248.25 164,-200 170.81,-194.69 178.8,-190.8 187.12,-187.96"/>
<polygon fill="#63b8ff" stroke="#63b8ff" points="188.36,-191.24 196.98,-185.09 186.4,-184.52 188.36,-191.24"/>
</a>
</g>
</g>
<!-- Node27 -->
<g id="Node000027" class="node">
<title>Node27</title>
<g id="a_Node000027"><a xlink:href="classWorldSession.html#a84935741bd944188c92f691ed6ba2c6c" target="_top" xlink:title=" ">
<polygon fill="white" stroke="#666666" points="319,-153.5 182,-153.5 182,-134.5 319,-134.5 319,-153.5"/>
<text text-anchor="middle" x="250.5" y="-141.5" font-family="Helvetica,sans-Serif" font-size="10.00">WorldSession::GetSocket</text>
</a>
</g>
</g>
<!-- Node1&#45;&gt;Node27 -->
<g id="edge30_Node000001_Node000027" class="edge">
<title>Node1&#45;&gt;Node27</title>
<g id="a_edge30_Node000001_Node000027"><a xlink:title=" ">
<path fill="none" stroke="#63b8ff" d="M66.58,-382.73C71.83,-340.44 92.58,-221.01 164,-162 166.71,-159.76 169.64,-157.77 172.71,-156.02"/>
<polygon fill="#63b8ff" stroke="#63b8ff" points="174.24,-159.17 181.72,-151.67 171.19,-152.87 174.24,-159.17"/>
</a>
</g>
</g>
<!-- Node28 -->
<g id="Node000028" class="node">
<title>Node28</title>
<g id="a_Node000028"><a xlink:href="classChatCommandHandler.html#a562947bc81997bcf5225df5cf1fbcaa6" target="_top" xlink:title=" ">
<polygon fill="white" stroke="#666666" points="316,-116 185,-116 185,-86 316,-86 316,-116"/>
<text text-anchor="start" x="193" y="-104" font-family="Helvetica,sans-Serif" font-size="10.00">ChatCommandHandler</text>
<text text-anchor="middle" x="250.5" y="-93" font-family="Helvetica,sans-Serif" font-size="10.00">::greenSystemMessage</text>
</a>
</g>
</g>
<!-- Node1&#45;&gt;Node28 -->
<g id="edge31_Node000001_Node000028" class="edge">
<title>Node1&#45;&gt;Node28</title>
<g id="a_edge31_Node000001_Node000028"><a xlink:title=" ">
<path fill="none" stroke="#63b8ff" d="M65.85,-382.7C69.26,-336.56 85.86,-197.55 164,-125 167.56,-121.7 171.53,-118.85 175.76,-116.38"/>
<polygon fill="#63b8ff" stroke="#63b8ff" points="177.41,-119.47 184.77,-111.85 174.27,-113.22 177.41,-119.47"/>
</a>
</g>
</g>
<!-- Node29 -->
<g id="Node000029" class="node">
<title>Node29</title>
<g id="a_Node000029"><a xlink:href="classWorldSession.html#a4121b12ef6f4615a9bb1173d640f9243" target="_top" xlink:title=" ">
<polygon fill="white" stroke="#666666" points="314.5,-67.5 186.5,-67.5 186.5,-48.5 314.5,-48.5 314.5,-67.5"/>
<text text-anchor="middle" x="250.5" y="-55.5" font-family="Helvetica,sans-Serif" font-size="10.00">WorldSession::HasFlag</text>
</a>
</g>
</g>
<!-- Node1&#45;&gt;Node29 -->
<g id="edge32_Node000001_Node000029" class="edge">
<title>Node1&#45;&gt;Node29</title>
<g id="a_edge32_Node000001_Node000029"><a xlink:title=" ">
<path fill="none" stroke="#63b8ff" d="M64.71,-382.84C64.62,-331.43 71.63,-162.22 164,-77 167.88,-73.42 172.28,-70.46 176.99,-68.02"/>
<polygon fill="#63b8ff" stroke="#63b8ff" points="178.6,-71.14 186.38,-63.94 175.81,-64.72 178.6,-71.14"/>
</a>
</g>
</g>
<!-- Node30 -->
<g id="Node000030" class="node">
<title>Node30</title>
<g id="a_Node000030"><a xlink:href="classChatCommandHandler.html#ac481a38af41845bdacba6cfca6f08a2d" target="_top" xlink:title=" ">
<polygon fill="white" stroke="#666666" points="314.5,-30 186.5,-30 186.5,0 314.5,0 314.5,-30"/>
<text text-anchor="start" x="194.5" y="-18" font-family="Helvetica,sans-Serif" font-size="10.00">ChatCommandHandler</text>
<text text-anchor="middle" x="250.5" y="-7" font-family="Helvetica,sans-Serif" font-size="10.00">::redSystemMessage</text>
</a>
</g>
</g>
<!-- Node1&#45;&gt;Node30 -->
<g id="edge33_Node000001_Node000030" class="edge">
<title>Node1&#45;&gt;Node30</title>
<g id="a_edge33_Node000001_Node000030"><a xlink:title=" ">
<path fill="none" stroke="#63b8ff" d="M64.31,-382.85C62.7,-328.12 64.79,-138.66 164,-39 167.94,-35.04 172.48,-31.72 177.37,-28.94"/>
<polygon fill="#63b8ff" stroke="#63b8ff" points="179.04,-32.02 186.5,-24.49 175.98,-25.72 179.04,-32.02"/>
</a>
</g>
</g>
<!-- Node6 -->
<g id="Node000006" class="node">
<title>Node6</title>
<g id="a_Node000006"><a xlink:href="classUnit.html#a2b80af47340ac01ca2031723f37e839a" target="_top" xlink:title=" ">
<polygon fill="white" stroke="#666666" points="681,-501.5 596,-501.5 596,-482.5 681,-482.5 681,-501.5"/>
<text text-anchor="middle" x="638.5" y="-489.5" font-family="Helvetica,sans-Serif" font-size="10.00">Unit::unitData</text>
</a>
</g>
</g>
<!-- Node5&#45;&gt;Node6 -->
<g id="edge5_Node000005_Node000006" class="edge">
<title>Node5&#45;&gt;Node6</title>
<g id="a_edge5_Node000005_Node000006"><a xlink:title=" ">
<path fill="none" stroke="#63b8ff" d="M475.96,-604.43C492.97,-595.39 518.72,-581.15 540,-567 568.35,-548.15 599.2,-523.7 618.44,-507.92"/>
<polygon fill="#63b8ff" stroke="#63b8ff" points="620.69,-510.6 626.18,-501.54 616.24,-505.21 620.69,-510.6"/>
</a>
</g>
</g>
<!-- Node8&#45;&gt;Node6 -->
<g id="edge8_Node000008_Node000006" class="edge">
<title>Node8&#45;&gt;Node6</title>
<g id="a_edge8_Node000008_Node000006"><a xlink:title=" ">
<path fill="none" stroke="#63b8ff" d="M488.44,-538.37C518.5,-529.02 564.3,-514.77 597.2,-504.54"/>
<polygon fill="#63b8ff" stroke="#63b8ff" points="598.45,-507.81 606.96,-501.5 596.37,-501.13 598.45,-507.81"/>
</a>
</g>
</g>
<!-- Node10&#45;&gt;Node6 -->
<g id="edge11_Node000010_Node000006" class="edge">
<title>Node10&#45;&gt;Node6</title>
<g id="a_edge11_Node000010_Node000006"><a xlink:title=" ">
<path fill="none" stroke="#63b8ff" d="M503.85,-492C528.96,-492 560.04,-492 585.91,-492"/>
<polygon fill="#63b8ff" stroke="#63b8ff" points="585.91,-495.5 595.91,-492 585.91,-488.5 585.91,-495.5"/>
</a>
</g>
</g>
<!-- Node15&#45;&gt;Node6 -->
<g id="edge17_Node000015_Node000006" class="edge">
<title>Node15&#45;&gt;Node6</title>
<g id="a_edge17_Node000015_Node000006"><a xlink:title=" ">
<path fill="none" stroke="#63b8ff" d="M486.02,-441.51C516.61,-451.7 565.34,-467.95 599.24,-479.25"/>
<polygon fill="#63b8ff" stroke="#63b8ff" points="598.22,-482.6 608.81,-482.44 600.43,-475.96 598.22,-482.6"/>
</a>
</g>
</g>
<!-- Node18 -->
<g id="Node000018" class="node">
<title>Node18</title>
<g id="a_Node000018"><a xlink:href="classWoWGuid.html#a8c5db0d6b72e4cc9e850a410f0030b92" target="_top" xlink:title=" ">
<polygon fill="white" stroke="#666666" points="510.5,-363.5 402.5,-363.5 402.5,-344.5 510.5,-344.5 510.5,-363.5"/>
<text text-anchor="middle" x="456.5" y="-351.5" font-family="Helvetica,sans-Serif" font-size="10.00">WoWGuid::getHigh</text>
</a>
</g>
</g>
<!-- Node17&#45;&gt;Node18 -->
<g id="edge20_Node000017_Node000018" class="edge">
<title>Node17&#45;&gt;Node18</title>
<g id="a_edge20_Node000017_Node000018"><a xlink:title=" ">
<path fill="none" stroke="#63b8ff" d="M314.71,-235.34C322.84,-238.76 330.55,-243.22 337,-249 368.14,-276.95 340.9,-309.15 373,-336 378.72,-340.79 385.43,-344.38 392.5,-347.07"/>
<polygon fill="#63b8ff" stroke="#63b8ff" points="391.72,-350.49 402.31,-350.2 393.85,-343.82 391.72,-350.49"/>
</a>
</g>
</g>
<!-- Node19 -->
<g id="Node000019" class="node">
<title>Node19</title>
<g id="a_Node000019"><a xlink:href="classWorldSession.html#a014d7fdeb157410b75dfd4bd0fe0efc2" target="_top" xlink:title=" ">
<polygon fill="white" stroke="#666666" points="524.5,-326.5 388.5,-326.5 388.5,-307.5 524.5,-307.5 524.5,-326.5"/>
<text text-anchor="middle" x="456.5" y="-314.5" font-family="Helvetica,sans-Serif" font-size="10.00">WorldSession::GetPlayer</text>
</a>
</g>
</g>
<!-- Node17&#45;&gt;Node19 -->
<g id="edge21_Node000017_Node000019" class="edge">
<title>Node17&#45;&gt;Node19</title>
<g id="a_edge21_Node000017_Node000019"><a xlink:title=" ">
<path fill="none" stroke="#63b8ff" d="M314.9,-237.3C322.72,-240.42 330.31,-244.27 337,-249 359.36,-264.81 350.11,-283.98 373,-299 375.41,-300.58 377.94,-302.03 380.56,-303.35"/>
<polygon fill="#63b8ff" stroke="#63b8ff" points="379.16,-306.56 389.72,-307.38 381.98,-300.15 379.16,-306.56"/>
</a>
</g>
</g>
<!-- Node20 -->
<g id="Node000020" class="node">
<title>Node20</title>
<g id="a_Node000020"><a xlink:href="classWorldMap.html#aaef96289a191fb47e1312a8938b835af" target="_top" xlink:title=" ">
<polygon fill="white" stroke="#666666" points="515.5,-289.5 397.5,-289.5 397.5,-270.5 515.5,-270.5 515.5,-289.5"/>
<text text-anchor="middle" x="456.5" y="-277.5" font-family="Helvetica,sans-Serif" font-size="10.00">WorldMap::getPlayer</text>
</a>
</g>
</g>
<!-- Node17&#45;&gt;Node20 -->
<g id="edge22_Node000017_Node000020" class="edge">
<title>Node17&#45;&gt;Node20</title>
<g id="a_edge22_Node000017_Node000020"><a xlink:title=" ">
<path fill="none" stroke="#63b8ff" d="M305.02,-239.09C315.65,-242.25 326.71,-245.64 337,-249 353.17,-254.28 356.65,-257.29 373,-262 380.71,-264.22 388.9,-266.32 397,-268.24"/>
<polygon fill="#63b8ff" stroke="#63b8ff" points="396.28,-271.66 406.81,-270.49 397.85,-264.84 396.28,-271.66"/>
</a>
</g>
</g>
<!-- Node21 -->
<g id="Node000021" class="node">
<title>Node21</title>
<g id="a_Node000021"><a xlink:href="classUnit.html#a50e5b30e1c170be2c8415a84d0e78cc8" target="_top" xlink:title=" ">
<polygon fill="white" stroke="#666666" points="512,-252.5 401,-252.5 401,-233.5 512,-233.5 512,-252.5"/>
<text text-anchor="middle" x="456.5" y="-240.5" font-family="Helvetica,sans-Serif" font-size="10.00">Unit::getTargetGuid</text>
</a>
</g>
</g>
<!-- Node17&#45;&gt;Node21 -->
<g id="edge23_Node000017_Node000021" class="edge">
<title>Node17&#45;&gt;Node21</title>
<g id="a_edge23_Node000017_Node000021"><a xlink:title=" ">
<path fill="none" stroke="#63b8ff" d="M314.65,-229.88C338.81,-232.13 366.4,-234.7 390.71,-236.97"/>
<polygon fill="#63b8ff" stroke="#63b8ff" points="390.63,-240.47 400.91,-237.92 391.28,-233.5 390.63,-240.47"/>
</a>
</g>
</g>
<!-- Node22 -->
<g id="Node000022" class="node">
<title>Node22</title>
<g id="a_Node000022"><a xlink:href="classObject.html#a967af054c54b6d9846637ce8718efd75" target="_top" xlink:title=" ">
<polygon fill="white" stroke="#666666" points="516,-215.5 397,-215.5 397,-196.5 516,-196.5 516,-215.5"/>
<text text-anchor="middle" x="456.5" y="-203.5" font-family="Helvetica,sans-Serif" font-size="10.00">Object::getWorldMap</text>
</a>
</g>
</g>
<!-- Node17&#45;&gt;Node22 -->
<g id="edge25_Node000017_Node000022" class="edge">
<title>Node17&#45;&gt;Node22</title>
<g id="a_edge25_Node000017_Node000022"><a xlink:title=" ">
<path fill="none" stroke="#63b8ff" d="M314.65,-218.43C337.48,-216.41 363.37,-214.13 386.67,-212.07"/>
<polygon fill="#63b8ff" stroke="#63b8ff" points="387.17,-215.54 396.82,-211.18 386.55,-208.57 387.17,-215.54"/>
</a>
</g>
</g>
<!-- Node23 -->
<g id="Node000023" class="node">
<title>Node23</title>
<g id="a_Node000023"><a xlink:href="classWoWGuid.html#af262e032110b2936fde7b85a73a21d1b" target="_top" xlink:title=" ">
<polygon fill="white" stroke="#666666" points="499.5,-178.5 413.5,-178.5 413.5,-159.5 499.5,-159.5 499.5,-178.5"/>
<text text-anchor="middle" x="456.5" y="-166.5" font-family="Helvetica,sans-Serif" font-size="10.00">WoWGuid::Init</text>
</a>
</g>
</g>
<!-- Node17&#45;&gt;Node23 -->
<g id="edge26_Node000017_Node000023" class="edge">
<title>Node17&#45;&gt;Node23</title>
<g id="a_edge26_Node000017_Node000023"><a xlink:title=" ">
<path fill="none" stroke="#63b8ff" d="M306.81,-208.9C316.88,-206.03 327.27,-202.98 337,-200 353.12,-195.05 356.76,-192.56 373,-188 382.76,-185.26 393.26,-182.61 403.38,-180.21"/>
<polygon fill="#63b8ff" stroke="#63b8ff" points="404.39,-183.57 413.33,-177.9 402.8,-176.75 404.39,-183.57"/>
</a>
</g>
</g>
<!-- Node24 -->
<g id="Node000024" class="node">
<title>Node24</title>
<g id="a_Node000024"><a xlink:href="classWorldSession.html#ab014961bae815ec29c0d062da893ce68" target="_top" xlink:title=" ">
<polygon fill="white" stroke="#666666" points="540,-141.5 373,-141.5 373,-122.5 540,-122.5 540,-141.5"/>
<text text-anchor="middle" x="456.5" y="-129.5" font-family="Helvetica,sans-Serif" font-size="10.00">WorldSession::systemMessage</text>
</a>
</g>
</g>
<!-- Node17&#45;&gt;Node24 -->
<g id="edge27_Node000017_Node000024" class="edge">
<title>Node17&#45;&gt;Node24</title>
<g id="a_edge27_Node000017_Node000024"><a xlink:title=" ">
<path fill="none" stroke="#63b8ff" d="M314.89,-211.49C322.72,-208.45 330.3,-204.68 337,-200 359.44,-184.31 350.11,-165.02 373,-150 375.41,-148.42 377.94,-146.97 380.56,-145.65"/>
<polygon fill="#63b8ff" stroke="#63b8ff" points="381.98,-148.85 389.72,-141.62 379.16,-142.44 381.98,-148.85"/>
</a>
</g>
</g>
<!-- Node21&#45;&gt;Node6 -->
<g id="edge24_Node000021_Node000006" class="edge">
<title>Node21&#45;&gt;Node6</title>
<g id="a_edge24_Node000021_Node000006"><a xlink:title=" ">
<path fill="none" stroke="#63b8ff" d="M512.39,-248.04C522.38,-250.97 532.12,-255.39 540,-262 606.63,-317.91 628.7,-427.37 635.14,-472.17"/>
<polygon fill="#63b8ff" stroke="#63b8ff" points="631.7,-472.86 636.48,-482.32 638.64,-471.95 631.7,-472.86"/>
</a>
</g>
</g>
<!-- Node25 -->
<g id="Node000025" class="node">
<title>Node25</title>
<g id="a_Node000025"><a xlink:href="namespaceAscEmu.html#af79227cb68117f159a0cf3232904123a" target="_top" xlink:title=" ">
<polygon fill="white" stroke="#666666" points="701,-141.5 576,-141.5 576,-122.5 701,-122.5 701,-141.5"/>
<text text-anchor="middle" x="638.5" y="-129.5" font-family="Helvetica,sans-Serif" font-size="10.00">AscEmu::StringFormat</text>
</a>
</g>
</g>
<!-- Node24&#45;&gt;Node25 -->
<g id="edge28_Node000024_Node000025" class="edge">
<title>Node24&#45;&gt;Node25</title>
<g id="a_edge28_Node000024_Node000025"><a xlink:title=" ">
<path fill="none" stroke="#63b8ff" d="M540.12,-132C548.67,-132 557.3,-132 565.71,-132"/>
<polygon fill="#63b8ff" stroke="#63b8ff" points="565.83,-135.5 575.83,-132 565.83,-128.5 565.83,-135.5"/>
</a>
</g>
</g>
</g>
</svg>
