<?xml version="1.0" encoding="UTF-8" standalone="no"?>
<!DOCTYPE svg PUBLIC "-//W3C//DTD SVG 1.1//EN"
 "http://www.w3.org/Graphics/SVG/1.1/DTD/svg11.dtd">
<!-- Generated by graphviz version 2.43.0 (0)
 -->
<!-- Title: IsleOfConquest::Finish Pages: 1 -->
<svg width="587pt" height="70pt"
 viewBox="0.00 0.00 587.00 69.50" xmlns="http://www.w3.org/2000/svg" xmlns:xlink="http://www.w3.org/1999/xlink">
<g id="graph0" class="graph" transform="scale(1 1) rotate(0) translate(4 65.5)">
<title>IsleOfConquest::Finish</title>
<!-- Node1 -->
<g id="Node000001" class="node">
<title>Node1</title>
<g id="a_Node000001"><a xlink:title=" ">
<polygon fill="#999999" stroke="#666666" points="579,-42.5 454,-42.5 454,-23.5 579,-23.5 579,-42.5"/>
<text text-anchor="middle" x="516.5" y="-30.5" font-family="Helvetica,sans-Serif" font-size="10.00">IsleOfConquest::Finish</text>
</a>
</g>
</g>
<!-- Node2 -->
<g id="Node000002" class="node">
<title>Node2</title>
<g id="a_Node000002"><a xlink:href="classIsleOfConquest.html#a57444d70b4bb2cb043e8babdab0c52ac" target="_top" xlink:title=" ">
<polygon fill="white" stroke="#666666" points="400,-61.5 221,-61.5 221,-42.5 400,-42.5 400,-61.5"/>
<text text-anchor="middle" x="310.5" y="-49.5" font-family="Helvetica,sans-Serif" font-size="10.00">IsleOfConquest::HookOnUnitDied</text>
</a>
</g>
</g>
<!-- Node1&#45;&gt;Node2 -->
<g id="edge1_Node000001_Node000002" class="edge">
<title>Node1&#45;&gt;Node2</title>
<g id="a_edge1_Node000001_Node000002"><a xlink:title=" ">
<path fill="none" stroke="#63b8ff" d="M443.66,-39.69C429.59,-41 414.68,-42.39 400.14,-43.74"/>
<polygon fill="#63b8ff" stroke="#63b8ff" points="444.11,-43.16 453.74,-38.75 443.46,-36.19 444.11,-43.16"/>
</a>
</g>
</g>
<!-- Node3 -->
<g id="Node000003" class="node">
<title>Node3</title>
<g id="a_Node000003"><a xlink:href="classIsleOfConquest.html#ae29928b5b16305d8f08d4e69cfb66ec6" target="_top" xlink:title=" ">
<polygon fill="white" stroke="#666666" points="418,-24.5 203,-24.5 203,-5.5 418,-5.5 418,-24.5"/>
<text text-anchor="middle" x="310.5" y="-12.5" font-family="Helvetica,sans-Serif" font-size="10.00">IsleOfConquest::RemoveReinforcements</text>
</a>
</g>
</g>
<!-- Node1&#45;&gt;Node3 -->
<g id="edge2_Node000001_Node000003" class="edge">
<title>Node1&#45;&gt;Node3</title>
<g id="a_edge2_Node000001_Node000003"><a xlink:title=" ">
<path fill="none" stroke="#63b8ff" d="M443.53,-26.65C435.33,-25.93 426.84,-25.18 418.32,-24.43"/>
<polygon fill="#63b8ff" stroke="#63b8ff" points="443.47,-30.16 453.74,-27.55 444.09,-23.19 443.47,-30.16"/>
</a>
</g>
</g>
<!-- Node4 -->
<g id="Node000004" class="node">
<title>Node4</title>
<g id="a_Node000004"><a xlink:href="classIsleOfConquest.html#a525b14977943d6ae6f676ba9c3427f4a" target="_top" xlink:title=" ">
<polygon fill="white" stroke="#666666" points="167,-30 0,-30 0,0 167,0 167,-30"/>
<text text-anchor="start" x="8" y="-18" font-family="Helvetica,sans-Serif" font-size="10.00">IsleOfConquest::HookOnPlayer</text>
<text text-anchor="middle" x="83.5" y="-7" font-family="Helvetica,sans-Serif" font-size="10.00">Death</text>
</a>
</g>
</g>
<!-- Node3&#45;&gt;Node4 -->
<g id="edge3_Node000003_Node000004" class="edge">
<title>Node3&#45;&gt;Node4</title>
<g id="a_edge3_Node000003_Node000004"><a xlink:title=" ">
<path fill="none" stroke="#63b8ff" d="M192.76,-15C184.1,-15 175.48,-15 167.09,-15"/>
<polygon fill="#63b8ff" stroke="#63b8ff" points="192.93,-18.5 202.93,-15 192.93,-11.5 192.93,-18.5"/>
</a>
</g>
</g>
</g>
</svg>
