<?xml version="1.0" encoding="UTF-8" standalone="no"?>
<!DOCTYPE svg PUBLIC "-//W3C//DTD SVG 1.1//EN"
 "http://www.w3.org/Graphics/SVG/1.1/DTD/svg11.dtd">
<!-- Generated by graphviz version 2.43.0 (0)
 -->
<!-- Title: ByteBuffer::append Pages: 1 -->
<svg width="270pt" height="64pt"
 viewBox="0.00 0.00 270.00 64.00" xmlns="http://www.w3.org/2000/svg" xmlns:xlink="http://www.w3.org/1999/xlink">
<g id="graph0" class="graph" transform="scale(1 1) rotate(0) translate(4 60)">
<title>ByteBuffer::append</title>
<!-- Node1 -->
<g id="Node000001" class="node">
<title>Node1</title>
<g id="a_Node000001"><a xlink:title=" ">
<polygon fill="#999999" stroke="#666666" points="110,-37 0,-37 0,-18 110,-18 110,-37"/>
<text text-anchor="middle" x="55" y="-25" font-family="Helvetica,sans-Serif" font-size="10.00">ByteBuffer::append</text>
</a>
</g>
</g>
<!-- Node2 -->
<g id="Node000002" class="node">
<title>Node2</title>
<g id="a_Node000002"><a xlink:href="classByteBuffer.html#a8d712af2767c7ca45de60bd9d85738d8" target="_top" xlink:title=" ">
<polygon fill="white" stroke="#666666" points="262,-56 146,-56 146,-37 262,-37 262,-56"/>
<text text-anchor="middle" x="204" y="-44" font-family="Helvetica,sans-Serif" font-size="10.00">ByteBuffer::contents</text>
</a>
</g>
</g>
<!-- Node1&#45;&gt;Node2 -->
<g id="edge1_Node000001_Node000002" class="edge">
<title>Node1&#45;&gt;Node2</title>
<g id="a_edge1_Node000001_Node000002"><a xlink:title=" ">
<path fill="none" stroke="#63b8ff" d="M110.32,-34.52C118.67,-35.6 127.37,-36.72 135.95,-37.83"/>
<polygon fill="#63b8ff" stroke="#63b8ff" points="135.58,-41.32 145.95,-39.13 136.48,-34.37 135.58,-41.32"/>
</a>
</g>
</g>
<!-- Node3 -->
<g id="Node000003" class="node">
<title>Node3</title>
<g id="a_Node000003"><a xlink:href="classByteBuffer.html#ac06a598447807d32f6594a97a32bce94" target="_top" xlink:title=" ">
<polygon fill="white" stroke="#666666" points="251,-19 157,-19 157,0 251,0 251,-19"/>
<text text-anchor="middle" x="204" y="-7" font-family="Helvetica,sans-Serif" font-size="10.00">ByteBuffer::size</text>
</a>
</g>
</g>
<!-- Node1&#45;&gt;Node3 -->
<g id="edge2_Node000001_Node000003" class="edge">
<title>Node1&#45;&gt;Node3</title>
<g id="a_edge2_Node000001_Node000003"><a xlink:title=" ">
<path fill="none" stroke="#63b8ff" d="M110.32,-20.85C122.09,-19.41 134.56,-17.88 146.41,-16.43"/>
<polygon fill="#63b8ff" stroke="#63b8ff" points="147.13,-19.87 156.63,-15.18 146.28,-12.92 147.13,-19.87"/>
</a>
</g>
</g>
</g>
</svg>
