<?xml version="1.0" encoding="UTF-8" standalone="no"?>
<!DOCTYPE svg PUBLIC "-//W3C//DTD SVG 1.1//EN"
 "http://www.w3.org/Graphics/SVG/1.1/DTD/svg11.dtd">
<!-- Generated by graphviz version 2.43.0 (0)
 -->
<!-- Title: TwiggyFlathead::SetCreatureData64 Pages: 1 -->
<svg width="543pt" height="175pt"
 viewBox="0.00 0.00 543.00 175.00" xmlns="http://www.w3.org/2000/svg" xmlns:xlink="http://www.w3.org/1999/xlink">
<g id="graph0" class="graph" transform="scale(1 1) rotate(0) translate(4 171)">
<title>TwiggyFlathead::SetCreatureData64</title>
<!-- Node1 -->
<g id="Node000001" class="node">
<title>Node1</title>
<g id="a_Node000001"><a xlink:title=" ">
<polygon fill="#999999" stroke="#666666" points="157,-116.5 0,-116.5 0,-86.5 157,-86.5 157,-116.5"/>
<text text-anchor="start" x="8" y="-104.5" font-family="Helvetica,sans-Serif" font-size="10.00">TwiggyFlathead::SetCreature</text>
<text text-anchor="middle" x="78.5" y="-93.5" font-family="Helvetica,sans-Serif" font-size="10.00">Data64</text>
</a>
</g>
</g>
<!-- Node2 -->
<g id="Node000002" class="node">
<title>Node2</title>
<g id="a_Node000002"><a xlink:href="classCreatureAIScript.html#a971bb1373556b3ec594d8f7ba5f5e6e6" target="_top" xlink:title=" ">
<polygon fill="white" stroke="#666666" points="353,-130 193,-130 193,-111 353,-111 353,-130"/>
<text text-anchor="middle" x="273" y="-118" font-family="Helvetica,sans-Serif" font-size="10.00">CreatureAIScript::getCreature</text>
</a>
</g>
</g>
<!-- Node1&#45;&gt;Node2 -->
<g id="edge1_Node000001_Node000002" class="edge">
<title>Node1&#45;&gt;Node2</title>
<g id="a_edge1_Node000001_Node000002"><a xlink:title=" ">
<path fill="none" stroke="#63b8ff" d="M157.24,-109.17C165.64,-110 174.24,-110.85 182.76,-111.69"/>
<polygon fill="#63b8ff" stroke="#63b8ff" points="182.42,-115.18 192.71,-112.67 183.11,-108.21 182.42,-115.18"/>
</a>
</g>
</g>
<!-- Node3 -->
<g id="Node000003" class="node">
<title>Node3</title>
<g id="a_Node000003"><a xlink:href="classObject.html#a86fd2af012796caaea8dd77e78ea0815" target="_top" xlink:title=" ">
<polygon fill="white" stroke="#666666" points="347.5,-93 198.5,-93 198.5,-74 347.5,-74 347.5,-93"/>
<text text-anchor="middle" x="273" y="-81" font-family="Helvetica,sans-Serif" font-size="10.00">Object::getWorldMapPlayer</text>
</a>
</g>
</g>
<!-- Node1&#45;&gt;Node3 -->
<g id="edge2_Node000001_Node000003" class="edge">
<title>Node1&#45;&gt;Node3</title>
<g id="a_edge2_Node000001_Node000003"><a xlink:title=" ">
<path fill="none" stroke="#63b8ff" d="M157.24,-94.23C167.42,-93.28 177.88,-92.3 188.15,-91.34"/>
<polygon fill="#63b8ff" stroke="#63b8ff" points="188.7,-94.8 198.33,-90.39 188.05,-87.83 188.7,-94.8"/>
</a>
</g>
</g>
<!-- Node4 -->
<g id="Node000004" class="node">
<title>Node4</title>
<g id="a_Node000004"><a xlink:href="classWoWGuid.html#aaa546e886497d5fb0e2eb2a267a81786" target="_top" xlink:title=" ">
<polygon fill="white" stroke="#666666" points="535,-167 389,-167 389,-148 535,-148 535,-167"/>
<text text-anchor="middle" x="462" y="-155" font-family="Helvetica,sans-Serif" font-size="10.00">WoWGuid::getGuidLowPart</text>
</a>
</g>
</g>
<!-- Node3&#45;&gt;Node4 -->
<g id="edge3_Node000003_Node000004" class="edge">
<title>Node3&#45;&gt;Node4</title>
<g id="a_edge3_Node000003_Node000004"><a xlink:title=" ">
<path fill="none" stroke="#63b8ff" d="M330.74,-93.01C338.49,-95.48 346.14,-98.59 353,-102.5 372.94,-113.85 369.11,-128.06 389,-139.5 392.05,-141.26 395.27,-142.84 398.59,-144.27"/>
<polygon fill="#63b8ff" stroke="#63b8ff" points="397.56,-147.63 408.15,-147.92 400.05,-141.08 397.56,-147.63"/>
</a>
</g>
</g>
<!-- Node5 -->
<g id="Node000005" class="node">
<title>Node5</title>
<g id="a_Node000005"><a xlink:href="classWorldMap.html#aaef96289a191fb47e1312a8938b835af" target="_top" xlink:title=" ">
<polygon fill="white" stroke="#666666" points="521,-130 403,-130 403,-111 521,-111 521,-130"/>
<text text-anchor="middle" x="462" y="-118" font-family="Helvetica,sans-Serif" font-size="10.00">WorldMap::getPlayer</text>
</a>
</g>
</g>
<!-- Node3&#45;&gt;Node5 -->
<g id="edge4_Node000003_Node000005" class="edge">
<title>Node3&#45;&gt;Node5</title>
<g id="a_edge4_Node000003_Node000005"><a xlink:title=" ">
<path fill="none" stroke="#63b8ff" d="M322.16,-93.03C346.71,-97.89 376.77,-103.83 402.63,-108.95"/>
<polygon fill="#63b8ff" stroke="#63b8ff" points="402.19,-112.43 412.68,-110.94 403.55,-105.57 402.19,-112.43"/>
</a>
</g>
</g>
<!-- Node6 -->
<g id="Node000006" class="node">
<title>Node6</title>
<g id="a_Node000006"><a xlink:href="classObject.html#a967af054c54b6d9846637ce8718efd75" target="_top" xlink:title=" ">
<polygon fill="white" stroke="#666666" points="521.5,-93 402.5,-93 402.5,-74 521.5,-74 521.5,-93"/>
<text text-anchor="middle" x="462" y="-81" font-family="Helvetica,sans-Serif" font-size="10.00">Object::getWorldMap</text>
</a>
</g>
</g>
<!-- Node3&#45;&gt;Node6 -->
<g id="edge5_Node000003_Node000006" class="edge">
<title>Node3&#45;&gt;Node6</title>
<g id="a_edge5_Node000003_Node000006"><a xlink:title=" ">
<path fill="none" stroke="#63b8ff" d="M347.64,-83.5C362.28,-83.5 377.6,-83.5 392.07,-83.5"/>
<polygon fill="#63b8ff" stroke="#63b8ff" points="392.44,-87 402.44,-83.5 392.44,-80 392.44,-87"/>
</a>
</g>
</g>
<!-- Node7 -->
<g id="Node000007" class="node">
<title>Node7</title>
<g id="a_Node000007"><a xlink:href="classWoWGuid.html#af262e032110b2936fde7b85a73a21d1b" target="_top" xlink:title=" ">
<polygon fill="white" stroke="#666666" points="505,-56 419,-56 419,-37 505,-37 505,-56"/>
<text text-anchor="middle" x="462" y="-44" font-family="Helvetica,sans-Serif" font-size="10.00">WoWGuid::Init</text>
</a>
</g>
</g>
<!-- Node3&#45;&gt;Node7 -->
<g id="edge6_Node000003_Node000007" class="edge">
<title>Node3&#45;&gt;Node7</title>
<g id="a_edge6_Node000003_Node000007"><a xlink:title=" ">
<path fill="none" stroke="#63b8ff" d="M322.16,-73.97C348.64,-68.73 381.53,-62.22 408.65,-56.86"/>
<polygon fill="#63b8ff" stroke="#63b8ff" points="409.6,-60.24 418.73,-54.86 408.25,-53.37 409.6,-60.24"/>
</a>
</g>
</g>
<!-- Node8 -->
<g id="Node000008" class="node">
<title>Node8</title>
<g id="a_Node000008"><a xlink:href="classObject.html#a3aeab7def818ba6c50249f197ad2f9ca" target="_top" xlink:title=" ">
<polygon fill="white" stroke="#666666" points="511.5,-19 412.5,-19 412.5,0 511.5,0 511.5,-19"/>
<text text-anchor="middle" x="462" y="-7" font-family="Helvetica,sans-Serif" font-size="10.00">Object::IsInWorld</text>
</a>
</g>
</g>
<!-- Node3&#45;&gt;Node8 -->
<g id="edge7_Node000003_Node000008" class="edge">
<title>Node3&#45;&gt;Node8</title>
<g id="a_edge7_Node000003_Node000008"><a xlink:title=" ">
<path fill="none" stroke="#63b8ff" d="M291.48,-73.86C313.64,-61.94 353.27,-41.63 389,-28.5 395.52,-26.1 402.48,-23.88 409.4,-21.85"/>
<polygon fill="#63b8ff" stroke="#63b8ff" points="410.78,-25.1 419.46,-19.04 408.89,-18.36 410.78,-25.1"/>
</a>
</g>
</g>
</g>
</svg>
