<?xml version="1.0" encoding="UTF-8" standalone="no"?>
<!DOCTYPE svg PUBLIC "-//W3C//DTD SVG 1.1//EN"
 "http://www.w3.org/Graphics/SVG/1.1/DTD/svg11.dtd">
<!-- Generated by graphviz version 2.43.0 (0)
 -->
<!-- Title: Aura::spellAuraEffectDummy Pages: 1 -->
<svg width="452pt" height="151pt"
 viewBox="0.00 0.00 452.00 150.50" xmlns="http://www.w3.org/2000/svg" xmlns:xlink="http://www.w3.org/1999/xlink">

<svg id="main" version="1.1" xmlns="http://www.w3.org/2000/svg" xmlns:xlink="http://www.w3.org/1999/xlink" xml:space="preserve" onload="init(evt)">
<style type="text/css"><![CDATA[
.node, .edge {opacity: 0.7;}
.node.selected, .edge.selected {opacity: 1;}
.edge:hover path { stroke: red; }
.edge:hover polygon { stroke: red; fill: red; }
]]></style>
<script type="application/ecmascript" xlink:href="svg.min.js"/>
<svg id="graph" class="graph">
<g id="graph0" class="graph" transform="scale(1 1) rotate(0) translate(4 146.5)">
<title>Aura::spellAuraEffectDummy</title>
<!-- Node1 -->
<g id="Node000001" class="node">
<title>Node1</title>
<g id="a_Node000001"><a xlink:title=" ">
<polygon fill="#999999" stroke="#666666" points="158,-75 0,-75 0,-56 158,-56 158,-75"/>
<text text-anchor="middle" x="79" y="-63" font-family="Helvetica,sans-Serif" font-size="10.00">Aura::spellAuraEffectDummy</text>
</a>
</g>
</g>
<!-- Node2 -->
<g id="Node000002" class="node">
<title>Node2</title>
<g id="a_Node000002"><a xlink:href="structAuraEffectModifier.html#ab76bc6ed02fbf0f1656bd81dd0cc4a7b" target="_top" xlink:title=" ">
<polygon fill="white" stroke="#666666" points="302.5,-142.5 195.5,-142.5 195.5,-112.5 302.5,-112.5 302.5,-142.5"/>
<text text-anchor="start" x="203.5" y="-130.5" font-family="Helvetica,sans-Serif" font-size="10.00">AuraEffectModifier</text>
<text text-anchor="middle" x="249" y="-119.5" font-family="Helvetica,sans-Serif" font-size="10.00">::getEffectIndex</text>
</a>
</g>
</g>
<!-- Node1&#45;&gt;Node2 -->
<g id="edge1_Node000001_Node000002" class="edge">
<title>Node1&#45;&gt;Node2</title>
<g id="a_edge1_Node000001_Node000002"><a xlink:title=" ">
<path fill="none" stroke="#63b8ff" d="M105.88,-75.05C130.22,-84.03 167.31,-97.72 197.51,-108.87"/>
<polygon fill="#63b8ff" stroke="#63b8ff" points="196.45,-112.21 207.04,-112.38 198.87,-105.64 196.45,-112.21"/>
</a>
</g>
</g>
<!-- Node3 -->
<g id="Node000003" class="node">
<title>Node3</title>
<g id="a_Node000003"><a xlink:href="classSpellInfo.html#a896830ef027cc8a1c24c3bf0e60ae82e" target="_top" xlink:title=" ">
<polygon fill="white" stroke="#666666" points="437,-75 347,-75 347,-56 437,-56 437,-75"/>
<text text-anchor="middle" x="392" y="-63" font-family="Helvetica,sans-Serif" font-size="10.00">SpellInfo::getId</text>
</a>
</g>
</g>
<!-- Node1&#45;&gt;Node3 -->
<g id="edge2_Node000001_Node000003" class="edge">
<title>Node1&#45;&gt;Node3</title>
<g id="a_edge2_Node000001_Node000003"><a xlink:title=" ">
<path fill="none" stroke="#63b8ff" d="M158.08,-65.5C213.68,-65.5 287.01,-65.5 336.42,-65.5"/>
<polygon fill="#63b8ff" stroke="#63b8ff" points="336.58,-69 346.58,-65.5 336.58,-62 336.58,-69"/>
</a>
</g>
</g>
<!-- Node4 -->
<g id="Node000004" class="node">
<title>Node4</title>
<g id="a_Node000004"><a xlink:href="classSpellInfo.html#a104796eef8596a6421fef1cb06a7c421" target="_top" xlink:title=" ">
<polygon fill="white" stroke="#666666" points="304,-56 194,-56 194,-37 304,-37 304,-56"/>
<text text-anchor="middle" x="249" y="-44" font-family="Helvetica,sans-Serif" font-size="10.00">SpellInfo::getName</text>
</a>
</g>
</g>
<!-- Node1&#45;&gt;Node4 -->
<g id="edge3_Node000001_Node000004" class="edge">
<title>Node1&#45;&gt;Node4</title>
<g id="a_edge3_Node000001_Node000004"><a xlink:title=" ">
<path fill="none" stroke="#63b8ff" d="M158.1,-56.67C166.63,-55.7 175.24,-54.73 183.57,-53.79"/>
<polygon fill="#63b8ff" stroke="#63b8ff" points="184.04,-57.26 193.59,-52.65 183.26,-50.3 184.04,-57.26"/>
</a>
</g>
</g>
<!-- Node5 -->
<g id="Node000005" class="node">
<title>Node5</title>
<g id="a_Node000005"><a xlink:href="classAura.html#a8862591b3783a6b91edfb92453e66303" target="_top" xlink:title=" ">
<polygon fill="white" stroke="#666666" points="296,-19 202,-19 202,0 296,0 296,-19"/>
<text text-anchor="middle" x="249" y="-7" font-family="Helvetica,sans-Serif" font-size="10.00">Aura::getSpellId</text>
</a>
</g>
</g>
<!-- Node1&#45;&gt;Node5 -->
<g id="edge4_Node000001_Node000005" class="edge">
<title>Node1&#45;&gt;Node5</title>
<g id="a_edge4_Node000001_Node000005"><a xlink:title=" ">
<path fill="none" stroke="#63b8ff" d="M108.88,-55.87C136.82,-46.56 179.31,-32.4 209.99,-22.17"/>
<polygon fill="#63b8ff" stroke="#63b8ff" points="211.12,-25.48 219.5,-19 208.9,-18.84 211.12,-25.48"/>
</a>
</g>
</g>
<!-- Node5&#45;&gt;Node3 -->
<g id="edge5_Node000005_Node000003" class="edge">
<title>Node5&#45;&gt;Node3</title>
<g id="a_edge5_Node000005_Node000003"><a xlink:title=" ">
<path fill="none" stroke="#63b8ff" d="M280.16,-19.02C287.98,-21.63 296.34,-24.56 304,-27.5 323.29,-34.91 344.56,-44.18 361.24,-51.71"/>
<polygon fill="#63b8ff" stroke="#63b8ff" points="359.92,-54.95 370.47,-55.91 362.82,-48.58 359.92,-54.95"/>
</a>
</g>
</g>
<!-- Node6 -->
<g id="Node000006" class="node">
<title>Node6</title>
<g id="a_Node000006"><a xlink:href="classAura.html#a160caec7494437c30e3cd0dcc513007b" target="_top" xlink:title=" ">
<polygon fill="white" stroke="#666666" points="444,-19 340,-19 340,0 444,0 444,-19"/>
<text text-anchor="middle" x="392" y="-7" font-family="Helvetica,sans-Serif" font-size="10.00">Aura::getSpellInfo</text>
</a>
</g>
</g>
<!-- Node5&#45;&gt;Node6 -->
<g id="edge6_Node000005_Node000006" class="edge">
<title>Node5&#45;&gt;Node6</title>
<g id="a_edge6_Node000005_Node000006"><a xlink:title=" ">
<path fill="none" stroke="#63b8ff" d="M296.17,-9.5C306.87,-9.5 318.42,-9.5 329.66,-9.5"/>
<polygon fill="#63b8ff" stroke="#63b8ff" points="329.85,-13 339.85,-9.5 329.85,-6 329.85,-13"/>
</a>
</g>
</g>
</g>
</svg>
</svg>

<style type='text/css'>
<![CDATA[
[data-mouse-over-selected='false'] { opacity: 0.7; }
[data-mouse-over-selected='true']  { opacity: 1.0; }
]]>
</style>
<script type="application/ecmascript"><![CDATA[
document.addEventListener('DOMContentLoaded', (event) => {
  highlightEdges();
  highlightAdjacentNodes();
});
]]></script>
</svg>
