<?xml version="1.0" encoding="UTF-8" standalone="no"?>
<!DOCTYPE svg PUBLIC "-//W3C//DTD SVG 1.1//EN"
 "http://www.w3.org/Graphics/SVG/1.1/DTD/svg11.dtd">
<!-- Generated by graphviz version 2.43.0 (0)
 -->
<!-- Title: CreatureAIScript::getSpeedRate Pages: 1 -->
<svg width="374pt" height="64pt"
 viewBox="0.00 0.00 374.00 64.00" xmlns="http://www.w3.org/2000/svg" xmlns:xlink="http://www.w3.org/1999/xlink">
<g id="graph0" class="graph" transform="scale(1 1) rotate(0) translate(4 60)">
<title>CreatureAIScript::getSpeedRate</title>
<!-- Node1 -->
<g id="Node000001" class="node">
<title>Node1</title>
<g id="a_Node000001"><a xlink:title=" ">
<polygon fill="#999999" stroke="#666666" points="170,-37 0,-37 0,-18 170,-18 170,-37"/>
<text text-anchor="middle" x="85" y="-25" font-family="Helvetica,sans-Serif" font-size="10.00">CreatureAIScript::getSpeedRate</text>
</a>
</g>
</g>
<!-- Node2 -->
<g id="Node000002" class="node">
<title>Node2</title>
<g id="a_Node000002"><a xlink:href="classCreatureAIScript.html#a971bb1373556b3ec594d8f7ba5f5e6e6" target="_top" xlink:title=" ">
<polygon fill="white" stroke="#666666" points="366,-56 206,-56 206,-37 366,-37 366,-56"/>
<text text-anchor="middle" x="286" y="-44" font-family="Helvetica,sans-Serif" font-size="10.00">CreatureAIScript::getCreature</text>
</a>
</g>
</g>
<!-- Node1&#45;&gt;Node2 -->
<g id="edge1_Node000001_Node000002" class="edge">
<title>Node1&#45;&gt;Node2</title>
<g id="a_edge1_Node000001_Node000002"><a xlink:title=" ">
<path fill="none" stroke="#63b8ff" d="M170.11,-35.53C178.64,-36.35 187.34,-37.18 195.93,-38"/>
<polygon fill="#63b8ff" stroke="#63b8ff" points="195.66,-41.49 205.95,-38.95 196.33,-34.52 195.66,-41.49"/>
</a>
</g>
</g>
<!-- Node3 -->
<g id="Node000003" class="node">
<title>Node3</title>
<g id="a_Node000003"><a xlink:href="classUnit.html#a50897e7d36de9358ff2e44a69fb8b8f5" target="_top" xlink:title=" ">
<polygon fill="white" stroke="#666666" points="341.5,-19 230.5,-19 230.5,0 341.5,0 341.5,-19"/>
<text text-anchor="middle" x="286" y="-7" font-family="Helvetica,sans-Serif" font-size="10.00">Unit::getSpeedRate</text>
</a>
</g>
</g>
<!-- Node1&#45;&gt;Node3 -->
<g id="edge2_Node000001_Node000003" class="edge">
<title>Node1&#45;&gt;Node3</title>
<g id="a_edge2_Node000001_Node000003"><a xlink:title=" ">
<path fill="none" stroke="#63b8ff" d="M170.11,-19.89C186.81,-18.38 204.11,-16.82 220.06,-15.37"/>
<polygon fill="#63b8ff" stroke="#63b8ff" points="220.68,-18.83 230.33,-14.45 220.05,-11.86 220.68,-18.83"/>
</a>
</g>
</g>
</g>
</svg>
