<?xml version="1.0" encoding="UTF-8" standalone="no"?>
<!DOCTYPE svg PUBLIC "-//W3C//DTD SVG 1.1//EN"
 "http://www.w3.org/Graphics/SVG/1.1/DTD/svg11.dtd">
<!-- Generated by graphviz version 2.43.0 (0)
 -->
<!-- Title: G3D::Table::clearAndSetMemoryManager Pages: 1 -->
<svg width="841pt" height="64pt"
 viewBox="0.00 0.00 841.00 64.00" xmlns="http://www.w3.org/2000/svg" xmlns:xlink="http://www.w3.org/1999/xlink">
<g id="graph0" class="graph" transform="scale(1 1) rotate(0) translate(4 60)">
<title>G3D::Table::clearAndSetMemoryManager</title>
<!-- Node1 -->
<g id="Node000001" class="node">
<title>Node1</title>
<g id="a_Node000001"><a xlink:title=" ">
<polygon fill="#999999" stroke="#666666" points="174,-42.5 0,-42.5 0,-12.5 174,-12.5 174,-42.5"/>
<text text-anchor="start" x="8" y="-30.5" font-family="Helvetica,sans-Serif" font-size="10.00">G3D::Table::clearAndSetMemory</text>
<text text-anchor="middle" x="87" y="-19.5" font-family="Helvetica,sans-Serif" font-size="10.00">Manager</text>
</a>
</g>
</g>
<!-- Node2 -->
<g id="Node000002" class="node">
<title>Node2</title>
<g id="a_Node000002"><a xlink:href="classG3D_1_1Table.html#a6339aa01b987b83be4d5f816b469b2a2" target="_top" xlink:title=" ">
<polygon fill="white" stroke="#666666" points="309,-37 210,-37 210,-18 309,-18 309,-37"/>
<text text-anchor="middle" x="259.5" y="-25" font-family="Helvetica,sans-Serif" font-size="10.00">G3D::Table::clear</text>
</a>
</g>
</g>
<!-- Node1&#45;&gt;Node2 -->
<g id="edge1_Node000001_Node000002" class="edge">
<title>Node1&#45;&gt;Node2</title>
<g id="a_edge1_Node000001_Node000002"><a xlink:title=" ">
<path fill="none" stroke="#63b8ff" d="M174.25,-27.5C182.84,-27.5 191.43,-27.5 199.64,-27.5"/>
<polygon fill="#63b8ff" stroke="#63b8ff" points="199.83,-31 209.83,-27.5 199.83,-24 199.83,-31"/>
</a>
</g>
</g>
<!-- Node3 -->
<g id="Node000003" class="node">
<title>Node3</title>
<g id="a_Node000003"><a xlink:href="classG3D_1_1Table.html#abe19b290287362ca482b68f10f509923" target="_top" xlink:title=" ">
<polygon fill="white" stroke="#666666" points="480,-37 345,-37 345,-18 480,-18 480,-37"/>
<text text-anchor="middle" x="412.5" y="-25" font-family="Helvetica,sans-Serif" font-size="10.00">G3D::Table::freeMemory</text>
</a>
</g>
</g>
<!-- Node2&#45;&gt;Node3 -->
<g id="edge2_Node000002_Node000003" class="edge">
<title>Node2&#45;&gt;Node3</title>
<g id="a_edge2_Node000002_Node000003"><a xlink:title=" ">
<path fill="none" stroke="#63b8ff" d="M309.11,-27.5C317.29,-27.5 325.95,-27.5 334.64,-27.5"/>
<polygon fill="#63b8ff" stroke="#63b8ff" points="334.82,-31 344.82,-27.5 334.82,-24 334.82,-31"/>
</a>
</g>
</g>
<!-- Node4 -->
<g id="Node000004" class="node">
<title>Node4</title>
<g id="a_Node000004"><a xlink:href="classG3D_1_1Table.html#ae99d63bc869bbba8bbb20edd11d7a18a" target="_top" xlink:title=" ">
<polygon fill="white" stroke="#666666" points="661,-56 516,-56 516,-37 661,-37 661,-56"/>
<text text-anchor="middle" x="588.5" y="-44" font-family="Helvetica,sans-Serif" font-size="10.00">G3D::Table::checkIntegrity</text>
</a>
</g>
</g>
<!-- Node3&#45;&gt;Node4 -->
<g id="edge3_Node000003_Node000004" class="edge">
<title>Node3&#45;&gt;Node4</title>
<g id="a_edge3_Node000003_Node000004"><a xlink:title=" ">
<path fill="none" stroke="#63b8ff" d="M480.28,-34.79C488.68,-35.71 497.35,-36.66 505.95,-37.59"/>
<polygon fill="#63b8ff" stroke="#63b8ff" points="505.67,-41.09 515.99,-38.69 506.43,-34.13 505.67,-41.09"/>
</a>
</g>
</g>
<!-- Node6 -->
<g id="Node000006" class="node">
<title>Node6</title>
<g id="a_Node000006"><a xlink:href="classG3D_1_1Table.html#a1aec77a8136b548b46c95cb5ca49dd37" target="_top" xlink:title=" ">
<polygon fill="white" stroke="#666666" points="636,-19 541,-19 541,0 636,0 636,-19"/>
<text text-anchor="middle" x="588.5" y="-7" font-family="Helvetica,sans-Serif" font-size="10.00">G3D::Table::free</text>
</a>
</g>
</g>
<!-- Node3&#45;&gt;Node6 -->
<g id="edge5_Node000003_Node000006" class="edge">
<title>Node3&#45;&gt;Node6</title>
<g id="a_edge5_Node000003_Node000006"><a xlink:title=" ">
<path fill="none" stroke="#63b8ff" d="M480.28,-20.59C496.86,-18.88 514.49,-17.05 530.56,-15.39"/>
<polygon fill="#63b8ff" stroke="#63b8ff" points="531.28,-18.83 540.86,-14.32 530.56,-11.87 531.28,-18.83"/>
</a>
</g>
</g>
<!-- Node5 -->
<g id="Node000005" class="node">
<title>Node5</title>
<g id="a_Node000005"><a xlink:href="namespaceG3D.html#a0790a0dbb21d74ea7d12909c48e2d79d" target="_top" xlink:title=" ">
<polygon fill="white" stroke="#666666" points="833,-56 697,-56 697,-37 833,-37 833,-56"/>
<text text-anchor="middle" x="765" y="-44" font-family="Helvetica,sans-Serif" font-size="10.00">G3D::isValidHeapPointer</text>
</a>
</g>
</g>
<!-- Node4&#45;&gt;Node5 -->
<g id="edge4_Node000004_Node000005" class="edge">
<title>Node4&#45;&gt;Node5</title>
<g id="a_edge4_Node000004_Node000005"><a xlink:title=" ">
<path fill="none" stroke="#63b8ff" d="M661.23,-46.5C669.59,-46.5 678.13,-46.5 686.56,-46.5"/>
<polygon fill="#63b8ff" stroke="#63b8ff" points="686.76,-50 696.76,-46.5 686.76,-43 686.76,-50"/>
</a>
</g>
</g>
</g>
</svg>
