<?xml version="1.0" encoding="UTF-8" standalone="no"?>
<!DOCTYPE svg PUBLIC "-//W3C//DTD SVG 1.1//EN"
 "http://www.w3.org/Graphics/SVG/1.1/DTD/svg11.dtd">
<!-- Generated by graphviz version 2.43.0 (0)
 -->
<!-- Title: ChatCommandHandler::HandleDebugSetUnitByteCommand Pages: 1 -->
<!--zoomable 267 -->

<svg id="main" version="1.1" xmlns="http://www.w3.org/2000/svg" xmlns:xlink="http://www.w3.org/1999/xlink" xml:space="preserve" onload="init(evt)">
<style type="text/css"><![CDATA[
.node, .edge {opacity: 0.7;}
.node.selected, .edge.selected {opacity: 1;}
.edge:hover path { stroke: red; }
.edge:hover polygon { stroke: red; fill: red; }
]]></style>

<defs>
  <circle id="rim" cx="0" cy="0" r="7"/>
  <circle id="rim2" cx="0" cy="0" r="3.5"/>
  <g id="zoomPlus">
    <use xlink:href="#rim" fill="#404040"><set attributeName="fill" to="#808080" begin="zoomplus.mouseover" end="zoomplus.mouseout"/></use>
    <path d="M-4,0h8M0,-4v8" fill="none" stroke="white" stroke-width="1.5" pointer-events="none"/>
  </g>
  <g id="zoomMin">
    <use xlink:href="#rim" fill="#404040"><set attributeName="fill" to="#808080" begin="zoomminus.mouseover" end="zoomminus.mouseout"/></use>
    <path d="M-4,0h8" fill="none" stroke="white" stroke-width="1.5" pointer-events="none"/>
  </g>
  <g id="arrowUp" transform="translate(30 24)">
    <use xlink:href="#rim"/>
    <path pointer-events="none" fill="none" stroke="white" stroke-width="1.5" d="M0,-3.0v7 M-2.5,-0.5L0,-3.0L2.5,-0.5"/>
  </g>
  <g id="arrowRight" transform="rotate(90) translate(36 -43)">
    <use xlink:href="#rim"/>
    <path pointer-events="none" fill="none" stroke="white" stroke-width="1.5" d="M0,-3.0v7 M-2.5,-0.5L0,-3.0L2.5,-0.5"/>
  </g>
  <g id="arrowDown" transform="rotate(180) translate(-30 -48)">
    <use xlink:href="#rim"/>
    <path pointer-events="none" fill="none" stroke="white" stroke-width="1.5" d="M0,-3.0v7 M-2.5,-0.5L0,-3.0L2.5,-0.5"/>
  </g>
  <g id="arrowLeft" transform="rotate(270) translate(-36 17)">
    <use xlink:href="#rim"/>
    <path pointer-events="none" fill="none" stroke="white" stroke-width="1.5" d="M0,-3.0v7 M-2.5,-0.5L0,-3.0L2.5,-0.5"/>
  </g>
  <g id="resetDef">
    <use xlink:href="#rim2" fill="#404040"><set attributeName="fill" to="#808080" begin="reset.mouseover" end="reset.mouseout"/></use>
  </g>
</defs>
<script type="application/ecmascript">
var viewWidth = 726;
var viewHeight = 267;
var sectionId = 'dynsection-258';
</script>
<script type="application/ecmascript" xlink:href="svg.min.js"/>
<svg id="graph" class="graph">
<g id="viewport">
<title>ChatCommandHandler::HandleDebugSetUnitByteCommand</title>
<!-- Node1 -->
<g id="Node000001" class="node">
<title>Node1</title>
<g id="a_Node000001"><a xlink:title=" ">
<polygon fill="#999999" stroke="#666666" points="197,-73 0,-73 0,-43 197,-43 197,-73"/>
<text text-anchor="start" x="8" y="-61" font-family="Helvetica,sans-Serif" font-size="10.00">ChatCommandHandler</text>
<text text-anchor="middle" x="98.5" y="-50" font-family="Helvetica,sans-Serif" font-size="10.00">::HandleDebugSetUnitByteCommand</text>
</a>
</g>
</g>
<!-- Node2 -->
<g id="Node000002" class="node">
<title>Node2</title>
<g id="a_Node000002"><a xlink:href="classChatCommandHandler.html#a47956387653808b2cf3a7e3fcee40bc8" target="_top" xlink:title=" ">
<polygon fill="white" stroke="#666666" points="362.5,-134 234.5,-134 234.5,-104 362.5,-104 362.5,-134"/>
<text text-anchor="start" x="242.5" y="-122" font-family="Helvetica,sans-Serif" font-size="10.00">ChatCommandHandler</text>
<text text-anchor="middle" x="298.5" y="-111" font-family="Helvetica,sans-Serif" font-size="10.00">::GetSelectedUnit</text>
</a>
</g>
</g>
<!-- Node1&#45;&gt;Node2 -->
<g id="edge1_Node000001_Node000002" class="edge">
<title>Node1&#45;&gt;Node2</title>
<g id="a_edge1_Node000001_Node000002"><a xlink:title=" ">
<path fill="none" stroke="#63b8ff" d="M148.19,-73C175.66,-81.46 210.16,-92.09 239.08,-101"/>
<polygon fill="#63b8ff" stroke="#63b8ff" points="238.07,-104.35 248.65,-103.95 240.13,-97.66 238.07,-104.35"/>
</a>
</g>
</g>
<!-- Node14 -->
<g id="Node000014" class="node">
<title>Node14</title>
<g id="a_Node000014"><a xlink:href="classChatCommandHandler.html#ac481a38af41845bdacba6cfca6f08a2d" target="_top" xlink:title=" ">
<polygon fill="white" stroke="#666666" points="532,-73 404,-73 404,-43 532,-43 532,-73"/>
<text text-anchor="start" x="412" y="-61" font-family="Helvetica,sans-Serif" font-size="10.00">ChatCommandHandler</text>
<text text-anchor="middle" x="468" y="-50" font-family="Helvetica,sans-Serif" font-size="10.00">::redSystemMessage</text>
</a>
</g>
</g>
<!-- Node1&#45;&gt;Node14 -->
<g id="edge15_Node000001_Node000014" class="edge">
<title>Node1&#45;&gt;Node14</title>
<g id="a_edge15_Node000001_Node000014"><a xlink:title=" ">
<path fill="none" stroke="#63b8ff" d="M197.02,-58C258.68,-58 337.08,-58 393.5,-58"/>
<polygon fill="#63b8ff" stroke="#63b8ff" points="393.77,-61.5 403.77,-58 393.77,-54.5 393.77,-61.5"/>
</a>
</g>
</g>
<!-- Node15 -->
<g id="Node000015" class="node">
<title>Node15</title>
<g id="a_Node000015"><a xlink:href="classChatCommandHandler.html#a562947bc81997bcf5225df5cf1fbcaa6" target="_top" xlink:title=" ">
<polygon fill="white" stroke="#666666" points="364,-30 233,-30 233,0 364,0 364,-30"/>
<text text-anchor="start" x="241" y="-18" font-family="Helvetica,sans-Serif" font-size="10.00">ChatCommandHandler</text>
<text text-anchor="middle" x="298.5" y="-7" font-family="Helvetica,sans-Serif" font-size="10.00">::greenSystemMessage</text>
</a>
</g>
</g>
<!-- Node1&#45;&gt;Node15 -->
<g id="edge14_Node000001_Node000015" class="edge">
<title>Node1&#45;&gt;Node15</title>
<g id="a_edge14_Node000001_Node000015"><a xlink:title=" ">
<path fill="none" stroke="#63b8ff" d="M168.75,-42.96C186.35,-39.14 205.32,-35.02 223.16,-31.14"/>
<polygon fill="#63b8ff" stroke="#63b8ff" points="223.91,-34.56 232.94,-29.02 222.42,-27.72 223.91,-34.56"/>
</a>
</g>
</g>
<!-- Node3 -->
<g id="Node000003" class="node">
<title>Node3</title>
<g id="a_Node000003"><a xlink:href="classWorldSession.html#a014d7fdeb157410b75dfd4bd0fe0efc2" target="_top" xlink:title=" ">
<polygon fill="white" stroke="#666666" points="536,-221.5 400,-221.5 400,-202.5 536,-202.5 536,-221.5"/>
<text text-anchor="middle" x="468" y="-209.5" font-family="Helvetica,sans-Serif" font-size="10.00">WorldSession::GetPlayer</text>
</a>
</g>
</g>
<!-- Node2&#45;&gt;Node3 -->
<g id="edge2_Node000002_Node000003" class="edge">
<title>Node2&#45;&gt;Node3</title>
<g id="a_edge2_Node000002_Node000003"><a xlink:title=" ">
<path fill="none" stroke="#63b8ff" d="M315.63,-134.14C334.49,-151.05 367.29,-178.13 400,-194 404.01,-195.95 408.26,-197.7 412.6,-199.29"/>
<polygon fill="#63b8ff" stroke="#63b8ff" points="411.58,-202.64 422.17,-202.49 413.8,-196 411.58,-202.64"/>
</a>
</g>
</g>
<!-- Node4 -->
<g id="Node000004" class="node">
<title>Node4</title>
<g id="a_Node000004"><a xlink:href="classUnit.html#a50e5b30e1c170be2c8415a84d0e78cc8" target="_top" xlink:title=" ">
<polygon fill="white" stroke="#666666" points="523.5,-184.5 412.5,-184.5 412.5,-165.5 523.5,-165.5 523.5,-184.5"/>
<text text-anchor="middle" x="468" y="-172.5" font-family="Helvetica,sans-Serif" font-size="10.00">Unit::getTargetGuid</text>
</a>
</g>
</g>
<!-- Node2&#45;&gt;Node4 -->
<g id="edge3_Node000002_Node000004" class="edge">
<title>Node2&#45;&gt;Node4</title>
<g id="a_edge3_Node000002_Node000004"><a xlink:title=" ">
<path fill="none" stroke="#63b8ff" d="M336.89,-134.15C355.67,-141.5 378.87,-150.19 400,-157 406.09,-158.97 412.54,-160.89 418.94,-162.71"/>
<polygon fill="#63b8ff" stroke="#63b8ff" points="418.32,-166.17 428.89,-165.46 420.19,-159.42 418.32,-166.17"/>
</a>
</g>
</g>
<!-- Node6 -->
<g id="Node000006" class="node">
<title>Node6</title>
<g id="a_Node000006"><a xlink:href="classWorldMap.html#abc1c5f7227d17eee6774b879fbb1b161" target="_top" xlink:title=" ">
<polygon fill="white" stroke="#666666" points="521.5,-147.5 414.5,-147.5 414.5,-128.5 521.5,-128.5 521.5,-147.5"/>
<text text-anchor="middle" x="468" y="-135.5" font-family="Helvetica,sans-Serif" font-size="10.00">WorldMap::getUnit</text>
</a>
</g>
</g>
<!-- Node2&#45;&gt;Node6 -->
<g id="edge5_Node000002_Node000006" class="edge">
<title>Node2&#45;&gt;Node6</title>
<g id="a_edge5_Node000002_Node000006"><a xlink:title=" ">
<path fill="none" stroke="#63b8ff" d="M362.82,-126.18C376.33,-127.72 390.6,-129.33 404.09,-130.86"/>
<polygon fill="#63b8ff" stroke="#63b8ff" points="403.91,-134.37 414.24,-132.01 404.7,-127.41 403.91,-134.37"/>
</a>
</g>
</g>
<!-- Node13 -->
<g id="Node000013" class="node">
<title>Node13</title>
<g id="a_Node000013"><a xlink:href="classObject.html#a967af054c54b6d9846637ce8718efd75" target="_top" xlink:title=" ">
<polygon fill="white" stroke="#666666" points="527.5,-110.5 408.5,-110.5 408.5,-91.5 527.5,-91.5 527.5,-110.5"/>
<text text-anchor="middle" x="468" y="-98.5" font-family="Helvetica,sans-Serif" font-size="10.00">Object::getWorldMap</text>
</a>
</g>
</g>
<!-- Node2&#45;&gt;Node13 -->
<g id="edge12_Node000002_Node000013" class="edge">
<title>Node2&#45;&gt;Node13</title>
<g id="a_edge12_Node000002_Node000013"><a xlink:title=" ">
<path fill="none" stroke="#63b8ff" d="M362.82,-112.19C374.36,-110.96 386.45,-109.66 398.13,-108.4"/>
<polygon fill="#63b8ff" stroke="#63b8ff" points="398.71,-111.86 408.28,-107.31 397.96,-104.9 398.71,-111.86"/>
</a>
</g>
</g>
<!-- Node2&#45;&gt;Node14 -->
<g id="edge13_Node000002_Node000014" class="edge">
<title>Node2&#45;&gt;Node14</title>
<g id="a_edge13_Node000002_Node000014"><a xlink:title=" ">
<path fill="none" stroke="#63b8ff" d="M340.9,-103.92C363.64,-95.64 392.02,-85.31 416.1,-76.54"/>
<polygon fill="#63b8ff" stroke="#63b8ff" points="417.58,-79.72 425.78,-73.01 415.19,-73.14 417.58,-79.72"/>
</a>
</g>
</g>
<!-- Node5 -->
<g id="Node000005" class="node">
<title>Node5</title>
<g id="a_Node000005"><a xlink:href="classUnit.html#a2b80af47340ac01ca2031723f37e839a" target="_top" xlink:title=" ">
<polygon fill="white" stroke="#666666" points="687.5,-258.5 602.5,-258.5 602.5,-239.5 687.5,-239.5 687.5,-258.5"/>
<text text-anchor="middle" x="645" y="-246.5" font-family="Helvetica,sans-Serif" font-size="10.00">Unit::unitData</text>
</a>
</g>
</g>
<!-- Node4&#45;&gt;Node5 -->
<g id="edge4_Node000004_Node000005" class="edge">
<title>Node4&#45;&gt;Node5</title>
<g id="a_edge4_Node000004_Node000005"><a xlink:title=" ">
<path fill="none" stroke="#63b8ff" d="M515.02,-184.58C522.31,-187.07 529.56,-190.16 536,-194 555.71,-205.75 552.11,-219.56 572,-231 578.37,-234.67 585.48,-237.59 592.68,-239.93"/>
<polygon fill="#63b8ff" stroke="#63b8ff" points="591.92,-243.35 602.5,-242.76 593.86,-236.62 591.92,-243.35"/>
</a>
</g>
</g>
<!-- Node7 -->
<g id="Node000007" class="node">
<title>Node7</title>
<g id="a_Node000007"><a xlink:href="classWorldMap.html#aaca4751736f7fd902ca0745a950148bd" target="_top" xlink:title=" ">
<polygon fill="white" stroke="#666666" points="709.5,-221.5 580.5,-221.5 580.5,-202.5 709.5,-202.5 709.5,-221.5"/>
<text text-anchor="middle" x="645" y="-209.5" font-family="Helvetica,sans-Serif" font-size="10.00">WorldMap::getCreature</text>
</a>
</g>
</g>
<!-- Node6&#45;&gt;Node7 -->
<g id="edge6_Node000006_Node000007" class="edge">
<title>Node6&#45;&gt;Node7</title>
<g id="a_edge6_Node000006_Node000007"><a xlink:title=" ">
<path fill="none" stroke="#63b8ff" d="M515.02,-147.58C522.31,-150.07 529.56,-153.16 536,-157 555.71,-168.75 552.11,-182.56 572,-194 575.05,-195.76 578.27,-197.34 581.59,-198.77"/>
<polygon fill="#63b8ff" stroke="#63b8ff" points="580.56,-202.13 591.15,-202.42 583.05,-195.58 580.56,-202.13"/>
</a>
</g>
</g>
<!-- Node8 -->
<g id="Node000008" class="node">
<title>Node8</title>
<g id="a_Node000008"><a xlink:href="classWoWGuid.html#aaa546e886497d5fb0e2eb2a267a81786" target="_top" xlink:title=" ">
<polygon fill="white" stroke="#666666" points="718,-184.5 572,-184.5 572,-165.5 718,-165.5 718,-184.5"/>
<text text-anchor="middle" x="645" y="-172.5" font-family="Helvetica,sans-Serif" font-size="10.00">WoWGuid::getGuidLowPart</text>
</a>
</g>
</g>
<!-- Node6&#45;&gt;Node8 -->
<g id="edge7_Node000006_Node000008" class="edge">
<title>Node6&#45;&gt;Node8</title>
<g id="a_edge7_Node000006_Node000008"><a xlink:title=" ">
<path fill="none" stroke="#63b8ff" d="M514.07,-147.53C536.84,-152.34 564.67,-158.23 588.73,-163.31"/>
<polygon fill="#63b8ff" stroke="#63b8ff" points="588.27,-166.8 598.78,-165.44 589.72,-159.95 588.27,-166.8"/>
</a>
</g>
</g>
<!-- Node9 -->
<g id="Node000009" class="node">
<title>Node9</title>
<g id="a_Node000009"><a xlink:href="classWoWGuid.html#a8c5db0d6b72e4cc9e850a410f0030b92" target="_top" xlink:title=" ">
<polygon fill="white" stroke="#666666" points="699,-147.5 591,-147.5 591,-128.5 699,-128.5 699,-147.5"/>
<text text-anchor="middle" x="645" y="-135.5" font-family="Helvetica,sans-Serif" font-size="10.00">WoWGuid::getHigh</text>
</a>
</g>
</g>
<!-- Node6&#45;&gt;Node9 -->
<g id="edge8_Node000006_Node000009" class="edge">
<title>Node6&#45;&gt;Node9</title>
<g id="a_edge8_Node000006_Node000009"><a xlink:title=" ">
<path fill="none" stroke="#63b8ff" d="M521.51,-138C540.2,-138 561.44,-138 580.92,-138"/>
<polygon fill="#63b8ff" stroke="#63b8ff" points="580.93,-141.5 590.93,-138 580.93,-134.5 580.93,-141.5"/>
</a>
</g>
</g>
<!-- Node10 -->
<g id="Node000010" class="node">
<title>Node10</title>
<g id="a_Node000010"><a xlink:href="classWorldMap.html#a54a7a06ee3df07916e9eb107e1d41313" target="_top" xlink:title=" ">
<polygon fill="white" stroke="#666666" points="696.5,-110.5 593.5,-110.5 593.5,-91.5 696.5,-91.5 696.5,-110.5"/>
<text text-anchor="middle" x="645" y="-98.5" font-family="Helvetica,sans-Serif" font-size="10.00">WorldMap::getPet</text>
</a>
</g>
</g>
<!-- Node6&#45;&gt;Node10 -->
<g id="edge9_Node000006_Node000010" class="edge">
<title>Node6&#45;&gt;Node10</title>
<g id="a_edge9_Node000006_Node000010"><a xlink:title=" ">
<path fill="none" stroke="#63b8ff" d="M514.07,-128.47C536.84,-123.66 564.67,-117.77 588.73,-112.69"/>
<polygon fill="#63b8ff" stroke="#63b8ff" points="589.72,-116.05 598.78,-110.56 588.27,-109.2 589.72,-116.05"/>
</a>
</g>
</g>
<!-- Node11 -->
<g id="Node000011" class="node">
<title>Node11</title>
<g id="a_Node000011"><a xlink:href="classWorldMap.html#aaef96289a191fb47e1312a8938b835af" target="_top" xlink:title=" ">
<polygon fill="white" stroke="#666666" points="704,-73.5 586,-73.5 586,-54.5 704,-54.5 704,-73.5"/>
<text text-anchor="middle" x="645" y="-61.5" font-family="Helvetica,sans-Serif" font-size="10.00">WorldMap::getPlayer</text>
</a>
</g>
</g>
<!-- Node6&#45;&gt;Node11 -->
<g id="edge10_Node000006_Node000011" class="edge">
<title>Node6&#45;&gt;Node11</title>
<g id="a_edge10_Node000006_Node000011"><a xlink:title=" ">
<path fill="none" stroke="#63b8ff" d="M517.13,-128.46C523.71,-126.2 530.18,-123.41 536,-120 555.79,-108.39 552.19,-94.57 572,-83 575.7,-80.84 579.66,-78.91 583.74,-77.21"/>
<polygon fill="#63b8ff" stroke="#63b8ff" points="585.26,-80.37 593.41,-73.6 582.82,-73.81 585.26,-80.37"/>
</a>
</g>
</g>
<!-- Node12 -->
<g id="Node000012" class="node">
<title>Node12</title>
<g id="a_Node000012"><a xlink:href="classWoWGuid.html#af262e032110b2936fde7b85a73a21d1b" target="_top" xlink:title=" ">
<polygon fill="white" stroke="#666666" points="688,-36.5 602,-36.5 602,-17.5 688,-17.5 688,-36.5"/>
<text text-anchor="middle" x="645" y="-24.5" font-family="Helvetica,sans-Serif" font-size="10.00">WoWGuid::Init</text>
</a>
</g>
</g>
<!-- Node6&#45;&gt;Node12 -->
<g id="edge11_Node000006_Node000012" class="edge">
<title>Node6&#45;&gt;Node12</title>
<g id="a_edge11_Node000006_Node000012"><a xlink:title=" ">
<path fill="none" stroke="#63b8ff" d="M521.68,-128.68C526.84,-126.39 531.74,-123.54 536,-120 564.45,-96.38 543.35,-68.37 572,-45 577.84,-40.24 584.76,-36.72 591.97,-34.11"/>
<polygon fill="#63b8ff" stroke="#63b8ff" points="593.35,-37.35 601.9,-31.1 591.32,-30.65 593.35,-37.35"/>
</a>
</g>
</g>
</g>
</svg>

<g id="navigator" transform="translate(0 0)" fill="#404254">
  <rect fill="#f2f5e9" fill-opacity="0.5" stroke="#606060" stroke-width=".5" x="0" y="0" width="60" height="60"/>
  <use id="zoomplus" xlink:href="#zoomPlus" x="17" y="9" onmousedown="handleZoom(evt,'in')"/>
  <use id="zoomminus" xlink:href="#zoomMin" x="42" y="9" onmousedown="handleZoom(evt,'out')"/>
  <use id="reset" xlink:href="#resetDef" x="30" y="36" onmousedown="handleReset()"/>
   <use id="arrowup" xlink:href="#arrowUp" x="0" y="0" onmousedown="handlePan(0,-1)"/>
  <use id="arrowright" xlink:href="#arrowRight" x="0" y="0" onmousedown="handlePan(1,0)"/>
  <use id="arrowdown" xlink:href="#arrowDown" x="0" y="0" onmousedown="handlePan(0,1)"/>
  <use id="arrowleft" xlink:href="#arrowLeft" x="0" y="0" onmousedown="handlePan(-1,0)"/>
</g>
<svg viewBox="0 0 15 15" width="100%" height="30px" preserveAspectRatio="xMaxYMin meet">
 <g id="arrow_out" transform="scale(0.3 0.3)">
  <a xlink:href="classChatCommandHandler_a7a0d1feb2d66b2ed939a87ab224aa251_cgraph_org.svg" target="_base">
   <rect id="button" ry="5" rx="5" y="6" x="6" height="38" width="38"
        fill="#f2f5e9" fill-opacity="0.5" stroke="#606060" stroke-width="1.0"/>
   <path id="arrow"
     d="M 11.500037,31.436501 C 11.940474,20.09759 22.043105,11.32322 32.158766,21.979434 L 37.068811,17.246167 C 37.068811,17.246167 37.088388,32 37.088388,32 L 22.160133,31.978069 C 22.160133,31.978069 26.997745,27.140456 26.997745,27.140456 C 18.528582,18.264221 13.291696,25.230495 11.500037,31.436501 z"
     style="fill:#404040;"/>
  </a>
 </g>
</svg>

<style type='text/css'>
<![CDATA[
[data-mouse-over-selected='false'] { opacity: 0.7; }
[data-mouse-over-selected='true']  { opacity: 1.0; }
]]>
</style>
<script type="application/ecmascript"><![CDATA[
document.addEventListener('DOMContentLoaded', (event) => {
  highlightEdges();
  highlightAdjacentNodes();
});
]]></script>
</svg>
