<?xml version="1.0" encoding="UTF-8" standalone="no"?>
<!DOCTYPE svg PUBLIC "-//W3C//DTD SVG 1.1//EN"
 "http://www.w3.org/Graphics/SVG/1.1/DTD/svg11.dtd">
<!-- Generated by graphviz version 2.43.0 (0)
 -->
<!-- Title: DBCFile::Record::getInt Pages: 1 -->
<svg width="535pt" height="64pt"
 viewBox="0.00 0.00 535.00 64.00" xmlns="http://www.w3.org/2000/svg" xmlns:xlink="http://www.w3.org/1999/xlink">
<g id="graph0" class="graph" transform="scale(1 1) rotate(0) translate(4 60)">
<title>DBCFile::Record::getInt</title>
<!-- Node1 -->
<g id="Node000001" class="node">
<title>Node1</title>
<g id="a_Node000001"><a xlink:title=" ">
<polygon fill="#999999" stroke="#666666" points="527,-37 398,-37 398,-18 527,-18 527,-37"/>
<text text-anchor="middle" x="462.5" y="-25" font-family="Helvetica,sans-Serif" font-size="10.00">DBCFile::Record::getInt</text>
</a>
</g>
</g>
<!-- Node2 -->
<g id="Node000002" class="node">
<title>Node2</title>
<g id="a_Node000002"><a xlink:href="SpellDataExtractor_8cpp.html#a489d41d6891a9572e328775f7c5af329" target="_top" xlink:title=" ">
<polygon fill="white" stroke="#666666" points="359,-56 279,-56 279,-37 359,-37 359,-56"/>
<text text-anchor="middle" x="319" y="-44" font-family="Helvetica,sans-Serif" font-size="10.00">dump_as_sql</text>
</a>
</g>
</g>
<!-- Node1&#45;&gt;Node2 -->
<g id="edge1_Node000001_Node000002" class="edge">
<title>Node1&#45;&gt;Node2</title>
<g id="a_edge1_Node000001_Node000002"><a xlink:title=" ">
<path fill="none" stroke="#63b8ff" d="M387.85,-37.39C377.91,-38.72 368.05,-40.05 359.05,-41.26"/>
<polygon fill="#63b8ff" stroke="#63b8ff" points="388.34,-40.85 397.79,-36.06 387.41,-33.92 388.34,-40.85"/>
</a>
</g>
</g>
<!-- Node4 -->
<g id="Node000004" class="node">
<title>Node4</title>
<g id="a_Node000004"><a xlink:href="TaxiPathDataExtractor_8cpp.html#aaf448e7419e04065ea7355ed273448b6" target="_top" xlink:title=" ">
<polygon fill="white" stroke="#666666" points="362,-19 276,-19 276,0 362,0 362,-19"/>
<text text-anchor="middle" x="319" y="-7" font-family="Helvetica,sans-Serif" font-size="10.00">dump_as_sql2</text>
</a>
</g>
</g>
<!-- Node1&#45;&gt;Node4 -->
<g id="edge3_Node000001_Node000004" class="edge">
<title>Node1&#45;&gt;Node4</title>
<g id="a_edge3_Node000001_Node000004"><a xlink:title=" ">
<path fill="none" stroke="#63b8ff" d="M387.6,-18.1C378.93,-17 370.31,-15.9 362.28,-14.88"/>
<polygon fill="#63b8ff" stroke="#63b8ff" points="387.43,-21.61 397.79,-19.4 388.31,-14.66 387.43,-21.61"/>
</a>
</g>
</g>
<!-- Node3 -->
<g id="Node000003" class="node">
<title>Node3</title>
<g id="a_Node000003"><a xlink:href="SpellDataExtractor_8cpp.html#acdef7a1fd863a6d3770c1268cb06add3" target="_top" xlink:title=" ">
<polygon fill="white" stroke="#666666" points="237,-56 196,-56 196,-37 237,-37 237,-56"/>
<text text-anchor="middle" x="216.5" y="-44" font-family="Helvetica,sans-Serif" font-size="10.00">main</text>
</a>
</g>
</g>
<!-- Node2&#45;&gt;Node3 -->
<g id="edge2_Node000002_Node000003" class="edge">
<title>Node2&#45;&gt;Node3</title>
<g id="a_edge2_Node000002_Node000003"><a xlink:title=" ">
<path fill="none" stroke="#63b8ff" d="M268.64,-46.5C257.42,-46.5 246.14,-46.5 237.05,-46.5"/>
<polygon fill="#63b8ff" stroke="#63b8ff" points="268.86,-50 278.86,-46.5 268.86,-43 268.86,-50"/>
</a>
</g>
</g>
<!-- Node5 -->
<g id="Node000005" class="node">
<title>Node5</title>
<g id="a_Node000005"><a xlink:href="TaxiPathDataExtractor_8cpp.html#af095a232149097b5605064623a9345ac" target="_top" xlink:title=" ">
<polygon fill="white" stroke="#666666" points="240,-19 193,-19 193,0 240,0 240,-19"/>
<text text-anchor="middle" x="216.5" y="-7" font-family="Helvetica,sans-Serif" font-size="10.00">main2</text>
</a>
</g>
</g>
<!-- Node4&#45;&gt;Node5 -->
<g id="edge4_Node000004_Node000005" class="edge">
<title>Node4&#45;&gt;Node5</title>
<g id="a_edge4_Node000004_Node000005"><a xlink:title=" ">
<path fill="none" stroke="#63b8ff" d="M265.81,-9.5C256.8,-9.5 247.87,-9.5 240.19,-9.5"/>
<polygon fill="#63b8ff" stroke="#63b8ff" points="265.96,-13 275.96,-9.5 265.96,-6 265.96,-13"/>
</a>
</g>
</g>
<!-- Node6 -->
<g id="Node000006" class="node">
<title>Node6</title>
<g id="a_Node000006"><a xlink:href="TaxiPathDataExtractor_8cpp.html#a489d41d6891a9572e328775f7c5af329" target="_top" xlink:title=" ">
<polygon fill="white" stroke="#666666" points="157,-19 77,-19 77,0 157,0 157,-19"/>
<text text-anchor="middle" x="117" y="-7" font-family="Helvetica,sans-Serif" font-size="10.00">dump_as_sql</text>
</a>
</g>
</g>
<!-- Node5&#45;&gt;Node6 -->
<g id="edge5_Node000005_Node000006" class="edge">
<title>Node5&#45;&gt;Node6</title>
<g id="a_edge5_Node000005_Node000006"><a xlink:title=" ">
<path fill="none" stroke="#63b8ff" d="M182.66,-9.5C174.52,-9.5 165.72,-9.5 157.31,-9.5"/>
<polygon fill="#63b8ff" stroke="#63b8ff" points="182.89,-13 192.89,-9.5 182.89,-6 182.89,-13"/>
</a>
</g>
</g>
<!-- Node7 -->
<g id="Node000007" class="node">
<title>Node7</title>
<g id="a_Node000007"><a xlink:href="TaxiPathDataExtractor_8cpp.html#acdef7a1fd863a6d3770c1268cb06add3" target="_top" xlink:title=" ">
<polygon fill="white" stroke="#666666" points="41,-19 0,-19 0,0 41,0 41,-19"/>
<text text-anchor="middle" x="20.5" y="-7" font-family="Helvetica,sans-Serif" font-size="10.00">main</text>
</a>
</g>
</g>
<!-- Node6&#45;&gt;Node7 -->
<g id="edge6_Node000006_Node000007" class="edge">
<title>Node6&#45;&gt;Node7</title>
<g id="a_edge6_Node000006_Node000007"><a xlink:title=" ">
<path fill="none" stroke="#63b8ff" d="M66.58,-9.5C57.56,-9.5 48.64,-9.5 41.15,-9.5"/>
<polygon fill="#63b8ff" stroke="#63b8ff" points="66.74,-13 76.74,-9.5 66.74,-6 66.74,-13"/>
</a>
</g>
</g>
</g>
</svg>
