<?xml version="1.0" encoding="UTF-8" standalone="no"?>
<!DOCTYPE svg PUBLIC "-//W3C//DTD SVG 1.1//EN"
 "http://www.w3.org/Graphics/SVG/1.1/DTD/svg11.dtd">
<!-- Generated by graphviz version 2.43.0 (0)
 -->
<!-- Title: Unit::modInvisibilityDetection Pages: 1 -->
<svg width="1371pt" height="120pt"
 viewBox="0.00 0.00 1371.00 119.50" xmlns="http://www.w3.org/2000/svg" xmlns:xlink="http://www.w3.org/1999/xlink">
<g id="graph0" class="graph" transform="scale(1 1) rotate(0) translate(4 115.5)">
<title>Unit::modInvisibilityDetection</title>
<!-- Node1 -->
<g id="Node000001" class="node">
<title>Node1</title>
<g id="a_Node000001"><a xlink:title=" ">
<polygon fill="#999999" stroke="#666666" points="1363,-48.5 1200,-48.5 1200,-29.5 1363,-29.5 1363,-48.5"/>
<text text-anchor="middle" x="1281.5" y="-36.5" font-family="Helvetica,sans-Serif" font-size="10.00">Unit::modInvisibilityDetection</text>
</a>
</g>
</g>
<!-- Node2 -->
<g id="Node000002" class="node">
<title>Node2</title>
<g id="a_Node000002"><a xlink:href="classPlayer.html#a8e3e9e20db5350280a9b3ecd57dd509f" target="_top" xlink:title=" ">
<polygon fill="white" stroke="#666666" points="1156.5,-78 1007.5,-78 1007.5,-48 1156.5,-48 1156.5,-78"/>
<text text-anchor="start" x="1015.5" y="-66" font-family="Helvetica,sans-Serif" font-size="10.00">Player::setServersideDrunk</text>
<text text-anchor="middle" x="1082" y="-55" font-family="Helvetica,sans-Serif" font-size="10.00">Value</text>
</a>
</g>
</g>
<!-- Node1&#45;&gt;Node2 -->
<g id="edge1_Node000001_Node000002" class="edge">
<title>Node1&#45;&gt;Node2</title>
<g id="a_edge1_Node000001_Node000002"><a xlink:title=" ">
<path fill="none" stroke="#63b8ff" d="M1191.9,-49.77C1180.15,-51.19 1168.21,-52.65 1156.75,-54.04"/>
<polygon fill="#63b8ff" stroke="#63b8ff" points="1192.65,-53.2 1202.16,-48.52 1191.81,-46.25 1192.65,-53.2"/>
</a>
</g>
</g>
<!-- Node13 -->
<g id="Node000013" class="node">
<title>Node13</title>
<g id="a_Node000013"><a xlink:href="classAura.html#a7c3c0fb823ec594f9bc082c2fc15a60a" target="_top" xlink:title=" ">
<polygon fill="white" stroke="#666666" points="1164,-30 1000,-30 1000,0 1164,0 1164,-30"/>
<text text-anchor="start" x="1008" y="-18" font-family="Helvetica,sans-Serif" font-size="10.00">Aura::SpellAuraModInvisibility</text>
<text text-anchor="middle" x="1082" y="-7" font-family="Helvetica,sans-Serif" font-size="10.00">Detection</text>
</a>
</g>
</g>
<!-- Node1&#45;&gt;Node13 -->
<g id="edge12_Node000001_Node000013" class="edge">
<title>Node1&#45;&gt;Node13</title>
<g id="a_edge12_Node000001_Node000013"><a xlink:title=" ">
<path fill="none" stroke="#63b8ff" d="M1192.12,-28.26C1182.82,-27.13 1173.38,-25.98 1164.16,-24.86"/>
<polygon fill="#63b8ff" stroke="#63b8ff" points="1191.81,-31.75 1202.16,-29.48 1192.65,-24.8 1191.81,-31.75"/>
</a>
</g>
</g>
<!-- Node3 -->
<g id="Node000003" class="node">
<title>Node3</title>
<g id="a_Node000003"><a xlink:href="classPlayer.html#a07ebf1d9b6ccfe70d7bff7a1319bb52e" target="_top" xlink:title=" ">
<polygon fill="white" stroke="#666666" points="948,-109.5 838,-109.5 838,-90.5 948,-90.5 948,-109.5"/>
<text text-anchor="middle" x="893" y="-97.5" font-family="Helvetica,sans-Serif" font-size="10.00">Player::eventDeath</text>
</a>
</g>
</g>
<!-- Node2&#45;&gt;Node3 -->
<g id="edge2_Node000002_Node000003" class="edge">
<title>Node2&#45;&gt;Node3</title>
<g id="a_edge2_Node000002_Node000003"><a xlink:title=" ">
<path fill="none" stroke="#63b8ff" d="M997.54,-79.51C978.62,-83.26 959.15,-87.11 942.28,-90.45"/>
<polygon fill="#63b8ff" stroke="#63b8ff" points="998.23,-82.94 1007.36,-77.57 996.87,-76.08 998.23,-82.94"/>
</a>
</g>
</g>
<!-- Node6 -->
<g id="Node000006" class="node">
<title>Node6</title>
<g id="a_Node000006"><a xlink:href="classPlayer.html#aef9657cfd03752640597085cef9a301c" target="_top" xlink:title=" ">
<polygon fill="white" stroke="#666666" points="960,-72.5 826,-72.5 826,-53.5 960,-53.5 960,-72.5"/>
<text text-anchor="middle" x="893" y="-60.5" font-family="Helvetica,sans-Serif" font-size="10.00">Player::loadFromDBProc</text>
</a>
</g>
</g>
<!-- Node2&#45;&gt;Node6 -->
<g id="edge5_Node000002_Node000006" class="edge">
<title>Node2&#45;&gt;Node6</title>
<g id="a_edge5_Node000002_Node000006"><a xlink:title=" ">
<path fill="none" stroke="#63b8ff" d="M997.07,-63C984.74,-63 972.19,-63 960.28,-63"/>
<polygon fill="#63b8ff" stroke="#63b8ff" points="997.36,-66.5 1007.36,-63 997.36,-59.5 997.36,-66.5"/>
</a>
</g>
</g>
<!-- Node12 -->
<g id="Node000012" class="node">
<title>Node12</title>
<g id="a_Node000012"><a xlink:href="classSpell.html#a0651dd9be145b76d9880f1b5802fb6c8" target="_top" xlink:title=" ">
<polygon fill="white" stroke="#666666" points="964,-35.5 822,-35.5 822,-16.5 964,-16.5 964,-35.5"/>
<text text-anchor="middle" x="893" y="-23.5" font-family="Helvetica,sans-Serif" font-size="10.00">Spell::SpellEffectInebriate</text>
</a>
</g>
</g>
<!-- Node2&#45;&gt;Node12 -->
<g id="edge11_Node000002_Node000012" class="edge">
<title>Node2&#45;&gt;Node12</title>
<g id="a_edge11_Node000002_Node000012"><a xlink:title=" ">
<path fill="none" stroke="#63b8ff" d="M997.54,-46.49C978.62,-42.74 959.15,-38.89 942.28,-35.55"/>
<polygon fill="#63b8ff" stroke="#63b8ff" points="996.87,-49.92 1007.36,-48.43 998.23,-43.06 996.87,-49.92"/>
</a>
</g>
</g>
<!-- Node4 -->
<g id="Node000004" class="node">
<title>Node4</title>
<g id="a_Node000004"><a xlink:href="classPlayer.html#a4e588198d13cd4d38e557fc8c2be8900" target="_top" xlink:title=" ">
<polygon fill="white" stroke="#666666" points="763.5,-109.5 695.5,-109.5 695.5,-90.5 763.5,-90.5 763.5,-109.5"/>
<text text-anchor="middle" x="729.5" y="-97.5" font-family="Helvetica,sans-Serif" font-size="10.00">Player::die</text>
</a>
</g>
</g>
<!-- Node3&#45;&gt;Node4 -->
<g id="edge3_Node000003_Node000004" class="edge">
<title>Node3&#45;&gt;Node4</title>
<g id="a_edge3_Node000003_Node000004"><a xlink:title=" ">
<path fill="none" stroke="#63b8ff" d="M827.52,-100C805.62,-100 782.06,-100 763.64,-100"/>
<polygon fill="#63b8ff" stroke="#63b8ff" points="827.77,-103.5 837.77,-100 827.77,-96.5 827.77,-103.5"/>
</a>
</g>
</g>
<!-- Node5 -->
<g id="Node000005" class="node">
<title>Node5</title>
<g id="a_Node000005"><a xlink:href="classArena.html#a913962933d88f12aab7858b05d668b40" target="_top" xlink:title=" ">
<polygon fill="white" stroke="#666666" points="635.5,-111.5 498.5,-111.5 498.5,-92.5 635.5,-92.5 635.5,-111.5"/>
<text text-anchor="middle" x="567" y="-99.5" font-family="Helvetica,sans-Serif" font-size="10.00">Arena::HookOnPlayerKill</text>
</a>
</g>
</g>
<!-- Node4&#45;&gt;Node5 -->
<g id="edge4_Node000004_Node000005" class="edge">
<title>Node4&#45;&gt;Node5</title>
<g id="a_edge4_Node000004_Node000005"><a xlink:title=" ">
<path fill="none" stroke="#63b8ff" d="M685.1,-100.54C669.87,-100.73 652.38,-100.95 635.64,-101.16"/>
<polygon fill="#63b8ff" stroke="#63b8ff" points="685.29,-104.04 695.24,-100.41 685.2,-97.04 685.29,-104.04"/>
</a>
</g>
</g>
<!-- Node7 -->
<g id="Node000007" class="node">
<title>Node7</title>
<g id="a_Node000007"><a xlink:href="classPlayer.html#a1200ce26258018cc8504b340968dbc58" target="_top" xlink:title=" ">
<polygon fill="white" stroke="#666666" points="786,-71.5 673,-71.5 673,-52.5 786,-52.5 786,-71.5"/>
<text text-anchor="middle" x="729.5" y="-59.5" font-family="Helvetica,sans-Serif" font-size="10.00">Player::loadFromDB</text>
</a>
</g>
</g>
<!-- Node6&#45;&gt;Node7 -->
<g id="edge6_Node000006_Node000007" class="edge">
<title>Node6&#45;&gt;Node7</title>
<g id="a_edge6_Node000006_Node000007"><a xlink:title=" ">
<path fill="none" stroke="#63b8ff" d="M815.59,-62.53C805.7,-62.47 795.71,-62.4 786.24,-62.35"/>
<polygon fill="#63b8ff" stroke="#63b8ff" points="815.82,-66.03 825.85,-62.59 815.87,-59.03 815.82,-66.03"/>
</a>
</g>
</g>
<!-- Node8 -->
<g id="Node000008" class="node">
<title>Node8</title>
<g id="a_Node000008"><a xlink:href="classWorldSession.html#add83b9d7b8f14d3232a732c4433401f2" target="_top" xlink:title=" ">
<polygon fill="white" stroke="#666666" points="637,-74 497,-74 497,-44 637,-44 637,-74"/>
<text text-anchor="start" x="505" y="-62" font-family="Helvetica,sans-Serif" font-size="10.00">WorldSession::loadPlayer</text>
<text text-anchor="middle" x="567" y="-51" font-family="Helvetica,sans-Serif" font-size="10.00">FromDBProc</text>
</a>
</g>
</g>
<!-- Node7&#45;&gt;Node8 -->
<g id="edge7_Node000007_Node000008" class="edge">
<title>Node7&#45;&gt;Node8</title>
<g id="a_edge7_Node000007_Node000008"><a xlink:title=" ">
<path fill="none" stroke="#63b8ff" d="M662.68,-60.77C654.27,-60.61 645.63,-60.45 637.16,-60.29"/>
<polygon fill="#63b8ff" stroke="#63b8ff" points="662.75,-64.27 672.82,-60.96 662.88,-57.27 662.75,-64.27"/>
</a>
</g>
</g>
<!-- Node9 -->
<g id="Node000009" class="node">
<title>Node9</title>
<g id="a_Node000009"><a xlink:href="classWorldSession.html#a9ec4902647c824408805c6a68591181f" target="_top" xlink:title=" ">
<polygon fill="white" stroke="#666666" points="461,-74 309,-74 309,-44 461,-44 461,-74"/>
<text text-anchor="start" x="317" y="-62" font-family="Helvetica,sans-Serif" font-size="10.00">WorldSession::handlePlayer</text>
<text text-anchor="middle" x="385" y="-51" font-family="Helvetica,sans-Serif" font-size="10.00">LoginOpcode</text>
</a>
</g>
</g>
<!-- Node8&#45;&gt;Node9 -->
<g id="edge8_Node000008_Node000009" class="edge">
<title>Node8&#45;&gt;Node9</title>
<g id="a_edge8_Node000008_Node000009"><a xlink:title=" ">
<path fill="none" stroke="#63b8ff" d="M486.67,-59C478.2,-59 469.6,-59 461.18,-59"/>
<polygon fill="#63b8ff" stroke="#63b8ff" points="486.92,-62.5 496.92,-59 486.92,-55.5 486.92,-62.5"/>
</a>
</g>
</g>
<!-- Node10 -->
<g id="Node000010" class="node">
<title>Node10</title>
<g id="a_Node000010"><a xlink:href="classWorldSession.html#a213cc2e7e497e0cddfde0a1460e4acd0" target="_top" xlink:title=" ">
<polygon fill="white" stroke="#666666" points="273,-74 111,-74 111,-44 273,-44 273,-74"/>
<text text-anchor="start" x="119" y="-62" font-family="Helvetica,sans-Serif" font-size="10.00">WorldSession::registerOpcode</text>
<text text-anchor="middle" x="192" y="-51" font-family="Helvetica,sans-Serif" font-size="10.00">Handler</text>
</a>
</g>
</g>
<!-- Node9&#45;&gt;Node10 -->
<g id="edge9_Node000009_Node000010" class="edge">
<title>Node9&#45;&gt;Node10</title>
<g id="a_edge9_Node000009_Node000010"><a xlink:title=" ">
<path fill="none" stroke="#63b8ff" d="M298.56,-59C290.12,-59 281.57,-59 273.18,-59"/>
<polygon fill="#63b8ff" stroke="#63b8ff" points="298.79,-62.5 308.79,-59 298.79,-55.5 298.79,-62.5"/>
</a>
</g>
</g>
<!-- Node11 -->
<g id="Node000011" class="node">
<title>Node11</title>
<g id="a_Node000011"><a xlink:href="classMaster.html#a12dde72f3398edffca613e77185fd6f3" target="_top" xlink:title=" ">
<polygon fill="white" stroke="#666666" points="75,-68.5 0,-68.5 0,-49.5 75,-49.5 75,-68.5"/>
<text text-anchor="middle" x="37.5" y="-56.5" font-family="Helvetica,sans-Serif" font-size="10.00">Master::Run</text>
</a>
</g>
</g>
<!-- Node10&#45;&gt;Node11 -->
<g id="edge10_Node000010_Node000011" class="edge">
<title>Node10&#45;&gt;Node11</title>
<g id="a_edge10_Node000010_Node000011"><a xlink:title=" ">
<path fill="none" stroke="#63b8ff" d="M100.55,-59C91.61,-59 82.94,-59 75.05,-59"/>
<polygon fill="#63b8ff" stroke="#63b8ff" points="100.73,-62.5 110.73,-59 100.73,-55.5 100.73,-62.5"/>
</a>
</g>
</g>
</g>
</svg>
