<?xml version="1.0" encoding="UTF-8" standalone="no"?>
<!DOCTYPE svg PUBLIC "-//W3C//DTD SVG 1.1//EN"
 "http://www.w3.org/Graphics/SVG/1.1/DTD/svg11.dtd">
<!-- Generated by graphviz version 2.43.0 (0)
 -->
<!-- Title: ChatCommandHandler::HandleServerInfoCommand Pages: 1 -->
<!--zoomable 284 -->

<svg id="main" version="1.1" xmlns="http://www.w3.org/2000/svg" xmlns:xlink="http://www.w3.org/1999/xlink" xml:space="preserve" onload="init(evt)">
<style type="text/css"><![CDATA[
.node, .edge {opacity: 0.7;}
.node.selected, .edge.selected {opacity: 1;}
.edge:hover path { stroke: red; }
.edge:hover polygon { stroke: red; fill: red; }
]]></style>

<defs>
  <circle id="rim" cx="0" cy="0" r="7"/>
  <circle id="rim2" cx="0" cy="0" r="3.5"/>
  <g id="zoomPlus">
    <use xlink:href="#rim" fill="#404040"><set attributeName="fill" to="#808080" begin="zoomplus.mouseover" end="zoomplus.mouseout"/></use>
    <path d="M-4,0h8M0,-4v8" fill="none" stroke="white" stroke-width="1.5" pointer-events="none"/>
  </g>
  <g id="zoomMin">
    <use xlink:href="#rim" fill="#404040"><set attributeName="fill" to="#808080" begin="zoomminus.mouseover" end="zoomminus.mouseout"/></use>
    <path d="M-4,0h8" fill="none" stroke="white" stroke-width="1.5" pointer-events="none"/>
  </g>
  <g id="arrowUp" transform="translate(30 24)">
    <use xlink:href="#rim"/>
    <path pointer-events="none" fill="none" stroke="white" stroke-width="1.5" d="M0,-3.0v7 M-2.5,-0.5L0,-3.0L2.5,-0.5"/>
  </g>
  <g id="arrowRight" transform="rotate(90) translate(36 -43)">
    <use xlink:href="#rim"/>
    <path pointer-events="none" fill="none" stroke="white" stroke-width="1.5" d="M0,-3.0v7 M-2.5,-0.5L0,-3.0L2.5,-0.5"/>
  </g>
  <g id="arrowDown" transform="rotate(180) translate(-30 -48)">
    <use xlink:href="#rim"/>
    <path pointer-events="none" fill="none" stroke="white" stroke-width="1.5" d="M0,-3.0v7 M-2.5,-0.5L0,-3.0L2.5,-0.5"/>
  </g>
  <g id="arrowLeft" transform="rotate(270) translate(-36 17)">
    <use xlink:href="#rim"/>
    <path pointer-events="none" fill="none" stroke="white" stroke-width="1.5" d="M0,-3.0v7 M-2.5,-0.5L0,-3.0L2.5,-0.5"/>
  </g>
  <g id="resetDef">
    <use xlink:href="#rim2" fill="#404040"><set attributeName="fill" to="#808080" begin="reset.mouseover" end="reset.mouseout"/></use>
  </g>
</defs>
<script type="application/ecmascript">
var viewWidth = 837;
var viewHeight = 284;
var sectionId = 'dynsection-683';
</script>
<script type="application/ecmascript" xlink:href="svg.min.js"/>
<svg id="graph" class="graph">
<g id="viewport">
<title>ChatCommandHandler::HandleServerInfoCommand</title>
<!-- Node1 -->
<g id="Node000001" class="node">
<title>Node1</title>
<g id="a_Node000001"><a xlink:title=" ">
<polygon fill="#999999" stroke="#666666" points="158,-147.5 0,-147.5 0,-117.5 158,-117.5 158,-147.5"/>
<text text-anchor="start" x="8" y="-135.5" font-family="Helvetica,sans-Serif" font-size="10.00">ChatCommandHandler</text>
<text text-anchor="middle" x="79" y="-124.5" font-family="Helvetica,sans-Serif" font-size="10.00">::HandleServerInfoCommand</text>
</a>
</g>
</g>
<!-- Node2 -->
<g id="Node000002" class="node">
<title>Node2</title>
<g id="a_Node000002"><a xlink:href="classCThreadPool.html#a7e8fbfa18869780b01256b43ce83ef90" target="_top" xlink:title=" ">
<polygon fill="white" stroke="#666666" points="360,-275.5 194,-275.5 194,-245.5 360,-245.5 360,-275.5"/>
<text text-anchor="start" x="202" y="-263.5" font-family="Helvetica,sans-Serif" font-size="10.00">CThreadPool::GetActiveThread</text>
<text text-anchor="middle" x="277" y="-252.5" font-family="Helvetica,sans-Serif" font-size="10.00">Count</text>
</a>
</g>
</g>
<!-- Node1&#45;&gt;Node2 -->
<g id="edge1_Node000001_Node000002" class="edge">
<title>Node1&#45;&gt;Node2</title>
<g id="a_edge1_Node000001_Node000002"><a xlink:title=" ">
<path fill="none" stroke="#63b8ff" d="M92.42,-147.56C111.81,-170.12 151.5,-212.61 194,-236.5 197.23,-238.31 200.61,-240 204.08,-241.58"/>
<polygon fill="#63b8ff" stroke="#63b8ff" points="202.85,-244.86 213.43,-245.46 205.54,-238.39 202.85,-244.86"/>
</a>
</g>
</g>
<!-- Node3 -->
<g id="Node000003" class="node">
<title>Node3</title>
<g id="a_Node000003"><a xlink:href="classCThreadPool.html#a820aa73e9b6d5189508bfecd192655bb" target="_top" xlink:title=" ">
<polygon fill="white" stroke="#666666" points="355,-227.5 199,-227.5 199,-197.5 355,-197.5 355,-227.5"/>
<text text-anchor="start" x="207" y="-215.5" font-family="Helvetica,sans-Serif" font-size="10.00">CThreadPool::GetFreeThread</text>
<text text-anchor="middle" x="277" y="-204.5" font-family="Helvetica,sans-Serif" font-size="10.00">Count</text>
</a>
</g>
</g>
<!-- Node1&#45;&gt;Node3 -->
<g id="edge2_Node000001_Node000003" class="edge">
<title>Node1&#45;&gt;Node3</title>
<g id="a_edge2_Node000001_Node000003"><a xlink:title=" ">
<path fill="none" stroke="#63b8ff" d="M107.51,-147.68C130.23,-159.81 163.58,-176.68 194,-188.5 199.1,-190.48 204.43,-192.39 209.82,-194.21"/>
<polygon fill="#63b8ff" stroke="#63b8ff" points="208.96,-197.61 219.55,-197.37 211.12,-190.95 208.96,-197.61"/>
</a>
</g>
</g>
<!-- Node4 -->
<g id="Node000004" class="node">
<title>Node4</title>
<g id="a_Node000004"><a xlink:href="classWorldSession.html#a3766733ba5403370dbcaf9501340545f" target="_top" xlink:title=" ">
<polygon fill="white" stroke="#666666" points="348.5,-179 205.5,-179 205.5,-160 348.5,-160 348.5,-179"/>
<text text-anchor="middle" x="277" y="-167" font-family="Helvetica,sans-Serif" font-size="10.00">WorldSession::GetLatency</text>
</a>
</g>
</g>
<!-- Node1&#45;&gt;Node4 -->
<g id="edge3_Node000001_Node000004" class="edge">
<title>Node1&#45;&gt;Node4</title>
<g id="a_edge3_Node000001_Node000004"><a xlink:title=" ">
<path fill="none" stroke="#63b8ff" d="M158.03,-147.23C177.21,-150.85 197.47,-154.67 215.67,-158.11"/>
<polygon fill="#63b8ff" stroke="#63b8ff" points="215.08,-161.56 225.56,-159.98 216.38,-154.68 215.08,-161.56"/>
</a>
</g>
</g>
<!-- Node5 -->
<g id="Node000005" class="node">
<title>Node5</title>
<g id="a_Node000005"><a xlink:href="classPlayer.html#aee195158e07a0138b257f8d1ede0cc6b" target="_top" xlink:title=" ">
<polygon fill="white" stroke="#666666" points="330.5,-142 223.5,-142 223.5,-123 330.5,-123 330.5,-142"/>
<text text-anchor="middle" x="277" y="-130" font-family="Helvetica,sans-Serif" font-size="10.00">Player::getSession</text>
</a>
</g>
</g>
<!-- Node1&#45;&gt;Node5 -->
<g id="edge4_Node000001_Node000005" class="edge">
<title>Node1&#45;&gt;Node5</title>
<g id="a_edge4_Node000001_Node000005"><a xlink:title=" ">
<path fill="none" stroke="#63b8ff" d="M158.03,-132.5C176.32,-132.5 195.59,-132.5 213.12,-132.5"/>
<polygon fill="#63b8ff" stroke="#63b8ff" points="213.22,-136 223.22,-132.5 213.22,-129 213.22,-136"/>
</a>
</g>
</g>
<!-- Node6 -->
<g id="Node000006" class="node">
<title>Node6</title>
<g id="a_Node000006"><a xlink:href="classChatCommandHandler.html#a562947bc81997bcf5225df5cf1fbcaa6" target="_top" xlink:title=" ">
<polygon fill="white" stroke="#666666" points="342.5,-104.5 211.5,-104.5 211.5,-74.5 342.5,-74.5 342.5,-104.5"/>
<text text-anchor="start" x="219.5" y="-92.5" font-family="Helvetica,sans-Serif" font-size="10.00">ChatCommandHandler</text>
<text text-anchor="middle" x="277" y="-81.5" font-family="Helvetica,sans-Serif" font-size="10.00">::greenSystemMessage</text>
</a>
</g>
</g>
<!-- Node1&#45;&gt;Node6 -->
<g id="edge5_Node000001_Node000006" class="edge">
<title>Node1&#45;&gt;Node6</title>
<g id="a_edge5_Node000001_Node000006"><a xlink:title=" ">
<path fill="none" stroke="#63b8ff" d="M148.55,-117.46C165.62,-113.72 184.01,-109.68 201.36,-105.88"/>
<polygon fill="#63b8ff" stroke="#63b8ff" points="202.42,-109.23 211.44,-103.66 200.92,-102.39 202.42,-109.23"/>
</a>
</g>
</g>
<!-- Node7 -->
<g id="Node000007" class="node">
<title>Node7</title>
<g id="a_Node000007"><a xlink:href="classWorldSession.html#a9b0629f03b0923c72a5c73a99f475485" target="_top" xlink:title=" ">
<polygon fill="white" stroke="#666666" points="359,-56 195,-56 195,-37 359,-37 359,-56"/>
<text text-anchor="middle" x="277" y="-44" font-family="Helvetica,sans-Serif" font-size="10.00">WorldSession::hasPermissions</text>
</a>
</g>
</g>
<!-- Node1&#45;&gt;Node7 -->
<g id="edge6_Node000001_Node000007" class="edge">
<title>Node1&#45;&gt;Node7</title>
<g id="a_edge6_Node000001_Node000007"><a xlink:title=" ">
<path fill="none" stroke="#63b8ff" d="M101.26,-117.32C123.43,-102.16 159.67,-79.19 194,-65.5 200.38,-62.95 207.19,-60.7 214.05,-58.72"/>
<polygon fill="#63b8ff" stroke="#63b8ff" points="215.34,-62 224.09,-56.01 213.52,-55.24 215.34,-62"/>
</a>
</g>
</g>
<!-- Node8 -->
<g id="Node000008" class="node">
<title>Node8</title>
<g id="a_Node000008"><a xlink:href="classPlayer.html#ae920162637f7e67ab83b3c91f29d0762" target="_top" xlink:title=" ">
<polygon fill="white" stroke="#666666" points="334.5,-19 219.5,-19 219.5,0 334.5,0 334.5,-19"/>
<text text-anchor="middle" x="277" y="-7" font-family="Helvetica,sans-Serif" font-size="10.00">Player::isGMFlagSet</text>
</a>
</g>
</g>
<!-- Node1&#45;&gt;Node8 -->
<g id="edge7_Node000001_Node000008" class="edge">
<title>Node1&#45;&gt;Node8</title>
<g id="a_edge7_Node000001_Node000008"><a xlink:title=" ">
<path fill="none" stroke="#63b8ff" d="M92.25,-117.14C111.43,-94.17 150.83,-51.17 194,-28.5 198.93,-25.91 204.21,-23.67 209.63,-21.73"/>
<polygon fill="#63b8ff" stroke="#63b8ff" points="211.04,-24.96 219.49,-18.56 208.89,-18.29 211.04,-24.96"/>
</a>
</g>
</g>
<!-- Node9 -->
<g id="Node000009" class="node">
<title>Node9</title>
<g id="a_Node000009"><a xlink:href="classPlayer.html#a7bd26f904e888677ae75ff2f53427918" target="_top" xlink:title=" ">
<polygon fill="white" stroke="#666666" points="524,-19 396,-19 396,0 524,0 524,-19"/>
<text text-anchor="middle" x="460" y="-7" font-family="Helvetica,sans-Serif" font-size="10.00">Player::hasPlayerFlags</text>
</a>
</g>
</g>
<!-- Node8&#45;&gt;Node9 -->
<g id="edge8_Node000008_Node000009" class="edge">
<title>Node8&#45;&gt;Node9</title>
<g id="a_edge8_Node000008_Node000009"><a xlink:title=" ">
<path fill="none" stroke="#63b8ff" d="M334.77,-9.5C350.83,-9.5 368.54,-9.5 385.43,-9.5"/>
<polygon fill="#63b8ff" stroke="#63b8ff" points="385.82,-13 395.82,-9.5 385.82,-6 385.82,-13"/>
</a>
</g>
</g>
<!-- Node10 -->
<g id="Node000010" class="node">
<title>Node10</title>
<g id="a_Node000010"><a xlink:href="classPlayer.html#aab460b27ee0bee6286ce2a23a3331144" target="_top" xlink:title=" ">
<polygon fill="white" stroke="#666666" points="686,-19 560,-19 560,0 686,0 686,-19"/>
<text text-anchor="middle" x="623" y="-7" font-family="Helvetica,sans-Serif" font-size="10.00">Player::getPlayerFlags</text>
</a>
</g>
</g>
<!-- Node9&#45;&gt;Node10 -->
<g id="edge9_Node000009_Node000010" class="edge">
<title>Node9&#45;&gt;Node10</title>
<g id="a_edge9_Node000009_Node000010"><a xlink:title=" ">
<path fill="none" stroke="#63b8ff" d="M524.17,-9.5C532.5,-9.5 541.09,-9.5 549.56,-9.5"/>
<polygon fill="#63b8ff" stroke="#63b8ff" points="549.8,-13 559.8,-9.5 549.8,-6 549.8,-13"/>
</a>
</g>
</g>
<!-- Node11 -->
<g id="Node000011" class="node">
<title>Node11</title>
<g id="a_Node000011"><a xlink:href="classPlayer.html#aabab9e13edac70ad3e839a451b3164d5" target="_top" xlink:title=" ">
<polygon fill="white" stroke="#666666" points="829,-19 722,-19 722,0 829,0 829,-19"/>
<text text-anchor="middle" x="775.5" y="-7" font-family="Helvetica,sans-Serif" font-size="10.00">Player::playerData</text>
</a>
</g>
</g>
<!-- Node10&#45;&gt;Node11 -->
<g id="edge10_Node000010_Node000011" class="edge">
<title>Node10&#45;&gt;Node11</title>
<g id="a_edge10_Node000010_Node000011"><a xlink:title=" ">
<path fill="none" stroke="#63b8ff" d="M686.08,-9.5C694.49,-9.5 703.12,-9.5 711.54,-9.5"/>
<polygon fill="#63b8ff" stroke="#63b8ff" points="711.67,-13 721.67,-9.5 711.67,-6 711.67,-13"/>
</a>
</g>
</g>
</g>
</svg>

<g id="navigator" transform="translate(0 0)" fill="#404254">
  <rect fill="#f2f5e9" fill-opacity="0.5" stroke="#606060" stroke-width=".5" x="0" y="0" width="60" height="60"/>
  <use id="zoomplus" xlink:href="#zoomPlus" x="17" y="9" onmousedown="handleZoom(evt,'in')"/>
  <use id="zoomminus" xlink:href="#zoomMin" x="42" y="9" onmousedown="handleZoom(evt,'out')"/>
  <use id="reset" xlink:href="#resetDef" x="30" y="36" onmousedown="handleReset()"/>
   <use id="arrowup" xlink:href="#arrowUp" x="0" y="0" onmousedown="handlePan(0,-1)"/>
  <use id="arrowright" xlink:href="#arrowRight" x="0" y="0" onmousedown="handlePan(1,0)"/>
  <use id="arrowdown" xlink:href="#arrowDown" x="0" y="0" onmousedown="handlePan(0,1)"/>
  <use id="arrowleft" xlink:href="#arrowLeft" x="0" y="0" onmousedown="handlePan(-1,0)"/>
</g>
<svg viewBox="0 0 15 15" width="100%" height="30px" preserveAspectRatio="xMaxYMin meet">
 <g id="arrow_out" transform="scale(0.3 0.3)">
  <a xlink:href="classChatCommandHandler_abe50ba7d506017033e99f4a312a8044c_cgraph_org.svg" target="_base">
   <rect id="button" ry="5" rx="5" y="6" x="6" height="38" width="38"
        fill="#f2f5e9" fill-opacity="0.5" stroke="#606060" stroke-width="1.0"/>
   <path id="arrow"
     d="M 11.500037,31.436501 C 11.940474,20.09759 22.043105,11.32322 32.158766,21.979434 L 37.068811,17.246167 C 37.068811,17.246167 37.088388,32 37.088388,32 L 22.160133,31.978069 C 22.160133,31.978069 26.997745,27.140456 26.997745,27.140456 C 18.528582,18.264221 13.291696,25.230495 11.500037,31.436501 z"
     style="fill:#404040;"/>
  </a>
 </g>
</svg>

<style type='text/css'>
<![CDATA[
[data-mouse-over-selected='false'] { opacity: 0.7; }
[data-mouse-over-selected='true']  { opacity: 1.0; }
]]>
</style>
<script type="application/ecmascript"><![CDATA[
document.addEventListener('DOMContentLoaded', (event) => {
  highlightEdges();
  highlightAdjacentNodes();
});
]]></script>
</svg>
