<?xml version="1.0" encoding="UTF-8" standalone="no"?>
<!DOCTYPE svg PUBLIC "-//W3C//DTD SVG 1.1//EN"
 "http://www.w3.org/Graphics/SVG/1.1/DTD/svg11.dtd">
<!-- Generated by graphviz version 2.43.0 (0)
 -->
<!-- Title: HellfireChannelerAI::OnDamageTaken Pages: 1 -->
<svg width="1274pt" height="162pt"
 viewBox="0.00 0.00 1274.00 162.00" xmlns="http://www.w3.org/2000/svg" xmlns:xlink="http://www.w3.org/1999/xlink">
<g id="graph0" class="graph" transform="scale(1 1) rotate(0) translate(4 158)">
<title>HellfireChannelerAI::OnDamageTaken</title>
<!-- Node1 -->
<g id="Node000001" class="node">
<title>Node1</title>
<g id="a_Node000001"><a xlink:title=" ">
<polygon fill="#999999" stroke="#666666" points="111,-122.5 0,-122.5 0,-92.5 111,-92.5 111,-122.5"/>
<text text-anchor="start" x="8" y="-110.5" font-family="Helvetica,sans-Serif" font-size="10.00">HellfireChannelerAI</text>
<text text-anchor="middle" x="55.5" y="-99.5" font-family="Helvetica,sans-Serif" font-size="10.00">::OnDamageTaken</text>
</a>
</g>
</g>
<!-- Node2 -->
<g id="Node000002" class="node">
<title>Node2</title>
<g id="a_Node000002"><a xlink:href="classUnit.html#ac31c5d768d09773dcbdd613b24e10f50" target="_top" xlink:title=" ">
<polygon fill="white" stroke="#666666" points="283,-154 171,-154 171,-135 283,-135 283,-154"/>
<text text-anchor="middle" x="227" y="-142" font-family="Helvetica,sans-Serif" font-size="10.00">Unit::getAIInterface</text>
</a>
</g>
</g>
<!-- Node1&#45;&gt;Node2 -->
<g id="edge1_Node000001_Node000002" class="edge">
<title>Node1&#45;&gt;Node2</title>
<g id="a_edge1_Node000001_Node000002"><a xlink:title=" ">
<path fill="none" stroke="#63b8ff" d="M111.06,-119.41C130.68,-123.69 152.77,-128.52 172.31,-132.78"/>
<polygon fill="#63b8ff" stroke="#63b8ff" points="171.75,-136.24 182.27,-134.95 173.25,-129.4 171.75,-136.24"/>
</a>
</g>
</g>
<!-- Node3 -->
<g id="Node000003" class="node">
<title>Node3</title>
<g id="a_Node000003"><a xlink:href="classCreatureAIScript.html#a971bb1373556b3ec594d8f7ba5f5e6e6" target="_top" xlink:title=" ">
<polygon fill="white" stroke="#666666" points="307,-117 147,-117 147,-98 307,-98 307,-117"/>
<text text-anchor="middle" x="227" y="-105" font-family="Helvetica,sans-Serif" font-size="10.00">CreatureAIScript::getCreature</text>
</a>
</g>
</g>
<!-- Node1&#45;&gt;Node3 -->
<g id="edge2_Node000001_Node000003" class="edge">
<title>Node1&#45;&gt;Node3</title>
<g id="a_edge2_Node000001_Node000003"><a xlink:title=" ">
<path fill="none" stroke="#63b8ff" d="M111.06,-107.5C119.27,-107.5 127.91,-107.5 136.62,-107.5"/>
<polygon fill="#63b8ff" stroke="#63b8ff" points="136.85,-111 146.85,-107.5 136.85,-104 136.85,-111"/>
</a>
</g>
</g>
<!-- Node4 -->
<g id="Node000004" class="node">
<title>Node4</title>
<g id="a_Node000004"><a xlink:href="classAIInterface.html#ad994b9d83f57d6419189962ee71ae413" target="_top" xlink:title=" ">
<polygon fill="white" stroke="#666666" points="297,-79.5 157,-79.5 157,-49.5 297,-49.5 297,-79.5"/>
<text text-anchor="start" x="165" y="-67.5" font-family="Helvetica,sans-Serif" font-size="10.00">AIInterface::setAllowedTo</text>
<text text-anchor="middle" x="227" y="-56.5" font-family="Helvetica,sans-Serif" font-size="10.00">EnterCombat</text>
</a>
</g>
</g>
<!-- Node1&#45;&gt;Node4 -->
<g id="edge3_Node000001_Node000004" class="edge">
<title>Node1&#45;&gt;Node4</title>
<g id="a_edge3_Node000001_Node000004"><a xlink:title=" ">
<path fill="none" stroke="#63b8ff" d="M111.06,-93.66C125.67,-89.95 141.65,-85.9 156.93,-82.02"/>
<polygon fill="#63b8ff" stroke="#63b8ff" points="158.02,-85.36 166.85,-79.51 156.3,-78.57 158.02,-85.36"/>
</a>
</g>
</g>
<!-- Node5 -->
<g id="Node000005" class="node">
<title>Node5</title>
<g id="a_Node000005"><a xlink:href="classAIInterface.html#aca6db9b8e3bb02a8bb6d0a1ba68f6cc5" target="_top" xlink:title=" ">
<polygon fill="white" stroke="#666666" points="507,-103.5 343,-103.5 343,-73.5 507,-73.5 507,-103.5"/>
<text text-anchor="start" x="351" y="-91.5" font-family="Helvetica,sans-Serif" font-size="10.00">AIInterface::setIgnoreCreature</text>
<text text-anchor="middle" x="425" y="-80.5" font-family="Helvetica,sans-Serif" font-size="10.00">Combat</text>
</a>
</g>
</g>
<!-- Node4&#45;&gt;Node5 -->
<g id="edge4_Node000004_Node000005" class="edge">
<title>Node4&#45;&gt;Node5</title>
<g id="a_edge4_Node000004_Node000005"><a xlink:title=" ">
<path fill="none" stroke="#63b8ff" d="M297.1,-72.96C308.64,-74.37 320.77,-75.86 332.75,-77.33"/>
<polygon fill="#63b8ff" stroke="#63b8ff" points="332.43,-80.81 342.78,-78.55 333.28,-73.86 332.43,-80.81"/>
</a>
</g>
</g>
<!-- Node16 -->
<g id="Node000016" class="node">
<title>Node16</title>
<g id="a_Node000016"><a xlink:href="classAIInterface.html#a0a465b003f70eccb891d1ffb816300dd" target="_top" xlink:title=" ">
<polygon fill="white" stroke="#666666" points="501,-55.5 349,-55.5 349,-25.5 501,-25.5 501,-55.5"/>
<text text-anchor="start" x="357" y="-43.5" font-family="Helvetica,sans-Serif" font-size="10.00">AIInterface::setIgnorePlayer</text>
<text text-anchor="middle" x="425" y="-32.5" font-family="Helvetica,sans-Serif" font-size="10.00">Combat</text>
</a>
</g>
</g>
<!-- Node4&#45;&gt;Node16 -->
<g id="edge18_Node000004_Node000016" class="edge">
<title>Node4&#45;&gt;Node16</title>
<g id="a_edge18_Node000004_Node000016"><a xlink:title=" ">
<path fill="none" stroke="#63b8ff" d="M297.1,-56.04C310.58,-54.39 324.86,-52.64 338.8,-50.93"/>
<polygon fill="#63b8ff" stroke="#63b8ff" points="339.36,-54.39 348.86,-49.7 338.51,-47.44 339.36,-54.39"/>
</a>
</g>
</g>
<!-- Node6 -->
<g id="Node000006" class="node">
<title>Node6</title>
<g id="a_Node000006"><a xlink:href="classUnit.html#a2ac6a3a63629788ab412b9729851dd20" target="_top" xlink:title=" ">
<polygon fill="white" stroke="#666666" points="660,-92 553,-92 553,-73 660,-73 660,-92"/>
<text text-anchor="middle" x="606.5" y="-80" font-family="Helvetica,sans-Serif" font-size="10.00">Unit::addUnitFlags</text>
</a>
</g>
</g>
<!-- Node5&#45;&gt;Node6 -->
<g id="edge5_Node000005_Node000006" class="edge">
<title>Node5&#45;&gt;Node6</title>
<g id="a_edge5_Node000005_Node000006"><a xlink:title=" ">
<path fill="none" stroke="#63b8ff" d="M507.09,-85.79C518.96,-85.39 531.05,-84.99 542.49,-84.61"/>
<polygon fill="#63b8ff" stroke="#63b8ff" points="542.92,-88.09 552.8,-84.26 542.69,-81.1 542.92,-88.09"/>
</a>
</g>
</g>
<!-- Node15 -->
<g id="Node000015" class="node">
<title>Node15</title>
<g id="a_Node000015"><a xlink:href="classUnit.html#a3efa33ec534afc65910d40bfcc9cab4b" target="_top" xlink:title=" ">
<polygon fill="white" stroke="#666666" points="670,-55 543,-55 543,-36 670,-36 670,-55"/>
<text text-anchor="middle" x="606.5" y="-43" font-family="Helvetica,sans-Serif" font-size="10.00">Unit::removeUnitFlags</text>
</a>
</g>
</g>
<!-- Node5&#45;&gt;Node15 -->
<g id="edge15_Node000005_Node000015" class="edge">
<title>Node5&#45;&gt;Node15</title>
<g id="a_edge15_Node000005_Node000015"><a xlink:title=" ">
<path fill="none" stroke="#63b8ff" d="M488.78,-73.46C510.76,-68.2 535.12,-62.36 555.88,-57.39"/>
<polygon fill="#63b8ff" stroke="#63b8ff" points="556.84,-60.76 565.75,-55.02 555.21,-53.95 556.84,-60.76"/>
</a>
</g>
</g>
<!-- Node7 -->
<g id="Node000007" class="node">
<title>Node7</title>
<g id="a_Node000007"><a xlink:href="classUnit.html#a67095c70ac3cc853e32e1b9d17c4bab7" target="_top" xlink:title=" ">
<polygon fill="white" stroke="#666666" points="811,-92 706,-92 706,-73 811,-73 811,-92"/>
<text text-anchor="middle" x="758.5" y="-80" font-family="Helvetica,sans-Serif" font-size="10.00">Unit::getUnitFlags</text>
</a>
</g>
</g>
<!-- Node6&#45;&gt;Node7 -->
<g id="edge6_Node000006_Node000007" class="edge">
<title>Node6&#45;&gt;Node7</title>
<g id="a_edge6_Node000006_Node000007"><a xlink:title=" ">
<path fill="none" stroke="#63b8ff" d="M660.38,-82.5C671.8,-82.5 683.97,-82.5 695.69,-82.5"/>
<polygon fill="#63b8ff" stroke="#63b8ff" points="695.85,-86 705.85,-82.5 695.85,-79 695.85,-86"/>
</a>
</g>
</g>
<!-- Node9 -->
<g id="Node000009" class="node">
<title>Node9</title>
<g id="a_Node000009"><a xlink:href="classUnit.html#a887727aa4db30d7fee65b72961457abf" target="_top" xlink:title=" ">
<polygon fill="white" stroke="#666666" points="810.5,-55 706.5,-55 706.5,-36 810.5,-36 810.5,-55"/>
<text text-anchor="middle" x="758.5" y="-43" font-family="Helvetica,sans-Serif" font-size="10.00">Unit::setUnitFlags</text>
</a>
</g>
</g>
<!-- Node6&#45;&gt;Node9 -->
<g id="edge8_Node000006_Node000009" class="edge">
<title>Node6&#45;&gt;Node9</title>
<g id="a_edge8_Node000006_Node000009"><a xlink:title=" ">
<path fill="none" stroke="#63b8ff" d="M646.13,-72.97C665.3,-68.24 688.66,-62.48 709.02,-57.46"/>
<polygon fill="#63b8ff" stroke="#63b8ff" points="709.87,-60.85 718.74,-55.06 708.19,-54.06 709.87,-60.85"/>
</a>
</g>
</g>
<!-- Node8 -->
<g id="Node000008" class="node">
<title>Node8</title>
<g id="a_Node000008"><a xlink:href="classUnit.html#a2b80af47340ac01ca2031723f37e839a" target="_top" xlink:title=" ">
<polygon fill="white" stroke="#666666" points="932,-92 847,-92 847,-73 932,-73 932,-92"/>
<text text-anchor="middle" x="889.5" y="-80" font-family="Helvetica,sans-Serif" font-size="10.00">Unit::unitData</text>
</a>
</g>
</g>
<!-- Node7&#45;&gt;Node8 -->
<g id="edge7_Node000007_Node000008" class="edge">
<title>Node7&#45;&gt;Node8</title>
<g id="a_edge7_Node000007_Node000008"><a xlink:title=" ">
<path fill="none" stroke="#63b8ff" d="M811.23,-82.5C819.6,-82.5 828.27,-82.5 836.64,-82.5"/>
<polygon fill="#63b8ff" stroke="#63b8ff" points="836.67,-86 846.67,-82.5 836.67,-79 836.67,-86"/>
</a>
</g>
</g>
<!-- Node9&#45;&gt;Node8 -->
<g id="edge9_Node000009_Node000008" class="edge">
<title>Node9&#45;&gt;Node8</title>
<g id="a_edge9_Node000009_Node000008"><a xlink:title=" ">
<path fill="none" stroke="#63b8ff" d="M792.72,-55.03C808.7,-59.61 828.05,-65.16 845.17,-70.07"/>
<polygon fill="#63b8ff" stroke="#63b8ff" points="844.37,-73.48 854.94,-72.88 846.3,-66.75 844.37,-73.48"/>
</a>
</g>
</g>
<!-- Node10 -->
<g id="Node000010" class="node">
<title>Node10</title>
<g id="a_Node000010"><a xlink:href="classObject.html#a8b600efb87d19216b881a2451ce3629f" target="_top" xlink:title=" ">
<polygon fill="white" stroke="#666666" points="929,-55 850,-55 850,-36 929,-36 929,-55"/>
<text text-anchor="middle" x="889.5" y="-43" font-family="Helvetica,sans-Serif" font-size="10.00">Object::write</text>
</a>
</g>
</g>
<!-- Node9&#45;&gt;Node10 -->
<g id="edge10_Node000009_Node000010" class="edge">
<title>Node9&#45;&gt;Node10</title>
<g id="a_edge10_Node000009_Node000010"><a xlink:title=" ">
<path fill="none" stroke="#63b8ff" d="M810.85,-45.5C820.25,-45.5 830.03,-45.5 839.36,-45.5"/>
<polygon fill="#63b8ff" stroke="#63b8ff" points="839.65,-49 849.65,-45.5 839.65,-42 839.65,-49"/>
</a>
</g>
</g>
<!-- Node11 -->
<g id="Node000011" class="node">
<title>Node11</title>
<g id="a_Node000011"><a xlink:href="classUpdateMask.html#aaf858dd57840b7228abe64c6376d1c89" target="_top" xlink:title=" ">
<polygon fill="white" stroke="#666666" points="1084,-74 971,-74 971,-55 1084,-55 1084,-74"/>
<text text-anchor="middle" x="1027.5" y="-62" font-family="Helvetica,sans-Serif" font-size="10.00">UpdateMask::SetBit</text>
</a>
</g>
</g>
<!-- Node10&#45;&gt;Node11 -->
<g id="edge11_Node000010_Node000011" class="edge">
<title>Node10&#45;&gt;Node11</title>
<g id="a_edge11_Node000010_Node000011"><a xlink:title=" ">
<path fill="none" stroke="#63b8ff" d="M929.11,-50.89C939.03,-52.28 949.98,-53.81 960.86,-55.33"/>
<polygon fill="#63b8ff" stroke="#63b8ff" points="960.4,-58.8 970.79,-56.72 961.37,-51.87 960.4,-58.8"/>
</a>
</g>
</g>
<!-- Node12 -->
<g id="Node000012" class="node">
<title>Node12</title>
<g id="a_Node000012"><a xlink:href="classObject.html#a796330249e8c0e5f7c2cf52715638620" target="_top" xlink:title=" ">
<polygon fill="white" stroke="#666666" points="1087,-37 968,-37 968,-18 1087,-18 1087,-37"/>
<text text-anchor="middle" x="1027.5" y="-25" font-family="Helvetica,sans-Serif" font-size="10.00">Object::updateObject</text>
</a>
</g>
</g>
<!-- Node10&#45;&gt;Node12 -->
<g id="edge12_Node000010_Node000012" class="edge">
<title>Node10&#45;&gt;Node12</title>
<g id="a_edge12_Node000010_Node000012"><a xlink:title=" ">
<path fill="none" stroke="#63b8ff" d="M929.11,-40.39C938.18,-39.19 948.11,-37.87 958.06,-36.56"/>
<polygon fill="#63b8ff" stroke="#63b8ff" points="958.52,-40.03 967.98,-35.25 957.61,-33.09 958.52,-40.03"/>
</a>
</g>
</g>
<!-- Node13 -->
<g id="Node000013" class="node">
<title>Node13</title>
<g id="a_Node000013"><a xlink:href="classObject.html#a3aeab7def818ba6c50249f197ad2f9ca" target="_top" xlink:title=" ">
<polygon fill="white" stroke="#666666" points="1244,-56 1145,-56 1145,-37 1244,-37 1244,-56"/>
<text text-anchor="middle" x="1194.5" y="-44" font-family="Helvetica,sans-Serif" font-size="10.00">Object::IsInWorld</text>
</a>
</g>
</g>
<!-- Node12&#45;&gt;Node13 -->
<g id="edge13_Node000012_Node000013" class="edge">
<title>Node12&#45;&gt;Node13</title>
<g id="a_edge13_Node000012_Node000013"><a xlink:title=" ">
<path fill="none" stroke="#63b8ff" d="M1087.14,-34.25C1102.64,-36.04 1119.37,-37.96 1134.87,-39.75"/>
<polygon fill="#63b8ff" stroke="#63b8ff" points="1134.52,-43.23 1144.85,-40.9 1135.32,-36.28 1134.52,-43.23"/>
</a>
</g>
</g>
<!-- Node14 -->
<g id="Node000014" class="node">
<title>Node14</title>
<g id="a_Node000014"><a xlink:href="classWorldMap.html#aabf61e8d556612e51b4e87a605d314bf" target="_top" xlink:title=" ">
<polygon fill="white" stroke="#666666" points="1266,-19 1123,-19 1123,0 1266,0 1266,-19"/>
<text text-anchor="middle" x="1194.5" y="-7" font-family="Helvetica,sans-Serif" font-size="10.00">WorldMap::objectUpdated</text>
</a>
</g>
</g>
<!-- Node12&#45;&gt;Node14 -->
<g id="edge14_Node000012_Node000014" class="edge">
<title>Node12&#45;&gt;Node14</title>
<g id="a_edge14_Node000012_Node000014"><a xlink:title=" ">
<path fill="none" stroke="#63b8ff" d="M1087.14,-21.1C1095.46,-20.2 1104.14,-19.25 1112.79,-18.31"/>
<polygon fill="#63b8ff" stroke="#63b8ff" points="1113.34,-21.77 1122.91,-17.2 1112.59,-14.81 1113.34,-21.77"/>
</a>
</g>
</g>
<!-- Node15&#45;&gt;Node7 -->
<g id="edge16_Node000015_Node000007" class="edge">
<title>Node15&#45;&gt;Node7</title>
<g id="a_edge16_Node000015_Node000007"><a xlink:title=" ">
<path fill="none" stroke="#63b8ff" d="M646.13,-55.03C665.3,-59.76 688.66,-65.52 709.02,-70.54"/>
<polygon fill="#63b8ff" stroke="#63b8ff" points="708.19,-73.94 718.74,-72.94 709.87,-67.15 708.19,-73.94"/>
</a>
</g>
</g>
<!-- Node15&#45;&gt;Node9 -->
<g id="edge17_Node000015_Node000009" class="edge">
<title>Node15&#45;&gt;Node9</title>
<g id="a_edge17_Node000015_Node000009"><a xlink:title=" ">
<path fill="none" stroke="#63b8ff" d="M670.24,-45.5C678.81,-45.5 687.59,-45.5 696.12,-45.5"/>
<polygon fill="#63b8ff" stroke="#63b8ff" points="696.38,-49 706.38,-45.5 696.38,-42 696.38,-49"/>
</a>
</g>
</g>
<!-- Node16&#45;&gt;Node6 -->
<g id="edge19_Node000016_Node000006" class="edge">
<title>Node16&#45;&gt;Node6</title>
<g id="a_edge19_Node000016_Node000006"><a xlink:title=" ">
<path fill="none" stroke="#63b8ff" d="M490.3,-55.54C511.55,-60.52 534.89,-65.98 554.96,-70.67"/>
<polygon fill="#63b8ff" stroke="#63b8ff" points="554.3,-74.11 564.83,-72.98 555.89,-67.3 554.3,-74.11"/>
</a>
</g>
</g>
<!-- Node16&#45;&gt;Node15 -->
<g id="edge20_Node000016_Node000015" class="edge">
<title>Node16&#45;&gt;Node15</title>
<g id="a_edge20_Node000016_Node000015"><a xlink:title=" ">
<path fill="none" stroke="#63b8ff" d="M501.08,-42.59C511.53,-42.88 522.25,-43.18 532.66,-43.47"/>
<polygon fill="#63b8ff" stroke="#63b8ff" points="532.84,-46.98 542.94,-43.76 533.04,-39.98 532.84,-46.98"/>
</a>
</g>
</g>
</g>
</svg>
