<?xml version="1.0" encoding="UTF-8" standalone="no"?>
<!DOCTYPE svg PUBLIC "-//W3C//DTD SVG 1.1//EN"
 "http://www.w3.org/Graphics/SVG/1.1/DTD/svg11.dtd">
<!-- Generated by graphviz version 2.43.0 (0)
 -->
<!-- Title: WorldSession::handleReportOpcode Pages: 1 -->
<svg width="714pt" height="131pt"
 viewBox="0.00 0.00 714.00 130.50" xmlns="http://www.w3.org/2000/svg" xmlns:xlink="http://www.w3.org/1999/xlink">
<g id="graph0" class="graph" transform="scale(1 1) rotate(0) translate(4 126.5)">
<title>WorldSession::handleReportOpcode</title>
<!-- Node1 -->
<g id="Node000001" class="node">
<title>Node1</title>
<g id="a_Node000001"><a xlink:title=" ">
<polygon fill="#999999" stroke="#666666" points="153,-100.5 0,-100.5 0,-70.5 153,-70.5 153,-100.5"/>
<text text-anchor="start" x="8" y="-88.5" font-family="Helvetica,sans-Serif" font-size="10.00">WorldSession::handleReport</text>
<text text-anchor="middle" x="76.5" y="-77.5" font-family="Helvetica,sans-Serif" font-size="10.00">Opcode</text>
</a>
</g>
</g>
<!-- Node2 -->
<g id="Node000002" class="node">
<title>Node2</title>
<g id="a_Node000002"><a xlink:href="classWoWGuid.html#a0e1068a25c6a2f1896fdfd91f38c8422" target="_top" xlink:title=" ">
<polygon fill="white" stroke="#666666" points="360,-122.5 189,-122.5 189,-92.5 360,-92.5 360,-122.5"/>
<text text-anchor="start" x="197" y="-110.5" font-family="Helvetica,sans-Serif" font-size="10.00">WoWGuid::getGuidLowPartFrom</text>
<text text-anchor="middle" x="274.5" y="-99.5" font-family="Helvetica,sans-Serif" font-size="10.00">UInt64</text>
</a>
</g>
</g>
<!-- Node1&#45;&gt;Node2 -->
<g id="edge1_Node000001_Node000002" class="edge">
<title>Node1&#45;&gt;Node2</title>
<g id="a_edge1_Node000001_Node000002"><a xlink:title=" ">
<path fill="none" stroke="#63b8ff" d="M153.28,-94.01C161.64,-94.94 170.23,-95.91 178.79,-96.87"/>
<polygon fill="#63b8ff" stroke="#63b8ff" points="178.47,-100.36 188.8,-97.99 179.25,-93.4 178.47,-100.36"/>
</a>
</g>
</g>
<!-- Node3 -->
<g id="Node000003" class="node">
<title>Node3</title>
<g id="a_Node000003"><a xlink:href="classWorldSession.html#a87a1bd80483f57f33a127d12c51d2331" target="_top" xlink:title=" ">
<polygon fill="white" stroke="#666666" points="346,-74 203,-74 203,-55 346,-55 346,-74"/>
<text text-anchor="middle" x="274.5" y="-62" font-family="Helvetica,sans-Serif" font-size="10.00">WorldSession::SendPacket</text>
</a>
</g>
</g>
<!-- Node1&#45;&gt;Node3 -->
<g id="edge2_Node000001_Node000003" class="edge">
<title>Node1&#45;&gt;Node3</title>
<g id="a_edge2_Node000001_Node000003"><a xlink:title=" ">
<path fill="none" stroke="#63b8ff" d="M153.28,-77.38C166.11,-76.01 179.49,-74.57 192.45,-73.18"/>
<polygon fill="#63b8ff" stroke="#63b8ff" points="193.17,-76.63 202.74,-72.08 192.42,-69.67 193.17,-76.63"/>
</a>
</g>
</g>
<!-- Node4 -->
<g id="Node000004" class="node">
<title>Node4</title>
<g id="a_Node000004"><a xlink:href="classWorldPacket.html#a3f359b4afd93497038c4f17e1ebd4380" target="_top" xlink:title=" ">
<polygon fill="white" stroke="#666666" points="706,-102 570,-102 570,-83 706,-83 706,-102"/>
<text text-anchor="middle" x="638" y="-90" font-family="Helvetica,sans-Serif" font-size="10.00">WorldPacket::GetOpcode</text>
</a>
</g>
</g>
<!-- Node3&#45;&gt;Node4 -->
<g id="edge3_Node000003_Node000004" class="edge">
<title>Node3&#45;&gt;Node4</title>
<g id="a_edge3_Node000003_Node000004"><a xlink:title=" ">
<path fill="none" stroke="#63b8ff" d="M327.23,-74.04C348.46,-77.6 373.34,-81.3 396,-83.5 450.55,-88.8 512.32,-91.03 559.67,-91.95"/>
<polygon fill="#63b8ff" stroke="#63b8ff" points="559.79,-95.45 569.85,-92.13 559.91,-88.45 559.79,-95.45"/>
</a>
</g>
</g>
<!-- Node5 -->
<g id="Node000005" class="node">
<title>Node5</title>
<g id="a_Node000005"><a xlink:href="classSocket.html#ae3bcf72d932e7b29656d368e81186e6a" target="_top" xlink:title=" ">
<polygon fill="white" stroke="#666666" points="522.5,-74 407.5,-74 407.5,-55 522.5,-55 522.5,-74"/>
<text text-anchor="middle" x="465" y="-62" font-family="Helvetica,sans-Serif" font-size="10.00">Socket::IsConnected</text>
</a>
</g>
</g>
<!-- Node3&#45;&gt;Node5 -->
<g id="edge4_Node000003_Node000005" class="edge">
<title>Node3&#45;&gt;Node5</title>
<g id="a_edge4_Node000003_Node000005"><a xlink:title=" ">
<path fill="none" stroke="#63b8ff" d="M346.23,-64.5C362.92,-64.5 380.67,-64.5 397.19,-64.5"/>
<polygon fill="#63b8ff" stroke="#63b8ff" points="397.3,-68 407.3,-64.5 397.3,-61 397.3,-68"/>
</a>
</g>
</g>
<!-- Node6 -->
<g id="Node000006" class="node">
<title>Node6</title>
<g id="a_Node000006"><a xlink:href="classWorldSocket.html#ab2fb0afb0aaf5d2229fea66a9923637e" target="_top" xlink:title=" ">
<polygon fill="white" stroke="#666666" points="534,-37 396,-37 396,-18 534,-18 534,-37"/>
<text text-anchor="middle" x="465" y="-25" font-family="Helvetica,sans-Serif" font-size="10.00">WorldSocket::SendPacket</text>
</a>
</g>
</g>
<!-- Node3&#45;&gt;Node6 -->
<g id="edge5_Node000003_Node000006" class="edge">
<title>Node3&#45;&gt;Node6</title>
<g id="a_edge5_Node000003_Node000006"><a xlink:title=" ">
<path fill="none" stroke="#63b8ff" d="M324.04,-54.97C348.79,-50.11 379.09,-44.17 405.16,-39.05"/>
<polygon fill="#63b8ff" stroke="#63b8ff" points="406.16,-42.42 415.29,-37.06 404.81,-35.55 406.16,-42.42"/>
</a>
</g>
</g>
<!-- Node6&#45;&gt;Node4 -->
<g id="edge7_Node000006_Node000004" class="edge">
<title>Node6&#45;&gt;Node4</title>
<g id="a_edge7_Node000006_Node000004"><a xlink:title=" ">
<path fill="none" stroke="#63b8ff" d="M508.19,-37.07C516.85,-39.48 525.81,-42.3 534,-45.5 550.85,-52.08 553.64,-56.78 570,-64.5 580.65,-69.52 592.45,-74.61 603.14,-79.04"/>
<polygon fill="#63b8ff" stroke="#63b8ff" points="602,-82.36 612.58,-82.91 604.65,-75.88 602,-82.36"/>
</a>
</g>
</g>
<!-- Node7 -->
<g id="Node000007" class="node">
<title>Node7</title>
<g id="a_Node000007"><a xlink:href="classByteBuffer.html#a8d712af2767c7ca45de60bd9d85738d8" target="_top" xlink:title=" ">
<polygon fill="white" stroke="#666666" points="696,-56 580,-56 580,-37 696,-37 696,-56"/>
<text text-anchor="middle" x="638" y="-44" font-family="Helvetica,sans-Serif" font-size="10.00">ByteBuffer::contents</text>
</a>
</g>
</g>
<!-- Node6&#45;&gt;Node7 -->
<g id="edge6_Node000006_Node000007" class="edge">
<title>Node6&#45;&gt;Node7</title>
<g id="a_edge6_Node000006_Node000007"><a xlink:title=" ">
<path fill="none" stroke="#63b8ff" d="M534.08,-35.06C545.82,-36.37 558.02,-37.72 569.74,-39.03"/>
<polygon fill="#63b8ff" stroke="#63b8ff" points="569.56,-42.53 579.89,-40.15 570.34,-35.57 569.56,-42.53"/>
</a>
</g>
</g>
<!-- Node8 -->
<g id="Node000008" class="node">
<title>Node8</title>
<g id="a_Node000008"><a xlink:href="classByteBuffer.html#ac06a598447807d32f6594a97a32bce94" target="_top" xlink:title=" ">
<polygon fill="white" stroke="#666666" points="685,-19 591,-19 591,0 685,0 685,-19"/>
<text text-anchor="middle" x="638" y="-7" font-family="Helvetica,sans-Serif" font-size="10.00">ByteBuffer::size</text>
</a>
</g>
</g>
<!-- Node6&#45;&gt;Node8 -->
<g id="edge8_Node000006_Node000008" class="edge">
<title>Node6&#45;&gt;Node8</title>
<g id="a_edge8_Node000006_Node000008"><a xlink:title=" ">
<path fill="none" stroke="#63b8ff" d="M534.08,-20.33C549.59,-18.7 565.9,-16.98 580.85,-15.41"/>
<polygon fill="#63b8ff" stroke="#63b8ff" points="581.38,-18.87 590.96,-14.35 580.64,-11.91 581.38,-18.87"/>
</a>
</g>
</g>
</g>
</svg>
