<?xml version="1.0" encoding="UTF-8" standalone="no"?>
<!DOCTYPE svg PUBLIC "-//W3C//DTD SVG 1.1//EN"
 "http://www.w3.org/Graphics/SVG/1.1/DTD/svg11.dtd">
<!-- Generated by graphviz version 2.43.0 (0)
 -->
<!-- Title: Unit::setPositiveAuraLimit Pages: 1 -->
<svg width="929pt" height="1527pt"
 viewBox="0.00 0.00 929.00 1527.00" xmlns="http://www.w3.org/2000/svg" xmlns:xlink="http://www.w3.org/1999/xlink">
<g id="graph0" class="graph" transform="scale(1 1) rotate(0) translate(4 1523)">
<title>Unit::setPositiveAuraLimit</title>
<!-- Node1 -->
<g id="Node000001" class="node">
<title>Node1</title>
<g id="a_Node000001"><a xlink:title=" ">
<polygon fill="#999999" stroke="#666666" points="921,-726 777,-726 777,-707 921,-707 921,-726"/>
<text text-anchor="middle" x="849" y="-714" font-family="Helvetica,sans-Serif" font-size="10.00">Unit::setPositiveAuraLimit</text>
</a>
</g>
</g>
<!-- Node2 -->
<g id="Node000002" class="node">
<title>Node2</title>
<g id="a_Node000002"><a xlink:href="classCreature.html#a8b8a2a4cc76cd3aa4eb5b069793d0ef3" target="_top" xlink:title=" ">
<polygon fill="white" stroke="#666666" points="710,-946 622,-946 622,-927 710,-927 710,-946"/>
<text text-anchor="middle" x="666" y="-934" font-family="Helvetica,sans-Serif" font-size="10.00">Creature::Load</text>
</a>
</g>
</g>
<!-- Node1&#45;&gt;Node2 -->
<g id="edge1_Node000001_Node000002" class="edge">
<title>Node1&#45;&gt;Node2</title>
<g id="a_edge1_Node000001_Node000002"><a xlink:title=" ">
<path fill="none" stroke="#63b8ff" d="M842.69,-735.99C831.01,-775.23 799.37,-864.09 741,-912.5 732.16,-919.83 721.04,-924.94 710.11,-928.49"/>
<polygon fill="#63b8ff" stroke="#63b8ff" points="846.07,-736.9 845.46,-726.32 839.34,-734.97 846.07,-736.9"/>
</a>
</g>
</g>
<!-- Node3 -->
<g id="Node000003" class="node">
<title>Node3</title>
<g id="a_Node000003"><a xlink:href="classSummon.html#a0c62b6f3c6daf80afc4871c518f67591" target="_top" xlink:title=" ">
<polygon fill="white" stroke="#666666" points="503.5,-1369 416.5,-1369 416.5,-1350 503.5,-1350 503.5,-1369"/>
<text text-anchor="middle" x="460" y="-1357" font-family="Helvetica,sans-Serif" font-size="10.00">Summon::load</text>
</a>
</g>
</g>
<!-- Node1&#45;&gt;Node3 -->
<g id="edge2_Node000001_Node000003" class="edge">
<title>Node1&#45;&gt;Node3</title>
<g id="a_edge2_Node000001_Node000003"><a xlink:title=" ">
<path fill="none" stroke="#63b8ff" d="M840.82,-735.77C827,-770.15 793.35,-841.96 741,-879.5 685.02,-919.64 635.41,-865.84 591,-918.5 530.18,-990.61 618.14,-1271.41 555,-1341.5 542.32,-1355.57 522.3,-1360.68 503.98,-1362.02"/>
<polygon fill="#63b8ff" stroke="#63b8ff" points="844.11,-736.97 844.47,-726.38 837.59,-734.44 844.11,-736.97"/>
</a>
</g>
</g>
<!-- Node19 -->
<g id="Node000019" class="node">
<title>Node19</title>
<g id="a_Node000019"><a xlink:href="classCreature.html#ae4d345f9d8ccd87e67b01d2dc1226feb" target="_top" xlink:title=" ">
<polygon fill="white" stroke="#666666" points="710,-870 622,-870 622,-851 710,-851 710,-870"/>
<text text-anchor="middle" x="666" y="-858" font-family="Helvetica,sans-Serif" font-size="10.00">Creature::Load</text>
</a>
</g>
</g>
<!-- Node1&#45;&gt;Node19 -->
<g id="edge13_Node000001_Node000019" class="edge">
<title>Node1&#45;&gt;Node19</title>
<g id="a_edge13_Node000001_Node000019"><a xlink:title=" ">
<path fill="none" stroke="#63b8ff" d="M827.59,-732.74C789.7,-762.88 709.57,-826.63 679.1,-850.87"/>
<polygon fill="#63b8ff" stroke="#63b8ff" points="830.2,-735.14 835.84,-726.17 825.84,-729.66 830.2,-735.14"/>
</a>
</g>
</g>
<!-- Node1599 -->
<g id="Node001599" class="node">
<title>Node1599</title>
<g id="a_Node001599"><a xlink:href="classUnit.html#a5492b6cdc3b2a554229641c07a0be183" target="_top" xlink:title=" ">
<polygon fill="white" stroke="#666666" points="734,-726 598,-726 598,-707 734,-707 734,-726"/>
<text text-anchor="middle" x="666" y="-714" font-family="Helvetica,sans-Serif" font-size="10.00">Unit::setBytes2ForOffset</text>
</a>
</g>
</g>
<!-- Node1&#45;&gt;Node1599 -->
<g id="edge38_Node000001_Node001599" class="edge">
<title>Node1&#45;&gt;Node1599</title>
<g id="a_edge38_Node000001_Node001599"><a xlink:title=" ">
<path fill="none" stroke="#63b8ff" d="M766.67,-716.5C755.83,-716.5 744.82,-716.5 734.26,-716.5"/>
<polygon fill="#63b8ff" stroke="#63b8ff" points="766.98,-720 776.98,-716.5 766.98,-713 766.98,-720"/>
</a>
</g>
</g>
<!-- Node1600 -->
<g id="Node001600" class="node">
<title>Node1600</title>
<g id="a_Node001600"><a xlink:href="classPlayer.html#a7e66ae8b6c277f49f3e31dd7a8ce0d44" target="_top" xlink:title=" ">
<polygon fill="white" stroke="#666666" points="741,-495 591,-495 591,-476 741,-476 741,-495"/>
<text text-anchor="middle" x="666" y="-483" font-family="Helvetica,sans-Serif" font-size="10.00">Player::setInitialPlayerData</text>
</a>
</g>
</g>
<!-- Node1&#45;&gt;Node1600 -->
<g id="edge39_Node000001_Node001600" class="edge">
<title>Node1&#45;&gt;Node1600</title>
<g id="a_edge39_Node000001_Node001600"><a xlink:title=" ">
<path fill="none" stroke="#63b8ff" d="M834.06,-698.71C797.95,-652.62 702.23,-530.46 674.58,-495.17"/>
<polygon fill="#63b8ff" stroke="#63b8ff" points="831.53,-701.16 840.45,-706.87 837.04,-696.84 831.53,-701.16"/>
</a>
</g>
</g>
<!-- Node427 -->
<g id="Node000427" class="node">
<title>Node427</title>
<g id="a_Node000427"><a xlink:href="classBattleground.html#a26f90b55e0201e62ed16d173099909ee" target="_top" xlink:title=" ">
<polygon fill="white" stroke="#666666" points="737.5,-234.5 594.5,-234.5 594.5,-204.5 737.5,-204.5 737.5,-234.5"/>
<text text-anchor="start" x="602.5" y="-222.5" font-family="Helvetica,sans-Serif" font-size="10.00">Battleground::spawnSpirit</text>
<text text-anchor="middle" x="666" y="-211.5" font-family="Helvetica,sans-Serif" font-size="10.00">Guide</text>
</a>
</g>
</g>
<!-- Node1&#45;&gt;Node427 -->
<g id="edge41_Node000001_Node000427" class="edge">
<title>Node1&#45;&gt;Node427</title>
<g id="a_edge41_Node000001_Node000427"><a xlink:title=" ">
<path fill="none" stroke="#63b8ff" d="M840.94,-697.12C811.55,-616.4 699.13,-307.74 672.62,-234.94"/>
<polygon fill="#63b8ff" stroke="#63b8ff" points="837.67,-698.37 844.38,-706.57 844.25,-695.98 837.67,-698.37"/>
</a>
</g>
</g>
<!-- Node77 -->
<g id="Node000077" class="node">
<title>Node77</title>
<g id="a_Node000077"><a xlink:href="classSpell.html#a7f60954ce4622102ab559999b47f32f9" target="_top" xlink:title=" ">
<polygon fill="white" stroke="#666666" points="737,-186.5 595,-186.5 595,-156.5 737,-156.5 737,-186.5"/>
<text text-anchor="start" x="603" y="-174.5" font-family="Helvetica,sans-Serif" font-size="10.00">Spell::SpellEffectSummon</text>
<text text-anchor="middle" x="666" y="-163.5" font-family="Helvetica,sans-Serif" font-size="10.00">DeadPet</text>
</a>
</g>
</g>
<!-- Node1&#45;&gt;Node77 -->
<g id="edge52_Node000001_Node000077" class="edge">
<title>Node1&#45;&gt;Node77</title>
<g id="a_edge52_Node000001_Node000077"><a xlink:title=" ">
<path fill="none" stroke="#63b8ff" d="M846.57,-696.86C839.96,-611.34 809.72,-272.31 741,-195.5 737.94,-192.08 734.38,-189.14 730.52,-186.62"/>
<polygon fill="#63b8ff" stroke="#63b8ff" points="843.09,-697.29 847.33,-707 850.07,-696.76 843.09,-697.29"/>
</a>
</g>
</g>
<!-- Node4 -->
<g id="Node000004" class="node">
<title>Node4</title>
<g id="a_Node000004"><a xlink:href="classPet.html#a7f45de463283e5d7b8a559c7a8e5d4ac" target="_top" xlink:title=" ">
<polygon fill="white" stroke="#666666" points="313.5,-1519 188.5,-1519 188.5,-1500 313.5,-1500 313.5,-1519"/>
<text text-anchor="middle" x="251" y="-1507" font-family="Helvetica,sans-Serif" font-size="10.00">Pet::createAsSummon</text>
</a>
</g>
</g>
<!-- Node3&#45;&gt;Node4 -->
<g id="edge3_Node000003_Node000004" class="edge">
<title>Node3&#45;&gt;Node4</title>
<g id="a_edge3_Node000003_Node000004"><a xlink:title=" ">
<path fill="none" stroke="#63b8ff" d="M445.44,-1377.15C423.72,-1404.26 378.5,-1456.1 329,-1485.5 318.65,-1491.65 306.56,-1496.38 295.07,-1499.94"/>
<polygon fill="#63b8ff" stroke="#63b8ff" points="448.21,-1379.3 451.64,-1369.28 442.71,-1374.97 448.21,-1379.3"/>
</a>
</g>
</g>
<!-- Node5 -->
<g id="Node000005" class="node">
<title>Node5</title>
<g id="a_Node000005"><a xlink:href="classLuaUnit.html#a1129c900688f4f83d2d97956843c9a0c" target="_top" xlink:title=" ">
<polygon fill="white" stroke="#666666" points="137,-1351 0,-1351 0,-1332 137,-1332 137,-1351"/>
<text text-anchor="middle" x="68.5" y="-1339" font-family="Helvetica,sans-Serif" font-size="10.00">LuaUnit::CreateGuardian</text>
</a>
</g>
</g>
<!-- Node3&#45;&gt;Node5 -->
<g id="edge4_Node000003_Node000005" class="edge">
<title>Node3&#45;&gt;Node5</title>
<g id="a_edge4_Node000003_Node000005"><a xlink:title=" ">
<path fill="none" stroke="#63b8ff" d="M442.91,-1376.27C420.07,-1398.73 375.8,-1437.48 329,-1452.5 262.98,-1473.68 236.58,-1480.15 173,-1452.5 123.95,-1431.17 87.61,-1373.87 74.66,-1351.06"/>
<polygon fill="#63b8ff" stroke="#63b8ff" points="445.49,-1378.63 450.06,-1369.07 440.53,-1373.7 445.49,-1378.63"/>
</a>
</g>
</g>
<!-- Node6 -->
<g id="Node000006" class="node">
<title>Node6</title>
<g id="a_Node000006"><a xlink:href="classGuardianSummon.html#ab2d6092ed509a5c1ab97f2101812723a" target="_top" xlink:title=" ">
<polygon fill="white" stroke="#666666" points="316.5,-1443 185.5,-1443 185.5,-1424 316.5,-1424 316.5,-1443"/>
<text text-anchor="middle" x="251" y="-1431" font-family="Helvetica,sans-Serif" font-size="10.00">GuardianSummon::load</text>
</a>
</g>
</g>
<!-- Node3&#45;&gt;Node6 -->
<g id="edge5_Node000003_Node000006" class="edge">
<title>Node3&#45;&gt;Node6</title>
<g id="a_edge5_Node000003_Node000006"><a xlink:title=" ">
<path fill="none" stroke="#63b8ff" d="M430.35,-1373.59C404.38,-1385.94 364.81,-1403.71 329,-1415.5 319.35,-1418.68 308.85,-1421.52 298.79,-1423.96"/>
<polygon fill="#63b8ff" stroke="#63b8ff" points="432.1,-1376.63 439.6,-1369.15 429.07,-1370.32 432.1,-1376.63"/>
</a>
</g>
</g>
<!-- Node7 -->
<g id="Node000007" class="node">
<title>Node7</title>
<g id="a_Node000007"><a xlink:href="classCompanionSummon.html#a144c85e0b0f4cb12a1f5c3c3bec9a786" target="_top" xlink:title=" ">
<polygon fill="white" stroke="#666666" points="322.5,-1406 179.5,-1406 179.5,-1387 322.5,-1387 322.5,-1406"/>
<text text-anchor="middle" x="251" y="-1394" font-family="Helvetica,sans-Serif" font-size="10.00">CompanionSummon::load</text>
</a>
</g>
</g>
<!-- Node3&#45;&gt;Node7 -->
<g id="edge6_Node000003_Node000007" class="edge">
<title>Node3&#45;&gt;Node7</title>
<g id="a_edge6_Node000003_Node000007"><a xlink:title=" ">
<path fill="none" stroke="#63b8ff" d="M406.2,-1368.94C375.26,-1374.47 336.29,-1381.43 305.27,-1386.98"/>
<polygon fill="#63b8ff" stroke="#63b8ff" points="407.13,-1372.33 416.36,-1367.12 405.9,-1365.44 407.13,-1372.33"/>
</a>
</g>
</g>
<!-- Node8 -->
<g id="Node000008" class="node">
<title>Node8</title>
<g id="a_Node000008"><a xlink:href="classPossessedSummon.html#a7a4a70c4c781371582dc34cd147b67fd" target="_top" xlink:title=" ">
<polygon fill="white" stroke="#666666" points="320,-1369 182,-1369 182,-1350 320,-1350 320,-1369"/>
<text text-anchor="middle" x="251" y="-1357" font-family="Helvetica,sans-Serif" font-size="10.00">PossessedSummon::load</text>
</a>
</g>
</g>
<!-- Node3&#45;&gt;Node8 -->
<g id="edge7_Node000003_Node000008" class="edge">
<title>Node3&#45;&gt;Node8</title>
<g id="a_edge7_Node000003_Node000008"><a xlink:title=" ">
<path fill="none" stroke="#63b8ff" d="M406.28,-1359.5C380.13,-1359.5 348.24,-1359.5 320.25,-1359.5"/>
<polygon fill="#63b8ff" stroke="#63b8ff" points="406.36,-1363 416.36,-1359.5 406.36,-1356 406.36,-1363"/>
</a>
</g>
</g>
<!-- Node9 -->
<g id="Node000009" class="node">
<title>Node9</title>
<g id="a_Node000009"><a xlink:href="classWildSummon.html#acdde5da1c23572c9775ddb8a5bacaf0c" target="_top" xlink:title=" ">
<polygon fill="white" stroke="#666666" points="305.5,-1332 196.5,-1332 196.5,-1313 305.5,-1313 305.5,-1332"/>
<text text-anchor="middle" x="251" y="-1320" font-family="Helvetica,sans-Serif" font-size="10.00">WildSummon::load</text>
</a>
</g>
</g>
<!-- Node3&#45;&gt;Node9 -->
<g id="edge8_Node000003_Node000009" class="edge">
<title>Node3&#45;&gt;Node9</title>
<g id="a_edge8_Node000003_Node000009"><a xlink:title=" ">
<path fill="none" stroke="#63b8ff" d="M406.2,-1350.06C375.26,-1344.53 336.29,-1337.57 305.27,-1332.02"/>
<polygon fill="#63b8ff" stroke="#63b8ff" points="405.9,-1353.56 416.36,-1351.88 407.13,-1346.67 405.9,-1353.56"/>
</a>
</g>
</g>
<!-- Node10 -->
<g id="Node000010" class="node">
<title>Node10</title>
<g id="a_Node000010"><a xlink:href="classTotemSummon.html#af3ae1bff46d8d0120320b6aa1fbc3ae8" target="_top" xlink:title=" ">
<polygon fill="white" stroke="#666666" points="309.5,-1295 192.5,-1295 192.5,-1276 309.5,-1276 309.5,-1295"/>
<text text-anchor="middle" x="251" y="-1283" font-family="Helvetica,sans-Serif" font-size="10.00">TotemSummon::load</text>
</a>
</g>
</g>
<!-- Node3&#45;&gt;Node10 -->
<g id="edge9_Node000003_Node000010" class="edge">
<title>Node3&#45;&gt;Node10</title>
<g id="a_edge9_Node000003_Node000010"><a xlink:title=" ">
<path fill="none" stroke="#63b8ff" d="M406.39,-1355.2C392.35,-1352.54 377.6,-1348.29 365,-1341.5 344.8,-1330.62 348.91,-1315.91 329,-1304.5 322.19,-1300.6 314.6,-1297.49 306.9,-1295.02"/>
<polygon fill="#63b8ff" stroke="#63b8ff" points="406.01,-1358.69 416.44,-1356.87 407.15,-1351.78 406.01,-1358.69"/>
</a>
</g>
</g>
<!-- Node11 -->
<g id="Node000011" class="node">
<title>Node11</title>
<g id="a_Node000011"><a xlink:href="classPet.html#a9fc7458be663d925104770d0ebf2ac48" target="_top" xlink:title=" ">
<polygon fill="white" stroke="#666666" points="300,-1258 202,-1258 202,-1239 300,-1239 300,-1258"/>
<text text-anchor="middle" x="251" y="-1246" font-family="Helvetica,sans-Serif" font-size="10.00">Pet::loadFromDB</text>
</a>
</g>
</g>
<!-- Node3&#45;&gt;Node11 -->
<g id="edge10_Node000003_Node000011" class="edge">
<title>Node3&#45;&gt;Node11</title>
<g id="a_edge10_Node000003_Node000011"><a xlink:title=" ">
<path fill="none" stroke="#63b8ff" d="M406.36,-1358.03C391.8,-1355.45 376.79,-1350.53 365,-1341.5 335.96,-1319.26 357.44,-1290.5 329,-1267.5 320.76,-1260.83 310.5,-1256.46 300.2,-1253.6"/>
<polygon fill="#63b8ff" stroke="#63b8ff" points="405.91,-1361.5 416.31,-1359.46 406.91,-1354.57 405.91,-1361.5"/>
</a>
</g>
</g>
<!-- Node12 -->
<g id="Node000012" class="node">
<title>Node12</title>
<g id="a_Node000012"><a xlink:href="classWorldMap.html#a8fe9ec29bb06060e387d02317eb81b1d" target="_top" xlink:title=" ">
<polygon fill="#fff0f0" stroke="red" points="329,-1221 173,-1221 173,-1202 329,-1202 329,-1221"/>
<text text-anchor="middle" x="251" y="-1209" font-family="Helvetica,sans-Serif" font-size="10.00">WorldMap::summonCreature</text>
</a>
</g>
</g>
<!-- Node3&#45;&gt;Node12 -->
<g id="edge11_Node000003_Node000012" class="edge">
<title>Node3&#45;&gt;Node12</title>
<g id="a_edge11_Node000003_Node000012"><a xlink:title=" ">
<path fill="none" stroke="#63b8ff" d="M406.32,-1359.18C391.49,-1356.67 376.34,-1351.51 365,-1341.5 326.12,-1307.18 366.96,-1265.83 329,-1230.5 324.87,-1226.65 320.08,-1223.55 314.96,-1221.06"/>
<polygon fill="#63b8ff" stroke="#63b8ff" points="406.11,-1362.68 416.48,-1360.51 407.02,-1355.74 406.11,-1362.68"/>
</a>
</g>
</g>
<!-- Node12&#45;&gt;Node5 -->
<g id="edge12_Node000012_Node000005" class="edge">
<title>Node12&#45;&gt;Node5</title>
<g id="a_edge12_Node000012_Node000005"><a xlink:title=" ">
<path fill="none" stroke="#63b8ff" d="M185.18,-1224.5C180.95,-1226.25 176.84,-1228.24 173,-1230.5 127.56,-1257.19 89.95,-1309.93 75.67,-1331.72"/>
<polygon fill="#63b8ff" stroke="#63b8ff" points="186.44,-1227.76 194.62,-1221.02 184.02,-1221.19 186.44,-1227.76"/>
</a>
</g>
</g>
<!-- Node19&#45;&gt;Node3 -->
<g id="edge23_Node000019_Node000003" class="edge">
<title>Node19&#45;&gt;Node3</title>
<g id="a_edge23_Node000019_Node000003"><a xlink:title=" ">
<path fill="none" stroke="#63b8ff" d="M612.39,-868.95C604.14,-872.5 596.53,-877.49 591,-884.5 527.91,-964.48 622.94,-1265.6 555,-1341.5 542.26,-1355.74 521.99,-1360.82 503.54,-1362.09"/>
<polygon fill="#63b8ff" stroke="#63b8ff" points="613.67,-872.21 621.89,-865.53 611.3,-865.63 613.67,-872.21"/>
</a>
</g>
</g>
<!-- Node20 -->
<g id="Node000020" class="node">
<title>Node20</title>
<g id="a_Node000020"><a xlink:href="classLuaUnit.html#ad387d9e6e164d4126c4c83f68667a765" target="_top" xlink:title=" ">
<polygon fill="white" stroke="#666666" points="542,-1332 378,-1332 378,-1313 542,-1313 542,-1332"/>
<text text-anchor="middle" x="460" y="-1320" font-family="Helvetica,sans-Serif" font-size="10.00">LuaUnit::AddVehiclePassenger</text>
</a>
</g>
</g>
<!-- Node19&#45;&gt;Node20 -->
<g id="edge14_Node000019_Node000020" class="edge">
<title>Node19&#45;&gt;Node20</title>
<g id="a_edge14_Node000019_Node000020"><a xlink:title=" ">
<path fill="none" stroke="#63b8ff" d="M612.43,-868.98C604.18,-872.53 596.55,-877.51 591,-884.5 532.73,-957.85 617.72,-1234.92 555,-1304.5 551.33,-1308.57 547.04,-1311.89 542.36,-1314.59"/>
<polygon fill="#63b8ff" stroke="#63b8ff" points="613.71,-872.24 621.93,-865.57 611.34,-865.66 613.71,-872.24"/>
</a>
</g>
</g>
<!-- Node21 -->
<g id="Node000021" class="node">
<title>Node21</title>
<g id="a_Node000021"><a xlink:href="classArthasAI.html#a9fd6f70a8f02ec7705ff78165b8f7eaf" target="_top" xlink:title=" ">
<polygon fill="white" stroke="#666666" points="514.5,-1295 405.5,-1295 405.5,-1276 514.5,-1276 514.5,-1295"/>
<text text-anchor="middle" x="460" y="-1283" font-family="Helvetica,sans-Serif" font-size="10.00">ArthasAI::AIUpdate</text>
</a>
</g>
</g>
<!-- Node19&#45;&gt;Node21 -->
<g id="edge15_Node000019_Node000021" class="edge">
<title>Node19&#45;&gt;Node21</title>
<g id="a_edge15_Node000019_Node000021"><a xlink:title=" ">
<path fill="none" stroke="#63b8ff" d="M612.47,-869.02C604.22,-872.56 596.58,-877.53 591,-884.5 537.55,-951.22 612.49,-1204.24 555,-1267.5 544.72,-1278.81 529.69,-1284.32 514.65,-1286.73"/>
<polygon fill="#63b8ff" stroke="#63b8ff" points="613.75,-872.28 621.98,-865.6 611.39,-865.69 613.75,-872.28"/>
</a>
</g>
</g>
<!-- Node22 -->
<g id="Node000022" class="node">
<title>Node22</title>
<g id="a_Node000022"><a xlink:href="classTrollgoreAI.html#a67f815270e993694e571bbfa4dea63a2" target="_top" xlink:title=" ">
<polygon fill="white" stroke="#666666" points="519.5,-1258 400.5,-1258 400.5,-1239 519.5,-1239 519.5,-1258"/>
<text text-anchor="middle" x="460" y="-1246" font-family="Helvetica,sans-Serif" font-size="10.00">TrollgoreAI::AIUpdate</text>
</a>
</g>
</g>
<!-- Node19&#45;&gt;Node22 -->
<g id="edge16_Node000019_Node000022" class="edge">
<title>Node19&#45;&gt;Node22</title>
<g id="a_edge16_Node000019_Node000022"><a xlink:title=" ">
<path fill="none" stroke="#63b8ff" d="M612,-869.3C603.94,-872.82 596.5,-877.71 591,-884.5 542.37,-944.59 607.28,-1173.55 555,-1230.5 545.9,-1240.42 533.15,-1245.86 519.96,-1248.67"/>
<polygon fill="#63b8ff" stroke="#63b8ff" points="613.46,-872.49 621.65,-865.77 611.06,-865.91 613.46,-872.49"/>
</a>
</g>
</g>
<!-- Node23 -->
<g id="Node000023" class="node">
<title>Node23</title>
<g id="a_Node000023"><a xlink:href="QIspells_8cpp.html#a36a44c6bceac1a5095a2f2e3df6fc1bc" target="_top" xlink:title=" ">
<polygon fill="#fff0f0" stroke="red" points="510.5,-1221 409.5,-1221 409.5,-1202 510.5,-1202 510.5,-1221"/>
<text text-anchor="middle" x="460" y="-1209" font-family="Helvetica,sans-Serif" font-size="10.00">ArcaneDisruption</text>
</a>
</g>
</g>
<!-- Node19&#45;&gt;Node23 -->
<g id="edge17_Node000019_Node000023" class="edge">
<title>Node19&#45;&gt;Node23</title>
<g id="a_edge17_Node000019_Node000023"><a xlink:title=" ">
<path fill="none" stroke="#63b8ff" d="M612.07,-869.36C604,-872.87 596.54,-877.74 591,-884.5 503.62,-991.08 648.32,-1091.08 555,-1192.5 543.73,-1204.75 526.92,-1210.33 510.62,-1212.58"/>
<polygon fill="#63b8ff" stroke="#63b8ff" points="613.54,-872.55 621.73,-865.83 611.14,-865.97 613.54,-872.55"/>
</a>
</g>
</g>
<!-- Node27 -->
<g id="Node000027" class="node">
<title>Node27</title>
<g id="a_Node000027"><a xlink:href="classAlteracValley_1_1AVNode.html#ae048bc12954674300ff40dbaa428f3be" target="_top" xlink:title=" ">
<polygon fill="white" stroke="#666666" points="522.5,-1183.5 397.5,-1183.5 397.5,-1153.5 522.5,-1153.5 522.5,-1183.5"/>
<text text-anchor="start" x="405.5" y="-1171.5" font-family="Helvetica,sans-Serif" font-size="10.00">AlteracValley::AVNode</text>
<text text-anchor="middle" x="460" y="-1160.5" font-family="Helvetica,sans-Serif" font-size="10.00">::AVNode</text>
</a>
</g>
</g>
<!-- Node19&#45;&gt;Node27 -->
<g id="edge18_Node000019_Node000027" class="edge">
<title>Node19&#45;&gt;Node27</title>
<g id="a_edge18_Node000019_Node000027"><a xlink:title=" ">
<path fill="none" stroke="#63b8ff" d="M612.45,-869.34C604.27,-872.85 596.67,-877.73 591,-884.5 516.08,-973.92 632.73,-1057.51 555,-1144.5 546.58,-1153.92 535.03,-1159.88 522.9,-1163.6"/>
<polygon fill="#63b8ff" stroke="#63b8ff" points="613.65,-872.63 621.85,-865.93 611.26,-866.05 613.65,-872.63"/>
</a>
</g>
</g>
<!-- Node28 -->
<g id="Node000028" class="node">
<title>Node28</title>
<g id="a_Node000028"><a xlink:href="classTransporter.html#a616169425cd9e44eb29b2ed5fea5371e" target="_top" xlink:title=" ">
<polygon fill="#fff0f0" stroke="red" points="549,-1135 371,-1135 371,-1116 549,-1116 549,-1135"/>
<text text-anchor="middle" x="460" y="-1123" font-family="Helvetica,sans-Serif" font-size="10.00">Transporter::createNPCPassenger</text>
</a>
</g>
</g>
<!-- Node19&#45;&gt;Node28 -->
<g id="edge19_Node000019_Node000028" class="edge">
<title>Node19&#45;&gt;Node28</title>
<g id="a_edge19_Node000019_Node000028"><a xlink:title=" ">
<path fill="none" stroke="#63b8ff" d="M612.58,-869.45C604.39,-872.95 596.75,-877.79 591,-884.5 525.67,-960.73 624.95,-1035.48 555,-1107.5 551.87,-1110.72 548.36,-1113.46 544.58,-1115.78"/>
<polygon fill="#63b8ff" stroke="#63b8ff" points="613.77,-872.74 621.99,-866.04 611.39,-866.16 613.77,-872.74"/>
</a>
</g>
</g>
<!-- Node33 -->
<g id="Node000033" class="node">
<title>Node33</title>
<g id="a_Node000033"><a xlink:href="classGameEvent.html#ac65201f6fc15a36ff4c8b860b5f0c909" target="_top" xlink:title=" ">
<polygon fill="#fff0f0" stroke="red" points="528.5,-1098 391.5,-1098 391.5,-1079 528.5,-1079 528.5,-1098"/>
<text text-anchor="middle" x="460" y="-1086" font-family="Helvetica,sans-Serif" font-size="10.00">GameEvent::CreateNPCs</text>
</a>
</g>
</g>
<!-- Node19&#45;&gt;Node33 -->
<g id="edge20_Node000019_Node000033" class="edge">
<title>Node19&#45;&gt;Node33</title>
<g id="a_edge20_Node000019_Node000033"><a xlink:title=" ">
<path fill="none" stroke="#63b8ff" d="M612.22,-869.83C604.21,-873.3 596.73,-878.03 591,-884.5 535.47,-947.22 614.02,-1010.06 555,-1069.5 547.73,-1076.83 538.46,-1081.72 528.6,-1084.92"/>
<polygon fill="#63b8ff" stroke="#63b8ff" points="613.6,-873.05 621.79,-866.33 611.19,-866.48 613.6,-873.05"/>
</a>
</g>
</g>
<!-- Node40 -->
<g id="Node000040" class="node">
<title>Node40</title>
<g id="a_Node000040"><a xlink:href="classChatCommandHandler.html#afbaf786e937f56ceff3d4581d7dacdf1" target="_top" xlink:title=" ">
<polygon fill="#fff0f0" stroke="red" points="555,-1060.5 365,-1060.5 365,-1030.5 555,-1030.5 555,-1060.5"/>
<text text-anchor="start" x="373" y="-1048.5" font-family="Helvetica,sans-Serif" font-size="10.00">ChatCommandHandler</text>
<text text-anchor="middle" x="460" y="-1037.5" font-family="Helvetica,sans-Serif" font-size="10.00">::HandleDebugSpawnWarCommand</text>
</a>
</g>
</g>
<!-- Node19&#45;&gt;Node40 -->
<g id="edge21_Node000019_Node000040" class="edge">
<title>Node19&#45;&gt;Node40</title>
<g id="a_edge21_Node000019_Node000040"><a xlink:title=" ">
<path fill="none" stroke="#63b8ff" d="M612.3,-870.27C604.35,-873.68 596.87,-878.29 591,-884.5 547.76,-930.26 599.67,-977.14 555,-1021.5 551.53,-1024.94 547.65,-1027.91 543.48,-1030.47"/>
<polygon fill="#63b8ff" stroke="#63b8ff" points="613.59,-873.52 621.77,-866.78 611.17,-866.95 613.59,-873.52"/>
</a>
</g>
</g>
<!-- Node42 -->
<g id="Node000042" class="node">
<title>Node42</title>
<g id="a_Node000042"><a xlink:href="classWorldMap.html#ab385bc06a01ed8312bbeff18c14cd966" target="_top" xlink:title=" ">
<polygon fill="white" stroke="#666666" points="516.5,-1012 403.5,-1012 403.5,-993 516.5,-993 516.5,-1012"/>
<text text-anchor="middle" x="460" y="-1000" font-family="Helvetica,sans-Serif" font-size="10.00">WorldMap::initialize</text>
</a>
</g>
</g>
<!-- Node19&#45;&gt;Node42 -->
<g id="edge22_Node000019_Node000042" class="edge">
<title>Node19&#45;&gt;Node42</title>
<g id="a_edge22_Node000019_Node000042"><a xlink:title=" ">
<path fill="none" stroke="#63b8ff" d="M612.23,-870.95C604.42,-874.28 597,-878.69 591,-884.5 557.07,-917.36 590.91,-953.81 555,-984.5 544.39,-993.57 530.62,-998.62 516.91,-1001.32"/>
<polygon fill="#63b8ff" stroke="#63b8ff" points="613.7,-874.13 621.87,-867.38 611.27,-867.57 613.7,-874.13"/>
</a>
</g>
</g>
<!-- Node43 -->
<g id="Node000043" class="node">
<title>Node43</title>
<g id="a_Node000043"><a xlink:href="classMapCell.html#a666c99e42ae31d1e186e22b6ee0b9e5d" target="_top" xlink:title=" ">
<polygon fill="#fff0f0" stroke="red" points="520,-975 400,-975 400,-956 520,-956 520,-975"/>
<text text-anchor="middle" x="460" y="-963" font-family="Helvetica,sans-Serif" font-size="10.00">MapCell::loadObjects</text>
</a>
</g>
</g>
<!-- Node19&#45;&gt;Node43 -->
<g id="edge24_Node000019_Node000043" class="edge">
<title>Node19&#45;&gt;Node43</title>
<g id="a_edge24_Node000019_Node000043"><a xlink:title=" ">
<path fill="none" stroke="#63b8ff" d="M612.02,-872.36C604.49,-875.51 597.21,-879.49 591,-884.5 566.21,-904.52 580.89,-927.93 555,-946.5 544.85,-953.78 532.58,-958.42 520.3,-961.35"/>
<polygon fill="#63b8ff" stroke="#63b8ff" points="613.47,-875.55 621.63,-868.79 611.03,-868.99 613.47,-875.55"/>
</a>
</g>
</g>
<!-- Node248 -->
<g id="Node000248" class="node">
<title>Node248</title>
<g id="a_Node000248"><a xlink:href="classLuaGlobalFunctions.html#ad741d003496f00c672f664be9066a947" target="_top" xlink:title=" ">
<polygon fill="#fff0f0" stroke="red" points="525.5,-937.5 394.5,-937.5 394.5,-907.5 525.5,-907.5 525.5,-937.5"/>
<text text-anchor="start" x="402.5" y="-925.5" font-family="Helvetica,sans-Serif" font-size="10.00">LuaGlobalFunctions</text>
<text text-anchor="middle" x="460" y="-914.5" font-family="Helvetica,sans-Serif" font-size="10.00">::PerformIngameSpawn</text>
</a>
</g>
</g>
<!-- Node19&#45;&gt;Node248 -->
<g id="edge25_Node000019_Node000248" class="edge">
<title>Node19&#45;&gt;Node248</title>
<g id="a_edge25_Node000019_Node000248"><a xlink:title=" ">
<path fill="none" stroke="#63b8ff" d="M624.53,-873.16C613.6,-876.71 601.81,-880.65 591,-884.5 574.83,-890.26 571.35,-893.26 555,-898.5 545.14,-901.66 534.59,-904.69 524.25,-907.47"/>
<polygon fill="#63b8ff" stroke="#63b8ff" points="625.81,-876.43 634.26,-870.03 623.67,-869.76 625.81,-876.43"/>
</a>
</g>
</g>
<!-- Node339 -->
<g id="Node000339" class="node">
<title>Node339</title>
<g id="a_Node000339"><a xlink:href="classLuaUnit.html#a10f5c3ec54c099c8fa8e22442830f43b" target="_top" xlink:title=" ">
<polygon fill="white" stroke="#666666" points="546,-889 374,-889 374,-870 546,-870 546,-889"/>
<text text-anchor="middle" x="460" y="-877" font-family="Helvetica,sans-Serif" font-size="10.00">LuaUnit::SpawnAndEnterVehicle</text>
</a>
</g>
</g>
<!-- Node19&#45;&gt;Node339 -->
<g id="edge26_Node000019_Node000339" class="edge">
<title>Node19&#45;&gt;Node339</title>
<g id="a_edge26_Node000019_Node000339"><a xlink:title=" ">
<path fill="none" stroke="#63b8ff" d="M611.6,-865.47C591.61,-867.33 568.38,-869.5 546.22,-871.56"/>
<polygon fill="#63b8ff" stroke="#63b8ff" points="612.1,-868.94 621.74,-864.53 611.46,-861.97 612.1,-868.94"/>
</a>
</g>
</g>
<!-- Node340 -->
<g id="Node000340" class="node">
<title>Node340</title>
<g id="a_Node000340"><a xlink:href="classLuaGameObject.html#a1568b87f48e8ef83917f3f44da79dd8d" target="_top" xlink:title=" ">
<polygon fill="white" stroke="#666666" points="547.5,-852 372.5,-852 372.5,-833 547.5,-833 547.5,-852"/>
<text text-anchor="middle" x="460" y="-840" font-family="Helvetica,sans-Serif" font-size="10.00">LuaGameObject::SpawnCreature</text>
</a>
</g>
</g>
<!-- Node19&#45;&gt;Node340 -->
<g id="edge27_Node000019_Node000340" class="edge">
<title>Node19&#45;&gt;Node340</title>
<g id="a_edge27_Node000019_Node000340"><a xlink:title=" ">
<path fill="none" stroke="#63b8ff" d="M611.56,-855.78C592.08,-854.07 569.52,-852.08 547.88,-850.17"/>
<polygon fill="#63b8ff" stroke="#63b8ff" points="611.47,-859.29 621.74,-856.68 612.08,-852.32 611.47,-859.29"/>
</a>
</g>
</g>
<!-- Node1085 -->
<g id="Node001085" class="node">
<title>Node1085</title>
<g id="a_Node001085"><a xlink:href="classLuaUnit.html#a787902755e77d52bb61b8be12a7cc00a" target="_top" xlink:title=" ">
<polygon fill="white" stroke="#666666" points="527,-815 393,-815 393,-796 527,-796 527,-815"/>
<text text-anchor="middle" x="460" y="-803" font-family="Helvetica,sans-Serif" font-size="10.00">LuaUnit::SpawnCreature</text>
</a>
</g>
</g>
<!-- Node19&#45;&gt;Node1085 -->
<g id="edge28_Node000019_Node001085" class="edge">
<title>Node19&#45;&gt;Node1085</title>
<g id="a_edge28_Node000019_Node001085"><a xlink:title=" ">
<path fill="none" stroke="#63b8ff" d="M628.97,-847.53C607.64,-840.15 579.99,-831.09 555,-824.5 541.8,-821.02 527.41,-817.82 513.95,-815.08"/>
<polygon fill="#63b8ff" stroke="#63b8ff" points="627.99,-850.89 638.59,-850.89 630.3,-844.29 627.99,-850.89"/>
</a>
</g>
</g>
<!-- Node341 -->
<g id="Node000341" class="node">
<title>Node341</title>
<g id="a_Node000341"><a xlink:href="classMapScriptInterface.html#a2861e86af8428e02895510bc32a58a9e" target="_top" xlink:title=" ">
<polygon fill="white" stroke="#666666" points="514.5,-777.5 405.5,-777.5 405.5,-747.5 514.5,-747.5 514.5,-777.5"/>
<text text-anchor="start" x="413.5" y="-765.5" font-family="Helvetica,sans-Serif" font-size="10.00">MapScriptInterface</text>
<text text-anchor="middle" x="460" y="-754.5" font-family="Helvetica,sans-Serif" font-size="10.00">::spawnCreature</text>
</a>
</g>
</g>
<!-- Node19&#45;&gt;Node341 -->
<g id="edge29_Node000019_Node000341" class="edge">
<title>Node19&#45;&gt;Node341</title>
<g id="a_edge29_Node000019_Node000341"><a xlink:title=" ">
<path fill="none" stroke="#63b8ff" d="M645.33,-844.55C624.17,-828.11 588.98,-802.8 555,-787.5 542.37,-781.82 528.19,-777.21 514.74,-773.57"/>
<polygon fill="#63b8ff" stroke="#63b8ff" points="643.21,-847.34 653.23,-850.79 647.55,-841.84 643.21,-847.34"/>
</a>
</g>
</g>
<!-- Node342 -->
<g id="Node000342" class="node">
<title>Node342</title>
<g id="a_Node000342"><a xlink:href="classMapScriptInterface.html#a8916e528d57c8c8207e2b961d861cdb0" target="_top" xlink:title=" ">
<polygon fill="#fff0f0" stroke="red" points="514.5,-729.5 405.5,-729.5 405.5,-699.5 514.5,-699.5 514.5,-729.5"/>
<text text-anchor="start" x="413.5" y="-717.5" font-family="Helvetica,sans-Serif" font-size="10.00">MapScriptInterface</text>
<text text-anchor="middle" x="460" y="-706.5" font-family="Helvetica,sans-Serif" font-size="10.00">::spawnCreature</text>
</a>
</g>
</g>
<!-- Node19&#45;&gt;Node342 -->
<g id="edge30_Node000019_Node000342" class="edge">
<title>Node19&#45;&gt;Node342</title>
<g id="a_edge30_Node000019_Node000342"><a xlink:title=" ">
<path fill="none" stroke="#63b8ff" d="M653.76,-842.36C636.11,-815.45 599.32,-765.28 555,-738.5 542.89,-731.18 528.61,-726.08 514.88,-722.54"/>
<polygon fill="#63b8ff" stroke="#63b8ff" points="650.84,-844.29 659.18,-850.83 656.73,-840.52 650.84,-844.29"/>
</a>
</g>
</g>
<!-- Node423 -->
<g id="Node000423" class="node">
<title>Node423</title>
<g id="a_Node000423"><a xlink:href="classQuest__JourneytoUndercity.html#aff5d1a5577af8b6096c8d1a97c164334" target="_top" xlink:title=" ">
<polygon fill="#fff0f0" stroke="red" points="536,-681.5 384,-681.5 384,-651.5 536,-651.5 536,-681.5"/>
<text text-anchor="start" x="392" y="-669.5" font-family="Helvetica,sans-Serif" font-size="10.00">Quest_JourneytoUndercity</text>
<text text-anchor="middle" x="460" y="-658.5" font-family="Helvetica,sans-Serif" font-size="10.00">::SpawnHighborneLamenter</text>
</a>
</g>
</g>
<!-- Node19&#45;&gt;Node423 -->
<g id="edge31_Node000019_Node000423" class="edge">
<title>Node19&#45;&gt;Node423</title>
<g id="a_edge31_Node000019_Node000423"><a xlink:title=" ">
<path fill="none" stroke="#63b8ff" d="M654.05,-841.96C629.16,-800.04 569.37,-700.83 555,-690.5 549.26,-686.37 542.87,-682.95 536.2,-680.12"/>
<polygon fill="#63b8ff" stroke="#63b8ff" points="651.09,-843.82 659.2,-850.64 657.11,-840.25 651.09,-843.82"/>
</a>
</g>
</g>
<!-- Node425 -->
<g id="Node000425" class="node">
<title>Node425</title>
<g id="a_Node000425"><a xlink:href="classNovosTheSummonerAI.html#a48ef6818ca329ee3bca917fbe9733bd2" target="_top" xlink:title=" ">
<polygon fill="#fff0f0" stroke="red" points="524,-633.5 396,-633.5 396,-603.5 524,-603.5 524,-633.5"/>
<text text-anchor="start" x="404" y="-621.5" font-family="Helvetica,sans-Serif" font-size="10.00">NovosTheSummonerAI</text>
<text text-anchor="middle" x="460" y="-610.5" font-family="Helvetica,sans-Serif" font-size="10.00">::SpawnInvader</text>
</a>
</g>
</g>
<!-- Node19&#45;&gt;Node425 -->
<g id="edge32_Node000019_Node000425" class="edge">
<title>Node19&#45;&gt;Node425</title>
<g id="a_edge32_Node000019_Node000425"><a xlink:title=" ">
<path fill="none" stroke="#63b8ff" d="M652.96,-842.36C637.44,-818.49 610.15,-774.96 591,-735.5 571.64,-695.63 588.15,-671.92 555,-642.5 546.31,-634.79 535.47,-629.49 524.28,-625.86"/>
<polygon fill="#63b8ff" stroke="#63b8ff" points="650.07,-844.32 658.48,-850.76 655.92,-840.48 650.07,-844.32"/>
</a>
</g>
</g>
<!-- Node431 -->
<g id="Node000431" class="node">
<title>Node431</title>
<g id="a_Node000431"><a xlink:href="classSpell.html#aace966b0cccc31157e271f14a6aaa812" target="_top" xlink:title=" ">
<polygon fill="#fff0f0" stroke="red" points="531,-585.5 389,-585.5 389,-555.5 531,-555.5 531,-585.5"/>
<text text-anchor="start" x="397" y="-573.5" font-family="Helvetica,sans-Serif" font-size="10.00">Spell::SpellEffectSummon</text>
<text text-anchor="middle" x="460" y="-562.5" font-family="Helvetica,sans-Serif" font-size="10.00">Vehicle</text>
</a>
</g>
</g>
<!-- Node19&#45;&gt;Node431 -->
<g id="edge33_Node000019_Node000431" class="edge">
<title>Node19&#45;&gt;Node431</title>
<g id="a_edge33_Node000019_Node000431"><a xlink:title=" ">
<path fill="none" stroke="#63b8ff" d="M652.23,-842.69C635.9,-819.18 607.77,-776.03 591,-735.5 566.28,-675.74 600.73,-640.23 555,-594.5 548.33,-587.83 540.08,-582.93 531.26,-579.34"/>
<polygon fill="#63b8ff" stroke="#63b8ff" points="649.43,-844.79 658.05,-850.96 655.15,-840.77 649.43,-844.79"/>
</a>
</g>
</g>
<!-- Node432 -->
<g id="Node000432" class="node">
<title>Node432</title>
<g id="a_Node000432"><a xlink:href="WarlockSpells_8cpp.html#a5365846bd8ff8809e5b433fbf332cd2d" target="_top" xlink:title=" ">
<polygon fill="#fff0f0" stroke="red" points="528,-537 392,-537 392,-518 528,-518 528,-537"/>
<text text-anchor="middle" x="460" y="-525" font-family="Helvetica,sans-Serif" font-size="10.00">SummonFelHunterQuest</text>
</a>
</g>
</g>
<!-- Node19&#45;&gt;Node432 -->
<g id="edge34_Node000019_Node000432" class="edge">
<title>Node19&#45;&gt;Node432</title>
<g id="a_edge34_Node000019_Node000432"><a xlink:title=" ">
<path fill="none" stroke="#63b8ff" d="M651.58,-842.48C634.81,-819.06 606.43,-776.32 591,-735.5 560.77,-655.51 615.12,-607.3 555,-546.5 547.62,-539.04 538.19,-534.1 528.15,-530.9"/>
<polygon fill="#63b8ff" stroke="#63b8ff" points="648.88,-844.71 657.59,-850.74 654.54,-840.59 648.88,-844.71"/>
</a>
</g>
</g>
<!-- Node435 -->
<g id="Node000435" class="node">
<title>Node435</title>
<g id="a_Node000435"><a xlink:href="WarlockSpells_8cpp.html#ab41c99db6474da556334bf9dda513347" target="_top" xlink:title=" ">
<polygon fill="#fff0f0" stroke="red" points="527,-500 393,-500 393,-481 527,-481 527,-500"/>
<text text-anchor="middle" x="460" y="-488" font-family="Helvetica,sans-Serif" font-size="10.00">SummonSuccubusQuest</text>
</a>
</g>
</g>
<!-- Node19&#45;&gt;Node435 -->
<g id="edge35_Node000019_Node000435" class="edge">
<title>Node19&#45;&gt;Node435</title>
<g id="a_edge35_Node000019_Node000435"><a xlink:title=" ">
<path fill="none" stroke="#63b8ff" d="M651.39,-842.56C634.41,-819.21 605.81,-776.55 591,-735.5 556.48,-639.83 625.41,-582.9 555,-509.5 547.51,-501.69 537.76,-496.62 527.39,-493.41"/>
<polygon fill="#63b8ff" stroke="#63b8ff" points="648.71,-844.83 657.47,-850.78 654.34,-840.66 648.71,-844.83"/>
</a>
</g>
</g>
<!-- Node436 -->
<g id="Node000436" class="node">
<title>Node436</title>
<g id="a_Node000436"><a xlink:href="WarlockSpells_8cpp.html#adf6a22740dbd26116481ed2f93319cb1" target="_top" xlink:title=" ">
<polygon fill="#fff0f0" stroke="red" points="531.5,-463 388.5,-463 388.5,-444 531.5,-444 531.5,-463"/>
<text text-anchor="middle" x="460" y="-451" font-family="Helvetica,sans-Serif" font-size="10.00">SummonVoidWalkerQuest</text>
</a>
</g>
</g>
<!-- Node19&#45;&gt;Node436 -->
<g id="edge36_Node000019_Node000436" class="edge">
<title>Node19&#45;&gt;Node436</title>
<g id="a_edge36_Node000019_Node000436"><a xlink:title=" ">
<path fill="none" stroke="#63b8ff" d="M651.24,-842.61C634.11,-819.32 605.36,-776.71 591,-735.5 571.59,-679.8 595.37,-515.51 555,-472.5 548.62,-465.7 540.53,-460.97 531.79,-457.72"/>
<polygon fill="#63b8ff" stroke="#63b8ff" points="648.59,-844.91 657.39,-850.81 654.2,-840.71 648.59,-844.91"/>
</a>
</g>
</g>
<!-- Node1597 -->
<g id="Node001597" class="node">
<title>Node1597</title>
<g id="a_Node001597"><a xlink:href="classCreature.html#aa92e465c59b1eb4221672523f4cb6c3f" target="_top" xlink:title=" ">
<polygon fill="#fff0f0" stroke="red" points="522,-426 398,-426 398,-407 522,-407 522,-426"/>
<text text-anchor="middle" x="460" y="-414" font-family="Helvetica,sans-Serif" font-size="10.00">Creature::updateEntry</text>
</a>
</g>
</g>
<!-- Node19&#45;&gt;Node1597 -->
<g id="edge37_Node000019_Node001597" class="edge">
<title>Node19&#45;&gt;Node1597</title>
<g id="a_edge37_Node000019_Node001597"><a xlink:title=" ">
<path fill="none" stroke="#63b8ff" d="M651.14,-842.64C633.89,-819.39 605.02,-776.82 591,-735.5 569.43,-671.91 600.54,-484.84 555,-435.5 546.42,-426.2 534.65,-420.75 522.34,-417.68"/>
<polygon fill="#63b8ff" stroke="#63b8ff" points="648.5,-844.97 657.33,-850.83 654.09,-840.75 648.5,-844.97"/>
</a>
</g>
</g>
<!-- Node61 -->
<g id="Node000061" class="node">
<title>Node61</title>
<g id="a_Node000061"><a xlink:href="classPlayer.html#aef9657cfd03752640597085cef9a301c" target="_top" xlink:title=" ">
<polygon fill="#fff0f0" stroke="red" points="527,-389 393,-389 393,-370 527,-370 527,-389"/>
<text text-anchor="middle" x="460" y="-377" font-family="Helvetica,sans-Serif" font-size="10.00">Player::loadFromDBProc</text>
</a>
</g>
</g>
<!-- Node1600&#45;&gt;Node61 -->
<g id="edge40_Node001600_Node000061" class="edge">
<title>Node1600&#45;&gt;Node61</title>
<g id="a_edge40_Node001600_Node000061"><a xlink:title=" ">
<path fill="none" stroke="#63b8ff" d="M648.95,-468.67C628.9,-448.71 592.63,-415.96 555,-398.5 546.39,-394.51 536.96,-391.35 527.49,-388.85"/>
<polygon fill="#63b8ff" stroke="#63b8ff" points="646.53,-471.21 656.04,-475.88 651.52,-466.3 646.53,-471.21"/>
</a>
</g>
</g>
<!-- Node281 -->
<g id="Node000281" class="node">
<title>Node281</title>
<g id="a_Node000281"><a xlink:href="classArathiBasin.html#a4f396a77b5b42519aab9d9a9e2947a2e" target="_top" xlink:title=" ">
<polygon fill="#fff0f0" stroke="red" points="536,-351.5 384,-351.5 384,-321.5 536,-321.5 536,-351.5"/>
<text text-anchor="start" x="392" y="-339.5" font-family="Helvetica,sans-Serif" font-size="10.00">ArathiBasin::CaptureControl</text>
<text text-anchor="middle" x="460" y="-328.5" font-family="Helvetica,sans-Serif" font-size="10.00">Point</text>
</a>
</g>
</g>
<!-- Node427&#45;&gt;Node281 -->
<g id="edge42_Node000427_Node000281" class="edge">
<title>Node427&#45;&gt;Node281</title>
<g id="a_edge42_Node000427_Node000281"><a xlink:title=" ">
<path fill="none" stroke="#63b8ff" d="M644.28,-242.14C623.64,-263.36 590.04,-294.44 555,-312.5 548.41,-315.9 541.31,-318.83 534.07,-321.37"/>
<polygon fill="#63b8ff" stroke="#63b8ff" points="646.9,-244.46 651.28,-234.81 641.84,-239.62 646.9,-244.46"/>
</a>
</g>
</g>
<!-- Node266 -->
<g id="Node000266" class="node">
<title>Node266</title>
<g id="a_Node000266"><a xlink:href="classAlteracValley.html#abfc3481076e2bedb5542561826adf0ef" target="_top" xlink:title=" ">
<polygon fill="white" stroke="#666666" points="526,-303 394,-303 394,-284 526,-284 526,-303"/>
<text text-anchor="middle" x="460" y="-291" font-family="Helvetica,sans-Serif" font-size="10.00">AlteracValley::OnCreate</text>
</a>
</g>
</g>
<!-- Node427&#45;&gt;Node266 -->
<g id="edge43_Node000427_Node000266" class="edge">
<title>Node427&#45;&gt;Node266</title>
<g id="a_edge43_Node000427_Node000266"><a xlink:title=" ">
<path fill="none" stroke="#63b8ff" d="M631.19,-239.86C609.97,-251.83 581.67,-266.36 555,-275.5 545.18,-278.87 534.55,-281.66 524.09,-283.96"/>
<polygon fill="#63b8ff" stroke="#63b8ff" points="633.18,-242.75 640.11,-234.74 629.7,-236.68 633.18,-242.75"/>
</a>
</g>
</g>
<!-- Node267 -->
<g id="Node000267" class="node">
<title>Node267</title>
<g id="a_Node000267"><a xlink:href="classArathiBasin.html#a3617848e5bff949f17de4f8335910db0" target="_top" xlink:title=" ">
<polygon fill="white" stroke="#666666" points="522.5,-266 397.5,-266 397.5,-247 522.5,-247 522.5,-266"/>
<text text-anchor="middle" x="460" y="-254" font-family="Helvetica,sans-Serif" font-size="10.00">ArathiBasin::OnCreate</text>
</a>
</g>
</g>
<!-- Node427&#45;&gt;Node267 -->
<g id="edge44_Node000427_Node000267" class="edge">
<title>Node427&#45;&gt;Node267</title>
<g id="a_edge44_Node000427_Node000267"><a xlink:title=" ">
<path fill="none" stroke="#63b8ff" d="M584.17,-234.16C560.44,-238.46 535.11,-243.06 513.64,-246.95"/>
<polygon fill="#63b8ff" stroke="#63b8ff" points="585.01,-237.57 594.22,-232.34 583.76,-230.68 585.01,-237.57"/>
</a>
</g>
</g>
<!-- Node273 -->
<g id="Node000273" class="node">
<title>Node273</title>
<g id="a_Node000273"><a xlink:href="classWarsongGulch.html#a6e98447d91d68b0b03b755c6f12c8604" target="_top" xlink:title=" ">
<polygon fill="white" stroke="#666666" points="529,-229 391,-229 391,-210 529,-210 529,-229"/>
<text text-anchor="middle" x="460" y="-217" font-family="Helvetica,sans-Serif" font-size="10.00">WarsongGulch::OnCreate</text>
</a>
</g>
</g>
<!-- Node427&#45;&gt;Node273 -->
<g id="edge45_Node000427_Node000273" class="edge">
<title>Node427&#45;&gt;Node273</title>
<g id="a_edge45_Node000427_Node000273"><a xlink:title=" ">
<path fill="none" stroke="#63b8ff" d="M583.97,-219.5C565.84,-219.5 546.79,-219.5 529.24,-219.5"/>
<polygon fill="#63b8ff" stroke="#63b8ff" points="584.22,-223 594.22,-219.5 584.22,-216 584.22,-223"/>
</a>
</g>
</g>
<!-- Node111 -->
<g id="Node000111" class="node">
<title>Node111</title>
<g id="a_Node000111"><a xlink:href="classEyeOfTheStorm.html#aa9321e6451030bb3eb082bad19fd3539" target="_top" xlink:title=" ">
<polygon fill="white" stroke="#666666" points="319,-105 183,-105 183,-86 319,-86 319,-105"/>
<text text-anchor="middle" x="251" y="-93" font-family="Helvetica,sans-Serif" font-size="10.00">EyeOfTheStorm::OnStart</text>
</a>
</g>
</g>
<!-- Node427&#45;&gt;Node111 -->
<g id="edge46_Node000427_Node000111" class="edge">
<title>Node427&#45;&gt;Node111</title>
<g id="a_edge46_Node000427_Node000111"><a xlink:title=" ">
<path fill="none" stroke="#63b8ff" d="M584.11,-205.62C502.37,-191.35 385.3,-170.18 365,-162.5 325.96,-147.74 284.99,-119.84 264.8,-105.14"/>
<polygon fill="#63b8ff" stroke="#63b8ff" points="583.94,-209.14 594.39,-207.41 585.14,-202.25 583.94,-209.14"/>
</a>
</g>
</g>
<!-- Node428 -->
<g id="Node000428" class="node">
<title>Node428</title>
<g id="a_Node000428"><a xlink:href="classStrandOfTheAncient.html#acee1afc0266ef329906a25edb59b8d21" target="_top" xlink:title=" ">
<polygon fill="#fff0f0" stroke="red" points="517,-153.5 403,-153.5 403,-123.5 517,-123.5 517,-153.5"/>
<text text-anchor="start" x="411" y="-141.5" font-family="Helvetica,sans-Serif" font-size="10.00">StrandOfTheAncient</text>
<text text-anchor="middle" x="460" y="-130.5" font-family="Helvetica,sans-Serif" font-size="10.00">::SpawnGraveyard</text>
</a>
</g>
</g>
<!-- Node427&#45;&gt;Node428 -->
<g id="edge47_Node000427_Node000428" class="edge">
<title>Node427&#45;&gt;Node428</title>
<g id="a_edge47_Node000427_Node000428"><a xlink:title=" ">
<path fill="none" stroke="#63b8ff" d="M601.79,-200.68C598.08,-199.06 594.46,-197.33 591,-195.5 573.09,-186.01 572.98,-176.86 555,-167.5 543.19,-161.35 529.84,-156.25 517,-152.14"/>
<polygon fill="#63b8ff" stroke="#63b8ff" points="600.55,-203.95 611.13,-204.48 603.19,-197.47 600.55,-203.95"/>
</a>
</g>
</g>
<!-- Node429 -->
<g id="Node000429" class="node">
<title>Node429</title>
<g id="a_Node000429"><a xlink:href="classIsleOfConquest.html#a89cc93961b40bfd888fa904fd7686eae" target="_top" xlink:title=" ">
<polygon fill="#fff0f0" stroke="red" points="550,-105 370,-105 370,-86 550,-86 550,-105"/>
<text text-anchor="middle" x="460" y="-93" font-family="Helvetica,sans-Serif" font-size="10.00">IsleOfConquest::SpawnGraveyard</text>
</a>
</g>
</g>
<!-- Node427&#45;&gt;Node429 -->
<g id="edge48_Node000427_Node000429" class="edge">
<title>Node427&#45;&gt;Node429</title>
<g id="a_edge48_Node000427_Node000429"><a xlink:title=" ">
<path fill="none" stroke="#63b8ff" d="M595.1,-198.87C593.68,-197.8 592.31,-196.68 591,-195.5 561.73,-169.14 585.73,-139.15 555,-114.5 550.32,-110.75 545.1,-107.68 539.59,-105.17"/>
<polygon fill="#63b8ff" stroke="#63b8ff" points="593.4,-201.94 603.7,-204.4 597.18,-196.05 593.4,-201.94"/>
</a>
</g>
</g>
<!-- Node430 -->
<g id="Node000430" class="node">
<title>Node430</title>
<g id="a_Node000430"><a xlink:href="classBattleground.html#a51abb6a405603f745fc3bd214b84d8dc" target="_top" xlink:title=" ">
<polygon fill="white" stroke="#666666" points="531.5,-67.5 388.5,-67.5 388.5,-37.5 531.5,-37.5 531.5,-67.5"/>
<text text-anchor="start" x="396.5" y="-55.5" font-family="Helvetica,sans-Serif" font-size="10.00">Battleground::spawnSpirit</text>
<text text-anchor="middle" x="460" y="-44.5" font-family="Helvetica,sans-Serif" font-size="10.00">Guide</text>
</a>
</g>
</g>
<!-- Node427&#45;&gt;Node430 -->
<g id="edge49_Node000427_Node000430" class="edge">
<title>Node427&#45;&gt;Node430</title>
<g id="a_edge49_Node000427_Node000430"><a xlink:title=" ">
<path fill="none" stroke="#63b8ff" d="M594.34,-198.61C593.18,-197.62 592.06,-196.58 591,-195.5 552.57,-156.39 594.47,-115.56 555,-77.5 548.44,-71.17 540.46,-66.4 531.96,-62.81"/>
<polygon fill="#63b8ff" stroke="#63b8ff" points="592.36,-201.5 602.53,-204.47 596.44,-195.81 592.36,-201.5"/>
</a>
</g>
</g>
<!-- Node110 -->
<g id="Node000110" class="node">
<title>Node110</title>
<g id="a_Node000110"><a xlink:href="classEyeOfTheStorm.html#a09b91c1ef8a70151511b966458e8a2ca" target="_top" xlink:title=" ">
<polygon fill="white" stroke="#666666" points="536,-19 384,-19 384,0 536,0 536,-19"/>
<text text-anchor="middle" x="460" y="-7" font-family="Helvetica,sans-Serif" font-size="10.00">EyeOfTheStorm::UpdateCPs</text>
</a>
</g>
</g>
<!-- Node427&#45;&gt;Node110 -->
<g id="edge50_Node000427_Node000110" class="edge">
<title>Node427&#45;&gt;Node110</title>
<g id="a_edge50_Node000427_Node000110"><a xlink:title=" ">
<path fill="none" stroke="#63b8ff" d="M593.4,-197.97C592.57,-197.17 591.77,-196.35 591,-195.5 540.1,-139.16 609.03,-81.84 555,-28.5 549.67,-23.24 543.31,-19.24 536.44,-16.22"/>
<polygon fill="#63b8ff" stroke="#63b8ff" points="591.49,-200.92 601.51,-204.34 595.81,-195.41 591.49,-200.92"/>
</a>
</g>
</g>
<!-- Node110&#45;&gt;Node111 -->
<g id="edge51_Node000110_Node000111" class="edge">
<title>Node110&#45;&gt;Node111</title>
<g id="a_edge51_Node000110_Node000111"><a xlink:title=" ">
<path fill="none" stroke="#63b8ff" d="M386.87,-21.48C379.38,-23.49 371.97,-25.82 365,-28.5 326.05,-43.49 285.04,-71.29 264.82,-85.92"/>
<polygon fill="#63b8ff" stroke="#63b8ff" points="387.87,-24.84 396.72,-19.02 386.17,-18.05 387.87,-24.84"/>
</a>
</g>
</g>
</g>
</svg>
