<?xml version="1.0" encoding="UTF-8" standalone="no"?>
<!DOCTYPE svg PUBLIC "-//W3C//DTD SVG 1.1//EN"
 "http://www.w3.org/Graphics/SVG/1.1/DTD/svg11.dtd">
<!-- Generated by graphviz version 2.43.0 (0)
 -->
<!-- Title: G3D::Ray::intersectionTime Pages: 1 -->
<svg width="585pt" height="398pt"
 viewBox="0.00 0.00 585.00 397.50" xmlns="http://www.w3.org/2000/svg" xmlns:xlink="http://www.w3.org/1999/xlink">
<g id="graph0" class="graph" transform="scale(1 1) rotate(0) translate(4 393.5)">
<title>G3D::Ray::intersectionTime</title>
<!-- Node1 -->
<g id="Node000001" class="node">
<title>Node1</title>
<g id="a_Node000001"><a xlink:title=" ">
<polygon fill="#999999" stroke="#666666" points="577,-197.5 427,-197.5 427,-178.5 577,-178.5 577,-197.5"/>
<text text-anchor="middle" x="502" y="-185.5" font-family="Helvetica,sans-Serif" font-size="10.00">G3D::Ray::intersectionTime</text>
</a>
</g>
</g>
<!-- Node2 -->
<g id="Node000002" class="node">
<title>Node2</title>
<g id="a_Node000002"><a xlink:href="classG3D_1_1CollisionDetection.html#a5cc87d7c2b70c0677446eb1cc22a64a2" target="_top" xlink:title=" ">
<polygon fill="white" stroke="#666666" points="385.5,-330.5 221.5,-330.5 221.5,-289.5 385.5,-289.5 385.5,-330.5"/>
<text text-anchor="start" x="229.5" y="-318.5" font-family="Helvetica,sans-Serif" font-size="10.00">G3D::CollisionDetection</text>
<text text-anchor="start" x="229.5" y="-307.5" font-family="Helvetica,sans-Serif" font-size="10.00">::collisionTimeForMovingPoint</text>
<text text-anchor="middle" x="303.5" y="-296.5" font-family="Helvetica,sans-Serif" font-size="10.00">FixedTriangle</text>
</a>
</g>
</g>
<!-- Node1&#45;&gt;Node2 -->
<g id="edge1_Node000001_Node000002" class="edge">
<title>Node1&#45;&gt;Node2</title>
<g id="a_edge1_Node000001_Node000002"><a xlink:title=" ">
<path fill="none" stroke="#63b8ff" d="M485.09,-204.92C464.94,-225.47 428.32,-259.99 391,-281 385.62,-284.03 379.87,-286.81 373.99,-289.35"/>
<polygon fill="#63b8ff" stroke="#63b8ff" points="487.79,-207.16 492.21,-197.54 482.75,-202.3 487.79,-207.16"/>
</a>
</g>
</g>
<!-- Node6 -->
<g id="Node000006" class="node">
<title>Node6</title>
<g id="a_Node000006"><a xlink:href="classG3D_1_1Ray.html#a29c546bdbf52c8eea7a95a1f2591f46c" target="_top" xlink:title=" ">
<polygon fill="white" stroke="#666666" points="378.5,-271.5 228.5,-271.5 228.5,-252.5 378.5,-252.5 378.5,-271.5"/>
<text text-anchor="middle" x="303.5" y="-259.5" font-family="Helvetica,sans-Serif" font-size="10.00">G3D::Ray::intersectionTime</text>
</a>
</g>
</g>
<!-- Node1&#45;&gt;Node6 -->
<g id="edge5_Node000001_Node000006" class="edge">
<title>Node1&#45;&gt;Node6</title>
<g id="a_edge5_Node000001_Node000006"><a xlink:title=" ">
<path fill="none" stroke="#63b8ff" d="M476.69,-202.76C454.94,-215.38 421.82,-233.17 391,-244 381.59,-247.31 371.39,-250.09 361.39,-252.41"/>
<polygon fill="#63b8ff" stroke="#63b8ff" points="478.72,-205.63 485.56,-197.54 475.16,-199.6 478.72,-205.63"/>
</a>
</g>
</g>
<!-- Node7 -->
<g id="Node000007" class="node">
<title>Node7</title>
<g id="a_Node000007"><a xlink:href="classG3D_1_1Ray.html#a9363ac31523e50c99fb48fd66dd28775" target="_top" xlink:title=" ">
<polygon fill="white" stroke="#666666" points="378.5,-234.5 228.5,-234.5 228.5,-215.5 378.5,-215.5 378.5,-234.5"/>
<text text-anchor="middle" x="303.5" y="-222.5" font-family="Helvetica,sans-Serif" font-size="10.00">G3D::Ray::intersectionTime</text>
</a>
</g>
</g>
<!-- Node1&#45;&gt;Node7 -->
<g id="edge6_Node000001_Node000007" class="edge">
<title>Node1&#45;&gt;Node7</title>
<g id="a_edge6_Node000001_Node000007"><a xlink:title=" ">
<path fill="none" stroke="#63b8ff" d="M440.56,-199.38C413.24,-204.52 381.33,-210.53 355.27,-215.44"/>
<polygon fill="#63b8ff" stroke="#63b8ff" points="441.22,-202.82 450.4,-197.53 439.92,-195.94 441.22,-202.82"/>
</a>
</g>
</g>
<!-- Node8 -->
<g id="Node000008" class="node">
<title>Node8</title>
<g id="a_Node000008"><a xlink:href="classG3D_1_1Ray.html#ab3f468821111e91fb51274574a9108d2" target="_top" xlink:title=" ">
<polygon fill="white" stroke="#666666" points="378.5,-197.5 228.5,-197.5 228.5,-178.5 378.5,-178.5 378.5,-197.5"/>
<text text-anchor="middle" x="303.5" y="-185.5" font-family="Helvetica,sans-Serif" font-size="10.00">G3D::Ray::intersectionTime</text>
</a>
</g>
</g>
<!-- Node1&#45;&gt;Node8 -->
<g id="edge7_Node000001_Node000008" class="edge">
<title>Node1&#45;&gt;Node8</title>
<g id="a_edge7_Node000001_Node000008"><a xlink:title=" ">
<path fill="none" stroke="#63b8ff" d="M416.91,-188C404.23,-188 391.22,-188 378.77,-188"/>
<polygon fill="#63b8ff" stroke="#63b8ff" points="416.99,-191.5 426.99,-188 416.99,-184.5 416.99,-191.5"/>
</a>
</g>
</g>
<!-- Node9 -->
<g id="Node000009" class="node">
<title>Node9</title>
<g id="a_Node000009"><a xlink:href="classG3D_1_1Ray.html#a58b602a4ecbb922f2fc9a0f78670fef8" target="_top" xlink:title=" ">
<polygon fill="white" stroke="#666666" points="378.5,-160.5 228.5,-160.5 228.5,-141.5 378.5,-141.5 378.5,-160.5"/>
<text text-anchor="middle" x="303.5" y="-148.5" font-family="Helvetica,sans-Serif" font-size="10.00">G3D::Ray::intersectionTime</text>
</a>
</g>
</g>
<!-- Node1&#45;&gt;Node9 -->
<g id="edge8_Node000001_Node000009" class="edge">
<title>Node1&#45;&gt;Node9</title>
<g id="a_edge8_Node000001_Node000009"><a xlink:title=" ">
<path fill="none" stroke="#63b8ff" d="M440.56,-176.62C413.24,-171.48 381.33,-165.47 355.27,-160.56"/>
<polygon fill="#63b8ff" stroke="#63b8ff" points="439.92,-180.06 450.4,-178.47 441.22,-173.18 439.92,-180.06"/>
</a>
</g>
</g>
<!-- Node10 -->
<g id="Node000010" class="node">
<title>Node10</title>
<g id="a_Node000010"><a xlink:href="classVMAP_1_1ModelInstance.html#ae0d681fd4e101b79d148f53002c4007c" target="_top" xlink:title=" ">
<polygon fill="white" stroke="#666666" points="364.5,-123 242.5,-123 242.5,-93 364.5,-93 364.5,-123"/>
<text text-anchor="start" x="250.5" y="-111" font-family="Helvetica,sans-Serif" font-size="10.00">VMAP::ModelInstance</text>
<text text-anchor="middle" x="303.5" y="-100" font-family="Helvetica,sans-Serif" font-size="10.00">::intersectRay</text>
</a>
</g>
</g>
<!-- Node1&#45;&gt;Node10 -->
<g id="edge9_Node000001_Node000010" class="edge">
<title>Node1&#45;&gt;Node10</title>
<g id="a_edge9_Node000001_Node000010"><a xlink:title=" ">
<path fill="none" stroke="#63b8ff" d="M475.31,-173.47C453.39,-161.5 420.8,-144.64 391,-133 381.83,-129.42 371.93,-126.08 362.22,-123.09"/>
<polygon fill="#63b8ff" stroke="#63b8ff" points="473.85,-176.66 484.29,-178.44 477.23,-170.54 473.85,-176.66"/>
</a>
</g>
</g>
<!-- Node12 -->
<g id="Node000012" class="node">
<title>Node12</title>
<g id="a_Node000012"><a xlink:href="classGameObjectModel.html#a872d1383660ca8f185fb2a7b4c2778ca" target="_top" xlink:title=" ">
<polygon fill="white" stroke="#666666" points="391,-72.5 216,-72.5 216,-53.5 391,-53.5 391,-72.5"/>
<text text-anchor="middle" x="303.5" y="-60.5" font-family="Helvetica,sans-Serif" font-size="10.00">GameObjectModel::intersectRay</text>
</a>
</g>
</g>
<!-- Node1&#45;&gt;Node12 -->
<g id="edge11_Node000001_Node000012" class="edge">
<title>Node1&#45;&gt;Node12</title>
<g id="a_edge11_Node000001_Node000012"><a xlink:title=" ">
<path fill="none" stroke="#63b8ff" d="M487.25,-170.18C468.21,-146.76 431.54,-106.03 391,-84 382.17,-79.2 372.25,-75.49 362.36,-72.62"/>
<polygon fill="#63b8ff" stroke="#63b8ff" points="484.7,-172.58 493.66,-178.23 490.17,-168.23 484.7,-172.58"/>
</a>
</g>
</g>
<!-- Node3 -->
<g id="Node000003" class="node">
<title>Node3</title>
<g id="a_Node000003"><a xlink:href="classG3D_1_1CollisionDetection.html#a5a20a294abac5881b6a84e3be77d7a80" target="_top" xlink:title=" ">
<polygon fill="white" stroke="#666666" points="172,-389.5 8,-389.5 8,-348.5 172,-348.5 172,-389.5"/>
<text text-anchor="start" x="16" y="-377.5" font-family="Helvetica,sans-Serif" font-size="10.00">G3D::CollisionDetection</text>
<text text-anchor="start" x="16" y="-366.5" font-family="Helvetica,sans-Serif" font-size="10.00">::collisionTimeForMovingPoint</text>
<text text-anchor="middle" x="90" y="-355.5" font-family="Helvetica,sans-Serif" font-size="10.00">FixedTriangle</text>
</a>
</g>
</g>
<!-- Node2&#45;&gt;Node3 -->
<g id="edge2_Node000002_Node000003" class="edge">
<title>Node2&#45;&gt;Node3</title>
<g id="a_edge2_Node000002_Node000003"><a xlink:title=" ">
<path fill="none" stroke="#63b8ff" d="M218.98,-333.3C201.07,-338.29 182.28,-343.54 164.77,-348.42"/>
<polygon fill="#63b8ff" stroke="#63b8ff" points="220.13,-336.61 228.82,-330.55 218.25,-329.87 220.13,-336.61"/>
</a>
</g>
</g>
<!-- Node4 -->
<g id="Node000004" class="node">
<title>Node4</title>
<g id="a_Node000004"><a xlink:href="classG3D_1_1CollisionDetection.html#ae05e1f92b12f5454429e9ffdb46935d2" target="_top" xlink:title=" ">
<polygon fill="white" stroke="#666666" points="172,-330.5 8,-330.5 8,-289.5 172,-289.5 172,-330.5"/>
<text text-anchor="start" x="16" y="-318.5" font-family="Helvetica,sans-Serif" font-size="10.00">G3D::CollisionDetection</text>
<text text-anchor="start" x="16" y="-307.5" font-family="Helvetica,sans-Serif" font-size="10.00">::collisionTimeForMovingPoint</text>
<text text-anchor="middle" x="90" y="-296.5" font-family="Helvetica,sans-Serif" font-size="10.00">FixedTriangle</text>
</a>
</g>
</g>
<!-- Node2&#45;&gt;Node4 -->
<g id="edge3_Node000002_Node000004" class="edge">
<title>Node2&#45;&gt;Node4</title>
<g id="a_edge3_Node000002_Node000004"><a xlink:title=" ">
<path fill="none" stroke="#63b8ff" d="M211.07,-310C198.17,-310 184.99,-310 172.3,-310"/>
<polygon fill="#63b8ff" stroke="#63b8ff" points="211.33,-313.5 221.33,-310 211.33,-306.5 211.33,-313.5"/>
</a>
</g>
</g>
<!-- Node5 -->
<g id="Node000005" class="node">
<title>Node5</title>
<g id="a_Node000005"><a xlink:href="classG3D_1_1CollisionDetection.html#a992bdab224368e6776931cf5b4e12f61" target="_top" xlink:title=" ">
<polygon fill="white" stroke="#666666" points="172,-271.5 8,-271.5 8,-230.5 172,-230.5 172,-271.5"/>
<text text-anchor="start" x="16" y="-259.5" font-family="Helvetica,sans-Serif" font-size="10.00">G3D::CollisionDetection</text>
<text text-anchor="start" x="16" y="-248.5" font-family="Helvetica,sans-Serif" font-size="10.00">::collisionTimeForMovingPoint</text>
<text text-anchor="middle" x="90" y="-237.5" font-family="Helvetica,sans-Serif" font-size="10.00">FixedTriangle</text>
</a>
</g>
</g>
<!-- Node2&#45;&gt;Node5 -->
<g id="edge4_Node000002_Node000005" class="edge">
<title>Node2&#45;&gt;Node5</title>
<g id="a_edge4_Node000002_Node000005"><a xlink:title=" ">
<path fill="none" stroke="#63b8ff" d="M218.98,-286.7C201.07,-281.71 182.28,-276.46 164.77,-271.58"/>
<polygon fill="#63b8ff" stroke="#63b8ff" points="218.25,-290.13 228.82,-289.45 220.13,-283.39 218.25,-290.13"/>
</a>
</g>
</g>
<!-- Node11 -->
<g id="Node000011" class="node">
<title>Node11</title>
<g id="a_Node000011"><a xlink:href="classVMAP_1_1MapRayCallback.html#ad6b62768747bff10cf7b10568fba7f0c" target="_top" xlink:title=" ">
<polygon fill="white" stroke="#666666" points="156.5,-126 23.5,-126 23.5,-96 156.5,-96 156.5,-126"/>
<text text-anchor="start" x="31.5" y="-114" font-family="Helvetica,sans-Serif" font-size="10.00">VMAP::MapRayCallback</text>
<text text-anchor="middle" x="90" y="-103" font-family="Helvetica,sans-Serif" font-size="10.00">::operator()</text>
</a>
</g>
</g>
<!-- Node10&#45;&gt;Node11 -->
<g id="edge10_Node000010_Node000011" class="edge">
<title>Node10&#45;&gt;Node11</title>
<g id="a_edge10_Node000010_Node000011"><a xlink:title=" ">
<path fill="none" stroke="#63b8ff" d="M232.22,-109C207.88,-109.34 180.71,-109.73 156.76,-110.07"/>
<polygon fill="#63b8ff" stroke="#63b8ff" points="232.51,-112.49 242.46,-108.85 232.41,-105.49 232.51,-112.49"/>
</a>
</g>
</g>
<!-- Node13 -->
<g id="Node000013" class="node">
<title>Node13</title>
<g id="a_Node000013"><a xlink:href="structDynamicTreeIntersectionCallback.html#af17f263d4f72777dd3b3e8047329d671" target="_top" xlink:title=" ">
<polygon fill="white" stroke="#666666" points="180,-78 0,-78 0,-48 180,-48 180,-78"/>
<text text-anchor="start" x="8" y="-66" font-family="Helvetica,sans-Serif" font-size="10.00">DynamicTreeIntersectionCallback</text>
<text text-anchor="middle" x="90" y="-55" font-family="Helvetica,sans-Serif" font-size="10.00">::operator()</text>
</a>
</g>
</g>
<!-- Node12&#45;&gt;Node13 -->
<g id="edge12_Node000012_Node000013" class="edge">
<title>Node12&#45;&gt;Node13</title>
<g id="a_edge12_Node000012_Node000013"><a xlink:title=" ">
<path fill="none" stroke="#63b8ff" d="M205.61,-63C197.16,-63 188.63,-63 180.24,-63"/>
<polygon fill="#63b8ff" stroke="#63b8ff" points="205.86,-66.5 215.86,-63 205.86,-59.5 205.86,-66.5"/>
</a>
</g>
</g>
<!-- Node14 -->
<g id="Node000014" class="node">
<title>Node14</title>
<g id="a_Node000014"><a xlink:href="structDynamicTreeIntersectionCallback__WithLogger.html#a34298956a22f176bb068ae33dedbb15c" target="_top" xlink:title=" ">
<polygon fill="white" stroke="#666666" points="180,-30 0,-30 0,0 180,0 180,-30"/>
<text text-anchor="start" x="8" y="-18" font-family="Helvetica,sans-Serif" font-size="10.00">DynamicTreeIntersectionCallback</text>
<text text-anchor="middle" x="90" y="-7" font-family="Helvetica,sans-Serif" font-size="10.00">_WithLogger::operator()</text>
</a>
</g>
</g>
<!-- Node12&#45;&gt;Node14 -->
<g id="edge13_Node000012_Node000014" class="edge">
<title>Node12&#45;&gt;Node14</title>
<g id="a_edge13_Node000012_Node000014"><a xlink:title=" ">
<path fill="none" stroke="#63b8ff" d="M250.42,-51.18C222.26,-44.79 187.18,-36.83 157.11,-30"/>
<polygon fill="#63b8ff" stroke="#63b8ff" points="249.93,-54.66 260.46,-53.46 251.48,-47.83 249.93,-54.66"/>
</a>
</g>
</g>
</g>
</svg>
