<?xml version="1.0" encoding="UTF-8" standalone="no"?>
<!DOCTYPE svg PUBLIC "-//W3C//DTD SVG 1.1//EN"
 "http://www.w3.org/Graphics/SVG/1.1/DTD/svg11.dtd">
<!-- Generated by graphviz version 2.43.0 (0)
 -->
<!-- Title: Arena::UpdatePlayerCounts Pages: 1 -->
<svg width="1994pt" height="329pt"
 viewBox="0.00 0.00 1994.00 329.00" xmlns="http://www.w3.org/2000/svg" xmlns:xlink="http://www.w3.org/1999/xlink">
<g id="graph0" class="graph" transform="scale(1 1) rotate(0) translate(4 325)">
<title>Arena::UpdatePlayerCounts</title>
<!-- Node1 -->
<g id="Node000001" class="node">
<title>Node1</title>
<g id="a_Node000001"><a xlink:title=" ">
<polygon fill="#999999" stroke="#666666" points="151,-124 0,-124 0,-105 151,-105 151,-124"/>
<text text-anchor="middle" x="75.5" y="-112" font-family="Helvetica,sans-Serif" font-size="10.00">Arena::UpdatePlayerCounts</text>
</a>
</g>
</g>
<!-- Node2 -->
<g id="Node000002" class="node">
<title>Node2</title>
<g id="a_Node000002"><a xlink:href="classBattleground.html#ad8b9efd2322176d46fb366cdf1c3388d" target="_top" xlink:title=" ">
<polygon fill="white" stroke="#666666" points="354,-169 187,-169 187,-150 354,-150 354,-169"/>
<text text-anchor="middle" x="270.5" y="-157" font-family="Helvetica,sans-Serif" font-size="10.00">Battleground::endBattleground</text>
</a>
</g>
</g>
<!-- Node1&#45;&gt;Node2 -->
<g id="edge1_Node000001_Node000002" class="edge">
<title>Node1&#45;&gt;Node2</title>
<g id="a_edge1_Node000001_Node000002"><a xlink:title=" ">
<path fill="none" stroke="#63b8ff" d="M117.43,-124.04C146.98,-130.93 187.09,-140.28 218.69,-147.65"/>
<polygon fill="#63b8ff" stroke="#63b8ff" points="218.1,-151.11 228.63,-149.97 219.68,-144.29 218.1,-151.11"/>
</a>
</g>
</g>
<!-- Node30 -->
<g id="Node000030" class="node">
<title>Node30</title>
<g id="a_Node000030"><a xlink:href="classBattleground.html#ad3e40e34e7965cb0d7ca7ebfe45fe354" target="_top" xlink:title=" ">
<polygon fill="white" stroke="#666666" points="337,-124 204,-124 204,-105 337,-105 337,-124"/>
<text text-anchor="middle" x="270.5" y="-112" font-family="Helvetica,sans-Serif" font-size="10.00">Battleground::hasEnded</text>
</a>
</g>
</g>
<!-- Node1&#45;&gt;Node30 -->
<g id="edge34_Node000001_Node000030" class="edge">
<title>Node1&#45;&gt;Node30</title>
<g id="a_edge34_Node000001_Node000030"><a xlink:title=" ">
<path fill="none" stroke="#63b8ff" d="M151.12,-114.5C165.12,-114.5 179.76,-114.5 193.8,-114.5"/>
<polygon fill="#63b8ff" stroke="#63b8ff" points="193.89,-118 203.89,-114.5 193.89,-111 193.89,-118"/>
</a>
</g>
</g>
<!-- Node31 -->
<g id="Node000031" class="node">
<title>Node31</title>
<g id="a_Node000031"><a xlink:href="classBattleground.html#a0656b50f796b100de422c2ca2ed5f5bd" target="_top" xlink:title=" ">
<polygon fill="white" stroke="#666666" points="347.5,-78 193.5,-78 193.5,-59 347.5,-59 347.5,-78"/>
<text text-anchor="middle" x="270.5" y="-66" font-family="Helvetica,sans-Serif" font-size="10.00">Battleground::setWorldState</text>
</a>
</g>
</g>
<!-- Node1&#45;&gt;Node31 -->
<g id="edge35_Node000001_Node000031" class="edge">
<title>Node1&#45;&gt;Node31</title>
<g id="a_edge35_Node000001_Node000031"><a xlink:title=" ">
<path fill="none" stroke="#63b8ff" d="M116.49,-104.97C146.38,-97.85 187.43,-88.06 219.49,-80.42"/>
<polygon fill="#63b8ff" stroke="#63b8ff" points="220.65,-83.74 229.56,-78.02 219.02,-76.93 220.65,-83.74"/>
</a>
</g>
</g>
<!-- Node3 -->
<g id="Node000003" class="node">
<title>Node3</title>
<g id="a_Node000003"><a xlink:href="classBattleground.html#ade4dff412b94a012167ffd0252a87219" target="_top" xlink:title=" ">
<polygon fill="white" stroke="#666666" points="560.5,-169 390.5,-169 390.5,-150 560.5,-150 560.5,-169"/>
<text text-anchor="middle" x="475.5" y="-157" font-family="Helvetica,sans-Serif" font-size="10.00">Battleground::addHonorToTeam</text>
</a>
</g>
</g>
<!-- Node2&#45;&gt;Node3 -->
<g id="edge2_Node000002_Node000003" class="edge">
<title>Node2&#45;&gt;Node3</title>
<g id="a_edge2_Node000002_Node000003"><a xlink:title=" ">
<path fill="none" stroke="#63b8ff" d="M354.07,-159.5C362.67,-159.5 371.46,-159.5 380.17,-159.5"/>
<polygon fill="#63b8ff" stroke="#63b8ff" points="380.36,-163 390.36,-159.5 380.36,-156 380.36,-163"/>
</a>
</g>
</g>
<!-- Node18 -->
<g id="Node000018" class="node">
<title>Node18</title>
<g id="a_Node000018"><a xlink:href="classBattleground.html#a46ae6a87eb9d3b1af6065e5b761fe788" target="_top" xlink:title=" ">
<polygon fill="white" stroke="#666666" points="561,-131.5 390,-131.5 390,-101.5 561,-101.5 561,-131.5"/>
<text text-anchor="start" x="398" y="-119.5" font-family="Helvetica,sans-Serif" font-size="10.00">Battleground::HandleFinish</text>
<text text-anchor="middle" x="475.5" y="-108.5" font-family="Helvetica,sans-Serif" font-size="10.00">BattlegroundRewardCalculation</text>
</a>
</g>
</g>
<!-- Node2&#45;&gt;Node18 -->
<g id="edge20_Node000002_Node000018" class="edge">
<title>Node2&#45;&gt;Node18</title>
<g id="a_edge20_Node000002_Node000018"><a xlink:title=" ">
<path fill="none" stroke="#63b8ff" d="M316.55,-149.96C339.24,-145.15 367.43,-139.18 393.7,-133.62"/>
<polygon fill="#63b8ff" stroke="#63b8ff" points="394.6,-137 403.66,-131.51 393.15,-130.15 394.6,-137"/>
</a>
</g>
</g>
<!-- Node19 -->
<g id="Node000019" class="node">
<title>Node19</title>
<g id="a_Node000019"><a xlink:href="classBattleground.html#a311182188c3570bf7c6c129c64692dda" target="_top" xlink:title=" ">
<polygon fill="white" stroke="#666666" points="555.5,-249 395.5,-249 395.5,-230 555.5,-230 555.5,-249"/>
<text text-anchor="middle" x="475.5" y="-237" font-family="Helvetica,sans-Serif" font-size="10.00">Battleground::playSoundToAll</text>
</a>
</g>
</g>
<!-- Node2&#45;&gt;Node19 -->
<g id="edge21_Node000002_Node000019" class="edge">
<title>Node2&#45;&gt;Node19</title>
<g id="a_edge21_Node000002_Node000019"><a xlink:title=" ">
<path fill="none" stroke="#63b8ff" d="M289.57,-169.19C312.46,-181.19 353.36,-201.75 390,-215.5 401.49,-219.81 414.1,-223.79 426,-227.21"/>
<polygon fill="#63b8ff" stroke="#63b8ff" points="425.21,-230.62 435.79,-229.94 427.1,-223.88 425.21,-230.62"/>
</a>
</g>
</g>
<!-- Node21 -->
<g id="Node000021" class="node">
<title>Node21</title>
<g id="a_Node000021"><a xlink:href="classBattleground.html#a14ffc13bbe1fde737abde53b7e5f6044" target="_top" xlink:title=" ">
<polygon fill="white" stroke="#666666" points="556,-206 395,-206 395,-187 556,-187 556,-206"/>
<text text-anchor="middle" x="475.5" y="-194" font-family="Helvetica,sans-Serif" font-size="10.00">Battleground::updatePvPData</text>
</a>
</g>
</g>
<!-- Node2&#45;&gt;Node21 -->
<g id="edge23_Node000002_Node000021" class="edge">
<title>Node2&#45;&gt;Node21</title>
<g id="a_edge23_Node000002_Node000021"><a xlink:title=" ">
<path fill="none" stroke="#63b8ff" d="M323.78,-169.03C350.67,-173.93 383.64,-179.94 411.88,-185.09"/>
<polygon fill="#63b8ff" stroke="#63b8ff" points="411.58,-188.59 422.05,-186.94 412.84,-181.7 411.58,-188.59"/>
</a>
</g>
</g>
<!-- Node4 -->
<g id="Node000004" class="node">
<title>Node4</title>
<g id="a_Node000004"><a xlink:href="classHonorHandler.html#a40f1f09d145204b04d12084f9341cc2b" target="_top" xlink:title=" ">
<polygon fill="white" stroke="#666666" points="765,-107.5 597,-107.5 597,-77.5 765,-77.5 765,-107.5"/>
<text text-anchor="start" x="605" y="-95.5" font-family="Helvetica,sans-Serif" font-size="10.00">HonorHandler::AddHonorPoints</text>
<text text-anchor="middle" x="681" y="-84.5" font-family="Helvetica,sans-Serif" font-size="10.00">ToPlayer</text>
</a>
</g>
</g>
<!-- Node3&#45;&gt;Node4 -->
<g id="edge3_Node000003_Node000004" class="edge">
<title>Node3&#45;&gt;Node4</title>
<g id="a_edge3_Node000003_Node000004"><a xlink:title=" ">
<path fill="none" stroke="#63b8ff" d="M525.12,-149.98C536.96,-147.28 549.52,-144.08 561,-140.5 586.96,-132.4 615.22,-121.12 637.68,-111.52"/>
<polygon fill="#63b8ff" stroke="#63b8ff" points="639.14,-114.7 646.93,-107.53 636.36,-108.28 639.14,-114.7"/>
</a>
</g>
</g>
<!-- Node5 -->
<g id="Node000005" class="node">
<title>Node5</title>
<g id="a_Node000005"><a xlink:href="classPlayer.html#a26a43dbe7aee9d692c20295e1589b790" target="_top" xlink:title=" ">
<polygon fill="white" stroke="#666666" points="928,-99 827,-99 827,-80 928,-80 928,-99"/>
<text text-anchor="middle" x="877.5" y="-87" font-family="Helvetica,sans-Serif" font-size="10.00">Player::addHonor</text>
</a>
</g>
</g>
<!-- Node4&#45;&gt;Node5 -->
<g id="edge4_Node000004_Node000005" class="edge">
<title>Node4&#45;&gt;Node5</title>
<g id="a_edge4_Node000004_Node000005"><a xlink:title=" ">
<path fill="none" stroke="#63b8ff" d="M765.05,-91.22C782.33,-90.95 800.22,-90.68 816.47,-90.43"/>
<polygon fill="#63b8ff" stroke="#63b8ff" points="816.95,-93.92 826.9,-90.27 816.84,-86.92 816.95,-93.92"/>
</a>
</g>
</g>
<!-- Node6 -->
<g id="Node000006" class="node">
<title>Node6</title>
<g id="a_Node000006"><a xlink:href="classObject.html#a83139f119f64cd17f1dfa756e8aa5d0e" target="_top" xlink:title=" ">
<polygon fill="white" stroke="#666666" points="1098.5,-81 997.5,-81 997.5,-62 1098.5,-62 1098.5,-81"/>
<text text-anchor="middle" x="1048" y="-69" font-family="Helvetica,sans-Serif" font-size="10.00">Object::GetMapId</text>
</a>
</g>
</g>
<!-- Node5&#45;&gt;Node6 -->
<g id="edge5_Node000005_Node000006" class="edge">
<title>Node5&#45;&gt;Node6</title>
<g id="a_edge5_Node000005_Node000006"><a xlink:title=" ">
<path fill="none" stroke="#63b8ff" d="M928.14,-84.2C946.74,-82.21 968.07,-79.93 987.47,-77.86"/>
<polygon fill="#63b8ff" stroke="#63b8ff" points="987.85,-81.34 997.42,-76.8 987.1,-74.38 987.85,-81.34"/>
</a>
</g>
</g>
<!-- Node7 -->
<g id="Node000007" class="node">
<title>Node7</title>
<g id="a_Node000007"><a xlink:href="classPlayer.html#abc8a2fa4519130446901152f2542b929" target="_top" xlink:title=" ">
<polygon fill="white" stroke="#666666" points="1106,-118 990,-118 990,-99 1106,-99 1106,-118"/>
<text text-anchor="middle" x="1048" y="-106" font-family="Helvetica,sans-Serif" font-size="10.00">Player::updateHonor</text>
</a>
</g>
</g>
<!-- Node5&#45;&gt;Node7 -->
<g id="edge6_Node000005_Node000007" class="edge">
<title>Node5&#45;&gt;Node7</title>
<g id="a_edge6_Node000005_Node000007"><a xlink:title=" ">
<path fill="none" stroke="#63b8ff" d="M928.14,-95.1C944.29,-96.92 962.5,-98.97 979.71,-100.91"/>
<polygon fill="#63b8ff" stroke="#63b8ff" points="979.38,-104.4 989.71,-102.04 980.17,-97.44 979.38,-104.4"/>
</a>
</g>
</g>
<!-- Node8 -->
<g id="Node000008" class="node">
<title>Node8</title>
<g id="a_Node000008"><a xlink:href="classPlayer.html#a773c9e6c851560ba03272bf393412fbe" target="_top" xlink:title=" ">
<polygon fill="white" stroke="#666666" points="1509,-146.5 1350,-146.5 1350,-116.5 1509,-116.5 1509,-146.5"/>
<text text-anchor="start" x="1358" y="-134.5" font-family="Helvetica,sans-Serif" font-size="10.00">Player::setLifetimeHonorable</text>
<text text-anchor="middle" x="1429.5" y="-123.5" font-family="Helvetica,sans-Serif" font-size="10.00">Kills</text>
</a>
</g>
</g>
<!-- Node7&#45;&gt;Node8 -->
<g id="edge7_Node000007_Node000008" class="edge">
<title>Node7&#45;&gt;Node8</title>
<g id="a_edge7_Node000007_Node000008"><a xlink:title=" ">
<path fill="none" stroke="#63b8ff" d="M1106.23,-111.97C1168,-115.71 1267.2,-121.72 1339.24,-126.09"/>
<polygon fill="#63b8ff" stroke="#63b8ff" points="1339.47,-129.61 1349.66,-126.72 1339.89,-122.62 1339.47,-129.61"/>
</a>
</g>
</g>
<!-- Node15 -->
<g id="Node000015" class="node">
<title>Node15</title>
<g id="a_Node000015"><a xlink:href="classPlayer.html#aab4483cbf894215e4a1d2d512b899aa9" target="_top" xlink:title=" ">
<polygon fill="white" stroke="#666666" points="1314,-98 1142,-98 1142,-79 1314,-79 1314,-98"/>
<text text-anchor="middle" x="1228" y="-86" font-family="Helvetica,sans-Serif" font-size="10.00">Player::updateKnownCurrencies</text>
</a>
</g>
</g>
<!-- Node7&#45;&gt;Node15 -->
<g id="edge14_Node000007_Node000015" class="edge">
<title>Node7&#45;&gt;Node15</title>
<g id="a_edge14_Node000007_Node000015"><a xlink:title=" ">
<path fill="none" stroke="#63b8ff" d="M1106.3,-102.06C1114.64,-101.12 1123.42,-100.14 1132.26,-99.14"/>
<polygon fill="#63b8ff" stroke="#63b8ff" points="1132.72,-102.62 1142.27,-98.02 1131.94,-95.66 1132.72,-102.62"/>
</a>
</g>
</g>
<!-- Node9 -->
<g id="Node000009" class="node">
<title>Node9</title>
<g id="a_Node000009"><a xlink:href="classPlayer.html#aabab9e13edac70ad3e839a451b3164d5" target="_top" xlink:title=" ">
<polygon fill="white" stroke="#666666" points="1652,-98 1545,-98 1545,-79 1652,-79 1652,-98"/>
<text text-anchor="middle" x="1598.5" y="-86" font-family="Helvetica,sans-Serif" font-size="10.00">Player::playerData</text>
</a>
</g>
</g>
<!-- Node8&#45;&gt;Node9 -->
<g id="edge8_Node000008_Node000009" class="edge">
<title>Node8&#45;&gt;Node9</title>
<g id="a_edge8_Node000008_Node000009"><a xlink:title=" ">
<path fill="none" stroke="#63b8ff" d="M1488.91,-116.46C1509.09,-111.26 1531.43,-105.51 1550.58,-100.58"/>
<polygon fill="#63b8ff" stroke="#63b8ff" points="1551.46,-103.97 1560.27,-98.09 1549.71,-97.19 1551.46,-103.97"/>
</a>
</g>
</g>
<!-- Node10 -->
<g id="Node000010" class="node">
<title>Node10</title>
<g id="a_Node000010"><a xlink:href="classObject.html#a8b600efb87d19216b881a2451ce3629f" target="_top" xlink:title=" ">
<polygon fill="white" stroke="#666666" points="1638,-138 1559,-138 1559,-119 1638,-119 1638,-138"/>
<text text-anchor="middle" x="1598.5" y="-126" font-family="Helvetica,sans-Serif" font-size="10.00">Object::write</text>
</a>
</g>
</g>
<!-- Node8&#45;&gt;Node10 -->
<g id="edge9_Node000008_Node000010" class="edge">
<title>Node8&#45;&gt;Node10</title>
<g id="a_edge9_Node000008_Node000010"><a xlink:title=" ">
<path fill="none" stroke="#63b8ff" d="M1509.11,-130.09C1522.59,-129.85 1536.25,-129.6 1548.66,-129.38"/>
<polygon fill="#63b8ff" stroke="#63b8ff" points="1548.83,-132.88 1558.76,-129.2 1548.7,-125.88 1548.83,-132.88"/>
</a>
</g>
</g>
<!-- Node11 -->
<g id="Node000011" class="node">
<title>Node11</title>
<g id="a_Node000011"><a xlink:href="classUpdateMask.html#aaf858dd57840b7228abe64c6376d1c89" target="_top" xlink:title=" ">
<polygon fill="white" stroke="#666666" points="1804,-156 1691,-156 1691,-137 1804,-137 1804,-156"/>
<text text-anchor="middle" x="1747.5" y="-144" font-family="Helvetica,sans-Serif" font-size="10.00">UpdateMask::SetBit</text>
</a>
</g>
</g>
<!-- Node10&#45;&gt;Node11 -->
<g id="edge10_Node000010_Node000011" class="edge">
<title>Node10&#45;&gt;Node11</title>
<g id="a_edge10_Node000010_Node000011"><a xlink:title=" ">
<path fill="none" stroke="#63b8ff" d="M1638.12,-133.23C1651.25,-134.84 1666.32,-136.68 1680.96,-138.47"/>
<polygon fill="#63b8ff" stroke="#63b8ff" points="1680.65,-141.96 1691,-139.7 1681.5,-135.01 1680.65,-141.96"/>
</a>
</g>
</g>
<!-- Node12 -->
<g id="Node000012" class="node">
<title>Node12</title>
<g id="a_Node000012"><a xlink:href="classObject.html#a796330249e8c0e5f7c2cf52715638620" target="_top" xlink:title=" ">
<polygon fill="white" stroke="#666666" points="1807,-119 1688,-119 1688,-100 1807,-100 1807,-119"/>
<text text-anchor="middle" x="1747.5" y="-107" font-family="Helvetica,sans-Serif" font-size="10.00">Object::updateObject</text>
</a>
</g>
</g>
<!-- Node10&#45;&gt;Node12 -->
<g id="edge11_Node000010_Node000012" class="edge">
<title>Node10&#45;&gt;Node12</title>
<g id="a_edge11_Node000010_Node000012"><a xlink:title=" ">
<path fill="none" stroke="#63b8ff" d="M1638.12,-123.51C1650.26,-121.94 1664.04,-120.16 1677.62,-118.4"/>
<polygon fill="#63b8ff" stroke="#63b8ff" points="1678.45,-121.82 1687.92,-117.07 1677.56,-114.88 1678.45,-121.82"/>
</a>
</g>
</g>
<!-- Node13 -->
<g id="Node000013" class="node">
<title>Node13</title>
<g id="a_Node000013"><a xlink:href="classObject.html#a3aeab7def818ba6c50249f197ad2f9ca" target="_top" xlink:title=" ">
<polygon fill="white" stroke="#666666" points="1964,-138 1865,-138 1865,-119 1964,-119 1964,-138"/>
<text text-anchor="middle" x="1914.5" y="-126" font-family="Helvetica,sans-Serif" font-size="10.00">Object::IsInWorld</text>
</a>
</g>
</g>
<!-- Node12&#45;&gt;Node13 -->
<g id="edge12_Node000012_Node000013" class="edge">
<title>Node12&#45;&gt;Node13</title>
<g id="a_edge12_Node000012_Node000013"><a xlink:title=" ">
<path fill="none" stroke="#63b8ff" d="M1807.14,-116.25C1822.64,-118.04 1839.37,-119.96 1854.87,-121.75"/>
<polygon fill="#63b8ff" stroke="#63b8ff" points="1854.52,-125.23 1864.85,-122.9 1855.32,-118.28 1854.52,-125.23"/>
</a>
</g>
</g>
<!-- Node14 -->
<g id="Node000014" class="node">
<title>Node14</title>
<g id="a_Node000014"><a xlink:href="classWorldMap.html#aabf61e8d556612e51b4e87a605d314bf" target="_top" xlink:title=" ">
<polygon fill="white" stroke="#666666" points="1986,-101 1843,-101 1843,-82 1986,-82 1986,-101"/>
<text text-anchor="middle" x="1914.5" y="-89" font-family="Helvetica,sans-Serif" font-size="10.00">WorldMap::objectUpdated</text>
</a>
</g>
</g>
<!-- Node12&#45;&gt;Node14 -->
<g id="edge13_Node000012_Node000014" class="edge">
<title>Node12&#45;&gt;Node14</title>
<g id="a_edge13_Node000012_Node000014"><a xlink:title=" ">
<path fill="none" stroke="#63b8ff" d="M1807.14,-103.1C1815.46,-102.2 1824.14,-101.25 1832.79,-100.31"/>
<polygon fill="#63b8ff" stroke="#63b8ff" points="1833.34,-103.77 1842.91,-99.2 1832.59,-96.81 1833.34,-103.77"/>
</a>
</g>
</g>
<!-- Node16 -->
<g id="Node000016" class="node">
<title>Node16</title>
<g id="a_Node000016"><a xlink:href="classPlayer.html#add4a99565c6c9e368f2269b82fd7b4fd" target="_top" xlink:title=" ">
<polygon fill="white" stroke="#666666" points="1506.5,-61 1352.5,-61 1352.5,-42 1506.5,-42 1506.5,-61"/>
<text text-anchor="middle" x="1429.5" y="-49" font-family="Helvetica,sans-Serif" font-size="10.00">Player::getKnownCurrencies</text>
</a>
</g>
</g>
<!-- Node15&#45;&gt;Node16 -->
<g id="edge15_Node000015_Node000016" class="edge">
<title>Node15&#45;&gt;Node16</title>
<g id="a_edge15_Node000015_Node000016"><a xlink:title=" ">
<path fill="none" stroke="#63b8ff" d="M1280.38,-78.97C1306.8,-74.07 1339.2,-68.06 1366.96,-62.91"/>
<polygon fill="#63b8ff" stroke="#63b8ff" points="1367.76,-66.33 1376.95,-61.06 1366.48,-59.44 1367.76,-66.33"/>
</a>
</g>
</g>
<!-- Node17 -->
<g id="Node000017" class="node">
<title>Node17</title>
<g id="a_Node000017"><a xlink:href="classPlayer.html#a3a7ff5644a21c28557978cec0960e673" target="_top" xlink:title=" ">
<polygon fill="white" stroke="#666666" points="1506,-98 1353,-98 1353,-79 1506,-79 1506,-98"/>
<text text-anchor="middle" x="1429.5" y="-86" font-family="Helvetica,sans-Serif" font-size="10.00">Player::setKnownCurrencies</text>
</a>
</g>
</g>
<!-- Node15&#45;&gt;Node17 -->
<g id="edge17_Node000015_Node000017" class="edge">
<title>Node15&#45;&gt;Node17</title>
<g id="a_edge17_Node000015_Node000017"><a xlink:title=" ">
<path fill="none" stroke="#63b8ff" d="M1314.18,-88.5C1323.6,-88.5 1333.18,-88.5 1342.6,-88.5"/>
<polygon fill="#63b8ff" stroke="#63b8ff" points="1342.74,-92 1352.74,-88.5 1342.74,-85 1342.74,-92"/>
</a>
</g>
</g>
<!-- Node16&#45;&gt;Node9 -->
<g id="edge16_Node000016_Node000009" class="edge">
<title>Node16&#45;&gt;Node9</title>
<g id="a_edge16_Node000016_Node000009"><a xlink:title=" ">
<path fill="none" stroke="#63b8ff" d="M1473.51,-61.03C1495.14,-65.82 1521.56,-71.68 1544.45,-76.75"/>
<polygon fill="#63b8ff" stroke="#63b8ff" points="1543.83,-80.19 1554.35,-78.94 1545.34,-73.36 1543.83,-80.19"/>
</a>
</g>
</g>
<!-- Node17&#45;&gt;Node9 -->
<g id="edge18_Node000017_Node000009" class="edge">
<title>Node17&#45;&gt;Node9</title>
<g id="a_edge18_Node000017_Node000009"><a xlink:title=" ">
<path fill="none" stroke="#63b8ff" d="M1506.18,-88.5C1515.59,-88.5 1525.13,-88.5 1534.32,-88.5"/>
<polygon fill="#63b8ff" stroke="#63b8ff" points="1534.52,-92 1544.52,-88.5 1534.52,-85 1534.52,-92"/>
</a>
</g>
</g>
<!-- Node17&#45;&gt;Node10 -->
<g id="edge19_Node000017_Node000010" class="edge">
<title>Node17&#45;&gt;Node10</title>
<g id="a_edge19_Node000017_Node000010"><a xlink:title=" ">
<path fill="none" stroke="#63b8ff" d="M1470.5,-98.08C1494.08,-103.73 1524.07,-110.91 1548.99,-116.88"/>
<polygon fill="#63b8ff" stroke="#63b8ff" points="1548.44,-120.35 1558.98,-119.27 1550.07,-113.54 1548.44,-120.35"/>
</a>
</g>
</g>
<!-- Node20 -->
<g id="Node000020" class="node">
<title>Node20</title>
<g id="a_Node000020"><a xlink:href="classBattleground.html#a69fe57f68c833fe5e851a7b1574bd5a7" target="_top" xlink:title=" ">
<polygon fill="white" stroke="#666666" points="747,-259.5 615,-259.5 615,-229.5 747,-229.5 747,-259.5"/>
<text text-anchor="start" x="623" y="-247.5" font-family="Helvetica,sans-Serif" font-size="10.00">Battleground::distribute</text>
<text text-anchor="middle" x="681" y="-236.5" font-family="Helvetica,sans-Serif" font-size="10.00">PacketToAll</text>
</a>
</g>
</g>
<!-- Node19&#45;&gt;Node20 -->
<g id="edge22_Node000019_Node000020" class="edge">
<title>Node19&#45;&gt;Node20</title>
<g id="a_edge22_Node000019_Node000020"><a xlink:title=" ">
<path fill="none" stroke="#63b8ff" d="M555.76,-241.45C571.78,-241.84 588.59,-242.25 604.47,-242.64"/>
<polygon fill="#63b8ff" stroke="#63b8ff" points="604.68,-246.15 614.77,-242.9 604.85,-239.15 604.68,-246.15"/>
</a>
</g>
</g>
<!-- Node21&#45;&gt;Node20 -->
<g id="edge32_Node000021_Node000020" class="edge">
<title>Node21&#45;&gt;Node20</title>
<g id="a_edge32_Node000021_Node000020"><a xlink:title=" ">
<path fill="none" stroke="#63b8ff" d="M517.19,-206.1C542.62,-212.1 576.12,-220 606.12,-227.07"/>
<polygon fill="#63b8ff" stroke="#63b8ff" points="605.6,-230.55 616.14,-229.44 607.21,-223.73 605.6,-230.55"/>
</a>
</g>
</g>
<!-- Node22 -->
<g id="Node000022" class="node">
<title>Node22</title>
<g id="a_Node000022"><a xlink:href="classBattleground.html#a220efc851bc02233ca3dd7c74a19798b" target="_top" xlink:title=" ">
<polygon fill="white" stroke="#666666" points="762.5,-211.5 599.5,-211.5 599.5,-181.5 762.5,-181.5 762.5,-211.5"/>
<text text-anchor="start" x="607.5" y="-199.5" font-family="Helvetica,sans-Serif" font-size="10.00">Battleground::buildPvPUpdate</text>
<text text-anchor="middle" x="681" y="-188.5" font-family="Helvetica,sans-Serif" font-size="10.00">DataPacket</text>
</a>
</g>
</g>
<!-- Node21&#45;&gt;Node22 -->
<g id="edge24_Node000021_Node000022" class="edge">
<title>Node21&#45;&gt;Node22</title>
<g id="a_edge24_Node000021_Node000022"><a xlink:title=" ">
<path fill="none" stroke="#63b8ff" d="M556.05,-196.5C566.98,-196.5 578.26,-196.5 589.37,-196.5"/>
<polygon fill="#63b8ff" stroke="#63b8ff" points="589.5,-200 599.5,-196.5 589.5,-193 589.5,-200"/>
</a>
</g>
</g>
<!-- Node27 -->
<g id="Node000027" class="node">
<title>Node27</title>
<g id="a_Node000027"><a xlink:href="classBattleground.html#a27220c64d452984805d78b38468f391b" target="_top" xlink:title=" ">
<polygon fill="white" stroke="#666666" points="950,-136 805,-136 805,-117 950,-117 950,-136"/>
<text text-anchor="middle" x="877.5" y="-124" font-family="Helvetica,sans-Serif" font-size="10.00">Battleground::isTypeArena</text>
</a>
</g>
</g>
<!-- Node21&#45;&gt;Node27 -->
<g id="edge33_Node000021_Node000027" class="edge">
<title>Node21&#45;&gt;Node27</title>
<g id="a_edge33_Node000021_Node000027"><a xlink:title=" ">
<path fill="none" stroke="#63b8ff" d="M522.49,-186.96C544.93,-182.41 572.34,-176.98 597,-172.5 667.63,-159.66 748.6,-146.5 805.14,-137.57"/>
<polygon fill="#63b8ff" stroke="#63b8ff" points="805.72,-141.02 815.06,-136.01 804.63,-134.11 805.72,-141.02"/>
</a>
</g>
</g>
<!-- Node23 -->
<g id="Node000023" class="node">
<title>Node23</title>
<g id="a_Node000023"><a xlink:href="classBattleground.html#ab5f8eff10feff63af68a3f1c6d1380c8" target="_top" xlink:title=" ">
<polygon fill="white" stroke="#666666" points="954,-173 801,-173 801,-154 954,-154 954,-173"/>
<text text-anchor="middle" x="877.5" y="-161" font-family="Helvetica,sans-Serif" font-size="10.00">Battleground::getFieldCount</text>
</a>
</g>
</g>
<!-- Node22&#45;&gt;Node23 -->
<g id="edge25_Node000022_Node000023" class="edge">
<title>Node22&#45;&gt;Node23</title>
<g id="a_edge25_Node000022_Node000023"><a xlink:title=" ">
<path fill="none" stroke="#63b8ff" d="M762.51,-182.84C778.46,-180.13 795.02,-177.32 810.42,-174.71"/>
<polygon fill="#63b8ff" stroke="#63b8ff" points="811.08,-178.15 820.36,-173.03 809.91,-171.25 811.08,-178.15"/>
</a>
</g>
</g>
<!-- Node24 -->
<g id="Node000024" class="node">
<title>Node24</title>
<g id="a_Node000024"><a xlink:href="classBattleground.html#a677aefa78cea44d437969127645398a8" target="_top" xlink:title=" ">
<polygon fill="white" stroke="#666666" points="939.5,-321 815.5,-321 815.5,-302 939.5,-302 939.5,-321"/>
<text text-anchor="middle" x="877.5" y="-309" font-family="Helvetica,sans-Serif" font-size="10.00">Battleground::getType</text>
</a>
</g>
</g>
<!-- Node22&#45;&gt;Node24 -->
<g id="edge26_Node000022_Node000024" class="edge">
<title>Node22&#45;&gt;Node24</title>
<g id="a_edge26_Node000022_Node000024"><a xlink:title=" ">
<path fill="none" stroke="#63b8ff" d="M751.36,-211.53C756.24,-214.07 760.86,-217.03 765,-220.5 792.74,-243.72 772.72,-270.94 801,-293.5 802.62,-294.79 804.32,-295.99 806.08,-297.11"/>
<polygon fill="#63b8ff" stroke="#63b8ff" points="804.86,-300.43 815.33,-302.03 808.14,-294.24 804.86,-300.43"/>
</a>
</g>
</g>
<!-- Node25 -->
<g id="Node000025" class="node">
<title>Node25</title>
<g id="a_Node000025"><a xlink:href="classWorldPacket.html#ac08ded00d1a72d7835a73d0283f9a910" target="_top" xlink:title=" ">
<polygon fill="white" stroke="#666666" points="939.5,-284 815.5,-284 815.5,-265 939.5,-265 939.5,-284"/>
<text text-anchor="middle" x="877.5" y="-272" font-family="Helvetica,sans-Serif" font-size="10.00">WorldPacket::Initialize</text>
</a>
</g>
</g>
<!-- Node22&#45;&gt;Node25 -->
<g id="edge27_Node000022_Node000025" class="edge">
<title>Node22&#45;&gt;Node25</title>
<g id="a_edge27_Node000022_Node000025"><a xlink:title=" ">
<path fill="none" stroke="#63b8ff" d="M746.36,-211.54C752.85,-214.1 759.19,-217.07 765,-220.5 784.48,-232.01 781.25,-245.46 801,-256.5 804.25,-258.32 807.68,-259.95 811.21,-261.42"/>
<polygon fill="#63b8ff" stroke="#63b8ff" points="810.14,-264.76 820.73,-264.94 812.56,-258.19 810.14,-264.76"/>
</a>
</g>
</g>
<!-- Node22&#45;&gt;Node27 -->
<g id="edge29_Node000022_Node000027" class="edge">
<title>Node22&#45;&gt;Node27</title>
<g id="a_edge29_Node000022_Node000027"><a xlink:title=" ">
<path fill="none" stroke="#63b8ff" d="M718.02,-181.49C732.63,-175.35 749.64,-168.15 765,-161.5 781.07,-154.54 784.45,-151.21 801,-145.5 808.11,-143.05 815.69,-140.76 823.21,-138.69"/>
<polygon fill="#63b8ff" stroke="#63b8ff" points="824.24,-142.04 833,-136.09 822.44,-135.27 824.24,-142.04"/>
</a>
</g>
</g>
<!-- Node28 -->
<g id="Node000028" class="node">
<title>Node28</title>
<g id="a_Node000028"><a xlink:href="classBattleground.html#ad998da32c78f57e4f7e6f0b90444c7e1" target="_top" xlink:title=" ">
<polygon fill="white" stroke="#666666" points="934.5,-247 820.5,-247 820.5,-228 934.5,-228 934.5,-247"/>
<text text-anchor="middle" x="877.5" y="-235" font-family="Helvetica,sans-Serif" font-size="10.00">Battleground::Rated</text>
</a>
</g>
</g>
<!-- Node22&#45;&gt;Node28 -->
<g id="edge30_Node000022_Node000028" class="edge">
<title>Node22&#45;&gt;Node28</title>
<g id="a_edge30_Node000022_Node000028"><a xlink:title=" ">
<path fill="none" stroke="#63b8ff" d="M753.32,-211.53C775.68,-216.25 800.02,-221.38 821.11,-225.82"/>
<polygon fill="#63b8ff" stroke="#63b8ff" points="820.67,-229.31 831.17,-227.95 822.11,-222.46 820.67,-229.31"/>
</a>
</g>
</g>
<!-- Node29 -->
<g id="Node000029" class="node">
<title>Node29</title>
<g id="a_Node000029"><a xlink:href="classByteBuffer.html#a2561da6a9423880162eaf47c60284dbe" target="_top" xlink:title=" ">
<polygon fill="white" stroke="#666666" points="933,-210 822,-210 822,-191 933,-191 933,-210"/>
<text text-anchor="middle" x="877.5" y="-198" font-family="Helvetica,sans-Serif" font-size="10.00">ByteBuffer::reserve</text>
</a>
</g>
</g>
<!-- Node22&#45;&gt;Node29 -->
<g id="edge31_Node000022_Node000029" class="edge">
<title>Node22&#45;&gt;Node29</title>
<g id="a_edge31_Node000022_Node000029"><a xlink:title=" ">
<path fill="none" stroke="#63b8ff" d="M762.51,-198.16C778.89,-198.49 795.92,-198.84 811.66,-199.17"/>
<polygon fill="#63b8ff" stroke="#63b8ff" points="811.74,-202.67 821.81,-199.38 811.88,-195.67 811.74,-202.67"/>
</a>
</g>
</g>
<!-- Node26 -->
<g id="Node000026" class="node">
<title>Node26</title>
<g id="a_Node000026"><a xlink:href="classByteBuffer.html#ab9fbbcf0abe4049e2016c1262795c97e" target="_top" xlink:title=" ">
<polygon fill="white" stroke="#666666" points="1097,-284 999,-284 999,-265 1097,-265 1097,-284"/>
<text text-anchor="middle" x="1048" y="-272" font-family="Helvetica,sans-Serif" font-size="10.00">ByteBuffer::clear</text>
</a>
</g>
</g>
<!-- Node25&#45;&gt;Node26 -->
<g id="edge28_Node000025_Node000026" class="edge">
<title>Node25&#45;&gt;Node26</title>
<g id="a_edge28_Node000025_Node000026"><a xlink:title=" ">
<path fill="none" stroke="#63b8ff" d="M939.81,-274.5C955.79,-274.5 972.96,-274.5 988.77,-274.5"/>
<polygon fill="#63b8ff" stroke="#63b8ff" points="988.94,-278 998.94,-274.5 988.94,-271 988.94,-278"/>
</a>
</g>
</g>
<!-- Node32 -->
<g id="Node000032" class="node">
<title>Node32</title>
<g id="a_Node000032"><a xlink:href="classWorldMap.html#a93ddc132a35d501133ef796627d53b85" target="_top" xlink:title=" ">
<polygon fill="white" stroke="#666666" points="548.5,-83.5 402.5,-83.5 402.5,-53.5 548.5,-53.5 548.5,-83.5"/>
<text text-anchor="start" x="410.5" y="-71.5" font-family="Helvetica,sans-Serif" font-size="10.00">WorldMap::getWorldStates</text>
<text text-anchor="middle" x="475.5" y="-60.5" font-family="Helvetica,sans-Serif" font-size="10.00">Handler</text>
</a>
</g>
</g>
<!-- Node31&#45;&gt;Node32 -->
<g id="edge36_Node000031_Node000032" class="edge">
<title>Node31&#45;&gt;Node32</title>
<g id="a_edge36_Node000031_Node000032"><a xlink:title=" ">
<path fill="none" stroke="#63b8ff" d="M347.67,-68.5C362.2,-68.5 377.48,-68.5 392.19,-68.5"/>
<polygon fill="#63b8ff" stroke="#63b8ff" points="392.27,-72 402.27,-68.5 392.27,-65 392.27,-72"/>
</a>
</g>
</g>
<!-- Node33 -->
<g id="Node000033" class="node">
<title>Node33</title>
<g id="a_Node000033"><a xlink:href="classWorldStatesHandler.html#a463bdde0a22afd803b5162cdab43798c" target="_top" xlink:title=" ">
<polygon fill="white" stroke="#666666" points="541,-35.5 410,-35.5 410,-5.5 541,-5.5 541,-35.5"/>
<text text-anchor="start" x="418" y="-23.5" font-family="Helvetica,sans-Serif" font-size="10.00">WorldStatesHandler</text>
<text text-anchor="middle" x="475.5" y="-12.5" font-family="Helvetica,sans-Serif" font-size="10.00">::SetWorldStateForZone</text>
</a>
</g>
</g>
<!-- Node31&#45;&gt;Node33 -->
<g id="edge37_Node000031_Node000033" class="edge">
<title>Node31&#45;&gt;Node33</title>
<g id="a_edge37_Node000031_Node000033"><a xlink:title=" ">
<path fill="none" stroke="#63b8ff" d="M312.09,-58.9C337.46,-52.9 370.87,-45 400.8,-37.93"/>
<polygon fill="#63b8ff" stroke="#63b8ff" points="401.87,-41.27 410.8,-35.56 400.26,-34.46 401.87,-41.27"/>
</a>
</g>
</g>
<!-- Node34 -->
<g id="Node000034" class="node">
<title>Node34</title>
<g id="a_Node000034"><a xlink:href="classWorldStatesHandler_1_1WorldStatesObserver.html#a524fa875069d7f87bb345bf16cb9b8b6" target="_top" xlink:title=" ">
<polygon fill="white" stroke="#666666" points="743.5,-41 618.5,-41 618.5,0 743.5,0 743.5,-41"/>
<text text-anchor="start" x="626.5" y="-29" font-family="Helvetica,sans-Serif" font-size="10.00">WorldStatesHandler</text>
<text text-anchor="start" x="626.5" y="-18" font-family="Helvetica,sans-Serif" font-size="10.00">::WorldStatesObserver</text>
<text text-anchor="middle" x="681" y="-7" font-family="Helvetica,sans-Serif" font-size="10.00">::onWorldStateUpdate</text>
</a>
</g>
</g>
<!-- Node33&#45;&gt;Node34 -->
<g id="edge38_Node000033_Node000034" class="edge">
<title>Node33&#45;&gt;Node34</title>
<g id="a_edge38_Node000033_Node000034"><a xlink:title=" ">
<path fill="none" stroke="#63b8ff" d="M541.17,-20.5C562.47,-20.5 586.28,-20.5 608.09,-20.5"/>
<polygon fill="#63b8ff" stroke="#63b8ff" points="608.28,-24 618.28,-20.5 608.28,-17 608.28,-24"/>
</a>
</g>
</g>
</g>
</svg>
