<?xml version="1.0" encoding="UTF-8" standalone="no"?>
<!DOCTYPE svg PUBLIC "-//W3C//DTD SVG 1.1//EN"
 "http://www.w3.org/Graphics/SVG/1.1/DTD/svg11.dtd">
<!-- Generated by graphviz version 2.43.0 (0)
 -->
<!-- Title: Group::resetInstances Pages: 1 -->
<svg width="1074pt" height="540pt"
 viewBox="0.00 0.00 1074.00 540.00" xmlns="http://www.w3.org/2000/svg" xmlns:xlink="http://www.w3.org/1999/xlink">
<g id="graph0" class="graph" transform="scale(1 1) rotate(0) translate(4 536)">
<title>Group::resetInstances</title>
<!-- Node1 -->
<g id="Node000001" class="node">
<title>Node1</title>
<g id="a_Node000001"><a xlink:title=" ">
<polygon fill="#999999" stroke="#666666" points="123,-275 0,-275 0,-256 123,-256 123,-275"/>
<text text-anchor="middle" x="61.5" y="-263" font-family="Helvetica,sans-Serif" font-size="10.00">Group::resetInstances</text>
</a>
</g>
</g>
<!-- Node2 -->
<g id="Node000002" class="node">
<title>Node2</title>
<g id="a_Node000002"><a xlink:href="classInstanceSaved.html#a237ecddaaebf0fac60b13aff05929f4a" target="_top" xlink:title=" ">
<polygon fill="white" stroke="#666666" points="310.5,-532 171.5,-532 171.5,-513 310.5,-513 310.5,-532"/>
<text text-anchor="middle" x="241" y="-520" font-family="Helvetica,sans-Serif" font-size="10.00">InstanceSaved::canReset</text>
</a>
</g>
</g>
<!-- Node1&#45;&gt;Node2 -->
<g id="edge1_Node000001_Node000002" class="edge">
<title>Node1&#45;&gt;Node2</title>
<g id="a_edge1_Node000001_Node000002"><a xlink:title=" ">
<path fill="none" stroke="#63b8ff" d="M63.56,-275.16C67.97,-310.58 88.07,-434.63 159,-498.5 163.47,-502.52 168.58,-505.87 174.02,-508.66"/>
<polygon fill="#63b8ff" stroke="#63b8ff" points="172.87,-511.98 183.43,-512.85 175.71,-505.59 172.87,-511.98"/>
</a>
</g>
</g>
<!-- Node3 -->
<g id="Node000003" class="node">
<title>Node3</title>
<g id="a_Node000003"><a xlink:href="classInstanceSaved.html#a9cfb009ad0a33ee7c7f989214f062cfb" target="_top" xlink:title=" ">
<polygon fill="white" stroke="#666666" points="323,-408 159,-408 159,-389 323,-389 323,-408"/>
<text text-anchor="middle" x="241" y="-396" font-family="Helvetica,sans-Serif" font-size="10.00">InstanceSaved::deleteFromDB</text>
</a>
</g>
</g>
<!-- Node1&#45;&gt;Node3 -->
<g id="edge2_Node000001_Node000003" class="edge">
<title>Node1&#45;&gt;Node3</title>
<g id="a_edge2_Node000001_Node000003"><a xlink:title=" ">
<path fill="none" stroke="#63b8ff" d="M67.79,-275.26C80.41,-297.53 114.55,-352.29 159,-379.5 162.44,-381.6 166.08,-383.47 169.86,-385.14"/>
<polygon fill="#63b8ff" stroke="#63b8ff" points="168.86,-388.5 179.45,-388.86 171.39,-381.98 168.86,-388.5"/>
</a>
</g>
</g>
<!-- Node5 -->
<g id="Node000005" class="node">
<title>Node5</title>
<g id="a_Node000005"><a xlink:href="classInstanceSaved.html#a97c1d04097a68a879ad096bc5791b635" target="_top" xlink:title=" ">
<polygon fill="white" stroke="#666666" points="720,-408 560,-408 560,-389 720,-389 720,-408"/>
<text text-anchor="middle" x="640" y="-396" font-family="Helvetica,sans-Serif" font-size="10.00">InstanceSaved::getInstanceId</text>
</a>
</g>
</g>
<!-- Node1&#45;&gt;Node5 -->
<g id="edge8_Node000001_Node000005" class="edge">
<title>Node1&#45;&gt;Node5</title>
<g id="a_edge8_Node000001_Node000005"><a xlink:title=" ">
<path fill="none" stroke="#63b8ff" d="M65.69,-275.15C75.16,-302.24 105.84,-379.52 159,-417.5 233.38,-470.64 268.22,-454.76 359,-465.5 431.83,-474.12 453.2,-484.62 524,-465.5 560.66,-455.6 597.65,-430.79 619.43,-414.3"/>
<polygon fill="#63b8ff" stroke="#63b8ff" points="621.78,-416.92 627.53,-408.02 617.49,-411.39 621.78,-416.92"/>
</a>
</g>
</g>
<!-- Node6 -->
<g id="Node000006" class="node">
<title>Node6</title>
<g id="a_Node000006"><a xlink:href="classGroup.html#ac1e7623a0c7a82d76bb63bb8f84a062a" target="_top" xlink:title=" ">
<polygon fill="white" stroke="#666666" points="297,-133 185,-133 185,-114 297,-114 297,-133"/>
<text text-anchor="middle" x="241" y="-121" font-family="Helvetica,sans-Serif" font-size="10.00">Group::getDifficulty</text>
</a>
</g>
</g>
<!-- Node1&#45;&gt;Node6 -->
<g id="edge5_Node000001_Node000006" class="edge">
<title>Node1&#45;&gt;Node6</title>
<g id="a_edge5_Node000001_Node000006"><a xlink:title=" ">
<path fill="none" stroke="#63b8ff" d="M67.22,-255.68C79.09,-232.11 112.55,-172.14 159,-142.5 163.99,-139.31 169.46,-136.66 175.13,-134.45"/>
<polygon fill="#63b8ff" stroke="#63b8ff" points="176.48,-137.69 184.81,-131.14 174.21,-131.07 176.48,-137.69"/>
</a>
</g>
</g>
<!-- Node7 -->
<g id="Node000007" class="node">
<title>Node7</title>
<g id="a_Node000007"><a xlink:href="classGroup.html#a91263ffd024149641482eb4b29c4af26" target="_top" xlink:title=" ">
<polygon fill="white" stroke="#666666" points="482.5,-214 400.5,-214 400.5,-195 482.5,-195 482.5,-214"/>
<text text-anchor="middle" x="441.5" y="-202" font-family="Helvetica,sans-Serif" font-size="10.00">Group::isRaid</text>
</a>
</g>
</g>
<!-- Node1&#45;&gt;Node7 -->
<g id="edge12_Node000001_Node000007" class="edge">
<title>Node1&#45;&gt;Node7</title>
<g id="a_edge12_Node000001_Node000007"><a xlink:title=" ">
<path fill="none" stroke="#63b8ff" d="M123.22,-273.55C176.64,-278.74 256.11,-281.83 323,-265.5 358.91,-256.73 396.08,-234.9 418.75,-219.89"/>
<polygon fill="#63b8ff" stroke="#63b8ff" points="420.94,-222.63 427.25,-214.12 417.01,-216.84 420.94,-222.63"/>
</a>
</g>
</g>
<!-- Node9 -->
<g id="Node000009" class="node">
<title>Node9</title>
<g id="a_Node000009"><a xlink:href="classInstanceSaved.html#a3482873372f12b3264ac37fd71fb1b9e" target="_top" xlink:title=" ">
<polygon fill="white" stroke="#666666" points="710,-351 570,-351 570,-332 710,-332 710,-351"/>
<text text-anchor="middle" x="640" y="-339" font-family="Helvetica,sans-Serif" font-size="10.00">InstanceSaved::getMapId</text>
</a>
</g>
</g>
<!-- Node1&#45;&gt;Node9 -->
<g id="edge9_Node000001_Node000009" class="edge">
<title>Node1&#45;&gt;Node9</title>
<g id="a_edge9_Node000001_Node000009"><a xlink:title=" ">
<path fill="none" stroke="#63b8ff" d="M104.63,-275.07C121.47,-278.68 141.1,-282.61 159,-285.5 299.45,-308.2 464.44,-325.4 559.83,-334.42"/>
<polygon fill="#63b8ff" stroke="#63b8ff" points="559.7,-337.93 569.98,-335.38 560.35,-330.96 559.7,-337.93"/>
</a>
</g>
</g>
<!-- Node10 -->
<g id="Node000010" class="node">
<title>Node10</title>
<g id="a_Node000010"><a xlink:href="classWorldMap.html#ac2be6ae187bc722f33f76a2c1c7094b3" target="_top" xlink:title=" ">
<polygon fill="white" stroke="#666666" points="314,-256 168,-256 168,-237 314,-237 314,-256"/>
<text text-anchor="middle" x="241" y="-244" font-family="Helvetica,sans-Serif" font-size="10.00">WorldMap::getPlayerCount</text>
</a>
</g>
</g>
<!-- Node1&#45;&gt;Node10 -->
<g id="edge10_Node000001_Node000010" class="edge">
<title>Node1&#45;&gt;Node10</title>
<g id="a_edge10_Node000001_Node000010"><a xlink:title=" ">
<path fill="none" stroke="#63b8ff" d="M123.09,-259.01C134.2,-257.83 145.96,-256.57 157.58,-255.32"/>
<polygon fill="#63b8ff" stroke="#63b8ff" points="158.16,-258.78 167.73,-254.24 157.42,-251.82 158.16,-258.78"/>
</a>
</g>
</g>
<!-- Node11 -->
<g id="Node000011" class="node">
<title>Node11</title>
<g id="a_Node000011"><a xlink:href="classGroup.html#a545e47de575b0520117a3f798d54babc" target="_top" xlink:title=" ">
<polygon fill="white" stroke="#666666" points="293,-219 189,-219 189,-200 293,-200 293,-219"/>
<text text-anchor="middle" x="241" y="-207" font-family="Helvetica,sans-Serif" font-size="10.00">Group::isBGGroup</text>
</a>
</g>
</g>
<!-- Node1&#45;&gt;Node11 -->
<g id="edge11_Node000001_Node000011" class="edge">
<title>Node1&#45;&gt;Node11</title>
<g id="a_edge11_Node000001_Node000011"><a xlink:title=" ">
<path fill="none" stroke="#63b8ff" d="M84.82,-255.95C104.18,-247.9 133.1,-236.46 159,-228.5 167.14,-226 175.82,-223.64 184.37,-221.5"/>
<polygon fill="#63b8ff" stroke="#63b8ff" points="185.41,-224.84 194.3,-219.08 183.75,-218.04 185.41,-224.84"/>
</a>
</g>
</g>
<!-- Node12 -->
<g id="Node000012" class="node">
<title>Node12</title>
<g id="a_Node000012"><a xlink:href="structWDB_1_1Structures_1_1MapEntry.html#a7b7fb2890683604c03496dc34f9c638c" target="_top" xlink:title=" ">
<polygon fill="white" stroke="#666666" points="315.5,-181.5 166.5,-181.5 166.5,-151.5 315.5,-151.5 315.5,-181.5"/>
<text text-anchor="start" x="174.5" y="-169.5" font-family="Helvetica,sans-Serif" font-size="10.00">WDB::Structures::MapEntry</text>
<text text-anchor="middle" x="241" y="-158.5" font-family="Helvetica,sans-Serif" font-size="10.00">::isRaid</text>
</a>
</g>
</g>
<!-- Node1&#45;&gt;Node12 -->
<g id="edge13_Node000001_Node000012" class="edge">
<title>Node1&#45;&gt;Node12</title>
<g id="a_edge13_Node000001_Node000012"><a xlink:title=" ">
<path fill="none" stroke="#63b8ff" d="M72.37,-255.97C88.98,-240.42 124.11,-209.52 159,-191.5 163.46,-189.2 168.17,-187.06 172.99,-185.09"/>
<polygon fill="#63b8ff" stroke="#63b8ff" points="174.25,-188.36 182.34,-181.51 171.75,-181.82 174.25,-188.36"/>
</a>
</g>
</g>
<!-- Node13 -->
<g id="Node000013" class="node">
<title>Node13</title>
<g id="a_Node000013"><a xlink:href="classInstanceSaved.html#a1ee05e8236c95e155db24e88cf91db1b" target="_top" xlink:title=" ">
<polygon fill="white" stroke="#666666" points="321.5,-370 160.5,-370 160.5,-351 321.5,-351 321.5,-370"/>
<text text-anchor="middle" x="241" y="-358" font-family="Helvetica,sans-Serif" font-size="10.00">InstanceSaved::removeGroup</text>
</a>
</g>
</g>
<!-- Node1&#45;&gt;Node13 -->
<g id="edge14_Node000001_Node000013" class="edge">
<title>Node1&#45;&gt;Node13</title>
<g id="a_edge14_Node000001_Node000013"><a xlink:title=" ">
<path fill="none" stroke="#63b8ff" d="M72.97,-275.15C89.87,-290.24 124.73,-319.47 159,-336.5 168.06,-341 178.12,-344.82 187.99,-348"/>
<polygon fill="#63b8ff" stroke="#63b8ff" points="187.16,-351.4 197.74,-350.96 189.19,-344.71 187.16,-351.4"/>
</a>
</g>
</g>
<!-- Node15 -->
<g id="Node000015" class="node">
<title>Node15</title>
<g id="a_Node000015"><a xlink:href="classPlayer.html#a0d728a8a0181a9524d648ac2701cf2c6" target="_top" xlink:title=" ">
<polygon fill="white" stroke="#666666" points="495.5,-74 387.5,-74 387.5,-55 495.5,-55 495.5,-74"/>
<text text-anchor="middle" x="441.5" y="-62" font-family="Helvetica,sans-Serif" font-size="10.00">Player::sendPacket</text>
</a>
</g>
</g>
<!-- Node1&#45;&gt;Node15 -->
<g id="edge18_Node000001_Node000015" class="edge">
<title>Node1&#45;&gt;Node15</title>
<g id="a_edge18_Node000001_Node000015"><a xlink:title=" ">
<path fill="none" stroke="#63b8ff" d="M65.09,-255.85C73.3,-227.24 101.71,-142.53 159,-104.5 193.74,-81.44 305.22,-71.4 377.03,-67.23"/>
<polygon fill="#63b8ff" stroke="#63b8ff" points="377.53,-70.71 387.32,-66.66 377.14,-63.72 377.53,-70.71"/>
</a>
</g>
</g>
<!-- Node22 -->
<g id="Node000022" class="node">
<title>Node22</title>
<g id="a_Node000022"><a xlink:href="classPlayer.html#a495ee2d2b6b03b7db0f2d62d86b0767e" target="_top" xlink:title=" ">
<polygon fill="white" stroke="#666666" points="314,-57.5 168,-57.5 168,-27.5 314,-27.5 314,-57.5"/>
<text text-anchor="start" x="176" y="-45.5" font-family="Helvetica,sans-Serif" font-size="10.00">Player::sendResetInstance</text>
<text text-anchor="middle" x="241" y="-34.5" font-family="Helvetica,sans-Serif" font-size="10.00">Failed</text>
</a>
</g>
</g>
<!-- Node1&#45;&gt;Node22 -->
<g id="edge26_Node000001_Node000022" class="edge">
<title>Node1&#45;&gt;Node22</title>
<g id="a_edge26_Node000001_Node000022"><a xlink:title=" ">
<path fill="none" stroke="#63b8ff" d="M64.58,-255.87C71.82,-224.61 98.83,-124.97 159,-71.5 162.88,-68.05 167.2,-65.01 171.76,-62.32"/>
<polygon fill="#63b8ff" stroke="#63b8ff" points="173.57,-65.32 180.8,-57.57 170.31,-59.13 173.57,-65.32"/>
</a>
</g>
</g>
<!-- Node4 -->
<g id="Node000004" class="node">
<title>Node4</title>
<g id="a_Node000004"><a xlink:href="classInstanceMgr.html#a55aa59da00bd6cfe12fb3284aef126c8" target="_top" xlink:title=" ">
<polygon fill="white" stroke="#666666" points="519,-456.5 364,-456.5 364,-426.5 519,-426.5 519,-456.5"/>
<text text-anchor="start" x="372" y="-444.5" font-family="Helvetica,sans-Serif" font-size="10.00">InstanceMgr::deleteInstance</text>
<text text-anchor="middle" x="441.5" y="-433.5" font-family="Helvetica,sans-Serif" font-size="10.00">FromDB</text>
</a>
</g>
</g>
<!-- Node3&#45;&gt;Node4 -->
<g id="edge3_Node000003_Node000004" class="edge">
<title>Node3&#45;&gt;Node4</title>
<g id="a_edge3_Node000003_Node000004"><a xlink:title=" ">
<path fill="none" stroke="#63b8ff" d="M286.05,-408.04C308.14,-412.83 335.56,-418.77 361.15,-424.31"/>
<polygon fill="#63b8ff" stroke="#63b8ff" points="360.71,-427.8 371.23,-426.49 362.19,-420.96 360.71,-427.8"/>
</a>
</g>
</g>
<!-- Node3&#45;&gt;Node5 -->
<g id="edge4_Node000003_Node000005" class="edge">
<title>Node3&#45;&gt;Node5</title>
<g id="a_edge4_Node000003_Node000005"><a xlink:title=" ">
<path fill="none" stroke="#63b8ff" d="M323.3,-398.5C389.11,-398.5 481.7,-398.5 549.59,-398.5"/>
<polygon fill="#63b8ff" stroke="#63b8ff" points="549.84,-402 559.84,-398.5 549.84,-395 549.84,-402"/>
</a>
</g>
</g>
<!-- Node6&#45;&gt;Node7 -->
<g id="edge6_Node000006_Node000007" class="edge">
<title>Node6&#45;&gt;Node7</title>
<g id="a_edge6_Node000006_Node000007"><a xlink:title=" ">
<path fill="none" stroke="#63b8ff" d="M291.86,-133.08C302.29,-135.67 313.12,-138.81 323,-142.5 356.99,-155.21 393.58,-175.72 416.73,-189.63"/>
<polygon fill="#63b8ff" stroke="#63b8ff" points="415.14,-192.76 425.5,-194.97 418.78,-186.78 415.14,-192.76"/>
</a>
</g>
</g>
<!-- Node8 -->
<g id="Node000008" class="node">
<title>Node8</title>
<g id="a_Node000008"><a xlink:href="classGroup.html#a99a69f1951dab5ffb15454e7934edf01" target="_top" xlink:title=" ">
<polygon fill="white" stroke="#666666" points="699.5,-214 580.5,-214 580.5,-195 699.5,-195 699.5,-214"/>
<text text-anchor="middle" x="640" y="-202" font-family="Helvetica,sans-Serif" font-size="10.00">Group::getGroupType</text>
</a>
</g>
</g>
<!-- Node7&#45;&gt;Node8 -->
<g id="edge7_Node000007_Node000008" class="edge">
<title>Node7&#45;&gt;Node8</title>
<g id="a_edge7_Node000007_Node000008"><a xlink:title=" ">
<path fill="none" stroke="#63b8ff" d="M482.74,-204.5C507.85,-204.5 540.84,-204.5 570.03,-204.5"/>
<polygon fill="#63b8ff" stroke="#63b8ff" points="570.17,-208 580.17,-204.5 570.17,-201 570.17,-208"/>
</a>
</g>
</g>
<!-- Node14 -->
<g id="Node000014" class="node">
<title>Node14</title>
<g id="a_Node000014"><a xlink:href="classInstanceSaved.html#adddb196a349af03034dc054ee602f84a" target="_top" xlink:title=" ">
<polygon fill="white" stroke="#666666" points="524,-370 359,-370 359,-351 524,-351 524,-370"/>
<text text-anchor="middle" x="441.5" y="-358" font-family="Helvetica,sans-Serif" font-size="10.00">InstanceSaved::unloadIfEmpty</text>
</a>
</g>
</g>
<!-- Node13&#45;&gt;Node14 -->
<g id="edge15_Node000013_Node000014" class="edge">
<title>Node13&#45;&gt;Node14</title>
<g id="a_edge15_Node000013_Node000014"><a xlink:title=" ">
<path fill="none" stroke="#63b8ff" d="M321.59,-360.5C330.53,-360.5 339.68,-360.5 348.75,-360.5"/>
<polygon fill="#63b8ff" stroke="#63b8ff" points="348.94,-364 358.94,-360.5 348.94,-357 348.94,-364"/>
</a>
</g>
</g>
<!-- Node14&#45;&gt;Node5 -->
<g id="edge16_Node000014_Node000005" class="edge">
<title>Node14&#45;&gt;Node5</title>
<g id="a_edge16_Node000014_Node000005"><a xlink:title=" ">
<path fill="none" stroke="#63b8ff" d="M491.83,-370.04C518.46,-375.19 551.53,-381.58 579.57,-387.01"/>
<polygon fill="#63b8ff" stroke="#63b8ff" points="579.17,-390.49 589.65,-388.96 580.49,-383.62 579.17,-390.49"/>
</a>
</g>
</g>
<!-- Node14&#45;&gt;Node9 -->
<g id="edge17_Node000014_Node000009" class="edge">
<title>Node14&#45;&gt;Node9</title>
<g id="a_edge17_Node000014_Node000009"><a xlink:title=" ">
<path fill="none" stroke="#63b8ff" d="M524.13,-352.61C535.87,-351.47 547.94,-350.3 559.64,-349.17"/>
<polygon fill="#63b8ff" stroke="#63b8ff" points="560.19,-352.64 569.81,-348.19 559.52,-345.67 560.19,-352.64"/>
</a>
</g>
</g>
<!-- Node16 -->
<g id="Node000016" class="node">
<title>Node16</title>
<g id="a_Node000016"><a xlink:href="classWorldSession.html#a87a1bd80483f57f33a127d12c51d2331" target="_top" xlink:title=" ">
<polygon fill="white" stroke="#666666" points="711.5,-74 568.5,-74 568.5,-55 711.5,-55 711.5,-74"/>
<text text-anchor="middle" x="640" y="-62" font-family="Helvetica,sans-Serif" font-size="10.00">WorldSession::SendPacket</text>
</a>
</g>
</g>
<!-- Node15&#45;&gt;Node16 -->
<g id="edge19_Node000015_Node000016" class="edge">
<title>Node15&#45;&gt;Node16</title>
<g id="a_edge19_Node000015_Node000016"><a xlink:title=" ">
<path fill="none" stroke="#63b8ff" d="M495.68,-64.5C514.92,-64.5 537.11,-64.5 558.19,-64.5"/>
<polygon fill="#63b8ff" stroke="#63b8ff" points="558.43,-68 568.43,-64.5 558.43,-61 558.43,-68"/>
</a>
</g>
</g>
<!-- Node17 -->
<g id="Node000017" class="node">
<title>Node17</title>
<g id="a_Node000017"><a xlink:href="classWorldPacket.html#a3f359b4afd93497038c4f17e1ebd4380" target="_top" xlink:title=" ">
<polygon fill="white" stroke="#666666" points="1066,-102 930,-102 930,-83 1066,-83 1066,-102"/>
<text text-anchor="middle" x="998" y="-90" font-family="Helvetica,sans-Serif" font-size="10.00">WorldPacket::GetOpcode</text>
</a>
</g>
</g>
<!-- Node16&#45;&gt;Node17 -->
<g id="edge20_Node000016_Node000017" class="edge">
<title>Node16&#45;&gt;Node17</title>
<g id="a_edge20_Node000016_Node000017"><a xlink:title=" ">
<path fill="none" stroke="#63b8ff" d="M693.51,-74.01C713.06,-77.21 735.49,-80.48 756,-82.5 810.55,-87.88 872.32,-90.38 919.67,-91.53"/>
<polygon fill="#63b8ff" stroke="#63b8ff" points="919.77,-95.03 929.85,-91.76 919.93,-88.03 919.77,-95.03"/>
</a>
</g>
</g>
<!-- Node18 -->
<g id="Node000018" class="node">
<title>Node18</title>
<g id="a_Node000018"><a xlink:href="classSocket.html#ae3bcf72d932e7b29656d368e81186e6a" target="_top" xlink:title=" ">
<polygon fill="white" stroke="#666666" points="882.5,-74 767.5,-74 767.5,-55 882.5,-55 882.5,-74"/>
<text text-anchor="middle" x="825" y="-62" font-family="Helvetica,sans-Serif" font-size="10.00">Socket::IsConnected</text>
</a>
</g>
</g>
<!-- Node16&#45;&gt;Node18 -->
<g id="edge21_Node000016_Node000018" class="edge">
<title>Node16&#45;&gt;Node18</title>
<g id="a_edge21_Node000016_Node000018"><a xlink:title=" ">
<path fill="none" stroke="#63b8ff" d="M711.75,-64.5C726.71,-64.5 742.44,-64.5 757.24,-64.5"/>
<polygon fill="#63b8ff" stroke="#63b8ff" points="757.32,-68 767.32,-64.5 757.32,-61 757.32,-68"/>
</a>
</g>
</g>
<!-- Node19 -->
<g id="Node000019" class="node">
<title>Node19</title>
<g id="a_Node000019"><a xlink:href="classWorldSocket.html#ab2fb0afb0aaf5d2229fea66a9923637e" target="_top" xlink:title=" ">
<polygon fill="white" stroke="#666666" points="894,-37 756,-37 756,-18 894,-18 894,-37"/>
<text text-anchor="middle" x="825" y="-25" font-family="Helvetica,sans-Serif" font-size="10.00">WorldSocket::SendPacket</text>
</a>
</g>
</g>
<!-- Node16&#45;&gt;Node19 -->
<g id="edge22_Node000016_Node000019" class="edge">
<title>Node16&#45;&gt;Node19</title>
<g id="a_edge22_Node000016_Node000019"><a xlink:title=" ">
<path fill="none" stroke="#63b8ff" d="M688.13,-54.97C712.15,-50.11 741.57,-44.17 766.88,-39.05"/>
<polygon fill="#63b8ff" stroke="#63b8ff" points="767.61,-42.47 776.71,-37.06 766.22,-35.61 767.61,-42.47"/>
</a>
</g>
</g>
<!-- Node19&#45;&gt;Node17 -->
<g id="edge24_Node000019_Node000017" class="edge">
<title>Node19&#45;&gt;Node17</title>
<g id="a_edge24_Node000019_Node000017"><a xlink:title=" ">
<path fill="none" stroke="#63b8ff" d="M868.19,-37.07C876.85,-39.48 885.81,-42.3 894,-45.5 910.85,-52.08 913.64,-56.78 930,-64.5 940.65,-69.52 952.45,-74.61 963.14,-79.04"/>
<polygon fill="#63b8ff" stroke="#63b8ff" points="962,-82.36 972.58,-82.91 964.65,-75.88 962,-82.36"/>
</a>
</g>
</g>
<!-- Node20 -->
<g id="Node000020" class="node">
<title>Node20</title>
<g id="a_Node000020"><a xlink:href="classByteBuffer.html#a8d712af2767c7ca45de60bd9d85738d8" target="_top" xlink:title=" ">
<polygon fill="white" stroke="#666666" points="1056,-19 940,-19 940,0 1056,0 1056,-19"/>
<text text-anchor="middle" x="998" y="-7" font-family="Helvetica,sans-Serif" font-size="10.00">ByteBuffer::contents</text>
</a>
</g>
</g>
<!-- Node19&#45;&gt;Node20 -->
<g id="edge23_Node000019_Node000020" class="edge">
<title>Node19&#45;&gt;Node20</title>
<g id="a_edge23_Node000019_Node000020"><a xlink:title=" ">
<path fill="none" stroke="#63b8ff" d="M894.08,-20.33C905.82,-19.1 918.02,-17.81 929.74,-16.58"/>
<polygon fill="#63b8ff" stroke="#63b8ff" points="930.31,-20.04 939.89,-15.51 929.58,-13.08 930.31,-20.04"/>
</a>
</g>
</g>
<!-- Node21 -->
<g id="Node000021" class="node">
<title>Node21</title>
<g id="a_Node000021"><a xlink:href="classByteBuffer.html#ac06a598447807d32f6594a97a32bce94" target="_top" xlink:title=" ">
<polygon fill="white" stroke="#666666" points="1045,-56 951,-56 951,-37 1045,-37 1045,-56"/>
<text text-anchor="middle" x="998" y="-44" font-family="Helvetica,sans-Serif" font-size="10.00">ByteBuffer::size</text>
</a>
</g>
</g>
<!-- Node19&#45;&gt;Node21 -->
<g id="edge25_Node000019_Node000021" class="edge">
<title>Node19&#45;&gt;Node21</title>
<g id="a_edge25_Node000019_Node000021"><a xlink:title=" ">
<path fill="none" stroke="#63b8ff" d="M894.08,-35.06C909.59,-36.79 925.9,-38.6 940.85,-40.26"/>
<polygon fill="#63b8ff" stroke="#63b8ff" points="940.63,-43.76 950.96,-41.38 941.4,-36.8 940.63,-43.76"/>
</a>
</g>
</g>
<!-- Node22&#45;&gt;Node15 -->
<g id="edge27_Node000022_Node000015" class="edge">
<title>Node22&#45;&gt;Node15</title>
<g id="a_edge27_Node000022_Node000015"><a xlink:title=" ">
<path fill="none" stroke="#63b8ff" d="M314.22,-50.5C334.9,-52.8 357.26,-55.27 377.35,-57.5"/>
<polygon fill="#63b8ff" stroke="#63b8ff" points="376.99,-60.98 387.31,-58.61 377.76,-54.02 376.99,-60.98"/>
</a>
</g>
</g>
</g>
</svg>
