<?xml version="1.0" encoding="UTF-8" standalone="no"?>
<!DOCTYPE svg PUBLIC "-//W3C//DTD SVG 1.1//EN"
 "http://www.w3.org/Graphics/SVG/1.1/DTD/svg11.dtd">
<!-- Generated by graphviz version 2.43.0 (0)
 -->
<!-- Title: Player::getFactionStandingRank Pages: 1 -->
<svg width="362pt" height="76pt"
 viewBox="0.00 0.00 362.00 75.50" xmlns="http://www.w3.org/2000/svg" xmlns:xlink="http://www.w3.org/1999/xlink">
<g id="graph0" class="graph" transform="scale(1 1) rotate(0) translate(4 71.5)">
<title>Player::getFactionStandingRank</title>
<!-- Node1 -->
<g id="Node000001" class="node">
<title>Node1</title>
<g id="a_Node000001"><a xlink:title=" ">
<polygon fill="#999999" stroke="#666666" points="171,-45.5 0,-45.5 0,-26.5 171,-26.5 171,-45.5"/>
<text text-anchor="middle" x="85.5" y="-33.5" font-family="Helvetica,sans-Serif" font-size="10.00">Player::getFactionStandingRank</text>
</a>
</g>
</g>
<!-- Node2 -->
<g id="Node000002" class="node">
<title>Node2</title>
<g id="a_Node000002"><a xlink:href="classPlayer.html#aba80d5a643723fb5982b12670823c2de" target="_top" xlink:title=" ">
<polygon fill="white" stroke="#666666" points="353.5,-67.5 207.5,-67.5 207.5,-48.5 353.5,-48.5 353.5,-67.5"/>
<text text-anchor="middle" x="280.5" y="-55.5" font-family="Helvetica,sans-Serif" font-size="10.00">Player::getFactionStanding</text>
</a>
</g>
</g>
<!-- Node1&#45;&gt;Node2 -->
<g id="edge1_Node000001_Node000002" class="edge">
<title>Node1&#45;&gt;Node2</title>
<g id="a_edge1_Node000001_Node000002"><a xlink:title=" ">
<path fill="none" stroke="#63b8ff" d="M170.03,-45.52C179.06,-46.55 188.25,-47.6 197.26,-48.63"/>
<polygon fill="#63b8ff" stroke="#63b8ff" points="197.02,-52.12 207.35,-49.78 197.81,-45.17 197.02,-52.12"/>
</a>
</g>
</g>
<!-- Node3 -->
<g id="Node000003" class="node">
<title>Node3</title>
<g id="a_Node000003"><a xlink:href="classPlayer.html#a008c509cd534f9a5d8279d1c2198246a" target="_top" xlink:title=" ">
<polygon fill="white" stroke="#666666" points="354,-30 207,-30 207,0 354,0 354,-30"/>
<text text-anchor="start" x="215" y="-18" font-family="Helvetica,sans-Serif" font-size="10.00">Player::getReputationRank</text>
<text text-anchor="middle" x="280.5" y="-7" font-family="Helvetica,sans-Serif" font-size="10.00">FromStanding</text>
</a>
</g>
</g>
<!-- Node1&#45;&gt;Node3 -->
<g id="edge2_Node000001_Node000003" class="edge">
<title>Node1&#45;&gt;Node3</title>
<g id="a_edge2_Node000001_Node000003"><a xlink:title=" ">
<path fill="none" stroke="#63b8ff" d="M171.15,-26.79C179.74,-25.85 188.46,-24.91 197.03,-23.97"/>
<polygon fill="#63b8ff" stroke="#63b8ff" points="197.43,-27.45 207,-22.89 196.68,-20.49 197.43,-27.45"/>
</a>
</g>
</g>
</g>
</svg>
