<?xml version="1.0" encoding="UTF-8" standalone="no"?>
<!DOCTYPE svg PUBLIC "-//W3C//DTD SVG 1.1//EN"
 "http://www.w3.org/Graphics/SVG/1.1/DTD/svg11.dtd">
<!-- Generated by graphviz version 2.43.0 (0)
 -->
<!-- Title: Spell::SpellEffectQuestComplete Pages: 1 -->
<svg width="383pt" height="64pt"
 viewBox="0.00 0.00 383.00 64.00" xmlns="http://www.w3.org/2000/svg" xmlns:xlink="http://www.w3.org/1999/xlink">
<g id="graph0" class="graph" transform="scale(1 1) rotate(0) translate(4 60)">
<title>Spell::SpellEffectQuestComplete</title>
<!-- Node1 -->
<g id="Node000001" class="node">
<title>Node1</title>
<g id="a_Node000001"><a xlink:title=" ">
<polygon fill="#999999" stroke="#666666" points="174,-37 0,-37 0,-18 174,-18 174,-37"/>
<text text-anchor="middle" x="87" y="-25" font-family="Helvetica,sans-Serif" font-size="10.00">Spell::SpellEffectQuestComplete</text>
</a>
</g>
</g>
<!-- Node2 -->
<g id="Node000002" class="node">
<title>Node2</title>
<g id="a_Node000002"><a xlink:href="classPlayer.html#aaa3ccb5fdef21b0a171ef321312c089d" target="_top" xlink:title=" ">
<polygon fill="white" stroke="#666666" points="375,-56 210,-56 210,-37 375,-37 375,-56"/>
<text text-anchor="middle" x="292.5" y="-44" font-family="Helvetica,sans-Serif" font-size="10.00">Player::getQuestLogByQuestId</text>
</a>
</g>
</g>
<!-- Node1&#45;&gt;Node2 -->
<g id="edge1_Node000001_Node000002" class="edge">
<title>Node1&#45;&gt;Node2</title>
<g id="a_edge1_Node000001_Node000002"><a xlink:title=" ">
<path fill="none" stroke="#63b8ff" d="M174.01,-35.53C182.51,-36.32 191.15,-37.13 199.71,-37.93"/>
<polygon fill="#63b8ff" stroke="#63b8ff" points="199.41,-41.42 209.69,-38.86 200.06,-34.45 199.41,-41.42"/>
</a>
</g>
</g>
<!-- Node3 -->
<g id="Node000003" class="node">
<title>Node3</title>
<g id="a_Node000003"><a xlink:href="classSpell.html#a31ea380b4c8a3126724742c792b53638" target="_top" xlink:title=" ">
<polygon fill="white" stroke="#666666" points="345,-19 240,-19 240,0 345,0 345,-19"/>
<text text-anchor="middle" x="292.5" y="-7" font-family="Helvetica,sans-Serif" font-size="10.00">Spell::getSpellInfo</text>
</a>
</g>
</g>
<!-- Node1&#45;&gt;Node3 -->
<g id="edge2_Node000001_Node000003" class="edge">
<title>Node1&#45;&gt;Node3</title>
<g id="a_edge2_Node000001_Node000003"><a xlink:title=" ">
<path fill="none" stroke="#63b8ff" d="M174.01,-19.89C192.78,-18.23 212.28,-16.51 229.88,-14.95"/>
<polygon fill="#63b8ff" stroke="#63b8ff" points="230.35,-18.42 240,-14.06 229.73,-11.45 230.35,-18.42"/>
</a>
</g>
</g>
</g>
</svg>
