<?xml version="1.0" encoding="UTF-8" standalone="no"?>
<!DOCTYPE svg PUBLIC "-//W3C//DTD SVG 1.1//EN"
 "http://www.w3.org/Graphics/SVG/1.1/DTD/svg11.dtd">
<!-- Generated by graphviz version 2.43.0 (0)
 -->
<!-- Title: Spell::HandleTargetNoObject Pages: 1 -->
<!--zoomable 674 -->

<svg id="main" version="1.1" xmlns="http://www.w3.org/2000/svg" xmlns:xlink="http://www.w3.org/1999/xlink" xml:space="preserve" onload="init(evt)">
<style type="text/css"><![CDATA[
.node, .edge {opacity: 0.7;}
.node.selected, .edge.selected {opacity: 1;}
.edge:hover path { stroke: red; }
.edge:hover polygon { stroke: red; fill: red; }
]]></style>

<defs>
  <circle id="rim" cx="0" cy="0" r="7"/>
  <circle id="rim2" cx="0" cy="0" r="3.5"/>
  <g id="zoomPlus">
    <use xlink:href="#rim" fill="#404040"><set attributeName="fill" to="#808080" begin="zoomplus.mouseover" end="zoomplus.mouseout"/></use>
    <path d="M-4,0h8M0,-4v8" fill="none" stroke="white" stroke-width="1.5" pointer-events="none"/>
  </g>
  <g id="zoomMin">
    <use xlink:href="#rim" fill="#404040"><set attributeName="fill" to="#808080" begin="zoomminus.mouseover" end="zoomminus.mouseout"/></use>
    <path d="M-4,0h8" fill="none" stroke="white" stroke-width="1.5" pointer-events="none"/>
  </g>
  <g id="arrowUp" transform="translate(30 24)">
    <use xlink:href="#rim"/>
    <path pointer-events="none" fill="none" stroke="white" stroke-width="1.5" d="M0,-3.0v7 M-2.5,-0.5L0,-3.0L2.5,-0.5"/>
  </g>
  <g id="arrowRight" transform="rotate(90) translate(36 -43)">
    <use xlink:href="#rim"/>
    <path pointer-events="none" fill="none" stroke="white" stroke-width="1.5" d="M0,-3.0v7 M-2.5,-0.5L0,-3.0L2.5,-0.5"/>
  </g>
  <g id="arrowDown" transform="rotate(180) translate(-30 -48)">
    <use xlink:href="#rim"/>
    <path pointer-events="none" fill="none" stroke="white" stroke-width="1.5" d="M0,-3.0v7 M-2.5,-0.5L0,-3.0L2.5,-0.5"/>
  </g>
  <g id="arrowLeft" transform="rotate(270) translate(-36 17)">
    <use xlink:href="#rim"/>
    <path pointer-events="none" fill="none" stroke="white" stroke-width="1.5" d="M0,-3.0v7 M-2.5,-0.5L0,-3.0L2.5,-0.5"/>
  </g>
  <g id="resetDef">
    <use xlink:href="#rim2" fill="#404040"><set attributeName="fill" to="#808080" begin="reset.mouseover" end="reset.mouseout"/></use>
  </g>
</defs>
<script type="application/ecmascript">
var viewWidth = 957;
var viewHeight = 674;
var sectionId = 'dynsection-124';
</script>
<script type="application/ecmascript" xlink:href="svg.min.js"/>
<svg id="graph" class="graph">
<g id="viewport">
<title>Spell::HandleTargetNoObject</title>
<!-- Node1 -->
<g id="Node000001" class="node">
<title>Node1</title>
<g id="a_Node000001"><a xlink:title=" ">
<polygon fill="#999999" stroke="#666666" points="156,-453 0,-453 0,-434 156,-434 156,-453"/>
<text text-anchor="middle" x="78" y="-441" font-family="Helvetica,sans-Serif" font-size="10.00">Spell::HandleTargetNoObject</text>
</a>
</g>
</g>
<!-- Node2 -->
<g id="Node000002" class="node">
<title>Node2</title>
<g id="a_Node000002"><a xlink:href="classSpellCastTargets.html#a1b018df13fbac9d3e8454740a7d3e513" target="_top" xlink:title=" ">
<polygon fill="white" stroke="#666666" points="581,-629 403,-629 403,-610 581,-610 581,-629"/>
<text text-anchor="middle" x="492" y="-617" font-family="Helvetica,sans-Serif" font-size="10.00">SpellCastTargets::addTargetMask</text>
</a>
</g>
</g>
<!-- Node1&#45;&gt;Node2 -->
<g id="edge1_Node000001_Node000002" class="edge">
<title>Node1&#45;&gt;Node2</title>
<g id="a_edge1_Node000001_Node000002"><a xlink:title=" ">
<path fill="none" stroke="#63b8ff" d="M83.36,-453.33C95.81,-480.14 134.43,-554.6 192,-586.5 252.91,-620.25 331.47,-627.79 392.78,-627.28"/>
<polygon fill="#63b8ff" stroke="#63b8ff" points="392.91,-630.78 402.86,-627.12 392.8,-623.78 392.91,-630.78"/>
</a>
</g>
</g>
<!-- Node5 -->
<g id="Node000005" class="node">
<title>Node5</title>
<g id="a_Node000005"><a xlink:href="classObject.html#ab393d0fe4b8808aa0cad0c8580ad135d" target="_top" xlink:title=" ">
<polygon fill="white" stroke="#666666" points="341,-485 218,-485 218,-466 341,-466 341,-485"/>
<text text-anchor="middle" x="279.5" y="-473" font-family="Helvetica,sans-Serif" font-size="10.00">Object::getMapHeight</text>
</a>
</g>
</g>
<!-- Node1&#45;&gt;Node5 -->
<g id="edge4_Node000001_Node000005" class="edge">
<title>Node1&#45;&gt;Node5</title>
<g id="a_edge4_Node000001_Node000005"><a xlink:title=" ">
<path fill="none" stroke="#63b8ff" d="M138.32,-453.01C160.53,-456.58 185.96,-460.66 209.01,-464.35"/>
<polygon fill="#63b8ff" stroke="#63b8ff" points="208.64,-467.84 219.07,-465.97 209.75,-460.93 208.64,-467.84"/>
</a>
</g>
</g>
<!-- Node14 -->
<g id="Node000014" class="node">
<title>Node14</title>
<g id="a_Node000014"><a xlink:href="classObject.html#a32f797d43ca1c795f18fe5da319edf0d" target="_top" xlink:title=" ">
<polygon fill="white" stroke="#666666" points="342.5,-522 216.5,-522 216.5,-503 342.5,-503 342.5,-522"/>
<text text-anchor="middle" x="279.5" y="-510" font-family="Helvetica,sans-Serif" font-size="10.00">Object::GetOrientation</text>
</a>
</g>
</g>
<!-- Node1&#45;&gt;Node14 -->
<g id="edge13_Node000001_Node000014" class="edge">
<title>Node1&#45;&gt;Node14</title>
<g id="a_edge13_Node000001_Node000014"><a xlink:title=" ">
<path fill="none" stroke="#63b8ff" d="M96.91,-453.07C118.79,-464.4 157.21,-483.18 192,-494.5 199,-496.78 206.41,-498.83 213.84,-500.67"/>
<polygon fill="#63b8ff" stroke="#63b8ff" points="213.04,-504.08 223.58,-502.96 214.64,-497.26 213.04,-504.08"/>
</a>
</g>
</g>
<!-- Node15 -->
<g id="Node000015" class="node">
<title>Node15</title>
<g id="a_Node000015"><a xlink:href="classObject.html#a86d65d3e698fa64f7ba3ac898dad3ba0" target="_top" xlink:title=" ">
<polygon fill="white" stroke="#666666" points="763.5,-352 646.5,-352 646.5,-333 763.5,-333 763.5,-352"/>
<text text-anchor="middle" x="705" y="-340" font-family="Helvetica,sans-Serif" font-size="10.00">Object::GetPositionX</text>
</a>
</g>
</g>
<!-- Node1&#45;&gt;Node15 -->
<g id="edge14_Node000001_Node000015" class="edge">
<title>Node1&#45;&gt;Node15</title>
<g id="a_edge14_Node000001_Node000015"><a xlink:title=" ">
<path fill="none" stroke="#63b8ff" d="M101.81,-433.83C124.54,-424.28 160.5,-409.43 192,-397.5 284.94,-362.31 305.03,-340.18 403,-323.5 480.99,-310.22 502.12,-317.44 581,-323.5 601.64,-325.08 624.06,-328.14 644.04,-331.35"/>
<polygon fill="#63b8ff" stroke="#63b8ff" points="643.5,-334.81 653.93,-332.99 644.64,-327.91 643.5,-334.81"/>
</a>
</g>
</g>
<!-- Node16 -->
<g id="Node000016" class="node">
<title>Node16</title>
<g id="a_Node000016"><a xlink:href="classObject.html#af5cb4bc9ecb20cf640a58bf23da23d19" target="_top" xlink:title=" ">
<polygon fill="white" stroke="#666666" points="763,-315 647,-315 647,-296 763,-296 763,-315"/>
<text text-anchor="middle" x="705" y="-303" font-family="Helvetica,sans-Serif" font-size="10.00">Object::GetPositionY</text>
</a>
</g>
</g>
<!-- Node1&#45;&gt;Node16 -->
<g id="edge15_Node000001_Node000016" class="edge">
<title>Node1&#45;&gt;Node16</title>
<g id="a_edge15_Node000001_Node000016"><a xlink:title=" ">
<path fill="none" stroke="#63b8ff" d="M84.87,-433.73C99.51,-410.39 140.24,-351.54 192,-327.5 343.2,-257.29 547.34,-278.07 645.94,-294.26"/>
<polygon fill="#63b8ff" stroke="#63b8ff" points="645.56,-297.74 656,-295.95 646.72,-290.84 645.56,-297.74"/>
</a>
</g>
</g>
<!-- Node17 -->
<g id="Node000017" class="node">
<title>Node17</title>
<g id="a_Node000017"><a xlink:href="classObject.html#a9c3cfe65940e81ae45107eaafd57d1dc" target="_top" xlink:title=" ">
<polygon fill="white" stroke="#666666" points="763.5,-19 646.5,-19 646.5,0 763.5,0 763.5,-19"/>
<text text-anchor="middle" x="705" y="-7" font-family="Helvetica,sans-Serif" font-size="10.00">Object::GetPositionZ</text>
</a>
</g>
</g>
<!-- Node1&#45;&gt;Node17 -->
<g id="edge16_Node000001_Node000017" class="edge">
<title>Node1&#45;&gt;Node17</title>
<g id="a_edge16_Node000001_Node000017"><a xlink:title=" ">
<path fill="none" stroke="#63b8ff" d="M83.69,-433.93C97.29,-406.92 139.19,-328.83 192,-279.5 352.48,-129.6 412.23,-106.83 617,-27.5 623.18,-25.1 629.75,-23.01 636.38,-21.17"/>
<polygon fill="#63b8ff" stroke="#63b8ff" points="637.31,-24.55 646.13,-18.67 635.57,-17.77 637.31,-24.55"/>
</a>
</g>
</g>
<!-- Node18 -->
<g id="Node000018" class="node">
<title>Node18</title>
<g id="a_Node000018"><a xlink:href="classObject.html#aed47949224d7af94c39abfbbd4c15772" target="_top" xlink:title=" ">
<polygon fill="white" stroke="#666666" points="336,-426 223,-426 223,-407 336,-407 336,-426"/>
<text text-anchor="middle" x="279.5" y="-414" font-family="Helvetica,sans-Serif" font-size="10.00">Object::IsWithinLOS</text>
</a>
</g>
</g>
<!-- Node1&#45;&gt;Node18 -->
<g id="edge17_Node000001_Node000018" class="edge">
<title>Node1&#45;&gt;Node18</title>
<g id="a_edge17_Node000001_Node000018"><a xlink:title=" ">
<path fill="none" stroke="#63b8ff" d="M149.34,-433.98C169.97,-431.19 192.45,-428.15 212.78,-425.39"/>
<polygon fill="#63b8ff" stroke="#63b8ff" points="213.44,-428.84 222.88,-424.03 212.5,-421.9 213.44,-428.84"/>
</a>
</g>
</g>
<!-- Node34 -->
<g id="Node000034" class="node">
<title>Node34</title>
<g id="a_Node000034"><a xlink:href="classSpellCastTargets.html#a3ff8446a2c24f038a18cf60291449486" target="_top" xlink:title=" ">
<polygon fill="white" stroke="#666666" points="367,-577 192,-577 192,-558 367,-558 367,-577"/>
<text text-anchor="middle" x="279.5" y="-565" font-family="Helvetica,sans-Serif" font-size="10.00">SpellCastTargets::setDestination</text>
</a>
</g>
</g>
<!-- Node1&#45;&gt;Node34 -->
<g id="edge42_Node000001_Node000034" class="edge">
<title>Node1&#45;&gt;Node34</title>
<g id="a_edge42_Node000001_Node000034"><a xlink:title=" ">
<path fill="none" stroke="#63b8ff" d="M89.22,-453.01C108.27,-470.36 150.98,-507.57 192,-531.5 207.36,-540.46 225.37,-548.33 240.97,-554.41"/>
<polygon fill="#63b8ff" stroke="#63b8ff" points="239.74,-557.68 250.33,-557.96 242.22,-551.14 239.74,-557.68"/>
</a>
</g>
</g>
<!-- Node3 -->
<g id="Node000003" class="node">
<title>Node3</title>
<g id="a_Node000003"><a xlink:href="classSpellCastTargets.html#af29ba7f8180d7dad07136a46c81d446a" target="_top" xlink:title=" ">
<polygon fill="white" stroke="#666666" points="793,-666 617,-666 617,-647 793,-647 793,-666"/>
<text text-anchor="middle" x="705" y="-654" font-family="Helvetica,sans-Serif" font-size="10.00">SpellCastTargets::getTargetMask</text>
</a>
</g>
</g>
<!-- Node2&#45;&gt;Node3 -->
<g id="edge2_Node000002_Node000003" class="edge">
<title>Node2&#45;&gt;Node3</title>
<g id="a_edge2_Node000002_Node000003"><a xlink:title=" ">
<path fill="none" stroke="#63b8ff" d="M547.34,-629.03C575.41,-633.95 609.86,-639.99 639.29,-645.15"/>
<polygon fill="#63b8ff" stroke="#63b8ff" points="639.03,-648.66 649.48,-646.94 640.23,-641.76 639.03,-648.66"/>
</a>
</g>
</g>
<!-- Node4 -->
<g id="Node000004" class="node">
<title>Node4</title>
<g id="a_Node000004"><a xlink:href="classSpellCastTargets.html#ab4a95e1a2cac2ba9f1cbbdd89feed7f6" target="_top" xlink:title=" ">
<polygon fill="white" stroke="#666666" points="792.5,-629 617.5,-629 617.5,-610 792.5,-610 792.5,-629"/>
<text text-anchor="middle" x="705" y="-617" font-family="Helvetica,sans-Serif" font-size="10.00">SpellCastTargets::setTargetMask</text>
</a>
</g>
</g>
<!-- Node2&#45;&gt;Node4 -->
<g id="edge3_Node000002_Node000004" class="edge">
<title>Node2&#45;&gt;Node4</title>
<g id="a_edge3_Node000002_Node000004"><a xlink:title=" ">
<path fill="none" stroke="#63b8ff" d="M581.26,-619.5C589.86,-619.5 598.63,-619.5 607.31,-619.5"/>
<polygon fill="#63b8ff" stroke="#63b8ff" points="607.45,-623 617.45,-619.5 607.45,-616 607.45,-623"/>
</a>
</g>
</g>
<!-- Node6 -->
<g id="Node000006" class="node">
<title>Node6</title>
<g id="a_Node000006"><a xlink:href="classObject.html#ae67d92dd326286d127e5eec6af0cb123" target="_top" xlink:title=" ">
<polygon fill="white" stroke="#666666" points="564,-481 420,-481 420,-462 564,-462 564,-481"/>
<text text-anchor="middle" x="492" y="-469" font-family="Helvetica,sans-Serif" font-size="10.00">Object::getCollisionHeight</text>
</a>
</g>
</g>
<!-- Node5&#45;&gt;Node6 -->
<g id="edge5_Node000005_Node000006" class="edge">
<title>Node5&#45;&gt;Node6</title>
<g id="a_edge5_Node000005_Node000006"><a xlink:title=" ">
<path fill="none" stroke="#63b8ff" d="M341.1,-474.35C362.47,-473.94 386.86,-473.48 409.67,-473.05"/>
<polygon fill="#63b8ff" stroke="#63b8ff" points="409.74,-476.54 419.67,-472.86 409.61,-469.55 409.74,-476.54"/>
</a>
</g>
</g>
<!-- Node7 -->
<g id="Node000007" class="node">
<title>Node7</title>
<g id="a_Node000007"><a xlink:href="classWorldMap.html#a3505e58a0520ae1fa70b187a5ba288d8" target="_top" xlink:title=" ">
<polygon fill="white" stroke="#666666" points="551.5,-592 432.5,-592 432.5,-573 551.5,-573 551.5,-592"/>
<text text-anchor="middle" x="492" y="-580" font-family="Helvetica,sans-Serif" font-size="10.00">WorldMap::getHeight</text>
</a>
</g>
</g>
<!-- Node5&#45;&gt;Node7 -->
<g id="edge6_Node000005_Node000007" class="edge">
<title>Node5&#45;&gt;Node7</title>
<g id="a_edge6_Node000005_Node000007"><a xlink:title=" ">
<path fill="none" stroke="#63b8ff" d="M341.22,-481.68C350.48,-484.57 359.45,-488.69 367,-494.5 394.72,-515.84 375.12,-543.36 403,-564.5 408.89,-568.97 415.63,-572.4 422.68,-575.03"/>
<polygon fill="#63b8ff" stroke="#63b8ff" points="421.87,-578.44 432.46,-578.12 423.98,-571.77 421.87,-578.44"/>
</a>
</g>
</g>
<!-- Node12 -->
<g id="Node000012" class="node">
<title>Node12</title>
<g id="a_Node000012"><a xlink:href="classObject.html#ab32822d3603e26f4a51e881215d49520" target="_top" xlink:title=" ">
<polygon fill="white" stroke="#666666" points="542.5,-555 441.5,-555 441.5,-536 542.5,-536 542.5,-555"/>
<text text-anchor="middle" x="492" y="-543" font-family="Helvetica,sans-Serif" font-size="10.00">Object::GetPhase</text>
</a>
</g>
</g>
<!-- Node5&#45;&gt;Node12 -->
<g id="edge11_Node000005_Node000012" class="edge">
<title>Node5&#45;&gt;Node12</title>
<g id="a_edge11_Node000005_Node000012"><a xlink:title=" ">
<path fill="none" stroke="#63b8ff" d="M341.03,-484.51C350.02,-487.05 358.95,-490.32 367,-494.5 386.26,-504.51 383.67,-517.63 403,-527.5 411.85,-532.02 421.76,-535.4 431.64,-537.94"/>
<polygon fill="#63b8ff" stroke="#63b8ff" points="430.94,-541.37 441.47,-540.2 432.51,-534.55 430.94,-541.37"/>
</a>
</g>
</g>
<!-- Node13 -->
<g id="Node000013" class="node">
<title>Node13</title>
<g id="a_Node000013"><a xlink:href="classObject.html#a967af054c54b6d9846637ce8718efd75" target="_top" xlink:title=" ">
<polygon fill="white" stroke="#666666" points="551.5,-518 432.5,-518 432.5,-499 551.5,-499 551.5,-518"/>
<text text-anchor="middle" x="492" y="-506" font-family="Helvetica,sans-Serif" font-size="10.00">Object::getWorldMap</text>
</a>
</g>
</g>
<!-- Node5&#45;&gt;Node13 -->
<g id="edge12_Node000005_Node000013" class="edge">
<title>Node5&#45;&gt;Node13</title>
<g id="a_edge12_Node000005_Node000013"><a xlink:title=" ">
<path fill="none" stroke="#63b8ff" d="M341.1,-485C366.41,-488.97 395.94,-493.6 422.07,-497.69"/>
<polygon fill="#63b8ff" stroke="#63b8ff" points="421.85,-501.2 432.27,-499.29 422.94,-494.29 421.85,-501.2"/>
</a>
</g>
</g>
<!-- Node8 -->
<g id="Node000008" class="node">
<title>Node8</title>
<g id="a_Node000008"><a xlink:href="classVMAP_1_1VMapFactory.html#a0695b6843f1ad9baf4cd33b115357404" target="_top" xlink:title=" ">
<polygon fill="white" stroke="#666666" points="778,-493.5 632,-493.5 632,-463.5 778,-463.5 778,-493.5"/>
<text text-anchor="start" x="640" y="-481.5" font-family="Helvetica,sans-Serif" font-size="10.00">VMAP::VMapFactory::</text>
<text text-anchor="middle" x="705" y="-470.5" font-family="Helvetica,sans-Serif" font-size="10.00">createOrGetVMapManager</text>
</a>
</g>
</g>
<!-- Node7&#45;&gt;Node8 -->
<g id="edge7_Node000007_Node000008" class="edge">
<title>Node7&#45;&gt;Node8</title>
<g id="a_edge7_Node000007_Node000008"><a xlink:title=" ">
<path fill="none" stroke="#63b8ff" d="M551.96,-576.35C562.12,-573.67 572.22,-569.87 581,-564.5 602.85,-551.14 596.9,-535.37 617,-519.5 627.76,-511.01 640.56,-503.75 652.99,-497.8"/>
<polygon fill="#63b8ff" stroke="#63b8ff" points="654.74,-500.85 662.38,-493.51 651.83,-494.48 654.74,-500.85"/>
</a>
</g>
</g>
<!-- Node9 -->
<g id="Node000009" class="node">
<title>Node9</title>
<g id="a_Node000009"><a xlink:href="classWorldMap.html#a4ddb28ddb4377bb52da40c205094f0af" target="_top" xlink:title=" ">
<polygon fill="white" stroke="#666666" points="771,-547 639,-547 639,-528 771,-528 771,-547"/>
<text text-anchor="middle" x="705" y="-535" font-family="Helvetica,sans-Serif" font-size="10.00">WorldMap::getBaseMap</text>
</a>
</g>
</g>
<!-- Node7&#45;&gt;Node9 -->
<g id="edge8_Node000007_Node000009" class="edge">
<title>Node7&#45;&gt;Node9</title>
<g id="a_edge8_Node000007_Node000009"><a xlink:title=" ">
<path fill="none" stroke="#63b8ff" d="M540.52,-572.91C553.64,-570.23 567.88,-567.28 581,-564.5 604.08,-559.61 629.56,-554.04 651.31,-549.24"/>
<polygon fill="#63b8ff" stroke="#63b8ff" points="652.33,-552.6 661.34,-547.02 650.82,-545.76 652.33,-552.6"/>
</a>
</g>
</g>
<!-- Node10 -->
<g id="Node000010" class="node">
<title>Node10</title>
<g id="a_Node000010"><a xlink:href="classWorldMap.html#a5f4b1c25201233cdbdb5d4f0d0ce1c40" target="_top" xlink:title=" ">
<polygon fill="white" stroke="#666666" points="775,-592 635,-592 635,-573 775,-573 775,-592"/>
<text text-anchor="middle" x="705" y="-580" font-family="Helvetica,sans-Serif" font-size="10.00">WorldMap::getGridHeight</text>
</a>
</g>
</g>
<!-- Node7&#45;&gt;Node10 -->
<g id="edge9_Node000007_Node000010" class="edge">
<title>Node7&#45;&gt;Node10</title>
<g id="a_edge9_Node000007_Node000010"><a xlink:title=" ">
<path fill="none" stroke="#63b8ff" d="M551.78,-582.5C574.29,-582.5 600.36,-582.5 624.49,-582.5"/>
<polygon fill="#63b8ff" stroke="#63b8ff" points="624.7,-586 634.7,-582.5 624.7,-579 624.7,-586"/>
</a>
</g>
</g>
<!-- Node11 -->
<g id="Node000011" class="node">
<title>Node11</title>
<g id="a_Node000011"><a xlink:href="classWorldMap.html#abcb6d3ec6412709005f5dbacea6e4b8d" target="_top" xlink:title=" ">
<polygon fill="white" stroke="#666666" points="949,-592 829,-592 829,-573 949,-573 949,-592"/>
<text text-anchor="middle" x="889" y="-580" font-family="Helvetica,sans-Serif" font-size="10.00">WorldMap::getTerrain</text>
</a>
</g>
</g>
<!-- Node10&#45;&gt;Node11 -->
<g id="edge10_Node000010_Node000011" class="edge">
<title>Node10&#45;&gt;Node11</title>
<g id="a_edge10_Node000010_Node000011"><a xlink:title=" ">
<path fill="none" stroke="#63b8ff" d="M775.07,-582.5C789.31,-582.5 804.31,-582.5 818.57,-582.5"/>
<polygon fill="#63b8ff" stroke="#63b8ff" points="818.79,-586 828.79,-582.5 818.79,-579 818.79,-586"/>
</a>
</g>
</g>
<!-- Node18&#45;&gt;Node6 -->
<g id="edge18_Node000018_Node000006" class="edge">
<title>Node18&#45;&gt;Node6</title>
<g id="a_edge18_Node000018_Node000006"><a xlink:title=" ">
<path fill="none" stroke="#63b8ff" d="M309.5,-426.08C334.19,-434.04 370.69,-445.33 403,-453.5 411.77,-455.72 421.09,-457.85 430.25,-459.83"/>
<polygon fill="#63b8ff" stroke="#63b8ff" points="429.59,-463.27 440.1,-461.91 431.04,-456.42 429.59,-463.27"/>
</a>
</g>
</g>
<!-- Node18&#45;&gt;Node12 -->
<g id="edge31_Node000018_Node000012" class="edge">
<title>Node18&#45;&gt;Node12</title>
<g id="a_edge31_Node000018_Node000012"><a xlink:title=" ">
<path fill="none" stroke="#63b8ff" d="M312.71,-426.06C330.43,-432.61 351.84,-442.82 367,-457.5 392.13,-481.83 375.12,-506.36 403,-527.5 411.29,-533.78 421.23,-538.01 431.4,-540.84"/>
<polygon fill="#63b8ff" stroke="#63b8ff" points="430.64,-544.25 441.17,-543.13 432.24,-537.44 430.64,-544.25"/>
</a>
</g>
</g>
<!-- Node18&#45;&gt;Node13 -->
<g id="edge33_Node000018_Node000013" class="edge">
<title>Node18&#45;&gt;Node13</title>
<g id="a_edge33_Node000018_Node000013"><a xlink:title=" ">
<path fill="none" stroke="#63b8ff" d="M305.8,-426.13C323.64,-433.47 347.7,-444.51 367,-457.5 385.01,-469.62 383.67,-480.63 403,-490.5 409.07,-493.6 415.62,-496.16 422.33,-498.28"/>
<polygon fill="#63b8ff" stroke="#63b8ff" points="421.64,-501.72 432.22,-501.09 423.55,-494.99 421.64,-501.72"/>
</a>
</g>
</g>
<!-- Node19 -->
<g id="Node000019" class="node">
<title>Node19</title>
<g id="a_Node000019"><a xlink:href="classObject.html#a8ce209fe087159ea39d25f9851065151" target="_top" xlink:title=" ">
<polygon fill="white" stroke="#666666" points="571,-221 413,-221 413,-202 571,-202 571,-221"/>
<text text-anchor="middle" x="492" y="-209" font-family="Helvetica,sans-Serif" font-size="10.00">Object::getHitSpherePointFor</text>
</a>
</g>
</g>
<!-- Node18&#45;&gt;Node19 -->
<g id="edge19_Node000018_Node000019" class="edge">
<title>Node18&#45;&gt;Node19</title>
<g id="a_edge19_Node000018_Node000019"><a xlink:title=" ">
<path fill="none" stroke="#63b8ff" d="M290.37,-406.89C323.51,-374.61 431.1,-269.84 473.55,-228.5"/>
<polygon fill="#63b8ff" stroke="#63b8ff" points="476.18,-230.81 480.91,-221.33 471.3,-225.8 476.18,-230.81"/>
</a>
</g>
</g>
<!-- Node28 -->
<g id="Node000028" class="node">
<title>Node28</title>
<g id="a_Node000028"><a xlink:href="classObject.html#a805413ef3ee70fda6150f0b10f3d11b1" target="_top" xlink:title=" ">
<polygon fill="white" stroke="#666666" points="546.5,-184 437.5,-184 437.5,-165 546.5,-165 546.5,-184"/>
<text text-anchor="middle" x="492" y="-172" font-family="Helvetica,sans-Serif" font-size="10.00">Object::getPosition</text>
</a>
</g>
</g>
<!-- Node18&#45;&gt;Node28 -->
<g id="edge32_Node000018_Node000028" class="edge">
<title>Node18&#45;&gt;Node28</title>
<g id="a_edge32_Node000018_Node000028"><a xlink:title=" ">
<path fill="none" stroke="#63b8ff" d="M282.66,-406.95C291.09,-371.98 325.27,-249.9 403,-192.5 410.2,-187.18 418.6,-183.35 427.29,-180.59"/>
<polygon fill="#63b8ff" stroke="#63b8ff" points="428.44,-183.91 437.18,-177.92 426.61,-177.15 428.44,-183.91"/>
</a>
</g>
</g>
<!-- Node29 -->
<g id="Node000029" class="node">
<title>Node29</title>
<g id="a_Node000029"><a xlink:href="classWorldMap.html#a2cf28a8219c73c6a5945352c3de3acb2" target="_top" xlink:title=" ">
<polygon fill="white" stroke="#666666" points="564.5,-426 419.5,-426 419.5,-407 564.5,-407 564.5,-426"/>
<text text-anchor="middle" x="492" y="-414" font-family="Helvetica,sans-Serif" font-size="10.00">WorldMap::isInLineOfSight</text>
</a>
</g>
</g>
<!-- Node18&#45;&gt;Node29 -->
<g id="edge34_Node000018_Node000029" class="edge">
<title>Node18&#45;&gt;Node29</title>
<g id="a_edge34_Node000018_Node000029"><a xlink:title=" ">
<path fill="none" stroke="#63b8ff" d="M336.08,-416.5C358.46,-416.5 384.72,-416.5 409.2,-416.5"/>
<polygon fill="#63b8ff" stroke="#63b8ff" points="409.2,-420 419.2,-416.5 409.2,-413 409.2,-420"/>
</a>
</g>
</g>
<!-- Node31 -->
<g id="Node000031" class="node">
<title>Node31</title>
<g id="a_Node000031"><a xlink:href="classObject.html#a3aeab7def818ba6c50249f197ad2f9ca" target="_top" xlink:title=" ">
<polygon fill="white" stroke="#666666" points="541.5,-352 442.5,-352 442.5,-333 541.5,-333 541.5,-352"/>
<text text-anchor="middle" x="492" y="-340" font-family="Helvetica,sans-Serif" font-size="10.00">Object::IsInWorld</text>
</a>
</g>
</g>
<!-- Node18&#45;&gt;Node31 -->
<g id="edge39_Node000018_Node000031" class="edge">
<title>Node18&#45;&gt;Node31</title>
<g id="a_edge39_Node000018_Node000031"><a xlink:title=" ">
<path fill="none" stroke="#63b8ff" d="M298.25,-406.83C321.63,-394.45 364.32,-373.12 403,-360.5 412.34,-357.45 422.41,-354.82 432.29,-352.57"/>
<polygon fill="#63b8ff" stroke="#63b8ff" points="433.04,-355.99 442.07,-350.46 431.56,-349.15 433.04,-355.99"/>
</a>
</g>
</g>
<!-- Node32 -->
<g id="Node000032" class="node">
<title>Node32</title>
<g id="a_Node000032"><a xlink:href="classObject.html#ab65745f76d63eda49657413dccf0057d" target="_top" xlink:title=" ">
<polygon fill="white" stroke="#666666" points="538.5,-389 445.5,-389 445.5,-370 538.5,-370 538.5,-389"/>
<text text-anchor="middle" x="492" y="-377" font-family="Helvetica,sans-Serif" font-size="10.00">Object::isPlayer</text>
</a>
</g>
</g>
<!-- Node18&#45;&gt;Node32 -->
<g id="edge40_Node000018_Node000032" class="edge">
<title>Node18&#45;&gt;Node32</title>
<g id="a_edge40_Node000018_Node000032"><a xlink:title=" ">
<path fill="none" stroke="#63b8ff" d="M334.71,-406.97C365.46,-401.57 403.89,-394.81 434.94,-389.35"/>
<polygon fill="#63b8ff" stroke="#63b8ff" points="435.93,-392.73 445.17,-387.56 434.71,-385.84 435.93,-392.73"/>
</a>
</g>
</g>
<!-- Node19&#45;&gt;Node15 -->
<g id="edge26_Node000019_Node000015" class="edge">
<title>Node19&#45;&gt;Node15</title>
<g id="a_edge26_Node000019_Node000015"><a xlink:title=" ">
<path fill="none" stroke="#63b8ff" d="M503.87,-221.19C520.52,-236.06 553.32,-265.39 581,-290.5 597.08,-305.08 597.73,-313.51 617,-323.5 623.09,-326.66 629.67,-329.29 636.41,-331.49"/>
<polygon fill="#63b8ff" stroke="#63b8ff" points="635.75,-334.94 646.33,-334.4 637.73,-328.23 635.75,-334.94"/>
</a>
</g>
</g>
<!-- Node19&#45;&gt;Node16 -->
<g id="edge28_Node000019_Node000016" class="edge">
<title>Node19&#45;&gt;Node16</title>
<g id="a_edge28_Node000019_Node000016"><a xlink:title=" ">
<path fill="none" stroke="#63b8ff" d="M519.2,-221.12C537.34,-228.38 561.62,-239.34 581,-252.5 599.21,-264.86 597.54,-276.22 617,-286.5 623.15,-289.75 629.83,-292.44 636.66,-294.68"/>
<polygon fill="#63b8ff" stroke="#63b8ff" points="636.15,-298.18 646.74,-297.63 638.13,-291.46 636.15,-298.18"/>
</a>
</g>
</g>
<!-- Node19&#45;&gt;Node17 -->
<g id="edge30_Node000019_Node000017" class="edge">
<title>Node19&#45;&gt;Node17</title>
<g id="a_edge30_Node000019_Node000017"><a xlink:title=" ">
<path fill="none" stroke="#63b8ff" d="M568.27,-201.88C572.92,-199.35 577.24,-196.25 581,-192.5 634.13,-139.48 563.64,-80.29 617,-27.5 622.63,-21.93 629.5,-17.87 636.88,-14.94"/>
<polygon fill="#63b8ff" stroke="#63b8ff" points="638.05,-18.24 646.46,-11.8 635.87,-11.59 638.05,-18.24"/>
</a>
</g>
</g>
<!-- Node20 -->
<g id="Node000020" class="node">
<title>Node20</title>
<g id="a_Node000020"><a xlink:href="classObject.html#a53848f8bf1ecc6cb0bb4e389f00d8762" target="_top" xlink:title=" ">
<polygon fill="white" stroke="#666666" points="775,-241 635,-241 635,-222 775,-222 775,-241"/>
<text text-anchor="middle" x="705" y="-229" font-family="Helvetica,sans-Serif" font-size="10.00">Object::getAbsoluteAngle</text>
</a>
</g>
</g>
<!-- Node19&#45;&gt;Node20 -->
<g id="edge20_Node000019_Node000020" class="edge">
<title>Node19&#45;&gt;Node20</title>
<g id="a_edge20_Node000019_Node000020"><a xlink:title=" ">
<path fill="none" stroke="#63b8ff" d="M571.27,-218.92C588.72,-220.57 607.24,-222.33 624.73,-223.99"/>
<polygon fill="#63b8ff" stroke="#63b8ff" points="624.61,-227.49 634.89,-224.95 625.27,-220.52 624.61,-227.49"/>
</a>
</g>
</g>
<!-- Node22 -->
<g id="Node000022" class="node">
<title>Node22</title>
<g id="a_Node000022"><a xlink:href="classObject.html#a806b5ef9b3f5d0b080afeab92c4b772a" target="_top" xlink:title=" ">
<polygon fill="white" stroke="#666666" points="774,-204 636,-204 636,-185 774,-185 774,-204"/>
<text text-anchor="middle" x="705" y="-192" font-family="Helvetica,sans-Serif" font-size="10.00">Object::getCombatReach</text>
</a>
</g>
</g>
<!-- Node19&#45;&gt;Node22 -->
<g id="edge22_Node000019_Node000022" class="edge">
<title>Node19&#45;&gt;Node22</title>
<g id="a_edge22_Node000019_Node000022"><a xlink:title=" ">
<path fill="none" stroke="#63b8ff" d="M571.27,-205.19C589.01,-203.76 607.86,-202.25 625.61,-200.82"/>
<polygon fill="#63b8ff" stroke="#63b8ff" points="626.23,-204.28 635.92,-199.99 625.67,-197.3 626.23,-204.28"/>
</a>
</g>
</g>
<!-- Node23 -->
<g id="Node000023" class="node">
<title>Node23</title>
<g id="a_Node000023"><a xlink:href="classLocationVector.html#af23cbe9fbb7a7b9d6bcbcc3507b074cd" target="_top" xlink:title=" ">
<polygon fill="white" stroke="#666666" points="783.5,-167 626.5,-167 626.5,-148 783.5,-148 783.5,-167"/>
<text text-anchor="middle" x="705" y="-155" font-family="Helvetica,sans-Serif" font-size="10.00">LocationVector::getExactDist</text>
</a>
</g>
</g>
<!-- Node19&#45;&gt;Node23 -->
<g id="edge23_Node000019_Node000023" class="edge">
<title>Node19&#45;&gt;Node23</title>
<g id="a_edge23_Node000019_Node000023"><a xlink:title=" ">
<path fill="none" stroke="#63b8ff" d="M546.58,-201.98C558.07,-199.37 570.05,-196.21 581,-192.5 597.76,-186.82 600.22,-181.11 617,-175.5 623.74,-173.25 630.87,-171.22 638.03,-169.42"/>
<polygon fill="#63b8ff" stroke="#63b8ff" points="638.87,-172.82 647.78,-167.09 637.25,-166.01 638.87,-172.82"/>
</a>
</g>
</g>
<!-- Node24 -->
<g id="Node000024" class="node">
<title>Node24</title>
<g id="a_Node000024"><a xlink:href="classObject.html#a18b2042e111647c68c57dbe18d12934b" target="_top" xlink:title=" ">
<polygon fill="white" stroke="#666666" points="760,-130 650,-130 650,-111 760,-111 760,-130"/>
<text text-anchor="middle" x="705" y="-118" font-family="Helvetica,sans-Serif" font-size="10.00">Object::GetPosition</text>
</a>
</g>
</g>
<!-- Node19&#45;&gt;Node24 -->
<g id="edge24_Node000019_Node000024" class="edge">
<title>Node19&#45;&gt;Node24</title>
<g id="a_edge24_Node000019_Node000024"><a xlink:title=" ">
<path fill="none" stroke="#63b8ff" d="M562.4,-201.95C568.98,-199.47 575.32,-196.37 581,-192.5 604.84,-176.27 593.09,-154.63 617,-138.5 623.98,-133.79 631.95,-130.27 640.16,-127.65"/>
<polygon fill="#63b8ff" stroke="#63b8ff" points="641.16,-131 649.86,-124.96 639.29,-124.25 641.16,-131"/>
</a>
</g>
</g>
<!-- Node25 -->
<g id="Node000025" class="node">
<title>Node25</title>
<g id="a_Node000025"><a xlink:href="classLocationVector.html#a96434544ceccbc22f977047d967e259c" target="_top" xlink:title=" ">
<polygon fill="white" stroke="#666666" points="783,-93 627,-93 627,-74 783,-74 783,-93"/>
<text text-anchor="middle" x="705" y="-81" font-family="Helvetica,sans-Serif" font-size="10.00">LocationVector::getPositionX</text>
</a>
</g>
</g>
<!-- Node19&#45;&gt;Node25 -->
<g id="edge25_Node000019_Node000025" class="edge">
<title>Node19&#45;&gt;Node25</title>
<g id="a_edge25_Node000019_Node000025"><a xlink:title=" ">
<path fill="none" stroke="#63b8ff" d="M565.9,-201.99C571.35,-199.46 576.47,-196.34 581,-192.5 614.17,-164.37 583.71,-129.49 617,-101.5 618.38,-100.34 619.82,-99.25 621.3,-98.22"/>
<polygon fill="#63b8ff" stroke="#63b8ff" points="623.36,-101.07 630.25,-93.02 619.85,-95.02 623.36,-101.07"/>
</a>
</g>
</g>
<!-- Node26 -->
<g id="Node000026" class="node">
<title>Node26</title>
<g id="a_Node000026"><a xlink:href="classLocationVector.html#aea4c7604d51932b7e9f7eaa8ad81053d" target="_top" xlink:title=" ">
<polygon fill="white" stroke="#666666" points="782.5,-56 627.5,-56 627.5,-37 782.5,-37 782.5,-56"/>
<text text-anchor="middle" x="705" y="-44" font-family="Helvetica,sans-Serif" font-size="10.00">LocationVector::getPositionY</text>
</a>
</g>
</g>
<!-- Node19&#45;&gt;Node26 -->
<g id="edge27_Node000019_Node000026" class="edge">
<title>Node19&#45;&gt;Node26</title>
<g id="a_edge27_Node000019_Node000026"><a xlink:title=" ">
<path fill="none" stroke="#63b8ff" d="M567.6,-201.85C572.47,-199.33 577.01,-196.25 581,-192.5 624.05,-152.02 573.77,-104.8 617,-64.5 617.98,-63.58 619,-62.71 620.05,-61.87"/>
<polygon fill="#63b8ff" stroke="#63b8ff" points="622.2,-64.64 628.62,-56.22 618.35,-58.8 622.2,-64.64"/>
</a>
</g>
</g>
<!-- Node27 -->
<g id="Node000027" class="node">
<title>Node27</title>
<g id="a_Node000027"><a xlink:href="classLocationVector.html#a33965423efe74e08493550396ff9fc5d" target="_top" xlink:title=" ">
<polygon fill="white" stroke="#666666" points="783,-278 627,-278 627,-259 783,-259 783,-278"/>
<text text-anchor="middle" x="705" y="-266" font-family="Helvetica,sans-Serif" font-size="10.00">LocationVector::getPositionZ</text>
</a>
</g>
</g>
<!-- Node19&#45;&gt;Node27 -->
<g id="edge29_Node000019_Node000027" class="edge">
<title>Node19&#45;&gt;Node27</title>
<g id="a_edge29_Node000019_Node000027"><a xlink:title=" ">
<path fill="none" stroke="#63b8ff" d="M521.87,-221.09C546.88,-229.21 584.11,-240.88 617,-249.5 626.65,-252.03 636.95,-254.49 646.98,-256.75"/>
<polygon fill="#63b8ff" stroke="#63b8ff" points="646.35,-260.2 656.87,-258.95 647.87,-253.36 646.35,-260.2"/>
</a>
</g>
</g>
<!-- Node21 -->
<g id="Node000021" class="node">
<title>Node21</title>
<g id="a_Node000021"><a xlink:href="MovementInfo_8hpp.html#a6bc723d7e15fe5cc9d10ed1435d66f12" target="_top" xlink:title=" ">
<polygon fill="white" stroke="#666666" points="949,-241 829,-241 829,-222 949,-222 949,-241"/>
<text text-anchor="middle" x="889" y="-229" font-family="Helvetica,sans-Serif" font-size="10.00">normalizeOrientation</text>
</a>
</g>
</g>
<!-- Node20&#45;&gt;Node21 -->
<g id="edge21_Node000020_Node000021" class="edge">
<title>Node20&#45;&gt;Node21</title>
<g id="a_edge21_Node000020_Node000021"><a xlink:title=" ">
<path fill="none" stroke="#63b8ff" d="M775.07,-231.5C789.31,-231.5 804.31,-231.5 818.57,-231.5"/>
<polygon fill="#63b8ff" stroke="#63b8ff" points="818.79,-235 828.79,-231.5 818.79,-228 818.79,-235"/>
</a>
</g>
</g>
<!-- Node29&#45;&gt;Node8 -->
<g id="edge35_Node000029_Node000008" class="edge">
<title>Node29&#45;&gt;Node8</title>
<g id="a_edge35_Node000029_Node000008"><a xlink:title=" ">
<path fill="none" stroke="#63b8ff" d="M525.51,-426.05C556.6,-435.19 604.28,-449.2 642.54,-460.44"/>
<polygon fill="#63b8ff" stroke="#63b8ff" points="641.98,-463.92 652.56,-463.38 643.95,-457.21 641.98,-463.92"/>
</a>
</g>
</g>
<!-- Node29&#45;&gt;Node9 -->
<g id="edge36_Node000029_Node000009" class="edge">
<title>Node29&#45;&gt;Node9</title>
<g id="a_edge36_Node000029_Node000009"><a xlink:title=" ">
<path fill="none" stroke="#63b8ff" d="M527.04,-426.01C544.39,-431.99 565.12,-440.98 581,-453.5 602.22,-470.23 595.65,-485.94 617,-502.5 629.12,-511.91 644.11,-519.13 658.21,-524.5"/>
<polygon fill="#63b8ff" stroke="#63b8ff" points="657.19,-527.86 667.79,-527.93 659.55,-521.27 657.19,-527.86"/>
</a>
</g>
</g>
<!-- Node29&#45;&gt;Node29 -->
<g id="edge38_Node000029_Node000029" class="edge">
<title>Node29&#45;&gt;Node29</title>
<g id="a_edge38_Node000029_Node000029"><a xlink:title=" ">
<path fill="none" stroke="#63b8ff" d="M459.32,-426.08C443.43,-434.73 454.32,-444 492,-444 519.08,-444 532.33,-439.21 531.73,-433.31"/>
<polygon fill="#63b8ff" stroke="#63b8ff" points="534.17,-430.79 524.68,-426.08 529.16,-435.68 534.17,-430.79"/>
</a>
</g>
</g>
<!-- Node30 -->
<g id="Node000030" class="node">
<title>Node30</title>
<g id="a_Node000030"><a xlink:href="classDynamicMapTree.html#a14fc59961aee3914a9046882fc711066" target="_top" xlink:title=" ">
<polygon fill="white" stroke="#666666" points="777.5,-437.5 632.5,-437.5 632.5,-407.5 777.5,-407.5 777.5,-437.5"/>
<text text-anchor="start" x="640.5" y="-425.5" font-family="Helvetica,sans-Serif" font-size="10.00">DynamicMapTree::isInLine</text>
<text text-anchor="middle" x="705" y="-414.5" font-family="Helvetica,sans-Serif" font-size="10.00">OfSight</text>
</a>
</g>
</g>
<!-- Node29&#45;&gt;Node30 -->
<g id="edge37_Node000029_Node000030" class="edge">
<title>Node29&#45;&gt;Node30</title>
<g id="a_edge37_Node000029_Node000030"><a xlink:title=" ">
<path fill="none" stroke="#63b8ff" d="M564.73,-418.54C583.26,-419.07 603.35,-419.64 622.35,-420.18"/>
<polygon fill="#63b8ff" stroke="#63b8ff" points="622.37,-423.68 632.47,-420.47 622.57,-416.68 622.37,-423.68"/>
</a>
</g>
</g>
<!-- Node33 -->
<g id="Node000033" class="node">
<title>Node33</title>
<g id="a_Node000033"><a xlink:href="classObject.html#aaee2ed63355af5e632aba82f859822b4" target="_top" xlink:title=" ">
<polygon fill="white" stroke="#666666" points="771.5,-389 638.5,-389 638.5,-370 771.5,-370 771.5,-389"/>
<text text-anchor="middle" x="705" y="-377" font-family="Helvetica,sans-Serif" font-size="10.00">Object::getObjectTypeId</text>
</a>
</g>
</g>
<!-- Node32&#45;&gt;Node33 -->
<g id="edge41_Node000032_Node000033" class="edge">
<title>Node32&#45;&gt;Node33</title>
<g id="a_edge41_Node000032_Node000033"><a xlink:title=" ">
<path fill="none" stroke="#63b8ff" d="M538.52,-379.5C564.65,-379.5 598.12,-379.5 628.11,-379.5"/>
<polygon fill="#63b8ff" stroke="#63b8ff" points="628.13,-383 638.13,-379.5 628.13,-376 628.13,-383"/>
</a>
</g>
</g>
<!-- Node34&#45;&gt;Node2 -->
<g id="edge43_Node000034_Node000002" class="edge">
<title>Node34&#45;&gt;Node2</title>
<g id="a_edge43_Node000034_Node000002"><a xlink:title=" ">
<path fill="none" stroke="#63b8ff" d="M312.58,-577.06C337.2,-584.23 372.1,-594.06 403,-601.5 412.02,-603.67 421.6,-605.81 430.99,-607.8"/>
<polygon fill="#63b8ff" stroke="#63b8ff" points="430.57,-611.29 441.07,-609.91 432,-604.44 430.57,-611.29"/>
</a>
</g>
</g>
</g>
</svg>

<g id="navigator" transform="translate(0 0)" fill="#404254">
  <rect fill="#f2f5e9" fill-opacity="0.5" stroke="#606060" stroke-width=".5" x="0" y="0" width="60" height="60"/>
  <use id="zoomplus" xlink:href="#zoomPlus" x="17" y="9" onmousedown="handleZoom(evt,'in')"/>
  <use id="zoomminus" xlink:href="#zoomMin" x="42" y="9" onmousedown="handleZoom(evt,'out')"/>
  <use id="reset" xlink:href="#resetDef" x="30" y="36" onmousedown="handleReset()"/>
   <use id="arrowup" xlink:href="#arrowUp" x="0" y="0" onmousedown="handlePan(0,-1)"/>
  <use id="arrowright" xlink:href="#arrowRight" x="0" y="0" onmousedown="handlePan(1,0)"/>
  <use id="arrowdown" xlink:href="#arrowDown" x="0" y="0" onmousedown="handlePan(0,1)"/>
  <use id="arrowleft" xlink:href="#arrowLeft" x="0" y="0" onmousedown="handlePan(-1,0)"/>
</g>
<svg viewBox="0 0 15 15" width="100%" height="30px" preserveAspectRatio="xMaxYMin meet">
 <g id="arrow_out" transform="scale(0.3 0.3)">
  <a xlink:href="classSpell_a025d528de247a3f74df8bd97aca287e6_cgraph_org.svg" target="_base">
   <rect id="button" ry="5" rx="5" y="6" x="6" height="38" width="38"
        fill="#f2f5e9" fill-opacity="0.5" stroke="#606060" stroke-width="1.0"/>
   <path id="arrow"
     d="M 11.500037,31.436501 C 11.940474,20.09759 22.043105,11.32322 32.158766,21.979434 L 37.068811,17.246167 C 37.068811,17.246167 37.088388,32 37.088388,32 L 22.160133,31.978069 C 22.160133,31.978069 26.997745,27.140456 26.997745,27.140456 C 18.528582,18.264221 13.291696,25.230495 11.500037,31.436501 z"
     style="fill:#404040;"/>
  </a>
 </g>
</svg>

<style type='text/css'>
<![CDATA[
[data-mouse-over-selected='false'] { opacity: 0.7; }
[data-mouse-over-selected='true']  { opacity: 1.0; }
]]>
</style>
<script type="application/ecmascript"><![CDATA[
document.addEventListener('DOMContentLoaded', (event) => {
  highlightEdges();
  highlightAdjacentNodes();
});
]]></script>
</svg>
