<?xml version="1.0" encoding="UTF-8" standalone="no"?>
<!DOCTYPE svg PUBLIC "-//W3C//DTD SVG 1.1//EN"
 "http://www.w3.org/Graphics/SVG/1.1/DTD/svg11.dtd">
<!-- Generated by graphviz version 2.43.0 (0)
 -->
<!-- Title: G3D::Table::remove Pages: 1 -->
<svg width="470pt" height="261pt"
 viewBox="0.00 0.00 470.00 260.50" xmlns="http://www.w3.org/2000/svg" xmlns:xlink="http://www.w3.org/1999/xlink">

<svg id="main" version="1.1" xmlns="http://www.w3.org/2000/svg" xmlns:xlink="http://www.w3.org/1999/xlink" xml:space="preserve" onload="init(evt)">
<style type="text/css"><![CDATA[
.node, .edge {opacity: 0.7;}
.node.selected, .edge.selected {opacity: 1;}
.edge:hover path { stroke: red; }
.edge:hover polygon { stroke: red; fill: red; }
]]></style>
<script type="application/ecmascript" xlink:href="svg.min.js"/>
<svg id="graph" class="graph">
<g id="graph0" class="graph" transform="scale(1 1) rotate(0) translate(4 256.5)">
<title>G3D::Table::remove</title>
<!-- Node1 -->
<g id="Node000001" class="node">
<title>Node1</title>
<g id="a_Node000001"><a xlink:title=" ">
<polygon fill="#999999" stroke="#666666" points="462,-141.5 349,-141.5 349,-122.5 462,-122.5 462,-141.5"/>
<text text-anchor="middle" x="405.5" y="-129.5" font-family="Helvetica,sans-Serif" font-size="10.00">G3D::Table::remove</text>
</a>
</g>
</g>
<!-- Node2 -->
<g id="Node000002" class="node">
<title>Node2</title>
<g id="a_Node000002"><a xlink:href="classG3D_1_1Table.html#a30413238be735d3896e4de9c3e625e06" target="_top" xlink:title=" ">
<polygon fill="white" stroke="#666666" points="301,-252.5 170,-252.5 170,-233.5 301,-233.5 301,-252.5"/>
<text text-anchor="middle" x="235.5" y="-240.5" font-family="Helvetica,sans-Serif" font-size="10.00">G3D::Table::getRemove</text>
</a>
</g>
</g>
<!-- Node1&#45;&gt;Node2 -->
<g id="edge1_Node000001_Node000002" class="edge">
<title>Node1&#45;&gt;Node2</title>
<g id="a_edge1_Node000001_Node000002"><a xlink:title=" ">
<path fill="none" stroke="#63b8ff" d="M392,-149.81C376.11,-171.05 346.69,-206.06 313,-225 306.93,-228.41 300.25,-231.18 293.43,-233.42"/>
<polygon fill="#63b8ff" stroke="#63b8ff" points="394.89,-151.78 397.95,-141.64 389.23,-147.66 394.89,-151.78"/>
</a>
</g>
</g>
<!-- Node4 -->
<g id="Node000004" class="node">
<title>Node4</title>
<g id="a_Node000004"><a xlink:href="classG3D_1_1WeakCache.html#ad2e8bc147ae3bfe0adbd9dd7c3ab1074" target="_top" xlink:title=" ">
<polygon fill="white" stroke="#666666" points="313,-215.5 158,-215.5 158,-196.5 313,-196.5 313,-215.5"/>
<text text-anchor="middle" x="235.5" y="-203.5" font-family="Helvetica,sans-Serif" font-size="10.00">G3D::WeakCache::operator[]</text>
</a>
</g>
</g>
<!-- Node1&#45;&gt;Node4 -->
<g id="edge3_Node000001_Node000004" class="edge">
<title>Node1&#45;&gt;Node4</title>
<g id="a_edge3_Node000001_Node000004"><a xlink:title=" ">
<path fill="none" stroke="#63b8ff" d="M383.37,-147.63C365.46,-160.2 338.67,-177.44 313,-188 304.92,-191.32 296.1,-194.11 287.42,-196.42"/>
<polygon fill="#63b8ff" stroke="#63b8ff" points="385.77,-150.21 391.87,-141.55 381.7,-144.52 385.77,-150.21"/>
</a>
</g>
</g>
<!-- Node5 -->
<g id="Node000005" class="node">
<title>Node5</title>
<g id="a_Node000005"><a xlink:href="classG3D_1_1WeakCache.html#a8b8416cb9501b9d962d27c12fa3a84e7" target="_top" xlink:title=" ">
<polygon fill="white" stroke="#666666" points="307.5,-178.5 163.5,-178.5 163.5,-159.5 307.5,-159.5 307.5,-178.5"/>
<text text-anchor="middle" x="235.5" y="-166.5" font-family="Helvetica,sans-Serif" font-size="10.00">G3D::WeakCache::remove</text>
</a>
</g>
</g>
<!-- Node1&#45;&gt;Node5 -->
<g id="edge4_Node000001_Node000005" class="edge">
<title>Node1&#45;&gt;Node5</title>
<g id="a_edge4_Node000001_Node000005"><a xlink:title=" ">
<path fill="none" stroke="#63b8ff" d="M351.28,-143.72C328.28,-148.79 301.7,-154.64 279.91,-159.44"/>
<polygon fill="#63b8ff" stroke="#63b8ff" points="352.22,-147.1 361.24,-141.53 350.72,-140.26 352.22,-147.1"/>
</a>
</g>
</g>
<!-- Node6 -->
<g id="Node000006" class="node">
<title>Node6</title>
<g id="a_Node000006"><a xlink:href="classG3D_1_1Table.html#abceba5ec8f3973234b47f53d198e43f5" target="_top" xlink:title=" ">
<polygon fill="white" stroke="#666666" points="292,-141.5 179,-141.5 179,-122.5 292,-122.5 292,-141.5"/>
<text text-anchor="middle" x="235.5" y="-129.5" font-family="Helvetica,sans-Serif" font-size="10.00">G3D::Table::remove</text>
</a>
</g>
</g>
<!-- Node1&#45;&gt;Node6 -->
<g id="edge5_Node000001_Node000006" class="edge">
<title>Node1&#45;&gt;Node6</title>
<g id="a_edge5_Node000001_Node000006"><a xlink:title=" ">
<path fill="none" stroke="#63b8ff" d="M338.18,-132C322.95,-132 306.92,-132 292.2,-132"/>
<polygon fill="#63b8ff" stroke="#63b8ff" points="338.56,-135.5 348.56,-132 338.56,-128.5 338.56,-135.5"/>
</a>
</g>
</g>
<!-- Node7 -->
<g id="Node000007" class="node">
<title>Node7</title>
<g id="a_Node000007"><a xlink:href="classG3D_1_1KDTree.html#a739c5a93a109f2108be49935f6699e62" target="_top" xlink:title=" ">
<polygon fill="white" stroke="#666666" points="296.5,-104.5 174.5,-104.5 174.5,-85.5 296.5,-85.5 296.5,-104.5"/>
<text text-anchor="middle" x="235.5" y="-92.5" font-family="Helvetica,sans-Serif" font-size="10.00">G3D::KDTree::remove</text>
</a>
</g>
</g>
<!-- Node1&#45;&gt;Node7 -->
<g id="edge6_Node000001_Node000007" class="edge">
<title>Node1&#45;&gt;Node7</title>
<g id="a_edge6_Node000001_Node000007"><a xlink:title=" ">
<path fill="none" stroke="#63b8ff" d="M351.28,-120.28C328.28,-115.21 301.7,-109.36 279.91,-104.56"/>
<polygon fill="#63b8ff" stroke="#63b8ff" points="350.72,-123.74 361.24,-122.47 352.22,-116.9 350.72,-123.74"/>
</a>
</g>
</g>
<!-- Node9 -->
<g id="Node000009" class="node">
<title>Node9</title>
<g id="a_Node000009"><a xlink:href="classRegularGrid2D.html#a862fd48782df471f0b8ab84bdd4ae51b" target="_top" xlink:title=" ">
<polygon fill="white" stroke="#666666" points="301,-67.5 170,-67.5 170,-48.5 301,-48.5 301,-67.5"/>
<text text-anchor="middle" x="235.5" y="-55.5" font-family="Helvetica,sans-Serif" font-size="10.00">RegularGrid2D::remove</text>
</a>
</g>
</g>
<!-- Node1&#45;&gt;Node9 -->
<g id="edge8_Node000001_Node000009" class="edge">
<title>Node1&#45;&gt;Node9</title>
<g id="a_edge8_Node000001_Node000009"><a xlink:title=" ">
<path fill="none" stroke="#63b8ff" d="M382.98,-116.54C365.03,-104.27 338.38,-87.5 313,-77 304.02,-73.29 294.14,-70.17 284.55,-67.61"/>
<polygon fill="#63b8ff" stroke="#63b8ff" points="381.32,-119.64 391.52,-122.48 385.32,-113.9 381.32,-119.64"/>
</a>
</g>
</g>
<!-- Node11 -->
<g id="Node000011" class="node">
<title>Node11</title>
<g id="a_Node000011"><a xlink:href="classG3D_1_1PointHashGrid.html#a7621eee0faf1dc2ea14146ebd64a5a4a" target="_top" xlink:title=" ">
<polygon fill="white" stroke="#666666" points="292,-30 179,-30 179,0 292,0 292,-30"/>
<text text-anchor="start" x="187" y="-18" font-family="Helvetica,sans-Serif" font-size="10.00">G3D::PointHashGrid</text>
<text text-anchor="middle" x="235.5" y="-7" font-family="Helvetica,sans-Serif" font-size="10.00">::remove</text>
</a>
</g>
</g>
<!-- Node1&#45;&gt;Node11 -->
<g id="edge10_Node000001_Node000011" class="edge">
<title>Node1&#45;&gt;Node11</title>
<g id="a_edge10_Node000001_Node000011"><a xlink:title=" ">
<path fill="none" stroke="#63b8ff" d="M391.51,-114.27C375.33,-93.4 345.8,-59.06 313,-39 306.59,-35.08 299.48,-31.74 292.25,-28.92"/>
<polygon fill="#63b8ff" stroke="#63b8ff" points="388.77,-116.45 397.6,-122.31 394.35,-112.23 388.77,-116.45"/>
</a>
</g>
</g>
<!-- Node3 -->
<g id="Node000003" class="node">
<title>Node3</title>
<g id="a_Node000003"><a xlink:href="classBIHWrap.html#aeff1ff9ee3d3965dc4169ea6f0fc9839" target="_top" xlink:title=" ">
<polygon fill="white" stroke="#666666" points="112.5,-252.5 9.5,-252.5 9.5,-233.5 112.5,-233.5 112.5,-252.5"/>
<text text-anchor="middle" x="61" y="-240.5" font-family="Helvetica,sans-Serif" font-size="10.00">BIHWrap::remove</text>
</a>
</g>
</g>
<!-- Node2&#45;&gt;Node3 -->
<g id="edge2_Node000002_Node000003" class="edge">
<title>Node2&#45;&gt;Node3</title>
<g id="a_edge2_Node000002_Node000003"><a xlink:title=" ">
<path fill="none" stroke="#63b8ff" d="M159.45,-243C143.59,-243 127.22,-243 112.53,-243"/>
<polygon fill="#63b8ff" stroke="#63b8ff" points="159.78,-246.5 169.78,-243 159.78,-239.5 159.78,-246.5"/>
</a>
</g>
</g>
<!-- Node8 -->
<g id="Node000008" class="node">
<title>Node8</title>
<g id="a_Node000008"><a xlink:href="classG3D_1_1KDTree.html#a6717d5d15e096cb53af03b88050b116e" target="_top" xlink:title=" ">
<polygon fill="white" stroke="#666666" points="120,-104.5 2,-104.5 2,-85.5 120,-85.5 120,-104.5"/>
<text text-anchor="middle" x="61" y="-92.5" font-family="Helvetica,sans-Serif" font-size="10.00">G3D::KDTree::update</text>
</a>
</g>
</g>
<!-- Node7&#45;&gt;Node8 -->
<g id="edge7_Node000007_Node000008" class="edge">
<title>Node7&#45;&gt;Node8</title>
<g id="a_edge7_Node000007_Node000008"><a xlink:title=" ">
<path fill="none" stroke="#63b8ff" d="M163.77,-95C149.3,-95 134.23,-95 120.27,-95"/>
<polygon fill="#63b8ff" stroke="#63b8ff" points="164.17,-98.5 174.17,-95 164.17,-91.5 164.17,-98.5"/>
</a>
</g>
</g>
<!-- Node10 -->
<g id="Node000010" class="node">
<title>Node10</title>
<g id="a_Node000010"><a xlink:href="structDynTreeImpl.html#a74369a94f135b664528f91f5050894cb" target="_top" xlink:title=" ">
<polygon fill="white" stroke="#666666" points="122,-67.5 0,-67.5 0,-48.5 122,-48.5 122,-67.5"/>
<text text-anchor="middle" x="61" y="-55.5" font-family="Helvetica,sans-Serif" font-size="10.00">DynTreeImpl::remove</text>
</a>
</g>
</g>
<!-- Node9&#45;&gt;Node10 -->
<g id="edge9_Node000009_Node000010" class="edge">
<title>Node9&#45;&gt;Node10</title>
<g id="a_edge9_Node000009_Node000010"><a xlink:title=" ">
<path fill="none" stroke="#63b8ff" d="M159.43,-58C147,-58 134.25,-58 122.24,-58"/>
<polygon fill="#63b8ff" stroke="#63b8ff" points="159.78,-61.5 169.78,-58 159.78,-54.5 159.78,-61.5"/>
</a>
</g>
</g>
<!-- Node12 -->
<g id="Node000012" class="node">
<title>Node12</title>
<g id="a_Node000012"><a xlink:href="classG3D_1_1PointHashGrid.html#a2e1aa617568259dd88324f293b48074e" target="_top" xlink:title=" ">
<polygon fill="white" stroke="#666666" points="117.5,-30 4.5,-30 4.5,0 117.5,0 117.5,-30"/>
<text text-anchor="start" x="12.5" y="-18" font-family="Helvetica,sans-Serif" font-size="10.00">G3D::PointHashGrid</text>
<text text-anchor="middle" x="61" y="-7" font-family="Helvetica,sans-Serif" font-size="10.00">::remove</text>
</a>
</g>
</g>
<!-- Node11&#45;&gt;Node12 -->
<g id="edge11_Node000011_Node000012" class="edge">
<title>Node11&#45;&gt;Node12</title>
<g id="a_edge11_Node000011_Node000012"><a xlink:title=" ">
<path fill="none" stroke="#63b8ff" d="M168.67,-15C151.87,-15 133.97,-15 117.72,-15"/>
<polygon fill="#63b8ff" stroke="#63b8ff" points="168.97,-18.5 178.97,-15 168.97,-11.5 168.97,-18.5"/>
</a>
</g>
</g>
</g>
</svg>
</svg>

<style type='text/css'>
<![CDATA[
[data-mouse-over-selected='false'] { opacity: 0.7; }
[data-mouse-over-selected='true']  { opacity: 1.0; }
]]>
</style>
<script type="application/ecmascript"><![CDATA[
document.addEventListener('DOMContentLoaded', (event) => {
  highlightEdges();
  highlightAdjacentNodes();
});
]]></script>
</svg>
