<?xml version="1.0" encoding="UTF-8" standalone="no"?>
<!DOCTYPE svg PUBLIC "-//W3C//DTD SVG 1.1//EN"
 "http://www.w3.org/Graphics/SVG/1.1/DTD/svg11.dtd">
<!-- Generated by graphviz version 2.43.0 (0)
 -->
<!-- Title: AuthSocket Pages: 1 -->
<svg width="471pt" height="313pt"
 viewBox="0.00 0.00 470.50 313.00" xmlns="http://www.w3.org/2000/svg" xmlns:xlink="http://www.w3.org/1999/xlink">

<svg id="main" version="1.1" xmlns="http://www.w3.org/2000/svg" xmlns:xlink="http://www.w3.org/1999/xlink" xml:space="preserve" onload="init(evt)">
<style type="text/css"><![CDATA[
.node, .edge {opacity: 0.7;}
.node.selected, .edge.selected {opacity: 1;}
.edge:hover path { stroke: red; }
.edge:hover polygon { stroke: red; fill: red; }
]]></style>
<script type="application/ecmascript" xlink:href="svg.min.js"/>
<svg id="graph" class="graph">
<g id="graph0" class="graph" transform="scale(1 1) rotate(0) translate(4 309)">
<title>AuthSocket</title>
<!-- Node1 -->
<g id="Node000001" class="node">
<title>Node1</title>
<g id="a_Node000001"><a xlink:title=" ">
<polygon fill="#999999" stroke="#666666" points="221,-85 150,-85 150,-66 221,-66 221,-85"/>
<text text-anchor="middle" x="185.5" y="-73" font-family="Helvetica,sans-Serif" font-size="10.00">AuthSocket</text>
</a>
</g>
</g>
<!-- Node10 -->
<g id="Node000010" class="node">
<title>Node10</title>
<g id="a_Node000010"><a xlink:href="classPatchJob.html" target="_top" xlink:title=" ">
<polygon fill="white" stroke="#666666" points="145.5,-19 87.5,-19 87.5,0 145.5,0 145.5,-19"/>
<text text-anchor="middle" x="116.5" y="-7" font-family="Helvetica,sans-Serif" font-size="10.00">PatchJob</text>
</a>
</g>
</g>
<!-- Node1&#45;&gt;Node10 -->
<g id="edge11_Node000010_Node000001" class="edge">
<title>Node1&#45;&gt;Node10</title>
<g id="a_edge11_Node000010_Node000001"><a xlink:title=" ">
<path fill="none" stroke="#9a32cd" stroke-dasharray="5,2" d="M140.13,-67.04C129.72,-63.11 119.86,-57.12 113.5,-48 107.6,-39.54 110.12,-27.24 112.92,-19.06"/>
<polygon fill="#9a32cd" stroke="#9a32cd" points="139.17,-70.4 149.76,-70.1 141.29,-63.73 139.17,-70.4"/>
</a>
</g>
<text text-anchor="middle" x="136.5" y="-40" font-family="Helvetica,sans-Serif" font-size="10.00" fill="grey"> m_client</text>
</g>
<!-- Node2 -->
<g id="Node000002" class="node">
<title>Node2</title>
<g id="a_Node000002"><a xlink:href="classSocket.html" target="_top" xlink:title=" ">
<polygon fill="white" stroke="#666666" points="110,-228 61,-228 61,-209 110,-209 110,-228"/>
<text text-anchor="middle" x="85.5" y="-216" font-family="Helvetica,sans-Serif" font-size="10.00">Socket</text>
</a>
</g>
</g>
<!-- Node2&#45;&gt;Node1 -->
<g id="edge1_Node000001_Node000002" class="edge">
<title>Node2&#45;&gt;Node1</title>
<g id="a_edge1_Node000001_Node000002"><a xlink:title=" ">
<path fill="none" stroke="#63b8ff" d="M119.82,-208.36C129.51,-204.37 139.34,-198.77 146.5,-191 175.39,-159.65 182.99,-106.02 184.89,-85.16"/>
<polygon fill="#63b8ff" stroke="#63b8ff" points="118.49,-205.12 110.3,-211.83 120.89,-211.7 118.49,-205.12"/>
</a>
</g>
</g>
<!-- Node3 -->
<g id="Node000003" class="node">
<title>Node3</title>
<g id="a_Node000003"><a xlink:href="classCircularBuffer.html" target="_top" xlink:title=" ">
<polygon fill="white" stroke="#666666" points="86,-305 3,-305 3,-286 86,-286 86,-305"/>
<text text-anchor="middle" x="44.5" y="-293" font-family="Helvetica,sans-Serif" font-size="10.00">CircularBuffer</text>
</a>
</g>
</g>
<!-- Node3&#45;&gt;Node2 -->
<g id="edge2_Node000002_Node000003" class="edge">
<title>Node3&#45;&gt;Node2</title>
<g id="a_edge2_Node000002_Node000003"><a xlink:title=" ">
<path fill="none" stroke="#9a32cd" stroke-dasharray="5,2" d="M43.46,-275.96C43.72,-266.44 45.32,-254.98 50.5,-246 54.76,-238.6 62,-232.61 68.78,-228.2"/>
<polygon fill="#9a32cd" stroke="#9a32cd" points="39.96,-276.05 43.64,-285.99 46.96,-275.93 39.96,-276.05"/>
</a>
</g>
<text text-anchor="middle" x="78" y="-260" font-family="Helvetica,sans-Serif" font-size="10.00" fill="grey"> readBuffer</text>
<text text-anchor="middle" x="78" y="-249" font-family="Helvetica,sans-Serif" font-size="10.00" fill="grey">writeBuffer</text>
</g>
<!-- Node4 -->
<g id="Node000004" class="node">
<title>Node4</title>
<g id="a_Node000004"><a xlink:href="classMutex.html" target="_top" xlink:title=" ">
<polygon fill="white" stroke="#666666" points="151,-305 104,-305 104,-286 151,-286 151,-305"/>
<text text-anchor="middle" x="127.5" y="-293" font-family="Helvetica,sans-Serif" font-size="10.00">Mutex</text>
</a>
</g>
</g>
<!-- Node4&#45;&gt;Node2 -->
<g id="edge3_Node000002_Node000004" class="edge">
<title>Node4&#45;&gt;Node2</title>
<g id="a_edge3_Node000002_Node000004"><a xlink:title=" ">
<path fill="none" stroke="#9a32cd" stroke-dasharray="5,2" d="M120.47,-276.53C116.53,-267.18 111.27,-255.7 105.5,-246 101.85,-239.86 97.04,-233.45 93.06,-228.47"/>
<polygon fill="#9a32cd" stroke="#9a32cd" points="117.3,-278.03 124.3,-285.98 123.79,-275.4 117.3,-278.03"/>
</a>
</g>
<text text-anchor="middle" x="152" y="-260" font-family="Helvetica,sans-Serif" font-size="10.00" fill="grey"> m_readMutex</text>
<text text-anchor="middle" x="152" y="-249" font-family="Helvetica,sans-Serif" font-size="10.00" fill="grey">m_writeMutex</text>
</g>
<!-- Node5 -->
<g id="Node000005" class="node">
<title>Node5</title>
<g id="a_Node000005"><a xlink:href="structsAuthLogonChallenge__C.html" target="_top" xlink:title=" ">
<polygon fill="white" stroke="#666666" points="262.5,-228 128.5,-228 128.5,-209 262.5,-209 262.5,-228"/>
<text text-anchor="middle" x="195.5" y="-216" font-family="Helvetica,sans-Serif" font-size="10.00">sAuthLogonChallenge_C</text>
</a>
</g>
</g>
<!-- Node5&#45;&gt;Node1 -->
<g id="edge4_Node000001_Node000005" class="edge">
<title>Node5&#45;&gt;Node1</title>
<g id="a_edge4_Node000001_Node000005"><a xlink:title=" ">
<path fill="none" stroke="#9a32cd" stroke-dasharray="5,2" d="M194.14,-198.39C191.95,-167.49 187.72,-107.77 186.13,-85.32"/>
<polygon fill="#9a32cd" stroke="#9a32cd" points="190.68,-198.95 194.87,-208.68 197.66,-198.46 190.68,-198.95"/>
</a>
</g>
<text text-anchor="middle" x="227.5" y="-144.5" font-family="Helvetica,sans-Serif" font-size="10.00" fill="grey"> m_challenge</text>
</g>
<!-- Node6 -->
<g id="Node000006" class="node">
<title>Node6</title>
<g id="a_Node000006"><a xlink:href="structAccount.html" target="_top" xlink:title=" ">
<polygon fill="white" stroke="#666666" points="336.5,-228 280.5,-228 280.5,-209 336.5,-209 336.5,-228"/>
<text text-anchor="middle" x="308.5" y="-216" font-family="Helvetica,sans-Serif" font-size="10.00">Account</text>
</a>
</g>
</g>
<!-- Node6&#45;&gt;Node1 -->
<g id="edge5_Node000001_Node000006" class="edge">
<title>Node6&#45;&gt;Node1</title>
<g id="a_edge5_Node000001_Node000006"><a xlink:title=" ">
<path fill="none" stroke="#9a32cd" stroke-dasharray="5,2" d="M306.29,-198.93C302.32,-173.78 291.71,-129.06 264.5,-103 252.8,-91.79 236.21,-85.32 221.26,-81.58"/>
<polygon fill="#9a32cd" stroke="#9a32cd" points="302.84,-199.54 307.67,-208.97 309.77,-198.58 302.84,-199.54"/>
</a>
</g>
<text text-anchor="middle" x="333" y="-144.5" font-family="Helvetica,sans-Serif" font-size="10.00" fill="grey"> m_account</text>
</g>
<!-- Node7 -->
<g id="Node000007" class="node">
<title>Node7</title>
<g id="a_Node000007"><a xlink:title=" ">
<polygon fill="white" stroke="#666666" points="330.5,-305 286.5,-305 286.5,-286 330.5,-286 330.5,-305"/>
<text text-anchor="middle" x="308.5" y="-293" font-family="Helvetica,sans-Serif" font-size="10.00">string</text>
</a>
</g>
</g>
<!-- Node7&#45;&gt;Node6 -->
<g id="edge6_Node000006_Node000007" class="edge">
<title>Node7&#45;&gt;Node6</title>
<g id="a_edge6_Node000006_Node000007"><a xlink:title=" ">
<path fill="none" stroke="#9a32cd" stroke-dasharray="5,2" d="M308.5,-275.52C308.5,-260.24 308.5,-239.48 308.5,-228"/>
<polygon fill="#9a32cd" stroke="#9a32cd" points="305,-275.9 308.5,-285.9 312,-275.9 305,-275.9"/>
</a>
</g>
<text text-anchor="middle" x="349.5" y="-254.5" font-family="Helvetica,sans-Serif" font-size="10.00" fill="grey"> forcedLanguage</text>
</g>
<!-- Node8 -->
<g id="Node000008" class="node">
<title>Node8</title>
<g id="a_Node000008"><a xlink:href="classBigNumber.html" target="_top" xlink:title=" ">
<polygon fill="white" stroke="#666666" points="426,-228 355,-228 355,-209 426,-209 426,-228"/>
<text text-anchor="middle" x="390.5" y="-216" font-family="Helvetica,sans-Serif" font-size="10.00">BigNumber</text>
</a>
</g>
</g>
<!-- Node8&#45;&gt;Node1 -->
<g id="edge7_Node000001_Node000008" class="edge">
<title>Node8&#45;&gt;Node1</title>
<g id="a_edge7_Node000001_Node000008"><a xlink:title=" ">
<path fill="none" stroke="#9a32cd" stroke-dasharray="5,2" d="M392.35,-198.5C393.7,-172.86 391.81,-127.56 365.5,-103 345.18,-84.03 267.72,-78.62 221.3,-77.09"/>
<polygon fill="#9a32cd" stroke="#9a32cd" points="388.84,-198.52 391.58,-208.75 395.82,-199.04 388.84,-198.52"/>
</a>
</g>
<text text-anchor="middle" x="427.5" y="-183" font-family="Helvetica,sans-Serif" font-size="10.00" fill="grey"> B</text>
<text text-anchor="middle" x="427.5" y="-172" font-family="Helvetica,sans-Serif" font-size="10.00" fill="grey">N</text>
<text text-anchor="middle" x="427.5" y="-161" font-family="Helvetica,sans-Serif" font-size="10.00" fill="grey">b</text>
<text text-anchor="middle" x="427.5" y="-150" font-family="Helvetica,sans-Serif" font-size="10.00" fill="grey">g</text>
<text text-anchor="middle" x="427.5" y="-139" font-family="Helvetica,sans-Serif" font-size="10.00" fill="grey">m_sessionkey</text>
<text text-anchor="middle" x="427.5" y="-128" font-family="Helvetica,sans-Serif" font-size="10.00" fill="grey">rs</text>
<text text-anchor="middle" x="427.5" y="-117" font-family="Helvetica,sans-Serif" font-size="10.00" fill="grey">s</text>
<text text-anchor="middle" x="427.5" y="-106" font-family="Helvetica,sans-Serif" font-size="10.00" fill="grey">v</text>
</g>
<!-- Node9 -->
<g id="Node000009" class="node">
<title>Node9</title>
<g id="a_Node000009"><a xlink:href="structPatch.html" target="_top" xlink:title=" ">
<polygon fill="white" stroke="#666666" points="43,-228 0,-228 0,-209 43,-209 43,-228"/>
<text text-anchor="middle" x="21.5" y="-216" font-family="Helvetica,sans-Serif" font-size="10.00">Patch</text>
</a>
</g>
</g>
<!-- Node9&#45;&gt;Node1 -->
<g id="edge8_Node000001_Node000009" class="edge">
<title>Node9&#45;&gt;Node1</title>
<g id="a_edge8_Node000001_Node000009"><a xlink:title=" ">
<path fill="none" stroke="#9a32cd" stroke-dasharray="5,2" d="M37.32,-201.1C40.17,-197.86 43.02,-194.4 45.5,-191 72.15,-154.49 61,-130.98 96.5,-103 111.69,-91.02 132.2,-84.45 149.7,-80.85"/>
<polygon fill="#9a32cd" stroke="#9a32cd" points="34.63,-198.86 30.44,-208.59 39.79,-203.59 34.63,-198.86"/>
</a>
</g>
<text text-anchor="middle" x="119.5" y="-144.5" font-family="Helvetica,sans-Serif" font-size="10.00" fill="grey"> m_patch</text>
</g>
<!-- Node9&#45;&gt;Node10 -->
<g id="edge10_Node000010_Node000009" class="edge">
<title>Node9&#45;&gt;Node10</title>
<g id="a_edge10_Node000010_Node000009"><a xlink:title=" ">
<path fill="none" stroke="#9a32cd" stroke-dasharray="5,2" d="M22.4,-198.81C24.66,-168.53 32.6,-107.89 60.5,-66 73.09,-47.09 92.9,-29.37 105.27,-19.24"/>
<polygon fill="#9a32cd" stroke="#9a32cd" points="18.9,-198.64 21.78,-208.83 25.89,-199.07 18.9,-198.64"/>
</a>
</g>
<text text-anchor="middle" x="100.5" y="-73" font-family="Helvetica,sans-Serif" font-size="10.00" fill="grey"> m_patchToSend</text>
</g>
<!-- Node10&#45;&gt;Node1 -->
<g id="edge9_Node000001_Node000010" class="edge">
<title>Node10&#45;&gt;Node1</title>
<g id="a_edge9_Node000001_Node000010"><a xlink:title=" ">
<path fill="none" stroke="#9a32cd" stroke-dasharray="5,2" d="M145.86,-23.89C152.12,-27.58 158.38,-31.97 163.5,-37 172,-45.36 178.39,-57.69 182.04,-65.9"/>
<polygon fill="#9a32cd" stroke="#9a32cd" points="147.27,-20.68 136.81,-19.01 143.95,-26.84 147.27,-20.68"/>
</a>
</g>
<text text-anchor="middle" x="203" y="-40" font-family="Helvetica,sans-Serif" font-size="10.00" fill="grey"> m_patchJob</text>
</g>
</g>
</svg>
</svg>

<style type='text/css'>
<![CDATA[
[data-mouse-over-selected='false'] { opacity: 0.7; }
[data-mouse-over-selected='true']  { opacity: 1.0; }
]]>
</style>
<script type="application/ecmascript"><![CDATA[
document.addEventListener('DOMContentLoaded', (event) => {
  highlightEdges();
  highlightAdjacentNodes();
});
]]></script>
</svg>
