<?xml version="1.0" encoding="UTF-8" standalone="no"?>
<!DOCTYPE svg PUBLIC "-//W3C//DTD SVG 1.1//EN"
 "http://www.w3.org/Graphics/SVG/1.1/DTD/svg11.dtd">
<!-- Generated by graphviz version 2.43.0 (0)
 -->
<!-- Title: Unit::applySpellModifiers Pages: 1 -->
<svg width="537pt" height="101pt"
 viewBox="0.00 0.00 537.00 101.00" xmlns="http://www.w3.org/2000/svg" xmlns:xlink="http://www.w3.org/1999/xlink">
<g id="graph0" class="graph" transform="scale(1 1) rotate(0) translate(4 97)">
<title>Unit::applySpellModifiers</title>
<!-- Node1 -->
<g id="Node000001" class="node">
<title>Node1</title>
<g id="a_Node000001"><a xlink:title=" ">
<polygon fill="#999999" stroke="#666666" points="139,-56 0,-56 0,-37 139,-37 139,-56"/>
<text text-anchor="middle" x="69.5" y="-44" font-family="Helvetica,sans-Serif" font-size="10.00">Unit::applySpellModifiers</text>
</a>
</g>
</g>
<!-- Node2 -->
<g id="Node000002" class="node">
<title>Node2</title>
<g id="a_Node000002"><a xlink:href="classUnit.html#af8d613edde75fbed968d339f023c704e" target="_top" xlink:title=" ">
<polygon fill="white" stroke="#666666" points="326,-56 175,-56 175,-37 326,-37 326,-56"/>
<text text-anchor="middle" x="250.5" y="-44" font-family="Helvetica,sans-Serif" font-size="10.00">Unit::getTotalSpellModifiers</text>
</a>
</g>
</g>
<!-- Node1&#45;&gt;Node2 -->
<g id="edge1_Node000001_Node000002" class="edge">
<title>Node1&#45;&gt;Node2</title>
<g id="a_edge1_Node000001_Node000002"><a xlink:title=" ">
<path fill="none" stroke="#63b8ff" d="M139.19,-46.5C147.56,-46.5 156.17,-46.5 164.73,-46.5"/>
<polygon fill="#63b8ff" stroke="#63b8ff" points="164.74,-50 174.74,-46.5 164.74,-43 164.74,-50"/>
</a>
</g>
</g>
<!-- Node3 -->
<g id="Node000003" class="node">
<title>Node3</title>
<g id="a_Node000003"><a xlink:href="classSpell.html#afd9bccecdadcfc6872a4989cf4062c1f" target="_top" xlink:title=" ">
<polygon fill="white" stroke="#666666" points="522,-93 369,-93 369,-74 522,-74 522,-93"/>
<text text-anchor="middle" x="445.5" y="-81" font-family="Helvetica,sans-Serif" font-size="10.00">Spell::addUsedSpellModifier</text>
</a>
</g>
</g>
<!-- Node2&#45;&gt;Node3 -->
<g id="edge2_Node000002_Node000003" class="edge">
<title>Node2&#45;&gt;Node3</title>
<g id="a_edge2_Node000002_Node000003"><a xlink:title=" ">
<path fill="none" stroke="#63b8ff" d="M301.2,-56.03C326.65,-60.91 357.84,-66.89 384.61,-72.02"/>
<polygon fill="#63b8ff" stroke="#63b8ff" points="384.15,-75.49 394.63,-73.94 385.47,-68.62 384.15,-75.49"/>
</a>
</g>
</g>
<!-- Node4 -->
<g id="Node000004" class="node">
<title>Node4</title>
<g id="a_Node000004"><a xlink:href="classAura.html#a7e37713c6f0de61c9ce5d3fe5252f2c1" target="_top" xlink:title=" ">
<polygon fill="white" stroke="#666666" points="521.5,-56 369.5,-56 369.5,-37 521.5,-37 521.5,-56"/>
<text text-anchor="middle" x="445.5" y="-44" font-family="Helvetica,sans-Serif" font-size="10.00">Aura::addUsedSpellModifier</text>
</a>
</g>
</g>
<!-- Node2&#45;&gt;Node4 -->
<g id="edge3_Node000002_Node000004" class="edge">
<title>Node2&#45;&gt;Node4</title>
<g id="a_edge3_Node000002_Node000004"><a xlink:title=" ">
<path fill="none" stroke="#63b8ff" d="M326.12,-46.5C337,-46.5 348.28,-46.5 359.35,-46.5"/>
<polygon fill="#63b8ff" stroke="#63b8ff" points="359.44,-50 369.44,-46.5 359.44,-43 359.44,-50"/>
</a>
</g>
</g>
<!-- Node5 -->
<g id="Node000005" class="node">
<title>Node5</title>
<g id="a_Node000005"><a xlink:href="classSpellInfo.html#af80ac57f13dd09402a3f872ecd4dfde7" target="_top" xlink:title=" ">
<polygon fill="white" stroke="#666666" points="529,-19 362,-19 362,0 529,0 529,-19"/>
<text text-anchor="middle" x="445.5" y="-7" font-family="Helvetica,sans-Serif" font-size="10.00">SpellInfo::getSpellFamilyName</text>
</a>
</g>
</g>
<!-- Node2&#45;&gt;Node5 -->
<g id="edge4_Node000002_Node000005" class="edge">
<title>Node2&#45;&gt;Node5</title>
<g id="a_edge4_Node000002_Node000005"><a xlink:title=" ">
<path fill="none" stroke="#63b8ff" d="M301.2,-36.97C326.65,-32.09 357.84,-26.11 384.61,-20.98"/>
<polygon fill="#63b8ff" stroke="#63b8ff" points="385.47,-24.38 394.63,-19.06 384.15,-17.51 385.47,-24.38"/>
</a>
</g>
</g>
</g>
</svg>
