<?xml version="1.0" encoding="UTF-8" standalone="no"?>
<!DOCTYPE svg PUBLIC "-//W3C//DTD SVG 1.1//EN"
 "http://www.w3.org/Graphics/SVG/1.1/DTD/svg11.dtd">
<!-- Generated by graphviz version 2.43.0 (0)
 -->
<!-- Title: MovementMgr::PacketBuilder::WriteCommonMonsterMovePart Pages: 1 -->
<svg width="968pt" height="38pt"
 viewBox="0.00 0.00 968.00 38.00" xmlns="http://www.w3.org/2000/svg" xmlns:xlink="http://www.w3.org/1999/xlink">
<g id="graph0" class="graph" transform="scale(1 1) rotate(0) translate(4 34)">
<title>MovementMgr::PacketBuilder::WriteCommonMonsterMovePart</title>
<!-- Node1 -->
<g id="Node000001" class="node">
<title>Node1</title>
<g id="a_Node000001"><a xlink:title=" ">
<polygon fill="#999999" stroke="#666666" points="960,-30 781,-30 781,0 960,0 960,-30"/>
<text text-anchor="start" x="789" y="-18" font-family="Helvetica,sans-Serif" font-size="10.00">MovementMgr::PacketBuilder</text>
<text text-anchor="middle" x="870.5" y="-7" font-family="Helvetica,sans-Serif" font-size="10.00">::WriteCommonMonsterMovePart</text>
</a>
</g>
</g>
<!-- Node2 -->
<g id="Node000002" class="node">
<title>Node2</title>
<g id="a_Node000002"><a xlink:href="classMovementMgr_1_1PacketBuilder.html#a34fc9b1b55ea2dfec87ef1bde0b98ab8" target="_top" xlink:title=" ">
<polygon fill="white" stroke="#666666" points="745,-30 585,-30 585,0 745,0 745,-30"/>
<text text-anchor="start" x="593" y="-18" font-family="Helvetica,sans-Serif" font-size="10.00">MovementMgr::PacketBuilder</text>
<text text-anchor="middle" x="665" y="-7" font-family="Helvetica,sans-Serif" font-size="10.00">::WriteMonsterMove</text>
</a>
</g>
</g>
<!-- Node1&#45;&gt;Node2 -->
<g id="edge1_Node000001_Node000002" class="edge">
<title>Node1&#45;&gt;Node2</title>
<g id="a_edge1_Node000001_Node000002"><a xlink:title=" ">
<path fill="none" stroke="#63b8ff" d="M770.76,-15C762.15,-15 753.52,-15 745.1,-15"/>
<polygon fill="#63b8ff" stroke="#63b8ff" points="770.83,-18.5 780.83,-15 770.83,-11.5 770.83,-18.5"/>
</a>
</g>
</g>
<!-- Node3 -->
<g id="Node000003" class="node">
<title>Node3</title>
<g id="a_Node000003"><a xlink:href="classMovementMgr_1_1MoveSplineInit.html#a85c14c9a19ed26eee5d4ebaf40ed3018" target="_top" xlink:title=" ">
<polygon fill="white" stroke="#666666" points="549,-30 382,-30 382,0 549,0 549,-30"/>
<text text-anchor="start" x="390" y="-18" font-family="Helvetica,sans-Serif" font-size="10.00">MovementMgr::MoveSplineInit</text>
<text text-anchor="middle" x="465.5" y="-7" font-family="Helvetica,sans-Serif" font-size="10.00">::Launch</text>
</a>
</g>
</g>
<!-- Node2&#45;&gt;Node3 -->
<g id="edge2_Node000002_Node000003" class="edge">
<title>Node2&#45;&gt;Node3</title>
<g id="a_edge2_Node000002_Node000003"><a xlink:title=" ">
<path fill="none" stroke="#63b8ff" d="M574.58,-15C566.15,-15 557.63,-15 549.26,-15"/>
<polygon fill="#63b8ff" stroke="#63b8ff" points="574.81,-18.5 584.81,-15 574.81,-11.5 574.81,-18.5"/>
</a>
</g>
</g>
<!-- Node4 -->
<g id="Node000004" class="node">
<title>Node4</title>
<g id="a_Node000004"><a xlink:href="classGenericMovementGenerator.html#a32e0d0ee012cfb49b4db5bc926ab94f7" target="_top" xlink:title=" ">
<polygon fill="white" stroke="#666666" points="346,-30 191,-30 191,0 346,0 346,-30"/>
<text text-anchor="start" x="199" y="-18" font-family="Helvetica,sans-Serif" font-size="10.00">GenericMovementGenerator</text>
<text text-anchor="middle" x="268.5" y="-7" font-family="Helvetica,sans-Serif" font-size="10.00">::initialize</text>
</a>
</g>
</g>
<!-- Node3&#45;&gt;Node4 -->
<g id="edge3_Node000003_Node000004" class="edge">
<title>Node3&#45;&gt;Node4</title>
<g id="a_edge3_Node000003_Node000004"><a xlink:title=" ">
<path fill="none" stroke="#63b8ff" d="M371.76,-15C363.18,-15 354.54,-15 346.13,-15"/>
<polygon fill="#63b8ff" stroke="#63b8ff" points="371.8,-18.5 381.8,-15 371.8,-11.5 371.8,-18.5"/>
</a>
</g>
</g>
<!-- Node5 -->
<g id="Node000005" class="node">
<title>Node5</title>
<g id="a_Node000005"><a xlink:href="classGenericMovementGenerator.html#aae46de42b5ae8ff58a5ef2db988b8195" target="_top" xlink:title=" ">
<polygon fill="white" stroke="#666666" points="155,-30 0,-30 0,0 155,0 155,-30"/>
<text text-anchor="start" x="8" y="-18" font-family="Helvetica,sans-Serif" font-size="10.00">GenericMovementGenerator</text>
<text text-anchor="middle" x="77.5" y="-7" font-family="Helvetica,sans-Serif" font-size="10.00">::reset</text>
</a>
</g>
</g>
<!-- Node4&#45;&gt;Node5 -->
<g id="edge4_Node000004_Node000005" class="edge">
<title>Node4&#45;&gt;Node5</title>
<g id="a_edge4_Node000004_Node000005"><a xlink:title=" ">
<path fill="none" stroke="#63b8ff" d="M180.9,-15C172.33,-15 163.67,-15 155.21,-15"/>
<polygon fill="#63b8ff" stroke="#63b8ff" points="180.9,-18.5 190.9,-15 180.9,-11.5 180.9,-18.5"/>
</a>
</g>
</g>
</g>
</svg>
