<?xml version="1.0" encoding="UTF-8" standalone="no"?>
<!DOCTYPE svg PUBLIC "-//W3C//DTD SVG 1.1//EN"
 "http://www.w3.org/Graphics/SVG/1.1/DTD/svg11.dtd">
<!-- Generated by graphviz version 2.43.0 (0)
 -->
<!-- Title: dtNavMesh::findConnectingPolys Pages: 1 -->
<svg width="529pt" height="242pt"
 viewBox="0.00 0.00 529.00 241.63" xmlns="http://www.w3.org/2000/svg" xmlns:xlink="http://www.w3.org/1999/xlink">
<g id="graph0" class="graph" transform="scale(1 1) rotate(0) translate(4 237.63)">
<title>dtNavMesh::findConnectingPolys</title>
<!-- Node1 -->
<g id="Node000001" class="node">
<title>Node1</title>
<g id="a_Node000001"><a xlink:title="Returns all polygons in neighbour tile based on portal defined by the segment.">
<polygon fill="#999999" stroke="#666666" points="151,-127.13 0,-127.13 0,-97.13 151,-97.13 151,-127.13"/>
<text text-anchor="start" x="8" y="-115.13" font-family="Helvetica,sans-Serif" font-size="10.00">dtNavMesh::findConnecting</text>
<text text-anchor="middle" x="75.5" y="-104.13" font-family="Helvetica,sans-Serif" font-size="10.00">Polys</text>
</a>
</g>
</g>
<!-- Node2 -->
<g id="Node000002" class="node">
<title>Node2</title>
<g id="a_Node000002"><a xlink:href="DetourNavMesh_8cpp.html#a80261651de8c5a4a2798b3d64fcb73bb" target="_top" xlink:title=" ">
<polygon fill="white" stroke="#666666" points="317,-233.63 212,-233.63 212,-214.63 317,-214.63 317,-233.63"/>
<text text-anchor="middle" x="264.5" y="-221.63" font-family="Helvetica,sans-Serif" font-size="10.00">calcSlabEndPoints</text>
</a>
</g>
</g>
<!-- Node1&#45;&gt;Node2 -->
<g id="edge1_Node000001_Node000002" class="edge">
<title>Node1&#45;&gt;Node2</title>
<g id="a_edge1_Node000001_Node000002"><a xlink:title=" ">
<path fill="none" stroke="#63b8ff" d="M89.88,-127.35C109.2,-148.36 146.99,-185.9 187,-206.13 191.67,-208.49 196.67,-210.55 201.78,-212.34"/>
<polygon fill="#63b8ff" stroke="#63b8ff" points="201.11,-215.8 211.7,-215.47 203.22,-209.12 201.11,-215.8"/>
</a>
</g>
</g>
<!-- Node3 -->
<g id="Node000003" class="node">
<title>Node3</title>
<g id="a_Node000003"><a xlink:href="DetourCommon_8h.html#a6dd5612e0be99e2c657d7164c699c044" target="_top" xlink:title=" ">
<polygon fill="white" stroke="#666666" points="286.5,-196.63 242.5,-196.63 242.5,-177.63 286.5,-177.63 286.5,-196.63"/>
<text text-anchor="middle" x="264.5" y="-184.63" font-family="Helvetica,sans-Serif" font-size="10.00">dtAbs</text>
</a>
</g>
</g>
<!-- Node1&#45;&gt;Node3 -->
<g id="edge2_Node000001_Node000003" class="edge">
<title>Node1&#45;&gt;Node3</title>
<g id="a_edge2_Node000001_Node000003"><a xlink:title=" ">
<path fill="none" stroke="#63b8ff" d="M101.59,-127.33C123.47,-140.03 156.42,-157.84 187,-169.13 201.48,-174.47 218.11,-178.61 232.15,-181.56"/>
<polygon fill="#63b8ff" stroke="#63b8ff" points="231.82,-185.06 242.31,-183.59 233.19,-178.2 231.82,-185.06"/>
</a>
</g>
</g>
<!-- Node4 -->
<g id="Node000004" class="node">
<title>Node4</title>
<g id="a_Node000004"><a xlink:href="DetourCommon_8h.html#a8823f3ed1d46c80aa4d8d6b6646e8e72" target="_top" xlink:title=" ">
<polygon fill="white" stroke="#666666" points="473,-121.63 426,-121.63 426,-102.63 473,-102.63 473,-121.63"/>
<text text-anchor="middle" x="449.5" y="-109.63" font-family="Helvetica,sans-Serif" font-size="10.00">dtMax</text>
</a>
</g>
</g>
<!-- Node1&#45;&gt;Node4 -->
<g id="edge3_Node000001_Node000004" class="edge">
<title>Node1&#45;&gt;Node4</title>
<g id="a_edge3_Node000001_Node000004"><a xlink:title=" ">
<path fill="none" stroke="#63b8ff" d="M151.33,-112.13C232.03,-112.13 356.81,-112.13 415.66,-112.13"/>
<polygon fill="#63b8ff" stroke="#63b8ff" points="415.85,-115.63 425.85,-112.13 415.85,-108.63 415.85,-115.63"/>
</a>
</g>
</g>
<!-- Node5 -->
<g id="Node000005" class="node">
<title>Node5</title>
<g id="a_Node000005"><a xlink:href="DetourCommon_8h.html#a1ba504117782e7d67fe3106ecd76988a" target="_top" xlink:title=" ">
<polygon fill="white" stroke="#666666" points="471.5,-27.63 427.5,-27.63 427.5,-8.63 471.5,-8.63 471.5,-27.63"/>
<text text-anchor="middle" x="449.5" y="-15.63" font-family="Helvetica,sans-Serif" font-size="10.00">dtMin</text>
</a>
</g>
</g>
<!-- Node1&#45;&gt;Node5 -->
<g id="edge4_Node000001_Node000005" class="edge">
<title>Node1&#45;&gt;Node5</title>
<g id="a_edge4_Node000001_Node000005"><a xlink:title=" ">
<path fill="none" stroke="#63b8ff" d="M88.08,-97.07C106.28,-74.78 143.98,-33.95 187,-18.13 265.76,10.84 367.12,-2.02 417.38,-11.41"/>
<polygon fill="#63b8ff" stroke="#63b8ff" points="416.82,-14.87 427.3,-13.35 418.16,-8 416.82,-14.87"/>
</a>
</g>
</g>
<!-- Node6 -->
<g id="Node000006" class="node">
<title>Node6</title>
<g id="a_Node000006"><a xlink:href="classdtNavMesh.html#a0741871ed1357c51e3847f22673fcc9c" target="_top" xlink:title=" ">
<polygon fill="white" stroke="#666666" points="342,-159.63 187,-159.63 187,-140.63 342,-140.63 342,-159.63"/>
<text text-anchor="middle" x="264.5" y="-147.63" font-family="Helvetica,sans-Serif" font-size="10.00">dtNavMesh::getPolyRefBase</text>
</a>
</g>
</g>
<!-- Node1&#45;&gt;Node6 -->
<g id="edge5_Node000001_Node000006" class="edge">
<title>Node1&#45;&gt;Node6</title>
<g id="a_edge5_Node000001_Node000006"><a xlink:title=" ">
<path fill="none" stroke="#63b8ff" d="M150.41,-127.14C169.1,-130.94 188.88,-134.96 206.59,-138.56"/>
<polygon fill="#63b8ff" stroke="#63b8ff" points="206.25,-142.06 216.75,-140.62 207.64,-135.2 206.25,-142.06"/>
</a>
</g>
</g>
<!-- Node8 -->
<g id="Node000008" class="node">
<title>Node8</title>
<g id="a_Node000008"><a xlink:href="DetourNavMesh_8cpp.html#a3e7eb7995c416f34e56ae9a40d233655" target="_top" xlink:title=" ">
<polygon fill="white" stroke="#666666" points="305.5,-46.63 223.5,-46.63 223.5,-27.63 305.5,-27.63 305.5,-46.63"/>
<text text-anchor="middle" x="264.5" y="-34.63" font-family="Helvetica,sans-Serif" font-size="10.00">getSlabCoord</text>
</a>
</g>
</g>
<!-- Node1&#45;&gt;Node8 -->
<g id="edge7_Node000001_Node000008" class="edge">
<title>Node1&#45;&gt;Node8</title>
<g id="a_edge7_Node000001_Node000008"><a xlink:title=" ">
<path fill="none" stroke="#63b8ff" d="M102.1,-97.06C124.02,-84.67 156.77,-67.38 187,-56.13 195.39,-53 204.48,-50.24 213.37,-47.85"/>
<polygon fill="#63b8ff" stroke="#63b8ff" points="214.46,-51.18 223.28,-45.31 212.72,-44.4 214.46,-51.18"/>
</a>
</g>
</g>
<!-- Node9 -->
<g id="Node000009" class="node">
<title>Node9</title>
<g id="a_Node000009"><a xlink:href="DetourNavMesh_8cpp.html#acc02f71919750fff6272687cd0879e2a" target="_top" xlink:title=" ">
<polygon fill="white" stroke="#666666" points="304.5,-83.63 224.5,-83.63 224.5,-64.63 304.5,-64.63 304.5,-83.63"/>
<text text-anchor="middle" x="264.5" y="-71.63" font-family="Helvetica,sans-Serif" font-size="10.00">overlapSlabs</text>
</a>
</g>
</g>
<!-- Node1&#45;&gt;Node9 -->
<g id="edge8_Node000001_Node000009" class="edge">
<title>Node1&#45;&gt;Node9</title>
<g id="a_edge8_Node000001_Node000009"><a xlink:title=" ">
<path fill="none" stroke="#63b8ff" d="M150.41,-97.11C171.97,-92.73 194.98,-88.05 214.58,-84.07"/>
<polygon fill="#63b8ff" stroke="#63b8ff" points="215.4,-87.47 224.5,-82.05 214,-80.61 215.4,-87.47"/>
</a>
</g>
</g>
<!-- Node7 -->
<g id="Node000007" class="node">
<title>Node7</title>
<g id="a_Node000007"><a xlink:href="classdtNavMesh.html#a168a479840e7e32613f4b68ee4662d78" target="_top" xlink:title=" ">
<polygon fill="white" stroke="#666666" points="521,-159.63 378,-159.63 378,-140.63 521,-140.63 521,-159.63"/>
<text text-anchor="middle" x="449.5" y="-147.63" font-family="Helvetica,sans-Serif" font-size="10.00">dtNavMesh::encodePolyId</text>
</a>
</g>
</g>
<!-- Node6&#45;&gt;Node7 -->
<g id="edge6_Node000006_Node000007" class="edge">
<title>Node6&#45;&gt;Node7</title>
<g id="a_edge6_Node000006_Node000007"><a xlink:title=" ">
<path fill="none" stroke="#63b8ff" d="M342.05,-150.13C350.47,-150.13 359.07,-150.13 367.55,-150.13"/>
<polygon fill="#63b8ff" stroke="#63b8ff" points="367.81,-153.63 377.81,-150.13 367.81,-146.63 367.81,-153.63"/>
</a>
</g>
</g>
<!-- Node9&#45;&gt;Node4 -->
<g id="edge9_Node000009_Node000004" class="edge">
<title>Node9&#45;&gt;Node4</title>
<g id="a_edge9_Node000009_Node000004"><a xlink:title=" ">
<path fill="none" stroke="#63b8ff" d="M304.76,-82.28C337.97,-89.17 385,-98.94 416.1,-105.4"/>
<polygon fill="#63b8ff" stroke="#63b8ff" points="415.49,-108.85 425.99,-107.45 416.91,-101.99 415.49,-108.85"/>
</a>
</g>
</g>
<!-- Node9&#45;&gt;Node5 -->
<g id="edge10_Node000009_Node000005" class="edge">
<title>Node9&#45;&gt;Node5</title>
<g id="a_edge10_Node000009_Node000005"><a xlink:title=" ">
<path fill="none" stroke="#63b8ff" d="M304.64,-65.8C316.69,-63 329.96,-59.68 342,-56.13 367.84,-48.5 396.59,-38.13 417.7,-30.15"/>
<polygon fill="#63b8ff" stroke="#63b8ff" points="419.02,-33.39 427.11,-26.55 416.52,-26.85 419.02,-33.39"/>
</a>
</g>
</g>
<!-- Node10 -->
<g id="Node000010" class="node">
<title>Node10</title>
<g id="a_Node000010"><a xlink:href="DetourCommon_8h.html#af0a088077730ad6995ce4d82093588cc" target="_top" xlink:title=" ">
<polygon fill="white" stroke="#666666" points="470.5,-83.63 428.5,-83.63 428.5,-64.63 470.5,-64.63 470.5,-83.63"/>
<text text-anchor="middle" x="449.5" y="-71.63" font-family="Helvetica,sans-Serif" font-size="10.00">dtSqr</text>
</a>
</g>
</g>
<!-- Node9&#45;&gt;Node10 -->
<g id="edge11_Node000009_Node000010" class="edge">
<title>Node9&#45;&gt;Node10</title>
<g id="a_edge11_Node000009_Node000010"><a xlink:title=" ">
<path fill="none" stroke="#63b8ff" d="M304.76,-74.13C338.58,-74.13 386.72,-74.13 417.79,-74.13"/>
<polygon fill="#63b8ff" stroke="#63b8ff" points="418.01,-77.63 428.01,-74.13 418.01,-70.63 418.01,-77.63"/>
</a>
</g>
</g>
</g>
</svg>
