<?xml version="1.0" encoding="UTF-8" standalone="no"?>
<!DOCTYPE svg PUBLIC "-//W3C//DTD SVG 1.1//EN"
 "http://www.w3.org/Graphics/SVG/1.1/DTD/svg11.dtd">
<!-- Generated by graphviz version 2.43.0 (0)
 -->
<!-- Title: G3D::SmallArray::push Pages: 1 -->
<!--zoomable 205 -->

<svg id="main" version="1.1" xmlns="http://www.w3.org/2000/svg" xmlns:xlink="http://www.w3.org/1999/xlink" xml:space="preserve" onload="init(evt)">
<style type="text/css"><![CDATA[
.node, .edge {opacity: 0.7;}
.node.selected, .edge.selected {opacity: 1;}
.edge:hover path { stroke: red; }
.edge:hover polygon { stroke: red; fill: red; }
]]></style>

<defs>
  <circle id="rim" cx="0" cy="0" r="7"/>
  <circle id="rim2" cx="0" cy="0" r="3.5"/>
  <g id="zoomPlus">
    <use xlink:href="#rim" fill="#404040"><set attributeName="fill" to="#808080" begin="zoomplus.mouseover" end="zoomplus.mouseout"/></use>
    <path d="M-4,0h8M0,-4v8" fill="none" stroke="white" stroke-width="1.5" pointer-events="none"/>
  </g>
  <g id="zoomMin">
    <use xlink:href="#rim" fill="#404040"><set attributeName="fill" to="#808080" begin="zoomminus.mouseover" end="zoomminus.mouseout"/></use>
    <path d="M-4,0h8" fill="none" stroke="white" stroke-width="1.5" pointer-events="none"/>
  </g>
  <g id="arrowUp" transform="translate(30 24)">
    <use xlink:href="#rim"/>
    <path pointer-events="none" fill="none" stroke="white" stroke-width="1.5" d="M0,-3.0v7 M-2.5,-0.5L0,-3.0L2.5,-0.5"/>
  </g>
  <g id="arrowRight" transform="rotate(90) translate(36 -43)">
    <use xlink:href="#rim"/>
    <path pointer-events="none" fill="none" stroke="white" stroke-width="1.5" d="M0,-3.0v7 M-2.5,-0.5L0,-3.0L2.5,-0.5"/>
  </g>
  <g id="arrowDown" transform="rotate(180) translate(-30 -48)">
    <use xlink:href="#rim"/>
    <path pointer-events="none" fill="none" stroke="white" stroke-width="1.5" d="M0,-3.0v7 M-2.5,-0.5L0,-3.0L2.5,-0.5"/>
  </g>
  <g id="arrowLeft" transform="rotate(270) translate(-36 17)">
    <use xlink:href="#rim"/>
    <path pointer-events="none" fill="none" stroke="white" stroke-width="1.5" d="M0,-3.0v7 M-2.5,-0.5L0,-3.0L2.5,-0.5"/>
  </g>
  <g id="resetDef">
    <use xlink:href="#rim2" fill="#404040"><set attributeName="fill" to="#808080" begin="reset.mouseover" end="reset.mouseout"/></use>
  </g>
</defs>
<script type="application/ecmascript">
var viewWidth = 1037;
var viewHeight = 205;
var sectionId = 'dynsection-14';
</script>
<script type="application/ecmascript" xlink:href="svg.min.js"/>
<svg id="graph" class="graph">
<g id="viewport">
<title>G3D::SmallArray::push</title>
<!-- Node1 -->
<g id="Node000001" class="node">
<title>Node1</title>
<g id="a_Node000001"><a xlink:title=" ">
<polygon fill="#999999" stroke="#666666" points="1029,-117 903,-117 903,-98 1029,-98 1029,-117"/>
<text text-anchor="middle" x="966" y="-105" font-family="Helvetica,sans-Serif" font-size="10.00">G3D::SmallArray::push</text>
</a>
</g>
</g>
<!-- Node2 -->
<g id="Node000002" class="node">
<title>Node2</title>
<g id="a_Node000002"><a xlink:href="classG3D_1_1SmallArray.html#a5299c0c4fd12952a32ed79aa7ad6c2e8" target="_top" xlink:title=" ">
<polygon fill="white" stroke="#666666" points="867,-191 728,-191 728,-172 867,-172 867,-191"/>
<text text-anchor="middle" x="797.5" y="-179" font-family="Helvetica,sans-Serif" font-size="10.00">G3D::SmallArray::append</text>
</a>
</g>
</g>
<!-- Node1&#45;&gt;Node2 -->
<g id="edge1_Node000001_Node000002" class="edge">
<title>Node1&#45;&gt;Node2</title>
<g id="a_edge1_Node000001_Node000002"><a xlink:title=" ">
<path fill="none" stroke="#63b8ff" d="M942.58,-122.58C923.26,-135.01 894.25,-152.36 867,-163.5 859.03,-166.76 850.3,-169.58 841.82,-171.96"/>
<polygon fill="#63b8ff" stroke="#63b8ff" points="944.54,-125.49 950.99,-117.08 940.71,-119.63 944.54,-125.49"/>
</a>
</g>
</g>
<!-- Node7 -->
<g id="Node000007" class="node">
<title>Node7</title>
<g id="a_Node000007"><a xlink:href="classG3D_1_1SmallArray.html#a0a24dfe8e538c562845706f770376203" target="_top" xlink:title=" ">
<polygon fill="white" stroke="#666666" points="867,-154 728,-154 728,-135 867,-135 867,-154"/>
<text text-anchor="middle" x="797.5" y="-142" font-family="Helvetica,sans-Serif" font-size="10.00">G3D::SmallArray::append</text>
</a>
</g>
</g>
<!-- Node1&#45;&gt;Node7 -->
<g id="edge6_Node000001_Node000007" class="edge">
<title>Node1&#45;&gt;Node7</title>
<g id="a_edge6_Node000001_Node000007"><a xlink:title=" ">
<path fill="none" stroke="#63b8ff" d="M912.26,-119.22C889.46,-124.29 863.11,-130.14 841.52,-134.94"/>
<polygon fill="#63b8ff" stroke="#63b8ff" points="913.12,-122.61 922.12,-117.03 911.6,-115.78 913.12,-122.61"/>
</a>
</g>
</g>
<!-- Node8 -->
<g id="Node000008" class="node">
<title>Node8</title>
<g id="a_Node000008"><a xlink:href="classG3D_1_1SmallArray.html#a07fe8f66b3db8fe61c5d24c14be7c872" target="_top" xlink:title=" ">
<polygon fill="white" stroke="#666666" points="867,-117 728,-117 728,-98 867,-98 867,-117"/>
<text text-anchor="middle" x="797.5" y="-105" font-family="Helvetica,sans-Serif" font-size="10.00">G3D::SmallArray::append</text>
</a>
</g>
</g>
<!-- Node1&#45;&gt;Node8 -->
<g id="edge7_Node000001_Node000008" class="edge">
<title>Node1&#45;&gt;Node8</title>
<g id="a_edge7_Node000001_Node000008"><a xlink:title=" ">
<path fill="none" stroke="#63b8ff" d="M892.41,-107.5C884.03,-107.5 875.51,-107.5 867.18,-107.5"/>
<polygon fill="#63b8ff" stroke="#63b8ff" points="892.53,-111 902.53,-107.5 892.53,-104 892.53,-111"/>
</a>
</g>
</g>
<!-- Node9 -->
<g id="Node000009" class="node">
<title>Node9</title>
<g id="a_Node000009"><a xlink:href="classG3D_1_1SmallArray.html#adb6546540eb56222d6dfb63e6e593d41" target="_top" xlink:title=" ">
<polygon fill="white" stroke="#666666" points="867,-80 728,-80 728,-61 867,-61 867,-80"/>
<text text-anchor="middle" x="797.5" y="-68" font-family="Helvetica,sans-Serif" font-size="10.00">G3D::SmallArray::append</text>
</a>
</g>
</g>
<!-- Node1&#45;&gt;Node9 -->
<g id="edge8_Node000001_Node000009" class="edge">
<title>Node1&#45;&gt;Node9</title>
<g id="a_edge8_Node000001_Node000009"><a xlink:title=" ">
<path fill="none" stroke="#63b8ff" d="M912.26,-95.78C889.46,-90.71 863.11,-84.86 841.52,-80.06"/>
<polygon fill="#63b8ff" stroke="#63b8ff" points="911.6,-99.22 922.12,-97.97 913.12,-92.39 911.6,-99.22"/>
</a>
</g>
</g>
<!-- Node10 -->
<g id="Node000010" class="node">
<title>Node10</title>
<g id="a_Node000010"><a xlink:href="classG3D_1_1MeshEdgeTable.html#ac8fc1be17e3078910d5b569b42ce56bc" target="_top" xlink:title=" ">
<polygon fill="white" stroke="#666666" points="857,-42.5 738,-42.5 738,-12.5 857,-12.5 857,-42.5"/>
<text text-anchor="start" x="746" y="-30.5" font-family="Helvetica,sans-Serif" font-size="10.00">G3D::MeshEdgeTable</text>
<text text-anchor="middle" x="797.5" y="-19.5" font-family="Helvetica,sans-Serif" font-size="10.00">::insert</text>
</a>
</g>
</g>
<!-- Node1&#45;&gt;Node10 -->
<g id="edge9_Node000001_Node000010" class="edge">
<title>Node1&#45;&gt;Node10</title>
<g id="a_edge9_Node000001_Node000010"><a xlink:title=" ">
<path fill="none" stroke="#63b8ff" d="M941.67,-92.56C922.2,-80.49 893.47,-63.58 867,-51.5 860.01,-48.31 852.46,-45.28 845.01,-42.51"/>
<polygon fill="#63b8ff" stroke="#63b8ff" points="939.84,-95.54 950.17,-97.89 943.56,-89.61 939.84,-95.54"/>
</a>
</g>
</g>
<!-- Node3 -->
<g id="Node000003" class="node">
<title>Node3</title>
<g id="a_Node000003"><a xlink:href="classG3D_1_1__internal_1_1WeldHelper.html#aa0edc51998000d2a3196ae5d179bf42f" target="_top" xlink:title=" ">
<polygon fill="white" stroke="#666666" points="674,-196.5 525,-196.5 525,-166.5 674,-166.5 674,-196.5"/>
<text text-anchor="start" x="533" y="-184.5" font-family="Helvetica,sans-Serif" font-size="10.00">G3D::_internal::WeldHelper</text>
<text text-anchor="middle" x="599.5" y="-173.5" font-family="Helvetica,sans-Serif" font-size="10.00">::smoothNormals</text>
</a>
</g>
</g>
<!-- Node2&#45;&gt;Node3 -->
<g id="edge2_Node000002_Node000003" class="edge">
<title>Node2&#45;&gt;Node3</title>
<g id="a_edge2_Node000002_Node000003"><a xlink:title=" ">
<path fill="none" stroke="#63b8ff" d="M717.59,-181.5C703.2,-181.5 688.24,-181.5 674.01,-181.5"/>
<polygon fill="#63b8ff" stroke="#63b8ff" points="717.95,-185 727.95,-181.5 717.95,-178 717.95,-185"/>
</a>
</g>
</g>
<!-- Node4 -->
<g id="Node000004" class="node">
<title>Node4</title>
<g id="a_Node000004"><a xlink:href="classG3D_1_1__internal_1_1WeldHelper.html#a2ffd731a7033397397494f19a0cc9922" target="_top" xlink:title=" ">
<polygon fill="white" stroke="#666666" points="453,-196.5 304,-196.5 304,-166.5 453,-166.5 453,-196.5"/>
<text text-anchor="start" x="312" y="-184.5" font-family="Helvetica,sans-Serif" font-size="10.00">G3D::_internal::WeldHelper</text>
<text text-anchor="middle" x="378.5" y="-173.5" font-family="Helvetica,sans-Serif" font-size="10.00">::process</text>
</a>
</g>
</g>
<!-- Node3&#45;&gt;Node4 -->
<g id="edge3_Node000003_Node000004" class="edge">
<title>Node3&#45;&gt;Node4</title>
<g id="a_edge3_Node000003_Node000004"><a xlink:title=" ">
<path fill="none" stroke="#63b8ff" d="M514.81,-181.5C494.53,-181.5 472.99,-181.5 453.21,-181.5"/>
<polygon fill="#63b8ff" stroke="#63b8ff" points="514.97,-185 524.97,-181.5 514.97,-178 514.97,-185"/>
</a>
</g>
</g>
<!-- Node5 -->
<g id="Node000005" class="node">
<title>Node5</title>
<g id="a_Node000005"><a xlink:href="classG3D_1_1Welder.html#ac2c1ee3422214dcabda35bea9052e4c0" target="_top" xlink:title=" ">
<polygon fill="white" stroke="#666666" points="250,-191 143,-191 143,-172 250,-172 250,-191"/>
<text text-anchor="middle" x="196.5" y="-179" font-family="Helvetica,sans-Serif" font-size="10.00">G3D::Welder::weld</text>
</a>
</g>
</g>
<!-- Node4&#45;&gt;Node5 -->
<g id="edge4_Node000004_Node000005" class="edge">
<title>Node4&#45;&gt;Node5</title>
<g id="a_edge4_Node000004_Node000005"><a xlink:title=" ">
<path fill="none" stroke="#63b8ff" d="M293.59,-181.5C278.81,-181.5 263.81,-181.5 250.19,-181.5"/>
<polygon fill="#63b8ff" stroke="#63b8ff" points="293.77,-185 303.77,-181.5 293.77,-178 293.77,-185"/>
</a>
</g>
</g>
<!-- Node6 -->
<g id="Node000006" class="node">
<title>Node6</title>
<g id="a_Node000006"><a xlink:href="classG3D_1_1Welder.html#a0379234936b0424a85df50baf62fd7ed" target="_top" xlink:title=" ">
<polygon fill="white" stroke="#666666" points="107,-191 0,-191 0,-172 107,-172 107,-191"/>
<text text-anchor="middle" x="53.5" y="-179" font-family="Helvetica,sans-Serif" font-size="10.00">G3D::Welder::weld</text>
</a>
</g>
</g>
<!-- Node5&#45;&gt;Node6 -->
<g id="edge5_Node000005_Node000006" class="edge">
<title>Node5&#45;&gt;Node6</title>
<g id="a_edge5_Node000005_Node000006"><a xlink:title=" ">
<path fill="none" stroke="#63b8ff" d="M132.95,-181.5C124.3,-181.5 115.49,-181.5 107.05,-181.5"/>
<polygon fill="#63b8ff" stroke="#63b8ff" points="133,-185 143,-181.5 133,-178 133,-185"/>
</a>
</g>
</g>
<!-- Node11 -->
<g id="Node000011" class="node">
<title>Node11</title>
<g id="a_Node000011"><a xlink:href="classG3D_1_1MeshAlg.html#af9c7e0c436b7ea572b49c138e66fe1e1" target="_top" xlink:title=" ">
<polygon fill="white" stroke="#666666" points="692,-37 507,-37 507,-18 692,-18 692,-37"/>
<text text-anchor="middle" x="599.5" y="-25" font-family="Helvetica,sans-Serif" font-size="10.00">G3D::MeshAlg::computeAdjacency</text>
</a>
</g>
</g>
<!-- Node10&#45;&gt;Node11 -->
<g id="edge10_Node000010_Node000011" class="edge">
<title>Node10&#45;&gt;Node11</title>
<g id="a_edge10_Node000010_Node000011"><a xlink:title=" ">
<path fill="none" stroke="#63b8ff" d="M727.95,-27.5C716.37,-27.5 704.18,-27.5 692.12,-27.5"/>
<polygon fill="#63b8ff" stroke="#63b8ff" points="727.96,-31 737.96,-27.5 727.96,-24 727.96,-31"/>
</a>
</g>
</g>
<!-- Node12 -->
<g id="Node000012" class="node">
<title>Node12</title>
<g id="a_Node000012"><a xlink:href="classG3D_1_1MeshAlg.html#a7523393a6241ffdccc3e40485e4688ad" target="_top" xlink:title=" ">
<polygon fill="white" stroke="#666666" points="471,-56 286,-56 286,-37 471,-37 471,-56"/>
<text text-anchor="middle" x="378.5" y="-44" font-family="Helvetica,sans-Serif" font-size="10.00">G3D::MeshAlg::computeAdjacency</text>
</a>
</g>
</g>
<!-- Node11&#45;&gt;Node12 -->
<g id="edge11_Node000011_Node000012" class="edge">
<title>Node11&#45;&gt;Node12</title>
<g id="a_edge11_Node000011_Node000012"><a xlink:title=" ">
<path fill="none" stroke="#63b8ff" d="M496.85,-36.32C488.26,-37.06 479.6,-37.82 471.09,-38.55"/>
<polygon fill="#63b8ff" stroke="#63b8ff" points="497.23,-39.8 506.89,-35.45 496.63,-32.83 497.23,-39.8"/>
</a>
</g>
</g>
<!-- Node13 -->
<g id="Node000013" class="node">
<title>Node13</title>
<g id="a_Node000013"><a xlink:href="classG3D_1_1MeshAlg.html#a2e63563e941c28782bda25c0a7be48ec" target="_top" xlink:title=" ">
<polygon fill="white" stroke="#666666" points="466.5,-19 290.5,-19 290.5,0 466.5,0 466.5,-19"/>
<text text-anchor="middle" x="378.5" y="-7" font-family="Helvetica,sans-Serif" font-size="10.00">G3D::MeshAlg::computeNormals</text>
</a>
</g>
</g>
<!-- Node11&#45;&gt;Node13 -->
<g id="edge12_Node000011_Node000013" class="edge">
<title>Node11&#45;&gt;Node13</title>
<g id="a_edge12_Node000011_Node000013"><a xlink:title=" ">
<path fill="none" stroke="#63b8ff" d="M496.82,-19.14C486.7,-18.31 476.49,-17.47 466.54,-16.65"/>
<polygon fill="#63b8ff" stroke="#63b8ff" points="496.64,-22.64 506.89,-19.97 497.21,-15.66 496.64,-22.64"/>
</a>
</g>
</g>
</g>
</svg>

<g id="navigator" transform="translate(0 0)" fill="#404254">
  <rect fill="#f2f5e9" fill-opacity="0.5" stroke="#606060" stroke-width=".5" x="0" y="0" width="60" height="60"/>
  <use id="zoomplus" xlink:href="#zoomPlus" x="17" y="9" onmousedown="handleZoom(evt,'in')"/>
  <use id="zoomminus" xlink:href="#zoomMin" x="42" y="9" onmousedown="handleZoom(evt,'out')"/>
  <use id="reset" xlink:href="#resetDef" x="30" y="36" onmousedown="handleReset()"/>
   <use id="arrowup" xlink:href="#arrowUp" x="0" y="0" onmousedown="handlePan(0,-1)"/>
  <use id="arrowright" xlink:href="#arrowRight" x="0" y="0" onmousedown="handlePan(1,0)"/>
  <use id="arrowdown" xlink:href="#arrowDown" x="0" y="0" onmousedown="handlePan(0,1)"/>
  <use id="arrowleft" xlink:href="#arrowLeft" x="0" y="0" onmousedown="handlePan(-1,0)"/>
</g>
<svg viewBox="0 0 15 15" width="100%" height="30px" preserveAspectRatio="xMaxYMin meet">
 <g id="arrow_out" transform="scale(0.3 0.3)">
  <a xlink:href="classG3D_1_1SmallArray_a58797b5439bc59ad241001314a132392_icgraph_org.svg" target="_base">
   <rect id="button" ry="5" rx="5" y="6" x="6" height="38" width="38"
        fill="#f2f5e9" fill-opacity="0.5" stroke="#606060" stroke-width="1.0"/>
   <path id="arrow"
     d="M 11.500037,31.436501 C 11.940474,20.09759 22.043105,11.32322 32.158766,21.979434 L 37.068811,17.246167 C 37.068811,17.246167 37.088388,32 37.088388,32 L 22.160133,31.978069 C 22.160133,31.978069 26.997745,27.140456 26.997745,27.140456 C 18.528582,18.264221 13.291696,25.230495 11.500037,31.436501 z"
     style="fill:#404040;"/>
  </a>
 </g>
</svg>

<style type='text/css'>
<![CDATA[
[data-mouse-over-selected='false'] { opacity: 0.7; }
[data-mouse-over-selected='true']  { opacity: 1.0; }
]]>
</style>
<script type="application/ecmascript"><![CDATA[
document.addEventListener('DOMContentLoaded', (event) => {
  highlightEdges();
  highlightAdjacentNodes();
});
]]></script>
</svg>
