<?xml version="1.0" encoding="UTF-8" standalone="no"?>
<!DOCTYPE svg PUBLIC "-//W3C//DTD SVG 1.1//EN"
 "http://www.w3.org/Graphics/SVG/1.1/DTD/svg11.dtd">
<!-- Generated by graphviz version 2.43.0 (0)
 -->
<!-- Title: Player::hasQuestInFinishedDailies Pages: 1 -->
<svg width="556pt" height="64pt"
 viewBox="0.00 0.00 556.00 64.00" xmlns="http://www.w3.org/2000/svg" xmlns:xlink="http://www.w3.org/1999/xlink">
<g id="graph0" class="graph" transform="scale(1 1) rotate(0) translate(4 60)">
<title>Player::hasQuestInFinishedDailies</title>
<!-- Node1 -->
<g id="Node000001" class="node">
<title>Node1</title>
<g id="a_Node000001"><a xlink:title=" ">
<polygon fill="#999999" stroke="#666666" points="548,-42.5 399,-42.5 399,-12.5 548,-12.5 548,-42.5"/>
<text text-anchor="start" x="407" y="-30.5" font-family="Helvetica,sans-Serif" font-size="10.00">Player::hasQuestInFinished</text>
<text text-anchor="middle" x="473.5" y="-19.5" font-family="Helvetica,sans-Serif" font-size="10.00">Dailies</text>
</a>
</g>
</g>
<!-- Node2 -->
<g id="Node000002" class="node">
<title>Node2</title>
<g id="a_Node000002"><a xlink:href="classQuestMgr.html#a4be1bf9ec01275cb53e0e9d159e5ebcb" target="_top" xlink:title=" ">
<polygon fill="white" stroke="#666666" points="352,-56 197,-56 197,-37 352,-37 352,-56"/>
<text text-anchor="middle" x="274.5" y="-44" font-family="Helvetica,sans-Serif" font-size="10.00">QuestMgr::PlayerMeetsReqs</text>
</a>
</g>
</g>
<!-- Node1&#45;&gt;Node2 -->
<g id="edge1_Node000001_Node000002" class="edge">
<title>Node1&#45;&gt;Node2</title>
<g id="a_edge1_Node000001_Node000002"><a xlink:title=" ">
<path fill="none" stroke="#63b8ff" d="M388.72,-35.58C376.53,-36.76 364.04,-37.96 352.01,-39.12"/>
<polygon fill="#63b8ff" stroke="#63b8ff" points="389.25,-39.05 398.86,-34.6 388.57,-32.08 389.25,-39.05"/>
</a>
</g>
</g>
<!-- Node4 -->
<g id="Node000004" class="node">
<title>Node4</title>
<g id="a_Node000004"><a xlink:href="classLfgMgr.html#a448ccc87db8ae8b6199723cb943d0374" target="_top" xlink:title=" ">
<polygon fill="white" stroke="#666666" points="363,-19 186,-19 186,0 363,0 363,-19"/>
<text text-anchor="middle" x="274.5" y="-7" font-family="Helvetica,sans-Serif" font-size="10.00">LfgMgr::RewardDungeonDoneFor</text>
</a>
</g>
</g>
<!-- Node1&#45;&gt;Node4 -->
<g id="edge3_Node000001_Node000004" class="edge">
<title>Node1&#45;&gt;Node4</title>
<g id="a_edge3_Node000001_Node000004"><a xlink:title=" ">
<path fill="none" stroke="#63b8ff" d="M388.9,-19.86C380.33,-19.08 371.61,-18.28 363,-17.5"/>
<polygon fill="#63b8ff" stroke="#63b8ff" points="388.59,-23.35 398.86,-20.77 389.22,-16.38 388.59,-23.35"/>
</a>
</g>
</g>
<!-- Node3 -->
<g id="Node000003" class="node">
<title>Node3</title>
<g id="a_Node000003"><a xlink:href="classQuestMgr.html#afcb63e4644ba4c64bdc601c596cc38f8" target="_top" xlink:title=" ">
<polygon fill="white" stroke="#666666" points="150,-56 0,-56 0,-37 150,-37 150,-56"/>
<text text-anchor="middle" x="75" y="-44" font-family="Helvetica,sans-Serif" font-size="10.00">QuestMgr::CalcQuestStatus</text>
</a>
</g>
</g>
<!-- Node2&#45;&gt;Node3 -->
<g id="edge2_Node000002_Node000003" class="edge">
<title>Node2&#45;&gt;Node3</title>
<g id="a_edge2_Node000002_Node000003"><a xlink:title=" ">
<path fill="none" stroke="#63b8ff" d="M186.66,-46.5C174.44,-46.5 161.96,-46.5 150,-46.5"/>
<polygon fill="#63b8ff" stroke="#63b8ff" points="186.86,-50 196.86,-46.5 186.86,-43 186.86,-50"/>
</a>
</g>
</g>
</g>
</svg>
