<?xml version="1.0" encoding="UTF-8" standalone="no"?>
<!DOCTYPE svg PUBLIC "-//W3C//DTD SVG 1.1//EN"
 "http://www.w3.org/Graphics/SVG/1.1/DTD/svg11.dtd">
<!-- Generated by graphviz version 2.43.0 (0)
 -->
<!-- Title: Player::findFreeStablePetSlot Pages: 1 -->
<!--zoomable 76 -->

<svg id="main" version="1.1" xmlns="http://www.w3.org/2000/svg" xmlns:xlink="http://www.w3.org/1999/xlink" xml:space="preserve" onload="init(evt)">
<style type="text/css"><![CDATA[
.node, .edge {opacity: 0.7;}
.node.selected, .edge.selected {opacity: 1;}
.edge:hover path { stroke: red; }
.edge:hover polygon { stroke: red; fill: red; }
]]></style>

<defs>
  <circle id="rim" cx="0" cy="0" r="7"/>
  <circle id="rim2" cx="0" cy="0" r="3.5"/>
  <g id="zoomPlus">
    <use xlink:href="#rim" fill="#404040"><set attributeName="fill" to="#808080" begin="zoomplus.mouseover" end="zoomplus.mouseout"/></use>
    <path d="M-4,0h8M0,-4v8" fill="none" stroke="white" stroke-width="1.5" pointer-events="none"/>
  </g>
  <g id="zoomMin">
    <use xlink:href="#rim" fill="#404040"><set attributeName="fill" to="#808080" begin="zoomminus.mouseover" end="zoomminus.mouseout"/></use>
    <path d="M-4,0h8" fill="none" stroke="white" stroke-width="1.5" pointer-events="none"/>
  </g>
  <g id="arrowUp" transform="translate(30 24)">
    <use xlink:href="#rim"/>
    <path pointer-events="none" fill="none" stroke="white" stroke-width="1.5" d="M0,-3.0v7 M-2.5,-0.5L0,-3.0L2.5,-0.5"/>
  </g>
  <g id="arrowRight" transform="rotate(90) translate(36 -43)">
    <use xlink:href="#rim"/>
    <path pointer-events="none" fill="none" stroke="white" stroke-width="1.5" d="M0,-3.0v7 M-2.5,-0.5L0,-3.0L2.5,-0.5"/>
  </g>
  <g id="arrowDown" transform="rotate(180) translate(-30 -48)">
    <use xlink:href="#rim"/>
    <path pointer-events="none" fill="none" stroke="white" stroke-width="1.5" d="M0,-3.0v7 M-2.5,-0.5L0,-3.0L2.5,-0.5"/>
  </g>
  <g id="arrowLeft" transform="rotate(270) translate(-36 17)">
    <use xlink:href="#rim"/>
    <path pointer-events="none" fill="none" stroke="white" stroke-width="1.5" d="M0,-3.0v7 M-2.5,-0.5L0,-3.0L2.5,-0.5"/>
  </g>
  <g id="resetDef">
    <use xlink:href="#rim2" fill="#404040"><set attributeName="fill" to="#808080" begin="reset.mouseover" end="reset.mouseout"/></use>
  </g>
</defs>
<script type="application/ecmascript">
var viewWidth = 1322;
var viewHeight = 76;
var sectionId = 'dynsection-245';
</script>
<script type="application/ecmascript" xlink:href="svg.min.js"/>
<svg id="graph" class="graph">
<g id="viewport">
<title>Player::findFreeStablePetSlot</title>
<!-- Node1 -->
<g id="Node000001" class="node">
<title>Node1</title>
<g id="a_Node000001"><a xlink:title=" ">
<polygon fill="#999999" stroke="#666666" points="1314,-38 1156,-38 1156,-19 1314,-19 1314,-38"/>
<text text-anchor="middle" x="1235" y="-26" font-family="Helvetica,sans-Serif" font-size="10.00">Player::findFreeStablePetSlot</text>
</a>
</g>
</g>
<!-- Node2 -->
<g id="Node000002" class="node">
<title>Node2</title>
<g id="a_Node000002"><a xlink:href="classPlayer.html#a53505805e5bf62b2ca3d46cfa5cced75" target="_top" xlink:title=" ">
<polygon fill="white" stroke="#666666" points="1120,-57 1025,-57 1025,-38 1120,-38 1120,-57"/>
<text text-anchor="middle" x="1072.5" y="-45" font-family="Helvetica,sans-Serif" font-size="10.00">Player::_loadPet</text>
</a>
</g>
</g>
<!-- Node1&#45;&gt;Node2 -->
<g id="edge1_Node000001_Node000002" class="edge">
<title>Node1&#45;&gt;Node2</title>
<g id="a_edge1_Node000001_Node000002"><a xlink:title=" ">
<path fill="none" stroke="#63b8ff" d="M1145.44,-38.98C1136.78,-40.01 1128.26,-41.02 1120.27,-41.96"/>
<polygon fill="#63b8ff" stroke="#63b8ff" points="1146.11,-42.43 1155.63,-37.78 1145.29,-35.48 1146.11,-42.43"/>
</a>
</g>
</g>
<!-- Node9 -->
<g id="Node000009" class="node">
<title>Node9</title>
<g id="a_Node000009"><a xlink:href="classWorldSession.html#ae68c235f28b430c90956103f9324b24b" target="_top" xlink:title=" ">
<polygon fill="white" stroke="#666666" points="989,-19 822,-19 822,0 989,0 989,-19"/>
<text text-anchor="middle" x="905.5" y="-7" font-family="Helvetica,sans-Serif" font-size="10.00">WorldSession::handleStablePet</text>
</a>
</g>
</g>
<!-- Node1&#45;&gt;Node9 -->
<g id="edge8_Node000001_Node000009" class="edge">
<title>Node1&#45;&gt;Node9</title>
<g id="a_edge8_Node000001_Node000009"><a xlink:title=" ">
<path fill="none" stroke="#63b8ff" d="M1145.76,-23.38C1097.03,-20.55 1036.88,-17.06 989.08,-14.29"/>
<polygon fill="#63b8ff" stroke="#63b8ff" points="1145.79,-26.89 1155.97,-23.97 1146.19,-19.9 1145.79,-26.89"/>
</a>
</g>
</g>
<!-- Node3 -->
<g id="Node000003" class="node">
<title>Node3</title>
<g id="a_Node000003"><a xlink:href="classPlayer.html#aef9657cfd03752640597085cef9a301c" target="_top" xlink:title=" ">
<polygon fill="white" stroke="#666666" points="972.5,-58 838.5,-58 838.5,-39 972.5,-39 972.5,-58"/>
<text text-anchor="middle" x="905.5" y="-46" font-family="Helvetica,sans-Serif" font-size="10.00">Player::loadFromDBProc</text>
</a>
</g>
</g>
<!-- Node2&#45;&gt;Node3 -->
<g id="edge2_Node000002_Node000003" class="edge">
<title>Node2&#45;&gt;Node3</title>
<g id="a_edge2_Node000002_Node000003"><a xlink:title=" ">
<path fill="none" stroke="#63b8ff" d="M1014.54,-47.85C1001,-47.93 986.45,-48.02 972.55,-48.1"/>
<polygon fill="#63b8ff" stroke="#63b8ff" points="1014.68,-51.34 1024.66,-47.78 1014.64,-44.34 1014.68,-51.34"/>
</a>
</g>
</g>
<!-- Node4 -->
<g id="Node000004" class="node">
<title>Node4</title>
<g id="a_Node000004"><a xlink:href="classPlayer.html#a1200ce26258018cc8504b340968dbc58" target="_top" xlink:title=" ">
<polygon fill="white" stroke="#666666" points="786,-59 673,-59 673,-40 786,-40 786,-59"/>
<text text-anchor="middle" x="729.5" y="-47" font-family="Helvetica,sans-Serif" font-size="10.00">Player::loadFromDB</text>
</a>
</g>
</g>
<!-- Node3&#45;&gt;Node4 -->
<g id="edge3_Node000003_Node000004" class="edge">
<title>Node3&#45;&gt;Node4</title>
<g id="a_edge3_Node000003_Node000004"><a xlink:title=" ">
<path fill="none" stroke="#63b8ff" d="M828.04,-48.94C813.93,-49.02 799.45,-49.1 786.11,-49.18"/>
<polygon fill="#63b8ff" stroke="#63b8ff" points="828.24,-52.44 838.22,-48.88 828.2,-45.44 828.24,-52.44"/>
</a>
</g>
</g>
<!-- Node5 -->
<g id="Node000005" class="node">
<title>Node5</title>
<g id="a_Node000005"><a xlink:href="classWorldSession.html#add83b9d7b8f14d3232a732c4433401f2" target="_top" xlink:title=" ">
<polygon fill="white" stroke="#666666" points="637,-67.5 497,-67.5 497,-37.5 637,-37.5 637,-67.5"/>
<text text-anchor="start" x="505" y="-55.5" font-family="Helvetica,sans-Serif" font-size="10.00">WorldSession::loadPlayer</text>
<text text-anchor="middle" x="567" y="-44.5" font-family="Helvetica,sans-Serif" font-size="10.00">FromDBProc</text>
</a>
</g>
</g>
<!-- Node4&#45;&gt;Node5 -->
<g id="edge4_Node000004_Node000005" class="edge">
<title>Node4&#45;&gt;Node5</title>
<g id="a_edge4_Node000004_Node000005"><a xlink:title=" ">
<path fill="none" stroke="#63b8ff" d="M662.68,-50.73C654.27,-50.89 645.63,-51.05 637.16,-51.21"/>
<polygon fill="#63b8ff" stroke="#63b8ff" points="662.88,-54.23 672.82,-50.54 662.75,-47.23 662.88,-54.23"/>
</a>
</g>
</g>
<!-- Node6 -->
<g id="Node000006" class="node">
<title>Node6</title>
<g id="a_Node000006"><a xlink:href="classWorldSession.html#a9ec4902647c824408805c6a68591181f" target="_top" xlink:title=" ">
<polygon fill="white" stroke="#666666" points="461,-67.5 309,-67.5 309,-37.5 461,-37.5 461,-67.5"/>
<text text-anchor="start" x="317" y="-55.5" font-family="Helvetica,sans-Serif" font-size="10.00">WorldSession::handlePlayer</text>
<text text-anchor="middle" x="385" y="-44.5" font-family="Helvetica,sans-Serif" font-size="10.00">LoginOpcode</text>
</a>
</g>
</g>
<!-- Node5&#45;&gt;Node6 -->
<g id="edge5_Node000005_Node000006" class="edge">
<title>Node5&#45;&gt;Node6</title>
<g id="a_edge5_Node000005_Node000006"><a xlink:title=" ">
<path fill="none" stroke="#63b8ff" d="M486.67,-52.5C478.2,-52.5 469.6,-52.5 461.18,-52.5"/>
<polygon fill="#63b8ff" stroke="#63b8ff" points="486.92,-56 496.92,-52.5 486.92,-49 486.92,-56"/>
</a>
</g>
</g>
<!-- Node7 -->
<g id="Node000007" class="node">
<title>Node7</title>
<g id="a_Node000007"><a xlink:href="classWorldSession.html#a213cc2e7e497e0cddfde0a1460e4acd0" target="_top" xlink:title=" ">
<polygon fill="white" stroke="#666666" points="273,-45.5 111,-45.5 111,-15.5 273,-15.5 273,-45.5"/>
<text text-anchor="start" x="119" y="-33.5" font-family="Helvetica,sans-Serif" font-size="10.00">WorldSession::registerOpcode</text>
<text text-anchor="middle" x="192" y="-22.5" font-family="Helvetica,sans-Serif" font-size="10.00">Handler</text>
</a>
</g>
</g>
<!-- Node6&#45;&gt;Node7 -->
<g id="edge6_Node000006_Node000007" class="edge">
<title>Node6&#45;&gt;Node7</title>
<g id="a_edge6_Node000006_Node000007"><a xlink:title=" ">
<path fill="none" stroke="#63b8ff" d="M298.84,-42.69C290.3,-41.71 281.66,-40.71 273.18,-39.74"/>
<polygon fill="#63b8ff" stroke="#63b8ff" points="298.45,-46.17 308.79,-43.84 299.25,-39.22 298.45,-46.17"/>
</a>
</g>
</g>
<!-- Node8 -->
<g id="Node000008" class="node">
<title>Node8</title>
<g id="a_Node000008"><a xlink:href="classMaster.html#a12dde72f3398edffca613e77185fd6f3" target="_top" xlink:title=" ">
<polygon fill="white" stroke="#666666" points="75,-40 0,-40 0,-21 75,-21 75,-40"/>
<text text-anchor="middle" x="37.5" y="-28" font-family="Helvetica,sans-Serif" font-size="10.00">Master::Run</text>
</a>
</g>
</g>
<!-- Node7&#45;&gt;Node8 -->
<g id="edge7_Node000007_Node000008" class="edge">
<title>Node7&#45;&gt;Node8</title>
<g id="a_edge7_Node000007_Node000008"><a xlink:title=" ">
<path fill="none" stroke="#63b8ff" d="M100.55,-30.5C91.61,-30.5 82.94,-30.5 75.05,-30.5"/>
<polygon fill="#63b8ff" stroke="#63b8ff" points="100.73,-34 110.73,-30.5 100.73,-27 100.73,-34"/>
</a>
</g>
</g>
<!-- Node9&#45;&gt;Node7 -->
<g id="edge9_Node000009_Node000007" class="edge">
<title>Node9&#45;&gt;Node7</title>
<g id="a_edge9_Node000009_Node000007"><a xlink:title=" ">
<path fill="none" stroke="#63b8ff" d="M811.51,-12.24C670.72,-16.4 405.87,-24.22 273.12,-28.14"/>
<polygon fill="#63b8ff" stroke="#63b8ff" points="811.95,-15.73 821.84,-11.94 811.74,-8.74 811.95,-15.73"/>
</a>
</g>
</g>
</g>
</svg>

<g id="navigator" transform="translate(0 0)" fill="#404254">
  <rect fill="#f2f5e9" fill-opacity="0.5" stroke="#606060" stroke-width=".5" x="0" y="0" width="60" height="60"/>
  <use id="zoomplus" xlink:href="#zoomPlus" x="17" y="9" onmousedown="handleZoom(evt,'in')"/>
  <use id="zoomminus" xlink:href="#zoomMin" x="42" y="9" onmousedown="handleZoom(evt,'out')"/>
  <use id="reset" xlink:href="#resetDef" x="30" y="36" onmousedown="handleReset()"/>
   <use id="arrowup" xlink:href="#arrowUp" x="0" y="0" onmousedown="handlePan(0,-1)"/>
  <use id="arrowright" xlink:href="#arrowRight" x="0" y="0" onmousedown="handlePan(1,0)"/>
  <use id="arrowdown" xlink:href="#arrowDown" x="0" y="0" onmousedown="handlePan(0,1)"/>
  <use id="arrowleft" xlink:href="#arrowLeft" x="0" y="0" onmousedown="handlePan(-1,0)"/>
</g>
<svg viewBox="0 0 15 15" width="100%" height="30px" preserveAspectRatio="xMaxYMin meet">
 <g id="arrow_out" transform="scale(0.3 0.3)">
  <a xlink:href="classPlayer_a3c719cff5731c1ef6fb7552908d05482_icgraph_org.svg" target="_base">
   <rect id="button" ry="5" rx="5" y="6" x="6" height="38" width="38"
        fill="#f2f5e9" fill-opacity="0.5" stroke="#606060" stroke-width="1.0"/>
   <path id="arrow"
     d="M 11.500037,31.436501 C 11.940474,20.09759 22.043105,11.32322 32.158766,21.979434 L 37.068811,17.246167 C 37.068811,17.246167 37.088388,32 37.088388,32 L 22.160133,31.978069 C 22.160133,31.978069 26.997745,27.140456 26.997745,27.140456 C 18.528582,18.264221 13.291696,25.230495 11.500037,31.436501 z"
     style="fill:#404040;"/>
  </a>
 </g>
</svg>

<style type='text/css'>
<![CDATA[
[data-mouse-over-selected='false'] { opacity: 0.7; }
[data-mouse-over-selected='true']  { opacity: 1.0; }
]]>
</style>
<script type="application/ecmascript"><![CDATA[
document.addEventListener('DOMContentLoaded', (event) => {
  highlightEdges();
  highlightAdjacentNodes();
});
]]></script>
</svg>
