<?xml version="1.0" encoding="UTF-8" standalone="no"?>
<!DOCTYPE svg PUBLIC "-//W3C//DTD SVG 1.1//EN"
 "http://www.w3.org/Graphics/SVG/1.1/DTD/svg11.dtd">
<!-- Generated by graphviz version 2.43.0 (0)
 -->
<!-- Title: ItemIterator::Increment Pages: 1 -->
<svg width="700pt" height="70pt"
 viewBox="0.00 0.00 700.00 69.50" xmlns="http://www.w3.org/2000/svg" xmlns:xlink="http://www.w3.org/1999/xlink">
<g id="graph0" class="graph" transform="scale(1 1) rotate(0) translate(4 65.5)">
<title>ItemIterator::Increment</title>
<!-- Node1 -->
<g id="Node000001" class="node">
<title>Node1</title>
<g id="a_Node000001"><a xlink:title=" ">
<polygon fill="#999999" stroke="#666666" points="692,-43.5 561,-43.5 561,-24.5 692,-24.5 692,-43.5"/>
<text text-anchor="middle" x="626.5" y="-31.5" font-family="Helvetica,sans-Serif" font-size="10.00">ItemIterator::Increment</text>
</a>
</g>
</g>
<!-- Node1&#45;&gt;Node1 -->
<g id="edge6_Node000001_Node000001" class="edge">
<title>Node1&#45;&gt;Node1</title>
<g id="a_edge6_Node000001_Node000001"><a xlink:title=" ">
<path fill="none" stroke="#63b8ff" d="M658.69,-51.95C657.77,-57.32 647.04,-61.5 626.5,-61.5 595.93,-61.5 587.09,-52.23 599.99,-43.58"/>
<polygon fill="#63b8ff" stroke="#63b8ff" points="661.52,-49.89 653.01,-43.58 655.73,-53.82 661.52,-49.89"/>
</a>
</g>
</g>
<!-- Node2 -->
<g id="Node000002" class="node">
<title>Node2</title>
<g id="a_Node000002"><a xlink:href="classItemIterator.html#a7486ce876a72e5c75eb336b266cd2526" target="_top" xlink:title=" ">
<polygon fill="white" stroke="#666666" points="525,-43.5 383,-43.5 383,-24.5 525,-24.5 525,-43.5"/>
<text text-anchor="middle" x="454" y="-31.5" font-family="Helvetica,sans-Serif" font-size="10.00">ItemIterator::BeginSearch</text>
</a>
</g>
</g>
<!-- Node1&#45;&gt;Node2 -->
<g id="edge1_Node000001_Node000002" class="edge">
<title>Node1&#45;&gt;Node2</title>
<g id="a_edge1_Node000001_Node000002"><a xlink:title=" ">
<path fill="none" stroke="#63b8ff" d="M550.41,-27.29C542.01,-27.22 533.49,-27.24 525.16,-27.34"/>
<polygon fill="#63b8ff" stroke="#63b8ff" points="550.51,-30.79 560.55,-27.42 550.6,-23.79 550.51,-30.79"/>
</a>
</g>
</g>
<!-- Node3 -->
<g id="Node000003" class="node">
<title>Node3</title>
<g id="a_Node000003"><a xlink:href="classChatCommandHandler.html#a1ec213d563839fdaeaaa1c288c5788eb" target="_top" xlink:title=" ">
<polygon fill="white" stroke="#666666" points="347,-30 172,-30 172,0 347,0 347,-30"/>
<text text-anchor="start" x="180" y="-18" font-family="Helvetica,sans-Serif" font-size="10.00">ChatCommandHandler</text>
<text text-anchor="middle" x="259.5" y="-7" font-family="Helvetica,sans-Serif" font-size="10.00">::HandleCharListItemsCommand</text>
</a>
</g>
</g>
<!-- Node1&#45;&gt;Node3 -->
<g id="edge5_Node000001_Node000003" class="edge">
<title>Node1&#45;&gt;Node3</title>
<g id="a_edge5_Node000001_Node000003"><a xlink:title=" ">
<path fill="none" stroke="#63b8ff" d="M571.55,-22.56C556.55,-19.87 540.2,-17.38 525,-16 465.78,-10.63 398.79,-10.43 347.04,-11.55"/>
<polygon fill="#63b8ff" stroke="#63b8ff" points="571.22,-26.06 581.7,-24.45 572.5,-19.18 571.22,-26.06"/>
</a>
</g>
</g>
<!-- Node2&#45;&gt;Node1 -->
<g id="edge4_Node000002_Node000001" class="edge">
<title>Node2&#45;&gt;Node1</title>
<g id="a_edge4_Node000002_Node000001"><a xlink:title=" ">
<path fill="none" stroke="#63b8ff" d="M535.39,-40.74C543.83,-40.77 552.33,-40.72 560.55,-40.58"/>
<polygon fill="#63b8ff" stroke="#63b8ff" points="535.19,-37.24 525.16,-40.66 535.13,-44.24 535.19,-37.24"/>
</a>
</g>
</g>
<!-- Node2&#45;&gt;Node3 -->
<g id="edge2_Node000002_Node000003" class="edge">
<title>Node2&#45;&gt;Node3</title>
<g id="a_edge2_Node000002_Node000003"><a xlink:title=" ">
<path fill="none" stroke="#63b8ff" d="M372.77,-26.08C364.33,-25.25 355.73,-24.4 347.22,-23.56"/>
<polygon fill="#63b8ff" stroke="#63b8ff" points="372.66,-29.59 382.96,-27.09 373.35,-22.62 372.66,-29.59"/>
</a>
</g>
</g>
<!-- Node4 -->
<g id="Node000004" class="node">
<title>Node4</title>
<g id="a_Node000004"><a xlink:href="classCommandTableStorage.html#a3e4c1b5de1a9cb06c059165e7997a8d0" target="_top" xlink:title=" ">
<polygon fill="white" stroke="#666666" points="136,-30 0,-30 0,0 136,0 136,-30"/>
<text text-anchor="start" x="8" y="-18" font-family="Helvetica,sans-Serif" font-size="10.00">CommandTableStorage</text>
<text text-anchor="middle" x="68" y="-7" font-family="Helvetica,sans-Serif" font-size="10.00">::CommandTableStorage</text>
</a>
</g>
</g>
<!-- Node3&#45;&gt;Node4 -->
<g id="edge3_Node000003_Node000004" class="edge">
<title>Node3&#45;&gt;Node4</title>
<g id="a_edge3_Node000003_Node000004"><a xlink:title=" ">
<path fill="none" stroke="#63b8ff" d="M161.65,-15C153.01,-15 144.39,-15 136.09,-15"/>
<polygon fill="#63b8ff" stroke="#63b8ff" points="161.79,-18.5 171.79,-15 161.79,-11.5 161.79,-18.5"/>
</a>
</g>
</g>
</g>
</svg>
