<?xml version="1.0" encoding="UTF-8" standalone="no"?>
<!DOCTYPE svg PUBLIC "-//W3C//DTD SVG 1.1//EN"
 "http://www.w3.org/Graphics/SVG/1.1/DTD/svg11.dtd">
<!-- Generated by graphviz version 2.43.0 (0)
 -->
<!-- Title: G3D::PointHashGrid::PointHashGrid Pages: 1 -->
<svg width="990pt" height="148pt"
 viewBox="0.00 0.00 990.00 147.50" xmlns="http://www.w3.org/2000/svg" xmlns:xlink="http://www.w3.org/1999/xlink">
<g id="graph0" class="graph" transform="scale(1 1) rotate(0) translate(4 143.5)">
<title>G3D::PointHashGrid::PointHashGrid</title>
<!-- Node1 -->
<g id="Node000001" class="node">
<title>Node1</title>
<g id="a_Node000001"><a xlink:title=" ">
<polygon fill="#999999" stroke="#666666" points="113,-78 0,-78 0,-48 113,-48 113,-78"/>
<text text-anchor="start" x="8" y="-66" font-family="Helvetica,sans-Serif" font-size="10.00">G3D::PointHashGrid</text>
<text text-anchor="middle" x="56.5" y="-55" font-family="Helvetica,sans-Serif" font-size="10.00">::PointHashGrid</text>
</a>
</g>
</g>
<!-- Node2 -->
<g id="Node000002" class="node">
<title>Node2</title>
<g id="a_Node000002"><a xlink:href="classG3D_1_1Table.html#a945f08b4c7c367fffd99605b16a3703e" target="_top" xlink:title=" ">
<polygon fill="white" stroke="#666666" points="323,-126 149,-126 149,-96 323,-96 323,-126"/>
<text text-anchor="start" x="157" y="-114" font-family="Helvetica,sans-Serif" font-size="10.00">G3D::Table::clearAndSetMemory</text>
<text text-anchor="middle" x="236" y="-103" font-family="Helvetica,sans-Serif" font-size="10.00">Manager</text>
</a>
</g>
</g>
<!-- Node1&#45;&gt;Node2 -->
<g id="edge1_Node000001_Node000002" class="edge">
<title>Node1&#45;&gt;Node2</title>
<g id="a_edge1_Node000001_Node000002"><a xlink:title=" ">
<path fill="none" stroke="#63b8ff" d="M113.18,-78.06C131.1,-82.9 151.13,-88.32 169.68,-93.34"/>
<polygon fill="#63b8ff" stroke="#63b8ff" points="168.96,-96.77 179.52,-96 170.78,-90.01 168.96,-96.77"/>
</a>
</g>
</g>
<!-- Node8 -->
<g id="Node000008" class="node">
<title>Node8</title>
<g id="a_Node000008"><a xlink:href="classG3D_1_1PointHashGrid.html#a7cfcd2177b45e146c8967ee8efb65a97" target="_top" xlink:title=" ">
<polygon fill="white" stroke="#666666" points="292.5,-78 179.5,-78 179.5,-48 292.5,-48 292.5,-78"/>
<text text-anchor="start" x="187.5" y="-66" font-family="Helvetica,sans-Serif" font-size="10.00">G3D::PointHashGrid</text>
<text text-anchor="middle" x="236" y="-55" font-family="Helvetica,sans-Serif" font-size="10.00">::initOffsetArray</text>
</a>
</g>
</g>
<!-- Node1&#45;&gt;Node8 -->
<g id="edge7_Node000001_Node000008" class="edge">
<title>Node1&#45;&gt;Node8</title>
<g id="a_edge7_Node000001_Node000008"><a xlink:title=" ">
<path fill="none" stroke="#63b8ff" d="M113.18,-63C130.93,-63 150.75,-63 169.16,-63"/>
<polygon fill="#63b8ff" stroke="#63b8ff" points="169.22,-66.5 179.22,-63 169.22,-59.5 169.22,-66.5"/>
</a>
</g>
</g>
<!-- Node9 -->
<g id="Node000009" class="node">
<title>Node9</title>
<g id="a_Node000009"><a xlink:href="classG3D_1_1PointHashGrid.html#abac4e3b7eba9cade7f59afe98b0dd7ec" target="_top" xlink:title=" ">
<polygon fill="white" stroke="#666666" points="292.5,-30 179.5,-30 179.5,0 292.5,0 292.5,-30"/>
<text text-anchor="start" x="187.5" y="-18" font-family="Helvetica,sans-Serif" font-size="10.00">G3D::PointHashGrid</text>
<text text-anchor="middle" x="236" y="-7" font-family="Helvetica,sans-Serif" font-size="10.00">::radiusHint</text>
</a>
</g>
</g>
<!-- Node1&#45;&gt;Node9 -->
<g id="edge8_Node000001_Node000009" class="edge">
<title>Node1&#45;&gt;Node9</title>
<g id="a_edge8_Node000001_Node000009"><a xlink:title=" ">
<path fill="none" stroke="#63b8ff" d="M113.18,-47.94C131.1,-43.1 151.13,-37.68 169.68,-32.66"/>
<polygon fill="#63b8ff" stroke="#63b8ff" points="170.78,-35.99 179.52,-30 168.96,-29.23 170.78,-35.99"/>
</a>
</g>
</g>
<!-- Node3 -->
<g id="Node000003" class="node">
<title>Node3</title>
<g id="a_Node000003"><a xlink:href="classG3D_1_1Table.html#a6339aa01b987b83be4d5f816b469b2a2" target="_top" xlink:title=" ">
<polygon fill="white" stroke="#666666" points="458,-120.5 359,-120.5 359,-101.5 458,-101.5 458,-120.5"/>
<text text-anchor="middle" x="408.5" y="-108.5" font-family="Helvetica,sans-Serif" font-size="10.00">G3D::Table::clear</text>
</a>
</g>
</g>
<!-- Node2&#45;&gt;Node3 -->
<g id="edge2_Node000002_Node000003" class="edge">
<title>Node2&#45;&gt;Node3</title>
<g id="a_edge2_Node000002_Node000003"><a xlink:title=" ">
<path fill="none" stroke="#63b8ff" d="M323.25,-111C331.84,-111 340.43,-111 348.64,-111"/>
<polygon fill="#63b8ff" stroke="#63b8ff" points="348.83,-114.5 358.83,-111 348.83,-107.5 348.83,-114.5"/>
</a>
</g>
</g>
<!-- Node4 -->
<g id="Node000004" class="node">
<title>Node4</title>
<g id="a_Node000004"><a xlink:href="classG3D_1_1Table.html#abe19b290287362ca482b68f10f509923" target="_top" xlink:title=" ">
<polygon fill="white" stroke="#666666" points="629,-120.5 494,-120.5 494,-101.5 629,-101.5 629,-120.5"/>
<text text-anchor="middle" x="561.5" y="-108.5" font-family="Helvetica,sans-Serif" font-size="10.00">G3D::Table::freeMemory</text>
</a>
</g>
</g>
<!-- Node3&#45;&gt;Node4 -->
<g id="edge3_Node000003_Node000004" class="edge">
<title>Node3&#45;&gt;Node4</title>
<g id="a_edge3_Node000003_Node000004"><a xlink:title=" ">
<path fill="none" stroke="#63b8ff" d="M458.11,-111C466.29,-111 474.95,-111 483.64,-111"/>
<polygon fill="#63b8ff" stroke="#63b8ff" points="483.82,-114.5 493.82,-111 483.82,-107.5 483.82,-114.5"/>
</a>
</g>
</g>
<!-- Node5 -->
<g id="Node000005" class="node">
<title>Node5</title>
<g id="a_Node000005"><a xlink:href="classG3D_1_1Table.html#ae99d63bc869bbba8bbb20edd11d7a18a" target="_top" xlink:title=" ">
<polygon fill="white" stroke="#666666" points="810,-139.5 665,-139.5 665,-120.5 810,-120.5 810,-139.5"/>
<text text-anchor="middle" x="737.5" y="-127.5" font-family="Helvetica,sans-Serif" font-size="10.00">G3D::Table::checkIntegrity</text>
</a>
</g>
</g>
<!-- Node4&#45;&gt;Node5 -->
<g id="edge4_Node000004_Node000005" class="edge">
<title>Node4&#45;&gt;Node5</title>
<g id="a_edge4_Node000004_Node000005"><a xlink:title=" ">
<path fill="none" stroke="#63b8ff" d="M629.28,-118.29C637.68,-119.21 646.35,-120.16 654.95,-121.09"/>
<polygon fill="#63b8ff" stroke="#63b8ff" points="654.67,-124.59 664.99,-122.19 655.43,-117.63 654.67,-124.59"/>
</a>
</g>
</g>
<!-- Node7 -->
<g id="Node000007" class="node">
<title>Node7</title>
<g id="a_Node000007"><a xlink:href="classG3D_1_1Table.html#a1aec77a8136b548b46c95cb5ca49dd37" target="_top" xlink:title=" ">
<polygon fill="white" stroke="#666666" points="785,-102.5 690,-102.5 690,-83.5 785,-83.5 785,-102.5"/>
<text text-anchor="middle" x="737.5" y="-90.5" font-family="Helvetica,sans-Serif" font-size="10.00">G3D::Table::free</text>
</a>
</g>
</g>
<!-- Node4&#45;&gt;Node7 -->
<g id="edge6_Node000004_Node000007" class="edge">
<title>Node4&#45;&gt;Node7</title>
<g id="a_edge6_Node000004_Node000007"><a xlink:title=" ">
<path fill="none" stroke="#63b8ff" d="M629.28,-104.09C645.86,-102.38 663.49,-100.55 679.56,-98.89"/>
<polygon fill="#63b8ff" stroke="#63b8ff" points="680.28,-102.33 689.86,-97.82 679.56,-95.37 680.28,-102.33"/>
</a>
</g>
</g>
<!-- Node6 -->
<g id="Node000006" class="node">
<title>Node6</title>
<g id="a_Node000006"><a xlink:href="namespaceG3D.html#a0790a0dbb21d74ea7d12909c48e2d79d" target="_top" xlink:title=" ">
<polygon fill="white" stroke="#666666" points="982,-139.5 846,-139.5 846,-120.5 982,-120.5 982,-139.5"/>
<text text-anchor="middle" x="914" y="-127.5" font-family="Helvetica,sans-Serif" font-size="10.00">G3D::isValidHeapPointer</text>
</a>
</g>
</g>
<!-- Node5&#45;&gt;Node6 -->
<g id="edge5_Node000005_Node000006" class="edge">
<title>Node5&#45;&gt;Node6</title>
<g id="a_edge5_Node000005_Node000006"><a xlink:title=" ">
<path fill="none" stroke="#63b8ff" d="M810.23,-130C818.59,-130 827.13,-130 835.56,-130"/>
<polygon fill="#63b8ff" stroke="#63b8ff" points="835.76,-133.5 845.76,-130 835.76,-126.5 835.76,-133.5"/>
</a>
</g>
</g>
</g>
</svg>
