<?xml version="1.0" encoding="UTF-8" standalone="no"?>
<!DOCTYPE svg PUBLIC "-//W3C//DTD SVG 1.1//EN"
 "http://www.w3.org/Graphics/SVG/1.1/DTD/svg11.dtd">
<!-- Generated by graphviz version 2.43.0 (0)
 -->
<!-- Title: FireBombAI::FireBombAI Pages: 1 -->
<svg width="934pt" height="124pt"
 viewBox="0.00 0.00 934.00 124.00" xmlns="http://www.w3.org/2000/svg" xmlns:xlink="http://www.w3.org/1999/xlink">
<g id="graph0" class="graph" transform="scale(1 1) rotate(0) translate(4 120)">
<title>FireBombAI::FireBombAI</title>
<!-- Node1 -->
<g id="Node000001" class="node">
<title>Node1</title>
<g id="a_Node000001"><a xlink:title="Firebomb.">
<polygon fill="#999999" stroke="#666666" points="135,-94 0,-94 0,-75 135,-75 135,-94"/>
<text text-anchor="middle" x="67.5" y="-82" font-family="Helvetica,sans-Serif" font-size="10.00">FireBombAI::FireBombAI</text>
</a>
</g>
</g>
<!-- Node2 -->
<g id="Node000002" class="node">
<title>Node2</title>
<g id="a_Node000002"><a xlink:href="classCreatureAIScript.html#a971bb1373556b3ec594d8f7ba5f5e6e6" target="_top" xlink:title=" ">
<polygon fill="white" stroke="#666666" points="331,-116 171,-116 171,-97 331,-97 331,-116"/>
<text text-anchor="middle" x="251" y="-104" font-family="Helvetica,sans-Serif" font-size="10.00">CreatureAIScript::getCreature</text>
</a>
</g>
</g>
<!-- Node1&#45;&gt;Node2 -->
<g id="edge1_Node000001_Node000002" class="edge">
<title>Node1&#45;&gt;Node2</title>
<g id="a_edge1_Node000001_Node000002"><a xlink:title=" ">
<path fill="none" stroke="#63b8ff" d="M135.05,-92.57C143.65,-93.61 152.57,-94.69 161.45,-95.77"/>
<polygon fill="#63b8ff" stroke="#63b8ff" points="161.1,-99.25 171.45,-96.98 161.95,-92.3 161.1,-99.25"/>
</a>
</g>
</g>
<!-- Node3 -->
<g id="Node000003" class="node">
<title>Node3</title>
<g id="a_Node000003"><a xlink:href="classCreatureAIScript.html#ad4dda153d3ca60b11ca469e1540bd7ca" target="_top" xlink:title=" ">
<polygon fill="white" stroke="#666666" points="319.5,-78.5 182.5,-78.5 182.5,-48.5 319.5,-48.5 319.5,-78.5"/>
<text text-anchor="start" x="190.5" y="-66.5" font-family="Helvetica,sans-Serif" font-size="10.00">CreatureAIScript::setUnit</text>
<text text-anchor="middle" x="251" y="-55.5" font-family="Helvetica,sans-Serif" font-size="10.00">Flags</text>
</a>
</g>
</g>
<!-- Node1&#45;&gt;Node3 -->
<g id="edge2_Node000001_Node000003" class="edge">
<title>Node1&#45;&gt;Node3</title>
<g id="a_edge2_Node000001_Node000003"><a xlink:title=" ">
<path fill="none" stroke="#63b8ff" d="M135.05,-76.8C147.07,-75.41 159.69,-73.95 172,-72.53"/>
<polygon fill="#63b8ff" stroke="#63b8ff" points="172.71,-75.97 182.24,-71.34 171.9,-69.01 172.71,-75.97"/>
</a>
</g>
</g>
<!-- Node4 -->
<g id="Node000004" class="node">
<title>Node4</title>
<g id="a_Node000004"><a xlink:href="classUnit.html#a887727aa4db30d7fee65b72961457abf" target="_top" xlink:title=" ">
<polygon fill="white" stroke="#666666" points="471,-73 367,-73 367,-54 471,-54 471,-73"/>
<text text-anchor="middle" x="419" y="-61" font-family="Helvetica,sans-Serif" font-size="10.00">Unit::setUnitFlags</text>
</a>
</g>
</g>
<!-- Node3&#45;&gt;Node4 -->
<g id="edge3_Node000003_Node000004" class="edge">
<title>Node3&#45;&gt;Node4</title>
<g id="a_edge3_Node000003_Node000004"><a xlink:title=" ">
<path fill="none" stroke="#63b8ff" d="M319.52,-63.5C331.86,-63.5 344.68,-63.5 356.82,-63.5"/>
<polygon fill="#63b8ff" stroke="#63b8ff" points="356.84,-67 366.84,-63.5 356.84,-60 356.84,-67"/>
</a>
</g>
</g>
<!-- Node5 -->
<g id="Node000005" class="node">
<title>Node5</title>
<g id="a_Node000005"><a xlink:href="classUnit.html#a2b80af47340ac01ca2031723f37e839a" target="_top" xlink:title=" ">
<polygon fill="white" stroke="#666666" points="592,-92 507,-92 507,-73 592,-73 592,-92"/>
<text text-anchor="middle" x="549.5" y="-80" font-family="Helvetica,sans-Serif" font-size="10.00">Unit::unitData</text>
</a>
</g>
</g>
<!-- Node4&#45;&gt;Node5 -->
<g id="edge4_Node000004_Node000005" class="edge">
<title>Node4&#45;&gt;Node5</title>
<g id="a_edge4_Node000004_Node000005"><a xlink:title=" ">
<path fill="none" stroke="#63b8ff" d="M471.16,-71.06C479.52,-72.3 488.18,-73.58 496.56,-74.82"/>
<polygon fill="#63b8ff" stroke="#63b8ff" points="496.19,-78.3 506.6,-76.3 497.22,-71.38 496.19,-78.3"/>
</a>
</g>
</g>
<!-- Node6 -->
<g id="Node000006" class="node">
<title>Node6</title>
<g id="a_Node000006"><a xlink:href="classObject.html#a8b600efb87d19216b881a2451ce3629f" target="_top" xlink:title=" ">
<polygon fill="white" stroke="#666666" points="589,-55 510,-55 510,-36 589,-36 589,-55"/>
<text text-anchor="middle" x="549.5" y="-43" font-family="Helvetica,sans-Serif" font-size="10.00">Object::write</text>
</a>
</g>
</g>
<!-- Node4&#45;&gt;Node6 -->
<g id="edge5_Node000004_Node000006" class="edge">
<title>Node4&#45;&gt;Node6</title>
<g id="a_edge5_Node000004_Node000006"><a xlink:title=" ">
<path fill="none" stroke="#63b8ff" d="M471.16,-56.33C480.61,-55.01 490.47,-53.63 499.85,-52.32"/>
<polygon fill="#63b8ff" stroke="#63b8ff" points="500.38,-55.77 509.8,-50.92 499.41,-48.84 500.38,-55.77"/>
</a>
</g>
</g>
<!-- Node7 -->
<g id="Node000007" class="node">
<title>Node7</title>
<g id="a_Node000007"><a xlink:href="classUpdateMask.html#aaf858dd57840b7228abe64c6376d1c89" target="_top" xlink:title=" ">
<polygon fill="white" stroke="#666666" points="744,-74 631,-74 631,-55 744,-55 744,-74"/>
<text text-anchor="middle" x="687.5" y="-62" font-family="Helvetica,sans-Serif" font-size="10.00">UpdateMask::SetBit</text>
</a>
</g>
</g>
<!-- Node6&#45;&gt;Node7 -->
<g id="edge6_Node000006_Node000007" class="edge">
<title>Node6&#45;&gt;Node7</title>
<g id="a_edge6_Node000006_Node000007"><a xlink:title=" ">
<path fill="none" stroke="#63b8ff" d="M589.11,-50.89C599.03,-52.28 609.98,-53.81 620.86,-55.33"/>
<polygon fill="#63b8ff" stroke="#63b8ff" points="620.4,-58.8 630.79,-56.72 621.37,-51.87 620.4,-58.8"/>
</a>
</g>
</g>
<!-- Node8 -->
<g id="Node000008" class="node">
<title>Node8</title>
<g id="a_Node000008"><a xlink:href="classObject.html#a796330249e8c0e5f7c2cf52715638620" target="_top" xlink:title=" ">
<polygon fill="white" stroke="#666666" points="747,-37 628,-37 628,-18 747,-18 747,-37"/>
<text text-anchor="middle" x="687.5" y="-25" font-family="Helvetica,sans-Serif" font-size="10.00">Object::updateObject</text>
</a>
</g>
</g>
<!-- Node6&#45;&gt;Node8 -->
<g id="edge7_Node000006_Node000008" class="edge">
<title>Node6&#45;&gt;Node8</title>
<g id="a_edge7_Node000006_Node000008"><a xlink:title=" ">
<path fill="none" stroke="#63b8ff" d="M589.11,-40.39C598.18,-39.19 608.11,-37.87 618.06,-36.56"/>
<polygon fill="#63b8ff" stroke="#63b8ff" points="618.52,-40.03 627.98,-35.25 617.61,-33.09 618.52,-40.03"/>
</a>
</g>
</g>
<!-- Node9 -->
<g id="Node000009" class="node">
<title>Node9</title>
<g id="a_Node000009"><a xlink:href="classObject.html#a3aeab7def818ba6c50249f197ad2f9ca" target="_top" xlink:title=" ">
<polygon fill="white" stroke="#666666" points="904,-56 805,-56 805,-37 904,-37 904,-56"/>
<text text-anchor="middle" x="854.5" y="-44" font-family="Helvetica,sans-Serif" font-size="10.00">Object::IsInWorld</text>
</a>
</g>
</g>
<!-- Node8&#45;&gt;Node9 -->
<g id="edge8_Node000008_Node000009" class="edge">
<title>Node8&#45;&gt;Node9</title>
<g id="a_edge8_Node000008_Node000009"><a xlink:title=" ">
<path fill="none" stroke="#63b8ff" d="M747.14,-34.25C762.64,-36.04 779.37,-37.96 794.87,-39.75"/>
<polygon fill="#63b8ff" stroke="#63b8ff" points="794.52,-43.23 804.85,-40.9 795.32,-36.28 794.52,-43.23"/>
</a>
</g>
</g>
<!-- Node10 -->
<g id="Node000010" class="node">
<title>Node10</title>
<g id="a_Node000010"><a xlink:href="classWorldMap.html#aabf61e8d556612e51b4e87a605d314bf" target="_top" xlink:title=" ">
<polygon fill="white" stroke="#666666" points="926,-19 783,-19 783,0 926,0 926,-19"/>
<text text-anchor="middle" x="854.5" y="-7" font-family="Helvetica,sans-Serif" font-size="10.00">WorldMap::objectUpdated</text>
</a>
</g>
</g>
<!-- Node8&#45;&gt;Node10 -->
<g id="edge9_Node000008_Node000010" class="edge">
<title>Node8&#45;&gt;Node10</title>
<g id="a_edge9_Node000008_Node000010"><a xlink:title=" ">
<path fill="none" stroke="#63b8ff" d="M747.14,-21.1C755.46,-20.2 764.14,-19.25 772.79,-18.31"/>
<polygon fill="#63b8ff" stroke="#63b8ff" points="773.34,-21.77 782.91,-17.2 772.59,-14.81 773.34,-21.77"/>
</a>
</g>
</g>
</g>
</svg>
