<?xml version="1.0" encoding="UTF-8" standalone="no"?>
<!DOCTYPE svg PUBLIC "-//W3C//DTD SVG 1.1//EN"
 "http://www.w3.org/Graphics/SVG/1.1/DTD/svg11.dtd">
<!-- Generated by graphviz version 2.43.0 (0)
 -->
<!-- Title: ModelInstance::ModelInstance Pages: 1 -->
<!--zoomable 473 -->

<svg id="main" version="1.1" xmlns="http://www.w3.org/2000/svg" xmlns:xlink="http://www.w3.org/1999/xlink" xml:space="preserve" onload="init(evt)">
<style type="text/css"><![CDATA[
.node, .edge {opacity: 0.7;}
.node.selected, .edge.selected {opacity: 1;}
.edge:hover path { stroke: red; }
.edge:hover polygon { stroke: red; fill: red; }
]]></style>

<defs>
  <circle id="rim" cx="0" cy="0" r="7"/>
  <circle id="rim2" cx="0" cy="0" r="3.5"/>
  <g id="zoomPlus">
    <use xlink:href="#rim" fill="#404040"><set attributeName="fill" to="#808080" begin="zoomplus.mouseover" end="zoomplus.mouseout"/></use>
    <path d="M-4,0h8M0,-4v8" fill="none" stroke="white" stroke-width="1.5" pointer-events="none"/>
  </g>
  <g id="zoomMin">
    <use xlink:href="#rim" fill="#404040"><set attributeName="fill" to="#808080" begin="zoomminus.mouseover" end="zoomminus.mouseout"/></use>
    <path d="M-4,0h8" fill="none" stroke="white" stroke-width="1.5" pointer-events="none"/>
  </g>
  <g id="arrowUp" transform="translate(30 24)">
    <use xlink:href="#rim"/>
    <path pointer-events="none" fill="none" stroke="white" stroke-width="1.5" d="M0,-3.0v7 M-2.5,-0.5L0,-3.0L2.5,-0.5"/>
  </g>
  <g id="arrowRight" transform="rotate(90) translate(36 -43)">
    <use xlink:href="#rim"/>
    <path pointer-events="none" fill="none" stroke="white" stroke-width="1.5" d="M0,-3.0v7 M-2.5,-0.5L0,-3.0L2.5,-0.5"/>
  </g>
  <g id="arrowDown" transform="rotate(180) translate(-30 -48)">
    <use xlink:href="#rim"/>
    <path pointer-events="none" fill="none" stroke="white" stroke-width="1.5" d="M0,-3.0v7 M-2.5,-0.5L0,-3.0L2.5,-0.5"/>
  </g>
  <g id="arrowLeft" transform="rotate(270) translate(-36 17)">
    <use xlink:href="#rim"/>
    <path pointer-events="none" fill="none" stroke="white" stroke-width="1.5" d="M0,-3.0v7 M-2.5,-0.5L0,-3.0L2.5,-0.5"/>
  </g>
  <g id="resetDef">
    <use xlink:href="#rim2" fill="#404040"><set attributeName="fill" to="#808080" begin="reset.mouseover" end="reset.mouseout"/></use>
  </g>
</defs>
<script type="application/ecmascript">
var viewWidth = 1009;
var viewHeight = 473;
var sectionId = 'dynsection-1';
</script>
<script type="application/ecmascript" xlink:href="svg.min.js"/>
<svg id="graph" class="graph">
<g id="viewport">
<title>ModelInstance::ModelInstance</title>
<!-- Node1 -->
<g id="Node000001" class="node">
<title>Node1</title>
<g id="a_Node000001"><a xlink:title=" ">
<polygon fill="#999999" stroke="#666666" points="165,-428.27 0,-428.27 0,-409.27 165,-409.27 165,-428.27"/>
<text text-anchor="middle" x="82.5" y="-416.27" font-family="Helvetica,sans-Serif" font-size="10.00">ModelInstance::ModelInstance</text>
</a>
</g>
</g>
<!-- Node2 -->
<g id="Node000002" class="node">
<title>Node2</title>
<g id="a_Node000002"><a xlink:href="ToolsCataMop_2vmap__tools_2vmap4__extractor_2wmo_8h.html#ab265837fe64577975f97318431c69e9c" target="_top" xlink:title=" ">
<polygon fill="white" stroke="#666666" points="274,-465.27 212,-465.27 212,-446.27 274,-446.27 274,-465.27"/>
<text text-anchor="middle" x="243" y="-453.27" font-family="Helvetica,sans-Serif" font-size="10.00">fixCoords</text>
</a>
</g>
</g>
<!-- Node1&#45;&gt;Node2 -->
<g id="edge1_Node000001_Node000002" class="edge">
<title>Node1&#45;&gt;Node2</title>
<g id="a_edge1_Node000001_Node000002"><a xlink:title=" ">
<path fill="none" stroke="#63b8ff" d="M124.32,-428.3C148.23,-433.88 178.31,-440.9 202.07,-446.45"/>
<polygon fill="#63b8ff" stroke="#63b8ff" points="201.3,-449.86 211.83,-448.73 202.89,-443.05 201.3,-449.86"/>
</a>
</g>
</g>
<!-- Node3 -->
<g id="Node000003" class="node">
<title>Node3</title>
<g id="a_Node000003"><a xlink:href="classMPQFile.html#a043163c245d15759ec0bc8a12772d581" target="_top" xlink:title=" ">
<polygon fill="white" stroke="#666666" points="285,-428.27 201,-428.27 201,-409.27 285,-409.27 285,-428.27"/>
<text text-anchor="middle" x="243" y="-416.27" font-family="Helvetica,sans-Serif" font-size="10.00">MPQFile::read</text>
</a>
</g>
</g>
<!-- Node1&#45;&gt;Node3 -->
<g id="edge2_Node000001_Node000003" class="edge">
<title>Node1&#45;&gt;Node3</title>
<g id="a_edge2_Node000001_Node000003"><a xlink:title=" ">
<path fill="none" stroke="#63b8ff" d="M165.07,-418.77C173.82,-418.77 182.53,-418.77 190.77,-418.77"/>
<polygon fill="#63b8ff" stroke="#63b8ff" points="190.93,-422.27 200.93,-418.77 190.93,-415.27 190.93,-422.27"/>
</a>
</g>
</g>
<!-- Node4 -->
<g id="Node000004" class="node">
<title>Node4</title>
<g id="a_Node000004"><a xlink:href="printf_8h.html#aa7d2e7e454d3fe606a71504a119dc894" target="_top" xlink:title=" ">
<polygon fill="white" stroke="#666666" points="267,-391.27 219,-391.27 219,-372.27 267,-372.27 267,-391.27"/>
<text text-anchor="middle" x="243" y="-379.27" font-family="Helvetica,sans-Serif" font-size="10.00">sprintf</text>
</a>
</g>
</g>
<!-- Node1&#45;&gt;Node4 -->
<g id="edge3_Node000001_Node000004" class="edge">
<title>Node1&#45;&gt;Node4</title>
<g id="a_edge3_Node000001_Node000004"><a xlink:title=" ">
<path fill="none" stroke="#63b8ff" d="M124.32,-409.24C150.64,-403.1 184.43,-395.21 209.05,-389.46"/>
<polygon fill="#63b8ff" stroke="#63b8ff" points="210.04,-392.82 218.98,-387.14 208.45,-386.01 210.04,-392.82"/>
</a>
</g>
</g>
<!-- Node5 -->
<g id="Node000005" class="node">
<title>Node5</title>
<g id="a_Node000005"><a xlink:href="namespacedetail.html#a4662b86e5cfc5c32eb3efea5a84d3040" target="_top" xlink:title=" ">
<polygon fill="white" stroke="#666666" points="1001,-413.27 879,-413.27 879,-394.27 1001,-394.27 1001,-413.27"/>
<text text-anchor="middle" x="940" y="-401.27" font-family="Helvetica,sans-Serif" font-size="10.00">detail::to_string_view</text>
</a>
</g>
</g>
<!-- Node4&#45;&gt;Node5 -->
<g id="edge4_Node000004_Node000005" class="edge">
<title>Node4&#45;&gt;Node5</title>
<g id="a_edge4_Node000004_Node000005"><a xlink:title=" ">
<path fill="none" stroke="#63b8ff" d="M267.04,-389.39C305.03,-401.24 383.38,-422.77 451.5,-422.77 451.5,-422.77 451.5,-422.77 589,-422.77 686.15,-422.77 798.25,-415.38 868.87,-409.82"/>
<polygon fill="#63b8ff" stroke="#63b8ff" points="869.29,-413.3 878.98,-409.01 868.73,-406.32 869.29,-413.3"/>
</a>
</g>
</g>
<!-- Node6 -->
<g id="Node000006" class="node">
<title>Node6</title>
<g id="a_Node000006"><a xlink:href="printf_8h.html#a311c23311e27a4306be06585a569b77b" target="_top" xlink:title=" ">
<polygon fill="white" stroke="#666666" points="375,-310.27 321,-310.27 321,-291.27 375,-291.27 375,-310.27"/>
<text text-anchor="middle" x="348" y="-298.27" font-family="Helvetica,sans-Serif" font-size="10.00">vsprintf</text>
</a>
</g>
</g>
<!-- Node4&#45;&gt;Node6 -->
<g id="edge5_Node000004_Node000006" class="edge">
<title>Node4&#45;&gt;Node6</title>
<g id="a_edge5_Node000004_Node000006"><a xlink:title=" ">
<path fill="none" stroke="#63b8ff" d="M256.22,-372.16C273.64,-358.46 305.83,-333.14 326.82,-316.64"/>
<polygon fill="#63b8ff" stroke="#63b8ff" points="329.1,-319.3 334.8,-310.37 324.77,-313.8 329.1,-319.3"/>
</a>
</g>
</g>
<!-- Node7 -->
<g id="Node000007" class="node">
<title>Node7</title>
<g id="a_Node000007"><a xlink:href="fmt_2include_2fmt_2format_8h.html#aa1899efcee92a5f5ca77b11423b256c5" target="_top" xlink:title=" ">
<polygon fill="white" stroke="#666666" points="482,-310.27 423,-310.27 423,-291.27 482,-291.27 482,-310.27"/>
<text text-anchor="middle" x="452.5" y="-298.27" font-family="Helvetica,sans-Serif" font-size="10.00">to_string</text>
</a>
</g>
</g>
<!-- Node6&#45;&gt;Node7 -->
<g id="edge6_Node000006_Node000007" class="edge">
<title>Node6&#45;&gt;Node7</title>
<g id="a_edge6_Node000006_Node000007"><a xlink:title=" ">
<path fill="none" stroke="#63b8ff" d="M375.13,-300.77C386.53,-300.77 400.13,-300.77 412.68,-300.77"/>
<polygon fill="#63b8ff" stroke="#63b8ff" points="412.89,-304.27 422.89,-300.77 412.89,-297.27 412.89,-304.27"/>
</a>
</g>
</g>
<!-- Node8 -->
<g id="Node000008" class="node">
<title>Node8</title>
<g id="a_Node000008"><a xlink:href="namespacedetail.html#a1c8c2218e4c822aa8f743fb9c573717f" target="_top" xlink:title=" ">
<polygon fill="white" stroke="#666666" points="494,-232.27 411,-232.27 411,-213.27 494,-213.27 494,-232.27"/>
<text text-anchor="middle" x="452.5" y="-220.27" font-family="Helvetica,sans-Serif" font-size="10.00">detail::vprintf</text>
</a>
</g>
</g>
<!-- Node6&#45;&gt;Node8 -->
<g id="edge7_Node000006_Node000008" class="edge">
<title>Node6&#45;&gt;Node8</title>
<g id="a_edge7_Node000006_Node000008"><a xlink:title=" ">
<path fill="none" stroke="#63b8ff" d="M361.57,-291.21C378.78,-278.11 409.91,-254.42 430.65,-238.64"/>
<polygon fill="#63b8ff" stroke="#63b8ff" points="432.99,-241.25 438.83,-232.41 428.75,-235.68 432.99,-241.25"/>
</a>
</g>
</g>
<!-- Node9 -->
<g id="Node000009" class="node">
<title>Node9</title>
<g id="a_Node000009"><a xlink:href="fmt_2include_2fmt_2core_8h.html#a2c8e80c1b1c8b7747e99b8e9a24a0429" target="_top" xlink:title=" ">
<polygon fill="white" stroke="#666666" points="956,-235.27 924,-235.27 924,-216.27 956,-216.27 956,-235.27"/>
<text text-anchor="middle" x="940" y="-223.27" font-family="Helvetica,sans-Serif" font-size="10.00">arg</text>
</a>
</g>
</g>
<!-- Node8&#45;&gt;Node9 -->
<g id="edge8_Node000008_Node000009" class="edge">
<title>Node8&#45;&gt;Node9</title>
<g id="a_edge8_Node000008_Node000009"><a xlink:title=" ">
<path fill="none" stroke="#63b8ff" d="M494.22,-231.43C505.74,-233.55 518.32,-235.55 530,-236.77 668.38,-251.17 704.3,-251.54 843,-240.77 867.15,-238.89 894.42,-234.4 913.7,-230.82"/>
<polygon fill="#63b8ff" stroke="#63b8ff" points="914.62,-234.21 923.79,-228.89 913.31,-227.33 914.62,-234.21"/>
</a>
</g>
</g>
<!-- Node10 -->
<g id="Node000010" class="node">
<title>Node10</title>
<g id="a_Node000010"><a xlink:href="color_8h.html#af4a3b7f252e457605de5440249a15699" target="_top" xlink:title=" ">
<polygon fill="white" stroke="#666666" points="787.5,-394.27 737.5,-394.27 737.5,-375.27 787.5,-375.27 787.5,-394.27"/>
<text text-anchor="middle" x="762.5" y="-382.27" font-family="Helvetica,sans-Serif" font-size="10.00">format</text>
</a>
</g>
</g>
<!-- Node8&#45;&gt;Node10 -->
<g id="edge10_Node000008_Node000010" class="edge">
<title>Node8&#45;&gt;Node10</title>
<g id="a_edge10_Node000008_Node000010"><a xlink:title=" ">
<path fill="none" stroke="#63b8ff" d="M460.98,-232.42C469.61,-243.81 483.89,-263.51 494,-281.77 513.47,-316.95 497.37,-341.28 530,-364.77 588.72,-407.03 678.78,-399.9 727.45,-391.83"/>
<polygon fill="#63b8ff" stroke="#63b8ff" points="728.23,-395.25 737.47,-390.06 727.01,-388.36 728.23,-395.25"/>
</a>
</g>
</g>
<!-- Node11 -->
<g id="Node000011" class="node">
<title>Node11</title>
<g id="a_Node000011"><a xlink:href="namespacedetail.html#a4bfbd26c5ac41fc8e3929b10631c2a31" target="_top" xlink:title=" ">
<polygon fill="white" stroke="#666666" points="806,-232.27 719,-232.27 719,-213.27 806,-213.27 806,-232.27"/>
<text text-anchor="middle" x="762.5" y="-220.27" font-family="Helvetica,sans-Serif" font-size="10.00">detail::get_arg</text>
</a>
</g>
</g>
<!-- Node8&#45;&gt;Node11 -->
<g id="edge12_Node000008_Node000011" class="edge">
<title>Node8&#45;&gt;Node11</title>
<g id="a_edge12_Node000008_Node000011"><a xlink:title=" ">
<path fill="none" stroke="#63b8ff" d="M494.08,-222.77C549.21,-222.77 647.85,-222.77 708.68,-222.77"/>
<polygon fill="#63b8ff" stroke="#63b8ff" points="708.85,-226.27 718.85,-222.77 708.85,-219.27 708.85,-226.27"/>
</a>
</g>
</g>
<!-- Node12 -->
<g id="Node000012" class="node">
<title>Node12</title>
<g id="a_Node000012"><a xlink:href="namespacedetail.html#ac22dbe18eb3fef4c672314e30ed0421a" target="_top" xlink:title=" ">
<polygon fill="white" stroke="#666666" points="646,-156.27 530,-156.27 530,-137.27 646,-137.27 646,-156.27"/>
<text text-anchor="middle" x="588" y="-144.27" font-family="Helvetica,sans-Serif" font-size="10.00">detail::parse_header</text>
</a>
</g>
</g>
<!-- Node8&#45;&gt;Node12 -->
<g id="edge14_Node000008_Node000012" class="edge">
<title>Node8&#45;&gt;Node12</title>
<g id="a_edge14_Node000008_Node000012"><a xlink:title=" ">
<path fill="none" stroke="#63b8ff" d="M466,-213.13C480.76,-202.02 506.29,-183.65 530,-170.77 536.81,-167.07 544.31,-163.55 551.57,-160.4"/>
<polygon fill="#63b8ff" stroke="#63b8ff" points="553.37,-163.44 561.24,-156.35 550.66,-156.98 553.37,-163.44"/>
</a>
</g>
</g>
<!-- Node14 -->
<g id="Node000014" class="node">
<title>Node14</title>
<g id="a_Node000014"><a xlink:href="namespacedetail.html#a338caba782225e115a9902d4d0835f5f" target="_top" xlink:title=" ">
<polygon fill="white" stroke="#666666" points="843,-121.27 682,-121.27 682,-102.27 843,-102.27 843,-121.27"/>
<text text-anchor="middle" x="762.5" y="-109.27" font-family="Helvetica,sans-Serif" font-size="10.00">detail::parse_nonnegative_int</text>
</a>
</g>
</g>
<!-- Node8&#45;&gt;Node14 -->
<g id="edge25_Node000008_Node000014" class="edge">
<title>Node8&#45;&gt;Node14</title>
<g id="a_edge25_Node000008_Node000014"><a xlink:title=" ">
<path fill="none" stroke="#63b8ff" d="M457.92,-213.03C467.65,-192.92 493.02,-147.07 530,-127.77 574.91,-104.34 631.55,-100.06 677.57,-101.78"/>
<polygon fill="#63b8ff" stroke="#63b8ff" points="677.66,-105.29 687.82,-102.27 677.99,-98.3 677.66,-105.29"/>
</a>
</g>
</g>
<!-- Node16 -->
<g id="Node000016" class="node">
<title>Node16</title>
<g id="a_Node000016"><a xlink:href="namespacedetail.html#ad64642bb9b2374fba5526c132a751951" target="_top" xlink:title=" ">
<polygon fill="white" stroke="#666666" points="995,-51.27 885,-51.27 885,-32.27 995,-32.27 995,-51.27"/>
<text text-anchor="middle" x="940" y="-39.27" font-family="Helvetica,sans-Serif" font-size="10.00">detail::to_unsigned</text>
</a>
</g>
</g>
<!-- Node8&#45;&gt;Node16 -->
<g id="edge29_Node000008_Node000016" class="edge">
<title>Node8&#45;&gt;Node16</title>
<g id="a_edge29_Node000008_Node000016"><a xlink:title=" ">
<path fill="none" stroke="#63b8ff" d="M454.69,-213.15C458.89,-183.79 475.74,-94.77 530,-52.77 640.07,32.42 821.27,-6.36 900.22,-29.24"/>
<polygon fill="#63b8ff" stroke="#63b8ff" points="899.63,-32.72 910.22,-32.21 901.63,-26.01 899.63,-32.72"/>
</a>
</g>
</g>
<!-- Node17 -->
<g id="Node000017" class="node">
<title>Node17</title>
<g id="a_Node000017"><a xlink:href="namespacedetail.html#a6a4a175ed2175e4da7b988e021175317" target="_top" xlink:title=" ">
<polygon fill="white" stroke="#666666" points="820.5,-65.77 704.5,-65.77 704.5,-35.77 820.5,-35.77 820.5,-65.77"/>
<text text-anchor="start" x="712.5" y="-53.77" font-family="Helvetica,sans-Serif" font-size="10.00">detail::throw_format</text>
<text text-anchor="middle" x="762.5" y="-42.77" font-family="Helvetica,sans-Serif" font-size="10.00">_error</text>
</a>
</g>
</g>
<!-- Node8&#45;&gt;Node17 -->
<g id="edge28_Node000008_Node000017" class="edge">
<title>Node8&#45;&gt;Node17</title>
<g id="a_edge28_Node000008_Node000017"><a xlink:title=" ">
<path fill="none" stroke="#63b8ff" d="M456.42,-213.08C464.15,-189.24 487.49,-127.54 530,-97.77 577.98,-64.17 644.49,-53.43 693.92,-50.5"/>
<polygon fill="#63b8ff" stroke="#63b8ff" points="694.38,-53.99 704.19,-49.99 694.03,-46.99 694.38,-53.99"/>
</a>
</g>
</g>
<!-- Node18 -->
<g id="Node000018" class="node">
<title>Node18</title>
<g id="a_Node000018"><a xlink:href="fmt_2include_2fmt_2core_8h.html#a05783ffcc62709c2284ee0da45486a98" target="_top" xlink:title=" ">
<polygon fill="white" stroke="#666666" points="811,-195.27 714,-195.27 714,-176.27 811,-176.27 811,-195.27"/>
<text text-anchor="middle" x="762.5" y="-183.27" font-family="Helvetica,sans-Serif" font-size="10.00">visit_format_arg</text>
</a>
</g>
</g>
<!-- Node8&#45;&gt;Node18 -->
<g id="edge30_Node000008_Node000018" class="edge">
<title>Node8&#45;&gt;Node18</title>
<g id="a_edge30_Node000008_Node000018"><a xlink:title=" ">
<path fill="none" stroke="#63b8ff" d="M494.08,-217.89C547.67,-211.46 642.35,-200.08 703.48,-192.74"/>
<polygon fill="#63b8ff" stroke="#63b8ff" points="704.23,-196.17 713.74,-191.51 703.4,-189.22 704.23,-196.17"/>
</a>
</g>
</g>
<!-- Node20 -->
<g id="Node000020" class="node">
<title>Node20</title>
<g id="a_Node000020"><a xlink:href="namespacedetail.html#a2e4362a340def2768ed1f8f66e764063" target="_top" xlink:title=" ">
<polygon fill="white" stroke="#666666" points="643,-318.77 533,-318.77 533,-288.77 643,-288.77 643,-318.77"/>
<text text-anchor="start" x="541" y="-306.77" font-family="Helvetica,sans-Serif" font-size="10.00">detail::parse_printf</text>
<text text-anchor="middle" x="588" y="-295.77" font-family="Helvetica,sans-Serif" font-size="10.00">_presentation_type</text>
</a>
</g>
</g>
<!-- Node8&#45;&gt;Node20 -->
<g id="edge26_Node000008_Node000020" class="edge">
<title>Node8&#45;&gt;Node20</title>
<g id="a_edge26_Node000008_Node000020"><a xlink:title=" ">
<path fill="none" stroke="#63b8ff" d="M466.44,-232.31C481.39,-243.15 506.91,-261.12 530,-274.77 535.2,-277.85 540.77,-280.93 546.32,-283.87"/>
<polygon fill="#63b8ff" stroke="#63b8ff" points="545.07,-287.16 555.55,-288.67 548.29,-280.95 545.07,-287.16"/>
</a>
</g>
</g>
<!-- Node22 -->
<g id="Node000022" class="node">
<title>Node22</title>
<g id="a_Node000022"><a xlink:href="namespacedetail.html#a29dacf26eedc9e3575fb57329a5ca0a3" target="_top" xlink:title=" ">
<polygon fill="white" stroke="#666666" points="625.5,-356.27 550.5,-356.27 550.5,-337.27 625.5,-337.27 625.5,-356.27"/>
<text text-anchor="middle" x="588" y="-344.27" font-family="Helvetica,sans-Serif" font-size="10.00">detail::write</text>
</a>
</g>
</g>
<!-- Node8&#45;&gt;Node22 -->
<g id="edge31_Node000008_Node000022" class="edge">
<title>Node8&#45;&gt;Node22</title>
<g id="a_edge31_Node000008_Node000022"><a xlink:title=" ">
<path fill="none" stroke="#63b8ff" d="M460.04,-232.44C476.8,-257.1 520.62,-320.91 530,-327.77 533.41,-330.26 537.17,-332.44 541.08,-334.35"/>
<polygon fill="#63b8ff" stroke="#63b8ff" points="539.81,-337.61 550.39,-338.3 542.55,-331.17 539.81,-337.61"/>
</a>
</g>
</g>
<!-- Node9&#45;&gt;Node9 -->
<g id="edge9_Node000009_Node000009" class="edge">
<title>Node9&#45;&gt;Node9</title>
<g id="a_edge9_Node000009_Node000009"><a xlink:title=" ">
<path fill="none" stroke="#63b8ff" d="M923.68,-230.24C896.92,-239.85 902.36,-253.27 940,-253.27 972.35,-253.27 980.91,-243.36 965.7,-234.47"/>
<polygon fill="#63b8ff" stroke="#63b8ff" points="966.88,-231.16 956.32,-230.24 963.99,-237.54 966.88,-231.16"/>
</a>
</g>
</g>
<!-- Node10&#45;&gt;Node5 -->
<g id="edge11_Node000010_Node000005" class="edge">
<title>Node10&#45;&gt;Node5</title>
<g id="a_edge11_Node000010_Node000005"><a xlink:title=" ">
<path fill="none" stroke="#63b8ff" d="M787.53,-387.37C808.44,-389.64 839.83,-393.03 868.61,-396.15"/>
<polygon fill="#63b8ff" stroke="#63b8ff" points="868.35,-399.64 878.67,-397.24 869.1,-392.68 868.35,-399.64"/>
</a>
</g>
</g>
<!-- Node11&#45;&gt;Node9 -->
<g id="edge13_Node000011_Node000009" class="edge">
<title>Node11&#45;&gt;Node9</title>
<g id="a_edge13_Node000011_Node000009"><a xlink:title=" ">
<path fill="none" stroke="#63b8ff" d="M806.43,-223.5C840.12,-224.08 885.84,-224.86 913.84,-225.34"/>
<polygon fill="#63b8ff" stroke="#63b8ff" points="913.93,-228.84 923.98,-225.51 914.05,-221.84 913.93,-228.84"/>
</a>
</g>
</g>
<!-- Node12&#45;&gt;Node11 -->
<g id="edge15_Node000012_Node000011" class="edge">
<title>Node12&#45;&gt;Node11</title>
<g id="a_edge15_Node000012_Node000011"><a xlink:title=" ">
<path fill="none" stroke="#63b8ff" d="M601.84,-156.47C619.16,-169.12 651.38,-191.1 682,-203.77 690.47,-207.28 699.74,-210.22 708.85,-212.67"/>
<polygon fill="#63b8ff" stroke="#63b8ff" points="708.08,-216.08 718.63,-215.13 709.79,-209.3 708.08,-216.08"/>
</a>
</g>
</g>
<!-- Node13 -->
<g id="Node000013" class="node">
<title>Node13</title>
<g id="a_Node000013"><a xlink:href="namespacedetail.html#ac2056b8550f21cf842853812a4ffd167" target="_top" xlink:title=" ">
<polygon fill="white" stroke="#666666" points="815.5,-158.27 709.5,-158.27 709.5,-139.27 815.5,-139.27 815.5,-158.27"/>
<text text-anchor="middle" x="762.5" y="-146.27" font-family="Helvetica,sans-Serif" font-size="10.00">detail::parse_flags</text>
</a>
</g>
</g>
<!-- Node12&#45;&gt;Node13 -->
<g id="edge16_Node000012_Node000013" class="edge">
<title>Node12&#45;&gt;Node13</title>
<g id="a_edge16_Node000012_Node000013"><a xlink:title=" ">
<path fill="none" stroke="#63b8ff" d="M646.44,-147.44C663.24,-147.63 681.69,-147.84 698.8,-148.04"/>
<polygon fill="#63b8ff" stroke="#63b8ff" points="699.21,-151.55 709.25,-148.16 699.29,-144.55 699.21,-151.55"/>
</a>
</g>
</g>
<!-- Node12&#45;&gt;Node14 -->
<g id="edge17_Node000012_Node000014" class="edge">
<title>Node12&#45;&gt;Node14</title>
<g id="a_edge17_Node000012_Node000014"><a xlink:title=" ">
<path fill="none" stroke="#63b8ff" d="M636.14,-137.21C657.24,-132.92 682.32,-127.84 704.47,-123.34"/>
<polygon fill="#63b8ff" stroke="#63b8ff" points="705.32,-126.74 714.42,-121.32 703.92,-119.88 705.32,-126.74"/>
</a>
</g>
</g>
<!-- Node12&#45;&gt;Node17 -->
<g id="edge20_Node000012_Node000017" class="edge">
<title>Node12&#45;&gt;Node17</title>
<g id="a_edge20_Node000012_Node000017"><a xlink:title=" ">
<path fill="none" stroke="#63b8ff" d="M605.02,-137.21C623.46,-126.26 654.73,-107.88 682,-92.77 695.29,-85.4 709.98,-77.56 723.07,-70.68"/>
<polygon fill="#63b8ff" stroke="#63b8ff" points="725.04,-73.59 732.28,-65.85 721.79,-67.39 725.04,-73.59"/>
</a>
</g>
</g>
<!-- Node12&#45;&gt;Node18 -->
<g id="edge22_Node000012_Node000018" class="edge">
<title>Node12&#45;&gt;Node18</title>
<g id="a_edge22_Node000012_Node000018"><a xlink:title=" ">
<path fill="none" stroke="#63b8ff" d="M631.2,-156.31C654.78,-161.64 684.37,-168.33 709.39,-173.99"/>
<polygon fill="#63b8ff" stroke="#63b8ff" points="708.91,-177.47 719.44,-176.26 710.46,-170.64 708.91,-177.47"/>
</a>
</g>
</g>
<!-- Node15 -->
<g id="Node000015" class="node">
<title>Node15</title>
<g id="a_Node000015"><a xlink:href="RecastContour_8cpp.html#a6f1109916123abdff2b46675c13307e3" target="_top" xlink:title=" ">
<polygon fill="white" stroke="#666666" points="959,-121.27 921,-121.27 921,-102.27 959,-102.27 959,-121.27"/>
<text text-anchor="middle" x="940" y="-109.27" font-family="Helvetica,sans-Serif" font-size="10.00">prev</text>
</a>
</g>
</g>
<!-- Node14&#45;&gt;Node15 -->
<g id="edge18_Node000014_Node000015" class="edge">
<title>Node14&#45;&gt;Node15</title>
<g id="a_edge18_Node000014_Node000015"><a xlink:title=" ">
<path fill="none" stroke="#63b8ff" d="M843.03,-111.77C867.29,-111.77 892.4,-111.77 910.85,-111.77"/>
<polygon fill="#63b8ff" stroke="#63b8ff" points="910.88,-115.27 920.88,-111.77 910.88,-108.27 910.88,-115.27"/>
</a>
</g>
</g>
<!-- Node14&#45;&gt;Node16 -->
<g id="edge19_Node000014_Node000016" class="edge">
<title>Node14&#45;&gt;Node16</title>
<g id="a_edge19_Node000014_Node000016"><a xlink:title=" ">
<path fill="none" stroke="#63b8ff" d="M812.02,-102.25C822.39,-99.64 833.18,-96.48 843,-92.77 868.79,-83.02 896.41,-67.79 915.37,-56.51"/>
<polygon fill="#63b8ff" stroke="#63b8ff" points="917.19,-59.5 923.94,-51.33 913.57,-53.51 917.19,-59.5"/>
</a>
</g>
</g>
<!-- Node17&#45;&gt;Node17 -->
<g id="edge21_Node000017_Node000017" class="edge">
<title>Node17&#45;&gt;Node17</title>
<g id="a_edge21_Node000017_Node000017"><a xlink:title=" ">
<path fill="none" stroke="#63b8ff" d="M731.91,-66.05C725.12,-75.18 735.31,-83.77 762.5,-83.77 778.64,-83.77 788.79,-80.74 792.96,-76.37"/>
<polygon fill="#63b8ff" stroke="#63b8ff" points="796.46,-76.09 793.09,-66.05 789.46,-76 796.46,-76.09"/>
</a>
</g>
</g>
<!-- Node18&#45;&gt;Node9 -->
<g id="edge23_Node000018_Node000009" class="edge">
<title>Node18&#45;&gt;Node9</title>
<g id="a_edge23_Node000018_Node000009"><a xlink:title=" ">
<path fill="none" stroke="#63b8ff" d="M805.59,-195.28C817.67,-198.01 830.86,-201 843,-203.77 867.05,-209.25 894.49,-215.54 913.85,-219.99"/>
<polygon fill="#63b8ff" stroke="#63b8ff" points="913.18,-223.42 923.71,-222.25 914.74,-216.6 913.18,-223.42"/>
</a>
</g>
</g>
<!-- Node19 -->
<g id="Node000019" class="node">
<title>Node19</title>
<g id="a_Node000019"><a xlink:href="namespacedetail.html#a49b6442202d11af60b96dc09859dd027" target="_top" xlink:title=" ">
<polygon fill="white" stroke="#666666" points="993,-197.77 887,-197.77 887,-167.77 993,-167.77 993,-197.77"/>
<text text-anchor="start" x="895" y="-185.77" font-family="Helvetica,sans-Serif" font-size="10.00">detail::convert_for</text>
<text text-anchor="middle" x="940" y="-174.77" font-family="Helvetica,sans-Serif" font-size="10.00">_visit</text>
</a>
</g>
</g>
<!-- Node18&#45;&gt;Node19 -->
<g id="edge24_Node000018_Node000019" class="edge">
<title>Node18&#45;&gt;Node19</title>
<g id="a_edge24_Node000018_Node000019"><a xlink:title=" ">
<path fill="none" stroke="#63b8ff" d="M811.46,-184.95C831.61,-184.61 855.31,-184.2 876.78,-183.83"/>
<polygon fill="#63b8ff" stroke="#63b8ff" points="876.85,-187.33 886.79,-183.66 876.73,-180.33 876.85,-187.33"/>
</a>
</g>
</g>
<!-- Node21 -->
<g id="Node000021" class="node">
<title>Node21</title>
<g id="a_Node000021"><a xlink:href="namespacedetail.html#a52a5e2ed06c229dcf95ea5c46d48d05e" target="_top" xlink:title=" ">
<polygon fill="white" stroke="#666666" points="792,-313.27 733,-313.27 733,-294.27 792,-294.27 792,-313.27"/>
<text text-anchor="middle" x="762.5" y="-301.27" font-family="Helvetica,sans-Serif" font-size="10.00">detail::in</text>
</a>
</g>
</g>
<!-- Node20&#45;&gt;Node21 -->
<g id="edge27_Node000020_Node000021" class="edge">
<title>Node20&#45;&gt;Node21</title>
<g id="a_edge27_Node000020_Node000021"><a xlink:title=" ">
<path fill="none" stroke="#63b8ff" d="M643.11,-303.77C668.81,-303.77 698.96,-303.77 722.4,-303.77"/>
<polygon fill="#63b8ff" stroke="#63b8ff" points="722.66,-307.27 732.66,-303.77 722.66,-300.27 722.66,-307.27"/>
</a>
</g>
</g>
<!-- Node22&#45;&gt;Node10 -->
<g id="edge32_Node000022_Node000010" class="edge">
<title>Node22&#45;&gt;Node10</title>
<g id="a_edge32_Node000022_Node000010"><a xlink:title=" ">
<path fill="none" stroke="#63b8ff" d="M625.58,-354.83C655.75,-361.47 698.21,-370.83 727.62,-377.31"/>
<polygon fill="#63b8ff" stroke="#63b8ff" points="726.91,-380.73 737.43,-379.47 728.42,-373.9 726.91,-380.73"/>
</a>
</g>
</g>
<!-- Node23 -->
<g id="Node000023" class="node">
<title>Node23</title>
<g id="a_Node000023"><a xlink:href="namespacedetail.html#ab2732c48a7d428c20ca951289522c6f1" target="_top" xlink:title=" ">
<polygon fill="white" stroke="#666666" points="816,-356.27 709,-356.27 709,-337.27 816,-337.27 816,-356.27"/>
<text text-anchor="middle" x="762.5" y="-344.27" font-family="Helvetica,sans-Serif" font-size="10.00">detail::get_iterator</text>
</a>
</g>
</g>
<!-- Node22&#45;&gt;Node23 -->
<g id="edge33_Node000022_Node000023" class="edge">
<title>Node22&#45;&gt;Node23</title>
<g id="a_edge33_Node000022_Node000023"><a xlink:title=" ">
<path fill="none" stroke="#63b8ff" d="M625.58,-346.77C646.78,-346.77 674.06,-346.77 698.6,-346.77"/>
<polygon fill="#63b8ff" stroke="#63b8ff" points="698.93,-350.27 708.93,-346.77 698.93,-343.27 698.93,-350.27"/>
</a>
</g>
</g>
</g>
</svg>

<g id="navigator" transform="translate(0 0)" fill="#404254">
  <rect fill="#f2f5e9" fill-opacity="0.5" stroke="#606060" stroke-width=".5" x="0" y="0" width="60" height="60"/>
  <use id="zoomplus" xlink:href="#zoomPlus" x="17" y="9" onmousedown="handleZoom(evt,'in')"/>
  <use id="zoomminus" xlink:href="#zoomMin" x="42" y="9" onmousedown="handleZoom(evt,'out')"/>
  <use id="reset" xlink:href="#resetDef" x="30" y="36" onmousedown="handleReset()"/>
   <use id="arrowup" xlink:href="#arrowUp" x="0" y="0" onmousedown="handlePan(0,-1)"/>
  <use id="arrowright" xlink:href="#arrowRight" x="0" y="0" onmousedown="handlePan(1,0)"/>
  <use id="arrowdown" xlink:href="#arrowDown" x="0" y="0" onmousedown="handlePan(0,1)"/>
  <use id="arrowleft" xlink:href="#arrowLeft" x="0" y="0" onmousedown="handlePan(-1,0)"/>
</g>
<svg viewBox="0 0 15 15" width="100%" height="30px" preserveAspectRatio="xMaxYMin meet">
 <g id="arrow_out" transform="scale(0.3 0.3)">
  <a xlink:href="classModelInstance_a5991d805a567c561f17916b5c7340ed5_cgraph_org.svg" target="_base">
   <rect id="button" ry="5" rx="5" y="6" x="6" height="38" width="38"
        fill="#f2f5e9" fill-opacity="0.5" stroke="#606060" stroke-width="1.0"/>
   <path id="arrow"
     d="M 11.500037,31.436501 C 11.940474,20.09759 22.043105,11.32322 32.158766,21.979434 L 37.068811,17.246167 C 37.068811,17.246167 37.088388,32 37.088388,32 L 22.160133,31.978069 C 22.160133,31.978069 26.997745,27.140456 26.997745,27.140456 C 18.528582,18.264221 13.291696,25.230495 11.500037,31.436501 z"
     style="fill:#404040;"/>
  </a>
 </g>
</svg>

<style type='text/css'>
<![CDATA[
[data-mouse-over-selected='false'] { opacity: 0.7; }
[data-mouse-over-selected='true']  { opacity: 1.0; }
]]>
</style>
<script type="application/ecmascript"><![CDATA[
document.addEventListener('DOMContentLoaded', (event) => {
  highlightEdges();
  highlightAdjacentNodes();
});
]]></script>
</svg>
