<?xml version="1.0" encoding="UTF-8" standalone="no"?>
<!DOCTYPE svg PUBLIC "-//W3C//DTD SVG 1.1//EN"
 "http://www.w3.org/Graphics/SVG/1.1/DTD/svg11.dtd">
<!-- Generated by graphviz version 2.43.0 (0)
 -->
<!-- Title: Player::isInGuild Pages: 1 -->
<svg width="518pt" height="64pt"
 viewBox="0.00 0.00 518.00 64.00" xmlns="http://www.w3.org/2000/svg" xmlns:xlink="http://www.w3.org/1999/xlink">
<g id="graph0" class="graph" transform="scale(1 1) rotate(0) translate(4 60)">
<title>Player::isInGuild</title>
<!-- Node1 -->
<g id="Node000001" class="node">
<title>Node1</title>
<g id="a_Node000001"><a xlink:title=" ">
<polygon fill="#999999" stroke="#666666" points="96,-37 0,-37 0,-18 96,-18 96,-37"/>
<text text-anchor="middle" x="48" y="-25" font-family="Helvetica,sans-Serif" font-size="10.00">Player::isInGuild</text>
</a>
</g>
</g>
<!-- Node2 -->
<g id="Node000002" class="node">
<title>Node2</title>
<g id="a_Node000002"><a xlink:href="classPlayer.html#ab68837a9ea44a1fb569342189a9e5808" target="_top" xlink:title=" ">
<polygon fill="white" stroke="#666666" points="227,-37 132,-37 132,-18 227,-18 227,-37"/>
<text text-anchor="middle" x="179.5" y="-25" font-family="Helvetica,sans-Serif" font-size="10.00">Player::getGuild</text>
</a>
</g>
</g>
<!-- Node1&#45;&gt;Node2 -->
<g id="edge1_Node000001_Node000002" class="edge">
<title>Node1&#45;&gt;Node2</title>
<g id="a_edge1_Node000001_Node000002"><a xlink:title=" ">
<path fill="none" stroke="#63b8ff" d="M96.12,-27.5C104.35,-27.5 112.98,-27.5 121.44,-27.5"/>
<polygon fill="#63b8ff" stroke="#63b8ff" points="121.63,-31 131.63,-27.5 121.63,-24 121.63,-31"/>
</a>
</g>
</g>
<!-- Node3 -->
<g id="Node000003" class="node">
<title>Node3</title>
<g id="a_Node000003"><a xlink:href="classPlayer.html#abf1ba703d32c08d3c1121fab891a98ae" target="_top" xlink:title=" ">
<polygon fill="white" stroke="#666666" points="367,-37 263,-37 263,-18 367,-18 367,-37"/>
<text text-anchor="middle" x="315" y="-25" font-family="Helvetica,sans-Serif" font-size="10.00">Player::getGuildId</text>
</a>
</g>
</g>
<!-- Node2&#45;&gt;Node3 -->
<g id="edge2_Node000002_Node000003" class="edge">
<title>Node2&#45;&gt;Node3</title>
<g id="a_edge2_Node000002_Node000003"><a xlink:title=" ">
<path fill="none" stroke="#63b8ff" d="M227.19,-27.5C235.32,-27.5 243.88,-27.5 252.33,-27.5"/>
<polygon fill="#63b8ff" stroke="#63b8ff" points="252.55,-31 262.55,-27.5 252.55,-24 252.55,-31"/>
</a>
</g>
</g>
<!-- Node4 -->
<g id="Node000004" class="node">
<title>Node4</title>
<g id="a_Node000004"><a xlink:href="classObject.html#ae9814731421ab3e919a2e5c3b86e0eeb" target="_top" xlink:title=" ">
<polygon fill="white" stroke="#666666" points="510,-56 403,-56 403,-37 510,-37 510,-56"/>
<text text-anchor="middle" x="456.5" y="-44" font-family="Helvetica,sans-Serif" font-size="10.00">Object::objectData</text>
</a>
</g>
</g>
<!-- Node3&#45;&gt;Node4 -->
<g id="edge3_Node000003_Node000004" class="edge">
<title>Node3&#45;&gt;Node4</title>
<g id="a_edge3_Node000003_Node000004"><a xlink:title=" ">
<path fill="none" stroke="#63b8ff" d="M367.15,-34.47C375.54,-35.61 384.31,-36.8 392.93,-37.98"/>
<polygon fill="#63b8ff" stroke="#63b8ff" points="392.57,-41.46 402.95,-39.34 393.51,-34.53 392.57,-41.46"/>
</a>
</g>
</g>
<!-- Node5 -->
<g id="Node000005" class="node">
<title>Node5</title>
<g id="a_Node000005"><a xlink:href="classPlayer.html#aabab9e13edac70ad3e839a451b3164d5" target="_top" xlink:title=" ">
<polygon fill="white" stroke="#666666" points="510,-19 403,-19 403,0 510,0 510,-19"/>
<text text-anchor="middle" x="456.5" y="-7" font-family="Helvetica,sans-Serif" font-size="10.00">Player::playerData</text>
</a>
</g>
</g>
<!-- Node3&#45;&gt;Node5 -->
<g id="edge4_Node000003_Node000005" class="edge">
<title>Node3&#45;&gt;Node5</title>
<g id="a_edge4_Node000003_Node000005"><a xlink:title=" ">
<path fill="none" stroke="#63b8ff" d="M367.15,-20.9C375.54,-19.82 384.31,-18.69 392.93,-17.57"/>
<polygon fill="#63b8ff" stroke="#63b8ff" points="393.48,-21.03 402.95,-16.28 392.58,-14.09 393.48,-21.03"/>
</a>
</g>
</g>
</g>
</svg>
