<?xml version="1.0" encoding="UTF-8" standalone="no"?>
<!DOCTYPE svg PUBLIC "-//W3C//DTD SVG 1.1//EN"
 "http://www.w3.org/Graphics/SVG/1.1/DTD/svg11.dtd">
<!-- Generated by graphviz version 2.43.0 (0)
 -->
<!-- Title: DalronnTheControllerAI::DalronnTheControllerAI Pages: 1 -->
<svg width="502pt" height="82pt"
 viewBox="0.00 0.00 502.00 82.00" xmlns="http://www.w3.org/2000/svg" xmlns:xlink="http://www.w3.org/1999/xlink">
<g id="graph0" class="graph" transform="scale(1 1) rotate(0) translate(4 78)">
<title>DalronnTheControllerAI::DalronnTheControllerAI</title>
<!-- Node1 -->
<g id="Node000001" class="node">
<title>Node1</title>
<g id="a_Node000001"><a xlink:title=" ">
<polygon fill="#999999" stroke="#666666" points="137,-60.5 0,-60.5 0,-30.5 137,-30.5 137,-60.5"/>
<text text-anchor="start" x="8" y="-48.5" font-family="Helvetica,sans-Serif" font-size="10.00">DalronnTheControllerAI</text>
<text text-anchor="middle" x="68.5" y="-37.5" font-family="Helvetica,sans-Serif" font-size="10.00">::DalronnTheControllerAI</text>
</a>
</g>
</g>
<!-- Node2 -->
<g id="Node000002" class="node">
<title>Node2</title>
<g id="a_Node000002"><a xlink:href="classCreatureAIScript.html#a25fc85cf4716248bfa650e422a4d493d" target="_top" xlink:title=" ">
<polygon fill="white" stroke="#666666" points="327,-74 173,-74 173,-55 327,-55 327,-74"/>
<text text-anchor="middle" x="250" y="-62" font-family="Helvetica,sans-Serif" font-size="10.00">CreatureAIScript::addAISpell</text>
</a>
</g>
</g>
<!-- Node1&#45;&gt;Node2 -->
<g id="edge1_Node000001_Node000002" class="edge">
<title>Node1&#45;&gt;Node2</title>
<g id="a_edge1_Node000001_Node000002"><a xlink:title=" ">
<path fill="none" stroke="#63b8ff" d="M137.11,-52.66C145.46,-53.54 154.09,-54.45 162.68,-55.36"/>
<polygon fill="#63b8ff" stroke="#63b8ff" points="162.41,-58.85 172.73,-56.43 163.15,-51.89 162.41,-58.85"/>
</a>
</g>
</g>
<!-- Node3 -->
<g id="Node000003" class="node">
<title>Node3</title>
<g id="a_Node000003"><a xlink:href="classCreatureAIScript.html#a7becdc64059a894706c8b234ffed804d" target="_top" xlink:title=" ">
<polygon fill="white" stroke="#666666" points="321,-37 179,-37 179,-18 321,-18 321,-37"/>
<text text-anchor="middle" x="250" y="-25" font-family="Helvetica,sans-Serif" font-size="10.00">CreatureAIScript::isHeroic</text>
</a>
</g>
</g>
<!-- Node1&#45;&gt;Node3 -->
<g id="edge2_Node000001_Node000003" class="edge">
<title>Node1&#45;&gt;Node3</title>
<g id="a_edge2_Node000001_Node000003"><a xlink:title=" ">
<path fill="none" stroke="#63b8ff" d="M137.11,-38.72C147.42,-37.69 158.16,-36.61 168.71,-35.55"/>
<polygon fill="#63b8ff" stroke="#63b8ff" points="169.16,-39.02 178.76,-34.54 168.46,-32.06 169.16,-39.02"/>
</a>
</g>
</g>
<!-- Node4 -->
<g id="Node000004" class="node">
<title>Node4</title>
<g id="a_Node000004"><a xlink:href="classWorldMap.html#a033f0abb89cbfcc86afec70b43c6babe" target="_top" xlink:title=" ">
<polygon fill="white" stroke="#666666" points="494,-56 363,-56 363,-37 494,-37 494,-56"/>
<text text-anchor="middle" x="428.5" y="-44" font-family="Helvetica,sans-Serif" font-size="10.00">WorldMap::getDifficulty</text>
</a>
</g>
</g>
<!-- Node3&#45;&gt;Node4 -->
<g id="edge3_Node000003_Node000004" class="edge">
<title>Node3&#45;&gt;Node4</title>
<g id="a_edge3_Node000003_Node000004"><a xlink:title=" ">
<path fill="none" stroke="#63b8ff" d="M321.01,-35.04C331.44,-36.16 342.23,-37.32 352.75,-38.45"/>
<polygon fill="#63b8ff" stroke="#63b8ff" points="352.42,-41.94 362.74,-39.53 353.17,-34.98 352.42,-41.94"/>
</a>
</g>
</g>
<!-- Node5 -->
<g id="Node000005" class="node">
<title>Node5</title>
<g id="a_Node000005"><a xlink:href="classObject.html#a967af054c54b6d9846637ce8718efd75" target="_top" xlink:title=" ">
<polygon fill="white" stroke="#666666" points="488,-19 369,-19 369,0 488,0 488,-19"/>
<text text-anchor="middle" x="428.5" y="-7" font-family="Helvetica,sans-Serif" font-size="10.00">Object::getWorldMap</text>
</a>
</g>
</g>
<!-- Node3&#45;&gt;Node5 -->
<g id="edge4_Node000003_Node000005" class="edge">
<title>Node3&#45;&gt;Node5</title>
<g id="a_edge4_Node000003_Node000005"><a xlink:title=" ">
<path fill="none" stroke="#63b8ff" d="M321.01,-20.36C333.42,-19.09 346.33,-17.78 358.7,-16.52"/>
<polygon fill="#63b8ff" stroke="#63b8ff" points="359.35,-19.97 368.94,-15.47 358.64,-13 359.35,-19.97"/>
</a>
</g>
</g>
</g>
</svg>
