<?xml version="1.0" encoding="UTF-8" standalone="no"?>
<!DOCTYPE svg PUBLIC "-//W3C//DTD SVG 1.1//EN"
 "http://www.w3.org/Graphics/SVG/1.1/DTD/svg11.dtd">
<!-- Generated by graphviz version 2.43.0 (0)
 -->
<!-- Title: InstanceScript::OnGameObjectActivate Pages: 1 -->
<svg width="669pt" height="76pt"
 viewBox="0.00 0.00 669.00 75.50" xmlns="http://www.w3.org/2000/svg" xmlns:xlink="http://www.w3.org/1999/xlink">
<g id="graph0" class="graph" transform="scale(1 1) rotate(0) translate(4 71.5)">
<title>InstanceScript::OnGameObjectActivate</title>
<!-- Node1 -->
<g id="Node000001" class="node">
<title>Node1</title>
<g id="a_Node000001"><a xlink:title=" ">
<polygon fill="#999999" stroke="#666666" points="661,-45.5 495,-45.5 495,-15.5 661,-15.5 661,-45.5"/>
<text text-anchor="start" x="503" y="-33.5" font-family="Helvetica,sans-Serif" font-size="10.00">InstanceScript::OnGameObject</text>
<text text-anchor="middle" x="578" y="-22.5" font-family="Helvetica,sans-Serif" font-size="10.00">Activate</text>
</a>
</g>
</g>
<!-- Node2 -->
<g id="Node000002" class="node">
<title>Node2</title>
<g id="a_Node000002"><a xlink:href="classWorldSession.html#a9fce0f8eaacef1d8f371e5de9e6d81b7" target="_top" xlink:title=" ">
<polygon fill="white" stroke="#666666" points="459,-67.5 309,-67.5 309,-37.5 459,-37.5 459,-67.5"/>
<text text-anchor="start" x="317" y="-55.5" font-family="Helvetica,sans-Serif" font-size="10.00">WorldSession::handleGame</text>
<text text-anchor="middle" x="384" y="-44.5" font-family="Helvetica,sans-Serif" font-size="10.00">ObjectUse</text>
</a>
</g>
</g>
<!-- Node1&#45;&gt;Node2 -->
<g id="edge1_Node000001_Node000002" class="edge">
<title>Node1&#45;&gt;Node2</title>
<g id="a_edge1_Node000001_Node000002"><a xlink:title=" ">
<path fill="none" stroke="#63b8ff" d="M484.73,-41.07C476.17,-42.05 467.57,-43.04 459.2,-44"/>
<polygon fill="#63b8ff" stroke="#63b8ff" points="485.2,-44.54 494.74,-39.93 484.41,-37.59 485.2,-44.54"/>
</a>
</g>
</g>
<!-- Node5 -->
<g id="Node000005" class="node">
<title>Node5</title>
<g id="a_Node000005"><a xlink:href="classSpell.html#abbb37f7970cc556932a631abf93b0d6b" target="_top" xlink:title=" ">
<polygon fill="white" stroke="#666666" points="457,-19 311,-19 311,0 457,0 457,-19"/>
<text text-anchor="middle" x="384" y="-7" font-family="Helvetica,sans-Serif" font-size="10.00">Spell::SpellEffectOpenLock</text>
</a>
</g>
</g>
<!-- Node1&#45;&gt;Node5 -->
<g id="edge4_Node000001_Node000005" class="edge">
<title>Node1&#45;&gt;Node5</title>
<g id="a_edge4_Node000001_Node000005"><a xlink:title=" ">
<path fill="none" stroke="#63b8ff" d="M484.71,-20.41C475.44,-19.39 466.12,-18.37 457.1,-17.39"/>
<polygon fill="#63b8ff" stroke="#63b8ff" points="484.42,-23.89 494.74,-21.5 485.18,-16.94 484.42,-23.89"/>
</a>
</g>
</g>
<!-- Node3 -->
<g id="Node000003" class="node">
<title>Node3</title>
<g id="a_Node000003"><a xlink:href="classWorldSession.html#a213cc2e7e497e0cddfde0a1460e4acd0" target="_top" xlink:title=" ">
<polygon fill="white" stroke="#666666" points="273,-67.5 111,-67.5 111,-37.5 273,-37.5 273,-67.5"/>
<text text-anchor="start" x="119" y="-55.5" font-family="Helvetica,sans-Serif" font-size="10.00">WorldSession::registerOpcode</text>
<text text-anchor="middle" x="192" y="-44.5" font-family="Helvetica,sans-Serif" font-size="10.00">Handler</text>
</a>
</g>
</g>
<!-- Node2&#45;&gt;Node3 -->
<g id="edge2_Node000002_Node000003" class="edge">
<title>Node2&#45;&gt;Node3</title>
<g id="a_edge2_Node000002_Node000003"><a xlink:title=" ">
<path fill="none" stroke="#63b8ff" d="M298.97,-52.5C290.37,-52.5 281.65,-52.5 273.09,-52.5"/>
<polygon fill="#63b8ff" stroke="#63b8ff" points="299,-56 309,-52.5 299,-49 299,-56"/>
</a>
</g>
</g>
<!-- Node4 -->
<g id="Node000004" class="node">
<title>Node4</title>
<g id="a_Node000004"><a xlink:href="classMaster.html#a12dde72f3398edffca613e77185fd6f3" target="_top" xlink:title=" ">
<polygon fill="white" stroke="#666666" points="75,-62 0,-62 0,-43 75,-43 75,-62"/>
<text text-anchor="middle" x="37.5" y="-50" font-family="Helvetica,sans-Serif" font-size="10.00">Master::Run</text>
</a>
</g>
</g>
<!-- Node3&#45;&gt;Node4 -->
<g id="edge3_Node000003_Node000004" class="edge">
<title>Node3&#45;&gt;Node4</title>
<g id="a_edge3_Node000003_Node000004"><a xlink:title=" ">
<path fill="none" stroke="#63b8ff" d="M100.55,-52.5C91.61,-52.5 82.94,-52.5 75.05,-52.5"/>
<polygon fill="#63b8ff" stroke="#63b8ff" points="100.73,-56 110.73,-52.5 100.73,-49 100.73,-56"/>
</a>
</g>
</g>
</g>
</svg>
