<?xml version="1.0" encoding="UTF-8" standalone="no"?>
<!DOCTYPE svg PUBLIC "-//W3C//DTD SVG 1.1//EN"
 "http://www.w3.org/Graphics/SVG/1.1/DTD/svg11.dtd">
<!-- Generated by graphviz version 2.43.0 (0)
 -->
<!-- Title: AIInterface::getSecondMostHatedTargetInArray Pages: 1 -->
<svg width="624pt" height="138pt"
 viewBox="0.00 0.00 624.00 138.00" xmlns="http://www.w3.org/2000/svg" xmlns:xlink="http://www.w3.org/1999/xlink">
<g id="graph0" class="graph" transform="scale(1 1) rotate(0) translate(4 134)">
<title>AIInterface::getSecondMostHatedTargetInArray</title>
<!-- Node1 -->
<g id="Node000001" class="node">
<title>Node1</title>
<g id="a_Node000001"><a xlink:title=" ">
<polygon fill="#999999" stroke="#666666" points="151,-79.5 0,-79.5 0,-49.5 151,-49.5 151,-79.5"/>
<text text-anchor="start" x="8" y="-67.5" font-family="Helvetica,sans-Serif" font-size="10.00">AIInterface::getSecondMost</text>
<text text-anchor="middle" x="75.5" y="-56.5" font-family="Helvetica,sans-Serif" font-size="10.00">HatedTargetInArray</text>
</a>
</g>
</g>
<!-- Node2 -->
<g id="Node000002" class="node">
<title>Node2</title>
<g id="a_Node000002"><a xlink:href="classAIInterface.html#a9675be06a1300fb639c15b9454ab1fda" target="_top" xlink:title=" ">
<polygon fill="white" stroke="#666666" points="345,-130 187,-130 187,-111 345,-111 345,-130"/>
<text text-anchor="middle" x="266" y="-118" font-family="Helvetica,sans-Serif" font-size="10.00">AIInterface::getCurrentTarget</text>
</a>
</g>
</g>
<!-- Node1&#45;&gt;Node2 -->
<g id="edge1_Node000001_Node000002" class="edge">
<title>Node1&#45;&gt;Node2</title>
<g id="a_edge1_Node000001_Node000002"><a xlink:title=" ">
<path fill="none" stroke="#63b8ff" d="M116.85,-79.51C137.64,-86.95 163.5,-95.77 187,-102.5 194.42,-104.63 202.29,-106.68 210.07,-108.59"/>
<polygon fill="#63b8ff" stroke="#63b8ff" points="209.3,-112 219.84,-110.92 210.92,-105.19 209.3,-112"/>
</a>
</g>
</g>
<!-- Node3 -->
<g id="Node000003" class="node">
<title>Node3</title>
<g id="a_Node000003"><a xlink:href="classThreatManager.html#ac4a1b9d10544dcace48813fb84ae8f4a" target="_top" xlink:title=" ">
<polygon fill="white" stroke="#666666" points="338,-93 194,-93 194,-74 338,-74 338,-93"/>
<text text-anchor="middle" x="266" y="-81" font-family="Helvetica,sans-Serif" font-size="10.00">ThreatManager::getThreat</text>
</a>
</g>
</g>
<!-- Node1&#45;&gt;Node3 -->
<g id="edge2_Node000001_Node000003" class="edge">
<title>Node1&#45;&gt;Node3</title>
<g id="a_edge2_Node000001_Node000003"><a xlink:title=" ">
<path fill="none" stroke="#63b8ff" d="M151,-72.01C161.68,-73.09 172.72,-74.2 183.53,-75.29"/>
<polygon fill="#63b8ff" stroke="#63b8ff" points="183.51,-78.8 193.81,-76.32 184.21,-71.84 183.51,-78.8"/>
</a>
</g>
</g>
<!-- Node6 -->
<g id="Node000006" class="node">
<title>Node6</title>
<g id="a_Node000006"><a xlink:href="classUnit.html#abf6f96685e3a0231a368ded725b88814" target="_top" xlink:title=" ">
<polygon fill="white" stroke="#666666" points="332.5,-56 199.5,-56 199.5,-37 332.5,-37 332.5,-56"/>
<text text-anchor="middle" x="266" y="-44" font-family="Helvetica,sans-Serif" font-size="10.00">Unit::getThreatManager</text>
</a>
</g>
</g>
<!-- Node1&#45;&gt;Node6 -->
<g id="edge5_Node000001_Node000006" class="edge">
<title>Node1&#45;&gt;Node6</title>
<g id="a_edge5_Node000001_Node000006"><a xlink:title=" ">
<path fill="none" stroke="#63b8ff" d="M151,-57.39C163.59,-56.18 176.66,-54.94 189.28,-53.73"/>
<polygon fill="#63b8ff" stroke="#63b8ff" points="189.66,-57.21 199.28,-52.78 189,-50.24 189.66,-57.21"/>
</a>
</g>
</g>
<!-- Node7 -->
<g id="Node000007" class="node">
<title>Node7</title>
<g id="a_Node000007"><a xlink:href="classAIInterface.html#a764382ae9dc3427f8043f041f09c797d" target="_top" xlink:title=" ">
<polygon fill="white" stroke="#666666" points="322,-19 210,-19 210,0 322,0 322,-19"/>
<text text-anchor="middle" x="266" y="-7" font-family="Helvetica,sans-Serif" font-size="10.00">AIInterface::getUnit</text>
</a>
</g>
</g>
<!-- Node1&#45;&gt;Node7 -->
<g id="edge6_Node000001_Node000007" class="edge">
<title>Node1&#45;&gt;Node7</title>
<g id="a_edge6_Node000001_Node000007"><a xlink:title=" ">
<path fill="none" stroke="#63b8ff" d="M120.09,-49.45C140.33,-42.68 164.78,-34.82 187,-28.5 195.47,-26.09 204.52,-23.71 213.34,-21.5"/>
<polygon fill="#63b8ff" stroke="#63b8ff" points="214.28,-24.87 223.15,-19.07 212.6,-18.07 214.28,-24.87"/>
</a>
</g>
</g>
<!-- Node4 -->
<g id="Node000004" class="node">
<title>Node4</title>
<g id="a_Node000004"><a xlink:href="classObject.html#a0f6639fef4e90bc57ee1b34a81d6d489" target="_top" xlink:title=" ">
<polygon fill="white" stroke="#666666" points="473,-93 381,-93 381,-74 473,-74 473,-93"/>
<text text-anchor="middle" x="427" y="-81" font-family="Helvetica,sans-Serif" font-size="10.00">Object::getGuid</text>
</a>
</g>
</g>
<!-- Node3&#45;&gt;Node4 -->
<g id="edge3_Node000003_Node000004" class="edge">
<title>Node3&#45;&gt;Node4</title>
<g id="a_edge3_Node000003_Node000004"><a xlink:title=" ">
<path fill="none" stroke="#63b8ff" d="M338.13,-83.5C349.04,-83.5 360.17,-83.5 370.68,-83.5"/>
<polygon fill="#63b8ff" stroke="#63b8ff" points="370.94,-87 380.94,-83.5 370.94,-80 370.94,-87"/>
</a>
</g>
</g>
<!-- Node5 -->
<g id="Node000005" class="node">
<title>Node5</title>
<g id="a_Node000005"><a xlink:href="classObject.html#ae9814731421ab3e919a2e5c3b86e0eeb" target="_top" xlink:title=" ">
<polygon fill="white" stroke="#666666" points="616,-93 509,-93 509,-74 616,-74 616,-93"/>
<text text-anchor="middle" x="562.5" y="-81" font-family="Helvetica,sans-Serif" font-size="10.00">Object::objectData</text>
</a>
</g>
</g>
<!-- Node4&#45;&gt;Node5 -->
<g id="edge4_Node000004_Node000005" class="edge">
<title>Node4&#45;&gt;Node5</title>
<g id="a_edge4_Node000004_Node000005"><a xlink:title=" ">
<path fill="none" stroke="#63b8ff" d="M473.2,-83.5C481.46,-83.5 490.22,-83.5 498.88,-83.5"/>
<polygon fill="#63b8ff" stroke="#63b8ff" points="498.98,-87 508.98,-83.5 498.98,-80 498.98,-87"/>
</a>
</g>
</g>
</g>
</svg>
