<?xml version="1.0" encoding="UTF-8" standalone="no"?>
<!DOCTYPE svg PUBLIC "-//W3C//DTD SVG 1.1//EN"
 "http://www.w3.org/Graphics/SVG/1.1/DTD/svg11.dtd">
<!-- Generated by graphviz version 2.43.0 (0)
 -->
<!-- Title: G3D::Vector3::isFinite Pages: 1 -->
<svg width="354pt" height="64pt"
 viewBox="0.00 0.00 354.00 64.00" xmlns="http://www.w3.org/2000/svg" xmlns:xlink="http://www.w3.org/1999/xlink">

<svg id="main" version="1.1" xmlns="http://www.w3.org/2000/svg" xmlns:xlink="http://www.w3.org/1999/xlink" xml:space="preserve" onload="init(evt)">
<style type="text/css"><![CDATA[
.node, .edge {opacity: 0.7;}
.node.selected, .edge.selected {opacity: 1;}
.edge:hover path { stroke: red; }
.edge:hover polygon { stroke: red; fill: red; }
]]></style>
<script type="application/ecmascript" xlink:href="svg.min.js"/>
<svg id="graph" class="graph">
<g id="graph0" class="graph" transform="scale(1 1) rotate(0) translate(4 60)">
<title>G3D::Vector3::isFinite</title>
<!-- Node1 -->
<g id="Node000001" class="node">
<title>Node1</title>
<g id="a_Node000001"><a xlink:title=" ">
<polygon fill="#999999" stroke="#666666" points="122,-37 0,-37 0,-18 122,-18 122,-37"/>
<text text-anchor="middle" x="61" y="-25" font-family="Helvetica,sans-Serif" font-size="10.00">G3D::Vector3::isFinite</text>
</a>
</g>
</g>
<!-- Node2 -->
<g id="Node000002" class="node">
<title>Node2</title>
<g id="a_Node000002"><a xlink:href="namespaceG3D.html#abc9e90a9bc8513570a75e74904222927" target="_top" xlink:title=" ">
<polygon fill="white" stroke="#666666" points="237,-37 158,-37 158,-18 237,-18 237,-37"/>
<text text-anchor="middle" x="197.5" y="-25" font-family="Helvetica,sans-Serif" font-size="10.00">G3D::isFinite</text>
</a>
</g>
</g>
<!-- Node1&#45;&gt;Node2 -->
<g id="edge1_Node000001_Node000002" class="edge">
<title>Node1&#45;&gt;Node2</title>
<g id="a_edge1_Node000001_Node000002"><a xlink:title=" ">
<path fill="none" stroke="#63b8ff" d="M122.17,-27.5C130.73,-27.5 139.44,-27.5 147.74,-27.5"/>
<polygon fill="#63b8ff" stroke="#63b8ff" points="148,-31 158,-27.5 148,-24 148,-31"/>
</a>
</g>
</g>
<!-- Node3 -->
<g id="Node000003" class="node">
<title>Node3</title>
<g id="a_Node000003"><a xlink:href="namespaceG3D.html#a86bb20cad66ebd418f73ff28684856c2" target="_top" xlink:title=" ">
<polygon fill="white" stroke="#666666" points="337.5,-56 281.5,-56 281.5,-37 337.5,-37 337.5,-56"/>
<text text-anchor="middle" x="309.5" y="-44" font-family="Helvetica,sans-Serif" font-size="10.00">G3D::inf</text>
</a>
</g>
</g>
<!-- Node2&#45;&gt;Node3 -->
<g id="edge2_Node000002_Node000003" class="edge">
<title>Node2&#45;&gt;Node3</title>
<g id="a_edge2_Node000002_Node000003"><a xlink:title=" ">
<path fill="none" stroke="#63b8ff" d="M237.28,-34.2C248.34,-36.11 260.37,-38.19 271.33,-40.08"/>
<polygon fill="#63b8ff" stroke="#63b8ff" points="271,-43.57 281.45,-41.83 272.19,-36.68 271,-43.57"/>
</a>
</g>
</g>
<!-- Node4 -->
<g id="Node000004" class="node">
<title>Node4</title>
<g id="a_Node000004"><a xlink:href="namespaceG3D.html#a8843e9ad0a3e34440585a11c43ceacd7" target="_top" xlink:title=" ">
<polygon fill="white" stroke="#666666" points="346,-19 273,-19 273,0 346,0 346,-19"/>
<text text-anchor="middle" x="309.5" y="-7" font-family="Helvetica,sans-Serif" font-size="10.00">G3D::isNaN</text>
</a>
</g>
</g>
<!-- Node2&#45;&gt;Node4 -->
<g id="edge3_Node000002_Node000004" class="edge">
<title>Node2&#45;&gt;Node4</title>
<g id="a_edge3_Node000002_Node000004"><a xlink:title=" ">
<path fill="none" stroke="#63b8ff" d="M237.28,-21.15C245.46,-19.82 254.17,-18.39 262.58,-17.01"/>
<polygon fill="#63b8ff" stroke="#63b8ff" points="263.34,-20.44 272.64,-15.37 262.21,-13.53 263.34,-20.44"/>
</a>
</g>
</g>
</g>
</svg>
</svg>

<style type='text/css'>
<![CDATA[
[data-mouse-over-selected='false'] { opacity: 0.7; }
[data-mouse-over-selected='true']  { opacity: 1.0; }
]]>
</style>
<script type="application/ecmascript"><![CDATA[
document.addEventListener('DOMContentLoaded', (event) => {
  highlightEdges();
  highlightAdjacentNodes();
});
]]></script>
</svg>
