<?xml version="1.0" encoding="UTF-8" standalone="no"?>
<!DOCTYPE svg PUBLIC "-//W3C//DTD SVG 1.1//EN"
 "http://www.w3.org/Graphics/SVG/1.1/DTD/svg11.dtd">
<!-- Generated by graphviz version 2.43.0 (0)
 -->
<!-- Title: Player::loadReputations Pages: 1 -->
<svg width="637pt" height="138pt"
 viewBox="0.00 0.00 637.00 138.00" xmlns="http://www.w3.org/2000/svg" xmlns:xlink="http://www.w3.org/1999/xlink">
<g id="graph0" class="graph" transform="scale(1 1) rotate(0) translate(4 134)">
<title>Player::loadReputations</title>
<!-- Node1 -->
<g id="Node000001" class="node">
<title>Node1</title>
<g id="a_Node000001"><a xlink:title=" ">
<polygon fill="#999999" stroke="#666666" points="133,-74 0,-74 0,-55 133,-55 133,-74"/>
<text text-anchor="middle" x="66.5" y="-62" font-family="Helvetica,sans-Serif" font-size="10.00">Player::loadReputations</text>
</a>
</g>
</g>
<!-- Node2 -->
<g id="Node000002" class="node">
<title>Node2</title>
<g id="a_Node000002"><a xlink:href="classField.html#a836008605f9952102e95fa9f2b9bedd6" target="_top" xlink:title=" ">
<polygon fill="white" stroke="#666666" points="288,-130 199,-130 199,-111 288,-111 288,-130"/>
<text text-anchor="middle" x="243.5" y="-118" font-family="Helvetica,sans-Serif" font-size="10.00">Field::asUint32</text>
</a>
</g>
</g>
<!-- Node1&#45;&gt;Node2 -->
<g id="edge1_Node000001_Node000002" class="edge">
<title>Node1&#45;&gt;Node2</title>
<g id="a_edge1_Node000001_Node000002"><a xlink:title=" ">
<path fill="none" stroke="#63b8ff" d="M90.61,-74.04C111.01,-82.25 141.67,-94.07 169,-102.5 175.66,-104.56 182.72,-106.53 189.73,-108.37"/>
<polygon fill="#63b8ff" stroke="#63b8ff" points="189.35,-111.89 199.9,-110.97 191.08,-105.11 189.35,-111.89"/>
</a>
</g>
</g>
<!-- Node4 -->
<g id="Node000004" class="node">
<title>Node4</title>
<g id="a_Node000004"><a xlink:href="classQueryResult.html#a56dcd26a771c32c7422df58c05b41a31" target="_top" xlink:title=" ">
<polygon fill="white" stroke="#666666" points="298,-93 189,-93 189,-74 298,-74 298,-93"/>
<text text-anchor="middle" x="243.5" y="-81" font-family="Helvetica,sans-Serif" font-size="10.00">QueryResult::Fetch</text>
</a>
</g>
</g>
<!-- Node1&#45;&gt;Node4 -->
<g id="edge3_Node000001_Node000004" class="edge">
<title>Node1&#45;&gt;Node4</title>
<g id="a_edge3_Node000001_Node000004"><a xlink:title=" ">
<path fill="none" stroke="#63b8ff" d="M133.16,-71.63C148.05,-73.25 163.85,-74.96 178.67,-76.57"/>
<polygon fill="#63b8ff" stroke="#63b8ff" points="178.42,-80.06 188.74,-77.66 179.18,-73.1 178.42,-80.06"/>
</a>
</g>
</g>
<!-- Node5 -->
<g id="Node000005" class="node">
<title>Node5</title>
<g id="a_Node000005"><a xlink:href="classPlayer.html#a22cb329f782a8dadcde2f671c7569c9b" target="_top" xlink:title=" ">
<polygon fill="white" stroke="#666666" points="318,-56 169,-56 169,-37 318,-37 318,-56"/>
<text text-anchor="middle" x="243.5" y="-44" font-family="Helvetica,sans-Serif" font-size="10.00">Player::initialiseReputation</text>
</a>
</g>
</g>
<!-- Node1&#45;&gt;Node5 -->
<g id="edge4_Node000001_Node000005" class="edge">
<title>Node1&#45;&gt;Node5</title>
<g id="a_edge4_Node000001_Node000005"><a xlink:title=" ">
<path fill="none" stroke="#63b8ff" d="M133.16,-57.75C141.53,-56.89 150.18,-56 158.78,-55.11"/>
<polygon fill="#63b8ff" stroke="#63b8ff" points="159.24,-58.58 168.83,-54.08 158.53,-51.62 159.24,-58.58"/>
</a>
</g>
</g>
<!-- Node9 -->
<g id="Node000009" class="node">
<title>Node9</title>
<g id="a_Node000009"><a xlink:href="classQueryResult.html#a8f1f135d431fe357bf2b9373dc8d59be" target="_top" xlink:title=" ">
<polygon fill="white" stroke="#666666" points="307,-19 180,-19 180,0 307,0 307,-19"/>
<text text-anchor="middle" x="243.5" y="-7" font-family="Helvetica,sans-Serif" font-size="10.00">QueryResult::NextRow</text>
</a>
</g>
</g>
<!-- Node1&#45;&gt;Node9 -->
<g id="edge8_Node000001_Node000009" class="edge">
<title>Node1&#45;&gt;Node9</title>
<g id="a_edge8_Node000001_Node000009"><a xlink:title=" ">
<path fill="none" stroke="#63b8ff" d="M92.74,-54.85C113.15,-47.22 142.72,-36.54 169,-28.5 176.8,-26.12 185.11,-23.77 193.25,-21.59"/>
<polygon fill="#63b8ff" stroke="#63b8ff" points="194.25,-24.95 203.03,-19.02 192.47,-18.18 194.25,-24.95"/>
</a>
</g>
</g>
<!-- Node3 -->
<g id="Node000003" class="node">
<title>Node3</title>
<g id="a_Node000003"><a xlink:href="namespaceUtil.html#a51e197070f834900188d69aba878a158" target="_top" xlink:title=" ">
<polygon fill="white" stroke="#666666" points="473,-130 363,-130 363,-111 473,-111 473,-130"/>
<text text-anchor="middle" x="418" y="-118" font-family="Helvetica,sans-Serif" font-size="10.00">Util::stringToUint32</text>
</a>
</g>
</g>
<!-- Node2&#45;&gt;Node3 -->
<g id="edge2_Node000002_Node000003" class="edge">
<title>Node2&#45;&gt;Node3</title>
<g id="a_edge2_Node000002_Node000003"><a xlink:title=" ">
<path fill="none" stroke="#63b8ff" d="M288.03,-120.5C307.67,-120.5 331.27,-120.5 352.89,-120.5"/>
<polygon fill="#63b8ff" stroke="#63b8ff" points="352.98,-124 362.98,-120.5 352.98,-117 352.98,-124"/>
</a>
</g>
</g>
<!-- Node6 -->
<g id="Node000006" class="node">
<title>Node6</title>
<g id="a_Node000006"><a xlink:href="classPlayer.html#aa1641c41cd06be26af1acbab24204e9b" target="_top" xlink:title=" ">
<polygon fill="white" stroke="#666666" points="482,-56 354,-56 354,-37 482,-37 482,-56"/>
<text text-anchor="middle" x="418" y="-44" font-family="Helvetica,sans-Serif" font-size="10.00">Player::addNewFaction</text>
</a>
</g>
</g>
<!-- Node5&#45;&gt;Node6 -->
<g id="edge5_Node000005_Node000006" class="edge">
<title>Node5&#45;&gt;Node6</title>
<g id="a_edge5_Node000005_Node000006"><a xlink:title=" ">
<path fill="none" stroke="#63b8ff" d="M318.16,-46.5C326.62,-46.5 335.25,-46.5 343.71,-46.5"/>
<polygon fill="#63b8ff" stroke="#63b8ff" points="343.92,-50 353.92,-46.5 343.92,-43 343.92,-50"/>
</a>
</g>
</g>
<!-- Node7 -->
<g id="Node000007" class="node">
<title>Node7</title>
<g id="a_Node000007"><a xlink:href="classUnit.html#ac8fda184f48446e05d797069a1bc3b6d" target="_top" xlink:title=" ">
<polygon fill="white" stroke="#666666" points="629,-75 518,-75 518,-56 629,-56 629,-75"/>
<text text-anchor="middle" x="573.5" y="-63" font-family="Helvetica,sans-Serif" font-size="10.00">Unit::getClassMask</text>
</a>
</g>
</g>
<!-- Node6&#45;&gt;Node7 -->
<g id="edge6_Node000006_Node000007" class="edge">
<title>Node6&#45;&gt;Node7</title>
<g id="a_edge6_Node000006_Node000007"><a xlink:title=" ">
<path fill="none" stroke="#63b8ff" d="M482.32,-54.34C490.66,-55.37 499.21,-56.43 507.58,-57.46"/>
<polygon fill="#63b8ff" stroke="#63b8ff" points="507.3,-60.96 517.66,-58.71 508.16,-54.01 507.3,-60.96"/>
</a>
</g>
</g>
<!-- Node8 -->
<g id="Node000008" class="node">
<title>Node8</title>
<g id="a_Node000008"><a xlink:href="classUnit.html#af0dd611d4c74308572364a5b5f85762b" target="_top" xlink:title=" ">
<polygon fill="white" stroke="#666666" points="628,-38 519,-38 519,-19 628,-19 628,-38"/>
<text text-anchor="middle" x="573.5" y="-26" font-family="Helvetica,sans-Serif" font-size="10.00">Unit::getRaceMask</text>
</a>
</g>
</g>
<!-- Node6&#45;&gt;Node8 -->
<g id="edge7_Node000006_Node000008" class="edge">
<title>Node6&#45;&gt;Node8</title>
<g id="a_edge7_Node000006_Node000008"><a xlink:title=" ">
<path fill="none" stroke="#63b8ff" d="M482.32,-39.07C490.99,-38.06 499.89,-37.01 508.57,-36"/>
<polygon fill="#63b8ff" stroke="#63b8ff" points="509.1,-39.46 518.62,-34.82 508.28,-32.51 509.1,-39.46"/>
</a>
</g>
</g>
</g>
</svg>
