<?xml version="1.0" encoding="UTF-8" standalone="no"?>
<!DOCTYPE svg PUBLIC "-//W3C//DTD SVG 1.1//EN"
 "http://www.w3.org/Graphics/SVG/1.1/DTD/svg11.dtd">
<!-- Generated by graphviz version 2.43.0 (0)
 -->
<!-- Title: Arena::OnCreate Pages: 1 -->
<svg width="296pt" height="175pt"
 viewBox="0.00 0.00 296.00 175.00" xmlns="http://www.w3.org/2000/svg" xmlns:xlink="http://www.w3.org/1999/xlink">

<svg id="main" version="1.1" xmlns="http://www.w3.org/2000/svg" xmlns:xlink="http://www.w3.org/1999/xlink" xml:space="preserve" onload="init(evt)">
<style type="text/css"><![CDATA[
.node, .edge {opacity: 0.7;}
.node.selected, .edge.selected {opacity: 1;}
.edge:hover path { stroke: red; }
.edge:hover polygon { stroke: red; fill: red; }
]]></style>
<script type="application/ecmascript" xlink:href="svg.min.js"/>
<svg id="graph" class="graph">
<g id="graph0" class="graph" transform="scale(1 1) rotate(0) translate(4 171)">
<title>Arena::OnCreate</title>
<!-- Node1 -->
<g id="Node000001" class="node">
<title>Node1</title>
<g id="a_Node000001"><a xlink:title=" ">
<polygon fill="#999999" stroke="#666666" points="288,-93 191,-93 191,-74 288,-74 288,-93"/>
<text text-anchor="middle" x="239.5" y="-81" font-family="Helvetica,sans-Serif" font-size="10.00">Arena::OnCreate</text>
</a>
</g>
</g>
<!-- Node2 -->
<g id="Node000002" class="node">
<title>Node2</title>
<g id="a_Node000002"><a xlink:href="classCircleOfBlood.html#a728c80ac890d327a09ea25434664a2b9" target="_top" xlink:title=" ">
<polygon fill="white" stroke="#666666" points="145,-167 10,-167 10,-148 145,-148 145,-167"/>
<text text-anchor="middle" x="77.5" y="-155" font-family="Helvetica,sans-Serif" font-size="10.00">CircleOfBlood::OnCreate</text>
</a>
</g>
</g>
<!-- Node1&#45;&gt;Node2 -->
<g id="edge1_Node000001_Node000002" class="edge">
<title>Node1&#45;&gt;Node2</title>
<g id="a_edge1_Node000001_Node000002"><a xlink:title=" ">
<path fill="none" stroke="#63b8ff" d="M218.99,-99.57C202.78,-112.16 178.63,-129.2 155,-139.5 147.24,-142.88 138.76,-145.68 130.35,-147.98"/>
<polygon fill="#63b8ff" stroke="#63b8ff" points="221.47,-102.07 227.12,-93.11 217.11,-96.59 221.47,-102.07"/>
</a>
</g>
</g>
<!-- Node3 -->
<g id="Node000003" class="node">
<title>Node3</title>
<g id="a_Node000003"><a xlink:href="classDalaranSewers.html#a0ad676f94872f8cfe6be31895d2aa21b" target="_top" xlink:title=" ">
<polygon fill="white" stroke="#666666" points="148.5,-130 6.5,-130 6.5,-111 148.5,-111 148.5,-130"/>
<text text-anchor="middle" x="77.5" y="-118" font-family="Helvetica,sans-Serif" font-size="10.00">DalaranSewers::OnCreate</text>
</a>
</g>
</g>
<!-- Node1&#45;&gt;Node3 -->
<g id="edge2_Node000001_Node000003" class="edge">
<title>Node1&#45;&gt;Node3</title>
<g id="a_edge2_Node000001_Node000003"><a xlink:title=" ">
<path fill="none" stroke="#63b8ff" d="M187.52,-95.29C165.68,-100.34 140.5,-106.16 119.84,-110.94"/>
<polygon fill="#63b8ff" stroke="#63b8ff" points="188.34,-98.69 197.3,-93.03 186.76,-91.87 188.34,-98.69"/>
</a>
</g>
</g>
<!-- Node4 -->
<g id="Node000004" class="node">
<title>Node4</title>
<g id="a_Node000004"><a xlink:href="classRingOfTrials.html#abf0b05880475535284573d8db394b0ac" target="_top" xlink:title=" ">
<polygon fill="white" stroke="#666666" points="141,-93 14,-93 14,-74 141,-74 141,-93"/>
<text text-anchor="middle" x="77.5" y="-81" font-family="Helvetica,sans-Serif" font-size="10.00">RingOfTrials::OnCreate</text>
</a>
</g>
</g>
<!-- Node1&#45;&gt;Node4 -->
<g id="edge3_Node000001_Node000004" class="edge">
<title>Node1&#45;&gt;Node4</title>
<g id="a_edge3_Node000001_Node000004"><a xlink:title=" ">
<path fill="none" stroke="#63b8ff" d="M180.78,-83.5C167.87,-83.5 154.11,-83.5 141.01,-83.5"/>
<polygon fill="#63b8ff" stroke="#63b8ff" points="180.93,-87 190.93,-83.5 180.93,-80 180.93,-87"/>
</a>
</g>
</g>
<!-- Node5 -->
<g id="Node000005" class="node">
<title>Node5</title>
<g id="a_Node000005"><a xlink:href="classRingOfValor.html#a5529403d9c9773febc5bf3cde1cf0cdc" target="_top" xlink:title=" ">
<polygon fill="white" stroke="#666666" points="140.5,-56 14.5,-56 14.5,-37 140.5,-37 140.5,-56"/>
<text text-anchor="middle" x="77.5" y="-44" font-family="Helvetica,sans-Serif" font-size="10.00">RingOfValor::OnCreate</text>
</a>
</g>
</g>
<!-- Node1&#45;&gt;Node5 -->
<g id="edge4_Node000001_Node000005" class="edge">
<title>Node1&#45;&gt;Node5</title>
<g id="a_edge4_Node000001_Node000005"><a xlink:title=" ">
<path fill="none" stroke="#63b8ff" d="M187.52,-71.71C165.68,-66.66 140.5,-60.84 119.84,-56.06"/>
<polygon fill="#63b8ff" stroke="#63b8ff" points="186.76,-75.13 197.3,-73.97 188.34,-68.31 186.76,-75.13"/>
</a>
</g>
</g>
<!-- Node6 -->
<g id="Node000006" class="node">
<title>Node6</title>
<g id="a_Node000006"><a xlink:href="classRuinsOfLordaeron.html#a626fa255d38a373c34e1ca54d809d7db" target="_top" xlink:title=" ">
<polygon fill="white" stroke="#666666" points="155,-19 0,-19 0,0 155,0 155,-19"/>
<text text-anchor="middle" x="77.5" y="-7" font-family="Helvetica,sans-Serif" font-size="10.00">RuinsOfLordaeron::OnCreate</text>
</a>
</g>
</g>
<!-- Node1&#45;&gt;Node6 -->
<g id="edge5_Node000001_Node000006" class="edge">
<title>Node1&#45;&gt;Node6</title>
<g id="a_edge5_Node000001_Node000006"><a xlink:title=" ">
<path fill="none" stroke="#63b8ff" d="M218.63,-67.6C202.37,-55.31 178.34,-38.73 155,-28.5 146.35,-24.71 136.81,-21.58 127.48,-19.04"/>
<polygon fill="#63b8ff" stroke="#63b8ff" points="216.75,-70.57 226.8,-73.92 221.03,-65.03 216.75,-70.57"/>
</a>
</g>
</g>
</g>
</svg>
</svg>

<style type='text/css'>
<![CDATA[
[data-mouse-over-selected='false'] { opacity: 0.7; }
[data-mouse-over-selected='true']  { opacity: 1.0; }
]]>
</style>
<script type="application/ecmascript"><![CDATA[
document.addEventListener('DOMContentLoaded', (event) => {
  highlightEdges();
  highlightAdjacentNodes();
});
]]></script>
</svg>
