<?xml version="1.0" encoding="UTF-8" standalone="no"?>
<!DOCTYPE svg PUBLIC "-//W3C//DTD SVG 1.1//EN"
 "http://www.w3.org/Graphics/SVG/1.1/DTD/svg11.dtd">
<!-- Generated by graphviz version 2.43.0 (0)
 -->
<!-- Title: LogonConsole::ProcessCmd Pages: 1 -->
<svg width="748pt" height="421pt"
 viewBox="0.00 0.00 748.00 420.50" xmlns="http://www.w3.org/2000/svg" xmlns:xlink="http://www.w3.org/1999/xlink">
<g id="graph0" class="graph" transform="scale(1 1) rotate(0) translate(4 416.5)">
<title>LogonConsole::ProcessCmd</title>
<!-- Node1 -->
<g id="Node000001" class="node">
<title>Node1</title>
<g id="a_Node000001"><a xlink:title=" ">
<polygon fill="#999999" stroke="#666666" points="151,-204 0,-204 0,-185 151,-185 151,-204"/>
<text text-anchor="middle" x="75.5" y="-192" font-family="Helvetica,sans-Serif" font-size="10.00">LogonConsole::ProcessCmd</text>
</a>
</g>
</g>
<!-- Node2 -->
<g id="Node000002" class="node">
<title>Node2</title>
<g id="a_Node000002"><a xlink:href="classLogonConsole.html#ab8bf00a009e253c66d91b8acc4443b5c" target="_top" xlink:title=" ">
<polygon fill="white" stroke="#666666" points="357.5,-412.5 190.5,-412.5 190.5,-382.5 357.5,-382.5 357.5,-412.5"/>
<text text-anchor="start" x="198.5" y="-400.5" font-family="Helvetica,sans-Serif" font-size="10.00">LogonConsole::AccountChange</text>
<text text-anchor="middle" x="274" y="-389.5" font-family="Helvetica,sans-Serif" font-size="10.00">Password</text>
</a>
</g>
</g>
<!-- Node1&#45;&gt;Node2 -->
<g id="edge1_Node000001_Node000002" class="edge">
<title>Node1&#45;&gt;Node2</title>
<g id="a_edge1_Node000001_Node000002"><a xlink:title=" ">
<path fill="none" stroke="#63b8ff" d="M79.69,-204.42C89.95,-234.74 125.13,-326.96 187,-373.5 188.86,-374.9 190.8,-376.22 192.8,-377.46"/>
<polygon fill="#63b8ff" stroke="#63b8ff" points="191.48,-380.72 201.93,-382.43 194.82,-374.57 191.48,-380.72"/>
</a>
</g>
</g>
<!-- Node5 -->
<g id="Node000005" class="node">
<title>Node5</title>
<g id="a_Node000005"><a xlink:href="classLogonConsole.html#af9cbedfee16c73b1bfe095774d924eba" target="_top" xlink:title=" ">
<polygon fill="white" stroke="#666666" points="355,-364 193,-364 193,-345 355,-345 355,-364"/>
<text text-anchor="middle" x="274" y="-352" font-family="Helvetica,sans-Serif" font-size="10.00">LogonConsole::AccountCreate</text>
</a>
</g>
</g>
<!-- Node1&#45;&gt;Node5 -->
<g id="edge4_Node000001_Node000005" class="edge">
<title>Node1&#45;&gt;Node5</title>
<g id="a_edge4_Node000001_Node000005"><a xlink:title=" ">
<path fill="none" stroke="#63b8ff" d="M81.07,-204.35C93.75,-230.55 132.14,-302.27 187,-336.5 189.63,-338.14 192.39,-339.64 195.24,-341"/>
<polygon fill="#63b8ff" stroke="#63b8ff" points="194,-344.28 204.58,-344.91 196.7,-337.82 194,-344.28"/>
</a>
</g>
</g>
<!-- Node6 -->
<g id="Node000006" class="node">
<title>Node6</title>
<g id="a_Node000006"><a xlink:href="classLogonConsole.html#afc8f8efacdd99f712ea5f6fb8caa8220" target="_top" xlink:title=" ">
<polygon fill="white" stroke="#666666" points="355,-327 193,-327 193,-308 355,-308 355,-327"/>
<text text-anchor="middle" x="274" y="-315" font-family="Helvetica,sans-Serif" font-size="10.00">LogonConsole::AccountDelete</text>
</a>
</g>
</g>
<!-- Node1&#45;&gt;Node6 -->
<g id="edge6_Node000001_Node000006" class="edge">
<title>Node1&#45;&gt;Node6</title>
<g id="a_edge6_Node000001_Node000006"><a xlink:title=" ">
<path fill="none" stroke="#63b8ff" d="M83.6,-204.03C99.59,-224.75 140.65,-274 187,-298.5 191.33,-300.79 195.93,-302.81 200.66,-304.58"/>
<polygon fill="#63b8ff" stroke="#63b8ff" points="199.91,-308.02 210.5,-307.89 202.14,-301.38 199.91,-308.02"/>
</a>
</g>
</g>
<!-- Node7 -->
<g id="Node000007" class="node">
<title>Node7</title>
<g id="a_Node000007"><a xlink:href="classLogonConsole.html#ad5c3ffe9cedc33d3e2073e4407124cc6" target="_top" xlink:title=" ">
<polygon fill="white" stroke="#666666" points="347,-289.5 201,-289.5 201,-259.5 347,-259.5 347,-289.5"/>
<text text-anchor="start" x="209" y="-277.5" font-family="Helvetica,sans-Serif" font-size="10.00">LogonConsole::AccountSet</text>
<text text-anchor="middle" x="274" y="-266.5" font-family="Helvetica,sans-Serif" font-size="10.00">Password</text>
</a>
</g>
</g>
<!-- Node1&#45;&gt;Node7 -->
<g id="edge8_Node000001_Node000007" class="edge">
<title>Node1&#45;&gt;Node7</title>
<g id="a_edge8_Node000001_Node000007"><a xlink:title=" ">
<path fill="none" stroke="#63b8ff" d="M92.88,-204.09C114.05,-216.19 152.32,-237.02 187,-250.5 192.37,-252.59 197.99,-254.57 203.68,-256.44"/>
<polygon fill="#63b8ff" stroke="#63b8ff" points="202.69,-259.8 213.28,-259.48 204.8,-253.13 202.69,-259.8"/>
</a>
</g>
</g>
<!-- Node8 -->
<g id="Node000008" class="node">
<title>Node8</title>
<g id="a_Node000008"><a xlink:href="classLogonConsole.html#af47e2d1374d16b38228759395cf36673" target="_top" xlink:title=" ">
<polygon fill="white" stroke="#666666" points="329,-241 219,-241 219,-222 329,-222 329,-241"/>
<text text-anchor="middle" x="274" y="-229" font-family="Helvetica,sans-Serif" font-size="10.00">LogonConsole::Info</text>
</a>
</g>
</g>
<!-- Node1&#45;&gt;Node8 -->
<g id="edge10_Node000001_Node000008" class="edge">
<title>Node1&#45;&gt;Node8</title>
<g id="a_edge10_Node000001_Node000008"><a xlink:title=" ">
<path fill="none" stroke="#63b8ff" d="M127.1,-204.03C153.13,-208.93 185.05,-214.94 212.38,-220.09"/>
<polygon fill="#63b8ff" stroke="#63b8ff" points="211.75,-223.53 222.23,-221.94 213.05,-216.65 211.75,-223.53"/>
</a>
</g>
</g>
<!-- Node9 -->
<g id="Node000009" class="node">
<title>Node9</title>
<g id="a_Node000009"><a xlink:href="classLogonConsole.html#a4ac605336413b2ab97fe31fef4d88789" target="_top" xlink:title=" ">
<polygon fill="white" stroke="#666666" points="355.5,-204 192.5,-204 192.5,-185 355.5,-185 355.5,-204"/>
<text text-anchor="middle" x="274" y="-192" font-family="Helvetica,sans-Serif" font-size="10.00">LogonConsole::NetworkStatus</text>
</a>
</g>
</g>
<!-- Node1&#45;&gt;Node9 -->
<g id="edge11_Node000001_Node000009" class="edge">
<title>Node1&#45;&gt;Node9</title>
<g id="a_edge11_Node000001_Node000009"><a xlink:title=" ">
<path fill="none" stroke="#63b8ff" d="M151.07,-194.5C161.17,-194.5 171.62,-194.5 181.96,-194.5"/>
<polygon fill="#63b8ff" stroke="#63b8ff" points="182.25,-198 192.25,-194.5 182.25,-191 182.25,-198"/>
</a>
</g>
</g>
<!-- Node10 -->
<g id="Node000010" class="node">
<title>Node10</title>
<g id="a_Node000010"><a xlink:href="classLogonConsole.html#a6e7540e2e2c827801bfe31a03f7a1358" target="_top" xlink:title=" ">
<polygon fill="white" stroke="#666666" points="349.5,-167 198.5,-167 198.5,-148 349.5,-148 349.5,-167"/>
<text text-anchor="middle" x="274" y="-155" font-family="Helvetica,sans-Serif" font-size="10.00">LogonConsole::ReloadAccts</text>
</a>
</g>
</g>
<!-- Node1&#45;&gt;Node10 -->
<g id="edge12_Node000001_Node000010" class="edge">
<title>Node1&#45;&gt;Node10</title>
<g id="a_edge12_Node000001_Node000010"><a xlink:title=" ">
<path fill="none" stroke="#63b8ff" d="M127.1,-184.97C153.13,-180.07 185.05,-174.06 212.38,-168.91"/>
<polygon fill="#63b8ff" stroke="#63b8ff" points="213.05,-172.35 222.23,-167.06 211.75,-165.47 213.05,-172.35"/>
</a>
</g>
</g>
<!-- Node11 -->
<g id="Node000011" class="node">
<title>Node11</title>
<g id="a_Node000011"><a xlink:href="classLogonConsole.html#ac4e8a99a27a7386a84f4c0e42374c1a4" target="_top" xlink:title=" ">
<polygon fill="white" stroke="#666666" points="361,-130 187,-130 187,-111 361,-111 361,-130"/>
<text text-anchor="middle" x="274" y="-118" font-family="Helvetica,sans-Serif" font-size="10.00">LogonConsole::threadDemoCmd</text>
</a>
</g>
</g>
<!-- Node1&#45;&gt;Node11 -->
<g id="edge13_Node000001_Node000011" class="edge">
<title>Node1&#45;&gt;Node11</title>
<g id="a_edge13_Node000001_Node000011"><a xlink:title=" ">
<path fill="none" stroke="#63b8ff" d="M92.79,-184.8C113.87,-172.63 152.05,-151.85 187,-139.5 194.4,-136.89 202.29,-134.56 210.18,-132.5"/>
<polygon fill="#63b8ff" stroke="#63b8ff" points="211.25,-135.84 220.12,-130.05 209.58,-129.04 211.25,-135.84"/>
</a>
</g>
</g>
<!-- Node13 -->
<g id="Node000013" class="node">
<title>Node13</title>
<g id="a_Node000013"><a xlink:href="classLogonConsole.html#addaec5149ec95365715e3a7faab94525" target="_top" xlink:title=" ">
<polygon fill="white" stroke="#666666" points="353,-93 195,-93 195,-74 353,-74 353,-93"/>
<text text-anchor="middle" x="274" y="-81" font-family="Helvetica,sans-Serif" font-size="10.00">LogonConsole::TranslateHelp</text>
</a>
</g>
</g>
<!-- Node1&#45;&gt;Node13 -->
<g id="edge15_Node000001_Node000013" class="edge">
<title>Node1&#45;&gt;Node13</title>
<g id="a_edge15_Node000001_Node000013"><a xlink:title=" ">
<path fill="none" stroke="#63b8ff" d="M84.89,-184.97C102.06,-166.09 143.29,-123.93 187,-102.5 191.98,-100.06 197.27,-97.93 202.69,-96.07"/>
<polygon fill="#63b8ff" stroke="#63b8ff" points="204.02,-99.32 212.53,-93.01 201.95,-92.64 204.02,-99.32"/>
</a>
</g>
</g>
<!-- Node15 -->
<g id="Node000015" class="node">
<title>Node15</title>
<g id="a_Node000015"><a xlink:href="classLogonConsole.html#ab26ba7a2b48f411cf20e41a9b6950097" target="_top" xlink:title=" ">
<polygon fill="white" stroke="#666666" points="351.5,-56 196.5,-56 196.5,-37 351.5,-37 351.5,-56"/>
<text text-anchor="middle" x="274" y="-44" font-family="Helvetica,sans-Serif" font-size="10.00">LogonConsole::TranslateQuit</text>
</a>
</g>
</g>
<!-- Node1&#45;&gt;Node15 -->
<g id="edge17_Node000001_Node000015" class="edge">
<title>Node1&#45;&gt;Node15</title>
<g id="a_edge17_Node000001_Node000015"><a xlink:title=" ">
<path fill="none" stroke="#63b8ff" d="M81.69,-184.77C95.34,-160.23 134.8,-95.53 187,-64.5 189.88,-62.79 192.91,-61.23 196.03,-59.83"/>
<polygon fill="#63b8ff" stroke="#63b8ff" points="197.61,-62.96 205.62,-56.03 195.03,-56.46 197.61,-62.96"/>
</a>
</g>
</g>
<!-- Node17 -->
<g id="Node000017" class="node">
<title>Node17</title>
<g id="a_Node000017"><a xlink:href="classLogonConsole.html#a84dac44b83079446f0281a675a3ff33e" target="_top" xlink:title=" ">
<polygon fill="white" stroke="#666666" points="359.5,-19 188.5,-19 188.5,0 359.5,0 359.5,-19"/>
<text text-anchor="middle" x="274" y="-7" font-family="Helvetica,sans-Serif" font-size="10.00">LogonConsole::TranslateRehash</text>
</a>
</g>
</g>
<!-- Node1&#45;&gt;Node17 -->
<g id="edge19_Node000001_Node000017" class="edge">
<title>Node1&#45;&gt;Node17</title>
<g id="a_edge19_Node000001_Node000017"><a xlink:title=" ">
<path fill="none" stroke="#63b8ff" d="M79.92,-184.65C90.6,-155.43 126.3,-68.69 187,-27.5 189.29,-25.95 191.68,-24.52 194.16,-23.22"/>
<polygon fill="#63b8ff" stroke="#63b8ff" points="195.77,-26.33 203.43,-19 192.87,-19.96 195.77,-26.33"/>
</a>
</g>
</g>
<!-- Node3 -->
<g id="Node000003" class="node">
<title>Node3</title>
<g id="a_Node000003"><a xlink:href="classLogonConsole.html#a716ee60d7ca52ba25cc8173b7c7bde9a" target="_top" xlink:title=" ">
<polygon fill="white" stroke="#666666" points="585,-345 397,-345 397,-326 585,-326 585,-345"/>
<text text-anchor="middle" x="491" y="-333" font-family="Helvetica,sans-Serif" font-size="10.00">LogonConsole::checkAccountName</text>
</a>
</g>
</g>
<!-- Node2&#45;&gt;Node3 -->
<g id="edge2_Node000002_Node000003" class="edge">
<title>Node2&#45;&gt;Node3</title>
<g id="a_edge2_Node000002_Node000003"><a xlink:title=" ">
<path fill="none" stroke="#63b8ff" d="M329.63,-382.38C340.05,-379.46 350.87,-376.41 361,-373.5 390.22,-365.12 423.09,-355.43 448.34,-347.94"/>
<polygon fill="#63b8ff" stroke="#63b8ff" points="449.38,-351.28 457.96,-345.08 447.38,-344.57 449.38,-351.28"/>
</a>
</g>
</g>
<!-- Node4 -->
<g id="Node000004" class="node">
<title>Node4</title>
<g id="a_Node000004"><a xlink:href="namespaceAscEmu_1_1Util_1_1Strings.html#a712a85e2a9305864d3897d34109284d4" target="_top" xlink:title="Manipulates the string to uppercase.">
<polygon fill="white" stroke="#666666" points="740,-350.5 621,-350.5 621,-320.5 740,-320.5 740,-350.5"/>
<text text-anchor="start" x="629" y="-338.5" font-family="Helvetica,sans-Serif" font-size="10.00">AscEmu::Util::Strings</text>
<text text-anchor="middle" x="680.5" y="-327.5" font-family="Helvetica,sans-Serif" font-size="10.00">::toUpperCase</text>
</a>
</g>
</g>
<!-- Node3&#45;&gt;Node4 -->
<g id="edge3_Node000003_Node000004" class="edge">
<title>Node3&#45;&gt;Node4</title>
<g id="a_edge3_Node000003_Node000004"><a xlink:title=" ">
<path fill="none" stroke="#63b8ff" d="M585.2,-335.5C593.83,-335.5 602.46,-335.5 610.8,-335.5"/>
<polygon fill="#63b8ff" stroke="#63b8ff" points="610.82,-339 620.82,-335.5 610.82,-332 610.82,-339"/>
</a>
</g>
</g>
<!-- Node5&#45;&gt;Node3 -->
<g id="edge5_Node000005_Node000003" class="edge">
<title>Node5&#45;&gt;Node3</title>
<g id="a_edge5_Node000005_Node000003"><a xlink:title=" ">
<path fill="none" stroke="#63b8ff" d="M355.06,-347.43C365.37,-346.51 376.05,-345.57 386.67,-344.63"/>
<polygon fill="#63b8ff" stroke="#63b8ff" points="387.17,-348.1 396.82,-343.73 386.55,-341.13 387.17,-348.1"/>
</a>
</g>
</g>
<!-- Node6&#45;&gt;Node3 -->
<g id="edge7_Node000006_Node000003" class="edge">
<title>Node6&#45;&gt;Node3</title>
<g id="a_edge7_Node000006_Node000003"><a xlink:title=" ">
<path fill="none" stroke="#63b8ff" d="M355.06,-324.2C365.37,-325.07 376.05,-325.96 386.67,-326.85"/>
<polygon fill="#63b8ff" stroke="#63b8ff" points="386.56,-330.35 396.82,-327.7 387.15,-323.38 386.56,-330.35"/>
</a>
</g>
</g>
<!-- Node7&#45;&gt;Node3 -->
<g id="edge9_Node000007_Node000003" class="edge">
<title>Node7&#45;&gt;Node3</title>
<g id="a_edge9_Node000007_Node000003"><a xlink:title=" ">
<path fill="none" stroke="#63b8ff" d="M327.87,-289.5C364.42,-299.87 412.45,-313.5 446.73,-323.22"/>
<polygon fill="#63b8ff" stroke="#63b8ff" points="445.87,-326.62 456.45,-325.98 447.79,-319.88 445.87,-326.62"/>
</a>
</g>
</g>
<!-- Node12 -->
<g id="Node000012" class="node">
<title>Node12</title>
<g id="a_Node000012"><a xlink:href="classLogonConsole.html#add67bb9b409175d1eaa6ea563c2c8d3a" target="_top" xlink:title=" ">
<polygon fill="white" stroke="#666666" points="565,-130 417,-130 417,-111 565,-111 565,-130"/>
<text text-anchor="middle" x="491" y="-118" font-family="Helvetica,sans-Serif" font-size="10.00">LogonConsole::demoTicker</text>
</a>
</g>
</g>
<!-- Node11&#45;&gt;Node12 -->
<g id="edge14_Node000011_Node000012" class="edge">
<title>Node11&#45;&gt;Node12</title>
<g id="a_edge14_Node000011_Node000012"><a xlink:title=" ">
<path fill="none" stroke="#63b8ff" d="M361.21,-120.5C376.21,-120.5 391.78,-120.5 406.7,-120.5"/>
<polygon fill="#63b8ff" stroke="#63b8ff" points="406.91,-124 416.91,-120.5 406.91,-117 406.91,-124"/>
</a>
</g>
</g>
<!-- Node14 -->
<g id="Node000014" class="node">
<title>Node14</title>
<g id="a_Node000014"><a xlink:href="classLogonConsole.html#a8f67b9f1ce14ff99126107eacca77c15" target="_top" xlink:title=" ">
<polygon fill="white" stroke="#666666" points="566.5,-93 415.5,-93 415.5,-74 566.5,-74 566.5,-93"/>
<text text-anchor="middle" x="491" y="-81" font-family="Helvetica,sans-Serif" font-size="10.00">LogonConsole::ProcessHelp</text>
</a>
</g>
</g>
<!-- Node13&#45;&gt;Node14 -->
<g id="edge16_Node000013_Node000014" class="edge">
<title>Node13&#45;&gt;Node14</title>
<g id="a_edge16_Node000013_Node000014"><a xlink:title=" ">
<path fill="none" stroke="#63b8ff" d="M353.23,-83.5C370.19,-83.5 388.2,-83.5 405.4,-83.5"/>
<polygon fill="#63b8ff" stroke="#63b8ff" points="405.42,-87 415.42,-83.5 405.42,-80 405.42,-87"/>
</a>
</g>
</g>
<!-- Node16 -->
<g id="Node000016" class="node">
<title>Node16</title>
<g id="a_Node000016"><a xlink:href="classLogonConsole.html#afd2c5bebc3b1ea67a5f89f585a130171" target="_top" xlink:title=" ">
<polygon fill="white" stroke="#666666" points="565.5,-56 416.5,-56 416.5,-37 565.5,-37 565.5,-56"/>
<text text-anchor="middle" x="491" y="-44" font-family="Helvetica,sans-Serif" font-size="10.00">LogonConsole::ProcessQuit</text>
</a>
</g>
</g>
<!-- Node15&#45;&gt;Node16 -->
<g id="edge18_Node000015_Node000016" class="edge">
<title>Node15&#45;&gt;Node16</title>
<g id="a_edge18_Node000015_Node000016"><a xlink:title=" ">
<path fill="none" stroke="#63b8ff" d="M351.71,-46.5C369.33,-46.5 388.16,-46.5 406.07,-46.5"/>
<polygon fill="#63b8ff" stroke="#63b8ff" points="406.2,-50 416.2,-46.5 406.2,-43 406.2,-50"/>
</a>
</g>
</g>
</g>
</svg>
