<?xml version="1.0" encoding="UTF-8" standalone="no"?>
<!DOCTYPE svg PUBLIC "-//W3C//DTD SVG 1.1//EN"
 "http://www.w3.org/Graphics/SVG/1.1/DTD/svg11.dtd">
<!-- Generated by graphviz version 2.43.0 (0)
 -->
<!-- Title: LfgMgr::InitializeLockedDungeons Pages: 1 -->
<svg width="495pt" height="261pt"
 viewBox="0.00 0.00 495.00 260.50" xmlns="http://www.w3.org/2000/svg" xmlns:xlink="http://www.w3.org/1999/xlink">

<svg id="main" version="1.1" xmlns="http://www.w3.org/2000/svg" xmlns:xlink="http://www.w3.org/1999/xlink" xml:space="preserve" onload="init(evt)">
<style type="text/css"><![CDATA[
.node, .edge {opacity: 0.7;}
.node.selected, .edge.selected {opacity: 1;}
.edge:hover path { stroke: red; }
.edge:hover polygon { stroke: red; fill: red; }
]]></style>
<script type="application/ecmascript" xlink:href="svg.min.js"/>
<svg id="graph" class="graph">
<g id="graph0" class="graph" transform="scale(1 1) rotate(0) translate(4 256.5)">
<title>LfgMgr::InitializeLockedDungeons</title>
<!-- Node1 -->
<g id="Node000001" class="node">
<title>Node1</title>
<g id="a_Node000001"><a xlink:title=" ">
<polygon fill="#999999" stroke="#666666" points="132,-135.5 0,-135.5 0,-105.5 132,-105.5 132,-135.5"/>
<text text-anchor="start" x="8" y="-123.5" font-family="Helvetica,sans-Serif" font-size="10.00">LfgMgr::InitializeLocked</text>
<text text-anchor="middle" x="66" y="-112.5" font-family="Helvetica,sans-Serif" font-size="10.00">Dungeons</text>
</a>
</g>
</g>
<!-- Node2 -->
<g id="Node000002" class="node">
<title>Node2</title>
<g id="a_Node000002"><a xlink:href="structWDB_1_1Structures_1_1LFGDungeonEntry.html#a55f8242f4e786cf1f661c1a4fa12de0b" target="_top" xlink:title=" ">
<polygon fill="white" stroke="#666666" points="338,-252.5 174,-252.5 174,-222.5 338,-222.5 338,-252.5"/>
<text text-anchor="start" x="182" y="-240.5" font-family="Helvetica,sans-Serif" font-size="10.00">WDB::Structures::LFGDungeon</text>
<text text-anchor="middle" x="256" y="-229.5" font-family="Helvetica,sans-Serif" font-size="10.00">Entry::Entry</text>
</a>
</g>
</g>
<!-- Node1&#45;&gt;Node2 -->
<g id="edge1_Node000001_Node000002" class="edge">
<title>Node1&#45;&gt;Node2</title>
<g id="a_edge1_Node000001_Node000002"><a xlink:title=" ">
<path fill="none" stroke="#63b8ff" d="M79.38,-135.75C96.95,-156.41 131.11,-193.03 168,-213.5 171.28,-215.32 174.7,-217.01 178.21,-218.57"/>
<polygon fill="#63b8ff" stroke="#63b8ff" points="177.1,-221.9 187.68,-222.44 179.75,-215.42 177.1,-221.9"/>
</a>
</g>
</g>
<!-- Node3 -->
<g id="Node000003" class="node">
<title>Node3</title>
<g id="a_Node000003"><a xlink:href="classLfgMgr.html#aa263930c2cfa8e0a0dc80e7b4b93b57d" target="_top" xlink:title=" ">
<polygon fill="white" stroke="#666666" points="344,-204 168,-204 168,-185 344,-185 344,-204"/>
<text text-anchor="middle" x="256" y="-192" font-family="Helvetica,sans-Serif" font-size="10.00">LfgMgr::GetDungeonsByRandom</text>
</a>
</g>
</g>
<!-- Node1&#45;&gt;Node3 -->
<g id="edge2_Node000001_Node000003" class="edge">
<title>Node1&#45;&gt;Node3</title>
<g id="a_edge2_Node000001_Node000003"><a xlink:title=" ">
<path fill="none" stroke="#63b8ff" d="M89.71,-135.72C109.58,-148.38 139.61,-165.97 168,-176.5 173.98,-178.72 180.3,-180.69 186.69,-182.43"/>
<polygon fill="#63b8ff" stroke="#63b8ff" points="186.19,-185.92 196.75,-185 187.92,-179.14 186.19,-185.92"/>
</a>
</g>
</g>
<!-- Node4 -->
<g id="Node000004" class="node">
<title>Node4</title>
<g id="a_Node000004"><a xlink:href="classWorldSession.html#a6428619fe56c0dda85a86e45a847c594" target="_top" xlink:title=" ">
<polygon fill="white" stroke="#666666" points="321.5,-167 190.5,-167 190.5,-148 321.5,-148 321.5,-167"/>
<text text-anchor="middle" x="256" y="-155" font-family="Helvetica,sans-Serif" font-size="10.00">WorldSession::GetFlags</text>
</a>
</g>
</g>
<!-- Node1&#45;&gt;Node4 -->
<g id="edge3_Node000001_Node000004" class="edge">
<title>Node1&#45;&gt;Node4</title>
<g id="a_edge3_Node000001_Node000004"><a xlink:title=" ">
<path fill="none" stroke="#63b8ff" d="M132.23,-133.34C153.09,-137.44 176.05,-141.96 196.42,-145.97"/>
<polygon fill="#63b8ff" stroke="#63b8ff" points="196,-149.46 206.49,-147.95 197.36,-142.59 196,-149.46"/>
</a>
</g>
</g>
<!-- Node5 -->
<g id="Node000005" class="node">
<title>Node5</title>
<g id="a_Node000005"><a xlink:href="classObject.html#a0f6639fef4e90bc57ee1b34a81d6d489" target="_top" xlink:title=" ">
<polygon fill="white" stroke="#666666" points="302,-130 210,-130 210,-111 302,-111 302,-130"/>
<text text-anchor="middle" x="256" y="-118" font-family="Helvetica,sans-Serif" font-size="10.00">Object::getGuid</text>
</a>
</g>
</g>
<!-- Node1&#45;&gt;Node5 -->
<g id="edge4_Node000001_Node000005" class="edge">
<title>Node1&#45;&gt;Node5</title>
<g id="a_edge4_Node000001_Node000005"><a xlink:title=" ">
<path fill="none" stroke="#63b8ff" d="M132.23,-120.5C154.28,-120.5 178.68,-120.5 199.87,-120.5"/>
<polygon fill="#63b8ff" stroke="#63b8ff" points="199.99,-124 209.99,-120.5 199.99,-117 199.99,-124"/>
</a>
</g>
</g>
<!-- Node7 -->
<g id="Node000007" class="node">
<title>Node7</title>
<g id="a_Node000007"><a xlink:href="classUnit.html#adfa16ac0ecbefbac2e41e3fb1590a1a5" target="_top" xlink:title=" ">
<polygon fill="white" stroke="#666666" points="298.5,-93 213.5,-93 213.5,-74 298.5,-74 298.5,-93"/>
<text text-anchor="middle" x="256" y="-81" font-family="Helvetica,sans-Serif" font-size="10.00">Unit::getLevel</text>
</a>
</g>
</g>
<!-- Node1&#45;&gt;Node7 -->
<g id="edge6_Node000001_Node000007" class="edge">
<title>Node1&#45;&gt;Node7</title>
<g id="a_edge6_Node000001_Node000007"><a xlink:title=" ">
<path fill="none" stroke="#63b8ff" d="M132.23,-107.66C155.59,-103.07 181.57,-97.95 203.6,-93.62"/>
<polygon fill="#63b8ff" stroke="#63b8ff" points="204.28,-97.05 213.41,-91.68 202.93,-90.18 204.28,-97.05"/>
</a>
</g>
</g>
<!-- Node9 -->
<g id="Node000009" class="node">
<title>Node9</title>
<g id="a_Node000009"><a xlink:href="classPlayer.html#aee195158e07a0138b257f8d1ede0cc6b" target="_top" xlink:title=" ">
<polygon fill="white" stroke="#666666" points="309.5,-56 202.5,-56 202.5,-37 309.5,-37 309.5,-56"/>
<text text-anchor="middle" x="256" y="-44" font-family="Helvetica,sans-Serif" font-size="10.00">Player::getSession</text>
</a>
</g>
</g>
<!-- Node1&#45;&gt;Node9 -->
<g id="edge8_Node000001_Node000009" class="edge">
<title>Node1&#45;&gt;Node9</title>
<g id="a_edge8_Node000001_Node000009"><a xlink:title=" ">
<path fill="none" stroke="#63b8ff" d="M89.71,-105.28C109.58,-92.62 139.61,-75.03 168,-64.5 175.8,-61.61 184.17,-59.14 192.52,-57.04"/>
<polygon fill="#63b8ff" stroke="#63b8ff" points="193.36,-60.44 202.29,-54.74 191.76,-53.62 193.36,-60.44"/>
</a>
</g>
</g>
<!-- Node10 -->
<g id="Node000010" class="node">
<title>Node10</title>
<g id="a_Node000010"><a xlink:href="classLfgMgr.html#a579941bdcd0bd11b5b9faad9eda86020" target="_top" xlink:title=" ">
<polygon fill="white" stroke="#666666" points="333.5,-19 178.5,-19 178.5,0 333.5,0 333.5,-19"/>
<text text-anchor="middle" x="256" y="-7" font-family="Helvetica,sans-Serif" font-size="10.00">LfgMgr::SetLockedDungeons</text>
</a>
</g>
</g>
<!-- Node1&#45;&gt;Node10 -->
<g id="edge9_Node000001_Node000010" class="edge">
<title>Node1&#45;&gt;Node10</title>
<g id="a_edge9_Node000001_Node000010"><a xlink:title=" ">
<path fill="none" stroke="#63b8ff" d="M78.9,-105.25C96.17,-84.27 130.25,-46.87 168,-27.5 171.78,-25.56 175.76,-23.83 179.84,-22.28"/>
<polygon fill="#63b8ff" stroke="#63b8ff" points="181.18,-25.53 189.53,-19.01 178.94,-18.89 181.18,-25.53"/>
</a>
</g>
</g>
<!-- Node6 -->
<g id="Node000006" class="node">
<title>Node6</title>
<g id="a_Node000006"><a xlink:href="classObject.html#ae9814731421ab3e919a2e5c3b86e0eeb" target="_top" xlink:title=" ">
<polygon fill="white" stroke="#666666" points="487,-130 380,-130 380,-111 487,-111 487,-130"/>
<text text-anchor="middle" x="433.5" y="-118" font-family="Helvetica,sans-Serif" font-size="10.00">Object::objectData</text>
</a>
</g>
</g>
<!-- Node5&#45;&gt;Node6 -->
<g id="edge5_Node000005_Node000006" class="edge">
<title>Node5&#45;&gt;Node6</title>
<g id="a_edge5_Node000005_Node000006"><a xlink:title=" ">
<path fill="none" stroke="#63b8ff" d="M302.2,-120.5C322.8,-120.5 347.55,-120.5 369.91,-120.5"/>
<polygon fill="#63b8ff" stroke="#63b8ff" points="369.99,-124 379.99,-120.5 369.99,-117 369.99,-124"/>
</a>
</g>
</g>
<!-- Node8 -->
<g id="Node000008" class="node">
<title>Node8</title>
<g id="a_Node000008"><a xlink:href="classUnit.html#a2b80af47340ac01ca2031723f37e839a" target="_top" xlink:title=" ">
<polygon fill="white" stroke="#666666" points="476,-93 391,-93 391,-74 476,-74 476,-93"/>
<text text-anchor="middle" x="433.5" y="-81" font-family="Helvetica,sans-Serif" font-size="10.00">Unit::unitData</text>
</a>
</g>
</g>
<!-- Node7&#45;&gt;Node8 -->
<g id="edge7_Node000007_Node000008" class="edge">
<title>Node7&#45;&gt;Node8</title>
<g id="a_edge7_Node000007_Node000008"><a xlink:title=" ">
<path fill="none" stroke="#63b8ff" d="M298.59,-83.5C323.2,-83.5 354.58,-83.5 380.77,-83.5"/>
<polygon fill="#63b8ff" stroke="#63b8ff" points="380.9,-87 390.9,-83.5 380.9,-80 380.9,-87"/>
</a>
</g>
</g>
</g>
</svg>
</svg>

<style type='text/css'>
<![CDATA[
[data-mouse-over-selected='false'] { opacity: 0.7; }
[data-mouse-over-selected='true']  { opacity: 1.0; }
]]>
</style>
<script type="application/ecmascript"><![CDATA[
document.addEventListener('DOMContentLoaded', (event) => {
  highlightEdges();
  highlightAdjacentNodes();
});
]]></script>
</svg>
