<?xml version="1.0" encoding="UTF-8" standalone="no"?>
<!DOCTYPE svg PUBLIC "-//W3C//DTD SVG 1.1//EN"
 "http://www.w3.org/Graphics/SVG/1.1/DTD/svg11.dtd">
<!-- Generated by graphviz version 2.43.0 (0)
 -->
<!-- Title: FlanisSwiftwing_Gossip::onHello Pages: 1 -->
<svg width="892pt" height="195pt"
 viewBox="0.00 0.00 892.00 195.00" xmlns="http://www.w3.org/2000/svg" xmlns:xlink="http://www.w3.org/1999/xlink">
<g id="graph0" class="graph" transform="scale(1 1) rotate(0) translate(4 191)">
<title>FlanisSwiftwing_Gossip::onHello</title>
<!-- Node1 -->
<g id="Node000001" class="node">
<title>Node1</title>
<g id="a_Node000001"><a xlink:title=" ">
<polygon fill="#999999" stroke="#666666" points="131,-117.5 0,-117.5 0,-87.5 131,-87.5 131,-117.5"/>
<text text-anchor="start" x="8" y="-105.5" font-family="Helvetica,sans-Serif" font-size="10.00">FlanisSwiftwing_Gossip</text>
<text text-anchor="middle" x="65.5" y="-94.5" font-family="Helvetica,sans-Serif" font-size="10.00">::onHello</text>
</a>
</g>
</g>
<!-- Node2 -->
<g id="Node000002" class="node">
<title>Node2</title>
<g id="a_Node000002"><a xlink:href="classGossipMenu.html#aa077d476808c86279ffae37f83624bf9" target="_top" xlink:title=" ">
<polygon fill="white" stroke="#666666" points="313.5,-187 190.5,-187 190.5,-168 313.5,-168 313.5,-187"/>
<text text-anchor="middle" x="252" y="-175" font-family="Helvetica,sans-Serif" font-size="10.00">GossipMenu::addItem</text>
</a>
</g>
</g>
<!-- Node1&#45;&gt;Node2 -->
<g id="edge1_Node000001_Node000002" class="edge">
<title>Node1&#45;&gt;Node2</title>
<g id="a_edge1_Node000001_Node000002"><a xlink:title=" ">
<path fill="none" stroke="#63b8ff" d="M88.67,-117.71C108.42,-130.6 138.5,-148.66 167,-159.5 172.76,-161.69 178.86,-163.65 185.02,-165.38"/>
<polygon fill="#63b8ff" stroke="#63b8ff" points="184.17,-168.78 194.73,-167.93 185.95,-162.01 184.17,-168.78"/>
</a>
</g>
</g>
<!-- Node3 -->
<g id="Node000003" class="node">
<title>Node3</title>
<g id="a_Node000003"><a xlink:href="classObject.html#a0f6639fef4e90bc57ee1b34a81d6d489" target="_top" xlink:title=" ">
<polygon fill="white" stroke="#666666" points="298,-150 206,-150 206,-131 298,-131 298,-150"/>
<text text-anchor="middle" x="252" y="-138" font-family="Helvetica,sans-Serif" font-size="10.00">Object::getGuid</text>
</a>
</g>
</g>
<!-- Node1&#45;&gt;Node3 -->
<g id="edge2_Node000001_Node000003" class="edge">
<title>Node1&#45;&gt;Node3</title>
<g id="a_edge2_Node000001_Node000003"><a xlink:title=" ">
<path fill="none" stroke="#63b8ff" d="M131.03,-115.79C152.19,-120.15 175.49,-124.95 195.88,-129.15"/>
<polygon fill="#63b8ff" stroke="#63b8ff" points="195.45,-132.63 205.95,-131.22 196.86,-125.78 195.45,-132.63"/>
</a>
</g>
</g>
<!-- Node5 -->
<g id="Node000005" class="node">
<title>Node5</title>
<g id="a_Node000005"><a xlink:href="classPlayer.html#aee195158e07a0138b257f8d1ede0cc6b" target="_top" xlink:title=" ">
<polygon fill="white" stroke="#666666" points="509,-112 402,-112 402,-93 509,-93 509,-112"/>
<text text-anchor="middle" x="455.5" y="-100" font-family="Helvetica,sans-Serif" font-size="10.00">Player::getSession</text>
</a>
</g>
</g>
<!-- Node1&#45;&gt;Node5 -->
<g id="edge4_Node000001_Node000005" class="edge">
<title>Node1&#45;&gt;Node5</title>
<g id="a_edge4_Node000001_Node000005"><a xlink:title=" ">
<path fill="none" stroke="#63b8ff" d="M131.01,-102.5C203.4,-102.5 320.08,-102.5 391.76,-102.5"/>
<polygon fill="#63b8ff" stroke="#63b8ff" points="391.99,-106 401.99,-102.5 391.99,-99 391.99,-106"/>
</a>
</g>
</g>
<!-- Node6 -->
<g id="Node000006" class="node">
<title>Node6</title>
<g id="a_Node000006"><a xlink:href="classPlayer.html#acc04b159107a1083b4e6c21f7c2b7c01" target="_top" xlink:title=" ">
<polygon fill="white" stroke="#666666" points="329,-37 175,-37 175,-18 329,-18 329,-37"/>
<text text-anchor="middle" x="252" y="-25" font-family="Helvetica,sans-Serif" font-size="10.00">Player::hasQuestInQuestLog</text>
</a>
</g>
</g>
<!-- Node1&#45;&gt;Node6 -->
<g id="edge5_Node000001_Node000006" class="edge">
<title>Node1&#45;&gt;Node6</title>
<g id="a_edge5_Node000001_Node000006"><a xlink:title=" ">
<path fill="none" stroke="#63b8ff" d="M89.14,-87.4C108.93,-74.82 138.83,-57.28 167,-46.5 173.72,-43.93 180.88,-41.65 188.08,-39.65"/>
<polygon fill="#63b8ff" stroke="#63b8ff" points="189.1,-43.01 197.89,-37.09 187.33,-36.23 189.1,-43.01"/>
</a>
</g>
</g>
<!-- Node8 -->
<g id="Node000008" class="node">
<title>Node8</title>
<g id="a_Node000008"><a xlink:href="classGossipMenu.html#a64f5b9a9b5b9947de95b8e7fa22b1f59" target="_top" xlink:title=" ">
<polygon fill="white" stroke="#666666" points="337,-74 167,-74 167,-55 337,-55 337,-74"/>
<text text-anchor="middle" x="252" y="-62" font-family="Helvetica,sans-Serif" font-size="10.00">GossipMenu::sendGossipPacket</text>
</a>
</g>
</g>
<!-- Node1&#45;&gt;Node8 -->
<g id="edge7_Node000001_Node000008" class="edge">
<title>Node1&#45;&gt;Node8</title>
<g id="a_edge7_Node000001_Node000008"><a xlink:title=" ">
<path fill="none" stroke="#63b8ff" d="M131.03,-89.21C151.83,-84.93 174.71,-80.21 194.85,-76.06"/>
<polygon fill="#63b8ff" stroke="#63b8ff" points="195.72,-79.46 204.81,-74.01 194.31,-72.6 195.72,-79.46"/>
</a>
</g>
</g>
<!-- Node4 -->
<g id="Node000004" class="node">
<title>Node4</title>
<g id="a_Node000004"><a xlink:href="classObject.html#ae9814731421ab3e919a2e5c3b86e0eeb" target="_top" xlink:title=" ">
<polygon fill="white" stroke="#666666" points="509,-150 402,-150 402,-131 509,-131 509,-150"/>
<text text-anchor="middle" x="455.5" y="-138" font-family="Helvetica,sans-Serif" font-size="10.00">Object::objectData</text>
</a>
</g>
</g>
<!-- Node3&#45;&gt;Node4 -->
<g id="edge3_Node000003_Node000004" class="edge">
<title>Node3&#45;&gt;Node4</title>
<g id="a_edge3_Node000003_Node000004"><a xlink:title=" ">
<path fill="none" stroke="#63b8ff" d="M298.22,-140.5C325.85,-140.5 361.57,-140.5 391.89,-140.5"/>
<polygon fill="#63b8ff" stroke="#63b8ff" points="391.95,-144 401.95,-140.5 391.95,-137 391.95,-144"/>
</a>
</g>
</g>
<!-- Node7 -->
<g id="Node000007" class="node">
<title>Node7</title>
<g id="a_Node000007"><a xlink:href="classPlayer.html#aaa3ccb5fdef21b0a171ef321312c089d" target="_top" xlink:title=" ">
<polygon fill="white" stroke="#666666" points="538,-37 373,-37 373,-18 538,-18 538,-37"/>
<text text-anchor="middle" x="455.5" y="-25" font-family="Helvetica,sans-Serif" font-size="10.00">Player::getQuestLogByQuestId</text>
</a>
</g>
</g>
<!-- Node6&#45;&gt;Node7 -->
<g id="edge6_Node000006_Node000007" class="edge">
<title>Node6&#45;&gt;Node7</title>
<g id="a_edge6_Node000006_Node000007"><a xlink:title=" ">
<path fill="none" stroke="#63b8ff" d="M329.18,-27.5C340.1,-27.5 351.43,-27.5 362.62,-27.5"/>
<polygon fill="#63b8ff" stroke="#63b8ff" points="362.83,-31 372.83,-27.5 362.83,-24 362.83,-31"/>
</a>
</g>
</g>
<!-- Node8&#45;&gt;Node5 -->
<g id="edge8_Node000008_Node000005" class="edge">
<title>Node8&#45;&gt;Node5</title>
<g id="a_edge8_Node000008_Node000005"><a xlink:title=" ">
<path fill="none" stroke="#63b8ff" d="M303.59,-74.04C331.01,-79.21 365.1,-85.64 393.93,-91.08"/>
<polygon fill="#63b8ff" stroke="#63b8ff" points="393.42,-94.54 403.89,-92.96 394.71,-87.66 393.42,-94.54"/>
</a>
</g>
</g>
<!-- Node9 -->
<g id="Node000009" class="node">
<title>Node9</title>
<g id="a_Node000009"><a xlink:href="classWorldSession.html#a87a1bd80483f57f33a127d12c51d2331" target="_top" xlink:title=" ">
<polygon fill="white" stroke="#666666" points="527,-74 384,-74 384,-55 527,-55 527,-74"/>
<text text-anchor="middle" x="455.5" y="-62" font-family="Helvetica,sans-Serif" font-size="10.00">WorldSession::SendPacket</text>
</a>
</g>
</g>
<!-- Node8&#45;&gt;Node9 -->
<g id="edge9_Node000008_Node000009" class="edge">
<title>Node8&#45;&gt;Node9</title>
<g id="a_edge9_Node000008_Node000009"><a xlink:title=" ">
<path fill="none" stroke="#63b8ff" d="M337.29,-64.5C349.42,-64.5 361.88,-64.5 373.94,-64.5"/>
<polygon fill="#63b8ff" stroke="#63b8ff" points="373.95,-68 383.95,-64.5 373.95,-61 373.95,-68"/>
</a>
</g>
</g>
<!-- Node10 -->
<g id="Node000010" class="node">
<title>Node10</title>
<g id="a_Node000010"><a xlink:href="classWorldPacket.html#a3f359b4afd93497038c4f17e1ebd4380" target="_top" xlink:title=" ">
<polygon fill="white" stroke="#666666" points="884,-102 748,-102 748,-83 884,-83 884,-102"/>
<text text-anchor="middle" x="816" y="-90" font-family="Helvetica,sans-Serif" font-size="10.00">WorldPacket::GetOpcode</text>
</a>
</g>
</g>
<!-- Node9&#45;&gt;Node10 -->
<g id="edge10_Node000009_Node000010" class="edge">
<title>Node9&#45;&gt;Node10</title>
<g id="a_edge10_Node000009_Node000010"><a xlink:title=" ">
<path fill="none" stroke="#63b8ff" d="M506.64,-74C527.41,-77.57 551.79,-81.3 574,-83.5 628.54,-88.91 690.31,-91.14 737.66,-92.03"/>
<polygon fill="#63b8ff" stroke="#63b8ff" points="737.78,-95.53 747.84,-92.2 737.91,-88.53 737.78,-95.53"/>
</a>
</g>
</g>
<!-- Node11 -->
<g id="Node000011" class="node">
<title>Node11</title>
<g id="a_Node000011"><a xlink:href="classSocket.html#ae3bcf72d932e7b29656d368e81186e6a" target="_top" xlink:title=" ">
<polygon fill="white" stroke="#666666" points="700.5,-74 585.5,-74 585.5,-55 700.5,-55 700.5,-74"/>
<text text-anchor="middle" x="643" y="-62" font-family="Helvetica,sans-Serif" font-size="10.00">Socket::IsConnected</text>
</a>
</g>
</g>
<!-- Node9&#45;&gt;Node11 -->
<g id="edge11_Node000009_Node000011" class="edge">
<title>Node9&#45;&gt;Node11</title>
<g id="a_edge11_Node000009_Node000011"><a xlink:title=" ">
<path fill="none" stroke="#63b8ff" d="M527.16,-64.5C542.95,-64.5 559.65,-64.5 575.27,-64.5"/>
<polygon fill="#63b8ff" stroke="#63b8ff" points="575.36,-68 585.36,-64.5 575.36,-61 575.36,-68"/>
</a>
</g>
</g>
<!-- Node12 -->
<g id="Node000012" class="node">
<title>Node12</title>
<g id="a_Node000012"><a xlink:href="classWorldSocket.html#ab2fb0afb0aaf5d2229fea66a9923637e" target="_top" xlink:title=" ">
<polygon fill="white" stroke="#666666" points="712,-37 574,-37 574,-18 712,-18 712,-37"/>
<text text-anchor="middle" x="643" y="-25" font-family="Helvetica,sans-Serif" font-size="10.00">WorldSocket::SendPacket</text>
</a>
</g>
</g>
<!-- Node9&#45;&gt;Node12 -->
<g id="edge12_Node000009_Node000012" class="edge">
<title>Node9&#45;&gt;Node12</title>
<g id="a_edge12_Node000009_Node000012"><a xlink:title=" ">
<path fill="none" stroke="#63b8ff" d="M504.27,-54.97C528.63,-50.11 558.44,-44.17 584.1,-39.05"/>
<polygon fill="#63b8ff" stroke="#63b8ff" points="584.95,-42.45 594.07,-37.06 583.58,-35.58 584.95,-42.45"/>
</a>
</g>
</g>
<!-- Node12&#45;&gt;Node10 -->
<g id="edge14_Node000012_Node000010" class="edge">
<title>Node12&#45;&gt;Node10</title>
<g id="a_edge14_Node000012_Node000010"><a xlink:title=" ">
<path fill="none" stroke="#63b8ff" d="M683.67,-37.05C693.08,-39.74 703,-42.92 712,-46.5 728.81,-53.19 731.59,-57.89 748,-65.5 758.26,-70.26 769.6,-75.02 780,-79.18"/>
<polygon fill="#63b8ff" stroke="#63b8ff" points="779.02,-82.56 789.6,-82.97 781.59,-76.05 779.02,-82.56"/>
</a>
</g>
</g>
<!-- Node13 -->
<g id="Node000013" class="node">
<title>Node13</title>
<g id="a_Node000013"><a xlink:href="classByteBuffer.html#a8d712af2767c7ca45de60bd9d85738d8" target="_top" xlink:title=" ">
<polygon fill="white" stroke="#666666" points="874,-19 758,-19 758,0 874,0 874,-19"/>
<text text-anchor="middle" x="816" y="-7" font-family="Helvetica,sans-Serif" font-size="10.00">ByteBuffer::contents</text>
</a>
</g>
</g>
<!-- Node12&#45;&gt;Node13 -->
<g id="edge13_Node000012_Node000013" class="edge">
<title>Node12&#45;&gt;Node13</title>
<g id="a_edge13_Node000012_Node000013"><a xlink:title=" ">
<path fill="none" stroke="#63b8ff" d="M712.08,-20.33C723.82,-19.1 736.02,-17.81 747.74,-16.58"/>
<polygon fill="#63b8ff" stroke="#63b8ff" points="748.31,-20.04 757.89,-15.51 747.58,-13.08 748.31,-20.04"/>
</a>
</g>
</g>
<!-- Node14 -->
<g id="Node000014" class="node">
<title>Node14</title>
<g id="a_Node000014"><a xlink:href="classByteBuffer.html#ac06a598447807d32f6594a97a32bce94" target="_top" xlink:title=" ">
<polygon fill="white" stroke="#666666" points="863,-56 769,-56 769,-37 863,-37 863,-56"/>
<text text-anchor="middle" x="816" y="-44" font-family="Helvetica,sans-Serif" font-size="10.00">ByteBuffer::size</text>
</a>
</g>
</g>
<!-- Node12&#45;&gt;Node14 -->
<g id="edge15_Node000012_Node000014" class="edge">
<title>Node12&#45;&gt;Node14</title>
<g id="a_edge15_Node000012_Node000014"><a xlink:title=" ">
<path fill="none" stroke="#63b8ff" d="M712.08,-35.06C727.59,-36.79 743.9,-38.6 758.85,-40.26"/>
<polygon fill="#63b8ff" stroke="#63b8ff" points="758.63,-43.76 768.96,-41.38 759.4,-36.8 758.63,-43.76"/>
</a>
</g>
</g>
</g>
</svg>
