<?xml version="1.0" encoding="UTF-8" standalone="no"?>
<!DOCTYPE svg PUBLIC "-//W3C//DTD SVG 1.1//EN"
 "http://www.w3.org/Graphics/SVG/1.1/DTD/svg11.dtd">
<!-- Generated by graphviz version 2.43.0 (0)
 -->
<!-- Title: WowCrypt Pages: 1 -->
<svg width="328pt" height="184pt"
 viewBox="0.00 0.00 328.00 184.00" xmlns="http://www.w3.org/2000/svg" xmlns:xlink="http://www.w3.org/1999/xlink">
<g id="graph0" class="graph" transform="scale(1 1) rotate(0) translate(4 180)">
<title>WowCrypt</title>
<!-- Node1 -->
<g id="Node000001" class="node">
<title>Node1</title>
<g id="a_Node000001"><a xlink:title=" ">
<polygon fill="#999999" stroke="#666666" points="107,-19 41,-19 41,0 107,0 107,-19"/>
<text text-anchor="middle" x="74" y="-7" font-family="Helvetica,sans-Serif" font-size="10.00">WowCrypt</text>
</a>
</g>
</g>
<!-- Node2 -->
<g id="Node000002" class="node">
<title>Node2</title>
<g id="a_Node000002"><a xlink:href="structAscEmu_1_1RC4StreamCipher_1_1KeyStruct.html" target="_top" xlink:title=" ">
<polygon fill="white" stroke="#666666" points="148,-176 0,-176 0,-146 148,-146 148,-176"/>
<text text-anchor="start" x="8" y="-164" font-family="Helvetica,sans-Serif" font-size="10.00">AscEmu::RC4StreamCipher</text>
<text text-anchor="middle" x="74" y="-153" font-family="Helvetica,sans-Serif" font-size="10.00">::KeyStruct</text>
</a>
</g>
</g>
<!-- Node2&#45;&gt;Node1 -->
<g id="edge1_Node000001_Node000002" class="edge">
<title>Node2&#45;&gt;Node1</title>
<g id="a_edge1_Node000001_Node000002"><a xlink:title=" ">
<path fill="none" stroke="#9a32cd" stroke-dasharray="5,2" d="M70.61,-136.06C69.19,-124.84 67.7,-111.26 67,-99 65.32,-69.61 70.04,-34.81 72.55,-19.03"/>
<polygon fill="#9a32cd" stroke="#9a32cd" points="67.14,-136.53 71.93,-145.99 74.08,-135.61 67.14,-136.53"/>
</a>
</g>
<text text-anchor="middle" x="132" y="-91" font-family="Helvetica,sans-Serif" font-size="10.00" fill="grey"> m_clientWotlkDecryptKey</text>
<text text-anchor="middle" x="132" y="-80" font-family="Helvetica,sans-Serif" font-size="10.00" fill="grey">m_serverWotlkEncryptKey</text>
</g>
<!-- Node3 -->
<g id="Node000003" class="node">
<title>Node3</title>
<g id="a_Node000003"><a xlink:href="classAscEmu_1_1RC4Engine.html" target="_top" xlink:title=" ">
<polygon fill="white" stroke="#666666" points="320,-97.5 206,-97.5 206,-78.5 320,-78.5 320,-97.5"/>
<text text-anchor="middle" x="263" y="-85.5" font-family="Helvetica,sans-Serif" font-size="10.00">AscEmu::RC4Engine</text>
</a>
</g>
</g>
<!-- Node2&#45;&gt;Node3 -->
<g id="edge3_Node000003_Node000002" class="edge">
<title>Node2&#45;&gt;Node3</title>
<g id="a_edge3_Node000003_Node000002"><a xlink:title=" ">
<path fill="none" stroke="#9a32cd" stroke-dasharray="5,2" d="M121.17,-142.28C159.18,-128 210.95,-108.55 240.28,-97.54"/>
<polygon fill="#9a32cd" stroke="#9a32cd" points="119.47,-139.18 111.34,-145.97 121.93,-145.73 119.47,-139.18"/>
</a>
</g>
<text text-anchor="middle" x="203" y="-120" font-family="Helvetica,sans-Serif" font-size="10.00" fill="grey"> m_key</text>
</g>
<!-- Node3&#45;&gt;Node1 -->
<g id="edge2_Node000001_Node000003" class="edge">
<title>Node3&#45;&gt;Node1</title>
<g id="a_edge2_Node000001_Node000003"><a xlink:title=" ">
<path fill="none" stroke="#9a32cd" stroke-dasharray="5,2" d="M232.02,-74.46C193.45,-58.85 128.6,-32.6 95.24,-19.1"/>
<polygon fill="#9a32cd" stroke="#9a32cd" points="231.1,-77.87 241.69,-78.37 233.73,-71.38 231.1,-77.87"/>
</a>
</g>
<text text-anchor="middle" x="247.5" y="-51" font-family="Helvetica,sans-Serif" font-size="10.00" fill="grey"> m_clientWotlkDecrypt</text>
<text text-anchor="middle" x="247.5" y="-40" font-family="Helvetica,sans-Serif" font-size="10.00" fill="grey">m_servertWotlkEncrypt</text>
</g>
</g>
</svg>
