<?xml version="1.0" encoding="UTF-8" standalone="no"?>
<!DOCTYPE svg PUBLIC "-//W3C//DTD SVG 1.1//EN"
 "http://www.w3.org/Graphics/SVG/1.1/DTD/svg11.dtd">
<!-- Generated by graphviz version 2.43.0 (0)
 -->
<!-- Title: MuradinGossip::onHello Pages: 1 -->
<svg width="872pt" height="230pt"
 viewBox="0.00 0.00 872.00 230.00" xmlns="http://www.w3.org/2000/svg" xmlns:xlink="http://www.w3.org/1999/xlink">
<g id="graph0" class="graph" transform="scale(1 1) rotate(0) translate(4 226)">
<title>MuradinGossip::onHello</title>
<!-- Node1 -->
<g id="Node000001" class="node">
<title>Node1</title>
<g id="a_Node000001"><a xlink:title="Gossip: Gunship Battle Alliance.">
<polygon fill="#999999" stroke="#666666" points="133,-166 0,-166 0,-147 133,-147 133,-166"/>
<text text-anchor="middle" x="66.5" y="-154" font-family="Helvetica,sans-Serif" font-size="10.00">MuradinGossip::onHello</text>
</a>
</g>
</g>
<!-- Node2 -->
<g id="Node000002" class="node">
<title>Node2</title>
<g id="a_Node000002"><a xlink:href="classGossipMenu.html#aa077d476808c86279ffae37f83624bf9" target="_top" xlink:title=" ">
<polygon fill="white" stroke="#666666" points="315.5,-222 192.5,-222 192.5,-203 315.5,-203 315.5,-222"/>
<text text-anchor="middle" x="254" y="-210" font-family="Helvetica,sans-Serif" font-size="10.00">GossipMenu::addItem</text>
</a>
</g>
</g>
<!-- Node1&#45;&gt;Node2 -->
<g id="edge1_Node000001_Node000002" class="edge">
<title>Node1&#45;&gt;Node2</title>
<g id="a_edge1_Node000001_Node000002"><a xlink:title=" ">
<path fill="none" stroke="#63b8ff" d="M90.15,-166.08C110.51,-174.42 141.37,-186.42 169,-194.5 176.55,-196.71 184.55,-198.77 192.5,-200.65"/>
<polygon fill="#63b8ff" stroke="#63b8ff" points="191.98,-204.12 202.5,-202.94 193.54,-197.3 191.98,-204.12"/>
</a>
</g>
</g>
<!-- Node3 -->
<g id="Node000003" class="node">
<title>Node3</title>
<g id="a_Node000003"><a xlink:href="classObject.html#a0f6639fef4e90bc57ee1b34a81d6d489" target="_top" xlink:title=" ">
<polygon fill="white" stroke="#666666" points="300,-185 208,-185 208,-166 300,-166 300,-185"/>
<text text-anchor="middle" x="254" y="-173" font-family="Helvetica,sans-Serif" font-size="10.00">Object::getGuid</text>
</a>
</g>
</g>
<!-- Node1&#45;&gt;Node3 -->
<g id="edge2_Node000001_Node000003" class="edge">
<title>Node1&#45;&gt;Node3</title>
<g id="a_edge2_Node000001_Node000003"><a xlink:title=" ">
<path fill="none" stroke="#63b8ff" d="M133.16,-163.23C154.29,-165.39 177.48,-167.76 197.78,-169.84"/>
<polygon fill="#63b8ff" stroke="#63b8ff" points="197.5,-173.33 207.8,-170.87 198.21,-166.37 197.5,-173.33"/>
</a>
</g>
</g>
<!-- Node5 -->
<g id="Node000005" class="node">
<title>Node5</title>
<g id="a_Node000005"><a xlink:href="classPlayer.html#adf8645028c08092c5f7b102d868a8a1f" target="_top" xlink:title=" ">
<polygon fill="white" stroke="#666666" points="316,-148 192,-148 192,-129 316,-129 316,-148"/>
<text text-anchor="middle" x="254" y="-136" font-family="Helvetica,sans-Serif" font-size="10.00">Player::isGroupLeader</text>
</a>
</g>
</g>
<!-- Node1&#45;&gt;Node5 -->
<g id="edge4_Node000001_Node000005" class="edge">
<title>Node1&#45;&gt;Node5</title>
<g id="a_edge4_Node000001_Node000005"><a xlink:title=" ">
<path fill="none" stroke="#63b8ff" d="M133.16,-150.13C148.81,-148.61 165.58,-146.98 181.47,-145.44"/>
<polygon fill="#63b8ff" stroke="#63b8ff" points="182.16,-148.89 191.77,-144.44 181.48,-141.92 182.16,-148.89"/>
</a>
</g>
</g>
<!-- Node7 -->
<g id="Node000007" class="node">
<title>Node7</title>
<g id="a_Node000007"><a xlink:href="classGossipMenu.html#a64f5b9a9b5b9947de95b8e7fa22b1f59" target="_top" xlink:title=" ">
<polygon fill="white" stroke="#666666" points="339,-111 169,-111 169,-92 339,-92 339,-111"/>
<text text-anchor="middle" x="254" y="-99" font-family="Helvetica,sans-Serif" font-size="10.00">GossipMenu::sendGossipPacket</text>
</a>
</g>
</g>
<!-- Node1&#45;&gt;Node7 -->
<g id="edge6_Node000001_Node000007" class="edge">
<title>Node1&#45;&gt;Node7</title>
<g id="a_edge6_Node000001_Node000007"><a xlink:title=" ">
<path fill="none" stroke="#63b8ff" d="M91.85,-146.95C112.25,-139.17 142.24,-128.24 169,-120.5 177.75,-117.97 187.1,-115.56 196.26,-113.37"/>
<polygon fill="#63b8ff" stroke="#63b8ff" points="197.15,-116.76 206.1,-111.08 195.56,-109.94 197.15,-116.76"/>
</a>
</g>
</g>
<!-- Node4 -->
<g id="Node000004" class="node">
<title>Node4</title>
<g id="a_Node000004"><a xlink:href="classObject.html#ae9814731421ab3e919a2e5c3b86e0eeb" target="_top" xlink:title=" ">
<polygon fill="white" stroke="#666666" points="500,-185 393,-185 393,-166 500,-166 500,-185"/>
<text text-anchor="middle" x="446.5" y="-173" font-family="Helvetica,sans-Serif" font-size="10.00">Object::objectData</text>
</a>
</g>
</g>
<!-- Node3&#45;&gt;Node4 -->
<g id="edge3_Node000003_Node000004" class="edge">
<title>Node3&#45;&gt;Node4</title>
<g id="a_edge3_Node000003_Node000004"><a xlink:title=" ">
<path fill="none" stroke="#63b8ff" d="M300.15,-175.5C324.83,-175.5 355.79,-175.5 382.78,-175.5"/>
<polygon fill="#63b8ff" stroke="#63b8ff" points="382.92,-179 392.92,-175.5 382.92,-172 382.92,-179"/>
</a>
</g>
</g>
<!-- Node6 -->
<g id="Node000006" class="node">
<title>Node6</title>
<g id="a_Node000006"><a xlink:href="classGroup.html#a921e6b05c43d5306b78f737dbb515d16" target="_top" xlink:title=" ">
<polygon fill="white" stroke="#666666" points="497.5,-148 395.5,-148 395.5,-129 497.5,-129 497.5,-148"/>
<text text-anchor="middle" x="446.5" y="-136" font-family="Helvetica,sans-Serif" font-size="10.00">Group::GetLeader</text>
</a>
</g>
</g>
<!-- Node5&#45;&gt;Node6 -->
<g id="edge5_Node000005_Node000006" class="edge">
<title>Node5&#45;&gt;Node6</title>
<g id="a_edge5_Node000005_Node000006"><a xlink:title=" ">
<path fill="none" stroke="#63b8ff" d="M316.06,-138.5C338.14,-138.5 363.04,-138.5 385.07,-138.5"/>
<polygon fill="#63b8ff" stroke="#63b8ff" points="385.29,-142 395.29,-138.5 385.29,-135 385.29,-142"/>
</a>
</g>
</g>
<!-- Node8 -->
<g id="Node000008" class="node">
<title>Node8</title>
<g id="a_Node000008"><a xlink:href="classPlayer.html#aee195158e07a0138b257f8d1ede0cc6b" target="_top" xlink:title=" ">
<polygon fill="white" stroke="#666666" points="500,-111 393,-111 393,-92 500,-92 500,-111"/>
<text text-anchor="middle" x="446.5" y="-99" font-family="Helvetica,sans-Serif" font-size="10.00">Player::getSession</text>
</a>
</g>
</g>
<!-- Node7&#45;&gt;Node8 -->
<g id="edge7_Node000007_Node000008" class="edge">
<title>Node7&#45;&gt;Node8</title>
<g id="a_edge7_Node000007_Node000008"><a xlink:title=" ">
<path fill="none" stroke="#63b8ff" d="M339.11,-101.5C353.65,-101.5 368.53,-101.5 382.39,-101.5"/>
<polygon fill="#63b8ff" stroke="#63b8ff" points="382.76,-105 392.76,-101.5 382.76,-98 382.76,-105"/>
</a>
</g>
</g>
<!-- Node9 -->
<g id="Node000009" class="node">
<title>Node9</title>
<g id="a_Node000009"><a xlink:href="classWorldSession.html#a87a1bd80483f57f33a127d12c51d2331" target="_top" xlink:title=" ">
<polygon fill="white" stroke="#666666" points="518,-74 375,-74 375,-55 518,-55 518,-74"/>
<text text-anchor="middle" x="446.5" y="-62" font-family="Helvetica,sans-Serif" font-size="10.00">WorldSession::SendPacket</text>
</a>
</g>
</g>
<!-- Node7&#45;&gt;Node9 -->
<g id="edge8_Node000007_Node000009" class="edge">
<title>Node7&#45;&gt;Node9</title>
<g id="a_edge8_Node000007_Node000009"><a xlink:title=" ">
<path fill="none" stroke="#63b8ff" d="M304.06,-91.97C329.18,-87.09 359.96,-81.11 386.38,-75.98"/>
<polygon fill="#63b8ff" stroke="#63b8ff" points="387.13,-79.4 396.28,-74.06 385.79,-72.53 387.13,-79.4"/>
</a>
</g>
</g>
<!-- Node10 -->
<g id="Node000010" class="node">
<title>Node10</title>
<g id="a_Node000010"><a xlink:href="classWorldPacket.html#a3f359b4afd93497038c4f17e1ebd4380" target="_top" xlink:title=" ">
<polygon fill="white" stroke="#666666" points="864,-102 728,-102 728,-83 864,-83 864,-102"/>
<text text-anchor="middle" x="796" y="-90" font-family="Helvetica,sans-Serif" font-size="10.00">WorldPacket::GetOpcode</text>
</a>
</g>
</g>
<!-- Node9&#45;&gt;Node10 -->
<g id="edge9_Node000009_Node000010" class="edge">
<title>Node9&#45;&gt;Node10</title>
<g id="a_edge9_Node000009_Node000010"><a xlink:title=" ">
<path fill="none" stroke="#63b8ff" d="M492.91,-74.04C511.73,-77.62 533.83,-81.34 554,-83.5 608.49,-89.35 670.27,-91.57 717.63,-92.34"/>
<polygon fill="#63b8ff" stroke="#63b8ff" points="717.76,-95.85 727.81,-92.49 717.87,-88.85 717.76,-95.85"/>
</a>
</g>
</g>
<!-- Node11 -->
<g id="Node000011" class="node">
<title>Node11</title>
<g id="a_Node000011"><a xlink:href="classSocket.html#ae3bcf72d932e7b29656d368e81186e6a" target="_top" xlink:title=" ">
<polygon fill="white" stroke="#666666" points="680.5,-74 565.5,-74 565.5,-55 680.5,-55 680.5,-74"/>
<text text-anchor="middle" x="623" y="-62" font-family="Helvetica,sans-Serif" font-size="10.00">Socket::IsConnected</text>
</a>
</g>
</g>
<!-- Node9&#45;&gt;Node11 -->
<g id="edge10_Node000009_Node000011" class="edge">
<title>Node9&#45;&gt;Node11</title>
<g id="a_edge10_Node000009_Node000011"><a xlink:title=" ">
<path fill="none" stroke="#63b8ff" d="M518.22,-64.5C530.48,-64.5 543.18,-64.5 555.32,-64.5"/>
<polygon fill="#63b8ff" stroke="#63b8ff" points="555.36,-68 565.36,-64.5 555.36,-61 555.36,-68"/>
</a>
</g>
</g>
<!-- Node12 -->
<g id="Node000012" class="node">
<title>Node12</title>
<g id="a_Node000012"><a xlink:href="classWorldSocket.html#ab2fb0afb0aaf5d2229fea66a9923637e" target="_top" xlink:title=" ">
<polygon fill="white" stroke="#666666" points="692,-37 554,-37 554,-18 692,-18 692,-37"/>
<text text-anchor="middle" x="623" y="-25" font-family="Helvetica,sans-Serif" font-size="10.00">WorldSocket::SendPacket</text>
</a>
</g>
</g>
<!-- Node9&#45;&gt;Node12 -->
<g id="edge11_Node000009_Node000012" class="edge">
<title>Node9&#45;&gt;Node12</title>
<g id="a_edge11_Node000009_Node000012"><a xlink:title=" ">
<path fill="none" stroke="#63b8ff" d="M492.44,-54.97C515.15,-50.16 542.9,-44.27 566.89,-39.19"/>
<polygon fill="#63b8ff" stroke="#63b8ff" points="567.85,-42.56 576.91,-37.06 566.4,-35.71 567.85,-42.56"/>
</a>
</g>
</g>
<!-- Node12&#45;&gt;Node10 -->
<g id="edge13_Node000012_Node000010" class="edge">
<title>Node12&#45;&gt;Node10</title>
<g id="a_edge13_Node000012_Node000010"><a xlink:title=" ">
<path fill="none" stroke="#63b8ff" d="M666.19,-37.07C674.85,-39.48 683.81,-42.3 692,-45.5 708.85,-52.08 711.64,-56.78 728,-64.5 738.65,-69.52 750.45,-74.61 761.14,-79.04"/>
<polygon fill="#63b8ff" stroke="#63b8ff" points="760,-82.36 770.58,-82.91 762.65,-75.88 760,-82.36"/>
</a>
</g>
</g>
<!-- Node13 -->
<g id="Node000013" class="node">
<title>Node13</title>
<g id="a_Node000013"><a xlink:href="classByteBuffer.html#a8d712af2767c7ca45de60bd9d85738d8" target="_top" xlink:title=" ">
<polygon fill="white" stroke="#666666" points="854,-56 738,-56 738,-37 854,-37 854,-56"/>
<text text-anchor="middle" x="796" y="-44" font-family="Helvetica,sans-Serif" font-size="10.00">ByteBuffer::contents</text>
</a>
</g>
</g>
<!-- Node12&#45;&gt;Node13 -->
<g id="edge12_Node000012_Node000013" class="edge">
<title>Node12&#45;&gt;Node13</title>
<g id="a_edge12_Node000012_Node000013"><a xlink:title=" ">
<path fill="none" stroke="#63b8ff" d="M692.08,-35.06C703.82,-36.37 716.02,-37.72 727.74,-39.03"/>
<polygon fill="#63b8ff" stroke="#63b8ff" points="727.56,-42.53 737.89,-40.15 728.34,-35.57 727.56,-42.53"/>
</a>
</g>
</g>
<!-- Node14 -->
<g id="Node000014" class="node">
<title>Node14</title>
<g id="a_Node000014"><a xlink:href="classByteBuffer.html#ac06a598447807d32f6594a97a32bce94" target="_top" xlink:title=" ">
<polygon fill="white" stroke="#666666" points="843,-19 749,-19 749,0 843,0 843,-19"/>
<text text-anchor="middle" x="796" y="-7" font-family="Helvetica,sans-Serif" font-size="10.00">ByteBuffer::size</text>
</a>
</g>
</g>
<!-- Node12&#45;&gt;Node14 -->
<g id="edge14_Node000012_Node000014" class="edge">
<title>Node12&#45;&gt;Node14</title>
<g id="a_edge14_Node000012_Node000014"><a xlink:title=" ">
<path fill="none" stroke="#63b8ff" d="M692.08,-20.33C707.59,-18.7 723.9,-16.98 738.85,-15.41"/>
<polygon fill="#63b8ff" stroke="#63b8ff" points="739.38,-18.87 748.96,-14.35 738.64,-11.91 739.38,-18.87"/>
</a>
</g>
</g>
</g>
</svg>
