<?xml version="1.0" encoding="UTF-8" standalone="no"?>
<!DOCTYPE svg PUBLIC "-//W3C//DTD SVG 1.1//EN"
 "http://www.w3.org/Graphics/SVG/1.1/DTD/svg11.dtd">
<!-- Generated by graphviz version 2.43.0 (0)
 -->
<!-- Title: LuaUnit::GetInRangeEnemies Pages: 1 -->
<svg width="1611pt" height="670pt"
 viewBox="0.00 0.00 1611.00 670.00" xmlns="http://www.w3.org/2000/svg" xmlns:xlink="http://www.w3.org/1999/xlink">
<g id="graph0" class="graph" transform="scale(1 1) rotate(0) translate(4 666)">
<title>LuaUnit::GetInRangeEnemies</title>
<!-- Node1 -->
<g id="Node000001" class="node">
<title>Node1</title>
<g id="a_Node000001"><a xlink:title=" ">
<polygon fill="#999999" stroke="#666666" points="159,-548 0,-548 0,-529 159,-529 159,-548"/>
<text text-anchor="middle" x="79.5" y="-536" font-family="Helvetica,sans-Serif" font-size="10.00">LuaUnit::GetInRangeEnemies</text>
</a>
</g>
</g>
<!-- Node2 -->
<g id="Node000002" class="node">
<title>Node2</title>
<g id="a_Node000002"><a xlink:href="lapi_8c.html#adcec46ff05dfee9a3c4c05828b40c213" target="_top" xlink:title=" ">
<polygon fill="white" stroke="#666666" points="290,-585 195,-585 195,-566 290,-566 290,-585"/>
<text text-anchor="middle" x="242.5" y="-573" font-family="Helvetica,sans-Serif" font-size="10.00">lua_pushinteger</text>
</a>
</g>
</g>
<!-- Node1&#45;&gt;Node2 -->
<g id="edge1_Node000001_Node000002" class="edge">
<title>Node1&#45;&gt;Node2</title>
<g id="a_edge1_Node000001_Node000002"><a xlink:title=" ">
<path fill="none" stroke="#63b8ff" d="M121.96,-548.03C142.73,-552.8 168.06,-558.62 190.06,-563.68"/>
<polygon fill="#63b8ff" stroke="#63b8ff" points="189.37,-567.11 199.9,-565.94 190.94,-560.29 189.37,-567.11"/>
</a>
</g>
</g>
<!-- Node3 -->
<g id="Node000003" class="node">
<title>Node3</title>
<g id="a_Node000003"><a xlink:href="lapi_8c.html#afb2d27f421677ef40425f9054ae216a7" target="_top" xlink:title=" ">
<polygon fill="white" stroke="#666666" points="277.5,-548 207.5,-548 207.5,-529 277.5,-529 277.5,-548"/>
<text text-anchor="middle" x="242.5" y="-536" font-family="Helvetica,sans-Serif" font-size="10.00">lua_rawset</text>
</a>
</g>
</g>
<!-- Node1&#45;&gt;Node3 -->
<g id="edge2_Node000001_Node000003" class="edge">
<title>Node1&#45;&gt;Node3</title>
<g id="a_edge2_Node000001_Node000003"><a xlink:title=" ">
<path fill="none" stroke="#63b8ff" d="M159.11,-538.5C172.2,-538.5 185.36,-538.5 197.19,-538.5"/>
<polygon fill="#63b8ff" stroke="#63b8ff" points="197.22,-542 207.22,-538.5 197.22,-535 197.22,-542"/>
</a>
</g>
</g>
<!-- Node488 -->
<g id="Node000488" class="node">
<title>Node488</title>
<g id="a_Node000488"><a xlink:href="fmt_2include_2fmt_2format_8h.html#adb6e274f8eb0b74b2865215e1b49c535" target="_top" xlink:title=" ">
<polygon fill="white" stroke="#666666" points="257.5,-511 227.5,-511 227.5,-492 257.5,-492 257.5,-511"/>
<text text-anchor="middle" x="242.5" y="-499" font-family="Helvetica,sans-Serif" font-size="10.00">ptr</text>
</a>
</g>
</g>
<!-- Node1&#45;&gt;Node488 -->
<g id="edge64_Node000001_Node000488" class="edge">
<title>Node1&#45;&gt;Node488</title>
<g id="a_edge64_Node000001_Node000488"><a xlink:title=" ">
<path fill="none" stroke="#63b8ff" d="M121.96,-528.97C152.29,-522 192.37,-512.79 217.54,-507.01"/>
<polygon fill="#63b8ff" stroke="#63b8ff" points="218.39,-510.4 227.35,-504.75 216.82,-503.58 218.39,-510.4"/>
</a>
</g>
</g>
<!-- Node4 -->
<g id="Node000004" class="node">
<title>Node4</title>
<g id="a_Node000004"><a xlink:href="lapi_8c.html#af95fcf06d620f6a244caf0097e610a07" target="_top" xlink:title=" ">
<polygon fill="white" stroke="#666666" points="399,-548 326,-548 326,-529 399,-529 399,-548"/>
<text text-anchor="middle" x="362.5" y="-536" font-family="Helvetica,sans-Serif" font-size="10.00">aux_rawset</text>
</a>
</g>
</g>
<!-- Node3&#45;&gt;Node4 -->
<g id="edge3_Node000003_Node000004" class="edge">
<title>Node3&#45;&gt;Node4</title>
<g id="a_edge3_Node000003_Node000004"><a xlink:title=" ">
<path fill="none" stroke="#63b8ff" d="M277.63,-538.5C289.44,-538.5 302.87,-538.5 315.47,-538.5"/>
<polygon fill="#63b8ff" stroke="#63b8ff" points="315.8,-542 325.8,-538.5 315.8,-535 315.8,-542"/>
</a>
</g>
</g>
<!-- Node5 -->
<g id="Node000005" class="node">
<title>Node5</title>
<g id="a_Node000005"><a xlink:href="lapi_8c.html#ad72dab885445ae43cf768790aa8a8eca" target="_top" xlink:title=" ">
<polygon fill="white" stroke="#666666" points="493,-577 436,-577 436,-558 493,-558 493,-577"/>
<text text-anchor="middle" x="464.5" y="-565" font-family="Helvetica,sans-Serif" font-size="10.00">gettable</text>
</a>
</g>
</g>
<!-- Node4&#45;&gt;Node5 -->
<g id="edge4_Node000004_Node000005" class="edge">
<title>Node4&#45;&gt;Node5</title>
<g id="a_edge4_Node000004_Node000005"><a xlink:title=" ">
<path fill="none" stroke="#63b8ff" d="M396.52,-548.08C405.98,-550.82 416.36,-553.83 426.06,-556.64"/>
<polygon fill="#63b8ff" stroke="#63b8ff" points="425.28,-560.06 435.86,-559.48 427.23,-553.34 425.28,-560.06"/>
</a>
</g>
</g>
<!-- Node7 -->
<g id="Node000007" class="node">
<title>Node7</title>
<g id="a_Node000007"><a xlink:href="ltable_8c.html#a2ea4f5ea50911a03375ba4d22ef72419" target="_top" xlink:title=" ">
<polygon fill="white" stroke="#666666" points="494,-530 435,-530 435,-511 494,-511 494,-530"/>
<text text-anchor="middle" x="464.5" y="-518" font-family="Helvetica,sans-Serif" font-size="10.00">luaH_set</text>
</a>
</g>
</g>
<!-- Node4&#45;&gt;Node7 -->
<g id="edge6_Node000004_Node000007" class="edge">
<title>Node4&#45;&gt;Node7</title>
<g id="a_edge6_Node000004_Node000007"><a xlink:title=" ">
<path fill="none" stroke="#63b8ff" d="M399.04,-532.1C407.42,-530.59 416.39,-528.98 424.9,-527.45"/>
<polygon fill="#63b8ff" stroke="#63b8ff" points="425.76,-530.85 434.98,-525.63 424.52,-523.96 425.76,-530.85"/>
</a>
</g>
</g>
<!-- Node6 -->
<g id="Node000006" class="node">
<title>Node6</title>
<g id="a_Node000006"><a xlink:href="lapi_8c.html#a7884f1636f91e9b204754b244a807bdc" target="_top" xlink:title=" ">
<polygon fill="white" stroke="#666666" points="611.5,-587 534.5,-587 534.5,-568 611.5,-568 611.5,-587"/>
<text text-anchor="middle" x="573" y="-575" font-family="Helvetica,sans-Serif" font-size="10.00">index2value</text>
</a>
</g>
</g>
<!-- Node5&#45;&gt;Node6 -->
<g id="edge5_Node000005_Node000006" class="edge">
<title>Node5&#45;&gt;Node6</title>
<g id="a_edge5_Node000005_Node000006"><a xlink:title=" ">
<path fill="none" stroke="#63b8ff" d="M493.2,-570.1C502.73,-571 513.69,-572.02 524.35,-573.03"/>
<polygon fill="#63b8ff" stroke="#63b8ff" points="524.13,-576.52 534.41,-573.97 524.78,-569.55 524.13,-576.52"/>
</a>
</g>
</g>
<!-- Node8 -->
<g id="Node000008" class="node">
<title>Node8</title>
<g id="a_Node000008"><a xlink:href="ltable_8c.html#a72e6b8ad422b01d0b34197134cec1f7a" target="_top" xlink:title=" ">
<polygon fill="white" stroke="#666666" points="616,-511 530,-511 530,-492 616,-492 616,-511"/>
<text text-anchor="middle" x="573" y="-499" font-family="Helvetica,sans-Serif" font-size="10.00">luaH_finishset</text>
</a>
</g>
</g>
<!-- Node7&#45;&gt;Node8 -->
<g id="edge7_Node000007_Node000008" class="edge">
<title>Node7&#45;&gt;Node8</title>
<g id="a_edge7_Node000007_Node000008"><a xlink:title=" ">
<path fill="none" stroke="#63b8ff" d="M494.04,-515.41C502.01,-513.99 510.93,-512.4 519.8,-510.81"/>
<polygon fill="#63b8ff" stroke="#63b8ff" points="520.53,-514.24 529.76,-509.04 519.3,-507.35 520.53,-514.24"/>
</a>
</g>
</g>
<!-- Node150 -->
<g id="Node000150" class="node">
<title>Node150</title>
<g id="a_Node000150"><a xlink:href="ltable_8c.html#a18a6f1b00c04ce1043c3286bac09f050" target="_top" xlink:title=" ">
<polygon fill="white" stroke="#666666" points="723,-587 663,-587 663,-568 723,-568 723,-587"/>
<text text-anchor="middle" x="693" y="-575" font-family="Helvetica,sans-Serif" font-size="10.00">luaH_get</text>
</a>
</g>
</g>
<!-- Node7&#45;&gt;Node150 -->
<g id="edge54_Node000007_Node000150" class="edge">
<title>Node7&#45;&gt;Node150</title>
<g id="a_edge54_Node000007_Node000150"><a xlink:title=" ">
<path fill="none" stroke="#63b8ff" d="M494.19,-527.72C534.47,-537.86 607.92,-556.34 653.09,-567.71"/>
<polygon fill="#63b8ff" stroke="#63b8ff" points="652.28,-571.11 662.83,-570.16 653.99,-564.32 652.28,-571.11"/>
</a>
</g>
</g>
<!-- Node9 -->
<g id="Node000009" class="node">
<title>Node9</title>
<g id="a_Node000009"><a xlink:href="ltable_8c.html#a6ce3d9b25029784215e203196f0d0686" target="_top" xlink:title=" ">
<polygon fill="white" stroke="#666666" points="734,-473 652,-473 652,-454 734,-454 734,-473"/>
<text text-anchor="middle" x="693" y="-461" font-family="Helvetica,sans-Serif" font-size="10.00">luaH_newkey</text>
</a>
</g>
</g>
<!-- Node8&#45;&gt;Node9 -->
<g id="edge8_Node000008_Node000009" class="edge">
<title>Node8&#45;&gt;Node9</title>
<g id="a_edge8_Node000008_Node000009"><a xlink:title=" ">
<path fill="none" stroke="#63b8ff" d="M603.78,-491.91C618.59,-487.14 636.69,-481.31 652.63,-476.18"/>
<polygon fill="#63b8ff" stroke="#63b8ff" points="653.79,-479.48 662.23,-473.09 651.64,-472.82 653.79,-479.48"/>
</a>
</g>
</g>
<!-- Node9&#45;&gt;Node7 -->
<g id="edge33_Node000009_Node000007" class="edge">
<title>Node9&#45;&gt;Node7</title>
<g id="a_edge33_Node000009_Node000007"><a xlink:title=" ">
<path fill="none" stroke="#63b8ff" d="M651.71,-463.63C618.31,-464.82 569.99,-469.04 530,-482.5 514.49,-487.72 498.64,-497 486.53,-505.08"/>
<polygon fill="#63b8ff" stroke="#63b8ff" points="484.29,-502.37 478.06,-510.94 488.28,-508.12 484.29,-502.37"/>
</a>
</g>
</g>
<!-- Node10 -->
<g id="Node000010" class="node">
<title>Node10</title>
<g id="a_Node000010"><a xlink:href="ltable_8c.html#a3008be1cb299ab5957a1d7205d715736" target="_top" xlink:title=" ">
<polygon fill="white" stroke="#666666" points="868.5,-436 799.5,-436 799.5,-417 868.5,-417 868.5,-436"/>
<text text-anchor="middle" x="834" y="-424" font-family="Helvetica,sans-Serif" font-size="10.00">getfreepos</text>
</a>
</g>
</g>
<!-- Node9&#45;&gt;Node10 -->
<g id="edge9_Node000009_Node000010" class="edge">
<title>Node9&#45;&gt;Node10</title>
<g id="a_edge9_Node000009_Node000010"><a xlink:title=" ">
<path fill="none" stroke="#63b8ff" d="M729.8,-453.97C748.02,-449.12 770.32,-443.19 789.52,-438.07"/>
<polygon fill="#63b8ff" stroke="#63b8ff" points="790.48,-441.44 799.24,-435.49 788.67,-434.68 790.48,-441.44"/>
</a>
</g>
</g>
<!-- Node11 -->
<g id="Node000011" class="node">
<title>Node11</title>
<g id="a_Node000011"><a xlink:href="ldebug_8c.html#a88d38ca5da2e7a1492fc9d5ad70c32c5" target="_top" xlink:title=" ">
<polygon fill="white" stroke="#666666" points="875.5,-399 792.5,-399 792.5,-380 875.5,-380 875.5,-399"/>
<text text-anchor="middle" x="834" y="-387" font-family="Helvetica,sans-Serif" font-size="10.00">luaG_runerror</text>
</a>
</g>
</g>
<!-- Node9&#45;&gt;Node11 -->
<g id="edge10_Node000009_Node000011" class="edge">
<title>Node9&#45;&gt;Node11</title>
<g id="a_edge10_Node000009_Node000011"><a xlink:title=" ">
<path fill="none" stroke="#63b8ff" d="M704.52,-453.81C718.49,-441.43 744.4,-420.08 770,-407.5 774.01,-405.53 778.28,-403.74 782.63,-402.12"/>
<polygon fill="#63b8ff" stroke="#63b8ff" points="783.87,-405.39 792.21,-398.85 781.61,-398.77 783.87,-405.39"/>
</a>
</g>
</g>
<!-- Node124 -->
<g id="Node000124" class="node">
<title>Node124</title>
<g id="a_Node000124"><a xlink:href="lvm_8c.html#a3a9a9378ccdbd0ea4cba6555673dccf9" target="_top" xlink:title=" ">
<polygon fill="white" stroke="#666666" points="883,-549 785,-549 785,-530 883,-530 883,-549"/>
<text text-anchor="middle" x="834" y="-537" font-family="Helvetica,sans-Serif" font-size="10.00">luaV_flttointeger</text>
</a>
</g>
</g>
<!-- Node9&#45;&gt;Node124 -->
<g id="edge34_Node000009_Node000124" class="edge">
<title>Node9&#45;&gt;Node124</title>
<g id="a_edge34_Node000009_Node000124"><a xlink:title=" ">
<path fill="none" stroke="#63b8ff" d="M706.07,-473.1C720.61,-484.33 746.06,-502.98 770,-515.5 777.6,-519.48 786.02,-523.15 794.16,-526.35"/>
<polygon fill="#63b8ff" stroke="#63b8ff" points="792.93,-529.63 803.52,-529.9 795.41,-523.09 792.93,-529.63"/>
</a>
</g>
</g>
<!-- Node481 -->
<g id="Node000481" class="node">
<title>Node481</title>
<g id="a_Node000481"><a xlink:href="ltable_8c.html#a1e97ed4dc894738c8a76cd5221d0f88e" target="_top" xlink:title=" ">
<polygon fill="white" stroke="#666666" points="898,-473 770,-473 770,-454 898,-454 898,-473"/>
<text text-anchor="middle" x="834" y="-461" font-family="Helvetica,sans-Serif" font-size="10.00">mainpositionfromnode</text>
</a>
</g>
</g>
<!-- Node9&#45;&gt;Node481 -->
<g id="edge35_Node000009_Node000481" class="edge">
<title>Node9&#45;&gt;Node481</title>
<g id="a_edge35_Node000009_Node000481"><a xlink:title=" ">
<path fill="none" stroke="#63b8ff" d="M734.2,-463.5C742.22,-463.5 750.86,-463.5 759.59,-463.5"/>
<polygon fill="#63b8ff" stroke="#63b8ff" points="759.84,-467 769.84,-463.5 759.84,-460 759.84,-467"/>
</a>
</g>
</g>
<!-- Node154 -->
<g id="Node000154" class="node">
<title>Node154</title>
<g id="a_Node000154"><a xlink:href="ltable_8c.html#a113bfbaa7290043b89701e1c2974a592" target="_top" xlink:title=" ">
<polygon fill="white" stroke="#666666" points="1027,-526 934,-526 934,-507 1027,-507 1027,-526"/>
<text text-anchor="middle" x="980.5" y="-514" font-family="Helvetica,sans-Serif" font-size="10.00">mainpositionTV</text>
</a>
</g>
</g>
<!-- Node9&#45;&gt;Node154 -->
<g id="edge41_Node000009_Node000154" class="edge">
<title>Node9&#45;&gt;Node154</title>
<g id="a_edge41_Node000009_Node000154"><a xlink:title=" ">
<path fill="none" stroke="#63b8ff" d="M732.16,-473.07C744.23,-475.95 757.64,-479.01 770,-481.5 821.93,-491.97 881.55,-501.71 923.87,-508.25"/>
<polygon fill="#63b8ff" stroke="#63b8ff" points="923.56,-511.74 933.98,-509.8 924.62,-504.82 923.56,-511.74"/>
</a>
</g>
</g>
<!-- Node482 -->
<g id="Node000482" class="node">
<title>Node482</title>
<g id="a_Node000482"><a xlink:href="ltable_8c.html#ad775daa2a19a375c7385ed30834a3eeb" target="_top" xlink:title=" ">
<polygon fill="white" stroke="#666666" points="859,-131 809,-131 809,-112 859,-112 859,-131"/>
<text text-anchor="middle" x="834" y="-119" font-family="Helvetica,sans-Serif" font-size="10.00">rehash</text>
</a>
</g>
</g>
<!-- Node9&#45;&gt;Node482 -->
<g id="edge42_Node000009_Node000482" class="edge">
<title>Node9&#45;&gt;Node482</title>
<g id="a_edge42_Node000009_Node000482"><a xlink:title=" ">
<path fill="none" stroke="#63b8ff" d="M697.86,-454C716.72,-407.59 799.26,-204.5 825.18,-140.73"/>
<polygon fill="#63b8ff" stroke="#63b8ff" points="828.57,-141.7 829.09,-131.12 822.08,-139.07 828.57,-141.7"/>
</a>
</g>
</g>
<!-- Node12 -->
<g id="Node000012" class="node">
<title>Node12</title>
<g id="a_Node000012"><a xlink:href="ldebug_8c.html#ad6bc24d619df8e849e2ae8b00455d86f" target="_top" xlink:title=" ">
<polygon fill="white" stroke="#666666" points="1023,-244 938,-244 938,-225 1023,-225 1023,-244"/>
<text text-anchor="middle" x="980.5" y="-232" font-family="Helvetica,sans-Serif" font-size="10.00">getcurrentline</text>
</a>
</g>
</g>
<!-- Node11&#45;&gt;Node12 -->
<g id="edge11_Node000011_Node000012" class="edge">
<title>Node11&#45;&gt;Node12</title>
<g id="a_edge11_Node000011_Node000012"><a xlink:title=" ">
<path fill="none" stroke="#63b8ff" d="M844.04,-379.8C867.96,-354.14 933.17,-284.2 963.54,-251.62"/>
<polygon fill="#63b8ff" stroke="#63b8ff" points="966.21,-253.89 970.46,-244.19 961.09,-249.12 966.21,-253.89"/>
</a>
</g>
</g>
<!-- Node16 -->
<g id="Node000016" class="node">
<title>Node16</title>
<g id="a_Node000016"><a xlink:href="ldebug_8c.html#ab2f654440b1afd7315518c42e15c5c65" target="_top" xlink:title=" ">
<polygon fill="white" stroke="#666666" points="1021,-399 940,-399 940,-380 1021,-380 1021,-399"/>
<text text-anchor="middle" x="980.5" y="-387" font-family="Helvetica,sans-Serif" font-size="10.00">luaG_addinfo</text>
</a>
</g>
</g>
<!-- Node11&#45;&gt;Node16 -->
<g id="edge14_Node000011_Node000016" class="edge">
<title>Node11&#45;&gt;Node16</title>
<g id="a_edge14_Node000011_Node000016"><a xlink:title=" ">
<path fill="none" stroke="#63b8ff" d="M875.64,-389.5C892.38,-389.5 911.95,-389.5 929.56,-389.5"/>
<polygon fill="#63b8ff" stroke="#63b8ff" points="929.67,-393 939.67,-389.5 929.67,-386 929.67,-393"/>
</a>
</g>
</g>
<!-- Node19 -->
<g id="Node000019" class="node">
<title>Node19</title>
<g id="a_Node000019"><a xlink:href="lobject_8c.html#ae815c06421d341ce3c584d93ba9edc13" target="_top" xlink:title=" ">
<polygon fill="white" stroke="#666666" points="1304,-456 1199,-456 1199,-437 1304,-437 1304,-456"/>
<text text-anchor="middle" x="1251.5" y="-444" font-family="Helvetica,sans-Serif" font-size="10.00">luaO_pushvfstring</text>
</a>
</g>
</g>
<!-- Node11&#45;&gt;Node19 -->
<g id="edge32_Node000011_Node000019" class="edge">
<title>Node11&#45;&gt;Node19</title>
<g id="a_edge32_Node000011_Node000019"><a xlink:title=" ">
<path fill="none" stroke="#63b8ff" d="M875.85,-389.2C893.67,-391.81 914.83,-395.58 934,-398.5 1029.2,-413.01 1141.14,-425.81 1203.13,-435.34"/>
<polygon fill="#63b8ff" stroke="#63b8ff" points="1202.95,-438.86 1213.37,-436.96 1204.04,-431.94 1202.95,-438.86"/>
</a>
</g>
</g>
<!-- Node480 -->
<g id="Node000480" class="node">
<title>Node480</title>
<g id="a_Node000480"><a xlink:href="ldebug_8c.html#af7366920f8408bb33ed01b1d6c0e1238" target="_top" xlink:title=" ">
<polygon fill="white" stroke="#666666" points="1025,-335 936,-335 936,-316 1025,-316 1025,-335"/>
<text text-anchor="middle" x="980.5" y="-323" font-family="Helvetica,sans-Serif" font-size="10.00">luaG_errormsg</text>
</a>
</g>
</g>
<!-- Node11&#45;&gt;Node480 -->
<g id="edge28_Node000011_Node000480" class="edge">
<title>Node11&#45;&gt;Node480</title>
<g id="a_edge28_Node000011_Node000480"><a xlink:title=" ">
<path fill="none" stroke="#63b8ff" d="M856.63,-379.92C881,-369.13 920.81,-351.5 948.48,-339.24"/>
<polygon fill="#63b8ff" stroke="#63b8ff" points="949.99,-342.4 957.72,-335.15 947.16,-336 949.99,-342.4"/>
</a>
</g>
</g>
<!-- Node13 -->
<g id="Node000013" class="node">
<title>Node13</title>
<g id="a_Node000013"><a xlink:href="ldebug_8c.html#a7db2a3f5cbcf0ac3ef6d4cfa15ab4dbc" target="_top" xlink:title=" ">
<polygon fill="white" stroke="#666666" points="1144,-206 1082,-206 1082,-187 1144,-187 1144,-206"/>
<text text-anchor="middle" x="1113" y="-194" font-family="Helvetica,sans-Serif" font-size="10.00">currentpc</text>
</a>
</g>
</g>
<!-- Node12&#45;&gt;Node13 -->
<g id="edge12_Node000012_Node000013" class="edge">
<title>Node12&#45;&gt;Node13</title>
<g id="a_edge12_Node000012_Node000013"><a xlink:title=" ">
<path fill="none" stroke="#63b8ff" d="M1014.43,-224.91C1031.97,-219.8 1053.67,-213.48 1072.15,-208.1"/>
<polygon fill="#63b8ff" stroke="#63b8ff" points="1073.14,-211.46 1081.76,-205.3 1071.18,-204.74 1073.14,-211.46"/>
</a>
</g>
</g>
<!-- Node14 -->
<g id="Node000014" class="node">
<title>Node14</title>
<g id="a_Node000014"><a xlink:href="ldebug_8c.html#ae7a6d2f88b11cc05758e44acd433ee2f" target="_top" xlink:title=" ">
<polygon fill="#fff0f0" stroke="red" points="1162.5,-243 1063.5,-243 1063.5,-224 1162.5,-224 1162.5,-243"/>
<text text-anchor="middle" x="1113" y="-231" font-family="Helvetica,sans-Serif" font-size="10.00">luaG_getfuncline</text>
</a>
</g>
</g>
<!-- Node12&#45;&gt;Node14 -->
<g id="edge13_Node000012_Node000014" class="edge">
<title>Node12&#45;&gt;Node14</title>
<g id="a_edge13_Node000012_Node000014"><a xlink:title=" ">
<path fill="none" stroke="#63b8ff" d="M1023.15,-234.18C1032.77,-234.11 1043.19,-234.03 1053.38,-233.95"/>
<polygon fill="#63b8ff" stroke="#63b8ff" points="1053.49,-237.45 1063.47,-233.87 1053.44,-230.45 1053.49,-237.45"/>
</a>
</g>
</g>
<!-- Node17 -->
<g id="Node000017" class="node">
<title>Node17</title>
<g id="a_Node000017"><a xlink:href="lobject_8c.html#ac331b4119bbeb45a8a7e5a1afe553b2e" target="_top" xlink:title=" ">
<polygon fill="white" stroke="#666666" points="1154.5,-372 1071.5,-372 1071.5,-353 1154.5,-353 1154.5,-372"/>
<text text-anchor="middle" x="1113" y="-360" font-family="Helvetica,sans-Serif" font-size="10.00">luaO_chunkid</text>
</a>
</g>
</g>
<!-- Node16&#45;&gt;Node17 -->
<g id="edge15_Node000016_Node000017" class="edge">
<title>Node16&#45;&gt;Node17</title>
<g id="a_edge15_Node000016_Node000017"><a xlink:title=" ">
<path fill="none" stroke="#63b8ff" d="M1021.01,-381.33C1033.68,-378.7 1047.9,-375.76 1061.26,-373"/>
<polygon fill="#63b8ff" stroke="#63b8ff" points="1062.19,-376.38 1071.27,-370.93 1060.77,-369.53 1062.19,-376.38"/>
</a>
</g>
</g>
<!-- Node18 -->
<g id="Node000018" class="node">
<title>Node18</title>
<g id="a_Node000018"><a xlink:href="lobject_8c.html#a65ca3be2a1f862455baaedd6a2275238" target="_top" xlink:title=" ">
<polygon fill="white" stroke="#666666" points="1162.5,-409 1063.5,-409 1063.5,-390 1162.5,-390 1162.5,-409"/>
<text text-anchor="middle" x="1113" y="-397" font-family="Helvetica,sans-Serif" font-size="10.00">luaO_pushfstring</text>
</a>
</g>
</g>
<!-- Node16&#45;&gt;Node18 -->
<g id="edge16_Node000016_Node000018" class="edge">
<title>Node16&#45;&gt;Node18</title>
<g id="a_edge16_Node000016_Node000018"><a xlink:title=" ">
<path fill="none" stroke="#63b8ff" d="M1021.01,-392.53C1031.13,-393.3 1042.23,-394.15 1053.1,-394.99"/>
<polygon fill="#63b8ff" stroke="#63b8ff" points="1053.16,-398.5 1063.4,-395.78 1053.7,-391.52 1053.16,-398.5"/>
</a>
</g>
</g>
<!-- Node18&#45;&gt;Node19 -->
<g id="edge17_Node000018_Node000019" class="edge">
<title>Node18&#45;&gt;Node19</title>
<g id="a_edge17_Node000018_Node000019"><a xlink:title=" ">
<path fill="none" stroke="#63b8ff" d="M1141.62,-409.01C1162.12,-416.07 1190.29,-425.77 1212.85,-433.54"/>
<polygon fill="#63b8ff" stroke="#63b8ff" points="1211.86,-436.9 1222.45,-436.84 1214.13,-430.28 1211.86,-436.9"/>
</a>
</g>
</g>
<!-- Node19&#45;&gt;Node11 -->
<g id="edge26_Node000019_Node000011" class="edge">
<title>Node19&#45;&gt;Node11</title>
<g id="a_edge26_Node000019_Node000011"><a xlink:title=" ">
<path fill="none" stroke="#63b8ff" d="M1198.84,-447.42C1136.08,-443.22 1027.04,-430.68 934,-416.5 909,-412.69 880.62,-407.43 860.67,-401.96"/>
<polygon fill="#63b8ff" stroke="#63b8ff" points="861.66,-398.6 851.07,-399.08 859.65,-405.3 861.66,-398.6"/>
</a>
</g>
</g>
<!-- Node20 -->
<g id="Node000020" class="node">
<title>Node20</title>
<g id="a_Node000020"><a xlink:href="lobject_8c.html#a1d02fb9304e4700ce1fd20e34ae68784" target="_top" xlink:title=" ">
<polygon fill="#fff0f0" stroke="red" points="1421,-494 1340,-494 1340,-475 1421,-475 1421,-494"/>
<text text-anchor="middle" x="1380.5" y="-482" font-family="Helvetica,sans-Serif" font-size="10.00">addnum2buff</text>
</a>
</g>
</g>
<!-- Node19&#45;&gt;Node20 -->
<g id="edge18_Node000019_Node000020" class="edge">
<title>Node19&#45;&gt;Node20</title>
<g id="a_edge18_Node000019_Node000020"><a xlink:title=" ">
<path fill="none" stroke="#63b8ff" d="M1284.55,-456.09C1300.64,-460.9 1320.34,-466.8 1337.62,-471.97"/>
<polygon fill="#63b8ff" stroke="#63b8ff" points="1336.88,-475.4 1347.46,-474.91 1338.89,-468.69 1336.88,-475.4"/>
</a>
</g>
</g>
<!-- Node21 -->
<g id="Node000021" class="node">
<title>Node21</title>
<g id="a_Node000021"><a xlink:href="lobject_8c.html#a22acaa9e8e74a66f49579701613e4e59" target="_top" xlink:title=" ">
<polygon fill="white" stroke="#666666" points="1508,-456 1457,-456 1457,-437 1508,-437 1508,-456"/>
<text text-anchor="middle" x="1482.5" y="-444" font-family="Helvetica,sans-Serif" font-size="10.00">getbuff</text>
</a>
</g>
</g>
<!-- Node19&#45;&gt;Node21 -->
<g id="edge25_Node000019_Node000021" class="edge">
<title>Node19&#45;&gt;Node21</title>
<g id="a_edge25_Node000019_Node000021"><a xlink:title=" ">
<path fill="none" stroke="#63b8ff" d="M1304.18,-446.5C1347.71,-446.5 1408.78,-446.5 1446.7,-446.5"/>
<polygon fill="#63b8ff" stroke="#63b8ff" points="1446.75,-450 1456.75,-446.5 1446.75,-443 1446.75,-450"/>
</a>
</g>
</g>
<!-- Node22 -->
<g id="Node000022" class="node">
<title>Node22</title>
<g id="a_Node000022"><a xlink:href="lobject_8c.html#a6ec2716e64cd75e3e6614a87ee92e4d2" target="_top" xlink:title=" ">
<polygon fill="#fff0f0" stroke="red" points="1603,-456 1544,-456 1544,-437 1603,-437 1603,-456"/>
<text text-anchor="middle" x="1573.5" y="-444" font-family="Helvetica,sans-Serif" font-size="10.00">clearbuff</text>
</a>
</g>
</g>
<!-- Node19&#45;&gt;Node22 -->
<g id="edge24_Node000019_Node000022" class="edge">
<title>Node19&#45;&gt;Node22</title>
<g id="a_edge24_Node000019_Node000022"><a xlink:title=" ">
<path fill="none" stroke="#63b8ff" d="M1262.79,-456.13C1278.17,-469.8 1308.72,-494.21 1340,-503.5 1415,-525.78 1505.43,-484.46 1548.03,-461.04"/>
<polygon fill="#63b8ff" stroke="#63b8ff" points="1549.86,-464.03 1556.85,-456.07 1546.42,-457.93 1549.86,-464.03"/>
</a>
</g>
</g>
<!-- Node479 -->
<g id="Node000479" class="node">
<title>Node479</title>
<g id="a_Node000479"><a xlink:href="lobject_8c.html#a874ab64f433ee35f2197a81e10452cb1" target="_top" xlink:title=" ">
<polygon fill="#fff0f0" stroke="red" points="1416.5,-418 1344.5,-418 1344.5,-399 1416.5,-399 1416.5,-418"/>
<text text-anchor="middle" x="1380.5" y="-406" font-family="Helvetica,sans-Serif" font-size="10.00">addstr2buff</text>
</a>
</g>
</g>
<!-- Node19&#45;&gt;Node479 -->
<g id="edge21_Node000019_Node000479" class="edge">
<title>Node19&#45;&gt;Node479</title>
<g id="a_edge21_Node000019_Node000479"><a xlink:title=" ">
<path fill="none" stroke="#63b8ff" d="M1284.55,-436.91C1300.64,-432.1 1320.34,-426.2 1337.62,-421.03"/>
<polygon fill="#63b8ff" stroke="#63b8ff" points="1338.89,-424.31 1347.46,-418.09 1336.88,-417.6 1338.89,-424.31"/>
</a>
</g>
</g>
<!-- Node258 -->
<g id="Node000258" class="node">
<title>Node258</title>
<g id="a_Node000258"><a xlink:href="lobject_8c.html#af3136de4693789b08f78aafda9604676" target="_top" xlink:title=" ">
<polygon fill="white" stroke="#666666" points="1420.5,-381 1340.5,-381 1340.5,-362 1420.5,-362 1420.5,-381"/>
<text text-anchor="middle" x="1380.5" y="-369" font-family="Helvetica,sans-Serif" font-size="10.00">luaO_utf8esc</text>
</a>
</g>
</g>
<!-- Node19&#45;&gt;Node258 -->
<g id="edge27_Node000019_Node000258" class="edge">
<title>Node19&#45;&gt;Node258</title>
<g id="a_edge27_Node000019_Node000258"><a xlink:title=" ">
<path fill="none" stroke="#63b8ff" d="M1265.75,-436.97C1282.57,-425.09 1312.67,-404.52 1340,-389.5 1342.54,-388.1 1345.21,-386.72 1347.9,-385.38"/>
<polygon fill="#63b8ff" stroke="#63b8ff" points="1349.54,-388.48 1357.07,-381.02 1346.53,-382.16 1349.54,-388.48"/>
</a>
</g>
</g>
<!-- Node20&#45;&gt;Node21 -->
<g id="edge19_Node000020_Node000021" class="edge">
<title>Node20&#45;&gt;Node21</title>
<g id="a_edge19_Node000020_Node000021"><a xlink:title=" ">
<path fill="none" stroke="#63b8ff" d="M1406.73,-474.91C1419.12,-470.2 1434.22,-464.47 1447.59,-459.38"/>
<polygon fill="#63b8ff" stroke="#63b8ff" points="1448.86,-462.65 1456.97,-455.82 1446.37,-456.1 1448.86,-462.65"/>
</a>
</g>
</g>
<!-- Node21&#45;&gt;Node22 -->
<g id="edge20_Node000021_Node000022" class="edge">
<title>Node21&#45;&gt;Node22</title>
<g id="a_edge20_Node000021_Node000022"><a xlink:title=" ">
<path fill="none" stroke="#63b8ff" d="M1508.29,-446.5C1516.12,-446.5 1524.96,-446.5 1533.53,-446.5"/>
<polygon fill="#63b8ff" stroke="#63b8ff" points="1533.75,-450 1543.75,-446.5 1533.75,-443 1533.75,-450"/>
</a>
</g>
</g>
<!-- Node479&#45;&gt;Node21 -->
<g id="edge23_Node000479_Node000021" class="edge">
<title>Node479&#45;&gt;Node21</title>
<g id="a_edge23_Node000479_Node000021"><a xlink:title=" ">
<path fill="none" stroke="#63b8ff" d="M1406.73,-418.09C1419.12,-422.8 1434.22,-428.53 1447.59,-433.62"/>
<polygon fill="#63b8ff" stroke="#63b8ff" points="1446.37,-436.9 1456.97,-437.18 1448.86,-430.35 1446.37,-436.9"/>
</a>
</g>
</g>
<!-- Node479&#45;&gt;Node22 -->
<g id="edge22_Node000479_Node000022" class="edge">
<title>Node479&#45;&gt;Node22</title>
<g id="a_edge22_Node000479_Node000022"><a xlink:title=" ">
<path fill="none" stroke="#63b8ff" d="M1416.64,-412.46C1442.16,-415.66 1477.43,-420.73 1508,-427.5 1516.52,-429.39 1525.56,-431.79 1534.1,-434.25"/>
<polygon fill="#63b8ff" stroke="#63b8ff" points="1533.24,-437.65 1543.82,-437.13 1535.23,-430.93 1533.24,-437.65"/>
</a>
</g>
</g>
<!-- Node70 -->
<g id="Node000070" class="node">
<title>Node70</title>
<g id="a_Node000070"><a xlink:href="ldo_8c.html#a61c0a0185ef5ae1493dad10027f4db7e" target="_top" xlink:title=" ">
<polygon fill="#fff0f0" stroke="red" points="1162,-335 1064,-335 1064,-316 1162,-316 1162,-335"/>
<text text-anchor="middle" x="1113" y="-323" font-family="Helvetica,sans-Serif" font-size="10.00">luaD_callnoyield</text>
</a>
</g>
</g>
<!-- Node480&#45;&gt;Node70 -->
<g id="edge29_Node000480_Node000070" class="edge">
<title>Node480&#45;&gt;Node70</title>
<g id="a_edge29_Node000480_Node000070"><a xlink:title=" ">
<path fill="none" stroke="#63b8ff" d="M1025.32,-325.5C1034.34,-325.5 1043.99,-325.5 1053.44,-325.5"/>
<polygon fill="#63b8ff" stroke="#63b8ff" points="1053.58,-329 1063.58,-325.5 1053.58,-322 1053.58,-329"/>
</a>
</g>
</g>
<!-- Node110 -->
<g id="Node000110" class="node">
<title>Node110</title>
<g id="a_Node000110"><a xlink:href="ldo_8c.html#a2b46d9db5b9ca3d5402a0c2ac640a6b0" target="_top" xlink:title=" ">
<polygon fill="#fff0f0" stroke="red" points="1149,-280 1077,-280 1077,-261 1149,-261 1149,-280"/>
<text text-anchor="middle" x="1113" y="-268" font-family="Helvetica,sans-Serif" font-size="10.00">luaD_throw</text>
</a>
</g>
</g>
<!-- Node480&#45;&gt;Node110 -->
<g id="edge30_Node000480_Node000110" class="edge">
<title>Node480&#45;&gt;Node110</title>
<g id="a_edge30_Node000480_Node000110"><a xlink:title=" ">
<path fill="none" stroke="#63b8ff" d="M1004.23,-315.92C1025.06,-307.14 1056.13,-294.05 1079.57,-284.17"/>
<polygon fill="#63b8ff" stroke="#63b8ff" points="1081.24,-287.26 1089.09,-280.16 1078.52,-280.81 1081.24,-287.26"/>
</a>
</g>
</g>
<!-- Node110&#45;&gt;Node110 -->
<g id="edge31_Node000110_Node000110" class="edge">
<title>Node110&#45;&gt;Node110</title>
<g id="a_edge31_Node000110_Node000110"><a xlink:title=" ">
<path fill="none" stroke="#63b8ff" d="M1092.65,-280.08C1082.76,-288.73 1089.54,-298 1113,-298 1128.03,-298 1136.21,-294.2 1137.55,-289.19"/>
<polygon fill="#63b8ff" stroke="#63b8ff" points="1140.72,-287.69 1133.35,-280.08 1134.36,-290.63 1140.72,-287.69"/>
</a>
</g>
</g>
<!-- Node481&#45;&gt;Node154 -->
<g id="edge36_Node000481_Node000154" class="edge">
<title>Node481&#45;&gt;Node154</title>
<g id="a_edge36_Node000481_Node000154"><a xlink:title=" ">
<path fill="none" stroke="#63b8ff" d="M861.17,-473.1C884.29,-481.58 918.21,-494.02 943.82,-503.41"/>
<polygon fill="#63b8ff" stroke="#63b8ff" points="942.93,-506.82 953.53,-506.97 945.34,-500.24 942.93,-506.82"/>
</a>
</g>
</g>
<!-- Node155 -->
<g id="Node000155" class="node">
<title>Node155</title>
<g id="a_Node000155"><a xlink:href="ltable_8c.html#a752641ed8d84eb67eaba2a71641fb3f2" target="_top" xlink:title=" ">
<polygon fill="white" stroke="#666666" points="1139.5,-577 1086.5,-577 1086.5,-558 1139.5,-558 1139.5,-577"/>
<text text-anchor="middle" x="1113" y="-565" font-family="Helvetica,sans-Serif" font-size="10.00">hashint</text>
</a>
</g>
</g>
<!-- Node154&#45;&gt;Node155 -->
<g id="edge37_Node000154_Node000155" class="edge">
<title>Node154&#45;&gt;Node155</title>
<g id="a_edge37_Node000154_Node000155"><a xlink:title=" ">
<path fill="none" stroke="#63b8ff" d="M1004.61,-526.09C1020.88,-532.79 1043.2,-541.86 1063,-549.5 1067.47,-551.22 1072.18,-553 1076.84,-554.74"/>
<polygon fill="#63b8ff" stroke="#63b8ff" points="1075.66,-558.04 1086.26,-558.22 1078.09,-551.47 1075.66,-558.04"/>
</a>
</g>
</g>
<!-- Node156 -->
<g id="Node000156" class="node">
<title>Node156</title>
<g id="a_Node000156"><a xlink:href="ltable_8c.html#ac726a5642652c5e7d5417c03047fc3d5" target="_top" xlink:title=" ">
<polygon fill="white" stroke="#666666" points="1148,-503 1078,-503 1078,-484 1148,-484 1148,-503"/>
<text text-anchor="middle" x="1113" y="-491" font-family="Helvetica,sans-Serif" font-size="10.00">l_hashfloat</text>
</a>
</g>
</g>
<!-- Node154&#45;&gt;Node156 -->
<g id="edge38_Node000154_Node000156" class="edge">
<title>Node154&#45;&gt;Node156</title>
<g id="a_edge38_Node000154_Node000156"><a xlink:title=" ">
<path fill="none" stroke="#63b8ff" d="M1027.14,-508.46C1040.25,-506.15 1054.52,-503.63 1067.55,-501.33"/>
<polygon fill="#63b8ff" stroke="#63b8ff" points="1068.46,-504.73 1077.7,-499.55 1067.24,-497.83 1068.46,-504.73"/>
</a>
</g>
</g>
<!-- Node157 -->
<g id="Node000157" class="node">
<title>Node157</title>
<g id="a_Node000157"><a xlink:href="lstring_8c.html#ac51f4a1e06f41eeeb4690a3581016217" target="_top" xlink:title=" ">
<polygon fill="white" stroke="#666666" points="1163,-540 1063,-540 1063,-521 1163,-521 1163,-540"/>
<text text-anchor="middle" x="1113" y="-528" font-family="Helvetica,sans-Serif" font-size="10.00">luaS_hashlongstr</text>
</a>
</g>
</g>
<!-- Node154&#45;&gt;Node157 -->
<g id="edge39_Node000154_Node000157" class="edge">
<title>Node154&#45;&gt;Node157</title>
<g id="a_edge39_Node000154_Node000157"><a xlink:title=" ">
<path fill="none" stroke="#63b8ff" d="M1027.14,-521.4C1035.38,-522.28 1044.09,-523.21 1052.65,-524.13"/>
<polygon fill="#63b8ff" stroke="#63b8ff" points="1052.29,-527.61 1062.61,-525.2 1053.04,-520.65 1052.29,-527.61"/>
</a>
</g>
</g>
<!-- Node158 -->
<g id="Node000158" class="node">
<title>Node158</title>
<g id="a_Node000158"><a xlink:href="lstring_8c.html#ac453c0e85b7bb4e9b146fc140b1b7c9e" target="_top" xlink:title=" ">
<polygon fill="white" stroke="#666666" points="1284.5,-540 1218.5,-540 1218.5,-521 1284.5,-521 1284.5,-540"/>
<text text-anchor="middle" x="1251.5" y="-528" font-family="Helvetica,sans-Serif" font-size="10.00">luaS_hash</text>
</a>
</g>
</g>
<!-- Node157&#45;&gt;Node158 -->
<g id="edge40_Node000157_Node000158" class="edge">
<title>Node157&#45;&gt;Node158</title>
<g id="a_edge40_Node000157_Node000158"><a xlink:title=" ">
<path fill="none" stroke="#63b8ff" d="M1163.28,-530.5C1178.03,-530.5 1194.06,-530.5 1208.31,-530.5"/>
<polygon fill="#63b8ff" stroke="#63b8ff" points="1208.32,-534 1218.32,-530.5 1208.32,-527 1208.32,-534"/>
</a>
</g>
</g>
<!-- Node483 -->
<g id="Node000483" class="node">
<title>Node483</title>
<g id="a_Node000483"><a xlink:href="ltable_8c.html#a257cec771edd330f1dbfbd995aff684d" target="_top" xlink:title=" ">
<polygon fill="white" stroke="#666666" points="1022.5,-56 938.5,-56 938.5,-37 1022.5,-37 1022.5,-56"/>
<text text-anchor="middle" x="980.5" y="-44" font-family="Helvetica,sans-Serif" font-size="10.00">computesizes</text>
</a>
</g>
</g>
<!-- Node482&#45;&gt;Node483 -->
<g id="edge43_Node000482_Node000483" class="edge">
<title>Node482&#45;&gt;Node483</title>
<g id="a_edge43_Node000482_Node000483"><a xlink:title=" ">
<path fill="none" stroke="#63b8ff" d="M850.06,-111.9C869.15,-99.96 903.28,-79.32 934,-64.5 937.16,-62.98 940.48,-61.48 943.83,-60.03"/>
<polygon fill="#63b8ff" stroke="#63b8ff" points="945.33,-63.2 953.23,-56.14 942.65,-56.73 945.33,-63.2"/>
</a>
</g>
</g>
<!-- Node484 -->
<g id="Node000484" class="node">
<title>Node484</title>
<g id="a_Node000484"><a xlink:href="ltable_8c.html#a41b93f1d95df7f27e8dbc15a0e64f60c" target="_top" xlink:title=" ">
<polygon fill="white" stroke="#666666" points="1141,-75 1085,-75 1085,-56 1141,-56 1141,-75"/>
<text text-anchor="middle" x="1113" y="-63" font-family="Helvetica,sans-Serif" font-size="10.00">countint</text>
</a>
</g>
</g>
<!-- Node482&#45;&gt;Node484 -->
<g id="edge44_Node000482_Node000484" class="edge">
<title>Node482&#45;&gt;Node484</title>
<g id="a_edge44_Node000482_Node000484"><a xlink:title=" ">
<path fill="none" stroke="#63b8ff" d="M859.05,-121.27C895.81,-120.41 967.93,-116.72 1027,-101.5 1046.79,-96.4 1067.96,-87.45 1084.22,-79.75"/>
<polygon fill="#63b8ff" stroke="#63b8ff" points="1086.19,-82.68 1093.65,-75.16 1083.13,-76.38 1086.19,-82.68"/>
</a>
</g>
</g>
<!-- Node394 -->
<g id="Node000394" class="node">
<title>Node394</title>
<g id="a_Node000394"><a xlink:href="ltable_8c.html#aad3b771962cc13884bf7b45480e8f4e9" target="_top" xlink:title=" ">
<polygon fill="#fff0f0" stroke="red" points="1017.5,-207 943.5,-207 943.5,-188 1017.5,-188 1017.5,-207"/>
<text text-anchor="middle" x="980.5" y="-195" font-family="Helvetica,sans-Serif" font-size="10.00">luaH_resize</text>
</a>
</g>
</g>
<!-- Node482&#45;&gt;Node394 -->
<g id="edge47_Node000482_Node000394" class="edge">
<title>Node482&#45;&gt;Node394</title>
<g id="a_edge47_Node000482_Node000394"><a xlink:title=" ">
<path fill="none" stroke="#63b8ff" d="M853.3,-131.13C878.27,-144.26 923.22,-167.9 952.19,-183.14"/>
<polygon fill="#63b8ff" stroke="#63b8ff" points="950.87,-186.4 961.35,-187.95 954.13,-180.2 950.87,-186.4"/>
</a>
</g>
</g>
<!-- Node399 -->
<g id="Node000399" class="node">
<title>Node399</title>
<g id="a_Node000399"><a xlink:href="ltable_8c.html#a21e72b3bbf05de9a2fa6d3e566d070ad" target="_top" xlink:title=" ">
<polygon fill="white" stroke="#666666" points="1154.5,-169 1071.5,-169 1071.5,-150 1154.5,-150 1154.5,-169"/>
<text text-anchor="middle" x="1113" y="-157" font-family="Helvetica,sans-Serif" font-size="10.00">setlimittosize</text>
</a>
</g>
</g>
<!-- Node482&#45;&gt;Node399 -->
<g id="edge53_Node000482_Node000399" class="edge">
<title>Node482&#45;&gt;Node399</title>
<g id="a_edge53_Node000482_Node000399"><a xlink:title=" ">
<path fill="none" stroke="#63b8ff" d="M859.4,-125C879.44,-127.85 908.55,-131.98 934,-135.5 976.87,-141.42 1025.58,-147.98 1061.19,-152.74"/>
<polygon fill="#63b8ff" stroke="#63b8ff" points="1060.96,-156.24 1071.34,-154.09 1061.89,-149.3 1060.96,-156.24"/>
</a>
</g>
</g>
<!-- Node486 -->
<g id="Node000486" class="node">
<title>Node486</title>
<g id="a_Node000486"><a xlink:href="ltable_8c.html#aa1bb1405b21d33c8b3c41b78ef555d22" target="_top" xlink:title=" ">
<polygon fill="white" stroke="#666666" points="1021,-93 940,-93 940,-74 1021,-74 1021,-93"/>
<text text-anchor="middle" x="980.5" y="-81" font-family="Helvetica,sans-Serif" font-size="10.00">numusearray</text>
</a>
</g>
</g>
<!-- Node482&#45;&gt;Node486 -->
<g id="edge50_Node000482_Node000486" class="edge">
<title>Node482&#45;&gt;Node486</title>
<g id="a_edge50_Node000482_Node000486"><a xlink:title=" ">
<path fill="none" stroke="#63b8ff" d="M859.19,-115.14C879.38,-109.83 908.75,-102.11 933.41,-95.62"/>
<polygon fill="#63b8ff" stroke="#63b8ff" points="934.52,-98.95 943.3,-93.02 932.74,-92.18 934.52,-98.95"/>
</a>
</g>
</g>
<!-- Node487 -->
<g id="Node000487" class="node">
<title>Node487</title>
<g id="a_Node000487"><a xlink:href="ltable_8c.html#a383b5912900c91c788f78adb36c9d3f9" target="_top" xlink:title=" ">
<polygon fill="white" stroke="#666666" points="1020,-19 941,-19 941,0 1020,0 1020,-19"/>
<text text-anchor="middle" x="980.5" y="-7" font-family="Helvetica,sans-Serif" font-size="10.00">numusehash</text>
</a>
</g>
</g>
<!-- Node482&#45;&gt;Node487 -->
<g id="edge51_Node000482_Node000487" class="edge">
<title>Node482&#45;&gt;Node487</title>
<g id="a_edge51_Node000482_Node000487"><a xlink:title=" ">
<path fill="none" stroke="#63b8ff" d="M842.79,-111.98C858.37,-93.47 895.24,-52.24 934,-27.5 936.27,-26.05 938.68,-24.68 941.15,-23.4"/>
<polygon fill="#63b8ff" stroke="#63b8ff" points="942.71,-26.54 950.28,-19.13 939.74,-20.2 942.71,-26.54"/>
</a>
</g>
</g>
<!-- Node485 -->
<g id="Node000485" class="node">
<title>Node485</title>
<g id="a_Node000485"><a xlink:href="ltable_8c.html#a729a1f92fc454693e71df73e6b4eecd1" target="_top" xlink:title=" ">
<polygon fill="white" stroke="#666666" points="1286,-94 1217,-94 1217,-75 1286,-75 1286,-94"/>
<text text-anchor="middle" x="1251.5" y="-82" font-family="Helvetica,sans-Serif" font-size="10.00">arrayindex</text>
</a>
</g>
</g>
<!-- Node484&#45;&gt;Node485 -->
<g id="edge45_Node000484_Node000485" class="edge">
<title>Node484&#45;&gt;Node485</title>
<g id="a_edge45_Node000484_Node000485"><a xlink:title=" ">
<path fill="none" stroke="#63b8ff" d="M1141.29,-69.3C1160.1,-71.92 1185.49,-75.45 1207.06,-78.45"/>
<polygon fill="#63b8ff" stroke="#63b8ff" points="1206.58,-81.92 1216.97,-79.83 1207.55,-74.99 1206.58,-81.92"/>
</a>
</g>
</g>
<!-- Node330 -->
<g id="Node000330" class="node">
<title>Node330</title>
<g id="a_Node000330"><a xlink:href="lobject_8c.html#a731a3a2f9db35aaddeadf8cb19d507bd" target="_top" xlink:title=" ">
<polygon fill="white" stroke="#666666" points="1293,-57 1210,-57 1210,-38 1293,-38 1293,-57"/>
<text text-anchor="middle" x="1251.5" y="-45" font-family="Helvetica,sans-Serif" font-size="10.00">luaO_ceillog2</text>
</a>
</g>
</g>
<!-- Node484&#45;&gt;Node330 -->
<g id="edge46_Node000484_Node000330" class="edge">
<title>Node484&#45;&gt;Node330</title>
<g id="a_edge46_Node000484_Node000330"><a xlink:title=" ">
<path fill="none" stroke="#63b8ff" d="M1141.29,-61.9C1157.99,-59.7 1179.87,-56.81 1199.67,-54.2"/>
<polygon fill="#63b8ff" stroke="#63b8ff" points="1200.33,-57.65 1209.79,-52.87 1199.41,-50.71 1200.33,-57.65"/>
</a>
</g>
</g>
<!-- Node394&#45;&gt;Node399 -->
<g id="edge48_Node000394_Node000399" class="edge">
<title>Node394&#45;&gt;Node399</title>
<g id="a_edge48_Node000394_Node000399"><a xlink:title=" ">
<path fill="none" stroke="#63b8ff" d="M1014.43,-187.91C1031.12,-183.05 1051.59,-177.09 1069.46,-171.89"/>
<polygon fill="#63b8ff" stroke="#63b8ff" points="1070.46,-175.24 1079.08,-169.09 1068.5,-168.52 1070.46,-175.24"/>
</a>
</g>
</g>
<!-- Node37 -->
<g id="Node000037" class="node">
<title>Node37</title>
<g id="a_Node000037"><a xlink:href="ltable_8c.html#a8f20a204b7a78780847939086b847781" target="_top" xlink:title=" ">
<polygon fill="white" stroke="#666666" points="1296,-596 1207,-596 1207,-577 1296,-577 1296,-596"/>
<text text-anchor="middle" x="1251.5" y="-584" font-family="Helvetica,sans-Serif" font-size="10.00">luaH_realasize</text>
</a>
</g>
</g>
<!-- Node399&#45;&gt;Node37 -->
<g id="edge49_Node000399_Node000037" class="edge">
<title>Node399&#45;&gt;Node37</title>
<g id="a_edge49_Node000399_Node000037"><a xlink:title=" ">
<path fill="none" stroke="#63b8ff" d="M1153.21,-169.02C1156.96,-171.27 1160.34,-174.06 1163,-177.5 1213.76,-243.23 1157.58,-477.51 1199,-549.5 1204.13,-558.42 1212.39,-565.76 1220.8,-571.49"/>
<polygon fill="#63b8ff" stroke="#63b8ff" points="1219.15,-574.59 1229.5,-576.87 1222.83,-568.63 1219.15,-574.59"/>
</a>
</g>
</g>
<!-- Node487&#45;&gt;Node484 -->
<g id="edge52_Node000487_Node000484" class="edge">
<title>Node487&#45;&gt;Node484</title>
<g id="a_edge52_Node000487_Node000484"><a xlink:title=" ">
<path fill="none" stroke="#63b8ff" d="M1006.14,-19.02C1012.92,-21.7 1020.27,-24.66 1027,-27.5 1045.26,-35.19 1065.52,-44.23 1081.68,-51.56"/>
<polygon fill="#63b8ff" stroke="#63b8ff" points="1080.6,-54.91 1091.15,-55.87 1083.5,-48.54 1080.6,-54.91"/>
</a>
</g>
</g>
<!-- Node150&#45;&gt;Node124 -->
<g id="edge63_Node000150_Node000124" class="edge">
<title>Node150&#45;&gt;Node124</title>
<g id="a_edge63_Node000150_Node000124"><a xlink:title=" ">
<path fill="none" stroke="#63b8ff" d="M723.14,-569.53C742.04,-564.37 767.03,-557.53 788.4,-551.69"/>
<polygon fill="#63b8ff" stroke="#63b8ff" points="789.52,-555.01 798.25,-549 787.68,-548.26 789.52,-555.01"/>
</a>
</g>
</g>
<!-- Node151 -->
<g id="Node000151" class="node">
<title>Node151</title>
<g id="a_Node000151"><a xlink:href="ltable_8c.html#a03cf9c2604a5e34341c17a379b72d20d" target="_top" xlink:title=" ">
<polygon fill="white" stroke="#666666" points="868,-662 800,-662 800,-643 868,-643 868,-662"/>
<text text-anchor="middle" x="834" y="-650" font-family="Helvetica,sans-Serif" font-size="10.00">getgeneric</text>
</a>
</g>
</g>
<!-- Node150&#45;&gt;Node151 -->
<g id="edge55_Node000150_Node000151" class="edge">
<title>Node150&#45;&gt;Node151</title>
<g id="a_edge55_Node000150_Node000151"><a xlink:title=" ">
<path fill="none" stroke="#63b8ff" d="M704.49,-587.37C718.42,-599.99 744.3,-621.74 770,-634.5 776.23,-637.59 783.08,-640.24 789.89,-642.47"/>
<polygon fill="#63b8ff" stroke="#63b8ff" points="789.19,-645.91 799.78,-645.44 791.21,-639.21 789.19,-645.91"/>
</a>
</g>
</g>
<!-- Node159 -->
<g id="Node000159" class="node">
<title>Node159</title>
<g id="a_Node000159"><a xlink:href="ltable_8c.html#abdca99a946a28b2a8569ebfbc9f0e4a7" target="_top" xlink:title=" ">
<polygon fill="white" stroke="#666666" points="1017,-587 944,-587 944,-568 1017,-568 1017,-587"/>
<text text-anchor="middle" x="980.5" y="-575" font-family="Helvetica,sans-Serif" font-size="10.00">luaH_getint</text>
</a>
</g>
</g>
<!-- Node150&#45;&gt;Node159 -->
<g id="edge59_Node000150_Node000159" class="edge">
<title>Node150&#45;&gt;Node159</title>
<g id="a_edge59_Node000150_Node000159"><a xlink:title=" ">
<path fill="none" stroke="#63b8ff" d="M723.21,-577.5C772.95,-577.5 874.44,-577.5 933.7,-577.5"/>
<polygon fill="#63b8ff" stroke="#63b8ff" points="933.89,-581 943.89,-577.5 933.89,-574 933.89,-581"/>
</a>
</g>
</g>
<!-- Node89 -->
<g id="Node000089" class="node">
<title>Node89</title>
<g id="a_Node000089"><a xlink:href="ltable_8c.html#ad6a01d300fa2f1748c8e7bf4803740ce" target="_top" xlink:title=" ">
<polygon fill="white" stroke="#666666" points="883,-625 785,-625 785,-606 883,-606 883,-625"/>
<text text-anchor="middle" x="834" y="-613" font-family="Helvetica,sans-Serif" font-size="10.00">luaH_getshortstr</text>
</a>
</g>
</g>
<!-- Node150&#45;&gt;Node89 -->
<g id="edge62_Node000150_Node000089" class="edge">
<title>Node150&#45;&gt;Node89</title>
<g id="a_edge62_Node000150_Node000089"><a xlink:title=" ">
<path fill="none" stroke="#63b8ff" d="M723.14,-585.47C742.04,-590.63 767.03,-597.47 788.4,-603.31"/>
<polygon fill="#63b8ff" stroke="#63b8ff" points="787.68,-606.74 798.25,-606 789.52,-599.99 787.68,-606.74"/>
</a>
</g>
</g>
<!-- Node151&#45;&gt;Node154 -->
<g id="edge58_Node000151_Node000154" class="edge">
<title>Node151&#45;&gt;Node154</title>
<g id="a_edge58_Node000151_Node000154"><a xlink:title=" ">
<path fill="none" stroke="#63b8ff" d="M868.29,-648.45C878.71,-645.83 889.65,-641.54 898,-634.5 926.26,-610.66 912.2,-589.36 934,-559.5 941.19,-549.65 950.81,-540.18 959.36,-532.65"/>
<polygon fill="#63b8ff" stroke="#63b8ff" points="961.75,-535.21 967.1,-526.06 957.22,-529.87 961.75,-535.21"/>
</a>
</g>
</g>
<!-- Node152 -->
<g id="Node000152" class="node">
<title>Node152</title>
<g id="a_Node000152"><a xlink:href="ltable_8c.html#af84f7eafe0a1b410624263c29224fec9" target="_top" xlink:title=" ">
<polygon fill="white" stroke="#666666" points="1011,-662 950,-662 950,-643 1011,-643 1011,-662"/>
<text text-anchor="middle" x="980.5" y="-650" font-family="Helvetica,sans-Serif" font-size="10.00">equalkey</text>
</a>
</g>
</g>
<!-- Node151&#45;&gt;Node152 -->
<g id="edge56_Node000151_Node000152" class="edge">
<title>Node151&#45;&gt;Node152</title>
<g id="a_edge56_Node000151_Node000152"><a xlink:title=" ">
<path fill="none" stroke="#63b8ff" d="M868.15,-652.5C889.44,-652.5 917.22,-652.5 939.7,-652.5"/>
<polygon fill="#63b8ff" stroke="#63b8ff" points="939.94,-656 949.94,-652.5 939.94,-649 939.94,-656"/>
</a>
</g>
</g>
<!-- Node153 -->
<g id="Node000153" class="node">
<title>Node153</title>
<g id="a_Node000153"><a xlink:href="lstring_8c.html#a99b8eea92097f11885050ff629ff0f83" target="_top" xlink:title=" ">
<polygon fill="white" stroke="#666666" points="1154.5,-662 1071.5,-662 1071.5,-643 1154.5,-643 1154.5,-662"/>
<text text-anchor="middle" x="1113" y="-650" font-family="Helvetica,sans-Serif" font-size="10.00">luaS_eqlngstr</text>
</a>
</g>
</g>
<!-- Node152&#45;&gt;Node153 -->
<g id="edge57_Node000152_Node000153" class="edge">
<title>Node152&#45;&gt;Node153</title>
<g id="a_edge57_Node000152_Node000153"><a xlink:title=" ">
<path fill="none" stroke="#63b8ff" d="M1011.11,-652.5C1025.81,-652.5 1043.99,-652.5 1060.84,-652.5"/>
<polygon fill="#63b8ff" stroke="#63b8ff" points="1061.13,-656 1071.13,-652.5 1061.13,-649 1061.13,-656"/>
</a>
</g>
</g>
<!-- Node159&#45;&gt;Node155 -->
<g id="edge60_Node000159_Node000155" class="edge">
<title>Node159&#45;&gt;Node155</title>
<g id="a_edge60_Node000159_Node000155"><a xlink:title=" ">
<path fill="none" stroke="#63b8ff" d="M1017.16,-574.77C1035.54,-573.36 1057.89,-571.65 1076.28,-570.24"/>
<polygon fill="#63b8ff" stroke="#63b8ff" points="1076.61,-573.72 1086.31,-569.47 1076.08,-566.74 1076.61,-573.72"/>
</a>
</g>
</g>
<!-- Node159&#45;&gt;Node37 -->
<g id="edge61_Node000159_Node000037" class="edge">
<title>Node159&#45;&gt;Node37</title>
<g id="a_edge61_Node000159_Node000037"><a xlink:title=" ">
<path fill="none" stroke="#63b8ff" d="M1017.13,-582.29C1031.37,-583.99 1047.93,-585.67 1063,-586.5 1108.01,-588.98 1159.19,-588.77 1196.69,-588.07"/>
<polygon fill="#63b8ff" stroke="#63b8ff" points="1196.97,-591.56 1206.89,-587.86 1196.82,-584.56 1196.97,-591.56"/>
</a>
</g>
</g>
</g>
</svg>
