<?xml version="1.0" encoding="UTF-8" standalone="no"?>
<!DOCTYPE svg PUBLIC "-//W3C//DTD SVG 1.1//EN"
 "http://www.w3.org/Graphics/SVG/1.1/DTD/svg11.dtd">
<!-- Generated by graphviz version 2.43.0 (0)
 -->
<!-- Title: CreatureAIScript::_setDisplayWeapon Pages: 1 -->
<svg width="762pt" height="221pt"
 viewBox="0.00 0.00 762.00 220.50" xmlns="http://www.w3.org/2000/svg" xmlns:xlink="http://www.w3.org/1999/xlink">
<g id="graph0" class="graph" transform="scale(1 1) rotate(0) translate(4 216.5)">
<title>CreatureAIScript::_setDisplayWeapon</title>
<!-- Node1 -->
<g id="Node000001" class="node">
<title>Node1</title>
<g id="a_Node000001"><a xlink:title=" ">
<polygon fill="#999999" stroke="#666666" points="754,-121 641,-121 641,-91 754,-91 754,-121"/>
<text text-anchor="start" x="649" y="-109" font-family="Helvetica,sans-Serif" font-size="10.00">CreatureAIScript::</text>
<text text-anchor="middle" x="697.5" y="-98" font-family="Helvetica,sans-Serif" font-size="10.00">_setDisplayWeapon</text>
</a>
</g>
</g>
<!-- Node2 -->
<g id="Node000002" class="node">
<title>Node2</title>
<g id="a_Node000002"><a xlink:href="classMaievAI.html#a74f9b84fb1a838f31ff56bfca95afa69" target="_top" xlink:title=" ">
<polygon fill="white" stroke="#666666" points="605,-193.5 461,-193.5 461,-174.5 605,-174.5 605,-193.5"/>
<text text-anchor="middle" x="533" y="-181.5" font-family="Helvetica,sans-Serif" font-size="10.00">MaievAI::FightWithDemon</text>
</a>
</g>
</g>
<!-- Node1&#45;&gt;Node2 -->
<g id="edge1_Node000001_Node000002" class="edge">
<title>Node1&#45;&gt;Node2</title>
<g id="a_edge1_Node000001_Node000002"><a xlink:title=" ">
<path fill="none" stroke="#63b8ff" d="M663.59,-126.46C646.48,-136.65 625,-148.73 605,-158 591.66,-164.18 576.4,-169.93 563.46,-174.44"/>
<polygon fill="#63b8ff" stroke="#63b8ff" points="665.85,-129.19 672.61,-121.03 662.24,-123.19 665.85,-129.19"/>
</a>
</g>
</g>
<!-- Node5 -->
<g id="Node000005" class="node">
<title>Node5</title>
<g id="a_Node000005"><a xlink:href="classIllidanStormrageAI.html#ac17ab9613d20928867164c2aff4fc0c6" target="_top" xlink:title=" ">
<polygon fill="white" stroke="#666666" points="409,-156 302,-156 302,-126 409,-126 409,-156"/>
<text text-anchor="start" x="310" y="-144" font-family="Helvetica,sans-Serif" font-size="10.00">IllidanStormrageAI</text>
<text text-anchor="middle" x="355.5" y="-133" font-family="Helvetica,sans-Serif" font-size="10.00">::MaievScene</text>
</a>
</g>
</g>
<!-- Node1&#45;&gt;Node5 -->
<g id="edge6_Node000001_Node000005" class="edge">
<title>Node1&#45;&gt;Node5</title>
<g id="a_edge6_Node000001_Node000005"><a xlink:title=" ">
<path fill="none" stroke="#63b8ff" d="M630.66,-112.78C566.08,-119.43 468.86,-129.43 409.22,-135.57"/>
<polygon fill="#63b8ff" stroke="#63b8ff" points="631.15,-116.25 640.74,-111.74 630.43,-109.28 631.15,-116.25"/>
</a>
</g>
</g>
<!-- Node8 -->
<g id="Node000008" class="node">
<title>Node8</title>
<g id="a_Node000008"><a xlink:href="classIllidanStormrageAI.html#adbc4a9cc8bc06fa0bf8b8790744aa41e" target="_top" xlink:title=" ">
<polygon fill="white" stroke="#666666" points="586.5,-30 479.5,-30 479.5,0 586.5,0 586.5,-30"/>
<text text-anchor="start" x="487.5" y="-18" font-family="Helvetica,sans-Serif" font-size="10.00">IllidanStormrageAI</text>
<text text-anchor="middle" x="533" y="-7" font-family="Helvetica,sans-Serif" font-size="10.00">::OnCombatStop</text>
</a>
</g>
</g>
<!-- Node1&#45;&gt;Node8 -->
<g id="edge9_Node000001_Node000008" class="edge">
<title>Node1&#45;&gt;Node8</title>
<g id="a_edge9_Node000001_Node000008"><a xlink:title=" ">
<path fill="none" stroke="#63b8ff" d="M671.28,-84.24C653.64,-69.88 629.03,-51.48 605,-39 598.65,-35.7 591.75,-32.71 584.83,-30.05"/>
<polygon fill="#63b8ff" stroke="#63b8ff" points="669.41,-87.24 679.34,-90.93 673.88,-81.85 669.41,-87.24"/>
</a>
</g>
</g>
<!-- Node9 -->
<g id="Node000009" class="node">
<title>Node9</title>
<g id="a_Node000009"><a xlink:href="classIllidanStormrageAI.html#a5b0e4d9d2cf11f7013bfd692757ae0d6" target="_top" xlink:title=" ">
<polygon fill="white" stroke="#666666" points="586.5,-78 479.5,-78 479.5,-48 586.5,-48 586.5,-78"/>
<text text-anchor="start" x="487.5" y="-66" font-family="Helvetica,sans-Serif" font-size="10.00">IllidanStormrageAI</text>
<text text-anchor="middle" x="533" y="-55" font-family="Helvetica,sans-Serif" font-size="10.00">::PhaseFour</text>
</a>
</g>
</g>
<!-- Node1&#45;&gt;Node9 -->
<g id="edge10_Node000001_Node000009" class="edge">
<title>Node1&#45;&gt;Node9</title>
<g id="a_edge10_Node000001_Node000009"><a xlink:title=" ">
<path fill="none" stroke="#63b8ff" d="M630.61,-88.56C616.01,-84.7 600.73,-80.66 586.74,-76.96"/>
<polygon fill="#63b8ff" stroke="#63b8ff" points="630.01,-92.03 640.58,-91.2 631.8,-85.26 630.01,-92.03"/>
</a>
</g>
</g>
<!-- Node10 -->
<g id="Node000010" class="node">
<title>Node10</title>
<g id="a_Node000010"><a xlink:href="classIllidanStormrageAI.html#a3f7f0c93765a00dcea088d6411564fe0" target="_top" xlink:title=" ">
<polygon fill="white" stroke="#666666" points="409,-108 302,-108 302,-78 409,-78 409,-108"/>
<text text-anchor="start" x="310" y="-96" font-family="Helvetica,sans-Serif" font-size="10.00">IllidanStormrageAI</text>
<text text-anchor="middle" x="355.5" y="-85" font-family="Helvetica,sans-Serif" font-size="10.00">::Transform</text>
</a>
</g>
</g>
<!-- Node1&#45;&gt;Node10 -->
<g id="edge17_Node000001_Node000010" class="edge">
<title>Node1&#45;&gt;Node10</title>
<g id="a_edge17_Node000001_Node000010"><a xlink:title=" ">
<path fill="none" stroke="#63b8ff" d="M630.66,-103.48C566.08,-101.01 468.86,-97.3 409.22,-95.02"/>
<polygon fill="#63b8ff" stroke="#63b8ff" points="630.61,-106.98 640.74,-103.87 630.88,-99.99 630.61,-106.98"/>
</a>
</g>
</g>
<!-- Node3 -->
<g id="Node000003" class="node">
<title>Node3</title>
<g id="a_Node000003"><a xlink:href="classMaievAI.html#ac8aedd1363fc805872bb8cae058f8060" target="_top" xlink:title=" ">
<polygon fill="white" stroke="#666666" points="250,-212.5 143,-212.5 143,-193.5 250,-193.5 250,-212.5"/>
<text text-anchor="middle" x="196.5" y="-200.5" font-family="Helvetica,sans-Serif" font-size="10.00">MaievAI::AIUpdate</text>
</a>
</g>
</g>
<!-- Node2&#45;&gt;Node3 -->
<g id="edge2_Node000002_Node000003" class="edge">
<title>Node2&#45;&gt;Node3</title>
<g id="a_edge2_Node000002_Node000003"><a xlink:title=" ">
<path fill="none" stroke="#63b8ff" d="M478.22,-195.45C461.28,-198.55 442.43,-201.46 425,-203 365.2,-208.27 296.21,-207.28 250.02,-205.61"/>
<polygon fill="#63b8ff" stroke="#63b8ff" points="479.32,-198.81 488.5,-193.51 478.03,-191.93 479.32,-198.81"/>
</a>
</g>
</g>
<!-- Node4 -->
<g id="Node000004" class="node">
<title>Node4</title>
<g id="a_Node000004"><a xlink:href="classMaievAI.html#a3d5521847a85c7bb89949a40c0b5054a" target="_top" xlink:title=" ">
<polygon fill="white" stroke="#666666" points="425,-193.5 286,-193.5 286,-174.5 425,-174.5 425,-193.5"/>
<text text-anchor="middle" x="355.5" y="-181.5" font-family="Helvetica,sans-Serif" font-size="10.00">MaievAI::FightWithIllidan</text>
</a>
</g>
</g>
<!-- Node2&#45;&gt;Node4 -->
<g id="edge3_Node000002_Node000004" class="edge">
<title>Node2&#45;&gt;Node4</title>
<g id="a_edge3_Node000002_Node000004"><a xlink:title=" ">
<path fill="none" stroke="#63b8ff" d="M450.85,-177.27C442.27,-177.22 433.6,-177.26 425.17,-177.39"/>
<polygon fill="#63b8ff" stroke="#63b8ff" points="450.84,-180.77 460.87,-177.36 450.9,-173.77 450.84,-180.77"/>
</a>
</g>
</g>
<!-- Node4&#45;&gt;Node2 -->
<g id="edge5_Node000004_Node000002" class="edge">
<title>Node4&#45;&gt;Node2</title>
<g id="a_edge5_Node000004_Node000002"><a xlink:title=" ">
<path fill="none" stroke="#63b8ff" d="M435.43,-190.72C443.91,-190.78 452.49,-190.75 460.87,-190.64"/>
<polygon fill="#63b8ff" stroke="#63b8ff" points="435.21,-187.22 425.17,-190.61 435.13,-194.22 435.21,-187.22"/>
</a>
</g>
</g>
<!-- Node4&#45;&gt;Node3 -->
<g id="edge4_Node000004_Node000003" class="edge">
<title>Node4&#45;&gt;Node3</title>
<g id="a_edge4_Node000004_Node000003"><a xlink:title=" ">
<path fill="none" stroke="#63b8ff" d="M275.58,-193.55C267,-194.59 258.42,-195.63 250.26,-196.62"/>
<polygon fill="#63b8ff" stroke="#63b8ff" points="276.13,-197.01 285.64,-192.33 275.29,-190.06 276.13,-197.01"/>
</a>
</g>
</g>
<!-- Node6 -->
<g id="Node000006" class="node">
<title>Node6</title>
<g id="a_Node000006"><a xlink:href="classIllidanStormrageAI.html#acd05904467879a17d0d47f667ab99250" target="_top" xlink:title=" ">
<polygon fill="white" stroke="#666666" points="250,-156 143,-156 143,-126 250,-126 250,-156"/>
<text text-anchor="start" x="151" y="-144" font-family="Helvetica,sans-Serif" font-size="10.00">IllidanStormrageAI</text>
<text text-anchor="middle" x="196.5" y="-133" font-family="Helvetica,sans-Serif" font-size="10.00">::PhaseThree</text>
</a>
</g>
</g>
<!-- Node5&#45;&gt;Node6 -->
<g id="edge7_Node000005_Node000006" class="edge">
<title>Node5&#45;&gt;Node6</title>
<g id="a_edge7_Node000005_Node000006"><a xlink:title=" ">
<path fill="none" stroke="#63b8ff" d="M291.45,-141C277.72,-141 263.34,-141 250.08,-141"/>
<polygon fill="#63b8ff" stroke="#63b8ff" points="291.78,-144.5 301.78,-141 291.78,-137.5 291.78,-144.5"/>
</a>
</g>
</g>
<!-- Node7 -->
<g id="Node000007" class="node">
<title>Node7</title>
<g id="a_Node000007"><a xlink:href="classIllidanStormrageAI.html#a1638486c1a86dbaec508daa3b8694e94" target="_top" xlink:title=" ">
<polygon fill="white" stroke="#666666" points="107,-108 0,-108 0,-78 107,-78 107,-108"/>
<text text-anchor="start" x="8" y="-96" font-family="Helvetica,sans-Serif" font-size="10.00">IllidanStormrageAI</text>
<text text-anchor="middle" x="53.5" y="-85" font-family="Helvetica,sans-Serif" font-size="10.00">::AIUpdate</text>
</a>
</g>
</g>
<!-- Node6&#45;&gt;Node7 -->
<g id="edge8_Node000006_Node000007" class="edge">
<title>Node6&#45;&gt;Node7</title>
<g id="a_edge8_Node000006_Node000007"><a xlink:title=" ">
<path fill="none" stroke="#63b8ff" d="M141.61,-122.65C127.39,-117.81 112.21,-112.64 98.57,-108"/>
<polygon fill="#63b8ff" stroke="#63b8ff" points="140.68,-126.03 151.27,-125.94 142.94,-119.41 140.68,-126.03"/>
</a>
</g>
</g>
<!-- Node9&#45;&gt;Node7 -->
<g id="edge11_Node000009_Node000007" class="edge">
<title>Node9&#45;&gt;Node7</title>
<g id="a_edge11_Node000009_Node000007"><a xlink:title=" ">
<path fill="none" stroke="#63b8ff" d="M469.42,-59.2C392.24,-55.61 257.25,-52.89 143,-69 129.29,-70.93 114.67,-74.33 101.35,-77.96"/>
<polygon fill="#63b8ff" stroke="#63b8ff" points="469.3,-62.7 479.46,-59.69 469.64,-55.71 469.3,-62.7"/>
</a>
</g>
</g>
<!-- Node9&#45;&gt;Node10 -->
<g id="edge12_Node000009_Node000010" class="edge">
<title>Node9&#45;&gt;Node10</title>
<g id="a_edge12_Node000009_Node000010"><a xlink:title=" ">
<path fill="none" stroke="#63b8ff" d="M469.37,-67.21C449.33,-70.22 427.38,-74.07 408.21,-77.94"/>
<polygon fill="#63b8ff" stroke="#63b8ff" points="469.95,-70.66 479.34,-65.76 468.94,-63.73 469.95,-70.66"/>
</a>
</g>
</g>
<!-- Node10&#45;&gt;Node6 -->
<g id="edge16_Node000010_Node000006" class="edge">
<title>Node10&#45;&gt;Node6</title>
<g id="a_edge16_Node000010_Node000006"><a xlink:title=" ">
<path fill="none" stroke="#63b8ff" d="M295.41,-111.07C279.31,-115.99 262.05,-121.27 246.57,-126"/>
<polygon fill="#63b8ff" stroke="#63b8ff" points="296.72,-114.33 305.25,-108.06 294.67,-107.63 296.72,-114.33"/>
</a>
</g>
</g>
<!-- Node10&#45;&gt;Node9 -->
<g id="edge15_Node000010_Node000009" class="edge">
<title>Node10&#45;&gt;Node9</title>
<g id="a_edge15_Node000010_Node000009"><a xlink:title=" ">
<path fill="none" stroke="#63b8ff" d="M419.04,-88.81C439.1,-85.79 461.09,-81.94 480.29,-78.05"/>
<polygon fill="#63b8ff" stroke="#63b8ff" points="418.44,-85.36 409.05,-90.26 419.45,-92.28 418.44,-85.36"/>
</a>
</g>
</g>
<!-- Node11 -->
<g id="Node000011" class="node">
<title>Node11</title>
<g id="a_Node000011"><a xlink:href="classIllidanStormrageAI.html#a99ca5f6ceaf09f5c5409ed7e2ba47cc8" target="_top" xlink:title=" ">
<polygon fill="white" stroke="#666666" points="250,-108 143,-108 143,-78 250,-78 250,-108"/>
<text text-anchor="start" x="151" y="-96" font-family="Helvetica,sans-Serif" font-size="10.00">IllidanStormrageAI</text>
<text text-anchor="middle" x="196.5" y="-85" font-family="Helvetica,sans-Serif" font-size="10.00">::PhaseFive</text>
</a>
</g>
</g>
<!-- Node10&#45;&gt;Node11 -->
<g id="edge13_Node000010_Node000011" class="edge">
<title>Node10&#45;&gt;Node11</title>
<g id="a_edge13_Node000010_Node000011"><a xlink:title=" ">
<path fill="none" stroke="#63b8ff" d="M291.45,-93C277.72,-93 263.34,-93 250.08,-93"/>
<polygon fill="#63b8ff" stroke="#63b8ff" points="291.78,-96.5 301.78,-93 291.78,-89.5 291.78,-96.5"/>
</a>
</g>
</g>
<!-- Node11&#45;&gt;Node7 -->
<g id="edge14_Node000011_Node000007" class="edge">
<title>Node11&#45;&gt;Node7</title>
<g id="a_edge14_Node000011_Node000007"><a xlink:title=" ">
<path fill="none" stroke="#63b8ff" d="M132.95,-93C124.3,-93 115.49,-93 107.05,-93"/>
<polygon fill="#63b8ff" stroke="#63b8ff" points="133,-96.5 143,-93 133,-89.5 133,-96.5"/>
</a>
</g>
</g>
</g>
</svg>
