<?xml version="1.0" encoding="UTF-8" standalone="no"?>
<!DOCTYPE svg PUBLIC "-//W3C//DTD SVG 1.1//EN"
 "http://www.w3.org/Graphics/SVG/1.1/DTD/svg11.dtd">
<!-- Generated by graphviz version 2.43.0 (0)
 -->
<!-- Title: LuaSpell::SetVar Pages: 1 -->
<svg width="423pt" height="103pt"
 viewBox="0.00 0.00 423.00 103.00" xmlns="http://www.w3.org/2000/svg" xmlns:xlink="http://www.w3.org/1999/xlink">

<svg id="main" version="1.1" xmlns="http://www.w3.org/2000/svg" xmlns:xlink="http://www.w3.org/1999/xlink" xml:space="preserve" onload="init(evt)">
<style type="text/css"><![CDATA[
.node, .edge {opacity: 0.7;}
.node.selected, .edge.selected {opacity: 1;}
.edge:hover path { stroke: red; }
.edge:hover polygon { stroke: red; fill: red; }
]]></style>
<script type="application/ecmascript" xlink:href="svg.min.js"/>
<svg id="graph" class="graph">
<g id="graph0" class="graph" transform="scale(1 1) rotate(0) translate(4 99)">
<title>LuaSpell::SetVar</title>
<!-- Node1 -->
<g id="Node000001" class="node">
<title>Node1</title>
<g id="a_Node000001"><a xlink:title=" ">
<polygon fill="#999999" stroke="#666666" points="95,-57 0,-57 0,-38 95,-38 95,-57"/>
<text text-anchor="middle" x="47.5" y="-45" font-family="Helvetica,sans-Serif" font-size="10.00">LuaSpell::SetVar</text>
</a>
</g>
</g>
<!-- Node2 -->
<g id="Node000002" class="node">
<title>Node2</title>
<g id="a_Node000002"><a xlink:href="LuaSpell_8hpp.html#a68e8c553dc22262c6d0a487374df7446" target="_top" xlink:title=" ">
<polygon fill="white" stroke="#666666" points="274,-95 131,-95 131,-76 274,-76 274,-95"/>
<text text-anchor="middle" x="202.5" y="-83" font-family="Helvetica,sans-Serif" font-size="10.00">GetLuaSpellEntryByName</text>
</a>
</g>
</g>
<!-- Node1&#45;&gt;Node2 -->
<g id="edge1_Node000001_Node000002" class="edge">
<title>Node1&#45;&gt;Node2</title>
<g id="a_edge1_Node000001_Node000002"><a xlink:title=" ">
<path fill="none" stroke="#63b8ff" d="M87.11,-57.09C107.21,-62.08 131.98,-68.23 153.32,-73.53"/>
<polygon fill="#63b8ff" stroke="#63b8ff" points="152.62,-76.97 163.17,-75.98 154.31,-70.17 152.62,-76.97"/>
</a>
</g>
</g>
<!-- Node3 -->
<g id="Node000003" class="node">
<title>Node3</title>
<g id="a_Node000003"><a xlink:href="classSpell.html#a31ea380b4c8a3126724742c792b53638" target="_top" xlink:title=" ">
<polygon fill="white" stroke="#666666" points="415,-38 310,-38 310,-19 415,-19 415,-38"/>
<text text-anchor="middle" x="362.5" y="-26" font-family="Helvetica,sans-Serif" font-size="10.00">Spell::getSpellInfo</text>
</a>
</g>
</g>
<!-- Node1&#45;&gt;Node3 -->
<g id="edge2_Node000001_Node000003" class="edge">
<title>Node1&#45;&gt;Node3</title>
<g id="a_edge2_Node000001_Node000003"><a xlink:title=" ">
<path fill="none" stroke="#63b8ff" d="M95.02,-44.68C149.35,-41.38 239.45,-35.91 299.63,-32.26"/>
<polygon fill="#63b8ff" stroke="#63b8ff" points="300,-35.74 309.77,-31.64 299.57,-28.75 300,-35.74"/>
</a>
</g>
</g>
<!-- Node4 -->
<g id="Node000004" class="node">
<title>Node4</title>
<g id="a_Node000004"><a xlink:href="classSpell.html#a1af4f53f1e5d36af7771f88e89b7d7a5" target="_top" xlink:title=" ">
<polygon fill="white" stroke="#666666" points="267.5,-19 137.5,-19 137.5,0 267.5,0 267.5,-19"/>
<text text-anchor="middle" x="202.5" y="-7" font-family="Helvetica,sans-Serif" font-size="10.00">Spell::InitProtoOverride</text>
</a>
</g>
</g>
<!-- Node1&#45;&gt;Node4 -->
<g id="edge3_Node000001_Node000004" class="edge">
<title>Node1&#45;&gt;Node4</title>
<g id="a_edge3_Node000001_Node000004"><a xlink:title=" ">
<path fill="none" stroke="#63b8ff" d="M87.11,-37.91C107.21,-32.92 131.98,-26.77 153.32,-21.47"/>
<polygon fill="#63b8ff" stroke="#63b8ff" points="154.31,-24.83 163.17,-19.02 152.62,-18.03 154.31,-24.83"/>
</a>
</g>
</g>
<!-- Node4&#45;&gt;Node3 -->
<g id="edge4_Node000004_Node000003" class="edge">
<title>Node4&#45;&gt;Node3</title>
<g id="a_edge4_Node000004_Node000003"><a xlink:title=" ">
<path fill="none" stroke="#63b8ff" d="M267.76,-17.23C278.38,-18.5 289.37,-19.83 299.92,-21.09"/>
<polygon fill="#63b8ff" stroke="#63b8ff" points="299.53,-24.57 309.87,-22.29 300.36,-17.62 299.53,-24.57"/>
</a>
</g>
</g>
</g>
</svg>
</svg>

<style type='text/css'>
<![CDATA[
[data-mouse-over-selected='false'] { opacity: 0.7; }
[data-mouse-over-selected='true']  { opacity: 1.0; }
]]>
</style>
<script type="application/ecmascript"><![CDATA[
document.addEventListener('DOMContentLoaded', (event) => {
  highlightEdges();
  highlightAdjacentNodes();
});
]]></script>
</svg>
