<?xml version="1.0" encoding="UTF-8" standalone="no"?>
<!DOCTYPE svg PUBLIC "-//W3C//DTD SVG 1.1//EN"
 "http://www.w3.org/Graphics/SVG/1.1/DTD/svg11.dtd">
<!-- Generated by graphviz version 2.43.0 (0)
 -->
<!-- Title: G3D::Color3::fromHSV Pages: 1 -->
<svg width="336pt" height="64pt"
 viewBox="0.00 0.00 336.00 64.00" xmlns="http://www.w3.org/2000/svg" xmlns:xlink="http://www.w3.org/1999/xlink">
<g id="graph0" class="graph" transform="scale(1 1) rotate(0) translate(4 60)">
<title>G3D::Color3::fromHSV</title>
<!-- Node1 -->
<g id="Node000001" class="node">
<title>Node1</title>
<g id="a_Node000001"><a xlink:title=" ">
<polygon fill="#999999" stroke="#666666" points="328,-37 203,-37 203,-18 328,-18 328,-37"/>
<text text-anchor="middle" x="265.5" y="-25" font-family="Helvetica,sans-Serif" font-size="10.00">G3D::Color3::fromHSV</text>
</a>
</g>
</g>
<!-- Node2 -->
<g id="Node000002" class="node">
<title>Node2</title>
<g id="a_Node000002"><a xlink:href="classG3D_1_1Color3.html#a8eb2a5a8ca026b4f9247352868921a60" target="_top" xlink:title=" ">
<polygon fill="white" stroke="#666666" points="149.5,-56 17.5,-56 17.5,-37 149.5,-37 149.5,-56"/>
<text text-anchor="middle" x="83.5" y="-44" font-family="Helvetica,sans-Serif" font-size="10.00">G3D::Color3::pastelMap</text>
</a>
</g>
</g>
<!-- Node1&#45;&gt;Node2 -->
<g id="edge1_Node000001_Node000002" class="edge">
<title>Node1&#45;&gt;Node2</title>
<g id="a_edge1_Node000001_Node000002"><a xlink:title=" ">
<path fill="none" stroke="#63b8ff" d="M192.64,-35.09C178.49,-36.58 163.72,-38.14 149.8,-39.61"/>
<polygon fill="#63b8ff" stroke="#63b8ff" points="193.23,-38.54 202.81,-34.01 192.49,-31.58 193.23,-38.54"/>
</a>
</g>
</g>
<!-- Node3 -->
<g id="Node000003" class="node">
<title>Node3</title>
<g id="a_Node000003"><a xlink:href="classG3D_1_1Color3.html#a62c099039263593476f4b6508bff8678" target="_top" xlink:title=" ">
<polygon fill="white" stroke="#666666" points="167,-19 0,-19 0,0 167,0 167,-19"/>
<text text-anchor="middle" x="83.5" y="-7" font-family="Helvetica,sans-Serif" font-size="10.00">G3D::Color3::rainbowColorMap</text>
</a>
</g>
</g>
<!-- Node1&#45;&gt;Node3 -->
<g id="edge2_Node000001_Node000003" class="edge">
<title>Node1&#45;&gt;Node3</title>
<g id="a_edge2_Node000001_Node000003"><a xlink:title=" ">
<path fill="none" stroke="#63b8ff" d="M192.68,-20.32C184.28,-19.48 175.65,-18.61 167.11,-17.76"/>
<polygon fill="#63b8ff" stroke="#63b8ff" points="192.51,-23.82 202.81,-21.33 193.2,-16.85 192.51,-23.82"/>
</a>
</g>
</g>
</g>
</svg>
