<?xml version="1.0" encoding="UTF-8" standalone="no"?>
<!DOCTYPE svg PUBLIC "-//W3C//DTD SVG 1.1//EN"
 "http://www.w3.org/Graphics/SVG/1.1/DTD/svg11.dtd">
<!-- Generated by graphviz version 2.43.0 (0)
 -->
<!-- Title: Unit::emote Pages: 1 -->
<svg width="408pt" height="101pt"
 viewBox="0.00 0.00 408.00 101.00" xmlns="http://www.w3.org/2000/svg" xmlns:xlink="http://www.w3.org/1999/xlink">

<svg id="main" version="1.1" xmlns="http://www.w3.org/2000/svg" xmlns:xlink="http://www.w3.org/1999/xlink" xml:space="preserve" onload="init(evt)">
<style type="text/css"><![CDATA[
.node, .edge {opacity: 0.7;}
.node.selected, .edge.selected {opacity: 1;}
.edge:hover path { stroke: red; }
.edge:hover polygon { stroke: red; fill: red; }
]]></style>
<script type="application/ecmascript" xlink:href="svg.min.js"/>
<svg id="graph" class="graph">
<g id="graph0" class="graph" transform="scale(1 1) rotate(0) translate(4 97)">
<title>Unit::emote</title>
<!-- Node1 -->
<g id="Node000001" class="node">
<title>Node1</title>
<g id="a_Node000001"><a xlink:title=" ">
<polygon fill="#999999" stroke="#666666" points="74,-74 0,-74 0,-55 74,-55 74,-74"/>
<text text-anchor="middle" x="37" y="-62" font-family="Helvetica,sans-Serif" font-size="10.00">Unit::emote</text>
</a>
</g>
</g>
<!-- Node1&#45;&gt;Node1 -->
<g id="edge1_Node000001_Node000001" class="edge">
<title>Node1&#45;&gt;Node1</title>
<g id="a_edge1_Node000001_Node000001"><a xlink:title=" ">
<path fill="none" stroke="#63b8ff" d="M14.5,-74.08C3.55,-82.73 11.05,-92 37,-92 53.62,-92 62.68,-88.2 64.16,-83.19"/>
<polygon fill="#63b8ff" stroke="#63b8ff" points="67.17,-81.39 59.5,-74.08 60.94,-84.58 67.17,-81.39"/>
</a>
</g>
</g>
<!-- Node2 -->
<g id="Node000002" class="node">
<title>Node2</title>
<g id="a_Node000002"><a xlink:href="classObject.html#a0f6639fef4e90bc57ee1b34a81d6d489" target="_top" xlink:title=" ">
<polygon fill="white" stroke="#666666" points="229.5,-93 137.5,-93 137.5,-74 229.5,-74 229.5,-93"/>
<text text-anchor="middle" x="183.5" y="-81" font-family="Helvetica,sans-Serif" font-size="10.00">Object::getGuid</text>
</a>
</g>
</g>
<!-- Node1&#45;&gt;Node2 -->
<g id="edge2_Node000001_Node000002" class="edge">
<title>Node1&#45;&gt;Node2</title>
<g id="a_edge2_Node000001_Node000002"><a xlink:title=" ">
<path fill="none" stroke="#63b8ff" d="M74.09,-69.25C90.09,-71.35 109.28,-73.87 127.04,-76.21"/>
<polygon fill="#63b8ff" stroke="#63b8ff" points="126.93,-79.72 137.3,-77.56 127.84,-72.78 126.93,-79.72"/>
</a>
</g>
</g>
<!-- Node4 -->
<g id="Node000004" class="node">
<title>Node4</title>
<g id="a_Node000004"><a xlink:href="classObject.html#afbafc0f687c733c81277b15e53c082c7" target="_top" xlink:title=" ">
<polygon fill="white" stroke="#666666" points="257,-56 110,-56 110,-37 257,-37 257,-56"/>
<text text-anchor="middle" x="183.5" y="-44" font-family="Helvetica,sans-Serif" font-size="10.00">Object::sendMessageToSet</text>
</a>
</g>
</g>
<!-- Node1&#45;&gt;Node4 -->
<g id="edge4_Node000001_Node000004" class="edge">
<title>Node1&#45;&gt;Node4</title>
<g id="a_edge4_Node000001_Node000004"><a xlink:title=" ">
<path fill="none" stroke="#63b8ff" d="M74.09,-60C82.05,-59.01 90.79,-57.92 99.76,-56.81"/>
<polygon fill="#63b8ff" stroke="#63b8ff" points="100.45,-60.25 109.94,-55.54 99.59,-53.3 100.45,-60.25"/>
</a>
</g>
</g>
<!-- Node3 -->
<g id="Node000003" class="node">
<title>Node3</title>
<g id="a_Node000003"><a xlink:href="classObject.html#ae9814731421ab3e919a2e5c3b86e0eeb" target="_top" xlink:title=" ">
<polygon fill="white" stroke="#666666" points="400,-93 293,-93 293,-74 400,-74 400,-93"/>
<text text-anchor="middle" x="346.5" y="-81" font-family="Helvetica,sans-Serif" font-size="10.00">Object::objectData</text>
</a>
</g>
</g>
<!-- Node2&#45;&gt;Node3 -->
<g id="edge3_Node000002_Node000003" class="edge">
<title>Node2&#45;&gt;Node3</title>
<g id="a_edge3_Node000002_Node000003"><a xlink:title=" ">
<path fill="none" stroke="#63b8ff" d="M229.78,-83.5C246.18,-83.5 265.02,-83.5 282.66,-83.5"/>
<polygon fill="#63b8ff" stroke="#63b8ff" points="282.89,-87 292.89,-83.5 282.89,-80 282.89,-87"/>
</a>
</g>
</g>
<!-- Node5 -->
<g id="Node000005" class="node">
<title>Node5</title>
<g id="a_Node000005"><a xlink:href="classObject.html#ab32822d3603e26f4a51e881215d49520" target="_top" xlink:title=" ">
<polygon fill="white" stroke="#666666" points="397,-56 296,-56 296,-37 397,-37 397,-56"/>
<text text-anchor="middle" x="346.5" y="-44" font-family="Helvetica,sans-Serif" font-size="10.00">Object::GetPhase</text>
</a>
</g>
</g>
<!-- Node4&#45;&gt;Node5 -->
<g id="edge5_Node000004_Node000005" class="edge">
<title>Node4&#45;&gt;Node5</title>
<g id="a_edge5_Node000004_Node000005"><a xlink:title=" ">
<path fill="none" stroke="#63b8ff" d="M257.46,-46.5C266.89,-46.5 276.46,-46.5 285.65,-46.5"/>
<polygon fill="#63b8ff" stroke="#63b8ff" points="285.83,-50 295.83,-46.5 285.83,-43 285.83,-50"/>
</a>
</g>
</g>
<!-- Node6 -->
<g id="Node000006" class="node">
<title>Node6</title>
<g id="a_Node000006"><a xlink:href="classObject.html#a3aeab7def818ba6c50249f197ad2f9ca" target="_top" xlink:title=" ">
<polygon fill="white" stroke="#666666" points="396,-19 297,-19 297,0 396,0 396,-19"/>
<text text-anchor="middle" x="346.5" y="-7" font-family="Helvetica,sans-Serif" font-size="10.00">Object::IsInWorld</text>
</a>
</g>
</g>
<!-- Node4&#45;&gt;Node6 -->
<g id="edge6_Node000004_Node000006" class="edge">
<title>Node4&#45;&gt;Node6</title>
<g id="a_edge6_Node000004_Node000006"><a xlink:title=" ">
<path fill="none" stroke="#63b8ff" d="M225.96,-36.97C246.73,-32.2 272.06,-26.38 294.06,-21.32"/>
<polygon fill="#63b8ff" stroke="#63b8ff" points="294.94,-24.71 303.9,-19.06 293.37,-17.89 294.94,-24.71"/>
</a>
</g>
</g>
</g>
</svg>
</svg>

<style type='text/css'>
<![CDATA[
[data-mouse-over-selected='false'] { opacity: 0.7; }
[data-mouse-over-selected='true']  { opacity: 1.0; }
]]>
</style>
<script type="application/ecmascript"><![CDATA[
document.addEventListener('DOMContentLoaded', (event) => {
  highlightEdges();
  highlightAdjacentNodes();
});
]]></script>
</svg>
