<?xml version="1.0" encoding="UTF-8" standalone="no"?>
<!DOCTYPE svg PUBLIC "-//W3C//DTD SVG 1.1//EN"
 "http://www.w3.org/Graphics/SVG/1.1/DTD/svg11.dtd">
<!-- Generated by graphviz version 2.43.0 (0)
 -->
<!-- Title: TwinsAI::intro Pages: 1 -->
<svg width="689pt" height="248pt"
 viewBox="0.00 0.00 689.00 248.00" xmlns="http://www.w3.org/2000/svg" xmlns:xlink="http://www.w3.org/1999/xlink">
<g id="graph0" class="graph" transform="scale(1 1) rotate(0) translate(4 244)">
<title>TwinsAI::intro</title>
<!-- Node1 -->
<g id="Node000001" class="node">
<title>Node1</title>
<g id="a_Node000001"><a xlink:title=" ">
<polygon fill="#999999" stroke="#666666" points="82,-123.5 0,-123.5 0,-104.5 82,-104.5 82,-123.5"/>
<text text-anchor="middle" x="41" y="-111.5" font-family="Helvetica,sans-Serif" font-size="10.00">TwinsAI::intro</text>
</a>
</g>
</g>
<!-- Node2 -->
<g id="Node000002" class="node">
<title>Node2</title>
<g id="a_Node000002"><a xlink:href="classCreatureAIScript.html#a5e1c430a38f86eb1426988ac1c6d1277" target="_top" xlink:title=" ">
<polygon fill="white" stroke="#666666" points="276,-174 118,-174 118,-144 276,-144 276,-174"/>
<text text-anchor="start" x="126" y="-162" font-family="Helvetica,sans-Serif" font-size="10.00">CreatureAIScript::moveAlong</text>
<text text-anchor="middle" x="197" y="-151" font-family="Helvetica,sans-Serif" font-size="10.00">SplineChain</text>
</a>
</g>
</g>
<!-- Node1&#45;&gt;Node2 -->
<g id="edge1_Node000001_Node000002" class="edge">
<title>Node1&#45;&gt;Node2</title>
<g id="a_edge1_Node000001_Node000002"><a xlink:title=" ">
<path fill="none" stroke="#63b8ff" d="M74.66,-123.54C92.19,-128.67 114.37,-135.15 134.96,-141.16"/>
<polygon fill="#63b8ff" stroke="#63b8ff" points="134.02,-144.54 144.6,-143.98 135.98,-137.82 134.02,-144.54"/>
</a>
</g>
</g>
<!-- Node6 -->
<g id="Node000006" class="node">
<title>Node6</title>
<g id="a_Node000006"><a xlink:href="classCreatureAIScript.html#adc0c14e9d2944815de0345d8b9231215" target="_top" xlink:title=" ">
<polygon fill="white" stroke="#666666" points="269.5,-105 124.5,-105 124.5,-75 269.5,-75 269.5,-105"/>
<text text-anchor="start" x="132.5" y="-93" font-family="Helvetica,sans-Serif" font-size="10.00">CreatureAIScript::setScript</text>
<text text-anchor="middle" x="197" y="-82" font-family="Helvetica,sans-Serif" font-size="10.00">Phase</text>
</a>
</g>
</g>
<!-- Node1&#45;&gt;Node6 -->
<g id="edge6_Node000001_Node000006" class="edge">
<title>Node1&#45;&gt;Node6</title>
<g id="a_edge6_Node000001_Node000006"><a xlink:title=" ">
<path fill="none" stroke="#63b8ff" d="M82.06,-107.76C91.95,-106.22 102.91,-104.51 114.01,-102.78"/>
<polygon fill="#63b8ff" stroke="#63b8ff" points="114.88,-106.19 124.22,-101.19 113.8,-99.27 114.88,-106.19"/>
</a>
</g>
</g>
<!-- Node3 -->
<g id="Node000003" class="node">
<title>Node3</title>
<g id="a_Node000003"><a xlink:href="classCreatureAIScript.html#a27573ef4c4a6d2413dde46385568600e" target="_top" xlink:title=" ">
<polygon fill="white" stroke="#666666" points="483.5,-240 313.5,-240 313.5,-210 483.5,-210 483.5,-240"/>
<text text-anchor="start" x="321.5" y="-228" font-family="Helvetica,sans-Serif" font-size="10.00">CreatureAIScript::getMovement</text>
<text text-anchor="middle" x="398.5" y="-217" font-family="Helvetica,sans-Serif" font-size="10.00">Manager</text>
</a>
</g>
</g>
<!-- Node2&#45;&gt;Node3 -->
<g id="edge2_Node000002_Node000003" class="edge">
<title>Node2&#45;&gt;Node3</title>
<g id="a_edge2_Node000002_Node000003"><a xlink:title=" ">
<path fill="none" stroke="#63b8ff" d="M236.52,-174.06C258.48,-182.42 286.62,-192.78 312,-201 318.31,-203.04 324.91,-205.08 331.52,-207.05"/>
<polygon fill="#63b8ff" stroke="#63b8ff" points="330.62,-210.43 341.2,-209.88 332.59,-203.71 330.62,-210.43"/>
</a>
</g>
</g>
<!-- Node4 -->
<g id="Node000004" class="node">
<title>Node4</title>
<g id="a_Node000004"><a xlink:href="classMovementManager.html#a605fae7b48b934a5628175803d2ef847" target="_top" xlink:title=" ">
<polygon fill="white" stroke="#666666" points="485,-174 312,-174 312,-144 485,-144 485,-174"/>
<text text-anchor="start" x="320" y="-162" font-family="Helvetica,sans-Serif" font-size="10.00">MovementManager::moveAlong</text>
<text text-anchor="middle" x="398.5" y="-151" font-family="Helvetica,sans-Serif" font-size="10.00">SplineChain</text>
</a>
</g>
</g>
<!-- Node2&#45;&gt;Node4 -->
<g id="edge3_Node000002_Node000004" class="edge">
<title>Node2&#45;&gt;Node4</title>
<g id="a_edge3_Node000002_Node000004"><a xlink:title=" ">
<path fill="none" stroke="#63b8ff" d="M276.28,-159C284.67,-159 293.28,-159 301.85,-159"/>
<polygon fill="#63b8ff" stroke="#63b8ff" points="301.87,-162.5 311.87,-159 301.87,-155.5 301.87,-162.5"/>
</a>
</g>
</g>
<!-- Node4&#45;&gt;Node4 -->
<g id="edge4_Node000004_Node000004" class="edge">
<title>Node4&#45;&gt;Node4</title>
<g id="a_edge4_Node000004_Node000004"><a xlink:title=" ">
<path fill="none" stroke="#63b8ff" d="M363.34,-174.28C355.53,-183.41 367.25,-192 398.5,-192 417.05,-192 428.72,-188.97 433.51,-184.6"/>
<polygon fill="#63b8ff" stroke="#63b8ff" points="437.01,-184.32 433.66,-174.28 430.01,-184.22 437.01,-184.32"/>
</a>
</g>
</g>
<!-- Node5 -->
<g id="Node000005" class="node">
<title>Node5</title>
<g id="a_Node000005"><a xlink:href="classObject.html#ab0e2ef1ac1daa91476f749e0ec6ad3c6" target="_top" xlink:title=" ">
<polygon fill="white" stroke="#666666" points="654.5,-189.5 547.5,-189.5 547.5,-170.5 654.5,-170.5 654.5,-189.5"/>
<text text-anchor="middle" x="601" y="-177.5" font-family="Helvetica,sans-Serif" font-size="10.00">Object::ToCreature</text>
</a>
</g>
</g>
<!-- Node4&#45;&gt;Node5 -->
<g id="edge5_Node000004_Node000005" class="edge">
<title>Node4&#45;&gt;Node5</title>
<g id="a_edge5_Node000004_Node000005"><a xlink:title=" ">
<path fill="none" stroke="#63b8ff" d="M485.11,-167.97C502.65,-169.8 520.8,-171.71 537.36,-173.44"/>
<polygon fill="#63b8ff" stroke="#63b8ff" points="537.12,-176.93 547.43,-174.49 537.85,-169.97 537.12,-176.93"/>
</a>
</g>
</g>
<!-- Node7 -->
<g id="Node000007" class="node">
<title>Node7</title>
<g id="a_Node000007"><a xlink:href="classCreatureAIScript.html#ac7c4ef204b4b6eaa12eb729b028f8eb5" target="_top" xlink:title=" ">
<polygon fill="white" stroke="#666666" points="482,-116 315,-116 315,-86 482,-86 482,-116"/>
<text text-anchor="start" x="323" y="-104" font-family="Helvetica,sans-Serif" font-size="10.00">CreatureAIScript::</text>
<text text-anchor="middle" x="398.5" y="-93" font-family="Helvetica,sans-Serif" font-size="10.00">_internalOnScriptPhaseChange</text>
</a>
</g>
</g>
<!-- Node6&#45;&gt;Node7 -->
<g id="edge7_Node000006_Node000007" class="edge">
<title>Node6&#45;&gt;Node7</title>
<g id="a_edge7_Node000006_Node000007"><a xlink:title=" ">
<path fill="none" stroke="#63b8ff" d="M269.74,-93.96C281.06,-94.58 292.9,-95.23 304.62,-95.88"/>
<polygon fill="#63b8ff" stroke="#63b8ff" points="304.69,-99.39 314.86,-96.44 305.07,-92.4 304.69,-99.39"/>
</a>
</g>
</g>
<!-- Node10 -->
<g id="Node000010" class="node">
<title>Node10</title>
<g id="a_Node000010"><a xlink:href="classCreatureAIScript.html#a7f195b0c206a26688163a2009ba2df90" target="_top" xlink:title=" ">
<polygon fill="white" stroke="#666666" points="674,-30 528,-30 528,0 674,0 674,-30"/>
<text text-anchor="start" x="536" y="-18" font-family="Helvetica,sans-Serif" font-size="10.00">CreatureAIScript::getScript</text>
<text text-anchor="middle" x="601" y="-7" font-family="Helvetica,sans-Serif" font-size="10.00">Phase</text>
</a>
</g>
</g>
<!-- Node6&#45;&gt;Node10 -->
<g id="edge12_Node000006_Node000010" class="edge">
<title>Node6&#45;&gt;Node10</title>
<g id="a_edge12_Node000006_Node000010"><a xlink:title=" ">
<path fill="none" stroke="#63b8ff" d="M269.76,-77.86C327.88,-67.88 411.83,-53.13 485,-39 496.15,-36.85 507.89,-34.49 519.44,-32.13"/>
<polygon fill="#63b8ff" stroke="#63b8ff" points="520.43,-35.5 529.52,-30.06 519.02,-28.64 520.43,-35.5"/>
</a>
</g>
</g>
<!-- Node12 -->
<g id="Node000012" class="node">
<title>Node12</title>
<g id="a_Node000012"><a xlink:href="classCreatureAIScript.html#a47a1afe481474f3d8f1b15263c211f05" target="_top" xlink:title=" ">
<polygon fill="white" stroke="#666666" points="467.5,-30 329.5,-30 329.5,0 467.5,0 467.5,-30"/>
<text text-anchor="start" x="337.5" y="-18" font-family="Helvetica,sans-Serif" font-size="10.00">CreatureAIScript::isScript</text>
<text text-anchor="middle" x="398.5" y="-7" font-family="Helvetica,sans-Serif" font-size="10.00">Phase</text>
</a>
</g>
</g>
<!-- Node6&#45;&gt;Node12 -->
<g id="edge13_Node000006_Node000012" class="edge">
<title>Node6&#45;&gt;Node12</title>
<g id="a_edge13_Node000006_Node000012"><a xlink:title=" ">
<path fill="none" stroke="#63b8ff" d="M233.74,-74.98C256.1,-65.72 285.59,-53.8 312,-44 321.69,-40.41 332.06,-36.74 342.11,-33.28"/>
<polygon fill="#63b8ff" stroke="#63b8ff" points="343.3,-36.57 351.63,-30.03 341.03,-29.95 343.3,-36.57"/>
</a>
</g>
</g>
<!-- Node8 -->
<g id="Node000008" class="node">
<title>Node8</title>
<g id="a_Node000008"><a xlink:href="classCreatureAIScript.html#a971bb1373556b3ec594d8f7ba5f5e6e6" target="_top" xlink:title=" ">
<polygon fill="white" stroke="#666666" points="681,-152.5 521,-152.5 521,-133.5 681,-133.5 681,-152.5"/>
<text text-anchor="middle" x="601" y="-140.5" font-family="Helvetica,sans-Serif" font-size="10.00">CreatureAIScript::getCreature</text>
</a>
</g>
</g>
<!-- Node7&#45;&gt;Node8 -->
<g id="edge8_Node000007_Node000008" class="edge">
<title>Node7&#45;&gt;Node8</title>
<g id="a_edge8_Node000007_Node000008"><a xlink:title=" ">
<path fill="none" stroke="#63b8ff" d="M471.32,-116.04C495.5,-121.11 522.08,-126.68 544.77,-131.43"/>
<polygon fill="#63b8ff" stroke="#63b8ff" points="544.07,-134.86 554.57,-133.48 545.5,-128.01 544.07,-134.86"/>
</a>
</g>
</g>
<!-- Node9 -->
<g id="Node000009" class="node">
<title>Node9</title>
<g id="a_Node000009"><a xlink:href="classCreature.html#a4741a4d1f2ae430afad44cfb608aaf31" target="_top" xlink:title=" ">
<polygon fill="white" stroke="#666666" points="656,-115.5 546,-115.5 546,-96.5 656,-96.5 656,-115.5"/>
<text text-anchor="middle" x="601" y="-103.5" font-family="Helvetica,sans-Serif" font-size="10.00">Creature::GetScript</text>
</a>
</g>
</g>
<!-- Node7&#45;&gt;Node9 -->
<g id="edge9_Node000007_Node000009" class="edge">
<title>Node7&#45;&gt;Node9</title>
<g id="a_edge9_Node000007_Node000009"><a xlink:title=" ">
<path fill="none" stroke="#63b8ff" d="M482.21,-103.06C499.99,-103.51 518.52,-103.97 535.49,-104.39"/>
<polygon fill="#63b8ff" stroke="#63b8ff" points="535.74,-107.9 545.83,-104.65 535.92,-100.9 535.74,-107.9"/>
</a>
</g>
</g>
<!-- Node7&#45;&gt;Node10 -->
<g id="edge10_Node000007_Node000010" class="edge">
<title>Node7&#45;&gt;Node10</title>
<g id="a_edge10_Node000007_Node000010"><a xlink:title=" ">
<path fill="none" stroke="#63b8ff" d="M455.27,-85.84C465.5,-82.02 475.83,-77.43 485,-72 503.68,-60.94 502.15,-49.76 521,-39 524.08,-37.24 527.31,-35.6 530.62,-34.07"/>
<polygon fill="#63b8ff" stroke="#63b8ff" points="532.29,-37.16 540.13,-30.03 529.55,-30.72 532.29,-37.16"/>
</a>
</g>
</g>
<!-- Node11 -->
<g id="Node000011" class="node">
<title>Node11</title>
<g id="a_Node000011"><a xlink:href="classCreatureAIScript.html#a3d91801a4f86abb62944f970cec4b0a7" target="_top" xlink:title=" ">
<polygon fill="white" stroke="#666666" points="672.5,-78 529.5,-78 529.5,-48 672.5,-48 672.5,-78"/>
<text text-anchor="start" x="537.5" y="-66" font-family="Helvetica,sans-Serif" font-size="10.00">CreatureAIScript::OnScript</text>
<text text-anchor="middle" x="601" y="-55" font-family="Helvetica,sans-Serif" font-size="10.00">PhaseChange</text>
</a>
</g>
</g>
<!-- Node7&#45;&gt;Node11 -->
<g id="edge11_Node000007_Node000011" class="edge">
<title>Node7&#45;&gt;Node11</title>
<g id="a_edge11_Node000007_Node000011"><a xlink:title=" ">
<path fill="none" stroke="#63b8ff" d="M478.74,-85.98C492.09,-83.45 505.95,-80.82 519.34,-78.29"/>
<polygon fill="#63b8ff" stroke="#63b8ff" points="520.28,-81.67 529.46,-76.37 518.98,-74.79 520.28,-81.67"/>
</a>
</g>
</g>
<!-- Node12&#45;&gt;Node10 -->
<g id="edge14_Node000012_Node000010" class="edge">
<title>Node12&#45;&gt;Node10</title>
<g id="a_edge14_Node000012_Node000010"><a xlink:title=" ">
<path fill="none" stroke="#63b8ff" d="M467.66,-15C483.74,-15 501.04,-15 517.67,-15"/>
<polygon fill="#63b8ff" stroke="#63b8ff" points="517.92,-18.5 527.92,-15 517.92,-11.5 517.92,-18.5"/>
</a>
</g>
</g>
</g>
</svg>
