<?xml version="1.0" encoding="UTF-8" standalone="no"?>
<!DOCTYPE svg PUBLIC "-//W3C//DTD SVG 1.1//EN"
 "http://www.w3.org/Graphics/SVG/1.1/DTD/svg11.dtd">
<!-- Generated by graphviz version 2.43.0 (0)
 -->
<!-- Title: CombatStalkerAI::Berserk Pages: 1 -->
<!--zoomable 205 -->

<svg id="main" version="1.1" xmlns="http://www.w3.org/2000/svg" xmlns:xlink="http://www.w3.org/1999/xlink" xml:space="preserve" onload="init(evt)">
<style type="text/css"><![CDATA[
.node, .edge {opacity: 0.7;}
.node.selected, .edge.selected {opacity: 1;}
.edge:hover path { stroke: red; }
.edge:hover polygon { stroke: red; fill: red; }
]]></style>

<defs>
  <circle id="rim" cx="0" cy="0" r="7"/>
  <circle id="rim2" cx="0" cy="0" r="3.5"/>
  <g id="zoomPlus">
    <use xlink:href="#rim" fill="#404040"><set attributeName="fill" to="#808080" begin="zoomplus.mouseover" end="zoomplus.mouseout"/></use>
    <path d="M-4,0h8M0,-4v8" fill="none" stroke="white" stroke-width="1.5" pointer-events="none"/>
  </g>
  <g id="zoomMin">
    <use xlink:href="#rim" fill="#404040"><set attributeName="fill" to="#808080" begin="zoomminus.mouseover" end="zoomminus.mouseout"/></use>
    <path d="M-4,0h8" fill="none" stroke="white" stroke-width="1.5" pointer-events="none"/>
  </g>
  <g id="arrowUp" transform="translate(30 24)">
    <use xlink:href="#rim"/>
    <path pointer-events="none" fill="none" stroke="white" stroke-width="1.5" d="M0,-3.0v7 M-2.5,-0.5L0,-3.0L2.5,-0.5"/>
  </g>
  <g id="arrowRight" transform="rotate(90) translate(36 -43)">
    <use xlink:href="#rim"/>
    <path pointer-events="none" fill="none" stroke="white" stroke-width="1.5" d="M0,-3.0v7 M-2.5,-0.5L0,-3.0L2.5,-0.5"/>
  </g>
  <g id="arrowDown" transform="rotate(180) translate(-30 -48)">
    <use xlink:href="#rim"/>
    <path pointer-events="none" fill="none" stroke="white" stroke-width="1.5" d="M0,-3.0v7 M-2.5,-0.5L0,-3.0L2.5,-0.5"/>
  </g>
  <g id="arrowLeft" transform="rotate(270) translate(-36 17)">
    <use xlink:href="#rim"/>
    <path pointer-events="none" fill="none" stroke="white" stroke-width="1.5" d="M0,-3.0v7 M-2.5,-0.5L0,-3.0L2.5,-0.5"/>
  </g>
  <g id="resetDef">
    <use xlink:href="#rim2" fill="#404040"><set attributeName="fill" to="#808080" begin="reset.mouseover" end="reset.mouseout"/></use>
  </g>
</defs>
<script type="application/ecmascript">
var viewWidth = 724;
var viewHeight = 205;
var sectionId = 'dynsection-2';
</script>
<script type="application/ecmascript" xlink:href="svg.min.js"/>
<svg id="graph" class="graph">
<g id="viewport">
<title>CombatStalkerAI::Berserk</title>
<!-- Node1 -->
<g id="Node000001" class="node">
<title>Node1</title>
<g id="a_Node000001"><a xlink:title=" ">
<polygon fill="#999999" stroke="#666666" points="142,-120 0,-120 0,-101 142,-101 142,-120"/>
<text text-anchor="middle" x="71" y="-108" font-family="Helvetica,sans-Serif" font-size="10.00">CombatStalkerAI::Berserk</text>
</a>
</g>
</g>
<!-- Node2 -->
<g id="Node000002" class="node">
<title>Node2</title>
<g id="a_Node000002"><a xlink:href="classCreatureAIScript.html#a511db6b4e0919a0739843fa97caa90ff" target="_top" xlink:title=" ">
<polygon fill="white" stroke="#666666" points="330.5,-171 184.5,-171 184.5,-152 330.5,-152 330.5,-171"/>
<text text-anchor="middle" x="257.5" y="-159" font-family="Helvetica,sans-Serif" font-size="10.00">CreatureAIScript::castSpell</text>
</a>
</g>
</g>
<!-- Node1&#45;&gt;Node2 -->
<g id="edge1_Node000001_Node000002" class="edge">
<title>Node1&#45;&gt;Node2</title>
<g id="a_edge1_Node000001_Node000002"><a xlink:title=" ">
<path fill="none" stroke="#63b8ff" d="M106.7,-120.09C136.6,-128.36 179.91,-140.33 212.28,-149.28"/>
<polygon fill="#63b8ff" stroke="#63b8ff" points="211.38,-152.66 221.95,-151.95 213.25,-145.91 211.38,-152.66"/>
</a>
</g>
</g>
<!-- Node4 -->
<g id="Node000004" class="node">
<title>Node4</title>
<g id="a_Node000004"><a xlink:href="classInstanceScript.html#a2cd1069fd31b9444c7c5eee674fe77e1" target="_top" xlink:title=" ">
<polygon fill="white" stroke="#666666" points="332,-125.5 183,-125.5 183,-95.5 332,-95.5 332,-125.5"/>
<text text-anchor="start" x="191" y="-113.5" font-family="Helvetica,sans-Serif" font-size="10.00">InstanceScript::getCreature</text>
<text text-anchor="middle" x="257.5" y="-102.5" font-family="Helvetica,sans-Serif" font-size="10.00">FromData</text>
</a>
</g>
</g>
<!-- Node1&#45;&gt;Node4 -->
<g id="edge4_Node000001_Node000004" class="edge">
<title>Node1&#45;&gt;Node4</title>
<g id="a_edge4_Node000001_Node000004"><a xlink:title=" ">
<path fill="none" stroke="#63b8ff" d="M142.01,-110.5C152.03,-110.5 162.42,-110.5 172.67,-110.5"/>
<polygon fill="#63b8ff" stroke="#63b8ff" points="172.85,-114 182.85,-110.5 172.85,-107 172.85,-114"/>
</a>
</g>
</g>
<!-- Node8 -->
<g id="Node000008" class="node">
<title>Node8</title>
<g id="a_Node000008"><a xlink:href="classCreatureAIScript.html#a6e3fced499a84b9cb1a1c9a6dfa60b7a" target="_top" xlink:title=" ">
<polygon fill="white" stroke="#666666" points="337,-61.5 178,-61.5 178,-31.5 337,-31.5 337,-61.5"/>
<text text-anchor="start" x="186" y="-49.5" font-family="Helvetica,sans-Serif" font-size="10.00">CreatureAIScript::getInstance</text>
<text text-anchor="middle" x="257.5" y="-38.5" font-family="Helvetica,sans-Serif" font-size="10.00">Script</text>
</a>
</g>
</g>
<!-- Node1&#45;&gt;Node8 -->
<g id="edge8_Node000001_Node000008" class="edge">
<title>Node1&#45;&gt;Node8</title>
<g id="a_edge8_Node000001_Node000008"><a xlink:title=" ">
<path fill="none" stroke="#63b8ff" d="M99.62,-100.92C126.98,-91.43 169.57,-76.65 203.48,-64.89"/>
<polygon fill="#63b8ff" stroke="#63b8ff" points="204.94,-68.09 213.24,-61.5 202.65,-61.48 204.94,-68.09"/>
</a>
</g>
</g>
<!-- Node3 -->
<g id="Node000003" class="node">
<title>Node3</title>
<g id="a_Node000003"><a xlink:href="classUnit.html#a0dae38077fd2ab3a5da5ad5433f67e5f" target="_top" xlink:title=" ">
<polygon fill="white" stroke="#666666" points="505.5,-179 418.5,-179 418.5,-160 505.5,-160 505.5,-179"/>
<text text-anchor="middle" x="462" y="-167" font-family="Helvetica,sans-Serif" font-size="10.00">Unit::castSpell</text>
</a>
</g>
</g>
<!-- Node2&#45;&gt;Node3 -->
<g id="edge2_Node000002_Node000003" class="edge">
<title>Node2&#45;&gt;Node3</title>
<g id="a_edge2_Node000002_Node000003"><a xlink:title=" ">
<path fill="none" stroke="#63b8ff" d="M330.75,-164.35C356.28,-165.36 384.49,-166.48 408.11,-167.41"/>
<polygon fill="#63b8ff" stroke="#63b8ff" points="408.14,-170.91 418.27,-167.81 408.42,-163.92 408.14,-170.91"/>
</a>
</g>
</g>
<!-- Node3&#45;&gt;Node3 -->
<g id="edge3_Node000003_Node000003" class="edge">
<title>Node3&#45;&gt;Node3</title>
<g id="a_edge3_Node000003_Node000003"><a xlink:title=" ">
<path fill="none" stroke="#63b8ff" d="M433.02,-179.08C418.93,-187.73 428.59,-197 462,-197 484.97,-197 496.72,-192.62 497.23,-187.07"/>
<polygon fill="#63b8ff" stroke="#63b8ff" points="499.9,-184.8 490.98,-179.08 494.39,-189.11 499.9,-184.8"/>
</a>
</g>
</g>
<!-- Node5 -->
<g id="Node000005" class="node">
<title>Node5</title>
<g id="a_Node000005"><a xlink:href="classInstanceScript.html#a6c046f48ffadadbb43cc037c25ca65df" target="_top" xlink:title=" ">
<polygon fill="white" stroke="#666666" points="537.5,-141.5 386.5,-141.5 386.5,-111.5 537.5,-111.5 537.5,-141.5"/>
<text text-anchor="start" x="394.5" y="-129.5" font-family="Helvetica,sans-Serif" font-size="10.00">InstanceScript::GetCreature</text>
<text text-anchor="middle" x="462" y="-118.5" font-family="Helvetica,sans-Serif" font-size="10.00">ByGuid</text>
</a>
</g>
</g>
<!-- Node4&#45;&gt;Node5 -->
<g id="edge5_Node000004_Node000005" class="edge">
<title>Node4&#45;&gt;Node5</title>
<g id="a_edge5_Node000004_Node000005"><a xlink:title=" ">
<path fill="none" stroke="#63b8ff" d="M332.18,-116.32C346.51,-117.45 361.65,-118.65 376.3,-119.81"/>
<polygon fill="#63b8ff" stroke="#63b8ff" points="376.11,-123.3 386.36,-120.6 376.66,-116.33 376.11,-123.3"/>
</a>
</g>
</g>
<!-- Node7 -->
<g id="Node000007" class="node">
<title>Node7</title>
<g id="a_Node000007"><a xlink:href="classInstanceScript.html#a1c6e737155454534ffa04547e57140f0" target="_top" xlink:title=" ">
<polygon fill="white" stroke="#666666" points="551,-93 373,-93 373,-74 551,-74 551,-93"/>
<text text-anchor="middle" x="462" y="-81" font-family="Helvetica,sans-Serif" font-size="10.00">InstanceScript::getGuidFromData</text>
</a>
</g>
</g>
<!-- Node4&#45;&gt;Node7 -->
<g id="edge7_Node000004_Node000007" class="edge">
<title>Node4&#45;&gt;Node7</title>
<g id="a_edge7_Node000004_Node000007"><a xlink:title=" ">
<path fill="none" stroke="#63b8ff" d="M332.18,-100.68C347.58,-98.62 363.9,-96.45 379.56,-94.36"/>
<polygon fill="#63b8ff" stroke="#63b8ff" points="380.29,-97.79 389.74,-93 379.37,-90.85 380.29,-97.79"/>
</a>
</g>
</g>
<!-- Node6 -->
<g id="Node000006" class="node">
<title>Node6</title>
<g id="a_Node000006"><a xlink:href="classWorldMap.html#aaca4751736f7fd902ca0745a950148bd" target="_top" xlink:title=" ">
<polygon fill="white" stroke="#666666" points="716,-136 587,-136 587,-117 716,-117 716,-136"/>
<text text-anchor="middle" x="651.5" y="-124" font-family="Helvetica,sans-Serif" font-size="10.00">WorldMap::getCreature</text>
</a>
</g>
</g>
<!-- Node5&#45;&gt;Node6 -->
<g id="edge6_Node000005_Node000006" class="edge">
<title>Node5&#45;&gt;Node6</title>
<g id="a_edge6_Node000005_Node000006"><a xlink:title=" ">
<path fill="none" stroke="#63b8ff" d="M537.64,-126.5C550.54,-126.5 563.93,-126.5 576.8,-126.5"/>
<polygon fill="#63b8ff" stroke="#63b8ff" points="576.99,-130 586.99,-126.5 576.99,-123 576.99,-130"/>
</a>
</g>
</g>
<!-- Node9 -->
<g id="Node000009" class="node">
<title>Node9</title>
<g id="a_Node000009"><a xlink:href="classWorldMap.html#a4af3c5d2b3b7bf0b3bfc5c3b92aa3c90" target="_top" xlink:title=" ">
<polygon fill="white" stroke="#666666" points="519.5,-56 404.5,-56 404.5,-37 519.5,-37 519.5,-56"/>
<text text-anchor="middle" x="462" y="-44" font-family="Helvetica,sans-Serif" font-size="10.00">WorldMap::getScript</text>
</a>
</g>
</g>
<!-- Node8&#45;&gt;Node9 -->
<g id="edge9_Node000008_Node000009" class="edge">
<title>Node8&#45;&gt;Node9</title>
<g id="a_edge9_Node000008_Node000009"><a xlink:title=" ">
<path fill="none" stroke="#63b8ff" d="M337.08,-46.5C355.94,-46.5 375.91,-46.5 394.18,-46.5"/>
<polygon fill="#63b8ff" stroke="#63b8ff" points="394.43,-50 404.43,-46.5 394.43,-43 394.43,-50"/>
</a>
</g>
</g>
<!-- Node10 -->
<g id="Node000010" class="node">
<title>Node10</title>
<g id="a_Node000010"><a xlink:href="classObject.html#a967af054c54b6d9846637ce8718efd75" target="_top" xlink:title=" ">
<polygon fill="white" stroke="#666666" points="521.5,-19 402.5,-19 402.5,0 521.5,0 521.5,-19"/>
<text text-anchor="middle" x="462" y="-7" font-family="Helvetica,sans-Serif" font-size="10.00">Object::getWorldMap</text>
</a>
</g>
</g>
<!-- Node8&#45;&gt;Node10 -->
<g id="edge10_Node000008_Node000010" class="edge">
<title>Node8&#45;&gt;Node10</title>
<g id="a_edge10_Node000008_Node000010"><a xlink:title=" ">
<path fill="none" stroke="#63b8ff" d="M337.08,-32.14C357.53,-28.41 379.28,-24.43 398.76,-20.87"/>
<polygon fill="#63b8ff" stroke="#63b8ff" points="399.51,-24.29 408.72,-19.05 398.25,-17.41 399.51,-24.29"/>
</a>
</g>
</g>
</g>
</svg>

<g id="navigator" transform="translate(0 0)" fill="#404254">
  <rect fill="#f2f5e9" fill-opacity="0.5" stroke="#606060" stroke-width=".5" x="0" y="0" width="60" height="60"/>
  <use id="zoomplus" xlink:href="#zoomPlus" x="17" y="9" onmousedown="handleZoom(evt,'in')"/>
  <use id="zoomminus" xlink:href="#zoomMin" x="42" y="9" onmousedown="handleZoom(evt,'out')"/>
  <use id="reset" xlink:href="#resetDef" x="30" y="36" onmousedown="handleReset()"/>
   <use id="arrowup" xlink:href="#arrowUp" x="0" y="0" onmousedown="handlePan(0,-1)"/>
  <use id="arrowright" xlink:href="#arrowRight" x="0" y="0" onmousedown="handlePan(1,0)"/>
  <use id="arrowdown" xlink:href="#arrowDown" x="0" y="0" onmousedown="handlePan(0,1)"/>
  <use id="arrowleft" xlink:href="#arrowLeft" x="0" y="0" onmousedown="handlePan(-1,0)"/>
</g>
<svg viewBox="0 0 15 15" width="100%" height="30px" preserveAspectRatio="xMaxYMin meet">
 <g id="arrow_out" transform="scale(0.3 0.3)">
  <a xlink:href="classCombatStalkerAI_a561a24d318458001dd68286845f8f3cf_cgraph_org.svg" target="_base">
   <rect id="button" ry="5" rx="5" y="6" x="6" height="38" width="38"
        fill="#f2f5e9" fill-opacity="0.5" stroke="#606060" stroke-width="1.0"/>
   <path id="arrow"
     d="M 11.500037,31.436501 C 11.940474,20.09759 22.043105,11.32322 32.158766,21.979434 L 37.068811,17.246167 C 37.068811,17.246167 37.088388,32 37.088388,32 L 22.160133,31.978069 C 22.160133,31.978069 26.997745,27.140456 26.997745,27.140456 C 18.528582,18.264221 13.291696,25.230495 11.500037,31.436501 z"
     style="fill:#404040;"/>
  </a>
 </g>
</svg>

<style type='text/css'>
<![CDATA[
[data-mouse-over-selected='false'] { opacity: 0.7; }
[data-mouse-over-selected='true']  { opacity: 1.0; }
]]>
</style>
<script type="application/ecmascript"><![CDATA[
document.addEventListener('DOMContentLoaded', (event) => {
  highlightEdges();
  highlightAdjacentNodes();
});
]]></script>
</svg>
