<?xml version="1.0" encoding="UTF-8" standalone="no"?>
<!DOCTYPE svg PUBLIC "-//W3C//DTD SVG 1.1//EN"
 "http://www.w3.org/Graphics/SVG/1.1/DTD/svg11.dtd">
<!-- Generated by graphviz version 2.43.0 (0)
 -->
<!-- Title: ConfigFile::parseConfigValues Pages: 1 -->
<svg width="830pt" height="150pt"
 viewBox="0.00 0.00 830.00 149.50" xmlns="http://www.w3.org/2000/svg" xmlns:xlink="http://www.w3.org/1999/xlink">
<g id="graph0" class="graph" transform="scale(1 1) rotate(0) translate(4 145.5)">
<title>ConfigFile::parseConfigValues</title>
<!-- Node1 -->
<g id="Node000001" class="node">
<title>Node1</title>
<g id="a_Node000001"><a xlink:title=" ">
<polygon fill="#999999" stroke="#666666" points="822,-85.5 661,-85.5 661,-66.5 822,-66.5 822,-85.5"/>
<text text-anchor="middle" x="741.5" y="-73.5" font-family="Helvetica,sans-Serif" font-size="10.00">ConfigFile::parseConfigValues</text>
</a>
</g>
</g>
<!-- Node2 -->
<g id="Node000002" class="node">
<title>Node2</title>
<g id="a_Node000002"><a xlink:href="classConfigFile.html#a17006427949d51e275758a6832c8c053" target="_top" xlink:title=" ">
<polygon fill="white" stroke="#666666" points="625,-85.5 440,-85.5 440,-66.5 625,-66.5 625,-85.5"/>
<text text-anchor="middle" x="532.5" y="-73.5" font-family="Helvetica,sans-Serif" font-size="10.00">ConfigFile::openAndLoadConfigFile</text>
</a>
</g>
</g>
<!-- Node1&#45;&gt;Node2 -->
<g id="edge1_Node000001_Node000002" class="edge">
<title>Node1&#45;&gt;Node2</title>
<g id="a_edge1_Node000001_Node000002"><a xlink:title=" ">
<path fill="none" stroke="#63b8ff" d="M650.6,-76C642.2,-76 633.69,-76 625.28,-76"/>
<polygon fill="#63b8ff" stroke="#63b8ff" points="650.76,-79.5 660.76,-76 650.76,-72.5 650.76,-79.5"/>
</a>
</g>
</g>
<!-- Node3 -->
<g id="Node000003" class="node">
<title>Node3</title>
<g id="a_Node000003"><a xlink:href="classLogonConfig.html#a8231f9afa6c132fbd31e972049cd5158" target="_top" xlink:title=" ">
<polygon fill="white" stroke="#666666" points="386,-141.5 219,-141.5 219,-122.5 386,-122.5 386,-141.5"/>
<text text-anchor="middle" x="302.5" y="-129.5" font-family="Helvetica,sans-Serif" font-size="10.00">LogonConfig::loadConfigValues</text>
</a>
</g>
</g>
<!-- Node2&#45;&gt;Node3 -->
<g id="edge2_Node000002_Node000003" class="edge">
<title>Node2&#45;&gt;Node3</title>
<g id="a_edge2_Node000002_Node000003"><a xlink:title=" ">
<path fill="none" stroke="#63b8ff" d="M493.35,-88.6C468.17,-96.6 434.35,-106.78 404,-114 390.81,-117.14 376.53,-120.01 362.98,-122.49"/>
<polygon fill="#63b8ff" stroke="#63b8ff" points="494.43,-91.92 502.89,-85.53 492.29,-85.26 494.43,-91.92"/>
</a>
</g>
</g>
<!-- Node5 -->
<g id="Node000005" class="node">
<title>Node5</title>
<g id="a_Node000005"><a xlink:href="classMasterLogon.html#ad750c6c25cc5a778e80978b5710226eb" target="_top" xlink:title=" ">
<polygon fill="white" stroke="#666666" points="404,-104.5 201,-104.5 201,-85.5 404,-85.5 404,-104.5"/>
<text text-anchor="middle" x="302.5" y="-92.5" font-family="Helvetica,sans-Serif" font-size="10.00">MasterLogon::LoadLogonConfiguration</text>
</a>
</g>
</g>
<!-- Node2&#45;&gt;Node5 -->
<g id="edge4_Node000002_Node000005" class="edge">
<title>Node2&#45;&gt;Node5</title>
<g id="a_edge4_Node000002_Node000005"><a xlink:title=" ">
<path fill="none" stroke="#63b8ff" d="M429.76,-84.48C421.21,-85.19 412.57,-85.91 404.02,-86.62"/>
<polygon fill="#63b8ff" stroke="#63b8ff" points="430.07,-87.96 439.75,-83.65 429.49,-80.99 430.07,-87.96"/>
</a>
</g>
</g>
<!-- Node7 -->
<g id="Node000007" class="node">
<title>Node7</title>
<g id="a_Node000007"><a xlink:href="classMaster.html#a1c274016bc4094652242fff51f9dfe2b" target="_top" xlink:title=" ">
<polygon fill="white" stroke="#666666" points="389,-67.5 216,-67.5 216,-48.5 389,-48.5 389,-67.5"/>
<text text-anchor="middle" x="302.5" y="-55.5" font-family="Helvetica,sans-Serif" font-size="10.00">Master::LoadWorldConfiguration</text>
</a>
</g>
</g>
<!-- Node2&#45;&gt;Node7 -->
<g id="edge6_Node000002_Node000007" class="edge">
<title>Node2&#45;&gt;Node7</title>
<g id="a_edge6_Node000002_Node000007"><a xlink:title=" ">
<path fill="none" stroke="#63b8ff" d="M429.5,-67.95C416.02,-66.88 402.32,-65.8 389.16,-64.76"/>
<polygon fill="#63b8ff" stroke="#63b8ff" points="429.5,-71.46 439.75,-68.76 430.06,-64.48 429.5,-71.46"/>
</a>
</g>
</g>
<!-- Node9 -->
<g id="Node000009" class="node">
<title>Node9</title>
<g id="a_Node000009"><a xlink:href="classWorldConfig.html#a2e5f84280cf2d56012558e7d580f9d0d" target="_top" xlink:title=" ">
<polygon fill="white" stroke="#666666" points="383,-30 222,-30 222,0 383,0 383,-30"/>
<text text-anchor="start" x="230" y="-18" font-family="Helvetica,sans-Serif" font-size="10.00">WorldConfig::loadWorldConfig</text>
<text text-anchor="middle" x="302.5" y="-7" font-family="Helvetica,sans-Serif" font-size="10.00">Values</text>
</a>
</g>
</g>
<!-- Node2&#45;&gt;Node9 -->
<g id="edge8_Node000002_Node000009" class="edge">
<title>Node2&#45;&gt;Node9</title>
<g id="a_edge8_Node000002_Node000009"><a xlink:title=" ">
<path fill="none" stroke="#63b8ff" d="M490.34,-63.51C465.43,-56.09 432.99,-46.66 404,-39 392.55,-35.97 380.33,-32.91 368.49,-30.04"/>
<polygon fill="#63b8ff" stroke="#63b8ff" points="489.59,-66.94 500.18,-66.46 491.6,-60.24 489.59,-66.94"/>
</a>
</g>
</g>
<!-- Node4 -->
<g id="Node000004" class="node">
<title>Node4</title>
<g id="a_Node000004"><a xlink:href="classLogon.html#acae0d262be202c63686ebfc0ba8091b1" target="_top" xlink:title=" ">
<polygon fill="white" stroke="#666666" points="165,-141.5 0,-141.5 0,-122.5 165,-122.5 165,-141.5"/>
<text text-anchor="middle" x="82.5" y="-129.5" font-family="Helvetica,sans-Serif" font-size="10.00">Logon::loadLogonConfigValues</text>
</a>
</g>
</g>
<!-- Node3&#45;&gt;Node4 -->
<g id="edge3_Node000003_Node000004" class="edge">
<title>Node3&#45;&gt;Node4</title>
<g id="a_edge3_Node000003_Node000004"><a xlink:title=" ">
<path fill="none" stroke="#63b8ff" d="M208.37,-132C193.98,-132 179.2,-132 165.09,-132"/>
<polygon fill="#63b8ff" stroke="#63b8ff" points="208.77,-135.5 218.77,-132 208.77,-128.5 208.77,-135.5"/>
</a>
</g>
</g>
<!-- Node6 -->
<g id="Node000006" class="node">
<title>Node6</title>
<g id="a_Node000006"><a xlink:href="classMasterLogon.html#a5054e0647df1456be1dc692e3fa4bef2" target="_top" xlink:title=" ">
<polygon fill="white" stroke="#666666" points="134.5,-104.5 30.5,-104.5 30.5,-85.5 134.5,-85.5 134.5,-104.5"/>
<text text-anchor="middle" x="82.5" y="-92.5" font-family="Helvetica,sans-Serif" font-size="10.00">MasterLogon::Run</text>
</a>
</g>
</g>
<!-- Node5&#45;&gt;Node6 -->
<g id="edge5_Node000005_Node000006" class="edge">
<title>Node5&#45;&gt;Node6</title>
<g id="a_edge5_Node000005_Node000006"><a xlink:title=" ">
<path fill="none" stroke="#63b8ff" d="M190.59,-95C171.07,-95 151.63,-95 134.77,-95"/>
<polygon fill="#63b8ff" stroke="#63b8ff" points="190.8,-98.5 200.8,-95 190.8,-91.5 190.8,-98.5"/>
</a>
</g>
</g>
<!-- Node8 -->
<g id="Node000008" class="node">
<title>Node8</title>
<g id="a_Node000008"><a xlink:href="classMaster.html#a12dde72f3398edffca613e77185fd6f3" target="_top" xlink:title=" ">
<polygon fill="white" stroke="#666666" points="120,-67.5 45,-67.5 45,-48.5 120,-48.5 120,-67.5"/>
<text text-anchor="middle" x="82.5" y="-55.5" font-family="Helvetica,sans-Serif" font-size="10.00">Master::Run</text>
</a>
</g>
</g>
<!-- Node7&#45;&gt;Node8 -->
<g id="edge7_Node000007_Node000008" class="edge">
<title>Node7&#45;&gt;Node8</title>
<g id="a_edge7_Node000007_Node000008"><a xlink:title=" ">
<path fill="none" stroke="#63b8ff" d="M205.75,-58C175.41,-58 143.68,-58 120.15,-58"/>
<polygon fill="#63b8ff" stroke="#63b8ff" points="205.97,-61.5 215.97,-58 205.97,-54.5 205.97,-61.5"/>
</a>
</g>
</g>
<!-- Node10 -->
<g id="Node000010" class="node">
<title>Node10</title>
<g id="a_Node000010"><a xlink:href="classWorld.html#af09057cbb8411daca96080c0268d2152" target="_top" xlink:title=" ">
<polygon fill="white" stroke="#666666" points="163.5,-24.5 1.5,-24.5 1.5,-5.5 163.5,-5.5 163.5,-24.5"/>
<text text-anchor="middle" x="82.5" y="-12.5" font-family="Helvetica,sans-Serif" font-size="10.00">World::loadWorldConfigValues</text>
</a>
</g>
</g>
<!-- Node9&#45;&gt;Node10 -->
<g id="edge9_Node000009_Node000010" class="edge">
<title>Node9&#45;&gt;Node10</title>
<g id="a_edge9_Node000009_Node000010"><a xlink:title=" ">
<path fill="none" stroke="#63b8ff" d="M211.53,-15C195.66,-15 179.23,-15 163.64,-15"/>
<polygon fill="#63b8ff" stroke="#63b8ff" points="211.87,-18.5 221.87,-15 211.87,-11.5 211.87,-18.5"/>
</a>
</g>
</g>
</g>
</svg>
