<?xml version="1.0" encoding="UTF-8" standalone="no"?>
<!DOCTYPE svg PUBLIC "-//W3C//DTD SVG 1.1//EN"
 "http://www.w3.org/Graphics/SVG/1.1/DTD/svg11.dtd">
<!-- Generated by graphviz version 2.43.0 (0)
 -->
<!-- Title: LockedQueue::get_first_element Pages: 1 -->
<svg width="261pt" height="64pt"
 viewBox="0.00 0.00 261.00 64.00" xmlns="http://www.w3.org/2000/svg" xmlns:xlink="http://www.w3.org/1999/xlink">
<g id="graph0" class="graph" transform="scale(1 1) rotate(0) translate(4 60)">
<title>LockedQueue::get_first_element</title>
<!-- Node1 -->
<g id="Node000001" class="node">
<title>Node1</title>
<g id="a_Node000001"><a xlink:title=" ">
<polygon fill="#999999" stroke="#666666" points="128,-42.5 0,-42.5 0,-12.5 128,-12.5 128,-42.5"/>
<text text-anchor="start" x="8" y="-30.5" font-family="Helvetica,sans-Serif" font-size="10.00">LockedQueue::get_first</text>
<text text-anchor="middle" x="64" y="-19.5" font-family="Helvetica,sans-Serif" font-size="10.00">_element</text>
</a>
</g>
</g>
<!-- Node2 -->
<g id="Node000002" class="node">
<title>Node2</title>
<g id="a_Node000002"><a xlink:href="classMutex.html#a82f17ffc2852d2ea1b498b7331e1eebe" target="_top" xlink:title=" ">
<polygon fill="white" stroke="#666666" points="253,-56 164,-56 164,-37 253,-37 253,-56"/>
<text text-anchor="middle" x="208.5" y="-44" font-family="Helvetica,sans-Serif" font-size="10.00">Mutex::acquire</text>
</a>
</g>
</g>
<!-- Node1&#45;&gt;Node2 -->
<g id="edge1_Node000001_Node000002" class="edge">
<title>Node1&#45;&gt;Node2</title>
<g id="a_edge1_Node000001_Node000002"><a xlink:title=" ">
<path fill="none" stroke="#63b8ff" d="M128.33,-35.94C136.89,-37.09 145.61,-38.25 153.98,-39.36"/>
<polygon fill="#63b8ff" stroke="#63b8ff" points="153.6,-42.84 163.98,-40.7 154.53,-35.91 153.6,-42.84"/>
</a>
</g>
</g>
<!-- Node3 -->
<g id="Node000003" class="node">
<title>Node3</title>
<g id="a_Node000003"><a xlink:href="classMutex.html#ad43ff97f225007f2fbb0da2e98676b07" target="_top" xlink:title=" ">
<polygon fill="white" stroke="#666666" points="253,-19 164,-19 164,0 253,0 253,-19"/>
<text text-anchor="middle" x="208.5" y="-7" font-family="Helvetica,sans-Serif" font-size="10.00">Mutex::release</text>
</a>
</g>
</g>
<!-- Node1&#45;&gt;Node3 -->
<g id="edge2_Node000001_Node000003" class="edge">
<title>Node1&#45;&gt;Node3</title>
<g id="a_edge2_Node000001_Node000003"><a xlink:title=" ">
<path fill="none" stroke="#63b8ff" d="M128.33,-19.5C136.89,-18.42 145.61,-17.32 153.98,-16.26"/>
<polygon fill="#63b8ff" stroke="#63b8ff" points="154.49,-19.72 163.98,-15 153.62,-12.78 154.49,-19.72"/>
</a>
</g>
</g>
</g>
</svg>
