<?xml version="1.0" encoding="UTF-8" standalone="no"?>
<!DOCTYPE svg PUBLIC "-//W3C//DTD SVG 1.1//EN"
 "http://www.w3.org/Graphics/SVG/1.1/DTD/svg11.dtd">
<!-- Generated by graphviz version 2.43.0 (0)
 -->
<!-- Title: LuaUnit::SetSelectedGO Pages: 1 -->
<svg width="470pt" height="138pt"
 viewBox="0.00 0.00 470.00 138.00" xmlns="http://www.w3.org/2000/svg" xmlns:xlink="http://www.w3.org/1999/xlink">

<svg id="main" version="1.1" xmlns="http://www.w3.org/2000/svg" xmlns:xlink="http://www.w3.org/1999/xlink" xml:space="preserve" onload="init(evt)">
<style type="text/css"><![CDATA[
.node, .edge {opacity: 0.7;}
.node.selected, .edge.selected {opacity: 1;}
.edge:hover path { stroke: red; }
.edge:hover polygon { stroke: red; fill: red; }
]]></style>
<script type="application/ecmascript" xlink:href="svg.min.js"/>
<svg id="graph" class="graph">
<g id="graph0" class="graph" transform="scale(1 1) rotate(0) translate(4 134)">
<title>LuaUnit::SetSelectedGO</title>
<!-- Node1 -->
<g id="Node000001" class="node">
<title>Node1</title>
<g id="a_Node000001"><a xlink:title=" ">
<polygon fill="#999999" stroke="#666666" points="133,-74 0,-74 0,-55 133,-55 133,-74"/>
<text text-anchor="middle" x="66.5" y="-62" font-family="Helvetica,sans-Serif" font-size="10.00">LuaUnit::SetSelectedGO</text>
</a>
</g>
</g>
<!-- Node2 -->
<g id="Node000002" class="node">
<title>Node2</title>
<g id="a_Node000002"><a xlink:href="classObject.html#a0f6639fef4e90bc57ee1b34a81d6d489" target="_top" xlink:title=" ">
<polygon fill="white" stroke="#666666" points="277,-130 185,-130 185,-111 277,-111 277,-130"/>
<text text-anchor="middle" x="231" y="-118" font-family="Helvetica,sans-Serif" font-size="10.00">Object::getGuid</text>
</a>
</g>
</g>
<!-- Node1&#45;&gt;Node2 -->
<g id="edge1_Node000001_Node000002" class="edge">
<title>Node1&#45;&gt;Node2</title>
<g id="a_edge1_Node000001_Node000002"><a xlink:title=" ">
<path fill="none" stroke="#63b8ff" d="M91.53,-74.05C111.99,-82.04 142.23,-93.55 169,-102.5 174.57,-104.36 180.45,-106.23 186.29,-108.01"/>
<polygon fill="#63b8ff" stroke="#63b8ff" points="185.4,-111.4 195.99,-110.93 187.42,-104.7 185.4,-111.4"/>
</a>
</g>
</g>
<!-- Node4 -->
<g id="Node000004" class="node">
<title>Node4</title>
<g id="a_Node000004"><a xlink:href="classObject.html#a3aeab7def818ba6c50249f197ad2f9ca" target="_top" xlink:title=" ">
<polygon fill="white" stroke="#666666" points="280.5,-93 181.5,-93 181.5,-74 280.5,-74 280.5,-93"/>
<text text-anchor="middle" x="231" y="-81" font-family="Helvetica,sans-Serif" font-size="10.00">Object::IsInWorld</text>
</a>
</g>
</g>
<!-- Node1&#45;&gt;Node4 -->
<g id="edge3_Node000001_Node000004" class="edge">
<title>Node1&#45;&gt;Node4</title>
<g id="a_edge3_Node000001_Node000004"><a xlink:title=" ">
<path fill="none" stroke="#63b8ff" d="M133.13,-72.17C145.65,-73.64 158.69,-75.16 170.99,-76.6"/>
<polygon fill="#63b8ff" stroke="#63b8ff" points="170.79,-80.1 181.13,-77.79 171.6,-73.15 170.79,-80.1"/>
</a>
</g>
</g>
<!-- Node5 -->
<g id="Node000005" class="node">
<title>Node5</title>
<g id="a_Node000005"><a xlink:href="classObject.html#ab65745f76d63eda49657413dccf0057d" target="_top" xlink:title=" ">
<polygon fill="white" stroke="#666666" points="277.5,-56 184.5,-56 184.5,-37 277.5,-37 277.5,-56"/>
<text text-anchor="middle" x="231" y="-44" font-family="Helvetica,sans-Serif" font-size="10.00">Object::isPlayer</text>
</a>
</g>
</g>
<!-- Node1&#45;&gt;Node5 -->
<g id="edge4_Node000001_Node000005" class="edge">
<title>Node1&#45;&gt;Node5</title>
<g id="a_edge4_Node000001_Node000005"><a xlink:title=" ">
<path fill="none" stroke="#63b8ff" d="M133.13,-57.23C146.61,-55.74 160.69,-54.18 173.81,-52.72"/>
<polygon fill="#63b8ff" stroke="#63b8ff" points="174.53,-56.17 184.09,-51.59 173.76,-49.21 174.53,-56.17"/>
</a>
</g>
</g>
<!-- Node7 -->
<g id="Node000007" class="node">
<title>Node7</title>
<g id="a_Node000007"><a xlink:href="classPlayer.html#a36a48148cd1a08d0bb558b44c0229c3f" target="_top" xlink:title=" ">
<polygon fill="white" stroke="#666666" points="293,-19 169,-19 169,0 293,0 293,-19"/>
<text text-anchor="middle" x="231" y="-7" font-family="Helvetica,sans-Serif" font-size="10.00">Player::setSelectedGo</text>
</a>
</g>
</g>
<!-- Node1&#45;&gt;Node7 -->
<g id="edge6_Node000001_Node000007" class="edge">
<title>Node1&#45;&gt;Node7</title>
<g id="a_edge6_Node000001_Node000007"><a xlink:title=" ">
<path fill="none" stroke="#63b8ff" d="M93.69,-54.9C114.13,-47.48 143.28,-37.06 169,-28.5 175.43,-26.36 182.27,-24.15 188.96,-22.04"/>
<polygon fill="#63b8ff" stroke="#63b8ff" points="190.08,-25.36 198.58,-19.03 187.99,-18.68 190.08,-25.36"/>
</a>
</g>
</g>
<!-- Node3 -->
<g id="Node000003" class="node">
<title>Node3</title>
<g id="a_Node000003"><a xlink:href="classObject.html#ae9814731421ab3e919a2e5c3b86e0eeb" target="_top" xlink:title=" ">
<polygon fill="white" stroke="#666666" points="449,-130 342,-130 342,-111 449,-111 449,-130"/>
<text text-anchor="middle" x="395.5" y="-118" font-family="Helvetica,sans-Serif" font-size="10.00">Object::objectData</text>
</a>
</g>
</g>
<!-- Node2&#45;&gt;Node3 -->
<g id="edge2_Node000002_Node000003" class="edge">
<title>Node2&#45;&gt;Node3</title>
<g id="a_edge2_Node000002_Node000003"><a xlink:title=" ">
<path fill="none" stroke="#63b8ff" d="M277.27,-120.5C294.06,-120.5 313.44,-120.5 331.53,-120.5"/>
<polygon fill="#63b8ff" stroke="#63b8ff" points="331.72,-124 341.72,-120.5 331.72,-117 331.72,-124"/>
</a>
</g>
</g>
<!-- Node6 -->
<g id="Node000006" class="node">
<title>Node6</title>
<g id="a_Node000006"><a xlink:href="classObject.html#aaee2ed63355af5e632aba82f859822b4" target="_top" xlink:title=" ">
<polygon fill="white" stroke="#666666" points="462,-56 329,-56 329,-37 462,-37 462,-56"/>
<text text-anchor="middle" x="395.5" y="-44" font-family="Helvetica,sans-Serif" font-size="10.00">Object::getObjectTypeId</text>
</a>
</g>
</g>
<!-- Node5&#45;&gt;Node6 -->
<g id="edge5_Node000005_Node000006" class="edge">
<title>Node5&#45;&gt;Node6</title>
<g id="a_edge5_Node000005_Node000006"><a xlink:title=" ">
<path fill="none" stroke="#63b8ff" d="M277.7,-46.5C290.46,-46.5 304.69,-46.5 318.7,-46.5"/>
<polygon fill="#63b8ff" stroke="#63b8ff" points="318.83,-50 328.83,-46.5 318.83,-43 318.83,-50"/>
</a>
</g>
</g>
</g>
</svg>
</svg>

<style type='text/css'>
<![CDATA[
[data-mouse-over-selected='false'] { opacity: 0.7; }
[data-mouse-over-selected='true']  { opacity: 1.0; }
]]>
</style>
<script type="application/ecmascript"><![CDATA[
document.addEventListener('DOMContentLoaded', (event) => {
  highlightEdges();
  highlightAdjacentNodes();
});
]]></script>
</svg>
