<?xml version="1.0" encoding="UTF-8" standalone="no"?>
<!DOCTYPE svg PUBLIC "-//W3C//DTD SVG 1.1//EN"
 "http://www.w3.org/Graphics/SVG/1.1/DTD/svg11.dtd">
<!-- Generated by graphviz version 2.43.0 (0)
 -->
<!-- Title: Thrall::OnCombatStart Pages: 1 -->
<svg width="649pt" height="82pt"
 viewBox="0.00 0.00 649.00 82.00" xmlns="http://www.w3.org/2000/svg" xmlns:xlink="http://www.w3.org/1999/xlink">
<g id="graph0" class="graph" transform="scale(1 1) rotate(0) translate(4 78)">
<title>Thrall::OnCombatStart</title>
<!-- Node1 -->
<g id="Node000001" class="node">
<title>Node1</title>
<g id="a_Node000001"><a xlink:title=" ">
<polygon fill="#999999" stroke="#666666" points="125,-55 0,-55 0,-36 125,-36 125,-55"/>
<text text-anchor="middle" x="62.5" y="-43" font-family="Helvetica,sans-Serif" font-size="10.00">Thrall::OnCombatStart</text>
</a>
</g>
</g>
<!-- Node2 -->
<g id="Node000002" class="node">
<title>Node2</title>
<g id="a_Node000002"><a xlink:href="classCreatureAIScript.html#a971bb1373556b3ec594d8f7ba5f5e6e6" target="_top" xlink:title=" ">
<polygon fill="white" stroke="#666666" points="321,-74 161,-74 161,-55 321,-55 321,-74"/>
<text text-anchor="middle" x="241" y="-62" font-family="Helvetica,sans-Serif" font-size="10.00">CreatureAIScript::getCreature</text>
</a>
</g>
</g>
<!-- Node1&#45;&gt;Node2 -->
<g id="edge1_Node000001_Node000002" class="edge">
<title>Node1&#45;&gt;Node2</title>
<g id="a_edge1_Node000001_Node000002"><a xlink:title=" ">
<path fill="none" stroke="#63b8ff" d="M125.23,-52.15C133.52,-53.04 142.15,-53.97 150.8,-54.9"/>
<polygon fill="#63b8ff" stroke="#63b8ff" points="150.61,-58.4 160.93,-55.99 151.36,-51.44 150.61,-58.4"/>
</a>
</g>
</g>
<!-- Node3 -->
<g id="Node000003" class="node">
<title>Node3</title>
<g id="a_Node000003"><a xlink:href="classObject.html#adde6108dd8e5e3331e9c4bdae017dfd3" target="_top" xlink:title=" ">
<polygon fill="white" stroke="#666666" points="306.5,-37 175.5,-37 175.5,-18 306.5,-18 306.5,-37"/>
<text text-anchor="middle" x="241" y="-25" font-family="Helvetica,sans-Serif" font-size="10.00">Object::PlaySoundToSet</text>
</a>
</g>
</g>
<!-- Node1&#45;&gt;Node3 -->
<g id="edge2_Node000001_Node000003" class="edge">
<title>Node1&#45;&gt;Node3</title>
<g id="a_edge2_Node000001_Node000003"><a xlink:title=" ">
<path fill="none" stroke="#63b8ff" d="M125.23,-39.2C138.14,-37.89 151.89,-36.49 165.22,-35.13"/>
<polygon fill="#63b8ff" stroke="#63b8ff" points="165.71,-38.59 175.31,-34.1 165,-31.63 165.71,-38.59"/>
</a>
</g>
</g>
<!-- Node4 -->
<g id="Node000004" class="node">
<title>Node4</title>
<g id="a_Node000004"><a xlink:href="classObject.html#afbafc0f687c733c81277b15e53c082c7" target="_top" xlink:title=" ">
<polygon fill="white" stroke="#666666" points="504,-37 357,-37 357,-18 504,-18 504,-37"/>
<text text-anchor="middle" x="430.5" y="-25" font-family="Helvetica,sans-Serif" font-size="10.00">Object::sendMessageToSet</text>
</a>
</g>
</g>
<!-- Node3&#45;&gt;Node4 -->
<g id="edge3_Node000003_Node000004" class="edge">
<title>Node3&#45;&gt;Node4</title>
<g id="a_edge3_Node000003_Node000004"><a xlink:title=" ">
<path fill="none" stroke="#63b8ff" d="M306.53,-27.5C319.44,-27.5 333.18,-27.5 346.62,-27.5"/>
<polygon fill="#63b8ff" stroke="#63b8ff" points="346.81,-31 356.81,-27.5 346.81,-24 346.81,-31"/>
</a>
</g>
</g>
<!-- Node5 -->
<g id="Node000005" class="node">
<title>Node5</title>
<g id="a_Node000005"><a xlink:href="classObject.html#ab32822d3603e26f4a51e881215d49520" target="_top" xlink:title=" ">
<polygon fill="white" stroke="#666666" points="641,-56 540,-56 540,-37 641,-37 641,-56"/>
<text text-anchor="middle" x="590.5" y="-44" font-family="Helvetica,sans-Serif" font-size="10.00">Object::GetPhase</text>
</a>
</g>
</g>
<!-- Node4&#45;&gt;Node5 -->
<g id="edge4_Node000004_Node000005" class="edge">
<title>Node4&#45;&gt;Node5</title>
<g id="a_edge4_Node000004_Node000005"><a xlink:title=" ">
<path fill="none" stroke="#63b8ff" d="M504.03,-36.22C512.68,-37.26 521.43,-38.31 529.87,-39.33"/>
<polygon fill="#63b8ff" stroke="#63b8ff" points="529.64,-42.83 539.99,-40.55 530.47,-35.88 529.64,-42.83"/>
</a>
</g>
</g>
<!-- Node6 -->
<g id="Node000006" class="node">
<title>Node6</title>
<g id="a_Node000006"><a xlink:href="classObject.html#a3aeab7def818ba6c50249f197ad2f9ca" target="_top" xlink:title=" ">
<polygon fill="white" stroke="#666666" points="640,-19 541,-19 541,0 640,0 640,-19"/>
<text text-anchor="middle" x="590.5" y="-7" font-family="Helvetica,sans-Serif" font-size="10.00">Object::IsInWorld</text>
</a>
</g>
</g>
<!-- Node4&#45;&gt;Node6 -->
<g id="edge5_Node000004_Node000006" class="edge">
<title>Node4&#45;&gt;Node6</title>
<g id="a_edge5_Node000004_Node000006"><a xlink:title=" ">
<path fill="none" stroke="#63b8ff" d="M504.03,-19.24C513.01,-18.21 522.1,-17.18 530.83,-16.18"/>
<polygon fill="#63b8ff" stroke="#63b8ff" points="531.36,-19.65 540.9,-15.04 530.56,-12.69 531.36,-19.65"/>
</a>
</g>
</g>
</g>
</svg>
