<?xml version="1.0" encoding="UTF-8" standalone="no"?>
<!DOCTYPE svg PUBLIC "-//W3C//DTD SVG 1.1//EN"
 "http://www.w3.org/Graphics/SVG/1.1/DTD/svg11.dtd">
<!-- Generated by graphviz version 2.43.0 (0)
 -->
<!-- Title: ChatCommandHandler::HandleCollisionTestLOS Pages: 1 -->
<!--zoomable 1022 -->

<svg id="main" version="1.1" xmlns="http://www.w3.org/2000/svg" xmlns:xlink="http://www.w3.org/1999/xlink" xml:space="preserve" onload="init(evt)">
<style type="text/css"><![CDATA[
.node, .edge {opacity: 0.7;}
.node.selected, .edge.selected {opacity: 1;}
.edge:hover path { stroke: red; }
.edge:hover polygon { stroke: red; fill: red; }
]]></style>

<defs>
  <circle id="rim" cx="0" cy="0" r="7"/>
  <circle id="rim2" cx="0" cy="0" r="3.5"/>
  <g id="zoomPlus">
    <use xlink:href="#rim" fill="#404040"><set attributeName="fill" to="#808080" begin="zoomplus.mouseover" end="zoomplus.mouseout"/></use>
    <path d="M-4,0h8M0,-4v8" fill="none" stroke="white" stroke-width="1.5" pointer-events="none"/>
  </g>
  <g id="zoomMin">
    <use xlink:href="#rim" fill="#404040"><set attributeName="fill" to="#808080" begin="zoomminus.mouseover" end="zoomminus.mouseout"/></use>
    <path d="M-4,0h8" fill="none" stroke="white" stroke-width="1.5" pointer-events="none"/>
  </g>
  <g id="arrowUp" transform="translate(30 24)">
    <use xlink:href="#rim"/>
    <path pointer-events="none" fill="none" stroke="white" stroke-width="1.5" d="M0,-3.0v7 M-2.5,-0.5L0,-3.0L2.5,-0.5"/>
  </g>
  <g id="arrowRight" transform="rotate(90) translate(36 -43)">
    <use xlink:href="#rim"/>
    <path pointer-events="none" fill="none" stroke="white" stroke-width="1.5" d="M0,-3.0v7 M-2.5,-0.5L0,-3.0L2.5,-0.5"/>
  </g>
  <g id="arrowDown" transform="rotate(180) translate(-30 -48)">
    <use xlink:href="#rim"/>
    <path pointer-events="none" fill="none" stroke="white" stroke-width="1.5" d="M0,-3.0v7 M-2.5,-0.5L0,-3.0L2.5,-0.5"/>
  </g>
  <g id="arrowLeft" transform="rotate(270) translate(-36 17)">
    <use xlink:href="#rim"/>
    <path pointer-events="none" fill="none" stroke="white" stroke-width="1.5" d="M0,-3.0v7 M-2.5,-0.5L0,-3.0L2.5,-0.5"/>
  </g>
  <g id="resetDef">
    <use xlink:href="#rim2" fill="#404040"><set attributeName="fill" to="#808080" begin="reset.mouseover" end="reset.mouseout"/></use>
  </g>
</defs>
<script type="application/ecmascript">
var viewWidth = 876;
var viewHeight = 1022;
var sectionId = 'dynsection-220';
</script>
<script type="application/ecmascript" xlink:href="svg.min.js"/>
<svg id="graph" class="graph">
<g id="viewport">
<title>ChatCommandHandler::HandleCollisionTestLOS</title>
<!-- Node1 -->
<g id="Node000001" class="node">
<title>Node1</title>
<g id="a_Node000001"><a xlink:title=" ">
<polygon fill="#999999" stroke="#666666" points="137,-742.5 0,-742.5 0,-712.5 137,-712.5 137,-742.5"/>
<text text-anchor="start" x="8" y="-730.5" font-family="Helvetica,sans-Serif" font-size="10.00">ChatCommandHandler</text>
<text text-anchor="middle" x="68.5" y="-719.5" font-family="Helvetica,sans-Serif" font-size="10.00">::HandleCollisionTestLOS</text>
</a>
</g>
</g>
<!-- Node2 -->
<g id="Node000002" class="node">
<title>Node2</title>
<g id="a_Node000002"><a xlink:href="classWorldSession.html#a014d7fdeb157410b75dfd4bd0fe0efc2" target="_top" xlink:title=" ">
<polygon fill="white" stroke="#666666" points="503.5,-780 367.5,-780 367.5,-761 503.5,-761 503.5,-780"/>
<text text-anchor="middle" x="435.5" y="-768" font-family="Helvetica,sans-Serif" font-size="10.00">WorldSession::GetPlayer</text>
</a>
</g>
</g>
<!-- Node1&#45;&gt;Node2 -->
<g id="edge1_Node000001_Node000002" class="edge">
<title>Node1&#45;&gt;Node2</title>
<g id="a_edge1_Node000001_Node000002"><a xlink:title=" ">
<path fill="none" stroke="#63b8ff" d="M127.22,-742.55C142.05,-745.96 158.04,-749.24 173,-751.5 234.5,-760.81 304.85,-765.59 357.08,-768.03"/>
<polygon fill="#63b8ff" stroke="#63b8ff" points="357.13,-771.54 367.27,-768.49 357.44,-764.54 357.13,-771.54"/>
</a>
</g>
</g>
<!-- Node3 -->
<g id="Node000003" class="node">
<title>Node3</title>
<g id="a_Node000003"><a xlink:href="classChatCommandHandler.html#aad658f88986db7a7526dff8a75f806cd" target="_top" xlink:title=" ">
<polygon fill="white" stroke="#666666" points="308.5,-843.5 180.5,-843.5 180.5,-813.5 308.5,-813.5 308.5,-843.5"/>
<text text-anchor="start" x="188.5" y="-831.5" font-family="Helvetica,sans-Serif" font-size="10.00">ChatCommandHandler</text>
<text text-anchor="middle" x="244.5" y="-820.5" font-family="Helvetica,sans-Serif" font-size="10.00">::GetSelectedCreature</text>
</a>
</g>
</g>
<!-- Node1&#45;&gt;Node3 -->
<g id="edge2_Node000001_Node000003" class="edge">
<title>Node1&#45;&gt;Node3</title>
<g id="a_edge2_Node000001_Node000003"><a xlink:title=" ">
<path fill="none" stroke="#63b8ff" d="M95.55,-742.62C125.62,-760.08 175.21,-788.86 208.6,-808.24"/>
<polygon fill="#63b8ff" stroke="#63b8ff" points="207.15,-811.45 217.56,-813.44 210.67,-805.39 207.15,-811.45"/>
</a>
</g>
</g>
<!-- Node13 -->
<g id="Node000013" class="node">
<title>Node13</title>
<g id="a_Node000013"><a xlink:href="classChatCommandHandler.html#abb463a1e2b89d32f293c3c16f19c7d70" target="_top" xlink:title=" ">
<polygon fill="white" stroke="#666666" points="308.5,-742.5 180.5,-742.5 180.5,-712.5 308.5,-712.5 308.5,-742.5"/>
<text text-anchor="start" x="188.5" y="-730.5" font-family="Helvetica,sans-Serif" font-size="10.00">ChatCommandHandler</text>
<text text-anchor="middle" x="244.5" y="-719.5" font-family="Helvetica,sans-Serif" font-size="10.00">::GetSelectedPlayer</text>
</a>
</g>
</g>
<!-- Node1&#45;&gt;Node13 -->
<g id="edge13_Node000001_Node000013" class="edge">
<title>Node1&#45;&gt;Node13</title>
<g id="a_edge13_Node000001_Node000013"><a xlink:title=" ">
<path fill="none" stroke="#63b8ff" d="M137.27,-727.5C148.05,-727.5 159.23,-727.5 170.13,-727.5"/>
<polygon fill="#63b8ff" stroke="#63b8ff" points="170.46,-731 180.46,-727.5 170.46,-724 170.46,-731"/>
</a>
</g>
</g>
<!-- Node17 -->
<g id="Node000017" class="node">
<title>Node17</title>
<g id="a_Node000017"><a xlink:href="classObject.html#a917b0a7d0f28709ece80f537f82b1d73" target="_top" xlink:title=" ">
<polygon fill="white" stroke="#666666" points="316,-409 173,-409 173,-390 316,-390 316,-409"/>
<text text-anchor="middle" x="244.5" y="-397" font-family="Helvetica,sans-Serif" font-size="10.00">Object::IsWithinLOSInMap</text>
</a>
</g>
</g>
<!-- Node1&#45;&gt;Node17 -->
<g id="edge22_Node000001_Node000017" class="edge">
<title>Node1&#45;&gt;Node17</title>
<g id="a_edge22_Node000001_Node000017"><a xlink:title=" ">
<path fill="none" stroke="#63b8ff" d="M77.66,-712.12C106.37,-658 202.66,-476.49 233.74,-417.9"/>
<polygon fill="#63b8ff" stroke="#63b8ff" points="236.86,-419.49 238.45,-409.01 230.67,-416.21 236.86,-419.49"/>
</a>
</g>
</g>
<!-- Node42 -->
<g id="Node000042" class="node">
<title>Node42</title>
<g id="a_Node000042"><a xlink:href="classChatCommandHandler.html#aabb272c702b97a0325b0b2cfff4a2402" target="_top" xlink:title=" ">
<polygon fill="white" stroke="#666666" points="308.5,-646.5 180.5,-646.5 180.5,-616.5 308.5,-616.5 308.5,-646.5"/>
<text text-anchor="start" x="188.5" y="-634.5" font-family="Helvetica,sans-Serif" font-size="10.00">ChatCommandHandler</text>
<text text-anchor="middle" x="244.5" y="-623.5" font-family="Helvetica,sans-Serif" font-size="10.00">::systemMessage</text>
</a>
</g>
</g>
<!-- Node1&#45;&gt;Node42 -->
<g id="edge52_Node000001_Node000042" class="edge">
<title>Node1&#45;&gt;Node42</title>
<g id="a_edge52_Node000001_Node000042"><a xlink:title=" ">
<path fill="none" stroke="#63b8ff" d="M96.69,-712.5C126.48,-696.06 174.41,-669.62 207.35,-651.44"/>
<polygon fill="#63b8ff" stroke="#63b8ff" points="209.15,-654.45 216.22,-646.55 205.77,-648.32 209.15,-654.45"/>
</a>
</g>
</g>
<!-- Node3&#45;&gt;Node2 -->
<g id="edge7_Node000003_Node000002" class="edge">
<title>Node3&#45;&gt;Node2</title>
<g id="a_edge7_Node000003_Node000002"><a xlink:title=" ">
<path fill="none" stroke="#63b8ff" d="M281.53,-813.48C301.96,-805.35 328.13,-795.55 352,-788.5 359.51,-786.28 367.48,-784.21 375.4,-782.31"/>
<polygon fill="#63b8ff" stroke="#63b8ff" points="376.39,-785.67 385.34,-780 374.81,-778.85 376.39,-785.67"/>
</a>
</g>
</g>
<!-- Node4 -->
<g id="Node000004" class="node">
<title>Node4</title>
<g id="a_Node000004"><a xlink:href="classWorldMap.html#aaca4751736f7fd902ca0745a950148bd" target="_top" xlink:title=" ">
<polygon fill="white" stroke="#666666" points="500,-1014 371,-1014 371,-995 500,-995 500,-1014"/>
<text text-anchor="middle" x="435.5" y="-1002" font-family="Helvetica,sans-Serif" font-size="10.00">WorldMap::getCreature</text>
</a>
</g>
</g>
<!-- Node3&#45;&gt;Node4 -->
<g id="edge3_Node000003_Node000004" class="edge">
<title>Node3&#45;&gt;Node4</title>
<g id="a_edge3_Node000003_Node000004"><a xlink:title=" ">
<path fill="none" stroke="#63b8ff" d="M251.27,-843.98C264.08,-876.07 298.08,-949.9 352,-986.5 354.94,-988.5 358.06,-990.27 361.31,-991.86"/>
<polygon fill="#63b8ff" stroke="#63b8ff" points="360.15,-995.17 370.72,-995.83 362.87,-988.72 360.15,-995.17"/>
</a>
</g>
</g>
<!-- Node5 -->
<g id="Node000005" class="node">
<title>Node5</title>
<g id="a_Node000005"><a xlink:href="classWoWGuid.html#aaa546e886497d5fb0e2eb2a267a81786" target="_top" xlink:title=" ">
<polygon fill="white" stroke="#666666" points="508.5,-977 362.5,-977 362.5,-958 508.5,-958 508.5,-977"/>
<text text-anchor="middle" x="435.5" y="-965" font-family="Helvetica,sans-Serif" font-size="10.00">WoWGuid::getGuidLowPart</text>
</a>
</g>
</g>
<!-- Node3&#45;&gt;Node5 -->
<g id="edge4_Node000003_Node000005" class="edge">
<title>Node3&#45;&gt;Node5</title>
<g id="a_edge4_Node000003_Node000005"><a xlink:title=" ">
<path fill="none" stroke="#63b8ff" d="M254.2,-843.51C270.09,-869.51 306.42,-922.67 352,-949.5 355,-951.26 358.15,-952.85 361.39,-954.29"/>
<polygon fill="#63b8ff" stroke="#63b8ff" points="360.18,-957.57 370.77,-957.94 362.72,-951.05 360.18,-957.57"/>
</a>
</g>
</g>
<!-- Node6 -->
<g id="Node000006" class="node">
<title>Node6</title>
<g id="a_Node000006"><a xlink:href="classWoWGuid.html#a8c5db0d6b72e4cc9e850a410f0030b92" target="_top" xlink:title=" ">
<polygon fill="white" stroke="#666666" points="489.5,-854 381.5,-854 381.5,-835 489.5,-835 489.5,-854"/>
<text text-anchor="middle" x="435.5" y="-842" font-family="Helvetica,sans-Serif" font-size="10.00">WoWGuid::getHigh</text>
</a>
</g>
</g>
<!-- Node3&#45;&gt;Node6 -->
<g id="edge5_Node000003_Node000006" class="edge">
<title>Node3&#45;&gt;Node6</title>
<g id="a_edge5_Node000003_Node000006"><a xlink:title=" ">
<path fill="none" stroke="#63b8ff" d="M308.7,-833.85C328.89,-835.56 351.24,-837.45 371.43,-839.16"/>
<polygon fill="#63b8ff" stroke="#63b8ff" points="371.19,-842.65 381.45,-840.01 371.79,-835.68 371.19,-842.65"/>
</a>
</g>
</g>
<!-- Node7 -->
<g id="Node000007" class="node">
<title>Node7</title>
<g id="a_Node000007"><a xlink:href="classWorldMap.html#a54a7a06ee3df07916e9eb107e1d41313" target="_top" xlink:title=" ">
<polygon fill="white" stroke="#666666" points="487,-940 384,-940 384,-921 487,-921 487,-940"/>
<text text-anchor="middle" x="435.5" y="-928" font-family="Helvetica,sans-Serif" font-size="10.00">WorldMap::getPet</text>
</a>
</g>
</g>
<!-- Node3&#45;&gt;Node7 -->
<g id="edge6_Node000003_Node000007" class="edge">
<title>Node3&#45;&gt;Node7</title>
<g id="a_edge6_Node000003_Node000007"><a xlink:title=" ">
<path fill="none" stroke="#63b8ff" d="M260.28,-843.52C279.62,-862.3 315.38,-894.07 352,-911.5 358.83,-914.75 366.25,-917.46 373.74,-919.72"/>
<polygon fill="#63b8ff" stroke="#63b8ff" points="373.02,-923.15 383.59,-922.43 374.88,-916.4 373.02,-923.15"/>
</a>
</g>
</g>
<!-- Node8 -->
<g id="Node000008" class="node">
<title>Node8</title>
<g id="a_Node000008"><a xlink:href="classUnit.html#a50e5b30e1c170be2c8415a84d0e78cc8" target="_top" xlink:title=" ">
<polygon fill="white" stroke="#666666" points="491,-817 380,-817 380,-798 491,-798 491,-817"/>
<text text-anchor="middle" x="435.5" y="-805" font-family="Helvetica,sans-Serif" font-size="10.00">Unit::getTargetGuid</text>
</a>
</g>
</g>
<!-- Node3&#45;&gt;Node8 -->
<g id="edge8_Node000003_Node000008" class="edge">
<title>Node3&#45;&gt;Node8</title>
<g id="a_edge8_Node000003_Node000008"><a xlink:title=" ">
<path fill="none" stroke="#63b8ff" d="M308.7,-821.48C328.34,-819.3 350.03,-816.89 369.78,-814.69"/>
<polygon fill="#63b8ff" stroke="#63b8ff" points="370.35,-818.15 379.91,-813.57 369.58,-811.19 370.35,-818.15"/>
</a>
</g>
</g>
<!-- Node10 -->
<g id="Node000010" class="node">
<title>Node10</title>
<g id="a_Node000010"><a xlink:href="classObject.html#a967af054c54b6d9846637ce8718efd75" target="_top" xlink:title=" ">
<polygon fill="white" stroke="#666666" points="495,-632 376,-632 376,-613 495,-613 495,-632"/>
<text text-anchor="middle" x="435.5" y="-620" font-family="Helvetica,sans-Serif" font-size="10.00">Object::getWorldMap</text>
</a>
</g>
</g>
<!-- Node3&#45;&gt;Node10 -->
<g id="edge10_Node000003_Node000010" class="edge">
<title>Node3&#45;&gt;Node10</title>
<g id="a_edge10_Node000003_Node000010"><a xlink:title=" ">
<path fill="none" stroke="#63b8ff" d="M263.16,-813.34C279,-798.88 301.86,-775.77 316,-751.5 342.11,-706.69 313.56,-675.32 352,-640.5 356.21,-636.69 361.04,-633.61 366.2,-631.15"/>
<polygon fill="#63b8ff" stroke="#63b8ff" points="367.78,-634.28 375.78,-627.33 365.19,-627.78 367.78,-634.28"/>
</a>
</g>
</g>
<!-- Node11 -->
<g id="Node000011" class="node">
<title>Node11</title>
<g id="a_Node000011"><a xlink:href="classWoWGuid.html#af262e032110b2936fde7b85a73a21d1b" target="_top" xlink:title=" ">
<polygon fill="white" stroke="#666666" points="478.5,-743 392.5,-743 392.5,-724 478.5,-724 478.5,-743"/>
<text text-anchor="middle" x="435.5" y="-731" font-family="Helvetica,sans-Serif" font-size="10.00">WoWGuid::Init</text>
</a>
</g>
</g>
<!-- Node3&#45;&gt;Node11 -->
<g id="edge11_Node000003_Node000011" class="edge">
<title>Node3&#45;&gt;Node11</title>
<g id="a_edge11_Node000003_Node000011"><a xlink:title=" ">
<path fill="none" stroke="#63b8ff" d="M261.84,-813.32C281.66,-795.75 316.8,-767.24 352,-751.5 361.53,-747.24 372.15,-743.95 382.51,-741.43"/>
<polygon fill="#63b8ff" stroke="#63b8ff" points="383.32,-744.84 392.31,-739.24 381.79,-738.01 383.32,-744.84"/>
</a>
</g>
</g>
<!-- Node12 -->
<g id="Node000012" class="node">
<title>Node12</title>
<g id="a_Node000012"><a xlink:href="classChatCommandHandler.html#ac481a38af41845bdacba6cfca6f08a2d" target="_top" xlink:title=" ">
<polygon fill="white" stroke="#666666" points="499.5,-902.5 371.5,-902.5 371.5,-872.5 499.5,-872.5 499.5,-902.5"/>
<text text-anchor="start" x="379.5" y="-890.5" font-family="Helvetica,sans-Serif" font-size="10.00">ChatCommandHandler</text>
<text text-anchor="middle" x="435.5" y="-879.5" font-family="Helvetica,sans-Serif" font-size="10.00">::redSystemMessage</text>
</a>
</g>
</g>
<!-- Node3&#45;&gt;Node12 -->
<g id="edge12_Node000003_Node000012" class="edge">
<title>Node3&#45;&gt;Node12</title>
<g id="a_edge12_Node000003_Node000012"><a xlink:title=" ">
<path fill="none" stroke="#63b8ff" d="M292.11,-843.54C310.72,-849.51 332.36,-856.39 352,-862.5 359.34,-864.78 367.05,-867.15 374.69,-869.49"/>
<polygon fill="#63b8ff" stroke="#63b8ff" points="373.71,-872.85 384.29,-872.41 375.75,-866.15 373.71,-872.85"/>
</a>
</g>
</g>
<!-- Node9 -->
<g id="Node000009" class="node">
<title>Node9</title>
<g id="a_Node000009"><a xlink:href="classUnit.html#a2b80af47340ac01ca2031723f37e839a" target="_top" xlink:title=" ">
<polygon fill="white" stroke="#666666" points="676,-817 591,-817 591,-798 676,-798 676,-817"/>
<text text-anchor="middle" x="633.5" y="-805" font-family="Helvetica,sans-Serif" font-size="10.00">Unit::unitData</text>
</a>
</g>
</g>
<!-- Node8&#45;&gt;Node9 -->
<g id="edge9_Node000008_Node000009" class="edge">
<title>Node8&#45;&gt;Node9</title>
<g id="a_edge9_Node000008_Node000009"><a xlink:title=" ">
<path fill="none" stroke="#63b8ff" d="M491.1,-807.5C519.12,-807.5 553.08,-807.5 580.69,-807.5"/>
<polygon fill="#63b8ff" stroke="#63b8ff" points="580.94,-811 590.94,-807.5 580.94,-804 580.94,-811"/>
</a>
</g>
</g>
<!-- Node13&#45;&gt;Node2 -->
<g id="edge15_Node000013_Node000002" class="edge">
<title>Node13&#45;&gt;Node2</title>
<g id="a_edge15_Node000013_Node000002"><a xlink:title=" ">
<path fill="none" stroke="#63b8ff" d="M308.7,-741.88C332.72,-747.34 359.79,-753.5 382.64,-758.7"/>
<polygon fill="#63b8ff" stroke="#63b8ff" points="381.96,-762.14 392.49,-760.94 383.52,-755.31 381.96,-762.14"/>
</a>
</g>
</g>
<!-- Node13&#45;&gt;Node6 -->
<g id="edge14_Node000013_Node000006" class="edge">
<title>Node13&#45;&gt;Node6</title>
<g id="a_edge14_Node000013_Node000006"><a xlink:title=" ">
<path fill="none" stroke="#63b8ff" d="M257.51,-742.71C275.59,-764.53 311.99,-804.41 352,-825.5 358.03,-828.68 364.58,-831.33 371.26,-833.54"/>
<polygon fill="#63b8ff" stroke="#63b8ff" points="370.53,-836.97 381.11,-836.47 372.52,-830.26 370.53,-836.97"/>
</a>
</g>
</g>
<!-- Node13&#45;&gt;Node8 -->
<g id="edge17_Node000013_Node000008" class="edge">
<title>Node13&#45;&gt;Node8</title>
<g id="a_edge17_Node000013_Node000008"><a xlink:title=" ">
<path fill="none" stroke="#63b8ff" d="M267.39,-742.6C288.27,-756.38 321.05,-776.38 352,-788.5 358.44,-791.02 365.29,-793.26 372.2,-795.23"/>
<polygon fill="#63b8ff" stroke="#63b8ff" points="371.74,-798.73 382.3,-797.93 373.55,-791.96 371.74,-798.73"/>
</a>
</g>
</g>
<!-- Node13&#45;&gt;Node10 -->
<g id="edge18_Node000013_Node000010" class="edge">
<title>Node13&#45;&gt;Node10</title>
<g id="a_edge18_Node000013_Node000010"><a xlink:title=" ">
<path fill="none" stroke="#63b8ff" d="M259.44,-712.34C278.42,-692.65 314.38,-658.67 352,-640.5 356.39,-638.38 361.03,-636.51 365.78,-634.85"/>
<polygon fill="#63b8ff" stroke="#63b8ff" points="367.16,-638.09 375.65,-631.76 365.06,-631.41 367.16,-638.09"/>
</a>
</g>
</g>
<!-- Node13&#45;&gt;Node11 -->
<g id="edge19_Node000013_Node000011" class="edge">
<title>Node13&#45;&gt;Node11</title>
<g id="a_edge19_Node000013_Node000011"><a xlink:title=" ">
<path fill="none" stroke="#63b8ff" d="M308.7,-729.51C332.61,-730.27 359.55,-731.12 382.34,-731.84"/>
<polygon fill="#63b8ff" stroke="#63b8ff" points="382.38,-735.35 392.49,-732.17 382.61,-728.35 382.38,-735.35"/>
</a>
</g>
</g>
<!-- Node14 -->
<g id="Node000014" class="node">
<title>Node14</title>
<g id="a_Node000014"><a xlink:href="classWorldMap.html#aaef96289a191fb47e1312a8938b835af" target="_top" xlink:title=" ">
<polygon fill="white" stroke="#666666" points="494.5,-706 376.5,-706 376.5,-687 494.5,-687 494.5,-706"/>
<text text-anchor="middle" x="435.5" y="-694" font-family="Helvetica,sans-Serif" font-size="10.00">WorldMap::getPlayer</text>
</a>
</g>
</g>
<!-- Node13&#45;&gt;Node14 -->
<g id="edge16_Node000013_Node000014" class="edge">
<title>Node13&#45;&gt;Node14</title>
<g id="a_edge16_Node000013_Node000014"><a xlink:title=" ">
<path fill="none" stroke="#63b8ff" d="M308.7,-717.13C327.25,-714.09 347.63,-710.75 366.47,-707.66"/>
<polygon fill="#63b8ff" stroke="#63b8ff" points="367.16,-711.09 376.46,-706.02 366.03,-704.18 367.16,-711.09"/>
</a>
</g>
</g>
<!-- Node15 -->
<g id="Node000015" class="node">
<title>Node15</title>
<g id="a_Node000015"><a xlink:href="classWorldSession.html#ab014961bae815ec29c0d062da893ce68" target="_top" xlink:title=" ">
<polygon fill="white" stroke="#666666" points="519,-669 352,-669 352,-650 519,-650 519,-669"/>
<text text-anchor="middle" x="435.5" y="-657" font-family="Helvetica,sans-Serif" font-size="10.00">WorldSession::systemMessage</text>
</a>
</g>
</g>
<!-- Node13&#45;&gt;Node15 -->
<g id="edge20_Node000013_Node000015" class="edge">
<title>Node13&#45;&gt;Node15</title>
<g id="a_edge20_Node000013_Node000015"><a xlink:title=" ">
<path fill="none" stroke="#63b8ff" d="M273.26,-712.36C294.35,-701.38 324.34,-686.88 352,-677.5 358.44,-675.32 365.25,-673.34 372.09,-671.55"/>
<polygon fill="#63b8ff" stroke="#63b8ff" points="373.22,-674.88 382.08,-669.08 371.54,-668.08 373.22,-674.88"/>
</a>
</g>
</g>
<!-- Node16 -->
<g id="Node000016" class="node">
<title>Node16</title>
<g id="a_Node000016"><a xlink:href="namespaceAscEmu.html#af79227cb68117f159a0cf3232904123a" target="_top" xlink:title=" ">
<polygon fill="white" stroke="#666666" points="696,-652 571,-652 571,-633 696,-633 696,-652"/>
<text text-anchor="middle" x="633.5" y="-640" font-family="Helvetica,sans-Serif" font-size="10.00">AscEmu::StringFormat</text>
</a>
</g>
</g>
<!-- Node15&#45;&gt;Node16 -->
<g id="edge21_Node000015_Node000016" class="edge">
<title>Node15&#45;&gt;Node16</title>
<g id="a_edge21_Node000015_Node000016"><a xlink:title=" ">
<path fill="none" stroke="#63b8ff" d="M519.05,-652.34C532.89,-651.14 547.15,-649.9 560.69,-648.73"/>
<polygon fill="#63b8ff" stroke="#63b8ff" points="561.23,-652.19 570.89,-647.84 560.62,-645.22 561.23,-652.19"/>
</a>
</g>
</g>
<!-- Node17&#45;&gt;Node10 -->
<g id="edge41_Node000017_Node000010" class="edge">
<title>Node17&#45;&gt;Node10</title>
<g id="a_edge41_Node000017_Node000010"><a xlink:title=" ">
<path fill="none" stroke="#63b8ff" d="M250.15,-409.33C263.26,-436.4 302.86,-513.37 352,-564.5 368.48,-581.65 390.7,-596.93 407.93,-607.49"/>
<polygon fill="#63b8ff" stroke="#63b8ff" points="406.54,-610.74 416.92,-612.86 410.13,-604.73 406.54,-610.74"/>
</a>
</g>
</g>
<!-- Node18 -->
<g id="Node000018" class="node">
<title>Node18</title>
<g id="a_Node000018"><a xlink:href="classObject.html#ae67d92dd326286d127e5eec6af0cb123" target="_top" xlink:title=" ">
<polygon fill="white" stroke="#666666" points="507.5,-276 363.5,-276 363.5,-257 507.5,-257 507.5,-276"/>
<text text-anchor="middle" x="435.5" y="-264" font-family="Helvetica,sans-Serif" font-size="10.00">Object::getCollisionHeight</text>
</a>
</g>
</g>
<!-- Node17&#45;&gt;Node18 -->
<g id="edge23_Node000017_Node000018" class="edge">
<title>Node17&#45;&gt;Node18</title>
<g id="a_edge23_Node000017_Node000018"><a xlink:title=" ">
<path fill="none" stroke="#63b8ff" d="M252.27,-389.72C267.54,-368.42 306.84,-317.57 352,-290.5 359.53,-285.99 367.96,-282.28 376.47,-279.25"/>
<polygon fill="#63b8ff" stroke="#63b8ff" points="377.66,-282.54 386.08,-276.1 375.49,-275.89 377.66,-282.54"/>
</a>
</g>
</g>
<!-- Node19 -->
<g id="Node000019" class="node">
<title>Node19</title>
<g id="a_Node000019"><a xlink:href="classObject.html#a8ce209fe087159ea39d25f9851065151" target="_top" xlink:title=" ">
<polygon fill="white" stroke="#666666" points="514.5,-204 356.5,-204 356.5,-185 514.5,-185 514.5,-204"/>
<text text-anchor="middle" x="435.5" y="-192" font-family="Helvetica,sans-Serif" font-size="10.00">Object::getHitSpherePointFor</text>
</a>
</g>
</g>
<!-- Node17&#45;&gt;Node19 -->
<g id="edge24_Node000017_Node000019" class="edge">
<title>Node17&#45;&gt;Node19</title>
<g id="a_edge24_Node000017_Node000019"><a xlink:title=" ">
<path fill="none" stroke="#63b8ff" d="M250.62,-389.63C264.34,-363.89 304.13,-293.48 352,-247.5 368.16,-231.98 389.51,-218.41 406.44,-208.88"/>
<polygon fill="#63b8ff" stroke="#63b8ff" points="408.24,-211.89 415.34,-204.02 404.88,-205.75 408.24,-211.89"/>
</a>
</g>
</g>
<!-- Node26 -->
<g id="Node000026" class="node">
<title>Node26</title>
<g id="a_Node000026"><a xlink:href="classObject.html#a86d65d3e698fa64f7ba3ac898dad3ba0" target="_top" xlink:title=" ">
<polygon fill="white" stroke="#666666" points="692,-19 575,-19 575,0 692,0 692,-19"/>
<text text-anchor="middle" x="633.5" y="-7" font-family="Helvetica,sans-Serif" font-size="10.00">Object::GetPositionX</text>
</a>
</g>
</g>
<!-- Node17&#45;&gt;Node26 -->
<g id="edge38_Node000017_Node000026" class="edge">
<title>Node17&#45;&gt;Node26</title>
<g id="a_edge38_Node000017_Node000026"><a xlink:title=" ">
<path fill="none" stroke="#63b8ff" d="M248.27,-389.59C257.95,-356.32 292.9,-246.77 352,-175.5 423.27,-89.55 453.47,-73.95 555,-27.5 559.4,-25.49 564.05,-23.69 568.79,-22.08"/>
<polygon fill="#63b8ff" stroke="#63b8ff" points="570.09,-25.34 578.62,-19.05 568.03,-18.65 570.09,-25.34"/>
</a>
</g>
</g>
<!-- Node28 -->
<g id="Node000028" class="node">
<title>Node28</title>
<g id="a_Node000028"><a xlink:href="classObject.html#af5cb4bc9ecb20cf640a58bf23da23d19" target="_top" xlink:title=" ">
<polygon fill="white" stroke="#666666" points="691.5,-352 575.5,-352 575.5,-333 691.5,-333 691.5,-352"/>
<text text-anchor="middle" x="633.5" y="-340" font-family="Helvetica,sans-Serif" font-size="10.00">Object::GetPositionY</text>
</a>
</g>
</g>
<!-- Node17&#45;&gt;Node28 -->
<g id="edge39_Node000017_Node000028" class="edge">
<title>Node17&#45;&gt;Node28</title>
<g id="a_edge39_Node000017_Node000028"><a xlink:title=" ">
<path fill="none" stroke="#63b8ff" d="M267.02,-389.84C288.18,-380.81 321.63,-367.82 352,-361.5 423.9,-346.54 508.18,-342.6 565.45,-341.9"/>
<polygon fill="#63b8ff" stroke="#63b8ff" points="565.5,-345.4 575.47,-341.8 565.43,-338.4 565.5,-345.4"/>
</a>
</g>
</g>
<!-- Node30 -->
<g id="Node000030" class="node">
<title>Node30</title>
<g id="a_Node000030"><a xlink:href="classObject.html#a9c3cfe65940e81ae45107eaafd57d1dc" target="_top" xlink:title=" ">
<polygon fill="white" stroke="#666666" points="692,-315 575,-315 575,-296 692,-296 692,-315"/>
<text text-anchor="middle" x="633.5" y="-303" font-family="Helvetica,sans-Serif" font-size="10.00">Object::GetPositionZ</text>
</a>
</g>
</g>
<!-- Node17&#45;&gt;Node30 -->
<g id="edge40_Node000017_Node000030" class="edge">
<title>Node17&#45;&gt;Node30</title>
<g id="a_edge40_Node000017_Node000030"><a xlink:title=" ">
<path fill="none" stroke="#63b8ff" d="M258.49,-389.92C277.8,-376.23 315.7,-351.4 352,-339.5 422.25,-316.47 506.99,-308.77 564.82,-306.33"/>
<polygon fill="#63b8ff" stroke="#63b8ff" points="565.08,-309.83 574.94,-305.95 564.82,-302.83 565.08,-309.83"/>
</a>
</g>
</g>
<!-- Node31 -->
<g id="Node000031" class="node">
<title>Node31</title>
<g id="a_Node000031"><a xlink:href="classObject.html#ab32822d3603e26f4a51e881215d49520" target="_top" xlink:title=" ">
<polygon fill="white" stroke="#666666" points="486,-556 385,-556 385,-537 486,-537 486,-556"/>
<text text-anchor="middle" x="435.5" y="-544" font-family="Helvetica,sans-Serif" font-size="10.00">Object::GetPhase</text>
</a>
</g>
</g>
<!-- Node17&#45;&gt;Node31 -->
<g id="edge36_Node000017_Node000031" class="edge">
<title>Node17&#45;&gt;Node31</title>
<g id="a_edge36_Node000017_Node000031"><a xlink:title=" ">
<path fill="none" stroke="#63b8ff" d="M250.49,-409.02C263.6,-433.05 301.53,-496.44 352,-527.5 359.03,-531.83 366.95,-535.17 375.02,-537.75"/>
<polygon fill="#63b8ff" stroke="#63b8ff" points="374.33,-541.19 384.9,-540.54 376.23,-534.45 374.33,-541.19"/>
</a>
</g>
</g>
<!-- Node32 -->
<g id="Node000032" class="node">
<title>Node32</title>
<g id="a_Node000032"><a xlink:href="classObject.html#a805413ef3ee70fda6150f0b10f3d11b1" target="_top" xlink:title=" ">
<polygon fill="white" stroke="#666666" points="490,-519 381,-519 381,-500 490,-500 490,-519"/>
<text text-anchor="middle" x="435.5" y="-507" font-family="Helvetica,sans-Serif" font-size="10.00">Object::getPosition</text>
</a>
</g>
</g>
<!-- Node17&#45;&gt;Node32 -->
<g id="edge37_Node000017_Node000032" class="edge">
<title>Node17&#45;&gt;Node32</title>
<g id="a_edge37_Node000017_Node000032"><a xlink:title=" ">
<path fill="none" stroke="#63b8ff" d="M253.8,-409.19C270.43,-427.96 309.87,-469.27 352,-490.5 358,-493.52 364.48,-496.07 371.09,-498.22"/>
<polygon fill="#63b8ff" stroke="#63b8ff" points="370.23,-501.61 380.81,-501.09 372.21,-494.9 370.23,-501.61"/>
</a>
</g>
</g>
<!-- Node33 -->
<g id="Node000033" class="node">
<title>Node33</title>
<g id="a_Node000033"><a xlink:href="classWorldMap.html#a2cf28a8219c73c6a5945352c3de3acb2" target="_top" xlink:title=" ">
<polygon fill="white" stroke="#666666" points="508,-464 363,-464 363,-445 508,-445 508,-464"/>
<text text-anchor="middle" x="435.5" y="-452" font-family="Helvetica,sans-Serif" font-size="10.00">WorldMap::isInLineOfSight</text>
</a>
</g>
</g>
<!-- Node17&#45;&gt;Node33 -->
<g id="edge42_Node000017_Node000033" class="edge">
<title>Node17&#45;&gt;Node33</title>
<g id="a_edge42_Node000017_Node000033"><a xlink:title=" ">
<path fill="none" stroke="#63b8ff" d="M271.53,-409.11C292.96,-416.82 324.21,-427.62 352,-435.5 360.83,-438 370.25,-440.41 379.46,-442.63"/>
<polygon fill="#63b8ff" stroke="#63b8ff" points="378.8,-446.07 389.33,-444.95 380.4,-439.25 378.8,-446.07"/>
</a>
</g>
</g>
<!-- Node37 -->
<g id="Node000037" class="node">
<title>Node37</title>
<g id="a_Node000037"><a xlink:href="classObject.html#af2b8d5f136e06d73bc2bb7cc296259bd" target="_top" xlink:title=" ">
<polygon fill="white" stroke="#666666" points="481.5,-427 389.5,-427 389.5,-408 481.5,-408 481.5,-427"/>
<text text-anchor="middle" x="435.5" y="-415" font-family="Helvetica,sans-Serif" font-size="10.00">Object::IsInMap</text>
</a>
</g>
</g>
<!-- Node17&#45;&gt;Node37 -->
<g id="edge47_Node000017_Node000037" class="edge">
<title>Node17&#45;&gt;Node37</title>
<g id="a_edge47_Node000017_Node000037"><a xlink:title=" ">
<path fill="none" stroke="#63b8ff" d="M316.15,-406.23C337.04,-408.22 359.6,-410.37 379.36,-412.25"/>
<polygon fill="#63b8ff" stroke="#63b8ff" points="379.13,-415.74 389.41,-413.21 379.79,-408.77 379.13,-415.74"/>
</a>
</g>
</g>
<!-- Node40 -->
<g id="Node000040" class="node">
<title>Node40</title>
<g id="a_Node000040"><a xlink:href="classObject.html#ab65745f76d63eda49657413dccf0057d" target="_top" xlink:title=" ">
<polygon fill="white" stroke="#666666" points="482,-390 389,-390 389,-371 482,-371 482,-390"/>
<text text-anchor="middle" x="435.5" y="-378" font-family="Helvetica,sans-Serif" font-size="10.00">Object::isPlayer</text>
</a>
</g>
</g>
<!-- Node17&#45;&gt;Node40 -->
<g id="edge50_Node000017_Node000040" class="edge">
<title>Node17&#45;&gt;Node40</title>
<g id="a_edge50_Node000017_Node000040"><a xlink:title=" ">
<path fill="none" stroke="#63b8ff" d="M316.15,-392.4C336.86,-390.32 359.21,-388.07 378.85,-386.09"/>
<polygon fill="#63b8ff" stroke="#63b8ff" points="379.25,-389.57 388.85,-385.09 378.55,-382.61 379.25,-389.57"/>
</a>
</g>
</g>
<!-- Node20 -->
<g id="Node000020" class="node">
<title>Node20</title>
<g id="a_Node000020"><a xlink:href="classObject.html#a53848f8bf1ecc6cb0bb4e389f00d8762" target="_top" xlink:title=" ">
<polygon fill="white" stroke="#666666" points="703.5,-241 563.5,-241 563.5,-222 703.5,-222 703.5,-241"/>
<text text-anchor="middle" x="633.5" y="-229" font-family="Helvetica,sans-Serif" font-size="10.00">Object::getAbsoluteAngle</text>
</a>
</g>
</g>
<!-- Node19&#45;&gt;Node20 -->
<g id="edge25_Node000019_Node000020" class="edge">
<title>Node19&#45;&gt;Node20</title>
<g id="a_edge25_Node000019_Node000020"><a xlink:title=" ">
<path fill="none" stroke="#63b8ff" d="M486.97,-204.03C512.82,-208.91 544.49,-214.89 571.68,-220.02"/>
<polygon fill="#63b8ff" stroke="#63b8ff" points="571.38,-223.52 581.86,-221.94 572.68,-216.65 571.38,-223.52"/>
</a>
</g>
</g>
<!-- Node22 -->
<g id="Node000022" class="node">
<title>Node22</title>
<g id="a_Node000022"><a xlink:href="classObject.html#a806b5ef9b3f5d0b080afeab92c4b772a" target="_top" xlink:title=" ">
<polygon fill="white" stroke="#666666" points="702.5,-204 564.5,-204 564.5,-185 702.5,-185 702.5,-204"/>
<text text-anchor="middle" x="633.5" y="-192" font-family="Helvetica,sans-Serif" font-size="10.00">Object::getCombatReach</text>
</a>
</g>
</g>
<!-- Node19&#45;&gt;Node22 -->
<g id="edge27_Node000019_Node000022" class="edge">
<title>Node19&#45;&gt;Node22</title>
<g id="a_edge27_Node000019_Node000022"><a xlink:title=" ">
<path fill="none" stroke="#63b8ff" d="M514.53,-194.5C527.5,-194.5 540.96,-194.5 553.95,-194.5"/>
<polygon fill="#63b8ff" stroke="#63b8ff" points="554.24,-198 564.24,-194.5 554.24,-191 554.24,-198"/>
</a>
</g>
</g>
<!-- Node23 -->
<g id="Node000023" class="node">
<title>Node23</title>
<g id="a_Node000023"><a xlink:href="classLocationVector.html#af23cbe9fbb7a7b9d6bcbcc3507b074cd" target="_top" xlink:title=" ">
<polygon fill="white" stroke="#666666" points="712,-167 555,-167 555,-148 712,-148 712,-167"/>
<text text-anchor="middle" x="633.5" y="-155" font-family="Helvetica,sans-Serif" font-size="10.00">LocationVector::getExactDist</text>
</a>
</g>
</g>
<!-- Node19&#45;&gt;Node23 -->
<g id="edge28_Node000019_Node000023" class="edge">
<title>Node19&#45;&gt;Node23</title>
<g id="a_edge28_Node000019_Node000023"><a xlink:title=" ">
<path fill="none" stroke="#63b8ff" d="M486.97,-184.97C512.82,-180.09 544.49,-174.11 571.68,-168.98"/>
<polygon fill="#63b8ff" stroke="#63b8ff" points="572.68,-172.35 581.86,-167.06 571.38,-165.48 572.68,-172.35"/>
</a>
</g>
</g>
<!-- Node24 -->
<g id="Node000024" class="node">
<title>Node24</title>
<g id="a_Node000024"><a xlink:href="classObject.html#a18b2042e111647c68c57dbe18d12934b" target="_top" xlink:title=" ">
<polygon fill="white" stroke="#666666" points="688.5,-130 578.5,-130 578.5,-111 688.5,-111 688.5,-130"/>
<text text-anchor="middle" x="633.5" y="-118" font-family="Helvetica,sans-Serif" font-size="10.00">Object::GetPosition</text>
</a>
</g>
</g>
<!-- Node19&#45;&gt;Node24 -->
<g id="edge29_Node000019_Node000024" class="edge">
<title>Node19&#45;&gt;Node24</title>
<g id="a_edge29_Node000019_Node000024"><a xlink:title=" ">
<path fill="none" stroke="#63b8ff" d="M453.68,-184.95C476.3,-172.71 517.61,-151.51 555,-138.5 561.08,-136.39 567.51,-134.44 573.97,-132.68"/>
<polygon fill="#63b8ff" stroke="#63b8ff" points="575.28,-135.96 584.09,-130.07 573.53,-129.18 575.28,-135.96"/>
</a>
</g>
</g>
<!-- Node25 -->
<g id="Node000025" class="node">
<title>Node25</title>
<g id="a_Node000025"><a xlink:href="classLocationVector.html#a96434544ceccbc22f977047d967e259c" target="_top" xlink:title=" ">
<polygon fill="white" stroke="#666666" points="711.5,-93 555.5,-93 555.5,-74 711.5,-74 711.5,-93"/>
<text text-anchor="middle" x="633.5" y="-81" font-family="Helvetica,sans-Serif" font-size="10.00">LocationVector::getPositionX</text>
</a>
</g>
</g>
<!-- Node19&#45;&gt;Node25 -->
<g id="edge30_Node000019_Node000025" class="edge">
<title>Node19&#45;&gt;Node25</title>
<g id="a_edge30_Node000019_Node000025"><a xlink:title=" ">
<path fill="none" stroke="#63b8ff" d="M445.64,-184.93C464.33,-165.96 509.01,-123.54 555,-101.5 559.1,-99.53 563.44,-97.77 567.87,-96.2"/>
<polygon fill="#63b8ff" stroke="#63b8ff" points="569.23,-99.44 577.69,-93.05 567.1,-92.78 569.23,-99.44"/>
</a>
</g>
</g>
<!-- Node19&#45;&gt;Node26 -->
<g id="edge31_Node000019_Node000026" class="edge">
<title>Node19&#45;&gt;Node26</title>
<g id="a_edge31_Node000019_Node000026"><a xlink:title=" ">
<path fill="none" stroke="#63b8ff" d="M445.98,-184.91C462.22,-168.16 495.88,-132.04 519,-97.5 538.46,-68.43 527.41,-49 555,-27.5 558.22,-24.99 561.72,-22.82 565.41,-20.95"/>
<polygon fill="#63b8ff" stroke="#63b8ff" points="567.08,-24.04 574.88,-16.87 564.31,-17.61 567.08,-24.04"/>
</a>
</g>
</g>
<!-- Node27 -->
<g id="Node000027" class="node">
<title>Node27</title>
<g id="a_Node000027"><a xlink:href="classLocationVector.html#aea4c7604d51932b7e9f7eaa8ad81053d" target="_top" xlink:title=" ">
<polygon fill="white" stroke="#666666" points="711,-56 556,-56 556,-37 711,-37 711,-56"/>
<text text-anchor="middle" x="633.5" y="-44" font-family="Helvetica,sans-Serif" font-size="10.00">LocationVector::getPositionY</text>
</a>
</g>
</g>
<!-- Node19&#45;&gt;Node27 -->
<g id="edge32_Node000019_Node000027" class="edge">
<title>Node19&#45;&gt;Node27</title>
<g id="a_edge32_Node000019_Node000027"><a xlink:title=" ">
<path fill="none" stroke="#63b8ff" d="M444.91,-184.62C469.61,-155.68 541.1,-72.64 555,-64.5 558.01,-62.74 561.18,-61.14 564.45,-59.71"/>
<polygon fill="#63b8ff" stroke="#63b8ff" points="565.82,-62.93 573.89,-56.06 563.3,-56.4 565.82,-62.93"/>
</a>
</g>
</g>
<!-- Node19&#45;&gt;Node28 -->
<g id="edge33_Node000019_Node000028" class="edge">
<title>Node19&#45;&gt;Node28</title>
<g id="a_edge33_Node000019_Node000028"><a xlink:title=" ">
<path fill="none" stroke="#63b8ff" d="M457.83,-204.01C476.04,-213.02 501.92,-228.06 519,-247.5 543.67,-275.57 526.04,-299.87 555,-323.5 558.32,-326.21 561.97,-328.54 565.82,-330.55"/>
<polygon fill="#63b8ff" stroke="#63b8ff" points="564.55,-333.81 575.11,-334.66 567.39,-327.41 564.55,-333.81"/>
</a>
</g>
</g>
<!-- Node29 -->
<g id="Node000029" class="node">
<title>Node29</title>
<g id="a_Node000029"><a xlink:href="classLocationVector.html#a33965423efe74e08493550396ff9fc5d" target="_top" xlink:title=" ">
<polygon fill="white" stroke="#666666" points="711.5,-278 555.5,-278 555.5,-259 711.5,-259 711.5,-278"/>
<text text-anchor="middle" x="633.5" y="-266" font-family="Helvetica,sans-Serif" font-size="10.00">LocationVector::getPositionZ</text>
</a>
</g>
</g>
<!-- Node19&#45;&gt;Node29 -->
<g id="edge34_Node000019_Node000029" class="edge">
<title>Node19&#45;&gt;Node29</title>
<g id="a_edge34_Node000019_Node000029"><a xlink:title=" ">
<path fill="none" stroke="#63b8ff" d="M454.51,-204.21C477.35,-216.2 518.19,-236.58 555,-249.5 562.09,-251.99 569.65,-254.27 577.17,-256.33"/>
<polygon fill="#63b8ff" stroke="#63b8ff" points="576.43,-259.76 586.99,-258.91 578.2,-252.98 576.43,-259.76"/>
</a>
</g>
</g>
<!-- Node19&#45;&gt;Node30 -->
<g id="edge35_Node000019_Node000030" class="edge">
<title>Node19&#45;&gt;Node30</title>
<g id="a_edge35_Node000019_Node000030"><a xlink:title=" ">
<path fill="none" stroke="#63b8ff" d="M454.13,-204.07C471.46,-213.87 498.27,-230.1 519,-247.5 537.07,-262.66 534.68,-274.52 555,-286.5 558.69,-288.68 562.62,-290.61 566.68,-292.31"/>
<polygon fill="#63b8ff" stroke="#63b8ff" points="565.74,-295.7 576.33,-295.91 568.19,-289.14 565.74,-295.7"/>
</a>
</g>
</g>
<!-- Node21 -->
<g id="Node000021" class="node">
<title>Node21</title>
<g id="a_Node000021"><a xlink:href="MovementInfo_8hpp.html#a6bc723d7e15fe5cc9d10ed1435d66f12" target="_top" xlink:title=" ">
<polygon fill="white" stroke="#666666" points="868,-241 748,-241 748,-222 868,-222 868,-241"/>
<text text-anchor="middle" x="808" y="-229" font-family="Helvetica,sans-Serif" font-size="10.00">normalizeOrientation</text>
</a>
</g>
</g>
<!-- Node20&#45;&gt;Node21 -->
<g id="edge26_Node000020_Node000021" class="edge">
<title>Node20&#45;&gt;Node21</title>
<g id="a_edge26_Node000020_Node000021"><a xlink:title=" ">
<path fill="none" stroke="#63b8ff" d="M703.67,-231.5C714.86,-231.5 726.46,-231.5 737.66,-231.5"/>
<polygon fill="#63b8ff" stroke="#63b8ff" points="737.81,-235 747.81,-231.5 737.81,-228 737.81,-235"/>
</a>
</g>
</g>
<!-- Node33&#45;&gt;Node33 -->
<g id="edge46_Node000033_Node000033" class="edge">
<title>Node33&#45;&gt;Node33</title>
<g id="a_edge46_Node000033_Node000033"><a xlink:title=" ">
<path fill="none" stroke="#63b8ff" d="M406.22,-464.08C391.97,-472.73 401.73,-482 435.5,-482 458.72,-482 470.59,-477.62 471.11,-472.07"/>
<polygon fill="#63b8ff" stroke="#63b8ff" points="473.73,-469.75 464.78,-464.08 468.25,-474.1 473.73,-469.75"/>
</a>
</g>
</g>
<!-- Node34 -->
<g id="Node000034" class="node">
<title>Node34</title>
<g id="a_Node000034"><a xlink:href="classVMAP_1_1VMapFactory.html#a0695b6843f1ad9baf4cd33b115357404" target="_top" xlink:title=" ">
<polygon fill="white" stroke="#666666" points="706.5,-548.5 560.5,-548.5 560.5,-518.5 706.5,-518.5 706.5,-548.5"/>
<text text-anchor="start" x="568.5" y="-536.5" font-family="Helvetica,sans-Serif" font-size="10.00">VMAP::VMapFactory::</text>
<text text-anchor="middle" x="633.5" y="-525.5" font-family="Helvetica,sans-Serif" font-size="10.00">createOrGetVMapManager</text>
</a>
</g>
</g>
<!-- Node33&#45;&gt;Node34 -->
<g id="edge43_Node000033_Node000034" class="edge">
<title>Node33&#45;&gt;Node34</title>
<g id="a_edge43_Node000033_Node000034"><a xlink:title=" ">
<path fill="none" stroke="#63b8ff" d="M459.4,-464.12C476.04,-471.19 499.04,-481.16 519,-490.5 535.2,-498.08 538.44,-501.73 555,-508.5 560.53,-510.76 566.35,-512.96 572.21,-515.05"/>
<polygon fill="#63b8ff" stroke="#63b8ff" points="571.48,-518.5 582.07,-518.46 573.77,-511.88 571.48,-518.5"/>
</a>
</g>
</g>
<!-- Node35 -->
<g id="Node000035" class="node">
<title>Node35</title>
<g id="a_Node000035"><a xlink:href="classWorldMap.html#a4ddb28ddb4377bb52da40c205094f0af" target="_top" xlink:title=" ">
<polygon fill="white" stroke="#666666" points="699.5,-500 567.5,-500 567.5,-481 699.5,-481 699.5,-500"/>
<text text-anchor="middle" x="633.5" y="-488" font-family="Helvetica,sans-Serif" font-size="10.00">WorldMap::getBaseMap</text>
</a>
</g>
</g>
<!-- Node33&#45;&gt;Node35 -->
<g id="edge44_Node000033_Node000035" class="edge">
<title>Node33&#45;&gt;Node35</title>
<g id="a_edge44_Node000033_Node000035"><a xlink:title=" ">
<path fill="none" stroke="#63b8ff" d="M488.25,-464.01C513.5,-468.64 544.05,-474.25 570.53,-479.12"/>
<polygon fill="#63b8ff" stroke="#63b8ff" points="569.99,-482.58 580.46,-480.94 571.25,-475.69 569.99,-482.58"/>
</a>
</g>
</g>
<!-- Node36 -->
<g id="Node000036" class="node">
<title>Node36</title>
<g id="a_Node000036"><a xlink:href="classDynamicMapTree.html#a14fc59961aee3914a9046882fc711066" target="_top" xlink:title=" ">
<polygon fill="white" stroke="#666666" points="706,-596.5 561,-596.5 561,-566.5 706,-566.5 706,-596.5"/>
<text text-anchor="start" x="569" y="-584.5" font-family="Helvetica,sans-Serif" font-size="10.00">DynamicMapTree::isInLine</text>
<text text-anchor="middle" x="633.5" y="-573.5" font-family="Helvetica,sans-Serif" font-size="10.00">OfSight</text>
</a>
</g>
</g>
<!-- Node33&#45;&gt;Node36 -->
<g id="edge45_Node000033_Node000036" class="edge">
<title>Node33&#45;&gt;Node36</title>
<g id="a_edge45_Node000033_Node000036"><a xlink:title=" ">
<path fill="none" stroke="#63b8ff" d="M471.57,-464C487.48,-469.67 505.67,-478.22 519,-490.5 543.86,-513.41 528.91,-536.01 555,-557.5 556.55,-558.78 558.17,-559.98 559.84,-561.13"/>
<polygon fill="#63b8ff" stroke="#63b8ff" points="558.22,-564.24 568.6,-566.33 561.79,-558.22 558.22,-564.24"/>
</a>
</g>
</g>
<!-- Node38 -->
<g id="Node000038" class="node">
<title>Node38</title>
<g id="a_Node000038"><a xlink:href="classObject.html#a46ba7d7bca5df1096f8810455b1d70d5" target="_top" xlink:title=" ">
<polygon fill="white" stroke="#666666" points="695,-463 572,-463 572,-444 695,-444 695,-463"/>
<text text-anchor="middle" x="633.5" y="-451" font-family="Helvetica,sans-Serif" font-size="10.00">Object::GetInstanceID</text>
</a>
</g>
</g>
<!-- Node37&#45;&gt;Node38 -->
<g id="edge48_Node000037_Node000038" class="edge">
<title>Node37&#45;&gt;Node38</title>
<g id="a_edge48_Node000037_Node000038"><a xlink:title=" ">
<path fill="none" stroke="#63b8ff" d="M481.96,-425.85C508.36,-430.7 541.99,-436.88 570.76,-442.16"/>
<polygon fill="#63b8ff" stroke="#63b8ff" points="570.25,-445.62 580.71,-443.99 571.51,-438.74 570.25,-445.62"/>
</a>
</g>
</g>
<!-- Node39 -->
<g id="Node000039" class="node">
<title>Node39</title>
<g id="a_Node000039"><a xlink:href="classObject.html#a83139f119f64cd17f1dfa756e8aa5d0e" target="_top" xlink:title=" ">
<polygon fill="white" stroke="#666666" points="684,-426 583,-426 583,-407 684,-407 684,-426"/>
<text text-anchor="middle" x="633.5" y="-414" font-family="Helvetica,sans-Serif" font-size="10.00">Object::GetMapId</text>
</a>
</g>
</g>
<!-- Node37&#45;&gt;Node39 -->
<g id="edge49_Node000037_Node000039" class="edge">
<title>Node37&#45;&gt;Node39</title>
<g id="a_edge49_Node000037_Node000039"><a xlink:title=" ">
<path fill="none" stroke="#63b8ff" d="M481.96,-417.27C508.97,-417.13 543.54,-416.95 572.74,-416.8"/>
<polygon fill="#63b8ff" stroke="#63b8ff" points="572.84,-420.3 582.82,-416.75 572.8,-413.3 572.84,-420.3"/>
</a>
</g>
</g>
<!-- Node41 -->
<g id="Node000041" class="node">
<title>Node41</title>
<g id="a_Node000041"><a xlink:href="classObject.html#aaee2ed63355af5e632aba82f859822b4" target="_top" xlink:title=" ">
<polygon fill="white" stroke="#666666" points="700,-389 567,-389 567,-370 700,-370 700,-389"/>
<text text-anchor="middle" x="633.5" y="-377" font-family="Helvetica,sans-Serif" font-size="10.00">Object::getObjectTypeId</text>
</a>
</g>
</g>
<!-- Node40&#45;&gt;Node41 -->
<g id="edge51_Node000040_Node000041" class="edge">
<title>Node40&#45;&gt;Node41</title>
<g id="a_edge51_Node000040_Node000041"><a xlink:title=" ">
<path fill="none" stroke="#63b8ff" d="M482.45,-380.27C504.53,-380.15 531.57,-380.01 556.59,-379.89"/>
<polygon fill="#63b8ff" stroke="#63b8ff" points="556.81,-383.39 566.79,-379.84 556.78,-376.39 556.81,-383.39"/>
</a>
</g>
</g>
<!-- Node42&#45;&gt;Node16 -->
<g id="edge53_Node000042_Node000016" class="edge">
<title>Node42&#45;&gt;Node16</title>
<g id="a_edge53_Node000042_Node000016"><a xlink:title=" ">
<path fill="none" stroke="#63b8ff" d="M292.17,-616.45C310.6,-611.25 332.09,-606.07 352,-603.5 425.61,-593.99 445.79,-591.27 519,-603.5 548,-608.34 579.52,-619.7 601.96,-628.91"/>
<polygon fill="#63b8ff" stroke="#63b8ff" points="600.72,-632.19 611.3,-632.84 603.43,-625.73 600.72,-632.19"/>
</a>
</g>
</g>
</g>
</svg>

<g id="navigator" transform="translate(0 0)" fill="#404254">
  <rect fill="#f2f5e9" fill-opacity="0.5" stroke="#606060" stroke-width=".5" x="0" y="0" width="60" height="60"/>
  <use id="zoomplus" xlink:href="#zoomPlus" x="17" y="9" onmousedown="handleZoom(evt,'in')"/>
  <use id="zoomminus" xlink:href="#zoomMin" x="42" y="9" onmousedown="handleZoom(evt,'out')"/>
  <use id="reset" xlink:href="#resetDef" x="30" y="36" onmousedown="handleReset()"/>
   <use id="arrowup" xlink:href="#arrowUp" x="0" y="0" onmousedown="handlePan(0,-1)"/>
  <use id="arrowright" xlink:href="#arrowRight" x="0" y="0" onmousedown="handlePan(1,0)"/>
  <use id="arrowdown" xlink:href="#arrowDown" x="0" y="0" onmousedown="handlePan(0,1)"/>
  <use id="arrowleft" xlink:href="#arrowLeft" x="0" y="0" onmousedown="handlePan(-1,0)"/>
</g>
<svg viewBox="0 0 15 15" width="100%" height="30px" preserveAspectRatio="xMaxYMin meet">
 <g id="arrow_out" transform="scale(0.3 0.3)">
  <a xlink:href="classChatCommandHandler_a094138ec5d54ca11c48d69753ec8e979_cgraph_org.svg" target="_base">
   <rect id="button" ry="5" rx="5" y="6" x="6" height="38" width="38"
        fill="#f2f5e9" fill-opacity="0.5" stroke="#606060" stroke-width="1.0"/>
   <path id="arrow"
     d="M 11.500037,31.436501 C 11.940474,20.09759 22.043105,11.32322 32.158766,21.979434 L 37.068811,17.246167 C 37.068811,17.246167 37.088388,32 37.088388,32 L 22.160133,31.978069 C 22.160133,31.978069 26.997745,27.140456 26.997745,27.140456 C 18.528582,18.264221 13.291696,25.230495 11.500037,31.436501 z"
     style="fill:#404040;"/>
  </a>
 </g>
</svg>

<style type='text/css'>
<![CDATA[
[data-mouse-over-selected='false'] { opacity: 0.7; }
[data-mouse-over-selected='true']  { opacity: 1.0; }
]]>
</style>
<script type="application/ecmascript"><![CDATA[
document.addEventListener('DOMContentLoaded', (event) => {
  highlightEdges();
  highlightAdjacentNodes();
});
]]></script>
</svg>
