<?xml version="1.0" encoding="UTF-8" standalone="no"?>
<!DOCTYPE svg PUBLIC "-//W3C//DTD SVG 1.1//EN"
 "http://www.w3.org/Graphics/SVG/1.1/DTD/svg11.dtd">
<!-- Generated by graphviz version 2.43.0 (0)
 -->
<!-- Title: Pet::canLearnSpell Pages: 1 -->
<svg width="403pt" height="64pt"
 viewBox="0.00 0.00 403.00 64.00" xmlns="http://www.w3.org/2000/svg" xmlns:xlink="http://www.w3.org/1999/xlink">
<g id="graph0" class="graph" transform="scale(1 1) rotate(0) translate(4 60)">
<title>Pet::canLearnSpell</title>
<!-- Node1 -->
<g id="Node000001" class="node">
<title>Node1</title>
<g id="a_Node000001"><a xlink:title=" ">
<polygon fill="#999999" stroke="#666666" points="107,-37 0,-37 0,-18 107,-18 107,-37"/>
<text text-anchor="middle" x="53.5" y="-25" font-family="Helvetica,sans-Serif" font-size="10.00">Pet::canLearnSpell</text>
</a>
</g>
</g>
<!-- Node2 -->
<g id="Node000002" class="node">
<title>Node2</title>
<g id="a_Node000002"><a xlink:href="classUnit.html#adfa16ac0ecbefbac2e41e3fb1590a1a5" target="_top" xlink:title=" ">
<polygon fill="white" stroke="#666666" points="251,-56 166,-56 166,-37 251,-37 251,-56"/>
<text text-anchor="middle" x="208.5" y="-44" font-family="Helvetica,sans-Serif" font-size="10.00">Unit::getLevel</text>
</a>
</g>
</g>
<!-- Node1&#45;&gt;Node2 -->
<g id="edge1_Node000001_Node000002" class="edge">
<title>Node1&#45;&gt;Node2</title>
<g id="a_edge1_Node000001_Node000002"><a xlink:title=" ">
<path fill="none" stroke="#63b8ff" d="M107.15,-34.04C122.9,-35.99 140.13,-38.13 155.81,-40.08"/>
<polygon fill="#63b8ff" stroke="#63b8ff" points="155.5,-43.57 165.86,-41.33 156.37,-36.62 155.5,-43.57"/>
</a>
</g>
</g>
<!-- Node4 -->
<g id="Node000004" class="node">
<title>Node4</title>
<g id="a_Node000004"><a xlink:href="classSpellInfo.html#a3702a39f71109f8d84632d631aacad8f" target="_top" xlink:title=" ">
<polygon fill="white" stroke="#666666" points="274,-19 143,-19 143,0 274,0 274,-19"/>
<text text-anchor="middle" x="208.5" y="-7" font-family="Helvetica,sans-Serif" font-size="10.00">SpellInfo::getSpellLevel</text>
</a>
</g>
</g>
<!-- Node1&#45;&gt;Node4 -->
<g id="edge3_Node000001_Node000004" class="edge">
<title>Node1&#45;&gt;Node4</title>
<g id="a_edge3_Node000001_Node000004"><a xlink:title=" ">
<path fill="none" stroke="#63b8ff" d="M107.15,-21.31C115.42,-20.33 124.09,-19.31 132.74,-18.3"/>
<polygon fill="#63b8ff" stroke="#63b8ff" points="133.33,-21.75 142.85,-17.11 132.51,-14.8 133.33,-21.75"/>
</a>
</g>
</g>
<!-- Node3 -->
<g id="Node000003" class="node">
<title>Node3</title>
<g id="a_Node000003"><a xlink:href="classUnit.html#a2b80af47340ac01ca2031723f37e839a" target="_top" xlink:title=" ">
<polygon fill="white" stroke="#666666" points="395,-56 310,-56 310,-37 395,-37 395,-56"/>
<text text-anchor="middle" x="352.5" y="-44" font-family="Helvetica,sans-Serif" font-size="10.00">Unit::unitData</text>
</a>
</g>
</g>
<!-- Node2&#45;&gt;Node3 -->
<g id="edge2_Node000002_Node000003" class="edge">
<title>Node2&#45;&gt;Node3</title>
<g id="a_edge2_Node000002_Node000003"><a xlink:title=" ">
<path fill="none" stroke="#63b8ff" d="M251.34,-46.5C266.5,-46.5 283.82,-46.5 299.74,-46.5"/>
<polygon fill="#63b8ff" stroke="#63b8ff" points="299.96,-50 309.96,-46.5 299.96,-43 299.96,-50"/>
</a>
</g>
</g>
</g>
</svg>
