<?xml version="1.0" encoding="UTF-8" standalone="no"?>
<!DOCTYPE svg PUBLIC "-//W3C//DTD SVG 1.1//EN"
 "http://www.w3.org/Graphics/SVG/1.1/DTD/svg11.dtd">
<!-- Generated by graphviz version 2.43.0 (0)
 -->
<!-- Title: Player::unbindInstance Pages: 1 -->
<!--zoomable 341 -->

<svg id="main" version="1.1" xmlns="http://www.w3.org/2000/svg" xmlns:xlink="http://www.w3.org/1999/xlink" xml:space="preserve" onload="init(evt)">
<style type="text/css"><![CDATA[
.node, .edge {opacity: 0.7;}
.node.selected, .edge.selected {opacity: 1;}
.edge:hover path { stroke: red; }
.edge:hover polygon { stroke: red; fill: red; }
]]></style>

<defs>
  <circle id="rim" cx="0" cy="0" r="7"/>
  <circle id="rim2" cx="0" cy="0" r="3.5"/>
  <g id="zoomPlus">
    <use xlink:href="#rim" fill="#404040"><set attributeName="fill" to="#808080" begin="zoomplus.mouseover" end="zoomplus.mouseout"/></use>
    <path d="M-4,0h8M0,-4v8" fill="none" stroke="white" stroke-width="1.5" pointer-events="none"/>
  </g>
  <g id="zoomMin">
    <use xlink:href="#rim" fill="#404040"><set attributeName="fill" to="#808080" begin="zoomminus.mouseover" end="zoomminus.mouseout"/></use>
    <path d="M-4,0h8" fill="none" stroke="white" stroke-width="1.5" pointer-events="none"/>
  </g>
  <g id="arrowUp" transform="translate(30 24)">
    <use xlink:href="#rim"/>
    <path pointer-events="none" fill="none" stroke="white" stroke-width="1.5" d="M0,-3.0v7 M-2.5,-0.5L0,-3.0L2.5,-0.5"/>
  </g>
  <g id="arrowRight" transform="rotate(90) translate(36 -43)">
    <use xlink:href="#rim"/>
    <path pointer-events="none" fill="none" stroke="white" stroke-width="1.5" d="M0,-3.0v7 M-2.5,-0.5L0,-3.0L2.5,-0.5"/>
  </g>
  <g id="arrowDown" transform="rotate(180) translate(-30 -48)">
    <use xlink:href="#rim"/>
    <path pointer-events="none" fill="none" stroke="white" stroke-width="1.5" d="M0,-3.0v7 M-2.5,-0.5L0,-3.0L2.5,-0.5"/>
  </g>
  <g id="arrowLeft" transform="rotate(270) translate(-36 17)">
    <use xlink:href="#rim"/>
    <path pointer-events="none" fill="none" stroke="white" stroke-width="1.5" d="M0,-3.0v7 M-2.5,-0.5L0,-3.0L2.5,-0.5"/>
  </g>
  <g id="resetDef">
    <use xlink:href="#rim2" fill="#404040"><set attributeName="fill" to="#808080" begin="reset.mouseover" end="reset.mouseout"/></use>
  </g>
</defs>
<script type="application/ecmascript">
var viewWidth = 878;
var viewHeight = 341;
var sectionId = 'dynsection-1238';
</script>
<script type="application/ecmascript" xlink:href="svg.min.js"/>
<svg id="graph" class="graph">
<g id="viewport">
<title>Player::unbindInstance</title>
<!-- Node1 -->
<g id="Node000001" class="node">
<title>Node1</title>
<g id="a_Node000001"><a xlink:title=" ">
<polygon fill="#999999" stroke="#666666" points="128,-262 0,-262 0,-243 128,-243 128,-262"/>
<text text-anchor="middle" x="64" y="-250" font-family="Helvetica,sans-Serif" font-size="10.00">Player::unbindInstance</text>
</a>
</g>
</g>
<!-- Node2 -->
<g id="Node000002" class="node">
<title>Node2</title>
<g id="a_Node000002"><a xlink:href="classObject.html#ad4bcb83b6b6f44f83f42dac01b12b339" target="_top" xlink:title=" ">
<polygon fill="white" stroke="#666666" points="297.5,-316 185.5,-316 185.5,-297 297.5,-297 297.5,-316"/>
<text text-anchor="middle" x="241.5" y="-304" font-family="Helvetica,sans-Serif" font-size="10.00">Object::getGuidLow</text>
</a>
</g>
</g>
<!-- Node1&#45;&gt;Node2 -->
<g id="edge1_Node000001_Node000002" class="edge">
<title>Node1&#45;&gt;Node2</title>
<g id="a_edge1_Node000001_Node000002"><a xlink:title=" ">
<path fill="none" stroke="#63b8ff" d="M95.97,-262.03C124.83,-270.91 168.05,-284.21 199.7,-293.95"/>
<polygon fill="#63b8ff" stroke="#63b8ff" points="198.96,-297.38 209.54,-296.97 201.01,-290.69 198.96,-297.38"/>
</a>
</g>
</g>
<!-- Node4 -->
<g id="Node000004" class="node">
<title>Node4</title>
<g id="a_Node000004"><a xlink:href="classPlayer.html#aee195158e07a0138b257f8d1ede0cc6b" target="_top" xlink:title=" ">
<polygon fill="white" stroke="#666666" points="295,-262 188,-262 188,-243 295,-243 295,-262"/>
<text text-anchor="middle" x="241.5" y="-250" font-family="Helvetica,sans-Serif" font-size="10.00">Player::getSession</text>
</a>
</g>
</g>
<!-- Node1&#45;&gt;Node4 -->
<g id="edge3_Node000001_Node000004" class="edge">
<title>Node1&#45;&gt;Node4</title>
<g id="a_edge3_Node000001_Node000004"><a xlink:title=" ">
<path fill="none" stroke="#63b8ff" d="M128.36,-252.5C144.39,-252.5 161.59,-252.5 177.6,-252.5"/>
<polygon fill="#63b8ff" stroke="#63b8ff" points="177.92,-256 187.92,-252.5 177.92,-249 177.92,-256"/>
</a>
</g>
</g>
<!-- Node5 -->
<g id="Node000005" class="node">
<title>Node5</title>
<g id="a_Node000005"><a xlink:href="classWorldSession.html#aa7b976b925af3a0b06d5a8e679d18948" target="_top" xlink:title=" ">
<polygon fill="white" stroke="#666666" points="319,-190.5 164,-190.5 164,-160.5 319,-160.5 319,-190.5"/>
<text text-anchor="start" x="172" y="-178.5" font-family="Helvetica,sans-Serif" font-size="10.00">WorldSession::sendCalendar</text>
<text text-anchor="middle" x="241.5" y="-167.5" font-family="Helvetica,sans-Serif" font-size="10.00">RaidLockout</text>
</a>
</g>
</g>
<!-- Node1&#45;&gt;Node5 -->
<g id="edge4_Node000001_Node000005" class="edge">
<title>Node1&#45;&gt;Node5</title>
<g id="a_edge4_Node000001_Node000005"><a xlink:title=" ">
<path fill="none" stroke="#63b8ff" d="M86.87,-242.9C114.25,-230.89 161.8,-210.03 196.77,-194.69"/>
<polygon fill="#63b8ff" stroke="#63b8ff" points="198.52,-197.74 206.27,-190.52 195.7,-191.33 198.52,-197.74"/>
</a>
</g>
</g>
<!-- Node3 -->
<g id="Node000003" class="node">
<title>Node3</title>
<g id="a_Node000003"><a xlink:href="classObject.html#ae9814731421ab3e919a2e5c3b86e0eeb" target="_top" xlink:title=" ">
<polygon fill="white" stroke="#666666" points="493,-333 386,-333 386,-314 493,-314 493,-333"/>
<text text-anchor="middle" x="439.5" y="-321" font-family="Helvetica,sans-Serif" font-size="10.00">Object::objectData</text>
</a>
</g>
</g>
<!-- Node2&#45;&gt;Node3 -->
<g id="edge2_Node000002_Node000003" class="edge">
<title>Node2&#45;&gt;Node3</title>
<g id="a_edge2_Node000002_Node000003"><a xlink:title=" ">
<path fill="none" stroke="#63b8ff" d="M297.62,-311.28C321.9,-313.39 350.56,-315.87 375.66,-318.05"/>
<polygon fill="#63b8ff" stroke="#63b8ff" points="375.55,-321.55 385.82,-318.93 376.16,-314.58 375.55,-321.55"/>
</a>
</g>
</g>
<!-- Node6 -->
<g id="Node000006" class="node">
<title>Node6</title>
<g id="a_Node000006"><a xlink:href="classByteBuffer.html#ae11719d1d7d552629deae91783de6780" target="_top" xlink:title=" ">
<polygon fill="white" stroke="#666666" points="524,-296 355,-296 355,-277 524,-277 524,-296"/>
<text text-anchor="middle" x="439.5" y="-284" font-family="Helvetica,sans-Serif" font-size="10.00">ByteBuffer::appendPackedTime</text>
</a>
</g>
</g>
<!-- Node5&#45;&gt;Node6 -->
<g id="edge5_Node000005_Node000006" class="edge">
<title>Node5&#45;&gt;Node6</title>
<g id="a_edge5_Node000005_Node000006"><a xlink:title=" ">
<path fill="none" stroke="#63b8ff" d="M263.4,-190.73C279.03,-202.34 300.76,-218.92 319,-234.5 335.73,-248.79 335.53,-258.25 355,-268.5 358.52,-270.35 362.21,-272.01 366.01,-273.5"/>
<polygon fill="#63b8ff" stroke="#63b8ff" points="365.02,-276.87 375.62,-276.87 367.34,-270.26 365.02,-276.87"/>
</a>
</g>
</g>
<!-- Node7 -->
<g id="Node000007" class="node">
<title>Node7</title>
<g id="a_Node000007"><a xlink:href="classInstanceSaved.html#acfe62eb2f6e8e78c33ddefd58072e044" target="_top" xlink:title=" ">
<polygon fill="white" stroke="#666666" points="516.5,-259 362.5,-259 362.5,-240 516.5,-240 516.5,-259"/>
<text text-anchor="middle" x="439.5" y="-247" font-family="Helvetica,sans-Serif" font-size="10.00">InstanceSaved::getDifficulty</text>
</a>
</g>
</g>
<!-- Node5&#45;&gt;Node7 -->
<g id="edge6_Node000005_Node000007" class="edge">
<title>Node5&#45;&gt;Node7</title>
<g id="a_edge6_Node000005_Node000007"><a xlink:title=" ">
<path fill="none" stroke="#63b8ff" d="M268.06,-190.54C290.36,-203.08 323.91,-220.6 355,-231.5 361.3,-233.71 367.97,-235.7 374.67,-237.47"/>
<polygon fill="#63b8ff" stroke="#63b8ff" points="373.95,-240.9 384.5,-239.93 375.64,-234.11 373.95,-240.9"/>
</a>
</g>
</g>
<!-- Node8 -->
<g id="Node000008" class="node">
<title>Node8</title>
<g id="a_Node000008"><a xlink:href="classInstanceSaved.html#a97c1d04097a68a879ad096bc5791b635" target="_top" xlink:title=" ">
<polygon fill="white" stroke="#666666" points="519.5,-222 359.5,-222 359.5,-203 519.5,-203 519.5,-222"/>
<text text-anchor="middle" x="439.5" y="-210" font-family="Helvetica,sans-Serif" font-size="10.00">InstanceSaved::getInstanceId</text>
</a>
</g>
</g>
<!-- Node5&#45;&gt;Node8 -->
<g id="edge7_Node000005_Node000008" class="edge">
<title>Node5&#45;&gt;Node8</title>
<g id="a_edge7_Node000005_Node000008"><a xlink:title=" ">
<path fill="none" stroke="#63b8ff" d="M319.12,-189.96C338.6,-193.64 359.26,-197.54 377.82,-201.05"/>
<polygon fill="#63b8ff" stroke="#63b8ff" points="377.42,-204.53 387.9,-202.95 378.72,-197.65 377.42,-204.53"/>
</a>
</g>
</g>
<!-- Node9 -->
<g id="Node000009" class="node">
<title>Node9</title>
<g id="a_Node000009"><a xlink:href="classInstanceSaved.html#a3482873372f12b3264ac37fd71fb1b9e" target="_top" xlink:title=" ">
<polygon fill="white" stroke="#666666" points="509.5,-185 369.5,-185 369.5,-166 509.5,-166 509.5,-185"/>
<text text-anchor="middle" x="439.5" y="-173" font-family="Helvetica,sans-Serif" font-size="10.00">InstanceSaved::getMapId</text>
</a>
</g>
</g>
<!-- Node5&#45;&gt;Node9 -->
<g id="edge8_Node000005_Node000009" class="edge">
<title>Node5&#45;&gt;Node9</title>
<g id="a_edge8_Node000005_Node000009"><a xlink:title=" ">
<path fill="none" stroke="#63b8ff" d="M319.12,-175.5C332.3,-175.5 346.01,-175.5 359.26,-175.5"/>
<polygon fill="#63b8ff" stroke="#63b8ff" points="359.28,-179 369.28,-175.5 359.28,-172 359.28,-179"/>
</a>
</g>
</g>
<!-- Node10 -->
<g id="Node000010" class="node">
<title>Node10</title>
<g id="a_Node000010"><a xlink:href="classInstanceSaved.html#a9e167dd090b5c95983a76bed51478993" target="_top" xlink:title=" ">
<polygon fill="white" stroke="#666666" points="520.5,-148 358.5,-148 358.5,-129 520.5,-129 520.5,-148"/>
<text text-anchor="middle" x="439.5" y="-136" font-family="Helvetica,sans-Serif" font-size="10.00">InstanceSaved::getResetTime</text>
</a>
</g>
</g>
<!-- Node5&#45;&gt;Node10 -->
<g id="edge9_Node000005_Node000010" class="edge">
<title>Node5&#45;&gt;Node10</title>
<g id="a_edge9_Node000005_Node000010"><a xlink:title=" ">
<path fill="none" stroke="#63b8ff" d="M319.12,-161.04C338.6,-157.36 359.26,-153.46 377.82,-149.95"/>
<polygon fill="#63b8ff" stroke="#63b8ff" points="378.72,-153.35 387.9,-148.05 377.42,-146.47 378.72,-153.35"/>
</a>
</g>
</g>
<!-- Node11 -->
<g id="Node000011" class="node">
<title>Node11</title>
<g id="a_Node000011"><a xlink:href="namespaceUtil.html#a84c5e1ab2efe709b82072f26b8818330" target="_top" xlink:title=" ">
<polygon fill="white" stroke="#666666" points="490.5,-111 388.5,-111 388.5,-92 490.5,-92 490.5,-111"/>
<text text-anchor="middle" x="439.5" y="-99" font-family="Helvetica,sans-Serif" font-size="10.00">Util::getTimeNow</text>
</a>
</g>
</g>
<!-- Node5&#45;&gt;Node11 -->
<g id="edge10_Node000005_Node000011" class="edge">
<title>Node5&#45;&gt;Node11</title>
<g id="a_edge10_Node000005_Node000011"><a xlink:title=" ">
<path fill="none" stroke="#63b8ff" d="M269.02,-160.36C291.35,-148.14 324.45,-131.28 355,-120.5 362.39,-117.89 370.28,-115.55 378.15,-113.48"/>
<polygon fill="#63b8ff" stroke="#63b8ff" points="379.22,-116.82 388.07,-111 377.52,-110.03 379.22,-116.82"/>
</a>
</g>
</g>
<!-- Node12 -->
<g id="Node000012" class="node">
<title>Node12</title>
<g id="a_Node000012"><a xlink:href="classWorldSession.html#a87a1bd80483f57f33a127d12c51d2331" target="_top" xlink:title=" ">
<polygon fill="white" stroke="#666666" points="511,-74 368,-74 368,-55 511,-55 511,-74"/>
<text text-anchor="middle" x="439.5" y="-62" font-family="Helvetica,sans-Serif" font-size="10.00">WorldSession::SendPacket</text>
</a>
</g>
</g>
<!-- Node5&#45;&gt;Node12 -->
<g id="edge11_Node000005_Node000012" class="edge">
<title>Node5&#45;&gt;Node12</title>
<g id="a_edge11_Node000005_Node000012"><a xlink:title=" ">
<path fill="none" stroke="#63b8ff" d="M256.57,-160.23C276.46,-139.58 314.88,-103.11 355,-83.5 359.93,-81.09 365.16,-78.98 370.52,-77.14"/>
<polygon fill="#63b8ff" stroke="#63b8ff" points="371.76,-80.42 380.26,-74.09 369.67,-73.74 371.76,-80.42"/>
</a>
</g>
</g>
<!-- Node18 -->
<g id="Node000018" class="node">
<title>Node18</title>
<g id="a_Node000018"><a xlink:href="classWorldPacket.html#aa780c15776d6430b23230af9415ee85d" target="_top" xlink:title=" ">
<polygon fill="white" stroke="#666666" points="506.5,-37 372.5,-37 372.5,-18 506.5,-18 506.5,-37"/>
<text text-anchor="middle" x="439.5" y="-25" font-family="Helvetica,sans-Serif" font-size="10.00">WorldPacket::SetOpcode</text>
</a>
</g>
</g>
<!-- Node5&#45;&gt;Node18 -->
<g id="edge18_Node000005_Node000018" class="edge">
<title>Node5&#45;&gt;Node18</title>
<g id="a_edge18_Node000005_Node000018"><a xlink:title=" ">
<path fill="none" stroke="#63b8ff" d="M251.09,-160.23C267.47,-132.62 305.95,-74.56 355,-45.5 357.87,-43.8 360.88,-42.26 363.99,-40.86"/>
<polygon fill="#63b8ff" stroke="#63b8ff" points="365.52,-44.02 373.53,-37.09 362.95,-37.51 365.52,-44.02"/>
</a>
</g>
</g>
<!-- Node13 -->
<g id="Node000013" class="node">
<title>Node13</title>
<g id="a_Node000013"><a xlink:href="classWorldPacket.html#a3f359b4afd93497038c4f17e1ebd4380" target="_top" xlink:title=" ">
<polygon fill="white" stroke="#666666" points="870,-102 734,-102 734,-83 870,-83 870,-102"/>
<text text-anchor="middle" x="802" y="-90" font-family="Helvetica,sans-Serif" font-size="10.00">WorldPacket::GetOpcode</text>
</a>
</g>
</g>
<!-- Node12&#45;&gt;Node13 -->
<g id="edge12_Node000012_Node000013" class="edge">
<title>Node12&#45;&gt;Node13</title>
<g id="a_edge12_Node000012_Node000013"><a xlink:title=" ">
<path fill="none" stroke="#63b8ff" d="M491.79,-74.04C512.85,-77.6 537.52,-81.3 560,-83.5 614.54,-88.84 676.32,-91.07 723.67,-91.98"/>
<polygon fill="#63b8ff" stroke="#63b8ff" points="723.79,-95.48 733.85,-92.15 723.91,-88.48 723.79,-95.48"/>
</a>
</g>
</g>
<!-- Node14 -->
<g id="Node000014" class="node">
<title>Node14</title>
<g id="a_Node000014"><a xlink:href="classSocket.html#ae3bcf72d932e7b29656d368e81186e6a" target="_top" xlink:title=" ">
<polygon fill="white" stroke="#666666" points="686.5,-74 571.5,-74 571.5,-55 686.5,-55 686.5,-74"/>
<text text-anchor="middle" x="629" y="-62" font-family="Helvetica,sans-Serif" font-size="10.00">Socket::IsConnected</text>
</a>
</g>
</g>
<!-- Node12&#45;&gt;Node14 -->
<g id="edge13_Node000012_Node000014" class="edge">
<title>Node12&#45;&gt;Node14</title>
<g id="a_edge13_Node000012_Node000014"><a xlink:title=" ">
<path fill="none" stroke="#63b8ff" d="M511.12,-64.5C527.47,-64.5 544.82,-64.5 561.01,-64.5"/>
<polygon fill="#63b8ff" stroke="#63b8ff" points="561.46,-68 571.46,-64.5 561.46,-61 561.46,-68"/>
</a>
</g>
</g>
<!-- Node15 -->
<g id="Node000015" class="node">
<title>Node15</title>
<g id="a_Node000015"><a xlink:href="classWorldSocket.html#ab2fb0afb0aaf5d2229fea66a9923637e" target="_top" xlink:title=" ">
<polygon fill="white" stroke="#666666" points="698,-37 560,-37 560,-18 698,-18 698,-37"/>
<text text-anchor="middle" x="629" y="-25" font-family="Helvetica,sans-Serif" font-size="10.00">WorldSocket::SendPacket</text>
</a>
</g>
</g>
<!-- Node12&#45;&gt;Node15 -->
<g id="edge14_Node000012_Node000015" class="edge">
<title>Node12&#45;&gt;Node15</title>
<g id="a_edge14_Node000012_Node000015"><a xlink:title=" ">
<path fill="none" stroke="#63b8ff" d="M488.79,-54.97C513.4,-50.11 543.54,-44.17 569.47,-39.05"/>
<polygon fill="#63b8ff" stroke="#63b8ff" points="570.42,-42.43 579.55,-37.06 569.06,-35.56 570.42,-42.43"/>
</a>
</g>
</g>
<!-- Node15&#45;&gt;Node13 -->
<g id="edge16_Node000015_Node000013" class="edge">
<title>Node15&#45;&gt;Node13</title>
<g id="a_edge16_Node000015_Node000013"><a xlink:title=" ">
<path fill="none" stroke="#63b8ff" d="M672.19,-37.07C680.85,-39.48 689.81,-42.3 698,-45.5 714.85,-52.08 717.64,-56.78 734,-64.5 744.65,-69.52 756.45,-74.61 767.14,-79.04"/>
<polygon fill="#63b8ff" stroke="#63b8ff" points="766,-82.36 776.58,-82.91 768.65,-75.88 766,-82.36"/>
</a>
</g>
</g>
<!-- Node16 -->
<g id="Node000016" class="node">
<title>Node16</title>
<g id="a_Node000016"><a xlink:href="classByteBuffer.html#a8d712af2767c7ca45de60bd9d85738d8" target="_top" xlink:title=" ">
<polygon fill="white" stroke="#666666" points="860,-56 744,-56 744,-37 860,-37 860,-56"/>
<text text-anchor="middle" x="802" y="-44" font-family="Helvetica,sans-Serif" font-size="10.00">ByteBuffer::contents</text>
</a>
</g>
</g>
<!-- Node15&#45;&gt;Node16 -->
<g id="edge15_Node000015_Node000016" class="edge">
<title>Node15&#45;&gt;Node16</title>
<g id="a_edge15_Node000015_Node000016"><a xlink:title=" ">
<path fill="none" stroke="#63b8ff" d="M698.08,-35.06C709.82,-36.37 722.02,-37.72 733.74,-39.03"/>
<polygon fill="#63b8ff" stroke="#63b8ff" points="733.56,-42.53 743.89,-40.15 734.34,-35.57 733.56,-42.53"/>
</a>
</g>
</g>
<!-- Node17 -->
<g id="Node000017" class="node">
<title>Node17</title>
<g id="a_Node000017"><a xlink:href="classByteBuffer.html#ac06a598447807d32f6594a97a32bce94" target="_top" xlink:title=" ">
<polygon fill="white" stroke="#666666" points="849,-19 755,-19 755,0 849,0 849,-19"/>
<text text-anchor="middle" x="802" y="-7" font-family="Helvetica,sans-Serif" font-size="10.00">ByteBuffer::size</text>
</a>
</g>
</g>
<!-- Node15&#45;&gt;Node17 -->
<g id="edge17_Node000015_Node000017" class="edge">
<title>Node15&#45;&gt;Node17</title>
<g id="a_edge17_Node000015_Node000017"><a xlink:title=" ">
<path fill="none" stroke="#63b8ff" d="M698.08,-20.33C713.59,-18.7 729.9,-16.98 744.85,-15.41"/>
<polygon fill="#63b8ff" stroke="#63b8ff" points="745.38,-18.87 754.96,-14.35 744.64,-11.91 745.38,-18.87"/>
</a>
</g>
</g>
</g>
</svg>

<g id="navigator" transform="translate(0 0)" fill="#404254">
  <rect fill="#f2f5e9" fill-opacity="0.5" stroke="#606060" stroke-width=".5" x="0" y="0" width="60" height="60"/>
  <use id="zoomplus" xlink:href="#zoomPlus" x="17" y="9" onmousedown="handleZoom(evt,'in')"/>
  <use id="zoomminus" xlink:href="#zoomMin" x="42" y="9" onmousedown="handleZoom(evt,'out')"/>
  <use id="reset" xlink:href="#resetDef" x="30" y="36" onmousedown="handleReset()"/>
   <use id="arrowup" xlink:href="#arrowUp" x="0" y="0" onmousedown="handlePan(0,-1)"/>
  <use id="arrowright" xlink:href="#arrowRight" x="0" y="0" onmousedown="handlePan(1,0)"/>
  <use id="arrowdown" xlink:href="#arrowDown" x="0" y="0" onmousedown="handlePan(0,1)"/>
  <use id="arrowleft" xlink:href="#arrowLeft" x="0" y="0" onmousedown="handlePan(-1,0)"/>
</g>
<svg viewBox="0 0 15 15" width="100%" height="30px" preserveAspectRatio="xMaxYMin meet">
 <g id="arrow_out" transform="scale(0.3 0.3)">
  <a xlink:href="classPlayer_a8a538b9893f2400067cb1b41f65cdedc_cgraph_org.svg" target="_base">
   <rect id="button" ry="5" rx="5" y="6" x="6" height="38" width="38"
        fill="#f2f5e9" fill-opacity="0.5" stroke="#606060" stroke-width="1.0"/>
   <path id="arrow"
     d="M 11.500037,31.436501 C 11.940474,20.09759 22.043105,11.32322 32.158766,21.979434 L 37.068811,17.246167 C 37.068811,17.246167 37.088388,32 37.088388,32 L 22.160133,31.978069 C 22.160133,31.978069 26.997745,27.140456 26.997745,27.140456 C 18.528582,18.264221 13.291696,25.230495 11.500037,31.436501 z"
     style="fill:#404040;"/>
  </a>
 </g>
</svg>

<style type='text/css'>
<![CDATA[
[data-mouse-over-selected='false'] { opacity: 0.7; }
[data-mouse-over-selected='true']  { opacity: 1.0; }
]]>
</style>
<script type="application/ecmascript"><![CDATA[
document.addEventListener('DOMContentLoaded', (event) => {
  highlightEdges();
  highlightAdjacentNodes();
});
]]></script>
</svg>
