<?xml version="1.0" encoding="UTF-8" standalone="no"?>
<!DOCTYPE svg PUBLIC "-//W3C//DTD SVG 1.1//EN"
 "http://www.w3.org/Graphics/SVG/1.1/DTD/svg11.dtd">
<!-- Generated by graphviz version 2.43.0 (0)
 -->
<!-- Title: MrSmiteAI::MoveToChest Pages: 1 -->
<svg width="1181pt" height="1144pt"
 viewBox="0.00 0.00 1181.00 1144.43" xmlns="http://www.w3.org/2000/svg" xmlns:xlink="http://www.w3.org/1999/xlink">
<g id="graph0" class="graph" transform="scale(1 1) rotate(0) translate(4 1140.43)">
<title>MrSmiteAI::MoveToChest</title>
<!-- Node1 -->
<g id="Node000001" class="node">
<title>Node1</title>
<g id="a_Node000001"><a xlink:title=" ">
<polygon fill="#999999" stroke="#666666" points="139,-1011.5 0,-1011.5 0,-992.5 139,-992.5 139,-1011.5"/>
<text text-anchor="middle" x="69.5" y="-999.5" font-family="Helvetica,sans-Serif" font-size="10.00">MrSmiteAI::MoveToChest</text>
</a>
</g>
</g>
<!-- Node2 -->
<g id="Node000002" class="node">
<title>Node2</title>
<g id="a_Node000002"><a xlink:href="classCreatureAIScript.html#a4ef0f8a455607e73b0790d0c5d42fcf0" target="_top" xlink:title=" ">
<polygon fill="white" stroke="#666666" points="335.5,-1097 190.5,-1097 190.5,-1067 335.5,-1067 335.5,-1097"/>
<text text-anchor="start" x="198.5" y="-1085" font-family="Helvetica,sans-Serif" font-size="10.00">CreatureAIScript::canEnter</text>
<text text-anchor="middle" x="263" y="-1074" font-family="Helvetica,sans-Serif" font-size="10.00">Combat</text>
</a>
</g>
</g>
<!-- Node1&#45;&gt;Node2 -->
<g id="edge1_Node000001_Node000002" class="edge">
<title>Node1&#45;&gt;Node2</title>
<g id="a_edge1_Node000001_Node000002"><a xlink:title=" ">
<path fill="none" stroke="#63b8ff" d="M93.6,-1011.65C123.95,-1024.33 177.94,-1046.88 216.61,-1063.04"/>
<polygon fill="#63b8ff" stroke="#63b8ff" points="215.51,-1066.37 226.09,-1067 218.21,-1059.91 215.51,-1066.37"/>
</a>
</g>
</g>
<!-- Node3 -->
<g id="Node000003" class="node">
<title>Node3</title>
<g id="a_Node000003"><a xlink:href="classUnit.html#ac31c5d768d09773dcbdd613b24e10f50" target="_top" xlink:title=" ">
<polygon fill="white" stroke="#666666" points="528,-1134.5 416,-1134.5 416,-1115.5 528,-1115.5 528,-1134.5"/>
<text text-anchor="middle" x="472" y="-1122.5" font-family="Helvetica,sans-Serif" font-size="10.00">Unit::getAIInterface</text>
</a>
</g>
</g>
<!-- Node1&#45;&gt;Node3 -->
<g id="edge4_Node000001_Node000003" class="edge">
<title>Node1&#45;&gt;Node3</title>
<g id="a_edge4_Node000001_Node000003"><a xlink:title=" ">
<path fill="none" stroke="#63b8ff" d="M76.61,-1011.73C90.8,-1033.32 128.33,-1084.96 175,-1106 248.82,-1139.28 343.63,-1138.84 405.8,-1133.56"/>
<polygon fill="#63b8ff" stroke="#63b8ff" points="406.23,-1137.03 415.86,-1132.63 405.59,-1130.06 406.23,-1137.03"/>
</a>
</g>
</g>
<!-- Node5 -->
<g id="Node000005" class="node">
<title>Node5</title>
<g id="a_Node000005"><a xlink:href="classCreatureAIScript.html#a971bb1373556b3ec594d8f7ba5f5e6e6" target="_top" xlink:title=" ">
<polygon fill="white" stroke="#666666" points="343,-1030.5 183,-1030.5 183,-1011.5 343,-1011.5 343,-1030.5"/>
<text text-anchor="middle" x="263" y="-1018.5" font-family="Helvetica,sans-Serif" font-size="10.00">CreatureAIScript::getCreature</text>
</a>
</g>
</g>
<!-- Node1&#45;&gt;Node5 -->
<g id="edge5_Node000001_Node000005" class="edge">
<title>Node1&#45;&gt;Node5</title>
<g id="a_edge5_Node000001_Node000005"><a xlink:title=" ">
<path fill="none" stroke="#63b8ff" d="M139.09,-1008.81C149.94,-1009.88 161.29,-1011.01 172.53,-1012.12"/>
<polygon fill="#63b8ff" stroke="#63b8ff" points="172.5,-1015.64 182.8,-1013.14 173.2,-1008.67 172.5,-1015.64"/>
</a>
</g>
</g>
<!-- Node6 -->
<g id="Node000006" class="node">
<title>Node6</title>
<g id="a_Node000006"><a xlink:href="classCreatureAIScript.html#adef4275f5685ec18fd96a74b18eb1d06" target="_top" xlink:title=" ">
<polygon fill="white" stroke="#666666" points="333,-993.5 193,-993.5 193,-974.5 333,-974.5 333,-993.5"/>
<text text-anchor="middle" x="263" y="-981.5" font-family="Helvetica,sans-Serif" font-size="10.00">CreatureAIScript::moveTo</text>
</a>
</g>
</g>
<!-- Node1&#45;&gt;Node6 -->
<g id="edge6_Node000001_Node000006" class="edge">
<title>Node1&#45;&gt;Node6</title>
<g id="a_edge6_Node000001_Node000006"><a xlink:title=" ">
<path fill="none" stroke="#63b8ff" d="M139.09,-995.55C153.31,-994.22 168.39,-992.8 182.95,-991.43"/>
<polygon fill="#63b8ff" stroke="#63b8ff" points="183.29,-994.91 192.92,-990.49 182.63,-987.94 183.29,-994.91"/>
</a>
</g>
</g>
<!-- Node27 -->
<g id="Node000027" class="node">
<title>Node27</title>
<g id="a_Node000027"><a xlink:href="classAIInterface.html#ad994b9d83f57d6419189962ee71ae413" target="_top" xlink:title=" ">
<polygon fill="white" stroke="#666666" points="333,-78 193,-78 193,-48 333,-48 333,-78"/>
<text text-anchor="start" x="201" y="-66" font-family="Helvetica,sans-Serif" font-size="10.00">AIInterface::setAllowedTo</text>
<text text-anchor="middle" x="263" y="-55" font-family="Helvetica,sans-Serif" font-size="10.00">EnterCombat</text>
</a>
</g>
</g>
<!-- Node1&#45;&gt;Node27 -->
<g id="edge28_Node000001_Node000027" class="edge">
<title>Node1&#45;&gt;Node27</title>
<g id="a_edge28_Node000001_Node000027"><a xlink:title=" ">
<path fill="none" stroke="#63b8ff" d="M72.46,-992.4C90.53,-903.78 228.28,-228.33 256.83,-88.35"/>
<polygon fill="#63b8ff" stroke="#63b8ff" points="260.34,-88.67 258.91,-78.17 253.48,-87.27 260.34,-88.67"/>
</a>
</g>
</g>
<!-- Node39 -->
<g id="Node000039" class="node">
<title>Node39</title>
<g id="a_Node000039"><a xlink:href="classCreatureAIScript.html#ad78125fab696194e698f0b691f352baa" target="_top" xlink:title=" ">
<polygon fill="white" stroke="#666666" points="351,-804.5 175,-804.5 175,-785.5 351,-785.5 351,-804.5"/>
<text text-anchor="middle" x="263" y="-792.5" font-family="Helvetica,sans-Serif" font-size="10.00">CreatureAIScript::stopMovement</text>
</a>
</g>
</g>
<!-- Node1&#45;&gt;Node39 -->
<g id="edge39_Node000001_Node000039" class="edge">
<title>Node1&#45;&gt;Node39</title>
<g id="a_edge39_Node000001_Node000039"><a xlink:title=" ">
<path fill="none" stroke="#63b8ff" d="M79.48,-992.29C109.57,-959.77 207.1,-854.35 245.88,-812.42"/>
<polygon fill="#63b8ff" stroke="#63b8ff" points="248.6,-814.64 252.82,-804.93 243.46,-809.89 248.6,-814.64"/>
</a>
</g>
</g>
<!-- Node2&#45;&gt;Node3 -->
<g id="edge2_Node000002_Node000003" class="edge">
<title>Node2&#45;&gt;Node3</title>
<g id="a_edge2_Node000002_Node000003"><a xlink:title=" ">
<path fill="none" stroke="#63b8ff" d="M335.53,-1096.86C361.62,-1102.28 390.71,-1108.32 415.23,-1113.41"/>
<polygon fill="#63b8ff" stroke="#63b8ff" points="414.58,-1116.85 425.08,-1115.46 416,-1110 414.58,-1116.85"/>
</a>
</g>
</g>
<!-- Node4 -->
<g id="Node000004" class="node">
<title>Node4</title>
<g id="a_Node000004"><a xlink:href="classAIInterface.html#af1b0eb698cec0b3e26bc17e131330f31" target="_top" xlink:title=" ">
<polygon fill="white" stroke="#666666" points="539,-1097 405,-1097 405,-1067 539,-1067 539,-1097"/>
<text text-anchor="start" x="413" y="-1085" font-family="Helvetica,sans-Serif" font-size="10.00">AIInterface::isAllowedTo</text>
<text text-anchor="middle" x="472" y="-1074" font-family="Helvetica,sans-Serif" font-size="10.00">EnterCombat</text>
</a>
</g>
</g>
<!-- Node2&#45;&gt;Node4 -->
<g id="edge3_Node000002_Node000004" class="edge">
<title>Node2&#45;&gt;Node4</title>
<g id="a_edge3_Node000002_Node000004"><a xlink:title=" ">
<path fill="none" stroke="#63b8ff" d="M335.53,-1082C354.55,-1082 375.16,-1082 394.44,-1082"/>
<polygon fill="#63b8ff" stroke="#63b8ff" points="394.69,-1085.5 404.69,-1082 394.69,-1078.5 394.69,-1085.5"/>
</a>
</g>
</g>
<!-- Node7 -->
<g id="Node000007" class="node">
<title>Node7</title>
<g id="a_Node000007"><a xlink:href="classUnit.html#af30acad94319d7d319cf7851f939a15e" target="_top" xlink:title=" ">
<polygon fill="white" stroke="#666666" points="549,-1048.5 395,-1048.5 395,-1029.5 549,-1029.5 549,-1048.5"/>
<text text-anchor="middle" x="472" y="-1036.5" font-family="Helvetica,sans-Serif" font-size="10.00">Unit::getMovementManager</text>
</a>
</g>
</g>
<!-- Node6&#45;&gt;Node7 -->
<g id="edge7_Node000006_Node000007" class="edge">
<title>Node6&#45;&gt;Node7</title>
<g id="a_edge7_Node000006_Node000007"><a xlink:title=" ">
<path fill="none" stroke="#63b8ff" d="M317.96,-993.59C329.03,-996.17 340.5,-999.29 351,-1003 367.87,-1008.95 370.12,-1015.08 387,-1021 393.34,-1023.22 400.04,-1025.22 406.79,-1027"/>
<polygon fill="#63b8ff" stroke="#63b8ff" points="406.12,-1030.44 416.67,-1029.46 407.81,-1023.65 406.12,-1030.44"/>
</a>
</g>
</g>
<!-- Node8 -->
<g id="Node000008" class="node">
<title>Node8</title>
<g id="a_Node000008"><a xlink:href="classMovementManager.html#a47e50d10a00af55011488bbd64dd5ae6" target="_top" xlink:title=" ">
<polygon fill="white" stroke="#666666" points="557,-993.5 387,-993.5 387,-974.5 557,-974.5 557,-993.5"/>
<text text-anchor="middle" x="472" y="-981.5" font-family="Helvetica,sans-Serif" font-size="10.00">MovementManager::movePoint</text>
</a>
</g>
</g>
<!-- Node6&#45;&gt;Node8 -->
<g id="edge8_Node000006_Node000008" class="edge">
<title>Node6&#45;&gt;Node8</title>
<g id="a_edge8_Node000006_Node000008"><a xlink:title=" ">
<path fill="none" stroke="#63b8ff" d="M333.22,-984C347.16,-984 362.04,-984 376.67,-984"/>
<polygon fill="#63b8ff" stroke="#63b8ff" points="376.74,-987.5 386.74,-984 376.74,-980.5 376.74,-987.5"/>
</a>
</g>
</g>
<!-- Node9 -->
<g id="Node000009" class="node">
<title>Node9</title>
<g id="a_Node000009"><a xlink:href="classUnit.html#ac337e240b190203f28479fcc88c01d2c" target="_top" xlink:title=" ">
<polygon fill="white" stroke="#666666" points="526.5,-956.5 417.5,-956.5 417.5,-937.5 526.5,-937.5 526.5,-956.5"/>
<text text-anchor="middle" x="472" y="-944.5" font-family="Helvetica,sans-Serif" font-size="10.00">Unit::setMoveWalk</text>
</a>
</g>
</g>
<!-- Node6&#45;&gt;Node9 -->
<g id="edge10_Node000006_Node000009" class="edge">
<title>Node6&#45;&gt;Node9</title>
<g id="a_edge10_Node000006_Node000009"><a xlink:title=" ">
<path fill="none" stroke="#63b8ff" d="M317.31,-974.47C344.85,-969.55 378.64,-963.51 407.52,-958.35"/>
<polygon fill="#63b8ff" stroke="#63b8ff" points="408.29,-961.77 417.51,-956.56 407.05,-954.87 408.29,-961.77"/>
</a>
</g>
</g>
<!-- Node8&#45;&gt;Node8 -->
<g id="edge9_Node000008_Node000008" class="edge">
<title>Node8&#45;&gt;Node8</title>
<g id="a_edge9_Node000008_Node000008"><a xlink:title=" ">
<path fill="none" stroke="#63b8ff" d="M439.94,-993.58C424.34,-1002.23 435.03,-1011.5 472,-1011.5 498.57,-1011.5 511.57,-1006.71 510.98,-1000.81"/>
<polygon fill="#63b8ff" stroke="#63b8ff" points="513.5,-998.38 504.06,-993.58 508.45,-1003.23 513.5,-998.38"/>
</a>
</g>
</g>
<!-- Node10 -->
<g id="Node000010" class="node">
<title>Node10</title>
<g id="a_Node000010"><a xlink:href="classUnit.html#a0ecfa444b77bd04547bb2249c1fa79bf" target="_top" xlink:title=" ">
<polygon fill="white" stroke="#666666" points="765.5,-1086.5 610.5,-1086.5 610.5,-1067.5 765.5,-1067.5 765.5,-1086.5"/>
<text text-anchor="middle" x="688" y="-1074.5" font-family="Helvetica,sans-Serif" font-size="10.00">Unit::addUnitMovementFlag</text>
</a>
</g>
</g>
<!-- Node9&#45;&gt;Node10 -->
<g id="edge11_Node000009_Node000010" class="edge">
<title>Node9&#45;&gt;Node10</title>
<g id="a_edge11_Node000009_Node000010"><a xlink:title=" ">
<path fill="none" stroke="#63b8ff" d="M526.86,-951.08C537.79,-954.01 548.51,-958.67 557,-966 590.56,-994.96 558.97,-1030.61 593,-1059 595.55,-1061.13 598.28,-1063.04 601.14,-1064.74"/>
<polygon fill="#63b8ff" stroke="#63b8ff" points="599.57,-1067.87 610.07,-1069.27 602.74,-1061.63 599.57,-1067.87"/>
</a>
</g>
</g>
<!-- Node11 -->
<g id="Node000011" class="node">
<title>Node11</title>
<g id="a_Node000011"><a xlink:href="classObject.html#aa3aa013391499be85d7ec4cebbd9dcfb" target="_top" xlink:title=" ">
<polygon fill="white" stroke="#666666" points="747.5,-1049.5 628.5,-1049.5 628.5,-1030.5 747.5,-1030.5 747.5,-1049.5"/>
<text text-anchor="middle" x="688" y="-1037.5" font-family="Helvetica,sans-Serif" font-size="10.00">Object::GetNewGUID</text>
</a>
</g>
</g>
<!-- Node9&#45;&gt;Node11 -->
<g id="edge12_Node000009_Node000011" class="edge">
<title>Node9&#45;&gt;Node11</title>
<g id="a_edge12_Node000009_Node000011"><a xlink:title=" ">
<path fill="none" stroke="#63b8ff" d="M526.7,-952.65C537.39,-955.5 548.06,-959.74 557,-966 581.24,-982.97 568.49,-1005.43 593,-1022 600.68,-1027.19 609.48,-1030.98 618.55,-1033.72"/>
<polygon fill="#63b8ff" stroke="#63b8ff" points="617.89,-1037.17 628.45,-1036.3 619.66,-1030.39 617.89,-1037.17"/>
</a>
</g>
</g>
<!-- Node12 -->
<g id="Node000012" class="node">
<title>Node12</title>
<g id="a_Node000012"><a xlink:href="classObject.html#ad867b68be484ae121ca3b1cb4e947244" target="_top" xlink:title=" ">
<polygon fill="white" stroke="#666666" points="740,-1012.5 636,-1012.5 636,-993.5 740,-993.5 740,-1012.5"/>
<text text-anchor="middle" x="688" y="-1000.5" font-family="Helvetica,sans-Serif" font-size="10.00">Object::isCreature</text>
</a>
</g>
</g>
<!-- Node9&#45;&gt;Node12 -->
<g id="edge13_Node000009_Node000012" class="edge">
<title>Node9&#45;&gt;Node12</title>
<g id="a_edge13_Node000009_Node000012"><a xlink:title=" ">
<path fill="none" stroke="#63b8ff" d="M525.15,-956.55C535.84,-959.13 546.9,-962.27 557,-966 573.97,-972.27 575.93,-979.01 593,-985 603.32,-988.62 614.56,-991.57 625.54,-993.95"/>
<polygon fill="#63b8ff" stroke="#63b8ff" points="625.04,-997.42 635.54,-995.99 626.43,-990.56 625.04,-997.42"/>
</a>
</g>
</g>
<!-- Node14 -->
<g id="Node000014" class="node">
<title>Node14</title>
<g id="a_Node000014"><a xlink:href="classUnit.html#a5c07d7a0e50c671d73ea32ffa71a3c59" target="_top" xlink:title=" ">
<polygon fill="white" stroke="#666666" points="775,-975.5 601,-975.5 601,-956.5 775,-956.5 775,-975.5"/>
<text text-anchor="middle" x="688" y="-963.5" font-family="Helvetica,sans-Serif" font-size="10.00">Unit::removeUnitMovementFlag</text>
</a>
</g>
</g>
<!-- Node9&#45;&gt;Node14 -->
<g id="edge15_Node000009_Node000014" class="edge">
<title>Node9&#45;&gt;Node14</title>
<g id="a_edge15_Node000009_Node000014"><a xlink:title=" ">
<path fill="none" stroke="#63b8ff" d="M526.73,-951.77C546.16,-953.5 568.74,-955.5 590.71,-957.45"/>
<polygon fill="#63b8ff" stroke="#63b8ff" points="590.48,-960.94 600.75,-958.34 591.1,-953.97 590.48,-960.94"/>
</a>
</g>
</g>
<!-- Node15 -->
<g id="Node000015" class="node">
<title>Node15</title>
<g id="a_Node000015"><a xlink:href="classObject.html#afbafc0f687c733c81277b15e53c082c7" target="_top" xlink:title=" ">
<polygon fill="white" stroke="#666666" points="995,-937.5 848,-937.5 848,-918.5 995,-918.5 995,-937.5"/>
<text text-anchor="middle" x="921.5" y="-925.5" font-family="Helvetica,sans-Serif" font-size="10.00">Object::sendMessageToSet</text>
</a>
</g>
</g>
<!-- Node9&#45;&gt;Node15 -->
<g id="edge16_Node000009_Node000015" class="edge">
<title>Node9&#45;&gt;Node15</title>
<g id="a_edge16_Node000009_Node000015"><a xlink:title=" ">
<path fill="none" stroke="#63b8ff" d="M526.53,-944.73C603.68,-941.45 746.8,-935.37 837.66,-931.52"/>
<polygon fill="#63b8ff" stroke="#63b8ff" points="837.8,-935.01 847.65,-931.09 837.51,-928.02 837.8,-935.01"/>
</a>
</g>
</g>
<!-- Node18 -->
<g id="Node000018" class="node">
<title>Node18</title>
<g id="a_Node000018"><a xlink:href="structMovementInfo.html#a217865d78cf6c95e97d7954f4a30a39d" target="_top" xlink:title=" ">
<polygon fill="white" stroke="#666666" points="783,-241.5 593,-241.5 593,-222.5 783,-222.5 783,-241.5"/>
<text text-anchor="middle" x="688" y="-229.5" font-family="Helvetica,sans-Serif" font-size="10.00">MovementInfo::writeMovementInfo</text>
</a>
</g>
</g>
<!-- Node9&#45;&gt;Node18 -->
<g id="edge19_Node000009_Node000018" class="edge">
<title>Node9&#45;&gt;Node18</title>
<g id="a_edge19_Node000009_Node000018"><a xlink:title=" ">
<path fill="none" stroke="#63b8ff" d="M476.52,-937.34C489.41,-901.55 534.52,-772.81 557,-663 584.65,-527.98 541.31,-482.76 593,-355 610.42,-311.95 647.14,-270.98 669.18,-248.9"/>
<polygon fill="#63b8ff" stroke="#63b8ff" points="671.88,-251.15 676.57,-241.64 666.98,-246.15 671.88,-251.15"/>
</a>
</g>
</g>
<!-- Node13 -->
<g id="Node000013" class="node">
<title>Node13</title>
<g id="a_Node000013"><a xlink:href="classObject.html#aaee2ed63355af5e632aba82f859822b4" target="_top" xlink:title=" ">
<polygon fill="white" stroke="#666666" points="988,-1012.5 855,-1012.5 855,-993.5 988,-993.5 988,-1012.5"/>
<text text-anchor="middle" x="921.5" y="-1000.5" font-family="Helvetica,sans-Serif" font-size="10.00">Object::getObjectTypeId</text>
</a>
</g>
</g>
<!-- Node12&#45;&gt;Node13 -->
<g id="edge14_Node000012_Node000013" class="edge">
<title>Node12&#45;&gt;Node13</title>
<g id="a_edge14_Node000012_Node000013"><a xlink:title=" ">
<path fill="none" stroke="#63b8ff" d="M740.09,-1003C770.62,-1003 809.99,-1003 844.15,-1003"/>
<polygon fill="#63b8ff" stroke="#63b8ff" points="844.57,-1006.5 854.57,-1003 844.57,-999.5 844.57,-1006.5"/>
</a>
</g>
</g>
<!-- Node16 -->
<g id="Node000016" class="node">
<title>Node16</title>
<g id="a_Node000016"><a xlink:href="classObject.html#ab32822d3603e26f4a51e881215d49520" target="_top" xlink:title=" ">
<polygon fill="white" stroke="#666666" points="1167,-937.5 1066,-937.5 1066,-918.5 1167,-918.5 1167,-937.5"/>
<text text-anchor="middle" x="1116.5" y="-925.5" font-family="Helvetica,sans-Serif" font-size="10.00">Object::GetPhase</text>
</a>
</g>
</g>
<!-- Node15&#45;&gt;Node16 -->
<g id="edge17_Node000015_Node000016" class="edge">
<title>Node15&#45;&gt;Node16</title>
<g id="a_edge17_Node000015_Node000016"><a xlink:title=" ">
<path fill="none" stroke="#63b8ff" d="M995.19,-928C1015.21,-928 1036.68,-928 1055.87,-928"/>
<polygon fill="#63b8ff" stroke="#63b8ff" points="1055.97,-931.5 1065.97,-928 1055.97,-924.5 1055.97,-931.5"/>
</a>
</g>
</g>
<!-- Node17 -->
<g id="Node000017" class="node">
<title>Node17</title>
<g id="a_Node000017"><a xlink:href="classObject.html#a3aeab7def818ba6c50249f197ad2f9ca" target="_top" xlink:title=" ">
<polygon fill="white" stroke="#666666" points="1166,-899.5 1067,-899.5 1067,-880.5 1166,-880.5 1166,-899.5"/>
<text text-anchor="middle" x="1116.5" y="-887.5" font-family="Helvetica,sans-Serif" font-size="10.00">Object::IsInWorld</text>
</a>
</g>
</g>
<!-- Node15&#45;&gt;Node17 -->
<g id="edge18_Node000015_Node000017" class="edge">
<title>Node15&#45;&gt;Node17</title>
<g id="a_edge18_Node000015_Node000017"><a xlink:title=" ">
<path fill="none" stroke="#63b8ff" d="M971.2,-918.41C997.36,-913.26 1029.78,-906.88 1057.27,-901.47"/>
<polygon fill="#63b8ff" stroke="#63b8ff" points="1058.01,-904.89 1067.15,-899.52 1056.66,-898.02 1058.01,-904.89"/>
</a>
</g>
</g>
<!-- Node19 -->
<g id="Node000019" class="node">
<title>Node19</title>
<g id="a_Node000019"><a xlink:href="MovementDefines_8hpp.html#a4004b9ff23fc389c50a95d4f52ba46e5" target="_top" xlink:title=" ">
<polygon fill="white" stroke="#666666" points="1003,-308 840,-308 840,-278 1003,-278 1003,-308"/>
<text text-anchor="start" x="848" y="-296" font-family="Helvetica,sans-Serif" font-size="10.00">GetMovementStatusElements</text>
<text text-anchor="middle" x="921.5" y="-285" font-family="Helvetica,sans-Serif" font-size="10.00">Sequence</text>
</a>
</g>
</g>
<!-- Node18&#45;&gt;Node19 -->
<g id="edge20_Node000018_Node000019" class="edge">
<title>Node18&#45;&gt;Node19</title>
<g id="a_edge20_Node000018_Node000019"><a xlink:title=" ">
<path fill="none" stroke="#63b8ff" d="M720.94,-241.53C747.19,-249.25 785.39,-260.25 819,-269 827.4,-271.19 836.22,-273.4 845,-275.55"/>
<polygon fill="#63b8ff" stroke="#63b8ff" points="844.33,-278.99 854.87,-277.94 845.98,-272.18 844.33,-278.99"/>
</a>
</g>
</g>
<!-- Node20 -->
<g id="Node000020" class="node">
<title>Node20</title>
<g id="a_Node000020"><a xlink:href="namespaceUtil.html#a15e1eefda0759ccb5e7f818f9574272b" target="_top" xlink:title=" ">
<polygon fill="white" stroke="#666666" points="969,-259.5 874,-259.5 874,-240.5 969,-240.5 969,-259.5"/>
<text text-anchor="middle" x="921.5" y="-247.5" font-family="Helvetica,sans-Serif" font-size="10.00">Util::getMSTime</text>
</a>
</g>
</g>
<!-- Node18&#45;&gt;Node20 -->
<g id="edge21_Node000018_Node000020" class="edge">
<title>Node18&#45;&gt;Node20</title>
<g id="a_edge21_Node000018_Node000020"><a xlink:title=" ">
<path fill="none" stroke="#63b8ff" d="M783.16,-239.32C810.43,-241.44 839.36,-243.69 863.6,-245.58"/>
<polygon fill="#63b8ff" stroke="#63b8ff" points="863.45,-249.07 873.69,-246.36 863.99,-242.1 863.45,-249.07"/>
</a>
</g>
</g>
<!-- Node21 -->
<g id="Node000021" class="node">
<title>Node21</title>
<g id="a_Node000021"><a xlink:href="structObjectGuid.html#a32695a11f47a244236e7bce277fcf3a8" target="_top" xlink:title=" ">
<polygon fill="white" stroke="#666666" points="979.5,-222.5 863.5,-222.5 863.5,-203.5 979.5,-203.5 979.5,-222.5"/>
<text text-anchor="middle" x="921.5" y="-210.5" font-family="Helvetica,sans-Serif" font-size="10.00">ObjectGuid::IsEmpty</text>
</a>
</g>
</g>
<!-- Node18&#45;&gt;Node21 -->
<g id="edge22_Node000018_Node000021" class="edge">
<title>Node18&#45;&gt;Node21</title>
<g id="a_edge22_Node000018_Node000021"><a xlink:title=" ">
<path fill="none" stroke="#63b8ff" d="M783.16,-224.27C806.61,-222.35 831.29,-220.32 853.15,-218.53"/>
<polygon fill="#63b8ff" stroke="#63b8ff" points="853.63,-222 863.31,-217.69 853.06,-215.02 853.63,-222"/>
</a>
</g>
</g>
<!-- Node22 -->
<g id="Node000022" class="node">
<title>Node22</title>
<g id="a_Node000022"><a xlink:href="MovementInfo_8hpp.html#a6bc723d7e15fe5cc9d10ed1435d66f12" target="_top" xlink:title=" ">
<polygon fill="white" stroke="#666666" points="981.5,-345.5 861.5,-345.5 861.5,-326.5 981.5,-326.5 981.5,-345.5"/>
<text text-anchor="middle" x="921.5" y="-333.5" font-family="Helvetica,sans-Serif" font-size="10.00">normalizeOrientation</text>
</a>
</g>
</g>
<!-- Node18&#45;&gt;Node22 -->
<g id="edge23_Node000018_Node000022" class="edge">
<title>Node18&#45;&gt;Node22</title>
<g id="a_edge23_Node000018_Node000022"><a xlink:title=" ">
<path fill="none" stroke="#63b8ff" d="M700.3,-241.66C721.85,-259.54 770.96,-297.7 819,-317 829.19,-321.09 840.31,-324.32 851.34,-326.85"/>
<polygon fill="#63b8ff" stroke="#63b8ff" points="850.9,-330.34 861.41,-328.99 852.36,-323.49 850.9,-330.34"/>
</a>
</g>
</g>
<!-- Node23 -->
<g id="Node000023" class="node">
<title>Node23</title>
<g id="a_Node000023"><a xlink:href="classByteBuffer.html#a733a0eb5380bf8c1d2dcc8427cd207af" target="_top" xlink:title=" ">
<polygon fill="white" stroke="#666666" points="1173,-163.5 1060,-163.5 1060,-144.5 1173,-144.5 1173,-163.5"/>
<text text-anchor="middle" x="1116.5" y="-151.5" font-family="Helvetica,sans-Serif" font-size="10.00">ByteBuffer::writeBit</text>
</a>
</g>
</g>
<!-- Node18&#45;&gt;Node23 -->
<g id="edge24_Node000018_Node000023" class="edge">
<title>Node18&#45;&gt;Node23</title>
<g id="a_edge24_Node000018_Node000023"><a xlink:title=" ">
<path fill="none" stroke="#63b8ff" d="M718.14,-222.44C744.29,-214.16 783.87,-202.39 819,-195 897.6,-178.47 989.37,-166.95 1049.75,-160.42"/>
<polygon fill="#63b8ff" stroke="#63b8ff" points="1050.34,-163.88 1059.91,-159.34 1049.59,-156.92 1050.34,-163.88"/>
</a>
</g>
</g>
<!-- Node24 -->
<g id="Node000024" class="node">
<title>Node24</title>
<g id="a_Node000024"><a xlink:href="classByteBuffer.html#a1d490bab3bd96c7da0d16cf61daac9b4" target="_top" xlink:title=" ">
<polygon fill="white" stroke="#666666" points="980.5,-98.5 862.5,-98.5 862.5,-79.5 980.5,-79.5 980.5,-98.5"/>
<text text-anchor="middle" x="921.5" y="-86.5" font-family="Helvetica,sans-Serif" font-size="10.00">ByteBuffer::writeBits</text>
</a>
</g>
</g>
<!-- Node18&#45;&gt;Node24 -->
<g id="edge25_Node000018_Node000024" class="edge">
<title>Node18&#45;&gt;Node24</title>
<g id="a_edge25_Node000018_Node000024"><a xlink:title=" ">
<path fill="none" stroke="#63b8ff" d="M695.9,-222.32C713.44,-198.53 762.37,-137.01 819,-108 829.3,-102.72 840.87,-98.9 852.4,-96.13"/>
<polygon fill="#63b8ff" stroke="#63b8ff" points="853.46,-99.48 862.5,-93.96 851.99,-92.64 853.46,-99.48"/>
</a>
</g>
</g>
<!-- Node25 -->
<g id="Node000025" class="node">
<title>Node25</title>
<g id="a_Node000025"><a xlink:href="classExtraMovementStatusElement.html#afdc421af894aa062584af5a3abc84d0e" target="_top" xlink:title=" ">
<polygon fill="#fff0f0" stroke="red" points="1004.5,-147 838.5,-147 838.5,-117 1004.5,-117 1004.5,-147"/>
<text text-anchor="start" x="846.5" y="-135" font-family="Helvetica,sans-Serif" font-size="10.00">ExtraMovementStatusElement</text>
<text text-anchor="middle" x="921.5" y="-124" font-family="Helvetica,sans-Serif" font-size="10.00">::writeNextElement</text>
</a>
</g>
</g>
<!-- Node18&#45;&gt;Node25 -->
<g id="edge26_Node000018_Node000025" class="edge">
<title>Node18&#45;&gt;Node25</title>
<g id="a_edge26_Node000018_Node000025"><a xlink:title=" ">
<path fill="none" stroke="#63b8ff" d="M704.06,-222.33C727.74,-207.46 775.46,-178.85 819,-161 828.87,-156.95 839.49,-153.25 850.02,-149.94"/>
<polygon fill="#63b8ff" stroke="#63b8ff" points="851.09,-153.27 859.64,-147.01 849.05,-146.58 851.09,-153.27"/>
</a>
</g>
</g>
<!-- Node25&#45;&gt;Node23 -->
<g id="edge27_Node000025_Node000023" class="edge">
<title>Node25&#45;&gt;Node23</title>
<g id="a_edge27_Node000025_Node000023"><a xlink:title=" ">
<path fill="none" stroke="#63b8ff" d="M1004.63,-141.36C1019.65,-143.07 1035.16,-144.84 1049.63,-146.49"/>
<polygon fill="#63b8ff" stroke="#63b8ff" points="1049.64,-150.01 1059.97,-147.67 1050.43,-143.06 1049.64,-150.01"/>
</a>
</g>
</g>
<!-- Node28 -->
<g id="Node000028" class="node">
<title>Node28</title>
<g id="a_Node000028"><a xlink:href="classAIInterface.html#aca6db9b8e3bb02a8bb6d0a1ba68f6cc5" target="_top" xlink:title=" ">
<polygon fill="white" stroke="#666666" points="554,-78 390,-78 390,-48 554,-48 554,-78"/>
<text text-anchor="start" x="398" y="-66" font-family="Helvetica,sans-Serif" font-size="10.00">AIInterface::setIgnoreCreature</text>
<text text-anchor="middle" x="472" y="-55" font-family="Helvetica,sans-Serif" font-size="10.00">Combat</text>
</a>
</g>
</g>
<!-- Node27&#45;&gt;Node28 -->
<g id="edge29_Node000027_Node000028" class="edge">
<title>Node27&#45;&gt;Node28</title>
<g id="a_edge29_Node000027_Node000028"><a xlink:title=" ">
<path fill="none" stroke="#63b8ff" d="M333.22,-63C348.06,-63 363.97,-63 379.51,-63"/>
<polygon fill="#63b8ff" stroke="#63b8ff" points="379.66,-66.5 389.66,-63 379.66,-59.5 379.66,-66.5"/>
</a>
</g>
</g>
<!-- Node38 -->
<g id="Node000038" class="node">
<title>Node38</title>
<g id="a_Node000038"><a xlink:href="classAIInterface.html#a0a465b003f70eccb891d1ffb816300dd" target="_top" xlink:title=" ">
<polygon fill="white" stroke="#666666" points="548,-30 396,-30 396,0 548,0 548,-30"/>
<text text-anchor="start" x="404" y="-18" font-family="Helvetica,sans-Serif" font-size="10.00">AIInterface::setIgnorePlayer</text>
<text text-anchor="middle" x="472" y="-7" font-family="Helvetica,sans-Serif" font-size="10.00">Combat</text>
</a>
</g>
</g>
<!-- Node27&#45;&gt;Node38 -->
<g id="edge36_Node000027_Node000038" class="edge">
<title>Node27&#45;&gt;Node38</title>
<g id="a_edge36_Node000027_Node000038"><a xlink:title=" ">
<path fill="none" stroke="#63b8ff" d="M328.93,-47.94C350.31,-42.99 374.27,-37.43 396.32,-32.32"/>
<polygon fill="#63b8ff" stroke="#63b8ff" points="397.35,-35.67 406.3,-30 395.77,-28.85 397.35,-35.67"/>
</a>
</g>
</g>
<!-- Node29 -->
<g id="Node000029" class="node">
<title>Node29</title>
<g id="a_Node000029"><a xlink:href="classUnit.html#a2ac6a3a63629788ab412b9729851dd20" target="_top" xlink:title=" ">
<polygon fill="white" stroke="#666666" points="741.5,-61.5 634.5,-61.5 634.5,-42.5 741.5,-42.5 741.5,-61.5"/>
<text text-anchor="middle" x="688" y="-49.5" font-family="Helvetica,sans-Serif" font-size="10.00">Unit::addUnitFlags</text>
</a>
</g>
</g>
<!-- Node28&#45;&gt;Node29 -->
<g id="edge30_Node000028_Node000029" class="edge">
<title>Node28&#45;&gt;Node29</title>
<g id="a_edge30_Node000028_Node000029"><a xlink:title=" ">
<path fill="none" stroke="#63b8ff" d="M554.21,-58.83C577.38,-57.63 602.27,-56.36 624.16,-55.23"/>
<polygon fill="#63b8ff" stroke="#63b8ff" points="624.51,-58.72 634.32,-54.71 624.15,-51.73 624.51,-58.72"/>
</a>
</g>
</g>
<!-- Node37 -->
<g id="Node000037" class="node">
<title>Node37</title>
<g id="a_Node000037"><a xlink:href="classUnit.html#a3efa33ec534afc65910d40bfcc9cab4b" target="_top" xlink:title=" ">
<polygon fill="white" stroke="#666666" points="751.5,-24.5 624.5,-24.5 624.5,-5.5 751.5,-5.5 751.5,-24.5"/>
<text text-anchor="middle" x="688" y="-12.5" font-family="Helvetica,sans-Serif" font-size="10.00">Unit::removeUnitFlags</text>
</a>
</g>
</g>
<!-- Node28&#45;&gt;Node37 -->
<g id="edge33_Node000028_Node000037" class="edge">
<title>Node28&#45;&gt;Node37</title>
<g id="a_edge33_Node000028_Node000037"><a xlink:title=" ">
<path fill="none" stroke="#63b8ff" d="M530.53,-47.93C550.28,-42.94 572.55,-37.51 593,-33 603.08,-30.78 613.81,-28.57 624.27,-26.51"/>
<polygon fill="#63b8ff" stroke="#63b8ff" points="625.05,-29.92 634.19,-24.58 623.71,-23.05 625.05,-29.92"/>
</a>
</g>
</g>
<!-- Node30 -->
<g id="Node000030" class="node">
<title>Node30</title>
<g id="a_Node000030"><a xlink:href="classUnit.html#a67095c70ac3cc853e32e1b9d17c4bab7" target="_top" xlink:title=" ">
<polygon fill="#fff0f0" stroke="red" points="974,-61.5 869,-61.5 869,-42.5 974,-42.5 974,-61.5"/>
<text text-anchor="middle" x="921.5" y="-49.5" font-family="Helvetica,sans-Serif" font-size="10.00">Unit::getUnitFlags</text>
</a>
</g>
</g>
<!-- Node29&#45;&gt;Node30 -->
<g id="edge31_Node000029_Node000030" class="edge">
<title>Node29&#45;&gt;Node30</title>
<g id="a_edge31_Node000029_Node000030"><a xlink:title=" ">
<path fill="none" stroke="#63b8ff" d="M741.53,-52C776.41,-52 822.32,-52 858.92,-52"/>
<polygon fill="#63b8ff" stroke="#63b8ff" points="858.97,-55.5 868.97,-52 858.97,-48.5 858.97,-55.5"/>
</a>
</g>
</g>
<!-- Node32 -->
<g id="Node000032" class="node">
<title>Node32</title>
<g id="a_Node000032"><a xlink:href="classUnit.html#a887727aa4db30d7fee65b72961457abf" target="_top" xlink:title=" ">
<polygon fill="#fff0f0" stroke="red" points="973.5,-24.5 869.5,-24.5 869.5,-5.5 973.5,-5.5 973.5,-24.5"/>
<text text-anchor="middle" x="921.5" y="-12.5" font-family="Helvetica,sans-Serif" font-size="10.00">Unit::setUnitFlags</text>
</a>
</g>
</g>
<!-- Node29&#45;&gt;Node32 -->
<g id="edge32_Node000029_Node000032" class="edge">
<title>Node29&#45;&gt;Node32</title>
<g id="a_edge32_Node000029_Node000032"><a xlink:title=" ">
<path fill="none" stroke="#63b8ff" d="M741.53,-43.6C776.53,-38.01 822.65,-30.64 859.3,-24.78"/>
<polygon fill="#63b8ff" stroke="#63b8ff" points="860.05,-28.21 869.37,-23.17 858.94,-21.29 860.05,-28.21"/>
</a>
</g>
</g>
<!-- Node37&#45;&gt;Node30 -->
<g id="edge34_Node000037_Node000030" class="edge">
<title>Node37&#45;&gt;Node30</title>
<g id="a_edge34_Node000037_Node000030"><a xlink:title=" ">
<path fill="none" stroke="#63b8ff" d="M748.62,-24.53C782.37,-29.92 824.52,-36.66 858.64,-42.11"/>
<polygon fill="#63b8ff" stroke="#63b8ff" points="858.52,-45.64 868.95,-43.76 859.63,-38.73 858.52,-45.64"/>
</a>
</g>
</g>
<!-- Node37&#45;&gt;Node32 -->
<g id="edge35_Node000037_Node000032" class="edge">
<title>Node37&#45;&gt;Node32</title>
<g id="a_edge35_Node000037_Node000032"><a xlink:title=" ">
<path fill="none" stroke="#63b8ff" d="M751.65,-15C785.02,-15 825.91,-15 859.09,-15"/>
<polygon fill="#63b8ff" stroke="#63b8ff" points="859.13,-18.5 869.13,-15 859.13,-11.5 859.13,-18.5"/>
</a>
</g>
</g>
<!-- Node38&#45;&gt;Node29 -->
<g id="edge37_Node000038_Node000029" class="edge">
<title>Node38&#45;&gt;Node29</title>
<g id="a_edge37_Node000038_Node000029"><a xlink:title=" ">
<path fill="none" stroke="#63b8ff" d="M548.15,-27.99C573.02,-32.29 600.41,-37.03 624.25,-41.15"/>
<polygon fill="#63b8ff" stroke="#63b8ff" points="623.78,-44.62 634.23,-42.88 624.97,-37.72 623.78,-44.62"/>
</a>
</g>
</g>
<!-- Node38&#45;&gt;Node37 -->
<g id="edge38_Node000038_Node000037" class="edge">
<title>Node38&#45;&gt;Node37</title>
<g id="a_edge38_Node000038_Node000037"><a xlink:title=" ">
<path fill="none" stroke="#63b8ff" d="M548.15,-15C569.57,-15 592.87,-15 614.15,-15"/>
<polygon fill="#63b8ff" stroke="#63b8ff" points="614.42,-18.5 624.42,-15 614.42,-11.5 614.42,-18.5"/>
</a>
</g>
</g>
<!-- Node40 -->
<g id="Node000040" class="node">
<title>Node40</title>
<g id="a_Node000040"><a xlink:href="classUnit.html#a0e580dcf07016435f0988a2f601e1fc4" target="_top" xlink:title=" ">
<polygon fill="white" stroke="#666666" points="522,-653.5 422,-653.5 422,-634.5 522,-634.5 522,-653.5"/>
<text text-anchor="middle" x="472" y="-641.5" font-family="Helvetica,sans-Serif" font-size="10.00">Unit::stopMoving</text>
</a>
</g>
</g>
<!-- Node39&#45;&gt;Node40 -->
<g id="edge40_Node000039_Node000040" class="edge">
<title>Node39&#45;&gt;Node40</title>
<g id="a_edge40_Node000039_Node000040"><a xlink:title=" ">
<path fill="none" stroke="#63b8ff" d="M277.26,-785.32C312.17,-759.86 406.83,-690.81 449.56,-659.64"/>
<polygon fill="#63b8ff" stroke="#63b8ff" points="451.83,-662.32 457.85,-653.59 447.71,-656.66 451.83,-662.32"/>
</a>
</g>
</g>
<!-- Node40&#45;&gt;Node17 -->
<g id="edge41_Node000040_Node000017" class="edge">
<title>Node40&#45;&gt;Node17</title>
<g id="a_edge41_Node000040_Node000017"><a xlink:title=" ">
<path fill="none" stroke="#63b8ff" d="M483.24,-653.73C522.65,-690.47 669.77,-821.16 819,-871 898.09,-897.41 995.52,-898.04 1056.59,-894.92"/>
<polygon fill="#63b8ff" stroke="#63b8ff" points="1057.03,-898.4 1066.81,-894.35 1056.63,-891.41 1057.03,-898.4"/>
</a>
</g>
</g>
<!-- Node41 -->
<g id="Node000041" class="node">
<title>Node41</title>
<g id="a_Node000041"><a xlink:href="classUnit.html#aa5c3b1928a8516e336f102b85fa70d5b" target="_top" xlink:title=" ">
<polygon fill="white" stroke="#666666" points="761.5,-610.5 614.5,-610.5 614.5,-591.5 761.5,-591.5 761.5,-610.5"/>
<text text-anchor="middle" x="688" y="-598.5" font-family="Helvetica,sans-Serif" font-size="10.00">Unit::removeUnitStateFlag</text>
</a>
</g>
</g>
<!-- Node40&#45;&gt;Node41 -->
<g id="edge42_Node000040_Node000041" class="edge">
<title>Node40&#45;&gt;Node41</title>
<g id="a_edge42_Node000040_Node000041"><a xlink:title=" ">
<path fill="none" stroke="#63b8ff" d="M520.49,-634.46C552.77,-627.97 595.64,-619.36 629.8,-612.49"/>
<polygon fill="#63b8ff" stroke="#63b8ff" points="630.52,-615.92 639.64,-610.52 629.15,-609.06 630.52,-615.92"/>
</a>
</g>
</g>
<!-- Node42 -->
<g id="Node000042" class="node">
<title>Node42</title>
<g id="a_Node000042"><a xlink:href="classMovementMgr_1_1MoveSplineInit.html#ae9f8979849cd2960575ea1bc59673792" target="_top" xlink:title=" ">
<polygon fill="#fff0f0" stroke="red" points="771.5,-659 604.5,-659 604.5,-629 771.5,-629 771.5,-659"/>
<text text-anchor="start" x="612.5" y="-647" font-family="Helvetica,sans-Serif" font-size="10.00">MovementMgr::MoveSplineInit</text>
<text text-anchor="middle" x="688" y="-636" font-family="Helvetica,sans-Serif" font-size="10.00">::Stop</text>
</a>
</g>
</g>
<!-- Node40&#45;&gt;Node42 -->
<g id="edge43_Node000040_Node000042" class="edge">
<title>Node40&#45;&gt;Node42</title>
<g id="a_edge43_Node000040_Node000042"><a xlink:title=" ">
<path fill="none" stroke="#63b8ff" d="M522.1,-644C543.46,-644 569.24,-644 593.99,-644"/>
<polygon fill="#63b8ff" stroke="#63b8ff" points="594.15,-647.5 604.15,-644 594.15,-640.5 594.15,-647.5"/>
</a>
</g>
</g>
<!-- Node87 -->
<g id="Node000087" class="node">
<title>Node87</title>
<g id="a_Node000087"><a xlink:href="classUnit.html#a94e2f1839e5767f4c115fd9fe84c3633" target="_top" xlink:title=" ">
<polygon fill="#fff0f0" stroke="red" points="761,-382.5 615,-382.5 615,-363.5 761,-363.5 761,-382.5"/>
<text text-anchor="middle" x="688" y="-370.5" font-family="Helvetica,sans-Serif" font-size="10.00">Unit::updateSplinePosition</text>
</a>
</g>
</g>
<!-- Node40&#45;&gt;Node87 -->
<g id="edge59_Node000040_Node000087" class="edge">
<title>Node40&#45;&gt;Node87</title>
<g id="a_edge59_Node000040_Node000087"><a xlink:title=" ">
<path fill="none" stroke="#63b8ff" d="M480.62,-634.35C512.08,-594.51 632.18,-442.42 673.19,-390.49"/>
<polygon fill="#63b8ff" stroke="#63b8ff" points="676.02,-392.55 679.47,-382.53 670.53,-388.21 676.02,-392.55"/>
</a>
</g>
</g>
<!-- Node42&#45;&gt;Node15 -->
<g id="edge57_Node000042_Node000015" class="edge">
<title>Node42&#45;&gt;Node15</title>
<g id="a_edge57_Node000042_Node000015"><a xlink:title=" ">
<path fill="none" stroke="#63b8ff" d="M694.34,-659.06C708.87,-698.28 752.57,-805.13 819,-871 838.04,-889.88 864.61,-904.5 885.79,-914.21"/>
<polygon fill="#63b8ff" stroke="#63b8ff" points="884.53,-917.48 895.09,-918.32 887.36,-911.07 884.53,-917.48"/>
</a>
</g>
</g>
<!-- Node43 -->
<g id="Node000043" class="node">
<title>Node43</title>
<g id="a_Node000043"><a xlink:href="classMovementMgr_1_1MoveSpline.html#abe8a6c31f5064534aeb40ecdfd678330" target="_top" xlink:title=" ">
<polygon fill="#fff0f0" stroke="red" points="997,-862 846,-862 846,-832 997,-832 997,-862"/>
<text text-anchor="start" x="854" y="-850" font-family="Helvetica,sans-Serif" font-size="10.00">MovementMgr::MoveSpline</text>
<text text-anchor="middle" x="921.5" y="-839" font-family="Helvetica,sans-Serif" font-size="10.00">::ComputePosition</text>
</a>
</g>
</g>
<!-- Node42&#45;&gt;Node43 -->
<g id="edge44_Node000042_Node000043" class="edge">
<title>Node42&#45;&gt;Node43</title>
<g id="a_edge44_Node000042_Node000043"><a xlink:title=" ">
<path fill="none" stroke="#63b8ff" d="M695.41,-659.05C711.03,-693.84 754.58,-780.11 819,-823 824.34,-826.56 830.15,-829.59 836.19,-832.17"/>
<polygon fill="#63b8ff" stroke="#63b8ff" points="835.26,-835.56 845.85,-835.88 837.76,-829.03 835.26,-835.56"/>
</a>
</g>
</g>
<!-- Node61 -->
<g id="Node000061" class="node">
<title>Node61</title>
<g id="a_Node000061"><a xlink:href="classMovementMgr_1_1MoveSpline.html#a5058ba2b685f11f7ddb3551ee4cfb5f4" target="_top" xlink:title=" ">
<polygon fill="white" stroke="#666666" points="997,-814 846,-814 846,-784 997,-784 997,-814"/>
<text text-anchor="start" x="854" y="-802" font-family="Helvetica,sans-Serif" font-size="10.00">MovementMgr::MoveSpline</text>
<text text-anchor="middle" x="921.5" y="-791" font-family="Helvetica,sans-Serif" font-size="10.00">::Finalized</text>
</a>
</g>
</g>
<!-- Node42&#45;&gt;Node61 -->
<g id="edge45_Node000042_Node000061" class="edge">
<title>Node42&#45;&gt;Node61</title>
<g id="a_edge45_Node000042_Node000061"><a xlink:title=" ">
<path fill="none" stroke="#63b8ff" d="M700.48,-659.27C721.22,-685.76 767.57,-740.28 819,-770 825.94,-774.01 833.47,-777.5 841.18,-780.52"/>
<polygon fill="#63b8ff" stroke="#63b8ff" points="840.06,-783.84 850.66,-783.98 842.47,-777.26 840.06,-783.84"/>
</a>
</g>
</g>
<!-- Node62 -->
<g id="Node000062" class="node">
<title>Node62</title>
<g id="a_Node000062"><a xlink:href="classObject.html#a0f6639fef4e90bc57ee1b34a81d6d489" target="_top" xlink:title=" ">
<polygon fill="#fff0f0" stroke="red" points="1162.5,-746.5 1070.5,-746.5 1070.5,-727.5 1162.5,-727.5 1162.5,-746.5"/>
<text text-anchor="middle" x="1116.5" y="-734.5" font-family="Helvetica,sans-Serif" font-size="10.00">Object::getGuid</text>
</a>
</g>
</g>
<!-- Node42&#45;&gt;Node62 -->
<g id="edge46_Node000042_Node000062" class="edge">
<title>Node42&#45;&gt;Node62</title>
<g id="a_edge46_Node000042_Node000062"><a xlink:title=" ">
<path fill="none" stroke="#63b8ff" d="M703.62,-659.32C725.99,-681.52 771.17,-721.65 819,-737 899.85,-762.94 999.62,-755.45 1060.35,-746.84"/>
<polygon fill="#63b8ff" stroke="#63b8ff" points="1061.11,-750.27 1070.49,-745.34 1060.08,-743.35 1061.11,-750.27"/>
</a>
</g>
</g>
<!-- Node64 -->
<g id="Node000064" class="node">
<title>Node64</title>
<g id="a_Node000064"><a xlink:href="classObject.html#a32f797d43ca1c795f18fe5da319edf0d" target="_top" xlink:title=" ">
<polygon fill="white" stroke="#666666" points="984.5,-382.5 858.5,-382.5 858.5,-363.5 984.5,-363.5 984.5,-382.5"/>
<text text-anchor="middle" x="921.5" y="-370.5" font-family="Helvetica,sans-Serif" font-size="10.00">Object::GetOrientation</text>
</a>
</g>
</g>
<!-- Node42&#45;&gt;Node64 -->
<g id="edge47_Node000042_Node000064" class="edge">
<title>Node42&#45;&gt;Node64</title>
<g id="a_edge47_Node000042_Node000064"><a xlink:title=" ">
<path fill="none" stroke="#63b8ff" d="M771.9,-629.37C775.96,-626.71 779.71,-623.61 783,-620 852.08,-544.15 747.5,-465.57 819,-392 827.02,-383.75 837.4,-378.44 848.45,-375.12"/>
<polygon fill="#63b8ff" stroke="#63b8ff" points="849.43,-378.48 858.3,-372.68 847.75,-371.69 849.43,-378.48"/>
</a>
</g>
</g>
<!-- Node65 -->
<g id="Node000065" class="node">
<title>Node65</title>
<g id="a_Node000065"><a xlink:href="classObject.html#a18b2042e111647c68c57dbe18d12934b" target="_top" xlink:title=" ">
<polygon fill="white" stroke="#666666" points="976.5,-690.5 866.5,-690.5 866.5,-671.5 976.5,-671.5 976.5,-690.5"/>
<text text-anchor="middle" x="921.5" y="-678.5" font-family="Helvetica,sans-Serif" font-size="10.00">Object::GetPosition</text>
</a>
</g>
</g>
<!-- Node42&#45;&gt;Node65 -->
<g id="edge48_Node000042_Node000065" class="edge">
<title>Node42&#45;&gt;Node65</title>
<g id="a_edge48_Node000042_Node000065"><a xlink:title=" ">
<path fill="none" stroke="#63b8ff" d="M771.6,-657.2C799.34,-661.63 829.85,-666.51 856,-670.69"/>
<polygon fill="#63b8ff" stroke="#63b8ff" points="855.74,-674.19 866.16,-672.32 856.84,-667.28 855.74,-674.19"/>
</a>
</g>
</g>
<!-- Node66 -->
<g id="Node000066" class="node">
<title>Node66</title>
<g id="a_Node000066"><a xlink:href="classLocationVector.html#a96434544ceccbc22f977047d967e259c" target="_top" xlink:title=" ">
<polygon fill="white" stroke="#666666" points="999.5,-653.5 843.5,-653.5 843.5,-634.5 999.5,-634.5 999.5,-653.5"/>
<text text-anchor="middle" x="921.5" y="-641.5" font-family="Helvetica,sans-Serif" font-size="10.00">LocationVector::getPositionX</text>
</a>
</g>
</g>
<!-- Node42&#45;&gt;Node66 -->
<g id="edge49_Node000042_Node000066" class="edge">
<title>Node42&#45;&gt;Node66</title>
<g id="a_edge49_Node000042_Node000066"><a xlink:title=" ">
<path fill="none" stroke="#63b8ff" d="M771.6,-644C791.59,-644 813.03,-644 833.23,-644"/>
<polygon fill="#63b8ff" stroke="#63b8ff" points="833.35,-647.5 843.35,-644 833.35,-640.5 833.35,-647.5"/>
</a>
</g>
</g>
<!-- Node67 -->
<g id="Node000067" class="node">
<title>Node67</title>
<g id="a_Node000067"><a xlink:href="classLocationVector.html#aea4c7604d51932b7e9f7eaa8ad81053d" target="_top" xlink:title=" ">
<polygon fill="white" stroke="#666666" points="999,-616.5 844,-616.5 844,-597.5 999,-597.5 999,-616.5"/>
<text text-anchor="middle" x="921.5" y="-604.5" font-family="Helvetica,sans-Serif" font-size="10.00">LocationVector::getPositionY</text>
</a>
</g>
</g>
<!-- Node42&#45;&gt;Node67 -->
<g id="edge50_Node000042_Node000067" class="edge">
<title>Node42&#45;&gt;Node67</title>
<g id="a_edge50_Node000042_Node000067"><a xlink:title=" ">
<path fill="none" stroke="#63b8ff" d="M771.6,-630.8C797.5,-626.66 825.83,-622.13 850.76,-618.15"/>
<polygon fill="#63b8ff" stroke="#63b8ff" points="851.53,-621.57 860.85,-616.53 850.42,-614.66 851.53,-621.57"/>
</a>
</g>
</g>
<!-- Node68 -->
<g id="Node000068" class="node">
<title>Node68</title>
<g id="a_Node000068"><a xlink:href="classLocationVector.html#a33965423efe74e08493550396ff9fc5d" target="_top" xlink:title=" ">
<polygon fill="white" stroke="#666666" points="999.5,-579.5 843.5,-579.5 843.5,-560.5 999.5,-560.5 999.5,-579.5"/>
<text text-anchor="middle" x="921.5" y="-567.5" font-family="Helvetica,sans-Serif" font-size="10.00">LocationVector::getPositionZ</text>
</a>
</g>
</g>
<!-- Node42&#45;&gt;Node68 -->
<g id="edge51_Node000042_Node000068" class="edge">
<title>Node42&#45;&gt;Node68</title>
<g id="a_edge51_Node000042_Node000068"><a xlink:title=" ">
<path fill="none" stroke="#63b8ff" d="M762.1,-628.93C769.34,-626.38 776.43,-623.43 783,-620 801.72,-610.24 799.97,-598.15 819,-589 824.05,-586.57 829.38,-584.46 834.84,-582.61"/>
<polygon fill="#63b8ff" stroke="#63b8ff" points="836.26,-585.84 844.8,-579.57 834.21,-579.14 836.26,-585.84"/>
</a>
</g>
</g>
<!-- Node69 -->
<g id="Node000069" class="node">
<title>Node69</title>
<g id="a_Node000069"><a xlink:href="classUnit.html#ad5ab22a737aac27ddf0fd760c37359b6" target="_top" xlink:title=" ">
<polygon fill="#fff0f0" stroke="red" points="975,-727.5 868,-727.5 868,-708.5 975,-708.5 975,-727.5"/>
<text text-anchor="middle" x="921.5" y="-715.5" font-family="Helvetica,sans-Serif" font-size="10.00">Unit::getTransGuid</text>
</a>
</g>
</g>
<!-- Node42&#45;&gt;Node69 -->
<g id="edge52_Node000042_Node000069" class="edge">
<title>Node42&#45;&gt;Node69</title>
<g id="a_edge52_Node000042_Node000069"><a xlink:title=" ">
<path fill="none" stroke="#63b8ff" d="M718.47,-659.03C744.35,-671.66 783.34,-689.31 819,-700 831.31,-703.69 844.7,-706.72 857.59,-709.18"/>
<polygon fill="#63b8ff" stroke="#63b8ff" points="857.34,-712.69 867.8,-711.03 858.58,-705.8 857.34,-712.69"/>
</a>
</g>
</g>
<!-- Node71 -->
<g id="Node000071" class="node">
<title>Node71</title>
<g id="a_Node000071"><a xlink:href="classUnit.html#a77a08e9a0f0b88f8ec841f34f9f3b54c" target="_top" xlink:title=" ">
<polygon fill="white" stroke="#666666" points="998.5,-542.5 844.5,-542.5 844.5,-523.5 998.5,-523.5 998.5,-542.5"/>
<text text-anchor="middle" x="921.5" y="-530.5" font-family="Helvetica,sans-Serif" font-size="10.00">Unit::hasUnitMovementFlag</text>
</a>
</g>
</g>
<!-- Node42&#45;&gt;Node71 -->
<g id="edge54_Node000042_Node000071" class="edge">
<title>Node42&#45;&gt;Node71</title>
<g id="a_edge54_Node000042_Node000071"><a xlink:title=" ">
<path fill="none" stroke="#63b8ff" d="M768.78,-628.92C773.83,-626.39 778.63,-623.44 783,-620 809.87,-598.85 791.46,-572.27 819,-552 823.86,-548.43 829.19,-545.46 834.79,-543.01"/>
<polygon fill="#63b8ff" stroke="#63b8ff" points="836.32,-546.18 844.43,-539.35 833.83,-539.63 836.32,-546.18"/>
</a>
</g>
</g>
<!-- Node72 -->
<g id="Node000072" class="node">
<title>Node72</title>
<g id="a_Node000072"><a xlink:href="classMovementMgr_1_1MoveSpline.html#aec01644f2bb10f0c8b055b24c35ceb98" target="_top" xlink:title=" ">
<polygon fill="#fff0f0" stroke="red" points="997,-505 846,-505 846,-475 997,-475 997,-505"/>
<text text-anchor="start" x="854" y="-493" font-family="Helvetica,sans-Serif" font-size="10.00">MovementMgr::MoveSpline</text>
<text text-anchor="middle" x="921.5" y="-482" font-family="Helvetica,sans-Serif" font-size="10.00">::Initialize</text>
</a>
</g>
</g>
<!-- Node42&#45;&gt;Node72 -->
<g id="edge55_Node000042_Node000072" class="edge">
<title>Node42&#45;&gt;Node72</title>
<g id="a_edge55_Node000042_Node000072"><a xlink:title=" ">
<path fill="none" stroke="#63b8ff" d="M770.75,-628.92C775.15,-626.38 779.29,-623.43 783,-620 819.26,-586.54 782.6,-548.3 819,-515 824.17,-510.27 830.1,-506.39 836.42,-503.23"/>
<polygon fill="#63b8ff" stroke="#63b8ff" points="838.18,-506.28 845.95,-499.08 835.38,-499.86 838.18,-506.28"/>
</a>
</g>
</g>
<!-- Node84 -->
<g id="Node000084" class="node">
<title>Node84</title>
<g id="a_Node000084"><a xlink:href="structMovementInfo.html#ab7c369c21ab5ac9004fc3600b0206264" target="_top" xlink:title=" ">
<polygon fill="white" stroke="#666666" points="1024,-456.5 819,-456.5 819,-437.5 1024,-437.5 1024,-456.5"/>
<text text-anchor="middle" x="921.5" y="-444.5" font-family="Helvetica,sans-Serif" font-size="10.00">MovementInfo::removeMovementFlag</text>
</a>
</g>
</g>
<!-- Node42&#45;&gt;Node84 -->
<g id="edge56_Node000042_Node000084" class="edge">
<title>Node42&#45;&gt;Node84</title>
<g id="a_edge56_Node000042_Node000084"><a xlink:title=" ">
<path fill="none" stroke="#63b8ff" d="M771.59,-629.08C775.73,-626.5 779.58,-623.49 783,-620 832.19,-569.79 768.2,-514.58 819,-466 820.46,-464.61 821.98,-463.3 823.57,-462.07"/>
<polygon fill="#63b8ff" stroke="#63b8ff" points="825.49,-464.99 831.94,-456.59 821.66,-459.14 825.49,-464.99"/>
</a>
</g>
</g>
<!-- Node85 -->
<g id="Node000085" class="node">
<title>Node85</title>
<g id="a_Node000085"><a xlink:href="classWorldPacket.html#aa780c15776d6430b23230af9415ee85d" target="_top" xlink:title=" ">
<polygon fill="white" stroke="#666666" points="988.5,-419.5 854.5,-419.5 854.5,-400.5 988.5,-400.5 988.5,-419.5"/>
<text text-anchor="middle" x="921.5" y="-407.5" font-family="Helvetica,sans-Serif" font-size="10.00">WorldPacket::SetOpcode</text>
</a>
</g>
</g>
<!-- Node42&#45;&gt;Node85 -->
<g id="edge58_Node000042_Node000085" class="edge">
<title>Node42&#45;&gt;Node85</title>
<g id="a_edge58_Node000042_Node000085"><a xlink:title=" ">
<path fill="none" stroke="#63b8ff" d="M771.77,-629.26C775.87,-626.63 779.66,-623.56 783,-620 842.11,-557 757.88,-490.04 819,-429 826.14,-421.87 835.04,-416.96 844.58,-413.64"/>
<polygon fill="#63b8ff" stroke="#63b8ff" points="845.67,-416.96 854.3,-410.81 843.72,-410.24 845.67,-416.96"/>
</a>
</g>
</g>
<!-- Node69&#45;&gt;Node62 -->
<g id="edge53_Node000069_Node000062" class="edge">
<title>Node69&#45;&gt;Node62</title>
<g id="a_edge53_Node000069_Node000062"><a xlink:title=" ">
<path fill="none" stroke="#63b8ff" d="M975.24,-723.19C1001.66,-725.79 1033.64,-728.94 1060.38,-731.57"/>
<polygon fill="#63b8ff" stroke="#63b8ff" points="1060.06,-735.06 1070.36,-732.56 1060.75,-728.09 1060.06,-735.06"/>
</a>
</g>
</g>
<!-- Node87&#45;&gt;Node22 -->
<g id="edge61_Node000087_Node000022" class="edge">
<title>Node87&#45;&gt;Node22</title>
<g id="a_edge61_Node000087_Node000022"><a xlink:title=" ">
<path fill="none" stroke="#63b8ff" d="M748.62,-363.47C780.06,-358.45 818.8,-352.25 851.53,-347.02"/>
<polygon fill="#63b8ff" stroke="#63b8ff" points="852.16,-350.47 861.49,-345.43 851.06,-343.55 852.16,-350.47"/>
</a>
</g>
</g>
<!-- Node87&#45;&gt;Node64 -->
<g id="edge60_Node000087_Node000064" class="edge">
<title>Node87&#45;&gt;Node64</title>
<g id="a_edge60_Node000087_Node000064"><a xlink:title=" ">
<path fill="none" stroke="#63b8ff" d="M761.3,-373C788.94,-373 820.46,-373 848.12,-373"/>
<polygon fill="#63b8ff" stroke="#63b8ff" points="848.12,-376.5 858.12,-373 848.12,-369.5 848.12,-376.5"/>
</a>
</g>
</g>
</g>
</svg>
