<?xml version="1.0" encoding="UTF-8" standalone="no"?>
<!DOCTYPE svg PUBLIC "-//W3C//DTD SVG 1.1//EN"
 "http://www.w3.org/Graphics/SVG/1.1/DTD/svg11.dtd">
<!-- Generated by graphviz version 2.43.0 (0)
 -->
<!-- Title: PatchJob::Update Pages: 1 -->
<svg width="594pt" height="216pt"
 viewBox="0.00 0.00 594.00 215.50" xmlns="http://www.w3.org/2000/svg" xmlns:xlink="http://www.w3.org/1999/xlink">
<g id="graph0" class="graph" transform="scale(1 1) rotate(0) translate(4 211.5)">
<title>PatchJob::Update</title>
<!-- Node1 -->
<g id="Node000001" class="node">
<title>Node1</title>
<g id="a_Node000001"><a xlink:title=" ">
<polygon fill="#999999" stroke="#666666" points="99,-133.5 0,-133.5 0,-114.5 99,-114.5 99,-133.5"/>
<text text-anchor="middle" x="49.5" y="-121.5" font-family="Helvetica,sans-Serif" font-size="10.00">PatchJob::Update</text>
</a>
</g>
</g>
<!-- Node2 -->
<g id="Node000002" class="node">
<title>Node2</title>
<g id="a_Node000002"><a xlink:href="classSocket.html#a30c157060cbfc3378e76ed4862b7ef7e" target="_top" xlink:title=" ">
<polygon fill="white" stroke="#666666" points="252.5,-207.5 144.5,-207.5 144.5,-188.5 252.5,-188.5 252.5,-207.5"/>
<text text-anchor="middle" x="198.5" y="-195.5" font-family="Helvetica,sans-Serif" font-size="10.00">Socket::BurstBegin</text>
</a>
</g>
</g>
<!-- Node1&#45;&gt;Node2 -->
<g id="edge1_Node000001_Node000002" class="edge">
<title>Node1&#45;&gt;Node2</title>
<g id="a_edge1_Node000001_Node000002"><a xlink:title=" ">
<path fill="none" stroke="#63b8ff" d="M62.4,-133.6C78.15,-145.9 107.2,-167.16 135,-180 139.09,-181.89 143.42,-183.63 147.82,-185.21"/>
<polygon fill="#63b8ff" stroke="#63b8ff" points="146.9,-188.6 157.5,-188.45 149.12,-181.96 146.9,-188.6"/>
</a>
</g>
</g>
<!-- Node3 -->
<g id="Node000003" class="node">
<title>Node3</title>
<g id="a_Node000003"><a xlink:href="classSocket.html#a980625f7b1a7649772a83cc3784e746a" target="_top" xlink:title=" ">
<polygon fill="white" stroke="#666666" points="247.5,-170.5 149.5,-170.5 149.5,-151.5 247.5,-151.5 247.5,-170.5"/>
<text text-anchor="middle" x="198.5" y="-158.5" font-family="Helvetica,sans-Serif" font-size="10.00">Socket::BurstEnd</text>
</a>
</g>
</g>
<!-- Node1&#45;&gt;Node3 -->
<g id="edge2_Node000001_Node000003" class="edge">
<title>Node1&#45;&gt;Node3</title>
<g id="a_edge2_Node000001_Node000003"><a xlink:title=" ">
<path fill="none" stroke="#63b8ff" d="M88.36,-133.53C107.06,-138.24 129.82,-143.97 149.72,-148.97"/>
<polygon fill="#63b8ff" stroke="#63b8ff" points="148.97,-152.39 159.52,-151.44 150.67,-145.6 148.97,-152.39"/>
</a>
</g>
</g>
<!-- Node4 -->
<g id="Node000004" class="node">
<title>Node4</title>
<g id="a_Node000004"><a xlink:href="classSocket.html#af9a48d047977de02421cb02d418ebd09" target="_top" xlink:title=" ">
<polygon fill="white" stroke="#666666" points="250.5,-133.5 146.5,-133.5 146.5,-114.5 250.5,-114.5 250.5,-133.5"/>
<text text-anchor="middle" x="198.5" y="-121.5" font-family="Helvetica,sans-Serif" font-size="10.00">Socket::BurstPush</text>
</a>
</g>
</g>
<!-- Node1&#45;&gt;Node4 -->
<g id="edge3_Node000001_Node000004" class="edge">
<title>Node1&#45;&gt;Node4</title>
<g id="a_edge3_Node000001_Node000004"><a xlink:title=" ">
<path fill="none" stroke="#63b8ff" d="M99.04,-124C110.93,-124 123.81,-124 136.21,-124"/>
<polygon fill="#63b8ff" stroke="#63b8ff" points="136.49,-127.5 146.49,-124 136.49,-120.5 136.49,-127.5"/>
</a>
</g>
</g>
<!-- Node5 -->
<g id="Node000005" class="node">
<title>Node5</title>
<g id="a_Node000005"><a xlink:href="classSocket.html#ac3b5df1c7c92b0ddc953849c8c216921" target="_top" xlink:title=" ">
<polygon fill="white" stroke="#666666" points="250.5,-96.5 146.5,-96.5 146.5,-77.5 250.5,-77.5 250.5,-96.5"/>
<text text-anchor="middle" x="198.5" y="-84.5" font-family="Helvetica,sans-Serif" font-size="10.00">Socket::BurstSend</text>
</a>
</g>
</g>
<!-- Node1&#45;&gt;Node5 -->
<g id="edge4_Node000001_Node000005" class="edge">
<title>Node1&#45;&gt;Node5</title>
<g id="a_edge4_Node000001_Node000005"><a xlink:title=" ">
<path fill="none" stroke="#63b8ff" d="M88.36,-114.47C107.06,-109.76 129.82,-104.03 149.72,-99.03"/>
<polygon fill="#63b8ff" stroke="#63b8ff" points="150.67,-102.4 159.52,-96.56 148.97,-95.61 150.67,-102.4"/>
</a>
</g>
</g>
<!-- Node11 -->
<g id="Node000011" class="node">
<title>Node11</title>
<g id="a_Node000011"><a xlink:href="classCircularBuffer.html#adcc8bdd0dd4d13db4a1fea295b02acbf" target="_top" xlink:title=" ">
<polygon fill="white" stroke="#666666" points="262,-59.5 135,-59.5 135,-40.5 262,-40.5 262,-59.5"/>
<text text-anchor="middle" x="198.5" y="-47.5" font-family="Helvetica,sans-Serif" font-size="10.00">CircularBuffer::GetSize</text>
</a>
</g>
</g>
<!-- Node1&#45;&gt;Node11 -->
<g id="edge10_Node000001_Node000011" class="edge">
<title>Node1&#45;&gt;Node11</title>
<g id="a_edge10_Node000001_Node000011"><a xlink:title=" ">
<path fill="none" stroke="#63b8ff" d="M62.73,-114.44C78.61,-102.41 107.55,-81.79 135,-69 139.76,-66.78 144.84,-64.74 149.98,-62.89"/>
<polygon fill="#63b8ff" stroke="#63b8ff" points="151.48,-66.08 159.84,-59.57 149.25,-59.45 151.48,-66.08"/>
</a>
</g>
</g>
<!-- Node6 -->
<g id="Node000006" class="node">
<title>Node6</title>
<g id="a_Node000006"><a xlink:href="classCircularBuffer.html#a200a74ba910181da4520d2862d1d9ac2" target="_top" xlink:title=" ">
<polygon fill="white" stroke="#666666" points="414,-96.5 298,-96.5 298,-77.5 414,-77.5 414,-96.5"/>
<text text-anchor="middle" x="356" y="-84.5" font-family="Helvetica,sans-Serif" font-size="10.00">CircularBuffer::Write</text>
</a>
</g>
</g>
<!-- Node5&#45;&gt;Node6 -->
<g id="edge5_Node000005_Node000006" class="edge">
<title>Node5&#45;&gt;Node6</title>
<g id="a_edge5_Node000005_Node000006"><a xlink:title=" ">
<path fill="none" stroke="#63b8ff" d="M250.85,-87C262.6,-87 275.26,-87 287.57,-87"/>
<polygon fill="#63b8ff" stroke="#63b8ff" points="287.8,-90.5 297.8,-87 287.8,-83.5 287.8,-90.5"/>
</a>
</g>
</g>
<!-- Node7 -->
<g id="Node000007" class="node">
<title>Node7</title>
<g id="a_Node000007"><a xlink:href="classCircularBuffer.html#a1a7b35478fc3aa45bd523c7e370be558" target="_top" xlink:title=" ">
<polygon fill="white" stroke="#666666" points="586,-163.5 450,-163.5 450,-144.5 586,-144.5 586,-163.5"/>
<text text-anchor="middle" x="518" y="-151.5" font-family="Helvetica,sans-Serif" font-size="10.00">CircularBuffer::AllocateB</text>
</a>
</g>
</g>
<!-- Node6&#45;&gt;Node7 -->
<g id="edge6_Node000006_Node000007" class="edge">
<title>Node6&#45;&gt;Node7</title>
<g id="a_edge6_Node000006_Node000007"><a xlink:title=" ">
<path fill="none" stroke="#63b8ff" d="M373,-96.52C391.17,-107.02 421.95,-123.91 450,-135 455.9,-137.33 462.2,-139.51 468.49,-141.49"/>
<polygon fill="#63b8ff" stroke="#63b8ff" points="467.71,-144.91 478.29,-144.45 469.73,-138.21 467.71,-144.91"/>
</a>
</g>
</g>
<!-- Node8 -->
<g id="Node000008" class="node">
<title>Node8</title>
<g id="a_Node000008"><a xlink:href="classCircularBuffer.html#a6ee48e9ae9b0b1d14ecfb3303b4a3258" target="_top" xlink:title=" ">
<polygon fill="white" stroke="#666666" points="585,-126 451,-126 451,-96 585,-96 585,-126"/>
<text text-anchor="start" x="459" y="-114" font-family="Helvetica,sans-Serif" font-size="10.00">CircularBuffer::GetAFree</text>
<text text-anchor="middle" x="518" y="-103" font-family="Helvetica,sans-Serif" font-size="10.00">Space</text>
</a>
</g>
</g>
<!-- Node6&#45;&gt;Node8 -->
<g id="edge7_Node000006_Node000008" class="edge">
<title>Node6&#45;&gt;Node8</title>
<g id="a_edge7_Node000006_Node000008"><a xlink:title=" ">
<path fill="none" stroke="#63b8ff" d="M414.31,-95.6C422.91,-96.89 431.89,-98.23 440.81,-99.57"/>
<polygon fill="#63b8ff" stroke="#63b8ff" points="440.42,-103.05 450.83,-101.07 441.46,-96.13 440.42,-103.05"/>
</a>
</g>
</g>
<!-- Node9 -->
<g id="Node000009" class="node">
<title>Node9</title>
<g id="a_Node000009"><a xlink:href="classCircularBuffer.html#a9773ab7c19eb952a4b8fa151dffee1a3" target="_top" xlink:title=" ">
<polygon fill="white" stroke="#666666" points="585,-78 451,-78 451,-48 585,-48 585,-78"/>
<text text-anchor="start" x="459" y="-66" font-family="Helvetica,sans-Serif" font-size="10.00">CircularBuffer::GetBFree</text>
<text text-anchor="middle" x="518" y="-55" font-family="Helvetica,sans-Serif" font-size="10.00">Space</text>
</a>
</g>
</g>
<!-- Node6&#45;&gt;Node9 -->
<g id="edge8_Node000006_Node000009" class="edge">
<title>Node6&#45;&gt;Node9</title>
<g id="a_edge8_Node000006_Node000009"><a xlink:title=" ">
<path fill="none" stroke="#63b8ff" d="M414.31,-78.4C422.91,-77.11 431.89,-75.77 440.81,-74.43"/>
<polygon fill="#63b8ff" stroke="#63b8ff" points="441.46,-77.87 450.83,-72.93 440.42,-70.95 441.46,-77.87"/>
</a>
</g>
</g>
<!-- Node10 -->
<g id="Node000010" class="node">
<title>Node10</title>
<g id="a_Node000010"><a xlink:href="classCircularBuffer.html#a6cd3e6603e9fe5dbd936e3caf7502066" target="_top" xlink:title=" ">
<polygon fill="white" stroke="#666666" points="586,-30 450,-30 450,0 586,0 586,-30"/>
<text text-anchor="start" x="458" y="-18" font-family="Helvetica,sans-Serif" font-size="10.00">CircularBuffer::GetSpace</text>
<text text-anchor="middle" x="518" y="-7" font-family="Helvetica,sans-Serif" font-size="10.00">BeforeA</text>
</a>
</g>
</g>
<!-- Node6&#45;&gt;Node10 -->
<g id="edge9_Node000006_Node000010" class="edge">
<title>Node6&#45;&gt;Node10</title>
<g id="a_edge9_Node000006_Node000010"><a xlink:title=" ">
<path fill="none" stroke="#63b8ff" d="M373.81,-77.46C392.19,-67.24 422.67,-50.88 450,-39 454.13,-37.21 458.44,-35.44 462.79,-33.72"/>
<polygon fill="#63b8ff" stroke="#63b8ff" points="464.26,-36.91 472.35,-30.06 461.76,-30.37 464.26,-36.91"/>
</a>
</g>
</g>
</g>
</svg>
