<?xml version="1.0" encoding="UTF-8" standalone="no"?>
<!DOCTYPE svg PUBLIC "-//W3C//DTD SVG 1.1//EN"
 "http://www.w3.org/Graphics/SVG/1.1/DTD/svg11.dtd">
<!-- Generated by graphviz version 2.43.0 (0)
 -->
<!-- Title: LuaEngine::ArcLuna::tostring Pages: 1 -->
<svg width="973pt" height="385pt"
 viewBox="0.00 0.00 973.00 385.00" xmlns="http://www.w3.org/2000/svg" xmlns:xlink="http://www.w3.org/1999/xlink">
<g id="graph0" class="graph" transform="scale(1 1) rotate(0) translate(4 381)">
<title>LuaEngine::ArcLuna::tostring</title>
<!-- Node1 -->
<g id="Node000001" class="node">
<title>Node1</title>
<g id="a_Node000001"><a xlink:title=" ">
<polygon fill="#999999" stroke="#666666" points="965,-214.5 853,-214.5 853,-184.5 965,-184.5 965,-214.5"/>
<text text-anchor="start" x="861" y="-202.5" font-family="Helvetica,sans-Serif" font-size="10.00">LuaEngine::ArcLuna</text>
<text text-anchor="middle" x="909" y="-191.5" font-family="Helvetica,sans-Serif" font-size="10.00">::tostring</text>
</a>
</g>
</g>
<!-- Node2 -->
<g id="Node000002" class="node">
<title>Node2</title>
<g id="a_Node000002"><a xlink:href="classLuaEngine_1_1ArcLuna.html#a385f7c2389d4233ddbe3282393b46012" target="_top" xlink:title=" ">
<polygon fill="white" stroke="#666666" points="817,-300.5 705,-300.5 705,-270.5 817,-270.5 817,-300.5"/>
<text text-anchor="start" x="713" y="-288.5" font-family="Helvetica,sans-Serif" font-size="10.00">LuaEngine::ArcLuna</text>
<text text-anchor="middle" x="761" y="-277.5" font-family="Helvetica,sans-Serif" font-size="10.00">::gc_T</text>
</a>
</g>
</g>
<!-- Node1&#45;&gt;Node2 -->
<g id="edge1_Node000001_Node000002" class="edge">
<title>Node1&#45;&gt;Node2</title>
<g id="a_edge1_Node000001_Node000002"><a xlink:title=" ">
<path fill="none" stroke="#63b8ff" d="M873.33,-219.92C846.97,-235.45 811.3,-256.46 787.51,-270.47"/>
<polygon fill="#63b8ff" stroke="#63b8ff" points="875.39,-222.77 882.23,-214.68 871.84,-216.74 875.39,-222.77"/>
</a>
</g>
</g>
<!-- Node8 -->
<g id="Node000008" class="node">
<title>Node8</title>
<g id="a_Node000008"><a xlink:href="classLuaEngine_1_1ArcLuna.html#a1ac7969799f121b1ea015803423da23d" target="_top" xlink:title=" ">
<polygon fill="white" stroke="#666666" points="817,-190.5 705,-190.5 705,-160.5 817,-160.5 817,-190.5"/>
<text text-anchor="start" x="713" y="-178.5" font-family="Helvetica,sans-Serif" font-size="10.00">LuaEngine::ArcLuna</text>
<text text-anchor="middle" x="761" y="-167.5" font-family="Helvetica,sans-Serif" font-size="10.00">::push</text>
</a>
</g>
</g>
<!-- Node1&#45;&gt;Node8 -->
<g id="edge7_Node000001_Node000008" class="edge">
<title>Node1&#45;&gt;Node8</title>
<g id="a_edge7_Node000001_Node000008"><a xlink:title=" ">
<path fill="none" stroke="#63b8ff" d="M842.87,-188.79C834.32,-187.39 825.63,-185.96 817.27,-184.59"/>
<polygon fill="#63b8ff" stroke="#63b8ff" points="842.37,-192.26 852.8,-190.43 843.5,-185.35 842.37,-192.26"/>
</a>
</g>
</g>
<!-- Node3 -->
<g id="Node000003" class="node">
<title>Node3</title>
<g id="a_Node000003"><a xlink:href="classLuaEngine_1_1ArcLuna.html#a5dc435df38ed61d8a1aad2224d2d3a3a" target="_top" xlink:title=" ">
<polygon fill="white" stroke="#666666" points="654,-363.5 542,-363.5 542,-333.5 654,-333.5 654,-363.5"/>
<text text-anchor="start" x="550" y="-351.5" font-family="Helvetica,sans-Serif" font-size="10.00">LuaEngine::ArcLuna</text>
<text text-anchor="middle" x="598" y="-340.5" font-family="Helvetica,sans-Serif" font-size="10.00">::Register</text>
</a>
</g>
</g>
<!-- Node2&#45;&gt;Node3 -->
<g id="edge2_Node000002_Node000003" class="edge">
<title>Node2&#45;&gt;Node3</title>
<g id="a_edge2_Node000002_Node000003"><a xlink:title=" ">
<path fill="none" stroke="#63b8ff" d="M715.74,-304.53C700.95,-310.74 684.32,-317.57 669,-323.5 660.46,-326.81 651.27,-330.2 642.45,-333.38"/>
<polygon fill="#63b8ff" stroke="#63b8ff" points="717.32,-307.66 725.17,-300.55 714.6,-301.21 717.32,-307.66"/>
</a>
</g>
</g>
<!-- Node4 -->
<g id="Node000004" class="node">
<title>Node4</title>
<g id="a_Node000004"><a xlink:href="classLuaEngine.html#aafe21193268e555fde0c87e0924cbbf0" target="_top" xlink:title=" ">
<polygon fill="white" stroke="#666666" points="491,-358 309,-358 309,-339 491,-339 491,-358"/>
<text text-anchor="middle" x="400" y="-346" font-family="Helvetica,sans-Serif" font-size="10.00">LuaEngine::RegisterCoreFunctions</text>
</a>
</g>
</g>
<!-- Node3&#45;&gt;Node4 -->
<g id="edge3_Node000003_Node000004" class="edge">
<title>Node3&#45;&gt;Node4</title>
<g id="a_edge3_Node000003_Node000004"><a xlink:title=" ">
<path fill="none" stroke="#63b8ff" d="M531.7,-348.5C518.74,-348.5 504.93,-348.5 491.31,-348.5"/>
<polygon fill="#63b8ff" stroke="#63b8ff" points="531.88,-352 541.88,-348.5 531.88,-345 531.88,-352"/>
</a>
</g>
</g>
<!-- Node5 -->
<g id="Node000005" class="node">
<title>Node5</title>
<g id="a_Node000005"><a xlink:href="classLuaEngine.html#a2df2f46f9c180a2fb486c61e14de70d8" target="_top" xlink:title=" ">
<polygon fill="white" stroke="#666666" points="273,-358 144,-358 144,-339 273,-339 273,-358"/>
<text text-anchor="middle" x="208.5" y="-346" font-family="Helvetica,sans-Serif" font-size="10.00">LuaEngine::LoadScripts</text>
</a>
</g>
</g>
<!-- Node4&#45;&gt;Node5 -->
<g id="edge4_Node000004_Node000005" class="edge">
<title>Node4&#45;&gt;Node5</title>
<g id="a_edge4_Node000004_Node000005"><a xlink:title=" ">
<path fill="none" stroke="#63b8ff" d="M298.73,-348.5C290.01,-348.5 281.36,-348.5 273.07,-348.5"/>
<polygon fill="#63b8ff" stroke="#63b8ff" points="298.97,-352 308.97,-348.5 298.97,-345 298.97,-352"/>
</a>
</g>
</g>
<!-- Node6 -->
<g id="Node000006" class="node">
<title>Node6</title>
<g id="a_Node000006"><a xlink:href="classLuaEngine.html#ada57d3a2c7151a66504d98a501a93936" target="_top" xlink:title=" ">
<polygon fill="white" stroke="#666666" points="108,-377 0,-377 0,-358 108,-358 108,-377"/>
<text text-anchor="middle" x="54" y="-365" font-family="Helvetica,sans-Serif" font-size="10.00">LuaEngine::Restart</text>
</a>
</g>
</g>
<!-- Node5&#45;&gt;Node6 -->
<g id="edge5_Node000005_Node000006" class="edge">
<title>Node5&#45;&gt;Node6</title>
<g id="a_edge5_Node000005_Node000006"><a xlink:title=" ">
<path fill="none" stroke="#63b8ff" d="M133.72,-357.69C125.18,-358.76 116.59,-359.83 108.39,-360.85"/>
<polygon fill="#63b8ff" stroke="#63b8ff" points="134.22,-361.16 143.71,-356.45 133.35,-354.21 134.22,-361.16"/>
</a>
</g>
</g>
<!-- Node7 -->
<g id="Node000007" class="node">
<title>Node7</title>
<g id="a_Node000007"><a xlink:href="classLuaEngine.html#a6f79945220aaf6367d405034f1bb8705" target="_top" xlink:title=" ">
<polygon fill="white" stroke="#666666" points="108,-340 0,-340 0,-321 108,-321 108,-340"/>
<text text-anchor="middle" x="54" y="-328" font-family="Helvetica,sans-Serif" font-size="10.00">LuaEngine::Startup</text>
</a>
</g>
</g>
<!-- Node5&#45;&gt;Node7 -->
<g id="edge6_Node000005_Node000007" class="edge">
<title>Node5&#45;&gt;Node7</title>
<g id="a_edge6_Node000005_Node000007"><a xlink:title=" ">
<path fill="none" stroke="#63b8ff" d="M133.72,-339.79C125.18,-338.78 116.59,-337.77 108.39,-336.8"/>
<polygon fill="#63b8ff" stroke="#63b8ff" points="133.37,-343.27 143.71,-340.97 134.19,-336.32 133.37,-343.27"/>
</a>
</g>
</g>
<!-- Node9 -->
<g id="Node000009" class="node">
<title>Node9</title>
<g id="a_Node000009"><a xlink:href="classLuaEngine.html#ae44b411fcf8c7dfb29db87d40d0e75e1" target="_top" xlink:title=" ">
<polygon fill="white" stroke="#666666" points="657.5,-315 538.5,-315 538.5,-296 657.5,-296 657.5,-315"/>
<text text-anchor="middle" x="598" y="-303" font-family="Helvetica,sans-Serif" font-size="10.00">LuaEngine::PushAura</text>
</a>
</g>
</g>
<!-- Node8&#45;&gt;Node9 -->
<g id="edge8_Node000008_Node000009" class="edge">
<title>Node8&#45;&gt;Node9</title>
<g id="a_edge8_Node000008_Node000009"><a xlink:title=" ">
<path fill="none" stroke="#63b8ff" d="M746.7,-199.24C731.26,-224.61 703.47,-264.19 669,-286.5 662.97,-290.4 656.16,-293.51 649.21,-295.98"/>
<polygon fill="#63b8ff" stroke="#63b8ff" points="749.73,-200.99 751.81,-190.6 743.71,-197.42 749.73,-200.99"/>
</a>
</g>
</g>
<!-- Node10 -->
<g id="Node000010" class="node">
<title>Node10</title>
<g id="a_Node000010"><a xlink:href="classLuaEngine.html#a28df1e62cb506a14c1189de74a3aa669" target="_top" xlink:title=" ">
<polygon fill="white" stroke="#666666" points="653,-278 543,-278 543,-259 653,-259 653,-278"/>
<text text-anchor="middle" x="598" y="-266" font-family="Helvetica,sans-Serif" font-size="10.00">LuaEngine::PushGo</text>
</a>
</g>
</g>
<!-- Node8&#45;&gt;Node10 -->
<g id="edge9_Node000008_Node000010" class="edge">
<title>Node8&#45;&gt;Node10</title>
<g id="a_edge9_Node000008_Node000010"><a xlink:title=" ">
<path fill="none" stroke="#63b8ff" d="M737.95,-197.93C720.61,-214.39 695.08,-236.12 669,-249.5 661.6,-253.29 653.37,-256.39 645.22,-258.91"/>
<polygon fill="#63b8ff" stroke="#63b8ff" points="740.58,-200.26 745.32,-190.79 735.7,-195.24 740.58,-200.26"/>
</a>
</g>
</g>
<!-- Node11 -->
<g id="Node000011" class="node">
<title>Node11</title>
<g id="a_Node000011"><a xlink:href="classLuaEngine.html#a891e53048f8da923433fbc069540bdc5" target="_top" xlink:title=" ">
<polygon fill="white" stroke="#666666" points="657.5,-241 538.5,-241 538.5,-222 657.5,-222 657.5,-241"/>
<text text-anchor="middle" x="598" y="-229" font-family="Helvetica,sans-Serif" font-size="10.00">LuaEngine::PushItem</text>
</a>
</g>
</g>
<!-- Node8&#45;&gt;Node11 -->
<g id="edge10_Node000008_Node000011" class="edge">
<title>Node8&#45;&gt;Node11</title>
<g id="a_edge10_Node000008_Node000011"><a xlink:title=" ">
<path fill="none" stroke="#63b8ff" d="M716.34,-194.5C701.46,-200.64 684.64,-207.22 669,-212.5 658.86,-215.92 647.73,-219.17 637.4,-221.98"/>
<polygon fill="#63b8ff" stroke="#63b8ff" points="717.92,-197.64 725.8,-190.55 715.22,-191.18 717.92,-197.64"/>
</a>
</g>
</g>
<!-- Node12 -->
<g id="Node000012" class="node">
<title>Node12</title>
<g id="a_Node000012"><a xlink:href="classLuaEngine.html#ae697660ac930b2981c6834fce5028779" target="_top" xlink:title=" ">
<polygon fill="white" stroke="#666666" points="662,-204 534,-204 534,-185 662,-185 662,-204"/>
<text text-anchor="middle" x="598" y="-192" font-family="Helvetica,sans-Serif" font-size="10.00">LuaEngine::PushPacket</text>
</a>
</g>
</g>
<!-- Node8&#45;&gt;Node12 -->
<g id="edge11_Node000008_Node000012" class="edge">
<title>Node8&#45;&gt;Node12</title>
<g id="a_edge11_Node000008_Node000012"><a xlink:title=" ">
<path fill="none" stroke="#63b8ff" d="M694.52,-183.23C683.87,-184.48 672.85,-185.78 662.25,-187.04"/>
<polygon fill="#63b8ff" stroke="#63b8ff" points="695.07,-186.69 704.59,-182.04 694.25,-179.73 695.07,-186.69"/>
</a>
</g>
</g>
<!-- Node13 -->
<g id="Node000013" class="node">
<title>Node13</title>
<g id="a_Node000013"><a xlink:href="classLuaEngine.html#ad6dfd632893815251c975051180442f2" target="_top" xlink:title=" ">
<polygon fill="white" stroke="#666666" points="658,-167 538,-167 538,-148 658,-148 658,-167"/>
<text text-anchor="middle" x="598" y="-155" font-family="Helvetica,sans-Serif" font-size="10.00">LuaEngine::PushSpell</text>
</a>
</g>
</g>
<!-- Node8&#45;&gt;Node13 -->
<g id="edge12_Node000008_Node000013" class="edge">
<title>Node8&#45;&gt;Node13</title>
<g id="a_edge12_Node000008_Node000013"><a xlink:title=" ">
<path fill="none" stroke="#63b8ff" d="M694.58,-168.19C682.51,-166.84 669.96,-165.43 658.08,-164.11"/>
<polygon fill="#63b8ff" stroke="#63b8ff" points="694.27,-171.67 704.59,-169.31 695.04,-164.72 694.27,-171.67"/>
</a>
</g>
</g>
<!-- Node14 -->
<g id="Node000014" class="node">
<title>Node14</title>
<g id="a_Node000014"><a xlink:href="classLuaEngine.html#aa6bfaed082c3aa86c30c3049b7a1649d" target="_top" xlink:title=" ">
<polygon fill="white" stroke="#666666" points="665,-130 531,-130 531,-111 665,-111 665,-130"/>
<text text-anchor="middle" x="598" y="-118" font-family="Helvetica,sans-Serif" font-size="10.00">LuaEngine::PushSqlField</text>
</a>
</g>
</g>
<!-- Node8&#45;&gt;Node14 -->
<g id="edge13_Node000008_Node000014" class="edge">
<title>Node8&#45;&gt;Node14</title>
<g id="a_edge13_Node000008_Node000014"><a xlink:title=" ">
<path fill="none" stroke="#63b8ff" d="M716.38,-156.37C701.51,-150.23 684.68,-143.68 669,-138.5 659.71,-135.43 649.58,-132.56 639.98,-130.05"/>
<polygon fill="#63b8ff" stroke="#63b8ff" points="715.26,-159.7 725.84,-160.34 717.97,-153.25 715.26,-159.7"/>
</a>
</g>
</g>
<!-- Node15 -->
<g id="Node000015" class="node">
<title>Node15</title>
<g id="a_Node000015"><a xlink:href="classLuaEngine.html#a681d02bcabe855e633ceb4b7ccaac8fd" target="_top" xlink:title=" ">
<polygon fill="white" stroke="#666666" points="669,-93 527,-93 527,-74 669,-74 669,-93"/>
<text text-anchor="middle" x="598" y="-81" font-family="Helvetica,sans-Serif" font-size="10.00">LuaEngine::PushSqlResult</text>
</a>
</g>
</g>
<!-- Node8&#45;&gt;Node15 -->
<g id="edge14_Node000008_Node000015" class="edge">
<title>Node8&#45;&gt;Node15</title>
<g id="a_edge14_Node000008_Node000015"><a xlink:title=" ">
<path fill="none" stroke="#63b8ff" d="M738.32,-153.27C720.99,-136.72 695.33,-114.78 669,-101.5 662.28,-98.11 654.86,-95.32 647.45,-93.03"/>
<polygon fill="#63b8ff" stroke="#63b8ff" points="736.06,-155.96 745.66,-160.44 740.95,-150.95 736.06,-155.96"/>
</a>
</g>
</g>
<!-- Node16 -->
<g id="Node000016" class="node">
<title>Node16</title>
<g id="a_Node000016"><a xlink:href="classLuaEngine.html#abb97a05864dd30ec30dab8e59e90c3ec" target="_top" xlink:title=" ">
<polygon fill="white" stroke="#666666" points="666.5,-56 529.5,-56 529.5,-37 666.5,-37 666.5,-56"/>
<text text-anchor="middle" x="598" y="-44" font-family="Helvetica,sans-Serif" font-size="10.00">LuaEngine::PushTaxiPath</text>
</a>
</g>
</g>
<!-- Node8&#45;&gt;Node16 -->
<g id="edge15_Node000008_Node000016" class="edge">
<title>Node8&#45;&gt;Node16</title>
<g id="a_edge15_Node000008_Node000016"><a xlink:title=" ">
<path fill="none" stroke="#63b8ff" d="M746.75,-151.67C731.37,-126.22 703.61,-86.58 669,-64.5 663.6,-61.06 657.58,-58.27 651.39,-56.02"/>
<polygon fill="#63b8ff" stroke="#63b8ff" points="743.77,-153.5 751.85,-160.34 749.8,-149.95 743.77,-153.5"/>
</a>
</g>
</g>
<!-- Node17 -->
<g id="Node000017" class="node">
<title>Node17</title>
<g id="a_Node000017"><a xlink:href="classLuaEngine.html#ad796573c135cf8e405bc4443c0e1fd4c" target="_top" xlink:title=" ">
<polygon fill="white" stroke="#666666" points="656,-19 540,-19 540,0 656,0 656,-19"/>
<text text-anchor="middle" x="598" y="-7" font-family="Helvetica,sans-Serif" font-size="10.00">LuaEngine::PushUnit</text>
</a>
</g>
</g>
<!-- Node8&#45;&gt;Node17 -->
<g id="edge16_Node000008_Node000017" class="edge">
<title>Node8&#45;&gt;Node17</title>
<g id="a_edge16_Node000008_Node000017"><a xlink:title=" ">
<path fill="none" stroke="#63b8ff" d="M751.56,-150.81C738.93,-117.63 711.89,-59.14 669,-27.5 664.36,-24.07 659.12,-21.3 653.65,-19.05"/>
<polygon fill="#63b8ff" stroke="#63b8ff" points="748.29,-152.06 755.02,-160.24 754.87,-149.65 748.29,-152.06"/>
</a>
</g>
</g>
</g>
</svg>
