<?xml version="1.0" encoding="UTF-8" standalone="no"?>
<!DOCTYPE svg PUBLIC "-//W3C//DTD SVG 1.1//EN"
 "http://www.w3.org/Graphics/SVG/1.1/DTD/svg11.dtd">
<!-- Generated by graphviz version 2.43.0 (0)
 -->
<!-- Title: TheVioletHoldScript::spawnPortal Pages: 1 -->
<svg width="685pt" height="170pt"
 viewBox="0.00 0.00 685.00 169.50" xmlns="http://www.w3.org/2000/svg" xmlns:xlink="http://www.w3.org/1999/xlink">
<g id="graph0" class="graph" transform="scale(1 1) rotate(0) translate(4 165.5)">
<title>TheVioletHoldScript::spawnPortal</title>
<!-- Node1 -->
<g id="Node000001" class="node">
<title>Node1</title>
<g id="a_Node000001"><a xlink:title=" ">
<polygon fill="#999999" stroke="#666666" points="113,-79.5 0,-79.5 0,-49.5 113,-49.5 113,-79.5"/>
<text text-anchor="start" x="8" y="-67.5" font-family="Helvetica,sans-Serif" font-size="10.00">TheVioletHoldScript</text>
<text text-anchor="middle" x="56.5" y="-56.5" font-family="Helvetica,sans-Serif" font-size="10.00">::spawnPortal</text>
</a>
</g>
</g>
<!-- Node2 -->
<g id="Node000002" class="node">
<title>Node2</title>
<g id="a_Node000002"><a xlink:href="classInstanceScript.html#a2cd1069fd31b9444c7c5eee674fe77e1" target="_top" xlink:title=" ">
<polygon fill="white" stroke="#666666" points="298,-140.5 149,-140.5 149,-110.5 298,-110.5 298,-140.5"/>
<text text-anchor="start" x="157" y="-128.5" font-family="Helvetica,sans-Serif" font-size="10.00">InstanceScript::getCreature</text>
<text text-anchor="middle" x="223.5" y="-117.5" font-family="Helvetica,sans-Serif" font-size="10.00">FromData</text>
</a>
</g>
</g>
<!-- Node1&#45;&gt;Node2 -->
<g id="edge1_Node000001_Node000002" class="edge">
<title>Node1&#45;&gt;Node2</title>
<g id="a_edge1_Node000001_Node000002"><a xlink:title=" ">
<path fill="none" stroke="#63b8ff" d="M93.35,-79.66C110.14,-86.59 130.49,-94.74 149,-101.5 154.2,-103.4 159.64,-105.31 165.09,-107.18"/>
<polygon fill="#63b8ff" stroke="#63b8ff" points="164.3,-110.6 174.89,-110.48 166.53,-103.97 164.3,-110.6"/>
</a>
</g>
</g>
<!-- Node6 -->
<g id="Node000006" class="node">
<title>Node6</title>
<g id="a_Node000006"><a xlink:href="namespaceUtil.html#ac09cb1bbc978b41e11720b88fec2800e" target="_top" xlink:title=" ">
<polygon fill="white" stroke="#666666" points="281.5,-74 165.5,-74 165.5,-55 281.5,-55 281.5,-74"/>
<text text-anchor="middle" x="223.5" y="-62" font-family="Helvetica,sans-Serif" font-size="10.00">Util::getRandomUInt</text>
</a>
</g>
</g>
<!-- Node1&#45;&gt;Node6 -->
<g id="edge5_Node000001_Node000006" class="edge">
<title>Node1&#45;&gt;Node6</title>
<g id="a_edge5_Node000001_Node000006"><a xlink:title=" ">
<path fill="none" stroke="#63b8ff" d="M113.36,-64.5C126.83,-64.5 141.36,-64.5 155.28,-64.5"/>
<polygon fill="#63b8ff" stroke="#63b8ff" points="155.29,-68 165.29,-64.5 155.29,-61 155.29,-68"/>
</a>
</g>
</g>
<!-- Node7 -->
<g id="Node000007" class="node">
<title>Node7</title>
<g id="a_Node000007"><a xlink:href="classObject.html#aadf6531c6a1ccea2c97bfef8fbdcbb49" target="_top" xlink:title=" ">
<polygon fill="white" stroke="#666666" points="293,-19 154,-19 154,0 293,0 293,-19"/>
<text text-anchor="middle" x="223.5" y="-7" font-family="Helvetica,sans-Serif" font-size="10.00">Object::summonCreature</text>
</a>
</g>
</g>
<!-- Node1&#45;&gt;Node7 -->
<g id="edge7_Node000001_Node000007" class="edge">
<title>Node1&#45;&gt;Node7</title>
<g id="a_edge7_Node000001_Node000007"><a xlink:title=" ">
<path fill="none" stroke="#63b8ff" d="M102.59,-49.47C128.08,-40.97 159.62,-30.46 183.96,-22.35"/>
<polygon fill="#63b8ff" stroke="#63b8ff" points="185.19,-25.63 193.57,-19.14 182.98,-18.99 185.19,-25.63"/>
</a>
</g>
</g>
<!-- Node3 -->
<g id="Node000003" class="node">
<title>Node3</title>
<g id="a_Node000003"><a xlink:href="classInstanceScript.html#a6c046f48ffadadbb43cc037c25ca65df" target="_top" xlink:title=" ">
<polygon fill="white" stroke="#666666" points="498.5,-161.5 347.5,-161.5 347.5,-131.5 498.5,-131.5 498.5,-161.5"/>
<text text-anchor="start" x="355.5" y="-149.5" font-family="Helvetica,sans-Serif" font-size="10.00">InstanceScript::GetCreature</text>
<text text-anchor="middle" x="423" y="-138.5" font-family="Helvetica,sans-Serif" font-size="10.00">ByGuid</text>
</a>
</g>
</g>
<!-- Node2&#45;&gt;Node3 -->
<g id="edge2_Node000002_Node000003" class="edge">
<title>Node2&#45;&gt;Node3</title>
<g id="a_edge2_Node000002_Node000003"><a xlink:title=" ">
<path fill="none" stroke="#63b8ff" d="M298.04,-133.32C310.89,-134.69 324.35,-136.12 337.46,-137.51"/>
<polygon fill="#63b8ff" stroke="#63b8ff" points="337.09,-140.99 347.41,-138.57 337.83,-134.03 337.09,-140.99"/>
</a>
</g>
</g>
<!-- Node5 -->
<g id="Node000005" class="node">
<title>Node5</title>
<g id="a_Node000005"><a xlink:href="classInstanceScript.html#a1c6e737155454534ffa04547e57140f0" target="_top" xlink:title=" ">
<polygon fill="white" stroke="#666666" points="512,-113 334,-113 334,-94 512,-94 512,-113"/>
<text text-anchor="middle" x="423" y="-101" font-family="Helvetica,sans-Serif" font-size="10.00">InstanceScript::getGuidFromData</text>
</a>
</g>
</g>
<!-- Node2&#45;&gt;Node5 -->
<g id="edge4_Node000002_Node000005" class="edge">
<title>Node2&#45;&gt;Node5</title>
<g id="a_edge4_Node000002_Node000005"><a xlink:title=" ">
<path fill="none" stroke="#63b8ff" d="M298.04,-117.31C307.22,-116.29 316.72,-115.23 326.17,-114.17"/>
<polygon fill="#63b8ff" stroke="#63b8ff" points="326.85,-117.62 336.41,-113.03 326.08,-110.66 326.85,-117.62"/>
</a>
</g>
</g>
<!-- Node4 -->
<g id="Node000004" class="node">
<title>Node4</title>
<g id="a_Node000004"><a xlink:href="classWorldMap.html#aaca4751736f7fd902ca0745a950148bd" target="_top" xlink:title=" ">
<polygon fill="white" stroke="#666666" points="677,-156 548,-156 548,-137 677,-137 677,-156"/>
<text text-anchor="middle" x="612.5" y="-144" font-family="Helvetica,sans-Serif" font-size="10.00">WorldMap::getCreature</text>
</a>
</g>
</g>
<!-- Node3&#45;&gt;Node4 -->
<g id="edge3_Node000003_Node000004" class="edge">
<title>Node3&#45;&gt;Node4</title>
<g id="a_edge3_Node000003_Node000004"><a xlink:title=" ">
<path fill="none" stroke="#63b8ff" d="M498.64,-146.5C511.54,-146.5 524.93,-146.5 537.8,-146.5"/>
<polygon fill="#63b8ff" stroke="#63b8ff" points="537.99,-150 547.99,-146.5 537.99,-143 537.99,-150"/>
</a>
</g>
</g>
<!-- Node6&#45;&gt;Node6 -->
<g id="edge6_Node000006_Node000006" class="edge">
<title>Node6&#45;&gt;Node6</title>
<g id="a_edge6_Node000006_Node000006"><a xlink:title=" ">
<path fill="none" stroke="#63b8ff" d="M197.91,-74.08C185.47,-82.73 194,-92 223.5,-92 242.86,-92 253.19,-88.01 254.49,-82.82"/>
<polygon fill="#63b8ff" stroke="#63b8ff" points="257.32,-80.75 249.09,-74.08 251.37,-84.43 257.32,-80.75"/>
</a>
</g>
</g>
<!-- Node7&#45;&gt;Node7 -->
<g id="edge9_Node000007_Node000007" class="edge">
<title>Node7&#45;&gt;Node7</title>
<g id="a_edge9_Node000007_Node000007"><a xlink:title=" ">
<path fill="none" stroke="#63b8ff" d="M197.91,-19.08C185.47,-27.73 194,-37 223.5,-37 242.86,-37 253.19,-33.01 254.49,-27.82"/>
<polygon fill="#63b8ff" stroke="#63b8ff" points="257.32,-25.75 249.09,-19.08 251.37,-29.43 257.32,-25.75"/>
</a>
</g>
</g>
<!-- Node8 -->
<g id="Node000008" class="node">
<title>Node8</title>
<g id="a_Node000008"><a xlink:href="classObject.html#a967af054c54b6d9846637ce8718efd75" target="_top" xlink:title=" ">
<polygon fill="white" stroke="#666666" points="482.5,-19 363.5,-19 363.5,0 482.5,0 482.5,-19"/>
<text text-anchor="middle" x="423" y="-7" font-family="Helvetica,sans-Serif" font-size="10.00">Object::getWorldMap</text>
</a>
</g>
</g>
<!-- Node7&#45;&gt;Node8 -->
<g id="edge8_Node000007_Node000008" class="edge">
<title>Node7&#45;&gt;Node8</title>
<g id="a_edge8_Node000007_Node000008"><a xlink:title=" ">
<path fill="none" stroke="#63b8ff" d="M293.02,-9.5C312.57,-9.5 333.86,-9.5 353.41,-9.5"/>
<polygon fill="#63b8ff" stroke="#63b8ff" points="353.45,-13 363.45,-9.5 353.45,-6 353.45,-13"/>
</a>
</g>
</g>
</g>
</svg>
