<?xml version="1.0" encoding="UTF-8" standalone="no"?>
<!DOCTYPE svg PUBLIC "-//W3C//DTD SVG 1.1//EN"
 "http://www.w3.org/Graphics/SVG/1.1/DTD/svg11.dtd">
<!-- Generated by graphviz version 2.43.0 (0)
 -->
<!-- Title: G3D::PointKDTree::Node::findDeepestContainingNode Pages: 1 -->
<svg width="519pt" height="69pt"
 viewBox="0.00 0.00 519.00 68.50" xmlns="http://www.w3.org/2000/svg" xmlns:xlink="http://www.w3.org/1999/xlink">
<g id="graph0" class="graph" transform="scale(1 1) rotate(0) translate(4 64.5)">
<title>G3D::PointKDTree::Node::findDeepestContainingNode</title>
<!-- Node1 -->
<g id="Node000001" class="node">
<title>Node1</title>
<g id="a_Node000001"><a xlink:title=" ">
<polygon fill="#999999" stroke="#666666" points="511,-42.5 352,-42.5 352,-12.5 511,-12.5 511,-42.5"/>
<text text-anchor="start" x="360" y="-30.5" font-family="Helvetica,sans-Serif" font-size="10.00">G3D::PointKDTree::Node</text>
<text text-anchor="middle" x="431.5" y="-19.5" font-family="Helvetica,sans-Serif" font-size="10.00">::findDeepestContainingNode</text>
</a>
</g>
</g>
<!-- Node1&#45;&gt;Node1 -->
<g id="edge1_Node000001_Node000001" class="edge">
<title>Node1&#45;&gt;Node1</title>
<g id="a_edge1_Node000001_Node000001"><a xlink:title=" ">
<path fill="none" stroke="#63b8ff" d="M463.71,-53.1C459.31,-57.47 448.57,-60.5 431.5,-60.5 402.75,-60.5 391.97,-51.91 399.16,-42.78"/>
<polygon fill="#63b8ff" stroke="#63b8ff" points="467.21,-52.82 463.84,-42.78 460.21,-52.73 467.21,-52.82"/>
</a>
</g>
</g>
<!-- Node2 -->
<g id="Node000002" class="node">
<title>Node2</title>
<g id="a_Node000002"><a xlink:href="classG3D_1_1PointKDTree.html#ac44bfcedf8a7a0dffb746ca0bcd236a0" target="_top" xlink:title=" ">
<polygon fill="white" stroke="#666666" points="316,-37 179,-37 179,-18 316,-18 316,-37"/>
<text text-anchor="middle" x="247.5" y="-25" font-family="Helvetica,sans-Serif" font-size="10.00">G3D::PointKDTree::insert</text>
</a>
</g>
</g>
<!-- Node1&#45;&gt;Node2 -->
<g id="edge2_Node000001_Node000002" class="edge">
<title>Node1&#45;&gt;Node2</title>
<g id="a_edge2_Node000001_Node000002"><a xlink:title=" ">
<path fill="none" stroke="#63b8ff" d="M341.88,-27.5C333.23,-27.5 324.56,-27.5 316.17,-27.5"/>
<polygon fill="#63b8ff" stroke="#63b8ff" points="342,-31 352,-27.5 342,-24 342,-31"/>
</a>
</g>
</g>
<!-- Node3 -->
<g id="Node000003" class="node">
<title>Node3</title>
<g id="a_Node000003"><a xlink:href="classG3D_1_1PointKDTree.html#acb986faf5a1c3af4a0ed28115ab41040" target="_top" xlink:title=" ">
<polygon fill="white" stroke="#666666" points="140,-56 3,-56 3,-37 140,-37 140,-56"/>
<text text-anchor="middle" x="71.5" y="-44" font-family="Helvetica,sans-Serif" font-size="10.00">G3D::PointKDTree::insert</text>
</a>
</g>
</g>
<!-- Node2&#45;&gt;Node3 -->
<g id="edge3_Node000002_Node000003" class="edge">
<title>Node2&#45;&gt;Node3</title>
<g id="a_edge3_Node000002_Node000003"><a xlink:title=" ">
<path fill="none" stroke="#63b8ff" d="M168.52,-36.02C159.03,-37.05 149.4,-38.1 140.09,-39.12"/>
<polygon fill="#63b8ff" stroke="#63b8ff" points="169.17,-39.47 178.73,-34.9 168.41,-32.51 169.17,-39.47"/>
</a>
</g>
</g>
<!-- Node4 -->
<g id="Node000004" class="node">
<title>Node4</title>
<g id="a_Node000004"><a xlink:href="classG3D_1_1PointKDTree.html#ace264951d2521d4431eb90d4a7d9e04f" target="_top" xlink:title=" ">
<polygon fill="white" stroke="#666666" points="143,-19 0,-19 0,0 143,0 143,-19"/>
<text text-anchor="middle" x="71.5" y="-7" font-family="Helvetica,sans-Serif" font-size="10.00">G3D::PointKDTree::update</text>
</a>
</g>
</g>
<!-- Node2&#45;&gt;Node4 -->
<g id="edge4_Node000002_Node000004" class="edge">
<title>Node2&#45;&gt;Node4</title>
<g id="a_edge4_Node000002_Node000004"><a xlink:title=" ">
<path fill="none" stroke="#63b8ff" d="M168.53,-19.43C160.11,-18.56 151.58,-17.68 143.25,-16.82"/>
<polygon fill="#63b8ff" stroke="#63b8ff" points="168.42,-22.94 178.73,-20.49 169.14,-15.98 168.42,-22.94"/>
</a>
</g>
</g>
</g>
</svg>
