<?xml version="1.0" encoding="UTF-8" standalone="no"?>
<!DOCTYPE svg PUBLIC "-//W3C//DTD SVG 1.1//EN"
 "http://www.w3.org/Graphics/SVG/1.1/DTD/svg11.dtd">
<!-- Generated by graphviz version 2.43.0 (0)
 -->
<!-- Title: Guild::changeMemberRank Pages: 1 -->
<svg width="537pt" height="70pt"
 viewBox="0.00 0.00 537.00 69.50" xmlns="http://www.w3.org/2000/svg" xmlns:xlink="http://www.w3.org/1999/xlink">
<g id="graph0" class="graph" transform="scale(1 1) rotate(0) translate(4 65.5)">
<title>Guild::changeMemberRank</title>
<!-- Node1 -->
<g id="Node000001" class="node">
<title>Node1</title>
<g id="a_Node000001"><a xlink:title=" ">
<polygon fill="#999999" stroke="#666666" points="149,-42.5 0,-42.5 0,-23.5 149,-23.5 149,-42.5"/>
<text text-anchor="middle" x="74.5" y="-30.5" font-family="Helvetica,sans-Serif" font-size="10.00">Guild::changeMemberRank</text>
</a>
</g>
</g>
<!-- Node2 -->
<g id="Node000002" class="node">
<title>Node2</title>
<g id="a_Node000002"><a xlink:href="classGuild.html#a77f08d218cf62878f455a9009b813ef9" target="_top" xlink:title=" ">
<polygon fill="white" stroke="#666666" points="322,-61.5 185,-61.5 185,-42.5 322,-42.5 322,-61.5"/>
<text text-anchor="middle" x="253.5" y="-49.5" font-family="Helvetica,sans-Serif" font-size="10.00">Guild::_getLowestRankId</text>
</a>
</g>
</g>
<!-- Node1&#45;&gt;Node2 -->
<g id="edge1_Node000001_Node000002" class="edge">
<title>Node1&#45;&gt;Node2</title>
<g id="a_edge1_Node000001_Node000002"><a xlink:title=" ">
<path fill="none" stroke="#63b8ff" d="M149.03,-40.89C157.56,-41.81 166.28,-42.75 174.87,-43.67"/>
<polygon fill="#63b8ff" stroke="#63b8ff" points="174.55,-47.15 184.87,-44.74 175.3,-40.19 174.55,-47.15"/>
</a>
</g>
</g>
<!-- Node3 -->
<g id="Node000003" class="node">
<title>Node3</title>
<g id="a_Node000003"><a xlink:href="classGuild.html#ab6d7465ec19656266d6b62ac57dffd16" target="_top" xlink:title=" ">
<polygon fill="white" stroke="#666666" points="305.5,-24.5 201.5,-24.5 201.5,-5.5 305.5,-5.5 305.5,-24.5"/>
<text text-anchor="middle" x="253.5" y="-12.5" font-family="Helvetica,sans-Serif" font-size="10.00">Guild::getMember</text>
</a>
</g>
</g>
<!-- Node1&#45;&gt;Node3 -->
<g id="edge2_Node000001_Node000003" class="edge">
<title>Node1&#45;&gt;Node3</title>
<g id="a_edge2_Node000001_Node000003"><a xlink:title=" ">
<path fill="none" stroke="#63b8ff" d="M149.03,-25.52C163.03,-24.1 177.55,-22.62 191.12,-21.24"/>
<polygon fill="#63b8ff" stroke="#63b8ff" points="191.7,-24.7 201.29,-20.21 190.99,-17.74 191.7,-24.7"/>
</a>
</g>
</g>
<!-- Node4 -->
<g id="Node000004" class="node">
<title>Node4</title>
<g id="a_Node000004"><a xlink:href="classWoWGuid.html#a0e1068a25c6a2f1896fdfd91f38c8422" target="_top" xlink:title=" ">
<polygon fill="white" stroke="#666666" points="529,-30 358,-30 358,0 529,0 529,-30"/>
<text text-anchor="start" x="366" y="-18" font-family="Helvetica,sans-Serif" font-size="10.00">WoWGuid::getGuidLowPartFrom</text>
<text text-anchor="middle" x="443.5" y="-7" font-family="Helvetica,sans-Serif" font-size="10.00">UInt64</text>
</a>
</g>
</g>
<!-- Node3&#45;&gt;Node4 -->
<g id="edge3_Node000003_Node000004" class="edge">
<title>Node3&#45;&gt;Node4</title>
<g id="a_edge3_Node000003_Node000004"><a xlink:title=" ">
<path fill="none" stroke="#63b8ff" d="M305.87,-15C318.95,-15 333.41,-15 347.9,-15"/>
<polygon fill="#63b8ff" stroke="#63b8ff" points="347.92,-18.5 357.92,-15 347.92,-11.5 347.92,-18.5"/>
</a>
</g>
</g>
</g>
</svg>
