<?xml version="1.0" encoding="UTF-8" standalone="no"?>
<!DOCTYPE svg PUBLIC "-//W3C//DTD SVG 1.1//EN"
 "http://www.w3.org/Graphics/SVG/1.1/DTD/svg11.dtd">
<!-- Generated by graphviz version 2.43.0 (0)
 -->
<!-- Title: LuaUnit::HasAura Pages: 1 -->
<svg width="538pt" height="82pt"
 viewBox="0.00 0.00 538.00 82.00" xmlns="http://www.w3.org/2000/svg" xmlns:xlink="http://www.w3.org/1999/xlink">
<g id="graph0" class="graph" transform="scale(1 1) rotate(0) translate(4 78)">
<title>LuaUnit::HasAura</title>
<!-- Node1 -->
<g id="Node000001" class="node">
<title>Node1</title>
<g id="a_Node000001"><a xlink:title=" ">
<polygon fill="#999999" stroke="#666666" points="101,-55 0,-55 0,-36 101,-36 101,-55"/>
<text text-anchor="middle" x="50.5" y="-43" font-family="Helvetica,sans-Serif" font-size="10.00">LuaUnit::HasAura</text>
</a>
</g>
</g>
<!-- Node2 -->
<g id="Node000002" class="node">
<title>Node2</title>
<g id="a_Node000002"><a xlink:href="classUnit.html#a064f2f965d8ae66a4b264bb866790e8f" target="_top" xlink:title=" ">
<polygon fill="white" stroke="#666666" points="256,-55 137,-55 137,-36 256,-36 256,-55"/>
<text text-anchor="middle" x="196.5" y="-43" font-family="Helvetica,sans-Serif" font-size="10.00">Unit::hasAurasWithId</text>
</a>
</g>
</g>
<!-- Node1&#45;&gt;Node2 -->
<g id="edge1_Node000001_Node000002" class="edge">
<title>Node1&#45;&gt;Node2</title>
<g id="a_edge1_Node000001_Node000002"><a xlink:title=" ">
<path fill="none" stroke="#63b8ff" d="M101.06,-45.5C109.36,-45.5 118.11,-45.5 126.79,-45.5"/>
<polygon fill="#63b8ff" stroke="#63b8ff" points="126.92,-49 136.92,-45.5 126.92,-42 126.92,-49"/>
</a>
</g>
</g>
<!-- Node3 -->
<g id="Node000003" class="node">
<title>Node3</title>
<g id="a_Node000003"><a xlink:href="classUnit.html#abefb82b781c691d26f3adfe0579a799a" target="_top" xlink:title=" ">
<polygon fill="white" stroke="#666666" points="390,-74 292,-74 292,-55 390,-55 390,-74"/>
<text text-anchor="middle" x="341" y="-62" font-family="Helvetica,sans-Serif" font-size="10.00">Unit::getAuraList</text>
</a>
</g>
</g>
<!-- Node2&#45;&gt;Node3 -->
<g id="edge2_Node000002_Node000003" class="edge">
<title>Node2&#45;&gt;Node3</title>
<g id="a_edge2_Node000002_Node000003"><a xlink:title=" ">
<path fill="none" stroke="#63b8ff" d="M256.28,-53.34C264.68,-54.46 273.31,-55.61 281.69,-56.73"/>
<polygon fill="#63b8ff" stroke="#63b8ff" points="281.39,-60.22 291.77,-58.07 282.32,-53.28 281.39,-60.22"/>
</a>
</g>
</g>
<!-- Node4 -->
<g id="Node000004" class="node">
<title>Node4</title>
<g id="a_Node000004"><a xlink:href="classAura.html#a8862591b3783a6b91edfb92453e66303" target="_top" xlink:title=" ">
<polygon fill="white" stroke="#666666" points="388,-37 294,-37 294,-18 388,-18 388,-37"/>
<text text-anchor="middle" x="341" y="-25" font-family="Helvetica,sans-Serif" font-size="10.00">Aura::getSpellId</text>
</a>
</g>
</g>
<!-- Node2&#45;&gt;Node4 -->
<g id="edge3_Node000002_Node000004" class="edge">
<title>Node2&#45;&gt;Node4</title>
<g id="a_edge3_Node000002_Node000004"><a xlink:title=" ">
<path fill="none" stroke="#63b8ff" d="M256.28,-38.07C265.42,-36.92 274.84,-35.73 283.91,-34.59"/>
<polygon fill="#63b8ff" stroke="#63b8ff" points="284.49,-38.04 293.97,-33.31 283.61,-31.09 284.49,-38.04"/>
</a>
</g>
</g>
<!-- Node5 -->
<g id="Node000005" class="node">
<title>Node5</title>
<g id="a_Node000005"><a xlink:href="classSpellInfo.html#a896830ef027cc8a1c24c3bf0e60ae82e" target="_top" xlink:title=" ">
<polygon fill="white" stroke="#666666" points="523,-56 433,-56 433,-37 523,-37 523,-56"/>
<text text-anchor="middle" x="478" y="-44" font-family="Helvetica,sans-Serif" font-size="10.00">SpellInfo::getId</text>
</a>
</g>
</g>
<!-- Node4&#45;&gt;Node5 -->
<g id="edge4_Node000004_Node000005" class="edge">
<title>Node4&#45;&gt;Node5</title>
<g id="a_edge4_Node000004_Node000005"><a xlink:title=" ">
<path fill="none" stroke="#63b8ff" d="M388.08,-33.99C399.31,-35.57 411.41,-37.27 422.97,-38.9"/>
<polygon fill="#63b8ff" stroke="#63b8ff" points="422.56,-42.37 432.95,-40.3 423.53,-35.44 422.56,-42.37"/>
</a>
</g>
</g>
<!-- Node6 -->
<g id="Node000006" class="node">
<title>Node6</title>
<g id="a_Node000006"><a xlink:href="classAura.html#a160caec7494437c30e3cd0dcc513007b" target="_top" xlink:title=" ">
<polygon fill="white" stroke="#666666" points="530,-19 426,-19 426,0 530,0 530,-19"/>
<text text-anchor="middle" x="478" y="-7" font-family="Helvetica,sans-Serif" font-size="10.00">Aura::getSpellInfo</text>
</a>
</g>
</g>
<!-- Node4&#45;&gt;Node6 -->
<g id="edge5_Node000004_Node000006" class="edge">
<title>Node4&#45;&gt;Node6</title>
<g id="a_edge5_Node000004_Node000006"><a xlink:title=" ">
<path fill="none" stroke="#63b8ff" d="M388.08,-21.36C396.94,-20.17 406.36,-18.92 415.61,-17.68"/>
<polygon fill="#63b8ff" stroke="#63b8ff" points="416.12,-21.15 425.57,-16.36 415.19,-14.21 416.12,-21.15"/>
</a>
</g>
</g>
</g>
</svg>
