<?xml version="1.0" encoding="UTF-8" standalone="no"?>
<!DOCTYPE svg PUBLIC "-//W3C//DTD SVG 1.1//EN"
 "http://www.w3.org/Graphics/SVG/1.1/DTD/svg11.dtd">
<!-- Generated by graphviz version 2.43.0 (0)
 -->
<!-- Title: NotOnMyWatch::OnCombatStop Pages: 1 -->
<svg width="847pt" height="64pt"
 viewBox="0.00 0.00 847.00 64.00" xmlns="http://www.w3.org/2000/svg" xmlns:xlink="http://www.w3.org/1999/xlink">
<g id="graph0" class="graph" transform="scale(1 1) rotate(0) translate(4 60)">
<title>NotOnMyWatch::OnCombatStop</title>
<!-- Node1 -->
<g id="Node000001" class="node">
<title>Node1</title>
<g id="a_Node000001"><a xlink:title=" ">
<polygon fill="#999999" stroke="#666666" points="172,-37 0,-37 0,-18 172,-18 172,-37"/>
<text text-anchor="middle" x="86" y="-25" font-family="Helvetica,sans-Serif" font-size="10.00">NotOnMyWatch::OnCombatStop</text>
</a>
</g>
</g>
<!-- Node2 -->
<g id="Node000002" class="node">
<title>Node2</title>
<g id="a_Node000002"><a xlink:href="classCreatureAIScript.html#a1b1859463c4776791e89010eb424c0f9" target="_top" xlink:title=" ">
<polygon fill="white" stroke="#666666" points="351,-42.5 208,-42.5 208,-12.5 351,-12.5 351,-42.5"/>
<text text-anchor="start" x="216" y="-30.5" font-family="Helvetica,sans-Serif" font-size="10.00">CreatureAIScript::Remove</text>
<text text-anchor="middle" x="279.5" y="-19.5" font-family="Helvetica,sans-Serif" font-size="10.00">AIUpdateEvent</text>
</a>
</g>
</g>
<!-- Node1&#45;&gt;Node2 -->
<g id="edge1_Node000001_Node000002" class="edge">
<title>Node1&#45;&gt;Node2</title>
<g id="a_edge1_Node000001_Node000002"><a xlink:title=" ">
<path fill="none" stroke="#63b8ff" d="M172.11,-27.5C180.63,-27.5 189.27,-27.5 197.74,-27.5"/>
<polygon fill="#63b8ff" stroke="#63b8ff" points="197.98,-31 207.98,-27.5 197.98,-24 197.98,-31"/>
</a>
</g>
</g>
<!-- Node3 -->
<g id="Node000003" class="node">
<title>Node3</title>
<g id="a_Node000003"><a xlink:href="classCreatureAIScript.html#ac34016d2eba45757e62c2b086662924b" target="_top" xlink:title=" ">
<polygon fill="white" stroke="#666666" points="489,-42.5 387,-42.5 387,-12.5 489,-12.5 489,-42.5"/>
<text text-anchor="start" x="395" y="-30.5" font-family="Helvetica,sans-Serif" font-size="10.00">CreatureAIScript::</text>
<text text-anchor="middle" x="438" y="-19.5" font-family="Helvetica,sans-Serif" font-size="10.00">_removeTimer</text>
</a>
</g>
</g>
<!-- Node2&#45;&gt;Node3 -->
<g id="edge2_Node000002_Node000003" class="edge">
<title>Node2&#45;&gt;Node3</title>
<g id="a_edge2_Node000002_Node000003"><a xlink:title=" ">
<path fill="none" stroke="#63b8ff" d="M351.42,-27.5C359.84,-27.5 368.37,-27.5 376.62,-27.5"/>
<polygon fill="#63b8ff" stroke="#63b8ff" points="376.89,-31 386.89,-27.5 376.89,-24 376.89,-31"/>
</a>
</g>
</g>
<!-- Node4 -->
<g id="Node000004" class="node">
<title>Node4</title>
<g id="a_Node000004"><a xlink:href="classCreatureAIScript.html#a6e3fced499a84b9cb1a1c9a6dfa60b7a" target="_top" xlink:title=" ">
<polygon fill="white" stroke="#666666" points="684,-42.5 525,-42.5 525,-12.5 684,-12.5 684,-42.5"/>
<text text-anchor="start" x="533" y="-30.5" font-family="Helvetica,sans-Serif" font-size="10.00">CreatureAIScript::getInstance</text>
<text text-anchor="middle" x="604.5" y="-19.5" font-family="Helvetica,sans-Serif" font-size="10.00">Script</text>
</a>
</g>
</g>
<!-- Node3&#45;&gt;Node4 -->
<g id="edge3_Node000003_Node000004" class="edge">
<title>Node3&#45;&gt;Node4</title>
<g id="a_edge3_Node000003_Node000004"><a xlink:title=" ">
<path fill="none" stroke="#63b8ff" d="M489.25,-27.5C497.33,-27.5 505.9,-27.5 514.57,-27.5"/>
<polygon fill="#63b8ff" stroke="#63b8ff" points="514.77,-31 524.77,-27.5 514.77,-24 514.77,-31"/>
</a>
</g>
</g>
<!-- Node5 -->
<g id="Node000005" class="node">
<title>Node5</title>
<g id="a_Node000005"><a xlink:href="classWorldMap.html#a4af3c5d2b3b7bf0b3bfc5c3b92aa3c90" target="_top" xlink:title=" ">
<polygon fill="white" stroke="#666666" points="837,-56 722,-56 722,-37 837,-37 837,-56"/>
<text text-anchor="middle" x="779.5" y="-44" font-family="Helvetica,sans-Serif" font-size="10.00">WorldMap::getScript</text>
</a>
</g>
</g>
<!-- Node4&#45;&gt;Node5 -->
<g id="edge4_Node000004_Node000005" class="edge">
<title>Node4&#45;&gt;Node5</title>
<g id="a_edge4_Node000004_Node000005"><a xlink:title=" ">
<path fill="none" stroke="#63b8ff" d="M684.15,-36.14C693.36,-37.15 702.69,-38.17 711.72,-39.17"/>
<polygon fill="#63b8ff" stroke="#63b8ff" points="711.43,-42.66 721.76,-40.27 712.2,-35.7 711.43,-42.66"/>
</a>
</g>
</g>
<!-- Node6 -->
<g id="Node000006" class="node">
<title>Node6</title>
<g id="a_Node000006"><a xlink:href="classObject.html#a967af054c54b6d9846637ce8718efd75" target="_top" xlink:title=" ">
<polygon fill="white" stroke="#666666" points="839,-19 720,-19 720,0 839,0 839,-19"/>
<text text-anchor="middle" x="779.5" y="-7" font-family="Helvetica,sans-Serif" font-size="10.00">Object::getWorldMap</text>
</a>
</g>
</g>
<!-- Node4&#45;&gt;Node6 -->
<g id="edge5_Node000004_Node000006" class="edge">
<title>Node4&#45;&gt;Node6</title>
<g id="a_edge5_Node000004_Node000006"><a xlink:title=" ">
<path fill="none" stroke="#63b8ff" d="M684.15,-19.32C692.72,-18.43 701.39,-17.52 709.82,-16.65"/>
<polygon fill="#63b8ff" stroke="#63b8ff" points="710.39,-20.11 719.97,-15.59 709.66,-13.14 710.39,-20.11"/>
</a>
</g>
</g>
</g>
</svg>
