<?xml version="1.0" encoding="UTF-8" standalone="no"?>
<!DOCTYPE svg PUBLIC "-//W3C//DTD SVG 1.1//EN"
 "http://www.w3.org/Graphics/SVG/1.1/DTD/svg11.dtd">
<!-- Generated by graphviz version 2.43.0 (0)
 -->
<!-- Title: AIInterface::canCreatePath Pages: 1 -->
<svg width="637pt" height="358pt"
 viewBox="0.00 0.00 637.00 357.50" xmlns="http://www.w3.org/2000/svg" xmlns:xlink="http://www.w3.org/1999/xlink">
<g id="graph0" class="graph" transform="scale(1 1) rotate(0) translate(4 353.5)">
<title>AIInterface::canCreatePath</title>
<!-- Node1 -->
<g id="Node000001" class="node">
<title>Node1</title>
<g id="a_Node000001"><a xlink:title=" ">
<polygon fill="#999999" stroke="#666666" points="146,-184 0,-184 0,-165 146,-165 146,-184"/>
<text text-anchor="middle" x="73" y="-172" font-family="Helvetica,sans-Serif" font-size="10.00">AIInterface::canCreatePath</text>
</a>
</g>
</g>
<!-- Node2 -->
<g id="Node000002" class="node">
<title>Node2</title>
<g id="a_Node000002"><a xlink:href="classMMAP_1_1MMapFactory.html#a9c4786fec690cdd57b0c6ec99b2d1d58" target="_top" xlink:title=" ">
<polygon fill="white" stroke="#666666" points="332.5,-349.5 183.5,-349.5 183.5,-319.5 332.5,-319.5 332.5,-349.5"/>
<text text-anchor="start" x="191.5" y="-337.5" font-family="Helvetica,sans-Serif" font-size="10.00">MMAP::MMapFactory::</text>
<text text-anchor="middle" x="258" y="-326.5" font-family="Helvetica,sans-Serif" font-size="10.00">createOrGetMMapManager</text>
</a>
</g>
</g>
<!-- Node1&#45;&gt;Node2 -->
<g id="edge1_Node000001_Node000002" class="edge">
<title>Node1&#45;&gt;Node2</title>
<g id="a_edge1_Node000001_Node000002"><a xlink:title=" ">
<path fill="none" stroke="#63b8ff" d="M79.1,-184.36C92.48,-209.29 131.15,-275.36 182,-310.5 184.24,-312.05 186.59,-313.5 189.01,-314.87"/>
<polygon fill="#63b8ff" stroke="#63b8ff" points="187.56,-318.05 198.07,-319.42 190.7,-311.8 187.56,-318.05"/>
</a>
</g>
</g>
<!-- Node3 -->
<g id="Node000003" class="node">
<title>Node3</title>
<g id="a_Node000003"><a xlink:href="classAIInterface.html#a8a39d0e7469feb3fdaed84e65849856c" target="_top" xlink:title=" ">
<polygon fill="white" stroke="#666666" points="334,-301 182,-301 182,-282 334,-282 334,-301"/>
<text text-anchor="middle" x="258" y="-289" font-family="Helvetica,sans-Serif" font-size="10.00">AIInterface::findSmoothPath</text>
</a>
</g>
</g>
<!-- Node1&#45;&gt;Node3 -->
<g id="edge2_Node000001_Node000003" class="edge">
<title>Node1&#45;&gt;Node3</title>
<g id="a_edge2_Node000001_Node000003"><a xlink:title=" ">
<path fill="none" stroke="#63b8ff" d="M81.52,-184.1C97.65,-204.03 137.76,-249.97 182,-273.5 185.49,-275.36 189.18,-277.02 192.96,-278.52"/>
<polygon fill="#63b8ff" stroke="#63b8ff" points="191.93,-281.87 202.53,-281.91 194.27,-275.27 191.93,-281.87"/>
</a>
</g>
</g>
<!-- Node7 -->
<g id="Node000007" class="node">
<title>Node7</title>
<g id="a_Node000007"><a xlink:href="classObject.html#a46ba7d7bca5df1096f8810455b1d70d5" target="_top" xlink:title=" ">
<polygon fill="white" stroke="#666666" points="319.5,-264 196.5,-264 196.5,-245 319.5,-245 319.5,-264"/>
<text text-anchor="middle" x="258" y="-252" font-family="Helvetica,sans-Serif" font-size="10.00">Object::GetInstanceID</text>
</a>
</g>
</g>
<!-- Node1&#45;&gt;Node7 -->
<g id="edge7_Node000001_Node000007" class="edge">
<title>Node1&#45;&gt;Node7</title>
<g id="a_edge7_Node000001_Node000007"><a xlink:title=" ">
<path fill="none" stroke="#63b8ff" d="M87.67,-184.07C107.56,-197.59 146.04,-222.21 182,-236.5 187.34,-238.62 193,-240.54 198.72,-242.26"/>
<polygon fill="#63b8ff" stroke="#63b8ff" points="197.78,-245.63 208.36,-244.97 199.68,-238.89 197.78,-245.63"/>
</a>
</g>
</g>
<!-- Node8 -->
<g id="Node000008" class="node">
<title>Node8</title>
<g id="a_Node000008"><a xlink:href="classObject.html#a83139f119f64cd17f1dfa756e8aa5d0e" target="_top" xlink:title=" ">
<polygon fill="white" stroke="#666666" points="308.5,-227 207.5,-227 207.5,-208 308.5,-208 308.5,-227"/>
<text text-anchor="middle" x="258" y="-215" font-family="Helvetica,sans-Serif" font-size="10.00">Object::GetMapId</text>
</a>
</g>
</g>
<!-- Node1&#45;&gt;Node8 -->
<g id="edge8_Node000001_Node000008" class="edge">
<title>Node1&#45;&gt;Node8</title>
<g id="a_edge8_Node000001_Node000008"><a xlink:title=" ">
<path fill="none" stroke="#63b8ff" d="M114.61,-184.04C141.74,-190.42 177.62,-198.85 206.57,-205.65"/>
<polygon fill="#63b8ff" stroke="#63b8ff" points="205.96,-209.1 216.5,-207.98 207.57,-202.29 205.96,-209.1"/>
</a>
</g>
</g>
<!-- Node9 -->
<g id="Node000009" class="node">
<title>Node9</title>
<g id="a_Node000009"><a xlink:href="classMMAP_1_1MMapManager.html#a2b5c21edfab6080bd637d907c61326b3" target="_top" xlink:title=" ">
<polygon fill="white" stroke="#666666" points="324,-189.5 192,-189.5 192,-159.5 324,-159.5 324,-189.5"/>
<text text-anchor="start" x="200" y="-177.5" font-family="Helvetica,sans-Serif" font-size="10.00">MMAP::MMapManager::</text>
<text text-anchor="middle" x="258" y="-166.5" font-family="Helvetica,sans-Serif" font-size="10.00">GetNavMesh</text>
</a>
</g>
</g>
<!-- Node1&#45;&gt;Node9 -->
<g id="edge9_Node000001_Node000009" class="edge">
<title>Node1&#45;&gt;Node9</title>
<g id="a_edge9_Node000001_Node000009"><a xlink:title=" ">
<path fill="none" stroke="#63b8ff" d="M146.06,-174.5C157.75,-174.5 169.87,-174.5 181.63,-174.5"/>
<polygon fill="#63b8ff" stroke="#63b8ff" points="181.84,-178 191.84,-174.5 181.84,-171 181.84,-178"/>
</a>
</g>
</g>
<!-- Node11 -->
<g id="Node000011" class="node">
<title>Node11</title>
<g id="a_Node000011"><a xlink:href="classMMAP_1_1MMapManager.html#a992663edb55097b725cc265940a3cd52" target="_top" xlink:title=" ">
<polygon fill="white" stroke="#666666" points="324,-141.5 192,-141.5 192,-111.5 324,-111.5 324,-141.5"/>
<text text-anchor="start" x="200" y="-129.5" font-family="Helvetica,sans-Serif" font-size="10.00">MMAP::MMapManager::</text>
<text text-anchor="middle" x="258" y="-118.5" font-family="Helvetica,sans-Serif" font-size="10.00">GetNavMeshQuery</text>
</a>
</g>
</g>
<!-- Node1&#45;&gt;Node11 -->
<g id="edge11_Node000001_Node000011" class="edge">
<title>Node1&#45;&gt;Node11</title>
<g id="a_edge11_Node000001_Node000011"><a xlink:title=" ">
<path fill="none" stroke="#63b8ff" d="M110.59,-164.9C133.26,-158.96 163.06,-151.14 189.86,-144.11"/>
<polygon fill="#63b8ff" stroke="#63b8ff" points="190.79,-147.49 199.57,-141.56 189.01,-140.71 190.79,-147.49"/>
</a>
</g>
</g>
<!-- Node12 -->
<g id="Node000012" class="node">
<title>Node12</title>
<g id="a_Node000012"><a xlink:href="classObject.html#a86d65d3e698fa64f7ba3ac898dad3ba0" target="_top" xlink:title=" ">
<polygon fill="white" stroke="#666666" points="316.5,-93 199.5,-93 199.5,-74 316.5,-74 316.5,-93"/>
<text text-anchor="middle" x="258" y="-81" font-family="Helvetica,sans-Serif" font-size="10.00">Object::GetPositionX</text>
</a>
</g>
</g>
<!-- Node1&#45;&gt;Node12 -->
<g id="edge13_Node000001_Node000012" class="edge">
<title>Node1&#45;&gt;Node12</title>
<g id="a_edge13_Node000001_Node000012"><a xlink:title=" ">
<path fill="none" stroke="#63b8ff" d="M85.52,-164.86C104.47,-149.49 143.9,-119.43 182,-102.5 187.43,-100.09 193.21,-97.94 199.08,-96.05"/>
<polygon fill="#63b8ff" stroke="#63b8ff" points="200.39,-99.31 208.97,-93.08 198.38,-92.6 200.39,-99.31"/>
</a>
</g>
</g>
<!-- Node13 -->
<g id="Node000013" class="node">
<title>Node13</title>
<g id="a_Node000013"><a xlink:href="classObject.html#af5cb4bc9ecb20cf640a58bf23da23d19" target="_top" xlink:title=" ">
<polygon fill="white" stroke="#666666" points="316,-56 200,-56 200,-37 316,-37 316,-56"/>
<text text-anchor="middle" x="258" y="-44" font-family="Helvetica,sans-Serif" font-size="10.00">Object::GetPositionY</text>
</a>
</g>
</g>
<!-- Node1&#45;&gt;Node13 -->
<g id="edge14_Node000001_Node000013" class="edge">
<title>Node1&#45;&gt;Node13</title>
<g id="a_edge14_Node000001_Node000013"><a xlink:title=" ">
<path fill="none" stroke="#63b8ff" d="M80.56,-164.8C95.7,-143.17 135.42,-90.87 182,-64.5 185.22,-62.68 188.62,-61.04 192.12,-59.57"/>
<polygon fill="#63b8ff" stroke="#63b8ff" points="193.42,-62.81 201.57,-56.04 190.98,-56.26 193.42,-62.81"/>
</a>
</g>
</g>
<!-- Node14 -->
<g id="Node000014" class="node">
<title>Node14</title>
<g id="a_Node000014"><a xlink:href="classObject.html#a9c3cfe65940e81ae45107eaafd57d1dc" target="_top" xlink:title=" ">
<polygon fill="white" stroke="#666666" points="316.5,-19 199.5,-19 199.5,0 316.5,0 316.5,-19"/>
<text text-anchor="middle" x="258" y="-7" font-family="Helvetica,sans-Serif" font-size="10.00">Object::GetPositionZ</text>
</a>
</g>
</g>
<!-- Node1&#45;&gt;Node14 -->
<g id="edge15_Node000001_Node000014" class="edge">
<title>Node1&#45;&gt;Node14</title>
<g id="a_edge15_Node000001_Node000014"><a xlink:title=" ">
<path fill="none" stroke="#63b8ff" d="M78.18,-164.78C90.13,-138.21 127.13,-63.95 182,-27.5 184.46,-25.87 187.05,-24.38 189.73,-23.03"/>
<polygon fill="#63b8ff" stroke="#63b8ff" points="191.36,-26.14 199.14,-18.94 188.57,-19.72 191.36,-26.14"/>
</a>
</g>
</g>
<!-- Node4 -->
<g id="Node000004" class="node">
<title>Node4</title>
<g id="a_Node000004"><a xlink:href="classAIInterface.html#a68b9039fe57ffffb1a75f7e9b3450c09" target="_top" xlink:title=" ">
<polygon fill="white" stroke="#666666" points="513,-338 374,-338 374,-319 513,-319 513,-338"/>
<text text-anchor="middle" x="443.5" y="-326" font-family="Helvetica,sans-Serif" font-size="10.00">AIInterface::fixupCorridor</text>
</a>
</g>
</g>
<!-- Node3&#45;&gt;Node4 -->
<g id="edge3_Node000003_Node000004" class="edge">
<title>Node3&#45;&gt;Node4</title>
<g id="a_edge3_Node000003_Node000004"><a xlink:title=" ">
<path fill="none" stroke="#63b8ff" d="M306.26,-301.03C330.35,-305.89 359.84,-311.83 385.22,-316.95"/>
<polygon fill="#63b8ff" stroke="#63b8ff" points="384.59,-320.39 395.09,-318.94 385.97,-313.53 384.59,-320.39"/>
</a>
</g>
</g>
<!-- Node5 -->
<g id="Node000005" class="node">
<title>Node5</title>
<g id="a_Node000005"><a xlink:href="classAIInterface.html#aa5f5292e9c00a3e533870373443b8906" target="_top" xlink:title=" ">
<polygon fill="white" stroke="#666666" points="517,-301 370,-301 370,-282 517,-282 517,-301"/>
<text text-anchor="middle" x="443.5" y="-289" font-family="Helvetica,sans-Serif" font-size="10.00">AIInterface::getSteerTarget</text>
</a>
</g>
</g>
<!-- Node3&#45;&gt;Node5 -->
<g id="edge4_Node000003_Node000005" class="edge">
<title>Node3&#45;&gt;Node5</title>
<g id="a_edge4_Node000003_Node000005"><a xlink:title=" ">
<path fill="none" stroke="#63b8ff" d="M334.17,-291.5C342.54,-291.5 351.1,-291.5 359.57,-291.5"/>
<polygon fill="#63b8ff" stroke="#63b8ff" points="359.82,-295 369.82,-291.5 359.82,-288 359.82,-295"/>
</a>
</g>
</g>
<!-- Node6 -->
<g id="Node000006" class="node">
<title>Node6</title>
<g id="a_Node000006"><a xlink:href="AIInterface_8h.html#a7ab7fb52fe96780460e37294a1a42119" target="_top" xlink:title=" ">
<polygon fill="white" stroke="#666666" points="629,-282 553,-282 553,-263 629,-263 629,-282"/>
<text text-anchor="middle" x="591" y="-270" font-family="Helvetica,sans-Serif" font-size="10.00">inRangeYZX</text>
</a>
</g>
</g>
<!-- Node3&#45;&gt;Node6 -->
<g id="edge6_Node000003_Node000006" class="edge">
<title>Node3&#45;&gt;Node6</title>
<g id="a_edge6_Node000003_Node000006"><a xlink:title=" ">
<path fill="none" stroke="#63b8ff" d="M307.43,-281.96C326.8,-278.59 349.38,-275.21 370,-273.5 429.38,-268.58 498.08,-269.29 542.7,-270.59"/>
<polygon fill="#63b8ff" stroke="#63b8ff" points="542.84,-274.09 552.94,-270.91 543.06,-267.1 542.84,-274.09"/>
</a>
</g>
</g>
<!-- Node5&#45;&gt;Node6 -->
<g id="edge5_Node000005_Node000006" class="edge">
<title>Node5&#45;&gt;Node6</title>
<g id="a_edge5_Node000005_Node000006"><a xlink:title=" ">
<path fill="none" stroke="#63b8ff" d="M517.25,-282C525.94,-280.86 534.63,-279.73 542.83,-278.66"/>
<polygon fill="#63b8ff" stroke="#63b8ff" points="543.45,-282.11 552.91,-277.34 542.54,-275.17 543.45,-282.11"/>
</a>
</g>
</g>
<!-- Node10 -->
<g id="Node000010" class="node">
<title>Node10</title>
<g id="a_Node000010"><a xlink:href="classMMAP_1_1MMapManager.html#a718896760e7bb95b3f8fdab5a16fdae1" target="_top" xlink:title=" ">
<polygon fill="white" stroke="#666666" points="509.5,-165.5 377.5,-165.5 377.5,-135.5 509.5,-135.5 509.5,-165.5"/>
<text text-anchor="start" x="385.5" y="-153.5" font-family="Helvetica,sans-Serif" font-size="10.00">MMAP::MMapManager::</text>
<text text-anchor="middle" x="443.5" y="-142.5" font-family="Helvetica,sans-Serif" font-size="10.00">GetMMapData</text>
</a>
</g>
</g>
<!-- Node9&#45;&gt;Node10 -->
<g id="edge10_Node000009_Node000010" class="edge">
<title>Node9&#45;&gt;Node10</title>
<g id="a_edge10_Node000009_Node000010"><a xlink:title=" ">
<path fill="none" stroke="#63b8ff" d="M324.21,-165.97C338.14,-164.15 352.96,-162.21 367.23,-160.35"/>
<polygon fill="#63b8ff" stroke="#63b8ff" points="368.04,-163.77 377.5,-159 367.13,-156.83 368.04,-163.77"/>
</a>
</g>
</g>
<!-- Node11&#45;&gt;Node10 -->
<g id="edge12_Node000011_Node000010" class="edge">
<title>Node11&#45;&gt;Node10</title>
<g id="a_edge12_Node000011_Node000010"><a xlink:title=" ">
<path fill="none" stroke="#63b8ff" d="M324.21,-135.03C338.14,-136.85 352.96,-138.79 367.23,-140.65"/>
<polygon fill="#63b8ff" stroke="#63b8ff" points="367.13,-144.17 377.5,-142 368.04,-137.23 367.13,-144.17"/>
</a>
</g>
</g>
</g>
</svg>
