<?xml version="1.0" encoding="UTF-8" standalone="no"?>
<!DOCTYPE svg PUBLIC "-//W3C//DTD SVG 1.1//EN"
 "http://www.w3.org/Graphics/SVG/1.1/DTD/svg11.dtd">
<!-- Generated by graphviz version 2.43.0 (0)
 -->
<!-- Title: Unit::isUnderWater Pages: 1 -->
<svg width="1224pt" height="571pt"
 viewBox="0.00 0.00 1224.00 570.50" xmlns="http://www.w3.org/2000/svg" xmlns:xlink="http://www.w3.org/1999/xlink">
<g id="graph0" class="graph" transform="scale(1 1) rotate(0) translate(4 566.5)">
<title>Unit::isUnderWater</title>
<!-- Node1 -->
<g id="Node000001" class="node">
<title>Node1</title>
<g id="a_Node000001"><a xlink:title=" ">
<polygon fill="#999999" stroke="#666666" points="109,-216 0,-216 0,-197 109,-197 109,-216"/>
<text text-anchor="middle" x="54.5" y="-204" font-family="Helvetica,sans-Serif" font-size="10.00">Unit::isUnderWater</text>
</a>
</g>
</g>
<!-- Node2 -->
<g id="Node000002" class="node">
<title>Node2</title>
<g id="a_Node000002"><a xlink:href="classWorldMap.html#a19f387a0643cdc4c91bb8d06a1b2c137" target="_top" xlink:title=" ">
<polygon fill="white" stroke="#666666" points="292,-253 145,-253 145,-234 292,-234 292,-253"/>
<text text-anchor="middle" x="218.5" y="-241" font-family="Helvetica,sans-Serif" font-size="10.00">WorldMap::getLiquidStatus</text>
</a>
</g>
</g>
<!-- Node1&#45;&gt;Node2 -->
<g id="edge1_Node000001_Node000002" class="edge">
<title>Node1&#45;&gt;Node2</title>
<g id="a_edge1_Node000001_Node000002"><a xlink:title=" ">
<path fill="none" stroke="#63b8ff" d="M97.22,-216.03C118.11,-220.8 143.61,-226.62 165.74,-231.68"/>
<polygon fill="#63b8ff" stroke="#63b8ff" points="165.11,-235.13 175.64,-233.94 166.67,-228.3 165.11,-235.13"/>
</a>
</g>
</g>
<!-- Node20 -->
<g id="Node000020" class="node">
<title>Node20</title>
<g id="a_Node000020"><a xlink:href="classObject.html#a18b2042e111647c68c57dbe18d12934b" target="_top" xlink:title=" ">
<polygon fill="white" stroke="#666666" points="273.5,-216 163.5,-216 163.5,-197 273.5,-197 273.5,-216"/>
<text text-anchor="middle" x="218.5" y="-204" font-family="Helvetica,sans-Serif" font-size="10.00">Object::GetPosition</text>
</a>
</g>
</g>
<!-- Node1&#45;&gt;Node20 -->
<g id="edge29_Node000001_Node000020" class="edge">
<title>Node1&#45;&gt;Node20</title>
<g id="a_edge29_Node000001_Node000020"><a xlink:title=" ">
<path fill="none" stroke="#63b8ff" d="M109.44,-206.5C123.37,-206.5 138.5,-206.5 152.9,-206.5"/>
<polygon fill="#63b8ff" stroke="#63b8ff" points="153.24,-210 163.24,-206.5 153.24,-203 153.24,-210"/>
</a>
</g>
</g>
<!-- Node21 -->
<g id="Node000021" class="node">
<title>Node21</title>
<g id="a_Node000021"><a xlink:href="classObject.html#a967af054c54b6d9846637ce8718efd75" target="_top" xlink:title=" ">
<polygon fill="white" stroke="#666666" points="278,-179 159,-179 159,-160 278,-160 278,-179"/>
<text text-anchor="middle" x="218.5" y="-167" font-family="Helvetica,sans-Serif" font-size="10.00">Object::getWorldMap</text>
</a>
</g>
</g>
<!-- Node1&#45;&gt;Node21 -->
<g id="edge30_Node000001_Node000021" class="edge">
<title>Node1&#45;&gt;Node21</title>
<g id="a_edge30_Node000001_Node000021"><a xlink:title=" ">
<path fill="none" stroke="#63b8ff" d="M97.22,-196.97C118.11,-192.2 143.61,-186.38 165.74,-181.32"/>
<polygon fill="#63b8ff" stroke="#63b8ff" points="166.67,-184.7 175.64,-179.06 165.11,-177.87 166.67,-184.7"/>
</a>
</g>
</g>
<!-- Node3 -->
<g id="Node000003" class="node">
<title>Node3</title>
<g id="a_Node000003"><a xlink:href="classVMAP_1_1VMapFactory.html#a0695b6843f1ad9baf4cd33b115357404" target="_top" xlink:title=" ">
<polygon fill="white" stroke="#666666" points="960.5,-562.5 814.5,-562.5 814.5,-532.5 960.5,-532.5 960.5,-562.5"/>
<text text-anchor="start" x="822.5" y="-550.5" font-family="Helvetica,sans-Serif" font-size="10.00">VMAP::VMapFactory::</text>
<text text-anchor="middle" x="887.5" y="-539.5" font-family="Helvetica,sans-Serif" font-size="10.00">createOrGetVMapManager</text>
</a>
</g>
</g>
<!-- Node2&#45;&gt;Node3 -->
<g id="edge2_Node000002_Node000003" class="edge">
<title>Node2&#45;&gt;Node3</title>
<g id="a_edge2_Node000002_Node000003"><a xlink:title=" ">
<path fill="none" stroke="#63b8ff" d="M222.22,-253.23C231.52,-284.81 265.05,-385.56 328,-440.5 462.07,-557.51 684.22,-562.79 803.95,-555.67"/>
<polygon fill="#63b8ff" stroke="#63b8ff" points="804.4,-559.15 814.15,-555.02 803.95,-552.17 804.4,-559.15"/>
</a>
</g>
</g>
<!-- Node4 -->
<g id="Node000004" class="node">
<title>Node4</title>
<g id="a_Node000004"><a xlink:href="classMapManagement_1_1AreaManagement_1_1AreaStorage.html#a40035c79d6f3886f74aa9262341fe782" target="_top" xlink:title=" ">
<polygon fill="white" stroke="#666666" points="985,-177.5 790,-177.5 790,-147.5 985,-147.5 985,-177.5"/>
<text text-anchor="start" x="798" y="-165.5" font-family="Helvetica,sans-Serif" font-size="10.00">MapManagement::AreaManagement</text>
<text text-anchor="middle" x="887.5" y="-154.5" font-family="Helvetica,sans-Serif" font-size="10.00">::AreaStorage::GetAreaById</text>
</a>
</g>
</g>
<!-- Node2&#45;&gt;Node4 -->
<g id="edge3_Node000002_Node000004" class="edge">
<title>Node2&#45;&gt;Node4</title>
<g id="a_edge3_Node000002_Node000004"><a xlink:title=" ">
<path fill="none" stroke="#63b8ff" d="M269.1,-233.96C277.01,-231.47 284.92,-228.36 292,-224.5 311.06,-214.11 308.79,-201.59 328,-191.5 496.9,-102.76 563.97,-121.43 754,-138.5 771.23,-140.05 789.56,-142.7 806.93,-145.7"/>
<polygon fill="#63b8ff" stroke="#63b8ff" points="806.56,-149.19 817.02,-147.5 807.79,-142.3 806.56,-149.19"/>
</a>
</g>
</g>
<!-- Node7 -->
<g id="Node000007" class="node">
<title>Node7</title>
<g id="a_Node000007"><a xlink:href="classWorldMap.html#a4ddb28ddb4377bb52da40c205094f0af" target="_top" xlink:title=" ">
<polygon fill="white" stroke="#666666" points="953.5,-498 821.5,-498 821.5,-479 953.5,-479 953.5,-498"/>
<text text-anchor="middle" x="887.5" y="-486" font-family="Helvetica,sans-Serif" font-size="10.00">WorldMap::getBaseMap</text>
</a>
</g>
</g>
<!-- Node2&#45;&gt;Node7 -->
<g id="edge6_Node000002_Node000007" class="edge">
<title>Node2&#45;&gt;Node7</title>
<g id="a_edge6_Node000002_Node000007"><a xlink:title=" ">
<path fill="none" stroke="#63b8ff" d="M227.35,-253.11C261.41,-293.96 401.86,-453.59 559,-507.5 656.98,-541.11 781.04,-517.37 844.67,-500.81"/>
<polygon fill="#63b8ff" stroke="#63b8ff" points="845.97,-504.09 854.72,-498.12 844.16,-497.33 845.97,-504.09"/>
</a>
</g>
</g>
<!-- Node8 -->
<g id="Node000008" class="node">
<title>Node8</title>
<g id="a_Node000008"><a xlink:href="classMapManagement_1_1AreaManagement_1_1AreaStorage.html#a2eb8e28af73cf6486f65d39ec7b720c2" target="_top" xlink:title=" ">
<polygon fill="white" stroke="#666666" points="523,-296.5 328,-296.5 328,-266.5 523,-266.5 523,-296.5"/>
<text text-anchor="start" x="336" y="-284.5" font-family="Helvetica,sans-Serif" font-size="10.00">MapManagement::AreaManagement</text>
<text text-anchor="middle" x="425.5" y="-273.5" font-family="Helvetica,sans-Serif" font-size="10.00">::AreaStorage::getExactArea</text>
</a>
</g>
</g>
<!-- Node2&#45;&gt;Node8 -->
<g id="edge7_Node000002_Node000008" class="edge">
<title>Node2&#45;&gt;Node8</title>
<g id="a_edge7_Node000002_Node000008"><a xlink:title=" ">
<path fill="none" stroke="#63b8ff" d="M270.97,-253.04C289.91,-256.55 311.97,-260.64 333.37,-264.61"/>
<polygon fill="#63b8ff" stroke="#63b8ff" points="332.99,-268.1 343.47,-266.48 334.27,-261.21 332.99,-268.1"/>
</a>
</g>
</g>
<!-- Node12 -->
<g id="Node000012" class="node">
<title>Node12</title>
<g id="a_Node000012"><a xlink:href="classWorldMap.html#abcb6d3ec6412709005f5dbacea6e4b8d" target="_top" xlink:title=" ">
<polygon fill="white" stroke="#666666" points="947.5,-347 827.5,-347 827.5,-328 947.5,-328 947.5,-347"/>
<text text-anchor="middle" x="887.5" y="-335" font-family="Helvetica,sans-Serif" font-size="10.00">WorldMap::getTerrain</text>
</a>
</g>
</g>
<!-- Node2&#45;&gt;Node12 -->
<g id="edge27_Node000002_Node000012" class="edge">
<title>Node2&#45;&gt;Node12</title>
<g id="a_edge27_Node000002_Node000012"><a xlink:title=" ">
<path fill="none" stroke="#63b8ff" d="M292.07,-235.36C396.46,-226.03 594.05,-217.32 754,-262.5 797.05,-274.66 841.08,-303.51 865.98,-321.68"/>
<polygon fill="#63b8ff" stroke="#63b8ff" points="864.15,-324.67 874.26,-327.84 868.33,-319.06 864.15,-324.67"/>
</a>
</g>
</g>
<!-- Node19 -->
<g id="Node000019" class="node">
<title>Node19</title>
<g id="a_Node000019"><a xlink:href="WorldMap_8cpp.html#aad48409f9d88414dd74f9c0dcf367003" target="_top" xlink:title=" ">
<polygon fill="white" stroke="#666666" points="473,-53 378,-53 378,-34 473,-34 473,-53"/>
<text text-anchor="middle" x="425.5" y="-41" font-family="Helvetica,sans-Serif" font-size="10.00">isInWMOInterior</text>
</a>
</g>
</g>
<!-- Node2&#45;&gt;Node19 -->
<g id="edge28_Node000002_Node000019" class="edge">
<title>Node2&#45;&gt;Node19</title>
<g id="a_edge28_Node000002_Node000019"><a xlink:title=" ">
<path fill="none" stroke="#63b8ff" d="M279.16,-233.91C283.9,-231.42 288.29,-228.33 292,-224.5 341.83,-173.1 277.85,-118.58 328,-67.5 338.51,-56.79 353.02,-50.59 367.59,-47.06"/>
<polygon fill="#63b8ff" stroke="#63b8ff" points="368.53,-50.44 377.63,-45.03 367.14,-43.58 368.53,-50.44"/>
</a>
</g>
</g>
<!-- Node5 -->
<g id="Node000005" class="node">
<title>Node5</title>
<g id="a_Node000005"><a xlink:href="classMapManagement_1_1AreaManagement_1_1AreaStorage.html#ab6ecd723193393fb5361dd8d40349a6f" target="_top" xlink:title=" ">
<polygon fill="white" stroke="#666666" points="1216,-177.5 1021,-177.5 1021,-147.5 1216,-147.5 1216,-177.5"/>
<text text-anchor="start" x="1029" y="-165.5" font-family="Helvetica,sans-Serif" font-size="10.00">MapManagement::AreaManagement</text>
<text text-anchor="middle" x="1118.5" y="-154.5" font-family="Helvetica,sans-Serif" font-size="10.00">::AreaStorage::GetFlagById</text>
</a>
</g>
</g>
<!-- Node4&#45;&gt;Node5 -->
<g id="edge4_Node000004_Node000005" class="edge">
<title>Node4&#45;&gt;Node5</title>
<g id="a_edge4_Node000004_Node000005"><a xlink:title=" ">
<path fill="none" stroke="#63b8ff" d="M985.28,-162.5C993.62,-162.5 1002.08,-162.5 1010.48,-162.5"/>
<polygon fill="#63b8ff" stroke="#63b8ff" points="1010.69,-166 1020.69,-162.5 1010.69,-159 1010.69,-166"/>
</a>
</g>
</g>
<!-- Node6 -->
<g id="Node000006" class="node">
<title>Node6</title>
<g id="a_Node000006"><a xlink:href="classWDB_1_1WDBContainer.html#a40dc3a62aa5cf9e85594b7ac749b1464" target="_top" xlink:title=" ">
<polygon fill="white" stroke="#666666" points="1180.5,-129.5 1056.5,-129.5 1056.5,-99.5 1180.5,-99.5 1180.5,-129.5"/>
<text text-anchor="start" x="1064.5" y="-117.5" font-family="Helvetica,sans-Serif" font-size="10.00">WDB::WDBContainer::</text>
<text text-anchor="middle" x="1118.5" y="-106.5" font-family="Helvetica,sans-Serif" font-size="10.00">lookupEntry</text>
</a>
</g>
</g>
<!-- Node4&#45;&gt;Node6 -->
<g id="edge5_Node000004_Node000006" class="edge">
<title>Node4&#45;&gt;Node6</title>
<g id="a_edge5_Node000004_Node000006"><a xlink:title=" ">
<path fill="none" stroke="#63b8ff" d="M960.33,-147.44C987.78,-141.69 1019.05,-135.13 1046.44,-129.4"/>
<polygon fill="#63b8ff" stroke="#63b8ff" points="1047.26,-132.8 1056.33,-127.32 1045.83,-125.95 1047.26,-132.8"/>
</a>
</g>
</g>
<!-- Node8&#45;&gt;Node4 -->
<g id="edge10_Node000008_Node000004" class="edge">
<title>Node8&#45;&gt;Node4</title>
<g id="a_edge10_Node000008_Node000004"><a xlink:title=" ">
<path fill="none" stroke="#63b8ff" d="M484.76,-266.43C569.93,-244.4 728.09,-203.48 818.48,-180.1"/>
<polygon fill="#63b8ff" stroke="#63b8ff" points="819.55,-183.44 828.35,-177.54 817.79,-176.66 819.55,-183.44"/>
</a>
</g>
</g>
<!-- Node8&#45;&gt;Node7 -->
<g id="edge17_Node000008_Node000007" class="edge">
<title>Node8&#45;&gt;Node7</title>
<g id="a_edge17_Node000008_Node000007"><a xlink:title=" ">
<path fill="none" stroke="#63b8ff" d="M435.13,-296.88C453.47,-327.99 499.56,-398.27 559,-431.5 580.68,-443.62 721.24,-465.21 811.04,-478.05"/>
<polygon fill="#63b8ff" stroke="#63b8ff" points="810.79,-481.55 821.18,-479.5 811.78,-474.62 810.79,-481.55"/>
</a>
</g>
</g>
<!-- Node9 -->
<g id="Node000009" class="node">
<title>Node9</title>
<g id="a_Node000009"><a xlink:href="classMapManagement_1_1AreaManagement_1_1AreaStorage.html#a42a6b1572831ff6ccb47c3249b57daaf" target="_top" xlink:title=" ">
<polygon fill="white" stroke="#666666" points="985,-129.5 790,-129.5 790,-99.5 985,-99.5 985,-129.5"/>
<text text-anchor="start" x="798" y="-117.5" font-family="Helvetica,sans-Serif" font-size="10.00">MapManagement::AreaManagement</text>
<text text-anchor="middle" x="887.5" y="-106.5" font-family="Helvetica,sans-Serif" font-size="10.00">::AreaStorage::GetAreaByFlag</text>
</a>
</g>
</g>
<!-- Node8&#45;&gt;Node9 -->
<g id="edge8_Node000008_Node000009" class="edge">
<title>Node8&#45;&gt;Node9</title>
<g id="a_edge8_Node000008_Node000009"><a xlink:title=" ">
<path fill="none" stroke="#63b8ff" d="M435.07,-266.35C453.31,-235.8 499.22,-167.25 559,-138.5 627.29,-105.65 712.96,-100.45 779.55,-103.03"/>
<polygon fill="#63b8ff" stroke="#63b8ff" points="779.5,-106.53 789.65,-103.49 779.82,-99.54 779.5,-106.53"/>
</a>
</g>
</g>
<!-- Node10 -->
<g id="Node000010" class="node">
<title>Node10</title>
<g id="a_Node000010"><a xlink:href="classMapManagement_1_1AreaManagement_1_1AreaStorage.html#aa2ca59abe9e8eab6598f705a99712e1d" target="_top" xlink:title=" ">
<polygon fill="white" stroke="#666666" points="754,-177.5 559,-177.5 559,-147.5 754,-147.5 754,-177.5"/>
<text text-anchor="start" x="567" y="-165.5" font-family="Helvetica,sans-Serif" font-size="10.00">MapManagement::AreaManagement</text>
<text text-anchor="middle" x="656.5" y="-154.5" font-family="Helvetica,sans-Serif" font-size="10.00">::AreaStorage::GetAreaByMapId</text>
</a>
</g>
</g>
<!-- Node8&#45;&gt;Node10 -->
<g id="edge11_Node000008_Node000010" class="edge">
<title>Node8&#45;&gt;Node10</title>
<g id="a_edge11_Node000008_Node000010"><a xlink:title=" ">
<path fill="none" stroke="#63b8ff" d="M455.5,-266.43C496.6,-245.07 571.84,-205.97 617.4,-182.3"/>
<polygon fill="#63b8ff" stroke="#63b8ff" points="619.11,-185.35 626.37,-177.64 615.88,-179.14 619.11,-185.35"/>
</a>
</g>
</g>
<!-- Node11 -->
<g id="Node000011" class="node">
<title>Node11</title>
<g id="a_Node000011"><a xlink:href="classWorldMap.html#ab23ada5c0e03c2d0f0ad6a3f23624ab4" target="_top" xlink:title=" ">
<polygon fill="white" stroke="#666666" points="720.5,-498 592.5,-498 592.5,-479 720.5,-479 720.5,-498"/>
<text text-anchor="middle" x="656.5" y="-486" font-family="Helvetica,sans-Serif" font-size="10.00">WorldMap::getAreaInfo</text>
</a>
</g>
</g>
<!-- Node8&#45;&gt;Node11 -->
<g id="edge13_Node000008_Node000011" class="edge">
<title>Node8&#45;&gt;Node11</title>
<g id="a_edge13_Node000008_Node000011"><a xlink:title=" ">
<path fill="none" stroke="#63b8ff" d="M432.93,-296.57C448.8,-331.85 493.34,-420.16 559,-464.5 566.22,-469.38 574.35,-473.27 582.75,-476.36"/>
<polygon fill="#63b8ff" stroke="#63b8ff" points="581.71,-479.71 592.31,-479.54 583.92,-473.06 581.71,-479.71"/>
</a>
</g>
</g>
<!-- Node8&#45;&gt;Node12 -->
<g id="edge24_Node000008_Node000012" class="edge">
<title>Node8&#45;&gt;Node12</title>
<g id="a_edge24_Node000008_Node000012"><a xlink:title=" ">
<path fill="none" stroke="#63b8ff" d="M472.59,-296.51C497.84,-304.1 529.83,-312.7 559,-317.5 647.17,-332.01 750.24,-336.25 816.86,-337.35"/>
<polygon fill="#63b8ff" stroke="#63b8ff" points="817.18,-340.86 827.23,-337.51 817.28,-333.86 817.18,-340.86"/>
</a>
</g>
</g>
<!-- Node13 -->
<g id="Node000013" class="node">
<title>Node13</title>
<g id="a_Node000013"><a xlink:href="classMapManagement_1_1AreaManagement_1_1AreaStorage.html#a2f59dde9c4e8efa93597724e0931d24f" target="_top" xlink:title=" ">
<polygon fill="white" stroke="#666666" points="754,-53.5 559,-53.5 559,-23.5 754,-23.5 754,-53.5"/>
<text text-anchor="start" x="567" y="-41.5" font-family="Helvetica,sans-Serif" font-size="10.00">MapManagement::AreaManagement</text>
<text text-anchor="middle" x="656.5" y="-30.5" font-family="Helvetica,sans-Serif" font-size="10.00">::AreaStorage::GetFlagByPosition</text>
</a>
</g>
</g>
<!-- Node8&#45;&gt;Node13 -->
<g id="edge18_Node000008_Node000013" class="edge">
<title>Node8&#45;&gt;Node13</title>
<g id="a_edge18_Node000008_Node000013"><a xlink:title=" ">
<path fill="none" stroke="#63b8ff" d="M435.72,-266.09C455.51,-233.8 504.71,-157.74 559,-105.5 577.61,-87.59 601.41,-71.01 620.72,-58.82"/>
<polygon fill="#63b8ff" stroke="#63b8ff" points="622.59,-61.79 629.25,-53.54 618.9,-55.84 622.59,-61.79"/>
</a>
</g>
</g>
<!-- Node16 -->
<g id="Node000016" class="node">
<title>Node16</title>
<g id="a_Node000016"><a xlink:href="classBaseMap.html#abd211d3e76287c193dc4080f99f97ab8" target="_top" xlink:title=" ">
<polygon fill="white" stroke="#666666" points="721.5,-422 591.5,-422 591.5,-403 721.5,-403 721.5,-422"/>
<text text-anchor="middle" x="656.5" y="-410" font-family="Helvetica,sans-Serif" font-size="10.00">BaseMap::getMapEntry</text>
</a>
</g>
</g>
<!-- Node8&#45;&gt;Node16 -->
<g id="edge22_Node000008_Node000016" class="edge">
<title>Node8&#45;&gt;Node16</title>
<g id="a_edge22_Node000008_Node000016"><a xlink:title=" ">
<path fill="none" stroke="#63b8ff" d="M439.42,-296.79C461.3,-321.6 508.25,-370.28 559,-394.5 566.08,-397.88 573.74,-400.63 581.54,-402.86"/>
<polygon fill="#63b8ff" stroke="#63b8ff" points="580.9,-406.31 591.46,-405.42 582.65,-399.53 580.9,-406.31"/>
</a>
</g>
</g>
<!-- Node17 -->
<g id="Node000017" class="node">
<title>Node17</title>
<g id="a_Node000017"><a xlink:href="classBaseMap.html#a69cacd9c7eab8ce84f73ff5869cfa19a" target="_top" xlink:title=" ">
<polygon fill="white" stroke="#666666" points="713,-385 600,-385 600,-366 713,-366 713,-385"/>
<text text-anchor="middle" x="656.5" y="-373" font-family="Helvetica,sans-Serif" font-size="10.00">BaseMap::getMapId</text>
</a>
</g>
</g>
<!-- Node8&#45;&gt;Node17 -->
<g id="edge23_Node000008_Node000017" class="edge">
<title>Node8&#45;&gt;Node17</title>
<g id="a_edge23_Node000008_Node000017"><a xlink:title=" ">
<path fill="none" stroke="#63b8ff" d="M450.57,-296.51C476.5,-312.13 519.39,-336.37 559,-351.5 571.09,-356.12 584.37,-360.09 597.11,-363.4"/>
<polygon fill="#63b8ff" stroke="#63b8ff" points="596.63,-366.88 607.18,-365.91 598.33,-360.09 596.63,-366.88"/>
</a>
</g>
</g>
<!-- Node18 -->
<g id="Node000018" class="node">
<title>Node18</title>
<g id="a_Node000018"><a xlink:href="classTerrainHolder.html#a9c070c93a7509d714efc5af3e29b9f4a" target="_top" xlink:title=" ">
<polygon fill="white" stroke="#666666" points="717.5,-291 595.5,-291 595.5,-272 717.5,-272 717.5,-291"/>
<text text-anchor="middle" x="656.5" y="-279" font-family="Helvetica,sans-Serif" font-size="10.00">TerrainHolder::getTile</text>
</a>
</g>
</g>
<!-- Node8&#45;&gt;Node18 -->
<g id="edge25_Node000008_Node000018" class="edge">
<title>Node8&#45;&gt;Node18</title>
<g id="a_edge25_Node000008_Node000018"><a xlink:title=" ">
<path fill="none" stroke="#63b8ff" d="M523.28,-281.5C544.07,-281.5 565.66,-281.5 585.22,-281.5"/>
<polygon fill="#63b8ff" stroke="#63b8ff" points="585.24,-285 595.24,-281.5 585.24,-278 585.24,-285"/>
</a>
</g>
</g>
<!-- Node9&#45;&gt;Node6 -->
<g id="edge9_Node000009_Node000006" class="edge">
<title>Node9&#45;&gt;Node6</title>
<g id="a_edge9_Node000009_Node000006"><a xlink:title=" ">
<path fill="none" stroke="#63b8ff" d="M985.28,-114.5C1005.67,-114.5 1026.82,-114.5 1046.07,-114.5"/>
<polygon fill="#63b8ff" stroke="#63b8ff" points="1046.25,-118 1056.25,-114.5 1046.25,-111 1046.25,-118"/>
</a>
</g>
</g>
<!-- Node10&#45;&gt;Node4 -->
<g id="edge12_Node000010_Node000004" class="edge">
<title>Node10&#45;&gt;Node4</title>
<g id="a_edge12_Node000010_Node000004"><a xlink:title=" ">
<path fill="none" stroke="#63b8ff" d="M754.28,-162.5C762.62,-162.5 771.08,-162.5 779.48,-162.5"/>
<polygon fill="#63b8ff" stroke="#63b8ff" points="779.69,-166 789.69,-162.5 779.69,-159 779.69,-166"/>
</a>
</g>
</g>
<!-- Node11&#45;&gt;Node3 -->
<g id="edge14_Node000011_Node000003" class="edge">
<title>Node11&#45;&gt;Node3</title>
<g id="a_edge14_Node000011_Node000003"><a xlink:title=" ">
<path fill="none" stroke="#63b8ff" d="M694.55,-498.04C727.88,-506.63 777.69,-519.47 818.22,-529.91"/>
<polygon fill="#63b8ff" stroke="#63b8ff" points="817.48,-533.33 828.04,-532.44 819.23,-526.55 817.48,-533.33"/>
</a>
</g>
</g>
<!-- Node11&#45;&gt;Node7 -->
<g id="edge15_Node000011_Node000007" class="edge">
<title>Node11&#45;&gt;Node7</title>
<g id="a_edge15_Node000011_Node000007"><a xlink:title=" ">
<path fill="none" stroke="#63b8ff" d="M720.68,-488.5C748.63,-488.5 781.72,-488.5 810.96,-488.5"/>
<polygon fill="#63b8ff" stroke="#63b8ff" points="811.13,-492 821.13,-488.5 811.13,-485 811.13,-492"/>
</a>
</g>
</g>
<!-- Node11&#45;&gt;Node12 -->
<g id="edge16_Node000011_Node000012" class="edge">
<title>Node11&#45;&gt;Node12</title>
<g id="a_edge16_Node000011_Node000012"><a xlink:title=" ">
<path fill="none" stroke="#63b8ff" d="M674.85,-478.83C694.37,-467.82 726.9,-449.07 754,-431.5 794.22,-405.42 839.44,-372.54 865.29,-353.38"/>
<polygon fill="#63b8ff" stroke="#63b8ff" points="867.65,-355.98 873.59,-347.21 863.47,-350.37 867.65,-355.98"/>
</a>
</g>
</g>
<!-- Node13&#45;&gt;Node4 -->
<g id="edge19_Node000013_Node000004" class="edge">
<title>Node13&#45;&gt;Node4</title>
<g id="a_edge19_Node000013_Node000004"><a xlink:title=" ">
<path fill="none" stroke="#63b8ff" d="M731.36,-53.71C739.52,-57.36 747.29,-61.89 754,-67.5 781.13,-90.2 762.33,-116.46 790,-138.5 791.62,-139.79 793.3,-141.01 795.03,-142.17"/>
<polygon fill="#63b8ff" stroke="#63b8ff" points="793.67,-145.43 804.07,-147.44 797.19,-139.38 793.67,-145.43"/>
</a>
</g>
</g>
<!-- Node14 -->
<g id="Node000014" class="node">
<title>Node14</title>
<g id="a_Node000014"><a xlink:href="classMapManagement_1_1AreaManagement_1_1AreaStorage.html#acd62c56575191230195e1d709c1c2c8a" target="_top" xlink:title=" ">
<polygon fill="white" stroke="#666666" points="985,-67.5 790,-67.5 790,-37.5 985,-37.5 985,-67.5"/>
<text text-anchor="start" x="798" y="-55.5" font-family="Helvetica,sans-Serif" font-size="10.00">MapManagement::AreaManagement</text>
<text text-anchor="middle" x="887.5" y="-44.5" font-family="Helvetica,sans-Serif" font-size="10.00">::AreaStorage::GetFlagByMapId</text>
</a>
</g>
</g>
<!-- Node13&#45;&gt;Node14 -->
<g id="edge20_Node000013_Node000014" class="edge">
<title>Node13&#45;&gt;Node14</title>
<g id="a_edge20_Node000013_Node000014"><a xlink:title=" ">
<path fill="none" stroke="#63b8ff" d="M754.28,-44.42C762.62,-44.93 771.08,-45.44 779.48,-45.96"/>
<polygon fill="#63b8ff" stroke="#63b8ff" points="779.5,-49.46 789.69,-46.58 779.93,-42.48 779.5,-49.46"/>
</a>
</g>
</g>
<!-- Node15 -->
<g id="Node000015" class="node">
<title>Node15</title>
<g id="a_Node000015"><a xlink:href="WDBStores_8cpp.html#a26062e0c40dae8bbf224aad069d59a2c" target="_top" xlink:title=" ">
<polygon fill="white" stroke="#666666" points="974,-19 801,-19 801,0 974,0 974,-19"/>
<text text-anchor="middle" x="887.5" y="-7" font-family="Helvetica,sans-Serif" font-size="10.00">GetWMOAreaTableEntryByTriple</text>
</a>
</g>
</g>
<!-- Node13&#45;&gt;Node15 -->
<g id="edge21_Node000013_Node000015" class="edge">
<title>Node13&#45;&gt;Node15</title>
<g id="a_edge21_Node000013_Node000015"><a xlink:title=" ">
<path fill="none" stroke="#63b8ff" d="M754.28,-26.24C769.91,-24.27 785.98,-22.23 801.3,-20.29"/>
<polygon fill="#63b8ff" stroke="#63b8ff" points="801.77,-23.76 811.25,-19.03 800.89,-16.81 801.77,-23.76"/>
</a>
</g>
</g>
<!-- Node18&#45;&gt;Node18 -->
<g id="edge26_Node000018_Node000018" class="edge">
<title>Node18&#45;&gt;Node18</title>
<g id="a_edge26_Node000018_Node000018"><a xlink:title=" ">
<path fill="none" stroke="#63b8ff" d="M621.05,-291.08C603.8,-299.73 615.62,-309 656.5,-309 686.52,-309 700.87,-304 699.54,-297.92"/>
<polygon fill="#63b8ff" stroke="#63b8ff" points="701.72,-295.18 691.95,-291.08 697.04,-300.38 701.72,-295.18"/>
</a>
</g>
</g>
</g>
</svg>
