<?xml version="1.0" encoding="UTF-8" standalone="no"?>
<!DOCTYPE svg PUBLIC "-//W3C//DTD SVG 1.1//EN"
 "http://www.w3.org/Graphics/SVG/1.1/DTD/svg11.dtd">
<!-- Generated by graphviz version 2.43.0 (0)
 -->
<!-- Title: ChatCommandHandler::HandleModifyDisplayid Pages: 1 -->
<!--zoomable 470 -->

<svg id="main" version="1.1" xmlns="http://www.w3.org/2000/svg" xmlns:xlink="http://www.w3.org/1999/xlink" xml:space="preserve" onload="init(evt)">
<style type="text/css"><![CDATA[
.node, .edge {opacity: 0.7;}
.node.selected, .edge.selected {opacity: 1;}
.edge:hover path { stroke: red; }
.edge:hover polygon { stroke: red; fill: red; }
]]></style>

<defs>
  <circle id="rim" cx="0" cy="0" r="7"/>
  <circle id="rim2" cx="0" cy="0" r="3.5"/>
  <g id="zoomPlus">
    <use xlink:href="#rim" fill="#404040"><set attributeName="fill" to="#808080" begin="zoomplus.mouseover" end="zoomplus.mouseout"/></use>
    <path d="M-4,0h8M0,-4v8" fill="none" stroke="white" stroke-width="1.5" pointer-events="none"/>
  </g>
  <g id="zoomMin">
    <use xlink:href="#rim" fill="#404040"><set attributeName="fill" to="#808080" begin="zoomminus.mouseover" end="zoomminus.mouseout"/></use>
    <path d="M-4,0h8" fill="none" stroke="white" stroke-width="1.5" pointer-events="none"/>
  </g>
  <g id="arrowUp" transform="translate(30 24)">
    <use xlink:href="#rim"/>
    <path pointer-events="none" fill="none" stroke="white" stroke-width="1.5" d="M0,-3.0v7 M-2.5,-0.5L0,-3.0L2.5,-0.5"/>
  </g>
  <g id="arrowRight" transform="rotate(90) translate(36 -43)">
    <use xlink:href="#rim"/>
    <path pointer-events="none" fill="none" stroke="white" stroke-width="1.5" d="M0,-3.0v7 M-2.5,-0.5L0,-3.0L2.5,-0.5"/>
  </g>
  <g id="arrowDown" transform="rotate(180) translate(-30 -48)">
    <use xlink:href="#rim"/>
    <path pointer-events="none" fill="none" stroke="white" stroke-width="1.5" d="M0,-3.0v7 M-2.5,-0.5L0,-3.0L2.5,-0.5"/>
  </g>
  <g id="arrowLeft" transform="rotate(270) translate(-36 17)">
    <use xlink:href="#rim"/>
    <path pointer-events="none" fill="none" stroke="white" stroke-width="1.5" d="M0,-3.0v7 M-2.5,-0.5L0,-3.0L2.5,-0.5"/>
  </g>
  <g id="resetDef">
    <use xlink:href="#rim2" fill="#404040"><set attributeName="fill" to="#808080" begin="reset.mouseover" end="reset.mouseout"/></use>
  </g>
</defs>
<script type="application/ecmascript">
var viewWidth = 693;
var viewHeight = 470;
var sectionId = 'dynsection-448';
</script>
<script type="application/ecmascript" xlink:href="svg.min.js"/>
<svg id="graph" class="graph">
<g id="viewport">
<title>ChatCommandHandler::HandleModifyDisplayid</title>
<!-- Node1 -->
<g id="Node000001" class="node">
<title>Node1</title>
<g id="a_Node000001"><a xlink:title=" ">
<polygon fill="#999999" stroke="#666666" points="136,-211.5 0,-211.5 0,-181.5 136,-181.5 136,-211.5"/>
<text text-anchor="start" x="8" y="-199.5" font-family="Helvetica,sans-Serif" font-size="10.00">ChatCommandHandler</text>
<text text-anchor="middle" x="68" y="-188.5" font-family="Helvetica,sans-Serif" font-size="10.00">::HandleModifyDisplayid</text>
</a>
</g>
</g>
<!-- Node2 -->
<g id="Node000002" class="node">
<title>Node2</title>
<g id="a_Node000002"><a xlink:href="classChatCommandHandler.html#a47956387653808b2cf3a7e3fcee40bc8" target="_top" xlink:title=" ">
<polygon fill="white" stroke="#666666" points="315.5,-297.5 187.5,-297.5 187.5,-267.5 315.5,-267.5 315.5,-297.5"/>
<text text-anchor="start" x="195.5" y="-285.5" font-family="Helvetica,sans-Serif" font-size="10.00">ChatCommandHandler</text>
<text text-anchor="middle" x="251.5" y="-274.5" font-family="Helvetica,sans-Serif" font-size="10.00">::GetSelectedUnit</text>
</a>
</g>
</g>
<!-- Node1&#45;&gt;Node2 -->
<g id="edge1_Node000001_Node000002" class="edge">
<title>Node1&#45;&gt;Node2</title>
<g id="a_edge1_Node000001_Node000002"><a xlink:title=" ">
<path fill="none" stroke="#63b8ff" d="M101.03,-211.68C131.23,-225.98 176.62,-247.49 209.46,-263.05"/>
<polygon fill="#63b8ff" stroke="#63b8ff" points="208.25,-266.36 218.79,-267.47 211.25,-260.03 208.25,-266.36"/>
</a>
</g>
</g>
<!-- Node15 -->
<g id="Node000015" class="node">
<title>Node15</title>
<g id="a_Node000015"><a xlink:href="classChatCommandHandler.html#a8b3e581cddddb642b1c201cf617209ae" target="_top" xlink:title=" ">
<polygon fill="white" stroke="#666666" points="331,-147.5 172,-147.5 172,-117.5 331,-117.5 331,-147.5"/>
<text text-anchor="start" x="180" y="-135.5" font-family="Helvetica,sans-Serif" font-size="10.00">ChatCommandHandler</text>
<text text-anchor="middle" x="251.5" y="-124.5" font-family="Helvetica,sans-Serif" font-size="10.00">::sendModifySystemMessage</text>
</a>
</g>
</g>
<!-- Node1&#45;&gt;Node15 -->
<g id="edge14_Node000001_Node000015" class="edge">
<title>Node1&#45;&gt;Node15</title>
<g id="a_edge14_Node000001_Node000015"><a xlink:title=" ">
<path fill="none" stroke="#63b8ff" d="M111.55,-181.49C137.52,-172.34 170.89,-160.57 198.43,-150.86"/>
<polygon fill="#63b8ff" stroke="#63b8ff" points="199.63,-154.15 207.9,-147.52 197.3,-147.55 199.63,-154.15"/>
</a>
</g>
</g>
<!-- Node3 -->
<g id="Node000003" class="node">
<title>Node3</title>
<g id="a_Node000003"><a xlink:href="classWorldSession.html#a014d7fdeb157410b75dfd4bd0fe0efc2" target="_top" xlink:title=" ">
<polygon fill="white" stroke="#666666" points="503,-228 367,-228 367,-209 503,-209 503,-228"/>
<text text-anchor="middle" x="435" y="-216" font-family="Helvetica,sans-Serif" font-size="10.00">WorldSession::GetPlayer</text>
</a>
</g>
</g>
<!-- Node2&#45;&gt;Node3 -->
<g id="edge2_Node000002_Node000003" class="edge">
<title>Node2&#45;&gt;Node3</title>
<g id="a_edge2_Node000002_Node000003"><a xlink:title=" ">
<path fill="none" stroke="#63b8ff" d="M288.26,-267.4C310.68,-258.2 340.29,-246.51 367,-237.5 373.85,-235.19 381.16,-232.92 388.34,-230.8"/>
<polygon fill="#63b8ff" stroke="#63b8ff" points="389.35,-234.15 397.99,-228.01 387.41,-227.43 389.35,-234.15"/>
</a>
</g>
</g>
<!-- Node4 -->
<g id="Node000004" class="node">
<title>Node4</title>
<g id="a_Node000004"><a xlink:href="classUnit.html#a50e5b30e1c170be2c8415a84d0e78cc8" target="_top" xlink:title=" ">
<polygon fill="white" stroke="#666666" points="490.5,-425 379.5,-425 379.5,-406 490.5,-406 490.5,-425"/>
<text text-anchor="middle" x="435" y="-413" font-family="Helvetica,sans-Serif" font-size="10.00">Unit::getTargetGuid</text>
</a>
</g>
</g>
<!-- Node2&#45;&gt;Node4 -->
<g id="edge3_Node000002_Node000004" class="edge">
<title>Node2&#45;&gt;Node4</title>
<g id="a_edge3_Node000002_Node000004"><a xlink:title=" ">
<path fill="none" stroke="#63b8ff" d="M273.32,-297.76C308,-323.17 377.25,-373.91 412.42,-399.69"/>
<polygon fill="#63b8ff" stroke="#63b8ff" points="410.45,-402.59 420.59,-405.67 414.59,-396.94 410.45,-402.59"/>
</a>
</g>
</g>
<!-- Node6 -->
<g id="Node000006" class="node">
<title>Node6</title>
<g id="a_Node000006"><a xlink:href="classWorldMap.html#abc1c5f7227d17eee6774b879fbb1b161" target="_top" xlink:title=" ">
<polygon fill="white" stroke="#666666" points="488.5,-351 381.5,-351 381.5,-332 488.5,-332 488.5,-351"/>
<text text-anchor="middle" x="435" y="-339" font-family="Helvetica,sans-Serif" font-size="10.00">WorldMap::getUnit</text>
</a>
</g>
</g>
<!-- Node2&#45;&gt;Node6 -->
<g id="edge5_Node000002_Node000006" class="edge">
<title>Node2&#45;&gt;Node6</title>
<g id="a_edge5_Node000002_Node000006"><a xlink:title=" ">
<path fill="none" stroke="#63b8ff" d="M291.97,-297.53C313.92,-305.66 341.81,-315.62 367,-323.5 373.19,-325.43 379.73,-327.35 386.21,-329.17"/>
<polygon fill="#63b8ff" stroke="#63b8ff" points="385.71,-332.66 396.28,-331.94 387.57,-325.92 385.71,-332.66"/>
</a>
</g>
</g>
<!-- Node13 -->
<g id="Node000013" class="node">
<title>Node13</title>
<g id="a_Node000013"><a xlink:href="classObject.html#a967af054c54b6d9846637ce8718efd75" target="_top" xlink:title=" ">
<polygon fill="white" stroke="#666666" points="494.5,-314 375.5,-314 375.5,-295 494.5,-295 494.5,-314"/>
<text text-anchor="middle" x="435" y="-302" font-family="Helvetica,sans-Serif" font-size="10.00">Object::getWorldMap</text>
</a>
</g>
</g>
<!-- Node2&#45;&gt;Node13 -->
<g id="edge12_Node000002_Node000013" class="edge">
<title>Node2&#45;&gt;Node13</title>
<g id="a_edge12_Node000002_Node000013"><a xlink:title=" ">
<path fill="none" stroke="#63b8ff" d="M315.73,-290.16C331.74,-292.1 349.01,-294.2 365.28,-296.17"/>
<polygon fill="#63b8ff" stroke="#63b8ff" points="364.91,-299.65 375.26,-297.38 365.76,-292.7 364.91,-299.65"/>
</a>
</g>
</g>
<!-- Node14 -->
<g id="Node000014" class="node">
<title>Node14</title>
<g id="a_Node000014"><a xlink:href="classChatCommandHandler.html#ac481a38af41845bdacba6cfca6f08a2d" target="_top" xlink:title=" ">
<polygon fill="white" stroke="#666666" points="499,-276.5 371,-276.5 371,-246.5 499,-246.5 499,-276.5"/>
<text text-anchor="start" x="379" y="-264.5" font-family="Helvetica,sans-Serif" font-size="10.00">ChatCommandHandler</text>
<text text-anchor="middle" x="435" y="-253.5" font-family="Helvetica,sans-Serif" font-size="10.00">::redSystemMessage</text>
</a>
</g>
</g>
<!-- Node2&#45;&gt;Node14 -->
<g id="edge13_Node000002_Node000014" class="edge">
<title>Node2&#45;&gt;Node14</title>
<g id="a_edge13_Node000002_Node000014"><a xlink:title=" ">
<path fill="none" stroke="#63b8ff" d="M315.73,-275.18C330.19,-273.51 345.68,-271.72 360.53,-270"/>
<polygon fill="#63b8ff" stroke="#63b8ff" points="361.16,-273.45 370.69,-268.82 360.36,-266.5 361.16,-273.45"/>
</a>
</g>
</g>
<!-- Node5 -->
<g id="Node000005" class="node">
<title>Node5</title>
<g id="a_Node000005"><a xlink:href="classUnit.html#a2b80af47340ac01ca2031723f37e839a" target="_top" xlink:title=" ">
<polygon fill="white" stroke="#666666" points="654.5,-462 569.5,-462 569.5,-443 654.5,-443 654.5,-462"/>
<text text-anchor="middle" x="612" y="-450" font-family="Helvetica,sans-Serif" font-size="10.00">Unit::unitData</text>
</a>
</g>
</g>
<!-- Node4&#45;&gt;Node5 -->
<g id="edge4_Node000004_Node000005" class="edge">
<title>Node4&#45;&gt;Node5</title>
<g id="a_edge4_Node000004_Node000005"><a xlink:title=" ">
<path fill="none" stroke="#63b8ff" d="M481.07,-425.03C505.01,-430.09 534.55,-436.34 559.41,-441.59"/>
<polygon fill="#63b8ff" stroke="#63b8ff" points="558.88,-445.06 569.39,-443.7 560.33,-438.21 558.88,-445.06"/>
</a>
</g>
</g>
<!-- Node7 -->
<g id="Node000007" class="node">
<title>Node7</title>
<g id="a_Node000007"><a xlink:href="classWorldMap.html#aaca4751736f7fd902ca0745a950148bd" target="_top" xlink:title=" ">
<polygon fill="white" stroke="#666666" points="676.5,-425 547.5,-425 547.5,-406 676.5,-406 676.5,-425"/>
<text text-anchor="middle" x="612" y="-413" font-family="Helvetica,sans-Serif" font-size="10.00">WorldMap::getCreature</text>
</a>
</g>
</g>
<!-- Node6&#45;&gt;Node7 -->
<g id="edge6_Node000006_Node000007" class="edge">
<title>Node6&#45;&gt;Node7</title>
<g id="a_edge6_Node000006_Node000007"><a xlink:title=" ">
<path fill="none" stroke="#63b8ff" d="M450.78,-351.1C470.28,-363.39 506,-384.64 539,-397.5 544.38,-399.6 550.09,-401.51 555.84,-403.24"/>
<polygon fill="#63b8ff" stroke="#63b8ff" points="554.94,-406.63 565.52,-405.99 556.85,-399.89 554.94,-406.63"/>
</a>
</g>
</g>
<!-- Node8 -->
<g id="Node000008" class="node">
<title>Node8</title>
<g id="a_Node000008"><a xlink:href="classWoWGuid.html#aaa546e886497d5fb0e2eb2a267a81786" target="_top" xlink:title=" ">
<polygon fill="white" stroke="#666666" points="685,-388 539,-388 539,-369 685,-369 685,-388"/>
<text text-anchor="middle" x="612" y="-376" font-family="Helvetica,sans-Serif" font-size="10.00">WoWGuid::getGuidLowPart</text>
</a>
</g>
</g>
<!-- Node6&#45;&gt;Node8 -->
<g id="edge7_Node000006_Node000008" class="edge">
<title>Node6&#45;&gt;Node8</title>
<g id="a_edge7_Node000006_Node000008"><a xlink:title=" ">
<path fill="none" stroke="#63b8ff" d="M481.07,-351.03C503.84,-355.84 531.67,-361.73 555.73,-366.81"/>
<polygon fill="#63b8ff" stroke="#63b8ff" points="555.27,-370.3 565.78,-368.94 556.72,-363.45 555.27,-370.3"/>
</a>
</g>
</g>
<!-- Node9 -->
<g id="Node000009" class="node">
<title>Node9</title>
<g id="a_Node000009"><a xlink:href="classWoWGuid.html#a8c5db0d6b72e4cc9e850a410f0030b92" target="_top" xlink:title=" ">
<polygon fill="white" stroke="#666666" points="666,-351 558,-351 558,-332 666,-332 666,-351"/>
<text text-anchor="middle" x="612" y="-339" font-family="Helvetica,sans-Serif" font-size="10.00">WoWGuid::getHigh</text>
</a>
</g>
</g>
<!-- Node6&#45;&gt;Node9 -->
<g id="edge8_Node000006_Node000009" class="edge">
<title>Node6&#45;&gt;Node9</title>
<g id="a_edge8_Node000006_Node000009"><a xlink:title=" ">
<path fill="none" stroke="#63b8ff" d="M488.51,-341.5C507.2,-341.5 528.44,-341.5 547.92,-341.5"/>
<polygon fill="#63b8ff" stroke="#63b8ff" points="547.93,-345 557.93,-341.5 547.93,-338 547.93,-345"/>
</a>
</g>
</g>
<!-- Node10 -->
<g id="Node000010" class="node">
<title>Node10</title>
<g id="a_Node000010"><a xlink:href="classWorldMap.html#a54a7a06ee3df07916e9eb107e1d41313" target="_top" xlink:title=" ">
<polygon fill="white" stroke="#666666" points="663.5,-314 560.5,-314 560.5,-295 663.5,-295 663.5,-314"/>
<text text-anchor="middle" x="612" y="-302" font-family="Helvetica,sans-Serif" font-size="10.00">WorldMap::getPet</text>
</a>
</g>
</g>
<!-- Node6&#45;&gt;Node10 -->
<g id="edge9_Node000006_Node000010" class="edge">
<title>Node6&#45;&gt;Node10</title>
<g id="a_edge9_Node000006_Node000010"><a xlink:title=" ">
<path fill="none" stroke="#63b8ff" d="M481.07,-331.97C503.84,-327.16 531.67,-321.27 555.73,-316.19"/>
<polygon fill="#63b8ff" stroke="#63b8ff" points="556.72,-319.55 565.78,-314.06 555.27,-312.7 556.72,-319.55"/>
</a>
</g>
</g>
<!-- Node11 -->
<g id="Node000011" class="node">
<title>Node11</title>
<g id="a_Node000011"><a xlink:href="classWorldMap.html#aaef96289a191fb47e1312a8938b835af" target="_top" xlink:title=" ">
<polygon fill="white" stroke="#666666" points="671,-277 553,-277 553,-258 671,-258 671,-277"/>
<text text-anchor="middle" x="612" y="-265" font-family="Helvetica,sans-Serif" font-size="10.00">WorldMap::getPlayer</text>
</a>
</g>
</g>
<!-- Node6&#45;&gt;Node11 -->
<g id="edge10_Node000006_Node000011" class="edge">
<title>Node6&#45;&gt;Node11</title>
<g id="a_edge10_Node000006_Node000011"><a xlink:title=" ">
<path fill="none" stroke="#63b8ff" d="M484.13,-331.96C490.71,-329.7 497.18,-326.91 503,-323.5 522.79,-311.89 519.19,-298.07 539,-286.5 542.7,-284.34 546.66,-282.41 550.74,-280.71"/>
<polygon fill="#63b8ff" stroke="#63b8ff" points="552.26,-283.87 560.41,-277.1 549.82,-277.31 552.26,-283.87"/>
</a>
</g>
</g>
<!-- Node12 -->
<g id="Node000012" class="node">
<title>Node12</title>
<g id="a_Node000012"><a xlink:href="classWoWGuid.html#af262e032110b2936fde7b85a73a21d1b" target="_top" xlink:title=" ">
<polygon fill="white" stroke="#666666" points="655,-240 569,-240 569,-221 655,-221 655,-240"/>
<text text-anchor="middle" x="612" y="-228" font-family="Helvetica,sans-Serif" font-size="10.00">WoWGuid::Init</text>
</a>
</g>
</g>
<!-- Node6&#45;&gt;Node12 -->
<g id="edge11_Node000006_Node000012" class="edge">
<title>Node6&#45;&gt;Node12</title>
<g id="a_edge11_Node000006_Node000012"><a xlink:title=" ">
<path fill="none" stroke="#63b8ff" d="M488.68,-332.18C493.84,-329.89 498.74,-327.04 503,-323.5 531.45,-299.88 510.35,-271.87 539,-248.5 544.84,-243.74 551.76,-240.22 558.97,-237.61"/>
<polygon fill="#63b8ff" stroke="#63b8ff" points="560.35,-240.85 568.9,-234.6 558.32,-234.15 560.35,-240.85"/>
</a>
</g>
</g>
<!-- Node15&#45;&gt;Node3 -->
<g id="edge17_Node000015_Node000003" class="edge">
<title>Node15&#45;&gt;Node3</title>
<g id="a_edge17_Node000015_Node000003"><a xlink:title=" ">
<path fill="none" stroke="#63b8ff" d="M274.43,-147.6C296.85,-162.49 333.1,-185.05 367,-199.5 372.49,-201.84 378.35,-203.98 384.23,-205.92"/>
<polygon fill="#63b8ff" stroke="#63b8ff" points="383.51,-209.36 394.1,-208.98 385.58,-202.67 383.51,-209.36"/>
</a>
</g>
</g>
<!-- Node16 -->
<g id="Node000016" class="node">
<title>Node16</title>
<g id="a_Node000016"><a xlink:href="classChatCommandHandler.html#a1141a5b3f55d31ed3201e0bd266ef0ab" target="_top" xlink:title=" ">
<polygon fill="white" stroke="#666666" points="499,-190.5 371,-190.5 371,-160.5 499,-160.5 499,-190.5"/>
<text text-anchor="start" x="379" y="-178.5" font-family="Helvetica,sans-Serif" font-size="10.00">ChatCommandHandler</text>
<text text-anchor="middle" x="435" y="-167.5" font-family="Helvetica,sans-Serif" font-size="10.00">::blueSystemMessage</text>
</a>
</g>
</g>
<!-- Node15&#45;&gt;Node16 -->
<g id="edge15_Node000015_Node000016" class="edge">
<title>Node15&#45;&gt;Node16</title>
<g id="a_edge15_Node000015_Node000016"><a xlink:title=" ">
<path fill="none" stroke="#63b8ff" d="M315.98,-147.54C330.43,-150.96 345.9,-154.63 360.72,-158.14"/>
<polygon fill="#63b8ff" stroke="#63b8ff" points="360.32,-161.64 370.86,-160.54 361.94,-154.83 360.32,-161.64"/>
</a>
</g>
</g>
<!-- Node17 -->
<g id="Node000017" class="node">
<title>Node17</title>
<g id="a_Node000017"><a xlink:href="classPlayer.html#a406231b7f86c1622142ea0ad1dfa773a" target="_top" xlink:title=" ">
<polygon fill="white" stroke="#666666" points="484,-142 386,-142 386,-123 484,-123 484,-142"/>
<text text-anchor="middle" x="435" y="-130" font-family="Helvetica,sans-Serif" font-size="10.00">Player::getName</text>
</a>
</g>
</g>
<!-- Node15&#45;&gt;Node17 -->
<g id="edge16_Node000015_Node000017" class="edge">
<title>Node15&#45;&gt;Node17</title>
<g id="a_edge16_Node000015_Node000017"><a xlink:title=" ">
<path fill="none" stroke="#63b8ff" d="M331.05,-132.5C346.09,-132.5 361.57,-132.5 375.83,-132.5"/>
<polygon fill="#63b8ff" stroke="#63b8ff" points="375.96,-136 385.96,-132.5 375.96,-129 375.96,-136"/>
</a>
</g>
</g>
<!-- Node18 -->
<g id="Node000018" class="node">
<title>Node18</title>
<g id="a_Node000018"><a xlink:href="classChatCommandHandler.html#a562947bc81997bcf5225df5cf1fbcaa6" target="_top" xlink:title=" ">
<polygon fill="white" stroke="#666666" points="500.5,-104.5 369.5,-104.5 369.5,-74.5 500.5,-74.5 500.5,-104.5"/>
<text text-anchor="start" x="377.5" y="-92.5" font-family="Helvetica,sans-Serif" font-size="10.00">ChatCommandHandler</text>
<text text-anchor="middle" x="435" y="-81.5" font-family="Helvetica,sans-Serif" font-size="10.00">::greenSystemMessage</text>
</a>
</g>
</g>
<!-- Node15&#45;&gt;Node18 -->
<g id="edge18_Node000015_Node000018" class="edge">
<title>Node15&#45;&gt;Node18</title>
<g id="a_edge18_Node000015_Node000018"><a xlink:title=" ">
<path fill="none" stroke="#63b8ff" d="M315.98,-117.46C330.35,-114.06 345.72,-110.41 360.47,-106.92"/>
<polygon fill="#63b8ff" stroke="#63b8ff" points="361.63,-110.24 370.56,-104.53 360.02,-103.43 361.63,-110.24"/>
</a>
</g>
</g>
<!-- Node19 -->
<g id="Node000019" class="node">
<title>Node19</title>
<g id="a_Node000019"><a xlink:href="classObject.html#ad867b68be484ae121ca3b1cb4e947244" target="_top" xlink:title=" ">
<polygon fill="white" stroke="#666666" points="487,-56 383,-56 383,-37 487,-37 487,-56"/>
<text text-anchor="middle" x="435" y="-44" font-family="Helvetica,sans-Serif" font-size="10.00">Object::isCreature</text>
</a>
</g>
</g>
<!-- Node15&#45;&gt;Node19 -->
<g id="edge19_Node000015_Node000019" class="edge">
<title>Node15&#45;&gt;Node19</title>
<g id="a_edge19_Node000015_Node000019"><a xlink:title=" ">
<path fill="none" stroke="#63b8ff" d="M274.43,-117.4C296.85,-102.51 333.1,-79.95 367,-65.5 372.49,-63.16 378.35,-61.02 384.23,-59.08"/>
<polygon fill="#63b8ff" stroke="#63b8ff" points="385.58,-62.33 394.1,-56.02 383.51,-55.64 385.58,-62.33"/>
</a>
</g>
</g>
<!-- Node21 -->
<g id="Node000021" class="node">
<title>Node21</title>
<g id="a_Node000021"><a xlink:href="classObject.html#ab65745f76d63eda49657413dccf0057d" target="_top" xlink:title=" ">
<polygon fill="white" stroke="#666666" points="481.5,-19 388.5,-19 388.5,0 481.5,0 481.5,-19"/>
<text text-anchor="middle" x="435" y="-7" font-family="Helvetica,sans-Serif" font-size="10.00">Object::isPlayer</text>
</a>
</g>
</g>
<!-- Node15&#45;&gt;Node21 -->
<g id="edge21_Node000015_Node000021" class="edge">
<title>Node15&#45;&gt;Node21</title>
<g id="a_edge21_Node000015_Node000021"><a xlink:title=" ">
<path fill="none" stroke="#63b8ff" d="M264.89,-117.18C284.25,-94.23 323.98,-51.13 367,-27.5 370.68,-25.48 374.6,-23.67 378.63,-22.06"/>
<polygon fill="#63b8ff" stroke="#63b8ff" points="379.93,-25.32 388.16,-18.65 377.57,-18.73 379.93,-25.32"/>
</a>
</g>
</g>
<!-- Node20 -->
<g id="Node000020" class="node">
<title>Node20</title>
<g id="a_Node000020"><a xlink:href="classObject.html#aaee2ed63355af5e632aba82f859822b4" target="_top" xlink:title=" ">
<polygon fill="white" stroke="#666666" points="678.5,-38 545.5,-38 545.5,-19 678.5,-19 678.5,-38"/>
<text text-anchor="middle" x="612" y="-26" font-family="Helvetica,sans-Serif" font-size="10.00">Object::getObjectTypeId</text>
</a>
</g>
</g>
<!-- Node19&#45;&gt;Node20 -->
<g id="edge20_Node000019_Node000020" class="edge">
<title>Node19&#45;&gt;Node20</title>
<g id="a_edge20_Node000019_Node000020"><a xlink:title=" ">
<path fill="none" stroke="#63b8ff" d="M487.09,-41.25C502.21,-39.69 519.1,-37.95 535.42,-36.27"/>
<polygon fill="#63b8ff" stroke="#63b8ff" points="535.9,-39.74 545.49,-35.24 535.19,-32.78 535.9,-39.74"/>
</a>
</g>
</g>
<!-- Node21&#45;&gt;Node20 -->
<g id="edge22_Node000021_Node000020" class="edge">
<title>Node21&#45;&gt;Node20</title>
<g id="a_edge22_Node000021_Node000020"><a xlink:title=" ">
<path fill="none" stroke="#63b8ff" d="M481.52,-14.44C497.93,-16.22 516.92,-18.29 535.21,-20.27"/>
<polygon fill="#63b8ff" stroke="#63b8ff" points="534.96,-23.76 545.28,-21.36 535.71,-16.81 534.96,-23.76"/>
</a>
</g>
</g>
</g>
</svg>

<g id="navigator" transform="translate(0 0)" fill="#404254">
  <rect fill="#f2f5e9" fill-opacity="0.5" stroke="#606060" stroke-width=".5" x="0" y="0" width="60" height="60"/>
  <use id="zoomplus" xlink:href="#zoomPlus" x="17" y="9" onmousedown="handleZoom(evt,'in')"/>
  <use id="zoomminus" xlink:href="#zoomMin" x="42" y="9" onmousedown="handleZoom(evt,'out')"/>
  <use id="reset" xlink:href="#resetDef" x="30" y="36" onmousedown="handleReset()"/>
   <use id="arrowup" xlink:href="#arrowUp" x="0" y="0" onmousedown="handlePan(0,-1)"/>
  <use id="arrowright" xlink:href="#arrowRight" x="0" y="0" onmousedown="handlePan(1,0)"/>
  <use id="arrowdown" xlink:href="#arrowDown" x="0" y="0" onmousedown="handlePan(0,1)"/>
  <use id="arrowleft" xlink:href="#arrowLeft" x="0" y="0" onmousedown="handlePan(-1,0)"/>
</g>
<svg viewBox="0 0 15 15" width="100%" height="30px" preserveAspectRatio="xMaxYMin meet">
 <g id="arrow_out" transform="scale(0.3 0.3)">
  <a xlink:href="classChatCommandHandler_a4644cb34305349d83064d8c019107e11_cgraph_org.svg" target="_base">
   <rect id="button" ry="5" rx="5" y="6" x="6" height="38" width="38"
        fill="#f2f5e9" fill-opacity="0.5" stroke="#606060" stroke-width="1.0"/>
   <path id="arrow"
     d="M 11.500037,31.436501 C 11.940474,20.09759 22.043105,11.32322 32.158766,21.979434 L 37.068811,17.246167 C 37.068811,17.246167 37.088388,32 37.088388,32 L 22.160133,31.978069 C 22.160133,31.978069 26.997745,27.140456 26.997745,27.140456 C 18.528582,18.264221 13.291696,25.230495 11.500037,31.436501 z"
     style="fill:#404040;"/>
  </a>
 </g>
</svg>

<style type='text/css'>
<![CDATA[
[data-mouse-over-selected='false'] { opacity: 0.7; }
[data-mouse-over-selected='true']  { opacity: 1.0; }
]]>
</style>
<script type="application/ecmascript"><![CDATA[
document.addEventListener('DOMContentLoaded', (event) => {
  highlightEdges();
  highlightAdjacentNodes();
});
]]></script>
</svg>
