<?xml version="1.0" encoding="UTF-8" standalone="no"?>
<!DOCTYPE svg PUBLIC "-//W3C//DTD SVG 1.1//EN"
 "http://www.w3.org/Graphics/SVG/1.1/DTD/svg11.dtd">
<!-- Generated by graphviz version 2.43.0 (0)
 -->
<!-- Title: G3D::Matrix4::inverse Pages: 1 -->
<svg width="804pt" height="177pt"
 viewBox="0.00 0.00 804.00 177.00" xmlns="http://www.w3.org/2000/svg" xmlns:xlink="http://www.w3.org/1999/xlink">
<g id="graph0" class="graph" transform="scale(1 1) rotate(0) translate(4 173)">
<title>G3D::Matrix4::inverse</title>
<!-- Node1 -->
<g id="Node000001" class="node">
<title>Node1</title>
<g id="a_Node000001"><a xlink:title=" ">
<polygon fill="#999999" stroke="#666666" points="123,-75 0,-75 0,-56 123,-56 123,-75"/>
<text text-anchor="middle" x="61.5" y="-63" font-family="Helvetica,sans-Serif" font-size="10.00">G3D::Matrix4::inverse</text>
</a>
</g>
</g>
<!-- Node2 -->
<g id="Node000002" class="node">
<title>Node2</title>
<g id="a_Node000002"><a xlink:href="classG3D_1_1Matrix4.html#a0756f40f36353d2488f13f77c35e05b6" target="_top" xlink:title=" ">
<polygon fill="white" stroke="#666666" points="281,-132 160,-132 160,-113 281,-113 281,-132"/>
<text text-anchor="middle" x="220.5" y="-120" font-family="Helvetica,sans-Serif" font-size="10.00">G3D::Matrix4::adjoint</text>
</a>
</g>
</g>
<!-- Node1&#45;&gt;Node2 -->
<g id="edge1_Node000001_Node000002" class="edge">
<title>Node1&#45;&gt;Node2</title>
<g id="a_edge1_Node000001_Node000002"><a xlink:title=" ">
<path fill="none" stroke="#63b8ff" d="M88.78,-75.04C114.7,-84.45 154.53,-98.91 183.42,-109.4"/>
<polygon fill="#63b8ff" stroke="#63b8ff" points="182.54,-112.81 193.14,-112.93 184.93,-106.23 182.54,-112.81"/>
</a>
</g>
</g>
<!-- Node5 -->
<g id="Node000005" class="node">
<title>Node5</title>
<g id="a_Node000005"><a xlink:href="classG3D_1_1Matrix4.html#a930c8a5cf527d08051802254fc413559" target="_top" xlink:title=" ">
<polygon fill="white" stroke="#666666" points="796,-113 691,-113 691,-94 796,-94 796,-113"/>
<text text-anchor="middle" x="743.5" y="-101" font-family="Helvetica,sans-Serif" font-size="10.00">G3D::Matrix4::row</text>
</a>
</g>
</g>
<!-- Node1&#45;&gt;Node5 -->
<g id="edge8_Node000001_Node000005" class="edge">
<title>Node1&#45;&gt;Node5</title>
<g id="a_edge8_Node000001_Node000005"><a xlink:title=" ">
<path fill="none" stroke="#63b8ff" d="M123.14,-68.89C251.82,-76.08 550.99,-92.8 680.69,-100.05"/>
<polygon fill="#63b8ff" stroke="#63b8ff" points="680.67,-103.55 690.85,-100.61 681.06,-96.56 680.67,-103.55"/>
</a>
</g>
</g>
<!-- Node7 -->
<g id="Node000007" class="node">
<title>Node7</title>
<g id="a_Node000007"><a xlink:href="classG3D_1_1Matrix4.html#a986b52a738d71bf1fcaab83bc943b9e3" target="_top" xlink:title=" ">
<polygon fill="white" stroke="#666666" points="282,-56 159,-56 159,-37 282,-37 282,-56"/>
<text text-anchor="middle" x="220.5" y="-44" font-family="Helvetica,sans-Serif" font-size="10.00">G3D::Matrix4::column</text>
</a>
</g>
</g>
<!-- Node1&#45;&gt;Node7 -->
<g id="edge6_Node000001_Node000007" class="edge">
<title>Node1&#45;&gt;Node7</title>
<g id="a_edge6_Node000001_Node000007"><a xlink:title=" ">
<path fill="none" stroke="#63b8ff" d="M123.2,-58.15C131.64,-57.13 140.36,-56.08 148.95,-55.04"/>
<polygon fill="#63b8ff" stroke="#63b8ff" points="149.45,-58.5 158.96,-53.83 148.61,-51.55 149.45,-58.5"/>
</a>
</g>
</g>
<!-- Node8 -->
<g id="Node000008" class="node">
<title>Node8</title>
<g id="a_Node000008"><a xlink:href="classG3D_1_1Vector4.html#a574d8dca23ef00da239660fe68524c57" target="_top" xlink:title=" ">
<polygon fill="white" stroke="#666666" points="271.5,-19 169.5,-19 169.5,0 271.5,0 271.5,-19"/>
<text text-anchor="middle" x="220.5" y="-7" font-family="Helvetica,sans-Serif" font-size="10.00">G3D::Vector4::dot</text>
</a>
</g>
</g>
<!-- Node1&#45;&gt;Node8 -->
<g id="edge7_Node000001_Node000008" class="edge">
<title>Node1&#45;&gt;Node8</title>
<g id="a_edge7_Node000001_Node000008"><a xlink:title=" ">
<path fill="none" stroke="#63b8ff" d="M85.3,-55.88C104.73,-47.84 133.47,-36.31 159,-27.5 164.31,-25.67 169.92,-23.85 175.49,-22.11"/>
<polygon fill="#63b8ff" stroke="#63b8ff" points="176.88,-25.35 185.42,-19.08 174.83,-18.65 176.88,-25.35"/>
</a>
</g>
</g>
<!-- Node3 -->
<g id="Node000003" class="node">
<title>Node3</title>
<g id="a_Node000003"><a xlink:href="classG3D_1_1Matrix4.html#ae13ac1760f70e6b8c04c1fe6e21d7295" target="_top" xlink:title=" ">
<polygon fill="white" stroke="#666666" points="449,-169 322,-169 322,-150 449,-150 449,-169"/>
<text text-anchor="middle" x="385.5" y="-157" font-family="Helvetica,sans-Serif" font-size="10.00">G3D::Matrix4::cofactor</text>
</a>
</g>
</g>
<!-- Node2&#45;&gt;Node3 -->
<g id="edge2_Node000002_Node000003" class="edge">
<title>Node2&#45;&gt;Node3</title>
<g id="a_edge2_Node000002_Node000003"><a xlink:title=" ">
<path fill="none" stroke="#63b8ff" d="M263.48,-132.03C284.5,-136.8 310.15,-142.62 332.42,-147.68"/>
<polygon fill="#63b8ff" stroke="#63b8ff" points="331.86,-151.14 342.38,-149.94 333.41,-144.31 331.86,-151.14"/>
</a>
</g>
</g>
<!-- Node6 -->
<g id="Node000006" class="node">
<title>Node6</title>
<g id="a_Node000006"><a xlink:href="classG3D_1_1Matrix4.html#a3dcce5ba337a2f53193ceb69205e705f" target="_top" xlink:title=" ">
<polygon fill="white" stroke="#666666" points="453,-132 318,-132 318,-113 453,-113 453,-132"/>
<text text-anchor="middle" x="385.5" y="-120" font-family="Helvetica,sans-Serif" font-size="10.00">G3D::Matrix4::transpose</text>
</a>
</g>
</g>
<!-- Node2&#45;&gt;Node6 -->
<g id="edge5_Node000002_Node000006" class="edge">
<title>Node2&#45;&gt;Node6</title>
<g id="a_edge5_Node000002_Node000006"><a xlink:title=" ">
<path fill="none" stroke="#63b8ff" d="M281.27,-122.5C289.92,-122.5 298.92,-122.5 307.84,-122.5"/>
<polygon fill="#63b8ff" stroke="#63b8ff" points="307.86,-126 317.86,-122.5 307.86,-119 307.86,-126"/>
</a>
</g>
</g>
<!-- Node4 -->
<g id="Node000004" class="node">
<title>Node4</title>
<g id="a_Node000004"><a xlink:href="classG3D_1_1Matrix4.html#a0c1f4d24765cfc1852191ee613b156d6" target="_top" xlink:title=" ">
<polygon fill="white" stroke="#666666" points="655,-150 489,-150 489,-131 655,-131 655,-150"/>
<text text-anchor="middle" x="572" y="-138" font-family="Helvetica,sans-Serif" font-size="10.00">G3D::Matrix4::subDeterminant</text>
</a>
</g>
</g>
<!-- Node3&#45;&gt;Node4 -->
<g id="edge3_Node000003_Node000004" class="edge">
<title>Node3&#45;&gt;Node4</title>
<g id="a_edge3_Node000003_Node000004"><a xlink:title=" ">
<path fill="none" stroke="#63b8ff" d="M449.22,-153.04C458.78,-152.06 468.81,-151.02 478.84,-149.99"/>
<polygon fill="#63b8ff" stroke="#63b8ff" points="479.26,-153.47 488.85,-148.96 478.55,-146.5 479.26,-153.47"/>
</a>
</g>
</g>
<!-- Node4&#45;&gt;Node5 -->
<g id="edge4_Node000004_Node000005" class="edge">
<title>Node4&#45;&gt;Node5</title>
<g id="a_edge4_Node000004_Node000005"><a xlink:title=" ">
<path fill="none" stroke="#63b8ff" d="M616.65,-130.97C638.61,-126.18 665.43,-120.32 688.65,-115.25"/>
<polygon fill="#63b8ff" stroke="#63b8ff" points="689.68,-118.61 698.7,-113.06 688.19,-111.77 689.68,-118.61"/>
</a>
</g>
</g>
</g>
</svg>
