<?xml version="1.0" encoding="UTF-8" standalone="no"?>
<!DOCTYPE svg PUBLIC "-//W3C//DTD SVG 1.1//EN"
 "http://www.w3.org/Graphics/SVG/1.1/DTD/svg11.dtd">
<!-- Generated by graphviz version 2.43.0 (0)
 -->
<!-- Title: G3D::Vector3::directionOrZero Pages: 1 -->
<svg width="854pt" height="183pt"
 viewBox="0.00 0.00 854.00 182.50" xmlns="http://www.w3.org/2000/svg" xmlns:xlink="http://www.w3.org/1999/xlink">
<g id="graph0" class="graph" transform="scale(1 1) rotate(0) translate(4 178.5)">
<title>G3D::Vector3::directionOrZero</title>
<!-- Node1 -->
<g id="Node000001" class="node">
<title>Node1</title>
<g id="a_Node000001"><a xlink:title=" ">
<polygon fill="#999999" stroke="#666666" points="846,-93.5 683,-93.5 683,-74.5 846,-74.5 846,-93.5"/>
<text text-anchor="middle" x="764.5" y="-81.5" font-family="Helvetica,sans-Serif" font-size="10.00">G3D::Vector3::directionOrZero</text>
</a>
</g>
</g>
<!-- Node2 -->
<g id="Node000002" class="node">
<title>Node2</title>
<g id="a_Node000002"><a xlink:href="classG3D_1_1CollisionDetection.html#a8c1d6e959c2a3d889b7e42fa8c1ca9e7" target="_top" xlink:title=" ">
<polygon fill="white" stroke="#666666" points="645.5,-174.5 472.5,-174.5 472.5,-133.5 645.5,-133.5 645.5,-174.5"/>
<text text-anchor="start" x="480.5" y="-162.5" font-family="Helvetica,sans-Serif" font-size="10.00">G3D::CollisionDetection</text>
<text text-anchor="start" x="480.5" y="-151.5" font-family="Helvetica,sans-Serif" font-size="10.00">::collisionTimeForMovingSphere</text>
<text text-anchor="middle" x="559" y="-140.5" font-family="Helvetica,sans-Serif" font-size="10.00">FixedSphere</text>
</a>
</g>
</g>
<!-- Node1&#45;&gt;Node2 -->
<g id="edge1_Node000001_Node000002" class="edge">
<title>Node1&#45;&gt;Node2</title>
<g id="a_edge1_Node000001_Node000002"><a xlink:title=" ">
<path fill="none" stroke="#63b8ff" d="M727.04,-97.01C704.1,-105.15 673.86,-115.8 647,-125 639.02,-127.73 630.61,-130.58 622.3,-133.37"/>
<polygon fill="#63b8ff" stroke="#63b8ff" points="728.46,-100.22 736.71,-93.57 726.11,-93.62 728.46,-100.22"/>
</a>
</g>
</g>
<!-- Node3 -->
<g id="Node000003" class="node">
<title>Node3</title>
<g id="a_Node000003"><a xlink:href="classG3D_1_1MeshAlg.html#a720141b763de04cad91c2331f8f6ff22" target="_top" xlink:title=" ">
<polygon fill="white" stroke="#666666" points="647,-115.5 471,-115.5 471,-96.5 647,-96.5 647,-115.5"/>
<text text-anchor="middle" x="559" y="-103.5" font-family="Helvetica,sans-Serif" font-size="10.00">G3D::MeshAlg::computeNormals</text>
</a>
</g>
</g>
<!-- Node1&#45;&gt;Node3 -->
<g id="edge2_Node000001_Node000003" class="edge">
<title>Node1&#45;&gt;Node3</title>
<g id="a_edge2_Node000001_Node000003"><a xlink:title=" ">
<path fill="none" stroke="#63b8ff" d="M672.59,-93.83C664.19,-94.74 655.69,-95.66 647.32,-96.56"/>
<polygon fill="#63b8ff" stroke="#63b8ff" points="673.21,-97.28 682.78,-92.73 672.46,-90.32 673.21,-97.28"/>
</a>
</g>
</g>
<!-- Node4 -->
<g id="Node000004" class="node">
<title>Node4</title>
<g id="a_Node000004"><a xlink:href="classG3D_1_1MeshAlg.html#a1db0b75590f1536188088497c4277230" target="_top" xlink:title=" ">
<polygon fill="white" stroke="#666666" points="645.5,-78 472.5,-78 472.5,-48 645.5,-48 645.5,-78"/>
<text text-anchor="start" x="480.5" y="-66" font-family="Helvetica,sans-Serif" font-size="10.00">G3D::MeshAlg::computeTangent</text>
<text text-anchor="middle" x="559" y="-55" font-family="Helvetica,sans-Serif" font-size="10.00">SpaceBasis</text>
</a>
</g>
</g>
<!-- Node1&#45;&gt;Node4 -->
<g id="edge3_Node000001_Node000004" class="edge">
<title>Node1&#45;&gt;Node4</title>
<g id="a_edge3_Node000001_Node000004"><a xlink:title=" ">
<path fill="none" stroke="#63b8ff" d="M672.69,-74.63C663.69,-73.7 654.58,-72.76 645.64,-71.84"/>
<polygon fill="#63b8ff" stroke="#63b8ff" points="672.47,-78.13 682.78,-75.67 673.19,-71.16 672.47,-78.13"/>
</a>
</g>
</g>
<!-- Node5 -->
<g id="Node000005" class="node">
<title>Node5</title>
<g id="a_Node000005"><a xlink:href="classG3D_1_1__internal_1_1WeldHelper.html#aa0edc51998000d2a3196ae5d179bf42f" target="_top" xlink:title=" ">
<polygon fill="white" stroke="#666666" points="633.5,-30 484.5,-30 484.5,0 633.5,0 633.5,-30"/>
<text text-anchor="start" x="492.5" y="-18" font-family="Helvetica,sans-Serif" font-size="10.00">G3D::_internal::WeldHelper</text>
<text text-anchor="middle" x="559" y="-7" font-family="Helvetica,sans-Serif" font-size="10.00">::smoothNormals</text>
</a>
</g>
</g>
<!-- Node1&#45;&gt;Node5 -->
<g id="edge4_Node000001_Node000005" class="edge">
<title>Node1&#45;&gt;Node5</title>
<g id="a_edge4_Node000001_Node000005"><a xlink:title=" ">
<path fill="none" stroke="#63b8ff" d="M731.17,-70.52C707.96,-61.08 675.82,-48.52 647,-39 637.63,-35.91 627.6,-32.88 617.8,-30.08"/>
<polygon fill="#63b8ff" stroke="#63b8ff" points="729.96,-73.8 740.54,-74.35 732.61,-67.32 729.96,-73.8"/>
</a>
</g>
</g>
<!-- Node6 -->
<g id="Node000006" class="node">
<title>Node6</title>
<g id="a_Node000006"><a xlink:href="classG3D_1_1__internal_1_1WeldHelper.html#a2ffd731a7033397397494f19a0cc9922" target="_top" xlink:title=" ">
<polygon fill="white" stroke="#666666" points="435,-30 286,-30 286,0 435,0 435,-30"/>
<text text-anchor="start" x="294" y="-18" font-family="Helvetica,sans-Serif" font-size="10.00">G3D::_internal::WeldHelper</text>
<text text-anchor="middle" x="360.5" y="-7" font-family="Helvetica,sans-Serif" font-size="10.00">::process</text>
</a>
</g>
</g>
<!-- Node5&#45;&gt;Node6 -->
<g id="edge5_Node000005_Node000006" class="edge">
<title>Node5&#45;&gt;Node6</title>
<g id="a_edge5_Node000005_Node000006"><a xlink:title=" ">
<path fill="none" stroke="#63b8ff" d="M474.03,-15C461.16,-15 447.95,-15 435.31,-15"/>
<polygon fill="#63b8ff" stroke="#63b8ff" points="474.27,-18.5 484.27,-15 474.27,-11.5 474.27,-18.5"/>
</a>
</g>
</g>
<!-- Node7 -->
<g id="Node000007" class="node">
<title>Node7</title>
<g id="a_Node000007"><a xlink:href="classG3D_1_1Welder.html#ac2c1ee3422214dcabda35bea9052e4c0" target="_top" xlink:title=" ">
<polygon fill="white" stroke="#666666" points="250,-24.5 143,-24.5 143,-5.5 250,-5.5 250,-24.5"/>
<text text-anchor="middle" x="196.5" y="-12.5" font-family="Helvetica,sans-Serif" font-size="10.00">G3D::Welder::weld</text>
</a>
</g>
</g>
<!-- Node6&#45;&gt;Node7 -->
<g id="edge6_Node000006_Node000007" class="edge">
<title>Node6&#45;&gt;Node7</title>
<g id="a_edge6_Node000006_Node000007"><a xlink:title=" ">
<path fill="none" stroke="#63b8ff" d="M275.59,-15C267.05,-15 258.55,-15 250.47,-15"/>
<polygon fill="#63b8ff" stroke="#63b8ff" points="275.61,-18.5 285.61,-15 275.61,-11.5 275.61,-18.5"/>
</a>
</g>
</g>
<!-- Node8 -->
<g id="Node000008" class="node">
<title>Node8</title>
<g id="a_Node000008"><a xlink:href="classG3D_1_1Welder.html#a0379234936b0424a85df50baf62fd7ed" target="_top" xlink:title=" ">
<polygon fill="white" stroke="#666666" points="107,-24.5 0,-24.5 0,-5.5 107,-5.5 107,-24.5"/>
<text text-anchor="middle" x="53.5" y="-12.5" font-family="Helvetica,sans-Serif" font-size="10.00">G3D::Welder::weld</text>
</a>
</g>
</g>
<!-- Node7&#45;&gt;Node8 -->
<g id="edge7_Node000007_Node000008" class="edge">
<title>Node7&#45;&gt;Node8</title>
<g id="a_edge7_Node000007_Node000008"><a xlink:title=" ">
<path fill="none" stroke="#63b8ff" d="M132.95,-15C124.3,-15 115.49,-15 107.05,-15"/>
<polygon fill="#63b8ff" stroke="#63b8ff" points="133,-18.5 143,-15 133,-11.5 133,-18.5"/>
</a>
</g>
</g>
</g>
</svg>
