<?xml version="1.0" encoding="UTF-8" standalone="no"?>
<!DOCTYPE svg PUBLIC "-//W3C//DTD SVG 1.1//EN"
 "http://www.w3.org/Graphics/SVG/1.1/DTD/svg11.dtd">
<!-- Generated by graphviz version 2.43.0 (0)
 -->
<!-- Title: MySQLDataStore::loadItemSetLinkedSetBonusTable Pages: 1 -->
<svg width="503pt" height="120pt"
 viewBox="0.00 0.00 503.00 120.00" xmlns="http://www.w3.org/2000/svg" xmlns:xlink="http://www.w3.org/1999/xlink">
<g id="graph0" class="graph" transform="scale(1 1) rotate(0) translate(4 116)">
<title>MySQLDataStore::loadItemSetLinkedSetBonusTable</title>
<!-- Node1 -->
<g id="Node000001" class="node">
<title>Node1</title>
<g id="a_Node000001"><a xlink:title=" ">
<polygon fill="#999999" stroke="#666666" points="149,-61.5 0,-61.5 0,-31.5 149,-31.5 149,-61.5"/>
<text text-anchor="start" x="8" y="-49.5" font-family="Helvetica,sans-Serif" font-size="10.00">MySQLDataStore::loadItem</text>
<text text-anchor="middle" x="74.5" y="-38.5" font-family="Helvetica,sans-Serif" font-size="10.00">SetLinkedSetBonusTable</text>
</a>
</g>
</g>
<!-- Node2 -->
<g id="Node000002" class="node">
<title>Node2</title>
<g id="a_Node000002"><a xlink:href="classField.html#ad9f6b3f4b7ca2de458c03519f793695f" target="_top" xlink:title=" ">
<polygon fill="white" stroke="#666666" points="308,-112 226,-112 226,-93 308,-93 308,-112"/>
<text text-anchor="middle" x="267" y="-100" font-family="Helvetica,sans-Serif" font-size="10.00">Field::asInt32</text>
</a>
</g>
</g>
<!-- Node1&#45;&gt;Node2 -->
<g id="edge1_Node000001_Node000002" class="edge">
<title>Node1&#45;&gt;Node2</title>
<g id="a_edge1_Node000001_Node000002"><a xlink:title=" ">
<path fill="none" stroke="#63b8ff" d="M115.19,-61.51C135.83,-69 161.58,-77.86 185,-84.5 194.87,-87.3 205.53,-89.94 215.76,-92.28"/>
<polygon fill="#63b8ff" stroke="#63b8ff" points="215.28,-95.76 225.81,-94.53 216.81,-88.93 215.28,-95.76"/>
</a>
</g>
</g>
<!-- Node4 -->
<g id="Node000004" class="node">
<title>Node4</title>
<g id="a_Node000004"><a xlink:href="classField.html#a836008605f9952102e95fa9f2b9bedd6" target="_top" xlink:title=" ">
<polygon fill="white" stroke="#666666" points="311.5,-75 222.5,-75 222.5,-56 311.5,-56 311.5,-75"/>
<text text-anchor="middle" x="267" y="-63" font-family="Helvetica,sans-Serif" font-size="10.00">Field::asUint32</text>
</a>
</g>
</g>
<!-- Node1&#45;&gt;Node4 -->
<g id="edge3_Node000001_Node000004" class="edge">
<title>Node1&#45;&gt;Node4</title>
<g id="a_edge3_Node000001_Node000004"><a xlink:title=" ">
<path fill="none" stroke="#63b8ff" d="M149.15,-53.85C170.19,-55.94 192.72,-58.19 212.32,-60.15"/>
<polygon fill="#63b8ff" stroke="#63b8ff" points="211.99,-63.63 222.28,-61.14 212.68,-56.66 211.99,-63.63"/>
</a>
</g>
</g>
<!-- Node6 -->
<g id="Node000006" class="node">
<title>Node6</title>
<g id="a_Node000006"><a xlink:href="namespaceUtil.html#a9a604a54078fde28181624aa02db063d" target="_top" xlink:title="Returns the difference between start_time and now in milliseconds.">
<polygon fill="white" stroke="#666666" points="349,-38 185,-38 185,-19 349,-19 349,-38"/>
<text text-anchor="middle" x="267" y="-26" font-family="Helvetica,sans-Serif" font-size="10.00">Util::GetTimeDifferenceToNow</text>
</a>
</g>
</g>
<!-- Node1&#45;&gt;Node6 -->
<g id="edge5_Node000001_Node000006" class="edge">
<title>Node1&#45;&gt;Node6</title>
<g id="a_edge5_Node000001_Node000006"><a xlink:title=" ">
<path fill="none" stroke="#63b8ff" d="M149.15,-39.54C157.58,-38.74 166.25,-37.93 174.87,-37.11"/>
<polygon fill="#63b8ff" stroke="#63b8ff" points="175.33,-40.58 184.95,-36.16 174.67,-33.61 175.33,-40.58"/>
</a>
</g>
</g>
<!-- Node7 -->
<g id="Node000007" class="node">
<title>Node7</title>
<g id="a_Node000007"><a xlink:href="namespaceUtil.html#aee85a3996bf0f7eb58f931b3d01d3fe7" target="_top" xlink:title="Returns the current point in time.">
<polygon fill="white" stroke="#666666" points="483,-19 397,-19 397,0 483,0 483,-19"/>
<text text-anchor="middle" x="440" y="-7" font-family="Helvetica,sans-Serif" font-size="10.00">Util::TimeNow</text>
</a>
</g>
</g>
<!-- Node1&#45;&gt;Node7 -->
<g id="edge7_Node000001_Node000007" class="edge">
<title>Node1&#45;&gt;Node7</title>
<g id="a_edge7_Node000001_Node000007"><a xlink:title=" ">
<path fill="none" stroke="#63b8ff" d="M110.75,-31.32C131.85,-23.06 159.46,-13.7 185,-9.5 254,1.84 334.98,-0.87 386.62,-4.57"/>
<polygon fill="#63b8ff" stroke="#63b8ff" points="386.63,-8.08 396.86,-5.35 387.15,-1.1 386.63,-8.08"/>
</a>
</g>
</g>
<!-- Node3 -->
<g id="Node000003" class="node">
<title>Node3</title>
<g id="a_Node000003"><a xlink:href="namespaceUtil.html#a495c125a0bada3371ffc298fa0eedc74" target="_top" xlink:title=" ">
<polygon fill="white" stroke="#666666" points="491.5,-112 388.5,-112 388.5,-93 491.5,-93 491.5,-112"/>
<text text-anchor="middle" x="440" y="-100" font-family="Helvetica,sans-Serif" font-size="10.00">Util::stringToInt32</text>
</a>
</g>
</g>
<!-- Node2&#45;&gt;Node3 -->
<g id="edge2_Node000002_Node000003" class="edge">
<title>Node2&#45;&gt;Node3</title>
<g id="a_edge2_Node000002_Node000003"><a xlink:title=" ">
<path fill="none" stroke="#63b8ff" d="M308.09,-102.5C328.99,-102.5 354.98,-102.5 378.29,-102.5"/>
<polygon fill="#63b8ff" stroke="#63b8ff" points="378.43,-106 388.43,-102.5 378.43,-99 378.43,-106"/>
</a>
</g>
</g>
<!-- Node5 -->
<g id="Node000005" class="node">
<title>Node5</title>
<g id="a_Node000005"><a xlink:href="namespaceUtil.html#a51e197070f834900188d69aba878a158" target="_top" xlink:title=" ">
<polygon fill="white" stroke="#666666" points="495,-75 385,-75 385,-56 495,-56 495,-75"/>
<text text-anchor="middle" x="440" y="-63" font-family="Helvetica,sans-Serif" font-size="10.00">Util::stringToUint32</text>
</a>
</g>
</g>
<!-- Node4&#45;&gt;Node5 -->
<g id="edge4_Node000004_Node000005" class="edge">
<title>Node4&#45;&gt;Node5</title>
<g id="a_edge4_Node000004_Node000005"><a xlink:title=" ">
<path fill="none" stroke="#63b8ff" d="M311.59,-65.5C330.73,-65.5 353.58,-65.5 374.61,-65.5"/>
<polygon fill="#63b8ff" stroke="#63b8ff" points="374.77,-69 384.77,-65.5 374.77,-62 374.77,-69"/>
</a>
</g>
</g>
<!-- Node6&#45;&gt;Node7 -->
<g id="edge6_Node000006_Node000007" class="edge">
<title>Node6&#45;&gt;Node7</title>
<g id="a_edge6_Node000006_Node000007"><a xlink:title=" ">
<path fill="none" stroke="#63b8ff" d="M349.24,-19.47C361.91,-18.07 374.69,-16.65 386.49,-15.33"/>
<polygon fill="#63b8ff" stroke="#63b8ff" points="387.03,-18.8 396.58,-14.21 386.25,-11.84 387.03,-18.8"/>
</a>
</g>
</g>
</g>
</svg>
