<?xml version="1.0" encoding="UTF-8" standalone="no"?>
<!DOCTYPE svg PUBLIC "-//W3C//DTD SVG 1.1//EN"
 "http://www.w3.org/Graphics/SVG/1.1/DTD/svg11.dtd">
<!-- Generated by graphviz version 2.43.0 (0)
 -->
<!-- Title: AscEmu/src/shared/CommonFilesystem.hpp Pages: 1 -->
<svg width="1010pt" height="104pt"
 viewBox="0.00 0.00 1010.00 104.00" xmlns="http://www.w3.org/2000/svg" xmlns:xlink="http://www.w3.org/1999/xlink">
<g id="graph0" class="graph" transform="scale(1 1) rotate(0) translate(4 100)">
<title>AscEmu/src/shared/CommonFilesystem.hpp</title>
<!-- Node1 -->
<g id="Node000001" class="node">
<title>Node1</title>
<g id="a_Node000001"><a xlink:title=" ">
<polygon fill="#999999" stroke="#666666" points="562,-96 406,-96 406,-66 562,-66 562,-96"/>
<text text-anchor="start" x="414" y="-84" font-family="Helvetica,sans-Serif" font-size="10.00">AscEmu/src/shared/Common</text>
<text text-anchor="middle" x="484" y="-73" font-family="Helvetica,sans-Serif" font-size="10.00">Filesystem.hpp</text>
</a>
</g>
</g>
<!-- Node2 -->
<g id="Node000002" class="node">
<title>Node2</title>
<g id="a_Node000002"><a xlink:href="AutoPatcher_8cpp.html" target="_top" xlink:title=" ">
<polygon fill="white" stroke="#666666" points="134,-30 0,-30 0,0 134,0 134,-30"/>
<text text-anchor="start" x="8" y="-18" font-family="Helvetica,sans-Serif" font-size="10.00">AscEmu/src/logonserver</text>
<text text-anchor="middle" x="67" y="-7" font-family="Helvetica,sans-Serif" font-size="10.00">/Auth/AutoPatcher.cpp</text>
</a>
</g>
</g>
<!-- Node1&#45;&gt;Node2 -->
<g id="edge1_Node000001_Node000002" class="edge">
<title>Node1&#45;&gt;Node2</title>
<g id="a_edge1_Node000001_Node000002"><a xlink:title=" ">
<path fill="none" stroke="#63b8ff" d="M396.05,-68C327.1,-58.38 228.81,-44.19 143,-30 140.09,-29.52 137.12,-29.02 134.11,-28.5"/>
<polygon fill="#63b8ff" stroke="#63b8ff" points="395.61,-71.48 406,-69.39 396.58,-64.54 395.61,-71.48"/>
</a>
</g>
</g>
<!-- Node3 -->
<g id="Node000003" class="node">
<title>Node3</title>
<g id="a_Node000003"><a xlink:href="LUAEngine_8cpp.html" target="_top" xlink:title=" ">
<polygon fill="white" stroke="#666666" points="298,-30 152,-30 152,0 298,0 298,-30"/>
<text text-anchor="start" x="160" y="-18" font-family="Helvetica,sans-Serif" font-size="10.00">AscEmu/src/scripts</text>
<text text-anchor="middle" x="225" y="-7" font-family="Helvetica,sans-Serif" font-size="10.00">/LuaEngine/LUAEngine.cpp</text>
</a>
</g>
</g>
<!-- Node1&#45;&gt;Node3 -->
<g id="edge2_Node000001_Node000003" class="edge">
<title>Node1&#45;&gt;Node3</title>
<g id="a_edge2_Node000001_Node000003"><a xlink:title=" ">
<path fill="none" stroke="#63b8ff" d="M417.3,-63.52C375.29,-53.14 321.65,-39.88 281.71,-30.01"/>
<polygon fill="#63b8ff" stroke="#63b8ff" points="416.61,-66.95 427.16,-65.95 418.29,-60.16 416.61,-66.95"/>
</a>
</g>
</g>
<!-- Node4 -->
<g id="Node000004" class="node">
<title>Node4</title>
<g id="a_Node000004"><a xlink:href="DatabaseUpdater_8cpp.html" target="_top" xlink:title=" ">
<polygon fill="white" stroke="#666666" points="474,-30 316,-30 316,0 474,0 474,-30"/>
<text text-anchor="start" x="324" y="-18" font-family="Helvetica,sans-Serif" font-size="10.00">AscEmu/src/shared/Database</text>
<text text-anchor="middle" x="395" y="-7" font-family="Helvetica,sans-Serif" font-size="10.00">/DatabaseUpdater.cpp</text>
</a>
</g>
</g>
<!-- Node1&#45;&gt;Node4 -->
<g id="edge3_Node000001_Node000004" class="edge">
<title>Node1&#45;&gt;Node4</title>
<g id="a_edge3_Node000001_Node000004"><a xlink:title=" ">
<path fill="none" stroke="#63b8ff" d="M455.84,-59.75C442.46,-50.13 426.78,-38.86 414.7,-30.16"/>
<polygon fill="#63b8ff" stroke="#63b8ff" points="454.09,-62.8 464.25,-65.8 458.17,-57.12 454.09,-62.8"/>
</a>
</g>
</g>
<!-- Node5 -->
<g id="Node000005" class="node">
<title>Node5</title>
<g id="a_Node000005"><a xlink:href="CrashHandler_8cpp.html" target="_top" xlink:title=" ">
<polygon fill="white" stroke="#666666" points="656,-30 492,-30 492,0 656,0 656,-30"/>
<text text-anchor="start" x="500" y="-18" font-family="Helvetica,sans-Serif" font-size="10.00">AscEmu/src/shared/Debugging</text>
<text text-anchor="middle" x="574" y="-7" font-family="Helvetica,sans-Serif" font-size="10.00">/CrashHandler.cpp</text>
</a>
</g>
</g>
<!-- Node1&#45;&gt;Node5 -->
<g id="edge4_Node000001_Node000005" class="edge">
<title>Node1&#45;&gt;Node5</title>
<g id="a_edge4_Node000001_Node000005"><a xlink:title=" ">
<path fill="none" stroke="#63b8ff" d="M512.47,-59.75C526.01,-50.13 541.86,-38.86 554.08,-30.16"/>
<polygon fill="#63b8ff" stroke="#63b8ff" points="510.1,-57.15 503.97,-65.8 514.15,-62.85 510.1,-57.15"/>
</a>
</g>
</g>
<!-- Node6 -->
<g id="Node000006" class="node">
<title>Node6</title>
<g id="a_Node000006"><a xlink:href="world_2Server_2Master_8cpp.html" target="_top" xlink:title=" ">
<polygon fill="white" stroke="#666666" points="811.5,-30 674.5,-30 674.5,0 811.5,0 811.5,-30"/>
<text text-anchor="start" x="682.5" y="-18" font-family="Helvetica,sans-Serif" font-size="10.00">AscEmu/src/world/Server</text>
<text text-anchor="middle" x="743" y="-7" font-family="Helvetica,sans-Serif" font-size="10.00">/Master.cpp</text>
</a>
</g>
</g>
<!-- Node1&#45;&gt;Node6 -->
<g id="edge5_Node000001_Node000006" class="edge">
<title>Node1&#45;&gt;Node6</title>
<g id="a_edge5_Node000001_Node000006"><a xlink:title=" ">
<path fill="none" stroke="#63b8ff" d="M550.7,-63.52C592.71,-53.14 646.35,-39.88 686.29,-30.01"/>
<polygon fill="#63b8ff" stroke="#63b8ff" points="549.71,-60.16 540.84,-65.95 551.39,-66.95 549.71,-60.16"/>
</a>
</g>
</g>
<!-- Node7 -->
<g id="Node000007" class="node">
<title>Node7</title>
<g id="a_Node000007"><a xlink:href="pchWorld_8hpp.html" target="_top" xlink:title=" ">
<polygon fill="white" stroke="#666666" points="1002,-24.5 830,-24.5 830,-5.5 1002,-5.5 1002,-24.5"/>
<text text-anchor="middle" x="916" y="-12.5" font-family="Helvetica,sans-Serif" font-size="10.00">AscEmu/src/world/pchWorld.hpp</text>
</a>
</g>
</g>
<!-- Node1&#45;&gt;Node7 -->
<g id="edge6_Node000001_Node000007" class="edge">
<title>Node1&#45;&gt;Node7</title>
<g id="a_edge6_Node000001_Node000007"><a xlink:title=" ">
<path fill="none" stroke="#63b8ff" d="M572.19,-66.93C657.74,-54.26 785.07,-35.4 858.37,-24.54"/>
<polygon fill="#63b8ff" stroke="#63b8ff" points="571.61,-63.48 562.23,-68.41 572.64,-70.41 571.61,-63.48"/>
</a>
</g>
</g>
</g>
</svg>
