<?xml version="1.0" encoding="UTF-8" standalone="no"?>
<!DOCTYPE svg PUBLIC "-//W3C//DTD SVG 1.1//EN"
 "http://www.w3.org/Graphics/SVG/1.1/DTD/svg11.dtd">
<!-- Generated by graphviz version 2.43.0 (0)
 -->
<!-- Title: libmpq__decrypt_block Pages: 1 -->
<!--zoomable 113 -->

<svg id="main" version="1.1" xmlns="http://www.w3.org/2000/svg" xmlns:xlink="http://www.w3.org/1999/xlink" xml:space="preserve" onload="init(evt)">
<style type="text/css"><![CDATA[
.node, .edge {opacity: 0.7;}
.node.selected, .edge.selected {opacity: 1;}
.edge:hover path { stroke: red; }
.edge:hover polygon { stroke: red; fill: red; }
]]></style>

<defs>
  <circle id="rim" cx="0" cy="0" r="7"/>
  <circle id="rim2" cx="0" cy="0" r="3.5"/>
  <g id="zoomPlus">
    <use xlink:href="#rim" fill="#404040"><set attributeName="fill" to="#808080" begin="zoomplus.mouseover" end="zoomplus.mouseout"/></use>
    <path d="M-4,0h8M0,-4v8" fill="none" stroke="white" stroke-width="1.5" pointer-events="none"/>
  </g>
  <g id="zoomMin">
    <use xlink:href="#rim" fill="#404040"><set attributeName="fill" to="#808080" begin="zoomminus.mouseover" end="zoomminus.mouseout"/></use>
    <path d="M-4,0h8" fill="none" stroke="white" stroke-width="1.5" pointer-events="none"/>
  </g>
  <g id="arrowUp" transform="translate(30 24)">
    <use xlink:href="#rim"/>
    <path pointer-events="none" fill="none" stroke="white" stroke-width="1.5" d="M0,-3.0v7 M-2.5,-0.5L0,-3.0L2.5,-0.5"/>
  </g>
  <g id="arrowRight" transform="rotate(90) translate(36 -43)">
    <use xlink:href="#rim"/>
    <path pointer-events="none" fill="none" stroke="white" stroke-width="1.5" d="M0,-3.0v7 M-2.5,-0.5L0,-3.0L2.5,-0.5"/>
  </g>
  <g id="arrowDown" transform="rotate(180) translate(-30 -48)">
    <use xlink:href="#rim"/>
    <path pointer-events="none" fill="none" stroke="white" stroke-width="1.5" d="M0,-3.0v7 M-2.5,-0.5L0,-3.0L2.5,-0.5"/>
  </g>
  <g id="arrowLeft" transform="rotate(270) translate(-36 17)">
    <use xlink:href="#rim"/>
    <path pointer-events="none" fill="none" stroke="white" stroke-width="1.5" d="M0,-3.0v7 M-2.5,-0.5L0,-3.0L2.5,-0.5"/>
  </g>
  <g id="resetDef">
    <use xlink:href="#rim2" fill="#404040"><set attributeName="fill" to="#808080" begin="reset.mouseover" end="reset.mouseout"/></use>
  </g>
</defs>
<script type="application/ecmascript">
var viewWidth = 656;
var viewHeight = 113;
var sectionId = 'dynsection-3';
</script>
<script type="application/ecmascript" xlink:href="svg.min.js"/>
<svg id="graph" class="graph">
<g id="viewport">
<title>libmpq__decrypt_block</title>
<!-- Node1 -->
<g id="Node000001" class="node">
<title>Node1</title>
<g id="a_Node000001"><a xlink:title=" ">
<polygon fill="#999999" stroke="#666666" points="648,-62 519,-62 519,-43 648,-43 648,-62"/>
<text text-anchor="middle" x="583.5" y="-50" font-family="Helvetica,sans-Serif" font-size="10.00">libmpq__decrypt_block</text>
</a>
</g>
</g>
<!-- Node2 -->
<g id="Node000002" class="node">
<title>Node2</title>
<g id="a_Node000002"><a xlink:href="mpq_8c.html#a95d01e1984633991a1d1737a71173eb3" target="_top" xlink:title=" ">
<polygon fill="white" stroke="#666666" points="483,-105 357,-105 357,-86 483,-86 483,-105"/>
<text text-anchor="middle" x="420" y="-93" font-family="Helvetica,sans-Serif" font-size="10.00">libmpq__archive_open</text>
</a>
</g>
</g>
<!-- Node1&#45;&gt;Node2 -->
<g id="edge1_Node000001_Node000002" class="edge">
<title>Node1&#45;&gt;Node2</title>
<g id="a_edge1_Node000001_Node000002"><a xlink:title=" ">
<path fill="none" stroke="#63b8ff" d="M536.88,-64.65C511.49,-71.41 480.35,-79.7 456.74,-85.98"/>
<polygon fill="#63b8ff" stroke="#63b8ff" points="537.9,-68 546.66,-62.04 536.09,-61.23 537.9,-68"/>
</a>
</g>
</g>
<!-- Node4 -->
<g id="Node000004" class="node">
<title>Node4</title>
<g id="a_Node000004"><a xlink:href="mpq_8c.html#a77c3f31b4d5a94d74cc6f07f1d360a42" target="_top" xlink:title=" ">
<polygon fill="white" stroke="#666666" points="478,-67.5 362,-67.5 362,-37.5 478,-37.5 478,-67.5"/>
<text text-anchor="start" x="370" y="-55.5" font-family="Helvetica,sans-Serif" font-size="10.00">libmpq__block_open</text>
<text text-anchor="middle" x="420" y="-44.5" font-family="Helvetica,sans-Serif" font-size="10.00">_offset</text>
</a>
</g>
</g>
<!-- Node1&#45;&gt;Node4 -->
<g id="edge3_Node000001_Node000004" class="edge">
<title>Node1&#45;&gt;Node4</title>
<g id="a_edge3_Node000001_Node000004"><a xlink:title=" ">
<path fill="none" stroke="#63b8ff" d="M508.52,-52.5C498.3,-52.5 487.93,-52.5 478.08,-52.5"/>
<polygon fill="#63b8ff" stroke="#63b8ff" points="508.67,-56 518.67,-52.5 508.67,-49 508.67,-56"/>
</a>
</g>
</g>
<!-- Node8 -->
<g id="Node000008" class="node">
<title>Node8</title>
<g id="a_Node000008"><a xlink:href="mpq_8c.html#a99127e3017d6b820e0d50649b1d2c4c2" target="_top" xlink:title=" ">
<polygon fill="white" stroke="#666666" points="477,-19 363,-19 363,0 477,0 477,-19"/>
<text text-anchor="middle" x="420" y="-7" font-family="Helvetica,sans-Serif" font-size="10.00">libmpq__block_read</text>
</a>
</g>
</g>
<!-- Node1&#45;&gt;Node8 -->
<g id="edge7_Node000001_Node000008" class="edge">
<title>Node1&#45;&gt;Node8</title>
<g id="a_edge7_Node000001_Node000008"><a xlink:title=" ">
<path fill="none" stroke="#63b8ff" d="M536.88,-40.35C511.49,-33.59 480.35,-25.3 456.74,-19.02"/>
<polygon fill="#63b8ff" stroke="#63b8ff" points="536.09,-43.77 546.66,-42.96 537.9,-37 536.09,-43.77"/>
</a>
</g>
</g>
<!-- Node3 -->
<g id="Node000003" class="node">
<title>Node3</title>
<g id="a_Node000003"><a xlink:href="classMPQArchive.html#a58d57322334966ca16a22e52e5198d9f" target="_top" xlink:title=" ">
<polygon fill="white" stroke="#666666" points="321,-105 180,-105 180,-86 321,-86 321,-105"/>
<text text-anchor="middle" x="250.5" y="-93" font-family="Helvetica,sans-Serif" font-size="10.00">MPQArchive::MPQArchive</text>
</a>
</g>
</g>
<!-- Node2&#45;&gt;Node3 -->
<g id="edge2_Node000002_Node000003" class="edge">
<title>Node2&#45;&gt;Node3</title>
<g id="a_edge2_Node000002_Node000003"><a xlink:title=" ">
<path fill="none" stroke="#63b8ff" d="M346.51,-95.5C338.12,-95.5 329.59,-95.5 321.25,-95.5"/>
<polygon fill="#63b8ff" stroke="#63b8ff" points="346.63,-99 356.63,-95.5 346.63,-92 346.63,-99"/>
</a>
</g>
</g>
<!-- Node5 -->
<g id="Node000005" class="node">
<title>Node5</title>
<g id="a_Node000005"><a xlink:href="mpq_8c.html#ad8d42f0114b42767fcfff0736319d1b5" target="_top" xlink:title=" ">
<polygon fill="white" stroke="#666666" points="302,-41 199,-41 199,-22 302,-22 302,-41"/>
<text text-anchor="middle" x="250.5" y="-29" font-family="Helvetica,sans-Serif" font-size="10.00">libmpq__file_read</text>
</a>
</g>
</g>
<!-- Node4&#45;&gt;Node5 -->
<g id="edge4_Node000004_Node000005" class="edge">
<title>Node4&#45;&gt;Node5</title>
<g id="a_edge4_Node000004_Node000005"><a xlink:title=" ">
<path fill="none" stroke="#63b8ff" d="M351.69,-44.06C335.2,-41.99 317.82,-39.81 302.25,-37.86"/>
<polygon fill="#63b8ff" stroke="#63b8ff" points="351.47,-47.56 361.82,-45.33 352.34,-40.61 351.47,-47.56"/>
</a>
</g>
</g>
<!-- Node6 -->
<g id="Node000006" class="node">
<title>Node6</title>
<g id="a_Node000006"><a xlink:href="classMPQArchive.html#ab4c34d6f04ea7c9e65c8eb950e3dd712" target="_top" xlink:title=" ">
<polygon fill="white" stroke="#666666" points="144,-60 0,-60 0,-41 144,-41 144,-60"/>
<text text-anchor="middle" x="72" y="-48" font-family="Helvetica,sans-Serif" font-size="10.00">MPQArchive::GetFileListTo</text>
</a>
</g>
</g>
<!-- Node5&#45;&gt;Node6 -->
<g id="edge5_Node000005_Node000006" class="edge">
<title>Node5&#45;&gt;Node6</title>
<g id="a_edge5_Node000005_Node000006"><a xlink:title=" ">
<path fill="none" stroke="#63b8ff" d="M188.72,-38.04C174.41,-39.58 159.03,-41.24 144.3,-42.82"/>
<polygon fill="#63b8ff" stroke="#63b8ff" points="189.35,-41.49 198.92,-36.94 188.6,-34.54 189.35,-41.49"/>
</a>
</g>
</g>
<!-- Node7 -->
<g id="Node000007" class="node">
<title>Node7</title>
<g id="a_Node000007"><a xlink:href="classMPQFile.html#a52b375817a88514d9215330b20367a0a" target="_top" xlink:title=" ">
<polygon fill="white" stroke="#666666" points="123,-23 21,-23 21,-4 123,-4 123,-23"/>
<text text-anchor="middle" x="72" y="-11" font-family="Helvetica,sans-Serif" font-size="10.00">MPQFile::MPQFile</text>
</a>
</g>
</g>
<!-- Node5&#45;&gt;Node7 -->
<g id="edge6_Node000005_Node000007" class="edge">
<title>Node5&#45;&gt;Node7</title>
<g id="a_edge6_Node000005_Node000007"><a xlink:title=" ">
<path fill="none" stroke="#63b8ff" d="M188.96,-25.33C167.56,-23.14 143.74,-20.71 123.28,-18.63"/>
<polygon fill="#63b8ff" stroke="#63b8ff" points="188.62,-28.81 198.92,-26.34 189.33,-21.85 188.62,-28.81"/>
</a>
</g>
</g>
<!-- Node8&#45;&gt;Node5 -->
<g id="edge8_Node000008_Node000005" class="edge">
<title>Node8&#45;&gt;Node5</title>
<g id="a_edge8_Node000008_Node000005"><a xlink:title=" ">
<path fill="none" stroke="#63b8ff" d="M352.49,-18.24C335.76,-20.43 318.06,-22.76 302.24,-24.84"/>
<polygon fill="#63b8ff" stroke="#63b8ff" points="353.3,-21.66 362.76,-16.89 352.39,-14.72 353.3,-21.66"/>
</a>
</g>
</g>
</g>
</svg>

<g id="navigator" transform="translate(0 0)" fill="#404254">
  <rect fill="#f2f5e9" fill-opacity="0.5" stroke="#606060" stroke-width=".5" x="0" y="0" width="60" height="60"/>
  <use id="zoomplus" xlink:href="#zoomPlus" x="17" y="9" onmousedown="handleZoom(evt,'in')"/>
  <use id="zoomminus" xlink:href="#zoomMin" x="42" y="9" onmousedown="handleZoom(evt,'out')"/>
  <use id="reset" xlink:href="#resetDef" x="30" y="36" onmousedown="handleReset()"/>
   <use id="arrowup" xlink:href="#arrowUp" x="0" y="0" onmousedown="handlePan(0,-1)"/>
  <use id="arrowright" xlink:href="#arrowRight" x="0" y="0" onmousedown="handlePan(1,0)"/>
  <use id="arrowdown" xlink:href="#arrowDown" x="0" y="0" onmousedown="handlePan(0,1)"/>
  <use id="arrowleft" xlink:href="#arrowLeft" x="0" y="0" onmousedown="handlePan(-1,0)"/>
</g>
<svg viewBox="0 0 15 15" width="100%" height="30px" preserveAspectRatio="xMaxYMin meet">
 <g id="arrow_out" transform="scale(0.3 0.3)">
  <a xlink:href="common_8c_a99f065914f05dceb09c259edb5519cd2_icgraph_org.svg" target="_base">
   <rect id="button" ry="5" rx="5" y="6" x="6" height="38" width="38"
        fill="#f2f5e9" fill-opacity="0.5" stroke="#606060" stroke-width="1.0"/>
   <path id="arrow"
     d="M 11.500037,31.436501 C 11.940474,20.09759 22.043105,11.32322 32.158766,21.979434 L 37.068811,17.246167 C 37.068811,17.246167 37.088388,32 37.088388,32 L 22.160133,31.978069 C 22.160133,31.978069 26.997745,27.140456 26.997745,27.140456 C 18.528582,18.264221 13.291696,25.230495 11.500037,31.436501 z"
     style="fill:#404040;"/>
  </a>
 </g>
</svg>

<style type='text/css'>
<![CDATA[
[data-mouse-over-selected='false'] { opacity: 0.7; }
[data-mouse-over-selected='true']  { opacity: 1.0; }
]]>
</style>
<script type="application/ecmascript"><![CDATA[
document.addEventListener('DOMContentLoaded', (event) => {
  highlightEdges();
  highlightAdjacentNodes();
});
]]></script>
</svg>
