<?xml version="1.0" encoding="UTF-8" standalone="no"?>
<!DOCTYPE svg PUBLIC "-//W3C//DTD SVG 1.1//EN"
 "http://www.w3.org/Graphics/SVG/1.1/DTD/svg11.dtd">
<!-- Generated by graphviz version 2.43.0 (0)
 -->
<!-- Title: AscEmu/src/shared/Config/Config.h Pages: 1 -->
<!--zoomable 170 -->

<svg id="main" version="1.1" xmlns="http://www.w3.org/2000/svg" xmlns:xlink="http://www.w3.org/1999/xlink" xml:space="preserve" onload="init(evt)">
<style type="text/css"><![CDATA[
.node, .edge {opacity: 0.7;}
.node.selected, .edge.selected {opacity: 1;}
.edge:hover path { stroke: red; }
.edge:hover polygon { stroke: red; fill: red; }
]]></style>

<defs>
  <circle id="rim" cx="0" cy="0" r="7"/>
  <circle id="rim2" cx="0" cy="0" r="3.5"/>
  <g id="zoomPlus">
    <use xlink:href="#rim" fill="#404040"><set attributeName="fill" to="#808080" begin="zoomplus.mouseover" end="zoomplus.mouseout"/></use>
    <path d="M-4,0h8M0,-4v8" fill="none" stroke="white" stroke-width="1.5" pointer-events="none"/>
  </g>
  <g id="zoomMin">
    <use xlink:href="#rim" fill="#404040"><set attributeName="fill" to="#808080" begin="zoomminus.mouseover" end="zoomminus.mouseout"/></use>
    <path d="M-4,0h8" fill="none" stroke="white" stroke-width="1.5" pointer-events="none"/>
  </g>
  <g id="arrowUp" transform="translate(30 24)">
    <use xlink:href="#rim"/>
    <path pointer-events="none" fill="none" stroke="white" stroke-width="1.5" d="M0,-3.0v7 M-2.5,-0.5L0,-3.0L2.5,-0.5"/>
  </g>
  <g id="arrowRight" transform="rotate(90) translate(36 -43)">
    <use xlink:href="#rim"/>
    <path pointer-events="none" fill="none" stroke="white" stroke-width="1.5" d="M0,-3.0v7 M-2.5,-0.5L0,-3.0L2.5,-0.5"/>
  </g>
  <g id="arrowDown" transform="rotate(180) translate(-30 -48)">
    <use xlink:href="#rim"/>
    <path pointer-events="none" fill="none" stroke="white" stroke-width="1.5" d="M0,-3.0v7 M-2.5,-0.5L0,-3.0L2.5,-0.5"/>
  </g>
  <g id="arrowLeft" transform="rotate(270) translate(-36 17)">
    <use xlink:href="#rim"/>
    <path pointer-events="none" fill="none" stroke="white" stroke-width="1.5" d="M0,-3.0v7 M-2.5,-0.5L0,-3.0L2.5,-0.5"/>
  </g>
  <g id="resetDef">
    <use xlink:href="#rim2" fill="#404040"><set attributeName="fill" to="#808080" begin="reset.mouseover" end="reset.mouseout"/></use>
  </g>
</defs>
<script type="application/ecmascript">
var viewWidth = 1476;
var viewHeight = 170;
var sectionId = 'dynsection-1';
</script>
<script type="application/ecmascript" xlink:href="svg.min.js"/>
<svg id="graph" class="graph">
<g id="viewport">
<title>AscEmu/src/shared/Config/Config.h</title>
<!-- Node1 -->
<g id="Node000001" class="node">
<title>Node1</title>
<g id="a_Node000001"><a xlink:title=" ">
<polygon fill="#999999" stroke="#666666" points="916.5,-162 773.5,-162 773.5,-132 916.5,-132 916.5,-162"/>
<text text-anchor="start" x="781.5" y="-150" font-family="Helvetica,sans-Serif" font-size="10.00">AscEmu/src/shared/Config</text>
<text text-anchor="middle" x="845" y="-139" font-family="Helvetica,sans-Serif" font-size="10.00">/Config.h</text>
</a>
</g>
</g>
<!-- Node2 -->
<g id="Node000002" class="node">
<title>Node2</title>
<g id="a_Node000002"><a xlink:href="LogonServerDefines_8hpp.html" target="_top" xlink:title=" ">
<polygon fill="white" stroke="#666666" points="323.5,-96 150.5,-96 150.5,-66 323.5,-66 323.5,-96"/>
<text text-anchor="start" x="158.5" y="-84" font-family="Helvetica,sans-Serif" font-size="10.00">AscEmu/src/logonserver</text>
<text text-anchor="middle" x="237" y="-73" font-family="Helvetica,sans-Serif" font-size="10.00">/Server/LogonServerDefines.hpp</text>
</a>
</g>
</g>
<!-- Node1&#45;&gt;Node2 -->
<g id="edge1_Node000001_Node000002" class="edge">
<title>Node1&#45;&gt;Node2</title>
<g id="a_edge1_Node000001_Node000002"><a xlink:title=" ">
<path fill="none" stroke="#63b8ff" d="M762.98,-138.44C664.21,-129.18 493.34,-112.66 347,-96 339.44,-95.14 331.6,-94.21 323.74,-93.26"/>
<polygon fill="#63b8ff" stroke="#63b8ff" points="762.91,-141.95 773.19,-139.39 763.56,-134.98 762.91,-141.95"/>
</a>
</g>
</g>
<!-- Node5 -->
<g id="Node000005" class="node">
<title>Node5</title>
<g id="a_Node000005"><a xlink:href="pchLogon_8hpp.html" target="_top" xlink:title=" ">
<polygon fill="white" stroke="#666666" points="438,-30 304,-30 304,0 438,0 438,-30"/>
<text text-anchor="start" x="312" y="-18" font-family="Helvetica,sans-Serif" font-size="10.00">AscEmu/src/logonserver</text>
<text text-anchor="middle" x="371" y="-7" font-family="Helvetica,sans-Serif" font-size="10.00">/pchLogon.hpp</text>
</a>
</g>
</g>
<!-- Node1&#45;&gt;Node5 -->
<g id="edge5_Node000001_Node000005" class="edge">
<title>Node1&#45;&gt;Node5</title>
<g id="a_edge5_Node000001_Node000005"><a xlink:title=" ">
<path fill="none" stroke="#63b8ff" d="M763.16,-142.68C636.97,-136.77 406.58,-122.45 380,-96 362.76,-78.85 364.8,-48.05 367.87,-30.09"/>
<polygon fill="#63b8ff" stroke="#63b8ff" points="763.03,-146.18 773.18,-143.15 763.35,-139.19 763.03,-146.18"/>
</a>
</g>
</g>
<!-- Node6 -->
<g id="Node000006" class="node">
<title>Node6</title>
<g id="a_Node000006"><a xlink:href="Config_8cpp.html" target="_top" xlink:title=" ">
<polygon fill="white" stroke="#666666" points="532.5,-96 389.5,-96 389.5,-66 532.5,-66 532.5,-96"/>
<text text-anchor="start" x="397.5" y="-84" font-family="Helvetica,sans-Serif" font-size="10.00">AscEmu/src/shared/Config</text>
<text text-anchor="middle" x="461" y="-73" font-family="Helvetica,sans-Serif" font-size="10.00">/Config.cpp</text>
</a>
</g>
</g>
<!-- Node1&#45;&gt;Node6 -->
<g id="edge6_Node000001_Node000006" class="edge">
<title>Node1&#45;&gt;Node6</title>
<g id="a_edge6_Node000001_Node000006"><a xlink:title=" ">
<path fill="none" stroke="#63b8ff" d="M763.39,-132.71C702.39,-122.73 616.95,-108.66 542,-96 538.9,-95.48 535.74,-94.94 532.55,-94.4"/>
<polygon fill="#63b8ff" stroke="#63b8ff" points="762.91,-136.17 773.35,-134.33 764.04,-129.27 762.91,-136.17"/>
</a>
</g>
</g>
<!-- Node7 -->
<g id="Node000007" class="node">
<title>Node7</title>
<g id="a_Node000007"><a xlink:href="src_2shared_2Logging_2Log_8cpp.html" target="_top" xlink:title=" ">
<polygon fill="white" stroke="#666666" points="701,-96 551,-96 551,-66 701,-66 701,-96"/>
<text text-anchor="start" x="559" y="-84" font-family="Helvetica,sans-Serif" font-size="10.00">AscEmu/src/shared/Logging</text>
<text text-anchor="middle" x="626" y="-73" font-family="Helvetica,sans-Serif" font-size="10.00">/Log.cpp</text>
</a>
</g>
</g>
<!-- Node1&#45;&gt;Node7 -->
<g id="edge7_Node000001_Node000007" class="edge">
<title>Node1&#45;&gt;Node7</title>
<g id="a_edge7_Node000001_Node000007"><a xlink:title=" ">
<path fill="none" stroke="#63b8ff" d="M787.24,-129.12C751.93,-118.8 707.3,-105.76 673.95,-96.01"/>
<polygon fill="#63b8ff" stroke="#63b8ff" points="786.36,-132.51 796.94,-131.95 788.32,-125.79 786.36,-132.51"/>
</a>
</g>
</g>
<!-- Node8 -->
<g id="Node000008" class="node">
<title>Node8</title>
<g id="a_Node000008"><a xlink:href="Logger_8cpp.html" target="_top" xlink:title=" ">
<polygon fill="white" stroke="#666666" points="869,-96 719,-96 719,-66 869,-66 869,-96"/>
<text text-anchor="start" x="727" y="-84" font-family="Helvetica,sans-Serif" font-size="10.00">AscEmu/src/shared/Logging</text>
<text text-anchor="middle" x="794" y="-73" font-family="Helvetica,sans-Serif" font-size="10.00">/Logger.cpp</text>
</a>
</g>
</g>
<!-- Node1&#45;&gt;Node8 -->
<g id="edge8_Node000001_Node000008" class="edge">
<title>Node1&#45;&gt;Node8</title>
<g id="a_edge8_Node000001_Node000008"><a xlink:title=" ">
<path fill="none" stroke="#63b8ff" d="M827.32,-123.81C820.01,-114.64 811.75,-104.28 805.29,-96.16"/>
<polygon fill="#63b8ff" stroke="#63b8ff" points="824.71,-126.16 833.68,-131.8 830.19,-121.79 824.71,-126.16"/>
</a>
</g>
</g>
<!-- Node9 -->
<g id="Node000009" class="node">
<title>Node9</title>
<g id="a_Node000009"><a xlink:href="ConfigMgr_8hpp.html" target="_top" xlink:title=" ">
<polygon fill="white" stroke="#666666" points="1062.5,-96 925.5,-96 925.5,-66 1062.5,-66 1062.5,-96"/>
<text text-anchor="start" x="933.5" y="-84" font-family="Helvetica,sans-Serif" font-size="10.00">AscEmu/src/world/Server</text>
<text text-anchor="middle" x="994" y="-73" font-family="Helvetica,sans-Serif" font-size="10.00">/ConfigMgr.hpp</text>
</a>
</g>
</g>
<!-- Node1&#45;&gt;Node9 -->
<g id="edge9_Node000001_Node000009" class="edge">
<title>Node1&#45;&gt;Node9</title>
<g id="a_edge9_Node000001_Node000009"><a xlink:title=" ">
<path fill="none" stroke="#63b8ff" d="M887.09,-127.92C910.64,-117.8 939.56,-105.38 961.38,-96.01"/>
<polygon fill="#63b8ff" stroke="#63b8ff" points="885.51,-124.79 877.7,-131.95 888.27,-131.22 885.51,-124.79"/>
</a>
</g>
</g>
<!-- Node11 -->
<g id="Node000011" class="node">
<title>Node11</title>
<g id="a_Node000011"><a xlink:href="LogonCommHandler_8cpp.html" target="_top" xlink:title=" ">
<polygon fill="white" stroke="#666666" points="776,-30 544,-30 544,0 776,0 776,-30"/>
<text text-anchor="start" x="552" y="-18" font-family="Helvetica,sans-Serif" font-size="10.00">AscEmu/src/world/Server</text>
<text text-anchor="middle" x="660" y="-7" font-family="Helvetica,sans-Serif" font-size="10.00">/LogonCommClient/LogonCommHandler.cpp</text>
</a>
</g>
</g>
<!-- Node1&#45;&gt;Node11 -->
<g id="edge15_Node000001_Node000011" class="edge">
<title>Node1&#45;&gt;Node11</title>
<g id="a_edge15_Node000001_Node000011"><a xlink:title=" ">
<path fill="none" stroke="#63b8ff" d="M865.59,-123.92C879,-106.8 891.68,-83.17 878,-66 864.42,-48.95 820.84,-37.24 776.17,-29.47"/>
<polygon fill="#63b8ff" stroke="#63b8ff" points="862.78,-121.82 859.06,-131.74 868.15,-126.31 862.78,-121.82"/>
</a>
</g>
</g>
<!-- Node13 -->
<g id="Node000013" class="node">
<title>Node13</title>
<g id="a_Node000013"><a xlink:href="WorldConfig_8cpp.html" target="_top" xlink:title=" ">
<polygon fill="white" stroke="#666666" points="1327.5,-30 1190.5,-30 1190.5,0 1327.5,0 1327.5,-30"/>
<text text-anchor="start" x="1198.5" y="-18" font-family="Helvetica,sans-Serif" font-size="10.00">AscEmu/src/world/Server</text>
<text text-anchor="middle" x="1259" y="-7" font-family="Helvetica,sans-Serif" font-size="10.00">/WorldConfig.cpp</text>
</a>
</g>
</g>
<!-- Node1&#45;&gt;Node13 -->
<g id="edge16_Node000001_Node000013" class="edge">
<title>Node1&#45;&gt;Node13</title>
<g id="a_edge16_Node000001_Node000013"><a xlink:title=" ">
<path fill="none" stroke="#63b8ff" d="M926.63,-137.1C971.19,-130.04 1026.4,-117.61 1072,-96 1091.44,-86.79 1091.08,-76.24 1110,-66 1138.92,-50.35 1173.62,-38.36 1202.26,-30.04"/>
<polygon fill="#63b8ff" stroke="#63b8ff" points="926.08,-133.64 916.72,-138.61 927.13,-140.56 926.08,-133.64"/>
</a>
</g>
</g>
<!-- Node14 -->
<g id="Node000014" class="node">
<title>Node14</title>
<g id="a_Node000014"><a xlink:href="ConsoleListener_8cpp.html" target="_top" xlink:title=" ">
<polygon fill="white" stroke="#666666" points="1277.5,-96 1118.5,-96 1118.5,-66 1277.5,-66 1277.5,-96"/>
<text text-anchor="start" x="1126.5" y="-84" font-family="Helvetica,sans-Serif" font-size="10.00">AscEmu/src/world/Server</text>
<text text-anchor="middle" x="1198" y="-73" font-family="Helvetica,sans-Serif" font-size="10.00">/Console/ConsoleListener.cpp</text>
</a>
</g>
</g>
<!-- Node1&#45;&gt;Node14 -->
<g id="edge14_Node000001_Node000014" class="edge">
<title>Node1&#45;&gt;Node14</title>
<g id="a_edge14_Node000001_Node000014"><a xlink:title=" ">
<path fill="none" stroke="#63b8ff" d="M926.8,-131.17C985.23,-120.58 1063.35,-106.41 1120.73,-96.01"/>
<polygon fill="#63b8ff" stroke="#63b8ff" points="926.08,-127.74 916.86,-132.97 927.32,-134.63 926.08,-127.74"/>
</a>
</g>
</g>
<!-- Node15 -->
<g id="Node000015" class="node">
<title>Node15</title>
<g id="a_Node000015"><a xlink:href="pchWorld_8hpp.html" target="_top" xlink:title=" ">
<polygon fill="white" stroke="#666666" points="1468,-90.5 1296,-90.5 1296,-71.5 1468,-71.5 1468,-90.5"/>
<text text-anchor="middle" x="1382" y="-78.5" font-family="Helvetica,sans-Serif" font-size="10.00">AscEmu/src/world/pchWorld.hpp</text>
</a>
</g>
</g>
<!-- Node1&#45;&gt;Node15 -->
<g id="edge17_Node000001_Node000015" class="edge">
<title>Node1&#45;&gt;Node15</title>
<g id="a_edge17_Node000001_Node000015"><a xlink:title=" ">
<path fill="none" stroke="#63b8ff" d="M926.67,-137.59C1015.46,-128.26 1161.46,-112.35 1287,-96 1299.73,-94.34 1313.4,-92.42 1326.28,-90.53"/>
<polygon fill="#63b8ff" stroke="#63b8ff" points="926.25,-134.12 916.67,-138.64 926.98,-141.08 926.25,-134.12"/>
</a>
</g>
</g>
<!-- Node3 -->
<g id="Node000003" class="node">
<title>Node3</title>
<g id="a_Node000003"><a xlink:href="LogonConfig_8cpp.html" target="_top" xlink:title=" ">
<polygon fill="white" stroke="#666666" points="134,-30 0,-30 0,0 134,0 134,-30"/>
<text text-anchor="start" x="8" y="-18" font-family="Helvetica,sans-Serif" font-size="10.00">AscEmu/src/logonserver</text>
<text text-anchor="middle" x="67" y="-7" font-family="Helvetica,sans-Serif" font-size="10.00">/Server/LogonConfig.cpp</text>
</a>
</g>
</g>
<!-- Node2&#45;&gt;Node3 -->
<g id="edge2_Node000002_Node000003" class="edge">
<title>Node2&#45;&gt;Node3</title>
<g id="a_edge2_Node000002_Node000003"><a xlink:title=" ">
<path fill="none" stroke="#63b8ff" d="M190.04,-62.32C162.99,-52.14 129.45,-39.51 104.22,-30.01"/>
<polygon fill="#63b8ff" stroke="#63b8ff" points="189.1,-65.71 199.69,-65.95 191.57,-59.16 189.1,-65.71"/>
</a>
</g>
</g>
<!-- Node4 -->
<g id="Node000004" class="node">
<title>Node4</title>
<g id="a_Node000004"><a xlink:href="logonserver_2Server_2Master_8cpp.html" target="_top" xlink:title=" ">
<polygon fill="white" stroke="#666666" points="286,-30 152,-30 152,0 286,0 286,-30"/>
<text text-anchor="start" x="160" y="-18" font-family="Helvetica,sans-Serif" font-size="10.00">AscEmu/src/logonserver</text>
<text text-anchor="middle" x="219" y="-7" font-family="Helvetica,sans-Serif" font-size="10.00">/Server/Master.cpp</text>
</a>
</g>
</g>
<!-- Node2&#45;&gt;Node4 -->
<g id="edge3_Node000002_Node000004" class="edge">
<title>Node2&#45;&gt;Node4</title>
<g id="a_edge3_Node000002_Node000004"><a xlink:title=" ">
<path fill="none" stroke="#63b8ff" d="M230.28,-56.11C227.82,-47.38 225.13,-37.78 222.98,-30.16"/>
<polygon fill="#63b8ff" stroke="#63b8ff" points="226.93,-57.12 233.01,-65.8 233.67,-55.22 226.93,-57.12"/>
</a>
</g>
</g>
<!-- Node2&#45;&gt;Node5 -->
<g id="edge4_Node000002_Node000005" class="edge">
<title>Node2&#45;&gt;Node5</title>
<g id="a_edge4_Node000002_Node000005"><a xlink:title=" ">
<path fill="none" stroke="#63b8ff" d="M275.71,-61.51C296.73,-51.47 322.3,-39.26 341.66,-30.01"/>
<polygon fill="#63b8ff" stroke="#63b8ff" points="273.92,-58.49 266.41,-65.95 276.94,-64.8 273.92,-58.49"/>
</a>
</g>
</g>
<!-- Node10 -->
<g id="Node000010" class="node">
<title>Node10</title>
<g id="a_Node000010"><a xlink:href="LogonCommClient_8cpp.html" target="_top" xlink:title=" ">
<polygon fill="white" stroke="#666666" points="1017.5,-30 794.5,-30 794.5,0 1017.5,0 1017.5,-30"/>
<text text-anchor="start" x="802.5" y="-18" font-family="Helvetica,sans-Serif" font-size="10.00">AscEmu/src/world/Server</text>
<text text-anchor="middle" x="906" y="-7" font-family="Helvetica,sans-Serif" font-size="10.00">/LogonCommClient/LogonCommClient.cpp</text>
</a>
</g>
</g>
<!-- Node9&#45;&gt;Node10 -->
<g id="edge10_Node000009_Node000010" class="edge">
<title>Node9&#45;&gt;Node10</title>
<g id="a_edge10_Node000009_Node000010"><a xlink:title=" ">
<path fill="none" stroke="#63b8ff" d="M966.16,-59.75C952.93,-50.13 937.43,-38.86 925.48,-30.16"/>
<polygon fill="#63b8ff" stroke="#63b8ff" points="964.32,-62.75 974.47,-65.8 968.44,-57.08 964.32,-62.75"/>
</a>
</g>
</g>
<!-- Node9&#45;&gt;Node11 -->
<g id="edge11_Node000009_Node000011" class="edge">
<title>Node9&#45;&gt;Node11</title>
<g id="a_edge11_Node000009_Node000011"><a xlink:title=" ">
<path fill="none" stroke="#63b8ff" d="M915.14,-64.89C860.09,-54.34 787.14,-40.36 733.34,-30.05"/>
<polygon fill="#63b8ff" stroke="#63b8ff" points="914.72,-68.37 925.2,-66.82 916.04,-61.5 914.72,-68.37"/>
</a>
</g>
</g>
<!-- Node12 -->
<g id="Node000012" class="node">
<title>Node12</title>
<g id="a_Node000012"><a xlink:href="world_2Server_2Master_8cpp.html" target="_top" xlink:title=" ">
<polygon fill="white" stroke="#666666" points="1172.5,-30 1035.5,-30 1035.5,0 1172.5,0 1172.5,-30"/>
<text text-anchor="start" x="1043.5" y="-18" font-family="Helvetica,sans-Serif" font-size="10.00">AscEmu/src/world/Server</text>
<text text-anchor="middle" x="1104" y="-7" font-family="Helvetica,sans-Serif" font-size="10.00">/Master.cpp</text>
</a>
</g>
</g>
<!-- Node9&#45;&gt;Node12 -->
<g id="edge12_Node000009_Node000012" class="edge">
<title>Node9&#45;&gt;Node12</title>
<g id="a_edge12_Node000009_Node000012"><a xlink:title=" ">
<path fill="none" stroke="#63b8ff" d="M1027.18,-60.69C1044.16,-50.82 1064.45,-39.01 1079.92,-30.01"/>
<polygon fill="#63b8ff" stroke="#63b8ff" points="1025.02,-57.9 1018.14,-65.95 1028.54,-63.95 1025.02,-57.9"/>
</a>
</g>
</g>
<!-- Node9&#45;&gt;Node13 -->
<g id="edge13_Node000009_Node000013" class="edge">
<title>Node9&#45;&gt;Node13</title>
<g id="a_edge13_Node000009_Node000013"><a xlink:title=" ">
<path fill="none" stroke="#63b8ff" d="M1061.98,-63.58C1105,-53.19 1160.02,-39.9 1200.98,-30.01"/>
<polygon fill="#63b8ff" stroke="#63b8ff" points="1061.05,-60.21 1052.16,-65.95 1062.7,-67.01 1061.05,-60.21"/>
</a>
</g>
</g>
</g>
</svg>

<g id="navigator" transform="translate(0 0)" fill="#404254">
  <rect fill="#f2f5e9" fill-opacity="0.5" stroke="#606060" stroke-width=".5" x="0" y="0" width="60" height="60"/>
  <use id="zoomplus" xlink:href="#zoomPlus" x="17" y="9" onmousedown="handleZoom(evt,'in')"/>
  <use id="zoomminus" xlink:href="#zoomMin" x="42" y="9" onmousedown="handleZoom(evt,'out')"/>
  <use id="reset" xlink:href="#resetDef" x="30" y="36" onmousedown="handleReset()"/>
   <use id="arrowup" xlink:href="#arrowUp" x="0" y="0" onmousedown="handlePan(0,-1)"/>
  <use id="arrowright" xlink:href="#arrowRight" x="0" y="0" onmousedown="handlePan(1,0)"/>
  <use id="arrowdown" xlink:href="#arrowDown" x="0" y="0" onmousedown="handlePan(0,1)"/>
  <use id="arrowleft" xlink:href="#arrowLeft" x="0" y="0" onmousedown="handlePan(-1,0)"/>
</g>
<svg viewBox="0 0 15 15" width="100%" height="30px" preserveAspectRatio="xMaxYMin meet">
 <g id="arrow_out" transform="scale(0.3 0.3)">
  <a xlink:href="Config_8h__dep__incl_org.svg" target="_base">
   <rect id="button" ry="5" rx="5" y="6" x="6" height="38" width="38"
        fill="#f2f5e9" fill-opacity="0.5" stroke="#606060" stroke-width="1.0"/>
   <path id="arrow"
     d="M 11.500037,31.436501 C 11.940474,20.09759 22.043105,11.32322 32.158766,21.979434 L 37.068811,17.246167 C 37.068811,17.246167 37.088388,32 37.088388,32 L 22.160133,31.978069 C 22.160133,31.978069 26.997745,27.140456 26.997745,27.140456 C 18.528582,18.264221 13.291696,25.230495 11.500037,31.436501 z"
     style="fill:#404040;"/>
  </a>
 </g>
</svg>

<style type='text/css'>
<![CDATA[
[data-mouse-over-selected='false'] { opacity: 0.7; }
[data-mouse-over-selected='true']  { opacity: 1.0; }
]]>
</style>
<script type="application/ecmascript"><![CDATA[
document.addEventListener('DOMContentLoaded', (event) => {
  highlightEdges();
  highlightAdjacentNodes();
});
]]></script>
</svg>
