<?xml version="1.0" encoding="UTF-8" standalone="no"?>
<!DOCTYPE svg PUBLIC "-//W3C//DTD SVG 1.1//EN"
 "http://www.w3.org/Graphics/SVG/1.1/DTD/svg11.dtd">
<!-- Generated by graphviz version 2.43.0 (0)
 -->
<!-- Title: handleShutDownServerCommand Pages: 1 -->
<svg width="714pt" height="1747pt"
 viewBox="0.00 0.00 714.00 1747.00" xmlns="http://www.w3.org/2000/svg" xmlns:xlink="http://www.w3.org/1999/xlink">
<g id="graph0" class="graph" transform="scale(1 1) rotate(0) translate(4 1743)">
<title>handleShutDownServerCommand</title>
<!-- Node1 -->
<g id="Node000001" class="node">
<title>Node1</title>
<g id="a_Node000001"><a xlink:title=" ">
<polygon fill="#999999" stroke="#666666" points="181,-899 0,-899 0,-880 181,-880 181,-899"/>
<text text-anchor="middle" x="90.5" y="-887" font-family="Helvetica,sans-Serif" font-size="10.00">handleShutDownServerCommand</text>
</a>
</g>
</g>
<!-- Node2 -->
<g id="Node000002" class="node">
<title>Node2</title>
<g id="a_Node000002"><a xlink:href="classPlayer.html#aee195158e07a0138b257f8d1ede0cc6b" target="_top" xlink:title=" ">
<polygon fill="white" stroke="#666666" points="508,-1739 401,-1739 401,-1720 508,-1720 508,-1739"/>
<text text-anchor="middle" x="454.5" y="-1727" font-family="Helvetica,sans-Serif" font-size="10.00">Player::getSession</text>
</a>
</g>
</g>
<!-- Node1&#45;&gt;Node2 -->
<g id="edge1_Node000001_Node000002" class="edge">
<title>Node1&#45;&gt;Node2</title>
<g id="a_edge1_Node000001_Node000002"><a xlink:title=" ">
<path fill="none" stroke="#63b8ff" d="M91.38,-899.46C91.06,-976.14 99.35,-1476.09 365,-1711.5 372.32,-1717.98 381.32,-1722.38 390.75,-1725.31"/>
<polygon fill="#63b8ff" stroke="#63b8ff" points="390.12,-1728.77 400.68,-1727.87 391.87,-1721.99 390.12,-1728.77"/>
</a>
</g>
</g>
<!-- Node3 -->
<g id="Node000003" class="node">
<title>Node3</title>
<g id="a_Node000003"><a xlink:href="classPlayer.html#ac6d02fa28675b17645c41e1266aaf94e" target="_top" xlink:title=" ">
<polygon fill="#fff0f0" stroke="red" points="323.5,-899 222.5,-899 222.5,-880 323.5,-880 323.5,-899"/>
<text text-anchor="middle" x="273" y="-887" font-family="Helvetica,sans-Serif" font-size="10.00">Player::saveToDB</text>
</a>
</g>
</g>
<!-- Node1&#45;&gt;Node3 -->
<g id="edge2_Node000001_Node000003" class="edge">
<title>Node1&#45;&gt;Node3</title>
<g id="a_edge2_Node000001_Node000003"><a xlink:title=" ">
<path fill="none" stroke="#63b8ff" d="M181.22,-889.5C191.73,-889.5 202.24,-889.5 212.2,-889.5"/>
<polygon fill="#63b8ff" stroke="#63b8ff" points="212.35,-893 222.35,-889.5 212.35,-886 212.35,-893"/>
</a>
</g>
</g>
<!-- Node99 -->
<g id="Node000099" class="node">
<title>Node99</title>
<g id="a_Node000099"><a xlink:href="classBaseConsole.html#a7fdc25e23611b5c96bc3237fe238fc43" target="_top" xlink:title=" ">
<polygon fill="white" stroke="#666666" points="329,-862 217,-862 217,-843 329,-843 329,-862"/>
<text text-anchor="middle" x="273" y="-850" font-family="Helvetica,sans-Serif" font-size="10.00">BaseConsole::Write</text>
</a>
</g>
</g>
<!-- Node1&#45;&gt;Node99 -->
<g id="edge56_Node000001_Node000099" class="edge">
<title>Node1&#45;&gt;Node99</title>
<g id="a_edge56_Node000001_Node000099"><a xlink:title=" ">
<path fill="none" stroke="#63b8ff" d="M137.98,-879.97C161.58,-875.14 190.44,-869.22 215.32,-864.12"/>
<polygon fill="#63b8ff" stroke="#63b8ff" points="216.27,-867.5 225.36,-862.06 214.86,-860.64 216.27,-867.5"/>
</a>
</g>
</g>
<!-- Node3&#45;&gt;Node2 -->
<g id="edge42_Node000003_Node000002" class="edge">
<title>Node3&#45;&gt;Node2</title>
<g id="a_edge42_Node000003_Node000002"><a xlink:title=" ">
<path fill="none" stroke="#63b8ff" d="M275.36,-899.29C281.86,-946.32 310.28,-1153.87 329,-1324.5 333.71,-1367.43 336.15,-1679.36 365,-1711.5 371.83,-1719.11 380.93,-1724.02 390.7,-1727.09"/>
<polygon fill="#63b8ff" stroke="#63b8ff" points="390.08,-1730.55 400.63,-1729.6 391.79,-1723.76 390.08,-1730.55"/>
</a>
</g>
</g>
<!-- Node4 -->
<g id="Node000004" class="node">
<title>Node4</title>
<g id="a_Node000004"><a xlink:href="classPlayer.html#af06ffc1ec537d0a49c961dd41c437c32" target="_top" xlink:title=" ">
<polygon fill="#fff0f0" stroke="red" points="503.5,-1702 405.5,-1702 405.5,-1683 503.5,-1683 503.5,-1702"/>
<text text-anchor="middle" x="454.5" y="-1690" font-family="Helvetica,sans-Serif" font-size="10.00">Player::_savePet</text>
</a>
</g>
</g>
<!-- Node3&#45;&gt;Node4 -->
<g id="edge3_Node000003_Node000004" class="edge">
<title>Node3&#45;&gt;Node4</title>
<g id="a_edge3_Node000003_Node000004"><a xlink:title=" ">
<path fill="none" stroke="#63b8ff" d="M275.32,-899.29C281.63,-946.35 309.3,-1153.98 329,-1324.5 337.82,-1400.85 315.18,-1609.97 365,-1668.5 372.82,-1677.69 383.76,-1683.54 395.3,-1687.22"/>
<polygon fill="#63b8ff" stroke="#63b8ff" points="394.51,-1690.63 405.07,-1689.83 396.31,-1683.87 394.51,-1690.63"/>
</a>
</g>
</g>
<!-- Node7 -->
<g id="Node000007" class="node">
<title>Node7</title>
<g id="a_Node000007"><a xlink:href="classObject.html#ad4bcb83b6b6f44f83f42dac01b12b339" target="_top" xlink:title=" ">
<polygon fill="#fff0f0" stroke="red" points="699,-1626 587,-1626 587,-1607 699,-1607 699,-1626"/>
<text text-anchor="middle" x="643" y="-1614" font-family="Helvetica,sans-Serif" font-size="10.00">Object::getGuidLow</text>
</a>
</g>
</g>
<!-- Node3&#45;&gt;Node7 -->
<g id="edge32_Node000003_Node000007" class="edge">
<title>Node3&#45;&gt;Node7</title>
<g id="a_edge32_Node000003_Node000007"><a xlink:title=" ">
<path fill="none" stroke="#63b8ff" d="M275.28,-899.3C281.41,-946.37 308.36,-1154.09 329,-1324.5 337.36,-1393.57 313.05,-1589.22 365,-1635.5 434.77,-1697.66 557.72,-1654.78 613.29,-1630.3"/>
<polygon fill="#63b8ff" stroke="#63b8ff" points="614.88,-1633.43 622.55,-1626.12 612,-1627.05 614.88,-1633.43"/>
</a>
</g>
</g>
<!-- Node15 -->
<g id="Node000015" class="node">
<title>Node15</title>
<g id="a_Node000015"><a xlink:href="classPlayer.html#af8649381826e612a4334d160323d72df" target="_top" xlink:title=" ">
<polygon fill="#fff0f0" stroke="red" points="518,-1626 391,-1626 391,-1607 518,-1607 518,-1626"/>
<text text-anchor="middle" x="454.5" y="-1614" font-family="Helvetica,sans-Serif" font-size="10.00">Player::_savePetSpells</text>
</a>
</g>
</g>
<!-- Node3&#45;&gt;Node15 -->
<g id="edge5_Node000003_Node000015" class="edge">
<title>Node3&#45;&gt;Node15</title>
<g id="a_edge5_Node000003_Node000015"><a xlink:title=" ">
<path fill="none" stroke="#63b8ff" d="M275.23,-899.23C285.96,-984.18 363.43,-1596.81 365,-1598.5 369.66,-1603.52 375.31,-1607.34 381.47,-1610.24"/>
<polygon fill="#63b8ff" stroke="#63b8ff" points="380.22,-1613.51 390.81,-1613.86 382.74,-1606.98 380.22,-1613.51"/>
</a>
</g>
</g>
<!-- Node16 -->
<g id="Node000016" class="node">
<title>Node16</title>
<g id="a_Node000016"><a xlink:href="classPlayer.html#a51bb2d9f71b95072eb4990008af30753" target="_top" xlink:title=" ">
<polygon fill="#fff0f0" stroke="red" points="537.5,-1552 371.5,-1552 371.5,-1533 537.5,-1533 537.5,-1552"/>
<text text-anchor="middle" x="454.5" y="-1540" font-family="Helvetica,sans-Serif" font-size="10.00">Player::_savePlayerCooldowns</text>
</a>
</g>
</g>
<!-- Node3&#45;&gt;Node16 -->
<g id="edge7_Node000003_Node000016" class="edge">
<title>Node3&#45;&gt;Node16</title>
<g id="a_edge7_Node000003_Node000016"><a xlink:title=" ">
<path fill="none" stroke="#63b8ff" d="M275.25,-899.18C285.4,-977.59 354.16,-1506.26 365,-1518.5 368.26,-1522.18 372.02,-1525.32 376.11,-1528"/>
<polygon fill="#63b8ff" stroke="#63b8ff" points="374.48,-1531.1 384.93,-1532.87 377.87,-1524.97 374.48,-1531.1"/>
</a>
</g>
</g>
<!-- Node17 -->
<g id="Node000017" class="node">
<title>Node17</title>
<g id="a_Node000017"><a xlink:href="namespaceUtil.html#a15e1eefda0759ccb5e7f818f9574272b" target="_top" xlink:title=" ">
<polygon fill="white" stroke="#666666" points="690.5,-1533 595.5,-1533 595.5,-1514 690.5,-1514 690.5,-1533"/>
<text text-anchor="middle" x="643" y="-1521" font-family="Helvetica,sans-Serif" font-size="10.00">Util::getMSTime</text>
</a>
</g>
</g>
<!-- Node3&#45;&gt;Node17 -->
<g id="edge36_Node000003_Node000017" class="edge">
<title>Node3&#45;&gt;Node17</title>
<g id="a_edge36_Node000003_Node000017"><a xlink:title=" ">
<path fill="none" stroke="#63b8ff" d="M275.18,-899.45C284.23,-975.6 343,-1463.83 365,-1485.5 395.2,-1515.25 513.13,-1522.09 585.02,-1523.44"/>
<polygon fill="#63b8ff" stroke="#63b8ff" points="585.23,-1526.94 595.28,-1523.6 585.34,-1519.94 585.23,-1526.94"/>
</a>
</g>
</g>
<!-- Node18 -->
<g id="Node000018" class="node">
<title>Node18</title>
<g id="a_Node000018"><a xlink:href="classPlayer.html#ad2e8e7b02ecf41195fe305430c55e591" target="_top" xlink:title=" ">
<polygon fill="#fff0f0" stroke="red" points="531,-1589 378,-1589 378,-1570 531,-1570 531,-1589"/>
<text text-anchor="middle" x="454.5" y="-1577" font-family="Helvetica,sans-Serif" font-size="10.00">Player::_saveQuestLogEntry</text>
</a>
</g>
</g>
<!-- Node3&#45;&gt;Node18 -->
<g id="edge10_Node000003_Node000018" class="edge">
<title>Node3&#45;&gt;Node18</title>
<g id="a_edge10_Node000003_Node000018"><a xlink:title=" ">
<path fill="none" stroke="#63b8ff" d="M275.23,-899.16C285.66,-980.99 359.02,-1555.11 365,-1561.5 366.41,-1563 367.9,-1564.4 369.47,-1565.69"/>
<polygon fill="#63b8ff" stroke="#63b8ff" points="367.65,-1568.69 377.89,-1571.37 371.56,-1562.88 367.65,-1568.69"/>
</a>
</g>
</g>
<!-- Node19 -->
<g id="Node000019" class="node">
<title>Node19</title>
<g id="a_Node000019"><a xlink:href="classQueryBuffer.html#a17bd6c58fe15c4bbb0724e4234a8ed52" target="_top" xlink:title=" ">
<polygon fill="white" stroke="#666666" points="526,-1476 383,-1476 383,-1457 526,-1457 526,-1476"/>
<text text-anchor="middle" x="454.5" y="-1464" font-family="Helvetica,sans-Serif" font-size="10.00">QueryBuffer::AddQueryNA</text>
</a>
</g>
</g>
<!-- Node3&#45;&gt;Node19 -->
<g id="edge12_Node000003_Node000019" class="edge">
<title>Node3&#45;&gt;Node19</title>
<g id="a_edge12_Node000003_Node000019"><a xlink:title=" ">
<path fill="none" stroke="#63b8ff" d="M274.93,-899.33C281.75,-970.62 324.96,-1406.86 365,-1448.5 367.66,-1451.26 370.61,-1453.66 373.78,-1455.74"/>
<polygon fill="#63b8ff" stroke="#63b8ff" points="372.18,-1458.85 382.64,-1460.53 375.51,-1452.69 372.18,-1458.85"/>
</a>
</g>
</g>
<!-- Node20 -->
<g id="Node000020" class="node">
<title>Node20</title>
<g id="a_Node000020"><a xlink:href="classWorldSession.html#a1f1da993370f8057991ff448345b6cc3" target="_top" xlink:title=" ">
<polygon fill="white" stroke="#666666" points="531,-1439 378,-1439 378,-1420 531,-1420 531,-1439"/>
<text text-anchor="middle" x="454.5" y="-1427" font-family="Helvetica,sans-Serif" font-size="10.00">WorldSession::GetAccountId</text>
</a>
</g>
</g>
<!-- Node3&#45;&gt;Node20 -->
<g id="edge13_Node000003_Node000020" class="edge">
<title>Node3&#45;&gt;Node20</title>
<g id="a_edge13_Node000003_Node000020"><a xlink:title=" ">
<path fill="none" stroke="#63b8ff" d="M275.02,-899.11C282.33,-967 327.4,-1372.83 365,-1411.5 366.28,-1412.81 367.62,-1414.05 369.03,-1415.2"/>
<polygon fill="#63b8ff" stroke="#63b8ff" points="367.4,-1418.32 377.65,-1420.99 371.3,-1412.51 367.4,-1418.32"/>
</a>
</g>
</g>
<!-- Node21 -->
<g id="Node000021" class="node">
<title>Node21</title>
<g id="a_Node000021"><a xlink:href="classPlayerSpec.html#aad5ef4052f7d6e1dbd3648bce98da7ea" target="_top" xlink:title=" ">
<polygon fill="white" stroke="#666666" points="532,-1402 377,-1402 377,-1383 532,-1383 532,-1402"/>
<text text-anchor="middle" x="454.5" y="-1390" font-family="Helvetica,sans-Serif" font-size="10.00">PlayerSpec::getActionButton</text>
</a>
</g>
</g>
<!-- Node3&#45;&gt;Node21 -->
<g id="edge14_Node000003_Node000021" class="edge">
<title>Node3&#45;&gt;Node21</title>
<g id="a_edge14_Node000003_Node000021"><a xlink:title=" ">
<path fill="none" stroke="#63b8ff" d="M274.39,-899.22C277.11,-961.43 295.11,-1303.55 365,-1374.5 366.1,-1375.62 367.25,-1376.67 368.44,-1377.67"/>
<polygon fill="#63b8ff" stroke="#63b8ff" points="366.67,-1380.7 376.89,-1383.48 370.63,-1374.93 366.67,-1380.7"/>
</a>
</g>
</g>
<!-- Node22 -->
<g id="Node000022" class="node">
<title>Node22</title>
<g id="a_Node000022"><a xlink:href="classPlayer.html#adcf9eeaef9c37be0d201f4b470dd64d0" target="_top" xlink:title=" ">
<polygon fill="white" stroke="#666666" points="534,-1365 375,-1365 375,-1346 534,-1346 534,-1365"/>
<text text-anchor="middle" x="454.5" y="-1353" font-family="Helvetica,sans-Serif" font-size="10.00">Player::getBGEntryInstanceId</text>
</a>
</g>
</g>
<!-- Node3&#45;&gt;Node22 -->
<g id="edge15_Node000003_Node000022" class="edge">
<title>Node3&#45;&gt;Node22</title>
<g id="a_edge15_Node000003_Node000022"><a xlink:title=" ">
<path fill="none" stroke="#63b8ff" d="M274.56,-899.24C278.15,-958.71 300.05,-1272.53 365,-1337.5 365.94,-1338.44 366.91,-1339.33 367.91,-1340.18"/>
<polygon fill="#63b8ff" stroke="#63b8ff" points="365.94,-1343.08 376.14,-1345.96 369.96,-1337.35 365.94,-1343.08"/>
</a>
</g>
</g>
<!-- Node23 -->
<g id="Node000023" class="node">
<title>Node23</title>
<g id="a_Node000023"><a xlink:href="classPlayer.html#af18ebbd472502533b45ae60ac9c08a7a" target="_top" xlink:title=" ">
<polygon fill="white" stroke="#666666" points="524,-1328 385,-1328 385,-1309 524,-1309 524,-1328"/>
<text text-anchor="middle" x="454.5" y="-1316" font-family="Helvetica,sans-Serif" font-size="10.00">Player::getBGEntryMapId</text>
</a>
</g>
</g>
<!-- Node3&#45;&gt;Node23 -->
<g id="edge16_Node000003_Node000023" class="edge">
<title>Node3&#45;&gt;Node23</title>
<g id="a_edge16_Node000003_Node000023"><a xlink:title=" ">
<path fill="none" stroke="#63b8ff" d="M274.74,-899.16C279.26,-955.54 304.93,-1241.46 365,-1300.5 368.14,-1303.59 371.67,-1306.22 375.45,-1308.45"/>
<polygon fill="#63b8ff" stroke="#63b8ff" points="374.15,-1311.71 384.67,-1312.97 377.23,-1305.43 374.15,-1311.71"/>
</a>
</g>
</g>
<!-- Node24 -->
<g id="Node000024" class="node">
<title>Node24</title>
<g id="a_Node000024"><a xlink:href="classPlayer.html#a9c83635bbf0b47bf5bc2adb4a725b1dc" target="_top" xlink:title=" ">
<polygon fill="white" stroke="#666666" points="528.5,-1291 380.5,-1291 380.5,-1272 528.5,-1272 528.5,-1291"/>
<text text-anchor="middle" x="454.5" y="-1279" font-family="Helvetica,sans-Serif" font-size="10.00">Player::getBGEntryPosition</text>
</a>
</g>
</g>
<!-- Node3&#45;&gt;Node24 -->
<g id="edge17_Node000003_Node000024" class="edge">
<title>Node3&#45;&gt;Node24</title>
<g id="a_edge17_Node000003_Node000024"><a xlink:title=" ">
<path fill="none" stroke="#63b8ff" d="M274.98,-899.33C280.56,-953.04 309.88,-1210.43 365,-1263.5 366.98,-1265.4 369.1,-1267.13 371.33,-1268.7"/>
<polygon fill="#63b8ff" stroke="#63b8ff" points="370.05,-1272 380.46,-1273.97 373.55,-1265.94 370.05,-1272"/>
</a>
</g>
</g>
<!-- Node25 -->
<g id="Node000025" class="node">
<title>Node25</title>
<g id="a_Node000025"><a xlink:href="classPlayer.html#a72588655810020fbb330b27feff5d78f" target="_top" xlink:title=" ">
<polygon fill="white" stroke="#666666" points="515,-1254 394,-1254 394,-1235 515,-1235 515,-1254"/>
<text text-anchor="middle" x="454.5" y="-1242" font-family="Helvetica,sans-Serif" font-size="10.00">Player::getBindMapId</text>
</a>
</g>
</g>
<!-- Node3&#45;&gt;Node25 -->
<g id="edge18_Node000003_Node000025" class="edge">
<title>Node3&#45;&gt;Node25</title>
<g id="a_edge18_Node000003_Node000025"><a xlink:title=" ">
<path fill="none" stroke="#63b8ff" d="M275.22,-899.02C281.8,-948.84 314.63,-1179.21 365,-1226.5 370.5,-1231.66 377.06,-1235.52 384.09,-1238.39"/>
<polygon fill="#63b8ff" stroke="#63b8ff" points="383.31,-1241.82 393.9,-1241.7 385.55,-1235.18 383.31,-1241.82"/>
</a>
</g>
</g>
<!-- Node26 -->
<g id="Node000026" class="node">
<title>Node26</title>
<g id="a_Node000026"><a xlink:href="classPlayer.html#a7ccde7699f6008da9d058d0056adba8d" target="_top" xlink:title=" ">
<polygon fill="white" stroke="#666666" points="519.5,-1217 389.5,-1217 389.5,-1198 519.5,-1198 519.5,-1217"/>
<text text-anchor="middle" x="454.5" y="-1205" font-family="Helvetica,sans-Serif" font-size="10.00">Player::getBindPosition</text>
</a>
</g>
</g>
<!-- Node3&#45;&gt;Node26 -->
<g id="edge19_Node000003_Node000026" class="edge">
<title>Node3&#45;&gt;Node26</title>
<g id="a_edge19_Node000003_Node000026"><a xlink:title=" ">
<path fill="none" stroke="#63b8ff" d="M273.67,-899.1C272.81,-940.79 275.25,-1107.8 365,-1189.5 369.38,-1193.49 374.4,-1196.69 379.77,-1199.26"/>
<polygon fill="#63b8ff" stroke="#63b8ff" points="378.5,-1202.52 389.09,-1202.99 381.11,-1196.02 378.5,-1202.52"/>
</a>
</g>
</g>
<!-- Node27 -->
<g id="Node000027" class="node">
<title>Node27</title>
<g id="a_Node000027"><a xlink:href="classPlayer.html#af8ea587228ea1cc0cf06c7beddc94752" target="_top" xlink:title=" ">
<polygon fill="white" stroke="#666666" points="517,-1180 392,-1180 392,-1161 517,-1161 517,-1180"/>
<text text-anchor="middle" x="454.5" y="-1168" font-family="Helvetica,sans-Serif" font-size="10.00">Player::getBindZoneId</text>
</a>
</g>
</g>
<!-- Node3&#45;&gt;Node27 -->
<g id="edge20_Node000003_Node000027" class="edge">
<title>Node3&#45;&gt;Node27</title>
<g id="a_edge20_Node000003_Node000027"><a xlink:title=" ">
<path fill="none" stroke="#63b8ff" d="M274.14,-899.22C275.26,-937.92 284.85,-1082.32 365,-1152.5 369.95,-1156.84 375.67,-1160.24 381.75,-1162.89"/>
<polygon fill="#63b8ff" stroke="#63b8ff" points="380.97,-1166.33 391.57,-1166.47 383.37,-1159.75 380.97,-1166.33"/>
</a>
</g>
</g>
<!-- Node28 -->
<g id="Node000028" class="node">
<title>Node28</title>
<g id="a_Node000028"><a xlink:href="classUnit.html#a533b5c8f1fb379e5408ecf4c8292a9c7" target="_top" xlink:title=" ">
<polygon fill="#fff0f0" stroke="red" points="497,-1143 412,-1143 412,-1124 497,-1124 497,-1143"/>
<text text-anchor="middle" x="454.5" y="-1131" font-family="Helvetica,sans-Serif" font-size="10.00">Unit::getClass</text>
</a>
</g>
</g>
<!-- Node3&#45;&gt;Node28 -->
<g id="edge21_Node000003_Node000028" class="edge">
<title>Node3&#45;&gt;Node28</title>
<g id="a_edge21_Node000003_Node000028"><a xlink:title=" ">
<path fill="none" stroke="#63b8ff" d="M274.74,-899.06C277.97,-934.1 294.14,-1056.5 365,-1115.5 375.27,-1124.05 388.52,-1128.91 401.62,-1131.58"/>
<polygon fill="#63b8ff" stroke="#63b8ff" points="401.12,-1135.04 411.56,-1133.21 402.26,-1128.13 401.12,-1135.04"/>
</a>
</g>
</g>
<!-- Node30 -->
<g id="Node000030" class="node">
<title>Node30</title>
<g id="a_Node000030"><a xlink:href="classPlayer.html#a2c6928cac1332a53caacb9654c7ec64c" target="_top" xlink:title=" ">
<polygon fill="#fff0f0" stroke="red" points="509,-1106 400,-1106 400,-1087 509,-1087 509,-1106"/>
<text text-anchor="middle" x="454.5" y="-1094" font-family="Helvetica,sans-Serif" font-size="10.00">Player::getCoinage</text>
</a>
</g>
</g>
<!-- Node3&#45;&gt;Node30 -->
<g id="edge22_Node000003_Node000030" class="edge">
<title>Node3&#45;&gt;Node30</title>
<g id="a_edge22_Node000003_Node000030"><a xlink:title=" ">
<path fill="none" stroke="#63b8ff" d="M275.58,-899.23C281.23,-930.72 303.5,-1030.63 365,-1078.5 372.27,-1084.16 380.86,-1088.17 389.79,-1090.99"/>
<polygon fill="#63b8ff" stroke="#63b8ff" points="389,-1094.4 399.56,-1093.6 390.81,-1087.63 389,-1094.4"/>
</a>
</g>
</g>
<!-- Node32 -->
<g id="Node000032" class="node">
<title>Node32</title>
<g id="a_Node000032"><a xlink:href="classPlayer.html#aecaca6083166fc2a05b8271a142374ad" target="_top" xlink:title=" ">
<polygon fill="#fff0f0" stroke="red" points="517,-1069 392,-1069 392,-1050 517,-1050 517,-1069"/>
<text text-anchor="middle" x="454.5" y="-1057" font-family="Helvetica,sans-Serif" font-size="10.00">Player::getDrunkValue</text>
</a>
</g>
</g>
<!-- Node3&#45;&gt;Node32 -->
<g id="edge23_Node000003_Node000032" class="edge">
<title>Node3&#45;&gt;Node32</title>
<g id="a_edge23_Node000003_Node000032"><a xlink:title=" ">
<path fill="none" stroke="#63b8ff" d="M276.77,-899.23C285.08,-926.55 312.53,-1004.36 365,-1041.5 370.21,-1045.19 375.99,-1048.15 382.05,-1050.54"/>
<polygon fill="#63b8ff" stroke="#63b8ff" points="381.13,-1053.93 391.73,-1053.83 383.39,-1047.3 381.13,-1053.93"/>
</a>
</g>
</g>
<!-- Node33 -->
<g id="Node000033" class="node">
<title>Node33</title>
<g id="a_Node000033"><a xlink:href="classPlayer.html#a5646745e7e9ac36b22a0ec744e711921" target="_top" xlink:title=" ">
<polygon fill="#fff0f0" stroke="red" points="535,-1032 374,-1032 374,-1013 535,-1013 535,-1032"/>
<text text-anchor="middle" x="454.5" y="-1020" font-family="Helvetica,sans-Serif" font-size="10.00">Player::getEnabledActionBars</text>
</a>
</g>
</g>
<!-- Node3&#45;&gt;Node33 -->
<g id="edge24_Node000003_Node000033" class="edge">
<title>Node3&#45;&gt;Node33</title>
<g id="a_edge24_Node000003_Node000033"><a xlink:title=" ">
<path fill="none" stroke="#63b8ff" d="M278.59,-899.1C289.86,-921.54 321.18,-977.57 365,-1004.5 367.65,-1006.13 370.43,-1007.62 373.29,-1008.97"/>
<polygon fill="#63b8ff" stroke="#63b8ff" points="372.09,-1012.26 382.67,-1012.86 374.77,-1005.8 372.09,-1012.26"/>
</a>
</g>
</g>
<!-- Node34 -->
<g id="Node000034" class="node">
<title>Node34</title>
<g id="a_Node000034"><a xlink:href="classPlayer.html#a3d2638c290e9ae33037259240b560a14" target="_top" xlink:title=" ">
<polygon fill="#fff0f0" stroke="red" points="523,-995 386,-995 386,-976 523,-976 523,-995"/>
<text text-anchor="middle" x="454.5" y="-983" font-family="Helvetica,sans-Serif" font-size="10.00">Player::getExploredZone</text>
</a>
</g>
</g>
<!-- Node3&#45;&gt;Node34 -->
<g id="edge25_Node000003_Node000034" class="edge">
<title>Node3&#45;&gt;Node34</title>
<g id="a_edge25_Node000003_Node000034"><a xlink:title=" ">
<path fill="none" stroke="#63b8ff" d="M282.18,-899.18C296.91,-915.95 329.67,-950.23 365,-967.5 369.07,-969.49 373.35,-971.26 377.74,-972.84"/>
<polygon fill="#63b8ff" stroke="#63b8ff" points="376.9,-976.24 387.49,-975.98 379.05,-969.58 376.9,-976.24"/>
</a>
</g>
</g>
<!-- Node35 -->
<g id="Node000035" class="node">
<title>Node35</title>
<g id="a_Node000035"><a xlink:href="classUnit.html#aab74c46d71788015a5f13f91a80b0f58" target="_top" xlink:title=" ">
<polygon fill="#fff0f0" stroke="red" points="523.5,-958 385.5,-958 385.5,-939 523.5,-939 523.5,-958"/>
<text text-anchor="middle" x="454.5" y="-946" font-family="Helvetica,sans-Serif" font-size="10.00">Unit::getFactionTemplate</text>
</a>
</g>
</g>
<!-- Node3&#45;&gt;Node35 -->
<g id="edge26_Node000003_Node000035" class="edge">
<title>Node3&#45;&gt;Node35</title>
<g id="a_edge26_Node000003_Node000035"><a xlink:title=" ">
<path fill="none" stroke="#63b8ff" d="M292,-899.06C310.02,-908.28 338.78,-922.04 365,-930.5 372.06,-932.78 379.52,-934.82 387.01,-936.65"/>
<polygon fill="#63b8ff" stroke="#63b8ff" points="386.3,-940.08 396.83,-938.93 387.88,-933.26 386.3,-940.08"/>
</a>
</g>
</g>
<!-- Node36 -->
<g id="Node000036" class="node">
<title>Node36</title>
<g id="a_Node000036"><a xlink:href="classPlayer.html#a8c157a025e91c85f3ea0622bcf31c991" target="_top" xlink:title=" ">
<polygon fill="white" stroke="#666666" points="526,-921 383,-921 383,-902 526,-902 526,-921"/>
<text text-anchor="middle" x="454.5" y="-909" font-family="Helvetica,sans-Serif" font-size="10.00">Player::getFinishedDailies</text>
</a>
</g>
</g>
<!-- Node3&#45;&gt;Node36 -->
<g id="edge27_Node000003_Node000036" class="edge">
<title>Node3&#45;&gt;Node36</title>
<g id="a_edge27_Node000003_Node000036"><a xlink:title=" ">
<path fill="none" stroke="#63b8ff" d="M323.52,-895.57C338.73,-897.43 355.89,-899.54 372.63,-901.59"/>
<polygon fill="#63b8ff" stroke="#63b8ff" points="372.62,-905.11 382.97,-902.86 373.47,-898.17 372.62,-905.11"/>
</a>
</g>
</g>
<!-- Node37 -->
<g id="Node000037" class="node">
<title>Node37</title>
<g id="a_Node000037"><a xlink:href="classPlayer.html#a2fb30f1d33bfd375129b2d4c96c91c3d" target="_top" xlink:title=" ">
<polygon fill="#fff0f0" stroke="red" points="544,-883.5 365,-883.5 365,-853.5 544,-853.5 544,-883.5"/>
<text text-anchor="start" x="373" y="-871.5" font-family="Helvetica,sans-Serif" font-size="10.00">Player::getFreePrimaryProfession</text>
<text text-anchor="middle" x="454.5" y="-860.5" font-family="Helvetica,sans-Serif" font-size="10.00">Points</text>
</a>
</g>
</g>
<!-- Node3&#45;&gt;Node37 -->
<g id="edge28_Node000003_Node000037" class="edge">
<title>Node3&#45;&gt;Node37</title>
<g id="a_edge28_Node000003_Node000037"><a xlink:title=" ">
<path fill="none" stroke="#63b8ff" d="M323.52,-883.71C333.38,-882.55 344.04,-881.31 354.88,-880.04"/>
<polygon fill="#63b8ff" stroke="#63b8ff" points="355.35,-883.51 364.87,-878.87 354.53,-876.55 355.35,-883.51"/>
</a>
</g>
</g>
<!-- Node38 -->
<g id="Node000038" class="node">
<title>Node38</title>
<g id="a_Node000038"><a xlink:href="classUnit.html#a64c7f368c3b6015ceccad0bd19720143" target="_top" xlink:title=" ">
<polygon fill="#fff0f0" stroke="red" points="501.5,-835 407.5,-835 407.5,-816 501.5,-816 501.5,-835"/>
<text text-anchor="middle" x="454.5" y="-823" font-family="Helvetica,sans-Serif" font-size="10.00">Unit::getGender</text>
</a>
</g>
</g>
<!-- Node3&#45;&gt;Node38 -->
<g id="edge29_Node000003_Node000038" class="edge">
<title>Node3&#45;&gt;Node38</title>
<g id="a_edge29_Node000003_Node000038"><a xlink:title=" ">
<path fill="none" stroke="#63b8ff" d="M309.03,-879.94C315.82,-877.56 322.76,-874.75 329,-871.5 346.74,-862.27 346.8,-852.79 365,-844.5 375.07,-839.91 386.3,-836.41 397.29,-833.74"/>
<polygon fill="#63b8ff" stroke="#63b8ff" points="398.27,-837.11 407.27,-831.52 396.75,-830.28 398.27,-837.11"/>
</a>
</g>
</g>
<!-- Node39 -->
<g id="Node000039" class="node">
<title>Node39</title>
<g id="a_Node000039"><a xlink:href="classPlayer.html#a51216f967f9c6d463306fc11c32cac19" target="_top" xlink:title=" ">
<polygon fill="#fff0f0" stroke="red" points="503.5,-798 405.5,-798 405.5,-779 503.5,-779 503.5,-798"/>
<text text-anchor="middle" x="454.5" y="-786" font-family="Helvetica,sans-Serif" font-size="10.00">Player::getGlyph</text>
</a>
</g>
</g>
<!-- Node3&#45;&gt;Node39 -->
<g id="edge30_Node000003_Node000039" class="edge">
<title>Node3&#45;&gt;Node39</title>
<g id="a_edge30_Node000003_Node000039"><a xlink:title=" ">
<path fill="none" stroke="#63b8ff" d="M314.86,-879.99C319.94,-877.73 324.81,-874.94 329,-871.5 354.23,-850.79 338.72,-826.86 365,-807.5 373.91,-800.93 384.62,-796.54 395.46,-793.63"/>
<polygon fill="#63b8ff" stroke="#63b8ff" points="396.44,-796.99 405.41,-791.34 394.88,-790.17 396.44,-796.99"/>
</a>
</g>
</g>
<!-- Node40 -->
<g id="Node000040" class="node">
<title>Node40</title>
<g id="a_Node000040"><a xlink:href="classObject.html#a0f6639fef4e90bc57ee1b34a81d6d489" target="_top" xlink:title=" ">
<polygon fill="#fff0f0" stroke="red" points="500.5,-761 408.5,-761 408.5,-742 500.5,-742 500.5,-761"/>
<text text-anchor="middle" x="454.5" y="-749" font-family="Helvetica,sans-Serif" font-size="10.00">Object::getGuid</text>
</a>
</g>
</g>
<!-- Node3&#45;&gt;Node40 -->
<g id="edge31_Node000003_Node000040" class="edge">
<title>Node3&#45;&gt;Node40</title>
<g id="a_edge31_Node000003_Node000040"><a xlink:title=" ">
<path fill="none" stroke="#63b8ff" d="M316.81,-879.96C321.28,-877.72 325.47,-874.94 329,-871.5 363.13,-838.25 329.17,-801.92 365,-770.5 374.23,-762.41 386.07,-757.48 398.06,-754.55"/>
<polygon fill="#63b8ff" stroke="#63b8ff" points="399.01,-757.93 408.12,-752.52 397.63,-751.06 399.01,-757.93"/>
</a>
</g>
</g>
<!-- Node41 -->
<g id="Node000041" class="node">
<title>Node41</title>
<g id="a_Node000041"><a xlink:href="classPlayer.html#a0d789feb80d9a2315d2aba24c75a07a8" target="_top" xlink:title=" ">
<polygon fill="white" stroke="#666666" points="522,-724 387,-724 387,-705 522,-705 522,-724"/>
<text text-anchor="middle" x="454.5" y="-712" font-family="Helvetica,sans-Serif" font-size="10.00">Player::getItemInterface</text>
</a>
</g>
</g>
<!-- Node3&#45;&gt;Node41 -->
<g id="edge33_Node000003_Node000041" class="edge">
<title>Node3&#45;&gt;Node41</title>
<g id="a_edge33_Node000003_Node000041"><a xlink:title=" ">
<path fill="none" stroke="#63b8ff" d="M317.65,-879.97C321.86,-877.72 325.76,-874.94 329,-871.5 372.43,-825.33 319.21,-777.33 365,-733.5 368.64,-730.02 372.76,-727.11 377.17,-724.68"/>
<polygon fill="#63b8ff" stroke="#63b8ff" points="378.97,-727.71 386.6,-720.36 376.05,-721.35 378.97,-727.71"/>
</a>
</g>
</g>
<!-- Node42 -->
<g id="Node000042" class="node">
<title>Node42</title>
<g id="a_Node000042"><a xlink:href="classUnit.html#adfa16ac0ecbefbac2e41e3fb1590a1a5" target="_top" xlink:title=" ">
<polygon fill="#fff0f0" stroke="red" points="497,-687 412,-687 412,-668 497,-668 497,-687"/>
<text text-anchor="middle" x="454.5" y="-675" font-family="Helvetica,sans-Serif" font-size="10.00">Unit::getLevel</text>
</a>
</g>
</g>
<!-- Node3&#45;&gt;Node42 -->
<g id="edge34_Node000003_Node000042" class="edge">
<title>Node3&#45;&gt;Node42</title>
<g id="a_edge34_Node000003_Node000042"><a xlink:title=" ">
<path fill="none" stroke="#63b8ff" d="M318.1,-880C322.18,-877.74 325.92,-874.95 329,-871.5 381.88,-812.26 309.09,-752.89 365,-696.5 374.7,-686.72 388.13,-681.41 401.6,-678.65"/>
<polygon fill="#63b8ff" stroke="#63b8ff" points="402.53,-682.05 411.85,-677.01 401.43,-675.14 402.53,-682.05"/>
</a>
</g>
</g>
<!-- Node43 -->
<g id="Node000043" class="node">
<title>Node43</title>
<g id="a_Node000043"><a xlink:href="classUnit.html#af30acad94319d7d319cf7851f939a15e" target="_top" xlink:title=" ">
<polygon fill="white" stroke="#666666" points="531.5,-650 377.5,-650 377.5,-631 531.5,-631 531.5,-650"/>
<text text-anchor="middle" x="454.5" y="-638" font-family="Helvetica,sans-Serif" font-size="10.00">Unit::getMovementManager</text>
</a>
</g>
</g>
<!-- Node3&#45;&gt;Node43 -->
<g id="edge35_Node000003_Node000043" class="edge">
<title>Node3&#45;&gt;Node43</title>
<g id="a_edge35_Node000003_Node000043"><a xlink:title=" ">
<path fill="none" stroke="#63b8ff" d="M318.48,-879.95C322.43,-877.7 326.05,-874.92 329,-871.5 391.39,-799.11 298.9,-728.53 365,-659.5 366.23,-658.21 367.53,-657 368.88,-655.86"/>
<polygon fill="#63b8ff" stroke="#63b8ff" points="370.97,-658.68 377.2,-650.11 366.98,-652.92 370.97,-658.68"/>
</a>
</g>
</g>
<!-- Node44 -->
<g id="Node000044" class="node">
<title>Node44</title>
<g id="a_Node000044"><a xlink:href="classPlayer.html#ad315a9b30fab89830010098c251220f7" target="_top" xlink:title=" ">
<polygon fill="#fff0f0" stroke="red" points="518.5,-613 390.5,-613 390.5,-594 518.5,-594 518.5,-613"/>
<text text-anchor="middle" x="454.5" y="-601" font-family="Helvetica,sans-Serif" font-size="10.00">Player::getPlayerBytes</text>
</a>
</g>
</g>
<!-- Node3&#45;&gt;Node44 -->
<g id="edge37_Node000003_Node000044" class="edge">
<title>Node3&#45;&gt;Node44</title>
<g id="a_edge37_Node000003_Node000044"><a xlink:title=" ">
<path fill="none" stroke="#63b8ff" d="M318.83,-879.87C322.66,-877.64 326.16,-874.88 329,-871.5 400.95,-785.91 288.66,-704.2 365,-622.5 369.51,-617.68 374.92,-613.93 380.81,-611.02"/>
<polygon fill="#63b8ff" stroke="#63b8ff" points="382.46,-614.13 390.41,-607.13 379.83,-607.64 382.46,-614.13"/>
</a>
</g>
</g>
<!-- Node45 -->
<g id="Node000045" class="node">
<title>Node45</title>
<g id="a_Node000045"><a xlink:href="classPlayer.html#a883a725086517fc121332d57b1831ea1" target="_top" xlink:title=" ">
<polygon fill="#fff0f0" stroke="red" points="521.5,-576 387.5,-576 387.5,-557 521.5,-557 521.5,-576"/>
<text text-anchor="middle" x="454.5" y="-564" font-family="Helvetica,sans-Serif" font-size="10.00">Player::getPlayerBytes2</text>
</a>
</g>
</g>
<!-- Node3&#45;&gt;Node45 -->
<g id="edge38_Node000003_Node000045" class="edge">
<title>Node3&#45;&gt;Node45</title>
<g id="a_edge38_Node000003_Node000045"><a xlink:title=" ">
<path fill="none" stroke="#63b8ff" d="M318.9,-879.93C322.72,-877.68 326.19,-874.91 329,-871.5 410.54,-772.68 278.4,-679.91 365,-585.5 368.78,-581.37 373.23,-578.03 378.08,-575.33"/>
<polygon fill="#63b8ff" stroke="#63b8ff" points="379.57,-578.49 387.18,-571.13 376.64,-572.14 379.57,-578.49"/>
</a>
</g>
</g>
<!-- Node46 -->
<g id="Node000046" class="node">
<title>Node46</title>
<g id="a_Node000046"><a xlink:href="classPlayer.html#aab460b27ee0bee6286ce2a23a3331144" target="_top" xlink:title=" ">
<polygon fill="#fff0f0" stroke="red" points="706,-316 580,-316 580,-297 706,-297 706,-316"/>
<text text-anchor="middle" x="643" y="-304" font-family="Helvetica,sans-Serif" font-size="10.00">Player::getPlayerFlags</text>
</a>
</g>
</g>
<!-- Node3&#45;&gt;Node46 -->
<g id="edge39_Node000003_Node000046" class="edge">
<title>Node3&#45;&gt;Node46</title>
<g id="a_edge39_Node000003_Node000046"><a xlink:title=" ">
<path fill="none" stroke="#63b8ff" d="M318.95,-879.97C322.76,-877.71 326.21,-874.93 329,-871.5 420.13,-759.43 268.28,-655.79 365,-548.5 419.52,-488.02 480.07,-559.92 544,-509.5 604.52,-461.77 629.92,-367.34 638.42,-326.31"/>
<polygon fill="#63b8ff" stroke="#63b8ff" points="641.87,-326.93 640.35,-316.44 635,-325.59 641.87,-326.93"/>
</a>
</g>
</g>
<!-- Node47 -->
<g id="Node000047" class="node">
<title>Node47</title>
<g id="a_Node000047"><a xlink:href="classPlayer.html#a0246cda4524bb74fe378ebf8447e26cc" target="_top" xlink:title=" ">
<polygon fill="#fff0f0" stroke="red" points="510.5,-500 398.5,-500 398.5,-481 510.5,-481 510.5,-500"/>
<text text-anchor="middle" x="454.5" y="-488" font-family="Helvetica,sans-Serif" font-size="10.00">Player::getPvpRank</text>
</a>
</g>
</g>
<!-- Node3&#45;&gt;Node47 -->
<g id="edge40_Node000003_Node000047" class="edge">
<title>Node3&#45;&gt;Node47</title>
<g id="a_edge40_Node000003_Node000047"><a xlink:title=" ">
<path fill="none" stroke="#63b8ff" d="M318.98,-880C322.79,-877.74 326.23,-874.94 329,-871.5 428.96,-747.25 261.87,-636.14 365,-514.5 371.27,-507.11 379.55,-501.88 388.55,-498.19"/>
<polygon fill="#63b8ff" stroke="#63b8ff" points="389.81,-501.46 398.12,-494.89 387.53,-494.84 389.81,-501.46"/>
</a>
</g>
</g>
<!-- Node48 -->
<g id="Node000048" class="node">
<title>Node48</title>
<g id="a_Node000048"><a xlink:href="classUnit.html#aa1a6468c30ebc19a03d2d6ac03ec723e" target="_top" xlink:title=" ">
<polygon fill="#fff0f0" stroke="red" points="496,-463 413,-463 413,-444 496,-444 496,-463"/>
<text text-anchor="middle" x="454.5" y="-451" font-family="Helvetica,sans-Serif" font-size="10.00">Unit::getRace</text>
</a>
</g>
</g>
<!-- Node3&#45;&gt;Node48 -->
<g id="edge41_Node000003_Node000048" class="edge">
<title>Node3&#45;&gt;Node48</title>
<g id="a_edge41_Node000003_Node000048"><a xlink:title=" ">
<path fill="none" stroke="#63b8ff" d="M319.28,-879.87C322.97,-877.63 326.31,-874.88 329,-871.5 384.44,-801.84 305.99,-539.16 365,-472.5 374.56,-461.71 388.63,-456.21 402.75,-453.6"/>
<polygon fill="#63b8ff" stroke="#63b8ff" points="403.56,-457.02 412.98,-452.17 402.59,-450.09 403.56,-457.02"/>
</a>
</g>
</g>
<!-- Node49 -->
<g id="Node000049" class="node">
<title>Node49</title>
<g id="a_Node000049"><a xlink:href="classPlayerSpec.html#aeaa188e2c8383ed0f6cc96eb694ca4fd" target="_top" xlink:title=" ">
<polygon fill="white" stroke="#666666" points="530.5,-426 378.5,-426 378.5,-407 530.5,-407 530.5,-426"/>
<text text-anchor="middle" x="454.5" y="-414" font-family="Helvetica,sans-Serif" font-size="10.00">PlayerSpec::getTalentPoints</text>
</a>
</g>
</g>
<!-- Node3&#45;&gt;Node49 -->
<g id="edge43_Node000003_Node000049" class="edge">
<title>Node3&#45;&gt;Node49</title>
<g id="a_edge43_Node000003_Node000049"><a xlink:title=" ">
<path fill="none" stroke="#63b8ff" d="M319.31,-879.89C322.99,-877.65 326.32,-874.89 329,-871.5 389.25,-795.2 300.83,-508.54 365,-435.5 366.56,-433.73 368.24,-432.09 370.02,-430.59"/>
<polygon fill="#63b8ff" stroke="#63b8ff" points="372.16,-433.37 378.44,-424.83 368.21,-427.6 372.16,-433.37"/>
</a>
</g>
</g>
<!-- Node50 -->
<g id="Node000050" class="node">
<title>Node50</title>
<g id="a_Node000050"><a xlink:href="classPlayerSpec.html#afcbb89e4d7d3764020f36bc9b658d413" target="_top" xlink:title=" ">
<polygon fill="white" stroke="#666666" points="518,-389 391,-389 391,-370 518,-370 518,-389"/>
<text text-anchor="middle" x="454.5" y="-377" font-family="Helvetica,sans-Serif" font-size="10.00">PlayerSpec::getTalents</text>
</a>
</g>
</g>
<!-- Node3&#45;&gt;Node50 -->
<g id="edge44_Node000003_Node000050" class="edge">
<title>Node3&#45;&gt;Node50</title>
<g id="a_edge44_Node000003_Node000050"><a xlink:title=" ">
<path fill="none" stroke="#63b8ff" d="M319.33,-879.91C323.01,-877.66 326.33,-874.9 329,-871.5 394.07,-788.56 295.68,-477.92 365,-398.5 369.58,-393.25 375.23,-389.25 381.44,-386.22"/>
<polygon fill="#63b8ff" stroke="#63b8ff" points="382.9,-389.41 390.89,-382.45 380.3,-382.91 382.9,-389.41"/>
</a>
</g>
</g>
<!-- Node51 -->
<g id="Node000051" class="node">
<title>Node51</title>
<g id="a_Node000051"><a xlink:href="classObject.html#aae1f11effcbda3a541a57bc71c4346ea" target="_top" xlink:title=" ">
<polygon fill="white" stroke="#666666" points="521.5,-352 387.5,-352 387.5,-333 521.5,-333 521.5,-352"/>
<text text-anchor="middle" x="454.5" y="-340" font-family="Helvetica,sans-Serif" font-size="10.00">Object::GetTransOffsetO</text>
</a>
</g>
</g>
<!-- Node3&#45;&gt;Node51 -->
<g id="edge45_Node000003_Node000051" class="edge">
<title>Node3&#45;&gt;Node51</title>
<g id="a_edge45_Node000003_Node000051"><a xlink:title=" ">
<path fill="none" stroke="#63b8ff" d="M319.35,-879.93C323.03,-877.68 326.34,-874.91 329,-871.5 398.88,-781.92 290.52,-447.3 365,-361.5 368.73,-357.2 373.19,-353.73 378.08,-350.96"/>
<polygon fill="#63b8ff" stroke="#63b8ff" points="379.7,-354.06 387.29,-346.66 376.75,-347.71 379.7,-354.06"/>
</a>
</g>
</g>
<!-- Node52 -->
<g id="Node000052" class="node">
<title>Node52</title>
<g id="a_Node000052"><a xlink:href="classObject.html#a494c8560dc045c0ade274bbd3c6dadfb" target="_top" xlink:title=" ">
<polygon fill="white" stroke="#666666" points="521,-315 388,-315 388,-296 521,-296 521,-315"/>
<text text-anchor="middle" x="454.5" y="-303" font-family="Helvetica,sans-Serif" font-size="10.00">Object::GetTransOffsetX</text>
</a>
</g>
</g>
<!-- Node3&#45;&gt;Node52 -->
<g id="edge46_Node000003_Node000052" class="edge">
<title>Node3&#45;&gt;Node52</title>
<g id="a_edge46_Node000003_Node000052"><a xlink:title=" ">
<path fill="none" stroke="#63b8ff" d="M319.36,-879.94C323.04,-877.69 326.35,-874.91 329,-871.5 403.7,-775.27 285.36,-416.68 365,-324.5 368.79,-320.11 373.32,-316.6 378.31,-313.79"/>
<polygon fill="#63b8ff" stroke="#63b8ff" points="380.08,-316.83 387.7,-309.47 377.16,-310.47 380.08,-316.83"/>
</a>
</g>
</g>
<!-- Node53 -->
<g id="Node000053" class="node">
<title>Node53</title>
<g id="a_Node000053"><a xlink:href="classObject.html#a0878a766a9c7241fb4b569849c2a8474" target="_top" xlink:title=" ">
<polygon fill="white" stroke="#666666" points="520.5,-278 388.5,-278 388.5,-259 520.5,-259 520.5,-278"/>
<text text-anchor="middle" x="454.5" y="-266" font-family="Helvetica,sans-Serif" font-size="10.00">Object::GetTransOffsetY</text>
</a>
</g>
</g>
<!-- Node3&#45;&gt;Node53 -->
<g id="edge47_Node000003_Node000053" class="edge">
<title>Node3&#45;&gt;Node53</title>
<g id="a_edge47_Node000003_Node000053"><a xlink:title=" ">
<path fill="none" stroke="#63b8ff" d="M319.38,-879.95C323.05,-877.7 326.36,-874.92 329,-871.5 408.52,-768.63 280.2,-386.07 365,-287.5 368.94,-282.92 373.69,-279.29 378.92,-276.42"/>
<polygon fill="#63b8ff" stroke="#63b8ff" points="380.43,-279.58 388.12,-272.29 377.56,-273.2 380.43,-279.58"/>
</a>
</g>
</g>
<!-- Node54 -->
<g id="Node000054" class="node">
<title>Node54</title>
<g id="a_Node000054"><a xlink:href="classObject.html#aa66c72d70a71d8e1bf4816b4afbff685" target="_top" xlink:title=" ">
<polygon fill="white" stroke="#666666" points="521,-241 388,-241 388,-222 521,-222 521,-241"/>
<text text-anchor="middle" x="454.5" y="-229" font-family="Helvetica,sans-Serif" font-size="10.00">Object::GetTransOffsetZ</text>
</a>
</g>
</g>
<!-- Node3&#45;&gt;Node54 -->
<g id="edge48_Node000003_Node000054" class="edge">
<title>Node3&#45;&gt;Node54</title>
<g id="a_edge48_Node000003_Node000054"><a xlink:title=" ">
<path fill="none" stroke="#63b8ff" d="M319.39,-879.96C323.06,-877.7 326.36,-874.92 329,-871.5 413.34,-761.98 275.04,-355.45 365,-250.5 368.77,-246.1 373.29,-242.57 378.27,-239.76"/>
<polygon fill="#63b8ff" stroke="#63b8ff" points="380.04,-242.8 387.65,-235.43 377.11,-236.44 380.04,-242.8"/>
</a>
</g>
</g>
<!-- Node55 -->
<g id="Node000055" class="node">
<title>Node55</title>
<g id="a_Node000055"><a xlink:href="classObject.html#a67da6a100261d48b78af26ce8144bdb1" target="_top" xlink:title=" ">
<polygon fill="white" stroke="#666666" points="512.5,-204 396.5,-204 396.5,-185 512.5,-185 512.5,-204"/>
<text text-anchor="middle" x="454.5" y="-192" font-family="Helvetica,sans-Serif" font-size="10.00">Object::GetTransport</text>
</a>
</g>
</g>
<!-- Node3&#45;&gt;Node55 -->
<g id="edge49_Node000003_Node000055" class="edge">
<title>Node3&#45;&gt;Node55</title>
<g id="a_edge49_Node000003_Node000055"><a xlink:title=" ">
<path fill="none" stroke="#63b8ff" d="M319.4,-879.97C323.07,-877.71 326.37,-874.93 329,-871.5 418.16,-755.33 269.88,-324.84 365,-213.5 370.78,-206.73 378.35,-202.02 386.61,-198.8"/>
<polygon fill="#63b8ff" stroke="#63b8ff" points="387.71,-202.13 396.19,-195.77 385.6,-195.45 387.71,-202.13"/>
</a>
</g>
</g>
<!-- Node56 -->
<g id="Node000056" class="node">
<title>Node56</title>
<g id="a_Node000056"><a xlink:href="classPlayer.html#a77115f7a26ab6738f36ff68864f790b0" target="_top" xlink:title=" ">
<polygon fill="#fff0f0" stroke="red" points="527.5,-167 381.5,-167 381.5,-148 527.5,-148 527.5,-167"/>
<text text-anchor="middle" x="454.5" y="-155" font-family="Helvetica,sans-Serif" font-size="10.00">Player::getWatchedFaction</text>
</a>
</g>
</g>
<!-- Node3&#45;&gt;Node56 -->
<g id="edge50_Node000003_Node000056" class="edge">
<title>Node3&#45;&gt;Node56</title>
<g id="a_edge50_Node000003_Node000056"><a xlink:title=" ">
<path fill="none" stroke="#63b8ff" d="M319.41,-879.98C323.08,-877.72 326.37,-874.93 329,-871.5 422.98,-748.68 264.72,-294.23 365,-176.5 367.24,-173.87 369.75,-171.55 372.47,-169.51"/>
<polygon fill="#63b8ff" stroke="#63b8ff" points="374.47,-172.39 381.17,-164.18 370.81,-166.42 374.47,-172.39"/>
</a>
</g>
</g>
<!-- Node57 -->
<g id="Node000057" class="node">
<title>Node57</title>
<g id="a_Node000057"><a xlink:href="classPlayer.html#a0fc4576ed0f7cb6ffed6a651e5ae8c6f" target="_top" xlink:title=" ">
<polygon fill="#fff0f0" stroke="red" points="495.5,-130 413.5,-130 413.5,-111 495.5,-111 495.5,-130"/>
<text text-anchor="middle" x="454.5" y="-118" font-family="Helvetica,sans-Serif" font-size="10.00">Player::getXp</text>
</a>
</g>
</g>
<!-- Node3&#45;&gt;Node57 -->
<g id="edge51_Node000003_Node000057" class="edge">
<title>Node3&#45;&gt;Node57</title>
<g id="a_edge51_Node000003_Node000057"><a xlink:title=" ">
<path fill="none" stroke="#63b8ff" d="M319.42,-879.99C323.09,-877.72 326.38,-874.93 329,-871.5 378.46,-806.67 311.87,-200.36 365,-138.5 374.45,-127.49 388.64,-122.09 402.89,-119.68"/>
<polygon fill="#63b8ff" stroke="#63b8ff" points="403.72,-123.11 413.22,-118.42 402.87,-116.16 403.72,-123.11"/>
</a>
</g>
</g>
<!-- Node58 -->
<g id="Node000058" class="node">
<title>Node58</title>
<g id="a_Node000058"><a xlink:href="classPlayer.html#a7bd26f904e888677ae75ff2f53427918" target="_top" xlink:title=" ">
<polygon fill="white" stroke="#666666" points="518.5,-93 390.5,-93 390.5,-74 518.5,-74 518.5,-93"/>
<text text-anchor="middle" x="454.5" y="-81" font-family="Helvetica,sans-Serif" font-size="10.00">Player::hasPlayerFlags</text>
</a>
</g>
</g>
<!-- Node3&#45;&gt;Node58 -->
<g id="edge52_Node000003_Node000058" class="edge">
<title>Node3&#45;&gt;Node58</title>
<g id="a_edge52_Node000003_Node000058"><a xlink:title=" ">
<path fill="none" stroke="#63b8ff" d="M319.43,-879.99C323.09,-877.73 326.38,-874.94 329,-871.5 380.88,-803.35 309.27,-166.54 365,-101.5 369.35,-96.42 374.71,-92.54 380.62,-89.59"/>
<polygon fill="#63b8ff" stroke="#63b8ff" points="382.33,-92.67 390.29,-85.68 379.71,-86.18 382.33,-92.67"/>
</a>
</g>
</g>
<!-- Node59 -->
<g id="Node000059" class="node">
<title>Node59</title>
<g id="a_Node000059"><a xlink:href="classPlayer.html#aa14945cee1161b495209465e112beaca" target="_top" xlink:title=" ">
<polygon fill="white" stroke="#666666" points="524,-56 385,-56 385,-37 524,-37 524,-56"/>
<text text-anchor="middle" x="454.5" y="-44" font-family="Helvetica,sans-Serif" font-size="10.00">Player::hasWonRbgToday</text>
</a>
</g>
</g>
<!-- Node3&#45;&gt;Node59 -->
<g id="edge54_Node000003_Node000059" class="edge">
<title>Node3&#45;&gt;Node59</title>
<g id="a_edge54_Node000003_Node000059"><a xlink:title=" ">
<path fill="none" stroke="#63b8ff" d="M319.44,-880C323.1,-877.73 326.39,-874.94 329,-871.5 383.29,-800.02 306.67,-132.72 365,-64.5 368.12,-60.85 371.76,-57.81 375.76,-55.3"/>
<polygon fill="#63b8ff" stroke="#63b8ff" points="377.68,-58.25 385,-50.59 374.5,-52.01 377.68,-58.25"/>
</a>
</g>
</g>
<!-- Node60 -->
<g id="Node000060" class="node">
<title>Node60</title>
<g id="a_Node000060"><a xlink:href="classBattleground.html#a5b858294888753a276c3ffe6ee9428d3" target="_top" xlink:title=" ">
<polygon fill="white" stroke="#666666" points="515.5,-19 393.5,-19 393.5,0 515.5,0 515.5,-19"/>
<text text-anchor="middle" x="454.5" y="-7" font-family="Helvetica,sans-Serif" font-size="10.00">Battleground::isArena</text>
</a>
</g>
</g>
<!-- Node3&#45;&gt;Node60 -->
<g id="edge55_Node000003_Node000060" class="edge">
<title>Node3&#45;&gt;Node60</title>
<g id="a_edge55_Node000003_Node000060"><a xlink:title=" ">
<path fill="none" stroke="#63b8ff" d="M319.7,-879.84C323.26,-877.61 326.45,-874.86 329,-871.5 385.7,-796.7 304.07,-98.9 365,-27.5 370.15,-21.46 376.73,-17.11 383.96,-14.01"/>
<polygon fill="#63b8ff" stroke="#63b8ff" points="385.12,-17.31 393.42,-10.72 382.83,-10.7 385.12,-17.31"/>
</a>
</g>
</g>
<!-- Node4&#45;&gt;Node7 -->
<g id="edge4_Node000004_Node000007" class="edge">
<title>Node4&#45;&gt;Node7</title>
<g id="a_edge4_Node000004_Node000007"><a xlink:title=" ">
<path fill="none" stroke="#63b8ff" d="M498.44,-1682.91C513.12,-1679.09 529.49,-1674.23 544,-1668.5 570.17,-1658.16 598.39,-1642.69 617.79,-1631.31"/>
<polygon fill="#63b8ff" stroke="#63b8ff" points="619.76,-1634.21 626.56,-1626.09 616.18,-1628.19 619.76,-1634.21"/>
</a>
</g>
</g>
<!-- Node15&#45;&gt;Node7 -->
<g id="edge6_Node000015_Node000007" class="edge">
<title>Node15&#45;&gt;Node7</title>
<g id="a_edge6_Node000015_Node000007"><a xlink:title=" ">
<path fill="none" stroke="#63b8ff" d="M518.12,-1616.5C536.96,-1616.5 557.67,-1616.5 576.68,-1616.5"/>
<polygon fill="#63b8ff" stroke="#63b8ff" points="576.74,-1620 586.74,-1616.5 576.74,-1613 576.74,-1620"/>
</a>
</g>
</g>
<!-- Node16&#45;&gt;Node7 -->
<g id="edge8_Node000016_Node000007" class="edge">
<title>Node16&#45;&gt;Node7</title>
<g id="a_edge8_Node000016_Node000007"><a xlink:title=" ">
<path fill="none" stroke="#63b8ff" d="M512.41,-1552.08C523.07,-1554.61 534,-1557.72 544,-1561.5 571.41,-1571.86 600.4,-1589 619.67,-1601.4"/>
<polygon fill="#63b8ff" stroke="#63b8ff" points="617.77,-1604.33 628.05,-1606.88 621.6,-1598.48 617.77,-1604.33"/>
</a>
</g>
</g>
<!-- Node16&#45;&gt;Node17 -->
<g id="edge9_Node000016_Node000017" class="edge">
<title>Node16&#45;&gt;Node17</title>
<g id="a_edge9_Node000016_Node000017"><a xlink:title=" ">
<path fill="none" stroke="#63b8ff" d="M537.57,-1534.14C553.69,-1532.5 570.26,-1530.81 585.32,-1529.27"/>
<polygon fill="#63b8ff" stroke="#63b8ff" points="585.89,-1532.73 595.48,-1528.24 585.18,-1525.77 585.89,-1532.73"/>
</a>
</g>
</g>
<!-- Node18&#45;&gt;Node7 -->
<g id="edge11_Node000018_Node000007" class="edge">
<title>Node18&#45;&gt;Node7</title>
<g id="a_edge11_Node000018_Node000007"><a xlink:title=" ">
<path fill="none" stroke="#63b8ff" d="M503.53,-1589.03C528.02,-1593.89 557.99,-1599.83 583.78,-1604.95"/>
<polygon fill="#63b8ff" stroke="#63b8ff" points="583.32,-1608.43 593.81,-1606.94 584.68,-1601.56 583.32,-1608.43"/>
</a>
</g>
</g>
<!-- Node58&#45;&gt;Node46 -->
<g id="edge53_Node000058_Node000046" class="edge">
<title>Node58&#45;&gt;Node46</title>
<g id="a_edge53_Node000058_Node000046"><a xlink:title=" ">
<path fill="none" stroke="#63b8ff" d="M518.65,-88.82C527.78,-91.65 536.58,-95.71 544,-101.5 605.53,-149.52 630.49,-245.77 638.65,-287.01"/>
<polygon fill="#63b8ff" stroke="#63b8ff" points="635.22,-287.7 640.49,-296.89 642.1,-286.42 635.22,-287.7"/>
</a>
</g>
</g>
</g>
</svg>
