<?xml version="1.0" encoding="UTF-8" standalone="no"?>
<!DOCTYPE svg PUBLIC "-//W3C//DTD SVG 1.1//EN"
 "http://www.w3.org/Graphics/SVG/1.1/DTD/svg11.dtd">
<!-- Generated by graphviz version 2.43.0 (0)
 -->
<!-- Title: AscEmu/dep/g3dlite/include/G3D/Crypto.h Pages: 1 -->
<svg width="972pt" height="478pt"
 viewBox="0.00 0.00 972.00 478.00" xmlns="http://www.w3.org/2000/svg" xmlns:xlink="http://www.w3.org/1999/xlink">
<g id="graph0" class="graph" transform="scale(1 1) rotate(0) translate(4 474)">
<title>AscEmu/dep/g3dlite/include/G3D/Crypto.h</title>
<!-- Node1 -->
<g id="Node000001" class="node">
<title>Node1</title>
<g id="a_Node000001"><a xlink:title=" ">
<polygon fill="#999999" stroke="#666666" points="241.5,-470 118.5,-470 118.5,-440 241.5,-440 241.5,-470"/>
<text text-anchor="start" x="126.5" y="-458" font-family="Helvetica,sans-Serif" font-size="10.00">AscEmu/dep/g3dlite</text>
<text text-anchor="middle" x="180" y="-447" font-family="Helvetica,sans-Serif" font-size="10.00">/include/G3D/Crypto.h</text>
</a>
</g>
</g>
<!-- Node2 -->
<g id="Node000002" class="node">
<title>Node2</title>
<g id="a_Node000002"><a xlink:href="g3dlite_2include_2G3D_2platform_8h.html" target="_top" xlink:title=" ">
<polygon fill="white" stroke="#666666" points="733,-74 641,-74 641,-55 733,-55 733,-74"/>
<text text-anchor="middle" x="687" y="-62" font-family="Helvetica,sans-Serif" font-size="10.00">G3D/platform.h</text>
</a>
</g>
</g>
<!-- Node1&#45;&gt;Node2 -->
<g id="edge1_Node000001_Node000002" class="edge">
<title>Node1&#45;&gt;Node2</title>
<g id="a_edge1_Node000001_Node000002"><a xlink:title=" ">
<path fill="none" stroke="#63b8ff" d="M241.52,-451.55C426.34,-443.39 964,-413.39 964,-340.5 964,-340.5 964,-340.5 964,-173.5 964,-126.54 824.05,-91.77 743.1,-75.59"/>
<polygon fill="#63b8ff" stroke="#63b8ff" points="743.54,-72.11 733.05,-73.62 742.19,-78.98 743.54,-72.11"/>
</a>
</g>
</g>
<!-- Node4 -->
<g id="Node000004" class="node">
<title>Node4</title>
<g id="a_Node000004"><a xlink:href="g3dmath_8h.html" target="_top" xlink:title=" ">
<polygon fill="white" stroke="#666666" points="458.5,-294 365.5,-294 365.5,-275 458.5,-275 458.5,-294"/>
<text text-anchor="middle" x="412" y="-282" font-family="Helvetica,sans-Serif" font-size="10.00">G3D/g3dmath.h</text>
</a>
</g>
</g>
<!-- Node1&#45;&gt;Node4 -->
<g id="edge3_Node000001_Node000004" class="edge">
<title>Node1&#45;&gt;Node4</title>
<g id="a_edge3_Node000001_Node000004"><a xlink:title=" ">
<path fill="none" stroke="#63b8ff" d="M199.38,-439.92C242.89,-408.33 347.94,-332.03 392.01,-300.02"/>
<polygon fill="#63b8ff" stroke="#63b8ff" points="394.18,-302.77 400.21,-294.06 390.06,-297.11 394.18,-302.77"/>
</a>
</g>
</g>
<!-- Node17 -->
<g id="Node000017" class="node">
<title>Node17</title>
<g id="a_Node000017"><a xlink:title=" ">
<polygon fill="#e0e0e0" stroke="#999999" points="265,-74 221,-74 221,-55 265,-55 265,-74"/>
<text text-anchor="middle" x="243" y="-62" font-family="Helvetica,sans-Serif" font-size="10.00">string</text>
</a>
</g>
</g>
<!-- Node1&#45;&gt;Node17 -->
<g id="edge40_Node000001_Node000017" class="edge">
<title>Node1&#45;&gt;Node17</title>
<g id="a_edge40_Node000001_Node000017"><a xlink:title=" ">
<path fill="none" stroke="#63b8ff" d="M118.31,-441.75C66.2,-427.39 0,-397.86 0,-340.5 0,-340.5 0,-340.5 0,-173.5 0,-82.54 143.94,-67.62 210.26,-65.57"/>
<polygon fill="#63b8ff" stroke="#63b8ff" points="210.66,-69.06 220.57,-65.34 210.5,-62.07 210.66,-69.06"/>
</a>
</g>
</g>
<!-- Node20 -->
<g id="Node000020" class="node">
<title>Node20</title>
<g id="a_Node000020"><a xlink:href="System_8h.html" target="_top" xlink:title=" ">
<polygon fill="white" stroke="#666666" points="412,-404 326,-404 326,-385 412,-385 412,-404"/>
<text text-anchor="middle" x="369" y="-392" font-family="Helvetica,sans-Serif" font-size="10.00">G3D/System.h</text>
</a>
</g>
</g>
<!-- Node1&#45;&gt;Node20 -->
<g id="edge28_Node000001_Node000020" class="edge">
<title>Node1&#45;&gt;Node20</title>
<g id="a_edge28_Node000001_Node000020"><a xlink:title=" ">
<path fill="none" stroke="#63b8ff" d="M225.27,-439.99C257.75,-429.94 300.99,-416.55 331.53,-407.1"/>
<polygon fill="#63b8ff" stroke="#63b8ff" points="332.85,-410.35 341.37,-404.05 330.78,-403.67 332.85,-410.35"/>
</a>
</g>
</g>
<!-- Node3 -->
<g id="Node000003" class="node">
<title>Node3</title>
<g id="a_Node000003"><a xlink:title=" ">
<polygon fill="#e0e0e0" stroke="#999999" points="716,-19 658,-19 658,0 716,0 716,-19"/>
<text text-anchor="middle" x="687" y="-7" font-family="Helvetica,sans-Serif" font-size="10.00">memory</text>
</a>
</g>
</g>
<!-- Node2&#45;&gt;Node3 -->
<g id="edge2_Node000002_Node000003" class="edge">
<title>Node2&#45;&gt;Node3</title>
<g id="a_edge2_Node000002_Node000003"><a xlink:title=" ">
<path fill="none" stroke="#63b8ff" d="M687,-54.75C687,-47.8 687,-37.85 687,-29.13"/>
<polygon fill="#63b8ff" stroke="#63b8ff" points="690.5,-29.09 687,-19.09 683.5,-29.09 690.5,-29.09"/>
</a>
</g>
</g>
<!-- Node4&#45;&gt;Node2 -->
<g id="edge4_Node000004_Node000002" class="edge">
<title>Node4&#45;&gt;Node2</title>
<g id="a_edge4_Node000004_Node000002"><a xlink:title=" ">
<path fill="none" stroke="#63b8ff" d="M458.76,-282.94C529.41,-281 658.24,-272.79 687,-239 724.7,-194.71 705.53,-118.52 693.83,-83.75"/>
<polygon fill="#63b8ff" stroke="#63b8ff" points="697.02,-82.27 690.37,-74.01 690.42,-84.61 697.02,-82.27"/>
</a>
</g>
</g>
<!-- Node5 -->
<g id="Node000005" class="node">
<title>Node5</title>
<g id="a_Node000005"><a xlink:title=" ">
<polygon fill="#e0e0e0" stroke="#999999" points="550.5,-239 497.5,-239 497.5,-220 550.5,-220 550.5,-239"/>
<text text-anchor="middle" x="524" y="-227" font-family="Helvetica,sans-Serif" font-size="10.00">ctype.h</text>
</a>
</g>
</g>
<!-- Node4&#45;&gt;Node5 -->
<g id="edge5_Node000004_Node000005" class="edge">
<title>Node4&#45;&gt;Node5</title>
<g id="a_edge5_Node000004_Node000005"><a xlink:title=" ">
<path fill="none" stroke="#63b8ff" d="M429.99,-274.98C447.93,-266.5 475.72,-253.35 496.43,-243.54"/>
<polygon fill="#63b8ff" stroke="#63b8ff" points="498.14,-246.61 505.68,-239.17 495.14,-240.28 498.14,-246.61"/>
</a>
</g>
</g>
<!-- Node6 -->
<g id="Node000006" class="node">
<title>Node6</title>
<g id="a_Node000006"><a xlink:title=" ">
<polygon fill="#e0e0e0" stroke="#999999" points="615.5,-239 568.5,-239 568.5,-220 615.5,-220 615.5,-239"/>
<text text-anchor="middle" x="592" y="-227" font-family="Helvetica,sans-Serif" font-size="10.00">float.h</text>
</a>
</g>
</g>
<!-- Node4&#45;&gt;Node6 -->
<g id="edge6_Node000004_Node000006" class="edge">
<title>Node4&#45;&gt;Node6</title>
<g id="a_edge6_Node000004_Node000006"><a xlink:title=" ">
<path fill="none" stroke="#63b8ff" d="M440.92,-274.98C472.98,-265.54 524.63,-250.34 558.44,-240.38"/>
<polygon fill="#63b8ff" stroke="#63b8ff" points="559.72,-243.65 568.32,-237.47 557.74,-236.94 559.72,-243.65"/>
</a>
</g>
</g>
<!-- Node7 -->
<g id="Node000007" class="node">
<title>Node7</title>
<g id="a_Node000007"><a xlink:title=" ">
<polygon fill="#e0e0e0" stroke="#999999" points="678,-239 634,-239 634,-220 678,-220 678,-239"/>
<text text-anchor="middle" x="656" y="-227" font-family="Helvetica,sans-Serif" font-size="10.00">limits</text>
</a>
</g>
</g>
<!-- Node4&#45;&gt;Node7 -->
<g id="edge7_Node000004_Node000007" class="edge">
<title>Node4&#45;&gt;Node7</title>
<g id="a_edge7_Node000004_Node000007"><a xlink:title=" ">
<path fill="none" stroke="#63b8ff" d="M457.06,-274.92C498.1,-266.93 560.6,-254.28 623.58,-239.23"/>
<polygon fill="#63b8ff" stroke="#63b8ff" points="624.79,-242.54 633.69,-236.79 623.15,-235.73 624.79,-242.54"/>
</a>
</g>
</g>
<!-- Node8 -->
<g id="Node000008" class="node">
<title>Node8</title>
<g id="a_Node000008"><a xlink:title=" ">
<polygon fill="#e0e0e0" stroke="#999999" points="157.5,-239 104.5,-239 104.5,-220 157.5,-220 157.5,-239"/>
<text text-anchor="middle" x="131" y="-227" font-family="Helvetica,sans-Serif" font-size="10.00">stdlib.h</text>
</a>
</g>
</g>
<!-- Node4&#45;&gt;Node8 -->
<g id="edge8_Node000004_Node000008" class="edge">
<title>Node4&#45;&gt;Node8</title>
<g id="a_edge8_Node000004_Node000008"><a xlink:title=" ">
<path fill="none" stroke="#63b8ff" d="M365.35,-275.77C318.07,-267.77 242.6,-254.55 167.77,-239.07"/>
<polygon fill="#63b8ff" stroke="#63b8ff" points="168.21,-235.58 157.7,-236.97 166.78,-242.43 168.21,-235.58"/>
</a>
</g>
</g>
<!-- Node9 -->
<g id="Node000009" class="node">
<title>Node9</title>
<g id="a_Node000009"><a xlink:title=" ">
<polygon fill="#e0e0e0" stroke="#999999" points="228.5,-239 175.5,-239 175.5,-220 228.5,-220 228.5,-239"/>
<text text-anchor="middle" x="202" y="-227" font-family="Helvetica,sans-Serif" font-size="10.00">stdint.h</text>
</a>
</g>
</g>
<!-- Node4&#45;&gt;Node9 -->
<g id="edge9_Node000004_Node000009" class="edge">
<title>Node4&#45;&gt;Node9</title>
<g id="a_edge9_Node000004_Node000009"><a xlink:title=" ">
<path fill="none" stroke="#63b8ff" d="M378.26,-274.98C339.97,-265.32 277.74,-249.62 238.39,-239.68"/>
<polygon fill="#63b8ff" stroke="#63b8ff" points="239.21,-236.28 228.66,-237.23 237.5,-243.07 239.21,-236.28"/>
</a>
</g>
</g>
<!-- Node10 -->
<g id="Node000010" class="node">
<title>Node10</title>
<g id="a_Node000010"><a xlink:title=" ">
<polygon fill="#e0e0e0" stroke="#999999" points="311.5,-239 246.5,-239 246.5,-220 311.5,-220 311.5,-239"/>
<text text-anchor="middle" x="279" y="-227" font-family="Helvetica,sans-Serif" font-size="10.00">inttypes.h</text>
</a>
</g>
</g>
<!-- Node4&#45;&gt;Node10 -->
<g id="edge10_Node000004_Node000010" class="edge">
<title>Node4&#45;&gt;Node10</title>
<g id="a_edge10_Node000004_Node000010"><a xlink:title=" ">
<path fill="none" stroke="#63b8ff" d="M390.63,-274.98C368.85,-266.3 334.84,-252.75 310.08,-242.88"/>
<polygon fill="#63b8ff" stroke="#63b8ff" points="311.34,-239.62 300.76,-239.17 308.75,-246.12 311.34,-239.62"/>
</a>
</g>
</g>
<!-- Node11 -->
<g id="Node000011" class="node">
<title>Node11</title>
<g id="a_Node000011"><a xlink:title=" ">
<polygon fill="#e0e0e0" stroke="#999999" points="479.5,-239 428.5,-239 428.5,-220 479.5,-220 479.5,-239"/>
<text text-anchor="middle" x="454" y="-227" font-family="Helvetica,sans-Serif" font-size="10.00">math.h</text>
</a>
</g>
</g>
<!-- Node4&#45;&gt;Node11 -->
<g id="edge11_Node000004_Node000011" class="edge">
<title>Node4&#45;&gt;Node11</title>
<g id="a_edge11_Node000004_Node000011"><a xlink:title=" ">
<path fill="none" stroke="#63b8ff" d="M418.94,-274.75C424.87,-267.26 433.57,-256.28 440.82,-247.13"/>
<polygon fill="#63b8ff" stroke="#63b8ff" points="443.73,-249.1 447.19,-239.09 438.24,-244.75 443.73,-249.1"/>
</a>
</g>
</g>
<!-- Node12 -->
<g id="Node000012" class="node">
<title>Node12</title>
<g id="a_Node000012"><a xlink:href="debug_8h.html" target="_top" xlink:title=" ">
<polygon fill="white" stroke="#666666" points="410,-239 330,-239 330,-220 410,-220 410,-239"/>
<text text-anchor="middle" x="370" y="-227" font-family="Helvetica,sans-Serif" font-size="10.00">G3D/debug.h</text>
</a>
</g>
</g>
<!-- Node4&#45;&gt;Node12 -->
<g id="edge12_Node000004_Node000012" class="edge">
<title>Node4&#45;&gt;Node12</title>
<g id="a_edge12_Node000004_Node000012"><a xlink:title=" ">
<path fill="none" stroke="#63b8ff" d="M405.06,-274.75C399.13,-267.26 390.43,-256.28 383.18,-247.13"/>
<polygon fill="#63b8ff" stroke="#63b8ff" points="385.76,-244.75 376.81,-239.09 380.27,-249.1 385.76,-244.75"/>
</a>
</g>
</g>
<!-- Node12&#45;&gt;Node2 -->
<g id="edge13_Node000012_Node000002" class="edge">
<title>Node12&#45;&gt;Node2</title>
<g id="a_edge13_Node000012_Node000002"><a xlink:title=" ">
<path fill="none" stroke="#63b8ff" d="M410.36,-220.56C455.33,-211.35 524.88,-195.9 549,-184 601.41,-158.14 650.17,-107.74 673.16,-81.79"/>
<polygon fill="#63b8ff" stroke="#63b8ff" points="676.02,-83.84 679.94,-74 670.74,-79.25 676.02,-83.84"/>
</a>
</g>
</g>
<!-- Node13 -->
<g id="Node000013" class="node">
<title>Node13</title>
<g id="a_Node000013"><a xlink:href="debugPrintf_8h.html" target="_top" xlink:title=" ">
<polygon fill="white" stroke="#666666" points="539.5,-184 434.5,-184 434.5,-165 539.5,-165 539.5,-184"/>
<text text-anchor="middle" x="487" y="-172" font-family="Helvetica,sans-Serif" font-size="10.00">G3D/debugPrintf.h</text>
</a>
</g>
</g>
<!-- Node12&#45;&gt;Node13 -->
<g id="edge14_Node000012_Node000013" class="edge">
<title>Node12&#45;&gt;Node13</title>
<g id="a_edge14_Node000012_Node000013"><a xlink:title=" ">
<path fill="none" stroke="#63b8ff" d="M388.8,-219.98C407.62,-211.46 436.82,-198.23 458.5,-188.41"/>
<polygon fill="#63b8ff" stroke="#63b8ff" points="460.2,-191.48 467.86,-184.17 457.31,-185.11 460.2,-191.48"/>
</a>
</g>
</g>
<!-- Node18 -->
<g id="Node000018" class="node">
<title>Node18</title>
<g id="a_Node000018"><a xlink:href="debugAssert_8h.html" target="_top" xlink:title=" ">
<polygon fill="white" stroke="#666666" points="424,-129 314,-129 314,-110 424,-110 424,-129"/>
<text text-anchor="middle" x="369" y="-117" font-family="Helvetica,sans-Serif" font-size="10.00">G3D/debugAssert.h</text>
</a>
</g>
</g>
<!-- Node12&#45;&gt;Node18 -->
<g id="edge24_Node000012_Node000018" class="edge">
<title>Node12&#45;&gt;Node18</title>
<g id="a_edge24_Node000012_Node000018"><a xlink:title=" ">
<path fill="none" stroke="#63b8ff" d="M369.92,-219.66C369.76,-202.17 369.39,-162.8 369.17,-139.27"/>
<polygon fill="#63b8ff" stroke="#63b8ff" points="372.67,-139.13 369.08,-129.16 365.67,-139.19 372.67,-139.13"/>
</a>
</g>
</g>
<!-- Node13&#45;&gt;Node2 -->
<g id="edge15_Node000013_Node000002" class="edge">
<title>Node13&#45;&gt;Node2</title>
<g id="a_edge15_Node000013_Node000002"><a xlink:title=" ">
<path fill="none" stroke="#63b8ff" d="M509.38,-164.97C530.38,-156.67 562.45,-143.27 589,-129 616.9,-114 647.25,-93.66 666.67,-80.08"/>
<polygon fill="#63b8ff" stroke="#63b8ff" points="668.87,-82.81 675.02,-74.18 664.83,-77.09 668.87,-82.81"/>
</a>
</g>
</g>
<!-- Node14 -->
<g id="Node000014" class="node">
<title>Node14</title>
<g id="a_Node000014"><a xlink:title=" ">
<polygon fill="#e0e0e0" stroke="#999999" points="500,-74 450,-74 450,-55 500,-55 500,-74"/>
<text text-anchor="middle" x="475" y="-62" font-family="Helvetica,sans-Serif" font-size="10.00">stdio.h</text>
</a>
</g>
</g>
<!-- Node13&#45;&gt;Node14 -->
<g id="edge16_Node000013_Node000014" class="edge">
<title>Node13&#45;&gt;Node14</title>
<g id="a_edge16_Node000013_Node000014"><a xlink:title=" ">
<path fill="none" stroke="#63b8ff" d="M483.14,-164.85C479.44,-156.04 474.11,-141.87 472,-129 469.57,-114.16 470.57,-97.12 472.05,-84.44"/>
<polygon fill="#63b8ff" stroke="#63b8ff" points="475.56,-84.58 473.45,-74.19 468.63,-83.63 475.56,-84.58"/>
</a>
</g>
</g>
<!-- Node15 -->
<g id="Node000015" class="node">
<title>Node15</title>
<g id="a_Node000015"><a xlink:title=" ">
<polygon fill="#e0e0e0" stroke="#999999" points="595.5,-74 542.5,-74 542.5,-55 595.5,-55 595.5,-74"/>
<text text-anchor="middle" x="569" y="-62" font-family="Helvetica,sans-Serif" font-size="10.00">cstdarg</text>
</a>
</g>
</g>
<!-- Node13&#45;&gt;Node15 -->
<g id="edge17_Node000013_Node000015" class="edge">
<title>Node13&#45;&gt;Node15</title>
<g id="a_edge17_Node000013_Node000015"><a xlink:title=" ">
<path fill="none" stroke="#63b8ff" d="M522.05,-164.88C540.65,-158.33 561.9,-147.24 573,-129 581.25,-115.45 578.98,-97.12 575.4,-83.64"/>
<polygon fill="#63b8ff" stroke="#63b8ff" points="578.73,-82.56 572.43,-74.05 572.05,-84.63 578.73,-82.56"/>
</a>
</g>
</g>
<!-- Node16 -->
<g id="Node000016" class="node">
<title>Node16</title>
<g id="a_Node000016"><a xlink:href="g3dlite_2include_2G3D_2format_8h.html" target="_top" xlink:title=" ">
<polygon fill="white" stroke="#666666" points="563.5,-129 480.5,-129 480.5,-110 563.5,-110 563.5,-129"/>
<text text-anchor="middle" x="522" y="-117" font-family="Helvetica,sans-Serif" font-size="10.00">G3D/format.h</text>
</a>
</g>
</g>
<!-- Node13&#45;&gt;Node16 -->
<g id="edge18_Node000013_Node000016" class="edge">
<title>Node13&#45;&gt;Node16</title>
<g id="a_edge18_Node000013_Node000016"><a xlink:title=" ">
<path fill="none" stroke="#63b8ff" d="M492.78,-164.75C497.62,-157.42 504.68,-146.73 510.64,-137.7"/>
<polygon fill="#63b8ff" stroke="#63b8ff" points="513.74,-139.36 516.33,-129.09 507.9,-135.5 513.74,-139.36"/>
</a>
</g>
</g>
<!-- Node13&#45;&gt;Node17 -->
<g id="edge23_Node000013_Node000017" class="edge">
<title>Node13&#45;&gt;Node17</title>
<g id="a_edge23_Node000013_Node000017"><a xlink:title=" ">
<path fill="none" stroke="#63b8ff" d="M434.33,-168.45C396.36,-163 344.98,-151.81 305,-129 284.61,-117.36 266.53,-97.08 255.23,-82.57"/>
<polygon fill="#63b8ff" stroke="#63b8ff" points="257.91,-80.31 249.11,-74.41 252.31,-84.51 257.91,-80.31"/>
</a>
</g>
</g>
<!-- Node16&#45;&gt;Node2 -->
<g id="edge19_Node000016_Node000002" class="edge">
<title>Node16&#45;&gt;Node2</title>
<g id="a_edge19_Node000016_Node000002"><a xlink:title=" ">
<path fill="none" stroke="#63b8ff" d="M548.51,-109.98C576.21,-101.09 619.86,-87.07 650.74,-77.15"/>
<polygon fill="#63b8ff" stroke="#63b8ff" points="651.83,-80.47 660.28,-74.08 649.69,-73.81 651.83,-80.47"/>
</a>
</g>
</g>
<!-- Node16&#45;&gt;Node14 -->
<g id="edge21_Node000016_Node000014" class="edge">
<title>Node16&#45;&gt;Node14</title>
<g id="a_edge21_Node000016_Node000014"><a xlink:title=" ">
<path fill="none" stroke="#63b8ff" d="M514.24,-109.75C507.53,-102.18 497.66,-91.05 489.49,-81.84"/>
<polygon fill="#63b8ff" stroke="#63b8ff" points="491.87,-79.25 482.62,-74.09 486.63,-83.89 491.87,-79.25"/>
</a>
</g>
</g>
<!-- Node16&#45;&gt;Node15 -->
<g id="edge22_Node000016_Node000015" class="edge">
<title>Node16&#45;&gt;Node15</title>
<g id="a_edge22_Node000016_Node000015"><a xlink:title=" ">
<path fill="none" stroke="#63b8ff" d="M529.76,-109.75C536.47,-102.18 546.34,-91.05 554.51,-81.84"/>
<polygon fill="#63b8ff" stroke="#63b8ff" points="557.37,-83.89 561.38,-74.09 552.13,-79.25 557.37,-83.89"/>
</a>
</g>
</g>
<!-- Node16&#45;&gt;Node17 -->
<g id="edge20_Node000016_Node000017" class="edge">
<title>Node16&#45;&gt;Node17</title>
<g id="a_edge20_Node000016_Node000017"><a xlink:title=" ">
<path fill="none" stroke="#63b8ff" d="M480.23,-110.57C424.17,-99.92 325.8,-81.23 275.15,-71.61"/>
<polygon fill="#63b8ff" stroke="#63b8ff" points="275.57,-68.13 265.1,-69.7 274.27,-75 275.57,-68.13"/>
</a>
</g>
</g>
<!-- Node18&#45;&gt;Node2 -->
<g id="edge26_Node000018_Node000002" class="edge">
<title>Node18&#45;&gt;Node2</title>
<g id="a_edge26_Node000018_Node000002"><a xlink:title=" ">
<path fill="none" stroke="#63b8ff" d="M420.09,-109.98C477.77,-100.37 571.3,-84.78 630.94,-74.84"/>
<polygon fill="#63b8ff" stroke="#63b8ff" points="631.65,-78.27 640.94,-73.18 630.5,-71.37 631.65,-78.27"/>
</a>
</g>
</g>
<!-- Node18&#45;&gt;Node17 -->
<g id="edge25_Node000018_Node000017" class="edge">
<title>Node18&#45;&gt;Node17</title>
<g id="a_edge25_Node000018_Node000017"><a xlink:title=" ">
<path fill="none" stroke="#63b8ff" d="M348.76,-109.98C328.3,-101.38 296.47,-87.99 273.07,-78.15"/>
<polygon fill="#63b8ff" stroke="#63b8ff" points="274.19,-74.82 263.61,-74.17 271.47,-81.27 274.19,-74.82"/>
</a>
</g>
</g>
<!-- Node19 -->
<g id="Node000019" class="node">
<title>Node19</title>
<g id="a_Node000019"><a xlink:title=" ">
<polygon fill="#e0e0e0" stroke="#999999" points="393.5,-74 344.5,-74 344.5,-55 393.5,-55 393.5,-74"/>
<text text-anchor="middle" x="369" y="-62" font-family="Helvetica,sans-Serif" font-size="10.00">cstdlib</text>
</a>
</g>
</g>
<!-- Node18&#45;&gt;Node19 -->
<g id="edge27_Node000018_Node000019" class="edge">
<title>Node18&#45;&gt;Node19</title>
<g id="a_edge27_Node000018_Node000019"><a xlink:title=" ">
<path fill="none" stroke="#63b8ff" d="M369,-109.75C369,-102.8 369,-92.85 369,-84.13"/>
<polygon fill="#63b8ff" stroke="#63b8ff" points="372.5,-84.09 369,-74.09 365.5,-84.09 372.5,-84.09"/>
</a>
</g>
</g>
<!-- Node20&#45;&gt;Node2 -->
<g id="edge29_Node000020_Node000002" class="edge">
<title>Node20&#45;&gt;Node2</title>
<g id="a_edge29_Node000020_Node000002"><a xlink:title=" ">
<path fill="none" stroke="#63b8ff" d="M412.03,-391.37C517.81,-384.96 782,-361.37 782,-285.5 782,-285.5 782,-285.5 782,-173.5 782,-130.91 739.84,-97.14 711.69,-79.33"/>
<polygon fill="#63b8ff" stroke="#63b8ff" points="713.48,-76.32 703.12,-74.12 709.84,-82.31 713.48,-76.32"/>
</a>
</g>
</g>
<!-- Node20&#45;&gt;Node4 -->
<g id="edge30_Node000020_Node000004" class="edge">
<title>Node20&#45;&gt;Node4</title>
<g id="a_edge30_Node000020_Node000004"><a xlink:title=" ">
<path fill="none" stroke="#63b8ff" d="M371.03,-384.68C374.04,-372.23 380.16,-348.92 388,-330 391.82,-320.78 396.98,-310.96 401.54,-302.91"/>
<polygon fill="#63b8ff" stroke="#63b8ff" points="404.66,-304.51 406.67,-294.11 398.61,-300.98 404.66,-304.51"/>
</a>
</g>
</g>
<!-- Node20&#45;&gt;Node17 -->
<g id="edge39_Node000020_Node000017" class="edge">
<title>Node20&#45;&gt;Node17</title>
<g id="a_edge39_Node000020_Node000017"><a xlink:title=" ">
<path fill="none" stroke="#63b8ff" d="M325.73,-388.6C236.01,-377.22 38,-345.34 38,-285.5 38,-285.5 38,-285.5 38,-173.5 38,-96.43 152.8,-74.23 210.59,-67.93"/>
<polygon fill="#63b8ff" stroke="#63b8ff" points="211.07,-71.4 220.67,-66.93 210.37,-64.44 211.07,-71.4"/>
</a>
</g>
</g>
<!-- Node21 -->
<g id="Node000021" class="node">
<title>Node21</title>
<g id="a_Node000021"><a xlink:href="G3DGameUnits_8h.html" target="_top" xlink:title=" ">
<polygon fill="white" stroke="#666666" points="935.5,-294 810.5,-294 810.5,-275 935.5,-275 935.5,-294"/>
<text text-anchor="middle" x="873" y="-282" font-family="Helvetica,sans-Serif" font-size="10.00">G3D/G3DGameUnits.h</text>
</a>
</g>
</g>
<!-- Node20&#45;&gt;Node21 -->
<g id="edge31_Node000020_Node000021" class="edge">
<title>Node20&#45;&gt;Node21</title>
<g id="a_edge31_Node000020_Node000021"><a xlink:title=" ">
<path fill="none" stroke="#63b8ff" d="M412.2,-392.15C506.41,-388.71 727.43,-377.73 796,-349 821.08,-338.49 844.35,-317 858.6,-301.95"/>
<polygon fill="#63b8ff" stroke="#63b8ff" points="861.38,-304.09 865.54,-294.35 856.21,-299.37 861.38,-304.09"/>
</a>
</g>
</g>
<!-- Node22 -->
<g id="Node000022" class="node">
<title>Node22</title>
<g id="a_Node000022"><a xlink:href="BinaryFormat_8h.html" target="_top" xlink:title=" ">
<polygon fill="white" stroke="#666666" points="513,-349 397,-349 397,-330 513,-330 513,-349"/>
<text text-anchor="middle" x="455" y="-337" font-family="Helvetica,sans-Serif" font-size="10.00">G3D/BinaryFormat.h</text>
</a>
</g>
</g>
<!-- Node20&#45;&gt;Node22 -->
<g id="edge33_Node000020_Node000022" class="edge">
<title>Node20&#45;&gt;Node22</title>
<g id="a_edge33_Node000020_Node000022"><a xlink:title=" ">
<path fill="none" stroke="#63b8ff" d="M382.82,-384.98C396.15,-376.77 416.58,-364.18 432.31,-354.49"/>
<polygon fill="#63b8ff" stroke="#63b8ff" points="434.25,-357.4 440.93,-349.17 430.58,-351.44 434.25,-357.4"/>
</a>
</g>
</g>
<!-- Node23 -->
<g id="Node000023" class="node">
<title>Node23</title>
<g id="a_Node000023"><a xlink:href="FileNotFound_8h.html" target="_top" xlink:title=" ">
<polygon fill="white" stroke="#666666" points="257.5,-129 144.5,-129 144.5,-110 257.5,-110 257.5,-129"/>
<text text-anchor="middle" x="201" y="-117" font-family="Helvetica,sans-Serif" font-size="10.00">G3D/FileNotFound.h</text>
</a>
</g>
</g>
<!-- Node20&#45;&gt;Node23 -->
<g id="edge36_Node000020_Node000023" class="edge">
<title>Node20&#45;&gt;Node23</title>
<g id="a_edge36_Node000020_Node000023"><a xlink:title=" ">
<path fill="none" stroke="#63b8ff" d="M330.87,-384.92C268.67,-368.64 147.16,-326.74 96,-239 70.85,-195.88 134.23,-154.3 173.18,-133.78"/>
<polygon fill="#63b8ff" stroke="#63b8ff" points="175.18,-136.69 182.49,-129.03 171.99,-130.46 175.18,-136.69"/>
</a>
</g>
</g>
<!-- Node21&#45;&gt;Node2 -->
<g id="edge32_Node000021_Node000002" class="edge">
<title>Node21&#45;&gt;Node2</title>
<g id="a_edge32_Node000021_Node000002"><a xlink:title=" ">
<path fill="none" stroke="#63b8ff" d="M871.55,-274.99C866.41,-247.36 846.61,-159.11 796,-110 779.8,-94.28 757.3,-83.84 736.94,-77.05"/>
<polygon fill="#63b8ff" stroke="#63b8ff" points="737.74,-73.64 727.15,-74.01 735.66,-80.32 737.74,-73.64"/>
</a>
</g>
</g>
<!-- Node22&#45;&gt;Node2 -->
<g id="edge34_Node000022_Node000002" class="edge">
<title>Node22&#45;&gt;Node2</title>
<g id="a_edge34_Node000022_Node000002"><a xlink:title=" ">
<path fill="none" stroke="#63b8ff" d="M507.34,-329.99C590.62,-314.94 744,-280.45 744,-230.5 744,-230.5 744,-230.5 744,-173.5 744,-137.51 718.94,-101.76 702.05,-81.76"/>
<polygon fill="#63b8ff" stroke="#63b8ff" points="704.64,-79.4 695.41,-74.2 699.38,-84.02 704.64,-79.4"/>
</a>
</g>
</g>
<!-- Node22&#45;&gt;Node4 -->
<g id="edge35_Node000022_Node000004" class="edge">
<title>Node22&#45;&gt;Node4</title>
<g id="a_edge35_Node000022_Node000004"><a xlink:title=" ">
<path fill="none" stroke="#63b8ff" d="M447.9,-329.75C441.83,-322.26 432.91,-311.28 425.49,-302.13"/>
<polygon fill="#63b8ff" stroke="#63b8ff" points="427.99,-299.65 418.97,-294.09 422.55,-304.06 427.99,-299.65"/>
</a>
</g>
</g>
<!-- Node23&#45;&gt;Node2 -->
<g id="edge37_Node000023_Node000002" class="edge">
<title>Node23&#45;&gt;Node2</title>
<g id="a_edge37_Node000023_Node000002"><a xlink:title=" ">
<path fill="none" stroke="#63b8ff" d="M257.7,-112.32C351.34,-102.1 537.23,-81.83 630.64,-71.65"/>
<polygon fill="#63b8ff" stroke="#63b8ff" points="631.19,-75.11 640.75,-70.54 630.43,-68.15 631.19,-75.11"/>
</a>
</g>
</g>
<!-- Node23&#45;&gt;Node17 -->
<g id="edge38_Node000023_Node000017" class="edge">
<title>Node23&#45;&gt;Node17</title>
<g id="a_edge38_Node000023_Node000017"><a xlink:title=" ">
<path fill="none" stroke="#63b8ff" d="M207.94,-109.75C213.87,-102.26 222.57,-91.28 229.82,-82.13"/>
<polygon fill="#63b8ff" stroke="#63b8ff" points="232.73,-84.1 236.19,-74.09 227.24,-79.75 232.73,-84.1"/>
</a>
</g>
</g>
</g>
</svg>
