<?xml version="1.0" encoding="UTF-8" standalone="no"?>
<!DOCTYPE svg PUBLIC "-//W3C//DTD SVG 1.1//EN"
 "http://www.w3.org/Graphics/SVG/1.1/DTD/svg11.dtd">
<!-- Generated by graphviz version 2.43.0 (0)
 -->
<!-- Title: der_decode_choice Pages: 1 -->
<svg width="897pt" height="915pt"
 viewBox="0.00 0.00 897.00 915.06" xmlns="http://www.w3.org/2000/svg" xmlns:xlink="http://www.w3.org/1999/xlink">
<g id="graph0" class="graph" transform="scale(1 1) rotate(0) translate(4 911.06)">
<title>der_decode_choice</title>
<!-- Node1 -->
<g id="Node000001" class="node">
<title>Node1</title>
<g id="a_Node000001"><a xlink:title=" ">
<polygon fill="#999999" stroke="#666666" points="110,-350 0,-350 0,-331 110,-331 110,-350"/>
<text text-anchor="middle" x="55" y="-338" font-family="Helvetica,sans-Serif" font-size="10.00">der_decode_choice</text>
</a>
</g>
</g>
<!-- Node2 -->
<g id="Node000002" class="node">
<title>Node2</title>
<g id="a_Node000002"><a xlink:href="der__decode__bit__string_8c.html#a0a0c371e559e6b455cc4a052d962226f" target="_top" xlink:title=" ">
<polygon fill="white" stroke="#666666" points="286.5,-761 162.5,-761 162.5,-742 286.5,-742 286.5,-761"/>
<text text-anchor="middle" x="224.5" y="-749" font-family="Helvetica,sans-Serif" font-size="10.00">der_decode_bit_string</text>
</a>
</g>
</g>
<!-- Node1&#45;&gt;Node2 -->
<g id="edge1_Node000001_Node000002" class="edge">
<title>Node1&#45;&gt;Node2</title>
<g id="a_edge1_Node000001_Node000002"><a xlink:title=" ">
<path fill="none" stroke="#63b8ff" d="M56.84,-350.07C61.81,-404.69 89.17,-676.49 146,-733.5 148.27,-735.77 150.76,-737.78 153.42,-739.56"/>
<polygon fill="#63b8ff" stroke="#63b8ff" points="151.97,-742.75 162.42,-744.46 155.32,-736.6 151.97,-742.75"/>
</a>
</g>
</g>
<!-- Node3 -->
<g id="Node000003" class="node">
<title>Node3</title>
<g id="a_Node000003"><a xlink:href="der__decode__ia5__string_8c.html#ac2868573a2a8857a8463337d8411fe79" target="_top" xlink:title=" ">
<polygon fill="white" stroke="#666666" points="287.5,-724 161.5,-724 161.5,-705 287.5,-705 287.5,-724"/>
<text text-anchor="middle" x="224.5" y="-712" font-family="Helvetica,sans-Serif" font-size="10.00">der_decode_ia5_string</text>
</a>
</g>
</g>
<!-- Node1&#45;&gt;Node3 -->
<g id="edge2_Node000001_Node000003" class="edge">
<title>Node1&#45;&gt;Node3</title>
<g id="a_edge2_Node000001_Node000003"><a xlink:title=" ">
<path fill="none" stroke="#63b8ff" d="M57.09,-350.18C63.13,-401.92 94,-645.5 146,-696.5 147.94,-698.4 150.04,-700.12 152.27,-701.67"/>
<polygon fill="#63b8ff" stroke="#63b8ff" points="150.96,-704.95 161.39,-706.84 154.42,-698.86 150.96,-704.95"/>
</a>
</g>
</g>
<!-- Node5 -->
<g id="Node000005" class="node">
<title>Node5</title>
<g id="a_Node000005"><a xlink:href="der__decode__integer_8c.html#ac5b0a7020165ada29ba6278fe128599d" target="_top" xlink:title=" ">
<polygon fill="white" stroke="#666666" points="281,-650 168,-650 168,-631 281,-631 281,-650"/>
<text text-anchor="middle" x="224.5" y="-638" font-family="Helvetica,sans-Serif" font-size="10.00">der_decode_integer</text>
</a>
</g>
</g>
<!-- Node1&#45;&gt;Node5 -->
<g id="edge4_Node000001_Node000005" class="edge">
<title>Node1&#45;&gt;Node5</title>
<g id="a_edge4_Node000001_Node000005"><a xlink:title=" ">
<path fill="none" stroke="#63b8ff" d="M59.3,-350.24C69.7,-380.27 103.58,-473.64 146,-543.5 164.32,-573.67 190.92,-604.94 207.7,-623.55"/>
<polygon fill="#63b8ff" stroke="#63b8ff" points="205.12,-625.91 214.45,-630.94 210.29,-621.19 205.12,-625.91"/>
</a>
</g>
</g>
<!-- Node21 -->
<g id="Node000021" class="node">
<title>Node21</title>
<g id="a_Node000021"><a xlink:href="der__decode__object__identifier_8c.html#aee91111fe2b92dca6c83e6c7de36be8f" target="_top" xlink:title=" ">
<polygon fill="white" stroke="#666666" points="303,-179 146,-179 146,-160 303,-160 303,-179"/>
<text text-anchor="middle" x="224.5" y="-167" font-family="Helvetica,sans-Serif" font-size="10.00">der_decode_object_identifier</text>
</a>
</g>
</g>
<!-- Node1&#45;&gt;Node21 -->
<g id="edge30_Node000001_Node000021" class="edge">
<title>Node1&#45;&gt;Node21</title>
<g id="a_edge30_Node000001_Node000021"><a xlink:title=" ">
<path fill="none" stroke="#63b8ff" d="M59.12,-330.96C68.16,-304.87 96.86,-231.7 146,-193.5 151.45,-189.26 157.66,-185.76 164.14,-182.88"/>
<polygon fill="#63b8ff" stroke="#63b8ff" points="165.74,-186.01 173.76,-179.08 163.17,-179.5 165.74,-186.01"/>
</a>
</g>
</g>
<!-- Node22 -->
<g id="Node000022" class="node">
<title>Node22</title>
<g id="a_Node000022"><a xlink:href="der__decode__octet__string_8c.html#af315ce6a951697ede7ec4c9716b5b20b" target="_top" xlink:title=" ">
<polygon fill="white" stroke="#666666" points="292.5,-142 156.5,-142 156.5,-123 292.5,-123 292.5,-142"/>
<text text-anchor="middle" x="224.5" y="-130" font-family="Helvetica,sans-Serif" font-size="10.00">der_decode_octet_string</text>
</a>
</g>
</g>
<!-- Node1&#45;&gt;Node22 -->
<g id="edge31_Node000001_Node000022" class="edge">
<title>Node1&#45;&gt;Node22</title>
<g id="a_edge31_Node000001_Node000022"><a xlink:title=" ">
<path fill="none" stroke="#63b8ff" d="M57.6,-330.87C63.32,-299.69 85.69,-200.61 146,-151.5 148.07,-149.82 150.26,-148.28 152.55,-146.87"/>
<polygon fill="#63b8ff" stroke="#63b8ff" points="154.53,-149.79 161.81,-142.09 151.32,-143.57 154.53,-149.79"/>
</a>
</g>
</g>
<!-- Node23 -->
<g id="Node000023" class="node">
<title>Node23</title>
<g id="a_Node000023"><a xlink:href="der__decode__printable__string_8c.html#a0967e5db58c3ce6b0971b5c5097c0d9f" target="_top" xlink:title=" ">
<polygon fill="white" stroke="#666666" points="285.5,-104.5 163.5,-104.5 163.5,-74.5 285.5,-74.5 285.5,-104.5"/>
<text text-anchor="start" x="171.5" y="-92.5" font-family="Helvetica,sans-Serif" font-size="10.00">der_decode_printable</text>
<text text-anchor="middle" x="224.5" y="-81.5" font-family="Helvetica,sans-Serif" font-size="10.00">_string</text>
</a>
</g>
</g>
<!-- Node1&#45;&gt;Node23 -->
<g id="edge32_Node000001_Node000023" class="edge">
<title>Node1&#45;&gt;Node23</title>
<g id="a_edge32_Node000001_Node000023"><a xlink:title=" ">
<path fill="none" stroke="#63b8ff" d="M56.93,-330.65C60.76,-295.65 78.49,-175.99 146,-113.5 148.61,-111.08 151.46,-108.91 154.48,-106.95"/>
<polygon fill="#63b8ff" stroke="#63b8ff" points="156.33,-109.93 163.37,-102 152.93,-103.81 156.33,-109.93"/>
</a>
</g>
</g>
<!-- Node25 -->
<g id="Node000025" class="node">
<title>Node25</title>
<g id="a_Node000025"><a xlink:href="der__decode__short__integer_8c.html#a1f8c5c4ead2ebe96a1a852329c62154c" target="_top" xlink:title=" ">
<polygon fill="white" stroke="#666666" points="296,-56 153,-56 153,-37 296,-37 296,-56"/>
<text text-anchor="middle" x="224.5" y="-44" font-family="Helvetica,sans-Serif" font-size="10.00">der_decode_short_integer</text>
</a>
</g>
</g>
<!-- Node1&#45;&gt;Node25 -->
<g id="edge34_Node000001_Node000025" class="edge">
<title>Node1&#45;&gt;Node25</title>
<g id="a_edge34_Node000001_Node000025"><a xlink:title=" ">
<path fill="none" stroke="#63b8ff" d="M56.02,-330.98C56.63,-291.76 64.39,-141.14 146,-65.5 147.69,-63.93 149.49,-62.49 151.38,-61.16"/>
<polygon fill="#63b8ff" stroke="#63b8ff" points="153.28,-64.1 160.14,-56.02 149.74,-58.06 153.28,-64.1"/>
</a>
</g>
</g>
<!-- Node26 -->
<g id="Node000026" class="node">
<title>Node26</title>
<g id="a_Node000026"><a xlink:href="der__decode__utctime_8c.html#a228dad2e418af24965b9b16188d61aac" target="_top" xlink:title=" ">
<polygon fill="white" stroke="#666666" points="282.5,-687 166.5,-687 166.5,-668 282.5,-668 282.5,-687"/>
<text text-anchor="middle" x="224.5" y="-675" font-family="Helvetica,sans-Serif" font-size="10.00">der_decode_utctime</text>
</a>
</g>
</g>
<!-- Node1&#45;&gt;Node26 -->
<g id="edge35_Node000001_Node000026" class="edge">
<title>Node1&#45;&gt;Node26</title>
<g id="a_edge35_Node000001_Node000026"><a xlink:title=" ">
<path fill="none" stroke="#63b8ff" d="M55.5,-350.04C53.78,-393.02 52.75,-570.51 146,-659.5 149.29,-662.64 153.02,-665.27 157.02,-667.47"/>
<polygon fill="#63b8ff" stroke="#63b8ff" points="155.59,-670.67 166.14,-671.63 158.49,-664.3 155.59,-670.67"/>
</a>
</g>
</g>
<!-- Node27 -->
<g id="Node000027" class="node">
<title>Node27</title>
<g id="a_Node000027"><a xlink:href="der__decode__utf8__string_8c.html#afc867f0f02273fac931669abded4cbb3" target="_top" xlink:title=" ">
<polygon fill="white" stroke="#666666" points="290,-19 159,-19 159,0 290,0 290,-19"/>
<text text-anchor="middle" x="224.5" y="-7" font-family="Helvetica,sans-Serif" font-size="10.00">der_decode_utf8_string</text>
</a>
</g>
</g>
<!-- Node1&#45;&gt;Node27 -->
<g id="edge37_Node000001_Node000027" class="edge">
<title>Node1&#45;&gt;Node27</title>
<g id="a_edge37_Node000001_Node000027"><a xlink:title=" ">
<path fill="none" stroke="#63b8ff" d="M55.55,-330.85C54.13,-288.17 54.36,-114.52 146,-27.5 147.31,-26.26 148.69,-25.1 150.12,-24.01"/>
<polygon fill="#63b8ff" stroke="#63b8ff" points="152.24,-26.81 158.9,-18.57 148.55,-20.86 152.24,-26.81"/>
</a>
</g>
</g>
<!-- Node28 -->
<g id="Node000028" class="node">
<title>Node28</title>
<g id="a_Node000028"><a xlink:href="der__length__bit__string_8c.html#a73416248e2f93535d54603567acc9cfd" target="_top" xlink:title=" ">
<polygon fill="white" stroke="#666666" points="474.5,-500 355.5,-500 355.5,-481 474.5,-481 474.5,-500"/>
<text text-anchor="middle" x="415" y="-488" font-family="Helvetica,sans-Serif" font-size="10.00">der_length_bit_string</text>
</a>
</g>
</g>
<!-- Node1&#45;&gt;Node28 -->
<g id="edge38_Node000001_Node000028" class="edge">
<title>Node1&#45;&gt;Node28</title>
<g id="a_edge38_Node000001_Node000028"><a xlink:title=" ">
<path fill="none" stroke="#63b8ff" d="M60.67,-350.26C71.89,-372.48 102.65,-426.85 146,-451.5 207.08,-486.23 288.18,-493.7 345.11,-493.91"/>
<polygon fill="#63b8ff" stroke="#63b8ff" points="345.46,-497.4 355.45,-493.86 345.44,-490.4 345.46,-497.4"/>
</a>
</g>
</g>
<!-- Node29 -->
<g id="Node000029" class="node">
<title>Node29</title>
<g id="a_Node000029"><a xlink:href="der__length__ia5__string_8c.html#a37e6cf2c534040fe726a760956eade04" target="_top" xlink:title=" ">
<polygon fill="white" stroke="#666666" points="476,-463 354,-463 354,-444 476,-444 476,-463"/>
<text text-anchor="middle" x="415" y="-451" font-family="Helvetica,sans-Serif" font-size="10.00">der_length_ia5_string</text>
</a>
</g>
</g>
<!-- Node1&#45;&gt;Node29 -->
<g id="edge39_Node000001_Node000029" class="edge">
<title>Node1&#45;&gt;Node29</title>
<g id="a_edge39_Node000001_Node000029"><a xlink:title=" ">
<path fill="none" stroke="#63b8ff" d="M63.17,-350.03C77,-367.6 109.24,-404.83 146,-421.5 208.67,-449.93 287.63,-456.27 343.57,-456.51"/>
<polygon fill="#63b8ff" stroke="#63b8ff" points="343.75,-460.01 353.74,-456.49 343.73,-453.01 343.75,-460.01"/>
</a>
</g>
</g>
<!-- Node31 -->
<g id="Node000031" class="node">
<title>Node31</title>
<g id="a_Node000031"><a xlink:href="der__length__integer_8c.html#af27dfc46ec4a482af05a2265a9d31ca3" target="_top" xlink:title=" ">
<polygon fill="white" stroke="#666666" points="469,-537 361,-537 361,-518 469,-518 469,-537"/>
<text text-anchor="middle" x="415" y="-525" font-family="Helvetica,sans-Serif" font-size="10.00">der_length_integer</text>
</a>
</g>
</g>
<!-- Node1&#45;&gt;Node31 -->
<g id="edge41_Node000001_Node000031" class="edge">
<title>Node1&#45;&gt;Node31</title>
<g id="a_edge41_Node000001_Node000031"><a xlink:title=" ">
<path fill="none" stroke="#63b8ff" d="M58.89,-350.29C67.32,-377.01 94.63,-451.45 146,-485.5 207.01,-525.94 292.72,-532.76 350.65,-531.87"/>
<polygon fill="#63b8ff" stroke="#63b8ff" points="350.86,-535.37 360.77,-531.64 350.69,-528.37 350.86,-535.37"/>
</a>
</g>
</g>
<!-- Node35 -->
<g id="Node000035" class="node">
<title>Node35</title>
<g id="a_Node000035"><a xlink:href="der__length__object__identifier_8c.html#a7287672d04a07738d18d342c7821d4a8" target="_top" xlink:title=" ">
<polygon fill="white" stroke="#666666" points="491,-426 339,-426 339,-407 491,-407 491,-426"/>
<text text-anchor="middle" x="415" y="-414" font-family="Helvetica,sans-Serif" font-size="10.00">der_length_object_identifier</text>
</a>
</g>
</g>
<!-- Node1&#45;&gt;Node35 -->
<g id="edge47_Node000001_Node000035" class="edge">
<title>Node1&#45;&gt;Node35</title>
<g id="a_edge47_Node000001_Node000035"><a xlink:title=" ">
<path fill="none" stroke="#63b8ff" d="M67.3,-350.1C83.51,-363.23 114.86,-386.33 146,-396.5 204.96,-415.75 274.95,-420.4 328.62,-420.42"/>
<polygon fill="#63b8ff" stroke="#63b8ff" points="328.8,-423.92 338.79,-420.37 328.77,-416.92 328.8,-423.92"/>
</a>
</g>
</g>
<!-- Node37 -->
<g id="Node000037" class="node">
<title>Node37</title>
<g id="a_Node000037"><a xlink:href="der__length__octet__string_8c.html#a65b2f3065d3f51608a1dfa3b284a74df" target="_top" xlink:title=" ">
<polygon fill="white" stroke="#666666" points="480.5,-315 349.5,-315 349.5,-296 480.5,-296 480.5,-315"/>
<text text-anchor="middle" x="415" y="-303" font-family="Helvetica,sans-Serif" font-size="10.00">der_length_octet_string</text>
</a>
</g>
</g>
<!-- Node1&#45;&gt;Node37 -->
<g id="edge49_Node000001_Node000037" class="edge">
<title>Node1&#45;&gt;Node37</title>
<g id="a_edge49_Node000001_Node000037"><a xlink:title=" ">
<path fill="none" stroke="#63b8ff" d="M110.37,-335.18C171.4,-329.22 270.79,-319.5 339.13,-312.82"/>
<polygon fill="#63b8ff" stroke="#63b8ff" points="339.79,-316.27 349.4,-311.82 339.11,-309.31 339.79,-316.27"/>
</a>
</g>
</g>
<!-- Node38 -->
<g id="Node000038" class="node">
<title>Node38</title>
<g id="a_Node000038"><a xlink:href="der__length__printable__string_8c.html#ac206210b58e1bac2342a80d26bd802db" target="_top" xlink:title=" ">
<polygon fill="white" stroke="#666666" points="473.5,-277.5 356.5,-277.5 356.5,-247.5 473.5,-247.5 473.5,-277.5"/>
<text text-anchor="start" x="364.5" y="-265.5" font-family="Helvetica,sans-Serif" font-size="10.00">der_length_printable</text>
<text text-anchor="middle" x="415" y="-254.5" font-family="Helvetica,sans-Serif" font-size="10.00">_string</text>
</a>
</g>
</g>
<!-- Node1&#45;&gt;Node38 -->
<g id="edge50_Node000001_Node000038" class="edge">
<title>Node1&#45;&gt;Node38</title>
<g id="a_edge50_Node000001_Node000038"><a xlink:title=" ">
<path fill="none" stroke="#63b8ff" d="M83.74,-330.95C101.41,-325.09 124.88,-317.74 146,-312.5 213.57,-295.75 291.98,-281.74 346.45,-272.85"/>
<polygon fill="#63b8ff" stroke="#63b8ff" points="347.02,-276.3 356.34,-271.25 345.9,-269.39 347.02,-276.3"/>
</a>
</g>
</g>
<!-- Node40 -->
<g id="Node000040" class="node">
<title>Node40</title>
<g id="a_Node000040"><a xlink:href="der__length__sequence_8c.html#a3f53026a9b0f2f8cca39207c620cc2a8" target="_top" xlink:title=" ">
<polygon fill="white" stroke="#666666" points="284.5,-369 164.5,-369 164.5,-350 284.5,-350 284.5,-369"/>
<text text-anchor="middle" x="224.5" y="-357" font-family="Helvetica,sans-Serif" font-size="10.00">der_length_sequence</text>
</a>
</g>
</g>
<!-- Node1&#45;&gt;Node40 -->
<g id="edge52_Node000001_Node000040" class="edge">
<title>Node1&#45;&gt;Node40</title>
<g id="a_edge52_Node000001_Node000040"><a xlink:title=" ">
<path fill="none" stroke="#63b8ff" d="M110.38,-346.67C124.43,-348.26 139.74,-350 154.43,-351.67"/>
<polygon fill="#63b8ff" stroke="#63b8ff" points="154.15,-355.16 164.48,-352.8 154.93,-348.2 154.15,-355.16"/>
</a>
</g>
</g>
<!-- Node42 -->
<g id="Node000042" class="node">
<title>Node42</title>
<g id="a_Node000042"><a xlink:href="der__length__short__integer_8c.html#aa3bac08094cc8142ac313d818cf73fb0" target="_top" xlink:title=" ">
<polygon fill="white" stroke="#666666" points="484,-229 346,-229 346,-210 484,-210 484,-229"/>
<text text-anchor="middle" x="415" y="-217" font-family="Helvetica,sans-Serif" font-size="10.00">der_length_short_integer</text>
</a>
</g>
</g>
<!-- Node1&#45;&gt;Node42 -->
<g id="edge65_Node000001_Node000042" class="edge">
<title>Node1&#45;&gt;Node42</title>
<g id="a_edge65_Node000001_Node000042"><a xlink:title=" ">
<path fill="none" stroke="#63b8ff" d="M66.47,-330.83C82.39,-316.67 114.23,-290.46 146,-276.5 206.78,-249.8 280.94,-235.27 335.83,-227.58"/>
<polygon fill="#63b8ff" stroke="#63b8ff" points="336.41,-231.03 345.85,-226.22 335.47,-224.1 336.41,-231.03"/>
</a>
</g>
</g>
<!-- Node44 -->
<g id="Node000044" class="node">
<title>Node44</title>
<g id="a_Node000044"><a xlink:href="der__length__utf8__string_8c.html#aa8b54979c2261c4d703c9464e0bb14c1" target="_top" xlink:title=" ">
<polygon fill="white" stroke="#666666" points="478,-192 352,-192 352,-173 478,-173 478,-192"/>
<text text-anchor="middle" x="415" y="-180" font-family="Helvetica,sans-Serif" font-size="10.00">der_length_utf8_string</text>
</a>
</g>
</g>
<!-- Node1&#45;&gt;Node44 -->
<g id="edge66_Node000001_Node000044" class="edge">
<title>Node1&#45;&gt;Node44</title>
<g id="a_edge66_Node000001_Node000044"><a xlink:title=" ">
<path fill="none" stroke="#63b8ff" d="M60.69,-330.73C71.95,-308.47 102.79,-253.93 146,-228.5 178.36,-209.45 273.99,-196.32 341.77,-189.1"/>
<polygon fill="#63b8ff" stroke="#63b8ff" points="342.39,-192.55 351.97,-188.03 341.66,-185.59 342.39,-192.55"/>
</a>
</g>
</g>
<!-- Node4 -->
<g id="Node000004" class="node">
<title>Node4</title>
<g id="a_Node000004"><a xlink:href="der__length__ia5__string_8c.html#a52dbde67731f9a92da76ff73f6c960de" target="_top" xlink:title=" ">
<polygon fill="white" stroke="#666666" points="477.5,-837 352.5,-837 352.5,-818 477.5,-818 477.5,-837"/>
<text text-anchor="middle" x="415" y="-825" font-family="Helvetica,sans-Serif" font-size="10.00">der_ia5_value_decode</text>
</a>
</g>
</g>
<!-- Node3&#45;&gt;Node4 -->
<g id="edge3_Node000003_Node000004" class="edge">
<title>Node3&#45;&gt;Node4</title>
<g id="a_edge3_Node000003_Node000004"><a xlink:title=" ">
<path fill="none" stroke="#63b8ff" d="M287.2,-724.08C292.89,-726.56 298.28,-729.65 303,-733.5 331.96,-757.13 309.98,-785.94 339,-809.5 340.56,-810.77 342.19,-811.95 343.89,-813.04"/>
<polygon fill="#63b8ff" stroke="#63b8ff" points="342.34,-816.19 352.8,-817.89 345.69,-810.04 342.34,-816.19"/>
</a>
</g>
</g>
<!-- Node6 -->
<g id="Node000006" class="node">
<title>Node6</title>
<g id="a_Node000006"><a xlink:href="bn__mp__2expt_8c.html#a69d3ce673029f1a9f47df8e5422a9188" target="_top" xlink:title=" ">
<polygon fill="white" stroke="#666666" points="447.5,-800 382.5,-800 382.5,-781 447.5,-781 447.5,-800"/>
<text text-anchor="middle" x="415" y="-788" font-family="Helvetica,sans-Serif" font-size="10.00">mp_2expt</text>
</a>
</g>
</g>
<!-- Node5&#45;&gt;Node6 -->
<g id="edge5_Node000005_Node000006" class="edge">
<title>Node5&#45;&gt;Node6</title>
<g id="a_edge5_Node000005_Node000006"><a xlink:title=" ">
<path fill="none" stroke="#63b8ff" d="M281.15,-646.74C289.19,-649.63 296.82,-653.73 303,-659.5 341.52,-695.48 300.4,-736.61 339,-772.5 348.04,-780.91 360.3,-785.59 372.28,-788.15"/>
<polygon fill="#63b8ff" stroke="#63b8ff" points="371.76,-791.61 382.2,-789.83 372.93,-784.71 371.76,-791.61"/>
</a>
</g>
</g>
<!-- Node9 -->
<g id="Node000009" class="node">
<title>Node9</title>
<g id="a_Node000009"><a xlink:href="bn__mp__clear_8c.html#a0d8af25cba8b03d5bc1256ef40e7a9a4" target="_top" xlink:title=" ">
<polygon fill="white" stroke="#666666" points="446,-669 384,-669 384,-650 446,-650 446,-669"/>
<text text-anchor="middle" x="415" y="-657" font-family="Helvetica,sans-Serif" font-size="10.00">mp_clear</text>
</a>
</g>
</g>
<!-- Node5&#45;&gt;Node9 -->
<g id="edge8_Node000005_Node000009" class="edge">
<title>Node5&#45;&gt;Node9</title>
<g id="a_edge8_Node000005_Node000009"><a xlink:title=" ">
<path fill="none" stroke="#63b8ff" d="M281.04,-646.1C310.76,-649.09 346.69,-652.72 373.71,-655.44"/>
<polygon fill="#63b8ff" stroke="#63b8ff" points="373.66,-658.95 383.96,-656.47 374.36,-651.99 373.66,-658.95"/>
</a>
</g>
</g>
<!-- Node10 -->
<g id="Node000010" class="node">
<title>Node10</title>
<g id="a_Node000010"><a xlink:href="bn__mp__count__bits_8c.html#a67778f2e786a0a42a4e32adb5bf12653" target="_top" xlink:title=" ">
<polygon fill="white" stroke="#666666" points="791,-556 703,-556 703,-537 791,-537 791,-556"/>
<text text-anchor="middle" x="747" y="-544" font-family="Helvetica,sans-Serif" font-size="10.00">mp_count_bits</text>
</a>
</g>
</g>
<!-- Node5&#45;&gt;Node10 -->
<g id="edge9_Node000005_Node000010" class="edge">
<title>Node5&#45;&gt;Node10</title>
<g id="a_edge9_Node000005_Node000010"><a xlink:title=" ">
<path fill="none" stroke="#63b8ff" d="M251.31,-630.96C274.1,-622.87 308.37,-611.49 339,-604.5 464.2,-575.93 614.45,-558.87 692.7,-551.25"/>
<polygon fill="#63b8ff" stroke="#63b8ff" points="693.18,-554.72 702.8,-550.28 692.51,-547.76 693.18,-554.72"/>
</a>
</g>
</g>
<!-- Node11 -->
<g id="Node000011" class="node">
<title>Node11</title>
<g id="a_Node000011"><a xlink:href="bn__mp__init_8c.html#af40a43523654299f5178fb2d2d0c2211" target="_top" xlink:title=" ">
<polygon fill="white" stroke="#666666" points="441.5,-632 388.5,-632 388.5,-613 441.5,-613 441.5,-632"/>
<text text-anchor="middle" x="415" y="-620" font-family="Helvetica,sans-Serif" font-size="10.00">mp_init</text>
</a>
</g>
</g>
<!-- Node5&#45;&gt;Node11 -->
<g id="edge10_Node000005_Node000011" class="edge">
<title>Node5&#45;&gt;Node11</title>
<g id="a_edge10_Node000005_Node000011"><a xlink:title=" ">
<path fill="none" stroke="#63b8ff" d="M281.04,-635.2C312.39,-632.2 350.65,-628.55 378.07,-625.93"/>
<polygon fill="#63b8ff" stroke="#63b8ff" points="378.75,-629.38 388.38,-624.95 378.09,-622.41 378.75,-629.38"/>
</a>
</g>
</g>
<!-- Node12 -->
<g id="Node000012" class="node">
<title>Node12</title>
<g id="a_Node000012"><a xlink:href="bn__mp__read__unsigned__bin_8c.html#aa3a21edbce3e2999ca57b2386119fed1" target="_top" xlink:title=" ">
<polygon fill="white" stroke="#666666" points="479.5,-763 350.5,-763 350.5,-744 479.5,-744 479.5,-763"/>
<text text-anchor="middle" x="415" y="-751" font-family="Helvetica,sans-Serif" font-size="10.00">mp_read_unsigned_bin</text>
</a>
</g>
</g>
<!-- Node5&#45;&gt;Node12 -->
<g id="edge11_Node000005_Node000012" class="edge">
<title>Node5&#45;&gt;Node12</title>
<g id="a_edge11_Node000005_Node000012"><a xlink:title=" ">
<path fill="none" stroke="#63b8ff" d="M281.13,-648.64C288.91,-651.3 296.46,-654.83 303,-659.5 327.08,-676.69 317.04,-695.68 339,-715.5 350.16,-725.57 364.48,-733.69 377.61,-739.8"/>
<polygon fill="#63b8ff" stroke="#63b8ff" points="376.34,-743.06 386.9,-743.89 379.16,-736.66 376.34,-743.06"/>
</a>
</g>
</g>
<!-- Node17 -->
<g id="Node000017" class="node">
<title>Node17</title>
<g id="a_Node000017"><a xlink:href="bn__mp__sub_8c.html#a3c73e1c78e711390c214f6aaf6edd1bd" target="_top" xlink:title=" ">
<polygon fill="white" stroke="#666666" points="442.5,-706 387.5,-706 387.5,-687 442.5,-687 442.5,-706"/>
<text text-anchor="middle" x="415" y="-694" font-family="Helvetica,sans-Serif" font-size="10.00">mp_sub</text>
</a>
</g>
</g>
<!-- Node5&#45;&gt;Node17 -->
<g id="edge22_Node000005_Node000017" class="edge">
<title>Node5&#45;&gt;Node17</title>
<g id="a_edge22_Node000005_Node000017"><a xlink:title=" ">
<path fill="none" stroke="#63b8ff" d="M272.38,-650.03C282.61,-652.65 293.29,-655.81 303,-659.5 319.91,-665.92 322.07,-672.12 339,-678.5 351.24,-683.11 365.05,-686.83 377.46,-689.66"/>
<polygon fill="#63b8ff" stroke="#63b8ff" points="376.97,-693.13 387.49,-691.82 378.45,-686.29 376.97,-693.13"/>
</a>
</g>
</g>
<!-- Node7 -->
<g id="Node000007" class="node">
<title>Node7</title>
<g id="a_Node000007"><a xlink:href="bn__mp__grow_8c.html#abdc9ad4bb753273a4f8076094a440191" target="_top" xlink:title=" ">
<polygon fill="white" stroke="#666666" points="889,-782 827,-782 827,-763 889,-763 889,-782"/>
<text text-anchor="middle" x="858" y="-770" font-family="Helvetica,sans-Serif" font-size="10.00">mp_grow</text>
</a>
</g>
</g>
<!-- Node6&#45;&gt;Node7 -->
<g id="edge6_Node000006_Node000007" class="edge">
<title>Node6&#45;&gt;Node7</title>
<g id="a_edge6_Node000006_Node000007"><a xlink:title=" ">
<path fill="none" stroke="#63b8ff" d="M447.85,-793.14C462.13,-795.62 478.53,-800.38 491,-809.5 515.48,-827.42 500.49,-852.75 527,-867.5 629.56,-924.55 687.48,-916.79 791,-861.5 819.43,-846.31 838.92,-812.87 848.99,-791.58"/>
<polygon fill="#63b8ff" stroke="#63b8ff" points="852.29,-792.8 853.18,-782.24 845.9,-789.94 852.29,-792.8"/>
</a>
</g>
</g>
<!-- Node8 -->
<g id="Node000008" class="node">
<title>Node8</title>
<g id="a_Node000008"><a xlink:href="bn__mp__zero_8c.html#a9725d2cb7b409f9b19bec41fa2cf8f8b" target="_top" xlink:title=" ">
<polygon fill="white" stroke="#666666" points="626.5,-858 567.5,-858 567.5,-839 626.5,-839 626.5,-858"/>
<text text-anchor="middle" x="597" y="-846" font-family="Helvetica,sans-Serif" font-size="10.00">mp_zero</text>
</a>
</g>
</g>
<!-- Node6&#45;&gt;Node8 -->
<g id="edge7_Node000006_Node000008" class="edge">
<title>Node6&#45;&gt;Node8</title>
<g id="a_edge7_Node000006_Node000008"><a xlink:title=" ">
<path fill="none" stroke="#63b8ff" d="M447.68,-797.44C461.16,-800.67 476.98,-804.83 491,-809.5 507.45,-814.98 510.81,-818.32 527,-824.5 536.86,-828.27 547.61,-832.12 557.62,-835.61"/>
<polygon fill="#63b8ff" stroke="#63b8ff" points="556.73,-839 567.33,-838.96 559.01,-832.39 556.73,-839"/>
</a>
</g>
</g>
<!-- Node12&#45;&gt;Node7 -->
<g id="edge13_Node000012_Node000007" class="edge">
<title>Node12&#45;&gt;Node7</title>
<g id="a_edge13_Node000012_Node000007"><a xlink:title=" ">
<path fill="none" stroke="#63b8ff" d="M460.96,-763.04C470.99,-765.68 481.47,-768.84 491,-772.5 507.89,-778.99 509.98,-785.36 527,-791.5 602.18,-818.64 623.5,-820.23 703,-828.5 741.9,-832.54 754.28,-841.98 791,-828.5 811.79,-820.87 830.52,-803.46 842.67,-790.06"/>
<polygon fill="#63b8ff" stroke="#63b8ff" points="845.44,-792.21 849.35,-782.36 840.15,-787.63 845.44,-792.21"/>
</a>
</g>
</g>
<!-- Node12&#45;&gt;Node8 -->
<g id="edge21_Node000012_Node000008" class="edge">
<title>Node12&#45;&gt;Node8</title>
<g id="a_edge21_Node000012_Node000008"><a xlink:title=" ">
<path fill="none" stroke="#63b8ff" d="M472.43,-763.02C479.01,-765.49 485.37,-768.59 491,-772.5 514.09,-788.53 504.62,-807.49 527,-824.5 535.88,-831.25 546.79,-836.19 557.3,-839.77"/>
<polygon fill="#63b8ff" stroke="#63b8ff" points="556.58,-843.21 567.17,-842.81 558.64,-836.52 556.58,-843.21"/>
</a>
</g>
</g>
<!-- Node13 -->
<g id="Node000013" class="node">
<title>Node13</title>
<g id="a_Node000013"><a xlink:href="bn__mp__clamp_8c.html#aa857c7afa73b9c5d5f24168f0d8d815e" target="_top" xlink:title=" ">
<polygon fill="white" stroke="#666666" points="781,-706 713,-706 713,-687 781,-687 781,-706"/>
<text text-anchor="middle" x="747" y="-694" font-family="Helvetica,sans-Serif" font-size="10.00">mp_clamp</text>
</a>
</g>
</g>
<!-- Node12&#45;&gt;Node13 -->
<g id="edge12_Node000012_Node000013" class="edge">
<title>Node12&#45;&gt;Node13</title>
<g id="a_edge12_Node000012_Node000013"><a xlink:title=" ">
<path fill="none" stroke="#63b8ff" d="M479.7,-745.39C530.59,-738.55 603.63,-727.89 667,-715.5 678.67,-713.22 691.22,-710.38 702.81,-707.6"/>
<polygon fill="#63b8ff" stroke="#63b8ff" points="703.81,-710.95 712.7,-705.18 702.15,-704.15 703.81,-710.95"/>
</a>
</g>
</g>
<!-- Node14 -->
<g id="Node000014" class="node">
<title>Node14</title>
<g id="a_Node000014"><a xlink:href="bn__mp__mul__2d_8c.html#a52798405022130ba14dabc4846ccd380" target="_top" xlink:title=" ">
<polygon fill="white" stroke="#666666" points="634,-782 560,-782 560,-763 634,-763 634,-782"/>
<text text-anchor="middle" x="597" y="-770" font-family="Helvetica,sans-Serif" font-size="10.00">mp_mul_2d</text>
</a>
</g>
</g>
<!-- Node12&#45;&gt;Node14 -->
<g id="edge14_Node000012_Node000014" class="edge">
<title>Node12&#45;&gt;Node14</title>
<g id="a_edge14_Node000012_Node000014"><a xlink:title=" ">
<path fill="none" stroke="#63b8ff" d="M479.71,-760.23C502.83,-762.67 528.49,-765.37 549.81,-767.62"/>
<polygon fill="#63b8ff" stroke="#63b8ff" points="549.58,-771.12 559.89,-768.69 550.32,-764.16 549.58,-771.12"/>
</a>
</g>
</g>
<!-- Node14&#45;&gt;Node7 -->
<g id="edge18_Node000014_Node000007" class="edge">
<title>Node14&#45;&gt;Node7</title>
<g id="a_edge18_Node000014_Node000007"><a xlink:title=" ">
<path fill="none" stroke="#63b8ff" d="M634.02,-764.29C672.87,-756.56 736.47,-747.2 791,-754.5 800.07,-755.71 809.65,-757.83 818.62,-760.19"/>
<polygon fill="#63b8ff" stroke="#63b8ff" points="817.86,-763.61 828.43,-762.92 819.74,-756.86 817.86,-763.61"/>
</a>
</g>
</g>
<!-- Node14&#45;&gt;Node13 -->
<g id="edge15_Node000014_Node000013" class="edge">
<title>Node14&#45;&gt;Node13</title>
<g id="a_edge15_Node000014_Node000013"><a xlink:title=" ">
<path fill="none" stroke="#63b8ff" d="M632.63,-762.91C643.92,-759.14 656.3,-754.31 667,-748.5 684.81,-738.82 686.1,-731.69 703,-720.5 707.81,-717.31 713.07,-714.14 718.22,-711.19"/>
<polygon fill="#63b8ff" stroke="#63b8ff" points="720.19,-714.1 727.22,-706.18 716.78,-707.98 720.19,-714.1"/>
</a>
</g>
</g>
<!-- Node15 -->
<g id="Node000015" class="node">
<title>Node15</title>
<g id="a_Node000015"><a xlink:href="bn__mp__copy_8c.html#a40137c186390668e7329fe8b4c169a81" target="_top" xlink:title=" ">
<polygon fill="white" stroke="#666666" points="777.5,-819 716.5,-819 716.5,-800 777.5,-800 777.5,-819"/>
<text text-anchor="middle" x="747" y="-807" font-family="Helvetica,sans-Serif" font-size="10.00">mp_copy</text>
</a>
</g>
</g>
<!-- Node14&#45;&gt;Node15 -->
<g id="edge16_Node000014_Node000015" class="edge">
<title>Node14&#45;&gt;Node15</title>
<g id="a_edge16_Node000014_Node000015"><a xlink:title=" ">
<path fill="none" stroke="#63b8ff" d="M634.2,-781.55C656.02,-787.01 683.83,-793.96 706.26,-799.56"/>
<polygon fill="#63b8ff" stroke="#63b8ff" points="705.59,-803.01 716.14,-802.04 707.29,-796.21 705.59,-803.01"/>
</a>
</g>
</g>
<!-- Node16 -->
<g id="Node000016" class="node">
<title>Node16</title>
<g id="a_Node000016"><a xlink:href="bn__mp__lshd_8c.html#aa895618828f6fc9affb25df273f1bc9d" target="_top" xlink:title=" ">
<polygon fill="white" stroke="#666666" points="776,-782 718,-782 718,-763 776,-763 776,-782"/>
<text text-anchor="middle" x="747" y="-770" font-family="Helvetica,sans-Serif" font-size="10.00">mp_lshd</text>
</a>
</g>
</g>
<!-- Node14&#45;&gt;Node16 -->
<g id="edge19_Node000014_Node000016" class="edge">
<title>Node14&#45;&gt;Node16</title>
<g id="a_edge19_Node000014_Node000016"><a xlink:title=" ">
<path fill="none" stroke="#63b8ff" d="M634.2,-772.5C656.37,-772.5 684.71,-772.5 707.32,-772.5"/>
<polygon fill="#63b8ff" stroke="#63b8ff" points="707.58,-776 717.58,-772.5 707.58,-769 707.58,-776"/>
</a>
</g>
</g>
<!-- Node15&#45;&gt;Node7 -->
<g id="edge17_Node000015_Node000007" class="edge">
<title>Node15&#45;&gt;Node7</title>
<g id="a_edge17_Node000015_Node000007"><a xlink:title=" ">
<path fill="none" stroke="#63b8ff" d="M776.07,-799.97C789.19,-795.52 805.01,-790.15 819.16,-785.34"/>
<polygon fill="#63b8ff" stroke="#63b8ff" points="820.3,-788.65 828.65,-782.12 818.05,-782.02 820.3,-788.65"/>
</a>
</g>
</g>
<!-- Node16&#45;&gt;Node7 -->
<g id="edge20_Node000016_Node000007" class="edge">
<title>Node16&#45;&gt;Node7</title>
<g id="a_edge20_Node000016_Node000007"><a xlink:title=" ">
<path fill="none" stroke="#63b8ff" d="M776.07,-772.5C788.44,-772.5 803.2,-772.5 816.7,-772.5"/>
<polygon fill="#63b8ff" stroke="#63b8ff" points="816.73,-776 826.73,-772.5 816.73,-769 816.73,-776"/>
</a>
</g>
</g>
<!-- Node18 -->
<g id="Node000018" class="node">
<title>Node18</title>
<g id="a_Node000018"><a xlink:href="bn__mp__cmp__mag_8c.html#a121088764f89bf3b1c563a5d81c8ed9a" target="_top" xlink:title=" ">
<polygon fill="white" stroke="#666666" points="640,-632 554,-632 554,-613 640,-613 640,-632"/>
<text text-anchor="middle" x="597" y="-620" font-family="Helvetica,sans-Serif" font-size="10.00">mp_cmp_mag</text>
</a>
</g>
</g>
<!-- Node17&#45;&gt;Node18 -->
<g id="edge23_Node000017_Node000018" class="edge">
<title>Node17&#45;&gt;Node18</title>
<g id="a_edge23_Node000017_Node000018"><a xlink:title=" ">
<path fill="none" stroke="#63b8ff" d="M442.68,-693.8C457.65,-691.41 476.22,-686.91 491,-678.5 510.94,-667.15 507.25,-653.18 527,-641.5 532.21,-638.42 537.93,-635.83 543.78,-633.64"/>
<polygon fill="#63b8ff" stroke="#63b8ff" points="545.31,-636.82 553.69,-630.34 543.1,-630.18 545.31,-636.82"/>
</a>
</g>
</g>
<!-- Node19 -->
<g id="Node000019" class="node">
<title>Node19</title>
<g id="a_Node000019"><a xlink:href="bn__s__mp__add_8c.html#a063eaa9c7ba263e7f02ecc5a3f65acfe" target="_top" xlink:title=" ">
<polygon fill="white" stroke="#666666" points="630,-706 564,-706 564,-687 630,-687 630,-706"/>
<text text-anchor="middle" x="597" y="-694" font-family="Helvetica,sans-Serif" font-size="10.00">s_mp_add</text>
</a>
</g>
</g>
<!-- Node17&#45;&gt;Node19 -->
<g id="edge24_Node000017_Node000019" class="edge">
<title>Node17&#45;&gt;Node19</title>
<g id="a_edge24_Node000017_Node000019"><a xlink:title=" ">
<path fill="none" stroke="#63b8ff" d="M442.56,-696.5C471.81,-696.5 519.24,-696.5 553.63,-696.5"/>
<polygon fill="#63b8ff" stroke="#63b8ff" points="553.85,-700 563.85,-696.5 553.85,-693 553.85,-700"/>
</a>
</g>
</g>
<!-- Node20 -->
<g id="Node000020" class="node">
<title>Node20</title>
<g id="a_Node000020"><a xlink:href="bn__s__mp__sub_8c.html#aa9a8231c2dc42159132a0f586bab31f5" target="_top" xlink:title=" ">
<polygon fill="white" stroke="#666666" points="629.5,-669 564.5,-669 564.5,-650 629.5,-650 629.5,-669"/>
<text text-anchor="middle" x="597" y="-657" font-family="Helvetica,sans-Serif" font-size="10.00">s_mp_sub</text>
</a>
</g>
</g>
<!-- Node17&#45;&gt;Node20 -->
<g id="edge27_Node000017_Node000020" class="edge">
<title>Node17&#45;&gt;Node20</title>
<g id="a_edge27_Node000017_Node000020"><a xlink:title=" ">
<path fill="none" stroke="#63b8ff" d="M442.56,-691.04C471.98,-684.99 519.81,-675.16 554.26,-668.08"/>
<polygon fill="#63b8ff" stroke="#63b8ff" points="555.39,-671.42 564.48,-665.98 553.98,-664.56 555.39,-671.42"/>
</a>
</g>
</g>
<!-- Node19&#45;&gt;Node7 -->
<g id="edge26_Node000019_Node000007" class="edge">
<title>Node19&#45;&gt;Node7</title>
<g id="a_edge26_Node000019_Node000007"><a xlink:title=" ">
<path fill="none" stroke="#63b8ff" d="M630.25,-689.32C677.74,-679.43 763.83,-664.38 791,-678.5 821.09,-694.14 840.33,-730.48 849.85,-753.12"/>
<polygon fill="#63b8ff" stroke="#63b8ff" points="846.72,-754.7 853.65,-762.71 853.22,-752.12 846.72,-754.7"/>
</a>
</g>
</g>
<!-- Node19&#45;&gt;Node13 -->
<g id="edge25_Node000019_Node000013" class="edge">
<title>Node19&#45;&gt;Node13</title>
<g id="a_edge25_Node000019_Node000013"><a xlink:title=" ">
<path fill="none" stroke="#63b8ff" d="M630.11,-696.5C651.35,-696.5 679.44,-696.5 702.65,-696.5"/>
<polygon fill="#63b8ff" stroke="#63b8ff" points="702.92,-700 712.92,-696.5 702.92,-693 702.92,-700"/>
</a>
</g>
</g>
<!-- Node20&#45;&gt;Node7 -->
<g id="edge29_Node000020_Node000007" class="edge">
<title>Node20&#45;&gt;Node7</title>
<g id="a_edge29_Node000020_Node000007"><a xlink:title=" ">
<path fill="none" stroke="#63b8ff" d="M629.53,-652.6C669.91,-645.53 740.67,-639.28 791,-668.5 823.22,-687.2 842.15,-728.62 850.96,-753.17"/>
<polygon fill="#63b8ff" stroke="#63b8ff" points="847.71,-754.47 854.22,-762.83 854.34,-752.24 847.71,-754.47"/>
</a>
</g>
</g>
<!-- Node20&#45;&gt;Node13 -->
<g id="edge28_Node000020_Node000013" class="edge">
<title>Node20&#45;&gt;Node13</title>
<g id="a_edge28_Node000020_Node000013"><a xlink:title=" ">
<path fill="none" stroke="#63b8ff" d="M629.75,-667.44C651.06,-672.76 679.4,-679.85 702.76,-685.69"/>
<polygon fill="#63b8ff" stroke="#63b8ff" points="702.21,-689.16 712.76,-688.19 703.91,-682.37 702.21,-689.16"/>
</a>
</g>
</g>
<!-- Node24 -->
<g id="Node000024" class="node">
<title>Node24</title>
<g id="a_Node000024"><a xlink:href="der__length__printable__string_8c.html#a40a13d8a1afe59dda039bc8fc1140ef2" target="_top" xlink:title=" ">
<polygon fill="white" stroke="#666666" points="471.5,-104.5 358.5,-104.5 358.5,-74.5 471.5,-74.5 471.5,-104.5"/>
<text text-anchor="start" x="366.5" y="-92.5" font-family="Helvetica,sans-Serif" font-size="10.00">der_printable_value</text>
<text text-anchor="middle" x="415" y="-81.5" font-family="Helvetica,sans-Serif" font-size="10.00">_decode</text>
</a>
</g>
</g>
<!-- Node23&#45;&gt;Node24 -->
<g id="edge33_Node000023_Node000024" class="edge">
<title>Node23&#45;&gt;Node24</title>
<g id="a_edge33_Node000023_Node000024"><a xlink:title=" ">
<path fill="none" stroke="#63b8ff" d="M285.66,-89.5C305.57,-89.5 327.83,-89.5 348.14,-89.5"/>
<polygon fill="#63b8ff" stroke="#63b8ff" points="348.25,-93 358.25,-89.5 348.25,-86 348.25,-93"/>
</a>
</g>
</g>
<!-- Node26&#45;&gt;Node4 -->
<g id="edge36_Node000026_Node000004" class="edge">
<title>Node26&#45;&gt;Node4</title>
<g id="a_edge36_Node000026_Node000004"><a xlink:title=" ">
<path fill="none" stroke="#63b8ff" d="M282.72,-684.32C290.19,-687.18 297.23,-691.11 303,-696.5 341.52,-732.48 300.4,-773.61 339,-809.5 340.47,-810.87 342.03,-812.14 343.65,-813.31"/>
<polygon fill="#63b8ff" stroke="#63b8ff" points="341.92,-816.35 352.3,-818.47 345.5,-810.34 341.92,-816.35"/>
</a>
</g>
</g>
<!-- Node30 -->
<g id="Node000030" class="node">
<title>Node30</title>
<g id="a_Node000030"><a xlink:href="der__length__ia5__string_8c.html#aa9cad5f213317520165e72ac9420bb65" target="_top" xlink:title=" ">
<polygon fill="white" stroke="#666666" points="656.5,-407 537.5,-407 537.5,-388 656.5,-388 656.5,-407"/>
<text text-anchor="middle" x="597" y="-395" font-family="Helvetica,sans-Serif" font-size="10.00">der_ia5_char_encode</text>
</a>
</g>
</g>
<!-- Node29&#45;&gt;Node30 -->
<g id="edge40_Node000029_Node000030" class="edge">
<title>Node29&#45;&gt;Node30</title>
<g id="a_edge40_Node000029_Node000030"><a xlink:title=" ">
<path fill="none" stroke="#63b8ff" d="M463.75,-443.94C472.92,-441.57 482.35,-438.76 491,-435.5 507.93,-429.12 510.18,-423.16 527,-416.5 532.99,-414.13 539.38,-411.94 545.77,-409.95"/>
<polygon fill="#63b8ff" stroke="#63b8ff" points="547.15,-413.19 555.74,-407 545.16,-406.48 547.15,-413.19"/>
</a>
</g>
</g>
<!-- Node31&#45;&gt;Node10 -->
<g id="edge44_Node000031_Node000010" class="edge">
<title>Node31&#45;&gt;Node10</title>
<g id="a_edge44_Node000031_Node000010"><a xlink:title=" ">
<path fill="none" stroke="#63b8ff" d="M469.02,-530.55C530.42,-534.09 630.99,-539.88 692.57,-543.42"/>
<polygon fill="#63b8ff" stroke="#63b8ff" points="692.66,-546.93 702.85,-544.02 693.06,-539.95 692.66,-546.93"/>
</a>
</g>
</g>
<!-- Node32 -->
<g id="Node000032" class="node">
<title>Node32</title>
<g id="a_Node000032"><a xlink:href="bn__mp__cmp__d_8c.html#aafbb7149deca3822af6b702a53a49b0f" target="_top" xlink:title=" ">
<polygon fill="white" stroke="#666666" points="632,-518 562,-518 562,-499 632,-499 632,-518"/>
<text text-anchor="middle" x="597" y="-506" font-family="Helvetica,sans-Serif" font-size="10.00">mp_cmp_d</text>
</a>
</g>
</g>
<!-- Node31&#45;&gt;Node32 -->
<g id="edge42_Node000031_Node000032" class="edge">
<title>Node31&#45;&gt;Node32</title>
<g id="a_edge42_Node000031_Node000032"><a xlink:title=" ">
<path fill="none" stroke="#63b8ff" d="M469.03,-521.9C495.26,-519.13 526.55,-515.83 551.5,-513.2"/>
<polygon fill="#63b8ff" stroke="#63b8ff" points="552.2,-516.64 561.78,-512.11 551.47,-509.68 552.2,-516.64"/>
</a>
</g>
</g>
<!-- Node33 -->
<g id="Node000033" class="node">
<title>Node33</title>
<g id="a_Node000033"><a xlink:href="bn__mp__cnt__lsb_8c.html#abd1e65207a1a0b142572a9da2645f783" target="_top" xlink:title=" ">
<polygon fill="white" stroke="#666666" points="633,-481 561,-481 561,-462 633,-462 633,-481"/>
<text text-anchor="middle" x="597" y="-469" font-family="Helvetica,sans-Serif" font-size="10.00">mp_cnt_lsb</text>
</a>
</g>
</g>
<!-- Node31&#45;&gt;Node33 -->
<g id="edge43_Node000031_Node000033" class="edge">
<title>Node31&#45;&gt;Node33</title>
<g id="a_edge43_Node000031_Node000033"><a xlink:title=" ">
<path fill="none" stroke="#63b8ff" d="M463.75,-517.94C472.92,-515.57 482.35,-512.76 491,-509.5 507.93,-503.12 510.18,-497.16 527,-490.5 534.64,-487.47 542.93,-484.74 551.04,-482.36"/>
<polygon fill="#63b8ff" stroke="#63b8ff" points="552.09,-485.7 560.77,-479.62 550.19,-478.96 552.09,-485.7"/>
</a>
</g>
</g>
<!-- Node34 -->
<g id="Node000034" class="node">
<title>Node34</title>
<g id="a_Node000034"><a xlink:href="bn__mp__unsigned__bin__size_8c.html#a51d637e8f0c3b84b9ceb8c3426117cce" target="_top" xlink:title=" ">
<polygon fill="white" stroke="#666666" points="660.5,-444 533.5,-444 533.5,-425 660.5,-425 660.5,-444"/>
<text text-anchor="middle" x="597" y="-432" font-family="Helvetica,sans-Serif" font-size="10.00">mp_unsigned_bin_size</text>
</a>
</g>
</g>
<!-- Node31&#45;&gt;Node34 -->
<g id="edge45_Node000031_Node000034" class="edge">
<title>Node31&#45;&gt;Node34</title>
<g id="a_edge45_Node000031_Node000034"><a xlink:title=" ">
<path fill="none" stroke="#63b8ff" d="M469.05,-520.18C476.85,-517.61 484.45,-514.15 491,-509.5 515.12,-492.37 503.16,-471.03 527,-453.5 529.65,-451.55 532.5,-449.8 535.46,-448.23"/>
<polygon fill="#63b8ff" stroke="#63b8ff" points="537.01,-451.37 544.66,-444.03 534.1,-445 537.01,-451.37"/>
</a>
</g>
</g>
<!-- Node34&#45;&gt;Node10 -->
<g id="edge46_Node000034_Node000010" class="edge">
<title>Node34&#45;&gt;Node10</title>
<g id="a_edge46_Node000034_Node000010"><a xlink:title=" ">
<path fill="none" stroke="#63b8ff" d="M647.07,-444.06C654.06,-446.53 660.92,-449.63 667,-453.5 697.21,-472.76 721.98,-507.15 735.31,-528.29"/>
<polygon fill="#63b8ff" stroke="#63b8ff" points="732.41,-530.25 740.61,-536.96 738.39,-526.6 732.41,-530.25"/>
</a>
</g>
</g>
<!-- Node36 -->
<g id="Node000036" class="node">
<title>Node36</title>
<g id="a_Node000036"><a xlink:href="der__length__object__identifier_8c.html#aef2413878ded8dc303e150d31fca294d" target="_top" xlink:title=" ">
<polygon fill="white" stroke="#666666" points="667,-370 527,-370 527,-351 667,-351 667,-370"/>
<text text-anchor="middle" x="597" y="-358" font-family="Helvetica,sans-Serif" font-size="10.00">der_object_identifier_bits</text>
</a>
</g>
</g>
<!-- Node35&#45;&gt;Node36 -->
<g id="edge48_Node000035_Node000036" class="edge">
<title>Node35&#45;&gt;Node36</title>
<g id="a_edge48_Node000035_Node000036"><a xlink:title=" ">
<path fill="none" stroke="#63b8ff" d="M463.75,-406.94C472.92,-404.57 482.35,-401.76 491,-398.5 507.93,-392.12 510.18,-386.16 527,-379.5 532.99,-377.13 539.38,-374.94 545.77,-372.95"/>
<polygon fill="#63b8ff" stroke="#63b8ff" points="547.15,-376.19 555.74,-370 545.16,-369.48 547.15,-376.19"/>
</a>
</g>
</g>
<!-- Node39 -->
<g id="Node000039" class="node">
<title>Node39</title>
<g id="a_Node000039"><a xlink:href="der__length__printable__string_8c.html#a2169053089957db51bbd2e091c7ae293" target="_top" xlink:title=" ">
<polygon fill="white" stroke="#666666" points="650.5,-277.5 543.5,-277.5 543.5,-247.5 650.5,-247.5 650.5,-277.5"/>
<text text-anchor="start" x="551.5" y="-265.5" font-family="Helvetica,sans-Serif" font-size="10.00">der_printable_char</text>
<text text-anchor="middle" x="597" y="-254.5" font-family="Helvetica,sans-Serif" font-size="10.00">_encode</text>
</a>
</g>
</g>
<!-- Node38&#45;&gt;Node39 -->
<g id="edge51_Node000038_Node000039" class="edge">
<title>Node38&#45;&gt;Node39</title>
<g id="a_edge51_Node000038_Node000039"><a xlink:title=" ">
<path fill="none" stroke="#63b8ff" d="M473.94,-262.5C492.85,-262.5 513.92,-262.5 533.17,-262.5"/>
<polygon fill="#63b8ff" stroke="#63b8ff" points="533.34,-266 543.34,-262.5 533.34,-259 533.34,-266"/>
</a>
</g>
</g>
<!-- Node40&#45;&gt;Node28 -->
<g id="edge53_Node000040_Node000028" class="edge">
<title>Node40&#45;&gt;Node28</title>
<g id="a_edge53_Node000040_Node000028"><a xlink:title=" ">
<path fill="none" stroke="#63b8ff" d="M232.21,-369.13C248.06,-391.13 290.21,-445.25 339,-472.5 342.23,-474.3 345.64,-475.93 349.14,-477.39"/>
<polygon fill="#63b8ff" stroke="#63b8ff" points="348.01,-480.7 358.61,-480.89 350.44,-474.14 348.01,-480.7"/>
</a>
</g>
</g>
<!-- Node40&#45;&gt;Node29 -->
<g id="edge55_Node000040_Node000029" class="edge">
<title>Node40&#45;&gt;Node29</title>
<g id="a_edge55_Node000040_Node000029"><a xlink:title=" ">
<path fill="none" stroke="#63b8ff" d="M236.94,-369.21C256.54,-385.36 298.38,-417.71 339,-435.5 343.63,-437.53 348.53,-439.35 353.52,-440.98"/>
<polygon fill="#63b8ff" stroke="#63b8ff" points="352.58,-444.36 363.17,-443.89 354.6,-437.66 352.58,-444.36"/>
</a>
</g>
</g>
<!-- Node40&#45;&gt;Node31 -->
<g id="edge56_Node000040_Node000031" class="edge">
<title>Node40&#45;&gt;Node31</title>
<g id="a_edge56_Node000040_Node000031"><a xlink:title=" ">
<path fill="none" stroke="#63b8ff" d="M229.8,-369.03C242.38,-395.8 281.88,-472.14 339,-509.5 342.82,-512 346.96,-514.15 351.25,-516.01"/>
<polygon fill="#63b8ff" stroke="#63b8ff" points="350.27,-519.38 360.86,-519.61 352.73,-512.82 350.27,-519.38"/>
</a>
</g>
</g>
<!-- Node40&#45;&gt;Node35 -->
<g id="edge57_Node000040_Node000035" class="edge">
<title>Node40&#45;&gt;Node35</title>
<g id="a_edge57_Node000040_Node000035"><a xlink:title=" ">
<path fill="none" stroke="#63b8ff" d="M250.97,-369.03C273.83,-377.4 308.39,-389.59 339,-398.5 346.15,-400.58 353.74,-402.61 361.23,-404.51"/>
<polygon fill="#63b8ff" stroke="#63b8ff" points="360.43,-407.91 370.98,-406.92 362.11,-401.12 360.43,-407.91"/>
</a>
</g>
</g>
<!-- Node40&#45;&gt;Node37 -->
<g id="edge58_Node000040_Node000037" class="edge">
<title>Node40&#45;&gt;Node37</title>
<g id="a_edge58_Node000040_Node000037"><a xlink:title=" ">
<path fill="none" stroke="#63b8ff" d="M256.19,-349.99C288.38,-340.03 334.88,-325.66 339,-324.5 347.27,-322.18 356.09,-319.83 364.67,-317.61"/>
<polygon fill="#63b8ff" stroke="#63b8ff" points="365.76,-320.95 374.59,-315.08 364.03,-314.17 365.76,-320.95"/>
</a>
</g>
</g>
<!-- Node40&#45;&gt;Node38 -->
<g id="edge59_Node000040_Node000038" class="edge">
<title>Node40&#45;&gt;Node38</title>
<g id="a_edge59_Node000040_Node000038"><a xlink:title=" ">
<path fill="none" stroke="#63b8ff" d="M238.18,-349.99C258.55,-335.06 300.22,-305.93 339,-287.5 343.68,-285.27 348.62,-283.16 353.63,-281.18"/>
<polygon fill="#63b8ff" stroke="#63b8ff" points="355.19,-284.33 363.31,-277.52 352.72,-277.78 355.19,-284.33"/>
</a>
</g>
</g>
<!-- Node40&#45;&gt;Node40 -->
<g id="edge60_Node000040_Node000040" class="edge">
<title>Node40&#45;&gt;Node40</title>
<g id="a_edge60_Node000040_Node000040"><a xlink:title=" ">
<path fill="none" stroke="#63b8ff" d="M198.61,-369.08C186.01,-377.73 194.64,-387 224.5,-387 244.56,-387 255.04,-382.82 255.94,-377.45"/>
<polygon fill="#63b8ff" stroke="#63b8ff" points="258.84,-375.49 250.39,-369.08 253,-379.35 258.84,-375.49"/>
</a>
</g>
</g>
<!-- Node41 -->
<g id="Node000041" class="node">
<title>Node41</title>
<g id="a_Node000041"><a xlink:href="der__length__boolean_8c.html#aa90c23682da0279cbe55ea64b2c3e381" target="_top" xlink:title=" ">
<polygon fill="white" stroke="#666666" points="471.5,-389 358.5,-389 358.5,-370 471.5,-370 471.5,-389"/>
<text text-anchor="middle" x="415" y="-377" font-family="Helvetica,sans-Serif" font-size="10.00">der_length_boolean</text>
</a>
</g>
</g>
<!-- Node40&#45;&gt;Node41 -->
<g id="edge54_Node000040_Node000041" class="edge">
<title>Node40&#45;&gt;Node41</title>
<g id="a_edge54_Node000040_Node000041"><a xlink:title=" ">
<path fill="none" stroke="#63b8ff" d="M284.63,-365.77C304.85,-367.92 327.6,-370.33 348.31,-372.53"/>
<polygon fill="#63b8ff" stroke="#63b8ff" points="347.98,-376.02 358.3,-373.59 348.72,-369.05 347.98,-376.02"/>
</a>
</g>
</g>
<!-- Node40&#45;&gt;Node42 -->
<g id="edge61_Node000040_Node000042" class="edge">
<title>Node40&#45;&gt;Node42</title>
<g id="a_edge61_Node000040_Node000042"><a xlink:title=" ">
<path fill="none" stroke="#63b8ff" d="M231.6,-349.91C246.78,-326.88 288.63,-268.2 339,-238.5 342.71,-236.31 346.67,-234.38 350.75,-232.66"/>
<polygon fill="#63b8ff" stroke="#63b8ff" points="352.31,-235.82 360.45,-229.04 349.86,-229.26 352.31,-235.82"/>
</a>
</g>
</g>
<!-- Node43 -->
<g id="Node000043" class="node">
<title>Node43</title>
<g id="a_Node000043"><a xlink:href="der__length__utctime_8c.html#aa333e6d52da47508460dc2f73788f029" target="_top" xlink:title=" ">
<polygon fill="white" stroke="#666666" points="470.5,-352 359.5,-352 359.5,-333 470.5,-333 470.5,-352"/>
<text text-anchor="middle" x="415" y="-340" font-family="Helvetica,sans-Serif" font-size="10.00">der_length_utctime</text>
</a>
</g>
</g>
<!-- Node40&#45;&gt;Node43 -->
<g id="edge62_Node000040_Node000043" class="edge">
<title>Node40&#45;&gt;Node43</title>
<g id="a_edge62_Node000040_Node000043"><a xlink:title=" ">
<path fill="none" stroke="#63b8ff" d="M284.63,-354.17C305.13,-352.32 328.23,-350.24 349.17,-348.35"/>
<polygon fill="#63b8ff" stroke="#63b8ff" points="349.61,-351.82 359.25,-347.44 348.98,-344.85 349.61,-351.82"/>
</a>
</g>
</g>
<!-- Node40&#45;&gt;Node44 -->
<g id="edge63_Node000040_Node000044" class="edge">
<title>Node40&#45;&gt;Node44</title>
<g id="a_edge63_Node000040_Node000044"><a xlink:title=" ">
<path fill="none" stroke="#63b8ff" d="M229.5,-349.9C241.56,-322.17 280.38,-241.43 339,-201.5 341.92,-199.51 345.03,-197.73 348.26,-196.14"/>
<polygon fill="#63b8ff" stroke="#63b8ff" points="349.82,-199.28 357.64,-192.12 347.07,-192.84 349.82,-199.28"/>
</a>
</g>
</g>
<!-- Node45 -->
<g id="Node000045" class="node">
<title>Node45</title>
<g id="a_Node000045"><a xlink:href="der__length__utf8__string_8c.html#acc54e796874f1b01e2f9dd101da4c2a9" target="_top" xlink:title=" ">
<polygon fill="white" stroke="#666666" points="648.5,-192 545.5,-192 545.5,-173 648.5,-173 648.5,-192"/>
<text text-anchor="middle" x="597" y="-180" font-family="Helvetica,sans-Serif" font-size="10.00">der_utf8_charsize</text>
</a>
</g>
</g>
<!-- Node44&#45;&gt;Node45 -->
<g id="edge64_Node000044_Node000045" class="edge">
<title>Node44&#45;&gt;Node45</title>
<g id="a_edge64_Node000044_Node000045"><a xlink:title=" ">
<path fill="none" stroke="#63b8ff" d="M478.2,-182.5C496.72,-182.5 516.98,-182.5 535.4,-182.5"/>
<polygon fill="#63b8ff" stroke="#63b8ff" points="535.41,-186 545.41,-182.5 535.41,-179 535.41,-186"/>
</a>
</g>
</g>
</g>
</svg>
