<?xml version="1.0" encoding="UTF-8" standalone="no"?>
<!DOCTYPE svg PUBLIC "-//W3C//DTD SVG 1.1//EN"
 "http://www.w3.org/Graphics/SVG/1.1/DTD/svg11.dtd">
<!-- Generated by graphviz version 2.43.0 (0)
 -->
<!-- Title: AscEmu/src/world/Objects/Units Pages: 1 -->
<!--zoomable 235 -->

<svg id="main" version="1.1" xmlns="http://www.w3.org/2000/svg" xmlns:xlink="http://www.w3.org/1999/xlink" xml:space="preserve" onload="init(evt)">
<style type="text/css"><![CDATA[
.node, .edge {opacity: 0.7;}
.node.selected, .edge.selected {opacity: 1;}
.edge:hover path { stroke: red; }
.edge:hover polygon { stroke: red; fill: red; }
]]></style>

<defs>
  <circle id="rim" cx="0" cy="0" r="7"/>
  <circle id="rim2" cx="0" cy="0" r="3.5"/>
  <g id="zoomPlus">
    <use xlink:href="#rim" fill="#404040"><set attributeName="fill" to="#808080" begin="zoomplus.mouseover" end="zoomplus.mouseout"/></use>
    <path d="M-4,0h8M0,-4v8" fill="none" stroke="white" stroke-width="1.5" pointer-events="none"/>
  </g>
  <g id="zoomMin">
    <use xlink:href="#rim" fill="#404040"><set attributeName="fill" to="#808080" begin="zoomminus.mouseover" end="zoomminus.mouseout"/></use>
    <path d="M-4,0h8" fill="none" stroke="white" stroke-width="1.5" pointer-events="none"/>
  </g>
  <g id="arrowUp" transform="translate(30 24)">
    <use xlink:href="#rim"/>
    <path pointer-events="none" fill="none" stroke="white" stroke-width="1.5" d="M0,-3.0v7 M-2.5,-0.5L0,-3.0L2.5,-0.5"/>
  </g>
  <g id="arrowRight" transform="rotate(90) translate(36 -43)">
    <use xlink:href="#rim"/>
    <path pointer-events="none" fill="none" stroke="white" stroke-width="1.5" d="M0,-3.0v7 M-2.5,-0.5L0,-3.0L2.5,-0.5"/>
  </g>
  <g id="arrowDown" transform="rotate(180) translate(-30 -48)">
    <use xlink:href="#rim"/>
    <path pointer-events="none" fill="none" stroke="white" stroke-width="1.5" d="M0,-3.0v7 M-2.5,-0.5L0,-3.0L2.5,-0.5"/>
  </g>
  <g id="arrowLeft" transform="rotate(270) translate(-36 17)">
    <use xlink:href="#rim"/>
    <path pointer-events="none" fill="none" stroke="white" stroke-width="1.5" d="M0,-3.0v7 M-2.5,-0.5L0,-3.0L2.5,-0.5"/>
  </g>
  <g id="resetDef">
    <use xlink:href="#rim2" fill="#404040"><set attributeName="fill" to="#808080" begin="reset.mouseover" end="reset.mouseout"/></use>
  </g>
</defs>
<script type="application/ecmascript">
var viewWidth = 793;
var viewHeight = 235;
var sectionId = 'dynsection-0';
</script>
<script type="application/ecmascript" xlink:href="svg.min.js"/>
<svg id="graph" class="graph">
<g id="viewport">
<title>AscEmu/src/world/Objects/Units</title>
<g id="clust1" class="cluster">
<title>clusterdir_3f20d22a39dcade980add82bb17754e1</title>
<g id="a_clust1"><a xlink:href="dir_3f20d22a39dcade980add82bb17754e1.html" target="_top" xlink:title="Objects">
<polygon fill="#edf0f7" stroke="#7f7f7f" stroke-dasharray="5,2" points="319.5,-39.28 319.5,-219.28 435.5,-219.28 435.5,-39.28 319.5,-39.28"/>
<text text-anchor="middle" x="377.5" y="-207.28" font-family="Helvetica,sans-Serif" font-size="10.00">Objects</text>
</a>
</g>
</g>
<g id="clust2" class="cluster">
<title>clusterdir_44c7bf6f86a99ec4ab38de81745e90f5</title>
<g id="a_clust2"><a xlink:href="dir_44c7bf6f86a99ec4ab38de81745e90f5.html" target="_top">
<polygon fill="#edf0f7" stroke="#404040" stroke-width="2" points="327.5,-47.28 327.5,-192.28 427.5,-192.28 427.5,-47.28 327.5,-47.28"/>
</a>
</g>
</g>
<!-- dir_44c7bf6f86a99ec4ab38de81745e90f5 -->
<g id="node1" class="node">
<title>dir_44c7bf6f86a99ec4ab38de81745e90f5</title>
<text text-anchor="middle" x="387.5" y="-172.28" font-family="Helvetica,sans-Serif" font-size="10.00">Units</text>
</g>
<!-- dir_e13f225c0809f3ff095bec3449e9ff3b -->
<g id="node2" class="node">
<title>dir_e13f225c0809f3ff095bec3449e9ff3b</title>
<g id="a_node2"><a xlink:href="dir_e13f225c0809f3ff095bec3449e9ff3b.html" target="_top" xlink:title="Creatures">
<polygon fill="#a2b4d6" stroke="#404040" points="419.5,-129.28 355.5,-129.28 355.5,-110.28 419.5,-110.28 419.5,-129.28"/>
<text text-anchor="middle" x="387.5" y="-117.28" font-family="Helvetica,sans-Serif" font-size="10.00">Creatures</text>
</a>
</g>
</g>
<!-- dir_44c7bf6f86a99ec4ab38de81745e90f5&#45;&gt;dir_e13f225c0809f3ff095bec3449e9ff3b -->
<g id="edge8" class="edge">
<title>dir_44c7bf6f86a99ec4ab38de81745e90f5&#45;&gt;dir_e13f225c0809f3ff095bec3449e9ff3b</title>
<g id="a_edge8"><a xlink:href="dir_000171_000038.html" target="_top">
<path fill="none" stroke="#63b8ff" d="M387.5,-165.03C387.5,-158.08 387.5,-148.13 387.5,-139.42"/>
<polygon fill="#63b8ff" stroke="#63b8ff" points="391,-139.37 387.5,-129.37 384,-139.37 391,-139.37"/>
</a>
</g>
<g id="a_edge8&#45;headlabel"><a xlink:href="dir_000171_000038.html" target="_top" xlink:title="19">
<text text-anchor="middle" x="393.84" y="-140.46" font-family="Helvetica,sans-Serif" font-size="10.00" fill="#63b8ff">19</text>
</a>
</g>
</g>
<!-- dir_fa223a76df1d336137434e24a53cc7d1 -->
<g id="node3" class="node">
<title>dir_fa223a76df1d336137434e24a53cc7d1</title>
<g id="a_node3"><a xlink:href="dir_fa223a76df1d336137434e24a53cc7d1.html" target="_top" xlink:title="Players">
<polygon fill="#a2b4d6" stroke="#404040" points="389,-74.28 336,-74.28 336,-55.28 389,-55.28 389,-74.28"/>
<text text-anchor="middle" x="362.5" y="-62.28" font-family="Helvetica,sans-Serif" font-size="10.00">Players</text>
</a>
</g>
</g>
<!-- dir_44c7bf6f86a99ec4ab38de81745e90f5&#45;&gt;dir_fa223a76df1d336137434e24a53cc7d1 -->
<g id="edge10" class="edge">
<title>dir_44c7bf6f86a99ec4ab38de81745e90f5&#45;&gt;dir_fa223a76df1d336137434e24a53cc7d1</title>
<g id="a_edge10"><a xlink:href="dir_000171_000119.html" target="_top">
<path fill="none" stroke="#63b8ff" d="M375.57,-165.08C365.67,-157.05 352.31,-144.15 346.5,-129.28 340.69,-114.41 346.07,-96.74 352.11,-83.82"/>
<polygon fill="#63b8ff" stroke="#63b8ff" points="355.39,-85.11 356.9,-74.62 349.18,-81.88 355.39,-85.11"/>
</a>
</g>
<g id="a_edge10&#45;headlabel"><a xlink:href="dir_000171_000119.html" target="_top" xlink:title="11">
<text text-anchor="middle" x="356.25" y="-87.11" font-family="Helvetica,sans-Serif" font-size="10.00" fill="#63b8ff">11</text>
</a>
</g>
</g>
<!-- dir_13c824d901bdecb0a22681eeb631eec9 -->
<g id="node4" class="node">
<title>dir_13c824d901bdecb0a22681eeb631eec9</title>
<g id="a_node4"><a xlink:href="dir_13c824d901bdecb0a22681eeb631eec9.html" target="_top" xlink:title="Server">
<polygon fill="#edf0f7" stroke="red" stroke-dasharray="5,2" points="216.5,-19.28 168.5,-19.28 168.5,-0.28 216.5,-0.28 216.5,-19.28"/>
<text text-anchor="middle" x="192.5" y="-7.28" font-family="Helvetica,sans-Serif" font-size="10.00">Server</text>
</a>
</g>
</g>
<!-- dir_44c7bf6f86a99ec4ab38de81745e90f5&#45;&gt;dir_13c824d901bdecb0a22681eeb631eec9 -->
<g id="edge1" class="edge">
<title>dir_44c7bf6f86a99ec4ab38de81745e90f5&#45;&gt;dir_13c824d901bdecb0a22681eeb631eec9</title>
<g id="a_edge1"><a xlink:href="dir_000171_000135.html" target="_top">
<path fill="none" stroke="#63b8ff" d="M366.36,-165.35C332.85,-151.07 267.19,-119.22 226.5,-74.28 214.45,-60.97 205.22,-42.61 199.44,-29.05"/>
<polygon fill="#63b8ff" stroke="#63b8ff" points="202.53,-27.37 195.55,-19.4 196.04,-29.99 202.53,-27.37"/>
</a>
</g>
<g id="a_edge1&#45;headlabel"><a xlink:href="dir_000171_000135.html" target="_top" xlink:title="171">
<text text-anchor="middle" x="206.51" y="-27.15" font-family="Helvetica,sans-Serif" font-size="10.00" fill="#63b8ff">171</text>
</a>
</g>
</g>
<!-- dir_4c93ae956ea541c350ab84829476f4ba -->
<g id="node6" class="node">
<title>dir_4c93ae956ea541c350ab84829476f4ba</title>
<g id="a_node6"><a xlink:href="dir_4c93ae956ea541c350ab84829476f4ba.html" target="_top" xlink:title="Spell">
<polygon fill="#edf0f7" stroke="red" stroke-dasharray="5,2" points="497,-19.28 456,-19.28 456,-0.28 497,-0.28 497,-19.28"/>
<text text-anchor="middle" x="476.5" y="-7.28" font-family="Helvetica,sans-Serif" font-size="10.00">Spell</text>
</a>
</g>
</g>
<!-- dir_44c7bf6f86a99ec4ab38de81745e90f5&#45;&gt;dir_4c93ae956ea541c350ab84829476f4ba -->
<g id="edge2" class="edge">
<title>dir_44c7bf6f86a99ec4ab38de81745e90f5&#45;&gt;dir_4c93ae956ea541c350ab84829476f4ba</title>
<g id="a_edge2"><a xlink:href="dir_000171_000142.html" target="_top">
<path fill="none" stroke="#63b8ff" d="M408.8,-170.58C436.89,-165.55 486.9,-153.73 522.5,-129.28 548.54,-111.4 556.88,-104.03 567.5,-74.28 572.73,-59.63 576.71,-51.82 567.5,-39.28 553.81,-20.65 527.98,-13.86 507.32,-11.54"/>
<polygon fill="#63b8ff" stroke="#63b8ff" points="507.34,-8.03 497.08,-10.7 506.76,-15.01 507.34,-8.03"/>
</a>
</g>
<g id="a_edge2&#45;headlabel"><a xlink:href="dir_000171_000142.html" target="_top" xlink:title="79">
<text text-anchor="middle" x="511.15" y="-3" font-family="Helvetica,sans-Serif" font-size="10.00" fill="#63b8ff">79</text>
</a>
</g>
</g>
<!-- dir_874cd28370ba42247965cad8d417b75a -->
<g id="node8" class="node">
<title>dir_874cd28370ba42247965cad8d417b75a</title>
<g id="a_node8"><a xlink:href="dir_874cd28370ba42247965cad8d417b75a.html" target="_top" xlink:title="Data">
<polygon fill="#edf0f7" stroke="#7f7f7f" points="709.5,-19.28 669.5,-19.28 669.5,-0.28 709.5,-0.28 709.5,-19.28"/>
<text text-anchor="middle" x="689.5" y="-7.28" font-family="Helvetica,sans-Serif" font-size="10.00">Data</text>
</a>
</g>
</g>
<!-- dir_44c7bf6f86a99ec4ab38de81745e90f5&#45;&gt;dir_874cd28370ba42247965cad8d417b75a -->
<g id="edge3" class="edge">
<title>dir_44c7bf6f86a99ec4ab38de81745e90f5&#45;&gt;dir_874cd28370ba42247965cad8d417b75a</title>
<g id="a_edge3"><a xlink:href="dir_000171_000043.html" target="_top">
<path fill="none" stroke="#63b8ff" d="M408.56,-172.47C444.39,-169.45 518.56,-159.73 572.5,-129.28 618.67,-103.22 658.73,-53.69 677.74,-27.69"/>
<polygon fill="#63b8ff" stroke="#63b8ff" points="680.59,-29.72 683.56,-19.55 674.9,-25.64 680.59,-29.72"/>
</a>
</g>
<g id="a_edge3&#45;headlabel"><a xlink:href="dir_000171_000043.html" target="_top" xlink:title="6">
<text text-anchor="middle" x="680.81" y="-31.79" font-family="Helvetica,sans-Serif" font-size="10.00" fill="#63b8ff">6</text>
</a>
</g>
</g>
<!-- dir_8eada9216d9fecc8b0022aaec5e4af81 -->
<g id="node9" class="node">
<title>dir_8eada9216d9fecc8b0022aaec5e4af81</title>
<g id="a_node9"><a xlink:href="dir_8eada9216d9fecc8b0022aaec5e4af81.html" target="_top" xlink:title="Storage">
<polygon fill="#edf0f7" stroke="red" stroke-dasharray="5,2" points="651.5,-19.28 597.5,-19.28 597.5,-0.28 651.5,-0.28 651.5,-19.28"/>
<text text-anchor="middle" x="624.5" y="-7.28" font-family="Helvetica,sans-Serif" font-size="10.00">Storage</text>
</a>
</g>
</g>
<!-- dir_44c7bf6f86a99ec4ab38de81745e90f5&#45;&gt;dir_8eada9216d9fecc8b0022aaec5e4af81 -->
<g id="edge4" class="edge">
<title>dir_44c7bf6f86a99ec4ab38de81745e90f5&#45;&gt;dir_8eada9216d9fecc8b0022aaec5e4af81</title>
<g id="a_edge4"><a xlink:href="dir_000171_000149.html" target="_top">
<path fill="none" stroke="#63b8ff" d="M408.71,-172.42C441.45,-169.4 505.06,-159.76 548.5,-129.28 584.55,-103.99 607.5,-55.6 617.93,-29.15"/>
<polygon fill="#63b8ff" stroke="#63b8ff" points="621.29,-30.18 621.54,-19.59 614.74,-27.71 621.29,-30.18"/>
</a>
</g>
<g id="a_edge4&#45;headlabel"><a xlink:href="dir_000171_000149.html" target="_top" xlink:title="28">
<text text-anchor="middle" x="622.68" y="-32.05" font-family="Helvetica,sans-Serif" font-size="10.00" fill="#63b8ff">28</text>
</a>
</g>
</g>
<!-- dir_907665e1a38c4ea97d58516c5f2ceb24 -->
<g id="node10" class="node">
<title>dir_907665e1a38c4ea97d58516c5f2ceb24</title>
<g id="a_node10"><a xlink:href="dir_907665e1a38c4ea97d58516c5f2ceb24.html" target="_top" xlink:title="Movement">
<polygon fill="#edf0f7" stroke="red" stroke-dasharray="5,2" points="304,-19.28 235,-19.28 235,-0.28 304,-0.28 304,-19.28"/>
<text text-anchor="middle" x="269.5" y="-7.28" font-family="Helvetica,sans-Serif" font-size="10.00">Movement</text>
</a>
</g>
</g>
<!-- dir_44c7bf6f86a99ec4ab38de81745e90f5&#45;&gt;dir_907665e1a38c4ea97d58516c5f2ceb24 -->
<g id="edge5" class="edge">
<title>dir_44c7bf6f86a99ec4ab38de81745e90f5&#45;&gt;dir_907665e1a38c4ea97d58516c5f2ceb24</title>
<g id="a_edge5"><a xlink:href="dir_000171_000104.html" target="_top">
<path fill="none" stroke="#63b8ff" d="M374.38,-165.09C352.14,-149.63 307.26,-115.1 284.5,-74.28 276.82,-60.51 273.06,-42.93 271.22,-29.77"/>
<polygon fill="#63b8ff" stroke="#63b8ff" points="274.67,-29.08 270.06,-19.54 267.71,-29.87 274.67,-29.08"/>
</a>
</g>
<g id="a_edge5&#45;headlabel"><a xlink:href="dir_000171_000104.html" target="_top" xlink:title="16">
<text text-anchor="middle" x="277.89" y="-29.83" font-family="Helvetica,sans-Serif" font-size="10.00" fill="#63b8ff">16</text>
</a>
</g>
</g>
<!-- dir_b9d1268cc2e3130d823f3788ee9728e7 -->
<g id="node11" class="node">
<title>dir_b9d1268cc2e3130d823f3788ee9728e7</title>
<g id="a_node11"><a xlink:href="dir_b9d1268cc2e3130d823f3788ee9728e7.html" target="_top" xlink:title="Management">
<polygon fill="#edf0f7" stroke="red" stroke-dasharray="5,2" points="81,-19.28 0,-19.28 0,-0.28 81,-0.28 81,-19.28"/>
<text text-anchor="middle" x="40.5" y="-7.28" font-family="Helvetica,sans-Serif" font-size="10.00">Management</text>
</a>
</g>
</g>
<!-- dir_44c7bf6f86a99ec4ab38de81745e90f5&#45;&gt;dir_b9d1268cc2e3130d823f3788ee9728e7 -->
<g id="edge6" class="edge">
<title>dir_44c7bf6f86a99ec4ab38de81745e90f5&#45;&gt;dir_b9d1268cc2e3130d823f3788ee9728e7</title>
<g id="a_edge6"><a xlink:href="dir_000171_000089.html" target="_top">
<path fill="none" stroke="#63b8ff" d="M366.38,-172.3C312.78,-167.51 169.58,-148.14 82.5,-74.28 67.58,-61.62 55.87,-42.36 48.64,-28.38"/>
<polygon fill="#63b8ff" stroke="#63b8ff" points="51.74,-26.73 44.2,-19.29 45.45,-29.81 51.74,-26.73"/>
</a>
</g>
<g id="a_edge6&#45;headlabel"><a xlink:href="dir_000171_000089.html" target="_top" xlink:title="51">
<text text-anchor="middle" x="55.87" y="-26.21" font-family="Helvetica,sans-Serif" font-size="10.00" fill="#63b8ff">51</text>
</a>
</g>
</g>
<!-- dir_ba4b8c0fd7611c803531a7850ab64500 -->
<g id="node12" class="node">
<title>dir_ba4b8c0fd7611c803531a7850ab64500</title>
<g id="a_node12"><a xlink:href="dir_ba4b8c0fd7611c803531a7850ab64500.html" target="_top" xlink:title="Map">
<polygon fill="#edf0f7" stroke="red" stroke-dasharray="5,2" points="137.5,-19.28 99.5,-19.28 99.5,-0.28 137.5,-0.28 137.5,-19.28"/>
<text text-anchor="middle" x="118.5" y="-7.28" font-family="Helvetica,sans-Serif" font-size="10.00">Map</text>
</a>
</g>
</g>
<!-- dir_44c7bf6f86a99ec4ab38de81745e90f5&#45;&gt;dir_ba4b8c0fd7611c803531a7850ab64500 -->
<g id="edge7" class="edge">
<title>dir_44c7bf6f86a99ec4ab38de81745e90f5&#45;&gt;dir_ba4b8c0fd7611c803531a7850ab64500</title>
<g id="a_edge7"><a xlink:href="dir_000171_000092.html" target="_top">
<path fill="none" stroke="#63b8ff" d="M366.41,-169.45C322.91,-159.56 222.06,-131.63 159.5,-74.28 145.33,-61.29 133.96,-42.38 126.82,-28.58"/>
<polygon fill="#63b8ff" stroke="#63b8ff" points="129.94,-27.01 122.38,-19.59 123.66,-30.1 129.94,-27.01"/>
</a>
</g>
<g id="a_edge7&#45;headlabel"><a xlink:href="dir_000171_000092.html" target="_top" xlink:title="19">
<text text-anchor="middle" x="134.08" y="-26.48" font-family="Helvetica,sans-Serif" font-size="10.00" fill="#63b8ff">19</text>
</a>
</g>
</g>
<!-- dir_e2ddbacf6049615cdaeacb5eeb2036b6 -->
<g id="node13" class="node">
<title>dir_e2ddbacf6049615cdaeacb5eeb2036b6</title>
<g id="a_node13"><a xlink:href="dir_e2ddbacf6049615cdaeacb5eeb2036b6.html" target="_top" xlink:title="shared">
<polygon fill="#edf0f7" stroke="red" stroke-dasharray="5,2" points="784.5,-19.28 734.5,-19.28 734.5,-0.28 784.5,-0.28 784.5,-19.28"/>
<text text-anchor="middle" x="759.5" y="-7.28" font-family="Helvetica,sans-Serif" font-size="10.00">shared</text>
</a>
</g>
</g>
<!-- dir_44c7bf6f86a99ec4ab38de81745e90f5&#45;&gt;dir_e2ddbacf6049615cdaeacb5eeb2036b6 -->
<g id="edge9" class="edge">
<title>dir_44c7bf6f86a99ec4ab38de81745e90f5&#45;&gt;dir_e2ddbacf6049615cdaeacb5eeb2036b6</title>
<g id="a_edge9"><a xlink:href="dir_000171_000139.html" target="_top">
<path fill="none" stroke="#63b8ff" d="M408.58,-172.35C447.77,-169.05 533.8,-158.79 599.5,-129.28 658.08,-102.97 715.9,-52.44 743.21,-26.7"/>
<polygon fill="#63b8ff" stroke="#63b8ff" points="745.87,-29 750.68,-19.56 741.03,-23.94 745.87,-29"/>
</a>
</g>
<g id="a_edge9&#45;headlabel"><a xlink:href="dir_000171_000139.html" target="_top" xlink:title="39">
<text text-anchor="middle" x="745.23" y="-31.04" font-family="Helvetica,sans-Serif" font-size="10.00" fill="#63b8ff">39</text>
</a>
</g>
</g>
<!-- dir_fd88bc1224526b21533b5c418929dd31 -->
<g id="node14" class="node">
<title>dir_fd88bc1224526b21533b5c418929dd31</title>
<g id="a_node14"><a xlink:href="dir_fd88bc1224526b21533b5c418929dd31.html" target="_top" xlink:title="Macros">
<polygon fill="#edf0f7" stroke="#7f7f7f" points="437.5,-19.28 385.5,-19.28 385.5,-0.28 437.5,-0.28 437.5,-19.28"/>
<text text-anchor="middle" x="411.5" y="-7.28" font-family="Helvetica,sans-Serif" font-size="10.00">Macros</text>
</a>
</g>
</g>
<!-- dir_44c7bf6f86a99ec4ab38de81745e90f5&#45;&gt;dir_fd88bc1224526b21533b5c418929dd31 -->
<g id="edge11" class="edge">
<title>dir_44c7bf6f86a99ec4ab38de81745e90f5&#45;&gt;dir_fd88bc1224526b21533b5c418929dd31</title>
<g id="a_edge11"><a xlink:href="dir_000171_000085.html" target="_top">
<path fill="none" stroke="#63b8ff" d="M408.56,-168.22C445.21,-157.27 519.75,-129.07 550.5,-74.28 558.11,-60.72 560.4,-51.28 550.5,-39.28 522.69,-5.55 496.57,-26.1 447.87,-18.95"/>
<polygon fill="#63b8ff" stroke="#63b8ff" points="448.28,-15.47 437.82,-17.12 447.03,-22.35 448.28,-15.47"/>
</a>
</g>
<g id="a_edge11&#45;headlabel"><a xlink:href="dir_000171_000085.html" target="_top" xlink:title="8">
<text text-anchor="middle" x="452.33" y="-10.82" font-family="Helvetica,sans-Serif" font-size="10.00" fill="#63b8ff">8</text>
</a>
</g>
</g>
<!-- dir_e13f225c0809f3ff095bec3449e9ff3b&#45;&gt;dir_fa223a76df1d336137434e24a53cc7d1 -->
<g id="edge22" class="edge">
<title>dir_e13f225c0809f3ff095bec3449e9ff3b&#45;&gt;dir_fa223a76df1d336137434e24a53cc7d1</title>
<g id="a_edge22"><a xlink:href="dir_000038_000119.html" target="_top">
<path fill="none" stroke="#63b8ff" d="M378.21,-110.03C373.38,-103.01 368.19,-92.9 364.7,-84.13"/>
<polygon fill="#63b8ff" stroke="#63b8ff" points="367.92,-82.74 361.42,-74.37 361.29,-84.96 367.92,-82.74"/>
</a>
</g>
<g id="a_edge22&#45;headlabel"><a xlink:href="dir_000038_000119.html" target="_top" xlink:title="8">
<text text-anchor="middle" x="371.76" y="-82.74" font-family="Helvetica,sans-Serif" font-size="10.00" fill="#63b8ff">8</text>
</a>
</g>
</g>
<!-- dir_e13f225c0809f3ff095bec3449e9ff3b&#45;&gt;dir_13c824d901bdecb0a22681eeb631eec9 -->
<g id="edge12" class="edge">
<title>dir_e13f225c0809f3ff095bec3449e9ff3b&#45;&gt;dir_13c824d901bdecb0a22681eeb631eec9</title>
<g id="a_edge12"><a xlink:href="dir_000038_000135.html" target="_top">
<path fill="none" stroke="#63b8ff" d="M363.97,-110.14C342.68,-101.97 310.74,-88.82 284.5,-74.28 257.95,-59.57 229.5,-39.13 211.38,-25.46"/>
<polygon fill="#63b8ff" stroke="#63b8ff" points="213.45,-22.63 203.37,-19.34 209.2,-28.19 213.45,-22.63"/>
</a>
</g>
<g id="a_edge12&#45;headlabel"><a xlink:href="dir_000038_000135.html" target="_top" xlink:title="36">
<text text-anchor="middle" x="218.03" y="-20.05" font-family="Helvetica,sans-Serif" font-size="10.00" fill="#63b8ff">36</text>
</a>
</g>
</g>
<!-- dir_352c4ed925bab171bf142eeb8f4fa659 -->
<g id="node5" class="node">
<title>dir_352c4ed925bab171bf142eeb8f4fa659</title>
<g id="a_node5"><a xlink:href="dir_352c4ed925bab171bf142eeb8f4fa659.html" target="_top" xlink:title="Chat">
<polygon fill="#edf0f7" stroke="red" stroke-dasharray="5,2" points="364,-19.28 325,-19.28 325,-0.28 364,-0.28 364,-19.28"/>
<text text-anchor="middle" x="344.5" y="-7.28" font-family="Helvetica,sans-Serif" font-size="10.00">Chat</text>
</a>
</g>
</g>
<!-- dir_e13f225c0809f3ff095bec3449e9ff3b&#45;&gt;dir_352c4ed925bab171bf142eeb8f4fa659 -->
<g id="edge13" class="edge">
<title>dir_e13f225c0809f3ff095bec3449e9ff3b&#45;&gt;dir_352c4ed925bab171bf142eeb8f4fa659</title>
<g id="a_edge13"><a xlink:href="dir_000038_000028.html" target="_top">
<path fill="none" stroke="#63b8ff" d="M367.92,-110.26C353.83,-102.96 335.9,-90.96 327.5,-74.28 320.51,-60.39 323.37,-54.28 327.5,-39.28 328.54,-35.5 330.23,-31.72 332.15,-28.21"/>
<polygon fill="#63b8ff" stroke="#63b8ff" points="335.13,-30.03 337.47,-19.7 329.2,-26.32 335.13,-30.03"/>
</a>
</g>
<g id="a_edge13&#45;headlabel"><a xlink:href="dir_000038_000028.html" target="_top" xlink:title="1">
<text text-anchor="middle" x="335.63" y="-32.09" font-family="Helvetica,sans-Serif" font-size="10.00" fill="#63b8ff">1</text>
</a>
</g>
</g>
<!-- dir_e13f225c0809f3ff095bec3449e9ff3b&#45;&gt;dir_4c93ae956ea541c350ab84829476f4ba -->
<g id="edge14" class="edge">
<title>dir_e13f225c0809f3ff095bec3449e9ff3b&#45;&gt;dir_4c93ae956ea541c350ab84829476f4ba</title>
<g id="a_edge14"><a xlink:href="dir_000038_000142.html" target="_top">
<path fill="none" stroke="#63b8ff" d="M394.78,-109.94C409.66,-91.9 443.72,-50.56 462.84,-27.36"/>
<polygon fill="#63b8ff" stroke="#63b8ff" points="465.71,-29.38 469.36,-19.44 460.3,-24.93 465.71,-29.38"/>
</a>
</g>
<g id="a_edge14&#45;headlabel"><a xlink:href="dir_000038_000142.html" target="_top" xlink:title="30">
<text text-anchor="middle" x="465.61" y="-31.46" font-family="Helvetica,sans-Serif" font-size="10.00" fill="#63b8ff">30</text>
</a>
</g>
</g>
<!-- dir_6a2658ea0e7c924d3a17c592f9c7d840 -->
<g id="node7" class="node">
<title>dir_6a2658ea0e7c924d3a17c592f9c7d840</title>
<g id="a_node7"><a xlink:href="dir_6a2658ea0e7c924d3a17c592f9c7d840.html" target="_top" xlink:title="collision">
<polygon fill="#edf0f7" stroke="red" stroke-dasharray="5,2" points="541,-74.28 484,-74.28 484,-55.28 541,-55.28 541,-74.28"/>
<text text-anchor="middle" x="512.5" y="-62.28" font-family="Helvetica,sans-Serif" font-size="10.00">collision</text>
</a>
</g>
</g>
<!-- dir_e13f225c0809f3ff095bec3449e9ff3b&#45;&gt;dir_6a2658ea0e7c924d3a17c592f9c7d840 -->
<g id="edge15" class="edge">
<title>dir_e13f225c0809f3ff095bec3449e9ff3b&#45;&gt;dir_6a2658ea0e7c924d3a17c592f9c7d840</title>
<g id="a_edge15"><a xlink:href="dir_000038_000032.html" target="_top">
<path fill="none" stroke="#63b8ff" d="M407.58,-110.27C427.87,-101.66 459.46,-88.27 482.67,-78.43"/>
<polygon fill="#63b8ff" stroke="#63b8ff" points="484.21,-81.58 492.05,-74.45 481.48,-75.13 484.21,-81.58"/>
</a>
</g>
<g id="a_edge15&#45;headlabel"><a xlink:href="dir_000038_000032.html" target="_top" xlink:title="4">
<text text-anchor="middle" x="482.01" y="-83.09" font-family="Helvetica,sans-Serif" font-size="10.00" fill="#63b8ff">4</text>
</a>
</g>
</g>
<!-- dir_e13f225c0809f3ff095bec3449e9ff3b&#45;&gt;dir_874cd28370ba42247965cad8d417b75a -->
<g id="edge16" class="edge">
<title>dir_e13f225c0809f3ff095bec3449e9ff3b&#45;&gt;dir_874cd28370ba42247965cad8d417b75a</title>
<g id="a_edge16"><a xlink:href="dir_000038_000043.html" target="_top">
<path fill="none" stroke="#63b8ff" d="M419.67,-115.03C460.05,-109.56 530.86,-97.42 587.5,-74.28 618.48,-61.62 650.69,-39.89 670.42,-25.43"/>
<polygon fill="#63b8ff" stroke="#63b8ff" points="672.64,-28.14 678.56,-19.36 668.45,-22.53 672.64,-28.14"/>
</a>
</g>
<g id="a_edge16&#45;headlabel"><a xlink:href="dir_000038_000043.html" target="_top" xlink:title="3">
<text text-anchor="middle" x="671.45" y="-30.07" font-family="Helvetica,sans-Serif" font-size="10.00" fill="#63b8ff">3</text>
</a>
</g>
</g>
<!-- dir_e13f225c0809f3ff095bec3449e9ff3b&#45;&gt;dir_8eada9216d9fecc8b0022aaec5e4af81 -->
<g id="edge17" class="edge">
<title>dir_e13f225c0809f3ff095bec3449e9ff3b&#45;&gt;dir_8eada9216d9fecc8b0022aaec5e4af81</title>
<g id="a_edge17"><a xlink:href="dir_000038_000149.html" target="_top">
<path fill="none" stroke="#63b8ff" d="M419.68,-114.3C453.73,-108.61 508.26,-96.69 550.5,-74.28 573.5,-62.08 595.58,-41.61 609.54,-27.22"/>
<polygon fill="#63b8ff" stroke="#63b8ff" points="612.45,-29.24 616.76,-19.56 607.35,-24.43 612.45,-29.24"/>
</a>
</g>
<g id="a_edge17&#45;headlabel"><a xlink:href="dir_000038_000149.html" target="_top" xlink:title="20">
<text text-anchor="middle" x="612.05" y="-31.3" font-family="Helvetica,sans-Serif" font-size="10.00" fill="#63b8ff">20</text>
</a>
</g>
</g>
<!-- dir_e13f225c0809f3ff095bec3449e9ff3b&#45;&gt;dir_907665e1a38c4ea97d58516c5f2ceb24 -->
<g id="edge18" class="edge">
<title>dir_e13f225c0809f3ff095bec3449e9ff3b&#45;&gt;dir_907665e1a38c4ea97d58516c5f2ceb24</title>
<g id="a_edge18"><a xlink:href="dir_000038_000104.html" target="_top">
<path fill="none" stroke="#63b8ff" d="M370.78,-110.13C356.07,-102.05 334.56,-89.04 318.5,-74.28 303.34,-60.35 289.34,-41.32 280.23,-27.74"/>
<polygon fill="#63b8ff" stroke="#63b8ff" points="283.14,-25.79 274.74,-19.33 277.27,-29.62 283.14,-25.79"/>
</a>
</g>
<g id="a_edge18&#45;headlabel"><a xlink:href="dir_000038_000104.html" target="_top" xlink:title="8">
<text text-anchor="middle" x="287.48" y="-24.75" font-family="Helvetica,sans-Serif" font-size="10.00" fill="#63b8ff">8</text>
</a>
</g>
</g>
<!-- dir_e13f225c0809f3ff095bec3449e9ff3b&#45;&gt;dir_b9d1268cc2e3130d823f3788ee9728e7 -->
<g id="edge19" class="edge">
<title>dir_e13f225c0809f3ff095bec3449e9ff3b&#45;&gt;dir_b9d1268cc2e3130d823f3788ee9728e7</title>
<g id="a_edge19"><a xlink:href="dir_000038_000089.html" target="_top">
<path fill="none" stroke="#63b8ff" d="M355.36,-115.56C310.48,-110.38 226.95,-98.25 159.5,-74.28 123.62,-61.53 85.31,-39.36 62.14,-24.88"/>
<polygon fill="#63b8ff" stroke="#63b8ff" points="63.78,-21.78 53.46,-19.38 60.03,-27.69 63.78,-21.78"/>
</a>
</g>
<g id="a_edge19&#45;headlabel"><a xlink:href="dir_000038_000089.html" target="_top" xlink:title="20">
<text text-anchor="middle" x="68.34" y="-18.81" font-family="Helvetica,sans-Serif" font-size="10.00" fill="#63b8ff">20</text>
</a>
</g>
</g>
<!-- dir_e13f225c0809f3ff095bec3449e9ff3b&#45;&gt;dir_ba4b8c0fd7611c803531a7850ab64500 -->
<g id="edge20" class="edge">
<title>dir_e13f225c0809f3ff095bec3449e9ff3b&#45;&gt;dir_ba4b8c0fd7611c803531a7850ab64500</title>
<g id="a_edge20"><a xlink:href="dir_000038_000092.html" target="_top">
<path fill="none" stroke="#63b8ff" d="M355.2,-112.47C322.09,-105.39 269.49,-92.49 226.5,-74.28 194.4,-60.69 160.16,-39.22 139.04,-25.07"/>
<polygon fill="#63b8ff" stroke="#63b8ff" points="140.82,-22.05 130.58,-19.32 136.88,-27.84 140.82,-22.05"/>
</a>
</g>
<g id="a_edge20&#45;headlabel"><a xlink:href="dir_000038_000092.html" target="_top" xlink:title="12">
<text text-anchor="middle" x="145.39" y="-19.22" font-family="Helvetica,sans-Serif" font-size="10.00" fill="#63b8ff">12</text>
</a>
</g>
</g>
<!-- dir_e13f225c0809f3ff095bec3449e9ff3b&#45;&gt;dir_e2ddbacf6049615cdaeacb5eeb2036b6 -->
<g id="edge21" class="edge">
<title>dir_e13f225c0809f3ff095bec3449e9ff3b&#45;&gt;dir_e2ddbacf6049615cdaeacb5eeb2036b6</title>
<g id="a_edge21"><a xlink:href="dir_000038_000139.html" target="_top">
<path fill="none" stroke="#63b8ff" d="M419.54,-115.89C467.04,-110.95 558.47,-98.95 632.5,-74.28 670.86,-61.5 712.21,-39.02 736.96,-24.53"/>
<polygon fill="#63b8ff" stroke="#63b8ff" points="738.79,-27.51 745.6,-19.4 735.21,-21.5 738.79,-27.51"/>
</a>
</g>
<g id="a_edge21&#45;headlabel"><a xlink:href="dir_000038_000139.html" target="_top" xlink:title="21">
<text text-anchor="middle" x="737.15" y="-29.29" font-family="Helvetica,sans-Serif" font-size="10.00" fill="#63b8ff">21</text>
</a>
</g>
</g>
<!-- dir_e13f225c0809f3ff095bec3449e9ff3b&#45;&gt;dir_fd88bc1224526b21533b5c418929dd31 -->
<g id="edge23" class="edge">
<title>dir_e13f225c0809f3ff095bec3449e9ff3b&#45;&gt;dir_fd88bc1224526b21533b5c418929dd31</title>
<g id="a_edge23"><a xlink:href="dir_000038_000085.html" target="_top">
<path fill="none" stroke="#63b8ff" d="M389.71,-110.27C392.01,-101.34 395.66,-86.86 398.5,-74.28 401.91,-59.17 405.41,-41.95 407.92,-29.25"/>
<polygon fill="#63b8ff" stroke="#63b8ff" points="411.36,-29.92 409.84,-19.43 404.49,-28.57 411.36,-29.92"/>
</a>
</g>
<g id="a_edge23&#45;headlabel"><a xlink:href="dir_000038_000085.html" target="_top" xlink:title="4">
<text text-anchor="middle" x="413.46" y="-31.49" font-family="Helvetica,sans-Serif" font-size="10.00" fill="#63b8ff">4</text>
</a>
</g>
</g>
<!-- dir_fa223a76df1d336137434e24a53cc7d1&#45;&gt;dir_e13f225c0809f3ff095bec3449e9ff3b -->
<g id="edge32" class="edge">
<title>dir_fa223a76df1d336137434e24a53cc7d1&#45;&gt;dir_e13f225c0809f3ff095bec3449e9ff3b</title>
<g id="a_edge32"><a xlink:href="dir_000119_000038.html" target="_top">
<path fill="none" stroke="#63b8ff" d="M371.68,-74.37C376.55,-81.42 381.82,-91.65 385.34,-100.52"/>
<polygon fill="#63b8ff" stroke="#63b8ff" points="382.03,-101.67 388.54,-110.03 388.67,-99.43 382.03,-101.67"/>
</a>
</g>
<g id="a_edge32&#45;headlabel"><a xlink:href="dir_000119_000038.html" target="_top" xlink:title="3">
<text text-anchor="middle" x="378.19" y="-96.67" font-family="Helvetica,sans-Serif" font-size="10.00" fill="#63b8ff">3</text>
</a>
</g>
</g>
<!-- dir_fa223a76df1d336137434e24a53cc7d1&#45;&gt;dir_13c824d901bdecb0a22681eeb631eec9 -->
<g id="edge24" class="edge">
<title>dir_fa223a76df1d336137434e24a53cc7d1&#45;&gt;dir_13c824d901bdecb0a22681eeb631eec9</title>
<g id="a_edge24"><a xlink:href="dir_000119_000135.html" target="_top">
<path fill="none" stroke="#63b8ff" d="M335.94,-55.5C306.45,-46.3 258.76,-31.44 226.55,-21.4"/>
<polygon fill="#63b8ff" stroke="#63b8ff" points="227.26,-17.95 216.68,-18.32 225.18,-24.64 227.26,-17.95"/>
</a>
</g>
<g id="a_edge24&#45;headlabel"><a xlink:href="dir_000119_000135.html" target="_top" xlink:title="101">
<text text-anchor="middle" x="231.54" y="-13.81" font-family="Helvetica,sans-Serif" font-size="10.00" fill="#63b8ff">101</text>
</a>
</g>
</g>
<!-- dir_fa223a76df1d336137434e24a53cc7d1&#45;&gt;dir_352c4ed925bab171bf142eeb8f4fa659 -->
<g id="edge25" class="edge">
<title>dir_fa223a76df1d336137434e24a53cc7d1&#45;&gt;dir_352c4ed925bab171bf142eeb8f4fa659</title>
<g id="a_edge25"><a xlink:href="dir_000119_000028.html" target="_top">
<path fill="none" stroke="#63b8ff" d="M359.53,-55.03C357.14,-48.01 353.71,-37.9 350.73,-29.13"/>
<polygon fill="#63b8ff" stroke="#63b8ff" points="353.95,-27.71 347.42,-19.37 347.32,-29.96 353.95,-27.71"/>
</a>
</g>
<g id="a_edge25&#45;headlabel"><a xlink:href="dir_000119_000028.html" target="_top" xlink:title="3">
<text text-anchor="middle" x="357.79" y="-27.7" font-family="Helvetica,sans-Serif" font-size="10.00" fill="#63b8ff">3</text>
</a>
</g>
</g>
<!-- dir_fa223a76df1d336137434e24a53cc7d1&#45;&gt;dir_4c93ae956ea541c350ab84829476f4ba -->
<g id="edge26" class="edge">
<title>dir_fa223a76df1d336137434e24a53cc7d1&#45;&gt;dir_4c93ae956ea541c350ab84829476f4ba</title>
<g id="a_edge26"><a xlink:href="dir_000119_000142.html" target="_top">
<path fill="none" stroke="#63b8ff" d="M380.82,-55.27C399.16,-46.74 427.61,-33.51 448.73,-23.69"/>
<polygon fill="#63b8ff" stroke="#63b8ff" points="450.26,-26.84 457.85,-19.45 447.31,-20.49 450.26,-26.84"/>
</a>
</g>
<g id="a_edge26&#45;headlabel"><a xlink:href="dir_000119_000142.html" target="_top" xlink:title="13">
<text text-anchor="middle" x="448.2" y="-28.43" font-family="Helvetica,sans-Serif" font-size="10.00" fill="#63b8ff">13</text>
</a>
</g>
</g>
<!-- dir_fa223a76df1d336137434e24a53cc7d1&#45;&gt;dir_874cd28370ba42247965cad8d417b75a -->
<g id="edge27" class="edge">
<title>dir_fa223a76df1d336137434e24a53cc7d1&#45;&gt;dir_874cd28370ba42247965cad8d417b75a</title>
<g id="a_edge27"><a xlink:href="dir_000119_000043.html" target="_top">
<path fill="none" stroke="#63b8ff" d="M389.29,-57.13C412.09,-51.68 445.78,-44.1 475.5,-39.28 553.95,-26.57 577.56,-34.72 659.09,-19.2"/>
<polygon fill="#63b8ff" stroke="#63b8ff" points="660.2,-22.55 669.33,-17.19 658.84,-15.68 660.2,-22.55"/>
</a>
</g>
<g id="a_edge27&#45;headlabel"><a xlink:href="dir_000119_000043.html" target="_top" xlink:title="2">
<text text-anchor="middle" x="657.22" y="-23.53" font-family="Helvetica,sans-Serif" font-size="10.00" fill="#63b8ff">2</text>
</a>
</g>
</g>
<!-- dir_fa223a76df1d336137434e24a53cc7d1&#45;&gt;dir_8eada9216d9fecc8b0022aaec5e4af81 -->
<g id="edge28" class="edge">
<title>dir_fa223a76df1d336137434e24a53cc7d1&#45;&gt;dir_8eada9216d9fecc8b0022aaec5e4af81</title>
<g id="a_edge28"><a xlink:href="dir_000119_000149.html" target="_top">
<path fill="none" stroke="#63b8ff" d="M389.4,-57.75C412.27,-52.68 446,-45.3 475.5,-39.28 513.47,-31.53 557.02,-23.28 587.19,-17.65"/>
<polygon fill="#63b8ff" stroke="#63b8ff" points="588.08,-21.05 597.27,-15.78 586.8,-14.17 588.08,-21.05"/>
</a>
</g>
<g id="a_edge28&#45;headlabel"><a xlink:href="dir_000119_000149.html" target="_top" xlink:title="5">
<text text-anchor="middle" x="585.06" y="-22" font-family="Helvetica,sans-Serif" font-size="10.00" fill="#63b8ff">5</text>
</a>
</g>
</g>
<!-- dir_fa223a76df1d336137434e24a53cc7d1&#45;&gt;dir_907665e1a38c4ea97d58516c5f2ceb24 -->
<g id="edge29" class="edge">
<title>dir_fa223a76df1d336137434e24a53cc7d1&#45;&gt;dir_907665e1a38c4ea97d58516c5f2ceb24</title>
<g id="a_edge29"><a xlink:href="dir_000119_000104.html" target="_top">
<path fill="none" stroke="#63b8ff" d="M347.56,-55.27C333,-46.97 310.63,-34.22 293.57,-24.5"/>
<polygon fill="#63b8ff" stroke="#63b8ff" points="295.14,-21.36 284.71,-19.45 291.67,-27.44 295.14,-21.36"/>
</a>
</g>
<g id="a_edge29&#45;headlabel"><a xlink:href="dir_000119_000104.html" target="_top" xlink:title="2">
<text text-anchor="middle" x="299.66" y="-18.17" font-family="Helvetica,sans-Serif" font-size="10.00" fill="#63b8ff">2</text>
</a>
</g>
</g>
<!-- dir_fa223a76df1d336137434e24a53cc7d1&#45;&gt;dir_b9d1268cc2e3130d823f3788ee9728e7 -->
<g id="edge30" class="edge">
<title>dir_fa223a76df1d336137434e24a53cc7d1&#45;&gt;dir_b9d1268cc2e3130d823f3788ee9728e7</title>
<g id="a_edge30"><a xlink:href="dir_000119_000089.html" target="_top">
<path fill="none" stroke="#63b8ff" d="M335.85,-59.48C288.75,-51.86 187.43,-35.42 91.06,-19.37"/>
<polygon fill="#63b8ff" stroke="#63b8ff" points="91.59,-15.91 81.16,-17.71 90.44,-22.81 91.59,-15.91"/>
</a>
</g>
<g id="a_edge30&#45;headlabel"><a xlink:href="dir_000119_000089.html" target="_top" xlink:title="21">
<text text-anchor="middle" x="95.61" y="-11.2" font-family="Helvetica,sans-Serif" font-size="10.00" fill="#63b8ff">21</text>
</a>
</g>
</g>
<!-- dir_fa223a76df1d336137434e24a53cc7d1&#45;&gt;dir_ba4b8c0fd7611c803531a7850ab64500 -->
<g id="edge31" class="edge">
<title>dir_fa223a76df1d336137434e24a53cc7d1&#45;&gt;dir_ba4b8c0fd7611c803531a7850ab64500</title>
<g id="a_edge31"><a xlink:href="dir_000119_000092.html" target="_top">
<path fill="none" stroke="#63b8ff" d="M335.92,-58.01C289.88,-48.01 195.61,-27.53 147.76,-17.14"/>
<polygon fill="#63b8ff" stroke="#63b8ff" points="148.26,-13.66 137.74,-14.96 146.77,-20.5 148.26,-13.66"/>
</a>
</g>
<g id="a_edge31&#45;headlabel"><a xlink:href="dir_000119_000092.html" target="_top" xlink:title="5">
<text text-anchor="middle" x="152.37" y="-9.15" font-family="Helvetica,sans-Serif" font-size="10.00" fill="#63b8ff">5</text>
</a>
</g>
</g>
<!-- dir_fa223a76df1d336137434e24a53cc7d1&#45;&gt;dir_e2ddbacf6049615cdaeacb5eeb2036b6 -->
<g id="edge33" class="edge">
<title>dir_fa223a76df1d336137434e24a53cc7d1&#45;&gt;dir_e2ddbacf6049615cdaeacb5eeb2036b6</title>
<g id="a_edge33"><a xlink:href="dir_000119_000139.html" target="_top">
<path fill="none" stroke="#63b8ff" d="M389.26,-56.94C412.04,-51.36 445.72,-43.72 475.5,-39.28 582.68,-23.32 611.25,-34.75 718.5,-19.28 720.44,-19 722.43,-18.68 724.44,-18.34"/>
<polygon fill="#63b8ff" stroke="#63b8ff" points="725.24,-21.75 734.43,-16.48 723.96,-14.87 725.24,-21.75"/>
</a>
</g>
<g id="a_edge33&#45;headlabel"><a xlink:href="dir_000119_000139.html" target="_top" xlink:title="7">
<text text-anchor="middle" x="722.23" y="-22.7" font-family="Helvetica,sans-Serif" font-size="10.00" fill="#63b8ff">7</text>
</a>
</g>
</g>
<!-- dir_fa223a76df1d336137434e24a53cc7d1&#45;&gt;dir_fd88bc1224526b21533b5c418929dd31 -->
<g id="edge34" class="edge">
<title>dir_fa223a76df1d336137434e24a53cc7d1&#45;&gt;dir_fd88bc1224526b21533b5c418929dd31</title>
<g id="a_edge34"><a xlink:href="dir_000119_000085.html" target="_top">
<path fill="none" stroke="#63b8ff" d="M370.59,-55.03C377.66,-47.39 388.09,-36.1 396.65,-26.84"/>
<polygon fill="#63b8ff" stroke="#63b8ff" points="399.34,-29.09 403.56,-19.37 394.2,-24.34 399.34,-29.09"/>
</a>
</g>
<g id="a_edge34&#45;headlabel"><a xlink:href="dir_000119_000085.html" target="_top" xlink:title="3">
<text text-anchor="middle" x="398.99" y="-31.16" font-family="Helvetica,sans-Serif" font-size="10.00" fill="#63b8ff">3</text>
</a>
</g>
</g>
</g>
</svg>

<g id="navigator" transform="translate(0 0)" fill="#404254">
  <rect fill="#f2f5e9" fill-opacity="0.5" stroke="#606060" stroke-width=".5" x="0" y="0" width="60" height="60"/>
  <use id="zoomplus" xlink:href="#zoomPlus" x="17" y="9" onmousedown="handleZoom(evt,'in')"/>
  <use id="zoomminus" xlink:href="#zoomMin" x="42" y="9" onmousedown="handleZoom(evt,'out')"/>
  <use id="reset" xlink:href="#resetDef" x="30" y="36" onmousedown="handleReset()"/>
   <use id="arrowup" xlink:href="#arrowUp" x="0" y="0" onmousedown="handlePan(0,-1)"/>
  <use id="arrowright" xlink:href="#arrowRight" x="0" y="0" onmousedown="handlePan(1,0)"/>
  <use id="arrowdown" xlink:href="#arrowDown" x="0" y="0" onmousedown="handlePan(0,1)"/>
  <use id="arrowleft" xlink:href="#arrowLeft" x="0" y="0" onmousedown="handlePan(-1,0)"/>
</g>
<svg viewBox="0 0 15 15" width="100%" height="30px" preserveAspectRatio="xMaxYMin meet">
 <g id="arrow_out" transform="scale(0.3 0.3)">
  <a xlink:href="dir_44c7bf6f86a99ec4ab38de81745e90f5_dep_org.svg" target="_base">
   <rect id="button" ry="5" rx="5" y="6" x="6" height="38" width="38"
        fill="#f2f5e9" fill-opacity="0.5" stroke="#606060" stroke-width="1.0"/>
   <path id="arrow"
     d="M 11.500037,31.436501 C 11.940474,20.09759 22.043105,11.32322 32.158766,21.979434 L 37.068811,17.246167 C 37.068811,17.246167 37.088388,32 37.088388,32 L 22.160133,31.978069 C 22.160133,31.978069 26.997745,27.140456 26.997745,27.140456 C 18.528582,18.264221 13.291696,25.230495 11.500037,31.436501 z"
     style="fill:#404040;"/>
  </a>
 </g>
</svg>

<style type='text/css'>
<![CDATA[
[data-mouse-over-selected='false'] { opacity: 0.7; }
[data-mouse-over-selected='true']  { opacity: 1.0; }
]]>
</style>
<script type="application/ecmascript"><![CDATA[
document.addEventListener('DOMContentLoaded', (event) => {
  highlightEdges();
  highlightAdjacentNodes();
});
]]></script>
</svg>
