<?xml version="1.0" encoding="UTF-8" standalone="no"?>
<!DOCTYPE svg PUBLIC "-//W3C//DTD SVG 1.1//EN"
 "http://www.w3.org/Graphics/SVG/1.1/DTD/svg11.dtd">
<!-- Generated by graphviz version 2.43.0 (0)
 -->
<!-- Title: SetupHallowsEnd Pages: 1 -->
<svg width="304pt" height="354pt"
 viewBox="0.00 0.00 304.00 353.50" xmlns="http://www.w3.org/2000/svg" xmlns:xlink="http://www.w3.org/1999/xlink">
<g id="graph0" class="graph" transform="scale(1 1) rotate(0) translate(4 349.5)">
<title>SetupHallowsEnd</title>
<!-- Node1 -->
<g id="Node000001" class="node">
<title>Node1</title>
<g id="a_Node000001"><a xlink:title=" ">
<polygon fill="#999999" stroke="#666666" points="101,-182.5 0,-182.5 0,-163.5 101,-163.5 101,-182.5"/>
<text text-anchor="middle" x="50.5" y="-170.5" font-family="Helvetica,sans-Serif" font-size="10.00">SetupHallowsEnd</text>
</a>
</g>
</g>
<!-- Node2 -->
<g id="Node000002" class="node">
<title>Node2</title>
<g id="a_Node000002"><a xlink:href="classBlackCat.html#a632b1b19f1260d7725cbdc4684c7b3ab" target="_top" xlink:title=" ">
<polygon fill="white" stroke="#666666" points="265.5,-345.5 167.5,-345.5 167.5,-326.5 265.5,-326.5 265.5,-345.5"/>
<text text-anchor="middle" x="216.5" y="-333.5" font-family="Helvetica,sans-Serif" font-size="10.00">BlackCat::Create</text>
</a>
</g>
</g>
<!-- Node1&#45;&gt;Node2 -->
<g id="edge1_Node000001_Node000002" class="edge">
<title>Node1&#45;&gt;Node2</title>
<g id="a_edge1_Node000001_Node000002"><a xlink:title=" ">
<path fill="none" stroke="#63b8ff" d="M54.38,-182.88C62.57,-209.16 88.59,-281.24 137,-317 143.05,-321.47 150.01,-324.9 157.23,-327.53"/>
<polygon fill="#63b8ff" stroke="#63b8ff" points="156.59,-331 167.18,-330.64 158.68,-324.32 156.59,-331"/>
</a>
</g>
</g>
<!-- Node3 -->
<g id="Node000003" class="node">
<title>Node3</title>
<g id="a_Node000003"><a xlink:href="classHeadlessHorsemanAI.html#a6aa9ea55c51af7721c77248bae69710c" target="_top" xlink:title=" ">
<polygon fill="white" stroke="#666666" points="277.5,-308 155.5,-308 155.5,-278 277.5,-278 277.5,-308"/>
<text text-anchor="start" x="163.5" y="-296" font-family="Helvetica,sans-Serif" font-size="10.00">HeadlessHorsemanAI</text>
<text text-anchor="middle" x="216.5" y="-285" font-family="Helvetica,sans-Serif" font-size="10.00">::Create</text>
</a>
</g>
</g>
<!-- Node1&#45;&gt;Node3 -->
<g id="edge2_Node000001_Node000003" class="edge">
<title>Node1&#45;&gt;Node3</title>
<g id="a_edge2_Node000001_Node000003"><a xlink:title=" ">
<path fill="none" stroke="#63b8ff" d="M57.51,-182.75C69.93,-202.11 100.36,-245.52 137,-269 139.91,-270.86 142.97,-272.59 146.13,-274.19"/>
<polygon fill="#63b8ff" stroke="#63b8ff" points="144.69,-277.38 155.24,-278.36 147.6,-271.01 144.69,-277.38"/>
</a>
</g>
</g>
<!-- Node4 -->
<g id="Node000004" class="node">
<title>Node4</title>
<g id="a_Node000004"><a xlink:href="classHeadlessHorsemanFireAI.html#adf2428288bf728b963164d4068bcb05e" target="_top" xlink:title=" ">
<polygon fill="white" stroke="#666666" points="286.5,-260 146.5,-260 146.5,-230 286.5,-230 286.5,-260"/>
<text text-anchor="start" x="154.5" y="-248" font-family="Helvetica,sans-Serif" font-size="10.00">HeadlessHorsemanFireAI</text>
<text text-anchor="middle" x="216.5" y="-237" font-family="Helvetica,sans-Serif" font-size="10.00">::Create</text>
</a>
</g>
</g>
<!-- Node1&#45;&gt;Node4 -->
<g id="edge3_Node000001_Node000004" class="edge">
<title>Node1&#45;&gt;Node4</title>
<g id="a_edge3_Node000001_Node000004"><a xlink:title=" ">
<path fill="none" stroke="#63b8ff" d="M66.14,-182.51C82.78,-193 111.02,-209.89 137,-221 141.63,-222.98 146.48,-224.87 151.4,-226.66"/>
<polygon fill="#63b8ff" stroke="#63b8ff" points="150.31,-229.99 160.9,-229.97 152.61,-223.38 150.31,-229.99"/>
</a>
</g>
</g>
<!-- Node5 -->
<g id="Node000005" class="node">
<title>Node5</title>
<g id="a_Node000005"><a xlink:href="classShadeOfTheHorsemanAI.html#a8342f7dd2bf0d3fb441d1bb2ba10fb65" target="_top" xlink:title=" ">
<polygon fill="white" stroke="#666666" points="284.5,-212 148.5,-212 148.5,-182 284.5,-182 284.5,-212"/>
<text text-anchor="start" x="156.5" y="-200" font-family="Helvetica,sans-Serif" font-size="10.00">ShadeOfTheHorsemanAI</text>
<text text-anchor="middle" x="216.5" y="-189" font-family="Helvetica,sans-Serif" font-size="10.00">::Create</text>
</a>
</g>
</g>
<!-- Node1&#45;&gt;Node5 -->
<g id="edge4_Node000001_Node000005" class="edge">
<title>Node1&#45;&gt;Node5</title>
<g id="a_edge4_Node000001_Node000005"><a xlink:title=" ">
<path fill="none" stroke="#63b8ff" d="M101.15,-180.27C112.9,-181.99 125.71,-183.86 138.37,-185.71"/>
<polygon fill="#63b8ff" stroke="#63b8ff" points="138.06,-189.2 148.46,-187.19 139.07,-182.28 138.06,-189.2"/>
</a>
</g>
</g>
<!-- Node6 -->
<g id="Node000006" class="node">
<title>Node6</title>
<g id="a_Node000006"><a xlink:href="classHeadlessHorsemanWispInvisAI.html#a5c1fd34743b643fa2c1a58b95b77e93d" target="_top" xlink:title=" ">
<polygon fill="white" stroke="#666666" points="296,-164 137,-164 137,-134 296,-134 296,-164"/>
<text text-anchor="start" x="145" y="-152" font-family="Helvetica,sans-Serif" font-size="10.00">HeadlessHorsemanWispInvis</text>
<text text-anchor="middle" x="216.5" y="-141" font-family="Helvetica,sans-Serif" font-size="10.00">AI::Create</text>
</a>
</g>
</g>
<!-- Node1&#45;&gt;Node6 -->
<g id="edge5_Node000001_Node000006" class="edge">
<title>Node1&#45;&gt;Node6</title>
<g id="a_edge5_Node000001_Node000006"><a xlink:title=" ">
<path fill="none" stroke="#63b8ff" d="M101.15,-165.73C109.37,-164.53 118.11,-163.25 126.94,-161.96"/>
<polygon fill="#63b8ff" stroke="#63b8ff" points="127.56,-165.41 136.94,-160.5 126.54,-158.48 127.56,-165.41"/>
</a>
</g>
</g>
<!-- Node7 -->
<g id="Node000007" class="node">
<title>Node7</title>
<g id="a_Node000007"><a xlink:href="classWaterBarrel.html#a892ce4b604c3beac3c152df5f298cb3a" target="_top" xlink:title=" ">
<polygon fill="white" stroke="#666666" points="273,-115.5 160,-115.5 160,-96.5 273,-96.5 273,-115.5"/>
<text text-anchor="middle" x="216.5" y="-103.5" font-family="Helvetica,sans-Serif" font-size="10.00">WaterBarrel::Create</text>
</a>
</g>
</g>
<!-- Node1&#45;&gt;Node7 -->
<g id="edge6_Node000001_Node000007" class="edge">
<title>Node1&#45;&gt;Node7</title>
<g id="a_edge6_Node000001_Node000007"><a xlink:title=" ">
<path fill="none" stroke="#63b8ff" d="M65.72,-163.4C82.22,-152.66 110.54,-135.4 137,-125 143.4,-122.48 150.23,-120.23 157.09,-118.24"/>
<polygon fill="#63b8ff" stroke="#63b8ff" points="158.39,-121.52 167.11,-115.51 156.54,-114.76 158.39,-121.52"/>
</a>
</g>
</g>
<!-- Node8 -->
<g id="Node000008" class="node">
<title>Node8</title>
<g id="a_Node000008"><a xlink:href="classScriptMgr.html#abae8040a878b5ec1071837c881526206" target="_top" xlink:title=" ">
<polygon fill="white" stroke="#666666" points="270,-78 163,-78 163,-48 270,-48 270,-78"/>
<text text-anchor="start" x="171" y="-66" font-family="Helvetica,sans-Serif" font-size="10.00">ScriptMgr::register</text>
<text text-anchor="middle" x="216.5" y="-55" font-family="Helvetica,sans-Serif" font-size="10.00">_creature_script</text>
</a>
</g>
</g>
<!-- Node1&#45;&gt;Node8 -->
<g id="edge7_Node000001_Node000008" class="edge">
<title>Node1&#45;&gt;Node8</title>
<g id="a_edge7_Node000001_Node000008"><a xlink:title=" ">
<path fill="none" stroke="#63b8ff" d="M58.63,-163.35C72.05,-145.85 102.82,-108.74 137,-88 142.09,-84.91 147.6,-82.16 153.27,-79.73"/>
<polygon fill="#63b8ff" stroke="#63b8ff" points="154.87,-82.86 162.89,-75.93 152.3,-76.35 154.87,-82.86"/>
</a>
</g>
</g>
<!-- Node9 -->
<g id="Node000009" class="node">
<title>Node9</title>
<g id="a_Node000009"><a xlink:href="classScriptMgr.html#a6de29c89f49577fe4406638377b07837" target="_top" xlink:title=" ">
<polygon fill="white" stroke="#666666" points="272.5,-30 160.5,-30 160.5,0 272.5,0 272.5,-30"/>
<text text-anchor="start" x="168.5" y="-18" font-family="Helvetica,sans-Serif" font-size="10.00">ScriptMgr::register</text>
<text text-anchor="middle" x="216.5" y="-7" font-family="Helvetica,sans-Serif" font-size="10.00">_gameobject_script</text>
</a>
</g>
</g>
<!-- Node1&#45;&gt;Node9 -->
<g id="edge8_Node000001_Node000009" class="edge">
<title>Node1&#45;&gt;Node9</title>
<g id="a_edge8_Node000001_Node000009"><a xlink:title=" ">
<path fill="none" stroke="#63b8ff" d="M54.96,-163.24C64.23,-138.56 91.96,-73.23 137,-39 141.33,-35.71 146.1,-32.87 151.1,-30.42"/>
<polygon fill="#63b8ff" stroke="#63b8ff" points="152.53,-33.62 160.3,-26.41 149.73,-27.2 152.53,-33.62"/>
</a>
</g>
</g>
</g>
</svg>
