<?xml version="1.0" encoding="UTF-8" standalone="no"?>
<!DOCTYPE svg PUBLIC "-//W3C//DTD SVG 1.1//EN"
 "http://www.w3.org/Graphics/SVG/1.1/DTD/svg11.dtd">
<!-- Generated by graphviz version 2.43.0 (0)
 -->
<!-- Title: AscEmu/src/world/Server/Script/HookInterface.hpp Pages: 1 -->
<svg width="3775pt" height="115pt"
 viewBox="0.00 0.00 3774.50 115.00" xmlns="http://www.w3.org/2000/svg" xmlns:xlink="http://www.w3.org/1999/xlink">
<g id="graph0" class="graph" transform="scale(1 1) rotate(0) translate(4 111)">
<title>AscEmu/src/world/Server/Script/HookInterface.hpp</title>
<!-- Node1 -->
<g id="Node000001" class="node">
<title>Node1</title>
<g id="a_Node000001"><a xlink:title=" ">
<polygon fill="#999999" stroke="#666666" points="1888.5,-107 1748.5,-107 1748.5,-77 1888.5,-77 1888.5,-107"/>
<text text-anchor="start" x="1756.5" y="-95" font-family="Helvetica,sans-Serif" font-size="10.00">AscEmu/src/world/Server</text>
<text text-anchor="middle" x="1818.5" y="-84" font-family="Helvetica,sans-Serif" font-size="10.00">/Script/HookInterface.hpp</text>
</a>
</g>
</g>
<!-- Node2 -->
<g id="Node000002" class="node">
<title>Node2</title>
<g id="a_Node000002"><a xlink:href="LuaUnit_8cpp.html" target="_top" xlink:title=" ">
<polygon fill="white" stroke="#666666" points="131,-35.5 0,-35.5 0,-5.5 131,-5.5 131,-35.5"/>
<text text-anchor="start" x="8" y="-23.5" font-family="Helvetica,sans-Serif" font-size="10.00">AscEmu/src/scripts</text>
<text text-anchor="middle" x="65.5" y="-12.5" font-family="Helvetica,sans-Serif" font-size="10.00">/LuaEngine/LuaUnit.cpp</text>
</a>
</g>
</g>
<!-- Node1&#45;&gt;Node2 -->
<g id="edge1_Node000001_Node000002" class="edge">
<title>Node1&#45;&gt;Node2</title>
<g id="a_edge1_Node000001_Node000002"><a xlink:title=" ">
<path fill="none" stroke="#63b8ff" d="M1738.03,-90.99C1447.65,-90.6 454.5,-85.92 140.5,-41 131.44,-39.7 121.91,-37.72 112.78,-35.51"/>
<polygon fill="#63b8ff" stroke="#63b8ff" points="1738.05,-94.49 1748.06,-91.01 1738.06,-87.49 1738.05,-94.49"/>
</a>
</g>
</g>
<!-- Node3 -->
<g id="Node000003" class="node">
<title>Node3</title>
<g id="a_Node000003"><a xlink:href="QuestCommands_8cpp.html" target="_top" xlink:title=" ">
<polygon fill="white" stroke="#666666" points="331.5,-35.5 149.5,-35.5 149.5,-5.5 331.5,-5.5 331.5,-35.5"/>
<text text-anchor="start" x="157.5" y="-23.5" font-family="Helvetica,sans-Serif" font-size="10.00">AscEmu/src/world/Chat</text>
<text text-anchor="middle" x="240.5" y="-12.5" font-family="Helvetica,sans-Serif" font-size="10.00">/Commands/QuestCommands.cpp</text>
</a>
</g>
</g>
<!-- Node1&#45;&gt;Node3 -->
<g id="edge2_Node000001_Node000003" class="edge">
<title>Node1&#45;&gt;Node3</title>
<g id="a_edge2_Node000001_Node000003"><a xlink:title=" ">
<path fill="none" stroke="#63b8ff" d="M1738.02,-89.96C1470.85,-86.25 614.74,-72.18 340.5,-41 328.72,-39.66 316.26,-37.69 304.28,-35.5"/>
<polygon fill="#63b8ff" stroke="#63b8ff" points="1738.37,-93.47 1748.41,-90.11 1738.46,-86.47 1738.37,-93.47"/>
</a>
</g>
</g>
<!-- Node4 -->
<g id="Node000004" class="node">
<title>Node4</title>
<g id="a_Node000004"><a xlink:href="Arenas_8cpp.html" target="_top" xlink:title=" ">
<polygon fill="white" stroke="#666666" points="519.5,-35.5 349.5,-35.5 349.5,-5.5 519.5,-5.5 519.5,-35.5"/>
<text text-anchor="start" x="357.5" y="-23.5" font-family="Helvetica,sans-Serif" font-size="10.00">AscEmu/src/world/Management</text>
<text text-anchor="middle" x="434.5" y="-12.5" font-family="Helvetica,sans-Serif" font-size="10.00">/Arenas.cpp</text>
</a>
</g>
</g>
<!-- Node1&#45;&gt;Node4 -->
<g id="edge3_Node000001_Node000004" class="edge">
<title>Node1&#45;&gt;Node4</title>
<g id="a_edge3_Node000001_Node000004"><a xlink:title=" ">
<path fill="none" stroke="#63b8ff" d="M1738.02,-89.63C1493.93,-85.19 764.27,-69.82 528.5,-41 517.5,-39.66 505.87,-37.69 494.68,-35.53"/>
<polygon fill="#63b8ff" stroke="#63b8ff" points="1738.17,-93.13 1748.24,-89.81 1738.3,-86.13 1738.17,-93.13"/>
</a>
</g>
</g>
<!-- Node5 -->
<g id="Node000005" class="node">
<title>Node5</title>
<g id="a_Node000005"><a xlink:href="Guild_8cpp.html" target="_top" xlink:title=" ">
<polygon fill="white" stroke="#666666" points="707.5,-35.5 537.5,-35.5 537.5,-5.5 707.5,-5.5 707.5,-35.5"/>
<text text-anchor="start" x="545.5" y="-23.5" font-family="Helvetica,sans-Serif" font-size="10.00">AscEmu/src/world/Management</text>
<text text-anchor="middle" x="622.5" y="-12.5" font-family="Helvetica,sans-Serif" font-size="10.00">/Guild/Guild.cpp</text>
</a>
</g>
</g>
<!-- Node1&#45;&gt;Node5 -->
<g id="edge4_Node000001_Node000005" class="edge">
<title>Node1&#45;&gt;Node5</title>
<g id="a_edge4_Node000001_Node000005"><a xlink:title=" ">
<path fill="none" stroke="#63b8ff" d="M1738.18,-91.72C1555.8,-92.4 1096.72,-88.75 716.5,-41 705.59,-39.63 694.05,-37.67 682.94,-35.51"/>
<polygon fill="#63b8ff" stroke="#63b8ff" points="1738.24,-95.22 1748.23,-91.68 1738.21,-88.22 1738.24,-95.22"/>
</a>
</g>
</g>
<!-- Node6 -->
<g id="Node000006" class="node">
<title>Node6</title>
<g id="a_Node000006"><a xlink:href="HonorHandler_8cpp.html" target="_top" xlink:title=" ">
<polygon fill="white" stroke="#666666" points="895.5,-35.5 725.5,-35.5 725.5,-5.5 895.5,-5.5 895.5,-35.5"/>
<text text-anchor="start" x="733.5" y="-23.5" font-family="Helvetica,sans-Serif" font-size="10.00">AscEmu/src/world/Management</text>
<text text-anchor="middle" x="810.5" y="-12.5" font-family="Helvetica,sans-Serif" font-size="10.00">/HonorHandler.cpp</text>
</a>
</g>
</g>
<!-- Node1&#45;&gt;Node6 -->
<g id="edge5_Node000001_Node000006" class="edge">
<title>Node1&#45;&gt;Node6</title>
<g id="a_edge5_Node000001_Node000006"><a xlink:title=" ">
<path fill="none" stroke="#63b8ff" d="M1738.01,-90.64C1578.36,-89.03 1210.59,-80.89 904.5,-41 893.76,-39.6 882.41,-37.65 871.46,-35.53"/>
<polygon fill="#63b8ff" stroke="#63b8ff" points="1738.19,-94.14 1748.22,-90.74 1738.26,-87.14 1738.19,-94.14"/>
</a>
</g>
</g>
<!-- Node7 -->
<g id="Node000007" class="node">
<title>Node7</title>
<g id="a_Node000007"><a xlink:href="Objects_2Units_2CombatHandler_8cpp.html" target="_top" xlink:title=" ">
<polygon fill="white" stroke="#666666" points="1057.5,-35.5 913.5,-35.5 913.5,-5.5 1057.5,-5.5 1057.5,-35.5"/>
<text text-anchor="start" x="921.5" y="-23.5" font-family="Helvetica,sans-Serif" font-size="10.00">AscEmu/src/world/Objects</text>
<text text-anchor="middle" x="985.5" y="-12.5" font-family="Helvetica,sans-Serif" font-size="10.00">/Units/CombatHandler.cpp</text>
</a>
</g>
</g>
<!-- Node1&#45;&gt;Node7 -->
<g id="edge6_Node000001_Node000007" class="edge">
<title>Node1&#45;&gt;Node7</title>
<g id="a_edge6_Node000001_Node000007"><a xlink:title=" ">
<path fill="none" stroke="#63b8ff" d="M1738.28,-90.13C1600.25,-87.63 1309.26,-78.02 1066.5,-41 1057.21,-39.58 1047.41,-37.63 1037.96,-35.5"/>
<polygon fill="#63b8ff" stroke="#63b8ff" points="1738.29,-93.63 1748.35,-90.3 1738.41,-86.63 1738.29,-93.63"/>
</a>
</g>
</g>
<!-- Node8 -->
<g id="Node000008" class="node">
<title>Node8</title>
<g id="a_Node000008"><a xlink:href="Creature_8cpp.html" target="_top" xlink:title=" ">
<polygon fill="white" stroke="#666666" points="1237,-35.5 1076,-35.5 1076,-5.5 1237,-5.5 1237,-35.5"/>
<text text-anchor="start" x="1084" y="-23.5" font-family="Helvetica,sans-Serif" font-size="10.00">AscEmu/src/world/Objects</text>
<text text-anchor="middle" x="1156.5" y="-12.5" font-family="Helvetica,sans-Serif" font-size="10.00">/Units/Creatures/Creature.cpp</text>
</a>
</g>
</g>
<!-- Node1&#45;&gt;Node8 -->
<g id="edge7_Node000001_Node000008" class="edge">
<title>Node1&#45;&gt;Node8</title>
<g id="a_edge7_Node000001_Node000008"><a xlink:title=" ">
<path fill="none" stroke="#63b8ff" d="M1738.35,-87.27C1627.2,-81.35 1420.2,-67.65 1245.5,-41 1235.81,-39.52 1225.59,-37.61 1215.66,-35.57"/>
<polygon fill="#63b8ff" stroke="#63b8ff" points="1738.3,-90.77 1748.47,-87.8 1738.67,-83.78 1738.3,-90.77"/>
</a>
</g>
</g>
<!-- Node9 -->
<g id="Node000009" class="node">
<title>Node9</title>
<g id="a_Node000009"><a xlink:href="Pet_8cpp.html" target="_top" xlink:title=" ">
<polygon fill="white" stroke="#666666" points="1398,-35.5 1255,-35.5 1255,-5.5 1398,-5.5 1398,-35.5"/>
<text text-anchor="start" x="1263" y="-23.5" font-family="Helvetica,sans-Serif" font-size="10.00">AscEmu/src/world/Objects</text>
<text text-anchor="middle" x="1326.5" y="-12.5" font-family="Helvetica,sans-Serif" font-size="10.00">/Units/Creatures/Pet.cpp</text>
</a>
</g>
</g>
<!-- Node1&#45;&gt;Node9 -->
<g id="edge8_Node000001_Node000009" class="edge">
<title>Node1&#45;&gt;Node9</title>
<g id="a_edge8_Node000001_Node000009"><a xlink:title=" ">
<path fill="none" stroke="#63b8ff" d="M1737.98,-84.07C1654.62,-76.23 1520.83,-61.8 1406.5,-41 1398.06,-39.47 1389.18,-37.58 1380.54,-35.59"/>
<polygon fill="#63b8ff" stroke="#63b8ff" points="1737.86,-87.57 1748.14,-85.02 1738.5,-80.6 1737.86,-87.57"/>
</a>
</g>
</g>
<!-- Node10 -->
<g id="Node000010" class="node">
<title>Node10</title>
<g id="a_Node000010"><a xlink:href="Player_8cpp.html" target="_top" xlink:title=" ">
<polygon fill="white" stroke="#666666" points="1559,-35.5 1416,-35.5 1416,-5.5 1559,-5.5 1559,-35.5"/>
<text text-anchor="start" x="1424" y="-23.5" font-family="Helvetica,sans-Serif" font-size="10.00">AscEmu/src/world/Objects</text>
<text text-anchor="middle" x="1487.5" y="-12.5" font-family="Helvetica,sans-Serif" font-size="10.00">/Units/Players/Player.cpp</text>
</a>
</g>
</g>
<!-- Node1&#45;&gt;Node10 -->
<g id="edge9_Node000001_Node000010" class="edge">
<title>Node1&#45;&gt;Node10</title>
<g id="a_edge9_Node000001_Node000010"><a xlink:title=" ">
<path fill="none" stroke="#63b8ff" d="M1738.3,-75.92C1688.93,-66.42 1624.42,-53.6 1567.5,-41 1559.82,-39.3 1551.75,-37.43 1543.81,-35.54"/>
<polygon fill="#63b8ff" stroke="#63b8ff" points="1737.8,-79.39 1748.28,-77.84 1739.12,-72.52 1737.8,-79.39"/>
</a>
</g>
</g>
<!-- Node11 -->
<g id="Node000011" class="node">
<title>Node11</title>
<g id="a_Node000011"><a xlink:href="Unit_8cpp.html" target="_top" xlink:title=" ">
<polygon fill="white" stroke="#666666" points="1720,-35.5 1577,-35.5 1577,-5.5 1720,-5.5 1720,-35.5"/>
<text text-anchor="start" x="1585" y="-23.5" font-family="Helvetica,sans-Serif" font-size="10.00">AscEmu/src/world/Objects</text>
<text text-anchor="middle" x="1648.5" y="-12.5" font-family="Helvetica,sans-Serif" font-size="10.00">/Units/Unit.cpp</text>
</a>
</g>
</g>
<!-- Node1&#45;&gt;Node11 -->
<g id="edge10_Node000001_Node000011" class="edge">
<title>Node1&#45;&gt;Node11</title>
<g id="a_edge10_Node000001_Node000011"><a xlink:title=" ">
<path fill="none" stroke="#63b8ff" d="M1774.74,-73.11C1746.15,-61.42 1709.34,-46.37 1682.85,-35.54"/>
<polygon fill="#63b8ff" stroke="#63b8ff" points="1773.52,-76.39 1784.1,-76.94 1776.17,-69.91 1773.52,-76.39"/>
</a>
</g>
</g>
<!-- Node12 -->
<g id="Node000012" class="node">
<title>Node12</title>
<g id="a_Node000012"><a xlink:href="AreaTriggerHandler_8cpp.html" target="_top" xlink:title=" ">
<polygon fill="white" stroke="#666666" points="1899,-41 1738,-41 1738,0 1899,0 1899,-41"/>
<text text-anchor="start" x="1746" y="-29" font-family="Helvetica,sans-Serif" font-size="10.00">AscEmu/src/world/Server</text>
<text text-anchor="start" x="1746" y="-18" font-family="Helvetica,sans-Serif" font-size="10.00">/Packets/Handlers/AreaTrigger</text>
<text text-anchor="middle" x="1818.5" y="-7" font-family="Helvetica,sans-Serif" font-size="10.00">Handler.cpp</text>
</a>
</g>
</g>
<!-- Node1&#45;&gt;Node12 -->
<g id="edge11_Node000001_Node000012" class="edge">
<title>Node1&#45;&gt;Node12</title>
<g id="a_edge11_Node000001_Node000012"><a xlink:title=" ">
<path fill="none" stroke="#63b8ff" d="M1818.5,-66.91C1818.5,-58.47 1818.5,-49.1 1818.5,-41.07"/>
<polygon fill="#63b8ff" stroke="#63b8ff" points="1815,-66.94 1818.5,-76.94 1822,-66.94 1815,-66.94"/>
</a>
</g>
</g>
<!-- Node13 -->
<g id="Node000013" class="node">
<title>Node13</title>
<g id="a_Node000013"><a xlink:href="CharacterHandler_8cpp.html" target="_top" xlink:title=" ">
<polygon fill="white" stroke="#666666" points="2128,-35.5 1917,-35.5 1917,-5.5 2128,-5.5 2128,-35.5"/>
<text text-anchor="start" x="1925" y="-23.5" font-family="Helvetica,sans-Serif" font-size="10.00">AscEmu/src/world/Server</text>
<text text-anchor="middle" x="2022.5" y="-12.5" font-family="Helvetica,sans-Serif" font-size="10.00">/Packets/Handlers/CharacterHandler.cpp</text>
</a>
</g>
</g>
<!-- Node1&#45;&gt;Node13 -->
<g id="edge12_Node000001_Node000013" class="edge">
<title>Node1&#45;&gt;Node13</title>
<g id="a_edge12_Node000001_Node000013"><a xlink:title=" ">
<path fill="none" stroke="#63b8ff" d="M1869.67,-73.57C1904.17,-61.81 1949.08,-46.51 1981.28,-35.54"/>
<polygon fill="#63b8ff" stroke="#63b8ff" points="1868.12,-70.4 1859.78,-76.94 1870.38,-77.02 1868.12,-70.4"/>
</a>
</g>
</g>
<!-- Node14 -->
<g id="Node000014" class="node">
<title>Node14</title>
<g id="a_Node000014"><a xlink:href="ChatHandler_8cpp.html" target="_top" xlink:title=" ">
<polygon fill="white" stroke="#666666" points="2332.5,-35.5 2146.5,-35.5 2146.5,-5.5 2332.5,-5.5 2332.5,-35.5"/>
<text text-anchor="start" x="2154.5" y="-23.5" font-family="Helvetica,sans-Serif" font-size="10.00">AscEmu/src/world/Server</text>
<text text-anchor="middle" x="2239.5" y="-12.5" font-family="Helvetica,sans-Serif" font-size="10.00">/Packets/Handlers/ChatHandler.cpp</text>
</a>
</g>
</g>
<!-- Node1&#45;&gt;Node14 -->
<g id="edge13_Node000001_Node000014" class="edge">
<title>Node1&#45;&gt;Node14</title>
<g id="a_edge13_Node000001_Node000014"><a xlink:title=" ">
<path fill="none" stroke="#63b8ff" d="M1898.74,-79.18C1963.32,-69.49 2056.37,-55.11 2137.5,-41 2147.27,-39.3 2157.55,-37.43 2167.67,-35.54"/>
<polygon fill="#63b8ff" stroke="#63b8ff" points="1897.99,-75.76 1888.62,-80.7 1899.03,-82.68 1897.99,-75.76"/>
</a>
</g>
</g>
<!-- Node15 -->
<g id="Node000015" class="node">
<title>Node15</title>
<g id="a_Node000015"><a xlink:href="GuildHandler_8cpp.html" target="_top" xlink:title=" ">
<polygon fill="white" stroke="#666666" points="2540,-35.5 2351,-35.5 2351,-5.5 2540,-5.5 2540,-35.5"/>
<text text-anchor="start" x="2359" y="-23.5" font-family="Helvetica,sans-Serif" font-size="10.00">AscEmu/src/world/Server</text>
<text text-anchor="middle" x="2445.5" y="-12.5" font-family="Helvetica,sans-Serif" font-size="10.00">/Packets/Handlers/GuildHandler.cpp</text>
</a>
</g>
</g>
<!-- Node1&#45;&gt;Node15 -->
<g id="edge14_Node000001_Node000015" class="edge">
<title>Node1&#45;&gt;Node15</title>
<g id="a_edge14_Node000001_Node000015"><a xlink:title=" ">
<path fill="none" stroke="#63b8ff" d="M1898.53,-85.6C2001.36,-78.14 2185.26,-63.07 2341.5,-41 2352.5,-39.45 2364.12,-37.54 2375.43,-35.53"/>
<polygon fill="#63b8ff" stroke="#63b8ff" points="1898.25,-82.11 1888.53,-86.32 1898.75,-89.09 1898.25,-82.11"/>
</a>
</g>
</g>
<!-- Node16 -->
<g id="Node000016" class="node">
<title>Node16</title>
<g id="a_Node000016"><a xlink:href="LootHandler_8cpp.html" target="_top" xlink:title=" ">
<polygon fill="white" stroke="#666666" points="2743,-35.5 2558,-35.5 2558,-5.5 2743,-5.5 2743,-35.5"/>
<text text-anchor="start" x="2566" y="-23.5" font-family="Helvetica,sans-Serif" font-size="10.00">AscEmu/src/world/Server</text>
<text text-anchor="middle" x="2650.5" y="-12.5" font-family="Helvetica,sans-Serif" font-size="10.00">/Packets/Handlers/LootHandler.cpp</text>
</a>
</g>
</g>
<!-- Node1&#45;&gt;Node16 -->
<g id="edge15_Node000001_Node000016" class="edge">
<title>Node1&#45;&gt;Node16</title>
<g id="a_edge15_Node000001_Node000016"><a xlink:title=" ">
<path fill="none" stroke="#63b8ff" d="M1898.83,-88.72C2033.75,-84.17 2314.23,-71.64 2549.5,-41 2560.75,-39.54 2572.63,-37.6 2584.14,-35.51"/>
<polygon fill="#63b8ff" stroke="#63b8ff" points="1898.46,-85.23 1888.58,-89.06 1898.69,-92.23 1898.46,-85.23"/>
</a>
</g>
</g>
<!-- Node17 -->
<g id="Node000017" class="node">
<title>Node17</title>
<g id="a_Node000017"><a xlink:href="MiscHandler_8cpp.html" target="_top" xlink:title=" ">
<polygon fill="white" stroke="#666666" points="2946.5,-35.5 2760.5,-35.5 2760.5,-5.5 2946.5,-5.5 2946.5,-35.5"/>
<text text-anchor="start" x="2768.5" y="-23.5" font-family="Helvetica,sans-Serif" font-size="10.00">AscEmu/src/world/Server</text>
<text text-anchor="middle" x="2853.5" y="-12.5" font-family="Helvetica,sans-Serif" font-size="10.00">/Packets/Handlers/MiscHandler.cpp</text>
</a>
</g>
</g>
<!-- Node1&#45;&gt;Node17 -->
<g id="edge16_Node000001_Node000017" class="edge">
<title>Node1&#45;&gt;Node17</title>
<g id="a_edge16_Node000001_Node000017"><a xlink:title=" ">
<path fill="none" stroke="#63b8ff" d="M1898.86,-90.4C2060.92,-88.39 2438.26,-79.56 2752.5,-41 2764.02,-39.59 2776.2,-37.63 2787.97,-35.51"/>
<polygon fill="#63b8ff" stroke="#63b8ff" points="1898.46,-86.91 1888.5,-90.53 1898.54,-93.91 1898.46,-86.91"/>
</a>
</g>
</g>
<!-- Node18 -->
<g id="Node000018" class="node">
<title>Node18</title>
<g id="a_Node000018"><a xlink:href="QuestHandler_8cpp.html" target="_top" xlink:title=" ">
<polygon fill="white" stroke="#666666" points="3156.5,-35.5 2964.5,-35.5 2964.5,-5.5 3156.5,-5.5 3156.5,-35.5"/>
<text text-anchor="start" x="2972.5" y="-23.5" font-family="Helvetica,sans-Serif" font-size="10.00">AscEmu/src/world/Server</text>
<text text-anchor="middle" x="3060.5" y="-12.5" font-family="Helvetica,sans-Serif" font-size="10.00">/Packets/Handlers/QuestHandler.cpp</text>
</a>
</g>
</g>
<!-- Node1&#45;&gt;Node18 -->
<g id="edge17_Node000001_Node000018" class="edge">
<title>Node1&#45;&gt;Node18</title>
<g id="a_edge17_Node000001_Node000018"><a xlink:title=" ">
<path fill="none" stroke="#63b8ff" d="M1898.89,-91.31C2085.26,-91.2 2561.02,-86.08 2955.5,-41 2967.57,-39.62 2980.33,-37.67 2992.65,-35.53"/>
<polygon fill="#63b8ff" stroke="#63b8ff" points="1898.63,-87.81 1888.63,-91.31 1898.63,-94.81 1898.63,-87.81"/>
</a>
</g>
</g>
<!-- Node19 -->
<g id="Node000019" class="node">
<title>Node19</title>
<g id="a_Node000019"><a xlink:href="HookInterface_8cpp.html" target="_top" xlink:title=" ">
<polygon fill="white" stroke="#666666" points="3314.5,-35.5 3174.5,-35.5 3174.5,-5.5 3314.5,-5.5 3314.5,-35.5"/>
<text text-anchor="start" x="3182.5" y="-23.5" font-family="Helvetica,sans-Serif" font-size="10.00">AscEmu/src/world/Server</text>
<text text-anchor="middle" x="3244.5" y="-12.5" font-family="Helvetica,sans-Serif" font-size="10.00">/Script/HookInterface.cpp</text>
</a>
</g>
</g>
<!-- Node1&#45;&gt;Node19 -->
<g id="edge18_Node000001_Node000019" class="edge">
<title>Node1&#45;&gt;Node19</title>
<g id="a_edge18_Node000001_Node000019"><a xlink:title=" ">
<path fill="none" stroke="#63b8ff" d="M1898.69,-90.18C2149.76,-87.26 2918.64,-75.67 3165.5,-41 3174.87,-39.68 3184.75,-37.72 3194.23,-35.54"/>
<polygon fill="#63b8ff" stroke="#63b8ff" points="1898.51,-86.68 1888.55,-90.29 1898.59,-93.68 1898.51,-86.68"/>
</a>
</g>
</g>
<!-- Node20 -->
<g id="Node000020" class="node">
<title>Node20</title>
<g id="a_Node000020"><a xlink:href="WorldSession_8cpp.html" target="_top" xlink:title=" ">
<polygon fill="white" stroke="#666666" points="3470,-35.5 3333,-35.5 3333,-5.5 3470,-5.5 3470,-35.5"/>
<text text-anchor="start" x="3341" y="-23.5" font-family="Helvetica,sans-Serif" font-size="10.00">AscEmu/src/world/Server</text>
<text text-anchor="middle" x="3401.5" y="-12.5" font-family="Helvetica,sans-Serif" font-size="10.00">/WorldSession.cpp</text>
</a>
</g>
</g>
<!-- Node1&#45;&gt;Node20 -->
<g id="edge19_Node000001_Node000020" class="edge">
<title>Node1&#45;&gt;Node20</title>
<g id="a_edge19_Node000001_Node000020"><a xlink:title=" ">
<path fill="none" stroke="#63b8ff" d="M1898.72,-90.57C2168.93,-88.79 3044.56,-80.05 3323.5,-41 3332.76,-39.7 3342.52,-37.75 3351.88,-35.57"/>
<polygon fill="#63b8ff" stroke="#63b8ff" points="1898.57,-87.07 1888.6,-90.64 1898.62,-94.07 1898.57,-87.07"/>
</a>
</g>
</g>
<!-- Node21 -->
<g id="Node000021" class="node">
<title>Node21</title>
<g id="a_Node000021"><a xlink:href="Spell_8cpp.html" target="_top" xlink:title=" ">
<polygon fill="white" stroke="#666666" points="3618.5,-35.5 3488.5,-35.5 3488.5,-5.5 3618.5,-5.5 3618.5,-35.5"/>
<text text-anchor="start" x="3496.5" y="-23.5" font-family="Helvetica,sans-Serif" font-size="10.00">AscEmu/src/world/Spell</text>
<text text-anchor="middle" x="3553.5" y="-12.5" font-family="Helvetica,sans-Serif" font-size="10.00">/Spell.cpp</text>
</a>
</g>
</g>
<!-- Node1&#45;&gt;Node21 -->
<g id="edge20_Node000001_Node000021" class="edge">
<title>Node1&#45;&gt;Node21</title>
<g id="a_edge20_Node000001_Node000021"><a xlink:title=" ">
<path fill="none" stroke="#63b8ff" d="M1899.08,-91C2187.7,-90.62 3169.09,-85.97 3479.5,-41 3488.44,-39.7 3497.85,-37.72 3506.86,-35.51"/>
<polygon fill="#63b8ff" stroke="#63b8ff" points="1898.7,-87.5 1888.7,-91.01 1898.71,-94.5 1898.7,-87.5"/>
</a>
</g>
</g>
<!-- Node22 -->
<g id="Node000022" class="node">
<title>Node22</title>
<g id="a_Node000022"><a xlink:href="SpellAura_8cpp.html" target="_top" xlink:title=" ">
<polygon fill="white" stroke="#666666" points="3766.5,-35.5 3636.5,-35.5 3636.5,-5.5 3766.5,-5.5 3766.5,-35.5"/>
<text text-anchor="start" x="3644.5" y="-23.5" font-family="Helvetica,sans-Serif" font-size="10.00">AscEmu/src/world/Spell</text>
<text text-anchor="middle" x="3701.5" y="-12.5" font-family="Helvetica,sans-Serif" font-size="10.00">/SpellAura.cpp</text>
</a>
</g>
</g>
<!-- Node1&#45;&gt;Node22 -->
<g id="edge21_Node000001_Node000022" class="edge">
<title>Node1&#45;&gt;Node22</title>
<g id="a_edge21_Node000001_Node000022"><a xlink:title=" ">
<path fill="none" stroke="#63b8ff" d="M1899.03,-91.23C2203.84,-91.73 3286.75,-89.94 3627.5,-41 3636.44,-39.72 3645.86,-37.74 3654.86,-35.53"/>
<polygon fill="#63b8ff" stroke="#63b8ff" points="1898.96,-87.73 1888.95,-91.21 1898.94,-94.73 1898.96,-87.73"/>
</a>
</g>
</g>
</g>
</svg>
