<?xml version="1.0" encoding="UTF-8" standalone="no"?>
<!DOCTYPE svg PUBLIC "-//W3C//DTD SVG 1.1//EN"
 "http://www.w3.org/Graphics/SVG/1.1/DTD/svg11.dtd">
<!-- Generated by graphviz version 2.43.0 (0)
 -->
<!-- Title: Graphical Class Hierarchy Pages: 1 -->
<svg width="270pt" height="98pt"
 viewBox="0.00 0.00 270.00 97.50" xmlns="http://www.w3.org/2000/svg" xmlns:xlink="http://www.w3.org/1999/xlink">
<g id="graph0" class="graph" transform="scale(1 1) rotate(0) translate(4 93.5)">
<title>Graphical Class Hierarchy</title>
<!-- Node0 -->
<g id="Node000000" class="node">
<title>Node0</title>
<g id="a_Node000000"><a xlink:title=" ">
<polygon fill="#e0e0e0" stroke="#999999" points="85,-51.5 0,-51.5 0,-32.5 85,-32.5 85,-51.5"/>
<text text-anchor="middle" x="42.5" y="-39.5" font-family="Helvetica,sans-Serif" font-size="10.00">bool_constant</text>
</a>
</g>
</g>
<!-- Node1 -->
<g id="Node000001" class="node">
<title>Node1</title>
<g id="a_Node000001"><a xlink:href="structdetail_1_1arg__mapper_1_1formattable.html" target="_top" xlink:title=" ">
<polygon fill="white" stroke="#666666" points="262,-89.5 121,-89.5 121,-48.5 262,-48.5 262,-89.5"/>
<text text-anchor="start" x="129" y="-77.5" font-family="Helvetica,sans-Serif" font-size="10.00">detail::arg_mapper</text>
<text text-anchor="start" x="129" y="-66.5" font-family="Helvetica,sans-Serif" font-size="10.00">&lt; Context &gt;::formattable</text>
<text text-anchor="middle" x="191.5" y="-55.5" font-family="Helvetica,sans-Serif" font-size="10.00">&lt; T, U &gt;</text>
</a>
</g>
</g>
<!-- Node0&#45;&gt;Node1 -->
<g id="edge558_Node000000_Node000001" class="edge">
<title>Node0&#45;&gt;Node1</title>
<g id="a_edge558_Node000000_Node000001"><a xlink:title=" ">
<path fill="none" stroke="#63b8ff" d="M95.14,-51.49C103.46,-53.01 112.19,-54.62 120.85,-56.21"/>
<polygon fill="#63b8ff" stroke="#63b8ff" points="95.7,-48.03 85.23,-49.66 94.43,-54.91 95.7,-48.03"/>
</a>
</g>
</g>
<!-- Node2 -->
<g id="Node000002" class="node">
<title>Node2</title>
<g id="a_Node000002"><a xlink:href="structdetail_1_1has__format__as.html" target="_top" xlink:title=" ">
<polygon fill="white" stroke="#666666" points="244.5,-30 138.5,-30 138.5,0 244.5,0 244.5,-30"/>
<text text-anchor="start" x="146.5" y="-18" font-family="Helvetica,sans-Serif" font-size="10.00">detail::has_format</text>
<text text-anchor="middle" x="191.5" y="-7" font-family="Helvetica,sans-Serif" font-size="10.00">_as&lt; T &gt;</text>
</a>
</g>
</g>
<!-- Node0&#45;&gt;Node2 -->
<g id="edge559_Node000000_Node000002" class="edge">
<title>Node0&#45;&gt;Node2</title>
<g id="a_edge559_Node000000_Node000002"><a xlink:title=" ">
<path fill="none" stroke="#63b8ff" d="M95.2,-32.5C109.22,-29.93 124.4,-27.14 138.44,-24.56"/>
<polygon fill="#63b8ff" stroke="#63b8ff" points="94.43,-29.09 85.23,-34.34 95.7,-35.97 94.43,-29.09"/>
</a>
</g>
</g>
</g>
</svg>
