<?xml version="1.0" encoding="UTF-8" standalone="no"?>
<!DOCTYPE svg PUBLIC "-//W3C//DTD SVG 1.1//EN"
 "http://www.w3.org/Graphics/SVG/1.1/DTD/svg11.dtd">
<!-- Generated by graphviz version 2.43.0 (0)
 -->
<!-- Title: SetupTheSteamvault Pages: 1 -->
<svg width="323pt" height="364pt"
 viewBox="0.00 0.00 323.00 364.00" xmlns="http://www.w3.org/2000/svg" xmlns:xlink="http://www.w3.org/1999/xlink">
<g id="graph0" class="graph" transform="scale(1 1) rotate(0) translate(4 360)">
<title>SetupTheSteamvault</title>
<!-- Node1 -->
<g id="Node000001" class="node">
<title>Node1</title>
<g id="a_Node000001"><a xlink:title=" ">
<polygon fill="#999999" stroke="#666666" points="119,-189.5 0,-189.5 0,-170.5 119,-170.5 119,-189.5"/>
<text text-anchor="middle" x="59.5" y="-177.5" font-family="Helvetica,sans-Serif" font-size="10.00">SetupTheSteamvault</text>
</a>
</g>
</g>
<!-- Node2 -->
<g id="Node000002" class="node">
<title>Node2</title>
<g id="a_Node000002"><a xlink:href="classHydromancerThespiaAI.html#aac8a6dcd64dda1f09c1d7783ad9dbae1" target="_top" xlink:title=" ">
<polygon fill="white" stroke="#666666" points="300.5,-356 169.5,-356 169.5,-326 300.5,-326 300.5,-356"/>
<text text-anchor="start" x="177.5" y="-344" font-family="Helvetica,sans-Serif" font-size="10.00">HydromancerThespiaAI</text>
<text text-anchor="middle" x="235" y="-333" font-family="Helvetica,sans-Serif" font-size="10.00">::Create</text>
</a>
</g>
</g>
<!-- Node1&#45;&gt;Node2 -->
<g id="edge1_Node000001_Node000002" class="edge">
<title>Node1&#45;&gt;Node2</title>
<g id="a_edge1_Node000001_Node000002"><a xlink:title=" ">
<path fill="none" stroke="#63b8ff" d="M64.41,-189.62C75.03,-214.57 106.94,-281.89 155,-317 157.08,-318.52 159.25,-319.94 161.5,-321.27"/>
<polygon fill="#63b8ff" stroke="#63b8ff" points="159.99,-324.44 170.47,-325.99 163.25,-318.24 159.99,-324.44"/>
</a>
</g>
</g>
<!-- Node3 -->
<g id="Node000003" class="node">
<title>Node3</title>
<g id="a_Node000003"><a xlink:href="classSteamriggerMechanicAI.html#a33a5337312f48782d24cf774adde77a8" target="_top" xlink:title=" ">
<polygon fill="white" stroke="#666666" points="301.5,-308 168.5,-308 168.5,-278 301.5,-278 301.5,-308"/>
<text text-anchor="start" x="176.5" y="-296" font-family="Helvetica,sans-Serif" font-size="10.00">SteamriggerMechanicAI</text>
<text text-anchor="middle" x="235" y="-285" font-family="Helvetica,sans-Serif" font-size="10.00">::Create</text>
</a>
</g>
</g>
<!-- Node1&#45;&gt;Node3 -->
<g id="edge2_Node000001_Node000003" class="edge">
<title>Node1&#45;&gt;Node3</title>
<g id="a_edge2_Node000001_Node000003"><a xlink:title=" ">
<path fill="none" stroke="#63b8ff" d="M68.01,-189.55C82.77,-207.68 117.37,-247.19 155,-269 158.01,-270.74 161.15,-272.37 164.38,-273.89"/>
<polygon fill="#63b8ff" stroke="#63b8ff" points="163.1,-277.15 173.67,-277.88 165.86,-270.72 163.1,-277.15"/>
</a>
</g>
</g>
<!-- Node4 -->
<g id="Node000004" class="node">
<title>Node4</title>
<g id="a_Node000004"><a xlink:href="classMekgineerSteamriggerAI.html#a9129bc745287517f914cdb87f0696301" target="_top" xlink:title=" ">
<polygon fill="white" stroke="#666666" points="304,-260 166,-260 166,-230 304,-230 304,-260"/>
<text text-anchor="start" x="174" y="-248" font-family="Helvetica,sans-Serif" font-size="10.00">MekgineerSteamriggerAI</text>
<text text-anchor="middle" x="235" y="-237" font-family="Helvetica,sans-Serif" font-size="10.00">::Create</text>
</a>
</g>
</g>
<!-- Node1&#45;&gt;Node4 -->
<g id="edge3_Node000001_Node000004" class="edge">
<title>Node1&#45;&gt;Node4</title>
<g id="a_edge3_Node000001_Node000004"><a xlink:title=" ">
<path fill="none" stroke="#63b8ff" d="M80.87,-189.65C99.83,-198.43 128.98,-211.44 155,-221 160.43,-223 166.11,-224.96 171.83,-226.85"/>
<polygon fill="#63b8ff" stroke="#63b8ff" points="170.86,-230.21 181.45,-229.96 173.01,-223.55 170.86,-230.21"/>
</a>
</g>
</g>
<!-- Node5 -->
<g id="Node000005" class="node">
<title>Node5</title>
<g id="a_Node000005"><a xlink:href="classNagaDistillerAI.html#a641ba4b4ea8edfe05069f92faa1e37a9" target="_top" xlink:title=" ">
<polygon fill="white" stroke="#666666" points="299,-211.5 171,-211.5 171,-192.5 299,-192.5 299,-211.5"/>
<text text-anchor="middle" x="235" y="-199.5" font-family="Helvetica,sans-Serif" font-size="10.00">NagaDistillerAI::Create</text>
</a>
</g>
</g>
<!-- Node1&#45;&gt;Node5 -->
<g id="edge4_Node000001_Node000005" class="edge">
<title>Node1&#45;&gt;Node5</title>
<g id="a_edge4_Node000001_Node000005"><a xlink:title=" ">
<path fill="none" stroke="#63b8ff" d="M119.24,-187.45C132.61,-189.14 146.97,-190.96 160.86,-192.73"/>
<polygon fill="#63b8ff" stroke="#63b8ff" points="160.5,-196.21 170.86,-193.99 161.38,-189.26 160.5,-196.21"/>
</a>
</g>
</g>
<!-- Node6 -->
<g id="Node000006" class="node">
<title>Node6</title>
<g id="a_Node000006"><a xlink:href="classWarlordKalitreshAI.html#a64cfe926a1faa3468c777aadc7dcd302" target="_top" xlink:title=" ">
<polygon fill="white" stroke="#666666" points="288.5,-174 181.5,-174 181.5,-144 288.5,-144 288.5,-174"/>
<text text-anchor="start" x="189.5" y="-162" font-family="Helvetica,sans-Serif" font-size="10.00">WarlordKalitreshAI</text>
<text text-anchor="middle" x="235" y="-151" font-family="Helvetica,sans-Serif" font-size="10.00">::Create</text>
</a>
</g>
</g>
<!-- Node1&#45;&gt;Node6 -->
<g id="edge5_Node000001_Node000006" class="edge">
<title>Node1&#45;&gt;Node6</title>
<g id="a_edge5_Node000001_Node000006"><a xlink:title=" ">
<path fill="none" stroke="#63b8ff" d="M119.24,-172.89C135.93,-170.87 154.17,-168.66 171.09,-166.61"/>
<polygon fill="#63b8ff" stroke="#63b8ff" points="171.93,-170.04 181.44,-165.36 171.09,-163.09 171.93,-170.04"/>
</a>
</g>
</g>
<!-- Node7 -->
<g id="Node000007" class="node">
<title>Node7</title>
<g id="a_Node000007"><a xlink:href="classTheSteamvaultInstanceScript.html#ab6733258190e20540a855f21e7f874fb" target="_top" xlink:title=" ">
<polygon fill="white" stroke="#666666" points="315,-126 155,-126 155,-96 315,-96 315,-126"/>
<text text-anchor="start" x="163" y="-114" font-family="Helvetica,sans-Serif" font-size="10.00">TheSteamvaultInstanceScript</text>
<text text-anchor="middle" x="235" y="-103" font-family="Helvetica,sans-Serif" font-size="10.00">::Create</text>
</a>
</g>
</g>
<!-- Node1&#45;&gt;Node7 -->
<g id="edge6_Node000001_Node000007" class="edge">
<title>Node1&#45;&gt;Node7</title>
<g id="a_edge6_Node000001_Node000007"><a xlink:title=" ">
<path fill="none" stroke="#63b8ff" d="M78.61,-170.38C97.38,-160.64 127.72,-145.57 155,-135 160.1,-133.03 165.43,-131.11 170.81,-129.27"/>
<polygon fill="#63b8ff" stroke="#63b8ff" points="172.12,-132.53 180.51,-126.06 169.92,-125.88 172.12,-132.53"/>
</a>
</g>
</g>
<!-- Node8 -->
<g id="Node000008" class="node">
<title>Node8</title>
<g id="a_Node000008"><a xlink:href="classScriptMgr.html#abae8040a878b5ec1071837c881526206" target="_top" xlink:title=" ">
<polygon fill="white" stroke="#666666" points="288.5,-78 181.5,-78 181.5,-48 288.5,-48 288.5,-78"/>
<text text-anchor="start" x="189.5" y="-66" font-family="Helvetica,sans-Serif" font-size="10.00">ScriptMgr::register</text>
<text text-anchor="middle" x="235" y="-55" font-family="Helvetica,sans-Serif" font-size="10.00">_creature_script</text>
</a>
</g>
</g>
<!-- Node1&#45;&gt;Node8 -->
<g id="edge7_Node000001_Node000008" class="edge">
<title>Node1&#45;&gt;Node8</title>
<g id="a_edge7_Node000001_Node000008"><a xlink:title=" ">
<path fill="none" stroke="#63b8ff" d="M67.69,-170.29C82.14,-151.46 116.61,-109.81 155,-87 160.34,-83.83 166.13,-81.04 172.07,-78.6"/>
<polygon fill="#63b8ff" stroke="#63b8ff" points="173.37,-81.86 181.49,-75.05 170.89,-75.31 173.37,-81.86"/>
</a>
</g>
</g>
<!-- Node9 -->
<g id="Node000009" class="node">
<title>Node9</title>
<g id="a_Node000009"><a xlink:href="classScriptMgr.html#a2fec248630a5ada7f91815709d2f92ce" target="_top" xlink:title=" ">
<polygon fill="white" stroke="#666666" points="288.5,-30 181.5,-30 181.5,0 288.5,0 288.5,-30"/>
<text text-anchor="start" x="189.5" y="-18" font-family="Helvetica,sans-Serif" font-size="10.00">ScriptMgr::register</text>
<text text-anchor="middle" x="235" y="-7" font-family="Helvetica,sans-Serif" font-size="10.00">_instance_script</text>
</a>
</g>
</g>
<!-- Node1&#45;&gt;Node9 -->
<g id="edge8_Node000001_Node000009" class="edge">
<title>Node1&#45;&gt;Node9</title>
<g id="a_edge8_Node000001_Node000009"><a xlink:title=" ">
<path fill="none" stroke="#63b8ff" d="M64.17,-170.47C74.45,-145.09 105.99,-75.31 155,-39 160.14,-35.19 165.89,-31.98 171.88,-29.28"/>
<polygon fill="#63b8ff" stroke="#63b8ff" points="173.46,-32.41 181.43,-25.43 170.85,-25.92 173.46,-32.41"/>
</a>
</g>
</g>
</g>
</svg>
