<?xml version="1.0" encoding="UTF-8" standalone="no"?>
<!DOCTYPE svg PUBLIC "-//W3C//DTD SVG 1.1//EN"
 "http://www.w3.org/Graphics/SVG/1.1/DTD/svg11.dtd">
<!-- Generated by graphviz version 2.43.0 (0)
 -->
<!-- Title: lua_rawgetp Pages: 1 -->
<!--zoomable 193 -->

<svg id="main" version="1.1" xmlns="http://www.w3.org/2000/svg" xmlns:xlink="http://www.w3.org/1999/xlink" xml:space="preserve" onload="init(evt)">
<style type="text/css"><![CDATA[
.node, .edge {opacity: 0.7;}
.node.selected, .edge.selected {opacity: 1;}
.edge:hover path { stroke: red; }
.edge:hover polygon { stroke: red; fill: red; }
]]></style>

<defs>
  <circle id="rim" cx="0" cy="0" r="7"/>
  <circle id="rim2" cx="0" cy="0" r="3.5"/>
  <g id="zoomPlus">
    <use xlink:href="#rim" fill="#404040"><set attributeName="fill" to="#808080" begin="zoomplus.mouseover" end="zoomplus.mouseout"/></use>
    <path d="M-4,0h8M0,-4v8" fill="none" stroke="white" stroke-width="1.5" pointer-events="none"/>
  </g>
  <g id="zoomMin">
    <use xlink:href="#rim" fill="#404040"><set attributeName="fill" to="#808080" begin="zoomminus.mouseover" end="zoomminus.mouseout"/></use>
    <path d="M-4,0h8" fill="none" stroke="white" stroke-width="1.5" pointer-events="none"/>
  </g>
  <g id="arrowUp" transform="translate(30 24)">
    <use xlink:href="#rim"/>
    <path pointer-events="none" fill="none" stroke="white" stroke-width="1.5" d="M0,-3.0v7 M-2.5,-0.5L0,-3.0L2.5,-0.5"/>
  </g>
  <g id="arrowRight" transform="rotate(90) translate(36 -43)">
    <use xlink:href="#rim"/>
    <path pointer-events="none" fill="none" stroke="white" stroke-width="1.5" d="M0,-3.0v7 M-2.5,-0.5L0,-3.0L2.5,-0.5"/>
  </g>
  <g id="arrowDown" transform="rotate(180) translate(-30 -48)">
    <use xlink:href="#rim"/>
    <path pointer-events="none" fill="none" stroke="white" stroke-width="1.5" d="M0,-3.0v7 M-2.5,-0.5L0,-3.0L2.5,-0.5"/>
  </g>
  <g id="arrowLeft" transform="rotate(270) translate(-36 17)">
    <use xlink:href="#rim"/>
    <path pointer-events="none" fill="none" stroke="white" stroke-width="1.5" d="M0,-3.0v7 M-2.5,-0.5L0,-3.0L2.5,-0.5"/>
  </g>
  <g id="resetDef">
    <use xlink:href="#rim2" fill="#404040"><set attributeName="fill" to="#808080" begin="reset.mouseover" end="reset.mouseout"/></use>
  </g>
</defs>
<script type="application/ecmascript">
var viewWidth = 699;
var viewHeight = 193;
var sectionId = 'dynsection-94';
</script>
<script type="application/ecmascript" xlink:href="svg.min.js"/>
<svg id="graph" class="graph">
<g id="viewport">
<title>lua_rawgetp</title>
<!-- Node1 -->
<g id="Node000001" class="node">
<title>Node1</title>
<g id="a_Node000001"><a xlink:title=" ">
<polygon fill="#999999" stroke="#666666" points="77,-148 0,-148 0,-129 77,-129 77,-148"/>
<text text-anchor="middle" x="38.5" y="-136" font-family="Helvetica,sans-Serif" font-size="10.00">lua_rawgetp</text>
</a>
</g>
</g>
<!-- Node2 -->
<g id="Node000002" class="node">
<title>Node2</title>
<g id="a_Node000002"><a xlink:href="lapi_8c.html#a30ad1f34eb3fb703c0473a8e0d7f60f2" target="_top" xlink:title=" ">
<polygon fill="white" stroke="#666666" points="190,-185 113,-185 113,-166 190,-166 190,-185"/>
<text text-anchor="middle" x="151.5" y="-173" font-family="Helvetica,sans-Serif" font-size="10.00">finishrawget</text>
</a>
</g>
</g>
<!-- Node1&#45;&gt;Node2 -->
<g id="edge1_Node000001_Node000002" class="edge">
<title>Node1&#45;&gt;Node2</title>
<g id="a_edge1_Node000001_Node000002"><a xlink:title=" ">
<path fill="none" stroke="#63b8ff" d="M68.09,-148.03C81.45,-152.48 97.55,-157.85 111.97,-162.66"/>
<polygon fill="#63b8ff" stroke="#63b8ff" points="111.03,-166.03 121.63,-165.88 113.25,-159.39 111.03,-166.03"/>
</a>
</g>
</g>
<!-- Node3 -->
<g id="Node000003" class="node">
<title>Node3</title>
<g id="a_Node000003"><a xlink:href="lapi_8c.html#ad72dab885445ae43cf768790aa8a8eca" target="_top" xlink:title=" ">
<polygon fill="white" stroke="#666666" points="180,-148 123,-148 123,-129 180,-129 180,-148"/>
<text text-anchor="middle" x="151.5" y="-136" font-family="Helvetica,sans-Serif" font-size="10.00">gettable</text>
</a>
</g>
</g>
<!-- Node1&#45;&gt;Node3 -->
<g id="edge2_Node000001_Node000003" class="edge">
<title>Node1&#45;&gt;Node3</title>
<g id="a_edge2_Node000001_Node000003"><a xlink:title=" ">
<path fill="none" stroke="#63b8ff" d="M77.08,-138.5C88.54,-138.5 101.14,-138.5 112.62,-138.5"/>
<polygon fill="#63b8ff" stroke="#63b8ff" points="112.79,-142 122.79,-138.5 112.79,-135 112.79,-142"/>
</a>
</g>
</g>
<!-- Node5 -->
<g id="Node000005" class="node">
<title>Node5</title>
<g id="a_Node000005"><a xlink:href="ltable_8c.html#a18a6f1b00c04ce1043c3286bac09f050" target="_top" xlink:title=" ">
<polygon fill="white" stroke="#666666" points="181.5,-93 121.5,-93 121.5,-74 181.5,-74 181.5,-93"/>
<text text-anchor="middle" x="151.5" y="-81" font-family="Helvetica,sans-Serif" font-size="10.00">luaH_get</text>
</a>
</g>
</g>
<!-- Node1&#45;&gt;Node5 -->
<g id="edge4_Node000001_Node000005" class="edge">
<title>Node1&#45;&gt;Node5</title>
<g id="a_edge4_Node000001_Node000005"><a xlink:title=" ">
<path fill="none" stroke="#63b8ff" d="M58.83,-128.92C76.24,-120.3 102.04,-107.51 121.84,-97.7"/>
<polygon fill="#63b8ff" stroke="#63b8ff" points="123.61,-100.73 131.01,-93.16 120.5,-94.46 123.61,-100.73"/>
</a>
</g>
</g>
<!-- Node4 -->
<g id="Node000004" class="node">
<title>Node4</title>
<g id="a_Node000004"><a xlink:href="lapi_8c.html#a7884f1636f91e9b204754b244a807bdc" target="_top" xlink:title=" ">
<polygon fill="white" stroke="#666666" points="313.5,-167 236.5,-167 236.5,-148 313.5,-148 313.5,-167"/>
<text text-anchor="middle" x="275" y="-155" font-family="Helvetica,sans-Serif" font-size="10.00">index2value</text>
</a>
</g>
</g>
<!-- Node3&#45;&gt;Node4 -->
<g id="edge3_Node000003_Node000004" class="edge">
<title>Node3&#45;&gt;Node4</title>
<g id="a_edge3_Node000003_Node000004"><a xlink:title=" ">
<path fill="none" stroke="#63b8ff" d="M180.07,-142.81C193.74,-144.95 210.64,-147.59 226.32,-150.04"/>
<polygon fill="#63b8ff" stroke="#63b8ff" points="225.99,-153.53 236.41,-151.62 227.07,-146.62 225.99,-153.53"/>
</a>
</g>
</g>
<!-- Node6 -->
<g id="Node000006" class="node">
<title>Node6</title>
<g id="a_Node000006"><a xlink:href="ltable_8c.html#a03cf9c2604a5e34341c17a379b72d20d" target="_top" xlink:title=" ">
<polygon fill="white" stroke="#666666" points="309,-93 241,-93 241,-74 309,-74 309,-93"/>
<text text-anchor="middle" x="275" y="-81" font-family="Helvetica,sans-Serif" font-size="10.00">getgeneric</text>
</a>
</g>
</g>
<!-- Node5&#45;&gt;Node6 -->
<g id="edge5_Node000005_Node000006" class="edge">
<title>Node5&#45;&gt;Node6</title>
<g id="a_edge5_Node000005_Node000006"><a xlink:title=" ">
<path fill="none" stroke="#63b8ff" d="M181.6,-83.5C196.23,-83.5 214.25,-83.5 230.49,-83.5"/>
<polygon fill="#63b8ff" stroke="#63b8ff" points="230.84,-87 240.84,-83.5 230.84,-80 230.84,-87"/>
</a>
</g>
</g>
<!-- Node14 -->
<g id="Node000014" class="node">
<title>Node14</title>
<g id="a_Node000014"><a xlink:href="ltable_8c.html#abdca99a946a28b2a8569ebfbc9f0e4a7" target="_top" xlink:title=" ">
<polygon fill="white" stroke="#666666" points="311.5,-56 238.5,-56 238.5,-37 311.5,-37 311.5,-56"/>
<text text-anchor="middle" x="275" y="-44" font-family="Helvetica,sans-Serif" font-size="10.00">luaH_getint</text>
</a>
</g>
</g>
<!-- Node5&#45;&gt;Node14 -->
<g id="edge13_Node000005_Node000014" class="edge">
<title>Node5&#45;&gt;Node14</title>
<g id="a_edge13_Node000005_Node000014"><a xlink:title=" ">
<path fill="none" stroke="#63b8ff" d="M181.6,-74.64C196.98,-69.96 216.11,-64.13 232.96,-59"/>
<polygon fill="#63b8ff" stroke="#63b8ff" points="234.03,-62.33 242.58,-56.07 232,-55.63 234.03,-62.33"/>
</a>
</g>
</g>
<!-- Node16 -->
<g id="Node000016" class="node">
<title>Node16</title>
<g id="a_Node000016"><a xlink:href="ltable_8c.html#ad6a01d300fa2f1748c8e7bf4803740ce" target="_top" xlink:title=" ">
<polygon fill="white" stroke="#666666" points="324,-19 226,-19 226,0 324,0 324,-19"/>
<text text-anchor="middle" x="275" y="-7" font-family="Helvetica,sans-Serif" font-size="10.00">luaH_getshortstr</text>
</a>
</g>
</g>
<!-- Node5&#45;&gt;Node16 -->
<g id="edge16_Node000005_Node000016" class="edge">
<title>Node5&#45;&gt;Node16</title>
<g id="a_edge16_Node000005_Node000016"><a xlink:title=" ">
<path fill="none" stroke="#63b8ff" d="M163.32,-73.94C177.12,-62.1 202.07,-41.87 226,-28.5 229.47,-26.56 233.17,-24.73 236.92,-23.02"/>
<polygon fill="#63b8ff" stroke="#63b8ff" points="238.44,-26.18 246.26,-19.03 235.69,-19.74 238.44,-26.18"/>
</a>
</g>
</g>
<!-- Node17 -->
<g id="Node000017" class="node">
<title>Node17</title>
<g id="a_Node000017"><a xlink:href="lvm_8c.html#a3a9a9378ccdbd0ea4cba6555673dccf9" target="_top" xlink:title=" ">
<polygon fill="white" stroke="#666666" points="324,-130 226,-130 226,-111 324,-111 324,-130"/>
<text text-anchor="middle" x="275" y="-118" font-family="Helvetica,sans-Serif" font-size="10.00">luaV_flttointeger</text>
</a>
</g>
</g>
<!-- Node5&#45;&gt;Node17 -->
<g id="edge17_Node000005_Node000017" class="edge">
<title>Node5&#45;&gt;Node17</title>
<g id="a_edge17_Node000005_Node000017"><a xlink:title=" ">
<path fill="none" stroke="#63b8ff" d="M181.6,-92.36C196.98,-97.04 216.11,-102.87 232.96,-108"/>
<polygon fill="#63b8ff" stroke="#63b8ff" points="232,-111.37 242.58,-110.93 234.03,-104.67 232,-111.37"/>
</a>
</g>
</g>
<!-- Node7 -->
<g id="Node000007" class="node">
<title>Node7</title>
<g id="a_Node000007"><a xlink:href="ltable_8c.html#af84f7eafe0a1b410624263c29224fec9" target="_top" xlink:title=" ">
<polygon fill="white" stroke="#666666" points="437,-130 376,-130 376,-111 437,-111 437,-130"/>
<text text-anchor="middle" x="406.5" y="-118" font-family="Helvetica,sans-Serif" font-size="10.00">equalkey</text>
</a>
</g>
</g>
<!-- Node6&#45;&gt;Node7 -->
<g id="edge6_Node000006_Node000007" class="edge">
<title>Node6&#45;&gt;Node7</title>
<g id="a_edge6_Node000006_Node000007"><a xlink:title=" ">
<path fill="none" stroke="#63b8ff" d="M309.01,-92.93C326.34,-97.88 347.69,-103.98 365.9,-109.19"/>
<polygon fill="#63b8ff" stroke="#63b8ff" points="365.07,-112.59 375.65,-111.97 366.99,-105.86 365.07,-112.59"/>
</a>
</g>
</g>
<!-- Node9 -->
<g id="Node000009" class="node">
<title>Node9</title>
<g id="a_Node000009"><a xlink:href="ltable_8c.html#a113bfbaa7290043b89701e1c2974a592" target="_top" xlink:title=" ">
<polygon fill="white" stroke="#666666" points="453,-93 360,-93 360,-74 453,-74 453,-93"/>
<text text-anchor="middle" x="406.5" y="-81" font-family="Helvetica,sans-Serif" font-size="10.00">mainpositionTV</text>
</a>
</g>
</g>
<!-- Node6&#45;&gt;Node9 -->
<g id="edge8_Node000006_Node000009" class="edge">
<title>Node6&#45;&gt;Node9</title>
<g id="a_edge8_Node000006_Node000009"><a xlink:title=" ">
<path fill="none" stroke="#63b8ff" d="M309.01,-83.5C321.31,-83.5 335.65,-83.5 349.44,-83.5"/>
<polygon fill="#63b8ff" stroke="#63b8ff" points="349.84,-87 359.84,-83.5 349.84,-80 349.84,-87"/>
</a>
</g>
</g>
<!-- Node8 -->
<g id="Node000008" class="node">
<title>Node8</title>
<g id="a_Node000008"><a xlink:href="lstring_8c.html#a99b8eea92097f11885050ff629ff0f83" target="_top" xlink:title=" ">
<polygon fill="white" stroke="#666666" points="580.5,-130 497.5,-130 497.5,-111 580.5,-111 580.5,-130"/>
<text text-anchor="middle" x="539" y="-118" font-family="Helvetica,sans-Serif" font-size="10.00">luaS_eqlngstr</text>
</a>
</g>
</g>
<!-- Node7&#45;&gt;Node8 -->
<g id="edge7_Node000007_Node000008" class="edge">
<title>Node7&#45;&gt;Node8</title>
<g id="a_edge7_Node000007_Node000008"><a xlink:title=" ">
<path fill="none" stroke="#63b8ff" d="M437.11,-120.5C451.81,-120.5 469.99,-120.5 486.84,-120.5"/>
<polygon fill="#63b8ff" stroke="#63b8ff" points="487.13,-124 497.13,-120.5 487.13,-117 487.13,-124"/>
</a>
</g>
</g>
<!-- Node10 -->
<g id="Node000010" class="node">
<title>Node10</title>
<g id="a_Node000010"><a xlink:href="ltable_8c.html#a752641ed8d84eb67eaba2a71641fb3f2" target="_top" xlink:title=" ">
<polygon fill="white" stroke="#666666" points="565.5,-19 512.5,-19 512.5,0 565.5,0 565.5,-19"/>
<text text-anchor="middle" x="539" y="-7" font-family="Helvetica,sans-Serif" font-size="10.00">hashint</text>
</a>
</g>
</g>
<!-- Node9&#45;&gt;Node10 -->
<g id="edge9_Node000009_Node000010" class="edge">
<title>Node9&#45;&gt;Node10</title>
<g id="a_edge9_Node000009_Node000010"><a xlink:title=" ">
<path fill="none" stroke="#63b8ff" d="M437.3,-73.82C442.73,-71.48 448.19,-68.7 453,-65.5 472.09,-52.77 469.87,-41.16 489,-28.5 493.31,-25.65 498.12,-23.13 502.98,-20.93"/>
<polygon fill="#63b8ff" stroke="#63b8ff" points="504.38,-24.14 512.31,-17.1 501.73,-17.66 504.38,-24.14"/>
</a>
</g>
</g>
<!-- Node11 -->
<g id="Node000011" class="node">
<title>Node11</title>
<g id="a_Node000011"><a xlink:href="ltable_8c.html#ac726a5642652c5e7d5417c03047fc3d5" target="_top" xlink:title=" ">
<polygon fill="white" stroke="#666666" points="574,-93 504,-93 504,-74 574,-74 574,-93"/>
<text text-anchor="middle" x="539" y="-81" font-family="Helvetica,sans-Serif" font-size="10.00">l_hashfloat</text>
</a>
</g>
</g>
<!-- Node9&#45;&gt;Node11 -->
<g id="edge10_Node000009_Node000011" class="edge">
<title>Node9&#45;&gt;Node11</title>
<g id="a_edge10_Node000009_Node000011"><a xlink:title=" ">
<path fill="none" stroke="#63b8ff" d="M453.14,-83.5C466.25,-83.5 480.52,-83.5 493.55,-83.5"/>
<polygon fill="#63b8ff" stroke="#63b8ff" points="493.7,-87 503.7,-83.5 493.7,-80 493.7,-87"/>
</a>
</g>
</g>
<!-- Node12 -->
<g id="Node000012" class="node">
<title>Node12</title>
<g id="a_Node000012"><a xlink:href="lstring_8c.html#ac51f4a1e06f41eeeb4690a3581016217" target="_top" xlink:title=" ">
<polygon fill="white" stroke="#666666" points="589,-56 489,-56 489,-37 589,-37 589,-56"/>
<text text-anchor="middle" x="539" y="-44" font-family="Helvetica,sans-Serif" font-size="10.00">luaS_hashlongstr</text>
</a>
</g>
</g>
<!-- Node9&#45;&gt;Node12 -->
<g id="edge11_Node000009_Node000012" class="edge">
<title>Node9&#45;&gt;Node12</title>
<g id="a_edge11_Node000009_Node000012"><a xlink:title=" ">
<path fill="none" stroke="#63b8ff" d="M441.11,-73.97C457.27,-69.39 476.85,-63.84 494.16,-58.93"/>
<polygon fill="#63b8ff" stroke="#63b8ff" points="495.39,-62.22 504.05,-56.12 493.48,-55.49 495.39,-62.22"/>
</a>
</g>
</g>
<!-- Node13 -->
<g id="Node000013" class="node">
<title>Node13</title>
<g id="a_Node000013"><a xlink:href="lstring_8c.html#ac453c0e85b7bb4e9b146fc140b1b7c9e" target="_top" xlink:title=" ">
<polygon fill="white" stroke="#666666" points="691,-56 625,-56 625,-37 691,-37 691,-56"/>
<text text-anchor="middle" x="658" y="-44" font-family="Helvetica,sans-Serif" font-size="10.00">luaS_hash</text>
</a>
</g>
</g>
<!-- Node12&#45;&gt;Node13 -->
<g id="edge12_Node000012_Node000013" class="edge">
<title>Node12&#45;&gt;Node13</title>
<g id="a_edge12_Node000012_Node000013"><a xlink:title=" ">
<path fill="none" stroke="#63b8ff" d="M589.28,-46.5C597.71,-46.5 606.4,-46.5 614.63,-46.5"/>
<polygon fill="#63b8ff" stroke="#63b8ff" points="614.76,-50 624.76,-46.5 614.76,-43 614.76,-50"/>
</a>
</g>
</g>
<!-- Node14&#45;&gt;Node10 -->
<g id="edge14_Node000014_Node000010" class="edge">
<title>Node14&#45;&gt;Node10</title>
<g id="a_edge14_Node000014_Node000010"><a xlink:title=" ">
<path fill="none" stroke="#63b8ff" d="M311.82,-37.96C326.66,-34.65 344.09,-31.05 360,-28.5 409.02,-20.65 466.17,-15.2 502.21,-12.21"/>
<polygon fill="#63b8ff" stroke="#63b8ff" points="502.56,-15.69 512.24,-11.4 501.99,-8.72 502.56,-15.69"/>
</a>
</g>
</g>
<!-- Node15 -->
<g id="Node000015" class="node">
<title>Node15</title>
<g id="a_Node000015"><a xlink:href="ltable_8c.html#a8f20a204b7a78780847939086b847781" target="_top" xlink:title=" ">
<polygon fill="white" stroke="#666666" points="451,-56 362,-56 362,-37 451,-37 451,-56"/>
<text text-anchor="middle" x="406.5" y="-44" font-family="Helvetica,sans-Serif" font-size="10.00">luaH_realasize</text>
</a>
</g>
</g>
<!-- Node14&#45;&gt;Node15 -->
<g id="edge15_Node000014_Node000015" class="edge">
<title>Node14&#45;&gt;Node15</title>
<g id="a_edge15_Node000014_Node000015"><a xlink:title=" ">
<path fill="none" stroke="#63b8ff" d="M311.73,-46.5C324.02,-46.5 338.07,-46.5 351.48,-46.5"/>
<polygon fill="#63b8ff" stroke="#63b8ff" points="351.58,-50 361.58,-46.5 351.58,-43 351.58,-50"/>
</a>
</g>
</g>
</g>
</svg>

<g id="navigator" transform="translate(0 0)" fill="#404254">
  <rect fill="#f2f5e9" fill-opacity="0.5" stroke="#606060" stroke-width=".5" x="0" y="0" width="60" height="60"/>
  <use id="zoomplus" xlink:href="#zoomPlus" x="17" y="9" onmousedown="handleZoom(evt,'in')"/>
  <use id="zoomminus" xlink:href="#zoomMin" x="42" y="9" onmousedown="handleZoom(evt,'out')"/>
  <use id="reset" xlink:href="#resetDef" x="30" y="36" onmousedown="handleReset()"/>
   <use id="arrowup" xlink:href="#arrowUp" x="0" y="0" onmousedown="handlePan(0,-1)"/>
  <use id="arrowright" xlink:href="#arrowRight" x="0" y="0" onmousedown="handlePan(1,0)"/>
  <use id="arrowdown" xlink:href="#arrowDown" x="0" y="0" onmousedown="handlePan(0,1)"/>
  <use id="arrowleft" xlink:href="#arrowLeft" x="0" y="0" onmousedown="handlePan(-1,0)"/>
</g>
<svg viewBox="0 0 15 15" width="100%" height="30px" preserveAspectRatio="xMaxYMin meet">
 <g id="arrow_out" transform="scale(0.3 0.3)">
  <a xlink:href="lapi_8c_acf10870c7165e0e440eb14827a52de93_cgraph_org.svg" target="_base">
   <rect id="button" ry="5" rx="5" y="6" x="6" height="38" width="38"
        fill="#f2f5e9" fill-opacity="0.5" stroke="#606060" stroke-width="1.0"/>
   <path id="arrow"
     d="M 11.500037,31.436501 C 11.940474,20.09759 22.043105,11.32322 32.158766,21.979434 L 37.068811,17.246167 C 37.068811,17.246167 37.088388,32 37.088388,32 L 22.160133,31.978069 C 22.160133,31.978069 26.997745,27.140456 26.997745,27.140456 C 18.528582,18.264221 13.291696,25.230495 11.500037,31.436501 z"
     style="fill:#404040;"/>
  </a>
 </g>
</svg>

<style type='text/css'>
<![CDATA[
[data-mouse-over-selected='false'] { opacity: 0.7; }
[data-mouse-over-selected='true']  { opacity: 1.0; }
]]>
</style>
<script type="application/ecmascript"><![CDATA[
document.addEventListener('DOMContentLoaded', (event) => {
  highlightEdges();
  highlightAdjacentNodes();
});
]]></script>
</svg>
