<?xml version="1.0" encoding="UTF-8" standalone="no"?>
<!DOCTYPE svg PUBLIC "-//W3C//DTD SVG 1.1//EN"
 "http://www.w3.org/Graphics/SVG/1.1/DTD/svg11.dtd">
<!-- Generated by graphviz version 2.43.0 (0)
 -->
<!-- Title: luaL_checkudata Pages: 1 -->
<svg width="483pt" height="101pt"
 viewBox="0.00 0.00 483.00 101.00" xmlns="http://www.w3.org/2000/svg" xmlns:xlink="http://www.w3.org/1999/xlink">
<g id="graph0" class="graph" transform="scale(1 1) rotate(0) translate(4 97)">
<title>luaL_checkudata</title>
<!-- Node1 -->
<g id="Node000001" class="node">
<title>Node1</title>
<g id="a_Node000001"><a xlink:title=" ">
<polygon fill="#999999" stroke="#666666" points="98,-56 0,-56 0,-37 98,-37 98,-56"/>
<text text-anchor="middle" x="49" y="-44" font-family="Helvetica,sans-Serif" font-size="10.00">luaL_checkudata</text>
</a>
</g>
</g>
<!-- Node2 -->
<g id="Node000002" class="node">
<title>Node2</title>
<g id="a_Node000002"><a xlink:href="lauxlib_8c.html#a002893351c161d943c16a31ae957c6d0" target="_top" xlink:title=" ">
<polygon fill="white" stroke="#666666" points="223,-56 134,-56 134,-37 223,-37 223,-56"/>
<text text-anchor="middle" x="178.5" y="-44" font-family="Helvetica,sans-Serif" font-size="10.00">luaL_testudata</text>
</a>
</g>
</g>
<!-- Node1&#45;&gt;Node2 -->
<g id="edge1_Node000001_Node000002" class="edge">
<title>Node1&#45;&gt;Node2</title>
<g id="a_edge1_Node000001_Node000002"><a xlink:title=" ">
<path fill="none" stroke="#63b8ff" d="M98.2,-46.5C106.52,-46.5 115.22,-46.5 123.68,-46.5"/>
<polygon fill="#63b8ff" stroke="#63b8ff" points="123.84,-50 133.84,-46.5 123.84,-43 123.84,-50"/>
</a>
</g>
</g>
<!-- Node3 -->
<g id="Node000003" class="node">
<title>Node3</title>
<g id="a_Node000003"><a xlink:href="lapi_8c.html#a4caa9ca5e47a30bd45e33d83bf2d6d6e" target="_top" xlink:title=" ">
<polygon fill="white" stroke="#666666" points="362,-93 259,-93 259,-74 362,-74 362,-93"/>
<text text-anchor="middle" x="310.5" y="-81" font-family="Helvetica,sans-Serif" font-size="10.00">lua_getmetatable</text>
</a>
</g>
</g>
<!-- Node2&#45;&gt;Node3 -->
<g id="edge2_Node000002_Node000003" class="edge">
<title>Node2&#45;&gt;Node3</title>
<g id="a_edge2_Node000002_Node000003"><a xlink:title=" ">
<path fill="none" stroke="#63b8ff" d="M212.98,-56.03C229.08,-60.61 248.58,-66.16 265.83,-71.07"/>
<polygon fill="#63b8ff" stroke="#63b8ff" points="265.11,-74.5 275.68,-73.88 267.02,-67.77 265.11,-74.5"/>
</a>
</g>
</g>
<!-- Node5 -->
<g id="Node000005" class="node">
<title>Node5</title>
<g id="a_Node000005"><a xlink:href="lapi_8c.html#ace66ea78ced7fda0b367f45d09d10d83" target="_top" xlink:title=" ">
<polygon fill="white" stroke="#666666" points="351.5,-56 269.5,-56 269.5,-37 351.5,-37 351.5,-56"/>
<text text-anchor="middle" x="310.5" y="-44" font-family="Helvetica,sans-Serif" font-size="10.00">lua_rawequal</text>
</a>
</g>
</g>
<!-- Node2&#45;&gt;Node5 -->
<g id="edge4_Node000002_Node000005" class="edge">
<title>Node2&#45;&gt;Node5</title>
<g id="a_edge4_Node000002_Node000005"><a xlink:title=" ">
<path fill="none" stroke="#63b8ff" d="M223.15,-46.5C234.67,-46.5 247.21,-46.5 259.06,-46.5"/>
<polygon fill="#63b8ff" stroke="#63b8ff" points="259.25,-50 269.25,-46.5 259.25,-43 259.25,-50"/>
</a>
</g>
</g>
<!-- Node6 -->
<g id="Node000006" class="node">
<title>Node6</title>
<g id="a_Node000006"><a xlink:href="lapi_8c.html#ac3856ea479475afddd0b2b85c6da116d" target="_top" xlink:title=" ">
<polygon fill="white" stroke="#666666" points="355,-19 266,-19 266,0 355,0 355,-19"/>
<text text-anchor="middle" x="310.5" y="-7" font-family="Helvetica,sans-Serif" font-size="10.00">lua_touserdata</text>
</a>
</g>
</g>
<!-- Node2&#45;&gt;Node6 -->
<g id="edge6_Node000002_Node000006" class="edge">
<title>Node2&#45;&gt;Node6</title>
<g id="a_edge6_Node000002_Node000006"><a xlink:title=" ">
<path fill="none" stroke="#63b8ff" d="M212.98,-36.97C229.08,-32.39 248.58,-26.84 265.83,-21.93"/>
<polygon fill="#63b8ff" stroke="#63b8ff" points="267.02,-25.23 275.68,-19.12 265.11,-18.5 267.02,-25.23"/>
</a>
</g>
</g>
<!-- Node4 -->
<g id="Node000004" class="node">
<title>Node4</title>
<g id="a_Node000004"><a xlink:href="lapi_8c.html#a7884f1636f91e9b204754b244a807bdc" target="_top" xlink:title=" ">
<polygon fill="white" stroke="#666666" points="475,-56 398,-56 398,-37 475,-37 475,-56"/>
<text text-anchor="middle" x="436.5" y="-44" font-family="Helvetica,sans-Serif" font-size="10.00">index2value</text>
</a>
</g>
</g>
<!-- Node3&#45;&gt;Node4 -->
<g id="edge3_Node000003_Node000004" class="edge">
<title>Node3&#45;&gt;Node4</title>
<g id="a_edge3_Node000003_Node000004"><a xlink:title=" ">
<path fill="none" stroke="#63b8ff" d="M343.43,-73.97C358.65,-69.43 377.05,-63.94 393.38,-59.07"/>
<polygon fill="#63b8ff" stroke="#63b8ff" points="394.66,-62.34 403.24,-56.12 392.66,-55.63 394.66,-62.34"/>
</a>
</g>
</g>
<!-- Node5&#45;&gt;Node4 -->
<g id="edge5_Node000005_Node000004" class="edge">
<title>Node5&#45;&gt;Node4</title>
<g id="a_edge5_Node000005_Node000004"><a xlink:title=" ">
<path fill="none" stroke="#63b8ff" d="M351.76,-46.5C363.25,-46.5 375.87,-46.5 387.76,-46.5"/>
<polygon fill="#63b8ff" stroke="#63b8ff" points="387.97,-50 397.97,-46.5 387.97,-43 387.97,-50"/>
</a>
</g>
</g>
<!-- Node6&#45;&gt;Node4 -->
<g id="edge7_Node000006_Node000004" class="edge">
<title>Node6&#45;&gt;Node4</title>
<g id="a_edge7_Node000006_Node000004"><a xlink:title=" ">
<path fill="none" stroke="#63b8ff" d="M343.43,-19.03C358.65,-23.57 377.05,-29.06 393.38,-33.93"/>
<polygon fill="#63b8ff" stroke="#63b8ff" points="392.66,-37.37 403.24,-36.88 394.66,-30.66 392.66,-37.37"/>
</a>
</g>
</g>
<!-- Node7 -->
<g id="Node000007" class="node">
<title>Node7</title>
<g id="a_Node000007"><a xlink:href="lapi_8c.html#a29e2ecc9035b89e024bbc7bea185c91c" target="_top" xlink:title=" ">
<polygon fill="white" stroke="#666666" points="471,-19 402,-19 402,0 471,0 471,-19"/>
<text text-anchor="middle" x="436.5" y="-7" font-family="Helvetica,sans-Serif" font-size="10.00">touserdata</text>
</a>
</g>
</g>
<!-- Node6&#45;&gt;Node7 -->
<g id="edge8_Node000006_Node000007" class="edge">
<title>Node6&#45;&gt;Node7</title>
<g id="a_edge8_Node000006_Node000007"><a xlink:title=" ">
<path fill="none" stroke="#63b8ff" d="M355.22,-9.5C367.08,-9.5 379.93,-9.5 391.79,-9.5"/>
<polygon fill="#63b8ff" stroke="#63b8ff" points="391.92,-13 401.92,-9.5 391.92,-6 391.92,-13"/>
</a>
</g>
</g>
</g>
</svg>
