<?xml version="1.0" encoding="UTF-8" standalone="no"?>
<!DOCTYPE svg PUBLIC "-//W3C//DTD SVG 1.1//EN"
 "http://www.w3.org/Graphics/SVG/1.1/DTD/svg11.dtd">
<!-- Generated by graphviz version 2.43.0 (0)
 -->
<!-- Title: AscEmu/dep/lualib/src/lua/ldblib.c Pages: 1 -->
<svg width="432pt" height="258pt"
 viewBox="0.00 0.00 431.50 258.00" xmlns="http://www.w3.org/2000/svg" xmlns:xlink="http://www.w3.org/1999/xlink">
<g id="graph0" class="graph" transform="scale(1 1) rotate(0) translate(4 254)">
<title>AscEmu/dep/lualib/src/lua/ldblib.c</title>
<!-- Node1 -->
<g id="Node000001" class="node">
<title>Node1</title>
<g id="a_Node000001"><a xlink:title=" ">
<polygon fill="#999999" stroke="#666666" points="278,-250 154,-250 154,-220 278,-220 278,-250"/>
<text text-anchor="start" x="162" y="-238" font-family="Helvetica,sans-Serif" font-size="10.00">AscEmu/dep/lualib/src</text>
<text text-anchor="middle" x="216" y="-227" font-family="Helvetica,sans-Serif" font-size="10.00">/lua/ldblib.c</text>
</a>
</g>
</g>
<!-- Node2 -->
<g id="Node000002" class="node">
<title>Node2</title>
<g id="a_Node000002"><a xlink:href="lprefix_8h.html" target="_top" xlink:title=" ">
<polygon fill="white" stroke="#666666" points="56,-184 0,-184 0,-165 56,-165 56,-184"/>
<text text-anchor="middle" x="28" y="-172" font-family="Helvetica,sans-Serif" font-size="10.00">lprefix.h</text>
</a>
</g>
</g>
<!-- Node1&#45;&gt;Node2 -->
<g id="edge1_Node000001_Node000002" class="edge">
<title>Node1&#45;&gt;Node2</title>
<g id="a_edge1_Node000001_Node000002"><a xlink:title=" ">
<path fill="none" stroke="#63b8ff" d="M170.97,-219.99C138.66,-209.94 95.66,-196.55 65.27,-187.1"/>
<polygon fill="#63b8ff" stroke="#63b8ff" points="66.08,-183.68 55.49,-184.05 64,-190.37 66.08,-183.68"/>
</a>
</g>
</g>
<!-- Node3 -->
<g id="Node000003" class="node">
<title>Node3</title>
<g id="a_Node000003"><a xlink:title=" ">
<polygon fill="#e0e0e0" stroke="#999999" points="109,-129 59,-129 59,-110 109,-110 109,-129"/>
<text text-anchor="middle" x="84" y="-117" font-family="Helvetica,sans-Serif" font-size="10.00">stdio.h</text>
</a>
</g>
</g>
<!-- Node1&#45;&gt;Node3 -->
<g id="edge2_Node000001_Node000003" class="edge">
<title>Node1&#45;&gt;Node3</title>
<g id="a_edge2_Node000001_Node000003"><a xlink:title=" ">
<path fill="none" stroke="#63b8ff" d="M159.98,-219.97C139.58,-212.35 117.89,-200.9 103,-184 92.18,-171.73 87.52,-153.5 85.51,-139.71"/>
<polygon fill="#63b8ff" stroke="#63b8ff" points="88.95,-138.97 84.37,-129.41 81.99,-139.74 88.95,-138.97"/>
</a>
</g>
</g>
<!-- Node4 -->
<g id="Node000004" class="node">
<title>Node4</title>
<g id="a_Node000004"><a xlink:title=" ">
<polygon fill="#e0e0e0" stroke="#999999" points="352.5,-184 299.5,-184 299.5,-165 352.5,-165 352.5,-184"/>
<text text-anchor="middle" x="326" y="-172" font-family="Helvetica,sans-Serif" font-size="10.00">stdlib.h</text>
</a>
</g>
</g>
<!-- Node1&#45;&gt;Node4 -->
<g id="edge3_Node000001_Node000004" class="edge">
<title>Node1&#45;&gt;Node4</title>
<g id="a_edge3_Node000001_Node000004"><a xlink:title=" ">
<path fill="none" stroke="#63b8ff" d="M242.35,-219.99C260.05,-210.58 283.23,-198.24 300.71,-188.95"/>
<polygon fill="#63b8ff" stroke="#63b8ff" points="302.57,-191.92 309.76,-184.14 299.28,-185.74 302.57,-191.92"/>
</a>
</g>
</g>
<!-- Node5 -->
<g id="Node000005" class="node">
<title>Node5</title>
<g id="a_Node000005"><a xlink:title=" ">
<polygon fill="#e0e0e0" stroke="#999999" points="423.5,-184 370.5,-184 370.5,-165 423.5,-165 423.5,-184"/>
<text text-anchor="middle" x="397" y="-172" font-family="Helvetica,sans-Serif" font-size="10.00">string.h</text>
</a>
</g>
</g>
<!-- Node1&#45;&gt;Node5 -->
<g id="edge4_Node000001_Node000005" class="edge">
<title>Node1&#45;&gt;Node5</title>
<g id="a_edge4_Node000001_Node000005"><a xlink:title=" ">
<path fill="none" stroke="#63b8ff" d="M259.35,-219.99C290.32,-209.98 331.5,-196.67 360.73,-187.22"/>
<polygon fill="#63b8ff" stroke="#63b8ff" points="362.1,-190.46 370.53,-184.05 359.94,-183.8 362.1,-190.46"/>
</a>
</g>
</g>
<!-- Node6 -->
<g id="Node000006" class="node">
<title>Node6</title>
<g id="a_Node000006"><a xlink:href="lua_8h.html" target="_top" xlink:title=" ">
<polygon fill="white" stroke="#666666" points="247.5,-129 206.5,-129 206.5,-110 247.5,-110 247.5,-129"/>
<text text-anchor="middle" x="227" y="-117" font-family="Helvetica,sans-Serif" font-size="10.00">lua.h</text>
</a>
</g>
</g>
<!-- Node1&#45;&gt;Node6 -->
<g id="edge5_Node000001_Node000006" class="edge">
<title>Node1&#45;&gt;Node6</title>
<g id="a_edge5_Node000001_Node000006"><a xlink:title=" ">
<path fill="none" stroke="#63b8ff" d="M230.11,-219.63C238.23,-210.31 247.67,-197.44 252,-184 257.21,-167.85 248.76,-149.89 240.31,-137.21"/>
<polygon fill="#63b8ff" stroke="#63b8ff" points="243.06,-135.04 234.35,-129 237.4,-139.15 243.06,-135.04"/>
</a>
</g>
</g>
<!-- Node11 -->
<g id="Node000011" class="node">
<title>Node11</title>
<g id="a_Node000011"><a xlink:href="lauxlib_8h.html" target="_top" xlink:title=" ">
<polygon fill="white" stroke="#666666" points="171.5,-184 112.5,-184 112.5,-165 171.5,-165 171.5,-184"/>
<text text-anchor="middle" x="142" y="-172" font-family="Helvetica,sans-Serif" font-size="10.00">lauxlib.h</text>
</a>
</g>
</g>
<!-- Node1&#45;&gt;Node11 -->
<g id="edge11_Node000001_Node000011" class="edge">
<title>Node1&#45;&gt;Node11</title>
<g id="a_edge11_Node000001_Node000011"><a xlink:title=" ">
<path fill="none" stroke="#63b8ff" d="M198.09,-219.84C186.91,-211 172.52,-199.63 161.12,-190.62"/>
<polygon fill="#63b8ff" stroke="#63b8ff" points="163.1,-187.72 153.09,-184.27 158.76,-193.21 163.1,-187.72"/>
</a>
</g>
</g>
<!-- Node12 -->
<g id="Node000012" class="node">
<title>Node12</title>
<g id="a_Node000012"><a xlink:href="lualib_8h.html" target="_top" xlink:title=" ">
<polygon fill="white" stroke="#666666" points="242.5,-184 189.5,-184 189.5,-165 242.5,-165 242.5,-184"/>
<text text-anchor="middle" x="216" y="-172" font-family="Helvetica,sans-Serif" font-size="10.00">lualib.h</text>
</a>
</g>
</g>
<!-- Node1&#45;&gt;Node12 -->
<g id="edge16_Node000001_Node000012" class="edge">
<title>Node1&#45;&gt;Node12</title>
<g id="a_edge16_Node000001_Node000012"><a xlink:title=" ">
<path fill="none" stroke="#63b8ff" d="M216,-219.84C216,-212.21 216,-202.7 216,-194.45"/>
<polygon fill="#63b8ff" stroke="#63b8ff" points="219.5,-194.27 216,-184.27 212.5,-194.27 219.5,-194.27"/>
</a>
</g>
</g>
<!-- Node7 -->
<g id="Node000007" class="node">
<title>Node7</title>
<g id="a_Node000007"><a xlink:title=" ">
<polygon fill="#e0e0e0" stroke="#999999" points="259,-74 203,-74 203,-55 259,-55 259,-74"/>
<text text-anchor="middle" x="231" y="-62" font-family="Helvetica,sans-Serif" font-size="10.00">stdarg.h</text>
</a>
</g>
</g>
<!-- Node6&#45;&gt;Node7 -->
<g id="edge6_Node000006_Node000007" class="edge">
<title>Node6&#45;&gt;Node7</title>
<g id="a_edge6_Node000006_Node000007"><a xlink:title=" ">
<path fill="none" stroke="#63b8ff" d="M227.66,-109.75C228.18,-102.8 228.94,-92.85 229.59,-84.13"/>
<polygon fill="#63b8ff" stroke="#63b8ff" points="233.09,-84.32 230.35,-74.09 226.11,-83.8 233.09,-84.32"/>
</a>
</g>
</g>
<!-- Node8 -->
<g id="Node000008" class="node">
<title>Node8</title>
<g id="a_Node000008"><a xlink:title=" ">
<polygon fill="#e0e0e0" stroke="#999999" points="210,-19 154,-19 154,0 210,0 210,-19"/>
<text text-anchor="middle" x="182" y="-7" font-family="Helvetica,sans-Serif" font-size="10.00">stddef.h</text>
</a>
</g>
</g>
<!-- Node6&#45;&gt;Node8 -->
<g id="edge7_Node000006_Node000008" class="edge">
<title>Node6&#45;&gt;Node8</title>
<g id="a_edge7_Node000006_Node000008"><a xlink:title=" ">
<path fill="none" stroke="#63b8ff" d="M239.48,-109.96C255.58,-97.86 280.14,-74.95 268,-55 257.46,-37.67 237.75,-26.79 219.86,-20.13"/>
<polygon fill="#63b8ff" stroke="#63b8ff" points="220.77,-16.75 210.17,-16.85 218.52,-23.38 220.77,-16.75"/>
</a>
</g>
</g>
<!-- Node9 -->
<g id="Node000009" class="node">
<title>Node9</title>
<g id="a_Node000009"><a xlink:href="luaconf_8h.html" target="_top" xlink:title=" ">
<polygon fill="white" stroke="#666666" points="146.5,-74 85.5,-74 85.5,-55 146.5,-55 146.5,-74"/>
<text text-anchor="middle" x="116" y="-62" font-family="Helvetica,sans-Serif" font-size="10.00">luaconf.h</text>
</a>
</g>
</g>
<!-- Node6&#45;&gt;Node9 -->
<g id="edge8_Node000006_Node000009" class="edge">
<title>Node6&#45;&gt;Node9</title>
<g id="a_edge8_Node000006_Node000009"><a xlink:title=" ">
<path fill="none" stroke="#63b8ff" d="M209.17,-109.98C191.39,-101.5 163.85,-88.35 143.32,-78.54"/>
<polygon fill="#63b8ff" stroke="#63b8ff" points="144.69,-75.32 134.16,-74.17 141.67,-81.64 144.69,-75.32"/>
</a>
</g>
</g>
<!-- Node9&#45;&gt;Node8 -->
<g id="edge10_Node000009_Node000008" class="edge">
<title>Node9&#45;&gt;Node8</title>
<g id="a_edge10_Node000009_Node000008"><a xlink:title=" ">
<path fill="none" stroke="#63b8ff" d="M126.6,-54.98C136.46,-47.07 151.35,-35.11 163.22,-25.58"/>
<polygon fill="#63b8ff" stroke="#63b8ff" points="165.6,-28.16 171.2,-19.17 161.21,-22.7 165.6,-28.16"/>
</a>
</g>
</g>
<!-- Node10 -->
<g id="Node000010" class="node">
<title>Node10</title>
<g id="a_Node000010"><a xlink:title=" ">
<polygon fill="#e0e0e0" stroke="#999999" points="135.5,-19 82.5,-19 82.5,0 135.5,0 135.5,-19"/>
<text text-anchor="middle" x="109" y="-7" font-family="Helvetica,sans-Serif" font-size="10.00">limits.h</text>
</a>
</g>
</g>
<!-- Node9&#45;&gt;Node10 -->
<g id="edge9_Node000009_Node000010" class="edge">
<title>Node9&#45;&gt;Node10</title>
<g id="a_edge9_Node000009_Node000010"><a xlink:title=" ">
<path fill="none" stroke="#63b8ff" d="M114.84,-54.75C113.93,-47.8 112.61,-37.85 111.46,-29.13"/>
<polygon fill="#63b8ff" stroke="#63b8ff" points="114.91,-28.54 110.13,-19.09 107.97,-29.46 114.91,-28.54"/>
</a>
</g>
</g>
<!-- Node11&#45;&gt;Node3 -->
<g id="edge13_Node000011_Node000003" class="edge">
<title>Node11&#45;&gt;Node3</title>
<g id="a_edge13_Node000011_Node000003"><a xlink:title=" ">
<path fill="none" stroke="#63b8ff" d="M132.68,-164.98C124.19,-157.23 111.44,-145.58 101.12,-136.14"/>
<polygon fill="#63b8ff" stroke="#63b8ff" points="103.23,-133.33 93.49,-129.17 98.51,-138.5 103.23,-133.33"/>
</a>
</g>
</g>
<!-- Node11&#45;&gt;Node6 -->
<g id="edge15_Node000011_Node000006" class="edge">
<title>Node11&#45;&gt;Node6</title>
<g id="a_edge15_Node000011_Node000006"><a xlink:title=" ">
<path fill="none" stroke="#63b8ff" d="M155.66,-164.98C168.84,-156.77 189.03,-144.18 204.57,-134.49"/>
<polygon fill="#63b8ff" stroke="#63b8ff" points="206.46,-137.43 213.09,-129.17 202.76,-131.49 206.46,-137.43"/>
</a>
</g>
</g>
<!-- Node11&#45;&gt;Node8 -->
<g id="edge12_Node000011_Node000008" class="edge">
<title>Node11&#45;&gt;Node8</title>
<g id="a_edge12_Node000011_Node000008"><a xlink:title=" ">
<path fill="none" stroke="#63b8ff" d="M144.15,-164.74C150.42,-139.2 168.77,-64.43 177.4,-29.23"/>
<polygon fill="#63b8ff" stroke="#63b8ff" points="180.85,-29.85 179.84,-19.31 174.06,-28.18 180.85,-29.85"/>
</a>
</g>
</g>
<!-- Node11&#45;&gt;Node9 -->
<g id="edge14_Node000011_Node000009" class="edge">
<title>Node11&#45;&gt;Node9</title>
<g id="a_edge14_Node000011_Node000009"><a xlink:title=" ">
<path fill="none" stroke="#63b8ff" d="M139.87,-164.66C135.64,-147.09 126.1,-107.45 120.44,-83.95"/>
<polygon fill="#63b8ff" stroke="#63b8ff" points="123.83,-83.06 118.08,-74.16 117.02,-84.7 123.83,-83.06"/>
</a>
</g>
</g>
<!-- Node12&#45;&gt;Node6 -->
<g id="edge17_Node000012_Node000006" class="edge">
<title>Node12&#45;&gt;Node6</title>
<g id="a_edge17_Node000012_Node000006"><a xlink:title=" ">
<path fill="none" stroke="#63b8ff" d="M217.82,-164.75C219.26,-157.8 221.32,-147.85 223.13,-139.13"/>
<polygon fill="#63b8ff" stroke="#63b8ff" points="226.61,-139.59 225.22,-129.09 219.76,-138.17 226.61,-139.59"/>
</a>
</g>
</g>
</g>
</svg>
