<?xml version="1.0" encoding="UTF-8" standalone="no"?>
<!DOCTYPE svg PUBLIC "-//W3C//DTD SVG 1.1//EN"
 "http://www.w3.org/Graphics/SVG/1.1/DTD/svg11.dtd">
<!-- Generated by graphviz version 2.43.0 (0)
 -->
<!-- Title: BuildPlayerLockDungeonBlock Pages: 1 -->
<svg width="893pt" height="143pt"
 viewBox="0.00 0.00 893.00 142.50" xmlns="http://www.w3.org/2000/svg" xmlns:xlink="http://www.w3.org/1999/xlink">
<g id="graph0" class="graph" transform="scale(1 1) rotate(0) translate(4 138.5)">
<title>BuildPlayerLockDungeonBlock</title>
<!-- Node1 -->
<g id="Node000001" class="node">
<title>Node1</title>
<g id="a_Node000001"><a xlink:title=" ">
<polygon fill="#999999" stroke="#666666" points="885,-45.5 720,-45.5 720,-26.5 885,-26.5 885,-45.5"/>
<text text-anchor="middle" x="802.5" y="-33.5" font-family="Helvetica,sans-Serif" font-size="10.00">BuildPlayerLockDungeonBlock</text>
</a>
</g>
</g>
<!-- Node2 -->
<g id="Node000002" class="node">
<title>Node2</title>
<g id="a_Node000002"><a xlink:href="LfgHandler_8cpp.html#a756503536d5ab157b583bf79a43ada34" target="_top" xlink:title=" ">
<polygon fill="white" stroke="#666666" points="680,-67.5 521,-67.5 521,-48.5 680,-48.5 680,-67.5"/>
<text text-anchor="middle" x="600.5" y="-55.5" font-family="Helvetica,sans-Serif" font-size="10.00">BuildPartyLockDungeonBlock</text>
</a>
</g>
</g>
<!-- Node1&#45;&gt;Node2 -->
<g id="edge1_Node000001_Node000002" class="edge">
<title>Node1&#45;&gt;Node2</title>
<g id="a_edge1_Node000001_Node000002"><a xlink:title=" ">
<path fill="none" stroke="#63b8ff" d="M709.69,-46.1C699.87,-47.18 689.94,-48.27 680.29,-49.33"/>
<polygon fill="#63b8ff" stroke="#63b8ff" points="710.31,-49.55 719.86,-44.98 709.54,-42.59 710.31,-49.55"/>
</a>
</g>
</g>
<!-- Node10 -->
<g id="Node000010" class="node">
<title>Node10</title>
<g id="a_Node000010"><a xlink:href="classWorldSession.html#a4632747811e9aeffe05d0d12252ee1e3" target="_top" xlink:title=" ">
<polygon fill="white" stroke="#666666" points="684,-30 517,-30 517,0 684,0 684,-30"/>
<text text-anchor="start" x="525" y="-18" font-family="Helvetica,sans-Serif" font-size="10.00">WorldSession::handleLfgPlayer</text>
<text text-anchor="middle" x="600.5" y="-7" font-family="Helvetica,sans-Serif" font-size="10.00">LockInfoRequestOpcode</text>
</a>
</g>
</g>
<!-- Node1&#45;&gt;Node10 -->
<g id="edge10_Node000001_Node000010" class="edge">
<title>Node1&#45;&gt;Node10</title>
<g id="a_edge10_Node000001_Node000010"><a xlink:title=" ">
<path fill="none" stroke="#63b8ff" d="M709.86,-26.38C701.3,-25.48 692.65,-24.57 684.17,-23.68"/>
<polygon fill="#63b8ff" stroke="#63b8ff" points="709.55,-29.86 719.86,-27.43 710.28,-22.9 709.55,-29.86"/>
</a>
</g>
</g>
<!-- Node3 -->
<g id="Node000003" class="node">
<title>Node3</title>
<g id="a_Node000003"><a xlink:href="classWorldSession.html#a7c3220182dbcd09a8bdd52278b478d2f" target="_top" xlink:title=" ">
<polygon fill="white" stroke="#666666" points="481,-73 320,-73 320,-43 481,-43 481,-73"/>
<text text-anchor="start" x="328" y="-61" font-family="Helvetica,sans-Serif" font-size="10.00">WorldSession::handleLfgParty</text>
<text text-anchor="middle" x="400.5" y="-50" font-family="Helvetica,sans-Serif" font-size="10.00">LockInfoRequestOpcode</text>
</a>
</g>
</g>
<!-- Node2&#45;&gt;Node3 -->
<g id="edge2_Node000002_Node000003" class="edge">
<title>Node2&#45;&gt;Node3</title>
<g id="a_edge2_Node000002_Node000003"><a xlink:title=" ">
<path fill="none" stroke="#63b8ff" d="M510.77,-58C500.93,-58 490.96,-58 481.24,-58"/>
<polygon fill="#63b8ff" stroke="#63b8ff" points="510.96,-61.5 520.96,-58 510.96,-54.5 510.96,-61.5"/>
</a>
</g>
</g>
<!-- Node6 -->
<g id="Node000006" class="node">
<title>Node6</title>
<g id="a_Node000006"><a xlink:href="classWorldSession.html#a48193448de5ae40a09d4e189b8e20144" target="_top" xlink:title=" ">
<polygon fill="white" stroke="#666666" points="472.5,-121 328.5,-121 328.5,-91 472.5,-91 472.5,-121"/>
<text text-anchor="start" x="336.5" y="-109" font-family="Helvetica,sans-Serif" font-size="10.00">WorldSession::sendLfgJoin</text>
<text text-anchor="middle" x="400.5" y="-98" font-family="Helvetica,sans-Serif" font-size="10.00">Result</text>
</a>
</g>
</g>
<!-- Node2&#45;&gt;Node6 -->
<g id="edge5_Node000002_Node000006" class="edge">
<title>Node2&#45;&gt;Node6</title>
<g id="a_edge5_Node000002_Node000006"><a xlink:title=" ">
<path fill="none" stroke="#63b8ff" d="M549.85,-70.04C523.72,-76.37 491.42,-84.2 463.63,-90.94"/>
<polygon fill="#63b8ff" stroke="#63b8ff" points="551.01,-73.36 559.91,-67.6 549.36,-66.55 551.01,-73.36"/>
</a>
</g>
</g>
<!-- Node4 -->
<g id="Node000004" class="node">
<title>Node4</title>
<g id="a_Node000004"><a xlink:href="classWorldSession.html#a213cc2e7e497e0cddfde0a1460e4acd0" target="_top" xlink:title=" ">
<polygon fill="white" stroke="#666666" points="284,-54 122,-54 122,-24 284,-24 284,-54"/>
<text text-anchor="start" x="130" y="-42" font-family="Helvetica,sans-Serif" font-size="10.00">WorldSession::registerOpcode</text>
<text text-anchor="middle" x="203" y="-31" font-family="Helvetica,sans-Serif" font-size="10.00">Handler</text>
</a>
</g>
</g>
<!-- Node3&#45;&gt;Node4 -->
<g id="edge3_Node000003_Node000004" class="edge">
<title>Node3&#45;&gt;Node4</title>
<g id="a_edge3_Node000003_Node000004"><a xlink:title=" ">
<path fill="none" stroke="#63b8ff" d="M309.92,-49.29C301.3,-48.46 292.6,-47.61 284.08,-46.78"/>
<polygon fill="#63b8ff" stroke="#63b8ff" points="309.69,-52.79 319.98,-50.27 310.37,-45.82 309.69,-52.79"/>
</a>
</g>
</g>
<!-- Node5 -->
<g id="Node000005" class="node">
<title>Node5</title>
<g id="a_Node000005"><a xlink:href="classMaster.html#a12dde72f3398edffca613e77185fd6f3" target="_top" xlink:title=" ">
<polygon fill="white" stroke="#666666" points="80.5,-48.5 5.5,-48.5 5.5,-29.5 80.5,-29.5 80.5,-48.5"/>
<text text-anchor="middle" x="43" y="-36.5" font-family="Helvetica,sans-Serif" font-size="10.00">Master::Run</text>
</a>
</g>
</g>
<!-- Node4&#45;&gt;Node5 -->
<g id="edge4_Node000004_Node000005" class="edge">
<title>Node4&#45;&gt;Node5</title>
<g id="a_edge4_Node000004_Node000005"><a xlink:title=" ">
<path fill="none" stroke="#63b8ff" d="M111.57,-39C100.7,-39 90.12,-39 80.69,-39"/>
<polygon fill="#63b8ff" stroke="#63b8ff" points="111.61,-42.5 121.61,-39 111.61,-35.5 111.61,-42.5"/>
</a>
</g>
</g>
<!-- Node7 -->
<g id="Node000007" class="node">
<title>Node7</title>
<g id="a_Node000007"><a xlink:href="classLfgMgr.html#abd5bed98e3fe47ca57aacd1d96e79936" target="_top" xlink:title=" ">
<polygon fill="white" stroke="#666666" points="80,-96.5 6,-96.5 6,-77.5 80,-77.5 80,-96.5"/>
<text text-anchor="middle" x="43" y="-84.5" font-family="Helvetica,sans-Serif" font-size="10.00">LfgMgr::Join</text>
</a>
</g>
</g>
<!-- Node6&#45;&gt;Node7 -->
<g id="edge6_Node000006_Node000007" class="edge">
<title>Node6&#45;&gt;Node7</title>
<g id="a_edge6_Node000006_Node000007"><a xlink:title=" ">
<path fill="none" stroke="#63b8ff" d="M318.08,-101.65C243.21,-97.65 135.69,-91.9 80.2,-88.93"/>
<polygon fill="#63b8ff" stroke="#63b8ff" points="318.24,-105.16 328.41,-102.2 318.61,-98.17 318.24,-105.16"/>
</a>
</g>
</g>
<!-- Node8 -->
<g id="Node000008" class="node">
<title>Node8</title>
<g id="a_Node000008"><a xlink:href="classLfgMgr.html#a39d8837438ec9470375db3068fe27b31" target="_top" xlink:title=" ">
<polygon fill="white" stroke="#666666" points="274.5,-134.5 131.5,-134.5 131.5,-115.5 274.5,-115.5 274.5,-134.5"/>
<text text-anchor="middle" x="203" y="-122.5" font-family="Helvetica,sans-Serif" font-size="10.00">LfgMgr::UpdateRoleCheck</text>
</a>
</g>
</g>
<!-- Node6&#45;&gt;Node8 -->
<g id="edge7_Node000006_Node000008" class="edge">
<title>Node6&#45;&gt;Node8</title>
<g id="a_edge7_Node000006_Node000008"><a xlink:title=" ">
<path fill="none" stroke="#63b8ff" d="M318.01,-113.92C303.64,-115.32 288.79,-116.76 274.75,-118.12"/>
<polygon fill="#63b8ff" stroke="#63b8ff" points="318.75,-117.36 328.37,-112.91 318.08,-110.4 318.75,-117.36"/>
</a>
</g>
</g>
<!-- Node8&#45;&gt;Node7 -->
<g id="edge8_Node000008_Node000007" class="edge">
<title>Node8&#45;&gt;Node7</title>
<g id="a_edge8_Node000008_Node000007"><a xlink:title=" ">
<path fill="none" stroke="#63b8ff" d="M152.36,-113.06C128.93,-107.43 101.48,-100.83 80.08,-95.68"/>
<polygon fill="#63b8ff" stroke="#63b8ff" points="151.59,-116.48 162.13,-115.41 153.23,-109.67 151.59,-116.48"/>
</a>
</g>
</g>
<!-- Node9 -->
<g id="Node000009" class="node">
<title>Node9</title>
<g id="a_Node000009"><a xlink:href="classLfgMgr.html#a8dfb64d02dba3d0bbecc524c5293b54b" target="_top" xlink:title=" ">
<polygon fill="white" stroke="#666666" points="86,-134.5 0,-134.5 0,-115.5 86,-115.5 86,-134.5"/>
<text text-anchor="middle" x="43" y="-122.5" font-family="Helvetica,sans-Serif" font-size="10.00">LfgMgr::Leave</text>
</a>
</g>
</g>
<!-- Node8&#45;&gt;Node9 -->
<g id="edge9_Node000008_Node000009" class="edge">
<title>Node8&#45;&gt;Node9</title>
<g id="a_edge9_Node000008_Node000009"><a xlink:title=" ">
<path fill="none" stroke="#63b8ff" d="M121.14,-125C109.02,-125 96.95,-125 86.09,-125"/>
<polygon fill="#63b8ff" stroke="#63b8ff" points="121.32,-128.5 131.32,-125 121.32,-121.5 121.32,-128.5"/>
</a>
</g>
</g>
<!-- Node10&#45;&gt;Node4 -->
<g id="edge11_Node000010_Node000004" class="edge">
<title>Node10&#45;&gt;Node4</title>
<g id="a_edge11_Node000010_Node000004"><a xlink:title=" ">
<path fill="none" stroke="#63b8ff" d="M506.38,-20.65C438.83,-24.75 348.42,-30.24 284.1,-34.14"/>
<polygon fill="#63b8ff" stroke="#63b8ff" points="506.82,-24.13 516.59,-20.03 506.4,-17.14 506.82,-24.13"/>
</a>
</g>
</g>
</g>
</svg>
