<?xml version="1.0" encoding="UTF-8" standalone="no"?>
<!DOCTYPE svg PUBLIC "-//W3C//DTD SVG 1.1//EN"
 "http://www.w3.org/Graphics/SVG/1.1/DTD/svg11.dtd">
<!-- Generated by graphviz version 2.43.0 (0)
 -->
<!-- Title: propagatemark Pages: 1 -->
<svg width="637pt" height="324pt"
 viewBox="0.00 0.00 637.00 324.00" xmlns="http://www.w3.org/2000/svg" xmlns:xlink="http://www.w3.org/1999/xlink">
<g id="graph0" class="graph" transform="scale(1 1) rotate(0) translate(4 320)">
<title>propagatemark</title>
<!-- Node1 -->
<g id="Node000001" class="node">
<title>Node1</title>
<g id="a_Node000001"><a xlink:title=" ">
<polygon fill="#999999" stroke="#666666" points="92,-205 0,-205 0,-186 92,-186 92,-205"/>
<text text-anchor="middle" x="46" y="-193" font-family="Helvetica,sans-Serif" font-size="10.00">propagatemark</text>
</a>
</g>
</g>
<!-- Node2 -->
<g id="Node000002" class="node">
<title>Node2</title>
<g id="a_Node000002"><a xlink:href="lgc_8c.html#a136752c13314085480350cbb838172a0" target="_top" xlink:title=" ">
<polygon fill="white" stroke="#666666" points="207,-316 148,-316 148,-297 207,-297 207,-316"/>
<text text-anchor="middle" x="177.5" y="-304" font-family="Helvetica,sans-Serif" font-size="10.00">getgclist</text>
</a>
</g>
</g>
<!-- Node1&#45;&gt;Node2 -->
<g id="edge1_Node000001_Node000002" class="edge">
<title>Node1&#45;&gt;Node2</title>
<g id="a_edge1_Node000001_Node000002"><a xlink:title=" ">
<path fill="none" stroke="#63b8ff" d="M52.94,-205.07C64.93,-223.65 93.83,-264.88 128,-288.5 131.27,-290.76 134.86,-292.78 138.57,-294.57"/>
<polygon fill="#63b8ff" stroke="#63b8ff" points="137.31,-297.84 147.88,-298.56 140.07,-291.41 137.31,-297.84"/>
</a>
</g>
</g>
<!-- Node3 -->
<g id="Node000003" class="node">
<title>Node3</title>
<g id="a_Node000003"><a xlink:href="lgc_8c.html#aa85f9809abfe94fcd3bbec6e2c46b104" target="_top" xlink:title=" ">
<polygon fill="white" stroke="#666666" points="227,-279 128,-279 128,-260 227,-260 227,-279"/>
<text text-anchor="middle" x="177.5" y="-267" font-family="Helvetica,sans-Serif" font-size="10.00">traverseCclosure</text>
</a>
</g>
</g>
<!-- Node1&#45;&gt;Node3 -->
<g id="edge2_Node000001_Node000003" class="edge">
<title>Node1&#45;&gt;Node3</title>
<g id="a_edge2_Node000001_Node000003"><a xlink:title=" ">
<path fill="none" stroke="#63b8ff" d="M58.75,-205.03C74,-217.07 101.77,-237.84 128,-251.5 131.12,-253.13 134.42,-254.68 137.78,-256.13"/>
<polygon fill="#63b8ff" stroke="#63b8ff" points="136.68,-259.47 147.26,-259.99 139.32,-252.98 136.68,-259.47"/>
</a>
</g>
</g>
<!-- Node4 -->
<g id="Node000004" class="node">
<title>Node4</title>
<g id="a_Node000004"><a xlink:href="lgc_8c.html#a61e584daad5b6a41777ade0e72e559b3" target="_top" xlink:title=" ">
<polygon fill="white" stroke="#666666" points="226.5,-242 128.5,-242 128.5,-223 226.5,-223 226.5,-242"/>
<text text-anchor="middle" x="177.5" y="-230" font-family="Helvetica,sans-Serif" font-size="10.00">traverseLclosure</text>
</a>
</g>
</g>
<!-- Node1&#45;&gt;Node4 -->
<g id="edge3_Node000001_Node000004" class="edge">
<title>Node1&#45;&gt;Node4</title>
<g id="a_edge3_Node000001_Node000004"><a xlink:title=" ">
<path fill="none" stroke="#63b8ff" d="M80.35,-205.03C96.39,-209.61 115.82,-215.16 133,-220.07"/>
<polygon fill="#63b8ff" stroke="#63b8ff" points="132.24,-223.49 142.81,-222.88 134.16,-216.76 132.24,-223.49"/>
</a>
</g>
</g>
<!-- Node5 -->
<g id="Node000005" class="node">
<title>Node5</title>
<g id="a_Node000005"><a xlink:href="lgc_8c.html#a19be424be90fc7025deae5ccfdcab62b" target="_top" xlink:title=" ">
<polygon fill="white" stroke="#666666" points="219,-205 136,-205 136,-186 219,-186 219,-205"/>
<text text-anchor="middle" x="177.5" y="-193" font-family="Helvetica,sans-Serif" font-size="10.00">traverseproto</text>
</a>
</g>
</g>
<!-- Node1&#45;&gt;Node5 -->
<g id="edge4_Node000001_Node000005" class="edge">
<title>Node1&#45;&gt;Node5</title>
<g id="a_edge4_Node000001_Node000005"><a xlink:title=" ">
<path fill="none" stroke="#63b8ff" d="M92.29,-195.5C103.02,-195.5 114.52,-195.5 125.48,-195.5"/>
<polygon fill="#63b8ff" stroke="#63b8ff" points="125.78,-199 135.78,-195.5 125.78,-192 125.78,-199"/>
</a>
</g>
</g>
<!-- Node6 -->
<g id="Node000006" class="node">
<title>Node6</title>
<g id="a_Node000006"><a xlink:href="lgc_8c.html#a86c4c1008df3c908a9cca3cf72abc195" target="_top" xlink:title=" ">
<polygon fill="white" stroke="#666666" points="218.5,-168 136.5,-168 136.5,-149 218.5,-149 218.5,-168"/>
<text text-anchor="middle" x="177.5" y="-156" font-family="Helvetica,sans-Serif" font-size="10.00">traversetable</text>
</a>
</g>
</g>
<!-- Node1&#45;&gt;Node6 -->
<g id="edge5_Node000001_Node000006" class="edge">
<title>Node1&#45;&gt;Node6</title>
<g id="a_edge5_Node000001_Node000006"><a xlink:title=" ">
<path fill="none" stroke="#63b8ff" d="M80.35,-185.97C96.39,-181.39 115.82,-175.84 133,-170.93"/>
<polygon fill="#63b8ff" stroke="#63b8ff" points="134.16,-174.24 142.81,-168.12 132.24,-167.51 134.16,-174.24"/>
</a>
</g>
</g>
<!-- Node15 -->
<g id="Node000015" class="node">
<title>Node15</title>
<g id="a_Node000015"><a xlink:href="lgc_8c.html#a5759d7a25445fd28e24980d7f35a99b2" target="_top" xlink:title=" ">
<polygon fill="white" stroke="#666666" points="222,-74 133,-74 133,-55 222,-55 222,-74"/>
<text text-anchor="middle" x="177.5" y="-62" font-family="Helvetica,sans-Serif" font-size="10.00">traversethread</text>
</a>
</g>
</g>
<!-- Node1&#45;&gt;Node15 -->
<g id="edge19_Node000001_Node000015" class="edge">
<title>Node1&#45;&gt;Node15</title>
<g id="a_edge19_Node000001_Node000015"><a xlink:title=" ">
<path fill="none" stroke="#63b8ff" d="M55.16,-185.8C69.38,-169.07 99.89,-133.93 128,-106.5 137.16,-97.57 147.86,-88.2 156.88,-80.58"/>
<polygon fill="#63b8ff" stroke="#63b8ff" points="159.16,-83.23 164.59,-74.14 154.67,-77.86 159.16,-83.23"/>
</a>
</g>
</g>
<!-- Node21 -->
<g id="Node000021" class="node">
<title>Node21</title>
<g id="a_Node000021"><a xlink:href="lgc_8c.html#a7a5280b620352ed9282f78028779c968" target="_top" xlink:title=" ">
<polygon fill="white" stroke="#666666" points="362,-130 277,-130 277,-111 362,-111 362,-130"/>
<text text-anchor="middle" x="319.5" y="-118" font-family="Helvetica,sans-Serif" font-size="10.00">traverseudata</text>
</a>
</g>
</g>
<!-- Node1&#45;&gt;Node21 -->
<g id="edge25_Node000001_Node000021" class="edge">
<title>Node1&#45;&gt;Node21</title>
<g id="a_edge25_Node000001_Node000021"><a xlink:title=" ">
<path fill="none" stroke="#63b8ff" d="M57.56,-185.75C72.15,-172.92 99.9,-150.77 128,-140.5 172.87,-124.09 227.37,-119.8 266.57,-119.2"/>
<polygon fill="#63b8ff" stroke="#63b8ff" points="266.72,-122.69 276.69,-119.12 266.66,-115.7 266.72,-122.69"/>
</a>
</g>
</g>
<!-- Node7 -->
<g id="Node000007" class="node">
<title>Node7</title>
<g id="a_Node000007"><a xlink:href="lgc_8c.html#aad4294f43d919ea5950d992599d1a445" target="_top" xlink:title=" ">
<polygon fill="white" stroke="#666666" points="376,-204 263,-204 263,-185 376,-185 376,-204"/>
<text text-anchor="middle" x="319.5" y="-192" font-family="Helvetica,sans-Serif" font-size="10.00">traverseephemeron</text>
</a>
</g>
</g>
<!-- Node6&#45;&gt;Node7 -->
<g id="edge6_Node000006_Node000007" class="edge">
<title>Node6&#45;&gt;Node7</title>
<g id="a_edge6_Node000006_Node000007"><a xlink:title=" ">
<path fill="none" stroke="#63b8ff" d="M215.65,-168.05C232.74,-172.45 253.2,-177.71 271.36,-182.38"/>
<polygon fill="#63b8ff" stroke="#63b8ff" points="270.62,-185.8 281.18,-184.9 272.36,-179.02 270.62,-185.8"/>
</a>
</g>
</g>
<!-- Node13 -->
<g id="Node000013" class="node">
<title>Node13</title>
<g id="a_Node000013"><a xlink:href="lgc_8c.html#a3c018ffdc54c29a2ff8f44d32703a7c6" target="_top" xlink:title=" ">
<polygon fill="white" stroke="#666666" points="376,-167 263,-167 263,-148 376,-148 376,-167"/>
<text text-anchor="middle" x="319.5" y="-155" font-family="Helvetica,sans-Serif" font-size="10.00">traversestrongtable</text>
</a>
</g>
</g>
<!-- Node6&#45;&gt;Node13 -->
<g id="edge12_Node000006_Node000013" class="edge">
<title>Node6&#45;&gt;Node13</title>
<g id="a_edge12_Node000006_Node000013"><a xlink:title=" ">
<path fill="none" stroke="#63b8ff" d="M218.62,-158.21C229.3,-158.14 241.14,-158.05 252.81,-157.97"/>
<polygon fill="#63b8ff" stroke="#63b8ff" points="253.01,-161.47 262.99,-157.9 252.96,-154.47 253.01,-161.47"/>
</a>
</g>
</g>
<!-- Node14 -->
<g id="Node000014" class="node">
<title>Node14</title>
<g id="a_Node000014"><a xlink:href="lgc_8c.html#ae8dc436daacca264cf45cb9652c68430" target="_top" xlink:title=" ">
<polygon fill="white" stroke="#666666" points="374.5,-241 264.5,-241 264.5,-222 374.5,-222 374.5,-241"/>
<text text-anchor="middle" x="319.5" y="-229" font-family="Helvetica,sans-Serif" font-size="10.00">traverseweakvalue</text>
</a>
</g>
</g>
<!-- Node6&#45;&gt;Node14 -->
<g id="edge16_Node000006_Node000014" class="edge">
<title>Node6&#45;&gt;Node14</title>
<g id="a_edge16_Node000006_Node000014"><a xlink:title=" ">
<path fill="none" stroke="#63b8ff" d="M208.69,-168.1C214.99,-170.7 221.4,-173.84 227,-177.5 245.93,-189.89 243.7,-201.68 263,-213.5 265.64,-215.11 268.43,-216.6 271.31,-217.96"/>
<polygon fill="#63b8ff" stroke="#63b8ff" points="270.13,-221.26 280.71,-221.92 272.85,-214.81 270.13,-221.26"/>
</a>
</g>
</g>
<!-- Node8 -->
<g id="Node000008" class="node">
<title>Node8</title>
<g id="a_Node000008"><a xlink:href="lgc_8c.html#ae5b5bd4c69910951078ac627fa1654da" target="_top" xlink:title=" ">
<polygon fill="white" stroke="#666666" points="493,-204 435,-204 435,-185 493,-185 493,-204"/>
<text text-anchor="middle" x="464" y="-192" font-family="Helvetica,sans-Serif" font-size="10.00">clearkey</text>
</a>
</g>
</g>
<!-- Node7&#45;&gt;Node8 -->
<g id="edge7_Node000007_Node000008" class="edge">
<title>Node7&#45;&gt;Node8</title>
<g id="a_edge7_Node000007_Node000008"><a xlink:title=" ">
<path fill="none" stroke="#63b8ff" d="M376,-194.5C392.23,-194.5 409.6,-194.5 424.52,-194.5"/>
<polygon fill="#63b8ff" stroke="#63b8ff" points="424.9,-198 434.9,-194.5 424.9,-191 424.9,-198"/>
</a>
</g>
</g>
<!-- Node9 -->
<g id="Node000009" class="node">
<title>Node9</title>
<g id="a_Node000009"><a xlink:href="lgc_8c.html#a59186fdb26bd492886fdc8c3ffd17232" target="_top" xlink:title=" ">
<polygon fill="white" stroke="#666666" points="490.5,-130 437.5,-130 437.5,-111 490.5,-111 490.5,-130"/>
<text text-anchor="middle" x="464" y="-118" font-family="Helvetica,sans-Serif" font-size="10.00">genlink</text>
</a>
</g>
</g>
<!-- Node7&#45;&gt;Node9 -->
<g id="edge8_Node000007_Node000009" class="edge">
<title>Node7&#45;&gt;Node9</title>
<g id="a_edge8_Node000007_Node000009"><a xlink:title=" ">
<path fill="none" stroke="#63b8ff" d="M358.33,-184.98C364.47,-182.67 370.58,-179.87 376,-176.5 395.48,-164.38 392.78,-152.03 412,-139.5 416.8,-136.37 422.18,-133.66 427.61,-131.34"/>
<polygon fill="#63b8ff" stroke="#63b8ff" points="429.24,-134.46 437.3,-127.59 426.71,-127.93 429.24,-134.46"/>
</a>
</g>
</g>
<!-- Node10 -->
<g id="Node000010" class="node">
<title>Node10</title>
<g id="a_Node000010"><a xlink:href="lgc_8c.html#acae02b6cdb8288e654682baf4117e8ab" target="_top" xlink:title=" ">
<polygon fill="white" stroke="#666666" points="494.5,-278 433.5,-278 433.5,-259 494.5,-259 494.5,-278"/>
<text text-anchor="middle" x="464" y="-266" font-family="Helvetica,sans-Serif" font-size="10.00">iscleared</text>
</a>
</g>
</g>
<!-- Node7&#45;&gt;Node10 -->
<g id="edge9_Node000007_Node000010" class="edge">
<title>Node7&#45;&gt;Node10</title>
<g id="a_edge9_Node000007_Node000010"><a xlink:title=" ">
<path fill="none" stroke="#63b8ff" d="M356.57,-204.09C363.29,-206.63 370.06,-209.74 376,-213.5 395.38,-225.77 392.67,-238.13 412,-250.5 415.65,-252.83 419.64,-254.91 423.73,-256.75"/>
<polygon fill="#63b8ff" stroke="#63b8ff" points="422.75,-260.13 433.33,-260.61 425.36,-253.63 422.75,-260.13"/>
</a>
</g>
</g>
<!-- Node11 -->
<g id="Node000011" class="node">
<title>Node11</title>
<g id="a_Node000011"><a xlink:href="ltable_8c.html#a8f20a204b7a78780847939086b847781" target="_top" xlink:title=" ">
<polygon fill="white" stroke="#666666" points="508.5,-167 419.5,-167 419.5,-148 508.5,-148 508.5,-167"/>
<text text-anchor="middle" x="464" y="-155" font-family="Helvetica,sans-Serif" font-size="10.00">luaH_realasize</text>
</a>
</g>
</g>
<!-- Node7&#45;&gt;Node11 -->
<g id="edge10_Node000007_Node000011" class="edge">
<title>Node7&#45;&gt;Node11</title>
<g id="a_edge10_Node000007_Node000011"><a xlink:title=" ">
<path fill="none" stroke="#63b8ff" d="M357.2,-184.97C375.17,-180.3 397.02,-174.63 416.19,-169.65"/>
<polygon fill="#63b8ff" stroke="#63b8ff" points="417.13,-173.03 425.93,-167.12 415.37,-166.25 417.13,-173.03"/>
</a>
</g>
</g>
<!-- Node12 -->
<g id="Node000012" class="node">
<title>Node12</title>
<g id="a_Node000012"><a xlink:href="lgc_8c.html#aacf3c8ee0eebd5d5b1cd09da000ad53c" target="_top" xlink:title=" ">
<polygon fill="white" stroke="#666666" points="513.5,-241 414.5,-241 414.5,-222 513.5,-222 513.5,-241"/>
<text text-anchor="middle" x="464" y="-229" font-family="Helvetica,sans-Serif" font-size="10.00">reallymarkobject</text>
</a>
</g>
</g>
<!-- Node7&#45;&gt;Node12 -->
<g id="edge11_Node000007_Node000012" class="edge">
<title>Node7&#45;&gt;Node12</title>
<g id="a_edge11_Node000007_Node000012"><a xlink:title=" ">
<path fill="none" stroke="#63b8ff" d="M357.2,-204.03C375.17,-208.7 397.02,-214.37 416.19,-219.35"/>
<polygon fill="#63b8ff" stroke="#63b8ff" points="415.37,-222.75 425.93,-221.88 417.13,-215.97 415.37,-222.75"/>
</a>
</g>
</g>
<!-- Node13&#45;&gt;Node8 -->
<g id="edge13_Node000013_Node000008" class="edge">
<title>Node13&#45;&gt;Node8</title>
<g id="a_edge13_Node000013_Node000008"><a xlink:title=" ">
<path fill="none" stroke="#63b8ff" d="M357.2,-167.03C378.03,-172.44 404.07,-179.2 425.1,-184.66"/>
<polygon fill="#63b8ff" stroke="#63b8ff" points="424.42,-188.1 434.98,-187.22 426.18,-181.32 424.42,-188.1"/>
</a>
</g>
</g>
<!-- Node13&#45;&gt;Node9 -->
<g id="edge14_Node000013_Node000009" class="edge">
<title>Node13&#45;&gt;Node9</title>
<g id="a_edge14_Node000013_Node000009"><a xlink:title=" ">
<path fill="none" stroke="#63b8ff" d="M357.2,-147.97C378.84,-142.35 406.09,-135.28 427.52,-129.71"/>
<polygon fill="#63b8ff" stroke="#63b8ff" points="428.42,-133.1 437.21,-127.2 426.66,-126.32 428.42,-133.1"/>
</a>
</g>
</g>
<!-- Node13&#45;&gt;Node11 -->
<g id="edge15_Node000013_Node000011" class="edge">
<title>Node13&#45;&gt;Node11</title>
<g id="a_edge15_Node000013_Node000011"><a xlink:title=" ">
<path fill="none" stroke="#63b8ff" d="M376,-157.5C386.9,-157.5 398.31,-157.5 409.15,-157.5"/>
<polygon fill="#63b8ff" stroke="#63b8ff" points="409.34,-161 419.34,-157.5 409.34,-154 409.34,-161"/>
</a>
</g>
</g>
<!-- Node14&#45;&gt;Node8 -->
<g id="edge17_Node000014_Node000008" class="edge">
<title>Node14&#45;&gt;Node8</title>
<g id="a_edge17_Node000014_Node000008"><a xlink:title=" ">
<path fill="none" stroke="#63b8ff" d="M357.2,-221.97C378.03,-216.56 404.07,-209.8 425.1,-204.34"/>
<polygon fill="#63b8ff" stroke="#63b8ff" points="426.18,-207.68 434.98,-201.78 424.42,-200.9 426.18,-207.68"/>
</a>
</g>
</g>
<!-- Node14&#45;&gt;Node10 -->
<g id="edge18_Node000014_Node000010" class="edge">
<title>Node14&#45;&gt;Node10</title>
<g id="a_edge18_Node000014_Node000010"><a xlink:title=" ">
<path fill="none" stroke="#63b8ff" d="M357.2,-241.03C377.47,-246.29 402.66,-252.83 423.37,-258.21"/>
<polygon fill="#63b8ff" stroke="#63b8ff" points="422.58,-261.62 433.14,-260.75 424.34,-254.85 422.58,-261.62"/>
</a>
</g>
</g>
<!-- Node16 -->
<g id="Node000016" class="node">
<title>Node16</title>
<g id="a_Node000016"><a xlink:href="ldo_8c.html#a219aa86777779dccae2c1bf9008db70a" target="_top" xlink:title=" ">
<polygon fill="white" stroke="#666666" points="370,-65 269,-65 269,-46 370,-46 370,-65"/>
<text text-anchor="middle" x="319.5" y="-53" font-family="Helvetica,sans-Serif" font-size="10.00">luaD_shrinkstack</text>
</a>
</g>
</g>
<!-- Node15&#45;&gt;Node16 -->
<g id="edge20_Node000015_Node000016" class="edge">
<title>Node15&#45;&gt;Node16</title>
<g id="a_edge20_Node000015_Node000016"><a xlink:title=" ">
<path fill="none" stroke="#63b8ff" d="M222.03,-61.7C233.57,-60.96 246.23,-60.15 258.48,-59.36"/>
<polygon fill="#63b8ff" stroke="#63b8ff" points="258.88,-62.84 268.64,-58.71 258.43,-55.85 258.88,-62.84"/>
</a>
</g>
</g>
<!-- Node17 -->
<g id="Node000017" class="node">
<title>Node17</title>
<g id="a_Node000017"><a xlink:href="ldo_8c.html#a75b8b0016e9182d4fd9f71c1a7238e8a" target="_top" xlink:title=" ">
<polygon fill="white" stroke="#666666" points="516,-93 412,-93 412,-74 516,-74 516,-93"/>
<text text-anchor="middle" x="464" y="-81" font-family="Helvetica,sans-Serif" font-size="10.00">luaD_reallocstack</text>
</a>
</g>
</g>
<!-- Node16&#45;&gt;Node17 -->
<g id="edge21_Node000016_Node000017" class="edge">
<title>Node16&#45;&gt;Node17</title>
<g id="a_edge21_Node000016_Node000017"><a xlink:title=" ">
<path fill="none" stroke="#63b8ff" d="M369.14,-65.06C380.49,-67.29 392.69,-69.69 404.42,-71.99"/>
<polygon fill="#63b8ff" stroke="#63b8ff" points="404.09,-75.49 414.58,-73.99 405.44,-68.62 404.09,-75.49"/>
</a>
</g>
</g>
<!-- Node19 -->
<g id="Node000019" class="node">
<title>Node19</title>
<g id="a_Node000019"><a xlink:href="lstate_8c.html#a59bcd5586c176d9e24bcdf9e4d07adbe" target="_top" xlink:title=" ">
<polygon fill="white" stroke="#666666" points="505.5,-56 422.5,-56 422.5,-37 505.5,-37 505.5,-56"/>
<text text-anchor="middle" x="464" y="-44" font-family="Helvetica,sans-Serif" font-size="10.00">luaE_shrinkCI</text>
</a>
</g>
</g>
<!-- Node16&#45;&gt;Node19 -->
<g id="edge23_Node000016_Node000019" class="edge">
<title>Node16&#45;&gt;Node19</title>
<g id="a_edge23_Node000016_Node000019"><a xlink:title=" ">
<path fill="none" stroke="#63b8ff" d="M370.34,-52.35C383.9,-51.5 398.6,-50.57 412.21,-49.71"/>
<polygon fill="#63b8ff" stroke="#63b8ff" points="412.61,-53.19 422.37,-49.07 412.17,-46.2 412.61,-53.19"/>
</a>
</g>
</g>
<!-- Node20 -->
<g id="Node000020" class="node">
<title>Node20</title>
<g id="a_Node000020"><a xlink:href="ldo_8c.html#ac2956ef8f7aba184c6591001f2017a54" target="_top" xlink:title=" ">
<polygon fill="white" stroke="#666666" points="498.5,-19 429.5,-19 429.5,0 498.5,0 498.5,-19"/>
<text text-anchor="middle" x="464" y="-7" font-family="Helvetica,sans-Serif" font-size="10.00">stackinuse</text>
</a>
</g>
</g>
<!-- Node16&#45;&gt;Node20 -->
<g id="edge24_Node000016_Node000020" class="edge">
<title>Node16&#45;&gt;Node20</title>
<g id="a_edge24_Node000016_Node000020"><a xlink:title=" ">
<path fill="none" stroke="#63b8ff" d="M350.03,-45.97C371.43,-39.06 400.58,-29.65 423.91,-22.12"/>
<polygon fill="#63b8ff" stroke="#63b8ff" points="425.07,-25.42 433.51,-19.02 422.92,-18.76 425.07,-25.42"/>
</a>
</g>
</g>
<!-- Node18 -->
<g id="Node000018" class="node">
<title>Node18</title>
<g id="a_Node000018"><a xlink:href="ldo_8c.html#abe8cdd4f21dcfe427288c98e02070795" target="_top" xlink:title=" ">
<polygon fill="white" stroke="#666666" points="629,-93 552,-93 552,-74 629,-74 629,-93"/>
<text text-anchor="middle" x="590.5" y="-81" font-family="Helvetica,sans-Serif" font-size="10.00">correctstack</text>
</a>
</g>
</g>
<!-- Node17&#45;&gt;Node18 -->
<g id="edge22_Node000017_Node000018" class="edge">
<title>Node17&#45;&gt;Node18</title>
<g id="a_edge22_Node000017_Node000018"><a xlink:title=" ">
<path fill="none" stroke="#63b8ff" d="M516.36,-83.5C524.74,-83.5 533.4,-83.5 541.69,-83.5"/>
<polygon fill="#63b8ff" stroke="#63b8ff" points="541.95,-87 551.95,-83.5 541.95,-80 541.95,-87"/>
</a>
</g>
</g>
<!-- Node21&#45;&gt;Node9 -->
<g id="edge26_Node000021_Node000009" class="edge">
<title>Node21&#45;&gt;Node9</title>
<g id="a_edge26_Node000021_Node000009"><a xlink:title=" ">
<path fill="none" stroke="#63b8ff" d="M362.1,-120.5C382.71,-120.5 407.35,-120.5 427.12,-120.5"/>
<polygon fill="#63b8ff" stroke="#63b8ff" points="427.26,-124 437.26,-120.5 427.26,-117 427.26,-124"/>
</a>
</g>
</g>
</g>
</svg>
