<?xml version="1.0" encoding="UTF-8" standalone="no"?>
<!DOCTYPE svg PUBLIC "-//W3C//DTD SVG 1.1//EN"
 "http://www.w3.org/Graphics/SVG/1.1/DTD/svg11.dtd">
<!-- Generated by graphviz version 2.43.0 (0)
 -->
<!-- Title: restartcollection Pages: 1 -->
<svg width="1499pt" height="617pt"
 viewBox="0.00 0.00 1499.00 617.30" xmlns="http://www.w3.org/2000/svg" xmlns:xlink="http://www.w3.org/1999/xlink">
<g id="graph0" class="graph" transform="scale(1 1) rotate(0) translate(4 613.3)">
<title>restartcollection</title>
<!-- Node1 -->
<g id="Node000001" class="node">
<title>Node1</title>
<g id="a_Node000001"><a xlink:title=" ">
<polygon fill="#999999" stroke="#666666" points="1491,-350.3 1395,-350.3 1395,-331.3 1491,-331.3 1491,-350.3"/>
<text text-anchor="middle" x="1443" y="-338.3" font-family="Helvetica,sans-Serif" font-size="10.00">restartcollection</text>
</a>
</g>
</g>
<!-- Node2 -->
<g id="Node000002" class="node">
<title>Node2</title>
<g id="a_Node000002"><a xlink:href="lgc_8c.html#ae34e22198155f5d365fe500d3735c150" target="_top" xlink:title=" ">
<polygon fill="white" stroke="#666666" points="1359,-350.3 1292,-350.3 1292,-331.3 1359,-331.3 1359,-350.3"/>
<text text-anchor="middle" x="1325.5" y="-338.3" font-family="Helvetica,sans-Serif" font-size="10.00">singlestep</text>
</a>
</g>
</g>
<!-- Node1&#45;&gt;Node2 -->
<g id="edge1_Node000001_Node000002" class="edge">
<title>Node1&#45;&gt;Node2</title>
<g id="a_edge1_Node000001_Node000002"><a xlink:title=" ">
<path fill="none" stroke="#63b8ff" d="M1384.5,-340.8C1375.77,-340.8 1367.04,-340.8 1359.1,-340.8"/>
<polygon fill="#63b8ff" stroke="#63b8ff" points="1384.69,-344.3 1394.69,-340.8 1384.69,-337.3 1384.69,-344.3"/>
</a>
</g>
</g>
<!-- Node3 -->
<g id="Node000003" class="node">
<title>Node3</title>
<g id="a_Node000003"><a xlink:href="lgc_8c.html#a3a70dfeab5db063c688d7e200d63a7c1" target="_top" xlink:title=" ">
<polygon fill="white" stroke="#666666" points="1235,-332.3 1183,-332.3 1183,-313.3 1235,-313.3 1235,-332.3"/>
<text text-anchor="middle" x="1209" y="-320.3" font-family="Helvetica,sans-Serif" font-size="10.00">incstep</text>
</a>
</g>
</g>
<!-- Node2&#45;&gt;Node3 -->
<g id="edge2_Node000002_Node000003" class="edge">
<title>Node2&#45;&gt;Node3</title>
<g id="a_edge2_Node000002_Node000003"><a xlink:title=" ">
<path fill="none" stroke="#63b8ff" d="M1281.96,-334.12C1266.27,-331.65 1249,-328.93 1235.3,-326.78"/>
<polygon fill="#63b8ff" stroke="#63b8ff" points="1281.57,-337.6 1292,-335.69 1282.66,-330.68 1281.57,-337.6"/>
</a>
</g>
</g>
<!-- Node9 -->
<g id="Node000009" class="node">
<title>Node9</title>
<g id="a_Node000009"><a xlink:href="lgc_8c.html#a97086b84273579d4c9b42a782f30410d" target="_top" xlink:title=" ">
<polygon fill="white" stroke="#666666" points="1256,-369.3 1162,-369.3 1162,-350.3 1256,-350.3 1256,-369.3"/>
<text text-anchor="middle" x="1209" y="-357.3" font-family="Helvetica,sans-Serif" font-size="10.00">luaC_runtilstate</text>
</a>
</g>
</g>
<!-- Node2&#45;&gt;Node9 -->
<g id="edge8_Node000002_Node000009" class="edge">
<title>Node2&#45;&gt;Node9</title>
<g id="a_edge8_Node000002_Node000009"><a xlink:title=" ">
<path fill="none" stroke="#63b8ff" d="M1282.03,-347.85C1273.63,-349.24 1264.78,-350.71 1256.26,-352.13"/>
<polygon fill="#63b8ff" stroke="#63b8ff" points="1282.7,-351.29 1292,-346.2 1281.56,-344.38 1282.7,-351.29"/>
</a>
</g>
</g>
<!-- Node4 -->
<g id="Node000004" class="node">
<title>Node4</title>
<g id="a_Node000004"><a xlink:href="lgc_8c.html#ab0133eb7bb37a0a690e0ef71fbc13414" target="_top" xlink:title=" ">
<polygon fill="white" stroke="#666666" points="737.5,-374.3 672.5,-374.3 672.5,-355.3 737.5,-355.3 737.5,-374.3"/>
<text text-anchor="middle" x="705" y="-362.3" font-family="Helvetica,sans-Serif" font-size="10.00">luaC_step</text>
</a>
</g>
</g>
<!-- Node3&#45;&gt;Node4 -->
<g id="edge3_Node000003_Node000004" class="edge">
<title>Node3&#45;&gt;Node4</title>
<g id="a_edge3_Node000003_Node000004"><a xlink:title=" ">
<path fill="none" stroke="#63b8ff" d="M1172.48,-321.66C1143.74,-321.01 1102.23,-320.7 1066,-322.8 944.13,-329.89 800.23,-350.36 737.68,-359.85"/>
<polygon fill="#63b8ff" stroke="#63b8ff" points="1172.75,-325.17 1182.84,-321.92 1172.93,-318.17 1172.75,-325.17"/>
</a>
</g>
</g>
<!-- Node5 -->
<g id="Node000005" class="node">
<title>Node5</title>
<g id="a_Node000005"><a xlink:href="lapi_8c.html#aa93573057f708d826613186a9d40c87d" target="_top" xlink:title=" ">
<polygon fill="white" stroke="#666666" points="615,-374.3 567,-374.3 567,-355.3 615,-355.3 615,-374.3"/>
<text text-anchor="middle" x="591" y="-362.3" font-family="Helvetica,sans-Serif" font-size="10.00">lua_gc</text>
</a>
</g>
</g>
<!-- Node4&#45;&gt;Node5 -->
<g id="edge4_Node000004_Node000005" class="edge">
<title>Node4&#45;&gt;Node5</title>
<g id="a_edge4_Node000004_Node000005"><a xlink:title=" ">
<path fill="none" stroke="#63b8ff" d="M662.1,-364.8C646.27,-364.8 628.85,-364.8 615.33,-364.8"/>
<polygon fill="#63b8ff" stroke="#63b8ff" points="662.2,-368.3 672.2,-364.8 662.2,-361.3 662.2,-368.3"/>
</a>
</g>
</g>
<!-- Node6 -->
<g id="Node000006" class="node">
<title>Node6</title>
<g id="a_Node000006"><a xlink:href="lbaselib_8c.html#a07f71966c943cc9761ab129f64d4ac80" target="_top" xlink:title=" ">
<polygon fill="white" stroke="#666666" points="513,-383.3 397,-383.3 397,-364.3 513,-364.3 513,-383.3"/>
<text text-anchor="middle" x="455" y="-371.3" font-family="Helvetica,sans-Serif" font-size="10.00">luaB_collectgarbage</text>
</a>
</g>
</g>
<!-- Node5&#45;&gt;Node6 -->
<g id="edge5_Node000005_Node000006" class="edge">
<title>Node5&#45;&gt;Node6</title>
<g id="a_edge5_Node000005_Node000006"><a xlink:title=" ">
<path fill="none" stroke="#63b8ff" d="M556.91,-367.03C543.65,-367.92 527.99,-368.97 513.01,-369.97"/>
<polygon fill="#63b8ff" stroke="#63b8ff" points="557.22,-370.51 566.96,-366.35 556.75,-363.53 557.22,-370.51"/>
</a>
</g>
</g>
<!-- Node7 -->
<g id="Node000007" class="node">
<title>Node7</title>
<g id="a_Node000007"><a xlink:href="lua_8c.html#aa0f8bc082ef913cb0a4df437bf5f5019" target="_top" xlink:title=" ">
<polygon fill="white" stroke="#666666" points="478.5,-346.3 431.5,-346.3 431.5,-327.3 478.5,-327.3 478.5,-346.3"/>
<text text-anchor="middle" x="455" y="-334.3" font-family="Helvetica,sans-Serif" font-size="10.00">pmain</text>
</a>
</g>
</g>
<!-- Node5&#45;&gt;Node7 -->
<g id="edge6_Node000005_Node000007" class="edge">
<title>Node5&#45;&gt;Node7</title>
<g id="a_edge6_Node000005_Node000007"><a xlink:title=" ">
<path fill="none" stroke="#63b8ff" d="M557.09,-357.93C532.76,-352.84 500.24,-346.05 478.73,-341.55"/>
<polygon fill="#63b8ff" stroke="#63b8ff" points="556.46,-361.37 566.96,-359.99 557.89,-354.52 556.46,-361.37"/>
</a>
</g>
</g>
<!-- Node8 -->
<g id="Node000008" class="node">
<title>Node8</title>
<g id="a_Node000008"><a xlink:href="lua_8c.html#a3c04138a5bfe5d72780bb7e82a18e627" target="_top" xlink:title=" ">
<polygon fill="white" stroke="#666666" points="325.5,-421.3 284.5,-421.3 284.5,-402.3 325.5,-402.3 325.5,-421.3"/>
<text text-anchor="middle" x="305" y="-409.3" font-family="Helvetica,sans-Serif" font-size="10.00">main</text>
</a>
</g>
</g>
<!-- Node7&#45;&gt;Node8 -->
<g id="edge7_Node000007_Node000008" class="edge">
<title>Node7&#45;&gt;Node8</title>
<g id="a_edge7_Node000007_Node000008"><a xlink:title=" ">
<path fill="none" stroke="#63b8ff" d="M421.68,-346.14C413.48,-348.9 404.8,-352.17 397,-355.8 367.92,-369.38 336.59,-390.18 319.32,-402.24"/>
<polygon fill="#63b8ff" stroke="#63b8ff" points="422.89,-349.43 431.34,-343.04 420.75,-342.77 422.89,-349.43"/>
</a>
</g>
</g>
<!-- Node10 -->
<g id="Node000010" class="node">
<title>Node10</title>
<g id="a_Node000010"><a xlink:href="lgc_8c.html#a2f8aa4c5cfd7f907a35deaa695ca4d3b" target="_top" xlink:title=" ">
<polygon fill="white" stroke="#666666" points="1126,-426.3 1066,-426.3 1066,-407.3 1126,-407.3 1126,-426.3"/>
<text text-anchor="middle" x="1096" y="-414.3" font-family="Helvetica,sans-Serif" font-size="10.00">entergen</text>
</a>
</g>
</g>
<!-- Node9&#45;&gt;Node10 -->
<g id="edge9_Node000009_Node000010" class="edge">
<title>Node9&#45;&gt;Node10</title>
<g id="a_edge9_Node000009_Node000010"><a xlink:title=" ">
<path fill="none" stroke="#63b8ff" d="M1180.39,-373.98C1160.2,-384.35 1133.35,-398.14 1115.64,-407.23"/>
<polygon fill="#63b8ff" stroke="#63b8ff" points="1182.12,-377.03 1189.42,-369.34 1178.93,-370.8 1182.12,-377.03"/>
</a>
</g>
</g>
<!-- Node3044 -->
<g id="Node003044" class="node">
<title>Node3044</title>
<g id="a_Node003044"><a xlink:href="lgc_8c.html#ac6dccdcfb264cbc5f1776cea79c8e375" target="_top" xlink:title=" ">
<polygon fill="white" stroke="#666666" points="1119.5,-350.3 1072.5,-350.3 1072.5,-331.3 1119.5,-331.3 1119.5,-350.3"/>
<text text-anchor="middle" x="1096" y="-338.3" font-family="Helvetica,sans-Serif" font-size="10.00">fullinc</text>
</a>
</g>
</g>
<!-- Node9&#45;&gt;Node3044 -->
<g id="edge61_Node000009_Node003044" class="edge">
<title>Node9&#45;&gt;Node3044</title>
<g id="a_edge61_Node000009_Node003044"><a xlink:title=" ">
<path fill="none" stroke="#63b8ff" d="M1151.92,-350.21C1140.54,-348.26 1129.18,-346.31 1119.78,-344.7"/>
<polygon fill="#63b8ff" stroke="#63b8ff" points="1151.44,-353.67 1161.89,-351.91 1152.62,-346.77 1151.44,-353.67"/>
</a>
</g>
</g>
<!-- Node2477 -->
<g id="Node002477" class="node">
<title>Node2477</title>
<g id="a_Node002477"><a xlink:href="lgc_8c.html#a6a3515ae97e70e9ccd0fb50acebc62d1" target="_top" xlink:title=" ">
<polygon fill="white" stroke="#666666" points="1012,-388.3 941,-388.3 941,-369.3 1012,-369.3 1012,-388.3"/>
<text text-anchor="middle" x="976.5" y="-376.3" font-family="Helvetica,sans-Serif" font-size="10.00">stepgenfull</text>
</a>
</g>
</g>
<!-- Node9&#45;&gt;Node2477 -->
<g id="edge63_Node000009_Node002477" class="edge">
<title>Node9&#45;&gt;Node2477</title>
<g id="a_edge63_Node000009_Node002477"><a xlink:title=" ">
<path fill="none" stroke="#63b8ff" d="M1151.74,-364.44C1108.17,-368.03 1049.18,-372.9 1012.24,-375.94"/>
<polygon fill="#63b8ff" stroke="#63b8ff" points="1152.23,-367.91 1161.91,-363.6 1151.66,-360.94 1152.23,-367.91"/>
</a>
</g>
</g>
<!-- Node11 -->
<g id="Node000011" class="node">
<title>Node11</title>
<g id="a_Node000011"><a xlink:href="lgc_8c.html#a270a46ab08adc0bb728eeb67b5cc45a9" target="_top" xlink:title=" ">
<polygon fill="white" stroke="#666666" points="1001.5,-425.3 951.5,-425.3 951.5,-406.3 1001.5,-406.3 1001.5,-425.3"/>
<text text-anchor="middle" x="976.5" y="-413.3" font-family="Helvetica,sans-Serif" font-size="10.00">fullgen</text>
</a>
</g>
</g>
<!-- Node10&#45;&gt;Node11 -->
<g id="edge10_Node000010_Node000011" class="edge">
<title>Node10&#45;&gt;Node11</title>
<g id="a_edge10_Node000010_Node000011"><a xlink:title=" ">
<path fill="none" stroke="#63b8ff" d="M1055.82,-416.47C1037.99,-416.32 1017.43,-416.14 1001.85,-416.01"/>
<polygon fill="#63b8ff" stroke="#63b8ff" points="1055.93,-419.97 1065.96,-416.56 1055.99,-412.97 1055.93,-419.97"/>
</a>
</g>
</g>
<!-- Node3043 -->
<g id="Node003043" class="node">
<title>Node3043</title>
<g id="a_Node003043"><a xlink:href="lgc_8c.html#ac88d5c236307393937e02bc82c10f970" target="_top" xlink:title=" ">
<polygon fill="white" stroke="#666666" points="1030,-462.3 923,-462.3 923,-443.3 1030,-443.3 1030,-462.3"/>
<text text-anchor="middle" x="976.5" y="-450.3" font-family="Helvetica,sans-Serif" font-size="10.00">luaC_changemode</text>
</a>
</g>
</g>
<!-- Node10&#45;&gt;Node3043 -->
<g id="edge43_Node000010_Node003043" class="edge">
<title>Node10&#45;&gt;Node3043</title>
<g id="a_edge43_Node000010_Node003043"><a xlink:title=" ">
<path fill="none" stroke="#63b8ff" d="M1056.17,-428.7C1040.75,-433.42 1023.25,-438.79 1008.68,-443.25"/>
<polygon fill="#63b8ff" stroke="#63b8ff" points="1057.42,-431.98 1065.96,-425.7 1055.37,-425.29 1057.42,-431.98"/>
</a>
</g>
</g>
<!-- Node12 -->
<g id="Node000012" class="node">
<title>Node12</title>
<g id="a_Node000012"><a xlink:href="lgc_8c.html#a3035567259cf4d2269426622ccc0d022" target="_top" xlink:title=" ">
<polygon fill="white" stroke="#666666" points="860,-388.3 804,-388.3 804,-369.3 860,-369.3 860,-388.3"/>
<text text-anchor="middle" x="832" y="-376.3" font-family="Helvetica,sans-Serif" font-size="10.00">genstep</text>
</a>
</g>
</g>
<!-- Node11&#45;&gt;Node12 -->
<g id="edge11_Node000011_Node000012" class="edge">
<title>Node11&#45;&gt;Node12</title>
<g id="a_edge11_Node000011_Node000012"><a xlink:title=" ">
<path fill="none" stroke="#63b8ff" d="M941.57,-407C916.7,-400.54 883.36,-391.88 860.21,-385.87"/>
<polygon fill="#63b8ff" stroke="#63b8ff" points="940.77,-410.4 951.33,-409.53 942.53,-403.63 940.77,-410.4"/>
</a>
</g>
</g>
<!-- Node13 -->
<g id="Node000013" class="node">
<title>Node13</title>
<g id="a_Node000013"><a xlink:href="lgc_8c.html#ac48130e5263ad8be09a9c51dae6125b9" target="_top" xlink:title=" ">
<polygon fill="white" stroke="#666666" points="867.5,-274.3 796.5,-274.3 796.5,-255.3 867.5,-255.3 867.5,-274.3"/>
<text text-anchor="middle" x="832" y="-262.3" font-family="Helvetica,sans-Serif" font-size="10.00">luaC_fullgc</text>
</a>
</g>
</g>
<!-- Node11&#45;&gt;Node13 -->
<g id="edge13_Node000011_Node000013" class="edge">
<title>Node11&#45;&gt;Node13</title>
<g id="a_edge13_Node000011_Node000013"><a xlink:title=" ">
<path fill="none" stroke="#63b8ff" d="M941.82,-407.87C935.18,-405.34 928.55,-402.05 923,-397.8 899.75,-380.02 854.08,-301.91 838.42,-274.42"/>
<polygon fill="#63b8ff" stroke="#63b8ff" points="940.84,-411.23 951.43,-411.05 943.04,-404.59 940.84,-411.23"/>
</a>
</g>
</g>
<!-- Node12&#45;&gt;Node4 -->
<g id="edge12_Node000012_Node000004" class="edge">
<title>Node12&#45;&gt;Node4</title>
<g id="a_edge12_Node000012_Node000004"><a xlink:title=" ">
<path fill="none" stroke="#63b8ff" d="M793.84,-374.64C776.06,-372.65 754.99,-370.29 737.93,-368.38"/>
<polygon fill="#63b8ff" stroke="#63b8ff" points="793.55,-378.13 803.88,-375.77 794.33,-371.17 793.55,-378.13"/>
</a>
</g>
</g>
<!-- Node13&#45;&gt;Node5 -->
<g id="edge36_Node000013_Node000005" class="edge">
<title>Node13&#45;&gt;Node5</title>
<g id="a_edge36_Node000013_Node000005"><a xlink:title=" ">
<path fill="none" stroke="#63b8ff" d="M798.58,-278.37C749.5,-298.91 657.53,-337.38 614.85,-355.24"/>
<polygon fill="#63b8ff" stroke="#63b8ff" points="800.21,-281.48 808.08,-274.39 797.51,-275.02 800.21,-281.48"/>
</a>
</g>
</g>
<!-- Node14 -->
<g id="Node000014" class="node">
<title>Node14</title>
<g id="a_Node000014"><a xlink:href="lstring_8c.html#af8b89b01dc2db9f0d3024067ffdb931a" target="_top" xlink:title=" ">
<polygon fill="white" stroke="#666666" points="739.5,-237.3 670.5,-237.3 670.5,-218.3 739.5,-218.3 739.5,-237.3"/>
<text text-anchor="middle" x="705" y="-225.3" font-family="Helvetica,sans-Serif" font-size="10.00">growstrtab</text>
</a>
</g>
</g>
<!-- Node13&#45;&gt;Node14 -->
<g id="edge14_Node000013_Node000014" class="edge">
<title>Node13&#45;&gt;Node14</title>
<g id="a_edge14_Node000013_Node000014"><a xlink:title=" ">
<path fill="none" stroke="#63b8ff" d="M788.89,-252.34C772.45,-247.47 753.9,-241.98 738.52,-237.43"/>
<polygon fill="#63b8ff" stroke="#63b8ff" points="788.23,-255.79 798.81,-255.28 790.21,-249.08 788.23,-255.79"/>
</a>
</g>
</g>
<!-- Node2438 -->
<g id="Node002438" class="node">
<title>Node2438</title>
<g id="a_Node002438"><a xlink:href="lmem_8c.html#abe813b00dc25458292fae7dbfc04ef3b" target="_top" xlink:title=" ">
<polygon fill="white" stroke="#666666" points="733.5,-274.3 676.5,-274.3 676.5,-255.3 733.5,-255.3 733.5,-274.3"/>
<text text-anchor="middle" x="705" y="-262.3" font-family="Helvetica,sans-Serif" font-size="10.00">tryagain</text>
</a>
</g>
</g>
<!-- Node13&#45;&gt;Node2438 -->
<g id="edge37_Node000013_Node002438" class="edge">
<title>Node13&#45;&gt;Node2438</title>
<g id="a_edge37_Node000013_Node002438"><a xlink:title=" ">
<path fill="none" stroke="#63b8ff" d="M786.11,-264.8C768.53,-264.8 748.93,-264.8 733.51,-264.8"/>
<polygon fill="#63b8ff" stroke="#63b8ff" points="786.18,-268.3 796.18,-264.8 786.18,-261.3 786.18,-268.3"/>
</a>
</g>
</g>
<!-- Node15 -->
<g id="Node000015" class="node">
<title>Node15</title>
<g id="a_Node000015"><a xlink:href="lstring_8c.html#a2891c52f2d96252102e7a0a9d8cf37fd" target="_top" xlink:title=" ">
<polygon fill="white" stroke="#666666" points="627.5,-198.3 554.5,-198.3 554.5,-179.3 627.5,-179.3 627.5,-198.3"/>
<text text-anchor="middle" x="591" y="-186.3" font-family="Helvetica,sans-Serif" font-size="10.00">internshrstr</text>
</a>
</g>
</g>
<!-- Node14&#45;&gt;Node15 -->
<g id="edge15_Node000014_Node000015" class="edge">
<title>Node14&#45;&gt;Node15</title>
<g id="a_edge15_Node000014_Node000015"><a xlink:title=" ">
<path fill="none" stroke="#63b8ff" d="M666.82,-214.86C651.37,-209.48 633.76,-203.34 619.5,-198.38"/>
<polygon fill="#63b8ff" stroke="#63b8ff" points="666.01,-218.28 676.6,-218.26 668.31,-211.67 666.01,-218.28"/>
</a>
</g>
</g>
<!-- Node16 -->
<g id="Node000016" class="node">
<title>Node16</title>
<g id="a_Node000016"><a xlink:href="lstring_8c.html#af922b364943afbe71e4da82a0c50188c" target="_top" xlink:title=" ">
<polygon fill="white" stroke="#666666" points="494.5,-160.3 415.5,-160.3 415.5,-141.3 494.5,-141.3 494.5,-160.3"/>
<text text-anchor="middle" x="455" y="-148.3" font-family="Helvetica,sans-Serif" font-size="10.00">luaS_newlstr</text>
</a>
</g>
</g>
<!-- Node15&#45;&gt;Node16 -->
<g id="edge16_Node000015_Node000016" class="edge">
<title>Node15&#45;&gt;Node16</title>
<g id="a_edge16_Node000015_Node000016"><a xlink:title=" ">
<path fill="none" stroke="#63b8ff" d="M546.56,-176.49C528.15,-171.26 507.02,-165.27 489.8,-160.39"/>
<polygon fill="#63b8ff" stroke="#63b8ff" points="545.61,-179.85 556.19,-179.21 547.52,-173.12 545.61,-179.85"/>
</a>
</g>
</g>
<!-- Node17 -->
<g id="Node000017" class="node">
<title>Node17</title>
<g id="a_Node000017"><a xlink:href="lundump_8c.html#ac0523d12e31c707fa1f626add3672fef" target="_top" xlink:title=" ">
<polygon fill="white" stroke="#666666" points="342,-235.3 268,-235.3 268,-216.3 342,-216.3 342,-235.3"/>
<text text-anchor="middle" x="305" y="-223.3" font-family="Helvetica,sans-Serif" font-size="10.00">loadStringN</text>
</a>
</g>
</g>
<!-- Node16&#45;&gt;Node17 -->
<g id="edge17_Node000016_Node000017" class="edge">
<title>Node16&#45;&gt;Node17</title>
<g id="a_edge17_Node000016_Node000017"><a xlink:title=" ">
<path fill="none" stroke="#63b8ff" d="M431.48,-166.2C413.09,-178.32 386.12,-195.06 361,-206.8 353.5,-210.31 345.16,-213.52 337.29,-216.27"/>
<polygon fill="#63b8ff" stroke="#63b8ff" points="433.64,-168.96 440.02,-160.5 429.76,-163.14 433.64,-168.96"/>
</a>
</g>
</g>
<!-- Node34 -->
<g id="Node000034" class="node">
<title>Node34</title>
<g id="a_Node000034"><a xlink:href="lapi_8c.html#a1de3afee1daece63d455f23818c883d9" target="_top" xlink:title=" ">
<polygon fill="#fff0f0" stroke="red" points="202,-84.3 133,-84.3 133,-65.3 202,-65.3 202,-84.3"/>
<text text-anchor="middle" x="167.5" y="-72.3" font-family="Helvetica,sans-Serif" font-size="10.00">lua_concat</text>
</a>
</g>
</g>
<!-- Node16&#45;&gt;Node34 -->
<g id="edge22_Node000016_Node000034" class="edge">
<title>Node16&#45;&gt;Node34</title>
<g id="a_edge22_Node000016_Node000034"><a xlink:title=" ">
<path fill="none" stroke="#63b8ff" d="M434.28,-135.02C416.31,-121.58 388.46,-103.03 361,-93.8 307.52,-75.84 241.33,-73.27 202.14,-73.63"/>
<polygon fill="#63b8ff" stroke="#63b8ff" points="432.19,-137.83 442.26,-141.14 436.46,-132.28 432.19,-137.83"/>
</a>
</g>
</g>
<!-- Node538 -->
<g id="Node000538" class="node">
<title>Node538</title>
<g id="a_Node000538"><a xlink:href="lapi_8c.html#a01ac82fa494af5e7c3e10c87a8052cf7" target="_top" xlink:title=" ">
<polygon fill="#fff0f0" stroke="red" points="213,-160.3 122,-160.3 122,-141.3 213,-141.3 213,-160.3"/>
<text text-anchor="middle" x="167.5" y="-148.3" font-family="Helvetica,sans-Serif" font-size="10.00">lua_pushlstring</text>
</a>
</g>
</g>
<!-- Node16&#45;&gt;Node538 -->
<g id="edge27_Node000016_Node000538" class="edge">
<title>Node16&#45;&gt;Node538</title>
<g id="a_edge27_Node000016_Node000538"><a xlink:title=" ">
<path fill="none" stroke="#63b8ff" d="M405.18,-150.8C351.4,-150.8 265.61,-150.8 213.43,-150.8"/>
<polygon fill="#63b8ff" stroke="#63b8ff" points="405.5,-154.3 415.5,-150.8 405.5,-147.3 405.5,-154.3"/>
</a>
</g>
</g>
<!-- Node544 -->
<g id="Node000544" class="node">
<title>Node544</title>
<g id="a_Node000544"><a xlink:href="lobject_8c.html#a53824ade5220a50d44148175f7787199" target="_top" xlink:title=" ">
<polygon fill="#fff0f0" stroke="red" points="346,-122.3 264,-122.3 264,-103.3 346,-103.3 346,-122.3"/>
<text text-anchor="middle" x="305" y="-110.3" font-family="Helvetica,sans-Serif" font-size="10.00">luaO_tostring</text>
</a>
</g>
</g>
<!-- Node16&#45;&gt;Node544 -->
<g id="edge28_Node000016_Node000544" class="edge">
<title>Node16&#45;&gt;Node544</title>
<g id="a_edge28_Node000016_Node000544"><a xlink:title=" ">
<path fill="none" stroke="#63b8ff" d="M406.83,-138.69C386.21,-133.4 362.39,-127.28 343.08,-122.32"/>
<polygon fill="#63b8ff" stroke="#63b8ff" points="406.1,-142.12 416.65,-141.21 407.84,-135.34 406.1,-142.12"/>
</a>
</g>
</g>
<!-- Node548 -->
<g id="Node000548" class="node">
<title>Node548</title>
<g id="a_Node000548"><a xlink:href="lstring_8c.html#ac9397504696e5cbc6c4cec7649c497ec" target="_top" xlink:title=" ">
<polygon fill="#fff0f0" stroke="red" points="336.5,-198.3 273.5,-198.3 273.5,-179.3 336.5,-179.3 336.5,-198.3"/>
<text text-anchor="middle" x="305" y="-186.3" font-family="Helvetica,sans-Serif" font-size="10.00">luaS_new</text>
</a>
</g>
</g>
<!-- Node16&#45;&gt;Node548 -->
<g id="edge29_Node000016_Node000548" class="edge">
<title>Node16&#45;&gt;Node548</title>
<g id="a_edge29_Node000016_Node000548"><a xlink:title=" ">
<path fill="none" stroke="#63b8ff" d="M406.79,-162.93C383.9,-168.8 357.07,-175.69 336.85,-180.88"/>
<polygon fill="#63b8ff" stroke="#63b8ff" points="407.84,-166.27 416.65,-160.39 406.1,-159.49 407.84,-166.27"/>
</a>
</g>
</g>
<!-- Node2995 -->
<g id="Node002995" class="node">
<title>Node2995</title>
<g id="a_Node002995"><a xlink:href="lvm_8c.html#a2f076040af405dcb50d661edd692eca7" target="_top" xlink:title=" ">
<polygon fill="#fff0f0" stroke="red" points="343,-46.3 267,-46.3 267,-27.3 343,-27.3 343,-46.3"/>
<text text-anchor="middle" x="305" y="-34.3" font-family="Helvetica,sans-Serif" font-size="10.00">luaV_concat</text>
</a>
</g>
</g>
<!-- Node16&#45;&gt;Node2995 -->
<g id="edge31_Node000016_Node002995" class="edge">
<title>Node16&#45;&gt;Node2995</title>
<g id="a_edge31_Node000016_Node002995"><a xlink:title=" ">
<path fill="none" stroke="#63b8ff" d="M439.47,-133.39C422.34,-113.72 392.22,-81.72 361,-60.8 352.43,-55.06 342.26,-50.17 333.02,-46.34"/>
<polygon fill="#63b8ff" stroke="#63b8ff" points="437.03,-135.92 446.19,-141.24 442.35,-131.37 437.03,-135.92"/>
</a>
</g>
</g>
<!-- Node3001 -->
<g id="Node003001" class="node">
<title>Node3001</title>
<g id="a_Node003001"><a xlink:href="lobject_8c.html#a90720e7e38c0e352e9b97d3f8def9e1a" target="_top" xlink:title=" ">
<polygon fill="#fff0f0" stroke="red" points="194,-27.3 141,-27.3 141,-8.3 194,-8.3 194,-27.3"/>
<text text-anchor="middle" x="167.5" y="-15.3" font-family="Helvetica,sans-Serif" font-size="10.00">pushstr</text>
</a>
</g>
</g>
<!-- Node16&#45;&gt;Node3001 -->
<g id="edge35_Node000016_Node003001" class="edge">
<title>Node16&#45;&gt;Node3001</title>
<g id="a_edge35_Node000016_Node003001"><a xlink:title=" ">
<path fill="none" stroke="#63b8ff" d="M447.21,-131.43C435.26,-100.73 407.27,-41.91 361,-17.8 307.21,10.22 232.93,-1.49 194.25,-10.68"/>
<polygon fill="#63b8ff" stroke="#63b8ff" points="444,-132.86 450.77,-141.01 450.57,-130.42 444,-132.86"/>
</a>
</g>
</g>
<!-- Node2954 -->
<g id="Node002954" class="node">
<title>Node2954</title>
<g id="a_Node002954"><a xlink:href="llex_8c.html#a51ec8735f32a452d48a77e71e9dd0a3b" target="_top" xlink:title=" ">
<polygon fill="#fff0f0" stroke="red" points="351,-272.3 259,-272.3 259,-253.3 351,-253.3 351,-272.3"/>
<text text-anchor="middle" x="305" y="-260.3" font-family="Helvetica,sans-Serif" font-size="10.00">luaX_newstring</text>
</a>
</g>
</g>
<!-- Node16&#45;&gt;Node2954 -->
<g id="edge34_Node000016_Node002954" class="edge">
<title>Node16&#45;&gt;Node2954</title>
<g id="a_edge34_Node000016_Node002954"><a xlink:title=" ">
<path fill="none" stroke="#63b8ff" d="M440.63,-168.36C424.03,-189.06 393.86,-223.25 361,-243.8 355,-247.55 348.18,-250.67 341.42,-253.23"/>
<polygon fill="#63b8ff" stroke="#63b8ff" points="443.47,-170.42 446.89,-160.39 437.96,-166.1 443.47,-170.42"/>
</a>
</g>
</g>
<!-- Node18 -->
<g id="Node000018" class="node">
<title>Node18</title>
<g id="a_Node000018"><a xlink:href="lundump_8c.html#a121ddfe27d3762c4b5ed14bd3746af7a" target="_top" xlink:title=" ">
<polygon fill="white" stroke="#666666" points="202,-273.3 133,-273.3 133,-254.3 202,-254.3 202,-273.3"/>
<text text-anchor="middle" x="167.5" y="-261.3" font-family="Helvetica,sans-Serif" font-size="10.00">loadDebug</text>
</a>
</g>
</g>
<!-- Node17&#45;&gt;Node18 -->
<g id="edge18_Node000017_Node000018" class="edge">
<title>Node17&#45;&gt;Node18</title>
<g id="a_edge18_Node000017_Node000018"><a xlink:title=" ">
<path fill="none" stroke="#63b8ff" d="M260,-238.14C241.23,-243.41 219.68,-249.45 202.21,-254.35"/>
<polygon fill="#63b8ff" stroke="#63b8ff" points="261.12,-241.46 269.81,-235.39 259.23,-234.72 261.12,-241.46"/>
</a>
</g>
</g>
<!-- Node19 -->
<g id="Node000019" class="node">
<title>Node19</title>
<g id="a_Node000019"><a xlink:href="lundump_8c.html#a894435708ede05d12c7e81033dae380f" target="_top" xlink:title=" ">
<polygon fill="#fff0f0" stroke="red" points="82.5,-254.3 3.5,-254.3 3.5,-235.3 82.5,-235.3 82.5,-254.3"/>
<text text-anchor="middle" x="43" y="-242.3" font-family="Helvetica,sans-Serif" font-size="10.00">loadFunction</text>
</a>
</g>
</g>
<!-- Node17&#45;&gt;Node19 -->
<g id="edge20_Node000017_Node000019" class="edge">
<title>Node17&#45;&gt;Node19</title>
<g id="a_edge20_Node000017_Node000019"><a xlink:title=" ">
<path fill="none" stroke="#63b8ff" d="M257.67,-229.19C207.85,-232.83 129.51,-238.55 82.81,-241.97"/>
<polygon fill="#63b8ff" stroke="#63b8ff" points="258.13,-232.67 267.85,-228.45 257.62,-225.68 258.13,-232.67"/>
</a>
</g>
</g>
<!-- Node32 -->
<g id="Node000032" class="node">
<title>Node32</title>
<g id="a_Node000032"><a xlink:href="lundump_8c.html#a883618a9a2104461096fb633c7df2f33" target="_top" xlink:title=" ">
<polygon fill="#fff0f0" stroke="red" points="200.5,-197.3 134.5,-197.3 134.5,-178.3 200.5,-178.3 200.5,-197.3"/>
<text text-anchor="middle" x="167.5" y="-185.3" font-family="Helvetica,sans-Serif" font-size="10.00">loadString</text>
</a>
</g>
</g>
<!-- Node17&#45;&gt;Node32 -->
<g id="edge21_Node000017_Node000032" class="edge">
<title>Node17&#45;&gt;Node32</title>
<g id="a_edge21_Node000017_Node000032"><a xlink:title=" ">
<path fill="none" stroke="#63b8ff" d="M260.03,-213.47C240.76,-208.07 218.54,-201.84 200.82,-196.87"/>
<polygon fill="#63b8ff" stroke="#63b8ff" points="259.23,-216.88 269.81,-216.21 261.12,-210.14 259.23,-216.88"/>
</a>
</g>
</g>
<!-- Node18&#45;&gt;Node19 -->
<g id="edge19_Node000018_Node000019" class="edge">
<title>Node18&#45;&gt;Node19</title>
<g id="a_edge19_Node000018_Node000019"><a xlink:title=" ">
<path fill="none" stroke="#63b8ff" d="M122.59,-256.99C109.62,-254.98 95.51,-252.79 82.88,-250.83"/>
<polygon fill="#63b8ff" stroke="#63b8ff" points="122.28,-260.49 132.7,-258.56 123.36,-253.57 122.28,-260.49"/>
</a>
</g>
</g>
<!-- Node35 -->
<g id="Node000035" class="node">
<title>Node35</title>
<g id="a_Node000035"><a xlink:href="lauxlib_8c.html#a36c8f149b779f8c9a5c042ea9784d80a" target="_top" xlink:title=" ">
<polygon fill="#fff0f0" stroke="red" points="71,-29.3 15,-29.3 15,-10.3 71,-10.3 71,-29.3"/>
<text text-anchor="middle" x="43" y="-17.3" font-family="Helvetica,sans-Serif" font-size="10.00">findfield</text>
</a>
</g>
</g>
<!-- Node34&#45;&gt;Node35 -->
<g id="edge23_Node000034_Node000035" class="edge">
<title>Node34&#45;&gt;Node35</title>
<g id="a_edge23_Node000034_Node000035"><a xlink:title=" ">
<path fill="none" stroke="#63b8ff" d="M135.95,-61.09C114.02,-51.24 85.02,-38.22 65.5,-29.46"/>
<polygon fill="#63b8ff" stroke="#63b8ff" points="134.61,-64.32 145.16,-65.22 137.47,-57.93 134.61,-64.32"/>
</a>
</g>
</g>
<!-- Node390 -->
<g id="Node000390" class="node">
<title>Node390</title>
<g id="a_Node000390"><a xlink:href="lcorolib_8c.html#a777abb20385a69ce4787f72bd90375a7" target="_top" xlink:title=" ">
<polygon fill="#fff0f0" stroke="red" points="86,-121.3 0,-121.3 0,-102.3 86,-102.3 86,-121.3"/>
<text text-anchor="middle" x="43" y="-109.3" font-family="Helvetica,sans-Serif" font-size="10.00">luaB_auxwrap</text>
</a>
</g>
</g>
<!-- Node34&#45;&gt;Node390 -->
<g id="edge25_Node000034_Node000390" class="edge">
<title>Node34&#45;&gt;Node390</title>
<g id="a_edge25_Node000034_Node000390"><a xlink:title=" ">
<path fill="none" stroke="#63b8ff" d="M125.24,-87.27C109.12,-92.13 90.94,-97.63 75.87,-102.18"/>
<polygon fill="#63b8ff" stroke="#63b8ff" points="126.39,-90.57 134.95,-84.33 124.37,-83.87 126.39,-90.57"/>
</a>
</g>
</g>
<!-- Node182 -->
<g id="Node000182" class="node">
<title>Node182</title>
<g id="a_Node000182"><a xlink:href="lbaselib_8c.html#a2ecfa987569d0b4c1063f3e204e42dd2" target="_top" xlink:title=" ">
<polygon fill="#fff0f0" stroke="red" points="76.5,-84.3 9.5,-84.3 9.5,-65.3 76.5,-65.3 76.5,-84.3"/>
<text text-anchor="middle" x="43" y="-72.3" font-family="Helvetica,sans-Serif" font-size="10.00">luaB_error</text>
</a>
</g>
</g>
<!-- Node34&#45;&gt;Node182 -->
<g id="edge26_Node000034_Node000182" class="edge">
<title>Node34&#45;&gt;Node182</title>
<g id="a_edge26_Node000034_Node000182"><a xlink:title=" ">
<path fill="none" stroke="#63b8ff" d="M122.56,-74.8C107.48,-74.8 90.88,-74.8 76.84,-74.8"/>
<polygon fill="#63b8ff" stroke="#63b8ff" points="122.7,-78.3 132.7,-74.8 122.7,-71.3 122.7,-78.3"/>
</a>
</g>
</g>
<!-- Node35&#45;&gt;Node35 -->
<g id="edge24_Node000035_Node000035" class="edge">
<title>Node35&#45;&gt;Node35</title>
<g id="a_edge24_Node000035_Node000035"><a xlink:title=" ">
<path fill="none" stroke="#63b8ff" d="M65.96,-38.86C64.43,-43.68 56.77,-47.3 43,-47.3 20.96,-47.3 14.59,-38.04 23.89,-29.39"/>
<polygon fill="#63b8ff" stroke="#63b8ff" points="69.12,-37.33 62.11,-29.39 62.64,-39.97 69.12,-37.33"/>
</a>
</g>
</g>
<!-- Node548&#45;&gt;Node538 -->
<g id="edge30_Node000548_Node000538" class="edge">
<title>Node548&#45;&gt;Node538</title>
<g id="a_edge30_Node000548_Node000538"><a xlink:title=" ">
<path fill="none" stroke="#63b8ff" d="M263.45,-177.43C244,-171.98 220.97,-165.52 202.45,-160.33"/>
<polygon fill="#63b8ff" stroke="#63b8ff" points="262.68,-180.85 273.25,-180.18 264.57,-174.11 262.68,-180.85"/>
</a>
</g>
</g>
<!-- Node2995&#45;&gt;Node34 -->
<g id="edge32_Node002995_Node000034" class="edge">
<title>Node2995&#45;&gt;Node34</title>
<g id="a_edge32_Node002995_Node000034"><a xlink:title=" ">
<path fill="none" stroke="#63b8ff" d="M260,-49.14C241.23,-54.41 219.68,-60.45 202.21,-65.35"/>
<polygon fill="#63b8ff" stroke="#63b8ff" points="261.12,-52.46 269.81,-46.39 259.23,-45.72 261.12,-52.46"/>
</a>
</g>
</g>
<!-- Node2995&#45;&gt;Node3001 -->
<g id="edge33_Node002995_Node003001" class="edge">
<title>Node2995&#45;&gt;Node3001</title>
<g id="a_edge33_Node002995_Node003001"><a xlink:title=" ">
<path fill="none" stroke="#63b8ff" d="M256.94,-30.2C235.93,-27.26 212,-23.9 194.33,-21.43"/>
<polygon fill="#63b8ff" stroke="#63b8ff" points="256.58,-33.69 266.97,-31.61 257.56,-26.76 256.58,-33.69"/>
</a>
</g>
</g>
<!-- Node2439 -->
<g id="Node002439" class="node">
<title>Node2439</title>
<g id="a_Node002439"><a xlink:href="lmem_8c.html#af0c92d038f767832eb8dd29eb0678096" target="_top" xlink:title=" ">
<polygon fill="white" stroke="#666666" points="633,-272.3 549,-272.3 549,-253.3 633,-253.3 633,-272.3"/>
<text text-anchor="middle" x="591" y="-260.3" font-family="Helvetica,sans-Serif" font-size="10.00">luaM_malloc_</text>
</a>
</g>
</g>
<!-- Node2438&#45;&gt;Node2439 -->
<g id="edge38_Node002438_Node002439" class="edge">
<title>Node2438&#45;&gt;Node2439</title>
<g id="a_edge38_Node002438_Node002439"><a xlink:title=" ">
<path fill="none" stroke="#63b8ff" d="M666.15,-264.13C655.6,-263.94 644.08,-263.73 633.34,-263.54"/>
<polygon fill="#63b8ff" stroke="#63b8ff" points="666.25,-267.63 676.31,-264.31 666.38,-260.63 666.25,-267.63"/>
</a>
</g>
</g>
<!-- Node2250 -->
<g id="Node002250" class="node">
<title>Node2250</title>
<g id="a_Node002250"><a xlink:href="lmem_8c.html#a7dd4e9ddf6987797216fa9cf4bc23954" target="_top" xlink:title=" ">
<polygon fill="white" stroke="#666666" points="633,-309.3 549,-309.3 549,-290.3 633,-290.3 633,-309.3"/>
<text text-anchor="middle" x="591" y="-297.3" font-family="Helvetica,sans-Serif" font-size="10.00">luaM_realloc_</text>
</a>
</g>
</g>
<!-- Node2438&#45;&gt;Node2250 -->
<g id="edge39_Node002438_Node002250" class="edge">
<title>Node2438&#45;&gt;Node2250</title>
<g id="a_edge39_Node002438_Node002250"><a xlink:title=" ">
<path fill="none" stroke="#63b8ff" d="M666.73,-276.45C652.37,-280.94 636.16,-286 622.52,-290.27"/>
<polygon fill="#63b8ff" stroke="#63b8ff" points="667.81,-279.78 676.31,-273.46 665.73,-273.1 667.81,-279.78"/>
</a>
</g>
</g>
<!-- Node2251 -->
<g id="Node002251" class="node">
<title>Node2251</title>
<g id="a_Node002251"><a xlink:href="lmem_8c.html#a8cb94bca57e8ae6aff344d3e6e4593af" target="_top" xlink:title=" ">
<polygon fill="white" stroke="#666666" points="507.5,-309.3 402.5,-309.3 402.5,-290.3 507.5,-290.3 507.5,-309.3"/>
<text text-anchor="middle" x="455" y="-297.3" font-family="Helvetica,sans-Serif" font-size="10.00">luaM_saferealloc_</text>
</a>
</g>
</g>
<!-- Node2250&#45;&gt;Node2251 -->
<g id="edge40_Node002250_Node002251" class="edge">
<title>Node2250&#45;&gt;Node2251</title>
<g id="a_edge40_Node002250_Node002251"><a xlink:title=" ">
<path fill="none" stroke="#63b8ff" d="M538.45,-299.8C528.4,-299.8 517.87,-299.8 507.81,-299.8"/>
<polygon fill="#63b8ff" stroke="#63b8ff" points="538.7,-303.3 548.7,-299.8 538.7,-296.3 538.7,-303.3"/>
</a>
</g>
</g>
<!-- Node2249 -->
<g id="Node002249" class="node">
<title>Node2249</title>
<g id="a_Node002249"><a xlink:href="lmem_8c.html#a1c0358fd91c39b2040eebb75ed4c14e5" target="_top" xlink:title=" ">
<polygon fill="white" stroke="#666666" points="351.5,-309.3 258.5,-309.3 258.5,-290.3 351.5,-290.3 351.5,-309.3"/>
<text text-anchor="middle" x="305" y="-297.3" font-family="Helvetica,sans-Serif" font-size="10.00">luaM_growaux_</text>
</a>
</g>
</g>
<!-- Node2251&#45;&gt;Node2249 -->
<g id="edge41_Node002251_Node002249" class="edge">
<title>Node2251&#45;&gt;Node2249</title>
<g id="a_edge41_Node002251_Node002249"><a xlink:title=" ">
<path fill="none" stroke="#63b8ff" d="M392.01,-299.8C378.45,-299.8 364.34,-299.8 351.57,-299.8"/>
<polygon fill="#63b8ff" stroke="#63b8ff" points="392.24,-303.3 402.24,-299.8 392.24,-296.3 392.24,-303.3"/>
</a>
</g>
</g>
<!-- Node2252 -->
<g id="Node002252" class="node">
<title>Node2252</title>
<g id="a_Node002252"><a xlink:href="lmem_8c.html#a7fe3cdb7f4720a11dc0054167d2be20b" target="_top" xlink:title=" ">
<polygon fill="white" stroke="#666666" points="361,-346.3 249,-346.3 249,-327.3 361,-327.3 361,-346.3"/>
<text text-anchor="middle" x="305" y="-334.3" font-family="Helvetica,sans-Serif" font-size="10.00">luaM_shrinkvector_</text>
</a>
</g>
</g>
<!-- Node2251&#45;&gt;Node2252 -->
<g id="edge42_Node002251_Node002252" class="edge">
<title>Node2251&#45;&gt;Node2252</title>
<g id="a_edge42_Node002251_Node002252"><a xlink:title=" ">
<path fill="none" stroke="#63b8ff" d="M406.03,-311.8C386.01,-316.8 363.09,-322.53 344.24,-327.24"/>
<polygon fill="#63b8ff" stroke="#63b8ff" points="407.03,-315.15 415.89,-309.33 405.34,-308.36 407.03,-315.15"/>
</a>
</g>
</g>
<!-- Node3043&#45;&gt;Node5 -->
<g id="edge44_Node003043_Node000005" class="edge">
<title>Node3043&#45;&gt;Node5</title>
<g id="a_edge44_Node003043_Node000005"><a xlink:title=" ">
<path fill="none" stroke="#63b8ff" d="M921.96,-441.1C860.73,-427.63 757.5,-404.68 669,-383.8 650.91,-379.54 630.48,-374.49 615.22,-370.66"/>
<polygon fill="#63b8ff" stroke="#63b8ff" points="921.27,-444.53 931.78,-443.26 922.77,-437.69 921.27,-444.53"/>
</a>
</g>
</g>
<!-- Node2479 -->
<g id="Node002479" class="node">
<title>Node2479</title>
<g id="a_Node002479"><a xlink:href="lgc_8c.html#abad938b33f011ec1088d1a79508c6ac9" target="_top" xlink:title=" ">
<polygon fill="white" stroke="#666666" points="887,-489.3 777,-489.3 777,-470.3 887,-470.3 887,-489.3"/>
<text text-anchor="middle" x="832" y="-477.3" font-family="Helvetica,sans-Serif" font-size="10.00">luaC_freeallobjects</text>
</a>
</g>
</g>
<!-- Node3043&#45;&gt;Node2479 -->
<g id="edge45_Node003043_Node002479" class="edge">
<title>Node3043&#45;&gt;Node2479</title>
<g id="a_edge45_Node003043_Node002479"><a xlink:title=" ">
<path fill="none" stroke="#63b8ff" d="M915.2,-464.23C904.56,-466.25 893.59,-468.32 883.27,-470.28"/>
<polygon fill="#63b8ff" stroke="#63b8ff" points="916.09,-467.62 925.26,-462.32 914.78,-460.75 916.09,-467.62"/>
</a>
</g>
</g>
<!-- Node2469 -->
<g id="Node002469" class="node">
<title>Node2469</title>
<g id="a_Node002469"><a xlink:href="lstate_8c.html#a4940327dfa3b86df0ef008180bb3fcb3" target="_top" xlink:title=" ">
<polygon fill="white" stroke="#666666" points="741,-492.3 669,-492.3 669,-473.3 741,-473.3 741,-492.3"/>
<text text-anchor="middle" x="705" y="-480.3" font-family="Helvetica,sans-Serif" font-size="10.00">close_state</text>
</a>
</g>
</g>
<!-- Node2479&#45;&gt;Node2469 -->
<g id="edge46_Node002479_Node002469" class="edge">
<title>Node2479&#45;&gt;Node2469</title>
<g id="a_edge46_Node002479_Node002469"><a xlink:title=" ">
<path fill="none" stroke="#63b8ff" d="M766.88,-481.34C757.99,-481.56 749.15,-481.77 741.06,-481.96"/>
<polygon fill="#63b8ff" stroke="#63b8ff" points="766.99,-484.84 776.9,-481.1 766.82,-477.84 766.99,-484.84"/>
</a>
</g>
</g>
<!-- Node2470 -->
<g id="Node002470" class="node">
<title>Node2470</title>
<g id="a_Node002470"><a xlink:href="lstate_8c.html#a5d903983f1497b2fc58fba9df09e354d" target="_top" xlink:title=" ">
<polygon fill="white" stroke="#666666" points="622,-492.3 560,-492.3 560,-473.3 622,-473.3 622,-492.3"/>
<text text-anchor="middle" x="591" y="-480.3" font-family="Helvetica,sans-Serif" font-size="10.00">lua_close</text>
</a>
</g>
</g>
<!-- Node2469&#45;&gt;Node2470 -->
<g id="edge47_Node002469_Node002470" class="edge">
<title>Node2469&#45;&gt;Node2470</title>
<g id="a_edge47_Node002469_Node002470"><a xlink:title=" ">
<path fill="none" stroke="#63b8ff" d="M658.74,-482.8C646.41,-482.8 633.36,-482.8 622.1,-482.8"/>
<polygon fill="#63b8ff" stroke="#63b8ff" points="658.87,-486.3 668.87,-482.8 658.87,-479.3 658.87,-486.3"/>
</a>
</g>
</g>
<!-- Node617 -->
<g id="Node000617" class="node">
<title>Node617</title>
<g id="a_Node000617"><a xlink:href="lstate_8c.html#a02f761396ac35439932f4f0a7ff90b31" target="_top" xlink:title=" ">
<polygon fill="white" stroke="#666666" points="632,-571.3 550,-571.3 550,-552.3 632,-552.3 632,-571.3"/>
<text text-anchor="middle" x="591" y="-559.3" font-family="Helvetica,sans-Serif" font-size="10.00">lua_newstate</text>
</a>
</g>
</g>
<!-- Node2469&#45;&gt;Node617 -->
<g id="edge53_Node002469_Node000617" class="edge">
<title>Node2469&#45;&gt;Node617</title>
<g id="a_edge53_Node002469_Node000617"><a xlink:title=" ">
<path fill="none" stroke="#63b8ff" d="M681.91,-498.39C659.16,-514.43 624.45,-538.92 605.5,-552.28"/>
<polygon fill="#63b8ff" stroke="#63b8ff" points="684.11,-501.11 690.27,-492.49 680.08,-495.39 684.11,-501.11"/>
</a>
</g>
</g>
<!-- Node2470&#45;&gt;Node8 -->
<g id="edge48_Node002470_Node000008" class="edge">
<title>Node2470&#45;&gt;Node8</title>
<g id="a_edge48_Node002470_Node000008"><a xlink:title=" ">
<path fill="none" stroke="#63b8ff" d="M571.11,-466.44C556.34,-454.64 534.73,-439.51 513,-431.8 447.32,-408.52 363.02,-408.98 325.51,-410.61"/>
<polygon fill="#63b8ff" stroke="#63b8ff" points="569.02,-469.25 578.97,-472.91 573.48,-463.85 569.02,-469.25"/>
</a>
</g>
</g>
<!-- Node27 -->
<g id="Node000027" class="node">
<title>Node27</title>
<g id="a_Node000027"><a xlink:href="luac_8c.html#a0ddf1224851353fc92bfbff6f499fa97" target="_top" xlink:title=" ">
<polygon fill="white" stroke="#666666" points="325.5,-571.3 284.5,-571.3 284.5,-552.3 325.5,-552.3 325.5,-571.3"/>
<text text-anchor="middle" x="305" y="-559.3" font-family="Helvetica,sans-Serif" font-size="10.00">main</text>
</a>
</g>
</g>
<!-- Node2470&#45;&gt;Node27 -->
<g id="edge49_Node002470_Node000027" class="edge">
<title>Node2470&#45;&gt;Node27</title>
<g id="a_edge49_Node002470_Node000027"><a xlink:title=" ">
<path fill="none" stroke="#63b8ff" d="M574.03,-499.81C559.57,-513.98 536.93,-533.33 513,-542.8 448.23,-568.43 363.47,-566.21 325.67,-563.57"/>
<polygon fill="#63b8ff" stroke="#63b8ff" points="576.64,-502.14 581.17,-492.56 571.66,-497.22 576.64,-502.14"/>
</a>
</g>
</g>
<!-- Node185 -->
<g id="Node000185" class="node">
<title>Node185</title>
<g id="a_Node000185"><a xlink:href="loslib_8c.html#a905e81425fe3d6d0b363c10162a2a37b" target="_top" xlink:title=" ">
<polygon fill="white" stroke="#666666" points="481,-496.3 429,-496.3 429,-477.3 481,-477.3 481,-496.3"/>
<text text-anchor="middle" x="455" y="-484.3" font-family="Helvetica,sans-Serif" font-size="10.00">os_exit</text>
</a>
</g>
</g>
<!-- Node2470&#45;&gt;Node185 -->
<g id="edge50_Node002470_Node000185" class="edge">
<title>Node2470&#45;&gt;Node185</title>
<g id="a_edge50_Node002470_Node000185"><a xlink:title=" ">
<path fill="none" stroke="#63b8ff" d="M549.72,-484.01C527.39,-484.67 500.32,-485.48 481.03,-486.06"/>
<polygon fill="#63b8ff" stroke="#63b8ff" points="550.04,-487.5 559.93,-483.7 549.83,-480.5 550.04,-487.5"/>
</a>
</g>
</g>
<!-- Node2471 -->
<g id="Node002471" class="node">
<title>Node2471</title>
<g id="a_Node002471"><a xlink:href="classLuaEngine.html#aefa229dbec22a45daf7008b07024d783" target="_top" xlink:title=" ">
<polygon fill="white" stroke="#666666" points="508.5,-459.3 401.5,-459.3 401.5,-440.3 508.5,-440.3 508.5,-459.3"/>
<text text-anchor="middle" x="455" y="-447.3" font-family="Helvetica,sans-Serif" font-size="10.00">LuaEngine::Unload</text>
</a>
</g>
</g>
<!-- Node2470&#45;&gt;Node2471 -->
<g id="edge51_Node002470_Node002471" class="edge">
<title>Node2470&#45;&gt;Node2471</title>
<g id="a_edge51_Node002470_Node002471"><a xlink:title=" ">
<path fill="none" stroke="#63b8ff" d="M550,-472.95C532.48,-468.64 512,-463.59 494.64,-459.32"/>
<polygon fill="#63b8ff" stroke="#63b8ff" points="549.38,-476.41 559.93,-475.4 551.05,-469.61 549.38,-476.41"/>
</a>
</g>
</g>
<!-- Node80 -->
<g id="Node000080" class="node">
<title>Node80</title>
<g id="a_Node000080"><a xlink:href="classLuaEngine.html#ada57d3a2c7151a66504d98a501a93936" target="_top" xlink:title=" ">
<polygon fill="white" stroke="#666666" points="359,-478.3 251,-478.3 251,-459.3 359,-459.3 359,-478.3"/>
<text text-anchor="middle" x="305" y="-466.3" font-family="Helvetica,sans-Serif" font-size="10.00">LuaEngine::Restart</text>
</a>
</g>
</g>
<!-- Node2471&#45;&gt;Node80 -->
<g id="edge52_Node002471_Node000080" class="edge">
<title>Node2471&#45;&gt;Node80</title>
<g id="a_edge52_Node002471_Node000080"><a xlink:title=" ">
<path fill="none" stroke="#63b8ff" d="M391.35,-457.85C380.72,-459.21 369.78,-460.62 359.42,-461.95"/>
<polygon fill="#63b8ff" stroke="#63b8ff" points="391.93,-461.3 401.4,-456.56 391.04,-454.36 391.93,-461.3"/>
</a>
</g>
</g>
<!-- Node618 -->
<g id="Node000618" class="node">
<title>Node618</title>
<g id="a_Node000618"><a xlink:href="lstate_8c.html#a2fb9ffd0e5e6ea178123879892e87681" target="_top" xlink:title=" ">
<polygon fill="white" stroke="#666666" points="500,-609.3 410,-609.3 410,-590.3 500,-590.3 500,-609.3"/>
<text text-anchor="middle" x="455" y="-597.3" font-family="Helvetica,sans-Serif" font-size="10.00">luai_makeseed</text>
</a>
</g>
</g>
<!-- Node617&#45;&gt;Node618 -->
<g id="edge54_Node000617_Node000618" class="edge">
<title>Node617&#45;&gt;Node618</title>
<g id="a_edge54_Node000617_Node000618"><a xlink:title=" ">
<path fill="none" stroke="#63b8ff" d="M539.94,-569.45C516.44,-575.56 489.96,-583.69 473.14,-590.25"/>
<polygon fill="#63b8ff" stroke="#63b8ff" points="540.96,-572.8 549.8,-566.96 539.24,-566.01 540.96,-572.8"/>
</a>
</g>
</g>
<!-- Node619 -->
<g id="Node000619" class="node">
<title>Node619</title>
<g id="a_Node000619"><a xlink:href="lauxlib_8c.html#abe0d4e1d9eb077cdeca0f58e80174f89" target="_top" xlink:title=" ">
<polygon fill="white" stroke="#666666" points="498.5,-533.3 411.5,-533.3 411.5,-514.3 498.5,-514.3 498.5,-533.3"/>
<text text-anchor="middle" x="455" y="-521.3" font-family="Helvetica,sans-Serif" font-size="10.00">luaL_newstate</text>
</a>
</g>
</g>
<!-- Node617&#45;&gt;Node619 -->
<g id="edge56_Node000617_Node000619" class="edge">
<title>Node617&#45;&gt;Node619</title>
<g id="a_edge56_Node000617_Node000619"><a xlink:title=" ">
<path fill="none" stroke="#63b8ff" d="M546.56,-549.49C528.15,-544.26 507.02,-538.27 489.8,-533.39"/>
<polygon fill="#63b8ff" stroke="#63b8ff" points="545.61,-552.85 556.19,-552.21 547.52,-546.12 545.61,-552.85"/>
</a>
</g>
</g>
<!-- Node618&#45;&gt;Node617 -->
<g id="edge55_Node000618_Node000617" class="edge">
<title>Node618&#45;&gt;Node617</title>
<g id="a_edge55_Node000618_Node000617"><a xlink:title=" ">
<path fill="none" stroke="#63b8ff" d="M510.02,-591.12C532.43,-585.16 556.87,-577.59 572.76,-571.4"/>
<polygon fill="#63b8ff" stroke="#63b8ff" points="509.03,-587.76 500.23,-593.65 510.79,-594.54 509.03,-587.76"/>
</a>
</g>
</g>
<!-- Node619&#45;&gt;Node8 -->
<g id="edge57_Node000619_Node000008" class="edge">
<title>Node619&#45;&gt;Node8</title>
<g id="a_edge57_Node000619_Node000008"><a xlink:title=" ">
<path fill="none" stroke="#63b8ff" d="M402.73,-509.63C400.74,-508.45 398.81,-507.18 397,-505.8 373.72,-488.16 381.27,-471.84 361,-450.8 349.79,-439.17 334.69,-428.75 323.14,-421.61"/>
<polygon fill="#63b8ff" stroke="#63b8ff" points="401.37,-512.86 411.88,-514.19 404.5,-506.59 401.37,-512.86"/>
</a>
</g>
</g>
<!-- Node619&#45;&gt;Node27 -->
<g id="edge58_Node000619_Node000027" class="edge">
<title>Node619&#45;&gt;Node27</title>
<g id="a_edge58_Node000619_Node000027"><a xlink:title=" ">
<path fill="none" stroke="#63b8ff" d="M406.83,-535.91C379.38,-542.96 346.23,-551.48 325.62,-556.77"/>
<polygon fill="#63b8ff" stroke="#63b8ff" points="407.84,-539.27 416.65,-533.39 406.1,-532.49 407.84,-539.27"/>
</a>
</g>
</g>
<!-- Node619&#45;&gt;Node80 -->
<g id="edge59_Node000619_Node000080" class="edge">
<title>Node619&#45;&gt;Node80</title>
<g id="a_edge59_Node000619_Node000080"><a xlink:title=" ">
<path fill="none" stroke="#63b8ff" d="M412.33,-511.07C407.15,-509.36 401.94,-507.58 397,-505.8 373.26,-497.24 346.55,-486.21 328.24,-478.43"/>
<polygon fill="#63b8ff" stroke="#63b8ff" points="411.6,-514.51 422.19,-514.26 413.75,-507.85 411.6,-514.51"/>
</a>
</g>
</g>
<!-- Node81 -->
<g id="Node000081" class="node">
<title>Node81</title>
<g id="a_Node000081"><a xlink:href="classLuaEngine.html#a6f79945220aaf6367d405034f1bb8705" target="_top" xlink:title=" ">
<polygon fill="white" stroke="#666666" points="359,-533.3 251,-533.3 251,-514.3 359,-514.3 359,-533.3"/>
<text text-anchor="middle" x="305" y="-521.3" font-family="Helvetica,sans-Serif" font-size="10.00">LuaEngine::Startup</text>
</a>
</g>
</g>
<!-- Node619&#45;&gt;Node81 -->
<g id="edge60_Node000619_Node000081" class="edge">
<title>Node619&#45;&gt;Node81</title>
<g id="a_edge60_Node000619_Node000081"><a xlink:title=" ">
<path fill="none" stroke="#63b8ff" d="M401.04,-523.8C387.45,-523.8 372.84,-523.8 359.24,-523.8"/>
<polygon fill="#63b8ff" stroke="#63b8ff" points="401.19,-527.3 411.19,-523.8 401.19,-520.3 401.19,-527.3"/>
</a>
</g>
</g>
<!-- Node3044&#45;&gt;Node13 -->
<g id="edge62_Node003044_Node000013" class="edge">
<title>Node3044&#45;&gt;Node13</title>
<g id="a_edge62_Node003044_Node000013"><a xlink:title=" ">
<path fill="none" stroke="#63b8ff" d="M1062.52,-331.38C1012.36,-316.83 916.56,-289.04 866.05,-274.39"/>
<polygon fill="#63b8ff" stroke="#63b8ff" points="1061.63,-334.77 1072.21,-334.19 1063.58,-328.04 1061.63,-334.77"/>
</a>
</g>
</g>
<!-- Node2477&#45;&gt;Node12 -->
<g id="edge64_Node002477_Node000012" class="edge">
<title>Node2477&#45;&gt;Node12</title>
<g id="a_edge64_Node002477_Node000012"><a xlink:title=" ">
<path fill="none" stroke="#63b8ff" d="M930.41,-378.8C907.41,-378.8 880.18,-378.8 860.37,-378.8"/>
<polygon fill="#63b8ff" stroke="#63b8ff" points="930.64,-382.3 940.64,-378.8 930.64,-375.3 930.64,-382.3"/>
</a>
</g>
</g>
</g>
</svg>
