<?xml version="1.0" encoding="UTF-8" standalone="no"?>
<!DOCTYPE svg PUBLIC "-//W3C//DTD SVG 1.1//EN"
 "http://www.w3.org/Graphics/SVG/1.1/DTD/svg11.dtd">
<!-- Generated by graphviz version 2.43.0 (0)
 -->
<!-- Title: fullgen Pages: 1 -->
<svg width="1095pt" height="654pt"
 viewBox="0.00 0.00 1095.00 654.00" xmlns="http://www.w3.org/2000/svg" xmlns:xlink="http://www.w3.org/1999/xlink">
<g id="graph0" class="graph" transform="scale(1 1) rotate(0) translate(4 650)">
<title>fullgen</title>
<!-- Node1 -->
<g id="Node000001" class="node">
<title>Node1</title>
<g id="a_Node000001"><a xlink:title=" ">
<polygon fill="#999999" stroke="#666666" points="1087,-438 1037,-438 1037,-419 1087,-419 1087,-438"/>
<text text-anchor="middle" x="1062" y="-426" font-family="Helvetica,sans-Serif" font-size="10.00">fullgen</text>
</a>
</g>
</g>
<!-- Node2 -->
<g id="Node000002" class="node">
<title>Node2</title>
<g id="a_Node000002"><a xlink:href="lgc_8c.html#a3035567259cf4d2269426622ccc0d022" target="_top" xlink:title=" ">
<polygon fill="white" stroke="#666666" points="993.5,-467 937.5,-467 937.5,-448 993.5,-448 993.5,-467"/>
<text text-anchor="middle" x="965.5" y="-455" font-family="Helvetica,sans-Serif" font-size="10.00">genstep</text>
</a>
</g>
</g>
<!-- Node1&#45;&gt;Node2 -->
<g id="edge1_Node000001_Node000002" class="edge">
<title>Node1&#45;&gt;Node2</title>
<g id="a_edge1_Node000001_Node000002"><a xlink:title=" ">
<path fill="none" stroke="#63b8ff" d="M1027,-438.93C1016.08,-442.29 1004.13,-445.95 993.75,-449.14"/>
<polygon fill="#63b8ff" stroke="#63b8ff" points="1028.13,-442.25 1036.66,-435.97 1026.08,-435.56 1028.13,-442.25"/>
</a>
</g>
</g>
<!-- Node8 -->
<g id="Node000008" class="node">
<title>Node8</title>
<g id="a_Node000008"><a xlink:href="lgc_8c.html#ac48130e5263ad8be09a9c51dae6125b9" target="_top" xlink:title=" ">
<polygon fill="white" stroke="#666666" points="1001,-420 930,-420 930,-401 1001,-401 1001,-420"/>
<text text-anchor="middle" x="965.5" y="-408" font-family="Helvetica,sans-Serif" font-size="10.00">luaC_fullgc</text>
</a>
</g>
</g>
<!-- Node1&#45;&gt;Node8 -->
<g id="edge7_Node000001_Node000008" class="edge">
<title>Node1&#45;&gt;Node8</title>
<g id="a_edge7_Node000001_Node000008"><a xlink:title=" ">
<path fill="none" stroke="#63b8ff" d="M1026.82,-421.99C1018.45,-420.39 1009.48,-418.69 1001.08,-417.09"/>
<polygon fill="#63b8ff" stroke="#63b8ff" points="1026.19,-425.43 1036.66,-423.86 1027.5,-418.56 1026.19,-425.43"/>
</a>
</g>
</g>
<!-- Node3 -->
<g id="Node000003" class="node">
<title>Node3</title>
<g id="a_Node000003"><a xlink:href="lgc_8c.html#ab0133eb7bb37a0a690e0ef71fbc13414" target="_top" xlink:title=" ">
<polygon fill="white" stroke="#666666" points="892,-477 827,-477 827,-458 892,-458 892,-477"/>
<text text-anchor="middle" x="859.5" y="-465" font-family="Helvetica,sans-Serif" font-size="10.00">luaC_step</text>
</a>
</g>
</g>
<!-- Node2&#45;&gt;Node3 -->
<g id="edge2_Node000002_Node000003" class="edge">
<title>Node2&#45;&gt;Node3</title>
<g id="a_edge2_Node000002_Node000003"><a xlink:title=" ">
<path fill="none" stroke="#63b8ff" d="M927.28,-461.08C915.8,-462.18 903.28,-463.39 892.22,-464.45"/>
<polygon fill="#63b8ff" stroke="#63b8ff" points="927.83,-464.54 937.45,-460.1 927.16,-457.57 927.83,-464.54"/>
</a>
</g>
</g>
<!-- Node4 -->
<g id="Node000004" class="node">
<title>Node4</title>
<g id="a_Node000004"><a xlink:href="lapi_8c.html#aa93573057f708d826613186a9d40c87d" target="_top" xlink:title=" ">
<polygon fill="white" stroke="#666666" points="771,-477 723,-477 723,-458 771,-458 771,-477"/>
<text text-anchor="middle" x="747" y="-465" font-family="Helvetica,sans-Serif" font-size="10.00">lua_gc</text>
</a>
</g>
</g>
<!-- Node3&#45;&gt;Node4 -->
<g id="edge3_Node000003_Node000004" class="edge">
<title>Node3&#45;&gt;Node4</title>
<g id="a_edge3_Node000003_Node000004"><a xlink:title=" ">
<path fill="none" stroke="#63b8ff" d="M816.5,-467.5C801.16,-467.5 784.36,-467.5 771.24,-467.5"/>
<polygon fill="#63b8ff" stroke="#63b8ff" points="816.84,-471 826.84,-467.5 816.84,-464 816.84,-471"/>
</a>
</g>
</g>
<!-- Node5 -->
<g id="Node000005" class="node">
<title>Node5</title>
<g id="a_Node000005"><a xlink:href="lbaselib_8c.html#a07f71966c943cc9761ab129f64d4ac80" target="_top" xlink:title=" ">
<polygon fill="white" stroke="#666666" points="669,-514 553,-514 553,-495 669,-495 669,-514"/>
<text text-anchor="middle" x="611" y="-502" font-family="Helvetica,sans-Serif" font-size="10.00">luaB_collectgarbage</text>
</a>
</g>
</g>
<!-- Node4&#45;&gt;Node5 -->
<g id="edge4_Node000004_Node000005" class="edge">
<title>Node4&#45;&gt;Node5</title>
<g id="a_edge4_Node000004_Node000005"><a xlink:title=" ">
<path fill="none" stroke="#63b8ff" d="M713.25,-476.54C693.02,-482.13 667.09,-489.29 646.54,-494.96"/>
<polygon fill="#63b8ff" stroke="#63b8ff" points="714.26,-479.9 722.96,-473.86 712.39,-473.15 714.26,-479.9"/>
</a>
</g>
</g>
<!-- Node6 -->
<g id="Node000006" class="node">
<title>Node6</title>
<g id="a_Node000006"><a xlink:href="lua_8c.html#aa0f8bc082ef913cb0a4df437bf5f5019" target="_top" xlink:title=" ">
<polygon fill="white" stroke="#666666" points="634.5,-477 587.5,-477 587.5,-458 634.5,-458 634.5,-477"/>
<text text-anchor="middle" x="611" y="-465" font-family="Helvetica,sans-Serif" font-size="10.00">pmain</text>
</a>
</g>
</g>
<!-- Node4&#45;&gt;Node6 -->
<g id="edge5_Node000004_Node000006" class="edge">
<title>Node4&#45;&gt;Node6</title>
<g id="a_edge5_Node000004_Node000006"><a xlink:title=" ">
<path fill="none" stroke="#63b8ff" d="M712.77,-467.5C688.47,-467.5 656.14,-467.5 634.73,-467.5"/>
<polygon fill="#63b8ff" stroke="#63b8ff" points="712.96,-471 722.96,-467.5 712.96,-464 712.96,-471"/>
</a>
</g>
</g>
<!-- Node7 -->
<g id="Node000007" class="node">
<title>Node7</title>
<g id="a_Node000007"><a xlink:href="lua_8c.html#a3c04138a5bfe5d72780bb7e82a18e627" target="_top" xlink:title=" ">
<polygon fill="white" stroke="#666666" points="481.5,-486 440.5,-486 440.5,-467 481.5,-467 481.5,-486"/>
<text text-anchor="middle" x="461" y="-474" font-family="Helvetica,sans-Serif" font-size="10.00">main</text>
</a>
</g>
</g>
<!-- Node6&#45;&gt;Node7 -->
<g id="edge6_Node000006_Node000007" class="edge">
<title>Node6&#45;&gt;Node7</title>
<g id="a_edge6_Node000006_Node000007"><a xlink:title=" ">
<path fill="none" stroke="#63b8ff" d="M577.05,-469.5C547.82,-471.28 506.09,-473.82 481.75,-475.3"/>
<polygon fill="#63b8ff" stroke="#63b8ff" points="577.43,-472.99 587.2,-468.89 577.01,-466 577.43,-472.99"/>
</a>
</g>
</g>
<!-- Node8&#45;&gt;Node4 -->
<g id="edge53_Node000008_Node000004" class="edge">
<title>Node8&#45;&gt;Node4</title>
<g id="a_edge53_Node000008_Node000004"><a xlink:title=" ">
<path fill="none" stroke="#63b8ff" d="M919.87,-422.25C874.62,-434.16 806.39,-452.13 771.05,-461.43"/>
<polygon fill="#63b8ff" stroke="#63b8ff" points="920.94,-425.59 929.72,-419.66 919.15,-418.82 920.94,-425.59"/>
</a>
</g>
</g>
<!-- Node9 -->
<g id="Node000009" class="node">
<title>Node9</title>
<g id="a_Node000009"><a xlink:href="lstring_8c.html#af8b89b01dc2db9f0d3024067ffdb931a" target="_top" xlink:title=" ">
<polygon fill="white" stroke="#666666" points="894,-364 825,-364 825,-345 894,-345 894,-364"/>
<text text-anchor="middle" x="859.5" y="-352" font-family="Helvetica,sans-Serif" font-size="10.00">growstrtab</text>
</a>
</g>
</g>
<!-- Node8&#45;&gt;Node9 -->
<g id="edge8_Node000008_Node000009" class="edge">
<title>Node8&#45;&gt;Node9</title>
<g id="a_edge8_Node000008_Node000009"><a xlink:title=" ">
<path fill="none" stroke="#63b8ff" d="M937.82,-396.11C924.63,-389 908.48,-380.29 894,-372.5 888.88,-369.75 883.33,-366.76 878.24,-364.02"/>
<polygon fill="#63b8ff" stroke="#63b8ff" points="936.37,-399.3 946.83,-400.97 939.69,-393.14 936.37,-399.3"/>
</a>
</g>
</g>
<!-- Node2433 -->
<g id="Node002433" class="node">
<title>Node2433</title>
<g id="a_Node002433"><a xlink:href="lmem_8c.html#abe813b00dc25458292fae7dbfc04ef3b" target="_top" xlink:title=" ">
<polygon fill="white" stroke="#666666" points="888,-401 831,-401 831,-382 888,-382 888,-401"/>
<text text-anchor="middle" x="859.5" y="-389" font-family="Helvetica,sans-Serif" font-size="10.00">tryagain</text>
</a>
</g>
</g>
<!-- Node8&#45;&gt;Node2433 -->
<g id="edge54_Node000008_Node002433" class="edge">
<title>Node8&#45;&gt;Node2433</title>
<g id="a_edge54_Node000008_Node002433"><a xlink:title=" ">
<path fill="none" stroke="#63b8ff" d="M919.74,-402.32C908.98,-400.36 897.8,-398.31 888.08,-396.54"/>
<polygon fill="#63b8ff" stroke="#63b8ff" points="919.4,-405.82 929.87,-404.17 920.66,-398.93 919.4,-405.82"/>
</a>
</g>
</g>
<!-- Node10 -->
<g id="Node000010" class="node">
<title>Node10</title>
<g id="a_Node000010"><a xlink:href="lstring_8c.html#a2891c52f2d96252102e7a0a9d8cf37fd" target="_top" xlink:title=" ">
<polygon fill="white" stroke="#666666" points="783.5,-309 710.5,-309 710.5,-290 783.5,-290 783.5,-309"/>
<text text-anchor="middle" x="747" y="-297" font-family="Helvetica,sans-Serif" font-size="10.00">internshrstr</text>
</a>
</g>
</g>
<!-- Node9&#45;&gt;Node10 -->
<g id="edge9_Node000009_Node000010" class="edge">
<title>Node9&#45;&gt;Node10</title>
<g id="a_edge9_Node000009_Node000010"><a xlink:title=" ">
<path fill="none" stroke="#63b8ff" d="M830.14,-340.38C810.46,-330.59 784.77,-317.8 767.4,-309.16"/>
<polygon fill="#63b8ff" stroke="#63b8ff" points="828.74,-343.6 839.25,-344.92 831.86,-337.33 828.74,-343.6"/>
</a>
</g>
</g>
<!-- Node11 -->
<g id="Node000011" class="node">
<title>Node11</title>
<g id="a_Node000011"><a xlink:href="lstring_8c.html#af922b364943afbe71e4da82a0c50188c" target="_top" xlink:title=" ">
<polygon fill="white" stroke="#666666" points="650.5,-244 571.5,-244 571.5,-225 650.5,-225 650.5,-244"/>
<text text-anchor="middle" x="611" y="-232" font-family="Helvetica,sans-Serif" font-size="10.00">luaS_newlstr</text>
</a>
</g>
</g>
<!-- Node10&#45;&gt;Node11 -->
<g id="edge10_Node000010_Node000011" class="edge">
<title>Node10&#45;&gt;Node11</title>
<g id="a_edge10_Node000010_Node000011"><a xlink:title=" ">
<path fill="none" stroke="#63b8ff" d="M716.97,-285.42C691.23,-272.93 654.35,-255.04 631.85,-244.13"/>
<polygon fill="#63b8ff" stroke="#63b8ff" points="715.7,-288.69 726.23,-289.91 718.76,-282.4 715.7,-288.69"/>
</a>
</g>
</g>
<!-- Node12 -->
<g id="Node000012" class="node">
<title>Node12</title>
<g id="a_Node000012"><a xlink:href="lundump_8c.html#ac0523d12e31c707fa1f626add3672fef" target="_top" xlink:title=" ">
<polygon fill="white" stroke="#666666" points="498,-75 424,-75 424,-56 498,-56 498,-75"/>
<text text-anchor="middle" x="461" y="-63" font-family="Helvetica,sans-Serif" font-size="10.00">loadStringN</text>
</a>
</g>
</g>
<!-- Node11&#45;&gt;Node12 -->
<g id="edge11_Node000011_Node000012" class="edge">
<title>Node11&#45;&gt;Node12</title>
<g id="a_edge11_Node000011_Node000012"><a xlink:title=" ">
<path fill="none" stroke="#63b8ff" d="M598.91,-216.09C582.79,-190.19 551.09,-142.29 517,-107.5 504.72,-94.97 488.56,-83.07 476.94,-75.16"/>
<polygon fill="#63b8ff" stroke="#63b8ff" points="596.08,-218.17 604.29,-224.86 602.04,-214.51 596.08,-218.17"/>
</a>
</g>
</g>
<!-- Node29 -->
<g id="Node000029" class="node">
<title>Node29</title>
<g id="a_Node000029"><a xlink:href="lapi_8c.html#a1de3afee1daece63d455f23818c883d9" target="_top" xlink:title=" ">
<polygon fill="white" stroke="#666666" points="350,-169 281,-169 281,-150 350,-150 350,-169"/>
<text text-anchor="middle" x="315.5" y="-157" font-family="Helvetica,sans-Serif" font-size="10.00">lua_concat</text>
</a>
</g>
</g>
<!-- Node11&#45;&gt;Node29 -->
<g id="edge16_Node000011_Node000029" class="edge">
<title>Node11&#45;&gt;Node29</title>
<g id="a_edge16_Node000011_Node000029"><a xlink:title=" ">
<path fill="none" stroke="#63b8ff" d="M561,-238.91C517.81,-240.72 454.27,-238.19 405,-214.5 384.32,-204.56 388.38,-189.78 369,-177.5 363.22,-173.84 356.61,-170.82 350.07,-168.38"/>
<polygon fill="#63b8ff" stroke="#63b8ff" points="561.44,-242.39 571.25,-238.38 561.09,-235.4 561.44,-242.39"/>
</a>
</g>
</g>
<!-- Node533 -->
<g id="Node000533" class="node">
<title>Node533</title>
<g id="a_Node000533"><a xlink:href="lapi_8c.html#a01ac82fa494af5e7c3e10c87a8052cf7" target="_top" xlink:title=" ">
<polygon fill="white" stroke="#666666" points="361,-502 270,-502 270,-483 361,-483 361,-502"/>
<text text-anchor="middle" x="315.5" y="-490" font-family="Helvetica,sans-Serif" font-size="10.00">lua_pushlstring</text>
</a>
</g>
</g>
<!-- Node11&#45;&gt;Node533 -->
<g id="edge23_Node000011_Node000533" class="edge">
<title>Node11&#45;&gt;Node533</title>
<g id="a_edge23_Node000011_Node000533"><a xlink:title=" ">
<path fill="none" stroke="#63b8ff" d="M598.97,-252.84C583.52,-277.08 553.21,-319.62 517,-344.5 473.56,-374.35 443.04,-347.01 405,-383.5 373.61,-413.61 400.46,-444.47 369,-474.5 365.45,-477.89 361.22,-480.65 356.74,-482.89"/>
<polygon fill="#63b8ff" stroke="#63b8ff" points="602.01,-254.58 604.32,-244.24 596.07,-250.88 602.01,-254.58"/>
</a>
</g>
</g>
<!-- Node539 -->
<g id="Node000539" class="node">
<title>Node539</title>
<g id="a_Node000539"><a xlink:href="lobject_8c.html#a53824ade5220a50d44148175f7787199" target="_top" xlink:title=" ">
<polygon fill="white" stroke="#666666" points="502,-282 420,-282 420,-263 502,-263 502,-282"/>
<text text-anchor="middle" x="461" y="-270" font-family="Helvetica,sans-Serif" font-size="10.00">luaO_tostring</text>
</a>
</g>
</g>
<!-- Node11&#45;&gt;Node539 -->
<g id="edge35_Node000011_Node000539" class="edge">
<title>Node11&#45;&gt;Node539</title>
<g id="a_edge35_Node000011_Node000539"><a xlink:title=" ">
<path fill="none" stroke="#63b8ff" d="M562.83,-246.61C542.21,-251.9 518.39,-258.02 499.08,-262.98"/>
<polygon fill="#63b8ff" stroke="#63b8ff" points="563.84,-249.97 572.65,-244.09 562.1,-243.19 563.84,-249.97"/>
</a>
</g>
</g>
<!-- Node543 -->
<g id="Node000543" class="node">
<title>Node543</title>
<g id="a_Node000543"><a xlink:href="lstring_8c.html#ac9397504696e5cbc6c4cec7649c497ec" target="_top" xlink:title=" ">
<polygon fill="#fff0f0" stroke="red" points="492.5,-336 429.5,-336 429.5,-317 492.5,-317 492.5,-336"/>
<text text-anchor="middle" x="461" y="-324" font-family="Helvetica,sans-Serif" font-size="10.00">luaS_new</text>
</a>
</g>
</g>
<!-- Node11&#45;&gt;Node543 -->
<g id="edge38_Node000011_Node000543" class="edge">
<title>Node11&#45;&gt;Node543</title>
<g id="a_edge38_Node000011_Node000543"><a xlink:title=" ">
<path fill="none" stroke="#63b8ff" d="M585.64,-249.64C554.93,-268.74 503.04,-300.99 477.35,-316.96"/>
<polygon fill="#63b8ff" stroke="#63b8ff" points="587.8,-252.42 594.44,-244.17 584.1,-246.48 587.8,-252.42"/>
</a>
</g>
</g>
<!-- Node2996 -->
<g id="Node002996" class="node">
<title>Node2996</title>
<g id="a_Node002996"><a xlink:href="lvm_8c.html#a2f076040af405dcb50d661edd692eca7" target="_top" xlink:title=" ">
<polygon fill="#fff0f0" stroke="red" points="499,-169 423,-169 423,-150 499,-150 499,-169"/>
<text text-anchor="middle" x="461" y="-157" font-family="Helvetica,sans-Serif" font-size="10.00">luaV_concat</text>
</a>
</g>
</g>
<!-- Node11&#45;&gt;Node2996 -->
<g id="edge48_Node000011_Node002996" class="edge">
<title>Node11&#45;&gt;Node2996</title>
<g id="a_edge48_Node000011_Node002996"><a xlink:title=" ">
<path fill="none" stroke="#63b8ff" d="M588.21,-219.12C569.86,-206.67 542.59,-189.33 517,-177.5 510.16,-174.34 502.61,-171.48 495.35,-169.03"/>
<polygon fill="#63b8ff" stroke="#63b8ff" points="586.47,-222.17 596.69,-224.96 590.44,-216.41 586.47,-222.17"/>
</a>
</g>
</g>
<!-- Node3002 -->
<g id="Node003002" class="node">
<title>Node3002</title>
<g id="a_Node003002"><a xlink:href="lobject_8c.html#a90720e7e38c0e352e9b97d3f8def9e1a" target="_top" xlink:title=" ">
<polygon fill="#fff0f0" stroke="red" points="342,-132 289,-132 289,-113 342,-113 342,-132"/>
<text text-anchor="middle" x="315.5" y="-120" font-family="Helvetica,sans-Serif" font-size="10.00">pushstr</text>
</a>
</g>
</g>
<!-- Node11&#45;&gt;Node3002 -->
<g id="edge52_Node000011_Node003002" class="edge">
<title>Node11&#45;&gt;Node3002</title>
<g id="a_edge52_Node000011_Node003002"><a xlink:title=" ">
<path fill="none" stroke="#63b8ff" d="M598.17,-216.36C582.55,-194.13 552.8,-157.36 517,-140.5 459.3,-113.32 381.97,-115.75 342.32,-119.38"/>
<polygon fill="#63b8ff" stroke="#63b8ff" points="595.46,-218.59 603.98,-224.89 601.25,-214.66 595.46,-218.59"/>
</a>
</g>
</g>
<!-- Node2955 -->
<g id="Node002955" class="node">
<title>Node2955</title>
<g id="a_Node002955"><a xlink:href="llex_8c.html#a51ec8735f32a452d48a77e71e9dd0a3b" target="_top" xlink:title=" ">
<polygon fill="#fff0f0" stroke="red" points="507,-206 415,-206 415,-187 507,-187 507,-206"/>
<text text-anchor="middle" x="461" y="-194" font-family="Helvetica,sans-Serif" font-size="10.00">luaX_newstring</text>
</a>
</g>
</g>
<!-- Node11&#45;&gt;Node2955 -->
<g id="edge51_Node000011_Node002955" class="edge">
<title>Node11&#45;&gt;Node2955</title>
<g id="a_edge51_Node000011_Node002955"><a xlink:title=" ">
<path fill="none" stroke="#63b8ff" d="M562.83,-222.39C542.21,-217.1 518.39,-210.98 499.08,-206.02"/>
<polygon fill="#63b8ff" stroke="#63b8ff" points="562.1,-225.81 572.65,-224.91 563.84,-219.03 562.1,-225.81"/>
</a>
</g>
</g>
<!-- Node13 -->
<g id="Node000013" class="node">
<title>Node13</title>
<g id="a_Node000013"><a xlink:href="lundump_8c.html#a121ddfe27d3762c4b5ed14bd3746af7a" target="_top" xlink:title=" ">
<polygon fill="white" stroke="#666666" points="350,-19 281,-19 281,0 350,0 350,-19"/>
<text text-anchor="middle" x="315.5" y="-7" font-family="Helvetica,sans-Serif" font-size="10.00">loadDebug</text>
</a>
</g>
</g>
<!-- Node12&#45;&gt;Node13 -->
<g id="edge12_Node000012_Node000013" class="edge">
<title>Node12&#45;&gt;Node13</title>
<g id="a_edge12_Node000012_Node000013"><a xlink:title=" ">
<path fill="none" stroke="#63b8ff" d="M428.43,-51.72C411.01,-44.27 388.94,-35.07 369,-27.5 361.43,-24.63 353.18,-21.7 345.51,-19.07"/>
<polygon fill="#63b8ff" stroke="#63b8ff" points="427.53,-55.14 438.1,-55.88 430.29,-48.71 427.53,-55.14"/>
</a>
</g>
</g>
<!-- Node14 -->
<g id="Node000014" class="node">
<title>Node14</title>
<g id="a_Node000014"><a xlink:href="lundump_8c.html#a894435708ede05d12c7e81033dae380f" target="_top" xlink:title=" ">
<polygon fill="#fff0f0" stroke="red" points="215.5,-26 136.5,-26 136.5,-7 215.5,-7 215.5,-26"/>
<text text-anchor="middle" x="176" y="-14" font-family="Helvetica,sans-Serif" font-size="10.00">loadFunction</text>
</a>
</g>
</g>
<!-- Node12&#45;&gt;Node14 -->
<g id="edge14_Node000012_Node000014" class="edge">
<title>Node12&#45;&gt;Node14</title>
<g id="a_edge14_Node000012_Node000014"><a xlink:title=" ">
<path fill="none" stroke="#63b8ff" d="M413.87,-73.28C372.87,-78.34 311.86,-81.26 262,-64.5 243.04,-58.13 243.31,-47.51 226,-37.5 218.63,-33.24 210.23,-29.33 202.49,-26.07"/>
<polygon fill="#63b8ff" stroke="#63b8ff" points="414.39,-76.74 423.85,-71.96 413.47,-69.8 414.39,-76.74"/>
</a>
</g>
</g>
<!-- Node27 -->
<g id="Node000027" class="node">
<title>Node27</title>
<g id="a_Node000027"><a xlink:href="lundump_8c.html#a883618a9a2104461096fb633c7df2f33" target="_top" xlink:title=" ">
<polygon fill="#fff0f0" stroke="red" points="348.5,-56 282.5,-56 282.5,-37 348.5,-37 348.5,-56"/>
<text text-anchor="middle" x="315.5" y="-44" font-family="Helvetica,sans-Serif" font-size="10.00">loadString</text>
</a>
</g>
</g>
<!-- Node12&#45;&gt;Node27 -->
<g id="edge15_Node000012_Node000027" class="edge">
<title>Node12&#45;&gt;Node27</title>
<g id="a_edge15_Node000012_Node000027"><a xlink:title=" ">
<path fill="none" stroke="#63b8ff" d="M413.7,-59.37C392.51,-56.56 367.93,-53.31 348.78,-50.77"/>
<polygon fill="#63b8ff" stroke="#63b8ff" points="413.42,-62.86 423.79,-60.71 414.33,-55.92 413.42,-62.86"/>
</a>
</g>
</g>
<!-- Node13&#45;&gt;Node14 -->
<g id="edge13_Node000013_Node000014" class="edge">
<title>Node13&#45;&gt;Node14</title>
<g id="a_edge13_Node000013_Node000014"><a xlink:title=" ">
<path fill="none" stroke="#63b8ff" d="M270.78,-11.73C253.07,-12.63 232.79,-13.66 215.64,-14.53"/>
<polygon fill="#63b8ff" stroke="#63b8ff" points="271.05,-15.22 280.86,-11.21 270.7,-8.23 271.05,-15.22"/>
</a>
</g>
</g>
<!-- Node30 -->
<g id="Node000030" class="node">
<title>Node30</title>
<g id="a_Node000030"><a xlink:href="lauxlib_8c.html#a36c8f149b779f8c9a5c042ea9784d80a" target="_top" xlink:title=" ">
<polygon fill="#fff0f0" stroke="red" points="204,-216 148,-216 148,-197 204,-197 204,-216"/>
<text text-anchor="middle" x="176" y="-204" font-family="Helvetica,sans-Serif" font-size="10.00">findfield</text>
</a>
</g>
</g>
<!-- Node29&#45;&gt;Node30 -->
<g id="edge17_Node000029_Node000030" class="edge">
<title>Node29&#45;&gt;Node30</title>
<g id="a_edge17_Node000029_Node000030"><a xlink:title=" ">
<path fill="none" stroke="#63b8ff" d="M276.91,-172.35C253.95,-180.2 225.1,-190.06 204.31,-197.16"/>
<polygon fill="#63b8ff" stroke="#63b8ff" points="278.34,-175.56 286.67,-169.01 276.08,-168.93 278.34,-175.56"/>
</a>
</g>
</g>
<!-- Node385 -->
<g id="Node000385" class="node">
<title>Node385</title>
<g id="a_Node000385"><a xlink:href="lcorolib_8c.html#a777abb20385a69ce4787f72bd90375a7" target="_top" xlink:title=" ">
<polygon fill="#fff0f0" stroke="red" points="219,-179 133,-179 133,-160 219,-160 219,-179"/>
<text text-anchor="middle" x="176" y="-167" font-family="Helvetica,sans-Serif" font-size="10.00">luaB_auxwrap</text>
</a>
</g>
</g>
<!-- Node29&#45;&gt;Node385 -->
<g id="edge19_Node000029_Node000385" class="edge">
<title>Node29&#45;&gt;Node385</title>
<g id="a_edge19_Node000029_Node000385"><a xlink:title=" ">
<path fill="none" stroke="#63b8ff" d="M270.43,-162.71C254,-163.9 235.41,-165.25 219.16,-166.43"/>
<polygon fill="#63b8ff" stroke="#63b8ff" points="271.14,-166.16 280.86,-161.95 270.64,-159.18 271.14,-166.16"/>
</a>
</g>
</g>
<!-- Node177 -->
<g id="Node000177" class="node">
<title>Node177</title>
<g id="a_Node000177"><a xlink:href="lbaselib_8c.html#a2ecfa987569d0b4c1063f3e204e42dd2" target="_top" xlink:title=" ">
<polygon fill="#fff0f0" stroke="red" points="209.5,-103 142.5,-103 142.5,-84 209.5,-84 209.5,-103"/>
<text text-anchor="middle" x="176" y="-91" font-family="Helvetica,sans-Serif" font-size="10.00">luaB_error</text>
</a>
</g>
</g>
<!-- Node29&#45;&gt;Node177 -->
<g id="edge20_Node000029_Node000177" class="edge">
<title>Node29&#45;&gt;Node177</title>
<g id="a_edge20_Node000029_Node000177"><a xlink:title=" ">
<path fill="none" stroke="#63b8ff" d="M274.94,-146.26C270.52,-144.46 266.12,-142.53 262,-140.5 244.97,-132.11 242.55,-126.8 226,-117.5 216.92,-112.4 206.59,-107.25 197.77,-103.03"/>
<polygon fill="#63b8ff" stroke="#63b8ff" points="274,-149.65 284.59,-149.97 276.51,-143.11 274,-149.65"/>
</a>
</g>
</g>
<!-- Node386 -->
<g id="Node000386" class="node">
<title>Node386</title>
<g id="a_Node000386"><a xlink:href="lauxlib_8c.html#a6c51d83d29244779392551388913e08a" target="_top" xlink:title=" ">
<polygon fill="#fff0f0" stroke="red" points="208.5,-66 143.5,-66 143.5,-47 208.5,-47 208.5,-66"/>
<text text-anchor="middle" x="176" y="-54" font-family="Helvetica,sans-Serif" font-size="10.00">luaL_error</text>
</a>
</g>
</g>
<!-- Node29&#45;&gt;Node386 -->
<g id="edge21_Node000029_Node000386" class="edge">
<title>Node29&#45;&gt;Node386</title>
<g id="a_edge21_Node000029_Node000386"><a xlink:title=" ">
<path fill="none" stroke="#63b8ff" d="M271.55,-147.04C268.13,-145.15 264.89,-142.98 262,-140.5 236.65,-118.74 251.3,-96.32 226,-74.5 220.99,-70.18 214.85,-66.86 208.64,-64.32"/>
<polygon fill="#63b8ff" stroke="#63b8ff" points="270.34,-150.34 280.88,-151.43 273.32,-144.01 270.34,-150.34"/>
</a>
</g>
</g>
<!-- Node493 -->
<g id="Node000493" class="node">
<title>Node493</title>
<g id="a_Node000493"><a xlink:href="lua_8c.html#affef5a04b31963c2c3f5028518777e12" target="_top" xlink:title=" ">
<polygon fill="#fff0f0" stroke="red" points="75,-272 15,-272 15,-253 75,-253 75,-272"/>
<text text-anchor="middle" x="45" y="-260" font-family="Helvetica,sans-Serif" font-size="10.00">multiline</text>
</a>
</g>
</g>
<!-- Node29&#45;&gt;Node493 -->
<g id="edge22_Node000029_Node000493" class="edge">
<title>Node29&#45;&gt;Node493</title>
<g id="a_edge22_Node000029_Node000493"><a xlink:title=" ">
<path fill="none" stroke="#63b8ff" d="M276.95,-147.18C237.14,-136.43 173.57,-126.02 126,-150.5 82.87,-172.7 57.84,-230.12 49.32,-252.94"/>
<polygon fill="#63b8ff" stroke="#63b8ff" points="276.21,-150.61 286.78,-149.97 278.12,-143.87 276.21,-150.61"/>
</a>
</g>
</g>
<!-- Node30&#45;&gt;Node30 -->
<g id="edge18_Node000030_Node000030" class="edge">
<title>Node30&#45;&gt;Node30</title>
<g id="a_edge18_Node000030_Node000030"><a xlink:title=" ">
<path fill="none" stroke="#63b8ff" d="M200.18,-225.19C198.86,-230.2 190.8,-234 176,-234 152.89,-234 146.22,-224.73 155.96,-216.08"/>
<polygon fill="#63b8ff" stroke="#63b8ff" points="203.36,-223.73 196.04,-216.08 196.99,-226.63 203.36,-223.73"/>
</a>
</g>
</g>
<!-- Node37 -->
<g id="Node000037" class="node">
<title>Node37</title>
<g id="a_Node000037"><a xlink:href="ldblib_8c.html#a4eb57e66c2efb2d31c9b9e1b01d27e13" target="_top" xlink:title=" ">
<polygon fill="white" stroke="#666666" points="210,-646 142,-646 142,-627 210,-627 210,-646"/>
<text text-anchor="middle" x="176" y="-634" font-family="Helvetica,sans-Serif" font-size="10.00">db_getinfo</text>
</a>
</g>
</g>
<!-- Node533&#45;&gt;Node37 -->
<g id="edge24_Node000533_Node000037" class="edge">
<title>Node533&#45;&gt;Node37</title>
<g id="a_edge24_Node000533_Node000037"><a xlink:title=" ">
<path fill="none" stroke="#63b8ff" d="M305.82,-511.47C292.41,-538.8 264.15,-589.18 226,-618.5 221.26,-622.14 215.7,-625.11 210.07,-627.5"/>
<polygon fill="#63b8ff" stroke="#63b8ff" points="309.09,-512.75 310.22,-502.21 302.77,-509.74 309.09,-512.75"/>
</a>
</g>
</g>
<!-- Node462 -->
<g id="Node000462" class="node">
<title>Node462</title>
<g id="a_Node000462"><a xlink:href="loadlib_8c.html#a91ac5b5231cf039af46226806dcc3884" target="_top" xlink:title=" ">
<polygon fill="#fff0f0" stroke="red" points="205.5,-385 146.5,-385 146.5,-366 205.5,-366 205.5,-385"/>
<text text-anchor="middle" x="176" y="-373" font-family="Helvetica,sans-Serif" font-size="10.00">loadfunc</text>
</a>
</g>
</g>
<!-- Node533&#45;&gt;Node462 -->
<g id="edge25_Node000533_Node000462" class="edge">
<title>Node533&#45;&gt;Node462</title>
<g id="a_edge25_Node000533_Node000462"><a xlink:title=" ">
<path fill="none" stroke="#63b8ff" d="M266.16,-477.78C264.7,-476.76 263.31,-475.67 262,-474.5 234.37,-449.93 252.04,-425.75 226,-399.5 220,-393.45 212.16,-388.68 204.52,-385.05"/>
<polygon fill="#63b8ff" stroke="#63b8ff" points="264.61,-480.93 275.02,-482.9 268.11,-474.87 264.61,-480.93"/>
</a>
</g>
</g>
<!-- Node426 -->
<g id="Node000426" class="node">
<title>Node426</title>
<g id="a_Node000426"><a xlink:href="loadlib_8c.html#a1ec05cd98a045c271aeda9f9c6041e1c" target="_top" xlink:title=" ">
<polygon fill="#fff0f0" stroke="red" points="90,-385 0,-385 0,-366 90,-366 90,-385"/>
<text text-anchor="middle" x="45" y="-373" font-family="Helvetica,sans-Serif" font-size="10.00">searcher_Croot</text>
</a>
</g>
</g>
<!-- Node533&#45;&gt;Node426 -->
<g id="edge32_Node000533_Node000426" class="edge">
<title>Node533&#45;&gt;Node426</title>
<g id="a_edge32_Node000533_Node000426"><a xlink:title=" ">
<path fill="none" stroke="#63b8ff" d="M269.22,-478.75C266.71,-477.44 264.29,-476.03 262,-474.5 241.85,-461 246.27,-446.81 226,-433.5 202.33,-417.96 128.83,-397.03 83.4,-385.03"/>
<polygon fill="#63b8ff" stroke="#63b8ff" points="268.02,-482.04 278.57,-482.99 270.92,-475.67 268.02,-482.04"/>
</a>
</g>
</g>
<!-- Node534 -->
<g id="Node000534" class="node">
<title>Node534</title>
<g id="a_Node000534"><a xlink:href="lauxlib_8c.html#a3a1f80033814e2057583a7d24cee23b4" target="_top" xlink:title=" ">
<polygon fill="#fff0f0" stroke="red" points="222.5,-609 129.5,-609 129.5,-590 222.5,-590 222.5,-609"/>
<text text-anchor="middle" x="176" y="-597" font-family="Helvetica,sans-Serif" font-size="10.00">luaL_pushresult</text>
</a>
</g>
</g>
<!-- Node533&#45;&gt;Node534 -->
<g id="edge27_Node000533_Node000534" class="edge">
<title>Node533&#45;&gt;Node534</title>
<g id="a_edge27_Node000533_Node000534"><a xlink:title=" ">
<path fill="none" stroke="#63b8ff" d="M301.03,-510.08C285.05,-529.87 256.68,-561.83 226,-581.5 220.89,-584.78 215.1,-587.57 209.33,-589.91"/>
<polygon fill="#63b8ff" stroke="#63b8ff" points="303.82,-512.19 307.28,-502.17 298.33,-507.85 303.82,-512.19"/>
</a>
</g>
</g>
<!-- Node538 -->
<g id="Node000538" class="node">
<title>Node538</title>
<g id="a_Node000538"><a xlink:href="lutf8lib_8c.html#ae1247f71bc4b3f3be7da9c9d5c7668b1" target="_top" xlink:title=" ">
<polygon fill="white" stroke="#666666" points="216,-572 136,-572 136,-553 216,-553 216,-572"/>
<text text-anchor="middle" x="176" y="-560" font-family="Helvetica,sans-Serif" font-size="10.00">luaopen_utf8</text>
</a>
</g>
</g>
<!-- Node533&#45;&gt;Node538 -->
<g id="edge28_Node000533_Node000538" class="edge">
<title>Node533&#45;&gt;Node538</title>
<g id="a_edge28_Node000533_Node000538"><a xlink:title=" ">
<path fill="none" stroke="#63b8ff" d="M291.48,-507.57C273.97,-518.65 249.05,-533.6 226,-544.5 219.53,-547.56 212.38,-550.45 205.6,-552.97"/>
<polygon fill="#63b8ff" stroke="#63b8ff" points="293.38,-510.51 299.91,-502.17 289.6,-504.62 293.38,-510.51"/>
</a>
</g>
</g>
<!-- Node437 -->
<g id="Node000437" class="node">
<title>Node437</title>
<g id="a_Node000437"><a xlink:href="lstrlib_8c.html#a24a14b4e6e90bac4610dd334bb0b51b6" target="_top" xlink:title=" ">
<polygon fill="#fff0f0" stroke="red" points="226,-535 126,-535 126,-516 226,-516 226,-535"/>
<text text-anchor="middle" x="176" y="-523" font-family="Helvetica,sans-Serif" font-size="10.00">push_onecapture</text>
</a>
</g>
</g>
<!-- Node533&#45;&gt;Node437 -->
<g id="edge29_Node000533_Node000437" class="edge">
<title>Node533&#45;&gt;Node437</title>
<g id="a_edge29_Node000533_Node000437"><a xlink:title=" ">
<path fill="none" stroke="#63b8ff" d="M264.61,-504.47C248.84,-508.26 231.64,-512.39 216.68,-515.98"/>
<polygon fill="#63b8ff" stroke="#63b8ff" points="265.82,-507.78 274.73,-502.04 264.19,-500.98 265.82,-507.78"/>
</a>
</g>
</g>
<!-- Node491 -->
<g id="Node000491" class="node">
<title>Node491</title>
<g id="a_Node000491"><a xlink:href="lua_8c.html#a83a7cb21b34095ca93f2a2a863f58fda" target="_top" xlink:title=" ">
<polygon fill="#fff0f0" stroke="red" points="205,-348 147,-348 147,-329 205,-329 205,-348"/>
<text text-anchor="middle" x="176" y="-336" font-family="Helvetica,sans-Serif" font-size="10.00">pushline</text>
</a>
</g>
</g>
<!-- Node533&#45;&gt;Node491 -->
<g id="edge30_Node000533_Node000491" class="edge">
<title>Node533&#45;&gt;Node491</title>
<g id="a_edge30_Node000533_Node000491"><a xlink:title=" ">
<path fill="none" stroke="#63b8ff" d="M264.92,-477.22C263.9,-476.36 262.92,-475.45 262,-474.5 223.9,-435.07 263.67,-396.34 226,-356.5 220.4,-350.57 212.68,-346.59 205.02,-343.91"/>
<polygon fill="#63b8ff" stroke="#63b8ff" points="263.2,-480.28 273.47,-482.89 267.07,-474.44 263.2,-480.28"/>
</a>
</g>
</g>
<!-- Node168 -->
<g id="Node000168" class="node">
<title>Node168</title>
<g id="a_Node000168"><a xlink:href="lstrlib_8c.html#a039b391d5f43533a0ce750c5e40d7752" target="_top" xlink:title=" ">
<polygon fill="white" stroke="#666666" points="202,-498 150,-498 150,-479 202,-479 202,-498"/>
<text text-anchor="middle" x="176" y="-486" font-family="Helvetica,sans-Serif" font-size="10.00">str_sub</text>
</a>
</g>
</g>
<!-- Node533&#45;&gt;Node168 -->
<g id="edge33_Node000533_Node000168" class="edge">
<title>Node533&#45;&gt;Node168</title>
<g id="a_edge33_Node000533_Node000168"><a xlink:title=" ">
<path fill="none" stroke="#63b8ff" d="M259.65,-490.9C239.77,-490.33 218.28,-489.7 202.2,-489.23"/>
<polygon fill="#63b8ff" stroke="#63b8ff" points="259.76,-494.41 269.86,-491.2 259.96,-487.41 259.76,-494.41"/>
</a>
</g>
</g>
<!-- Node50 -->
<g id="Node000050" class="node">
<title>Node50</title>
<g id="a_Node000050"><a xlink:href="lstrlib_8c.html#a3f3c1925e7829cbe972a744fa9168ec3" target="_top" xlink:title=" ">
<polygon fill="white" stroke="#666666" points="211,-461 141,-461 141,-442 211,-442 211,-461"/>
<text text-anchor="middle" x="176" y="-449" font-family="Helvetica,sans-Serif" font-size="10.00">str_unpack</text>
</a>
</g>
</g>
<!-- Node533&#45;&gt;Node50 -->
<g id="edge34_Node000533_Node000050" class="edge">
<title>Node533&#45;&gt;Node50</title>
<g id="a_edge34_Node000533_Node000050"><a xlink:title=" ">
<path fill="none" stroke="#63b8ff" d="M272.92,-480.1C252.47,-474 228.2,-466.77 209.19,-461.1"/>
<polygon fill="#63b8ff" stroke="#63b8ff" points="272.03,-483.49 282.61,-482.99 274.03,-476.78 272.03,-483.49"/>
</a>
</g>
</g>
<!-- Node462&#45;&gt;Node426 -->
<g id="edge26_Node000462_Node000426" class="edge">
<title>Node462&#45;&gt;Node426</title>
<g id="a_edge26_Node000462_Node000426"><a xlink:title=" ">
<path fill="none" stroke="#63b8ff" d="M136.2,-375.5C121.64,-375.5 105.01,-375.5 90.01,-375.5"/>
<polygon fill="#63b8ff" stroke="#63b8ff" points="136.37,-379 146.37,-375.5 136.37,-372 136.37,-379"/>
</a>
</g>
</g>
<!-- Node491&#45;&gt;Node493 -->
<g id="edge31_Node000491_Node000493" class="edge">
<title>Node491&#45;&gt;Node493</title>
<g id="a_edge31_Node000491_Node000493"><a xlink:title=" ">
<path fill="none" stroke="#63b8ff" d="M149.79,-323.64C123.85,-308.37 84.23,-285.03 62.21,-272.05"/>
<polygon fill="#63b8ff" stroke="#63b8ff" points="148.27,-326.81 158.66,-328.87 151.82,-320.78 148.27,-326.81"/>
</a>
</g>
</g>
<!-- Node540 -->
<g id="Node000540" class="node">
<title>Node540</title>
<g id="a_Node000540"><a xlink:href="lapi_8c.html#a5fbc943e3486fad9672f9a74d7cb49b4" target="_top" xlink:title=" ">
<polygon fill="#fff0f0" stroke="red" points="354,-206 277,-206 277,-187 354,-187 354,-206"/>
<text text-anchor="middle" x="315.5" y="-194" font-family="Helvetica,sans-Serif" font-size="10.00">lua_tolstring</text>
</a>
</g>
</g>
<!-- Node539&#45;&gt;Node540 -->
<g id="edge36_Node000539_Node000540" class="edge">
<title>Node539&#45;&gt;Node540</title>
<g id="a_edge36_Node000539_Node000540"><a xlink:title=" ">
<path fill="none" stroke="#63b8ff" d="M423.71,-258.8C417.27,-255.78 410.78,-252.32 405,-248.5 386.64,-236.36 387.84,-225.88 369,-214.5 363.56,-211.21 357.43,-208.42 351.34,-206.09"/>
<polygon fill="#63b8ff" stroke="#63b8ff" points="422.46,-262.07 433.02,-262.91 425.29,-255.67 422.46,-262.07"/>
</a>
</g>
</g>
<!-- Node540&#45;&gt;Node493 -->
<g id="edge37_Node000540_Node000493" class="edge">
<title>Node540&#45;&gt;Node493</title>
<g id="a_edge37_Node000540_Node000493"><a xlink:title=" ">
<path fill="none" stroke="#63b8ff" d="M271.75,-209.8C268.39,-211.26 265.1,-212.82 262,-214.5 244.17,-224.14 244.78,-234.87 226,-242.5 175.9,-262.85 111.86,-264.89 75.24,-264.03"/>
<polygon fill="#63b8ff" stroke="#63b8ff" points="273.3,-212.96 281.3,-206.02 270.72,-206.45 273.3,-212.96"/>
</a>
</g>
</g>
<!-- Node543&#45;&gt;Node533 -->
<g id="edge41_Node000543_Node000533" class="edge">
<title>Node543&#45;&gt;Node533</title>
<g id="a_edge41_Node000543_Node000533"><a xlink:title=" ">
<path fill="none" stroke="#63b8ff" d="M420.19,-338.75C414.52,-341.86 409.2,-345.72 405,-350.5 367.12,-393.61 408.6,-432.96 369,-474.5 365.74,-477.92 361.81,-480.69 357.58,-482.93"/>
<polygon fill="#63b8ff" stroke="#63b8ff" points="421.74,-341.89 429.28,-334.45 418.74,-335.56 421.74,-341.89"/>
</a>
</g>
</g>
<!-- Node544 -->
<g id="Node000544" class="node">
<title>Node544</title>
<g id="a_Node000544"><a xlink:href="lapi_8c.html#a1b5746598f4bc03f763853ebe914f75f" target="_top" xlink:title=" ">
<polygon fill="#fff0f0" stroke="red" points="347,-465 284,-465 284,-446 347,-446 347,-465"/>
<text text-anchor="middle" x="315.5" y="-453" font-family="Helvetica,sans-Serif" font-size="10.00">auxgetstr</text>
</a>
</g>
</g>
<!-- Node543&#45;&gt;Node544 -->
<g id="edge39_Node000543_Node000544" class="edge">
<title>Node543&#45;&gt;Node544</title>
<g id="a_edge39_Node000543_Node000544"><a xlink:title=" ">
<path fill="none" stroke="#63b8ff" d="M420.05,-339.48C414.54,-342.48 409.3,-346.12 405,-350.5 375.69,-380.37 399.49,-408.84 369,-437.5 362.96,-443.17 355.06,-447.07 347.22,-449.74"/>
<polygon fill="#63b8ff" stroke="#63b8ff" points="421.94,-342.46 429.47,-335.01 418.93,-336.13 421.94,-342.46"/>
</a>
</g>
</g>
<!-- Node558 -->
<g id="Node000558" class="node">
<title>Node558</title>
<g id="a_Node000558"><a xlink:href="lapi_8c.html#a0667fbf88666853554967226d9a3df4d" target="_top" xlink:title=" ">
<polygon fill="#fff0f0" stroke="red" points="346.5,-428 284.5,-428 284.5,-409 346.5,-409 346.5,-428"/>
<text text-anchor="middle" x="315.5" y="-416" font-family="Helvetica,sans-Serif" font-size="10.00">auxsetstr</text>
</a>
</g>
</g>
<!-- Node543&#45;&gt;Node558 -->
<g id="edge40_Node000543_Node000558" class="edge">
<title>Node543&#45;&gt;Node558</title>
<g id="a_edge40_Node000543_Node000558"><a xlink:title=" ">
<path fill="none" stroke="#63b8ff" d="M420.93,-340.45C415.3,-343.33 409.8,-346.67 405,-350.5 383.89,-367.37 390.64,-383.31 369,-399.5 362.4,-404.43 354.4,-408.19 346.65,-411"/>
<polygon fill="#63b8ff" stroke="#63b8ff" points="422.82,-343.44 430.42,-336.06 419.88,-337.08 422.82,-343.44"/>
</a>
</g>
</g>
<!-- Node570 -->
<g id="Node000570" class="node">
<title>Node570</title>
<g id="a_Node000570"><a xlink:href="lapi_8c.html#a6dd1a745d08c2dd96916ff0f2f1ca9ad" target="_top" xlink:title=" ">
<polygon fill="#fff0f0" stroke="red" points="359.5,-243 271.5,-243 271.5,-224 359.5,-224 359.5,-243"/>
<text text-anchor="middle" x="315.5" y="-231" font-family="Helvetica,sans-Serif" font-size="10.00">lua_pushstring</text>
</a>
</g>
</g>
<!-- Node543&#45;&gt;Node570 -->
<g id="edge42_Node000543_Node000570" class="edge">
<title>Node543&#45;&gt;Node570</title>
<g id="a_edge42_Node000543_Node000570"><a xlink:title=" ">
<path fill="none" stroke="#63b8ff" d="M434.18,-311.44C424.64,-305.41 413.98,-298.1 405,-290.5 387,-275.26 388.76,-264.38 369,-251.5 363.83,-248.13 357.97,-245.32 352.08,-243"/>
<polygon fill="#63b8ff" stroke="#63b8ff" points="432.53,-314.54 442.88,-316.8 436.2,-308.58 432.53,-314.54"/>
</a>
</g>
</g>
<!-- Node610 -->
<g id="Node000610" class="node">
<title>Node610</title>
<g id="a_Node000610"><a xlink:href="ltm_8c.html#af0ec8a91a71f8e0fdcc4affdc1f57b3d" target="_top" xlink:title=" ">
<polygon fill="#fff0f0" stroke="red" points="345,-391 286,-391 286,-372 345,-372 345,-391"/>
<text text-anchor="middle" x="315.5" y="-379" font-family="Helvetica,sans-Serif" font-size="10.00">luaT_init</text>
</a>
</g>
</g>
<!-- Node543&#45;&gt;Node610 -->
<g id="edge44_Node000543_Node000610" class="edge">
<title>Node543&#45;&gt;Node610</title>
<g id="a_edge44_Node000543_Node000610"><a xlink:title=" ">
<path fill="none" stroke="#63b8ff" d="M426.9,-339.87C409.68,-346.75 388.26,-355.21 369,-362.5 360.66,-365.66 351.53,-369 343.26,-371.99"/>
<polygon fill="#63b8ff" stroke="#63b8ff" points="428.53,-342.98 436.51,-336.01 425.92,-336.49 428.53,-342.98"/>
</a>
</g>
</g>
<!-- Node615 -->
<g id="Node000615" class="node">
<title>Node615</title>
<g id="a_Node000615"><a xlink:href="ltm_8c.html#af2d87694e75cf07977250efb1d85d497" target="_top" xlink:title=" ">
<polygon fill="#fff0f0" stroke="red" points="369,-354 262,-354 262,-335 369,-335 369,-354"/>
<text text-anchor="middle" x="315.5" y="-342" font-family="Helvetica,sans-Serif" font-size="10.00">luaT_objtypename</text>
</a>
</g>
</g>
<!-- Node543&#45;&gt;Node615 -->
<g id="edge45_Node000543_Node000615" class="edge">
<title>Node543&#45;&gt;Node615</title>
<g id="a_edge45_Node000543_Node000615"><a xlink:title=" ">
<path fill="none" stroke="#63b8ff" d="M418.93,-331.65C403.46,-333.59 385.65,-335.83 369.26,-337.88"/>
<polygon fill="#63b8ff" stroke="#63b8ff" points="419.73,-335.08 429.22,-330.36 418.86,-328.13 419.73,-335.08"/>
</a>
</g>
</g>
<!-- Node3042 -->
<g id="Node003042" class="node">
<title>Node3042</title>
<g id="a_Node003042"><a xlink:href="llex_8c.html#a50834f7eb4b2ac79c8df048988749abe" target="_top" xlink:title=" ">
<polygon fill="#fff0f0" stroke="red" points="345,-317 286,-317 286,-298 345,-298 345,-317"/>
<text text-anchor="middle" x="315.5" y="-305" font-family="Helvetica,sans-Serif" font-size="10.00">luaX_init</text>
</a>
</g>
</g>
<!-- Node543&#45;&gt;Node3042 -->
<g id="edge46_Node000543_Node003042" class="edge">
<title>Node543&#45;&gt;Node3042</title>
<g id="a_edge46_Node000543_Node003042"><a xlink:title=" ">
<path fill="none" stroke="#63b8ff" d="M419.15,-321.09C395.56,-317.97 366.46,-314.12 345.28,-311.31"/>
<polygon fill="#63b8ff" stroke="#63b8ff" points="418.84,-324.58 429.22,-322.42 419.76,-317.64 418.84,-324.58"/>
</a>
</g>
</g>
<!-- Node2753 -->
<g id="Node002753" class="node">
<title>Node2753</title>
<g id="a_Node002753"><a xlink:href="lparser_8c.html#abbb1e5661495c9268282e55b387a819a" target="_top" xlink:title=" ">
<polygon fill="#fff0f0" stroke="red" points="352.5,-280 278.5,-280 278.5,-261 352.5,-261 352.5,-280"/>
<text text-anchor="middle" x="315.5" y="-268" font-family="Helvetica,sans-Serif" font-size="10.00">luaY_parser</text>
</a>
</g>
</g>
<!-- Node543&#45;&gt;Node2753 -->
<g id="edge47_Node000543_Node002753" class="edge">
<title>Node543&#45;&gt;Node2753</title>
<g id="a_edge47_Node000543_Node002753"><a xlink:title=" ">
<path fill="none" stroke="#63b8ff" d="M428.43,-312.72C411.01,-305.27 388.94,-296.07 369,-288.5 361.43,-285.63 353.18,-282.7 345.51,-280.07"/>
<polygon fill="#63b8ff" stroke="#63b8ff" points="427.53,-316.14 438.1,-316.88 430.29,-309.71 427.53,-316.14"/>
</a>
</g>
</g>
<!-- Node570&#45;&gt;Node426 -->
<g id="edge43_Node000570_Node000426" class="edge">
<title>Node570&#45;&gt;Node426</title>
<g id="a_edge43_Node000570_Node000426"><a xlink:title=" ">
<path fill="none" stroke="#63b8ff" d="M274.96,-246.42C270.56,-248.05 266.16,-249.76 262,-251.5 230.84,-264.56 155.03,-302.21 126,-319.5 101.09,-334.34 73.77,-354.34 58.36,-365.99"/>
<polygon fill="#63b8ff" stroke="#63b8ff" points="276.29,-249.66 284.53,-243 273.94,-243.07 276.29,-249.66"/>
</a>
</g>
</g>
<!-- Node2996&#45;&gt;Node29 -->
<g id="edge49_Node002996_Node000029" class="edge">
<title>Node2996&#45;&gt;Node29</title>
<g id="a_edge49_Node002996_Node000029"><a xlink:title=" ">
<path fill="none" stroke="#63b8ff" d="M412.62,-159.5C392.21,-159.5 368.81,-159.5 350.21,-159.5"/>
<polygon fill="#63b8ff" stroke="#63b8ff" points="412.67,-163 422.67,-159.5 412.67,-156 412.67,-163"/>
</a>
</g>
</g>
<!-- Node2996&#45;&gt;Node3002 -->
<g id="edge50_Node002996_Node003002" class="edge">
<title>Node2996&#45;&gt;Node3002</title>
<g id="a_edge50_Node002996_Node003002"><a xlink:title=" ">
<path fill="none" stroke="#63b8ff" d="M413.19,-147.43C389.53,-141.33 361.73,-134.16 342.02,-129.08"/>
<polygon fill="#63b8ff" stroke="#63b8ff" points="412.49,-150.86 423.05,-149.97 414.24,-144.09 412.49,-150.86"/>
</a>
</g>
</g>
<!-- Node2434 -->
<g id="Node002434" class="node">
<title>Node2434</title>
<g id="a_Node002434"><a xlink:href="lmem_8c.html#af0c92d038f767832eb8dd29eb0678096" target="_top" xlink:title=" ">
<polygon fill="white" stroke="#666666" points="789,-384 705,-384 705,-365 789,-365 789,-384"/>
<text text-anchor="middle" x="747" y="-372" font-family="Helvetica,sans-Serif" font-size="10.00">luaM_malloc_</text>
</a>
</g>
</g>
<!-- Node2433&#45;&gt;Node2434 -->
<g id="edge55_Node002433_Node002434" class="edge">
<title>Node2433&#45;&gt;Node2434</title>
<g id="a_edge55_Node002433_Node002434"><a xlink:title=" ">
<path fill="none" stroke="#63b8ff" d="M820.98,-385.73C810.69,-384.15 799.49,-382.42 789.01,-380.81"/>
<polygon fill="#63b8ff" stroke="#63b8ff" points="820.49,-389.19 830.9,-387.25 821.55,-382.27 820.49,-389.19"/>
</a>
</g>
</g>
<!-- Node2245 -->
<g id="Node002245" class="node">
<title>Node2245</title>
<g id="a_Node002245"><a xlink:href="lmem_8c.html#a7dd4e9ddf6987797216fa9cf4bc23954" target="_top" xlink:title=" ">
<polygon fill="white" stroke="#666666" points="789,-421 705,-421 705,-402 789,-402 789,-421"/>
<text text-anchor="middle" x="747" y="-409" font-family="Helvetica,sans-Serif" font-size="10.00">luaM_realloc_</text>
</a>
</g>
</g>
<!-- Node2433&#45;&gt;Node2245 -->
<g id="edge56_Node002433_Node002245" class="edge">
<title>Node2433&#45;&gt;Node2245</title>
<g id="a_edge56_Node002433_Node002245"><a xlink:title=" ">
<path fill="none" stroke="#63b8ff" d="M820.98,-398.29C810.69,-400.15 799.49,-402.18 789.01,-404.08"/>
<polygon fill="#63b8ff" stroke="#63b8ff" points="821.68,-401.72 830.9,-396.5 820.44,-394.83 821.68,-401.72"/>
</a>
</g>
</g>
<!-- Node2246 -->
<g id="Node002246" class="node">
<title>Node2246</title>
<g id="a_Node002246"><a xlink:href="lmem_8c.html#a8cb94bca57e8ae6aff344d3e6e4593af" target="_top" xlink:title=" ">
<polygon fill="white" stroke="#666666" points="663.5,-421 558.5,-421 558.5,-402 663.5,-402 663.5,-421"/>
<text text-anchor="middle" x="611" y="-409" font-family="Helvetica,sans-Serif" font-size="10.00">luaM_saferealloc_</text>
</a>
</g>
</g>
<!-- Node2245&#45;&gt;Node2246 -->
<g id="edge57_Node002245_Node002246" class="edge">
<title>Node2245&#45;&gt;Node2246</title>
<g id="a_edge57_Node002245_Node002246"><a xlink:title=" ">
<path fill="none" stroke="#63b8ff" d="M694.45,-411.5C684.4,-411.5 673.87,-411.5 663.81,-411.5"/>
<polygon fill="#63b8ff" stroke="#63b8ff" points="694.7,-415 704.7,-411.5 694.7,-408 694.7,-415"/>
</a>
</g>
</g>
<!-- Node2244 -->
<g id="Node002244" class="node">
<title>Node2244</title>
<g id="a_Node002244"><a xlink:href="lmem_8c.html#a1c0358fd91c39b2040eebb75ed4c14e5" target="_top" xlink:title=" ">
<polygon fill="white" stroke="#666666" points="507.5,-412 414.5,-412 414.5,-393 507.5,-393 507.5,-412"/>
<text text-anchor="middle" x="461" y="-400" font-family="Helvetica,sans-Serif" font-size="10.00">luaM_growaux_</text>
</a>
</g>
</g>
<!-- Node2246&#45;&gt;Node2244 -->
<g id="edge58_Node002246_Node002244" class="edge">
<title>Node2246&#45;&gt;Node2244</title>
<g id="a_edge58_Node002246_Node002244"><a xlink:title=" ">
<path fill="none" stroke="#63b8ff" d="M548.01,-407.73C534.45,-406.91 520.34,-406.05 507.57,-405.27"/>
<polygon fill="#63b8ff" stroke="#63b8ff" points="548.04,-411.24 558.24,-408.35 548.47,-404.25 548.04,-411.24"/>
</a>
</g>
</g>
<!-- Node2247 -->
<g id="Node002247" class="node">
<title>Node2247</title>
<g id="a_Node002247"><a xlink:href="lmem_8c.html#a7fe3cdb7f4720a11dc0054167d2be20b" target="_top" xlink:title=" ">
<polygon fill="white" stroke="#666666" points="517,-449 405,-449 405,-430 517,-430 517,-449"/>
<text text-anchor="middle" x="461" y="-437" font-family="Helvetica,sans-Serif" font-size="10.00">luaM_shrinkvector_</text>
</a>
</g>
</g>
<!-- Node2246&#45;&gt;Node2247 -->
<g id="edge59_Node002246_Node002247" class="edge">
<title>Node2246&#45;&gt;Node2247</title>
<g id="a_edge59_Node002246_Node002247"><a xlink:title=" ">
<path fill="none" stroke="#63b8ff" d="M549.3,-422.98C537,-425.31 524.19,-427.73 512.29,-429.99"/>
<polygon fill="#63b8ff" stroke="#63b8ff" points="550.31,-426.36 559.48,-421.06 549,-419.48 550.31,-426.36"/>
</a>
</g>
</g>
</g>
</svg>
