<?xml version="1.0" encoding="UTF-8" standalone="no"?>
<!DOCTYPE svg PUBLIC "-//W3C//DTD SVG 1.1//EN"
 "http://www.w3.org/Graphics/SVG/1.1/DTD/svg11.dtd">
<!-- Generated by graphviz version 2.43.0 (0)
 -->
<!-- Title: AscEmu/dep/g3dlite/include/G3D/LineSegment.h Pages: 1 -->
<svg width="667pt" height="170pt"
 viewBox="0.00 0.00 667.00 170.00" xmlns="http://www.w3.org/2000/svg" xmlns:xlink="http://www.w3.org/1999/xlink">
<g id="graph0" class="graph" transform="scale(1 1) rotate(0) translate(4 166)">
<title>AscEmu/dep/g3dlite/include/G3D/LineSegment.h</title>
<!-- Node1 -->
<g id="Node000001" class="node">
<title>Node1</title>
<g id="a_Node000001"><a xlink:title=" ">
<polygon fill="#999999" stroke="#666666" points="412,-162 257,-162 257,-132 412,-132 412,-162"/>
<text text-anchor="start" x="265" y="-150" font-family="Helvetica,sans-Serif" font-size="10.00">AscEmu/dep/g3dlite</text>
<text text-anchor="middle" x="334.5" y="-139" font-family="Helvetica,sans-Serif" font-size="10.00">/include/G3D/LineSegment.h</text>
</a>
</g>
</g>
<!-- Node2 -->
<g id="Node000002" class="node">
<title>Node2</title>
<g id="a_Node000002"><a xlink:href="Capsule_8cpp.html" target="_top" xlink:title=" ">
<polygon fill="white" stroke="#666666" points="113,-96 0,-96 0,-66 113,-66 113,-96"/>
<text text-anchor="start" x="8" y="-84" font-family="Helvetica,sans-Serif" font-size="10.00">AscEmu/dep/g3dlite</text>
<text text-anchor="middle" x="56.5" y="-73" font-family="Helvetica,sans-Serif" font-size="10.00">/Capsule.cpp</text>
</a>
</g>
</g>
<!-- Node1&#45;&gt;Node2 -->
<g id="edge1_Node000001_Node000002" class="edge">
<title>Node1&#45;&gt;Node2</title>
<g id="a_edge1_Node000001_Node000002"><a xlink:title=" ">
<path fill="none" stroke="#63b8ff" d="M263.74,-129.71C217.03,-118.96 156.63,-105.05 113.1,-95.03"/>
<polygon fill="#63b8ff" stroke="#63b8ff" points="262.96,-133.12 273.49,-131.95 264.53,-126.3 262.96,-133.12"/>
</a>
</g>
</g>
<!-- Node3 -->
<g id="Node000003" class="node">
<title>Node3</title>
<g id="a_Node000003"><a xlink:href="CollisionDetection_8cpp.html" target="_top" xlink:title=" ">
<polygon fill="white" stroke="#666666" points="260,-96 131,-96 131,-66 260,-66 260,-96"/>
<text text-anchor="start" x="139" y="-84" font-family="Helvetica,sans-Serif" font-size="10.00">AscEmu/dep/g3dlite</text>
<text text-anchor="middle" x="195.5" y="-73" font-family="Helvetica,sans-Serif" font-size="10.00">/CollisionDetection.cpp</text>
</a>
</g>
</g>
<!-- Node1&#45;&gt;Node3 -->
<g id="edge2_Node000001_Node000003" class="edge">
<title>Node1&#45;&gt;Node3</title>
<g id="a_edge2_Node000001_Node000003"><a xlink:title=" ">
<path fill="none" stroke="#63b8ff" d="M294.64,-127.65C272.78,-117.58 246.11,-105.3 225.93,-96.01"/>
<polygon fill="#63b8ff" stroke="#63b8ff" points="293.45,-130.95 304,-131.95 296.38,-124.59 293.45,-130.95"/>
</a>
</g>
</g>
<!-- Node4 -->
<g id="Node000004" class="node">
<title>Node4</title>
<g id="a_Node000004"><a xlink:href="Cylinder_8cpp.html" target="_top" xlink:title=" ">
<polygon fill="white" stroke="#666666" points="391,-96 278,-96 278,-66 391,-66 391,-96"/>
<text text-anchor="start" x="286" y="-84" font-family="Helvetica,sans-Serif" font-size="10.00">AscEmu/dep/g3dlite</text>
<text text-anchor="middle" x="334.5" y="-73" font-family="Helvetica,sans-Serif" font-size="10.00">/Cylinder.cpp</text>
</a>
</g>
</g>
<!-- Node1&#45;&gt;Node4 -->
<g id="edge3_Node000001_Node000004" class="edge">
<title>Node1&#45;&gt;Node4</title>
<g id="a_edge3_Node000001_Node000004"><a xlink:title=" ">
<path fill="none" stroke="#63b8ff" d="M334.5,-121.54C334.5,-112.96 334.5,-103.61 334.5,-96.16"/>
<polygon fill="#63b8ff" stroke="#63b8ff" points="331,-121.8 334.5,-131.8 338,-121.8 331,-121.8"/>
</a>
</g>
</g>
<!-- Node5 -->
<g id="Node000005" class="node">
<title>Node5</title>
<g id="a_Node000005"><a xlink:href="LineSegment_8cpp.html" target="_top" xlink:title=" ">
<polygon fill="white" stroke="#666666" points="522,-96 409,-96 409,-66 522,-66 522,-96"/>
<text text-anchor="start" x="417" y="-84" font-family="Helvetica,sans-Serif" font-size="10.00">AscEmu/dep/g3dlite</text>
<text text-anchor="middle" x="465.5" y="-73" font-family="Helvetica,sans-Serif" font-size="10.00">/LineSegment.cpp</text>
</a>
</g>
</g>
<!-- Node1&#45;&gt;Node5 -->
<g id="edge4_Node000001_Node000005" class="edge">
<title>Node1&#45;&gt;Node5</title>
<g id="a_edge4_Node000001_Node000005"><a xlink:title=" ">
<path fill="none" stroke="#63b8ff" d="M372.34,-127.51C392.89,-117.47 417.89,-105.26 436.82,-96.01"/>
<polygon fill="#63b8ff" stroke="#63b8ff" points="370.7,-124.42 363.25,-131.95 373.77,-130.71 370.7,-124.42"/>
</a>
</g>
</g>
<!-- Node6 -->
<g id="Node000006" class="node">
<title>Node6</title>
<g id="a_Node000006"><a xlink:href="G3D_8h.html" target="_top" xlink:title=" ">
<polygon fill="white" stroke="#666666" points="653,-96 540,-96 540,-66 653,-66 653,-96"/>
<text text-anchor="start" x="548" y="-84" font-family="Helvetica,sans-Serif" font-size="10.00">AscEmu/dep/g3dlite</text>
<text text-anchor="middle" x="596.5" y="-73" font-family="Helvetica,sans-Serif" font-size="10.00">/include/G3D/G3D.h</text>
</a>
</g>
</g>
<!-- Node1&#45;&gt;Node6 -->
<g id="edge5_Node000001_Node000006" class="edge">
<title>Node1&#45;&gt;Node6</title>
<g id="a_edge5_Node000001_Node000006"><a xlink:title=" ">
<path fill="none" stroke="#63b8ff" d="M401.74,-129.57C444.43,-119.15 499.06,-105.8 539.59,-95.9"/>
<polygon fill="#63b8ff" stroke="#63b8ff" points="400.88,-126.18 392,-131.95 402.54,-132.98 400.88,-126.18"/>
</a>
</g>
</g>
<!-- Node7 -->
<g id="Node000007" class="node">
<title>Node7</title>
<g id="a_Node000007"><a xlink:href="G3DAll_8h.html" target="_top" xlink:title=" ">
<polygon fill="white" stroke="#666666" points="659,-30 534,-30 534,0 659,0 659,-30"/>
<text text-anchor="start" x="542" y="-18" font-family="Helvetica,sans-Serif" font-size="10.00">AscEmu/dep/g3dlite</text>
<text text-anchor="middle" x="596.5" y="-7" font-family="Helvetica,sans-Serif" font-size="10.00">/include/G3D/G3DAll.h</text>
</a>
</g>
</g>
<!-- Node6&#45;&gt;Node7 -->
<g id="edge6_Node000006_Node000007" class="edge">
<title>Node6&#45;&gt;Node7</title>
<g id="a_edge6_Node000006_Node000007"><a xlink:title=" ">
<path fill="none" stroke="#63b8ff" d="M596.5,-55.54C596.5,-46.96 596.5,-37.61 596.5,-30.16"/>
<polygon fill="#63b8ff" stroke="#63b8ff" points="593,-55.8 596.5,-65.8 600,-55.8 593,-55.8"/>
</a>
</g>
</g>
</g>
</svg>
