<?xml version="1.0" encoding="UTF-8" standalone="no"?>
<!DOCTYPE svg PUBLIC "-//W3C//DTD SVG 1.1//EN"
 "http://www.w3.org/Graphics/SVG/1.1/DTD/svg11.dtd">
<!-- Generated by graphviz version 2.43.0 (0)
 -->
<!-- Title: read_number Pages: 1 -->
<!--zoomable 165 -->

<svg id="main" version="1.1" xmlns="http://www.w3.org/2000/svg" xmlns:xlink="http://www.w3.org/1999/xlink" xml:space="preserve" onload="init(evt)">
<style type="text/css"><![CDATA[
.node, .edge {opacity: 0.7;}
.node.selected, .edge.selected {opacity: 1;}
.edge:hover path { stroke: red; }
.edge:hover polygon { stroke: red; fill: red; }
]]></style>

<defs>
  <circle id="rim" cx="0" cy="0" r="7"/>
  <circle id="rim2" cx="0" cy="0" r="3.5"/>
  <g id="zoomPlus">
    <use xlink:href="#rim" fill="#404040"><set attributeName="fill" to="#808080" begin="zoomplus.mouseover" end="zoomplus.mouseout"/></use>
    <path d="M-4,0h8M0,-4v8" fill="none" stroke="white" stroke-width="1.5" pointer-events="none"/>
  </g>
  <g id="zoomMin">
    <use xlink:href="#rim" fill="#404040"><set attributeName="fill" to="#808080" begin="zoomminus.mouseover" end="zoomminus.mouseout"/></use>
    <path d="M-4,0h8" fill="none" stroke="white" stroke-width="1.5" pointer-events="none"/>
  </g>
  <g id="arrowUp" transform="translate(30 24)">
    <use xlink:href="#rim"/>
    <path pointer-events="none" fill="none" stroke="white" stroke-width="1.5" d="M0,-3.0v7 M-2.5,-0.5L0,-3.0L2.5,-0.5"/>
  </g>
  <g id="arrowRight" transform="rotate(90) translate(36 -43)">
    <use xlink:href="#rim"/>
    <path pointer-events="none" fill="none" stroke="white" stroke-width="1.5" d="M0,-3.0v7 M-2.5,-0.5L0,-3.0L2.5,-0.5"/>
  </g>
  <g id="arrowDown" transform="rotate(180) translate(-30 -48)">
    <use xlink:href="#rim"/>
    <path pointer-events="none" fill="none" stroke="white" stroke-width="1.5" d="M0,-3.0v7 M-2.5,-0.5L0,-3.0L2.5,-0.5"/>
  </g>
  <g id="arrowLeft" transform="rotate(270) translate(-36 17)">
    <use xlink:href="#rim"/>
    <path pointer-events="none" fill="none" stroke="white" stroke-width="1.5" d="M0,-3.0v7 M-2.5,-0.5L0,-3.0L2.5,-0.5"/>
  </g>
  <g id="resetDef">
    <use xlink:href="#rim2" fill="#404040"><set attributeName="fill" to="#808080" begin="reset.mouseover" end="reset.mouseout"/></use>
  </g>
</defs>
<script type="application/ecmascript">
var viewWidth = 908;
var viewHeight = 165;
var sectionId = 'dynsection-60';
</script>
<script type="application/ecmascript" xlink:href="svg.min.js"/>
<svg id="graph" class="graph">
<g id="viewport">
<title>read_number</title>
<!-- Node1 -->
<g id="Node000001" class="node">
<title>Node1</title>
<g id="a_Node000001"><a xlink:title=" ">
<polygon fill="#999999" stroke="#666666" points="81,-101 0,-101 0,-82 81,-82 81,-101"/>
<text text-anchor="middle" x="40.5" y="-89" font-family="Helvetica,sans-Serif" font-size="10.00">read_number</text>
</a>
</g>
</g>
<!-- Node2 -->
<g id="Node000002" class="node">
<title>Node2</title>
<g id="a_Node000002"><a xlink:href="lapi_8c.html#a1b4cd0d80f51e5545a97ca6c28c03c50" target="_top" xlink:title=" ">
<polygon fill="white" stroke="#666666" points="209,-157 137,-157 137,-138 209,-138 209,-157"/>
<text text-anchor="middle" x="173" y="-145" font-family="Helvetica,sans-Serif" font-size="10.00">lua_pushnil</text>
</a>
</g>
</g>
<!-- Node1&#45;&gt;Node2 -->
<g id="edge1_Node000001_Node000002" class="edge">
<title>Node1&#45;&gt;Node2</title>
<g id="a_edge1_Node000001_Node000002"><a xlink:title=" ">
<path fill="none" stroke="#63b8ff" d="M58.55,-101.01C73.63,-109.19 96.38,-120.99 117,-129.5 121.24,-131.25 125.72,-132.95 130.22,-134.56"/>
<polygon fill="#63b8ff" stroke="#63b8ff" points="129.41,-137.98 140,-137.93 131.69,-131.36 129.41,-137.98"/>
</a>
</g>
</g>
<!-- Node3 -->
<g id="Node000003" class="node">
<title>Node3</title>
<g id="a_Node000003"><a xlink:href="lapi_8c.html#ab9c2fb9e2b2c7dad7474dd4b6f1bbcd0" target="_top" xlink:title=" ">
<polygon fill="white" stroke="#666666" points="229,-120 117,-120 117,-101 229,-101 229,-120"/>
<text text-anchor="middle" x="173" y="-108" font-family="Helvetica,sans-Serif" font-size="10.00">lua_stringtonumber</text>
</a>
</g>
</g>
<!-- Node1&#45;&gt;Node3 -->
<g id="edge2_Node000001_Node000003" class="edge">
<title>Node1&#45;&gt;Node3</title>
<g id="a_edge2_Node000001_Node000003"><a xlink:title=" ">
<path fill="none" stroke="#63b8ff" d="M81.01,-97.25C89.18,-98.44 98,-99.73 106.82,-101.01"/>
<polygon fill="#63b8ff" stroke="#63b8ff" points="106.34,-104.48 116.74,-102.45 107.35,-97.55 106.34,-104.48"/>
</a>
</g>
</g>
<!-- Node15 -->
<g id="Node000015" class="node">
<title>Node15</title>
<g id="a_Node000015"><a xlink:href="liolib_8c.html#a7ab70833e31129b3a9d2b49869c72978" target="_top" xlink:title=" ">
<polygon fill="white" stroke="#666666" points="205.5,-83 140.5,-83 140.5,-64 205.5,-64 205.5,-83"/>
<text text-anchor="middle" x="173" y="-71" font-family="Helvetica,sans-Serif" font-size="10.00">readdigits</text>
</a>
</g>
</g>
<!-- Node1&#45;&gt;Node15 -->
<g id="edge14_Node000001_Node000015" class="edge">
<title>Node1&#45;&gt;Node15</title>
<g id="a_edge14_Node000001_Node000015"><a xlink:title=" ">
<path fill="none" stroke="#63b8ff" d="M81.01,-86.05C96.64,-83.89 114.62,-81.41 130.44,-79.23"/>
<polygon fill="#63b8ff" stroke="#63b8ff" points="131.06,-82.68 140.49,-77.85 130.1,-75.75 131.06,-82.68"/>
</a>
</g>
</g>
<!-- Node17 -->
<g id="Node000017" class="node">
<title>Node17</title>
<g id="a_Node000017"><a xlink:href="liolib_8c.html#a5c7dc3feb7edf50432b742767d4748f4" target="_top" xlink:title=" ">
<polygon fill="white" stroke="#666666" points="193.5,-46 152.5,-46 152.5,-27 193.5,-27 193.5,-46"/>
<text text-anchor="middle" x="173" y="-34" font-family="Helvetica,sans-Serif" font-size="10.00">test2</text>
</a>
</g>
</g>
<!-- Node1&#45;&gt;Node17 -->
<g id="edge16_Node000001_Node000017" class="edge">
<title>Node1&#45;&gt;Node17</title>
<g id="a_edge16_Node000001_Node000017"><a xlink:title=" ">
<path fill="none" stroke="#63b8ff" d="M59.18,-81.96C74.28,-74.03 96.72,-62.74 117,-54.5 125.21,-51.17 134.28,-47.99 142.66,-45.27"/>
<polygon fill="#63b8ff" stroke="#63b8ff" points="143.94,-48.53 152.42,-42.18 141.83,-41.86 143.94,-48.53"/>
</a>
</g>
</g>
<!-- Node4 -->
<g id="Node000004" class="node">
<title>Node4</title>
<g id="a_Node000004"><a xlink:href="lobject_8c.html#ab1956c979ca7ff39b07534390714505d" target="_top" xlink:title=" ">
<polygon fill="white" stroke="#666666" points="350,-120 265,-120 265,-101 350,-101 350,-120"/>
<text text-anchor="middle" x="307.5" y="-108" font-family="Helvetica,sans-Serif" font-size="10.00">luaO_str2num</text>
</a>
</g>
</g>
<!-- Node3&#45;&gt;Node4 -->
<g id="edge3_Node000003_Node000004" class="edge">
<title>Node3&#45;&gt;Node4</title>
<g id="a_edge3_Node000003_Node000004"><a xlink:title=" ">
<path fill="none" stroke="#63b8ff" d="M229.04,-110.5C237.53,-110.5 246.28,-110.5 254.7,-110.5"/>
<polygon fill="#63b8ff" stroke="#63b8ff" points="254.76,-114 264.76,-110.5 254.76,-107 254.76,-114"/>
</a>
</g>
</g>
<!-- Node5 -->
<g id="Node000005" class="node">
<title>Node5</title>
<g id="a_Node000005"><a xlink:href="lobject_8c.html#ab9a2de418e32a9bbe8b90fc7f8e77f35" target="_top" xlink:title=" ">
<polygon fill="white" stroke="#666666" points="439,-138 389,-138 389,-119 439,-119 439,-138"/>
<text text-anchor="middle" x="414" y="-126" font-family="Helvetica,sans-Serif" font-size="10.00">l_str2d</text>
</a>
</g>
</g>
<!-- Node4&#45;&gt;Node5 -->
<g id="edge4_Node000004_Node000005" class="edge">
<title>Node4&#45;&gt;Node5</title>
<g id="a_edge4_Node000004_Node000005"><a xlink:title=" ">
<path fill="none" stroke="#63b8ff" d="M350.1,-117.67C359.7,-119.32 369.79,-121.06 379.02,-122.65"/>
<polygon fill="#63b8ff" stroke="#63b8ff" points="378.54,-126.12 388.99,-124.36 379.73,-119.22 378.54,-126.12"/>
</a>
</g>
</g>
<!-- Node7 -->
<g id="Node000007" class="node">
<title>Node7</title>
<g id="a_Node000007"><a xlink:href="lobject_8c.html#a76769041a6821b04a5590286d3fc3534" target="_top" xlink:title=" ">
<polygon fill="white" stroke="#666666" points="442,-83 386,-83 386,-64 442,-64 442,-83"/>
<text text-anchor="middle" x="414" y="-71" font-family="Helvetica,sans-Serif" font-size="10.00">l_str2int</text>
</a>
</g>
</g>
<!-- Node4&#45;&gt;Node7 -->
<g id="edge6_Node000004_Node000007" class="edge">
<title>Node4&#45;&gt;Node7</title>
<g id="a_edge6_Node000004_Node000007"><a xlink:title=" ">
<path fill="none" stroke="#63b8ff" d="M335.41,-100.97C347.87,-96.56 362.86,-91.25 376.33,-86.48"/>
<polygon fill="#63b8ff" stroke="#63b8ff" points="377.56,-89.76 385.82,-83.12 375.22,-83.16 377.56,-89.76"/>
</a>
</g>
</g>
<!-- Node6 -->
<g id="Node000006" class="node">
<title>Node6</title>
<g id="a_Node000006"><a xlink:href="lobject_8c.html#a69b3b4d76ad64977dd5b9c7960f9f332" target="_top" xlink:title=" ">
<polygon fill="white" stroke="#666666" points="557.5,-148 493.5,-148 493.5,-129 557.5,-129 557.5,-148"/>
<text text-anchor="middle" x="525.5" y="-136" font-family="Helvetica,sans-Serif" font-size="10.00">l_str2dloc</text>
</a>
</g>
</g>
<!-- Node5&#45;&gt;Node6 -->
<g id="edge5_Node000005_Node000006" class="edge">
<title>Node5&#45;&gt;Node6</title>
<g id="a_edge5_Node000005_Node000006"><a xlink:title=" ">
<path fill="none" stroke="#63b8ff" d="M439.03,-130.69C452.02,-131.88 468.43,-133.38 483.38,-134.75"/>
<polygon fill="#63b8ff" stroke="#63b8ff" points="483.17,-138.24 493.45,-135.66 483.81,-131.27 483.17,-138.24"/>
</a>
</g>
</g>
<!-- Node8 -->
<g id="Node000008" class="node">
<title>Node8</title>
<g id="a_Node000008"><a xlink:href="lobject_8c.html#a3234b1ccb9cfbbd0892dcc6190a45876" target="_top" xlink:title=" ">
<polygon fill="white" stroke="#666666" points="547,-111 504,-111 504,-92 547,-92 547,-111"/>
<text text-anchor="middle" x="525.5" y="-99" font-family="Helvetica,sans-Serif" font-size="10.00">isneg</text>
</a>
</g>
</g>
<!-- Node7&#45;&gt;Node8 -->
<g id="edge7_Node000007_Node000008" class="edge">
<title>Node7&#45;&gt;Node8</title>
<g id="a_edge7_Node000007_Node000008"><a xlink:title=" ">
<path fill="none" stroke="#63b8ff" d="M442.07,-80.42C457.76,-84.43 477.56,-89.5 493.83,-93.66"/>
<polygon fill="#63b8ff" stroke="#63b8ff" points="493.37,-97.15 503.93,-96.24 495.1,-90.37 493.37,-97.15"/>
</a>
</g>
</g>
<!-- Node9 -->
<g id="Node000009" class="node">
<title>Node9</title>
<g id="a_Node000009"><a xlink:href="lobject_8c.html#ab73b1325bd3b1a6f9affc08fb46c07ec" target="_top" xlink:title=" ">
<polygon fill="white" stroke="#666666" points="573,-74 478,-74 478,-55 573,-55 573,-74"/>
<text text-anchor="middle" x="525.5" y="-62" font-family="Helvetica,sans-Serif" font-size="10.00">luaO_hexavalue</text>
</a>
</g>
</g>
<!-- Node7&#45;&gt;Node9 -->
<g id="edge8_Node000007_Node000009" class="edge">
<title>Node7&#45;&gt;Node9</title>
<g id="a_edge8_Node000007_Node000009"><a xlink:title=" ">
<path fill="none" stroke="#63b8ff" d="M442.07,-71.28C449.89,-70.63 458.74,-69.91 467.66,-69.17"/>
<polygon fill="#63b8ff" stroke="#63b8ff" points="468.03,-72.65 477.71,-68.35 467.45,-65.68 468.03,-72.65"/>
</a>
</g>
</g>
<!-- Node10 -->
<g id="Node000010" class="node">
<title>Node10</title>
<g id="a_Node000010"><a xlink:href="ltm__desc_8c.html#adc67bac9fd8e42c930369ddabaa5f2db" target="_top" xlink:title=" ">
<polygon fill="white" stroke="#666666" points="543,-37 508,-37 508,-18 543,-18 543,-37"/>
<text text-anchor="middle" x="525.5" y="-25" font-family="Helvetica,sans-Serif" font-size="10.00">neg</text>
</a>
</g>
</g>
<!-- Node7&#45;&gt;Node10 -->
<g id="edge9_Node000007_Node000010" class="edge">
<title>Node7&#45;&gt;Node10</title>
<g id="a_edge9_Node000007_Node000010"><a xlink:title=" ">
<path fill="none" stroke="#63b8ff" d="M435.89,-63.91C448.1,-58.38 463.85,-51.38 478,-45.5 484.4,-42.84 491.35,-40.08 497.87,-37.55"/>
<polygon fill="#63b8ff" stroke="#63b8ff" points="499.55,-40.65 507.63,-33.8 497.04,-34.12 499.55,-40.65"/>
</a>
</g>
</g>
<!-- Node11 -->
<g id="Node000011" class="node">
<title>Node11</title>
<g id="a_Node000011"><a xlink:href="bn__mp__neg_8c.html#a2d57acfc18c0a61119360b3e22898bab" target="_top" xlink:title=" ">
<polygon fill="white" stroke="#666666" points="685,-56 629,-56 629,-37 685,-37 685,-56"/>
<text text-anchor="middle" x="657" y="-44" font-family="Helvetica,sans-Serif" font-size="10.00">mp_neg</text>
</a>
</g>
</g>
<!-- Node10&#45;&gt;Node11 -->
<g id="edge10_Node000010_Node000011" class="edge">
<title>Node10&#45;&gt;Node11</title>
<g id="a_edge10_Node000010_Node000011"><a xlink:title=" ">
<path fill="none" stroke="#63b8ff" d="M543.16,-29.95C562.05,-32.72 593.45,-37.32 618.33,-40.97"/>
<polygon fill="#63b8ff" stroke="#63b8ff" points="618.14,-44.48 628.54,-42.47 619.16,-37.56 618.14,-44.48"/>
</a>
</g>
</g>
<!-- Node14 -->
<g id="Node000014" class="node">
<title>Node14</title>
<g id="a_Node000014"><a xlink:href="ltm__desc_8c.html#abc21dd3358332c6bcdd2ec873ab5c5a6" target="_top" xlink:title=" ">
<polygon fill="white" stroke="#666666" points="705,-19 609,-19 609,0 705,0 705,-19"/>
<text text-anchor="middle" x="657" y="-7" font-family="Helvetica,sans-Serif" font-size="10.00">mpi_to_ltc_error</text>
</a>
</g>
</g>
<!-- Node10&#45;&gt;Node14 -->
<g id="edge13_Node000010_Node000014" class="edge">
<title>Node10&#45;&gt;Node14</title>
<g id="a_edge13_Node000010_Node000014"><a xlink:title=" ">
<path fill="none" stroke="#63b8ff" d="M543.16,-25.18C557.31,-23.22 578.46,-20.28 598.64,-17.47"/>
<polygon fill="#63b8ff" stroke="#63b8ff" points="599.33,-20.91 608.75,-16.07 598.36,-13.98 599.33,-20.91"/>
</a>
</g>
</g>
<!-- Node12 -->
<g id="Node000012" class="node">
<title>Node12</title>
<g id="a_Node000012"><a xlink:href="bn__mp__copy_8c.html#a40137c186390668e7329fe8b4c169a81" target="_top" xlink:title=" ">
<polygon fill="white" stroke="#666666" points="802,-56 741,-56 741,-37 802,-37 802,-56"/>
<text text-anchor="middle" x="771.5" y="-44" font-family="Helvetica,sans-Serif" font-size="10.00">mp_copy</text>
</a>
</g>
</g>
<!-- Node11&#45;&gt;Node12 -->
<g id="edge11_Node000011_Node000012" class="edge">
<title>Node11&#45;&gt;Node12</title>
<g id="a_edge11_Node000011_Node000012"><a xlink:title=" ">
<path fill="none" stroke="#63b8ff" d="M685.23,-46.5C698.86,-46.5 715.63,-46.5 730.67,-46.5"/>
<polygon fill="#63b8ff" stroke="#63b8ff" points="730.75,-50 740.75,-46.5 730.75,-43 730.75,-50"/>
</a>
</g>
</g>
<!-- Node13 -->
<g id="Node000013" class="node">
<title>Node13</title>
<g id="a_Node000013"><a xlink:href="bn__mp__grow_8c.html#abdc9ad4bb753273a4f8076094a440191" target="_top" xlink:title=" ">
<polygon fill="white" stroke="#666666" points="900,-56 838,-56 838,-37 900,-37 900,-56"/>
<text text-anchor="middle" x="869" y="-44" font-family="Helvetica,sans-Serif" font-size="10.00">mp_grow</text>
</a>
</g>
</g>
<!-- Node12&#45;&gt;Node13 -->
<g id="edge12_Node000012_Node000013" class="edge">
<title>Node12&#45;&gt;Node13</title>
<g id="a_edge12_Node000012_Node000013"><a xlink:title=" ">
<path fill="none" stroke="#63b8ff" d="M802.19,-46.5C810.29,-46.5 819.2,-46.5 827.78,-46.5"/>
<polygon fill="#63b8ff" stroke="#63b8ff" points="828,-50 838,-46.5 828,-43 828,-50"/>
</a>
</g>
</g>
<!-- Node16 -->
<g id="Node000016" class="node">
<title>Node16</title>
<g id="a_Node000016"><a xlink:href="liolib_8c.html#ab75f5f85c38ee22fc9884f0bd7ef836d" target="_top" xlink:title=" ">
<polygon fill="white" stroke="#666666" points="329.5,-65 285.5,-65 285.5,-46 329.5,-46 329.5,-65"/>
<text text-anchor="middle" x="307.5" y="-53" font-family="Helvetica,sans-Serif" font-size="10.00">nextc</text>
</a>
</g>
</g>
<!-- Node15&#45;&gt;Node16 -->
<g id="edge15_Node000015_Node000016" class="edge">
<title>Node15&#45;&gt;Node16</title>
<g id="a_edge15_Node000015_Node000016"><a xlink:title=" ">
<path fill="none" stroke="#63b8ff" d="M205.74,-69.19C226.83,-66.32 254.39,-62.58 275.36,-59.73"/>
<polygon fill="#63b8ff" stroke="#63b8ff" points="275.92,-63.19 285.36,-58.37 274.97,-56.25 275.92,-63.19"/>
</a>
</g>
</g>
<!-- Node17&#45;&gt;Node16 -->
<g id="edge17_Node000017_Node000016" class="edge">
<title>Node17&#45;&gt;Node16</title>
<g id="a_edge17_Node000017_Node000016"><a xlink:title=" ">
<path fill="none" stroke="#63b8ff" d="M193.55,-39.3C214.97,-42.37 249.63,-47.34 274.91,-50.97"/>
<polygon fill="#63b8ff" stroke="#63b8ff" points="274.71,-54.48 285.11,-52.43 275.71,-47.55 274.71,-54.48"/>
</a>
</g>
</g>
</g>
</svg>

<g id="navigator" transform="translate(0 0)" fill="#404254">
  <rect fill="#f2f5e9" fill-opacity="0.5" stroke="#606060" stroke-width=".5" x="0" y="0" width="60" height="60"/>
  <use id="zoomplus" xlink:href="#zoomPlus" x="17" y="9" onmousedown="handleZoom(evt,'in')"/>
  <use id="zoomminus" xlink:href="#zoomMin" x="42" y="9" onmousedown="handleZoom(evt,'out')"/>
  <use id="reset" xlink:href="#resetDef" x="30" y="36" onmousedown="handleReset()"/>
   <use id="arrowup" xlink:href="#arrowUp" x="0" y="0" onmousedown="handlePan(0,-1)"/>
  <use id="arrowright" xlink:href="#arrowRight" x="0" y="0" onmousedown="handlePan(1,0)"/>
  <use id="arrowdown" xlink:href="#arrowDown" x="0" y="0" onmousedown="handlePan(0,1)"/>
  <use id="arrowleft" xlink:href="#arrowLeft" x="0" y="0" onmousedown="handlePan(-1,0)"/>
</g>
<svg viewBox="0 0 15 15" width="100%" height="30px" preserveAspectRatio="xMaxYMin meet">
 <g id="arrow_out" transform="scale(0.3 0.3)">
  <a xlink:href="liolib_8c_a5345908bf60e4bd37d768b052ac26ec7_cgraph_org.svg" target="_base">
   <rect id="button" ry="5" rx="5" y="6" x="6" height="38" width="38"
        fill="#f2f5e9" fill-opacity="0.5" stroke="#606060" stroke-width="1.0"/>
   <path id="arrow"
     d="M 11.500037,31.436501 C 11.940474,20.09759 22.043105,11.32322 32.158766,21.979434 L 37.068811,17.246167 C 37.068811,17.246167 37.088388,32 37.088388,32 L 22.160133,31.978069 C 22.160133,31.978069 26.997745,27.140456 26.997745,27.140456 C 18.528582,18.264221 13.291696,25.230495 11.500037,31.436501 z"
     style="fill:#404040;"/>
  </a>
 </g>
</svg>

<style type='text/css'>
<![CDATA[
[data-mouse-over-selected='false'] { opacity: 0.7; }
[data-mouse-over-selected='true']  { opacity: 1.0; }
]]>
</style>
<script type="application/ecmascript"><![CDATA[
document.addEventListener('DOMContentLoaded', (event) => {
  highlightEdges();
  highlightAdjacentNodes();
});
]]></script>
</svg>
