<?xml version="1.0" encoding="UTF-8" standalone="no"?>
<!DOCTYPE svg PUBLIC "-//W3C//DTD SVG 1.1//EN"
 "http://www.w3.org/Graphics/SVG/1.1/DTD/svg11.dtd">
<!-- Generated by graphviz version 2.43.0 (0)
 -->
<!-- Title: nextrand Pages: 1 -->
<svg width="308pt" height="193pt"
 viewBox="0.00 0.00 308.00 193.36" xmlns="http://www.w3.org/2000/svg" xmlns:xlink="http://www.w3.org/1999/xlink">

<svg id="main" version="1.1" xmlns="http://www.w3.org/2000/svg" xmlns:xlink="http://www.w3.org/1999/xlink" xml:space="preserve" onload="init(evt)">
<style type="text/css"><![CDATA[
.node, .edge {opacity: 0.7;}
.node.selected, .edge.selected {opacity: 1;}
.edge:hover path { stroke: red; }
.edge:hover polygon { stroke: red; fill: red; }
]]></style>
<script type="application/ecmascript" xlink:href="svg.min.js"/>
<svg id="graph" class="graph">
<g id="graph0" class="graph" transform="scale(1 1) rotate(0) translate(4 189.36)">
<title>nextrand</title>
<!-- Node1 -->
<g id="Node000001" class="node">
<title>Node1</title>
<g id="a_Node000001"><a xlink:title=" ">
<polygon fill="#999999" stroke="#666666" points="60,-114 0,-114 0,-95 60,-95 60,-114"/>
<text text-anchor="middle" x="30" y="-102" font-family="Helvetica,sans-Serif" font-size="10.00">nextrand</text>
</a>
</g>
</g>
<!-- Node2 -->
<g id="Node000002" class="node">
<title>Node2</title>
<g id="a_Node000002"><a xlink:href="lmathlib_8c.html#a5fe860c78def6ac52bd99153df082c3e" target="_top" xlink:title=" ">
<polygon fill="white" stroke="#666666" points="218.5,-170 184.5,-170 184.5,-151 218.5,-151 218.5,-170"/>
<text text-anchor="middle" x="201.5" y="-158" font-family="Helvetica,sans-Serif" font-size="10.00">Ishl</text>
</a>
</g>
</g>
<!-- Node1&#45;&gt;Node2 -->
<g id="edge1_Node000001_Node000002" class="edge">
<title>Node1&#45;&gt;Node2</title>
<g id="a_edge1_Node000001_Node000002"><a xlink:title=" ">
<path fill="none" stroke="#63b8ff" d="M35.8,-114.17C44.84,-131.18 66.22,-165.9 96,-179.5 121.31,-191.06 153.09,-182.39 174.92,-173.32"/>
<polygon fill="#63b8ff" stroke="#63b8ff" points="176.47,-176.46 184.19,-169.2 173.63,-170.07 176.47,-176.46"/>
</a>
</g>
</g>
<!-- Node4 -->
<g id="Node000004" class="node">
<title>Node4</title>
<g id="a_Node000004"><a xlink:href="lmathlib_8c.html#ac269f9bd785360abe156ba7c7cc67e21" target="_top" xlink:title=" ">
<polygon fill="white" stroke="#666666" points="138.5,-19 103.5,-19 103.5,0 138.5,0 138.5,-19"/>
<text text-anchor="middle" x="121" y="-7" font-family="Helvetica,sans-Serif" font-size="10.00">Ixor</text>
</a>
</g>
</g>
<!-- Node1&#45;&gt;Node4 -->
<g id="edge3_Node000001_Node000004" class="edge">
<title>Node1&#45;&gt;Node4</title>
<g id="a_edge3_Node000001_Node000004"><a xlink:title=" ">
<path fill="none" stroke="#63b8ff" d="M39.7,-94.73C52.04,-80.92 75.43,-54.99 96,-33.5 98.14,-31.26 100.41,-28.94 102.67,-26.65"/>
<polygon fill="#63b8ff" stroke="#63b8ff" points="105.5,-28.76 110.09,-19.21 100.55,-23.82 105.5,-28.76"/>
</a>
</g>
</g>
<!-- Node5 -->
<g id="Node000005" class="node">
<title>Node5</title>
<g id="a_Node000005"><a xlink:href="lmathlib_8c.html#af6d2c0cbed4c44224dc80230279c1b5d" target="_top" xlink:title=" ">
<polygon fill="white" stroke="#666666" points="218,-95 185,-95 185,-76 218,-76 218,-95"/>
<text text-anchor="middle" x="201.5" y="-83" font-family="Helvetica,sans-Serif" font-size="10.00">rotl</text>
</a>
</g>
</g>
<!-- Node1&#45;&gt;Node5 -->
<g id="edge4_Node000001_Node000005" class="edge">
<title>Node1&#45;&gt;Node5</title>
<g id="a_edge4_Node000001_Node000005"><a xlink:title=" ">
<path fill="none" stroke="#63b8ff" d="M60.14,-101.23C92.48,-97.61 144.17,-91.81 174.98,-88.36"/>
<polygon fill="#63b8ff" stroke="#63b8ff" points="175.39,-91.84 184.94,-87.24 174.61,-84.88 175.39,-91.84"/>
</a>
</g>
</g>
<!-- Node6 -->
<g id="Node000006" class="node">
<title>Node6</title>
<g id="a_Node000006"><a xlink:href="lmathlib_8c.html#a0a2a1bbd027f6e376a7043e2bdab7870" target="_top" xlink:title=" ">
<polygon fill="white" stroke="#666666" points="221,-58 182,-58 182,-39 221,-39 221,-58"/>
<text text-anchor="middle" x="201.5" y="-46" font-family="Helvetica,sans-Serif" font-size="10.00">rotl1</text>
</a>
</g>
</g>
<!-- Node1&#45;&gt;Node6 -->
<g id="edge6_Node000001_Node000006" class="edge">
<title>Node1&#45;&gt;Node6</title>
<g id="a_edge6_Node000001_Node000006"><a xlink:title=" ">
<path fill="none" stroke="#63b8ff" d="M60.14,-94.87C91.43,-84.53 140.84,-68.21 171.92,-57.94"/>
<polygon fill="#63b8ff" stroke="#63b8ff" points="173.31,-61.17 181.7,-54.71 171.11,-54.52 173.31,-61.17"/>
</a>
</g>
</g>
<!-- Node7 -->
<g id="Node000007" class="node">
<title>Node7</title>
<g id="a_Node000007"><a xlink:href="lmathlib_8c.html#a4708082c07e59916317e3baf2204504a" target="_top" xlink:title=" ">
<polygon fill="white" stroke="#666666" points="146,-170 96,-170 96,-151 146,-151 146,-170"/>
<text text-anchor="middle" x="121" y="-158" font-family="Helvetica,sans-Serif" font-size="10.00">times5</text>
</a>
</g>
</g>
<!-- Node1&#45;&gt;Node7 -->
<g id="edge8_Node000001_Node000007" class="edge">
<title>Node1&#45;&gt;Node7</title>
<g id="a_edge8_Node000001_Node000007"><a xlink:title=" ">
<path fill="none" stroke="#63b8ff" d="M46.5,-114.25C60.16,-122.85 80.27,-135.5 96,-145.4"/>
<polygon fill="#63b8ff" stroke="#63b8ff" points="94.35,-148.49 104.68,-150.86 98.08,-142.57 94.35,-148.49"/>
</a>
</g>
</g>
<!-- Node9 -->
<g id="Node000009" class="node">
<title>Node9</title>
<g id="a_Node000009"><a xlink:href="lmathlib_8c.html#a8276cb06bf824ed1d39fa2f3f0db6968" target="_top" xlink:title=" ">
<polygon fill="white" stroke="#666666" points="146,-133 96,-133 96,-114 146,-114 146,-133"/>
<text text-anchor="middle" x="121" y="-121" font-family="Helvetica,sans-Serif" font-size="10.00">times9</text>
</a>
</g>
</g>
<!-- Node1&#45;&gt;Node9 -->
<g id="edge12_Node000001_Node000009" class="edge">
<title>Node1&#45;&gt;Node9</title>
<g id="a_edge12_Node000001_Node000009"><a xlink:title=" ">
<path fill="none" stroke="#63b8ff" d="M60.14,-110.72C68.36,-112.48 77.37,-114.4 85.86,-116.21"/>
<polygon fill="#63b8ff" stroke="#63b8ff" points="85.34,-119.68 95.85,-118.34 86.8,-112.83 85.34,-119.68"/>
</a>
</g>
</g>
<!-- Node3 -->
<g id="Node000003" class="node">
<title>Node3</title>
<g id="a_Node000003"><a xlink:href="lmathlib_8c.html#a43beb45c0b29c5e7a866b193d6b8c546" target="_top" xlink:title=" ">
<polygon fill="white" stroke="#666666" points="300,-114 257,-114 257,-95 300,-95 300,-114"/>
<text text-anchor="middle" x="278.5" y="-102" font-family="Helvetica,sans-Serif" font-size="10.00">packI</text>
</a>
</g>
</g>
<!-- Node2&#45;&gt;Node3 -->
<g id="edge2_Node000002_Node000003" class="edge">
<title>Node2&#45;&gt;Node3</title>
<g id="a_edge2_Node000002_Node000003"><a xlink:title=" ">
<path fill="none" stroke="#63b8ff" d="M215.56,-150.75C226.86,-142.31 243.38,-129.97 256.53,-120.16"/>
<polygon fill="#63b8ff" stroke="#63b8ff" points="258.67,-122.93 264.59,-114.14 254.48,-117.32 258.67,-122.93"/>
</a>
</g>
</g>
<!-- Node5&#45;&gt;Node3 -->
<g id="edge5_Node000005_Node000003" class="edge">
<title>Node5&#45;&gt;Node3</title>
<g id="a_edge5_Node000005_Node000003"><a xlink:title=" ">
<path fill="none" stroke="#63b8ff" d="M218.04,-89.44C226.38,-91.55 236.97,-94.23 246.88,-96.74"/>
<polygon fill="#63b8ff" stroke="#63b8ff" points="246.3,-100.21 256.86,-99.27 248.02,-93.42 246.3,-100.21"/>
</a>
</g>
</g>
<!-- Node6&#45;&gt;Node3 -->
<g id="edge7_Node000006_Node000003" class="edge">
<title>Node6&#45;&gt;Node3</title>
<g id="a_edge7_Node000006_Node000003"><a xlink:title=" ">
<path fill="none" stroke="#63b8ff" d="M215.56,-58.25C226.86,-66.69 243.38,-79.03 256.53,-88.84"/>
<polygon fill="#63b8ff" stroke="#63b8ff" points="254.48,-91.68 264.59,-94.86 258.67,-86.07 254.48,-91.68"/>
</a>
</g>
</g>
<!-- Node7&#45;&gt;Node2 -->
<g id="edge11_Node000007_Node000002" class="edge">
<title>Node7&#45;&gt;Node2</title>
<g id="a_edge11_Node000007_Node000002"><a xlink:title=" ">
<path fill="none" stroke="#63b8ff" d="M146.41,-160.5C155.11,-160.5 164.96,-160.5 173.84,-160.5"/>
<polygon fill="#63b8ff" stroke="#63b8ff" points="174.06,-164 184.06,-160.5 174.06,-157 174.06,-164"/>
</a>
</g>
</g>
<!-- Node8 -->
<g id="Node000008" class="node">
<title>Node8</title>
<g id="a_Node000008"><a xlink:href="lmathlib_8c.html#a0f8118bb9ab66c0fee78e5bf183d436f" target="_top" xlink:title=" ">
<polygon fill="white" stroke="#666666" points="220.5,-133 182.5,-133 182.5,-114 220.5,-114 220.5,-133"/>
<text text-anchor="middle" x="201.5" y="-121" font-family="Helvetica,sans-Serif" font-size="10.00">Iadd</text>
</a>
</g>
</g>
<!-- Node7&#45;&gt;Node8 -->
<g id="edge9_Node000007_Node000008" class="edge">
<title>Node7&#45;&gt;Node8</title>
<g id="a_edge9_Node000007_Node000008"><a xlink:title=" ">
<path fill="none" stroke="#63b8ff" d="M142.22,-150.97C151.65,-146.53 163.02,-141.17 173.2,-136.37"/>
<polygon fill="#63b8ff" stroke="#63b8ff" points="174.94,-139.42 182.5,-131.99 171.96,-133.08 174.94,-139.42"/>
</a>
</g>
</g>
<!-- Node8&#45;&gt;Node3 -->
<g id="edge10_Node000008_Node000003" class="edge">
<title>Node8&#45;&gt;Node3</title>
<g id="a_edge10_Node000008_Node000003"><a xlink:title=" ">
<path fill="none" stroke="#63b8ff" d="M220.66,-118.9C228.59,-116.89 238.12,-114.48 247.09,-112.2"/>
<polygon fill="#63b8ff" stroke="#63b8ff" points="248.03,-115.58 256.86,-109.73 246.31,-108.79 248.03,-115.58"/>
</a>
</g>
</g>
<!-- Node9&#45;&gt;Node2 -->
<g id="edge14_Node000009_Node000002" class="edge">
<title>Node9&#45;&gt;Node2</title>
<g id="a_edge14_Node000009_Node000002"><a xlink:title=" ">
<path fill="none" stroke="#63b8ff" d="M142.22,-133.03C152.23,-137.75 164.43,-143.5 175.08,-148.52"/>
<polygon fill="#63b8ff" stroke="#63b8ff" points="173.77,-151.77 184.31,-152.87 176.75,-145.44 173.77,-151.77"/>
</a>
</g>
</g>
<!-- Node9&#45;&gt;Node8 -->
<g id="edge13_Node000009_Node000008" class="edge">
<title>Node9&#45;&gt;Node8</title>
<g id="a_edge13_Node000009_Node000008"><a xlink:title=" ">
<path fill="none" stroke="#63b8ff" d="M146.41,-123.5C154.51,-123.5 163.6,-123.5 171.98,-123.5"/>
<polygon fill="#63b8ff" stroke="#63b8ff" points="172.1,-127 182.1,-123.5 172.1,-120 172.1,-127"/>
</a>
</g>
</g>
</g>
</svg>
</svg>

<style type='text/css'>
<![CDATA[
[data-mouse-over-selected='false'] { opacity: 0.7; }
[data-mouse-over-selected='true']  { opacity: 1.0; }
]]>
</style>
<script type="application/ecmascript"><![CDATA[
document.addEventListener('DOMContentLoaded', (event) => {
  highlightEdges();
  highlightAdjacentNodes();
});
]]></script>
</svg>
