<?xml version="1.0" encoding="UTF-8" standalone="no"?>
<!DOCTYPE svg PUBLIC "-//W3C//DTD SVG 1.1//EN"
 "http://www.w3.org/Graphics/SVG/1.1/DTD/svg11.dtd">
<!-- Generated by graphviz version 2.43.0 (0)
 -->
<!-- Title: AscEmu/src/logonserver/LogonCommServer/LogonCommServer.h Pages: 1 -->
<!--zoomable 236 -->

<svg id="main" version="1.1" xmlns="http://www.w3.org/2000/svg" xmlns:xlink="http://www.w3.org/1999/xlink" xml:space="preserve" onload="init(evt)">
<style type="text/css"><![CDATA[
.node, .edge {opacity: 0.7;}
.node.selected, .edge.selected {opacity: 1;}
.edge:hover path { stroke: red; }
.edge:hover polygon { stroke: red; fill: red; }
]]></style>

<defs>
  <circle id="rim" cx="0" cy="0" r="7"/>
  <circle id="rim2" cx="0" cy="0" r="3.5"/>
  <g id="zoomPlus">
    <use xlink:href="#rim" fill="#404040"><set attributeName="fill" to="#808080" begin="zoomplus.mouseover" end="zoomplus.mouseout"/></use>
    <path d="M-4,0h8M0,-4v8" fill="none" stroke="white" stroke-width="1.5" pointer-events="none"/>
  </g>
  <g id="zoomMin">
    <use xlink:href="#rim" fill="#404040"><set attributeName="fill" to="#808080" begin="zoomminus.mouseover" end="zoomminus.mouseout"/></use>
    <path d="M-4,0h8" fill="none" stroke="white" stroke-width="1.5" pointer-events="none"/>
  </g>
  <g id="arrowUp" transform="translate(30 24)">
    <use xlink:href="#rim"/>
    <path pointer-events="none" fill="none" stroke="white" stroke-width="1.5" d="M0,-3.0v7 M-2.5,-0.5L0,-3.0L2.5,-0.5"/>
  </g>
  <g id="arrowRight" transform="rotate(90) translate(36 -43)">
    <use xlink:href="#rim"/>
    <path pointer-events="none" fill="none" stroke="white" stroke-width="1.5" d="M0,-3.0v7 M-2.5,-0.5L0,-3.0L2.5,-0.5"/>
  </g>
  <g id="arrowDown" transform="rotate(180) translate(-30 -48)">
    <use xlink:href="#rim"/>
    <path pointer-events="none" fill="none" stroke="white" stroke-width="1.5" d="M0,-3.0v7 M-2.5,-0.5L0,-3.0L2.5,-0.5"/>
  </g>
  <g id="arrowLeft" transform="rotate(270) translate(-36 17)">
    <use xlink:href="#rim"/>
    <path pointer-events="none" fill="none" stroke="white" stroke-width="1.5" d="M0,-3.0v7 M-2.5,-0.5L0,-3.0L2.5,-0.5"/>
  </g>
  <g id="resetDef">
    <use xlink:href="#rim2" fill="#404040"><set attributeName="fill" to="#808080" begin="reset.mouseover" end="reset.mouseout"/></use>
  </g>
</defs>
<script type="application/ecmascript">
var viewWidth = 1032;
var viewHeight = 236;
var sectionId = 'dynsection-1';
</script>
<script type="application/ecmascript" xlink:href="svg.min.js"/>
<svg id="graph" class="graph">
<g id="viewport">
<title>AscEmu/src/logonserver/LogonCommServer/LogonCommServer.h</title>
<!-- Node1 -->
<g id="Node000001" class="node">
<title>Node1</title>
<g id="a_Node000001"><a xlink:title=" ">
<polygon fill="#999999" stroke="#666666" points="812.5,-228 595.5,-228 595.5,-198 812.5,-198 812.5,-228"/>
<text text-anchor="start" x="603.5" y="-216" font-family="Helvetica,sans-Serif" font-size="10.00">AscEmu/src/logonserver</text>
<text text-anchor="middle" x="704" y="-205" font-family="Helvetica,sans-Serif" font-size="10.00">/LogonCommServer/LogonCommServer.h</text>
</a>
</g>
</g>
<!-- Node2 -->
<g id="Node000002" class="node">
<title>Node2</title>
<g id="a_Node000002"><a xlink:href="AuthSocket_8h.html" target="_top" xlink:title=" ">
<polygon fill="white" stroke="#666666" points="515,-162 381,-162 381,-132 515,-132 515,-162"/>
<text text-anchor="start" x="389" y="-150" font-family="Helvetica,sans-Serif" font-size="10.00">AscEmu/src/logonserver</text>
<text text-anchor="middle" x="448" y="-139" font-family="Helvetica,sans-Serif" font-size="10.00">/Auth/AuthSocket.h</text>
</a>
</g>
</g>
<!-- Node1&#45;&gt;Node2 -->
<g id="edge1_Node000001_Node000002" class="edge">
<title>Node1&#45;&gt;Node2</title>
<g id="a_edge1_Node000001_Node000002"><a xlink:title=" ">
<path fill="none" stroke="#63b8ff" d="M638.07,-195.52C596.55,-185.14 543.53,-171.88 504.05,-162.01"/>
<polygon fill="#63b8ff" stroke="#63b8ff" points="637.27,-198.92 647.82,-197.95 638.97,-192.13 637.27,-198.92"/>
</a>
</g>
</g>
<!-- Node8 -->
<g id="Node000008" class="node">
<title>Node8</title>
<g id="a_Node000008"><a xlink:href="RealmManager_8cpp.html" target="_top" xlink:title=" ">
<polygon fill="white" stroke="#666666" points="778,-30 630,-30 630,0 778,0 778,-30"/>
<text text-anchor="start" x="638" y="-18" font-family="Helvetica,sans-Serif" font-size="10.00">AscEmu/src/logonserver</text>
<text text-anchor="middle" x="704" y="-7" font-family="Helvetica,sans-Serif" font-size="10.00">/Realm/RealmManager.cpp</text>
</a>
</g>
</g>
<!-- Node1&#45;&gt;Node8 -->
<g id="edge17_Node000001_Node000008" class="edge">
<title>Node1&#45;&gt;Node8</title>
<g id="a_edge17_Node000001_Node000008"><a xlink:title=" ">
<path fill="none" stroke="#63b8ff" d="M704,-187.89C704,-146.58 704,-63.48 704,-30.23"/>
<polygon fill="#63b8ff" stroke="#63b8ff" points="700.5,-187.9 704,-197.9 707.5,-187.9 700.5,-187.9"/>
</a>
</g>
</g>
<!-- Node10 -->
<g id="Node000010" class="node">
<title>Node10</title>
<g id="a_Node000010"><a xlink:href="LogonCommServer_8cpp.html" target="_top" xlink:title=" ">
<polygon fill="white" stroke="#666666" points="1024,-30 796,-30 796,0 1024,0 1024,-30"/>
<text text-anchor="start" x="804" y="-18" font-family="Helvetica,sans-Serif" font-size="10.00">AscEmu/src/logonserver</text>
<text text-anchor="middle" x="910" y="-7" font-family="Helvetica,sans-Serif" font-size="10.00">/LogonCommServer/LogonCommServer.cpp</text>
</a>
</g>
</g>
<!-- Node1&#45;&gt;Node10 -->
<g id="edge16_Node000001_Node000010" class="edge">
<title>Node1&#45;&gt;Node10</title>
<g id="a_edge16_Node000001_Node000010"><a xlink:title=" ">
<path fill="none" stroke="#63b8ff" d="M726.1,-190.98C768.26,-150.85 859.2,-64.33 895.04,-30.23"/>
<polygon fill="#63b8ff" stroke="#63b8ff" points="723.65,-188.48 718.82,-197.9 728.47,-193.55 723.65,-188.48"/>
</a>
</g>
</g>
<!-- Node3 -->
<g id="Node000003" class="node">
<title>Node3</title>
<g id="a_Node000003"><a xlink:href="AuthSocket_8Legacy_8cpp.html" target="_top" xlink:title=" ">
<polygon fill="white" stroke="#666666" points="308,-30 152,-30 152,0 308,0 308,-30"/>
<text text-anchor="start" x="160" y="-18" font-family="Helvetica,sans-Serif" font-size="10.00">AscEmu/src/logonserver</text>
<text text-anchor="middle" x="230" y="-7" font-family="Helvetica,sans-Serif" font-size="10.00">/Auth/AuthSocket.Legacy.cpp</text>
</a>
</g>
</g>
<!-- Node2&#45;&gt;Node3 -->
<g id="edge2_Node000002_Node000003" class="edge">
<title>Node2&#45;&gt;Node3</title>
<g id="a_edge2_Node000002_Node000003"><a xlink:title=" ">
<path fill="none" stroke="#63b8ff" d="M370.62,-145.16C285.31,-142.41 156.01,-132.17 125,-96 101.44,-68.51 146.96,-44.48 185.26,-30.11"/>
<polygon fill="#63b8ff" stroke="#63b8ff" points="370.7,-148.67 380.79,-145.46 370.9,-141.67 370.7,-148.67"/>
</a>
</g>
</g>
<!-- Node4 -->
<g id="Node000004" class="node">
<title>Node4</title>
<g id="a_Node000004"><a xlink:href="AuthSocket_8cpp.html" target="_top" xlink:title=" ">
<polygon fill="white" stroke="#666666" points="268,-96 134,-96 134,-66 268,-66 268,-96"/>
<text text-anchor="start" x="142" y="-84" font-family="Helvetica,sans-Serif" font-size="10.00">AscEmu/src/logonserver</text>
<text text-anchor="middle" x="201" y="-73" font-family="Helvetica,sans-Serif" font-size="10.00">/Auth/AuthSocket.cpp</text>
</a>
</g>
</g>
<!-- Node2&#45;&gt;Node4 -->
<g id="edge3_Node000002_Node000004" class="edge">
<title>Node2&#45;&gt;Node4</title>
<g id="a_edge3_Node000002_Node000004"><a xlink:title=" ">
<path fill="none" stroke="#63b8ff" d="M383.88,-129.39C343.9,-119.03 293.02,-105.84 255.08,-96.01"/>
<polygon fill="#63b8ff" stroke="#63b8ff" points="383.24,-132.83 393.79,-131.95 384.99,-126.06 383.24,-132.83"/>
</a>
</g>
</g>
<!-- Node5 -->
<g id="Node000005" class="node">
<title>Node5</title>
<g id="a_Node000005"><a xlink:href="AutoPatcher_8h.html" target="_top" xlink:title=" ">
<polygon fill="white" stroke="#666666" points="420,-96 286,-96 286,-66 420,-66 420,-96"/>
<text text-anchor="start" x="294" y="-84" font-family="Helvetica,sans-Serif" font-size="10.00">AscEmu/src/logonserver</text>
<text text-anchor="middle" x="353" y="-73" font-family="Helvetica,sans-Serif" font-size="10.00">/Auth/AutoPatcher.h</text>
</a>
</g>
</g>
<!-- Node2&#45;&gt;Node5 -->
<g id="edge4_Node000002_Node000005" class="edge">
<title>Node2&#45;&gt;Node5</title>
<g id="a_edge4_Node000002_Node000005"><a xlink:title=" ">
<path fill="none" stroke="#63b8ff" d="M418.35,-126.03C403.98,-116.34 387.05,-104.94 374.02,-96.16"/>
<polygon fill="#63b8ff" stroke="#63b8ff" points="416.67,-129.11 426.92,-131.8 420.58,-123.31 416.67,-129.11"/>
</a>
</g>
</g>
<!-- Node7 -->
<g id="Node000007" class="node">
<title>Node7</title>
<g id="a_Node000007"><a xlink:href="logonserver_2Server_2Master_8cpp.html" target="_top" xlink:title=" ">
<polygon fill="white" stroke="#666666" points="460,-30 326,-30 326,0 460,0 460,-30"/>
<text text-anchor="start" x="334" y="-18" font-family="Helvetica,sans-Serif" font-size="10.00">AscEmu/src/logonserver</text>
<text text-anchor="middle" x="393" y="-7" font-family="Helvetica,sans-Serif" font-size="10.00">/Server/Master.cpp</text>
</a>
</g>
</g>
<!-- Node2&#45;&gt;Node7 -->
<g id="edge15_Node000002_Node000007" class="edge">
<title>Node2&#45;&gt;Node7</title>
<g id="a_edge15_Node000002_Node000007"><a xlink:title=" ">
<path fill="none" stroke="#63b8ff" d="M444.74,-121.56C441.96,-105.29 437.1,-83.72 429,-66 423.04,-52.96 413.46,-39.87 405.68,-30.36"/>
<polygon fill="#63b8ff" stroke="#63b8ff" points="441.35,-122.53 446.34,-131.87 448.26,-121.45 441.35,-122.53"/>
</a>
</g>
</g>
<!-- Node2&#45;&gt;Node8 -->
<g id="edge8_Node000002_Node000008" class="edge">
<title>Node2&#45;&gt;Node8</title>
<g id="a_edge8_Node000002_Node000008"><a xlink:title=" ">
<path fill="none" stroke="#63b8ff" d="M525.23,-135.48C560.06,-128.21 600.56,-116.09 633,-96 660.47,-78.99 683.4,-48.14 695.27,-30.13"/>
<polygon fill="#63b8ff" stroke="#63b8ff" points="524.22,-132.11 515.1,-137.49 525.59,-138.97 524.22,-132.11"/>
</a>
</g>
</g>
<!-- Node9 -->
<g id="Node000009" class="node">
<title>Node9</title>
<g id="a_Node000009"><a xlink:href="RealmManager_8hpp.html" target="_top" xlink:title=" ">
<polygon fill="white" stroke="#666666" points="624.5,-96 475.5,-96 475.5,-66 624.5,-66 624.5,-96"/>
<text text-anchor="start" x="483.5" y="-84" font-family="Helvetica,sans-Serif" font-size="10.00">AscEmu/src/logonserver</text>
<text text-anchor="middle" x="550" y="-73" font-family="Helvetica,sans-Serif" font-size="10.00">/Realm/RealmManager.hpp</text>
</a>
</g>
</g>
<!-- Node2&#45;&gt;Node9 -->
<g id="edge9_Node000002_Node000009" class="edge">
<title>Node2&#45;&gt;Node9</title>
<g id="a_edge9_Node000002_Node000009"><a xlink:title=" ">
<path fill="none" stroke="#63b8ff" d="M479.21,-126.42C494.86,-116.6 513.46,-104.93 527.67,-96.01"/>
<polygon fill="#63b8ff" stroke="#63b8ff" points="476.99,-123.68 470.38,-131.95 480.72,-129.6 476.99,-123.68"/>
</a>
</g>
</g>
<!-- Node5&#45;&gt;Node3 -->
<g id="edge5_Node000005_Node000003" class="edge">
<title>Node5&#45;&gt;Node3</title>
<g id="a_edge5_Node000005_Node000003"><a xlink:title=" ">
<path fill="none" stroke="#63b8ff" d="M316.95,-61.24C297.75,-51.25 274.54,-39.18 256.93,-30.01"/>
<polygon fill="#63b8ff" stroke="#63b8ff" points="315.52,-64.44 326.01,-65.95 318.75,-58.23 315.52,-64.44"/>
</a>
</g>
</g>
<!-- Node6 -->
<g id="Node000006" class="node">
<title>Node6</title>
<g id="a_Node000006"><a xlink:href="AutoPatcher_8cpp.html" target="_top" xlink:title=" ">
<polygon fill="white" stroke="#666666" points="134,-30 0,-30 0,0 134,0 134,-30"/>
<text text-anchor="start" x="8" y="-18" font-family="Helvetica,sans-Serif" font-size="10.00">AscEmu/src/logonserver</text>
<text text-anchor="middle" x="67" y="-7" font-family="Helvetica,sans-Serif" font-size="10.00">/Auth/AutoPatcher.cpp</text>
</a>
</g>
</g>
<!-- Node5&#45;&gt;Node6 -->
<g id="edge6_Node000005_Node000006" class="edge">
<title>Node5&#45;&gt;Node6</title>
<g id="a_edge6_Node000005_Node000006"><a xlink:title=" ">
<path fill="none" stroke="#63b8ff" d="M280.22,-63.71C233.71,-53.31 174.01,-39.95 129.62,-30.01"/>
<polygon fill="#63b8ff" stroke="#63b8ff" points="279.71,-67.19 290.24,-65.95 281.24,-60.36 279.71,-67.19"/>
</a>
</g>
</g>
<!-- Node5&#45;&gt;Node7 -->
<g id="edge7_Node000005_Node000007" class="edge">
<title>Node5&#45;&gt;Node7</title>
<g id="a_edge7_Node000005_Node000007"><a xlink:title=" ">
<path fill="none" stroke="#63b8ff" d="M367.22,-57.24C372.87,-48.21 379.18,-38.11 384.15,-30.16"/>
<polygon fill="#63b8ff" stroke="#63b8ff" points="364.21,-55.46 361.88,-65.8 370.15,-59.17 364.21,-55.46"/>
</a>
</g>
</g>
<!-- Node9&#45;&gt;Node3 -->
<g id="edge10_Node000009_Node000003" class="edge">
<title>Node9&#45;&gt;Node3</title>
<g id="a_edge10_Node000009_Node000003"><a xlink:title=" ">
<path fill="none" stroke="#63b8ff" d="M469.88,-63.98C417.65,-53.53 350.15,-40.03 300.06,-30.01"/>
<polygon fill="#63b8ff" stroke="#63b8ff" points="469.28,-67.43 479.77,-65.95 470.66,-60.56 469.28,-67.43"/>
</a>
</g>
</g>
<!-- Node9&#45;&gt;Node7 -->
<g id="edge13_Node000009_Node000007" class="edge">
<title>Node9&#45;&gt;Node7</title>
<g id="a_edge13_Node000009_Node000007"><a xlink:title=" ">
<path fill="none" stroke="#63b8ff" d="M505.98,-62.05C481.1,-51.91 450.47,-39.43 427.37,-30.01"/>
<polygon fill="#63b8ff" stroke="#63b8ff" points="504.96,-65.42 515.55,-65.95 507.61,-58.94 504.96,-65.42"/>
</a>
</g>
</g>
<!-- Node9&#45;&gt;Node8 -->
<g id="edge12_Node000009_Node000008" class="edge">
<title>Node9&#45;&gt;Node8</title>
<g id="a_edge12_Node000009_Node000008"><a xlink:title=" ">
<path fill="none" stroke="#63b8ff" d="M593.18,-62.05C617.58,-51.91 647.63,-39.43 670.28,-30.01"/>
<polygon fill="#63b8ff" stroke="#63b8ff" points="591.69,-58.89 583.8,-65.95 594.37,-65.35 591.69,-58.89"/>
</a>
</g>
</g>
<!-- Node9&#45;&gt;Node10 -->
<g id="edge11_Node000009_Node000010" class="edge">
<title>Node9&#45;&gt;Node10</title>
<g id="a_edge11_Node000009_Node000010"><a xlink:title=" ">
<path fill="none" stroke="#63b8ff" d="M634.7,-64.94C694.13,-54.38 773.04,-40.35 831.14,-30.02"/>
<polygon fill="#63b8ff" stroke="#63b8ff" points="633.83,-61.54 624.59,-66.74 635.05,-68.43 633.83,-61.54"/>
</a>
</g>
</g>
<!-- Node11 -->
<g id="Node000011" class="node">
<title>Node11</title>
<g id="a_Node000011"><a xlink:href="pchLogon_8hpp.html" target="_top" xlink:title=" ">
<polygon fill="white" stroke="#666666" points="612,-30 478,-30 478,0 612,0 612,-30"/>
<text text-anchor="start" x="486" y="-18" font-family="Helvetica,sans-Serif" font-size="10.00">AscEmu/src/logonserver</text>
<text text-anchor="middle" x="545" y="-7" font-family="Helvetica,sans-Serif" font-size="10.00">/pchLogon.hpp</text>
</a>
</g>
</g>
<!-- Node9&#45;&gt;Node11 -->
<g id="edge14_Node000009_Node000011" class="edge">
<title>Node9&#45;&gt;Node11</title>
<g id="a_edge14_Node000009_Node000011"><a xlink:title=" ">
<path fill="none" stroke="#63b8ff" d="M548.11,-55.83C547.44,-47.17 546.7,-37.7 546.11,-30.16"/>
<polygon fill="#63b8ff" stroke="#63b8ff" points="544.62,-56.1 548.89,-65.8 551.6,-55.55 544.62,-56.1"/>
</a>
</g>
</g>
</g>
</svg>

<g id="navigator" transform="translate(0 0)" fill="#404254">
  <rect fill="#f2f5e9" fill-opacity="0.5" stroke="#606060" stroke-width=".5" x="0" y="0" width="60" height="60"/>
  <use id="zoomplus" xlink:href="#zoomPlus" x="17" y="9" onmousedown="handleZoom(evt,'in')"/>
  <use id="zoomminus" xlink:href="#zoomMin" x="42" y="9" onmousedown="handleZoom(evt,'out')"/>
  <use id="reset" xlink:href="#resetDef" x="30" y="36" onmousedown="handleReset()"/>
   <use id="arrowup" xlink:href="#arrowUp" x="0" y="0" onmousedown="handlePan(0,-1)"/>
  <use id="arrowright" xlink:href="#arrowRight" x="0" y="0" onmousedown="handlePan(1,0)"/>
  <use id="arrowdown" xlink:href="#arrowDown" x="0" y="0" onmousedown="handlePan(0,1)"/>
  <use id="arrowleft" xlink:href="#arrowLeft" x="0" y="0" onmousedown="handlePan(-1,0)"/>
</g>
<svg viewBox="0 0 15 15" width="100%" height="30px" preserveAspectRatio="xMaxYMin meet">
 <g id="arrow_out" transform="scale(0.3 0.3)">
  <a xlink:href="LogonCommServer_8h__dep__incl_org.svg" target="_base">
   <rect id="button" ry="5" rx="5" y="6" x="6" height="38" width="38"
        fill="#f2f5e9" fill-opacity="0.5" stroke="#606060" stroke-width="1.0"/>
   <path id="arrow"
     d="M 11.500037,31.436501 C 11.940474,20.09759 22.043105,11.32322 32.158766,21.979434 L 37.068811,17.246167 C 37.068811,17.246167 37.088388,32 37.088388,32 L 22.160133,31.978069 C 22.160133,31.978069 26.997745,27.140456 26.997745,27.140456 C 18.528582,18.264221 13.291696,25.230495 11.500037,31.436501 z"
     style="fill:#404040;"/>
  </a>
 </g>
</svg>

<style type='text/css'>
<![CDATA[
[data-mouse-over-selected='false'] { opacity: 0.7; }
[data-mouse-over-selected='true']  { opacity: 1.0; }
]]>
</style>
<script type="application/ecmascript"><![CDATA[
document.addEventListener('DOMContentLoaded', (event) => {
  highlightEdges();
  highlightAdjacentNodes();
});
]]></script>
</svg>
