<?xml version="1.0" encoding="UTF-8" standalone="no"?>
<!DOCTYPE svg PUBLIC "-//W3C//DTD SVG 1.1//EN"
 "http://www.w3.org/Graphics/SVG/1.1/DTD/svg11.dtd">
<!-- Generated by graphviz version 2.43.0 (0)
 -->
<!-- Title: checktoclose Pages: 1 -->
<svg width="349pt" height="64pt"
 viewBox="0.00 0.00 349.00 64.00" xmlns="http://www.w3.org/2000/svg" xmlns:xlink="http://www.w3.org/1999/xlink">
<g id="graph0" class="graph" transform="scale(1 1) rotate(0) translate(4 60)">
<title>checktoclose</title>
<!-- Node1 -->
<g id="Node000001" class="node">
<title>Node1</title>
<g id="a_Node000001"><a xlink:title=" ">
<polygon fill="#999999" stroke="#666666" points="80,-37 0,-37 0,-18 80,-18 80,-37"/>
<text text-anchor="middle" x="40" y="-25" font-family="Helvetica,sans-Serif" font-size="10.00">checktoclose</text>
</a>
</g>
</g>
<!-- Node2 -->
<g id="Node000002" class="node">
<title>Node2</title>
<g id="a_Node000002"><a xlink:href="lparser_8c.html#ac3e24fb602eda0b2e2db3cf7cf1ff03a" target="_top" xlink:title=" ">
<polygon fill="white" stroke="#666666" points="211,-56 116,-56 116,-37 211,-37 211,-56"/>
<text text-anchor="middle" x="163.5" y="-44" font-family="Helvetica,sans-Serif" font-size="10.00">marktobeclosed</text>
</a>
</g>
</g>
<!-- Node1&#45;&gt;Node2 -->
<g id="edge1_Node000001_Node000002" class="edge">
<title>Node1&#45;&gt;Node2</title>
<g id="a_edge1_Node000001_Node000002"><a xlink:title=" ">
<path fill="none" stroke="#63b8ff" d="M80.11,-33.62C88.29,-34.9 97.07,-36.27 105.74,-37.62"/>
<polygon fill="#63b8ff" stroke="#63b8ff" points="105.4,-41.11 115.82,-39.2 106.48,-34.2 105.4,-41.11"/>
</a>
</g>
</g>
<!-- Node3 -->
<g id="Node000003" class="node">
<title>Node3</title>
<g id="a_Node000003"><a xlink:href="lparser_8c.html#a38e1e1ea62dd175a62cebc2d2dd69528" target="_top" xlink:title=" ">
<polygon fill="white" stroke="#666666" points="191.5,-19 135.5,-19 135.5,0 191.5,0 191.5,-19"/>
<text text-anchor="middle" x="163.5" y="-7" font-family="Helvetica,sans-Serif" font-size="10.00">reglevel</text>
</a>
</g>
</g>
<!-- Node1&#45;&gt;Node3 -->
<g id="edge2_Node000001_Node000003" class="edge">
<title>Node1&#45;&gt;Node3</title>
<g id="a_edge2_Node000001_Node000003"><a xlink:title=" ">
<path fill="none" stroke="#63b8ff" d="M80.11,-21.71C94.63,-19.56 111.04,-17.12 125.37,-15"/>
<polygon fill="#63b8ff" stroke="#63b8ff" points="126,-18.45 135.38,-13.52 124.97,-11.52 126,-18.45"/>
</a>
</g>
</g>
<!-- Node4 -->
<g id="Node000004" class="node">
<title>Node4</title>
<g id="a_Node000004"><a xlink:href="lparser_8c.html#a0f8864d1787dae0a9902cdbe382ba9e3" target="_top" xlink:title=" ">
<polygon fill="white" stroke="#666666" points="341,-19 247,-19 247,0 341,0 341,-19"/>
<text text-anchor="middle" x="294" y="-7" font-family="Helvetica,sans-Serif" font-size="10.00">getlocalvardesc</text>
</a>
</g>
</g>
<!-- Node3&#45;&gt;Node4 -->
<g id="edge3_Node000003_Node000004" class="edge">
<title>Node3&#45;&gt;Node4</title>
<g id="a_edge3_Node000003_Node000004"><a xlink:title=" ">
<path fill="none" stroke="#63b8ff" d="M191.75,-9.5C204.87,-9.5 221.1,-9.5 236.7,-9.5"/>
<polygon fill="#63b8ff" stroke="#63b8ff" points="236.82,-13 246.82,-9.5 236.82,-6 236.82,-13"/>
</a>
</g>
</g>
</g>
</svg>
