<?xml version="1.0" encoding="UTF-8" standalone="no"?>
<!DOCTYPE svg PUBLIC "-//W3C//DTD SVG 1.1//EN"
 "http://www.w3.org/Graphics/SVG/1.1/DTD/svg11.dtd">
<!-- Generated by graphviz version 2.43.0 (0)
 -->
<!-- Title: unsigned_read Pages: 1 -->
<svg width="573pt" height="144pt"
 viewBox="0.00 0.00 573.00 143.62" xmlns="http://www.w3.org/2000/svg" xmlns:xlink="http://www.w3.org/1999/xlink">
<g id="graph0" class="graph" transform="scale(1 1) rotate(0) translate(4 139.62)">
<title>unsigned_read</title>
<!-- Node1 -->
<g id="Node000001" class="node">
<title>Node1</title>
<g id="a_Node000001"><a xlink:title=" ">
<polygon fill="#999999" stroke="#666666" points="88,-71.95 0,-71.95 0,-52.95 88,-52.95 88,-71.95"/>
<text text-anchor="middle" x="44" y="-59.95" font-family="Helvetica,sans-Serif" font-size="10.00">unsigned_read</text>
</a>
</g>
</g>
<!-- Node2 -->
<g id="Node000002" class="node">
<title>Node2</title>
<g id="a_Node000002"><a xlink:href="bn__mp__read__unsigned__bin_8c.html#aa3a21edbce3e2999ca57b2386119fed1" target="_top" xlink:title=" ">
<polygon fill="white" stroke="#666666" points="253,-90.95 124,-90.95 124,-71.95 253,-71.95 253,-90.95"/>
<text text-anchor="middle" x="188.5" y="-78.95" font-family="Helvetica,sans-Serif" font-size="10.00">mp_read_unsigned_bin</text>
</a>
</g>
</g>
<!-- Node1&#45;&gt;Node2 -->
<g id="edge1_Node000001_Node000002" class="edge">
<title>Node1&#45;&gt;Node2</title>
<g id="a_edge1_Node000001_Node000002"><a xlink:title=" ">
<path fill="none" stroke="#63b8ff" d="M88.14,-68.2C96.3,-69.29 105.03,-70.45 113.82,-71.62"/>
<polygon fill="#63b8ff" stroke="#63b8ff" points="113.36,-75.09 123.74,-72.94 114.29,-68.15 113.36,-75.09"/>
</a>
</g>
</g>
<!-- Node9 -->
<g id="Node000009" class="node">
<title>Node9</title>
<g id="a_Node000009"><a xlink:href="ltm__desc_8c.html#abc21dd3358332c6bcdd2ec873ab5c5a6" target="_top" xlink:title=" ">
<polygon fill="white" stroke="#666666" points="236.5,-53.95 140.5,-53.95 140.5,-34.95 236.5,-34.95 236.5,-53.95"/>
<text text-anchor="middle" x="188.5" y="-41.95" font-family="Helvetica,sans-Serif" font-size="10.00">mpi_to_ltc_error</text>
</a>
</g>
</g>
<!-- Node1&#45;&gt;Node9 -->
<g id="edge12_Node000001_Node000009" class="edge">
<title>Node1&#45;&gt;Node9</title>
<g id="a_edge12_Node000001_Node000009"><a xlink:title=" ">
<path fill="none" stroke="#63b8ff" d="M88.14,-57C101.39,-55.32 116.18,-53.45 130.22,-51.68"/>
<polygon fill="#63b8ff" stroke="#63b8ff" points="130.8,-55.14 140.28,-50.41 129.92,-48.19 130.8,-55.14"/>
</a>
</g>
</g>
<!-- Node3 -->
<g id="Node000003" class="node">
<title>Node3</title>
<g id="a_Node000003"><a xlink:href="bn__mp__clamp_8c.html#aa857c7afa73b9c5d5f24168f0d8d815e" target="_top" xlink:title=" ">
<polygon fill="white" stroke="#666666" points="467,-109.95 399,-109.95 399,-90.95 467,-90.95 467,-109.95"/>
<text text-anchor="middle" x="433" y="-97.95" font-family="Helvetica,sans-Serif" font-size="10.00">mp_clamp</text>
</a>
</g>
</g>
<!-- Node2&#45;&gt;Node3 -->
<g id="edge2_Node000002_Node000003" class="edge">
<title>Node2&#45;&gt;Node3</title>
<g id="a_edge2_Node000002_Node000003"><a xlink:title=" ">
<path fill="none" stroke="#63b8ff" d="M253.21,-86.44C295.93,-89.79 351.04,-94.1 388.72,-97.06"/>
<polygon fill="#63b8ff" stroke="#63b8ff" points="388.61,-100.56 398.86,-97.85 389.16,-93.58 388.61,-100.56"/>
</a>
</g>
</g>
<!-- Node4 -->
<g id="Node000004" class="node">
<title>Node4</title>
<g id="a_Node000004"><a xlink:href="bn__mp__grow_8c.html#abdc9ad4bb753273a4f8076094a440191" target="_top" xlink:title=" ">
<polygon fill="white" stroke="#666666" points="565,-53.95 503,-53.95 503,-34.95 565,-34.95 565,-53.95"/>
<text text-anchor="middle" x="534" y="-41.95" font-family="Helvetica,sans-Serif" font-size="10.00">mp_grow</text>
</a>
</g>
</g>
<!-- Node2&#45;&gt;Node4 -->
<g id="edge3_Node000002_Node000004" class="edge">
<title>Node2&#45;&gt;Node4</title>
<g id="a_edge3_Node000002_Node000004"><a xlink:title=" ">
<path fill="none" stroke="#63b8ff" d="M209.04,-91.05C255.86,-112.62 377.27,-160.01 467,-119.45 492.34,-107.99 511.82,-81.47 522.85,-63.25"/>
<polygon fill="#63b8ff" stroke="#63b8ff" points="526.14,-64.54 528.09,-54.12 520.07,-61.05 526.14,-64.54"/>
</a>
</g>
</g>
<!-- Node5 -->
<g id="Node000005" class="node">
<title>Node5</title>
<g id="a_Node000005"><a xlink:href="bn__mp__mul__2d_8c.html#a52798405022130ba14dabc4846ccd380" target="_top" xlink:title=" ">
<polygon fill="white" stroke="#666666" points="363,-71.95 289,-71.95 289,-52.95 363,-52.95 363,-71.95"/>
<text text-anchor="middle" x="326" y="-59.95" font-family="Helvetica,sans-Serif" font-size="10.00">mp_mul_2d</text>
</a>
</g>
</g>
<!-- Node2&#45;&gt;Node5 -->
<g id="edge4_Node000002_Node000005" class="edge">
<title>Node2&#45;&gt;Node5</title>
<g id="a_edge4_Node000002_Node000005"><a xlink:title=" ">
<path fill="none" stroke="#63b8ff" d="M253.28,-72.5C261.87,-71.3 270.55,-70.08 278.76,-68.93"/>
<polygon fill="#63b8ff" stroke="#63b8ff" points="279.44,-72.37 288.86,-67.51 278.47,-65.44 279.44,-72.37"/>
</a>
</g>
</g>
<!-- Node8 -->
<g id="Node000008" class="node">
<title>Node8</title>
<g id="a_Node000008"><a xlink:href="bn__mp__zero_8c.html#a9725d2cb7b409f9b19bec41fa2cf8f8b" target="_top" xlink:title=" ">
<polygon fill="white" stroke="#666666" points="355.5,-34.95 296.5,-34.95 296.5,-15.95 355.5,-15.95 355.5,-34.95"/>
<text text-anchor="middle" x="326" y="-22.95" font-family="Helvetica,sans-Serif" font-size="10.00">mp_zero</text>
</a>
</g>
</g>
<!-- Node2&#45;&gt;Node8 -->
<g id="edge11_Node000002_Node000008" class="edge">
<title>Node2&#45;&gt;Node8</title>
<g id="a_edge11_Node000002_Node000008"><a xlink:title=" ">
<path fill="none" stroke="#63b8ff" d="M225.86,-71.9C234.85,-69.17 244.37,-65.97 253,-62.45 269.75,-55.6 272.91,-51.71 289,-43.45 291.42,-42.2 293.94,-40.92 296.47,-39.64"/>
<polygon fill="#63b8ff" stroke="#63b8ff" points="298.17,-42.7 305.53,-35.08 295.02,-36.45 298.17,-42.7"/>
</a>
</g>
</g>
<!-- Node5&#45;&gt;Node3 -->
<g id="edge5_Node000005_Node000003" class="edge">
<title>Node5&#45;&gt;Node3</title>
<g id="a_edge5_Node000005_Node000003"><a xlink:title=" ">
<path fill="none" stroke="#63b8ff" d="M353.5,-72.04C366.3,-76.67 381.88,-82.31 395.76,-87.33"/>
<polygon fill="#63b8ff" stroke="#63b8ff" points="394.92,-90.75 405.51,-90.86 397.3,-84.17 394.92,-90.75"/>
</a>
</g>
</g>
<!-- Node5&#45;&gt;Node4 -->
<g id="edge8_Node000005_Node000004" class="edge">
<title>Node5&#45;&gt;Node4</title>
<g id="a_edge8_Node000005_Node000004"><a xlink:title=" ">
<path fill="none" stroke="#63b8ff" d="M347.82,-52.81C352.97,-50.07 358.34,-46.89 363,-43.45 381.21,-30.02 378.09,-16.11 399,-7.45 426.92,4.12 437.76,0.19 467,-7.45 483.16,-11.67 499.55,-20.82 511.95,-28.97"/>
<polygon fill="#63b8ff" stroke="#63b8ff" points="509.99,-31.87 520.22,-34.64 513.95,-26.1 509.99,-31.87"/>
</a>
</g>
</g>
<!-- Node6 -->
<g id="Node000006" class="node">
<title>Node6</title>
<g id="a_Node000006"><a xlink:href="bn__mp__copy_8c.html#a40137c186390668e7329fe8b4c169a81" target="_top" xlink:title=" ">
<polygon fill="white" stroke="#666666" points="463.5,-72.95 402.5,-72.95 402.5,-53.95 463.5,-53.95 463.5,-72.95"/>
<text text-anchor="middle" x="433" y="-60.95" font-family="Helvetica,sans-Serif" font-size="10.00">mp_copy</text>
</a>
</g>
</g>
<!-- Node5&#45;&gt;Node6 -->
<g id="edge6_Node000005_Node000006" class="edge">
<title>Node5&#45;&gt;Node6</title>
<g id="a_edge6_Node000005_Node000006"><a xlink:title=" ">
<path fill="none" stroke="#63b8ff" d="M363.14,-62.79C372.54,-62.88 382.73,-62.98 392.32,-63.07"/>
<polygon fill="#63b8ff" stroke="#63b8ff" points="392.38,-66.57 402.41,-63.16 392.44,-59.57 392.38,-66.57"/>
</a>
</g>
</g>
<!-- Node7 -->
<g id="Node000007" class="node">
<title>Node7</title>
<g id="a_Node000007"><a xlink:href="bn__mp__lshd_8c.html#aa895618828f6fc9affb25df273f1bc9d" target="_top" xlink:title=" ">
<polygon fill="white" stroke="#666666" points="462,-35.95 404,-35.95 404,-16.95 462,-16.95 462,-35.95"/>
<text text-anchor="middle" x="433" y="-23.95" font-family="Helvetica,sans-Serif" font-size="10.00">mp_lshd</text>
</a>
</g>
</g>
<!-- Node5&#45;&gt;Node7 -->
<g id="edge9_Node000005_Node000007" class="edge">
<title>Node5&#45;&gt;Node7</title>
<g id="a_edge9_Node000005_Node000007"><a xlink:title=" ">
<path fill="none" stroke="#63b8ff" d="M354.86,-52.89C366.97,-48.74 381.33,-43.82 394.36,-39.35"/>
<polygon fill="#63b8ff" stroke="#63b8ff" points="395.68,-42.6 404.01,-36.04 393.41,-35.98 395.68,-42.6"/>
</a>
</g>
</g>
<!-- Node6&#45;&gt;Node4 -->
<g id="edge7_Node000006_Node000004" class="edge">
<title>Node6&#45;&gt;Node4</title>
<g id="a_edge7_Node000006_Node000004"><a xlink:title=" ">
<path fill="none" stroke="#63b8ff" d="M463.7,-57.75C472.92,-55.98 483.23,-54 493.02,-52.12"/>
<polygon fill="#63b8ff" stroke="#63b8ff" points="493.81,-55.53 502.98,-50.21 492.5,-48.66 493.81,-55.53"/>
</a>
</g>
</g>
<!-- Node7&#45;&gt;Node4 -->
<g id="edge10_Node000007_Node000004" class="edge">
<title>Node7&#45;&gt;Node4</title>
<g id="a_edge10_Node000007_Node000004"><a xlink:title=" ">
<path fill="none" stroke="#63b8ff" d="M462.1,-31.56C471.62,-33.29 482.45,-35.26 492.72,-37.12"/>
<polygon fill="#63b8ff" stroke="#63b8ff" points="492.28,-40.6 502.75,-38.95 493.53,-33.71 492.28,-40.6"/>
</a>
</g>
</g>
</g>
</svg>
