<?xml version="1.0" encoding="UTF-8" standalone="no"?>
<!DOCTYPE svg PUBLIC "-//W3C//DTD SVG 1.1//EN"
 "http://www.w3.org/Graphics/SVG/1.1/DTD/svg11.dtd">
<!-- Generated by graphviz version 2.43.0 (0)
 -->
<!-- Title: divide Pages: 1 -->
<svg width="602pt" height="822pt"
 viewBox="0.00 0.00 602.00 822.00" xmlns="http://www.w3.org/2000/svg" xmlns:xlink="http://www.w3.org/1999/xlink">
<g id="graph0" class="graph" transform="scale(1 1) rotate(0) translate(4 818)">
<title>divide</title>
<!-- Node1 -->
<g id="Node000001" class="node">
<title>Node1</title>
<g id="a_Node000001"><a xlink:title=" ">
<polygon fill="#999999" stroke="#666666" points="47,-227 0,-227 0,-208 47,-208 47,-227"/>
<text text-anchor="middle" x="23.5" y="-215" font-family="Helvetica,sans-Serif" font-size="10.00">divide</text>
</a>
</g>
</g>
<!-- Node2 -->
<g id="Node000002" class="node">
<title>Node2</title>
<g id="a_Node000002"><a xlink:href="bn__mp__div_8c.html#a480bf1c3f72e8068ae94cb32e19a2738" target="_top" xlink:title=" ">
<polygon fill="white" stroke="#666666" points="136,-455 83,-455 83,-436 136,-436 136,-455"/>
<text text-anchor="middle" x="109.5" y="-443" font-family="Helvetica,sans-Serif" font-size="10.00">mp_div</text>
</a>
</g>
</g>
<!-- Node1&#45;&gt;Node2 -->
<g id="edge1_Node000001_Node000002" class="edge">
<title>Node1&#45;&gt;Node2</title>
<g id="a_edge1_Node000001_Node000002"><a xlink:title=" ">
<path fill="none" stroke="#63b8ff" d="M28,-227.01C40.68,-261.41 84.31,-379.84 101.48,-426.44"/>
<polygon fill="#63b8ff" stroke="#63b8ff" points="98.24,-427.78 104.98,-435.95 104.81,-425.36 98.24,-427.78"/>
</a>
</g>
</g>
<!-- Node27 -->
<g id="Node000027" class="node">
<title>Node27</title>
<g id="a_Node000027"><a xlink:href="ltm__desc_8c.html#abc21dd3358332c6bcdd2ec873ab5c5a6" target="_top" xlink:title=" ">
<polygon fill="white" stroke="#666666" points="392,-19 296,-19 296,0 392,0 392,-19"/>
<text text-anchor="middle" x="344" y="-7" font-family="Helvetica,sans-Serif" font-size="10.00">mpi_to_ltc_error</text>
</a>
</g>
</g>
<!-- Node1&#45;&gt;Node27 -->
<g id="edge57_Node000001_Node000027" class="edge">
<title>Node1&#45;&gt;Node27</title>
<g id="a_edge57_Node000001_Node000027"><a xlink:title=" ">
<path fill="none" stroke="#63b8ff" d="M28.96,-207.77C43.94,-176.29 95.85,-76.82 172,-33.5 206.39,-13.94 250.77,-8.17 285.69,-7.17"/>
<polygon fill="#63b8ff" stroke="#63b8ff" points="285.8,-10.66 295.74,-7 285.69,-3.67 285.8,-10.66"/>
</a>
</g>
</g>
<!-- Node3 -->
<g id="Node000003" class="node">
<title>Node3</title>
<g id="a_Node000003"><a xlink:href="bn__mp__add_8c.html#a394e42368265b70fcf0540c4a4eebc21" target="_top" xlink:title=" ">
<polygon fill="white" stroke="#666666" points="244,-664 188,-664 188,-645 244,-645 244,-664"/>
<text text-anchor="middle" x="216" y="-652" font-family="Helvetica,sans-Serif" font-size="10.00">mp_add</text>
</a>
</g>
</g>
<!-- Node2&#45;&gt;Node3 -->
<g id="edge2_Node000002_Node000003" class="edge">
<title>Node2&#45;&gt;Node3</title>
<g id="a_edge2_Node000002_Node000003"><a xlink:title=" ">
<path fill="none" stroke="#63b8ff" d="M111.27,-455.12C114.1,-484.63 126.25,-575.22 172,-630.5 174.76,-633.83 178.11,-636.79 181.71,-639.38"/>
<polygon fill="#63b8ff" stroke="#63b8ff" points="180.06,-642.48 190.4,-644.79 183.76,-636.53 180.06,-642.48"/>
</a>
</g>
</g>
<!-- Node4 -->
<g id="Node000004" class="node">
<title>Node4</title>
<g id="a_Node000004"><a xlink:href="bn__mp__cmp__mag_8c.html#a121088764f89bf3b1c563a5d81c8ed9a" target="_top" xlink:title=" ">
<polygon fill="white" stroke="#666666" points="387,-626 301,-626 301,-607 387,-607 387,-626"/>
<text text-anchor="middle" x="344" y="-614" font-family="Helvetica,sans-Serif" font-size="10.00">mp_cmp_mag</text>
</a>
</g>
</g>
<!-- Node2&#45;&gt;Node4 -->
<g id="edge14_Node000002_Node000004" class="edge">
<title>Node2&#45;&gt;Node4</title>
<g id="a_edge14_Node000002_Node000004"><a xlink:title=" ">
<path fill="none" stroke="#63b8ff" d="M111.16,-455.36C113.6,-482.99 124.58,-561.57 172,-597.5 205.51,-622.9 253.87,-626.11 290.62,-623.85"/>
<polygon fill="#63b8ff" stroke="#63b8ff" points="290.95,-627.34 300.65,-623.09 290.42,-620.36 290.95,-627.34"/>
</a>
</g>
</g>
<!-- Node6 -->
<g id="Node000006" class="node">
<title>Node6</title>
<g id="a_Node000006"><a xlink:href="bn__mp__clamp_8c.html#aa857c7afa73b9c5d5f24168f0d8d815e" target="_top" xlink:title=" ">
<polygon fill="white" stroke="#666666" points="496,-548 428,-548 428,-529 496,-529 496,-548"/>
<text text-anchor="middle" x="462" y="-536" font-family="Helvetica,sans-Serif" font-size="10.00">mp_clamp</text>
</a>
</g>
</g>
<!-- Node2&#45;&gt;Node6 -->
<g id="edge10_Node000002_Node000006" class="edge">
<title>Node2&#45;&gt;Node6</title>
<g id="a_edge10_Node000002_Node000006"><a xlink:title=" ">
<path fill="none" stroke="#63b8ff" d="M123.6,-455.05C135.67,-463.5 154.34,-475.65 172,-483.5 253.95,-519.9 359.43,-532.24 417.61,-536.4"/>
<polygon fill="#63b8ff" stroke="#63b8ff" points="417.7,-539.92 427.91,-537.09 418.17,-532.93 417.7,-539.92"/>
</a>
</g>
</g>
<!-- Node9 -->
<g id="Node000009" class="node">
<title>Node9</title>
<g id="a_Node000009"><a xlink:href="bn__mp__clear_8c.html#a0d8af25cba8b03d5bc1256ef40e7a9a4" target="_top" xlink:title=" ">
<polygon fill="white" stroke="#666666" points="375,-206 313,-206 313,-187 375,-187 375,-206"/>
<text text-anchor="middle" x="344" y="-194" font-family="Helvetica,sans-Serif" font-size="10.00">mp_clear</text>
</a>
</g>
</g>
<!-- Node2&#45;&gt;Node9 -->
<g id="edge11_Node000002_Node000009" class="edge">
<title>Node2&#45;&gt;Node9</title>
<g id="a_edge11_Node000002_Node000009"><a xlink:title=" ">
<path fill="none" stroke="#63b8ff" d="M110.73,-435.63C112,-404.55 120.12,-307.55 172,-254.5 206.66,-219.06 263.75,-205.27 302.33,-199.91"/>
<polygon fill="#63b8ff" stroke="#63b8ff" points="303.2,-203.33 312.69,-198.61 302.33,-196.38 303.2,-203.33"/>
</a>
</g>
</g>
<!-- Node10 -->
<g id="Node000010" class="node">
<title>Node10</title>
<g id="a_Node000010"><a xlink:href="bn__mp__cmp_8c.html#aef0e3ca529e27bb381e55bbda6279009" target="_top" xlink:title=" ">
<polygon fill="white" stroke="#666666" points="245.5,-588 186.5,-588 186.5,-569 245.5,-569 245.5,-588"/>
<text text-anchor="middle" x="216" y="-576" font-family="Helvetica,sans-Serif" font-size="10.00">mp_cmp</text>
</a>
</g>
</g>
<!-- Node2&#45;&gt;Node10 -->
<g id="edge12_Node000002_Node000010" class="edge">
<title>Node2&#45;&gt;Node10</title>
<g id="a_edge12_Node000002_Node000010"><a xlink:title=" ">
<path fill="none" stroke="#63b8ff" d="M113.84,-455.08C121.39,-475.54 141.51,-524.15 172,-554.5 175.45,-557.94 179.5,-561.03 183.71,-563.77"/>
<polygon fill="#63b8ff" stroke="#63b8ff" points="182.02,-566.84 192.42,-568.88 185.56,-560.8 182.02,-566.84"/>
</a>
</g>
</g>
<!-- Node11 -->
<g id="Node000011" class="node">
<title>Node11</title>
<g id="a_Node000011"><a xlink:href="bn__mp__copy_8c.html#a40137c186390668e7329fe8b4c169a81" target="_top" xlink:title=" ">
<polygon fill="white" stroke="#666666" points="492.5,-396 431.5,-396 431.5,-377 492.5,-377 492.5,-396"/>
<text text-anchor="middle" x="462" y="-384" font-family="Helvetica,sans-Serif" font-size="10.00">mp_copy</text>
</a>
</g>
</g>
<!-- Node2&#45;&gt;Node11 -->
<g id="edge15_Node000002_Node000011" class="edge">
<title>Node2&#45;&gt;Node11</title>
<g id="a_edge15_Node000002_Node000011"><a xlink:title=" ">
<path fill="none" stroke="#63b8ff" d="M118.95,-435.97C129.88,-424.42 150.12,-405.5 172,-397.5 256.35,-366.67 363.92,-373.55 421.07,-380.5"/>
<polygon fill="#63b8ff" stroke="#63b8ff" points="420.78,-383.99 431.14,-381.79 421.67,-377.05 420.78,-383.99"/>
</a>
</g>
</g>
<!-- Node12 -->
<g id="Node000012" class="node">
<title>Node12</title>
<g id="a_Node000012"><a xlink:href="bn__mp__count__bits_8c.html#a67778f2e786a0a42a4e32adb5bf12653" target="_top" xlink:title=" ">
<polygon fill="white" stroke="#666666" points="260,-814 172,-814 172,-795 260,-795 260,-814"/>
<text text-anchor="middle" x="216" y="-802" font-family="Helvetica,sans-Serif" font-size="10.00">mp_count_bits</text>
</a>
</g>
</g>
<!-- Node2&#45;&gt;Node12 -->
<g id="edge17_Node000002_Node000012" class="edge">
<title>Node2&#45;&gt;Node12</title>
<g id="a_edge17_Node000002_Node000012"><a xlink:title=" ">
<path fill="none" stroke="#63b8ff" d="M111.18,-455.32C114.79,-504.74 132.91,-725.94 172,-780.5 174.4,-783.84 177.41,-786.78 180.73,-789.34"/>
<polygon fill="#63b8ff" stroke="#63b8ff" points="179.11,-792.47 189.41,-794.96 182.92,-786.59 179.11,-792.47"/>
</a>
</g>
</g>
<!-- Node13 -->
<g id="Node000013" class="node">
<title>Node13</title>
<g id="a_Node000013"><a xlink:href="bn__mp__div__2d_8c.html#ab2ea6e673e592b3f23ed2d088fa1fa03" target="_top" xlink:title=" ">
<polygon fill="white" stroke="#666666" points="251,-282 181,-282 181,-263 251,-263 251,-282"/>
<text text-anchor="middle" x="216" y="-270" font-family="Helvetica,sans-Serif" font-size="10.00">mp_div_2d</text>
</a>
</g>
</g>
<!-- Node2&#45;&gt;Node13 -->
<g id="edge18_Node000002_Node000013" class="edge">
<title>Node2&#45;&gt;Node13</title>
<g id="a_edge18_Node000002_Node000013"><a xlink:title=" ">
<path fill="none" stroke="#63b8ff" d="M115.68,-435.73C125.96,-416.47 149.87,-372.38 172,-336.5 181.73,-320.73 193.5,-303.31 202.27,-290.62"/>
<polygon fill="#63b8ff" stroke="#63b8ff" points="205.21,-292.53 208.05,-282.32 199.47,-288.53 205.21,-292.53"/>
</a>
</g>
</g>
<!-- Node14 -->
<g id="Node000014" class="node">
<title>Node14</title>
<g id="a_Node000014"><a xlink:href="bn__mp__exch_8c.html#af4e8c1049a4cbfd9206d7a1b44ff851f" target="_top" xlink:title=" ">
<polygon fill="white" stroke="#666666" points="374.5,-169 313.5,-169 313.5,-150 374.5,-150 374.5,-169"/>
<text text-anchor="middle" x="344" y="-157" font-family="Helvetica,sans-Serif" font-size="10.00">mp_exch</text>
</a>
</g>
</g>
<!-- Node2&#45;&gt;Node14 -->
<g id="edge31_Node000002_Node000014" class="edge">
<title>Node2&#45;&gt;Node14</title>
<g id="a_edge31_Node000002_Node000014"><a xlink:title=" ">
<path fill="none" stroke="#63b8ff" d="M111.65,-435.95C116.69,-395.48 138.16,-238.6 172,-204.5 206.4,-169.85 264.06,-160.88 302.8,-159.06"/>
<polygon fill="#63b8ff" stroke="#63b8ff" points="303.31,-162.55 313.19,-158.72 303.08,-155.55 303.31,-162.55"/>
</a>
</g>
</g>
<!-- Node15 -->
<g id="Node000015" class="node">
<title>Node15</title>
<g id="a_Node000015"><a xlink:href="bn__mp__init_8c.html#af40a43523654299f5178fb2d2d0c2211" target="_top" xlink:title=" ">
<polygon fill="white" stroke="#666666" points="370.5,-434 317.5,-434 317.5,-415 370.5,-415 370.5,-434"/>
<text text-anchor="middle" x="344" y="-422" font-family="Helvetica,sans-Serif" font-size="10.00">mp_init</text>
</a>
</g>
</g>
<!-- Node2&#45;&gt;Node15 -->
<g id="edge32_Node000002_Node000015" class="edge">
<title>Node2&#45;&gt;Node15</title>
<g id="a_edge32_Node000002_Node000015"><a xlink:title=" ">
<path fill="none" stroke="#63b8ff" d="M122.3,-435.7C134.05,-426.63 153.03,-413.77 172,-408.5 217.63,-395.83 272.46,-405.04 307.51,-413.86"/>
<polygon fill="#63b8ff" stroke="#63b8ff" points="306.72,-417.27 317.29,-416.44 308.51,-410.5 306.72,-417.27"/>
</a>
</g>
</g>
<!-- Node17 -->
<g id="Node000017" class="node">
<title>Node17</title>
<g id="a_Node000017"><a xlink:href="bn__mp__zero_8c.html#a9725d2cb7b409f9b19bec41fa2cf8f8b" target="_top" xlink:title=" ">
<polygon fill="white" stroke="#666666" points="491.5,-188 432.5,-188 432.5,-169 491.5,-169 491.5,-188"/>
<text text-anchor="middle" x="462" y="-176" font-family="Helvetica,sans-Serif" font-size="10.00">mp_zero</text>
</a>
</g>
</g>
<!-- Node2&#45;&gt;Node17 -->
<g id="edge52_Node000002_Node000017" class="edge">
<title>Node2&#45;&gt;Node17</title>
<g id="a_edge52_Node000002_Node000017"><a xlink:title=" ">
<path fill="none" stroke="#63b8ff" d="M110.47,-435.75C110.51,-381.36 113.74,-116.07 172,-66.5 209.24,-34.82 349.32,-42.66 392,-66.5 427.58,-86.37 447.08,-132.94 455.63,-159.35"/>
<polygon fill="#63b8ff" stroke="#63b8ff" points="452.3,-160.44 458.56,-168.99 459,-158.41 452.3,-160.44"/>
</a>
</g>
</g>
<!-- Node18 -->
<g id="Node000018" class="node">
<title>Node18</title>
<g id="a_Node000018"><a xlink:href="bn__mp__rshd_8c.html#ad14dbcc8e6ed3ca4e852b6e8722c9014" target="_top" xlink:title=" ">
<polygon fill="white" stroke="#666666" points="373.5,-132 314.5,-132 314.5,-113 373.5,-113 373.5,-132"/>
<text text-anchor="middle" x="344" y="-120" font-family="Helvetica,sans-Serif" font-size="10.00">mp_rshd</text>
</a>
</g>
</g>
<!-- Node2&#45;&gt;Node18 -->
<g id="edge47_Node000002_Node000018" class="edge">
<title>Node2&#45;&gt;Node18</title>
<g id="a_edge47_Node000002_Node000018"><a xlink:title=" ">
<path fill="none" stroke="#63b8ff" d="M111.23,-435.79C114.83,-390.66 132.09,-201.85 172,-161.5 206.45,-126.67 265.13,-120.22 303.98,-120.23"/>
<polygon fill="#63b8ff" stroke="#63b8ff" points="304.33,-123.73 314.38,-120.38 304.43,-116.73 304.33,-123.73"/>
</a>
</g>
</g>
<!-- Node19 -->
<g id="Node000019" class="node">
<title>Node19</title>
<g id="a_Node000019"><a xlink:href="bn__mp__init__copy_8c.html#a0952a12521893706b46c9a0a7eedaea5" target="_top" xlink:title=" ">
<polygon fill="white" stroke="#666666" points="257,-436 175,-436 175,-417 257,-417 257,-436"/>
<text text-anchor="middle" x="216" y="-424" font-family="Helvetica,sans-Serif" font-size="10.00">mp_init_copy</text>
</a>
</g>
</g>
<!-- Node2&#45;&gt;Node19 -->
<g id="edge33_Node000002_Node000019" class="edge">
<title>Node2&#45;&gt;Node19</title>
<g id="a_edge33_Node000002_Node000019"><a xlink:title=" ">
<path fill="none" stroke="#63b8ff" d="M136.06,-440.85C144.76,-439.27 154.82,-437.44 164.77,-435.63"/>
<polygon fill="#63b8ff" stroke="#63b8ff" points="165.42,-439.07 174.63,-433.84 164.17,-432.18 165.42,-439.07"/>
</a>
</g>
</g>
<!-- Node20 -->
<g id="Node000020" class="node">
<title>Node20</title>
<g id="a_Node000020"><a xlink:href="bn__mp__init__size_8c.html#aa9762e8400dec7967b66291f1f60d98c" target="_top" xlink:title=" ">
<polygon fill="white" stroke="#666666" points="255,-701 177,-701 177,-682 255,-682 255,-701"/>
<text text-anchor="middle" x="216" y="-689" font-family="Helvetica,sans-Serif" font-size="10.00">mp_init_size</text>
</a>
</g>
</g>
<!-- Node2&#45;&gt;Node20 -->
<g id="edge36_Node000002_Node000020" class="edge">
<title>Node2&#45;&gt;Node20</title>
<g id="a_edge36_Node000002_Node000020"><a xlink:title=" ">
<path fill="none" stroke="#63b8ff" d="M110.27,-455.1C109.96,-489.28 113.41,-606.55 172,-673.5 172.75,-674.35 173.54,-675.17 174.37,-675.94"/>
<polygon fill="#63b8ff" stroke="#63b8ff" points="172.57,-678.96 182.74,-681.95 176.66,-673.27 172.57,-678.96"/>
</a>
</g>
</g>
<!-- Node21 -->
<g id="Node000021" class="node">
<title>Node21</title>
<g id="a_Node000021"><a xlink:href="bn__mp__lshd_8c.html#aa895618828f6fc9affb25df273f1bc9d" target="_top" xlink:title=" ">
<polygon fill="white" stroke="#666666" points="491,-624 433,-624 433,-605 491,-605 491,-624"/>
<text text-anchor="middle" x="462" y="-612" font-family="Helvetica,sans-Serif" font-size="10.00">mp_lshd</text>
</a>
</g>
</g>
<!-- Node2&#45;&gt;Node21 -->
<g id="edge37_Node000002_Node000021" class="edge">
<title>Node2&#45;&gt;Node21</title>
<g id="a_edge37_Node000002_Node000021"><a xlink:title=" ">
<path fill="none" stroke="#63b8ff" d="M110.89,-455.08C113.04,-502.26 125.07,-709.16 172,-747.5 248.85,-810.27 310.75,-766.46 392,-709.5 420.1,-689.8 441.08,-654.93 452.15,-633.36"/>
<polygon fill="#63b8ff" stroke="#63b8ff" points="455.37,-634.74 456.66,-624.22 449.1,-631.64 455.37,-634.74"/>
</a>
</g>
</g>
<!-- Node22 -->
<g id="Node000022" class="node">
<title>Node22</title>
<g id="a_Node000022"><a xlink:href="bn__mp__mul__2d_8c.html#a52798405022130ba14dabc4846ccd380" target="_top" xlink:title=" ">
<polygon fill="white" stroke="#666666" points="381,-586 307,-586 307,-567 381,-567 381,-586"/>
<text text-anchor="middle" x="344" y="-574" font-family="Helvetica,sans-Serif" font-size="10.00">mp_mul_2d</text>
</a>
</g>
</g>
<!-- Node2&#45;&gt;Node22 -->
<g id="edge39_Node000002_Node000022" class="edge">
<title>Node2&#45;&gt;Node22</title>
<g id="a_edge39_Node000002_Node000022"><a xlink:title=" ">
<path fill="none" stroke="#63b8ff" d="M116.47,-455.19C126.27,-470.33 147.19,-499.63 172,-516.5 210.17,-542.46 260.75,-558.37 296.98,-567.22"/>
<polygon fill="#63b8ff" stroke="#63b8ff" points="296.26,-570.65 306.8,-569.54 297.87,-563.84 296.26,-570.65"/>
</a>
</g>
</g>
<!-- Node23 -->
<g id="Node000023" class="node">
<title>Node23</title>
<g id="a_Node000023"><a xlink:href="bn__mp__mul__d_8c.html#adf7c8916c1a2f69d9a4ca263e3b8e95d" target="_top" xlink:title=" ">
<polygon fill="white" stroke="#666666" points="378,-510 310,-510 310,-491 378,-491 378,-510"/>
<text text-anchor="middle" x="344" y="-498" font-family="Helvetica,sans-Serif" font-size="10.00">mp_mul_d</text>
</a>
</g>
</g>
<!-- Node2&#45;&gt;Node23 -->
<g id="edge44_Node000002_Node000023" class="edge">
<title>Node2&#45;&gt;Node23</title>
<g id="a_edge44_Node000002_Node000023"><a xlink:title=" ">
<path fill="none" stroke="#63b8ff" d="M136.27,-451.6C175.79,-460.94 251.8,-478.93 299.83,-490.29"/>
<polygon fill="#63b8ff" stroke="#63b8ff" points="299.09,-493.71 309.63,-492.61 300.7,-486.9 299.09,-493.71"/>
</a>
</g>
</g>
<!-- Node24 -->
<g id="Node000024" class="node">
<title>Node24</title>
<g id="a_Node000024"><a xlink:href="bn__mp__sub_8c.html#a3c73e1c78e711390c214f6aaf6edd1bd" target="_top" xlink:title=" ">
<polygon fill="white" stroke="#666666" points="243.5,-738 188.5,-738 188.5,-719 243.5,-719 243.5,-738"/>
<text text-anchor="middle" x="216" y="-726" font-family="Helvetica,sans-Serif" font-size="10.00">mp_sub</text>
</a>
</g>
</g>
<!-- Node2&#45;&gt;Node24 -->
<g id="edge48_Node000002_Node000024" class="edge">
<title>Node2&#45;&gt;Node24</title>
<g id="a_edge48_Node000002_Node000024"><a xlink:title=" ">
<path fill="none" stroke="#63b8ff" d="M111.58,-455.28C116.48,-498.27 137.95,-670.17 172,-710.5 174.14,-713.04 176.7,-715.22 179.49,-717.1"/>
<polygon fill="#63b8ff" stroke="#63b8ff" points="177.88,-720.21 188.34,-721.88 181.21,-714.05 177.88,-720.21"/>
</a>
</g>
</g>
<!-- Node25 -->
<g id="Node000025" class="node">
<title>Node25</title>
<g id="a_Node000025"><a xlink:href="ltm__desc_8c.html#adc67bac9fd8e42c930369ddabaa5f2db" target="_top" xlink:title=" ">
<polygon fill="white" stroke="#666666" points="233.5,-95 198.5,-95 198.5,-76 233.5,-76 233.5,-95"/>
<text text-anchor="middle" x="216" y="-83" font-family="Helvetica,sans-Serif" font-size="10.00">neg</text>
</a>
</g>
</g>
<!-- Node2&#45;&gt;Node25 -->
<g id="edge53_Node000002_Node000025" class="edge">
<title>Node2&#45;&gt;Node25</title>
<g id="a_edge53_Node000002_Node000025"><a xlink:title=" ">
<path fill="none" stroke="#63b8ff" d="M111.29,-435.85C115.4,-387.32 135.61,-169.97 172,-114.5 176.35,-107.87 182.79,-102.38 189.37,-98.02"/>
<polygon fill="#63b8ff" stroke="#63b8ff" points="191.41,-100.87 198.24,-92.77 187.85,-94.84 191.41,-100.87"/>
</a>
</g>
</g>
<!-- Node3&#45;&gt;Node4 -->
<g id="edge3_Node000003_Node000004" class="edge">
<title>Node3&#45;&gt;Node4</title>
<g id="a_edge3_Node000003_Node000004"><a xlink:title=" ">
<path fill="none" stroke="#63b8ff" d="M244.03,-646.35C260.78,-641.3 282.63,-634.71 301.54,-629"/>
<polygon fill="#63b8ff" stroke="#63b8ff" points="302.55,-632.36 311.11,-626.12 300.53,-625.65 302.55,-632.36"/>
</a>
</g>
</g>
<!-- Node5 -->
<g id="Node000005" class="node">
<title>Node5</title>
<g id="a_Node000005"><a xlink:href="bn__s__mp__add_8c.html#a063eaa9c7ba263e7f02ecc5a3f65acfe" target="_top" xlink:title=" ">
<polygon fill="white" stroke="#666666" points="377,-700 311,-700 311,-681 377,-681 377,-700"/>
<text text-anchor="middle" x="344" y="-688" font-family="Helvetica,sans-Serif" font-size="10.00">s_mp_add</text>
</a>
</g>
</g>
<!-- Node3&#45;&gt;Node5 -->
<g id="edge4_Node000003_Node000005" class="edge">
<title>Node3&#45;&gt;Node5</title>
<g id="a_edge4_Node000003_Node000005"><a xlink:title=" ">
<path fill="none" stroke="#63b8ff" d="M244.03,-662.22C260.58,-666.95 282.11,-673.1 300.86,-678.46"/>
<polygon fill="#63b8ff" stroke="#63b8ff" points="300.08,-681.88 310.66,-681.26 302,-675.15 300.08,-681.88"/>
</a>
</g>
</g>
<!-- Node8 -->
<g id="Node000008" class="node">
<title>Node8</title>
<g id="a_Node000008"><a xlink:href="bn__s__mp__sub_8c.html#aa9a8231c2dc42159132a0f586bab31f5" target="_top" xlink:title=" ">
<polygon fill="white" stroke="#666666" points="376.5,-663 311.5,-663 311.5,-644 376.5,-644 376.5,-663"/>
<text text-anchor="middle" x="344" y="-651" font-family="Helvetica,sans-Serif" font-size="10.00">s_mp_sub</text>
</a>
</g>
</g>
<!-- Node3&#45;&gt;Node8 -->
<g id="edge7_Node000003_Node000008" class="edge">
<title>Node3&#45;&gt;Node8</title>
<g id="a_edge7_Node000003_Node000008"><a xlink:title=" ">
<path fill="none" stroke="#63b8ff" d="M244.03,-654.29C260.63,-654.15 282.23,-653.98 301.02,-653.83"/>
<polygon fill="#63b8ff" stroke="#63b8ff" points="301.14,-657.33 311.11,-653.75 301.09,-650.33 301.14,-657.33"/>
</a>
</g>
</g>
<!-- Node5&#45;&gt;Node6 -->
<g id="edge5_Node000005_Node000006" class="edge">
<title>Node5&#45;&gt;Node6</title>
<g id="a_edge5_Node000005_Node000006"><a xlink:title=" ">
<path fill="none" stroke="#63b8ff" d="M377.25,-681.95C382.6,-679.51 387.77,-676.42 392,-672.5 419.42,-647.1 410.75,-629.65 428,-596.5 434.95,-583.15 443.35,-568.41 449.93,-557.13"/>
<polygon fill="#63b8ff" stroke="#63b8ff" points="453.11,-558.62 455.17,-548.23 447.08,-555.07 453.11,-558.62"/>
</a>
</g>
</g>
<!-- Node7 -->
<g id="Node000007" class="node">
<title>Node7</title>
<g id="a_Node000007"><a xlink:href="bn__mp__grow_8c.html#abdc9ad4bb753273a4f8076094a440191" target="_top" xlink:title=" ">
<polygon fill="white" stroke="#666666" points="594,-605 532,-605 532,-586 594,-586 594,-605"/>
<text text-anchor="middle" x="563" y="-593" font-family="Helvetica,sans-Serif" font-size="10.00">mp_grow</text>
</a>
</g>
</g>
<!-- Node5&#45;&gt;Node7 -->
<g id="edge6_Node000005_Node000007" class="edge">
<title>Node5&#45;&gt;Node7</title>
<g id="a_edge6_Node000005_Node000007"><a xlink:title=" ">
<path fill="none" stroke="#63b8ff" d="M377.25,-687.46C408.97,-683.43 458.03,-674.35 496,-654.5 516.08,-644 534.92,-626.03 547.29,-612.68"/>
<polygon fill="#63b8ff" stroke="#63b8ff" points="550.04,-614.85 554.1,-605.06 544.82,-610.18 550.04,-614.85"/>
</a>
</g>
</g>
<!-- Node8&#45;&gt;Node6 -->
<g id="edge8_Node000008_Node000006" class="edge">
<title>Node8&#45;&gt;Node6</title>
<g id="a_edge8_Node000008_Node000006"><a xlink:title=" ">
<path fill="none" stroke="#63b8ff" d="M376.71,-644.31C382.11,-641.94 387.44,-639.03 392,-635.5 406.56,-624.22 434.29,-581.63 449.8,-556.79"/>
<polygon fill="#63b8ff" stroke="#63b8ff" points="452.8,-558.59 455.09,-548.25 446.85,-554.91 452.8,-558.59"/>
</a>
</g>
</g>
<!-- Node8&#45;&gt;Node7 -->
<g id="edge9_Node000008_Node000007" class="edge">
<title>Node8&#45;&gt;Node7</title>
<g id="a_edge9_Node000008_Node000007"><a xlink:title=" ">
<path fill="none" stroke="#63b8ff" d="M376.75,-652.87C407.88,-651.42 456.31,-646.96 496,-633.5 511.57,-628.22 527.58,-619.11 539.93,-611.13"/>
<polygon fill="#63b8ff" stroke="#63b8ff" points="542.23,-613.8 548.6,-605.33 538.34,-607.98 542.23,-613.8"/>
</a>
</g>
</g>
<!-- Node10&#45;&gt;Node4 -->
<g id="edge13_Node000010_Node000004" class="edge">
<title>Node10&#45;&gt;Node4</title>
<g id="a_edge13_Node000010_Node000004"><a xlink:title=" ">
<path fill="none" stroke="#63b8ff" d="M245.59,-587.12C262.21,-592.13 283.43,-598.54 301.83,-604.08"/>
<polygon fill="#63b8ff" stroke="#63b8ff" points="300.84,-607.44 311.43,-606.98 302.86,-600.74 300.84,-607.44"/>
</a>
</g>
</g>
<!-- Node11&#45;&gt;Node7 -->
<g id="edge16_Node000011_Node000007" class="edge">
<title>Node11&#45;&gt;Node7</title>
<g id="a_edge16_Node000011_Node000007"><a xlink:title=" ">
<path fill="none" stroke="#63b8ff" d="M467.51,-396.02C482.78,-428.26 532.7,-533.64 553.15,-576.81"/>
<polygon fill="#63b8ff" stroke="#63b8ff" points="550.02,-578.38 557.46,-585.92 556.34,-575.38 550.02,-578.38"/>
</a>
</g>
</g>
<!-- Node13&#45;&gt;Node6 -->
<g id="edge19_Node000013_Node000006" class="edge">
<title>Node13&#45;&gt;Node6</title>
<g id="a_edge19_Node000013_Node000006"><a xlink:title=" ">
<path fill="none" stroke="#63b8ff" d="M230.12,-282.03C268.55,-310.04 379,-391.05 392,-406.5 421.69,-441.78 443.5,-491.96 454,-519.16"/>
<polygon fill="#63b8ff" stroke="#63b8ff" points="450.78,-520.56 457.57,-528.69 457.34,-518.1 450.78,-520.56"/>
</a>
</g>
</g>
<!-- Node13&#45;&gt;Node9 -->
<g id="edge20_Node000013_Node000009" class="edge">
<title>Node13&#45;&gt;Node9</title>
<g id="a_edge20_Node000013_Node000009"><a xlink:title=" ">
<path fill="none" stroke="#63b8ff" d="M231.75,-262.95C240.06,-257.56 250.63,-250.68 260,-244.5 276.06,-233.92 279.41,-230.22 296,-220.5 301.71,-217.16 307.93,-213.79 313.93,-210.68"/>
<polygon fill="#63b8ff" stroke="#63b8ff" points="315.73,-213.69 323.06,-206.04 312.56,-207.45 315.73,-213.69"/>
</a>
</g>
</g>
<!-- Node13&#45;&gt;Node11 -->
<g id="edge21_Node000013_Node000011" class="edge">
<title>Node13&#45;&gt;Node11</title>
<g id="a_edge21_Node000013_Node000011"><a xlink:title=" ">
<path fill="none" stroke="#63b8ff" d="M251.18,-281.25C287.43,-291.29 345.72,-309.63 392,-334.5 410.43,-344.4 429.25,-358.95 442.57,-370.14"/>
<polygon fill="#63b8ff" stroke="#63b8ff" points="440.61,-373.06 450.48,-376.92 445.17,-367.75 440.61,-373.06"/>
</a>
</g>
</g>
<!-- Node13&#45;&gt;Node14 -->
<g id="edge22_Node000013_Node000014" class="edge">
<title>Node13&#45;&gt;Node14</title>
<g id="a_edge22_Node000013_Node000014"><a xlink:title=" ">
<path fill="none" stroke="#63b8ff" d="M222.7,-262.75C234.24,-243.79 262.17,-201.73 296,-177.5 298.55,-175.68 301.3,-174.01 304.16,-172.49"/>
<polygon fill="#63b8ff" stroke="#63b8ff" points="305.9,-175.55 313.48,-168.15 302.94,-169.2 305.9,-175.55"/>
</a>
</g>
</g>
<!-- Node13&#45;&gt;Node15 -->
<g id="edge23_Node000013_Node000015" class="edge">
<title>Node13&#45;&gt;Node15</title>
<g id="a_edge23_Node000013_Node000015"><a xlink:title=" ">
<path fill="none" stroke="#63b8ff" d="M224.88,-282.01C245.57,-306.96 301.64,-374.61 328.4,-406.89"/>
<polygon fill="#63b8ff" stroke="#63b8ff" points="326.04,-409.53 335.12,-415 331.43,-405.06 326.04,-409.53"/>
</a>
</g>
</g>
<!-- Node16 -->
<g id="Node000016" class="node">
<title>Node16</title>
<g id="a_Node000016"><a xlink:href="bn__mp__mod__2d_8c.html#a00604fa638a10cda01e3dc87a36f1bb3" target="_top" xlink:title=" ">
<polygon fill="white" stroke="#666666" points="382.5,-282 305.5,-282 305.5,-263 382.5,-263 382.5,-282"/>
<text text-anchor="middle" x="344" y="-270" font-family="Helvetica,sans-Serif" font-size="10.00">mp_mod_2d</text>
</a>
</g>
</g>
<!-- Node13&#45;&gt;Node16 -->
<g id="edge24_Node000013_Node000016" class="edge">
<title>Node13&#45;&gt;Node16</title>
<g id="a_edge24_Node000013_Node000016"><a xlink:title=" ">
<path fill="none" stroke="#63b8ff" d="M251.1,-272.5C264.59,-272.5 280.33,-272.5 294.94,-272.5"/>
<polygon fill="#63b8ff" stroke="#63b8ff" points="295.33,-276 305.33,-272.5 295.33,-269 295.33,-276"/>
</a>
</g>
</g>
<!-- Node13&#45;&gt;Node17 -->
<g id="edge30_Node000013_Node000017" class="edge">
<title>Node13&#45;&gt;Node17</title>
<g id="a_edge30_Node000013_Node000017"><a xlink:title=" ">
<path fill="none" stroke="#63b8ff" d="M251.2,-263.31C286.96,-253.25 344.39,-235.83 392,-215.5 407.09,-209.06 423.29,-200.46 436.2,-193.18"/>
<polygon fill="#63b8ff" stroke="#63b8ff" points="438.02,-196.17 444.95,-188.16 434.54,-190.1 438.02,-196.17"/>
</a>
</g>
</g>
<!-- Node13&#45;&gt;Node18 -->
<g id="edge28_Node000013_Node000018" class="edge">
<title>Node13&#45;&gt;Node18</title>
<g id="a_edge28_Node000013_Node000018"><a xlink:title=" ">
<path fill="none" stroke="#63b8ff" d="M220.29,-262.71C228.89,-238.56 254.28,-175.54 296,-140.5 298.84,-138.11 302.04,-136.02 305.39,-134.19"/>
<polygon fill="#63b8ff" stroke="#63b8ff" points="306.91,-137.35 314.49,-129.95 303.95,-131 306.91,-137.35"/>
</a>
</g>
</g>
<!-- Node16&#45;&gt;Node6 -->
<g id="edge25_Node000016_Node000006" class="edge">
<title>Node16&#45;&gt;Node6</title>
<g id="a_edge25_Node000016_Node000006"><a xlink:title=" ">
<path fill="none" stroke="#63b8ff" d="M354.08,-282.33C364.45,-294.01 381.37,-314.45 392,-334.5 425.64,-397.97 447.65,-481.07 456.54,-518.59"/>
<polygon fill="#63b8ff" stroke="#63b8ff" points="453.21,-519.74 458.88,-528.7 460.03,-518.17 453.21,-519.74"/>
</a>
</g>
</g>
<!-- Node16&#45;&gt;Node11 -->
<g id="edge26_Node000016_Node000011" class="edge">
<title>Node16&#45;&gt;Node11</title>
<g id="a_edge26_Node000016_Node000011"><a xlink:title=" ">
<path fill="none" stroke="#63b8ff" d="M368.73,-282.08C376.6,-285.89 385.1,-290.75 392,-296.5 416.96,-317.29 438.41,-348.67 450.51,-368.35"/>
<polygon fill="#63b8ff" stroke="#63b8ff" points="447.53,-370.19 455.67,-376.97 453.53,-366.59 447.53,-370.19"/>
</a>
</g>
</g>
<!-- Node16&#45;&gt;Node17 -->
<g id="edge27_Node000016_Node000017" class="edge">
<title>Node16&#45;&gt;Node17</title>
<g id="a_edge27_Node000016_Node000017"><a xlink:title=" ">
<path fill="none" stroke="#63b8ff" d="M367.38,-262.89C375.47,-258.96 384.46,-254.02 392,-248.5 413.14,-233.01 433.74,-210.92 446.85,-195.72"/>
<polygon fill="#63b8ff" stroke="#63b8ff" points="449.54,-197.96 453.32,-188.06 444.19,-193.44 449.54,-197.96"/>
</a>
</g>
</g>
<!-- Node18&#45;&gt;Node17 -->
<g id="edge29_Node000018_Node000017" class="edge">
<title>Node18&#45;&gt;Node17</title>
<g id="a_edge29_Node000018_Node000017"><a xlink:title=" ">
<path fill="none" stroke="#63b8ff" d="M372.11,-132.15C378.69,-134.7 385.66,-137.56 392,-140.5 407.07,-147.5 423.38,-156.41 436.36,-163.85"/>
<polygon fill="#63b8ff" stroke="#63b8ff" points="434.75,-166.96 445.15,-168.95 438.26,-160.91 434.75,-166.96"/>
</a>
</g>
</g>
<!-- Node19&#45;&gt;Node11 -->
<g id="edge34_Node000019_Node000011" class="edge">
<title>Node19&#45;&gt;Node11</title>
<g id="a_edge34_Node000019_Node000011"><a xlink:title=" ">
<path fill="none" stroke="#63b8ff" d="M243.68,-436.05C278.77,-447.08 341.88,-461.53 392,-443.5 413.79,-435.66 433.6,-417.63 446.35,-403.93"/>
<polygon fill="#63b8ff" stroke="#63b8ff" points="449.29,-405.88 453.33,-396.09 444.06,-401.23 449.29,-405.88"/>
</a>
</g>
</g>
<!-- Node19&#45;&gt;Node15 -->
<g id="edge35_Node000019_Node000015" class="edge">
<title>Node19&#45;&gt;Node15</title>
<g id="a_edge35_Node000019_Node000015"><a xlink:title=" ">
<path fill="none" stroke="#63b8ff" d="M257.21,-425.86C273.25,-425.61 291.56,-425.32 307.13,-425.07"/>
<polygon fill="#63b8ff" stroke="#63b8ff" points="307.47,-428.56 317.42,-424.91 307.36,-421.57 307.47,-428.56"/>
</a>
</g>
</g>
<!-- Node21&#45;&gt;Node7 -->
<g id="edge38_Node000021_Node000007" class="edge">
<title>Node21&#45;&gt;Node7</title>
<g id="a_edge38_Node000021_Node000007"><a xlink:title=" ">
<path fill="none" stroke="#63b8ff" d="M491.1,-609.11C500.62,-607.28 511.45,-605.2 521.72,-603.23"/>
<polygon fill="#63b8ff" stroke="#63b8ff" points="522.59,-606.63 531.75,-601.31 521.27,-599.75 522.59,-606.63"/>
</a>
</g>
</g>
<!-- Node22&#45;&gt;Node6 -->
<g id="edge40_Node000022_Node000006" class="edge">
<title>Node22&#45;&gt;Node6</title>
<g id="a_edge40_Node000022_Node000006"><a xlink:title=" ">
<path fill="none" stroke="#63b8ff" d="M374.27,-566.91C388.7,-562.19 406.29,-556.42 421.86,-551.32"/>
<polygon fill="#63b8ff" stroke="#63b8ff" points="423.32,-554.53 431.74,-548.09 421.14,-547.87 423.32,-554.53"/>
</a>
</g>
</g>
<!-- Node22&#45;&gt;Node7 -->
<g id="edge42_Node000022_Node000007" class="edge">
<title>Node22&#45;&gt;Node7</title>
<g id="a_edge42_Node000022_Node000007"><a xlink:title=" ">
<path fill="none" stroke="#63b8ff" d="M381.32,-579.68C420.17,-583.08 481.61,-588.46 521.86,-591.99"/>
<polygon fill="#63b8ff" stroke="#63b8ff" points="521.6,-595.48 531.86,-592.86 522.21,-588.5 521.6,-595.48"/>
</a>
</g>
</g>
<!-- Node22&#45;&gt;Node11 -->
<g id="edge41_Node000022_Node000011" class="edge">
<title>Node22&#45;&gt;Node11</title>
<g id="a_edge41_Node000022_Node000011"><a xlink:title=" ">
<path fill="none" stroke="#63b8ff" d="M353.99,-566.9C363.98,-555.96 380.26,-537.26 392,-519.5 417.45,-480.99 440.77,-431.97 452.69,-405.51"/>
<polygon fill="#63b8ff" stroke="#63b8ff" points="455.94,-406.8 456.81,-396.24 449.55,-403.95 455.94,-406.8"/>
</a>
</g>
</g>
<!-- Node22&#45;&gt;Node21 -->
<g id="edge43_Node000022_Node000021" class="edge">
<title>Node22&#45;&gt;Node21</title>
<g id="a_edge43_Node000022_Node000021"><a xlink:title=" ">
<path fill="none" stroke="#63b8ff" d="M374.27,-586.09C389.17,-590.97 407.45,-596.96 423.37,-602.17"/>
<polygon fill="#63b8ff" stroke="#63b8ff" points="422.35,-605.52 432.94,-605.31 424.52,-598.87 422.35,-605.52"/>
</a>
</g>
</g>
<!-- Node23&#45;&gt;Node6 -->
<g id="edge45_Node000023_Node000006" class="edge">
<title>Node23&#45;&gt;Node6</title>
<g id="a_edge45_Node000023_Node000006"><a xlink:title=" ">
<path fill="none" stroke="#63b8ff" d="M374.27,-510.09C388.7,-514.81 406.29,-520.58 421.86,-525.68"/>
<polygon fill="#63b8ff" stroke="#63b8ff" points="421.14,-529.13 431.74,-528.91 423.32,-522.47 421.14,-529.13"/>
</a>
</g>
</g>
<!-- Node23&#45;&gt;Node7 -->
<g id="edge46_Node000023_Node000007" class="edge">
<title>Node23&#45;&gt;Node7</title>
<g id="a_edge46_Node000023_Node000007"><a xlink:title=" ">
<path fill="none" stroke="#63b8ff" d="M378.24,-498.4C410.26,-497.81 459.14,-500.82 496,-520.5 520.4,-533.53 540.01,-559.43 551.33,-577.11"/>
<polygon fill="#63b8ff" stroke="#63b8ff" points="548.54,-579.25 556.75,-585.95 554.51,-575.59 548.54,-579.25"/>
</a>
</g>
</g>
<!-- Node24&#45;&gt;Node4 -->
<g id="edge49_Node000024_Node000004" class="edge">
<title>Node24&#45;&gt;Node4</title>
<g id="a_edge49_Node000024_Node000004"><a xlink:title=" ">
<path fill="none" stroke="#63b8ff" d="M243.82,-720.8C249.64,-718.22 255.42,-714.85 260,-710.5 286.8,-685.03 269.04,-660.8 296,-635.5 297.67,-633.93 299.48,-632.49 301.4,-631.16"/>
<polygon fill="#63b8ff" stroke="#63b8ff" points="303.37,-634.06 310.27,-626.03 299.87,-628 303.37,-634.06"/>
</a>
</g>
</g>
<!-- Node24&#45;&gt;Node5 -->
<g id="edge50_Node000024_Node000005" class="edge">
<title>Node24&#45;&gt;Node5</title>
<g id="a_edge50_Node000024_Node000005"><a xlink:title=" ">
<path fill="none" stroke="#63b8ff" d="M243.72,-720.44C260.58,-715.36 282.69,-708.69 301.76,-702.94"/>
<polygon fill="#63b8ff" stroke="#63b8ff" points="302.85,-706.26 311.42,-700.02 300.83,-699.56 302.85,-706.26"/>
</a>
</g>
</g>
<!-- Node24&#45;&gt;Node8 -->
<g id="edge51_Node000024_Node000008" class="edge">
<title>Node24&#45;&gt;Node8</title>
<g id="a_edge51_Node000024_Node000008"><a xlink:title=" ">
<path fill="none" stroke="#63b8ff" d="M243.83,-719.3C249.4,-716.84 255.07,-713.9 260,-710.5 279.14,-697.28 276.78,-685.6 296,-672.5 298.69,-670.67 301.59,-668.96 304.57,-667.4"/>
<polygon fill="#63b8ff" stroke="#63b8ff" points="306.13,-670.53 313.67,-663.09 303.13,-664.2 306.13,-670.53"/>
</a>
</g>
</g>
<!-- Node26 -->
<g id="Node000026" class="node">
<title>Node26</title>
<g id="a_Node000026"><a xlink:href="bn__mp__neg_8c.html#a2d57acfc18c0a61119360b3e22898bab" target="_top" xlink:title=" ">
<polygon fill="white" stroke="#666666" points="372,-95 316,-95 316,-76 372,-76 372,-95"/>
<text text-anchor="middle" x="344" y="-83" font-family="Helvetica,sans-Serif" font-size="10.00">mp_neg</text>
</a>
</g>
</g>
<!-- Node25&#45;&gt;Node26 -->
<g id="edge54_Node000025_Node000026" class="edge">
<title>Node25&#45;&gt;Node26</title>
<g id="a_edge54_Node000025_Node000026"><a xlink:title=" ">
<path fill="none" stroke="#63b8ff" d="M233.73,-85.5C251.93,-85.5 281.59,-85.5 305.43,-85.5"/>
<polygon fill="#63b8ff" stroke="#63b8ff" points="305.57,-89 315.57,-85.5 305.57,-82 305.57,-89"/>
</a>
</g>
</g>
<!-- Node25&#45;&gt;Node27 -->
<g id="edge56_Node000025_Node000027" class="edge">
<title>Node25&#45;&gt;Node27</title>
<g id="a_edge56_Node000025_Node000027"><a xlink:title=" ">
<path fill="none" stroke="#63b8ff" d="M232.96,-75.87C254.54,-62.85 293.25,-39.51 318.52,-24.26"/>
<polygon fill="#63b8ff" stroke="#63b8ff" points="320.42,-27.21 327.17,-19.05 316.8,-21.22 320.42,-27.21"/>
</a>
</g>
</g>
<!-- Node26&#45;&gt;Node11 -->
<g id="edge55_Node000026_Node000011" class="edge">
<title>Node26&#45;&gt;Node11</title>
<g id="a_edge55_Node000026_Node000011"><a xlink:title=" ">
<path fill="none" stroke="#63b8ff" d="M372.1,-90.95C379.45,-93.62 386.8,-97.6 392,-103.5 409.78,-123.69 445.67,-305.84 457.29,-366.76"/>
<polygon fill="#63b8ff" stroke="#63b8ff" points="453.92,-367.77 459.22,-376.95 460.79,-366.47 453.92,-367.77"/>
</a>
</g>
</g>
</g>
</svg>
