<?xml version="1.0" encoding="UTF-8" standalone="no"?>
<!DOCTYPE svg PUBLIC "-//W3C//DTD SVG 1.1//EN"
 "http://www.w3.org/Graphics/SVG/1.1/DTD/svg11.dtd">
<!-- Generated by graphviz version 2.43.0 (0)
 -->
<!-- Title: lua_newthread Pages: 1 -->
<svg width="364pt" height="64pt"
 viewBox="0.00 0.00 364.00 64.00" xmlns="http://www.w3.org/2000/svg" xmlns:xlink="http://www.w3.org/1999/xlink">
<g id="graph0" class="graph" transform="scale(1 1) rotate(0) translate(4 60)">
<title>lua_newthread</title>
<!-- Node1 -->
<g id="Node000001" class="node">
<title>Node1</title>
<g id="a_Node000001"><a xlink:title=" ">
<polygon fill="#999999" stroke="#666666" points="356,-37 267,-37 267,-18 356,-18 356,-37"/>
<text text-anchor="middle" x="311.5" y="-25" font-family="Helvetica,sans-Serif" font-size="10.00">lua_newthread</text>
</a>
</g>
</g>
<!-- Node2 -->
<g id="Node000002" class="node">
<title>Node2</title>
<g id="a_Node000002"><a xlink:href="lcorolib_8c.html#ad49772e236781ef7ad88ff8bc980b40b" target="_top" xlink:title=" ">
<polygon fill="white" stroke="#666666" points="216,-56 130,-56 130,-37 216,-37 216,-56"/>
<text text-anchor="middle" x="173" y="-44" font-family="Helvetica,sans-Serif" font-size="10.00">luaB_cocreate</text>
</a>
</g>
</g>
<!-- Node1&#45;&gt;Node2 -->
<g id="edge1_Node000001_Node000002" class="edge">
<title>Node1&#45;&gt;Node2</title>
<g id="a_edge1_Node000001_Node000002"><a xlink:title=" ">
<path fill="none" stroke="#63b8ff" d="M256.82,-34.97C243.33,-36.85 229.05,-38.84 216.22,-40.62"/>
<polygon fill="#63b8ff" stroke="#63b8ff" points="257.51,-38.41 266.94,-33.56 256.55,-31.48 257.51,-38.41"/>
</a>
</g>
</g>
<!-- Node4 -->
<g id="Node000004" class="node">
<title>Node4</title>
<g id="a_Node000004"><a xlink:href="LUAEngine_8cpp.html#aa815a53044286007683fd08fe76319d4" target="_top" xlink:title=" ">
<polygon fill="white" stroke="#666666" points="231,-19 115,-19 115,0 231,0 231,-19"/>
<text text-anchor="middle" x="173" y="-7" font-family="Helvetica,sans-Serif" font-size="10.00">RegisterTimedEvent</text>
</a>
</g>
</g>
<!-- Node1&#45;&gt;Node4 -->
<g id="edge3_Node000001_Node000004" class="edge">
<title>Node1&#45;&gt;Node4</title>
<g id="a_edge3_Node000001_Node000004"><a xlink:title=" ">
<path fill="none" stroke="#63b8ff" d="M256.83,-20.42C248.38,-19.31 239.63,-18.15 231.11,-17.03"/>
<polygon fill="#63b8ff" stroke="#63b8ff" points="256.56,-23.92 266.94,-21.76 257.48,-16.98 256.56,-23.92"/>
</a>
</g>
</g>
<!-- Node3 -->
<g id="Node000003" class="node">
<title>Node3</title>
<g id="a_Node000003"><a xlink:href="lcorolib_8c.html#a1c0429e27f504b08e25f437f733edad1" target="_top" xlink:title=" ">
<polygon fill="white" stroke="#666666" points="79,-56 0,-56 0,-37 79,-37 79,-56"/>
<text text-anchor="middle" x="39.5" y="-44" font-family="Helvetica,sans-Serif" font-size="10.00">luaB_cowrap</text>
</a>
</g>
</g>
<!-- Node2&#45;&gt;Node3 -->
<g id="edge2_Node000002_Node000003" class="edge">
<title>Node2&#45;&gt;Node3</title>
<g id="a_edge2_Node000002_Node000003"><a xlink:title=" ">
<path fill="none" stroke="#63b8ff" d="M119.56,-46.5C106.08,-46.5 91.83,-46.5 79.19,-46.5"/>
<polygon fill="#63b8ff" stroke="#63b8ff" points="119.67,-50 129.67,-46.5 119.67,-43 119.67,-50"/>
</a>
</g>
</g>
</g>
</svg>
