<?xml version="1.0" encoding="UTF-8" standalone="no"?>
<!DOCTYPE svg PUBLIC "-//W3C//DTD SVG 1.1//EN"
 "http://www.w3.org/Graphics/SVG/1.1/DTD/svg11.dtd">
<!-- Generated by graphviz version 2.43.0 (0)
 -->
<!-- Title: lua_xmove Pages: 1 -->
<!--zoomable 519 -->

<svg id="main" version="1.1" xmlns="http://www.w3.org/2000/svg" xmlns:xlink="http://www.w3.org/1999/xlink" xml:space="preserve" onload="init(evt)">
<style type="text/css"><![CDATA[
.node, .edge {opacity: 0.7;}
.node.selected, .edge.selected {opacity: 1;}
.edge:hover path { stroke: red; }
.edge:hover polygon { stroke: red; fill: red; }
]]></style>

<defs>
  <circle id="rim" cx="0" cy="0" r="7"/>
  <circle id="rim2" cx="0" cy="0" r="3.5"/>
  <g id="zoomPlus">
    <use xlink:href="#rim" fill="#404040"><set attributeName="fill" to="#808080" begin="zoomplus.mouseover" end="zoomplus.mouseout"/></use>
    <path d="M-4,0h8M0,-4v8" fill="none" stroke="white" stroke-width="1.5" pointer-events="none"/>
  </g>
  <g id="zoomMin">
    <use xlink:href="#rim" fill="#404040"><set attributeName="fill" to="#808080" begin="zoomminus.mouseover" end="zoomminus.mouseout"/></use>
    <path d="M-4,0h8" fill="none" stroke="white" stroke-width="1.5" pointer-events="none"/>
  </g>
  <g id="arrowUp" transform="translate(30 24)">
    <use xlink:href="#rim"/>
    <path pointer-events="none" fill="none" stroke="white" stroke-width="1.5" d="M0,-3.0v7 M-2.5,-0.5L0,-3.0L2.5,-0.5"/>
  </g>
  <g id="arrowRight" transform="rotate(90) translate(36 -43)">
    <use xlink:href="#rim"/>
    <path pointer-events="none" fill="none" stroke="white" stroke-width="1.5" d="M0,-3.0v7 M-2.5,-0.5L0,-3.0L2.5,-0.5"/>
  </g>
  <g id="arrowDown" transform="rotate(180) translate(-30 -48)">
    <use xlink:href="#rim"/>
    <path pointer-events="none" fill="none" stroke="white" stroke-width="1.5" d="M0,-3.0v7 M-2.5,-0.5L0,-3.0L2.5,-0.5"/>
  </g>
  <g id="arrowLeft" transform="rotate(270) translate(-36 17)">
    <use xlink:href="#rim"/>
    <path pointer-events="none" fill="none" stroke="white" stroke-width="1.5" d="M0,-3.0v7 M-2.5,-0.5L0,-3.0L2.5,-0.5"/>
  </g>
  <g id="resetDef">
    <use xlink:href="#rim2" fill="#404040"><set attributeName="fill" to="#808080" begin="reset.mouseover" end="reset.mouseout"/></use>
  </g>
</defs>
<script type="application/ecmascript">
var viewWidth = 546;
var viewHeight = 519;
var sectionId = 'dynsection-159';
</script>
<script type="application/ecmascript" xlink:href="svg.min.js"/>
<svg id="graph" class="graph">
<g id="viewport">
<title>lua_xmove</title>
<!-- Node1 -->
<g id="Node000001" class="node">
<title>Node1</title>
<g id="a_Node000001"><a xlink:title=" ">
<polygon fill="#999999" stroke="#666666" points="538,-265.74 467,-265.74 467,-246.74 538,-246.74 538,-265.74"/>
<text text-anchor="middle" x="502.5" y="-253.74" font-family="Helvetica,sans-Serif" font-size="10.00">lua_xmove</text>
</a>
</g>
</g>
<!-- Node2 -->
<g id="Node000002" class="node">
<title>Node2</title>
<g id="a_Node000002"><a xlink:href="lcorolib_8c.html#aaa37b3a30ab0c6daef7fae8951fef3e7" target="_top" xlink:title=" ">
<polygon fill="white" stroke="#666666" points="384.5,-471.74 313.5,-471.74 313.5,-452.74 384.5,-452.74 384.5,-471.74"/>
<text text-anchor="middle" x="349" y="-459.74" font-family="Helvetica,sans-Serif" font-size="10.00">auxresume</text>
</a>
</g>
</g>
<!-- Node1&#45;&gt;Node2 -->
<g id="edge1_Node000001_Node000002" class="edge">
<title>Node1&#45;&gt;Node2</title>
<g id="a_edge1_Node000001_Node000002"><a xlink:title=" ">
<path fill="none" stroke="#63b8ff" d="M500.08,-276.21C496.2,-314.84 482.03,-399.9 431,-444.24 418.39,-455.2 400.57,-459.92 384.86,-461.81"/>
<polygon fill="#63b8ff" stroke="#63b8ff" points="503.6,-276.07 500.98,-265.81 496.63,-275.47 503.6,-276.07"/>
</a>
</g>
</g>
<!-- Node3 -->
<g id="Node000003" class="node">
<title>Node3</title>
<g id="a_Node000003"><a xlink:href="lcorolib_8c.html#a777abb20385a69ce4787f72bd90375a7" target="_top" xlink:title=" ">
<polygon fill="white" stroke="#666666" points="216,-489.74 130,-489.74 130,-470.74 216,-470.74 216,-489.74"/>
<text text-anchor="middle" x="173" y="-477.74" font-family="Helvetica,sans-Serif" font-size="10.00">luaB_auxwrap</text>
</a>
</g>
</g>
<!-- Node1&#45;&gt;Node3 -->
<g id="edge12_Node000001_Node000003" class="edge">
<title>Node1&#45;&gt;Node3</title>
<g id="a_edge12_Node000001_Node000003"><a xlink:title=" ">
<path fill="none" stroke="#63b8ff" d="M502.32,-276.21C502.95,-321.64 497.3,-432.53 431,-481.24 361.78,-532.09 251.34,-505.9 200.82,-489.78"/>
<polygon fill="#63b8ff" stroke="#63b8ff" points="505.82,-276.05 502.05,-266.15 498.82,-276.24 505.82,-276.05"/>
</a>
</g>
</g>
<!-- Node6 -->
<g id="Node000006" class="node">
<title>Node6</title>
<g id="a_Node000006"><a xlink:href="ldblib_8c.html#a6a624ae8d8ff673e72a317b280ed008d" target="_top" xlink:title=" ">
<polygon fill="white" stroke="#666666" points="386,-434.74 312,-434.74 312,-415.74 386,-415.74 386,-434.74"/>
<text text-anchor="middle" x="349" y="-422.74" font-family="Helvetica,sans-Serif" font-size="10.00">db_gethook</text>
</a>
</g>
</g>
<!-- Node1&#45;&gt;Node6 -->
<g id="edge5_Node000001_Node000006" class="edge">
<title>Node1&#45;&gt;Node6</title>
<g id="a_edge5_Node000001_Node000006"><a xlink:title=" ">
<path fill="none" stroke="#63b8ff" d="M497.28,-276.11C489.59,-307.36 470.36,-367.87 431,-401.24 418.47,-411.86 401.4,-417.78 386.16,-421.08"/>
<polygon fill="#63b8ff" stroke="#63b8ff" points="500.76,-276.55 499.6,-266.02 493.94,-274.98 500.76,-276.55"/>
</a>
</g>
</g>
<!-- Node7 -->
<g id="Node000007" class="node">
<title>Node7</title>
<g id="a_Node000007"><a xlink:href="ldblib_8c.html#a4eb57e66c2efb2d31c9b9e1b01d27e13" target="_top" xlink:title=" ">
<polygon fill="white" stroke="#666666" points="207,-321.74 139,-321.74 139,-302.74 207,-302.74 207,-321.74"/>
<text text-anchor="middle" x="173" y="-309.74" font-family="Helvetica,sans-Serif" font-size="10.00">db_getinfo</text>
</a>
</g>
</g>
<!-- Node1&#45;&gt;Node7 -->
<g id="edge6_Node000001_Node000007" class="edge">
<title>Node1&#45;&gt;Node7</title>
<g id="a_edge6_Node000001_Node000007"><a xlink:title=" ">
<path fill="none" stroke="#63b8ff" d="M495.89,-275.4C487,-301.83 466.89,-348.42 431,-368.24 367.19,-403.47 337.23,-387.75 267,-368.24 234.5,-359.21 201.98,-335.43 185.36,-321.94"/>
<polygon fill="#63b8ff" stroke="#63b8ff" points="499.26,-276.34 498.94,-265.75 492.59,-274.23 499.26,-276.34"/>
</a>
</g>
</g>
<!-- Node8 -->
<g id="Node000008" class="node">
<title>Node8</title>
<g id="a_Node000008"><a xlink:href="ldblib_8c.html#ae802ce7397e9ebb08a90b69976578ecc" target="_top" xlink:title=" ">
<polygon fill="white" stroke="#666666" points="385.5,-358.74 312.5,-358.74 312.5,-339.74 385.5,-339.74 385.5,-358.74"/>
<text text-anchor="middle" x="349" y="-346.74" font-family="Helvetica,sans-Serif" font-size="10.00">db_getlocal</text>
</a>
</g>
</g>
<!-- Node1&#45;&gt;Node8 -->
<g id="edge7_Node000001_Node000008" class="edge">
<title>Node1&#45;&gt;Node8</title>
<g id="a_edge7_Node000001_Node000008"><a xlink:title=" ">
<path fill="none" stroke="#63b8ff" d="M489.35,-274.45C476.81,-291.77 455.64,-317.22 431,-331.24 417.23,-339.08 400.34,-343.5 385.55,-346"/>
<polygon fill="#63b8ff" stroke="#63b8ff" points="492.55,-275.99 495.4,-265.78 486.81,-271.98 492.55,-275.99"/>
</a>
</g>
</g>
<!-- Node9 -->
<g id="Node000009" class="node">
<title>Node9</title>
<g id="a_Node000009"><a xlink:href="ldblib_8c.html#aa0c362d361f8f9bd8a002c34c393e2b0" target="_top" xlink:title=" ">
<polygon fill="white" stroke="#666666" points="385.5,-321.74 312.5,-321.74 312.5,-302.74 385.5,-302.74 385.5,-321.74"/>
<text text-anchor="middle" x="349" y="-309.74" font-family="Helvetica,sans-Serif" font-size="10.00">db_sethook</text>
</a>
</g>
</g>
<!-- Node1&#45;&gt;Node9 -->
<g id="edge8_Node000001_Node000009" class="edge">
<title>Node1&#45;&gt;Node9</title>
<g id="a_edge8_Node000001_Node000009"><a xlink:title=" ">
<path fill="none" stroke="#63b8ff" d="M477.72,-271.19C464.4,-279.01 447.25,-288.19 431,-294.24 416.56,-299.62 400.03,-303.65 385.7,-306.51"/>
<polygon fill="#63b8ff" stroke="#63b8ff" points="479.91,-273.96 486.67,-265.8 476.3,-267.96 479.91,-273.96"/>
</a>
</g>
</g>
<!-- Node10 -->
<g id="Node000010" class="node">
<title>Node10</title>
<g id="a_Node000010"><a xlink:href="ldblib_8c.html#a11cfe90e96e7ea907a767f5109f7ef4b" target="_top" xlink:title=" ">
<polygon fill="white" stroke="#666666" points="385,-284.74 313,-284.74 313,-265.74 385,-265.74 385,-284.74"/>
<text text-anchor="middle" x="349" y="-272.74" font-family="Helvetica,sans-Serif" font-size="10.00">db_setlocal</text>
</a>
</g>
</g>
<!-- Node1&#45;&gt;Node10 -->
<g id="edge9_Node000001_Node000010" class="edge">
<title>Node1&#45;&gt;Node10</title>
<g id="a_edge9_Node000001_Node000010"><a xlink:title=" ">
<path fill="none" stroke="#63b8ff" d="M456.6,-261.87C433.76,-264.73 406.4,-268.16 385.12,-270.83"/>
<polygon fill="#63b8ff" stroke="#63b8ff" points="457.26,-265.31 466.74,-260.6 456.39,-258.37 457.26,-265.31"/>
</a>
</g>
</g>
<!-- Node11 -->
<g id="Node000011" class="node">
<title>Node11</title>
<g id="a_Node000011"><a xlink:href="classLuaEngine.html#adbd254bec0a6ca8bef9cdd6c7378e7dd" target="_top" xlink:title=" ">
<polygon fill="white" stroke="#666666" points="430,-134.74 268,-134.74 268,-115.74 430,-115.74 430,-134.74"/>
<text text-anchor="middle" x="349" y="-122.74" font-family="Helvetica,sans-Serif" font-size="10.00">LuaEngine::HyperCallFunction</text>
</a>
</g>
</g>
<!-- Node1&#45;&gt;Node11 -->
<g id="edge10_Node000001_Node000011" class="edge">
<title>Node1&#45;&gt;Node11</title>
<g id="a_edge10_Node000001_Node000011"><a xlink:title=" ">
<path fill="none" stroke="#63b8ff" d="M494.77,-237.09C484.87,-211.79 463.9,-167.71 431,-144.24 425.59,-140.38 419.51,-137.29 413.17,-134.83"/>
<polygon fill="#63b8ff" stroke="#63b8ff" points="491.57,-238.52 498.34,-246.66 498.13,-236.07 491.57,-238.52"/>
</a>
</g>
</g>
<!-- Node12 -->
<g id="Node000012" class="node">
<title>Node12</title>
<g id="a_Node000012"><a xlink:href="LUAEngine_8cpp.html#aa815a53044286007683fd08fe76319d4" target="_top" xlink:title=" ">
<polygon fill="white" stroke="#666666" points="231,-171.74 115,-171.74 115,-152.74 231,-152.74 231,-171.74"/>
<text text-anchor="middle" x="173" y="-159.74" font-family="Helvetica,sans-Serif" font-size="10.00">RegisterTimedEvent</text>
</a>
</g>
</g>
<!-- Node1&#45;&gt;Node12 -->
<g id="edge16_Node000001_Node000012" class="edge">
<title>Node1&#45;&gt;Node12</title>
<g id="a_edge16_Node000001_Node000012"><a xlink:title=" ">
<path fill="none" stroke="#63b8ff" d="M476.57,-241.57C463.38,-234.32 446.7,-225.92 431,-220.24 411.24,-213.09 287.44,-186.32 219.14,-171.78"/>
<polygon fill="#63b8ff" stroke="#63b8ff" points="475.07,-244.74 485.5,-246.6 478.5,-238.64 475.07,-244.74"/>
</a>
</g>
</g>
<!-- Node13 -->
<g id="Node000013" class="node">
<title>Node13</title>
<g id="a_Node000013"><a xlink:href="lcorolib_8c.html#a3c6a70201b343432bfeb1f3e09cdde6f" target="_top" xlink:title=" ">
<polygon fill="white" stroke="#666666" points="383.5,-171.74 314.5,-171.74 314.5,-152.74 383.5,-152.74 383.5,-171.74"/>
<text text-anchor="middle" x="349" y="-159.74" font-family="Helvetica,sans-Serif" font-size="10.00">luaB_close</text>
</a>
</g>
</g>
<!-- Node1&#45;&gt;Node13 -->
<g id="edge13_Node000001_Node000013" class="edge">
<title>Node1&#45;&gt;Node13</title>
<g id="a_edge13_Node000001_Node000013"><a xlink:title=" ">
<path fill="none" stroke="#63b8ff" d="M488.04,-238.59C475.06,-222.73 454.04,-199.89 431,-186.24 416.62,-177.71 398.98,-172.02 383.84,-168.33"/>
<polygon fill="#63b8ff" stroke="#63b8ff" points="485.43,-240.93 494.39,-246.58 490.91,-236.57 485.43,-240.93"/>
</a>
</g>
</g>
<!-- Node14 -->
<g id="Node000014" class="node">
<title>Node14</title>
<g id="a_Node000014"><a xlink:href="lcorolib_8c.html#ad49772e236781ef7ad88ff8bc980b40b" target="_top" xlink:title=" ">
<polygon fill="white" stroke="#666666" points="216,-96.74 130,-96.74 130,-77.74 216,-77.74 216,-96.74"/>
<text text-anchor="middle" x="173" y="-84.74" font-family="Helvetica,sans-Serif" font-size="10.00">luaB_cocreate</text>
</a>
</g>
</g>
<!-- Node1&#45;&gt;Node14 -->
<g id="edge14_Node000001_Node000014" class="edge">
<title>Node1&#45;&gt;Node14</title>
<g id="a_edge14_Node000001_Node000014"><a xlink:title=" ">
<path fill="none" stroke="#63b8ff" d="M498.5,-236.19C492.37,-203.08 475.06,-137.59 431,-107.24 366.69,-62.93 270.64,-69.74 216,-78.56"/>
<polygon fill="#63b8ff" stroke="#63b8ff" points="495.11,-237.17 500.22,-246.45 502.01,-236 495.11,-237.17"/>
</a>
</g>
</g>
<!-- Node15 -->
<g id="Node000015" class="node">
<title>Node15</title>
<g id="a_Node000015"><a xlink:href="classLuaEngine.html#acafb6b4da7c07c8ea5d31096797b36bb" target="_top" xlink:title=" ">
<polygon fill="white" stroke="#666666" points="431,-58.74 267,-58.74 267,-39.74 431,-39.74 431,-58.74"/>
<text text-anchor="middle" x="349" y="-46.74" font-family="Helvetica,sans-Serif" font-size="10.00">LuaEngine::ResumeLuaThread</text>
</a>
</g>
</g>
<!-- Node1&#45;&gt;Node15 -->
<g id="edge17_Node000001_Node000015" class="edge">
<title>Node1&#45;&gt;Node15</title>
<g id="a_edge17_Node000001_Node000015"><a xlink:title=" ">
<path fill="none" stroke="#63b8ff" d="M499.57,-236.56C494.84,-199.22 479.29,-117.82 431,-73.24 424.1,-66.87 415.59,-62.19 406.71,-58.74"/>
<polygon fill="#63b8ff" stroke="#63b8ff" points="496.11,-237.11 500.71,-246.65 503.06,-236.32 496.11,-237.11"/>
</a>
</g>
</g>
<!-- Node16 -->
<g id="Node000016" class="node">
<title>Node16</title>
<g id="a_Node000016"><a xlink:href="LUAEngine_8cpp.html#af3fa71c81a739d39aafb1c9d16eb4562" target="_top" xlink:title=" ">
<polygon fill="white" stroke="#666666" points="227.5,-39.74 118.5,-39.74 118.5,-20.74 227.5,-20.74 227.5,-39.74"/>
<text text-anchor="middle" x="173" y="-27.74" font-family="Helvetica,sans-Serif" font-size="10.00">SuspendLuaThread</text>
</a>
</g>
</g>
<!-- Node1&#45;&gt;Node16 -->
<g id="edge19_Node000001_Node000016" class="edge">
<title>Node1&#45;&gt;Node16</title>
<g id="a_edge19_Node000001_Node000016"><a xlink:title=" ">
<path fill="none" stroke="#63b8ff" d="M502.35,-236.18C503.05,-190.56 497.54,-79.18 431,-30.24 361.99,20.52 251.93,-4.86 201.22,-20.72"/>
<polygon fill="#63b8ff" stroke="#63b8ff" points="498.85,-236.19 502.07,-246.29 505.85,-236.39 498.85,-236.19"/>
</a>
</g>
</g>
<!-- Node17 -->
<g id="Node000017" class="node">
<title>Node17</title>
<g id="a_Node000017"><a xlink:href="ldblib_8c.html#a6269322ee4ae931654d7442fe2be6a46" target="_top" xlink:title=" ">
<polygon fill="white" stroke="#666666" points="397,-247.74 301,-247.74 301,-228.74 397,-228.74 397,-247.74"/>
<text text-anchor="middle" x="349" y="-235.74" font-family="Helvetica,sans-Serif" font-size="10.00">treatstackoption</text>
</a>
</g>
</g>
<!-- Node1&#45;&gt;Node17 -->
<g id="edge20_Node000001_Node000017" class="edge">
<title>Node1&#45;&gt;Node17</title>
<g id="a_edge20_Node000001_Node000017"><a xlink:title=" ">
<path fill="none" stroke="#63b8ff" d="M456.69,-250.91C437.97,-248.69 416.2,-246.1 397.22,-243.85"/>
<polygon fill="#63b8ff" stroke="#63b8ff" points="456.4,-254.4 466.74,-252.11 457.23,-247.45 456.4,-254.4"/>
</a>
</g>
</g>
<!-- Node2&#45;&gt;Node3 -->
<g id="edge2_Node000002_Node000003" class="edge">
<title>Node2&#45;&gt;Node3</title>
<g id="a_edge2_Node000002_Node000003"><a xlink:title=" ">
<path fill="none" stroke="#63b8ff" d="M302.94,-466.9C276.14,-469.67 242.36,-473.17 216.1,-475.88"/>
<polygon fill="#63b8ff" stroke="#63b8ff" points="303.62,-470.35 313.21,-465.84 302.9,-463.39 303.62,-470.35"/>
</a>
</g>
</g>
<!-- Node5 -->
<g id="Node000005" class="node">
<title>Node5</title>
<g id="a_Node000005"><a xlink:href="lcorolib_8c.html#a76f5d80387eeb1c7d31eb5f9cb6c9392" target="_top" xlink:title=" ">
<polygon fill="white" stroke="#666666" points="219,-452.74 127,-452.74 127,-433.74 219,-433.74 219,-452.74"/>
<text text-anchor="middle" x="173" y="-440.74" font-family="Helvetica,sans-Serif" font-size="10.00">luaB_coresume</text>
</a>
</g>
</g>
<!-- Node2&#45;&gt;Node5 -->
<g id="edge4_Node000002_Node000005" class="edge">
<title>Node2&#45;&gt;Node5</title>
<g id="a_edge4_Node000002_Node000005"><a xlink:title=" ">
<path fill="none" stroke="#63b8ff" d="M302.97,-457.32C277.25,-454.51 245.08,-451 219.3,-448.19"/>
<polygon fill="#63b8ff" stroke="#63b8ff" points="302.89,-460.83 313.21,-458.44 303.65,-453.87 302.89,-460.83"/>
</a>
</g>
</g>
<!-- Node4 -->
<g id="Node000004" class="node">
<title>Node4</title>
<g id="a_Node000004"><a xlink:href="lcorolib_8c.html#a1c0429e27f504b08e25f437f733edad1" target="_top" xlink:title=" ">
<polygon fill="white" stroke="#666666" points="79,-283.74 0,-283.74 0,-264.74 79,-264.74 79,-283.74"/>
<text text-anchor="middle" x="39.5" y="-271.74" font-family="Helvetica,sans-Serif" font-size="10.00">luaB_cowrap</text>
</a>
</g>
</g>
<!-- Node3&#45;&gt;Node4 -->
<g id="edge3_Node000003_Node000004" class="edge">
<title>Node3&#45;&gt;Node4</title>
<g id="a_edge3_Node000003_Node000004"><a xlink:title=" ">
<path fill="none" stroke="#63b8ff" d="M120.57,-466.65C118.6,-465.31 116.73,-463.85 115,-462.24 60.27,-411.28 45.04,-314.97 41.47,-284.06"/>
<polygon fill="#63b8ff" stroke="#63b8ff" points="119.33,-469.95 129.78,-471.7 122.69,-463.82 119.33,-469.95"/>
</a>
</g>
</g>
<!-- Node11&#45;&gt;Node12 -->
<g id="edge11_Node000011_Node000012" class="edge">
<title>Node11&#45;&gt;Node12</title>
<g id="a_edge11_Node000011_Node000012"><a xlink:title=" ">
<path fill="none" stroke="#63b8ff" d="M293.2,-136.89C269.3,-141.97 241.63,-147.86 218.96,-152.68"/>
<polygon fill="#63b8ff" stroke="#63b8ff" points="294.14,-140.27 303.19,-134.77 292.68,-133.42 294.14,-140.27"/>
</a>
</g>
</g>
<!-- Node14&#45;&gt;Node4 -->
<g id="edge15_Node000014_Node000004" class="edge">
<title>Node14&#45;&gt;Node4</title>
<g id="a_edge15_Node000014_Node000004"><a xlink:title=" ">
<path fill="none" stroke="#63b8ff" d="M153.07,-103.77C141.31,-114.59 126.33,-129.43 115,-144.24 83.24,-185.77 55.42,-242.23 44.94,-264.57"/>
<polygon fill="#63b8ff" stroke="#63b8ff" points="155.53,-106.26 160.61,-96.97 150.84,-101.07 155.53,-106.26"/>
</a>
</g>
</g>
<!-- Node15&#45;&gt;Node16 -->
<g id="edge18_Node000015_Node000016" class="edge">
<title>Node15&#45;&gt;Node16</title>
<g id="a_edge18_Node000015_Node000016"><a xlink:title=" ">
<path fill="none" stroke="#63b8ff" d="M256.88,-39.29C246.9,-38.2 236.99,-37.12 227.69,-36.1"/>
<polygon fill="#63b8ff" stroke="#63b8ff" points="256.54,-42.77 266.86,-40.38 257.3,-35.81 256.54,-42.77"/>
</a>
</g>
</g>
<!-- Node17&#45;&gt;Node7 -->
<g id="edge21_Node000017_Node000007" class="edge">
<title>Node17&#45;&gt;Node7</title>
<g id="a_edge21_Node000017_Node000007"><a xlink:title=" ">
<path fill="none" stroke="#63b8ff" d="M291.05,-249.28C282.86,-251.53 274.62,-254.17 267,-257.24 236.72,-269.41 204.64,-290.45 187.19,-302.67"/>
<polygon fill="#63b8ff" stroke="#63b8ff" points="292.18,-252.6 300.99,-246.72 290.43,-245.83 292.18,-252.6"/>
</a>
</g>
</g>
</g>
</svg>

<g id="navigator" transform="translate(0 0)" fill="#404254">
  <rect fill="#f2f5e9" fill-opacity="0.5" stroke="#606060" stroke-width=".5" x="0" y="0" width="60" height="60"/>
  <use id="zoomplus" xlink:href="#zoomPlus" x="17" y="9" onmousedown="handleZoom(evt,'in')"/>
  <use id="zoomminus" xlink:href="#zoomMin" x="42" y="9" onmousedown="handleZoom(evt,'out')"/>
  <use id="reset" xlink:href="#resetDef" x="30" y="36" onmousedown="handleReset()"/>
   <use id="arrowup" xlink:href="#arrowUp" x="0" y="0" onmousedown="handlePan(0,-1)"/>
  <use id="arrowright" xlink:href="#arrowRight" x="0" y="0" onmousedown="handlePan(1,0)"/>
  <use id="arrowdown" xlink:href="#arrowDown" x="0" y="0" onmousedown="handlePan(0,1)"/>
  <use id="arrowleft" xlink:href="#arrowLeft" x="0" y="0" onmousedown="handlePan(-1,0)"/>
</g>
<svg viewBox="0 0 15 15" width="100%" height="30px" preserveAspectRatio="xMaxYMin meet">
 <g id="arrow_out" transform="scale(0.3 0.3)">
  <a xlink:href="lua_8h_a389cf4bf773f353508a28293143d403e_icgraph_org.svg" target="_base">
   <rect id="button" ry="5" rx="5" y="6" x="6" height="38" width="38"
        fill="#f2f5e9" fill-opacity="0.5" stroke="#606060" stroke-width="1.0"/>
   <path id="arrow"
     d="M 11.500037,31.436501 C 11.940474,20.09759 22.043105,11.32322 32.158766,21.979434 L 37.068811,17.246167 C 37.068811,17.246167 37.088388,32 37.088388,32 L 22.160133,31.978069 C 22.160133,31.978069 26.997745,27.140456 26.997745,27.140456 C 18.528582,18.264221 13.291696,25.230495 11.500037,31.436501 z"
     style="fill:#404040;"/>
  </a>
 </g>
</svg>

<style type='text/css'>
<![CDATA[
[data-mouse-over-selected='false'] { opacity: 0.7; }
[data-mouse-over-selected='true']  { opacity: 1.0; }
]]>
</style>
<script type="application/ecmascript"><![CDATA[
document.addEventListener('DOMContentLoaded', (event) => {
  highlightEdges();
  highlightAdjacentNodes();
});
]]></script>
</svg>
