<?xml version="1.0" encoding="UTF-8" standalone="no"?>
<!DOCTYPE svg PUBLIC "-//W3C//DTD SVG 1.1//EN"
 "http://www.w3.org/Graphics/SVG/1.1/DTD/svg11.dtd">
<!-- Generated by graphviz version 2.43.0 (0)
 -->
<!-- Title: lua_seti Pages: 1 -->
<svg width="1534pt" height="286pt"
 viewBox="0.00 0.00 1534.00 286.00" xmlns="http://www.w3.org/2000/svg" xmlns:xlink="http://www.w3.org/1999/xlink">
<g id="graph0" class="graph" transform="scale(1 1) rotate(0) translate(4 282)">
<title>lua_seti</title>
<!-- Node1 -->
<g id="Node000001" class="node">
<title>Node1</title>
<g id="a_Node000001"><a xlink:title=" ">
<polygon fill="#999999" stroke="#666666" points="1526,-93 1471,-93 1471,-74 1526,-74 1526,-93"/>
<text text-anchor="middle" x="1498.5" y="-81" font-family="Helvetica,sans-Serif" font-size="10.00">lua_seti</text>
</a>
</g>
</g>
<!-- Node2 -->
<g id="Node000002" class="node">
<title>Node2</title>
<g id="a_Node000002"><a xlink:href="ltablib_8c.html#a66d39e7dbcc639daedcc8618fd2a18e1" target="_top" xlink:title=" ">
<polygon fill="white" stroke="#666666" points="1425,-167 1387,-167 1387,-148 1425,-148 1425,-167"/>
<text text-anchor="middle" x="1406" y="-155" font-family="Helvetica,sans-Serif" font-size="10.00">set2</text>
</a>
</g>
</g>
<!-- Node1&#45;&gt;Node2 -->
<g id="edge1_Node000001_Node000002" class="edge">
<title>Node1&#45;&gt;Node2</title>
<g id="a_edge1_Node000001_Node000002"><a xlink:title=" ">
<path fill="none" stroke="#63b8ff" d="M1479.56,-100.37C1467.33,-111.59 1450.6,-126.42 1435,-138.5 1430.82,-141.74 1426.12,-145.05 1421.78,-147.98"/>
<polygon fill="#63b8ff" stroke="#63b8ff" points="1482.27,-102.62 1487.23,-93.26 1477.51,-97.49 1482.27,-102.62"/>
</a>
</g>
</g>
<!-- Node18 -->
<g id="Node000018" class="node">
<title>Node18</title>
<g id="a_Node000018"><a xlink:href="ltablib_8c.html#a214ed6966e2b1b4c376ab0de0d09032e" target="_top" xlink:title=" ">
<polygon fill="white" stroke="#666666" points="1430,-130 1382,-130 1382,-111 1430,-111 1430,-130"/>
<text text-anchor="middle" x="1406" y="-118" font-family="Helvetica,sans-Serif" font-size="10.00">tinsert</text>
</a>
</g>
</g>
<!-- Node1&#45;&gt;Node18 -->
<g id="edge26_Node000001_Node000018" class="edge">
<title>Node1&#45;&gt;Node18</title>
<g id="a_edge26_Node000001_Node000018"><a xlink:title=" ">
<path fill="none" stroke="#63b8ff" d="M1464.9,-96.83C1453.43,-101.52 1440.77,-106.69 1430.23,-111"/>
<polygon fill="#63b8ff" stroke="#63b8ff" points="1466.26,-100.05 1474.19,-93.03 1463.61,-93.57 1466.26,-100.05"/>
</a>
</g>
</g>
<!-- Node19 -->
<g id="Node000019" class="node">
<title>Node19</title>
<g id="a_Node000019"><a xlink:href="ltablib_8c.html#a2206b11cc9a180fbc33aabb81308fd74" target="_top" xlink:title=" ">
<polygon fill="white" stroke="#666666" points="1430,-93 1382,-93 1382,-74 1430,-74 1430,-93"/>
<text text-anchor="middle" x="1406" y="-81" font-family="Helvetica,sans-Serif" font-size="10.00">tmove</text>
</a>
</g>
</g>
<!-- Node1&#45;&gt;Node19 -->
<g id="edge27_Node000001_Node000019" class="edge">
<title>Node1&#45;&gt;Node19</title>
<g id="a_edge27_Node000001_Node000019"><a xlink:title=" ">
<path fill="none" stroke="#63b8ff" d="M1460.76,-83.5C1450.4,-83.5 1439.42,-83.5 1430.1,-83.5"/>
<polygon fill="#63b8ff" stroke="#63b8ff" points="1460.84,-87 1470.84,-83.5 1460.84,-80 1460.84,-87"/>
</a>
</g>
</g>
<!-- Node20 -->
<g id="Node000020" class="node">
<title>Node20</title>
<g id="a_Node000020"><a xlink:href="ltablib_8c.html#a33b59fd5ba7dbaddc6109c692a9d5dd0" target="_top" xlink:title=" ">
<polygon fill="white" stroke="#666666" points="1428,-56 1384,-56 1384,-37 1428,-37 1428,-56"/>
<text text-anchor="middle" x="1406" y="-44" font-family="Helvetica,sans-Serif" font-size="10.00">tpack</text>
</a>
</g>
</g>
<!-- Node1&#45;&gt;Node20 -->
<g id="edge28_Node000001_Node000020" class="edge">
<title>Node1&#45;&gt;Node20</title>
<g id="a_edge28_Node000001_Node000020"><a xlink:title=" ">
<path fill="none" stroke="#63b8ff" d="M1464.74,-70.11C1452.51,-65.11 1438.96,-59.57 1428.06,-55.11"/>
<polygon fill="#63b8ff" stroke="#63b8ff" points="1463.61,-73.43 1474.19,-73.97 1466.26,-66.95 1463.61,-73.43"/>
</a>
</g>
</g>
<!-- Node21 -->
<g id="Node000021" class="node">
<title>Node21</title>
<g id="a_Node000021"><a xlink:href="ltablib_8c.html#ad8c41fe887a472709c6fdf075ba39d56" target="_top" xlink:title=" ">
<polygon fill="white" stroke="#666666" points="1435,-19 1377,-19 1377,0 1435,0 1435,-19"/>
<text text-anchor="middle" x="1406" y="-7" font-family="Helvetica,sans-Serif" font-size="10.00">tremove</text>
</a>
</g>
</g>
<!-- Node1&#45;&gt;Node21 -->
<g id="edge29_Node000001_Node000021" class="edge">
<title>Node1&#45;&gt;Node21</title>
<g id="a_edge29_Node000001_Node000021"><a xlink:title=" ">
<path fill="none" stroke="#63b8ff" d="M1480.48,-66.9C1468.26,-55.33 1451.16,-39.81 1435,-27.5 1431.23,-24.63 1427,-21.75 1423,-19.16"/>
<polygon fill="#63b8ff" stroke="#63b8ff" points="1478.11,-69.48 1487.75,-73.87 1482.95,-64.42 1478.11,-69.48"/>
</a>
</g>
</g>
<!-- Node3 -->
<g id="Node000003" class="node">
<title>Node3</title>
<g id="a_Node000003"><a xlink:href="ltablib_8c.html#a151c51c8905acb3db7d6f1e58265b709" target="_top" xlink:title=" ">
<polygon fill="white" stroke="#666666" points="1247,-167 1194,-167 1194,-148 1247,-148 1247,-167"/>
<text text-anchor="middle" x="1220.5" y="-155" font-family="Helvetica,sans-Serif" font-size="10.00">auxsort</text>
</a>
</g>
</g>
<!-- Node2&#45;&gt;Node3 -->
<g id="edge2_Node000002_Node000003" class="edge">
<title>Node2&#45;&gt;Node3</title>
<g id="a_edge2_Node000002_Node000003"><a xlink:title=" ">
<path fill="none" stroke="#63b8ff" d="M1376.61,-157.5C1341.25,-157.5 1281.38,-157.5 1247.29,-157.5"/>
<polygon fill="#63b8ff" stroke="#63b8ff" points="1376.73,-161 1386.73,-157.5 1376.73,-154 1376.73,-161"/>
</a>
</g>
</g>
<!-- Node17 -->
<g id="Node000017" class="node">
<title>Node17</title>
<g id="a_Node000017"><a xlink:href="ltablib_8c.html#a1d53059f696e353656cd98be725ffbd2" target="_top" xlink:title=" ">
<polygon fill="white" stroke="#666666" points="1341,-148 1283,-148 1283,-129 1341,-129 1341,-148"/>
<text text-anchor="middle" x="1312" y="-136" font-family="Helvetica,sans-Serif" font-size="10.00">partition</text>
</a>
</g>
</g>
<!-- Node2&#45;&gt;Node17 -->
<g id="edge24_Node000002_Node000017" class="edge">
<title>Node2&#45;&gt;Node17</title>
<g id="a_edge24_Node000002_Node000017"><a xlink:title=" ">
<path fill="none" stroke="#63b8ff" d="M1377.01,-151.72C1365.69,-149.38 1352.64,-146.69 1341.28,-144.34"/>
<polygon fill="#63b8ff" stroke="#63b8ff" points="1376.32,-155.15 1386.82,-153.75 1377.74,-148.3 1376.32,-155.15"/>
</a>
</g>
</g>
<!-- Node3&#45;&gt;Node3 -->
<g id="edge3_Node000003_Node000003" class="edge">
<title>Node3&#45;&gt;Node3</title>
<g id="a_edge3_Node000003_Node000003"><a xlink:title=" ">
<path fill="none" stroke="#63b8ff" d="M1235.23,-176.91C1234.08,-181.56 1229.16,-185 1220.5,-185 1206.28,-185 1202.17,-175.73 1208.17,-167.08"/>
<polygon fill="#63b8ff" stroke="#63b8ff" points="1238.6,-175.97 1232.83,-167.08 1231.8,-177.63 1238.6,-175.97"/>
</a>
</g>
</g>
<!-- Node4 -->
<g id="Node000004" class="node">
<title>Node4</title>
<g id="a_Node000004"><a xlink:href="ltablib_8c.html#ae7d3f892e2605bf102dce63de388e626" target="_top" xlink:title=" ">
<polygon fill="white" stroke="#666666" points="1158,-167 1123,-167 1123,-148 1158,-148 1158,-167"/>
<text text-anchor="middle" x="1140.5" y="-155" font-family="Helvetica,sans-Serif" font-size="10.00">sort</text>
</a>
</g>
</g>
<!-- Node3&#45;&gt;Node4 -->
<g id="edge4_Node000003_Node000004" class="edge">
<title>Node3&#45;&gt;Node4</title>
<g id="a_edge4_Node000003_Node000004"><a xlink:title=" ">
<path fill="none" stroke="#63b8ff" d="M1183.74,-157.5C1174.84,-157.5 1165.72,-157.5 1158.24,-157.5"/>
<polygon fill="#63b8ff" stroke="#63b8ff" points="1183.96,-161 1193.96,-157.5 1183.96,-154 1183.96,-161"/>
</a>
</g>
</g>
<!-- Node5 -->
<g id="Node000005" class="node">
<title>Node5</title>
<g id="a_Node000005"><a xlink:href="classG3D_1_1Matrix.html#aa549fb504bd0f71fae91a28a307d3957" target="_top" xlink:title=" ">
<polygon fill="white" stroke="#666666" points="1087,-167 989,-167 989,-148 1087,-148 1087,-167"/>
<text text-anchor="middle" x="1038" y="-155" font-family="Helvetica,sans-Serif" font-size="10.00">G3D::Matrix::svd</text>
</a>
</g>
</g>
<!-- Node4&#45;&gt;Node5 -->
<g id="edge5_Node000004_Node000005" class="edge">
<title>Node4&#45;&gt;Node5</title>
<g id="a_edge5_Node000004_Node000005"><a xlink:title=" ">
<path fill="none" stroke="#63b8ff" d="M1112.88,-157.5C1105,-157.5 1096.11,-157.5 1087.3,-157.5"/>
<polygon fill="#63b8ff" stroke="#63b8ff" points="1112.9,-161 1122.9,-157.5 1112.9,-154 1112.9,-161"/>
</a>
</g>
</g>
<!-- Node6 -->
<g id="Node000006" class="node">
<title>Node6</title>
<g id="a_Node000006"><a xlink:href="classG3D_1_1Matrix.html#a1efeaa817dac13b4e5e8579f39952999" target="_top" xlink:title=" ">
<polygon fill="white" stroke="#666666" points="953,-167 783,-167 783,-148 953,-148 953,-167"/>
<text text-anchor="middle" x="868" y="-155" font-family="Helvetica,sans-Serif" font-size="10.00">G3D::Matrix::svdPseudoInverse</text>
</a>
</g>
</g>
<!-- Node5&#45;&gt;Node6 -->
<g id="edge6_Node000005_Node000006" class="edge">
<title>Node5&#45;&gt;Node6</title>
<g id="a_edge6_Node000005_Node000006"><a xlink:title=" ">
<path fill="none" stroke="#63b8ff" d="M978.59,-157.5C970.31,-157.5 961.65,-157.5 953,-157.5"/>
<polygon fill="#63b8ff" stroke="#63b8ff" points="978.86,-161 988.86,-157.5 978.86,-154 978.86,-161"/>
</a>
</g>
</g>
<!-- Node6&#45;&gt;Node6 -->
<g id="edge23_Node000006_Node000006" class="edge">
<title>Node6&#45;&gt;Node6</title>
<g id="a_edge23_Node000006_Node000006"><a xlink:title=" ">
<path fill="none" stroke="#63b8ff" d="M899.81,-175.45C898.9,-180.82 888.3,-185 868,-185 837.79,-185 829.05,-175.73 841.8,-167.08"/>
<polygon fill="#63b8ff" stroke="#63b8ff" points="902.68,-173.44 894.2,-167.08 896.86,-177.34 902.68,-173.44"/>
</a>
</g>
</g>
<!-- Node7 -->
<g id="Node000007" class="node">
<title>Node7</title>
<g id="a_Node000007"><a xlink:href="classG3D_1_1Matrix.html#ae090ef5cefd91ad2387eae986b0929d9" target="_top" xlink:title=" ">
<polygon fill="white" stroke="#666666" points="745.5,-130 572.5,-130 572.5,-111 745.5,-111 745.5,-130"/>
<text text-anchor="middle" x="659" y="-118" font-family="Helvetica,sans-Serif" font-size="10.00">G3D::Matrix::col2PseudoInverse</text>
</a>
</g>
</g>
<!-- Node6&#45;&gt;Node7 -->
<g id="edge7_Node000006_Node000007" class="edge">
<title>Node6&#45;&gt;Node7</title>
<g id="a_edge7_Node000006_Node000007"><a xlink:title=" ">
<path fill="none" stroke="#63b8ff" d="M803.71,-146.19C774.85,-141.03 741.05,-134.99 713.49,-130.06"/>
<polygon fill="#63b8ff" stroke="#63b8ff" points="803.23,-149.66 813.69,-147.97 804.46,-142.77 803.23,-149.66"/>
</a>
</g>
</g>
<!-- Node10 -->
<g id="Node000010" class="node">
<title>Node10</title>
<g id="a_Node000010"><a xlink:href="classG3D_1_1Matrix.html#a3c072a45799633e4c86f87b61cad9afa" target="_top" xlink:title="Computes the Moore&#45;Penrose pseudo inverse, equivalent to (ATA)&#45;1AT). The SVD method is used for perfo...">
<polygon fill="white" stroke="#666666" points="152,-92 0,-92 0,-73 152,-73 152,-92"/>
<text text-anchor="middle" x="76" y="-80" font-family="Helvetica,sans-Serif" font-size="10.00">G3D::Matrix::pseudoInverse</text>
</a>
</g>
</g>
<!-- Node6&#45;&gt;Node10 -->
<g id="edge15_Node000006_Node000010" class="edge">
<title>Node6&#45;&gt;Node10</title>
<g id="a_edge15_Node000006_Node000010"><a xlink:title=" ">
<path fill="none" stroke="#63b8ff" d="M852.15,-140.46C831.31,-117.99 790.98,-79.55 747,-64.5 516.9,14.23 215.94,-47.59 113.19,-72.94"/>
<polygon fill="#63b8ff" stroke="#63b8ff" points="849.61,-142.87 858.92,-147.94 854.8,-138.18 849.61,-142.87"/>
</a>
</g>
</g>
<!-- Node11 -->
<g id="Node000011" class="node">
<title>Node11</title>
<g id="a_Node000011"><a xlink:href="classG3D_1_1Matrix.html#a4671caf7ffb0fd4ffd1ad10cab2ba39f" target="_top" xlink:title=" ">
<polygon fill="white" stroke="#666666" points="745.5,-93 572.5,-93 572.5,-74 745.5,-74 745.5,-93"/>
<text text-anchor="middle" x="659" y="-81" font-family="Helvetica,sans-Serif" font-size="10.00">G3D::Matrix::col3PseudoInverse</text>
</a>
</g>
</g>
<!-- Node6&#45;&gt;Node11 -->
<g id="edge11_Node000006_Node000011" class="edge">
<title>Node6&#45;&gt;Node11</title>
<g id="a_edge11_Node000006_Node000011"><a xlink:title=" ">
<path fill="none" stroke="#63b8ff" d="M840.54,-142.96C816.69,-130.4 780.37,-112.57 747,-101.5 737.05,-98.2 726.24,-95.38 715.74,-93.02"/>
<polygon fill="#63b8ff" stroke="#63b8ff" points="839.17,-146.2 849.64,-147.82 842.47,-140.02 839.17,-146.2"/>
</a>
</g>
</g>
<!-- Node12 -->
<g id="Node000012" class="node">
<title>Node12</title>
<g id="a_Node000012"><a xlink:href="classG3D_1_1Matrix.html#af820da46f47f8d76860d1860e29d212e" target="_top" xlink:title=" ">
<polygon fill="white" stroke="#666666" points="745.5,-167 572.5,-167 572.5,-148 745.5,-148 745.5,-167"/>
<text text-anchor="middle" x="659" y="-155" font-family="Helvetica,sans-Serif" font-size="10.00">G3D::Matrix::col4PseudoInverse</text>
</a>
</g>
</g>
<!-- Node6&#45;&gt;Node12 -->
<g id="edge13_Node000006_Node000012" class="edge">
<title>Node6&#45;&gt;Node12</title>
<g id="a_edge13_Node000006_Node000012"><a xlink:title=" ">
<path fill="none" stroke="#63b8ff" d="M772.73,-157.5C763.75,-157.5 754.69,-157.5 745.8,-157.5"/>
<polygon fill="#63b8ff" stroke="#63b8ff" points="772.81,-161 782.81,-157.5 772.81,-154 772.81,-161"/>
</a>
</g>
</g>
<!-- Node13 -->
<g id="Node000013" class="node">
<title>Node13</title>
<g id="a_Node000013"><a xlink:href="classG3D_1_1Matrix.html#aefda4fea6082eb45e5f53737c1313d70" target="_top" xlink:title=" ">
<polygon fill="white" stroke="#666666" points="747,-241 571,-241 571,-222 747,-222 747,-241"/>
<text text-anchor="middle" x="659" y="-229" font-family="Helvetica,sans-Serif" font-size="10.00">G3D::Matrix::row2PseudoInverse</text>
</a>
</g>
</g>
<!-- Node6&#45;&gt;Node13 -->
<g id="edge16_Node000006_Node000013" class="edge">
<title>Node6&#45;&gt;Node13</title>
<g id="a_edge16_Node000006_Node000013"><a xlink:title=" ">
<path fill="none" stroke="#63b8ff" d="M840.54,-172.04C816.69,-184.6 780.37,-202.43 747,-213.5 737.05,-216.8 726.24,-219.62 715.74,-221.98"/>
<polygon fill="#63b8ff" stroke="#63b8ff" points="842.47,-174.98 849.64,-167.18 839.17,-168.8 842.47,-174.98"/>
</a>
</g>
</g>
<!-- Node15 -->
<g id="Node000015" class="node">
<title>Node15</title>
<g id="a_Node000015"><a xlink:href="classG3D_1_1Matrix.html#a85b1085af6b40c930e2ac7d123fa758b" target="_top" xlink:title=" ">
<polygon fill="white" stroke="#666666" points="747,-204 571,-204 571,-185 747,-185 747,-204"/>
<text text-anchor="middle" x="659" y="-192" font-family="Helvetica,sans-Serif" font-size="10.00">G3D::Matrix::row3PseudoInverse</text>
</a>
</g>
</g>
<!-- Node6&#45;&gt;Node15 -->
<g id="edge19_Node000006_Node000015" class="edge">
<title>Node6&#45;&gt;Node15</title>
<g id="a_edge19_Node000006_Node000015"><a xlink:title=" ">
<path fill="none" stroke="#63b8ff" d="M803.71,-168.81C774.85,-173.97 741.05,-180.01 713.49,-184.94"/>
<polygon fill="#63b8ff" stroke="#63b8ff" points="804.46,-172.23 813.69,-167.03 803.23,-165.34 804.46,-172.23"/>
</a>
</g>
</g>
<!-- Node16 -->
<g id="Node000016" class="node">
<title>Node16</title>
<g id="a_Node000016"><a xlink:href="classG3D_1_1Matrix.html#a41839dc8bc249f8cdd7f628ecb652581" target="_top" xlink:title=" ">
<polygon fill="white" stroke="#666666" points="747,-278 571,-278 571,-259 747,-259 747,-278"/>
<text text-anchor="middle" x="659" y="-266" font-family="Helvetica,sans-Serif" font-size="10.00">G3D::Matrix::row4PseudoInverse</text>
</a>
</g>
</g>
<!-- Node6&#45;&gt;Node16 -->
<g id="edge21_Node000006_Node000016" class="edge">
<title>Node6&#45;&gt;Node16</title>
<g id="a_edge21_Node000006_Node000016"><a xlink:title=" ">
<path fill="none" stroke="#63b8ff" d="M850.65,-174.23C828.97,-195.38 788.58,-231.35 747,-250.5 739.58,-253.92 731.5,-256.7 723.35,-258.95"/>
<polygon fill="#63b8ff" stroke="#63b8ff" points="853.13,-176.69 857.76,-167.16 848.2,-171.73 853.13,-176.69"/>
</a>
</g>
</g>
<!-- Node8 -->
<g id="Node000008" class="node">
<title>Node8</title>
<g id="a_Node000008"><a xlink:href="classG3D_1_1Matrix.html#a2e5c42add1566f1ac2a6e1ebe613fbe1" target="_top" xlink:title=" ">
<polygon fill="white" stroke="#666666" points="533,-135.5 384,-135.5 384,-105.5 533,-105.5 533,-135.5"/>
<text text-anchor="start" x="392" y="-123.5" font-family="Helvetica,sans-Serif" font-size="10.00">G3D::Matrix::colPartPseudo</text>
<text text-anchor="middle" x="458.5" y="-112.5" font-family="Helvetica,sans-Serif" font-size="10.00">Inverse</text>
</a>
</g>
</g>
<!-- Node7&#45;&gt;Node8 -->
<g id="edge8_Node000007_Node000008" class="edge">
<title>Node7&#45;&gt;Node8</title>
<g id="a_edge8_Node000007_Node000008"><a xlink:title=" ">
<path fill="none" stroke="#63b8ff" d="M562.27,-120.5C552.53,-120.5 542.75,-120.5 533.31,-120.5"/>
<polygon fill="#63b8ff" stroke="#63b8ff" points="562.38,-124 572.38,-120.5 562.38,-117 562.38,-124"/>
</a>
</g>
</g>
<!-- Node9 -->
<g id="Node000009" class="node">
<title>Node9</title>
<g id="a_Node000009"><a xlink:href="classG3D_1_1Matrix.html#a8d45484f949b42086ed24af32679556a" target="_top" xlink:title=" ">
<polygon fill="white" stroke="#666666" points="346,-135.5 188,-135.5 188,-105.5 346,-105.5 346,-135.5"/>
<text text-anchor="start" x="196" y="-123.5" font-family="Helvetica,sans-Serif" font-size="10.00">G3D::Matrix::partitionPseudo</text>
<text text-anchor="middle" x="267" y="-112.5" font-family="Helvetica,sans-Serif" font-size="10.00">Inverse</text>
</a>
</g>
</g>
<!-- Node8&#45;&gt;Node9 -->
<g id="edge9_Node000008_Node000009" class="edge">
<title>Node8&#45;&gt;Node9</title>
<g id="a_edge9_Node000008_Node000009"><a xlink:title=" ">
<path fill="none" stroke="#63b8ff" d="M373.71,-120.5C364.56,-120.5 355.28,-120.5 346.2,-120.5"/>
<polygon fill="#63b8ff" stroke="#63b8ff" points="373.96,-124 383.96,-120.5 373.96,-117 373.96,-124"/>
</a>
</g>
</g>
<!-- Node9&#45;&gt;Node10 -->
<g id="edge10_Node000009_Node000010" class="edge">
<title>Node9&#45;&gt;Node10</title>
<g id="a_edge10_Node000009_Node000010"><a xlink:title=" ">
<path fill="none" stroke="#63b8ff" d="M181.42,-103.49C161.8,-99.55 141.6,-95.49 124.25,-92"/>
<polygon fill="#63b8ff" stroke="#63b8ff" points="180.81,-106.94 191.3,-105.48 182.19,-100.08 180.81,-106.94"/>
</a>
</g>
</g>
<!-- Node11&#45;&gt;Node8 -->
<g id="edge12_Node000011_Node000008" class="edge">
<title>Node11&#45;&gt;Node8</title>
<g id="a_edge12_Node000011_Node000008"><a xlink:title=" ">
<path fill="none" stroke="#63b8ff" d="M596.92,-94.89C576.81,-98.63 554.23,-102.84 533.27,-106.75"/>
<polygon fill="#63b8ff" stroke="#63b8ff" points="597.69,-98.3 606.88,-93.03 596.41,-91.42 597.69,-98.3"/>
</a>
</g>
</g>
<!-- Node12&#45;&gt;Node8 -->
<g id="edge14_Node000012_Node000008" class="edge">
<title>Node12&#45;&gt;Node8</title>
<g id="a_edge14_Node000012_Node000008"><a xlink:title=" ">
<path fill="none" stroke="#63b8ff" d="M596.92,-146.11C576.81,-142.37 554.23,-138.16 533.27,-134.25"/>
<polygon fill="#63b8ff" stroke="#63b8ff" points="596.41,-149.58 606.88,-147.97 597.69,-142.7 596.41,-149.58"/>
</a>
</g>
</g>
<!-- Node14 -->
<g id="Node000014" class="node">
<title>Node14</title>
<g id="a_Node000014"><a xlink:href="classG3D_1_1Matrix.html#a79b2c3e30ccd06173ed6186acab1c527" target="_top" xlink:title=" ">
<polygon fill="white" stroke="#666666" points="535,-227.5 382,-227.5 382,-197.5 535,-197.5 535,-227.5"/>
<text text-anchor="start" x="390" y="-215.5" font-family="Helvetica,sans-Serif" font-size="10.00">G3D::Matrix::rowPartPseudo</text>
<text text-anchor="middle" x="458.5" y="-204.5" font-family="Helvetica,sans-Serif" font-size="10.00">Inverse</text>
</a>
</g>
</g>
<!-- Node13&#45;&gt;Node14 -->
<g id="edge17_Node000013_Node000014" class="edge">
<title>Node13&#45;&gt;Node14</title>
<g id="a_edge17_Node000013_Node000014"><a xlink:title=" ">
<path fill="none" stroke="#63b8ff" d="M560.87,-222.2C552.28,-221.38 543.67,-220.56 535.29,-219.75"/>
<polygon fill="#63b8ff" stroke="#63b8ff" points="560.65,-225.7 570.94,-223.17 561.31,-218.73 560.65,-225.7"/>
</a>
</g>
</g>
<!-- Node14&#45;&gt;Node9 -->
<g id="edge18_Node000014_Node000009" class="edge">
<title>Node14&#45;&gt;Node9</title>
<g id="a_edge18_Node000014_Node000009"><a xlink:title=" ">
<path fill="none" stroke="#63b8ff" d="M417.13,-192.9C381.81,-175.75 331.25,-151.21 299.02,-135.56"/>
<polygon fill="#63b8ff" stroke="#63b8ff" points="415.68,-196.09 426.21,-197.31 418.74,-189.79 415.68,-196.09"/>
</a>
</g>
</g>
<!-- Node15&#45;&gt;Node14 -->
<g id="edge20_Node000015_Node000014" class="edge">
<title>Node15&#45;&gt;Node14</title>
<g id="a_edge20_Node000015_Node000014"><a xlink:title=" ">
<path fill="none" stroke="#63b8ff" d="M560.87,-203.31C552.28,-204.09 543.67,-204.87 535.29,-205.63"/>
<polygon fill="#63b8ff" stroke="#63b8ff" points="561.29,-206.78 570.94,-202.4 560.66,-199.81 561.29,-206.78"/>
</a>
</g>
</g>
<!-- Node16&#45;&gt;Node14 -->
<g id="edge22_Node000016_Node000014" class="edge">
<title>Node16&#45;&gt;Node14</title>
<g id="a_edge22_Node000016_Node000014"><a xlink:title=" ">
<path fill="none" stroke="#63b8ff" d="M596.9,-256.86C588.17,-254.91 579.33,-252.77 571,-250.5 547.03,-243.96 520.69,-235.07 499.64,-227.53"/>
<polygon fill="#63b8ff" stroke="#63b8ff" points="596.17,-260.29 606.68,-258.99 597.66,-253.44 596.17,-260.29"/>
</a>
</g>
</g>
<!-- Node17&#45;&gt;Node3 -->
<g id="edge25_Node000017_Node000003" class="edge">
<title>Node17&#45;&gt;Node3</title>
<g id="a_edge25_Node000017_Node000003"><a xlink:title=" ">
<path fill="none" stroke="#63b8ff" d="M1272.78,-146.61C1264.14,-148.45 1255.18,-150.35 1247.21,-152.04"/>
<polygon fill="#63b8ff" stroke="#63b8ff" points="1273.63,-150.01 1282.68,-144.51 1272.17,-143.16 1273.63,-150.01"/>
</a>
</g>
</g>
</g>
</svg>
