<?xml version="1.0" encoding="UTF-8" standalone="no"?>
<!DOCTYPE svg PUBLIC "-//W3C//DTD SVG 1.1//EN"
 "http://www.w3.org/Graphics/SVG/1.1/DTD/svg11.dtd">
<!-- Generated by graphviz version 2.43.0 (0)
 -->
<!-- Title: fatal Pages: 1 -->
<svg width="302pt" height="84pt"
 viewBox="0.00 0.00 302.00 84.00" xmlns="http://www.w3.org/2000/svg" xmlns:xlink="http://www.w3.org/1999/xlink">
<g id="graph0" class="graph" transform="scale(1 1) rotate(0) translate(4 80)">
<title>fatal</title>
<!-- Node1 -->
<g id="Node000001" class="node">
<title>Node1</title>
<g id="a_Node000001"><a xlink:title=" ">
<polygon fill="#999999" stroke="#666666" points="294,-38 255,-38 255,-19 294,-19 294,-38"/>
<text text-anchor="middle" x="274.5" y="-26" font-family="Helvetica,sans-Serif" font-size="10.00">fatal</text>
</a>
</g>
</g>
<!-- Node2 -->
<g id="Node000002" class="node">
<title>Node2</title>
<g id="a_Node000002"><a xlink:href="luac_8c.html#a5cce7bb7467b6b600a673aa8b50d99d3" target="_top" xlink:title=" ">
<polygon fill="white" stroke="#666666" points="219,-76 160,-76 160,-57 219,-57 219,-76"/>
<text text-anchor="middle" x="189.5" y="-64" font-family="Helvetica,sans-Serif" font-size="10.00">combine</text>
</a>
</g>
</g>
<!-- Node1&#45;&gt;Node2 -->
<g id="edge1_Node000001_Node000002" class="edge">
<title>Node1&#45;&gt;Node2</title>
<g id="a_edge1_Node000001_Node000002"><a xlink:title=" ">
<path fill="none" stroke="#63b8ff" d="M245.33,-41.4C234.18,-46.5 221.6,-52.26 211.3,-56.98"/>
<polygon fill="#63b8ff" stroke="#63b8ff" points="247.03,-44.47 254.67,-37.12 244.12,-38.1 247.03,-44.47"/>
</a>
</g>
</g>
<!-- Node3 -->
<g id="Node000003" class="node">
<title>Node3</title>
<g id="a_Node000003"><a xlink:href="luac_8c.html#aa0f8bc082ef913cb0a4df437bf5f5019" target="_top" xlink:title=" ">
<polygon fill="white" stroke="#666666" points="124,-38 77,-38 77,-19 124,-19 124,-38"/>
<text text-anchor="middle" x="100.5" y="-26" font-family="Helvetica,sans-Serif" font-size="10.00">pmain</text>
</a>
</g>
</g>
<!-- Node1&#45;&gt;Node3 -->
<g id="edge5_Node000001_Node000003" class="edge">
<title>Node1&#45;&gt;Node3</title>
<g id="a_edge5_Node000001_Node000003"><a xlink:title=" ">
<path fill="none" stroke="#63b8ff" d="M244.55,-28.5C210.57,-28.5 154.93,-28.5 124.01,-28.5"/>
<polygon fill="#63b8ff" stroke="#63b8ff" points="244.77,-32 254.77,-28.5 244.77,-25 244.77,-32"/>
</a>
</g>
</g>
<!-- Node4 -->
<g id="Node000004" class="node">
<title>Node4</title>
<g id="a_Node000004"><a xlink:href="luac_8c.html#a0ddf1224851353fc92bfbff6f499fa97" target="_top" xlink:title=" ">
<polygon fill="white" stroke="#666666" points="41,-19 0,-19 0,0 41,0 41,-19"/>
<text text-anchor="middle" x="20.5" y="-7" font-family="Helvetica,sans-Serif" font-size="10.00">main</text>
</a>
</g>
</g>
<!-- Node1&#45;&gt;Node4 -->
<g id="edge4_Node000001_Node000004" class="edge">
<title>Node1&#45;&gt;Node4</title>
<g id="a_edge4_Node000001_Node000004"><a xlink:title=" ">
<path fill="none" stroke="#63b8ff" d="M244.48,-24.05C214.43,-19.66 166.05,-13.23 124,-10.5 95.23,-8.63 61.83,-8.73 41.17,-9.05"/>
<polygon fill="#63b8ff" stroke="#63b8ff" points="244.28,-27.55 254.68,-25.56 245.3,-20.63 244.28,-27.55"/>
</a>
</g>
</g>
<!-- Node2&#45;&gt;Node3 -->
<g id="edge2_Node000002_Node000003" class="edge">
<title>Node2&#45;&gt;Node3</title>
<g id="a_edge2_Node000002_Node000003"><a xlink:title=" ">
<path fill="none" stroke="#63b8ff" d="M157.12,-52.79C145.96,-47.92 133.65,-42.54 123.45,-38.09"/>
<polygon fill="#63b8ff" stroke="#63b8ff" points="155.98,-56.12 166.55,-56.91 158.78,-49.7 155.98,-56.12"/>
</a>
</g>
</g>
<!-- Node3&#45;&gt;Node4 -->
<g id="edge3_Node000003_Node000004" class="edge">
<title>Node3&#45;&gt;Node4</title>
<g id="a_edge3_Node000003_Node000004"><a xlink:title=" ">
<path fill="none" stroke="#63b8ff" d="M66.94,-20.57C58.16,-18.43 48.93,-16.18 41.1,-14.27"/>
<polygon fill="#63b8ff" stroke="#63b8ff" points="66.39,-24.04 76.94,-23 68.05,-17.24 66.39,-24.04"/>
</a>
</g>
</g>
</g>
</svg>
