<?xml version="1.0" encoding="UTF-8" standalone="no"?>
<!DOCTYPE svg PUBLIC "-//W3C//DTD SVG 1.1//EN"
 "http://www.w3.org/Graphics/SVG/1.1/DTD/svg11.dtd">
<!-- Generated by graphviz version 2.43.0 (0)
 -->
<!-- Title: RegisterGOGossipEvent Pages: 1 -->
<svg width="334pt" height="76pt"
 viewBox="0.00 0.00 334.00 75.50" xmlns="http://www.w3.org/2000/svg" xmlns:xlink="http://www.w3.org/1999/xlink">
<g id="graph0" class="graph" transform="scale(1 1) rotate(0) translate(4 71.5)">
<title>RegisterGOGossipEvent</title>
<!-- Node1 -->
<g id="Node000001" class="node">
<title>Node1</title>
<g id="a_Node000001"><a xlink:title=" ">
<polygon fill="#999999" stroke="#666666" points="133,-40 0,-40 0,-21 133,-21 133,-40"/>
<text text-anchor="middle" x="66.5" y="-28" font-family="Helvetica,sans-Serif" font-size="10.00">RegisterGOGossipEvent</text>
</a>
</g>
</g>
<!-- Node2 -->
<g id="Node000002" class="node">
<title>Node2</title>
<g id="a_Node000002"><a xlink:href="classLuaHelpers.html#ab41d986a4fe1e805d126035513b7506b" target="_top" xlink:title=" ">
<polygon fill="white" stroke="#666666" points="326,-67.5 169,-67.5 169,-37.5 326,-37.5 326,-67.5"/>
<text text-anchor="start" x="177" y="-55.5" font-family="Helvetica,sans-Serif" font-size="10.00">LuaHelpers::ExtractfRefFrom</text>
<text text-anchor="middle" x="247.5" y="-44.5" font-family="Helvetica,sans-Serif" font-size="10.00">CString</text>
</a>
</g>
</g>
<!-- Node1&#45;&gt;Node2 -->
<g id="edge1_Node000001_Node000002" class="edge">
<title>Node1&#45;&gt;Node2</title>
<g id="a_edge1_Node000001_Node000002"><a xlink:title=" ">
<path fill="none" stroke="#63b8ff" d="M133.14,-38.57C141.46,-39.59 150.07,-40.65 158.67,-41.7"/>
<polygon fill="#63b8ff" stroke="#63b8ff" points="158.38,-45.2 168.73,-42.94 159.23,-38.25 158.38,-45.2"/>
</a>
</g>
</g>
<!-- Node3 -->
<g id="Node000003" class="node">
<title>Node3</title>
<g id="a_Node000003"><a xlink:href="classLuaGlobal.html#aa9500a990e1c19309724ec6d885545f9" target="_top" xlink:title=" ">
<polygon fill="white" stroke="#666666" points="304,-19 191,-19 191,0 304,0 304,-19"/>
<text text-anchor="middle" x="247.5" y="-7" font-family="Helvetica,sans-Serif" font-size="10.00">LuaGlobal::instance</text>
</a>
</g>
</g>
<!-- Node1&#45;&gt;Node3 -->
<g id="edge2_Node000001_Node000003" class="edge">
<title>Node1&#45;&gt;Node3</title>
<g id="a_edge2_Node000001_Node000003"><a xlink:title=" ">
<path fill="none" stroke="#63b8ff" d="M133.14,-22.8C148.69,-20.98 165.28,-19.03 180.83,-17.2"/>
<polygon fill="#63b8ff" stroke="#63b8ff" points="181.35,-20.67 190.88,-16.03 180.54,-13.71 181.35,-20.67"/>
</a>
</g>
</g>
</g>
</svg>
