<?xml version="1.0" encoding="UTF-8" standalone="no"?>
<!DOCTYPE svg PUBLIC "-//W3C//DTD SVG 1.1//EN"
 "http://www.w3.org/Graphics/SVG/1.1/DTD/svg11.dtd">
<!-- Generated by graphviz version 2.43.0 (0)
 -->
<!-- Title: AscEmu/src/scripts/LuaEngine/LuaUnit.hpp Pages: 1 -->
<svg width="1812pt" height="236pt"
 viewBox="0.00 0.00 1811.50 236.00" xmlns="http://www.w3.org/2000/svg" xmlns:xlink="http://www.w3.org/1999/xlink">
<g id="graph0" class="graph" transform="scale(1 1) rotate(0) translate(4 232)">
<title>AscEmu/src/scripts/LuaEngine/LuaUnit.hpp</title>
<!-- Node1 -->
<g id="Node000001" class="node">
<title>Node1</title>
<g id="a_Node000001"><a xlink:title=" ">
<polygon fill="#999999" stroke="#666666" points="1480.5,-228 1349.5,-228 1349.5,-198 1480.5,-198 1480.5,-228"/>
<text text-anchor="start" x="1357.5" y="-216" font-family="Helvetica,sans-Serif" font-size="10.00">AscEmu/src/scripts</text>
<text text-anchor="middle" x="1415" y="-205" font-family="Helvetica,sans-Serif" font-size="10.00">/LuaEngine/LuaUnit.hpp</text>
</a>
</g>
</g>
<!-- Node2 -->
<g id="Node000002" class="node">
<title>Node2</title>
<g id="a_Node000002"><a xlink:href="LUAFunctionTables_8hpp.html" target="_top" xlink:title=" ">
<polygon fill="white" stroke="#666666" points="1447.5,-162 1262.5,-162 1262.5,-132 1447.5,-132 1447.5,-162"/>
<text text-anchor="start" x="1270.5" y="-150" font-family="Helvetica,sans-Serif" font-size="10.00">AscEmu/src/scripts</text>
<text text-anchor="middle" x="1355" y="-139" font-family="Helvetica,sans-Serif" font-size="10.00">/LuaEngine/LUAFunctionTables.hpp</text>
</a>
</g>
</g>
<!-- Node1&#45;&gt;Node2 -->
<g id="edge1_Node000001_Node000002" class="edge">
<title>Node1&#45;&gt;Node2</title>
<g id="a_edge1_Node000001_Node000002"><a xlink:title=" ">
<path fill="none" stroke="#63b8ff" d="M1394.72,-190.37C1385.99,-181.06 1376.04,-170.44 1368.28,-162.16"/>
<polygon fill="#63b8ff" stroke="#63b8ff" points="1392.29,-192.89 1401.68,-197.8 1397.4,-188.11 1392.29,-192.89"/>
</a>
</g>
</g>
<!-- Node13 -->
<g id="Node000013" class="node">
<title>Node13</title>
<g id="a_Node000013"><a xlink:href="LuaUnit_8cpp.html" target="_top" xlink:title=" ">
<polygon fill="white" stroke="#666666" points="1803.5,-30 1672.5,-30 1672.5,0 1803.5,0 1803.5,-30"/>
<text text-anchor="start" x="1680.5" y="-18" font-family="Helvetica,sans-Serif" font-size="10.00">AscEmu/src/scripts</text>
<text text-anchor="middle" x="1738" y="-7" font-family="Helvetica,sans-Serif" font-size="10.00">/LuaEngine/LuaUnit.cpp</text>
</a>
</g>
</g>
<!-- Node1&#45;&gt;Node13 -->
<g id="edge14_Node000001_Node000013" class="edge">
<title>Node1&#45;&gt;Node13</title>
<g id="a_edge14_Node000001_Node000013"><a xlink:title=" ">
<path fill="none" stroke="#63b8ff" d="M1446.82,-192.69C1511.6,-153.38 1657.53,-64.83 1714.55,-30.23"/>
<polygon fill="#63b8ff" stroke="#63b8ff" points="1444.96,-189.72 1438.23,-197.9 1448.59,-195.71 1444.96,-189.72"/>
</a>
</g>
</g>
<!-- Node3 -->
<g id="Node000003" class="node">
<title>Node3</title>
<g id="a_Node000003"><a xlink:href="LUAEngine_8hpp.html" target="_top" xlink:title=" ">
<polygon fill="white" stroke="#666666" points="1088,-96 942,-96 942,-66 1088,-66 1088,-96"/>
<text text-anchor="start" x="950" y="-84" font-family="Helvetica,sans-Serif" font-size="10.00">AscEmu/src/scripts</text>
<text text-anchor="middle" x="1015" y="-73" font-family="Helvetica,sans-Serif" font-size="10.00">/LuaEngine/LUAEngine.hpp</text>
</a>
</g>
</g>
<!-- Node2&#45;&gt;Node3 -->
<g id="edge2_Node000002_Node000003" class="edge">
<title>Node2&#45;&gt;Node3</title>
<g id="a_edge2_Node000002_Node000003"><a xlink:title=" ">
<path fill="none" stroke="#63b8ff" d="M1270.49,-130.09C1214.51,-119.55 1141.8,-105.87 1088.27,-95.79"/>
<polygon fill="#63b8ff" stroke="#63b8ff" points="1269.91,-133.54 1280.39,-131.95 1271.21,-126.67 1269.91,-133.54"/>
</a>
</g>
</g>
<!-- Node4 -->
<g id="Node000004" class="node">
<title>Node4</title>
<g id="a_Node000004"><a xlink:href="LUAEngine_8cpp.html" target="_top" xlink:title=" ">
<polygon fill="white" stroke="#666666" points="146,-30 0,-30 0,0 146,0 146,-30"/>
<text text-anchor="start" x="8" y="-18" font-family="Helvetica,sans-Serif" font-size="10.00">AscEmu/src/scripts</text>
<text text-anchor="middle" x="73" y="-7" font-family="Helvetica,sans-Serif" font-size="10.00">/LuaEngine/LUAEngine.cpp</text>
</a>
</g>
</g>
<!-- Node3&#45;&gt;Node4 -->
<g id="edge3_Node000003_Node000004" class="edge">
<title>Node3&#45;&gt;Node4</title>
<g id="a_edge3_Node000003_Node000004"><a xlink:title=" ">
<path fill="none" stroke="#63b8ff" d="M931.69,-78.23C777.8,-74.27 438.79,-62.37 155,-30 152.13,-29.67 149.21,-29.31 146.26,-28.92"/>
<polygon fill="#63b8ff" stroke="#63b8ff" points="931.91,-81.73 942,-78.49 932.09,-74.74 931.91,-81.73"/>
</a>
</g>
</g>
<!-- Node5 -->
<g id="Node000005" class="node">
<title>Node5</title>
<g id="a_Node000005"><a xlink:href="LuaAura_8cpp.html" target="_top" xlink:title=" ">
<polygon fill="white" stroke="#666666" points="297.5,-30 164.5,-30 164.5,0 297.5,0 297.5,-30"/>
<text text-anchor="start" x="172.5" y="-18" font-family="Helvetica,sans-Serif" font-size="10.00">AscEmu/src/scripts</text>
<text text-anchor="middle" x="231" y="-7" font-family="Helvetica,sans-Serif" font-size="10.00">/LuaEngine/LuaAura.cpp</text>
</a>
</g>
</g>
<!-- Node3&#45;&gt;Node5 -->
<g id="edge4_Node000003_Node000005" class="edge">
<title>Node3&#45;&gt;Node5</title>
<g id="a_edge4_Node000003_Node000005"><a xlink:title=" ">
<path fill="none" stroke="#63b8ff" d="M931.77,-77.14C799.15,-71.89 531.87,-58.56 307,-30 303.94,-29.61 300.81,-29.18 297.66,-28.72"/>
<polygon fill="#63b8ff" stroke="#63b8ff" points="931.73,-80.64 941.86,-77.53 932.01,-73.64 931.73,-80.64"/>
</a>
</g>
</g>
<!-- Node6 -->
<g id="Node000006" class="node">
<title>Node6</title>
<g id="a_Node000006"><a xlink:href="LuaGameobject_8cpp.html" target="_top" xlink:title=" ">
<polygon fill="white" stroke="#666666" points="486,-30 316,-30 316,0 486,0 486,-30"/>
<text text-anchor="start" x="324" y="-18" font-family="Helvetica,sans-Serif" font-size="10.00">AscEmu/src/scripts</text>
<text text-anchor="middle" x="401" y="-7" font-family="Helvetica,sans-Serif" font-size="10.00">/LuaEngine/LuaGameobject.cpp</text>
</a>
</g>
</g>
<!-- Node3&#45;&gt;Node6 -->
<g id="edge5_Node000003_Node000006" class="edge">
<title>Node3&#45;&gt;Node6</title>
<g id="a_edge5_Node000003_Node000006"><a xlink:title=" ">
<path fill="none" stroke="#63b8ff" d="M931.66,-73.33C828.84,-64.79 648.77,-48.83 495,-30 492.05,-29.64 489.05,-29.26 486.03,-28.87"/>
<polygon fill="#63b8ff" stroke="#63b8ff" points="931.42,-76.82 941.67,-74.16 931.99,-69.85 931.42,-76.82"/>
</a>
</g>
</g>
<!-- Node7 -->
<g id="Node000007" class="node">
<title>Node7</title>
<g id="a_Node000007"><a xlink:href="LuaGlobal_8cpp.html" target="_top" xlink:title=" ">
<polygon fill="white" stroke="#666666" points="646,-30 504,-30 504,0 646,0 646,-30"/>
<text text-anchor="start" x="512" y="-18" font-family="Helvetica,sans-Serif" font-size="10.00">AscEmu/src/scripts</text>
<text text-anchor="middle" x="575" y="-7" font-family="Helvetica,sans-Serif" font-size="10.00">/LuaEngine/LuaGlobal.cpp</text>
</a>
</g>
</g>
<!-- Node3&#45;&gt;Node7 -->
<g id="edge6_Node000003_Node000007" class="edge">
<title>Node3&#45;&gt;Node7</title>
<g id="a_edge6_Node000003_Node000007"><a xlink:title=" ">
<path fill="none" stroke="#63b8ff" d="M931.74,-69.28C858.7,-59.68 749.66,-44.85 655,-30 652.07,-29.54 649.09,-29.06 646.08,-28.57"/>
<polygon fill="#63b8ff" stroke="#63b8ff" points="931.43,-72.77 941.8,-70.6 932.34,-65.83 931.43,-72.77"/>
</a>
</g>
</g>
<!-- Node8 -->
<g id="Node000008" class="node">
<title>Node8</title>
<g id="a_Node000008"><a xlink:href="LuaGlobalFunctions_8cpp.html" target="_top" xlink:title=" ">
<polygon fill="white" stroke="#666666" points="852,-30 664,-30 664,0 852,0 852,-30"/>
<text text-anchor="start" x="672" y="-18" font-family="Helvetica,sans-Serif" font-size="10.00">AscEmu/src/scripts</text>
<text text-anchor="middle" x="758" y="-7" font-family="Helvetica,sans-Serif" font-size="10.00">/LuaEngine/LuaGlobalFunctions.cpp</text>
</a>
</g>
</g>
<!-- Node3&#45;&gt;Node8 -->
<g id="edge7_Node000003_Node000008" class="edge">
<title>Node3&#45;&gt;Node8</title>
<g id="a_edge7_Node000003_Node000008"><a xlink:title=" ">
<path fill="none" stroke="#63b8ff" d="M948.81,-63.52C907.13,-53.14 853.91,-39.88 814.27,-30.01"/>
<polygon fill="#63b8ff" stroke="#63b8ff" points="948.05,-66.93 958.6,-65.95 949.74,-60.14 948.05,-66.93"/>
</a>
</g>
</g>
<!-- Node9 -->
<g id="Node000009" class="node">
<title>Node9</title>
<g id="a_Node000009"><a xlink:href="LuaItem_8cpp.html" target="_top" xlink:title=" ">
<polygon fill="white" stroke="#666666" points="1003.5,-30 870.5,-30 870.5,0 1003.5,0 1003.5,-30"/>
<text text-anchor="start" x="878.5" y="-18" font-family="Helvetica,sans-Serif" font-size="10.00">AscEmu/src/scripts</text>
<text text-anchor="middle" x="937" y="-7" font-family="Helvetica,sans-Serif" font-size="10.00">/LuaEngine/LuaItem.cpp</text>
</a>
</g>
</g>
<!-- Node3&#45;&gt;Node9 -->
<g id="edge8_Node000003_Node000009" class="edge">
<title>Node3&#45;&gt;Node9</title>
<g id="a_edge8_Node000003_Node000009"><a xlink:title=" ">
<path fill="none" stroke="#63b8ff" d="M989.65,-59.2C978.07,-49.7 964.65,-38.69 954.26,-30.16"/>
<polygon fill="#63b8ff" stroke="#63b8ff" points="987.74,-62.16 997.69,-65.8 992.18,-56.75 987.74,-62.16"/>
</a>
</g>
</g>
<!-- Node10 -->
<g id="Node000010" class="node">
<title>Node10</title>
<g id="a_Node000010"><a xlink:href="LuaPacket_8cpp.html" target="_top" xlink:title=" ">
<polygon fill="white" stroke="#666666" points="1164,-30 1022,-30 1022,0 1164,0 1164,-30"/>
<text text-anchor="start" x="1030" y="-18" font-family="Helvetica,sans-Serif" font-size="10.00">AscEmu/src/scripts</text>
<text text-anchor="middle" x="1093" y="-7" font-family="Helvetica,sans-Serif" font-size="10.00">/LuaEngine/LuaPacket.cpp</text>
</a>
</g>
</g>
<!-- Node3&#45;&gt;Node10 -->
<g id="edge9_Node000003_Node000010" class="edge">
<title>Node3&#45;&gt;Node10</title>
<g id="a_edge9_Node000003_Node000010"><a xlink:title=" ">
<path fill="none" stroke="#63b8ff" d="M1040.35,-59.2C1051.93,-49.7 1065.35,-38.69 1075.74,-30.16"/>
<polygon fill="#63b8ff" stroke="#63b8ff" points="1037.82,-56.75 1032.31,-65.8 1042.26,-62.16 1037.82,-56.75"/>
</a>
</g>
</g>
<!-- Node11 -->
<g id="Node000011" class="node">
<title>Node11</title>
<g id="a_Node000011"><a xlink:href="LuaSpell_8cpp.html" target="_top" xlink:title=" ">
<polygon fill="white" stroke="#666666" points="1316,-30 1182,-30 1182,0 1316,0 1316,-30"/>
<text text-anchor="start" x="1190" y="-18" font-family="Helvetica,sans-Serif" font-size="10.00">AscEmu/src/scripts</text>
<text text-anchor="middle" x="1249" y="-7" font-family="Helvetica,sans-Serif" font-size="10.00">/LuaEngine/LuaSpell.cpp</text>
</a>
</g>
</g>
<!-- Node3&#45;&gt;Node11 -->
<g id="edge10_Node000003_Node000011" class="edge">
<title>Node3&#45;&gt;Node11</title>
<g id="a_edge10_Node000003_Node000011"><a xlink:title=" ">
<path fill="none" stroke="#63b8ff" d="M1076.23,-63.25C1114.03,-52.91 1161.98,-39.8 1197.77,-30.01"/>
<polygon fill="#63b8ff" stroke="#63b8ff" points="1075.07,-59.94 1066.35,-65.95 1076.92,-66.69 1075.07,-59.94"/>
</a>
</g>
</g>
<!-- Node12 -->
<g id="Node000012" class="node">
<title>Node12</title>
<g id="a_Node000012"><a xlink:href="LuaSqlApi_8cpp.html" target="_top" xlink:title=" ">
<polygon fill="white" stroke="#666666" points="1475.5,-30 1334.5,-30 1334.5,0 1475.5,0 1475.5,-30"/>
<text text-anchor="start" x="1342.5" y="-18" font-family="Helvetica,sans-Serif" font-size="10.00">AscEmu/src/scripts</text>
<text text-anchor="middle" x="1405" y="-7" font-family="Helvetica,sans-Serif" font-size="10.00">/LuaEngine/LuaSqlApi.cpp</text>
</a>
</g>
</g>
<!-- Node3&#45;&gt;Node12 -->
<g id="edge11_Node000003_Node000012" class="edge">
<title>Node3&#45;&gt;Node12</title>
<g id="a_edge11_Node000003_Node000012"><a xlink:title=" ">
<path fill="none" stroke="#63b8ff" d="M1098.2,-66.89C1160.65,-56.97 1248.23,-42.91 1325,-30 1328.06,-29.49 1331.18,-28.96 1334.34,-28.42"/>
<polygon fill="#63b8ff" stroke="#63b8ff" points="1097.34,-63.48 1088.02,-68.5 1098.44,-70.39 1097.34,-63.48"/>
</a>
</g>
</g>
<!-- Node3&#45;&gt;Node13 -->
<g id="edge12_Node000003_Node000013" class="edge">
<title>Node3&#45;&gt;Node13</title>
<g id="a_edge12_Node000003_Node000013"><a xlink:title=" ">
<path fill="none" stroke="#63b8ff" d="M1098.44,-76.51C1222.28,-70.67 1461.88,-56.82 1664,-30 1666.72,-29.64 1669.5,-29.24 1672.29,-28.82"/>
<polygon fill="#63b8ff" stroke="#63b8ff" points="1098.1,-73.03 1088.27,-76.99 1098.42,-80.02 1098.1,-73.03"/>
</a>
</g>
</g>
<!-- Node14 -->
<g id="Node000014" class="node">
<title>Node14</title>
<g id="a_Node000014"><a xlink:href="pchLuaEngine_8hpp.html" target="_top" xlink:title=" ">
<polygon fill="white" stroke="#666666" points="1654.5,-30 1493.5,-30 1493.5,0 1654.5,0 1654.5,-30"/>
<text text-anchor="start" x="1501.5" y="-18" font-family="Helvetica,sans-Serif" font-size="10.00">AscEmu/src/scripts</text>
<text text-anchor="middle" x="1574" y="-7" font-family="Helvetica,sans-Serif" font-size="10.00">/LuaEngine/pchLuaEngine.hpp</text>
</a>
</g>
</g>
<!-- Node3&#45;&gt;Node14 -->
<g id="edge13_Node000003_Node000014" class="edge">
<title>Node3&#45;&gt;Node14</title>
<g id="a_edge13_Node000003_Node000014"><a xlink:title=" ">
<path fill="none" stroke="#63b8ff" d="M1098.25,-72.35C1192.12,-63.43 1349.26,-47.65 1484,-30 1486.98,-29.61 1490.01,-29.2 1493.07,-28.78"/>
<polygon fill="#63b8ff" stroke="#63b8ff" points="1097.87,-68.87 1088.24,-73.29 1098.53,-75.83 1097.87,-68.87"/>
</a>
</g>
</g>
</g>
</svg>
