<?xml version="1.0" encoding="UTF-8" standalone="no"?>
<!DOCTYPE svg PUBLIC "-//W3C//DTD SVG 1.1//EN"
 "http://www.w3.org/Graphics/SVG/1.1/DTD/svg11.dtd">
<!-- Generated by graphviz version 2.43.0 (0)
 -->
<!-- Title: u_posrelat Pages: 1 -->
<svg width="178pt" height="101pt"
 viewBox="0.00 0.00 178.00 101.00" xmlns="http://www.w3.org/2000/svg" xmlns:xlink="http://www.w3.org/1999/xlink">
<g id="graph0" class="graph" transform="scale(1 1) rotate(0) translate(4 97)">
<title>u_posrelat</title>
<!-- Node1 -->
<g id="Node000001" class="node">
<title>Node1</title>
<g id="a_Node000001"><a xlink:title=" ">
<polygon fill="#999999" stroke="#666666" points="170,-56 102,-56 102,-37 170,-37 170,-56"/>
<text text-anchor="middle" x="136" y="-44" font-family="Helvetica,sans-Serif" font-size="10.00">u_posrelat</text>
</a>
</g>
</g>
<!-- Node2 -->
<g id="Node000002" class="node">
<title>Node2</title>
<g id="a_Node000002"><a xlink:href="lutf8lib_8c.html#a805a182cc5dde6d73e07922e8454eaf7" target="_top" xlink:title=" ">
<polygon fill="white" stroke="#666666" points="66,-93 0,-93 0,-74 66,-74 66,-93"/>
<text text-anchor="middle" x="33" y="-81" font-family="Helvetica,sans-Serif" font-size="10.00">byteoffset</text>
</a>
</g>
</g>
<!-- Node1&#45;&gt;Node2 -->
<g id="edge1_Node000001_Node000002" class="edge">
<title>Node1&#45;&gt;Node2</title>
<g id="a_edge1_Node000001_Node000002"><a xlink:title=" ">
<path fill="none" stroke="#63b8ff" d="M99.47,-59.52C86.57,-64.24 72.23,-69.49 60.27,-73.88"/>
<polygon fill="#63b8ff" stroke="#63b8ff" points="100.8,-62.75 108.99,-56.03 98.4,-56.18 100.8,-62.75"/>
</a>
</g>
</g>
<!-- Node3 -->
<g id="Node000003" class="node">
<title>Node3</title>
<g id="a_Node000003"><a xlink:href="lutf8lib_8c.html#af4280cee645f392590f2ed63a6301320" target="_top" xlink:title=" ">
<polygon fill="white" stroke="#666666" points="65.5,-56 0.5,-56 0.5,-37 65.5,-37 65.5,-56"/>
<text text-anchor="middle" x="33" y="-44" font-family="Helvetica,sans-Serif" font-size="10.00">codepoint</text>
</a>
</g>
</g>
<!-- Node1&#45;&gt;Node3 -->
<g id="edge2_Node000001_Node000003" class="edge">
<title>Node1&#45;&gt;Node3</title>
<g id="a_edge2_Node000001_Node000003"><a xlink:title=" ">
<path fill="none" stroke="#63b8ff" d="M91.86,-46.5C83.1,-46.5 74.05,-46.5 65.77,-46.5"/>
<polygon fill="#63b8ff" stroke="#63b8ff" points="91.93,-50 101.93,-46.5 91.93,-43 91.93,-50"/>
</a>
</g>
</g>
<!-- Node4 -->
<g id="Node000004" class="node">
<title>Node4</title>
<g id="a_Node000004"><a xlink:href="lutf8lib_8c.html#a840e09db1ade39da79b0b4dece0e46eb" target="_top" xlink:title=" ">
<polygon fill="white" stroke="#666666" points="55,-19 11,-19 11,0 55,0 55,-19"/>
<text text-anchor="middle" x="33" y="-7" font-family="Helvetica,sans-Serif" font-size="10.00">utflen</text>
</a>
</g>
</g>
<!-- Node1&#45;&gt;Node4 -->
<g id="edge3_Node000001_Node000004" class="edge">
<title>Node1&#45;&gt;Node4</title>
<g id="a_edge3_Node000001_Node000004"><a xlink:title=" ">
<path fill="none" stroke="#63b8ff" d="M99.58,-33.53C84.76,-28.09 68.02,-21.96 55.16,-17.25"/>
<polygon fill="#63b8ff" stroke="#63b8ff" points="98.4,-36.82 108.99,-36.97 100.8,-30.25 98.4,-36.82"/>
</a>
</g>
</g>
</g>
</svg>
