<?xml version="1.0" encoding="UTF-8" standalone="no"?>
<!DOCTYPE svg PUBLIC "-//W3C//DTD SVG 1.1//EN"
 "http://www.w3.org/Graphics/SVG/1.1/DTD/svg11.dtd">
<!-- Generated by graphviz version 2.43.0 (0)
 -->
<!-- Title: pushclosure Pages: 1 -->
<svg width="462pt" height="65pt"
 viewBox="0.00 0.00 462.00 65.00" xmlns="http://www.w3.org/2000/svg" xmlns:xlink="http://www.w3.org/1999/xlink">
<g id="graph0" class="graph" transform="scale(1 1) rotate(0) translate(4 61)">
<title>pushclosure</title>
<!-- Node1 -->
<g id="Node000001" class="node">
<title>Node1</title>
<g id="a_Node000001"><a xlink:title=" ">
<polygon fill="#999999" stroke="#666666" points="75,-38 0,-38 0,-19 75,-19 75,-38"/>
<text text-anchor="middle" x="37.5" y="-26" font-family="Helvetica,sans-Serif" font-size="10.00">pushclosure</text>
</a>
</g>
</g>
<!-- Node2 -->
<g id="Node000002" class="node">
<title>Node2</title>
<g id="a_Node000002"><a xlink:href="lfunc_8c.html#a9b48b7e57943e44d60f54df38fb2a848" target="_top" xlink:title=" ">
<polygon fill="white" stroke="#666666" points="199,-57 111,-57 111,-38 199,-38 199,-57"/>
<text text-anchor="middle" x="155" y="-45" font-family="Helvetica,sans-Serif" font-size="10.00">luaF_findupval</text>
</a>
</g>
</g>
<!-- Node1&#45;&gt;Node2 -->
<g id="edge1_Node000001_Node000002" class="edge">
<title>Node1&#45;&gt;Node2</title>
<g id="a_edge1_Node000001_Node000002"><a xlink:title=" ">
<path fill="none" stroke="#63b8ff" d="M75.04,-34.51C83.22,-35.86 92.04,-37.31 100.73,-38.74"/>
<polygon fill="#63b8ff" stroke="#63b8ff" points="100.39,-42.23 110.83,-40.4 101.53,-35.32 100.39,-42.23"/>
</a>
</g>
</g>
<!-- Node6 -->
<g id="Node000006" class="node">
<title>Node6</title>
<g id="a_Node000006"><a xlink:href="lfunc_8c.html#a4049c15d574d5f46017021a55b2026cd" target="_top" xlink:title=" ">
<polygon fill="white" stroke="#666666" points="339,-19 235,-19 235,0 339,0 339,-19"/>
<text text-anchor="middle" x="287" y="-7" font-family="Helvetica,sans-Serif" font-size="10.00">luaF_newLclosure</text>
</a>
</g>
</g>
<!-- Node1&#45;&gt;Node6 -->
<g id="edge5_Node000001_Node000006" class="edge">
<title>Node1&#45;&gt;Node6</title>
<g id="a_edge5_Node000001_Node000006"><a xlink:title=" ">
<path fill="none" stroke="#63b8ff" d="M75.02,-25.7C114.36,-22.68 177.62,-17.82 224.62,-14.21"/>
<polygon fill="#63b8ff" stroke="#63b8ff" points="224.99,-17.69 234.69,-13.44 224.45,-10.71 224.99,-17.69"/>
</a>
</g>
</g>
<!-- Node3 -->
<g id="Node000003" class="node">
<title>Node3</title>
<g id="a_Node000003"><a xlink:href="lfunc_8c.html#a382288d0d6a81df222bda617f5a994db" target="_top" xlink:title=" ">
<polygon fill="white" stroke="#666666" points="319,-56 255,-56 255,-37 319,-37 319,-56"/>
<text text-anchor="middle" x="287" y="-44" font-family="Helvetica,sans-Serif" font-size="10.00">newupval</text>
</a>
</g>
</g>
<!-- Node2&#45;&gt;Node3 -->
<g id="edge2_Node000002_Node000003" class="edge">
<title>Node2&#45;&gt;Node3</title>
<g id="a_edge2_Node000002_Node000003"><a xlink:title=" ">
<path fill="none" stroke="#63b8ff" d="M199.29,-47.17C213.91,-47.05 230.19,-46.93 244.65,-46.82"/>
<polygon fill="#63b8ff" stroke="#63b8ff" points="244.85,-50.32 254.82,-46.74 244.79,-43.32 244.85,-50.32"/>
</a>
</g>
</g>
<!-- Node4 -->
<g id="Node000004" class="node">
<title>Node4</title>
<g id="a_Node000004"><a xlink:href="lgc_8c.html#add162bc704b7ea7de8f51eb99fd531aa" target="_top" xlink:title=" ">
<polygon fill="white" stroke="#666666" points="454,-19 375,-19 375,0 454,0 454,-19"/>
<text text-anchor="middle" x="414.5" y="-7" font-family="Helvetica,sans-Serif" font-size="10.00">luaC_newobj</text>
</a>
</g>
</g>
<!-- Node3&#45;&gt;Node4 -->
<g id="edge3_Node000003_Node000004" class="edge">
<title>Node3&#45;&gt;Node4</title>
<g id="a_edge3_Node000003_Node000004"><a xlink:title=" ">
<path fill="none" stroke="#63b8ff" d="M319.02,-37.35C334.8,-32.7 354.21,-26.98 371.32,-21.94"/>
<polygon fill="#63b8ff" stroke="#63b8ff" points="372.48,-25.24 381.08,-19.06 370.5,-18.53 372.48,-25.24"/>
</a>
</g>
</g>
<!-- Node5 -->
<g id="Node000005" class="node">
<title>Node5</title>
<g id="a_Node000005"><a xlink:href="RecastContour_8cpp.html#a6f1109916123abdff2b46675c13307e3" target="_top" xlink:title=" ">
<polygon fill="white" stroke="#666666" points="433.5,-56 395.5,-56 395.5,-37 433.5,-37 433.5,-56"/>
<text text-anchor="middle" x="414.5" y="-44" font-family="Helvetica,sans-Serif" font-size="10.00">prev</text>
</a>
</g>
</g>
<!-- Node3&#45;&gt;Node5 -->
<g id="edge4_Node000003_Node000005" class="edge">
<title>Node3&#45;&gt;Node5</title>
<g id="a_edge4_Node000003_Node000005"><a xlink:title=" ">
<path fill="none" stroke="#63b8ff" d="M319.02,-46.5C339.23,-46.5 365.4,-46.5 385.07,-46.5"/>
<polygon fill="#63b8ff" stroke="#63b8ff" points="385.25,-50 395.25,-46.5 385.25,-43 385.25,-50"/>
</a>
</g>
</g>
<!-- Node6&#45;&gt;Node4 -->
<g id="edge6_Node000006_Node000004" class="edge">
<title>Node6&#45;&gt;Node4</title>
<g id="a_edge6_Node000006_Node000004"><a xlink:title=" ">
<path fill="none" stroke="#63b8ff" d="M339.05,-9.5C347.54,-9.5 356.32,-9.5 364.76,-9.5"/>
<polygon fill="#63b8ff" stroke="#63b8ff" points="364.82,-13 374.82,-9.5 364.82,-6 364.82,-13"/>
</a>
</g>
</g>
</g>
</svg>
