<?xml version="1.0" encoding="UTF-8" standalone="no"?>
<!DOCTYPE svg PUBLIC "-//W3C//DTD SVG 1.1//EN"
 "http://www.w3.org/Graphics/SVG/1.1/DTD/svg11.dtd">
<!-- Generated by graphviz version 2.43.0 (0)
 -->
<!-- Title: LzmaDec_Allocate Pages: 1 -->
<svg width="442pt" height="140pt"
 viewBox="0.00 0.00 442.00 140.00" xmlns="http://www.w3.org/2000/svg" xmlns:xlink="http://www.w3.org/1999/xlink">
<g id="graph0" class="graph" transform="scale(1 1) rotate(0) translate(4 136)">
<title>LzmaDec_Allocate</title>
<!-- Node1 -->
<g id="Node000001" class="node">
<title>Node1</title>
<g id="a_Node000001"><a xlink:title=" ">
<polygon fill="#999999" stroke="#666666" points="107,-75 0,-75 0,-56 107,-56 107,-75"/>
<text text-anchor="middle" x="53.5" y="-63" font-family="Helvetica,sans-Serif" font-size="10.00">LzmaDec_Allocate</text>
</a>
</g>
</g>
<!-- Node2 -->
<g id="Node000002" class="node">
<title>Node2</title>
<g id="a_Node000002"><a xlink:href="LzmaDec_8c.html#ab9fe26de5c433cca5c85b426f2c877d2" target="_top" xlink:title=" ">
<polygon fill="white" stroke="#666666" points="283,-132 143,-132 143,-113 283,-113 283,-132"/>
<text text-anchor="middle" x="213" y="-120" font-family="Helvetica,sans-Serif" font-size="10.00">LzmaDec_AllocateProbs2</text>
</a>
</g>
</g>
<!-- Node1&#45;&gt;Node2 -->
<g id="edge1_Node000001_Node000002" class="edge">
<title>Node1&#45;&gt;Node2</title>
<g id="a_edge1_Node000001_Node000002"><a xlink:title=" ">
<path fill="none" stroke="#63b8ff" d="M79.62,-75.04C97.31,-81.71 121.56,-90.77 143,-98.5 153.22,-102.18 164.32,-106.09 174.57,-109.65"/>
<polygon fill="#63b8ff" stroke="#63b8ff" points="173.49,-112.98 184.08,-112.95 175.78,-106.37 173.49,-112.98"/>
</a>
</g>
</g>
<!-- Node3 -->
<g id="Node000003" class="node">
<title>Node3</title>
<g id="a_Node000003"><a xlink:href="LzmaDec_8c.html#a1b158d14a209d1a349d9198f39a926b5" target="_top" xlink:title=" ">
<polygon fill="white" stroke="#666666" points="434,-113 319,-113 319,-94 434,-94 434,-113"/>
<text text-anchor="middle" x="376.5" y="-101" font-family="Helvetica,sans-Serif" font-size="10.00">LzmaDec_FreeProbs</text>
</a>
</g>
</g>
<!-- Node1&#45;&gt;Node3 -->
<g id="edge4_Node000001_Node000003" class="edge">
<title>Node1&#45;&gt;Node3</title>
<g id="a_edge4_Node000001_Node000003"><a xlink:title=" ">
<path fill="none" stroke="#63b8ff" d="M107.15,-71.73C162.21,-78.25 248.8,-88.5 308.66,-95.59"/>
<polygon fill="#63b8ff" stroke="#63b8ff" points="308.42,-99.08 318.77,-96.78 309.25,-92.13 308.42,-99.08"/>
</a>
</g>
</g>
<!-- Node4 -->
<g id="Node000004" class="node">
<title>Node4</title>
<g id="a_Node000004"><a xlink:href="LzmaDec_8c.html#a249958dd77a8a579e5210225bc54fdc0" target="_top" xlink:title=" ">
<polygon fill="white" stroke="#666666" points="266.5,-56 159.5,-56 159.5,-37 266.5,-37 266.5,-56"/>
<text text-anchor="middle" x="213" y="-44" font-family="Helvetica,sans-Serif" font-size="10.00">LzmaDec_FreeDict</text>
</a>
</g>
</g>
<!-- Node1&#45;&gt;Node4 -->
<g id="edge3_Node000001_Node000004" class="edge">
<title>Node1&#45;&gt;Node4</title>
<g id="a_edge3_Node000001_Node000004"><a xlink:title=" ">
<path fill="none" stroke="#63b8ff" d="M107.38,-59.12C120.83,-57.5 135.41,-55.74 149.3,-54.06"/>
<polygon fill="#63b8ff" stroke="#63b8ff" points="149.75,-57.54 159.26,-52.86 148.91,-50.59 149.75,-57.54"/>
</a>
</g>
</g>
<!-- Node5 -->
<g id="Node000005" class="node">
<title>Node5</title>
<g id="a_Node000005"><a xlink:href="LzmaDec_8c.html#ae49727972cd1f8d5384dc4c29f42d97d" target="_top" xlink:title=" ">
<polygon fill="white" stroke="#666666" points="269,-19 157,-19 157,0 269,0 269,-19"/>
<text text-anchor="middle" x="213" y="-7" font-family="Helvetica,sans-Serif" font-size="10.00">LzmaProps_Decode</text>
</a>
</g>
</g>
<!-- Node1&#45;&gt;Node5 -->
<g id="edge5_Node000001_Node000005" class="edge">
<title>Node1&#45;&gt;Node5</title>
<g id="a_edge5_Node000001_Node000005"><a xlink:title=" ">
<path fill="none" stroke="#63b8ff" d="M75.31,-55.91C93.06,-47.95 119.39,-36.65 143,-28.5 149.63,-26.21 156.69,-24.01 163.67,-21.97"/>
<polygon fill="#63b8ff" stroke="#63b8ff" points="165.11,-25.19 173.77,-19.09 163.2,-18.46 165.11,-25.19"/>
</a>
</g>
</g>
<!-- Node2&#45;&gt;Node3 -->
<g id="edge2_Node000002_Node000003" class="edge">
<title>Node2&#45;&gt;Node3</title>
<g id="a_edge2_Node000002_Node000003"><a xlink:title=" ">
<path fill="none" stroke="#63b8ff" d="M283.43,-114.33C291.82,-113.35 300.37,-112.34 308.72,-111.36"/>
<polygon fill="#63b8ff" stroke="#63b8ff" points="309.25,-114.82 318.77,-110.17 308.43,-107.87 309.25,-114.82"/>
</a>
</g>
</g>
</g>
</svg>
