<?xml version="1.0" encoding="UTF-8" standalone="no"?>
<!DOCTYPE svg PUBLIC "-//W3C//DTD SVG 1.1//EN"
 "http://www.w3.org/Graphics/SVG/1.1/DTD/svg11.dtd">
<!-- Generated by graphviz version 2.43.0 (0)
 -->
<!-- Title: RcTree_GetPrice Pages: 1 -->
<!--zoomable 241 -->

<svg id="main" version="1.1" xmlns="http://www.w3.org/2000/svg" xmlns:xlink="http://www.w3.org/1999/xlink" xml:space="preserve" onload="init(evt)">
<style type="text/css"><![CDATA[
.node, .edge {opacity: 0.7;}
.node.selected, .edge.selected {opacity: 1;}
.edge:hover path { stroke: red; }
.edge:hover polygon { stroke: red; fill: red; }
]]></style>

<defs>
  <circle id="rim" cx="0" cy="0" r="7"/>
  <circle id="rim2" cx="0" cy="0" r="3.5"/>
  <g id="zoomPlus">
    <use xlink:href="#rim" fill="#404040"><set attributeName="fill" to="#808080" begin="zoomplus.mouseover" end="zoomplus.mouseout"/></use>
    <path d="M-4,0h8M0,-4v8" fill="none" stroke="white" stroke-width="1.5" pointer-events="none"/>
  </g>
  <g id="zoomMin">
    <use xlink:href="#rim" fill="#404040"><set attributeName="fill" to="#808080" begin="zoomminus.mouseover" end="zoomminus.mouseout"/></use>
    <path d="M-4,0h8" fill="none" stroke="white" stroke-width="1.5" pointer-events="none"/>
  </g>
  <g id="arrowUp" transform="translate(30 24)">
    <use xlink:href="#rim"/>
    <path pointer-events="none" fill="none" stroke="white" stroke-width="1.5" d="M0,-3.0v7 M-2.5,-0.5L0,-3.0L2.5,-0.5"/>
  </g>
  <g id="arrowRight" transform="rotate(90) translate(36 -43)">
    <use xlink:href="#rim"/>
    <path pointer-events="none" fill="none" stroke="white" stroke-width="1.5" d="M0,-3.0v7 M-2.5,-0.5L0,-3.0L2.5,-0.5"/>
  </g>
  <g id="arrowDown" transform="rotate(180) translate(-30 -48)">
    <use xlink:href="#rim"/>
    <path pointer-events="none" fill="none" stroke="white" stroke-width="1.5" d="M0,-3.0v7 M-2.5,-0.5L0,-3.0L2.5,-0.5"/>
  </g>
  <g id="arrowLeft" transform="rotate(270) translate(-36 17)">
    <use xlink:href="#rim"/>
    <path pointer-events="none" fill="none" stroke="white" stroke-width="1.5" d="M0,-3.0v7 M-2.5,-0.5L0,-3.0L2.5,-0.5"/>
  </g>
  <g id="resetDef">
    <use xlink:href="#rim2" fill="#404040"><set attributeName="fill" to="#808080" begin="reset.mouseover" end="reset.mouseout"/></use>
  </g>
</defs>
<script type="application/ecmascript">
var viewWidth = 2964;
var viewHeight = 241;
var sectionId = 'dynsection-96';
</script>
<script type="application/ecmascript" xlink:href="svg.min.js"/>
<svg id="graph" class="graph">
<g id="viewport">
<title>RcTree_GetPrice</title>
<!-- Node1 -->
<g id="Node000001" class="node">
<title>Node1</title>
<g id="a_Node000001"><a xlink:title=" ">
<polygon fill="#999999" stroke="#666666" points="2956,-139 2861,-139 2861,-120 2956,-120 2956,-139"/>
<text text-anchor="middle" x="2908.5" y="-127" font-family="Helvetica,sans-Serif" font-size="10.00">RcTree_GetPrice</text>
</a>
</g>
</g>
<!-- Node2 -->
<g id="Node000002" class="node">
<title>Node2</title>
<g id="a_Node000002"><a xlink:href="LzmaEnc_8c.html#a0916b9c600cf006fb72a57e3cdb1a0ff" target="_top" xlink:title=" ">
<polygon fill="white" stroke="#666666" points="2329,-140 2221,-140 2221,-121 2329,-121 2329,-140"/>
<text text-anchor="middle" x="2275" y="-128" font-family="Helvetica,sans-Serif" font-size="10.00">FillDistancesPrices</text>
</a>
</g>
</g>
<!-- Node1&#45;&gt;Node2 -->
<g id="edge1_Node000001_Node000002" class="edge">
<title>Node1&#45;&gt;Node2</title>
<g id="a_edge1_Node000001_Node000002"><a xlink:title=" ">
<path fill="none" stroke="#63b8ff" d="M2850.62,-129.59C2729.35,-129.78 2446.84,-130.23 2329.05,-130.42"/>
<polygon fill="#63b8ff" stroke="#63b8ff" points="2850.81,-133.09 2860.81,-129.57 2850.8,-126.09 2850.81,-133.09"/>
</a>
</g>
</g>
<!-- Node40 -->
<g id="Node000040" class="node">
<title>Node40</title>
<g id="a_Node000040"><a xlink:href="LzmaEnc_8c.html#a566224e6aee636172794eaebfe04cf7d" target="_top" xlink:title=" ">
<polygon fill="white" stroke="#666666" points="2825,-120 2724,-120 2724,-101 2825,-101 2825,-120"/>
<text text-anchor="middle" x="2774.5" y="-108" font-family="Helvetica,sans-Serif" font-size="10.00">LenEnc_SetPrices</text>
</a>
</g>
</g>
<!-- Node1&#45;&gt;Node40 -->
<g id="edge48_Node000001_Node000040" class="edge">
<title>Node1&#45;&gt;Node40</title>
<g id="a_edge48_Node000001_Node000040"><a xlink:title=" ">
<path fill="none" stroke="#63b8ff" d="M2851.02,-121.37C2842.43,-120.13 2833.63,-118.87 2825.2,-117.65"/>
<polygon fill="#63b8ff" stroke="#63b8ff" points="2850.57,-124.84 2860.96,-122.8 2851.56,-117.91 2850.57,-124.84"/>
</a>
</g>
</g>
<!-- Node3 -->
<g id="Node000003" class="node">
<title>Node3</title>
<g id="a_Node000003"><a xlink:href="LzmaEnc_8c.html#a23e62dea3b358331d4bbf1d05bf8cb3d" target="_top" xlink:title=" ">
<polygon fill="white" stroke="#666666" points="2039,-102 1902,-102 1902,-83 2039,-83 2039,-102"/>
<text text-anchor="middle" x="1970.5" y="-90" font-family="Helvetica,sans-Serif" font-size="10.00">LzmaEnc_CodeOneBlock</text>
</a>
</g>
</g>
<!-- Node2&#45;&gt;Node3 -->
<g id="edge2_Node000002_Node000003" class="edge">
<title>Node2&#45;&gt;Node3</title>
<g id="a_edge2_Node000002_Node000003"><a xlink:title=" ">
<path fill="none" stroke="#63b8ff" d="M2210.47,-125.29C2171.33,-121.79 2120.16,-116.69 2075,-110.5 2057.65,-108.12 2038.76,-105 2021.92,-102.02"/>
<polygon fill="#63b8ff" stroke="#63b8ff" points="2210.4,-128.8 2220.66,-126.19 2211.01,-121.82 2210.4,-128.8"/>
</a>
</g>
</g>
<!-- Node35 -->
<g id="Node000035" class="node">
<title>Node35</title>
<g id="a_Node000035"><a xlink:href="LzmaEnc_8c.html#aaa8025379038fa3bb0392dc5d5f6b29c" target="_top" xlink:title=" ">
<polygon fill="white" stroke="#666666" points="2185,-178 2075,-178 2075,-159 2185,-159 2185,-178"/>
<text text-anchor="middle" x="2130" y="-166" font-family="Helvetica,sans-Serif" font-size="10.00">LzmaEnc_InitPrices</text>
</a>
</g>
</g>
<!-- Node2&#45;&gt;Node35 -->
<g id="edge40_Node000002_Node000035" class="edge">
<title>Node2&#45;&gt;Node35</title>
<g id="a_edge40_Node000002_Node000035"><a xlink:title=" ">
<path fill="none" stroke="#63b8ff" d="M2228.19,-142.67C2208.41,-147.93 2185.62,-153.99 2167.07,-158.91"/>
<polygon fill="#63b8ff" stroke="#63b8ff" points="2229.15,-146.04 2237.92,-140.09 2227.35,-139.27 2229.15,-146.04"/>
</a>
</g>
</g>
<!-- Node4 -->
<g id="Node000004" class="node">
<title>Node4</title>
<g id="a_Node000004"><a xlink:href="LzmaEnc_8c.html#a24569ad9c5f56430cdc35362f0a7f402" target="_top" xlink:title=" ">
<polygon fill="white" stroke="#666666" points="1866,-122 1705,-122 1705,-103 1866,-103 1866,-122"/>
<text text-anchor="middle" x="1785.5" y="-110" font-family="Helvetica,sans-Serif" font-size="10.00">LzmaEnc_CodeOneMemBlock</text>
</a>
</g>
</g>
<!-- Node3&#45;&gt;Node4 -->
<g id="edge3_Node000003_Node000004" class="edge">
<title>Node3&#45;&gt;Node4</title>
<g id="a_edge3_Node000003_Node000004"><a xlink:title=" ">
<path fill="none" stroke="#63b8ff" d="M1891.69,-101C1883.26,-101.92 1874.68,-102.86 1866.22,-103.79"/>
<polygon fill="#63b8ff" stroke="#63b8ff" points="1892.32,-104.46 1901.88,-99.89 1891.56,-97.5 1892.32,-104.46"/>
</a>
</g>
</g>
<!-- Node5 -->
<g id="Node000005" class="node">
<title>Node5</title>
<g id="a_Node000005"><a xlink:href="LzmaEnc_8c.html#a5d88c3aacafcdaa93b993e76c7509a8b" target="_top" xlink:title=" ">
<polygon fill="white" stroke="#666666" points="1839,-85 1732,-85 1732,-66 1839,-66 1839,-85"/>
<text text-anchor="middle" x="1785.5" y="-73" font-family="Helvetica,sans-Serif" font-size="10.00">LzmaEnc_Encode2</text>
</a>
</g>
</g>
<!-- Node3&#45;&gt;Node5 -->
<g id="edge4_Node000003_Node000005" class="edge">
<title>Node3&#45;&gt;Node5</title>
<g id="a_edge4_Node000003_Node000005"><a xlink:title=" ">
<path fill="none" stroke="#63b8ff" d="M1891.58,-85.26C1873.93,-83.62 1855.59,-81.92 1839.26,-80.4"/>
<polygon fill="#63b8ff" stroke="#63b8ff" points="1891.6,-88.78 1901.88,-86.22 1892.24,-81.81 1891.6,-88.78"/>
</a>
</g>
</g>
<!-- Node6 -->
<g id="Node000006" class="node">
<title>Node6</title>
<g id="a_Node000006"><a xlink:href="LzmaEnc_8c.html#a1f32d246b7d35bbfe4c44997cfc681c7" target="_top" xlink:title=" ">
<polygon fill="white" stroke="#666666" points="1657,-122 1556,-122 1556,-103 1657,-103 1657,-122"/>
<text text-anchor="middle" x="1606.5" y="-110" font-family="Helvetica,sans-Serif" font-size="10.00">LzmaEnc_Encode</text>
</a>
</g>
</g>
<!-- Node5&#45;&gt;Node6 -->
<g id="edge5_Node000005_Node000006" class="edge">
<title>Node5&#45;&gt;Node6</title>
<g id="a_edge5_Node000005_Node000006"><a xlink:title=" ">
<path fill="none" stroke="#63b8ff" d="M1729.08,-87.08C1704.7,-92.18 1676.39,-98.1 1653.23,-102.94"/>
<polygon fill="#63b8ff" stroke="#63b8ff" points="1729.85,-90.5 1738.92,-85.03 1728.41,-83.65 1729.85,-90.5"/>
</a>
</g>
</g>
<!-- Node7 -->
<g id="Node000007" class="node">
<title>Node7</title>
<g id="a_Node000007"><a xlink:href="LzmaEnc_8c.html#a68dde38988e722f5c2acb7d42b318181" target="_top" xlink:title=" ">
<polygon fill="white" stroke="#666666" points="1669,-177 1544,-177 1544,-158 1669,-158 1669,-177"/>
<text text-anchor="middle" x="1606.5" y="-165" font-family="Helvetica,sans-Serif" font-size="10.00">LzmaEnc_MemEncode</text>
</a>
</g>
</g>
<!-- Node5&#45;&gt;Node7 -->
<g id="edge6_Node000005_Node000007" class="edge">
<title>Node5&#45;&gt;Node7</title>
<g id="a_edge6_Node000005_Node000007"><a xlink:title=" ">
<path fill="none" stroke="#63b8ff" d="M1721.7,-86.07C1715.88,-88.12 1710.22,-90.57 1705,-93.5 1684.99,-104.72 1686.98,-116.25 1669,-130.5 1655.53,-141.18 1638.71,-151.1 1626.07,-157.97"/>
<polygon fill="#63b8ff" stroke="#63b8ff" points="1723.09,-89.31 1731.59,-82.98 1721,-82.62 1723.09,-89.31"/>
</a>
</g>
</g>
<!-- Node8 -->
<g id="Node000008" class="node">
<title>Node8</title>
<g id="a_Node000008"><a xlink:href="LzmaEnc_8c.html#a5b557f56f2aba7069f192c2d51c187cc" target="_top" xlink:title=" ">
<polygon fill="white" stroke="#666666" points="1508,-177 1430,-177 1430,-158 1508,-158 1508,-177"/>
<text text-anchor="middle" x="1469" y="-165" font-family="Helvetica,sans-Serif" font-size="10.00">LzmaEncode</text>
</a>
</g>
</g>
<!-- Node7&#45;&gt;Node8 -->
<g id="edge7_Node000007_Node000008" class="edge">
<title>Node7&#45;&gt;Node8</title>
<g id="a_edge7_Node000007_Node000008"><a xlink:title=" ">
<path fill="none" stroke="#63b8ff" d="M1533.42,-167.5C1524.68,-167.5 1516.03,-167.5 1508.07,-167.5"/>
<polygon fill="#63b8ff" stroke="#63b8ff" points="1533.7,-171 1543.7,-167.5 1533.7,-164 1533.7,-171"/>
</a>
</g>
</g>
<!-- Node9 -->
<g id="Node000009" class="node">
<title>Node9</title>
<g id="a_Node000009"><a xlink:href="SCompression_8cpp.html#a1f53951448e74eba19fbe2019bf3bff9" target="_top" xlink:title=" ">
<polygon fill="white" stroke="#666666" points="1394,-177 1296,-177 1296,-158 1394,-158 1394,-177"/>
<text text-anchor="middle" x="1345" y="-165" font-family="Helvetica,sans-Serif" font-size="10.00">Compress_LZMA</text>
</a>
</g>
</g>
<!-- Node8&#45;&gt;Node9 -->
<g id="edge8_Node000008_Node000009" class="edge">
<title>Node8&#45;&gt;Node9</title>
<g id="a_edge8_Node000008_Node000009"><a xlink:title=" ">
<path fill="none" stroke="#63b8ff" d="M1419.66,-167.5C1411.22,-167.5 1402.45,-167.5 1394.02,-167.5"/>
<polygon fill="#63b8ff" stroke="#63b8ff" points="1419.73,-171 1429.73,-167.5 1419.73,-164 1419.73,-171"/>
</a>
</g>
</g>
<!-- Node10 -->
<g id="Node000010" class="node">
<title>Node10</title>
<g id="a_Node000010"><a xlink:href="SCompression_8cpp.html#a309e1b309f67df0c6d12e6df83a4219a" target="_top" xlink:title=" ">
<polygon fill="white" stroke="#666666" points="1260,-177 1160,-177 1160,-158 1260,-158 1260,-177"/>
<text text-anchor="middle" x="1210" y="-165" font-family="Helvetica,sans-Serif" font-size="10.00">SCompCompress</text>
</a>
</g>
</g>
<!-- Node9&#45;&gt;Node10 -->
<g id="edge9_Node000009_Node000010" class="edge">
<title>Node9&#45;&gt;Node10</title>
<g id="a_edge9_Node000009_Node000010"><a xlink:title=" ">
<path fill="none" stroke="#63b8ff" d="M1285.75,-167.5C1277.26,-167.5 1268.58,-167.5 1260.29,-167.5"/>
<polygon fill="#63b8ff" stroke="#63b8ff" points="1285.98,-171 1295.98,-167.5 1285.98,-164 1285.98,-171"/>
</a>
</g>
</g>
<!-- Node11 -->
<g id="Node000011" class="node">
<title>Node11</title>
<g id="a_Node000011"><a xlink:href="SBaseFileTable_8cpp.html#abf3132b82954a34a2a1665d159c3e8f0" target="_top" xlink:title=" ">
<polygon fill="white" stroke="#666666" points="1100,-233 1018,-233 1018,-214 1100,-214 1100,-233"/>
<text text-anchor="middle" x="1059" y="-221" font-family="Helvetica,sans-Serif" font-size="10.00">SaveExtTable</text>
</a>
</g>
</g>
<!-- Node10&#45;&gt;Node11 -->
<g id="edge10_Node000010_Node000011" class="edge">
<title>Node10&#45;&gt;Node11</title>
<g id="a_edge10_Node000010_Node000011"><a xlink:title=" ">
<path fill="none" stroke="#63b8ff" d="M1180.27,-181.61C1164,-189.27 1143.13,-198.57 1124,-205.5 1115.53,-208.56 1106.29,-211.43 1097.52,-213.94"/>
<polygon fill="#63b8ff" stroke="#63b8ff" points="1182.24,-184.55 1189.75,-177.08 1179.22,-178.23 1182.24,-184.55"/>
</a>
</g>
</g>
<!-- Node24 -->
<g id="Node000024" class="node">
<title>Node24</title>
<g id="a_Node000024"><a xlink:href="SBaseFileTable_8cpp.html#ac5b7fecde2d26385caf54382aa1e80f7" target="_top" xlink:title=" ">
<polygon fill="white" stroke="#666666" points="1102.5,-196 1015.5,-196 1015.5,-177 1102.5,-177 1102.5,-196"/>
<text text-anchor="middle" x="1059" y="-184" font-family="Helvetica,sans-Serif" font-size="10.00">SaveMpqTable</text>
</a>
</g>
</g>
<!-- Node10&#45;&gt;Node24 -->
<g id="edge24_Node000010_Node000024" class="edge">
<title>Node10&#45;&gt;Node24</title>
<g id="a_edge24_Node000010_Node000024"><a xlink:title=" ">
<path fill="none" stroke="#63b8ff" d="M1149.64,-175.07C1133.93,-177.07 1117.28,-179.2 1102.65,-181.06"/>
<polygon fill="#63b8ff" stroke="#63b8ff" points="1150.32,-178.51 1159.8,-173.77 1149.44,-171.57 1150.32,-178.51"/>
</a>
</g>
</g>
<!-- Node25 -->
<g id="Node000025" class="node">
<title>Node25</title>
<g id="a_Node000025"><a xlink:href="SFileAddFile_8cpp.html#af6d76b0d9c0cdf698b551adb0fccf7ec" target="_top" xlink:title=" ">
<polygon fill="white" stroke="#666666" points="1116.5,-159 1001.5,-159 1001.5,-140 1116.5,-140 1116.5,-159"/>
<text text-anchor="middle" x="1059" y="-147" font-family="Helvetica,sans-Serif" font-size="10.00">WriteDataToMpqFile</text>
</a>
</g>
</g>
<!-- Node10&#45;&gt;Node25 -->
<g id="edge26_Node000010_Node000025" class="edge">
<title>Node10&#45;&gt;Node25</title>
<g id="a_edge26_Node000010_Node000025"><a xlink:title=" ">
<path fill="none" stroke="#63b8ff" d="M1149.56,-160.32C1138.71,-159.01 1127.41,-157.64 1116.64,-156.34"/>
<polygon fill="#63b8ff" stroke="#63b8ff" points="1149.45,-163.83 1159.8,-161.56 1150.29,-156.88 1149.45,-163.83"/>
</a>
</g>
</g>
<!-- Node34 -->
<g id="Node000034" class="node">
<title>Node34</title>
<g id="a_Node000034"><a xlink:href="SBaseCommon_8cpp.html#acd8229724d3ec0c3f5b8db285db56fbd" target="_top" xlink:title=" ">
<polygon fill="white" stroke="#666666" points="1124,-122 994,-122 994,-103 1124,-103 1124,-122"/>
<text text-anchor="middle" x="1059" y="-110" font-family="Helvetica,sans-Serif" font-size="10.00">WriteSectorChecksums</text>
</a>
</g>
</g>
<!-- Node10&#45;&gt;Node34 -->
<g id="edge38_Node000010_Node000034" class="edge">
<title>Node10&#45;&gt;Node34</title>
<g id="a_edge38_Node000010_Node000034"><a xlink:title=" ">
<path fill="none" stroke="#63b8ff" d="M1179.59,-153.52C1163.4,-146.12 1142.83,-137.21 1124,-130.5 1115.41,-127.44 1106.03,-124.55 1097.16,-122.03"/>
<polygon fill="#63b8ff" stroke="#63b8ff" points="1178.5,-156.87 1189.05,-157.89 1181.44,-150.52 1178.5,-156.87"/>
</a>
</g>
</g>
<!-- Node12 -->
<g id="Node000012" class="node">
<title>Node12</title>
<g id="a_Node000012"><a xlink:href="SBaseFileTable_8cpp.html#a1826714b12b5cc93cc07c29c4aa1eb1c" target="_top" xlink:title=" ">
<polygon fill="white" stroke="#666666" points="951.5,-224 857.5,-224 857.5,-205 951.5,-205 951.5,-224"/>
<text text-anchor="middle" x="904.5" y="-212" font-family="Helvetica,sans-Serif" font-size="10.00">SaveMPQTables</text>
</a>
</g>
</g>
<!-- Node11&#45;&gt;Node12 -->
<g id="edge11_Node000011_Node000012" class="edge">
<title>Node11&#45;&gt;Node12</title>
<g id="a_edge11_Node000011_Node000012"><a xlink:title=" ">
<path fill="none" stroke="#63b8ff" d="M1007.83,-220.54C989.67,-219.47 969.28,-218.26 951.5,-217.21"/>
<polygon fill="#63b8ff" stroke="#63b8ff" points="1007.74,-224.04 1017.93,-221.14 1008.16,-217.05 1007.74,-224.04"/>
</a>
</g>
</g>
<!-- Node13 -->
<g id="Node000013" class="node">
<title>Node13</title>
<g id="a_Node000013"><a xlink:href="SFileOpenArchive_8cpp.html#a5f3daefb5c0d87a791fcc42ec40714d2" target="_top" xlink:title=" ">
<polygon fill="white" stroke="#666666" points="665,-112 562,-112 562,-93 665,-93 665,-112"/>
<text text-anchor="middle" x="613.5" y="-100" font-family="Helvetica,sans-Serif" font-size="10.00">SFileFlushArchive</text>
</a>
</g>
</g>
<!-- Node12&#45;&gt;Node13 -->
<g id="edge12_Node000012_Node000013" class="edge">
<title>Node12&#45;&gt;Node13</title>
<g id="a_edge12_Node000012_Node000013"><a xlink:title=" ">
<path fill="none" stroke="#63b8ff" d="M847.02,-219.68C804.71,-221.15 746.51,-217.91 701,-195.5 695.96,-193.02 644.02,-135.43 623.13,-112.15"/>
<polygon fill="#63b8ff" stroke="#63b8ff" points="847.32,-223.17 857.15,-219.23 847.01,-216.18 847.32,-223.17"/>
</a>
</g>
</g>
<!-- Node14 -->
<g id="Node000014" class="node">
<title>Node14</title>
<g id="a_Node000014"><a xlink:href="SFileOpenArchive_8cpp.html#abe1ae9917ea665286bffd1524561fceb" target="_top" xlink:title=" ">
<polygon fill="white" stroke="#666666" points="518,-112 414,-112 414,-93 518,-93 518,-112"/>
<text text-anchor="middle" x="466" y="-100" font-family="Helvetica,sans-Serif" font-size="10.00">SFileCloseArchive</text>
</a>
</g>
</g>
<!-- Node13&#45;&gt;Node14 -->
<g id="edge13_Node000013_Node000014" class="edge">
<title>Node13&#45;&gt;Node14</title>
<g id="a_edge13_Node000013_Node000014"><a xlink:title=" ">
<path fill="none" stroke="#63b8ff" d="M551.53,-102.5C540.41,-102.5 528.91,-102.5 518.11,-102.5"/>
<polygon fill="#63b8ff" stroke="#63b8ff" points="551.61,-106 561.61,-102.5 551.61,-99 551.61,-106"/>
</a>
</g>
</g>
<!-- Node22 -->
<g id="Node000022" class="node">
<title>Node22</title>
<g id="a_Node000022"><a xlink:href="SFileCompactArchive_8cpp.html#a1f69563fd3a57c5bdb3aaf6e4b5bd86c" target="_top" xlink:title=" ">
<polygon fill="white" stroke="#666666" points="526,-75 406,-75 406,-56 526,-56 526,-75"/>
<text text-anchor="middle" x="466" y="-63" font-family="Helvetica,sans-Serif" font-size="10.00">SFileCompactArchive</text>
</a>
</g>
</g>
<!-- Node13&#45;&gt;Node22 -->
<g id="edge22_Node000013_Node000022" class="edge">
<title>Node13&#45;&gt;Node22</title>
<g id="a_edge22_Node000013_Node000022"><a xlink:title=" ">
<path fill="none" stroke="#63b8ff" d="M565.34,-90.51C545.66,-85.5 523.13,-79.77 504.6,-75.06"/>
<polygon fill="#63b8ff" stroke="#63b8ff" points="564.48,-93.9 575.03,-92.97 566.2,-87.11 564.48,-93.9"/>
</a>
</g>
</g>
<!-- Node23 -->
<g id="Node000023" class="node">
<title>Node23</title>
<g id="a_Node000023"><a xlink:href="SFileVerify_8cpp.html#a5d1f891bd3e6c98a94a13cc5745ae6f4" target="_top" xlink:title=" ">
<polygon fill="white" stroke="#666666" points="518,-149 414,-149 414,-130 518,-130 518,-149"/>
<text text-anchor="middle" x="466" y="-137" font-family="Helvetica,sans-Serif" font-size="10.00">SFileVerifyArchive</text>
</a>
</g>
</g>
<!-- Node13&#45;&gt;Node23 -->
<g id="edge23_Node000013_Node000023" class="edge">
<title>Node13&#45;&gt;Node23</title>
<g id="a_edge23_Node000013_Node000023"><a xlink:title=" ">
<path fill="none" stroke="#63b8ff" d="M565.34,-114.49C545.66,-119.5 523.13,-125.23 504.6,-129.94"/>
<polygon fill="#63b8ff" stroke="#63b8ff" points="566.2,-117.89 575.03,-112.03 564.48,-111.1 566.2,-117.89"/>
</a>
</g>
</g>
<!-- Node15 -->
<g id="Node000015" class="node">
<title>Node15</title>
<g id="a_Node000015"><a xlink:href="ToolsCataMop_2vmap__tools_2vmap4__extractor_2vmapexport_8cpp.html#a3c04138a5bfe5d72780bb7e82a18e627" target="_top" xlink:title=" ">
<polygon fill="white" stroke="#666666" points="326.5,-169 285.5,-169 285.5,-150 326.5,-150 326.5,-169"/>
<text text-anchor="middle" x="306" y="-157" font-family="Helvetica,sans-Serif" font-size="10.00">main</text>
</a>
</g>
</g>
<!-- Node14&#45;&gt;Node15 -->
<g id="edge14_Node000014_Node000015" class="edge">
<title>Node14&#45;&gt;Node15</title>
<g id="a_edge14_Node000014_Node000015"><a xlink:title=" ">
<path fill="none" stroke="#63b8ff" d="M422.06,-115.06C416.63,-116.81 411.16,-118.64 406,-120.5 389.69,-126.37 386.1,-129.08 370,-135.5 355.54,-141.27 339.1,-147.52 326.64,-152.2"/>
<polygon fill="#63b8ff" stroke="#63b8ff" points="423.24,-118.36 431.73,-112.02 421.14,-111.68 423.24,-118.36"/>
</a>
</g>
</g>
<!-- Node16 -->
<g id="Node000016" class="node">
<title>Node16</title>
<g id="a_Node000016"><a xlink:href="src_2tools_2ToolsCataMop_2map__extractor_2System_8cpp.html#ad338a7dbc41dc40bcecd0479377ef207" target="_top" xlink:title=" ">
<polygon fill="white" stroke="#666666" points="41,-112 0,-112 0,-93 41,-93 41,-112"/>
<text text-anchor="middle" x="20.5" y="-100" font-family="Helvetica,sans-Serif" font-size="10.00">main</text>
</a>
</g>
</g>
<!-- Node14&#45;&gt;Node16 -->
<g id="edge15_Node000014_Node000016" class="edge">
<title>Node14&#45;&gt;Node16</title>
<g id="a_edge15_Node000014_Node000016"><a xlink:title=" ">
<path fill="none" stroke="#63b8ff" d="M403.59,-102.5C302.14,-102.5 104.47,-102.5 41.37,-102.5"/>
<polygon fill="#63b8ff" stroke="#63b8ff" points="403.69,-106 413.69,-102.5 403.69,-99 403.69,-106"/>
</a>
</g>
</g>
<!-- Node17 -->
<g id="Node000017" class="node">
<title>Node17</title>
<g id="a_Node000017"><a xlink:href="SFileCreateArchive_8cpp.html#aa2b6fa8f16b5ac42868c546533fe26ce" target="_top" xlink:title=" ">
<polygon fill="white" stroke="#666666" points="363.5,-38 248.5,-38 248.5,-19 363.5,-19 363.5,-38"/>
<text text-anchor="middle" x="306" y="-26" font-family="Helvetica,sans-Serif" font-size="10.00">SFileCreateArchive2</text>
</a>
</g>
</g>
<!-- Node14&#45;&gt;Node17 -->
<g id="edge16_Node000014_Node000017" class="edge">
<title>Node14&#45;&gt;Node17</title>
<g id="a_edge16_Node000014_Node000017"><a xlink:title=" ">
<path fill="none" stroke="#63b8ff" d="M421.86,-89.69C416.46,-87.77 411.06,-85.69 406,-83.5 397.66,-79.88 349.67,-52.77 323.7,-38.01"/>
<polygon fill="#63b8ff" stroke="#63b8ff" points="420.91,-93.07 431.5,-92.97 423.16,-86.44 420.91,-93.07"/>
</a>
</g>
</g>
<!-- Node19 -->
<g id="Node000019" class="node">
<title>Node19</title>
<g id="a_Node000019"><a xlink:href="SFilePatchArchives_8cpp.html#a6daebdc66320d44284e960bbff33e886" target="_top" xlink:title=" ">
<polygon fill="white" stroke="#666666" points="370,-93 242,-93 242,-74 370,-74 370,-93"/>
<text text-anchor="middle" x="306" y="-81" font-family="Helvetica,sans-Serif" font-size="10.00">SFileOpenPatchArchive</text>
</a>
</g>
</g>
<!-- Node14&#45;&gt;Node19 -->
<g id="edge18_Node000014_Node000019" class="edge">
<title>Node14&#45;&gt;Node19</title>
<g id="a_edge18_Node000014_Node000019"><a xlink:title=" ">
<path fill="none" stroke="#63b8ff" d="M403.76,-95.14C392.75,-93.81 381.26,-92.43 370.2,-91.1"/>
<polygon fill="#63b8ff" stroke="#63b8ff" points="403.36,-98.61 413.7,-96.33 404.19,-91.66 403.36,-98.61"/>
</a>
</g>
</g>
<!-- Node18 -->
<g id="Node000018" class="node">
<title>Node18</title>
<g id="a_Node000018"><a xlink:href="SFileCreateArchive_8cpp.html#a11342f379ed88e7b54873f1f53feb773" target="_top" xlink:title=" ">
<polygon fill="white" stroke="#666666" points="196,-19 87,-19 87,0 196,0 196,-19"/>
<text text-anchor="middle" x="141.5" y="-7" font-family="Helvetica,sans-Serif" font-size="10.00">SFileCreateArchive</text>
</a>
</g>
</g>
<!-- Node17&#45;&gt;Node18 -->
<g id="edge17_Node000017_Node000018" class="edge">
<title>Node17&#45;&gt;Node18</title>
<g id="a_edge17_Node000017_Node000018"><a xlink:title=" ">
<path fill="none" stroke="#63b8ff" d="M238.09,-20.68C224.08,-19.04 209.48,-17.33 196.03,-15.76"/>
<polygon fill="#63b8ff" stroke="#63b8ff" points="237.83,-24.17 248.17,-21.85 238.64,-17.22 237.83,-24.17"/>
</a>
</g>
</g>
<!-- Node20 -->
<g id="Node000020" class="node">
<title>Node20</title>
<g id="a_Node000020"><a xlink:href="src_2tools_2ToolsCataMop_2map__extractor_2System_8cpp.html#a96f4674ddc505aeaeb150e5f7b9878a2" target="_top" xlink:title=" ">
<polygon fill="white" stroke="#666666" points="206,-56 77,-56 77,-37 206,-37 206,-56"/>
<text text-anchor="middle" x="141.5" y="-44" font-family="Helvetica,sans-Serif" font-size="10.00">LoadCommonMPQFiles</text>
</a>
</g>
</g>
<!-- Node19&#45;&gt;Node20 -->
<g id="edge19_Node000019_Node000020" class="edge">
<title>Node19&#45;&gt;Node20</title>
<g id="a_edge19_Node000019_Node000020"><a xlink:title=" ">
<path fill="none" stroke="#63b8ff" d="M253.23,-71.71C231.04,-66.66 205.47,-60.84 184.49,-56.06"/>
<polygon fill="#63b8ff" stroke="#63b8ff" points="252.62,-75.16 263.15,-73.97 254.18,-68.34 252.62,-75.16"/>
</a>
</g>
</g>
<!-- Node21 -->
<g id="Node000021" class="node">
<title>Node21</title>
<g id="a_Node000021"><a xlink:href="src_2tools_2ToolsCataMop_2map__extractor_2System_8cpp.html#a562161b09d33ce250de344b80d2fdf2c" target="_top" xlink:title=" ">
<polygon fill="white" stroke="#666666" points="197,-93 86,-93 86,-74 197,-74 197,-93"/>
<text text-anchor="middle" x="141.5" y="-81" font-family="Helvetica,sans-Serif" font-size="10.00">LoadLocaleMPQFile</text>
</a>
</g>
</g>
<!-- Node19&#45;&gt;Node21 -->
<g id="edge20_Node000019_Node000021" class="edge">
<title>Node19&#45;&gt;Node21</title>
<g id="a_edge20_Node000019_Node000021"><a xlink:title=" ">
<path fill="none" stroke="#63b8ff" d="M231.61,-83.5C220.03,-83.5 208.23,-83.5 197.18,-83.5"/>
<polygon fill="#63b8ff" stroke="#63b8ff" points="231.71,-87 241.71,-83.5 231.71,-80 231.71,-87"/>
</a>
</g>
</g>
<!-- Node21&#45;&gt;Node16 -->
<g id="edge21_Node000021_Node000016" class="edge">
<title>Node21&#45;&gt;Node16</title>
<g id="a_edge21_Node000021_Node000016"><a xlink:title=" ">
<path fill="none" stroke="#63b8ff" d="M75.73,-93.84C63.1,-95.86 50.8,-97.82 41.11,-99.37"/>
<polygon fill="#63b8ff" stroke="#63b8ff" points="76.55,-97.25 85.88,-92.22 75.45,-90.34 76.55,-97.25"/>
</a>
</g>
</g>
<!-- Node24&#45;&gt;Node12 -->
<g id="edge25_Node000024_Node000012" class="edge">
<title>Node24&#45;&gt;Node12</title>
<g id="a_edge25_Node000024_Node000012"><a xlink:title=" ">
<path fill="none" stroke="#63b8ff" d="M1005.09,-196.22C987.65,-199.42 968.41,-202.95 951.53,-206.05"/>
<polygon fill="#63b8ff" stroke="#63b8ff" points="1005.91,-199.62 1015.11,-194.37 1004.65,-192.74 1005.91,-199.62"/>
</a>
</g>
</g>
<!-- Node26 -->
<g id="Node000026" class="node">
<title>Node26</title>
<g id="a_Node000026"><a xlink:href="SFileAddFile_8cpp.html#af071d20ed3992c47bfc3f43a8a7e5875" target="_top" xlink:title=" ">
<polygon fill="white" stroke="#666666" points="958,-140 851,-140 851,-121 958,-121 958,-140"/>
<text text-anchor="middle" x="904.5" y="-128" font-family="Helvetica,sans-Serif" font-size="10.00">SFileAddFile_Write</text>
</a>
</g>
</g>
<!-- Node25&#45;&gt;Node26 -->
<g id="edge27_Node000025_Node000026" class="edge">
<title>Node25&#45;&gt;Node26</title>
<g id="a_edge27_Node000025_Node000026"><a xlink:title=" ">
<path fill="none" stroke="#63b8ff" d="M991.14,-141.17C980.06,-139.79 968.71,-138.38 958.05,-137.05"/>
<polygon fill="#63b8ff" stroke="#63b8ff" points="990.86,-144.66 1001.21,-142.43 991.72,-137.72 990.86,-144.66"/>
</a>
</g>
</g>
<!-- Node27 -->
<g id="Node000027" class="node">
<title>Node27</title>
<g id="a_Node000027"><a xlink:href="SFileAttributes_8cpp.html#a55bbaf42444fe0d992f7c299ac6b23d3" target="_top" xlink:title=" ">
<polygon fill="white" stroke="#666666" points="815,-75 701,-75 701,-56 815,-56 815,-75"/>
<text text-anchor="middle" x="758" y="-63" font-family="Helvetica,sans-Serif" font-size="10.00">SAttrFileSaveToMpq</text>
</a>
</g>
</g>
<!-- Node26&#45;&gt;Node27 -->
<g id="edge28_Node000026_Node000027" class="edge">
<title>Node26&#45;&gt;Node27</title>
<g id="a_edge28_Node000026_Node000027"><a xlink:title=" ">
<path fill="none" stroke="#63b8ff" d="M878.66,-115.78C861.24,-105.84 837.18,-92.87 815,-83.5 807.66,-80.4 799.6,-77.52 791.93,-75.01"/>
<polygon fill="#63b8ff" stroke="#63b8ff" points="877.2,-118.98 887.61,-120.95 880.7,-112.92 877.2,-118.98"/>
</a>
</g>
</g>
<!-- Node28 -->
<g id="Node000028" class="node">
<title>Node28</title>
<g id="a_Node000028"><a xlink:href="SFileAddFile_8cpp.html#a70c78df25d758e53550021e82078352e" target="_top" xlink:title=" ">
<polygon fill="white" stroke="#666666" points="799.5,-186 716.5,-186 716.5,-167 799.5,-167 799.5,-186"/>
<text text-anchor="middle" x="758" y="-174" font-family="Helvetica,sans-Serif" font-size="10.00">SFileWriteFile</text>
</a>
</g>
</g>
<!-- Node26&#45;&gt;Node28 -->
<g id="edge30_Node000026_Node000028" class="edge">
<title>Node26&#45;&gt;Node28</title>
<g id="a_edge30_Node000026_Node000028"><a xlink:title=" ">
<path fill="none" stroke="#63b8ff" d="M863.82,-143.13C840.15,-150.67 810.59,-160.08 788.9,-166.98"/>
<polygon fill="#63b8ff" stroke="#63b8ff" points="865.09,-146.4 873.56,-140.03 862.97,-139.73 865.09,-146.4"/>
</a>
</g>
</g>
<!-- Node32 -->
<g id="Node000032" class="node">
<title>Node32</title>
<g id="a_Node000032"><a xlink:href="SFileListFile_8cpp.html#ae3a5effd18cd4d2e541c23e87f4c52ea" target="_top" xlink:title=" ">
<polygon fill="white" stroke="#666666" points="814.5,-149 701.5,-149 701.5,-130 814.5,-130 814.5,-149"/>
<text text-anchor="middle" x="758" y="-137" font-family="Helvetica,sans-Serif" font-size="10.00">SListFileSaveToMpq</text>
</a>
</g>
</g>
<!-- Node26&#45;&gt;Node32 -->
<g id="edge34_Node000026_Node000032" class="edge">
<title>Node26&#45;&gt;Node32</title>
<g id="a_edge34_Node000026_Node000032"><a xlink:title=" ">
<path fill="none" stroke="#63b8ff" d="M840.83,-134.4C832.14,-134.94 823.26,-135.5 814.7,-136.03"/>
<polygon fill="#63b8ff" stroke="#63b8ff" points="841.16,-137.89 850.92,-133.77 840.73,-130.9 841.16,-137.89"/>
</a>
</g>
</g>
<!-- Node33 -->
<g id="Node000033" class="node">
<title>Node33</title>
<g id="a_Node000033"><a xlink:href="SFileVerify_8cpp.html#acfd75687fac546d3001892b77d8d18ed" target="_top" xlink:title=" ">
<polygon fill="white" stroke="#666666" points="804.5,-112 711.5,-112 711.5,-93 804.5,-93 804.5,-112"/>
<text text-anchor="middle" x="758" y="-100" font-family="Helvetica,sans-Serif" font-size="10.00">SSignFileCreate</text>
</a>
</g>
</g>
<!-- Node26&#45;&gt;Node33 -->
<g id="edge36_Node000026_Node000033" class="edge">
<title>Node26&#45;&gt;Node33</title>
<g id="a_edge36_Node000026_Node000033"><a xlink:title=" ">
<path fill="none" stroke="#63b8ff" d="M844.23,-119.02C831.04,-116.46 817.25,-113.79 804.7,-111.36"/>
<polygon fill="#63b8ff" stroke="#63b8ff" points="843.69,-122.48 854.18,-120.94 845.02,-115.6 843.69,-122.48"/>
</a>
</g>
</g>
<!-- Node27&#45;&gt;Node13 -->
<g id="edge29_Node000027_Node000013" class="edge">
<title>Node27&#45;&gt;Node13</title>
<g id="a_edge29_Node000027_Node000013"><a xlink:title=" ">
<path fill="none" stroke="#63b8ff" d="M710.58,-77.55C691.46,-82.52 669.6,-88.19 651.57,-92.88"/>
<polygon fill="#63b8ff" stroke="#63b8ff" points="711.5,-80.93 720.3,-75.03 709.74,-74.15 711.5,-80.93"/>
</a>
</g>
</g>
<!-- Node29 -->
<g id="Node000029" class="node">
<title>Node29</title>
<g id="a_Node000029"><a xlink:href="SFileAddFile_8cpp.html#a9d092079ada150e05bfed5a26e65e184" target="_top" xlink:title=" ">
<polygon fill="white" stroke="#666666" points="657.5,-186 569.5,-186 569.5,-167 657.5,-167 657.5,-186"/>
<text text-anchor="middle" x="613.5" y="-174" font-family="Helvetica,sans-Serif" font-size="10.00">SFileAddFileEx</text>
</a>
</g>
</g>
<!-- Node28&#45;&gt;Node29 -->
<g id="edge31_Node000028_Node000029" class="edge">
<title>Node28&#45;&gt;Node29</title>
<g id="a_edge31_Node000028_Node000029"><a xlink:title=" ">
<path fill="none" stroke="#63b8ff" d="M705.99,-176.5C690.14,-176.5 672.83,-176.5 657.58,-176.5"/>
<polygon fill="#63b8ff" stroke="#63b8ff" points="706.17,-180 716.17,-176.5 706.17,-173 706.17,-180"/>
</a>
</g>
</g>
<!-- Node30 -->
<g id="Node000030" class="node">
<title>Node30</title>
<g id="a_Node000030"><a xlink:href="SFileAddFile_8cpp.html#ab6184a31092ac5364a8746b1fca3a822" target="_top" xlink:title=" ">
<polygon fill="white" stroke="#666666" points="504,-186 428,-186 428,-167 504,-167 504,-186"/>
<text text-anchor="middle" x="466" y="-174" font-family="Helvetica,sans-Serif" font-size="10.00">SFileAddFile</text>
</a>
</g>
</g>
<!-- Node29&#45;&gt;Node30 -->
<g id="edge32_Node000029_Node000030" class="edge">
<title>Node29&#45;&gt;Node30</title>
<g id="a_edge32_Node000029_Node000030"><a xlink:title=" ">
<path fill="none" stroke="#63b8ff" d="M559.08,-176.5C540.93,-176.5 521.05,-176.5 504.43,-176.5"/>
<polygon fill="#63b8ff" stroke="#63b8ff" points="559.24,-180 569.24,-176.5 559.24,-173 559.24,-180"/>
</a>
</g>
</g>
<!-- Node31 -->
<g id="Node000031" class="node">
<title>Node31</title>
<g id="a_Node000031"><a xlink:href="SFileAddFile_8cpp.html#a4cc5ee53bb9a41f91d71a0be809ede22" target="_top" xlink:title=" ">
<polygon fill="white" stroke="#666666" points="509,-223 423,-223 423,-204 509,-204 509,-223"/>
<text text-anchor="middle" x="466" y="-211" font-family="Helvetica,sans-Serif" font-size="10.00">SFileAddWave</text>
</a>
</g>
</g>
<!-- Node29&#45;&gt;Node31 -->
<g id="edge33_Node000029_Node000031" class="edge">
<title>Node29&#45;&gt;Node31</title>
<g id="a_edge33_Node000029_Node000031"><a xlink:title=" ">
<path fill="none" stroke="#63b8ff" d="M565.34,-188.49C545.66,-193.5 523.13,-199.23 504.6,-203.94"/>
<polygon fill="#63b8ff" stroke="#63b8ff" points="566.2,-191.89 575.03,-186.03 564.48,-185.1 566.2,-191.89"/>
</a>
</g>
</g>
<!-- Node32&#45;&gt;Node13 -->
<g id="edge35_Node000032_Node000013" class="edge">
<title>Node32&#45;&gt;Node13</title>
<g id="a_edge35_Node000032_Node000013"><a xlink:title=" ">
<path fill="none" stroke="#63b8ff" d="M710.58,-127.45C691.46,-122.48 669.6,-116.81 651.57,-112.12"/>
<polygon fill="#63b8ff" stroke="#63b8ff" points="709.74,-130.85 720.3,-129.97 711.5,-124.07 709.74,-130.85"/>
</a>
</g>
</g>
<!-- Node33&#45;&gt;Node13 -->
<g id="edge37_Node000033_Node000013" class="edge">
<title>Node33&#45;&gt;Node13</title>
<g id="a_edge37_Node000033_Node000013"><a xlink:title=" ">
<path fill="none" stroke="#63b8ff" d="M700.95,-102.5C689.17,-102.5 676.8,-102.5 665.22,-102.5"/>
<polygon fill="#63b8ff" stroke="#63b8ff" points="701.13,-106 711.13,-102.5 701.13,-99 701.13,-106"/>
</a>
</g>
</g>
<!-- Node34&#45;&gt;Node26 -->
<g id="edge39_Node000034_Node000026" class="edge">
<title>Node34&#45;&gt;Node26</title>
<g id="a_edge39_Node000034_Node000026"><a xlink:title=" ">
<path fill="none" stroke="#63b8ff" d="M983.67,-121.27C975.04,-122.29 966.37,-123.32 958.11,-124.29"/>
<polygon fill="#63b8ff" stroke="#63b8ff" points="984.25,-124.73 993.77,-120.08 983.43,-117.78 984.25,-124.73"/>
</a>
</g>
</g>
<!-- Node35&#45;&gt;Node4 -->
<g id="edge47_Node000035_Node000004" class="edge">
<title>Node35&#45;&gt;Node4</title>
<g id="a_edge47_Node000035_Node000004"><a xlink:title=" ">
<path fill="none" stroke="#63b8ff" d="M2064.48,-157.95C2001.28,-147.62 1905.8,-132.01 1844.81,-122.03"/>
<polygon fill="#63b8ff" stroke="#63b8ff" points="2064.3,-161.47 2074.73,-159.63 2065.43,-154.56 2064.3,-161.47"/>
</a>
</g>
</g>
<!-- Node36 -->
<g id="Node000036" class="node">
<title>Node36</title>
<g id="a_Node000036"><a xlink:href="LzmaEnc_8c.html#af6144776e03d70a5bafc83e2d105e55c" target="_top" xlink:title=" ">
<polygon fill="white" stroke="#666666" points="2032.5,-191 1908.5,-191 1908.5,-172 2032.5,-172 2032.5,-191"/>
<text text-anchor="middle" x="1970.5" y="-179" font-family="Helvetica,sans-Serif" font-size="10.00">LzmaEnc_AllocAndInit</text>
</a>
</g>
</g>
<!-- Node35&#45;&gt;Node36 -->
<g id="edge41_Node000035_Node000036" class="edge">
<title>Node35&#45;&gt;Node36</title>
<g id="a_edge41_Node000035_Node000036"><a xlink:title=" ">
<path fill="none" stroke="#63b8ff" d="M2064.74,-173.8C2054.11,-174.68 2043.11,-175.59 2032.56,-176.46"/>
<polygon fill="#63b8ff" stroke="#63b8ff" points="2065.12,-177.28 2074.8,-172.97 2064.54,-170.31 2065.12,-177.28"/>
</a>
</g>
</g>
<!-- Node37 -->
<g id="Node000037" class="node">
<title>Node37</title>
<g id="a_Node000037"><a xlink:href="LzmaEnc_8c.html#a0a78075f9383a55278fadd356c8eb8a4" target="_top" xlink:title=" ">
<polygon fill="white" stroke="#666666" points="1849.5,-196 1721.5,-196 1721.5,-177 1849.5,-177 1849.5,-196"/>
<text text-anchor="middle" x="1785.5" y="-184" font-family="Helvetica,sans-Serif" font-size="10.00">LzmaEnc_MemPrepare</text>
</a>
</g>
</g>
<!-- Node36&#45;&gt;Node37 -->
<g id="edge42_Node000036_Node000037" class="edge">
<title>Node36&#45;&gt;Node37</title>
<g id="a_edge42_Node000036_Node000037"><a xlink:title=" ">
<path fill="none" stroke="#63b8ff" d="M1897.95,-183.45C1881.96,-183.89 1865.12,-184.35 1849.51,-184.78"/>
<polygon fill="#63b8ff" stroke="#63b8ff" points="1898.41,-186.94 1908.31,-183.17 1898.22,-179.95 1898.41,-186.94"/>
</a>
</g>
</g>
<!-- Node38 -->
<g id="Node000038" class="node">
<title>Node38</title>
<g id="a_Node000038"><a xlink:href="LzmaEnc_8c.html#a846c49b89830b9f7cc7973565af46195" target="_top" xlink:title=" ">
<polygon fill="white" stroke="#666666" points="1837,-159 1734,-159 1734,-140 1837,-140 1837,-159"/>
<text text-anchor="middle" x="1785.5" y="-147" font-family="Helvetica,sans-Serif" font-size="10.00">LzmaEnc_Prepare</text>
</a>
</g>
</g>
<!-- Node36&#45;&gt;Node38 -->
<g id="edge44_Node000036_Node000038" class="edge">
<title>Node36&#45;&gt;Node38</title>
<g id="a_edge44_Node000036_Node000038"><a xlink:title=" ">
<path fill="none" stroke="#63b8ff" d="M1905.06,-170.23C1882.82,-166.34 1858.24,-162.05 1837.26,-158.38"/>
<polygon fill="#63b8ff" stroke="#63b8ff" points="1904.64,-173.71 1915.09,-171.99 1905.84,-166.82 1904.64,-173.71"/>
</a>
</g>
</g>
<!-- Node39 -->
<g id="Node000039" class="node">
<title>Node39</title>
<g id="a_Node000039"><a xlink:href="LzmaEnc_8c.html#a89736c2cf8f62084d2d18dd3a63cc42d" target="_top" xlink:title=" ">
<polygon fill="white" stroke="#666666" points="1860.5,-233 1710.5,-233 1710.5,-214 1860.5,-214 1860.5,-233"/>
<text text-anchor="middle" x="1785.5" y="-221" font-family="Helvetica,sans-Serif" font-size="10.00">LzmaEnc_PrepareForLzma2</text>
</a>
</g>
</g>
<!-- Node36&#45;&gt;Node39 -->
<g id="edge46_Node000036_Node000039" class="edge">
<title>Node36&#45;&gt;Node39</title>
<g id="a_edge46_Node000036_Node000039"><a xlink:title=" ">
<path fill="none" stroke="#63b8ff" d="M1918.57,-193.36C1901.83,-197.25 1883.12,-201.58 1866,-205.5 1854,-208.25 1840.97,-211.21 1829.01,-213.92"/>
<polygon fill="#63b8ff" stroke="#63b8ff" points="1919.76,-196.68 1928.71,-191.01 1918.18,-189.86 1919.76,-196.68"/>
</a>
</g>
</g>
<!-- Node37&#45;&gt;Node7 -->
<g id="edge43_Node000037_Node000007" class="edge">
<title>Node37&#45;&gt;Node7</title>
<g id="a_edge43_Node000037_Node000007"><a xlink:title=" ">
<path fill="none" stroke="#63b8ff" d="M1711.09,-178.62C1697.18,-177.13 1682.77,-175.58 1669.27,-174.13"/>
<polygon fill="#63b8ff" stroke="#63b8ff" points="1710.78,-182.11 1721.1,-179.69 1711.53,-175.15 1710.78,-182.11"/>
</a>
</g>
</g>
<!-- Node38&#45;&gt;Node6 -->
<g id="edge45_Node000038_Node000006" class="edge">
<title>Node38&#45;&gt;Node6</title>
<g id="a_edge45_Node000038_Node000006"><a xlink:title=" ">
<path fill="none" stroke="#63b8ff" d="M1729.08,-137.92C1704.7,-132.82 1676.39,-126.9 1653.23,-122.06"/>
<polygon fill="#63b8ff" stroke="#63b8ff" points="1728.41,-141.35 1738.92,-139.97 1729.85,-134.5 1728.41,-141.35"/>
</a>
</g>
</g>
<!-- Node41 -->
<g id="Node000041" class="node">
<title>Node41</title>
<g id="a_Node000041"><a xlink:href="LzmaEnc_8c.html#a6b5881c1df7629d60f9249f4698f9576" target="_top" xlink:title=" ">
<polygon fill="white" stroke="#666666" points="2688,-120 2547,-120 2547,-101 2688,-101 2688,-120"/>
<text text-anchor="middle" x="2617.5" y="-108" font-family="Helvetica,sans-Serif" font-size="10.00">LenPriceEnc_UpdateTable</text>
</a>
</g>
</g>
<!-- Node40&#45;&gt;Node41 -->
<g id="edge49_Node000040_Node000041" class="edge">
<title>Node40&#45;&gt;Node41</title>
<g id="a_edge49_Node000040_Node000041"><a xlink:title=" ">
<path fill="none" stroke="#63b8ff" d="M2713.58,-110.5C2705.23,-110.5 2696.58,-110.5 2688.07,-110.5"/>
<polygon fill="#63b8ff" stroke="#63b8ff" points="2713.6,-114 2723.6,-110.5 2713.6,-107 2713.6,-114"/>
</a>
</g>
</g>
<!-- Node42 -->
<g id="Node000042" class="node">
<title>Node42</title>
<g id="a_Node000042"><a xlink:href="LzmaEnc_8c.html#a4b0c714079f620b2fa27b36b3894141f" target="_top" xlink:title=" ">
<polygon fill="white" stroke="#666666" points="2487,-83 2389,-83 2389,-64 2487,-64 2487,-83"/>
<text text-anchor="middle" x="2438" y="-71" font-family="Helvetica,sans-Serif" font-size="10.00">LenEnc_Encode2</text>
</a>
</g>
</g>
<!-- Node41&#45;&gt;Node42 -->
<g id="edge50_Node000041_Node000042" class="edge">
<title>Node41&#45;&gt;Node42</title>
<g id="a_edge50_Node000041_Node000042"><a xlink:title=" ">
<path fill="none" stroke="#63b8ff" d="M2560.93,-98.92C2536.47,-93.82 2508.09,-87.9 2484.86,-83.06"/>
<polygon fill="#63b8ff" stroke="#63b8ff" points="2560.29,-102.36 2570.79,-100.97 2561.71,-95.5 2560.29,-102.36"/>
</a>
</g>
</g>
<!-- Node45 -->
<g id="Node000045" class="node">
<title>Node45</title>
<g id="a_Node000045"><a xlink:href="LzmaEnc_8c.html#a6bbfaa377b2ad54ba500a292dddf8fbc" target="_top" xlink:title=" ">
<polygon fill="white" stroke="#666666" points="2511,-120 2365,-120 2365,-101 2511,-101 2511,-120"/>
<text text-anchor="middle" x="2438" y="-108" font-family="Helvetica,sans-Serif" font-size="10.00">LenPriceEnc_UpdateTables</text>
</a>
</g>
</g>
<!-- Node41&#45;&gt;Node45 -->
<g id="edge55_Node000041_Node000045" class="edge">
<title>Node41&#45;&gt;Node45</title>
<g id="a_edge55_Node000041_Node000045"><a xlink:title=" ">
<path fill="none" stroke="#63b8ff" d="M2536.85,-110.5C2528.26,-110.5 2519.56,-110.5 2511.07,-110.5"/>
<polygon fill="#63b8ff" stroke="#63b8ff" points="2536.86,-114 2546.86,-110.5 2536.86,-107 2536.86,-114"/>
</a>
</g>
</g>
<!-- Node42&#45;&gt;Node3 -->
<g id="edge51_Node000042_Node000003" class="edge">
<title>Node42&#45;&gt;Node3</title>
<g id="a_edge51_Node000042_Node000003"><a xlink:title=" ">
<path fill="none" stroke="#63b8ff" d="M2378.68,-70.26C2307.02,-67.02 2181.78,-63.78 2075,-73.5 2054.62,-75.35 2032.27,-79.22 2013.56,-82.99"/>
<polygon fill="#63b8ff" stroke="#63b8ff" points="2378.71,-73.76 2388.86,-70.73 2379.03,-66.77 2378.71,-73.76"/>
</a>
</g>
</g>
<!-- Node43 -->
<g id="Node000043" class="node">
<title>Node43</title>
<g id="a_Node000043"><a xlink:href="LzmaEnc_8c.html#afde2f20dea938ad76878e703b4dcac2b" target="_top" xlink:title=" ">
<polygon fill="white" stroke="#666666" points="2322.5,-102 2227.5,-102 2227.5,-83 2322.5,-83 2322.5,-102"/>
<text text-anchor="middle" x="2275" y="-90" font-family="Helvetica,sans-Serif" font-size="10.00">WriteEndMarker</text>
</a>
</g>
</g>
<!-- Node42&#45;&gt;Node43 -->
<g id="edge52_Node000042_Node000043" class="edge">
<title>Node42&#45;&gt;Node43</title>
<g id="a_edge52_Node000042_Node000043"><a xlink:title=" ">
<path fill="none" stroke="#63b8ff" d="M2378.65,-80.39C2360.22,-82.56 2340.11,-84.93 2322.61,-87"/>
<polygon fill="#63b8ff" stroke="#63b8ff" points="2379.17,-83.85 2388.69,-79.2 2378.35,-76.9 2379.17,-83.85"/>
</a>
</g>
</g>
<!-- Node44 -->
<g id="Node000044" class="node">
<title>Node44</title>
<g id="a_Node000044"><a xlink:href="LzmaEnc_8c.html#ac8befd294723559f2d89c7b2f2255c88" target="_top" xlink:title=" ">
<polygon fill="white" stroke="#666666" points="2151.5,-102 2108.5,-102 2108.5,-83 2151.5,-83 2151.5,-102"/>
<text text-anchor="middle" x="2130" y="-90" font-family="Helvetica,sans-Serif" font-size="10.00">Flush</text>
</a>
</g>
</g>
<!-- Node43&#45;&gt;Node44 -->
<g id="edge53_Node000043_Node000044" class="edge">
<title>Node43&#45;&gt;Node44</title>
<g id="a_edge53_Node000043_Node000044"><a xlink:title=" ">
<path fill="none" stroke="#63b8ff" d="M2217.08,-92.5C2193.95,-92.5 2168.69,-92.5 2151.55,-92.5"/>
<polygon fill="#63b8ff" stroke="#63b8ff" points="2217.18,-96 2227.18,-92.5 2217.18,-89 2217.18,-96"/>
</a>
</g>
</g>
<!-- Node44&#45;&gt;Node3 -->
<g id="edge54_Node000044_Node000003" class="edge">
<title>Node44&#45;&gt;Node3</title>
<g id="a_edge54_Node000044_Node000003"><a xlink:title=" ">
<path fill="none" stroke="#63b8ff" d="M2098.08,-92.5C2081.25,-92.5 2059.73,-92.5 2039.22,-92.5"/>
<polygon fill="#63b8ff" stroke="#63b8ff" points="2098.41,-96 2108.41,-92.5 2098.41,-89 2098.41,-96"/>
</a>
</g>
</g>
<!-- Node45&#45;&gt;Node35 -->
<g id="edge56_Node000045_Node000035" class="edge">
<title>Node45&#45;&gt;Node35</title>
<g id="a_edge56_Node000045_Node000035"><a xlink:title=" ">
<path fill="none" stroke="#63b8ff" d="M2406.08,-124.01C2384.81,-132.72 2355.7,-143.5 2329,-149.5 2281.16,-160.25 2225.47,-164.92 2185.36,-166.95"/>
<polygon fill="#63b8ff" stroke="#63b8ff" points="2407.67,-127.14 2415.55,-120.06 2404.98,-120.68 2407.67,-127.14"/>
</a>
</g>
</g>
</g>
</svg>

<g id="navigator" transform="translate(0 0)" fill="#404254">
  <rect fill="#f2f5e9" fill-opacity="0.5" stroke="#606060" stroke-width=".5" x="0" y="0" width="60" height="60"/>
  <use id="zoomplus" xlink:href="#zoomPlus" x="17" y="9" onmousedown="handleZoom(evt,'in')"/>
  <use id="zoomminus" xlink:href="#zoomMin" x="42" y="9" onmousedown="handleZoom(evt,'out')"/>
  <use id="reset" xlink:href="#resetDef" x="30" y="36" onmousedown="handleReset()"/>
   <use id="arrowup" xlink:href="#arrowUp" x="0" y="0" onmousedown="handlePan(0,-1)"/>
  <use id="arrowright" xlink:href="#arrowRight" x="0" y="0" onmousedown="handlePan(1,0)"/>
  <use id="arrowdown" xlink:href="#arrowDown" x="0" y="0" onmousedown="handlePan(0,1)"/>
  <use id="arrowleft" xlink:href="#arrowLeft" x="0" y="0" onmousedown="handlePan(-1,0)"/>
</g>
<svg viewBox="0 0 15 15" width="100%" height="30px" preserveAspectRatio="xMaxYMin meet">
 <g id="arrow_out" transform="scale(0.3 0.3)">
  <a xlink:href="LzmaEnc_8c_a1707565a646e8abfa36bea366fa9acf8_icgraph_org.svg" target="_base">
   <rect id="button" ry="5" rx="5" y="6" x="6" height="38" width="38"
        fill="#f2f5e9" fill-opacity="0.5" stroke="#606060" stroke-width="1.0"/>
   <path id="arrow"
     d="M 11.500037,31.436501 C 11.940474,20.09759 22.043105,11.32322 32.158766,21.979434 L 37.068811,17.246167 C 37.068811,17.246167 37.088388,32 37.088388,32 L 22.160133,31.978069 C 22.160133,31.978069 26.997745,27.140456 26.997745,27.140456 C 18.528582,18.264221 13.291696,25.230495 11.500037,31.436501 z"
     style="fill:#404040;"/>
  </a>
 </g>
</svg>

<style type='text/css'>
<![CDATA[
[data-mouse-over-selected='false'] { opacity: 0.7; }
[data-mouse-over-selected='true']  { opacity: 1.0; }
]]>
</style>
<script type="application/ecmascript"><![CDATA[
document.addEventListener('DOMContentLoaded', (event) => {
  highlightEdges();
  highlightAdjacentNodes();
});
]]></script>
</svg>
