<?xml version="1.0" encoding="UTF-8" standalone="no"?>
<!DOCTYPE svg PUBLIC "-//W3C//DTD SVG 1.1//EN"
 "http://www.w3.org/Graphics/SVG/1.1/DTD/svg11.dtd">
<!-- Generated by graphviz version 2.43.0 (0)
 -->
<!-- Title: selectUInt16StepStore Pages: 1 -->
<svg width="480pt" height="64pt"
 viewBox="0.00 0.00 480.00 64.00" xmlns="http://www.w3.org/2000/svg" xmlns:xlink="http://www.w3.org/1999/xlink">

<svg id="main" version="1.1" xmlns="http://www.w3.org/2000/svg" xmlns:xlink="http://www.w3.org/1999/xlink" xml:space="preserve" onload="init(evt)">
<style type="text/css"><![CDATA[
.node, .edge {opacity: 0.7;}
.node.selected, .edge.selected {opacity: 1;}
.edge:hover path { stroke: red; }
.edge:hover polygon { stroke: red; fill: red; }
]]></style>
<script type="application/ecmascript" xlink:href="svg.min.js"/>
<svg id="graph" class="graph">
<g id="graph0" class="graph" transform="scale(1 1) rotate(0) translate(4 60)">
<title>selectUInt16StepStore</title>
<!-- Node1 -->
<g id="Node000001" class="node">
<title>Node1</title>
<g id="a_Node000001"><a xlink:title=" ">
<polygon fill="#999999" stroke="#666666" points="472,-37 347,-37 347,-18 472,-18 472,-37"/>
<text text-anchor="middle" x="409.5" y="-25" font-family="Helvetica,sans-Serif" font-size="10.00">selectUInt16StepStore</text>
</a>
</g>
</g>
<!-- Node2 -->
<g id="Node000002" class="node">
<title>Node2</title>
<g id="a_Node000002"><a xlink:href="map__extractor_2System_8cpp.html#a34d7dc5b055550bcfc98bea67c7a67af" target="_top" xlink:title=" ">
<polygon fill="white" stroke="#666666" points="311,-56 236,-56 236,-37 311,-37 311,-56"/>
<text text-anchor="middle" x="273.5" y="-44" font-family="Helvetica,sans-Serif" font-size="10.00">ConvertADT</text>
</a>
</g>
</g>
<!-- Node1&#45;&gt;Node2 -->
<g id="edge1_Node000001_Node000002" class="edge">
<title>Node1&#45;&gt;Node2</title>
<g id="a_edge1_Node000001_Node000002"><a xlink:title=" ">
<path fill="none" stroke="#63b8ff" d="M336.92,-37.65C328.02,-38.91 319.22,-40.16 311.16,-41.3"/>
<polygon fill="#63b8ff" stroke="#63b8ff" points="337.58,-41.09 346.99,-36.22 336.6,-34.16 337.58,-41.09"/>
</a>
</g>
</g>
<!-- Node5 -->
<g id="Node000005" class="node">
<title>Node5</title>
<g id="a_Node000005"><a xlink:href="ToolsCataMop_2map__extractor_2System_8cpp.html#a3fa72e55afde87fc85ee2c2e6fbb65d0" target="_top" xlink:title=" ">
<polygon fill="white" stroke="#666666" points="311,-19 236,-19 236,0 311,0 311,-19"/>
<text text-anchor="middle" x="273.5" y="-7" font-family="Helvetica,sans-Serif" font-size="10.00">ConvertADT</text>
</a>
</g>
</g>
<!-- Node1&#45;&gt;Node5 -->
<g id="edge4_Node000001_Node000005" class="edge">
<title>Node1&#45;&gt;Node5</title>
<g id="a_edge4_Node000001_Node000005"><a xlink:title=" ">
<path fill="none" stroke="#63b8ff" d="M336.92,-17.89C328.02,-16.69 319.22,-15.51 311.16,-14.42"/>
<polygon fill="#63b8ff" stroke="#63b8ff" points="336.61,-21.37 346.99,-19.24 337.55,-14.44 336.61,-21.37"/>
</a>
</g>
</g>
<!-- Node3 -->
<g id="Node000003" class="node">
<title>Node3</title>
<g id="a_Node000003"><a xlink:href="map__extractor_2System_8cpp.html#a71d75eb31bf7e4d81a31bdde92cde089" target="_top" xlink:title=" ">
<polygon fill="white" stroke="#666666" points="200,-56 77,-56 77,-37 200,-37 200,-56"/>
<text text-anchor="middle" x="138.5" y="-44" font-family="Helvetica,sans-Serif" font-size="10.00">ExtractMapsFromMpq</text>
</a>
</g>
</g>
<!-- Node2&#45;&gt;Node3 -->
<g id="edge2_Node000002_Node000003" class="edge">
<title>Node2&#45;&gt;Node3</title>
<g id="a_edge2_Node000002_Node000003"><a xlink:title=" ">
<path fill="none" stroke="#63b8ff" d="M225.62,-46.5C217.36,-46.5 208.65,-46.5 200.08,-46.5"/>
<polygon fill="#63b8ff" stroke="#63b8ff" points="225.81,-50 235.81,-46.5 225.81,-43 225.81,-50"/>
</a>
</g>
</g>
<!-- Node4 -->
<g id="Node000004" class="node">
<title>Node4</title>
<g id="a_Node000004"><a xlink:href="map__extractor_2System_8cpp.html#ad338a7dbc41dc40bcecd0479377ef207" target="_top" xlink:title=" ">
<polygon fill="white" stroke="#666666" points="41,-56 0,-56 0,-37 41,-37 41,-56"/>
<text text-anchor="middle" x="20.5" y="-44" font-family="Helvetica,sans-Serif" font-size="10.00">main</text>
</a>
</g>
</g>
<!-- Node3&#45;&gt;Node4 -->
<g id="edge3_Node000003_Node000004" class="edge">
<title>Node3&#45;&gt;Node4</title>
<g id="a_edge3_Node000003_Node000004"><a xlink:title=" ">
<path fill="none" stroke="#63b8ff" d="M66.56,-46.5C57.26,-46.5 48.43,-46.5 41.1,-46.5"/>
<polygon fill="#63b8ff" stroke="#63b8ff" points="66.78,-50 76.78,-46.5 66.78,-43 66.78,-50"/>
</a>
</g>
</g>
</g>
</svg>
</svg>

<style type='text/css'>
<![CDATA[
[data-mouse-over-selected='false'] { opacity: 0.7; }
[data-mouse-over-selected='true']  { opacity: 1.0; }
]]>
</style>
<script type="application/ecmascript"><![CDATA[
document.addEventListener('DOMContentLoaded', (event) => {
  highlightEdges();
  highlightAdjacentNodes();
});
]]></script>
</svg>
