<?xml version="1.0" encoding="UTF-8" standalone="no"?>
<!DOCTYPE svg PUBLIC "-//W3C//DTD SVG 1.1//EN"
 "http://www.w3.org/Graphics/SVG/1.1/DTD/svg11.dtd">
<!-- Generated by graphviz version 2.43.0 (0)
 -->
<!-- Title: AscEmu/src/scripts/MiscScripts/Setup.h Pages: 1 -->
<svg width="1424pt" height="115pt"
 viewBox="0.00 0.00 1423.50 115.00" xmlns="http://www.w3.org/2000/svg" xmlns:xlink="http://www.w3.org/1999/xlink">
<g id="graph0" class="graph" transform="scale(1 1) rotate(0) translate(4 111)">
<title>AscEmu/src/scripts/MiscScripts/Setup.h</title>
<!-- Node1 -->
<g id="Node000001" class="node">
<title>Node1</title>
<g id="a_Node000001"><a xlink:title=" ">
<polygon fill="#999999" stroke="#666666" points="771,-107 656,-107 656,-77 771,-77 771,-107"/>
<text text-anchor="start" x="664" y="-95" font-family="Helvetica,sans-Serif" font-size="10.00">AscEmu/src/scripts</text>
<text text-anchor="middle" x="713.5" y="-84" font-family="Helvetica,sans-Serif" font-size="10.00">/MiscScripts/Setup.h</text>
</a>
</g>
</g>
<!-- Node2 -->
<g id="Node000002" class="node">
<title>Node2</title>
<g id="a_Node000002"><a xlink:href="City__Dalaran_8cpp.html" target="_top" xlink:title=" ">
<polygon fill="white" stroke="#666666" points="161,-35.5 0,-35.5 0,-5.5 161,-5.5 161,-35.5"/>
<text text-anchor="start" x="8" y="-23.5" font-family="Helvetica,sans-Serif" font-size="10.00">AscEmu/src/scripts</text>
<text text-anchor="middle" x="80.5" y="-12.5" font-family="Helvetica,sans-Serif" font-size="10.00">/MiscScripts/City_Dalaran.cpp</text>
</a>
</g>
</g>
<!-- Node1&#45;&gt;Node2 -->
<g id="edge1_Node000001_Node000002" class="edge">
<title>Node1&#45;&gt;Node2</title>
<g id="a_edge1_Node000001_Node000002"><a xlink:title=" ">
<path fill="none" stroke="#63b8ff" d="M645.48,-87.4C542.33,-81.34 340.34,-67.12 170.5,-41 160.7,-39.49 150.37,-37.57 140.34,-35.53"/>
<polygon fill="#63b8ff" stroke="#63b8ff" points="645.57,-90.91 655.75,-87.99 645.97,-83.92 645.57,-90.91"/>
</a>
</g>
</g>
<!-- Node3 -->
<g id="Node000003" class="node">
<title>Node3</title>
<g id="a_Node000003"><a xlink:href="Creatures_8cpp.html" target="_top" xlink:title=" ">
<polygon fill="white" stroke="#666666" points="325.5,-35.5 179.5,-35.5 179.5,-5.5 325.5,-5.5 325.5,-35.5"/>
<text text-anchor="start" x="187.5" y="-23.5" font-family="Helvetica,sans-Serif" font-size="10.00">AscEmu/src/scripts</text>
<text text-anchor="middle" x="252.5" y="-12.5" font-family="Helvetica,sans-Serif" font-size="10.00">/MiscScripts/Creatures.cpp</text>
</a>
</g>
</g>
<!-- Node1&#45;&gt;Node3 -->
<g id="edge2_Node000001_Node000003" class="edge">
<title>Node1&#45;&gt;Node3</title>
<g id="a_edge2_Node000001_Node000003"><a xlink:title=" ">
<path fill="none" stroke="#63b8ff" d="M645.35,-84.13C569.22,-75.97 442.5,-60.91 334.5,-41 326.01,-39.43 317.08,-37.56 308.36,-35.59"/>
<polygon fill="#63b8ff" stroke="#63b8ff" points="645.43,-87.66 655.75,-85.24 646.17,-80.7 645.43,-87.66"/>
</a>
</g>
</g>
<!-- Node4 -->
<g id="Node000004" class="node">
<title>Node4</title>
<g id="a_Node000004"><a xlink:href="GameObjectTeleportTable_8cpp.html" target="_top" xlink:title=" ">
<polygon fill="white" stroke="#666666" points="521.5,-41 343.5,-41 343.5,0 521.5,0 521.5,-41"/>
<text text-anchor="start" x="351.5" y="-29" font-family="Helvetica,sans-Serif" font-size="10.00">AscEmu/src/scripts</text>
<text text-anchor="start" x="351.5" y="-18" font-family="Helvetica,sans-Serif" font-size="10.00">/MiscScripts/GameObjectTeleport</text>
<text text-anchor="middle" x="432.5" y="-7" font-family="Helvetica,sans-Serif" font-size="10.00">Table.cpp</text>
</a>
</g>
</g>
<!-- Node1&#45;&gt;Node4 -->
<g id="edge3_Node000001_Node000004" class="edge">
<title>Node1&#45;&gt;Node4</title>
<g id="a_edge3_Node000001_Node000004"><a xlink:title=" ">
<path fill="none" stroke="#63b8ff" d="M646.83,-74.51C606.2,-64.46 554.05,-51.56 511.37,-41.01"/>
<polygon fill="#63b8ff" stroke="#63b8ff" points="646.09,-77.93 656.64,-76.94 647.77,-71.14 646.09,-77.93"/>
</a>
</g>
</g>
<!-- Node5 -->
<g id="Node000005" class="node">
<title>Node5</title>
<g id="a_Node000005"><a xlink:href="GameObjects_8cpp.html" target="_top" xlink:title=" ">
<polygon fill="white" stroke="#666666" points="703.5,-35.5 539.5,-35.5 539.5,-5.5 703.5,-5.5 703.5,-35.5"/>
<text text-anchor="start" x="547.5" y="-23.5" font-family="Helvetica,sans-Serif" font-size="10.00">AscEmu/src/scripts</text>
<text text-anchor="middle" x="621.5" y="-12.5" font-family="Helvetica,sans-Serif" font-size="10.00">/MiscScripts/GameObjects.cpp</text>
</a>
</g>
</g>
<!-- Node1&#45;&gt;Node5 -->
<g id="edge4_Node000001_Node000005" class="edge">
<title>Node1&#45;&gt;Node5</title>
<g id="a_edge4_Node000001_Node000005"><a xlink:title=" ">
<path fill="none" stroke="#63b8ff" d="M686.53,-70.63C671.6,-59.35 653.43,-45.62 640.09,-35.54"/>
<polygon fill="#63b8ff" stroke="#63b8ff" points="684.79,-73.7 694.88,-76.94 689.01,-68.12 684.79,-73.7"/>
</a>
</g>
</g>
<!-- Node6 -->
<g id="Node000006" class="node">
<title>Node6</title>
<g id="a_Node000006"><a xlink:href="NeutralGuards_8cpp.html" target="_top" xlink:title=" ">
<polygon fill="white" stroke="#666666" points="891,-35.5 722,-35.5 722,-5.5 891,-5.5 891,-35.5"/>
<text text-anchor="start" x="730" y="-23.5" font-family="Helvetica,sans-Serif" font-size="10.00">AscEmu/src/scripts</text>
<text text-anchor="middle" x="806.5" y="-12.5" font-family="Helvetica,sans-Serif" font-size="10.00">/MiscScripts/NeutralGuards.cpp</text>
</a>
</g>
</g>
<!-- Node1&#45;&gt;Node6 -->
<g id="edge5_Node000001_Node000006" class="edge">
<title>Node1&#45;&gt;Node6</title>
<g id="a_edge5_Node000001_Node000006"><a xlink:title=" ">
<path fill="none" stroke="#63b8ff" d="M740.34,-70.94C755.51,-59.6 774.1,-45.71 787.71,-35.54"/>
<polygon fill="#63b8ff" stroke="#63b8ff" points="738.24,-68.15 732.32,-76.94 742.43,-73.75 738.24,-68.15"/>
</a>
</g>
</g>
<!-- Node7 -->
<g id="Node000007" class="node">
<title>Node7</title>
<g id="a_Node000007"><a xlink:href="RandomScripts_8cpp.html" target="_top" xlink:title=" ">
<polygon fill="white" stroke="#666666" points="1081.5,-35.5 909.5,-35.5 909.5,-5.5 1081.5,-5.5 1081.5,-35.5"/>
<text text-anchor="start" x="917.5" y="-23.5" font-family="Helvetica,sans-Serif" font-size="10.00">AscEmu/src/scripts</text>
<text text-anchor="middle" x="995.5" y="-12.5" font-family="Helvetica,sans-Serif" font-size="10.00">/MiscScripts/RandomScripts.cpp</text>
</a>
</g>
</g>
<!-- Node1&#45;&gt;Node7 -->
<g id="edge6_Node000001_Node000007" class="edge">
<title>Node1&#45;&gt;Node7</title>
<g id="a_edge6_Node000001_Node000007"><a xlink:title=" ">
<path fill="none" stroke="#63b8ff" d="M780.28,-74.54C828.44,-62.67 892.77,-46.82 938.52,-35.54"/>
<polygon fill="#63b8ff" stroke="#63b8ff" points="779.44,-71.14 770.57,-76.94 781.11,-77.94 779.44,-71.14"/>
</a>
</g>
</g>
<!-- Node8 -->
<g id="Node000008" class="node">
<title>Node8</title>
<g id="a_Node000008"><a xlink:href="MiscScripts_2Setup_8cpp.html" target="_top" xlink:title=" ">
<polygon fill="white" stroke="#666666" points="1225.5,-35.5 1099.5,-35.5 1099.5,-5.5 1225.5,-5.5 1225.5,-35.5"/>
<text text-anchor="start" x="1107.5" y="-23.5" font-family="Helvetica,sans-Serif" font-size="10.00">AscEmu/src/scripts</text>
<text text-anchor="middle" x="1162.5" y="-12.5" font-family="Helvetica,sans-Serif" font-size="10.00">/MiscScripts/Setup.cpp</text>
</a>
</g>
</g>
<!-- Node1&#45;&gt;Node8 -->
<g id="edge7_Node000001_Node000008" class="edge">
<title>Node1&#45;&gt;Node8</title>
<g id="a_edge7_Node000001_Node000008"><a xlink:title=" ">
<path fill="none" stroke="#63b8ff" d="M781.41,-84.73C857.24,-77.1 983.39,-62.51 1090.5,-41 1098.12,-39.47 1106.12,-37.59 1113.91,-35.6"/>
<polygon fill="#63b8ff" stroke="#63b8ff" points="780.66,-81.29 771.05,-85.76 781.35,-88.26 780.66,-81.29"/>
</a>
</g>
</g>
<!-- Node9 -->
<g id="Node000009" class="node">
<title>Node9</title>
<g id="a_Node000009"><a xlink:href="pchMiscScripts_8hpp.html" target="_top" xlink:title=" ">
<polygon fill="white" stroke="#666666" points="1415.5,-35.5 1243.5,-35.5 1243.5,-5.5 1415.5,-5.5 1415.5,-35.5"/>
<text text-anchor="start" x="1251.5" y="-23.5" font-family="Helvetica,sans-Serif" font-size="10.00">AscEmu/src/scripts</text>
<text text-anchor="middle" x="1329.5" y="-12.5" font-family="Helvetica,sans-Serif" font-size="10.00">/MiscScripts/pchMiscScripts.hpp</text>
</a>
</g>
</g>
<!-- Node1&#45;&gt;Node9 -->
<g id="edge8_Node000001_Node000009" class="edge">
<title>Node1&#45;&gt;Node9</title>
<g id="a_edge8_Node000001_Node000009"><a xlink:title=" ">
<path fill="none" stroke="#63b8ff" d="M781.42,-86.81C881.14,-80.12 1072.86,-65.28 1234.5,-41 1244.74,-39.46 1255.54,-37.54 1266.05,-35.5"/>
<polygon fill="#63b8ff" stroke="#63b8ff" points="780.93,-83.33 771.18,-87.48 781.39,-90.32 780.93,-83.33"/>
</a>
</g>
</g>
</g>
</svg>
