<?xml version="1.0" encoding="UTF-8" standalone="no"?>
<!DOCTYPE svg PUBLIC "-//W3C//DTD SVG 1.1//EN"
 "http://www.w3.org/Graphics/SVG/1.1/DTD/svg11.dtd">
<!-- Generated by graphviz version 2.43.0 (0)
 -->
<!-- Title: libmpq__block_read Pages: 1 -->
<!--zoomable 443 -->

<svg id="main" version="1.1" xmlns="http://www.w3.org/2000/svg" xmlns:xlink="http://www.w3.org/1999/xlink" xml:space="preserve" onload="init(evt)">
<style type="text/css"><![CDATA[
.node, .edge {opacity: 0.7;}
.node.selected, .edge.selected {opacity: 1;}
.edge:hover path { stroke: red; }
.edge:hover polygon { stroke: red; fill: red; }
]]></style>

<defs>
  <circle id="rim" cx="0" cy="0" r="7"/>
  <circle id="rim2" cx="0" cy="0" r="3.5"/>
  <g id="zoomPlus">
    <use xlink:href="#rim" fill="#404040"><set attributeName="fill" to="#808080" begin="zoomplus.mouseover" end="zoomplus.mouseout"/></use>
    <path d="M-4,0h8M0,-4v8" fill="none" stroke="white" stroke-width="1.5" pointer-events="none"/>
  </g>
  <g id="zoomMin">
    <use xlink:href="#rim" fill="#404040"><set attributeName="fill" to="#808080" begin="zoomminus.mouseover" end="zoomminus.mouseout"/></use>
    <path d="M-4,0h8" fill="none" stroke="white" stroke-width="1.5" pointer-events="none"/>
  </g>
  <g id="arrowUp" transform="translate(30 24)">
    <use xlink:href="#rim"/>
    <path pointer-events="none" fill="none" stroke="white" stroke-width="1.5" d="M0,-3.0v7 M-2.5,-0.5L0,-3.0L2.5,-0.5"/>
  </g>
  <g id="arrowRight" transform="rotate(90) translate(36 -43)">
    <use xlink:href="#rim"/>
    <path pointer-events="none" fill="none" stroke="white" stroke-width="1.5" d="M0,-3.0v7 M-2.5,-0.5L0,-3.0L2.5,-0.5"/>
  </g>
  <g id="arrowDown" transform="rotate(180) translate(-30 -48)">
    <use xlink:href="#rim"/>
    <path pointer-events="none" fill="none" stroke="white" stroke-width="1.5" d="M0,-3.0v7 M-2.5,-0.5L0,-3.0L2.5,-0.5"/>
  </g>
  <g id="arrowLeft" transform="rotate(270) translate(-36 17)">
    <use xlink:href="#rim"/>
    <path pointer-events="none" fill="none" stroke="white" stroke-width="1.5" d="M0,-3.0v7 M-2.5,-0.5L0,-3.0L2.5,-0.5"/>
  </g>
  <g id="resetDef">
    <use xlink:href="#rim2" fill="#404040"><set attributeName="fill" to="#808080" begin="reset.mouseover" end="reset.mouseout"/></use>
  </g>
</defs>
<script type="application/ecmascript">
var viewWidth = 1291;
var viewHeight = 443;
var sectionId = 'dynsection-9';
</script>
<script type="application/ecmascript" xlink:href="svg.min.js"/>
<svg id="graph" class="graph">
<g id="viewport">
<title>libmpq__block_read</title>
<!-- Node1 -->
<g id="Node000001" class="node">
<title>Node1</title>
<g id="a_Node000001"><a xlink:title=" ">
<polygon fill="#999999" stroke="#666666" points="114,-173 0,-173 0,-154 114,-154 114,-173"/>
<text text-anchor="middle" x="57" y="-161" font-family="Helvetica,sans-Serif" font-size="10.00">libmpq__block_read</text>
</a>
</g>
</g>
<!-- Node2 -->
<g id="Node000002" class="node">
<title>Node2</title>
<g id="a_Node000002"><a xlink:href="zlib_2zutil_8c.html#a0659e28c2a1d3b0b2f8c3564c6645f9c" target="_top" xlink:title=" ">
<polygon fill="white" stroke="#666666" points="242.5,-340 197.5,-340 197.5,-321 242.5,-321 242.5,-340"/>
<text text-anchor="middle" x="220" y="-328" font-family="Helvetica,sans-Serif" font-size="10.00">calloc</text>
</a>
</g>
</g>
<!-- Node1&#45;&gt;Node2 -->
<g id="edge1_Node000001_Node000002" class="edge">
<title>Node1&#45;&gt;Node2</title>
<g id="a_edge1_Node000001_Node000002"><a xlink:title=" ">
<path fill="none" stroke="#63b8ff" d="M61.17,-173.19C70.36,-199.67 99.59,-273.84 150,-311.5 160.73,-319.52 174.66,-324.15 187.19,-326.83"/>
<polygon fill="#63b8ff" stroke="#63b8ff" points="186.83,-330.32 197.29,-328.65 188.07,-323.43 186.83,-330.32"/>
</a>
</g>
</g>
<!-- Node3 -->
<g id="Node000003" class="node">
<title>Node3</title>
<g id="a_Node000003"><a xlink:href="zlib_2gzguts_8h.html#a6d9b026f3a32ae4cad5d108f9ee45986" target="_top" xlink:title=" ">
<polygon fill="white" stroke="#666666" points="568.5,-281 532.5,-281 532.5,-262 568.5,-262 568.5,-281"/>
<text text-anchor="middle" x="550.5" y="-269" font-family="Helvetica,sans-Serif" font-size="10.00">free</text>
</a>
</g>
</g>
<!-- Node1&#45;&gt;Node3 -->
<g id="edge2_Node000001_Node000003" class="edge">
<title>Node1&#45;&gt;Node3</title>
<g id="a_edge2_Node000001_Node000003"><a xlink:title=" ">
<path fill="none" stroke="#63b8ff" d="M68.68,-173.07C84.93,-187.01 117.43,-212.56 150,-224.5 184.86,-237.28 437.53,-261.26 522.04,-269.02"/>
<polygon fill="#63b8ff" stroke="#63b8ff" points="521.88,-272.51 532.16,-269.94 522.52,-265.54 521.88,-272.51"/>
</a>
</g>
</g>
<!-- Node4 -->
<g id="Node000004" class="node">
<title>Node4</title>
<g id="a_Node000004"><a xlink:href="mpq_8c.html#a6c6a64a372b496d4f2c5ec64b5a561ab" target="_top" xlink:title=" ">
<polygon fill="white" stroke="#666666" points="278,-216 162,-216 162,-197 278,-197 278,-216"/>
<text text-anchor="middle" x="220" y="-204" font-family="Helvetica,sans-Serif" font-size="10.00">libmpq__block_seed</text>
</a>
</g>
</g>
<!-- Node1&#45;&gt;Node4 -->
<g id="edge3_Node000001_Node000004" class="edge">
<title>Node1&#45;&gt;Node4</title>
<g id="a_edge3_Node000001_Node000004"><a xlink:title=" ">
<path fill="none" stroke="#63b8ff" d="M93.73,-173.04C117.28,-179.33 148.34,-187.63 173.63,-194.38"/>
<polygon fill="#63b8ff" stroke="#63b8ff" points="172.8,-197.78 183.37,-196.98 174.61,-191.02 172.8,-197.78"/>
</a>
</g>
</g>
<!-- Node5 -->
<g id="Node000005" class="node">
<title>Node5</title>
<g id="a_Node000005"><a xlink:href="mpq_8c.html#a201c3ce34515a10c2a454fe164f5c325" target="_top" xlink:title=" ">
<polygon fill="white" stroke="#666666" points="276,-178.5 164,-178.5 164,-148.5 276,-148.5 276,-178.5"/>
<text text-anchor="start" x="172" y="-166.5" font-family="Helvetica,sans-Serif" font-size="10.00">libmpq__block_size</text>
<text text-anchor="middle" x="220" y="-155.5" font-family="Helvetica,sans-Serif" font-size="10.00">_unpacked</text>
</a>
</g>
</g>
<!-- Node1&#45;&gt;Node5 -->
<g id="edge4_Node000001_Node000005" class="edge">
<title>Node1&#45;&gt;Node5</title>
<g id="a_edge4_Node000001_Node000005"><a xlink:title=" ">
<path fill="none" stroke="#63b8ff" d="M114.31,-163.5C126.97,-163.5 140.52,-163.5 153.52,-163.5"/>
<polygon fill="#63b8ff" stroke="#63b8ff" points="153.81,-167 163.81,-163.5 153.81,-160 153.81,-167"/>
</a>
</g>
</g>
<!-- Node6 -->
<g id="Node000006" class="node">
<title>Node6</title>
<g id="a_Node000006"><a xlink:href="common_8c.html#a14081197d8b1d042c0b210b429296f92" target="_top" xlink:title=" ">
<polygon fill="white" stroke="#666666" points="280,-302.5 160,-302.5 160,-272.5 280,-272.5 280,-302.5"/>
<text text-anchor="start" x="168" y="-290.5" font-family="Helvetica,sans-Serif" font-size="10.00">libmpq__decompress</text>
<text text-anchor="middle" x="220" y="-279.5" font-family="Helvetica,sans-Serif" font-size="10.00">_block</text>
</a>
</g>
</g>
<!-- Node1&#45;&gt;Node6 -->
<g id="edge5_Node000001_Node000006" class="edge">
<title>Node1&#45;&gt;Node6</title>
<g id="a_edge5_Node000001_Node000006"><a xlink:title=" ">
<path fill="none" stroke="#63b8ff" d="M65.1,-173.09C79.36,-191.77 113.23,-233.36 150,-258.5 155.14,-262.01 160.77,-265.23 166.53,-268.13"/>
<polygon fill="#63b8ff" stroke="#63b8ff" points="165.1,-271.33 175.64,-272.44 168.09,-265 165.1,-271.33"/>
</a>
</g>
</g>
<!-- Node27 -->
<g id="Node000027" class="node">
<title>Node27</title>
<g id="a_Node000027"><a xlink:href="common_8c.html#a99f065914f05dceb09c259edb5519cd2" target="_top" xlink:title=" ">
<polygon fill="white" stroke="#666666" points="284.5,-130 155.5,-130 155.5,-111 284.5,-111 284.5,-130"/>
<text text-anchor="middle" x="220" y="-118" font-family="Helvetica,sans-Serif" font-size="10.00">libmpq__decrypt_block</text>
</a>
</g>
</g>
<!-- Node1&#45;&gt;Node27 -->
<g id="edge32_Node000001_Node000027" class="edge">
<title>Node1&#45;&gt;Node27</title>
<g id="a_edge32_Node000001_Node000027"><a xlink:title=" ">
<path fill="none" stroke="#63b8ff" d="M93.73,-153.96C117.28,-147.67 148.34,-139.37 173.63,-132.62"/>
<polygon fill="#63b8ff" stroke="#63b8ff" points="174.61,-135.98 183.37,-130.02 172.8,-129.22 174.61,-135.98"/>
</a>
</g>
</g>
<!-- Node28 -->
<g id="Node000028" class="node">
<title>Node28</title>
<g id="a_Node000028"><a xlink:href="mpq_8c.html#a6216c433c3beb7fd5590be1520278ae5" target="_top" xlink:title=" ">
<polygon fill="white" stroke="#666666" points="290,-93 150,-93 150,-74 290,-74 290,-93"/>
<text text-anchor="middle" x="220" y="-81" font-family="Helvetica,sans-Serif" font-size="10.00">libmpq__file_compressed</text>
</a>
</g>
</g>
<!-- Node1&#45;&gt;Node28 -->
<g id="edge33_Node000001_Node000028" class="edge">
<title>Node1&#45;&gt;Node28</title>
<g id="a_edge33_Node000001_Node000028"><a xlink:title=" ">
<path fill="none" stroke="#63b8ff" d="M69.43,-153.9C86.12,-140.35 118.58,-115.69 150,-101.5 154.35,-99.53 158.96,-97.75 163.65,-96.14"/>
<polygon fill="#63b8ff" stroke="#63b8ff" points="164.86,-99.43 173.33,-93.08 162.74,-92.76 164.86,-99.43"/>
</a>
</g>
</g>
<!-- Node29 -->
<g id="Node000029" class="node">
<title>Node29</title>
<g id="a_Node000029"><a xlink:href="mpq_8c.html#a2af293a86a17cc3c825477bdbe3a1036" target="_top" xlink:title=" ">
<polygon fill="white" stroke="#666666" points="285,-56 155,-56 155,-37 285,-37 285,-56"/>
<text text-anchor="middle" x="220" y="-44" font-family="Helvetica,sans-Serif" font-size="10.00">libmpq__file_encrypted</text>
</a>
</g>
</g>
<!-- Node1&#45;&gt;Node29 -->
<g id="edge34_Node000001_Node000029" class="edge">
<title>Node1&#45;&gt;Node29</title>
<g id="a_edge34_Node000001_Node000029"><a xlink:title=" ">
<path fill="none" stroke="#63b8ff" d="M64.08,-153.93C77.23,-134.05 110.32,-88.21 150,-64.5 152.96,-62.73 156.09,-61.14 159.32,-59.69"/>
<polygon fill="#63b8ff" stroke="#63b8ff" points="160.61,-62.95 168.63,-56.03 158.05,-56.43 160.61,-62.95"/>
</a>
</g>
</g>
<!-- Node30 -->
<g id="Node000030" class="node">
<title>Node30</title>
<g id="a_Node000030"><a xlink:href="mpq_8c.html#a4e0398f7060a0ddb9d773240860bf0fb" target="_top" xlink:title=" ">
<polygon fill="white" stroke="#666666" points="283.5,-19 156.5,-19 156.5,0 283.5,0 283.5,-19"/>
<text text-anchor="middle" x="220" y="-7" font-family="Helvetica,sans-Serif" font-size="10.00">libmpq__file_imploded</text>
</a>
</g>
</g>
<!-- Node1&#45;&gt;Node30 -->
<g id="edge35_Node000001_Node000030" class="edge">
<title>Node1&#45;&gt;Node30</title>
<g id="a_edge35_Node000001_Node000030"><a xlink:title=" ">
<path fill="none" stroke="#63b8ff" d="M61.67,-153.84C71.7,-128.81 102.06,-61.41 150,-27.5 152.12,-26 154.36,-24.62 156.68,-23.36"/>
<polygon fill="#63b8ff" stroke="#63b8ff" points="158.38,-26.43 165.98,-19.04 155.43,-20.08 158.38,-26.43"/>
</a>
</g>
</g>
<!-- Node7 -->
<g id="Node000007" class="node">
<title>Node7</title>
<g id="a_Node000007"><a xlink:href="extract_8c.html#a02a141d0c4651685423612cdbe7a1ae1" target="_top" xlink:title=" ">
<polygon fill="white" stroke="#666666" points="446,-302.5 326,-302.5 326,-272.5 446,-272.5 446,-302.5"/>
<text text-anchor="start" x="334" y="-290.5" font-family="Helvetica,sans-Serif" font-size="10.00">libmpq__decompress</text>
<text text-anchor="middle" x="386" y="-279.5" font-family="Helvetica,sans-Serif" font-size="10.00">_multi</text>
</a>
</g>
</g>
<!-- Node6&#45;&gt;Node7 -->
<g id="edge6_Node000006_Node000007" class="edge">
<title>Node6&#45;&gt;Node7</title>
<g id="a_edge6_Node000006_Node000007"><a xlink:title=" ">
<path fill="none" stroke="#63b8ff" d="M280.21,-287.5C291.7,-287.5 303.85,-287.5 315.64,-287.5"/>
<polygon fill="#63b8ff" stroke="#63b8ff" points="315.88,-291 325.88,-287.5 315.88,-284 315.88,-291"/>
</a>
</g>
</g>
<!-- Node9 -->
<g id="Node000009" class="node">
<title>Node9</title>
<g id="a_Node000009"><a xlink:href="extract_8c.html#a0f52973fd44c19d7d3df5a0484e7d6bc" target="_top" xlink:title=" ">
<polygon fill="white" stroke="#666666" points="446,-350.5 326,-350.5 326,-320.5 446,-320.5 446,-350.5"/>
<text text-anchor="start" x="334" y="-338.5" font-family="Helvetica,sans-Serif" font-size="10.00">libmpq__decompress</text>
<text text-anchor="middle" x="386" y="-327.5" font-family="Helvetica,sans-Serif" font-size="10.00">_pkzip</text>
</a>
</g>
</g>
<!-- Node6&#45;&gt;Node9 -->
<g id="edge9_Node000006_Node000009" class="edge">
<title>Node6&#45;&gt;Node9</title>
<g id="a_edge9_Node000006_Node000009"><a xlink:title=" ">
<path fill="none" stroke="#63b8ff" d="M272.44,-302.56C288.77,-307.34 306.99,-312.67 323.94,-317.63"/>
<polygon fill="#63b8ff" stroke="#63b8ff" points="323.16,-321.05 333.74,-320.5 325.13,-314.33 323.16,-321.05"/>
</a>
</g>
</g>
<!-- Node7&#45;&gt;Node3 -->
<g id="edge7_Node000007_Node000003" class="edge">
<title>Node7&#45;&gt;Node3</title>
<g id="a_edge7_Node000007_Node000003"><a xlink:title=" ">
<path fill="none" stroke="#63b8ff" d="M446.13,-281.68C472.25,-279.11 501.67,-276.21 522.42,-274.17"/>
<polygon fill="#63b8ff" stroke="#63b8ff" points="522.82,-277.64 532.43,-273.18 522.13,-270.68 522.82,-277.64"/>
</a>
</g>
</g>
<!-- Node8 -->
<g id="Node000008" class="node">
<title>Node8</title>
<g id="a_Node000008"><a xlink:href="zlib_2gzguts_8h.html#adacbf80ddc99f9a9e0f6aa2bbf1fb0e9" target="_top" xlink:title=" ">
<polygon fill="white" stroke="#666666" points="575.5,-318 525.5,-318 525.5,-299 575.5,-299 575.5,-318"/>
<text text-anchor="middle" x="550.5" y="-306" font-family="Helvetica,sans-Serif" font-size="10.00">malloc</text>
</a>
</g>
</g>
<!-- Node7&#45;&gt;Node8 -->
<g id="edge8_Node000007_Node000008" class="edge">
<title>Node7&#45;&gt;Node8</title>
<g id="a_edge8_Node000007_Node000008"><a xlink:title=" ">
<path fill="none" stroke="#63b8ff" d="M446.13,-295.14C469.36,-298.14 495.2,-301.48 515.23,-304.07"/>
<polygon fill="#63b8ff" stroke="#63b8ff" points="515.06,-307.58 525.43,-305.39 515.96,-300.64 515.06,-307.58"/>
</a>
</g>
</g>
<!-- Node9&#45;&gt;Node3 -->
<g id="edge10_Node000009_Node000003" class="edge">
<title>Node9&#45;&gt;Node3</title>
<g id="a_edge10_Node000009_Node000003"><a xlink:title=" ">
<path fill="none" stroke="#63b8ff" d="M426.38,-320.39C433,-317.59 439.75,-314.58 446,-311.5 462.62,-303.32 464.95,-297.73 482,-290.5 494.96,-285 509.98,-280.6 522.56,-277.41"/>
<polygon fill="#63b8ff" stroke="#63b8ff" points="523.55,-280.78 532.45,-275.03 521.91,-273.97 523.55,-280.78"/>
</a>
</g>
</g>
<!-- Node9&#45;&gt;Node8 -->
<g id="edge31_Node000009_Node000008" class="edge">
<title>Node9&#45;&gt;Node8</title>
<g id="a_edge31_Node000009_Node000008"><a xlink:title=" ">
<path fill="none" stroke="#63b8ff" d="M446.13,-325.68C469.46,-321.8 495.44,-317.48 515.51,-314.15"/>
<polygon fill="#63b8ff" stroke="#63b8ff" points="516.13,-317.59 525.43,-312.5 514.99,-310.69 516.13,-317.59"/>
</a>
</g>
</g>
<!-- Node10 -->
<g id="Node000010" class="node">
<title>Node10</title>
<g id="a_Node000010"><a xlink:href="libmpq_2libmpq_2explode_8c.html#a5cef1ce9d3bdccc3866d65901982e117" target="_top" xlink:title=" ">
<polygon fill="white" stroke="#666666" points="619,-366.5 482,-366.5 482,-336.5 619,-336.5 619,-366.5"/>
<text text-anchor="start" x="490" y="-354.5" font-family="Helvetica,sans-Serif" font-size="10.00">libmpq__do_decompress</text>
<text text-anchor="middle" x="550.5" y="-343.5" font-family="Helvetica,sans-Serif" font-size="10.00">_pkzip</text>
</a>
</g>
</g>
<!-- Node9&#45;&gt;Node10 -->
<g id="edge11_Node000009_Node000010" class="edge">
<title>Node9&#45;&gt;Node10</title>
<g id="a_edge11_Node000009_Node000010"><a xlink:title=" ">
<path fill="none" stroke="#63b8ff" d="M446.13,-341.32C454.47,-342.14 463.16,-343 471.79,-343.85"/>
<polygon fill="#63b8ff" stroke="#63b8ff" points="471.58,-347.35 481.88,-344.84 472.27,-340.38 471.58,-347.35"/>
</a>
</g>
</g>
<!-- Node11 -->
<g id="Node000011" class="node">
<title>Node11</title>
<g id="a_Node000011"><a xlink:href="libmpq_2libmpq_2explode_8c.html#a6c19807fb5aea0290c8370f3f3f1ea33" target="_top" xlink:title=" ">
<polygon fill="white" stroke="#666666" points="770.5,-435 675.5,-435 675.5,-416 770.5,-416 770.5,-435"/>
<text text-anchor="middle" x="723" y="-423" font-family="Helvetica,sans-Serif" font-size="10.00">data_read_input</text>
</a>
</g>
</g>
<!-- Node10&#45;&gt;Node11 -->
<g id="edge12_Node000010_Node000011" class="edge">
<title>Node10&#45;&gt;Node11</title>
<g id="a_edge12_Node000010_Node000011"><a xlink:title=" ">
<path fill="none" stroke="#63b8ff" d="M575.4,-366.52C595.89,-378.88 626.53,-396.16 655,-407.5 660.03,-409.51 665.37,-411.36 670.74,-413.06"/>
<polygon fill="#63b8ff" stroke="#63b8ff" points="669.82,-416.44 680.4,-415.95 671.82,-409.73 669.82,-416.44"/>
</a>
</g>
</g>
<!-- Node12 -->
<g id="Node000012" class="node">
<title>Node12</title>
<g id="a_Node000012"><a xlink:href="libmpq_2libmpq_2explode_8c.html#a75c5c32d4e0d4caa394118fc0d75cace" target="_top" xlink:title=" ">
<polygon fill="white" stroke="#666666" points="775.5,-398 670.5,-398 670.5,-379 775.5,-379 775.5,-398"/>
<text text-anchor="middle" x="723" y="-386" font-family="Helvetica,sans-Serif" font-size="10.00">data_write_output</text>
</a>
</g>
</g>
<!-- Node10&#45;&gt;Node12 -->
<g id="edge13_Node000010_Node000012" class="edge">
<title>Node10&#45;&gt;Node12</title>
<g id="a_edge13_Node000010_Node000012"><a xlink:title=" ">
<path fill="none" stroke="#63b8ff" d="M619.38,-366.23C635.6,-369.75 652.7,-373.46 668.2,-376.82"/>
<polygon fill="#63b8ff" stroke="#63b8ff" points="667.6,-380.28 678.12,-378.98 669.09,-373.44 667.6,-380.28"/>
</a>
</g>
</g>
<!-- Node13 -->
<g id="Node000013" class="node">
<title>Node13</title>
<g id="a_Node000013"><a xlink:href="libmpq_2libmpq_2explode_8c.html#aedc71b8bd204a6e2fa97e6699acd7757" target="_top" xlink:title=" ">
<polygon fill="white" stroke="#666666" points="749.5,-361 696.5,-361 696.5,-342 749.5,-342 749.5,-361"/>
<text text-anchor="middle" x="723" y="-349" font-family="Helvetica,sans-Serif" font-size="10.00">expand</text>
</a>
</g>
</g>
<!-- Node10&#45;&gt;Node13 -->
<g id="edge14_Node000010_Node000013" class="edge">
<title>Node10&#45;&gt;Node13</title>
<g id="a_edge14_Node000010_Node000013"><a xlink:title=" ">
<path fill="none" stroke="#63b8ff" d="M619.38,-351.5C642.26,-351.5 666.88,-351.5 686.27,-351.5"/>
<polygon fill="#63b8ff" stroke="#63b8ff" points="686.46,-355 696.46,-351.5 686.46,-348 686.46,-355"/>
</a>
</g>
</g>
<!-- Node17 -->
<g id="Node000017" class="node">
<title>Node17</title>
<g id="a_Node000017"><a xlink:href="libmpq_2libmpq_2explode_8c.html#afbdf626d2e5895cfd789ad1a4f49a499" target="_top" xlink:title=" ">
<polygon fill="white" stroke="#666666" points="784.5,-324 661.5,-324 661.5,-305 784.5,-305 784.5,-324"/>
<text text-anchor="middle" x="723" y="-312" font-family="Helvetica,sans-Serif" font-size="10.00">generate_tables_ascii</text>
</a>
</g>
</g>
<!-- Node10&#45;&gt;Node17 -->
<g id="edge19_Node000010_Node000017" class="edge">
<title>Node10&#45;&gt;Node17</title>
<g id="a_edge19_Node000010_Node000017"><a xlink:title=" ">
<path fill="none" stroke="#63b8ff" d="M619.38,-336.77C635.6,-333.25 652.7,-329.54 668.2,-326.18"/>
<polygon fill="#63b8ff" stroke="#63b8ff" points="669.09,-329.56 678.12,-324.02 667.6,-322.72 669.09,-329.56"/>
</a>
</g>
</g>
<!-- Node26 -->
<g id="Node000026" class="node">
<title>Node26</title>
<g id="a_Node000026"><a xlink:href="libmpq_2libmpq_2explode_8c.html#aa7b7e9b2cab57d4ae592988cff676e06" target="_top" xlink:title=" ">
<polygon fill="white" stroke="#666666" points="791,-287 655,-287 655,-268 791,-268 791,-287"/>
<text text-anchor="middle" x="723" y="-275" font-family="Helvetica,sans-Serif" font-size="10.00">generate_tables_decode</text>
</a>
</g>
</g>
<!-- Node10&#45;&gt;Node26 -->
<g id="edge30_Node000010_Node000026" class="edge">
<title>Node10&#45;&gt;Node26</title>
<g id="a_edge30_Node000010_Node000026"><a xlink:title=" ">
<path fill="none" stroke="#63b8ff" d="M600.77,-336.41C607.07,-333.78 613.3,-330.81 619,-327.5 637.26,-316.89 636.41,-306.5 655,-296.5 659.24,-294.22 663.77,-292.19 668.42,-290.39"/>
<polygon fill="#63b8ff" stroke="#63b8ff" points="669.76,-293.63 678.03,-287 667.44,-287.02 669.76,-293.63"/>
</a>
</g>
</g>
<!-- Node14 -->
<g id="Node000014" class="node">
<title>Node14</title>
<g id="a_Node000014"><a xlink:href="libmpq_2libmpq_2explode_8c.html#a2048d7c389ab152c5fc2ee3242022f40" target="_top" xlink:title=" ">
<polygon fill="white" stroke="#666666" points="925,-398 827,-398 827,-379 925,-379 925,-398"/>
<text text-anchor="middle" x="876" y="-386" font-family="Helvetica,sans-Serif" font-size="10.00">decode_distance</text>
</a>
</g>
</g>
<!-- Node13&#45;&gt;Node14 -->
<g id="edge15_Node000013_Node000014" class="edge">
<title>Node13&#45;&gt;Node14</title>
<g id="a_edge15_Node000013_Node000014"><a xlink:title=" ">
<path fill="none" stroke="#63b8ff" d="M749.62,-357.78C770.56,-362.91 800.78,-370.31 826.31,-376.57"/>
<polygon fill="#63b8ff" stroke="#63b8ff" points="825.64,-380.01 836.19,-378.99 827.31,-373.21 825.64,-380.01"/>
</a>
</g>
</g>
<!-- Node16 -->
<g id="Node000016" class="node">
<title>Node16</title>
<g id="a_Node000016"><a xlink:href="libmpq_2libmpq_2explode_8c.html#a5f0835479b25247e50654b0d61671496" target="_top" xlink:title=" ">
<polygon fill="white" stroke="#666666" points="919,-361 833,-361 833,-342 919,-342 919,-361"/>
<text text-anchor="middle" x="876" y="-349" font-family="Helvetica,sans-Serif" font-size="10.00">decode_literal</text>
</a>
</g>
</g>
<!-- Node13&#45;&gt;Node16 -->
<g id="edge17_Node000013_Node000016" class="edge">
<title>Node13&#45;&gt;Node16</title>
<g id="a_edge17_Node000013_Node000016"><a xlink:title=" ">
<path fill="none" stroke="#63b8ff" d="M749.62,-351.5C769.57,-351.5 797.93,-351.5 822.64,-351.5"/>
<polygon fill="#63b8ff" stroke="#63b8ff" points="822.97,-355 832.97,-351.5 822.97,-348 822.97,-355"/>
</a>
</g>
</g>
<!-- Node15 -->
<g id="Node000015" class="node">
<title>Node15</title>
<g id="a_Node000015"><a xlink:href="libmpq_2libmpq_2explode_8c.html#a454cacc99379a5391a766923588e1c17" target="_top" xlink:title=" ">
<polygon fill="white" stroke="#666666" points="1036.5,-389 981.5,-389 981.5,-370 1036.5,-370 1036.5,-389"/>
<text text-anchor="middle" x="1009" y="-377" font-family="Helvetica,sans-Serif" font-size="10.00">skip_bit</text>
</a>
</g>
</g>
<!-- Node14&#45;&gt;Node15 -->
<g id="edge16_Node000014_Node000015" class="edge">
<title>Node14&#45;&gt;Node15</title>
<g id="a_edge16_Node000014_Node000015"><a xlink:title=" ">
<path fill="none" stroke="#63b8ff" d="M925.04,-385.2C940.31,-384.15 956.96,-383.01 971.3,-382.02"/>
<polygon fill="#63b8ff" stroke="#63b8ff" points="971.55,-385.51 981.29,-381.34 971.07,-378.53 971.55,-385.51"/>
</a>
</g>
</g>
<!-- Node16&#45;&gt;Node15 -->
<g id="edge18_Node000016_Node000015" class="edge">
<title>Node16&#45;&gt;Node15</title>
<g id="a_edge18_Node000016_Node000015"><a xlink:title=" ">
<path fill="none" stroke="#63b8ff" d="M919.17,-360.51C935.86,-364.08 954.87,-368.14 971.01,-371.59"/>
<polygon fill="#63b8ff" stroke="#63b8ff" points="970.64,-375.09 981.15,-373.76 972.11,-368.25 970.64,-375.09"/>
</a>
</g>
</g>
<!-- Node18 -->
<g id="Node000018" class="node">
<title>Node18</title>
<g id="a_Node000018"><a xlink:href="ltm__desc_8c.html#a274c97efa9f26a6d22ca17dbcb52e58b" target="_top" xlink:title=" ">
<polygon fill="white" stroke="#666666" points="893.5,-324 858.5,-324 858.5,-305 893.5,-305 893.5,-324"/>
<text text-anchor="middle" x="876" y="-312" font-family="Helvetica,sans-Serif" font-size="10.00">add</text>
</a>
</g>
</g>
<!-- Node17&#45;&gt;Node18 -->
<g id="edge20_Node000017_Node000018" class="edge">
<title>Node17&#45;&gt;Node18</title>
<g id="a_edge20_Node000017_Node000018"><a xlink:title=" ">
<path fill="none" stroke="#63b8ff" d="M784.55,-314.5C806.7,-314.5 830.64,-314.5 848.32,-314.5"/>
<polygon fill="#63b8ff" stroke="#63b8ff" points="848.45,-318 858.45,-314.5 848.45,-311 848.45,-318"/>
</a>
</g>
</g>
<!-- Node19 -->
<g id="Node000019" class="node">
<title>Node19</title>
<g id="a_Node000019"><a xlink:href="bn__mp__add_8c.html#a394e42368265b70fcf0540c4a4eebc21" target="_top" xlink:title=" ">
<polygon fill="white" stroke="#666666" points="1037,-297 981,-297 981,-278 1037,-278 1037,-297"/>
<text text-anchor="middle" x="1009" y="-285" font-family="Helvetica,sans-Serif" font-size="10.00">mp_add</text>
</a>
</g>
</g>
<!-- Node18&#45;&gt;Node19 -->
<g id="edge21_Node000018_Node000019" class="edge">
<title>Node18&#45;&gt;Node19</title>
<g id="a_edge21_Node000018_Node000019"><a xlink:title=" ">
<path fill="none" stroke="#63b8ff" d="M893.59,-311.08C912.83,-307.11 945.16,-300.45 970.55,-295.22"/>
<polygon fill="#63b8ff" stroke="#63b8ff" points="971.51,-298.59 980.6,-293.15 970.1,-291.74 971.51,-298.59"/>
</a>
</g>
</g>
<!-- Node25 -->
<g id="Node000025" class="node">
<title>Node25</title>
<g id="a_Node000025"><a xlink:href="ltm__desc_8c.html#abc21dd3358332c6bcdd2ec873ab5c5a6" target="_top" xlink:title=" ">
<polygon fill="white" stroke="#666666" points="1057,-334 961,-334 961,-315 1057,-315 1057,-334"/>
<text text-anchor="middle" x="1009" y="-322" font-family="Helvetica,sans-Serif" font-size="10.00">mpi_to_ltc_error</text>
</a>
</g>
</g>
<!-- Node18&#45;&gt;Node25 -->
<g id="edge29_Node000018_Node000025" class="edge">
<title>Node18&#45;&gt;Node25</title>
<g id="a_edge29_Node000018_Node000025"><a xlink:title=" ">
<path fill="none" stroke="#63b8ff" d="M893.59,-315.77C908.09,-316.87 930.01,-318.55 950.8,-320.13"/>
<polygon fill="#63b8ff" stroke="#63b8ff" points="950.63,-323.63 960.87,-320.9 951.17,-316.65 950.63,-323.63"/>
</a>
</g>
</g>
<!-- Node20 -->
<g id="Node000020" class="node">
<title>Node20</title>
<g id="a_Node000020"><a xlink:href="bn__mp__cmp__mag_8c.html#a121088764f89bf3b1c563a5d81c8ed9a" target="_top" xlink:title=" ">
<polygon fill="white" stroke="#666666" points="1179,-334 1093,-334 1093,-315 1179,-315 1179,-334"/>
<text text-anchor="middle" x="1136" y="-322" font-family="Helvetica,sans-Serif" font-size="10.00">mp_cmp_mag</text>
</a>
</g>
</g>
<!-- Node19&#45;&gt;Node20 -->
<g id="edge22_Node000019_Node000020" class="edge">
<title>Node19&#45;&gt;Node20</title>
<g id="a_edge22_Node000019_Node000020"><a xlink:title=" ">
<path fill="none" stroke="#63b8ff" d="M1037.12,-295.53C1053.43,-300.36 1074.54,-306.6 1092.97,-312.06"/>
<polygon fill="#63b8ff" stroke="#63b8ff" points="1092.03,-315.43 1102.61,-314.91 1094.02,-308.72 1092.03,-315.43"/>
</a>
</g>
</g>
<!-- Node21 -->
<g id="Node000021" class="node">
<title>Node21</title>
<g id="a_Node000021"><a xlink:href="bn__s__mp__add_8c.html#a063eaa9c7ba263e7f02ecc5a3f65acfe" target="_top" xlink:title=" ">
<polygon fill="white" stroke="#666666" points="1169,-260 1103,-260 1103,-241 1169,-241 1169,-260"/>
<text text-anchor="middle" x="1136" y="-248" font-family="Helvetica,sans-Serif" font-size="10.00">s_mp_add</text>
</a>
</g>
</g>
<!-- Node19&#45;&gt;Node21 -->
<g id="edge23_Node000019_Node000021" class="edge">
<title>Node19&#45;&gt;Node21</title>
<g id="a_edge23_Node000019_Node000021"><a xlink:title=" ">
<path fill="none" stroke="#63b8ff" d="M1037.12,-279.47C1053.43,-274.64 1074.54,-268.4 1092.97,-262.94"/>
<polygon fill="#63b8ff" stroke="#63b8ff" points="1094.02,-266.28 1102.61,-260.09 1092.03,-259.57 1094.02,-266.28"/>
</a>
</g>
</g>
<!-- Node24 -->
<g id="Node000024" class="node">
<title>Node24</title>
<g id="a_Node000024"><a xlink:href="bn__s__mp__sub_8c.html#aa9a8231c2dc42159132a0f586bab31f5" target="_top" xlink:title=" ">
<polygon fill="white" stroke="#666666" points="1168.5,-297 1103.5,-297 1103.5,-278 1168.5,-278 1168.5,-297"/>
<text text-anchor="middle" x="1136" y="-285" font-family="Helvetica,sans-Serif" font-size="10.00">s_mp_sub</text>
</a>
</g>
</g>
<!-- Node19&#45;&gt;Node24 -->
<g id="edge26_Node000019_Node000024" class="edge">
<title>Node19&#45;&gt;Node24</title>
<g id="a_edge26_Node000019_Node000024"><a xlink:title=" ">
<path fill="none" stroke="#63b8ff" d="M1037.12,-287.5C1053.41,-287.5 1074.46,-287.5 1092.87,-287.5"/>
<polygon fill="#63b8ff" stroke="#63b8ff" points="1093.07,-291 1103.07,-287.5 1093.07,-284 1093.07,-291"/>
</a>
</g>
</g>
<!-- Node22 -->
<g id="Node000022" class="node">
<title>Node22</title>
<g id="a_Node000022"><a xlink:href="bn__mp__clamp_8c.html#aa857c7afa73b9c5d5f24168f0d8d815e" target="_top" xlink:title=" ">
<polygon fill="white" stroke="#666666" points="1283,-297 1215,-297 1215,-278 1283,-278 1283,-297"/>
<text text-anchor="middle" x="1249" y="-285" font-family="Helvetica,sans-Serif" font-size="10.00">mp_clamp</text>
</a>
</g>
</g>
<!-- Node21&#45;&gt;Node22 -->
<g id="edge24_Node000021_Node000022" class="edge">
<title>Node21&#45;&gt;Node22</title>
<g id="a_edge24_Node000021_Node000022"><a xlink:title=" ">
<path fill="none" stroke="#63b8ff" d="M1165.59,-260.03C1178.95,-264.48 1195.05,-269.85 1209.47,-274.66"/>
<polygon fill="#63b8ff" stroke="#63b8ff" points="1208.53,-278.03 1219.13,-277.88 1210.75,-271.39 1208.53,-278.03"/>
</a>
</g>
</g>
<!-- Node23 -->
<g id="Node000023" class="node">
<title>Node23</title>
<g id="a_Node000023"><a xlink:href="bn__mp__grow_8c.html#abdc9ad4bb753273a4f8076094a440191" target="_top" xlink:title=" ">
<polygon fill="white" stroke="#666666" points="1280,-260 1218,-260 1218,-241 1280,-241 1280,-260"/>
<text text-anchor="middle" x="1249" y="-248" font-family="Helvetica,sans-Serif" font-size="10.00">mp_grow</text>
</a>
</g>
</g>
<!-- Node21&#45;&gt;Node23 -->
<g id="edge25_Node000021_Node000023" class="edge">
<title>Node21&#45;&gt;Node23</title>
<g id="a_edge25_Node000021_Node000023"><a xlink:title=" ">
<path fill="none" stroke="#63b8ff" d="M1169.11,-250.5C1181.11,-250.5 1194.9,-250.5 1207.57,-250.5"/>
<polygon fill="#63b8ff" stroke="#63b8ff" points="1207.87,-254 1217.87,-250.5 1207.87,-247 1207.87,-254"/>
</a>
</g>
</g>
<!-- Node24&#45;&gt;Node22 -->
<g id="edge27_Node000024_Node000022" class="edge">
<title>Node24&#45;&gt;Node22</title>
<g id="a_edge27_Node000024_Node000022"><a xlink:title=" ">
<path fill="none" stroke="#63b8ff" d="M1168.51,-287.5C1179.71,-287.5 1192.53,-287.5 1204.56,-287.5"/>
<polygon fill="#63b8ff" stroke="#63b8ff" points="1204.86,-291 1214.86,-287.5 1204.86,-284 1204.86,-291"/>
</a>
</g>
</g>
<!-- Node24&#45;&gt;Node23 -->
<g id="edge28_Node000024_Node000023" class="edge">
<title>Node24&#45;&gt;Node23</title>
<g id="a_edge28_Node000024_Node000023"><a xlink:title=" ">
<path fill="none" stroke="#63b8ff" d="M1165.59,-277.97C1178.95,-273.52 1195.05,-268.15 1209.47,-263.34"/>
<polygon fill="#63b8ff" stroke="#63b8ff" points="1210.75,-266.61 1219.13,-260.12 1208.53,-259.97 1210.75,-266.61"/>
</a>
</g>
</g>
</g>
</svg>

<g id="navigator" transform="translate(0 0)" fill="#404254">
  <rect fill="#f2f5e9" fill-opacity="0.5" stroke="#606060" stroke-width=".5" x="0" y="0" width="60" height="60"/>
  <use id="zoomplus" xlink:href="#zoomPlus" x="17" y="9" onmousedown="handleZoom(evt,'in')"/>
  <use id="zoomminus" xlink:href="#zoomMin" x="42" y="9" onmousedown="handleZoom(evt,'out')"/>
  <use id="reset" xlink:href="#resetDef" x="30" y="36" onmousedown="handleReset()"/>
   <use id="arrowup" xlink:href="#arrowUp" x="0" y="0" onmousedown="handlePan(0,-1)"/>
  <use id="arrowright" xlink:href="#arrowRight" x="0" y="0" onmousedown="handlePan(1,0)"/>
  <use id="arrowdown" xlink:href="#arrowDown" x="0" y="0" onmousedown="handlePan(0,1)"/>
  <use id="arrowleft" xlink:href="#arrowLeft" x="0" y="0" onmousedown="handlePan(-1,0)"/>
</g>
<svg viewBox="0 0 15 15" width="100%" height="30px" preserveAspectRatio="xMaxYMin meet">
 <g id="arrow_out" transform="scale(0.3 0.3)">
  <a xlink:href="mpq_8c_a99127e3017d6b820e0d50649b1d2c4c2_cgraph_org.svg" target="_base">
   <rect id="button" ry="5" rx="5" y="6" x="6" height="38" width="38"
        fill="#f2f5e9" fill-opacity="0.5" stroke="#606060" stroke-width="1.0"/>
   <path id="arrow"
     d="M 11.500037,31.436501 C 11.940474,20.09759 22.043105,11.32322 32.158766,21.979434 L 37.068811,17.246167 C 37.068811,17.246167 37.088388,32 37.088388,32 L 22.160133,31.978069 C 22.160133,31.978069 26.997745,27.140456 26.997745,27.140456 C 18.528582,18.264221 13.291696,25.230495 11.500037,31.436501 z"
     style="fill:#404040;"/>
  </a>
 </g>
</svg>

<style type='text/css'>
<![CDATA[
[data-mouse-over-selected='false'] { opacity: 0.7; }
[data-mouse-over-selected='true']  { opacity: 1.0; }
]]>
</style>
<script type="application/ecmascript"><![CDATA[
document.addEventListener('DOMContentLoaded', (event) => {
  highlightEdges();
  highlightAdjacentNodes();
});
]]></script>
</svg>
