<?xml version="1.0" encoding="UTF-8" standalone="no"?>
<!DOCTYPE svg PUBLIC "-//W3C//DTD SVG 1.1//EN"
 "http://www.w3.org/Graphics/SVG/1.1/DTD/svg11.dtd">
<!-- Generated by graphviz version 2.43.0 (0)
 -->
<!-- Title: G3D::parseFilename Pages: 1 -->
<svg width="690pt" height="234pt"
 viewBox="0.00 0.00 690.00 233.96" xmlns="http://www.w3.org/2000/svg" xmlns:xlink="http://www.w3.org/1999/xlink">
<g id="graph0" class="graph" transform="scale(1 1) rotate(0) translate(4 229.96)">
<title>G3D::parseFilename</title>
<!-- Node1 -->
<g id="Node000001" class="node">
<title>Node1</title>
<g id="a_Node000001"><a xlink:title=" ">
<polygon fill="#999999" stroke="#666666" points="116,-113 0,-113 0,-94 116,-94 116,-113"/>
<text text-anchor="middle" x="58" y="-101" font-family="Helvetica,sans-Serif" font-size="10.00">G3D::parseFilename</text>
</a>
</g>
</g>
<!-- Node2 -->
<g id="Node000002" class="node">
<title>Node2</title>
<g id="a_Node000002"><a xlink:href="classG3D_1_1Array.html#a56183c682e174ccb813ac3bfb2657376" target="_top" xlink:title=" ">
<polygon fill="white" stroke="#666666" points="263,-169 152,-169 152,-150 263,-150 263,-169"/>
<text text-anchor="middle" x="207.5" y="-157" font-family="Helvetica,sans-Serif" font-size="10.00">G3D::Array::append</text>
</a>
</g>
</g>
<!-- Node1&#45;&gt;Node2 -->
<g id="edge1_Node000001_Node000002" class="edge">
<title>Node1&#45;&gt;Node2</title>
<g id="a_edge1_Node000001_Node000002"><a xlink:title=" ">
<path fill="none" stroke="#63b8ff" d="M81.38,-113.15C100.11,-121.11 127.62,-132.5 152,-141.5 156.79,-143.27 161.84,-145.04 166.85,-146.76"/>
<polygon fill="#63b8ff" stroke="#63b8ff" points="165.79,-150.1 176.39,-149.97 168.02,-143.46 165.79,-150.1"/>
</a>
</g>
</g>
<!-- Node6 -->
<g id="Node000006" class="node">
<title>Node6</title>
<g id="a_Node000006"><a xlink:href="namespaceG3D.html#ac963e578ad7f1b9c9ad9fbc82b0f034c" target="_top" xlink:title=" ">
<polygon fill="white" stroke="#666666" points="666.5,-170 604.5,-170 604.5,-151 666.5,-151 666.5,-170"/>
<text text-anchor="middle" x="635.5" y="-158" font-family="Helvetica,sans-Serif" font-size="10.00">G3D::min</text>
</a>
</g>
</g>
<!-- Node1&#45;&gt;Node6 -->
<g id="edge16_Node000001_Node000006" class="edge">
<title>Node1&#45;&gt;Node6</title>
<g id="a_edge16_Node000001_Node000006"><a xlink:title=" ">
<path fill="none" stroke="#63b8ff" d="M64.92,-113.3C77.77,-133.49 110.44,-179.29 152,-196.5 308.63,-261.38 518.2,-201.58 599.87,-173.37"/>
<polygon fill="#63b8ff" stroke="#63b8ff" points="601.14,-176.63 609.41,-170.01 598.82,-170.03 601.14,-176.63"/>
</a>
</g>
</g>
<!-- Node10 -->
<g id="Node000010" class="node">
<title>Node10</title>
<g id="a_Node000010"><a xlink:href="classG3D_1_1Array.html#a29b4b423c6124e13e993aeb2ff8f2fa1" target="_top" xlink:title=" ">
<polygon fill="white" stroke="#666666" points="257,-132 158,-132 158,-113 257,-113 257,-132"/>
<text text-anchor="middle" x="207.5" y="-120" font-family="Helvetica,sans-Serif" font-size="10.00">G3D::Array::clear</text>
</a>
</g>
</g>
<!-- Node1&#45;&gt;Node10 -->
<g id="edge11_Node000001_Node000010" class="edge">
<title>Node1&#45;&gt;Node10</title>
<g id="a_edge11_Node000001_Node000010"><a xlink:title=" ">
<path fill="none" stroke="#63b8ff" d="M116.03,-110.85C126.36,-112.18 137.16,-113.57 147.55,-114.91"/>
<polygon fill="#63b8ff" stroke="#63b8ff" points="147.41,-118.42 157.77,-116.22 148.3,-111.47 147.41,-118.42"/>
</a>
</g>
</g>
<!-- Node11 -->
<g id="Node000011" class="node">
<title>Node11</title>
<g id="a_Node000011"><a xlink:href="namespaceG3D.html#ac04d920621daeb663fa63bfba7ca1192" target="_top" xlink:title=" ">
<polygon fill="white" stroke="#666666" points="246.5,-95 168.5,-95 168.5,-76 246.5,-76 246.5,-95"/>
<text text-anchor="middle" x="207.5" y="-83" font-family="Helvetica,sans-Serif" font-size="10.00">G3D::isSlash</text>
</a>
</g>
</g>
<!-- Node1&#45;&gt;Node11 -->
<g id="edge13_Node000001_Node000011" class="edge">
<title>Node1&#45;&gt;Node11</title>
<g id="a_edge13_Node000001_Node000011"><a xlink:title=" ">
<path fill="none" stroke="#63b8ff" d="M116.03,-96.54C129.98,-94.84 144.78,-93.03 158.27,-91.39"/>
<polygon fill="#63b8ff" stroke="#63b8ff" points="158.8,-94.85 168.31,-90.16 157.95,-87.9 158.8,-94.85"/>
</a>
</g>
</g>
<!-- Node12 -->
<g id="Node000012" class="node">
<title>Node12</title>
<g id="a_Node000012"><a xlink:href="namespaceG3D.html#a1b8600ff99633cddfd79bdcfbd5d0d4a" target="_top" xlink:title="Returns the larger string index, ignoring std::string::npos.">
<polygon fill="white" stroke="#666666" points="409,-76 299,-76 299,-57 409,-57 409,-76"/>
<text text-anchor="middle" x="354" y="-64" font-family="Helvetica,sans-Serif" font-size="10.00">G3D::maxNotNPOS</text>
</a>
</g>
</g>
<!-- Node1&#45;&gt;Node12 -->
<g id="edge14_Node000001_Node000012" class="edge">
<title>Node1&#45;&gt;Node12</title>
<g id="a_edge14_Node000001_Node000012"><a xlink:title=" ">
<path fill="none" stroke="#63b8ff" d="M77.25,-93.83C95.56,-84.71 124.86,-71.7 152,-66.5 197.08,-57.86 248.91,-58.1 288.64,-60.37"/>
<polygon fill="#63b8ff" stroke="#63b8ff" points="288.53,-63.87 298.73,-61.01 288.97,-56.89 288.53,-63.87"/>
</a>
</g>
</g>
<!-- Node13 -->
<g id="Node000013" class="node">
<title>Node13</title>
<g id="a_Node000013"><a xlink:href="RecastContour_8cpp.html#a6f1109916123abdff2b46675c13307e3" target="_top" xlink:title=" ">
<polygon fill="white" stroke="#666666" points="226.5,-19 188.5,-19 188.5,0 226.5,0 226.5,-19"/>
<text text-anchor="middle" x="207.5" y="-7" font-family="Helvetica,sans-Serif" font-size="10.00">prev</text>
</a>
</g>
</g>
<!-- Node1&#45;&gt;Node13 -->
<g id="edge17_Node000001_Node000013" class="edge">
<title>Node1&#45;&gt;Node13</title>
<g id="a_edge17_Node000001_Node000013"><a xlink:title=" ">
<path fill="none" stroke="#63b8ff" d="M69.87,-94C86.65,-79.63 120.27,-52.09 152,-33.5 160.43,-28.56 170.05,-24 178.85,-20.21"/>
<polygon fill="#63b8ff" stroke="#63b8ff" points="180.42,-23.35 188.32,-16.28 177.74,-16.88 180.42,-23.35"/>
</a>
</g>
</g>
<!-- Node2&#45;&gt;Node2 -->
<g id="edge2_Node000002_Node000002" class="edge">
<title>Node2&#45;&gt;Node2</title>
<g id="a_edge2_Node000002_Node000002"><a xlink:title=" ">
<path fill="none" stroke="#63b8ff" d="M185,-169.08C174.05,-177.73 181.55,-187 207.5,-187 224.12,-187 233.18,-183.2 234.66,-178.19"/>
<polygon fill="#63b8ff" stroke="#63b8ff" points="237.67,-176.39 230,-169.08 231.44,-179.58 237.67,-176.39"/>
</a>
</g>
</g>
<!-- Node3 -->
<g id="Node000003" class="node">
<title>Node3</title>
<g id="a_Node000003"><a xlink:href="classG3D_1_1Array.html#a8add2ab66c8e942109c240fe792747a6" target="_top" xlink:title=" ">
<polygon fill="white" stroke="#666666" points="409,-169 299,-169 299,-150 409,-150 409,-169"/>
<text text-anchor="middle" x="354" y="-157" font-family="Helvetica,sans-Serif" font-size="10.00">G3D::Array::inArray</text>
</a>
</g>
</g>
<!-- Node2&#45;&gt;Node3 -->
<g id="edge3_Node000002_Node000003" class="edge">
<title>Node2&#45;&gt;Node3</title>
<g id="a_edge3_Node000002_Node000003"><a xlink:title=" ">
<path fill="none" stroke="#63b8ff" d="M263.13,-159.5C271.42,-159.5 280.05,-159.5 288.53,-159.5"/>
<polygon fill="#63b8ff" stroke="#63b8ff" points="288.77,-163 298.77,-159.5 288.77,-156 288.77,-163"/>
</a>
</g>
</g>
<!-- Node4 -->
<g id="Node000004" class="node">
<title>Node4</title>
<g id="a_Node000004"><a xlink:href="classG3D_1_1Array.html#a9608f092af416439743fc785e6bdddb0" target="_top" xlink:title=" ">
<polygon fill="white" stroke="#666666" points="406,-132 302,-132 302,-113 406,-113 406,-132"/>
<text text-anchor="middle" x="354" y="-120" font-family="Helvetica,sans-Serif" font-size="10.00">G3D::Array::resize</text>
</a>
</g>
</g>
<!-- Node2&#45;&gt;Node4 -->
<g id="edge4_Node000002_Node000004" class="edge">
<title>Node2&#45;&gt;Node4</title>
<g id="a_edge4_Node000002_Node000004"><a xlink:title=" ">
<path fill="none" stroke="#63b8ff" d="M245.71,-149.97C264.01,-145.29 286.27,-139.59 305.76,-134.6"/>
<polygon fill="#63b8ff" stroke="#63b8ff" points="306.84,-137.93 315.66,-132.06 305.11,-131.15 306.84,-137.93"/>
</a>
</g>
</g>
<!-- Node5 -->
<g id="Node000005" class="node">
<title>Node5</title>
<g id="a_Node000005"><a xlink:href="namespaceG3D.html#a08c0c3adc7299e964bea91de6cf24b8e" target="_top" xlink:title=" ">
<polygon fill="white" stroke="#666666" points="531.5,-95 466.5,-95 466.5,-76 531.5,-76 531.5,-95"/>
<text text-anchor="middle" x="499" y="-83" font-family="Helvetica,sans-Serif" font-size="10.00">G3D::max</text>
</a>
</g>
</g>
<!-- Node4&#45;&gt;Node5 -->
<g id="edge5_Node000004_Node000005" class="edge">
<title>Node4&#45;&gt;Node5</title>
<g id="a_edge5_Node000004_Node000005"><a xlink:title=" ">
<path fill="none" stroke="#63b8ff" d="M391.83,-112.97C411.51,-107.88 435.81,-101.59 456.2,-96.32"/>
<polygon fill="#63b8ff" stroke="#63b8ff" points="457.35,-99.63 466.16,-93.74 455.6,-92.86 457.35,-99.63"/>
</a>
</g>
</g>
<!-- Node4&#45;&gt;Node6 -->
<g id="edge6_Node000004_Node000006" class="edge">
<title>Node4&#45;&gt;Node6</title>
<g id="a_edge6_Node000004_Node000006"><a xlink:title=" ">
<path fill="none" stroke="#63b8ff" d="M395.6,-132.04C411,-135.41 428.75,-138.98 445,-141.5 496.07,-149.43 555.42,-154.76 593.9,-157.71"/>
<polygon fill="#63b8ff" stroke="#63b8ff" points="593.94,-161.22 604.18,-158.48 594.47,-154.24 593.94,-161.22"/>
</a>
</g>
</g>
<!-- Node7 -->
<g id="Node000007" class="node">
<title>Node7</title>
<g id="a_Node000007"><a xlink:href="classG3D_1_1Array.html#a990c3dfa1da9fc289b8d0805f6cc1e4e" target="_top" xlink:title=" ">
<polygon fill="white" stroke="#666666" points="553,-132 445,-132 445,-113 553,-113 553,-132"/>
<text text-anchor="middle" x="499" y="-120" font-family="Helvetica,sans-Serif" font-size="10.00">G3D::Array::realloc</text>
</a>
</g>
</g>
<!-- Node4&#45;&gt;Node7 -->
<g id="edge7_Node000004_Node000007" class="edge">
<title>Node4&#45;&gt;Node7</title>
<g id="a_edge7_Node000004_Node000007"><a xlink:title=" ">
<path fill="none" stroke="#63b8ff" d="M406.22,-122.5C415.4,-122.5 425.07,-122.5 434.55,-122.5"/>
<polygon fill="#63b8ff" stroke="#63b8ff" points="434.72,-126 444.72,-122.5 434.72,-119 434.72,-126"/>
</a>
</g>
</g>
<!-- Node7&#45;&gt;Node6 -->
<g id="edge9_Node000007_Node000006" class="edge">
<title>Node7&#45;&gt;Node6</title>
<g id="a_edge9_Node000007_Node000006"><a xlink:title=" ">
<path fill="none" stroke="#63b8ff" d="M533.94,-132.09C552.36,-137.29 575.25,-143.76 594.53,-149.21"/>
<polygon fill="#63b8ff" stroke="#63b8ff" points="593.67,-152.6 604.24,-151.95 595.57,-145.86 593.67,-152.6"/>
</a>
</g>
</g>
<!-- Node8 -->
<g id="Node000008" class="node">
<title>Node8</title>
<g id="a_Node000008"><a xlink:href="classG3D_1_1Array.html#a679bb066709b4c04181b97a4d1c5fbca" target="_top" xlink:title=" ">
<polygon fill="white" stroke="#666666" points="682,-132 589,-132 589,-113 682,-113 682,-132"/>
<text text-anchor="middle" x="635.5" y="-120" font-family="Helvetica,sans-Serif" font-size="10.00">G3D::Array::end</text>
</a>
</g>
</g>
<!-- Node7&#45;&gt;Node8 -->
<g id="edge8_Node000007_Node000008" class="edge">
<title>Node7&#45;&gt;Node8</title>
<g id="a_edge8_Node000007_Node000008"><a xlink:title=" ">
<path fill="none" stroke="#63b8ff" d="M553.16,-122.5C561.51,-122.5 570.17,-122.5 578.58,-122.5"/>
<polygon fill="#63b8ff" stroke="#63b8ff" points="578.68,-126 588.68,-122.5 578.68,-119 578.68,-126"/>
</a>
</g>
</g>
<!-- Node9 -->
<g id="Node000009" class="node">
<title>Node9</title>
<g id="a_Node000009"><a xlink:href="fmt_2include_2fmt_2format_8h.html#adb6e274f8eb0b74b2865215e1b49c535" target="_top" xlink:title=" ">
<polygon fill="white" stroke="#666666" points="650.5,-95 620.5,-95 620.5,-76 650.5,-76 650.5,-95"/>
<text text-anchor="middle" x="635.5" y="-83" font-family="Helvetica,sans-Serif" font-size="10.00">ptr</text>
</a>
</g>
</g>
<!-- Node7&#45;&gt;Node9 -->
<g id="edge10_Node000007_Node000009" class="edge">
<title>Node7&#45;&gt;Node9</title>
<g id="a_edge10_Node000007_Node000009"><a xlink:title=" ">
<path fill="none" stroke="#63b8ff" d="M534.64,-112.97C558.47,-106.41 589.53,-97.87 610.63,-92.07"/>
<polygon fill="#63b8ff" stroke="#63b8ff" points="611.68,-95.41 620.39,-89.38 609.82,-88.66 611.68,-95.41"/>
</a>
</g>
</g>
<!-- Node10&#45;&gt;Node4 -->
<g id="edge12_Node000010_Node000004" class="edge">
<title>Node10&#45;&gt;Node4</title>
<g id="a_edge12_Node000010_Node000004"><a xlink:title=" ">
<path fill="none" stroke="#63b8ff" d="M257.02,-122.5C268.18,-122.5 280.19,-122.5 291.81,-122.5"/>
<polygon fill="#63b8ff" stroke="#63b8ff" points="291.89,-126 301.89,-122.5 291.89,-119 291.89,-126"/>
</a>
</g>
</g>
<!-- Node12&#45;&gt;Node5 -->
<g id="edge15_Node000012_Node000005" class="edge">
<title>Node12&#45;&gt;Node5</title>
<g id="a_edge15_Node000012_Node000005"><a xlink:title=" ">
<path fill="none" stroke="#63b8ff" d="M409.06,-73.68C424.59,-75.75 441.29,-77.97 455.98,-79.92"/>
<polygon fill="#63b8ff" stroke="#63b8ff" points="455.9,-83.44 466.27,-81.28 456.82,-76.5 455.9,-83.44"/>
</a>
</g>
</g>
</g>
</svg>
