<?xml version="1.0" encoding="UTF-8" standalone="no"?>
<!DOCTYPE svg PUBLIC "-//W3C//DTD SVG 1.1//EN"
 "http://www.w3.org/Graphics/SVG/1.1/DTD/svg11.dtd">
<!-- Generated by graphviz version 2.43.0 (0)
 -->
<!-- Title: detail::do_write_float Pages: 1 -->
<svg width="403pt" height="64pt"
 viewBox="0.00 0.00 403.00 64.00" xmlns="http://www.w3.org/2000/svg" xmlns:xlink="http://www.w3.org/1999/xlink">
<g id="graph0" class="graph" transform="scale(1 1) rotate(0) translate(4 60)">
<title>detail::do_write_float</title>
<!-- Node1 -->
<g id="Node000001" class="node">
<title>Node1</title>
<g id="a_Node000001"><a xlink:title=" ">
<polygon fill="#999999" stroke="#666666" points="395,-37 276,-37 276,-18 395,-18 395,-37"/>
<text text-anchor="middle" x="335.5" y="-25" font-family="Helvetica,sans-Serif" font-size="10.00">detail::do_write_float</text>
</a>
</g>
</g>
<!-- Node2 -->
<g id="Node000002" class="node">
<title>Node2</title>
<g id="a_Node000002"><a xlink:href="namespacedetail.html#a4b04cfd0c48c52712b4f5d22e9239853" target="_top" xlink:title=" ">
<polygon fill="white" stroke="#666666" points="240,-37 138,-37 138,-18 240,-18 240,-37"/>
<text text-anchor="middle" x="189" y="-25" font-family="Helvetica,sans-Serif" font-size="10.00">detail::write_float</text>
</a>
</g>
</g>
<!-- Node1&#45;&gt;Node2 -->
<g id="edge1_Node000001_Node000002" class="edge">
<title>Node1&#45;&gt;Node2</title>
<g id="a_edge1_Node000001_Node000002"><a xlink:title=" ">
<path fill="none" stroke="#63b8ff" d="M265.47,-27.5C257.01,-27.5 248.5,-27.5 240.39,-27.5"/>
<polygon fill="#63b8ff" stroke="#63b8ff" points="265.73,-31 275.73,-27.5 265.73,-24 265.73,-31"/>
</a>
</g>
</g>
<!-- Node3 -->
<g id="Node000003" class="node">
<title>Node3</title>
<g id="a_Node000003"><a xlink:href="namespacedetail.html#ac698d9efd325a63ce72eef8709b96271" target="_top" xlink:title=" ">
<polygon fill="white" stroke="#666666" points="88.5,-56 13.5,-56 13.5,-37 88.5,-37 88.5,-56"/>
<text text-anchor="middle" x="51" y="-44" font-family="Helvetica,sans-Serif" font-size="10.00">detail::write</text>
</a>
</g>
</g>
<!-- Node2&#45;&gt;Node3 -->
<g id="edge2_Node000002_Node000003" class="edge">
<title>Node2&#45;&gt;Node3</title>
<g id="a_edge2_Node000002_Node000003"><a xlink:title=" ">
<path fill="none" stroke="#63b8ff" d="M127.73,-35.92C114.49,-37.77 100.86,-39.67 88.87,-41.35"/>
<polygon fill="#63b8ff" stroke="#63b8ff" points="128.33,-39.37 137.75,-34.52 127.36,-32.44 128.33,-39.37"/>
</a>
</g>
</g>
<!-- Node4 -->
<g id="Node000004" class="node">
<title>Node4</title>
<g id="a_Node000004"><a xlink:href="namespacedetail.html#ab942eb62e7f1fe77ca1521e437743275" target="_top" xlink:title=" ">
<polygon fill="white" stroke="#666666" points="102,-19 0,-19 0,0 102,0 102,-19"/>
<text text-anchor="middle" x="51" y="-7" font-family="Helvetica,sans-Serif" font-size="10.00">detail::write_float</text>
</a>
</g>
</g>
<!-- Node2&#45;&gt;Node4 -->
<g id="edge3_Node000002_Node000004" class="edge">
<title>Node2&#45;&gt;Node4</title>
<g id="a_edge3_Node000002_Node000004"><a xlink:title=" ">
<path fill="none" stroke="#63b8ff" d="M127.77,-19.53C119.18,-18.39 110.42,-17.23 102.05,-16.12"/>
<polygon fill="#63b8ff" stroke="#63b8ff" points="127.37,-23.01 137.75,-20.85 128.29,-16.07 127.37,-23.01"/>
</a>
</g>
</g>
</g>
</svg>
