<?xml version="1.0" encoding="UTF-8" standalone="no"?>
<!DOCTYPE svg PUBLIC "-//W3C//DTD SVG 1.1//EN"
 "http://www.w3.org/Graphics/SVG/1.1/DTD/svg11.dtd">
<!-- Generated by graphviz version 2.43.0 (0)
 -->
<!-- Title: Util::GetCurrentTimeString Pages: 1 -->
<svg width="350pt" height="76pt"
 viewBox="0.00 0.00 350.00 75.50" xmlns="http://www.w3.org/2000/svg" xmlns:xlink="http://www.w3.org/1999/xlink">
<g id="graph0" class="graph" transform="scale(1 1) rotate(0) translate(4 71.5)">
<title>Util::GetCurrentTimeString</title>
<!-- Node1 -->
<g id="Node000001" class="node">
<title>Node1</title>
<g id="a_Node000001"><a xlink:title="Returns the current Time as string.">
<polygon fill="#999999" stroke="#666666" points="342,-40 196,-40 196,-21 342,-21 342,-40"/>
<text text-anchor="middle" x="269" y="-28" font-family="Helvetica,sans-Serif" font-size="10.00">Util::GetCurrentTimeString</text>
</a>
</g>
</g>
<!-- Node2 -->
<g id="Node000002" class="node">
<title>Node2</title>
<g id="a_Node000002"><a xlink:href="classAscEmu_1_1Logging_1_1Logger.html#a30f5b56f4d367e3d3ee88575d2ccb386" target="_top" xlink:title=" ">
<polygon fill="white" stroke="#666666" points="149.5,-67.5 10.5,-67.5 10.5,-37.5 149.5,-37.5 149.5,-67.5"/>
<text text-anchor="start" x="18.5" y="-55.5" font-family="Helvetica,sans-Serif" font-size="10.00">AscEmu::Logging::Logger</text>
<text text-anchor="middle" x="80" y="-44.5" font-family="Helvetica,sans-Serif" font-size="10.00">::file</text>
</a>
</g>
</g>
<!-- Node1&#45;&gt;Node2 -->
<g id="edge1_Node000001_Node000002" class="edge">
<title>Node1&#45;&gt;Node2</title>
<g id="a_edge1_Node000001_Node000002"><a xlink:title=" ">
<path fill="none" stroke="#63b8ff" d="M185.88,-40.16C173.77,-41.59 161.41,-43.04 149.61,-44.43"/>
<polygon fill="#63b8ff" stroke="#63b8ff" points="186.45,-43.62 195.97,-38.97 185.63,-36.67 186.45,-43.62"/>
</a>
</g>
</g>
<!-- Node3 -->
<g id="Node000003" class="node">
<title>Node3</title>
<g id="a_Node000003"><a xlink:href="classAscEmu_1_1Logging_1_1Logger.html#a4607bf92a6d86bd6dbf6390574013c6c" target="_top" xlink:title=" ">
<polygon fill="white" stroke="#666666" points="160,-19 0,-19 0,0 160,0 160,-19"/>
<text text-anchor="middle" x="80" y="-7" font-family="Helvetica,sans-Serif" font-size="10.00">AscEmu::Logging::Logger::log</text>
</a>
</g>
</g>
<!-- Node1&#45;&gt;Node3 -->
<g id="edge2_Node000001_Node000003" class="edge">
<title>Node1&#45;&gt;Node3</title>
<g id="a_edge2_Node000001_Node000003"><a xlink:title=" ">
<path fill="none" stroke="#63b8ff" d="M185.98,-21.29C177.4,-20.33 168.69,-19.35 160.14,-18.39"/>
<polygon fill="#63b8ff" stroke="#63b8ff" points="185.64,-24.77 195.97,-22.41 186.42,-17.82 185.64,-24.77"/>
</a>
</g>
</g>
</g>
</svg>
