<?xml version="1.0" encoding="UTF-8" standalone="no"?>
<!DOCTYPE svg PUBLIC "-//W3C//DTD SVG 1.1//EN"
 "http://www.w3.org/Graphics/SVG/1.1/DTD/svg11.dtd">
<!-- Generated by graphviz version 2.43.0 (0)
 -->
<!-- Title: G3D::trimWhitespace Pages: 1 -->
<svg width="991pt" height="157pt"
 viewBox="0.00 0.00 991.00 157.00" xmlns="http://www.w3.org/2000/svg" xmlns:xlink="http://www.w3.org/1999/xlink">
<g id="graph0" class="graph" transform="scale(1 1) rotate(0) translate(4 153)">
<title>G3D::trimWhitespace</title>
<!-- Node1 -->
<g id="Node000001" class="node">
<title>Node1</title>
<g id="a_Node000001"><a xlink:title=" ">
<polygon fill="#999999" stroke="#666666" points="983,-38 862,-38 862,-19 983,-19 983,-38"/>
<text text-anchor="middle" x="922.5" y="-26" font-family="Helvetica,sans-Serif" font-size="10.00">G3D::trimWhitespace</text>
</a>
</g>
</g>
<!-- Node2 -->
<g id="Node000002" class="node">
<title>Node2</title>
<g id="a_Node000002"><a xlink:href="classG3D_1_1Any.html#ae48fa58039f51889880904f59078257c" target="_top" xlink:title=" ">
<polygon fill="white" stroke="#666666" points="621,-57 475,-57 475,-38 621,-38 621,-57"/>
<text text-anchor="middle" x="548" y="-45" font-family="Helvetica,sans-Serif" font-size="10.00">G3D::Any::deserializeBody</text>
</a>
</g>
</g>
<!-- Node1&#45;&gt;Node2 -->
<g id="edge1_Node000001_Node000002" class="edge">
<title>Node1&#45;&gt;Node2</title>
<g id="a_edge1_Node000001_Node000002"><a xlink:title=" ">
<path fill="none" stroke="#63b8ff" d="M851.38,-32.08C785.58,-35.43 687.6,-40.43 621.15,-43.82"/>
<polygon fill="#63b8ff" stroke="#63b8ff" points="851.84,-35.56 861.65,-31.55 851.49,-28.57 851.84,-35.56"/>
</a>
</g>
</g>
<!-- Node12 -->
<g id="Node000012" class="node">
<title>Node12</title>
<g id="a_Node000012"><a xlink:href="classG3D_1_1Any.html#aeee0bd0b9bfa70183fb8b41af79e68bf" target="_top" xlink:title=" ">
<polygon fill="white" stroke="#666666" points="826,-19 657,-19 657,0 826,0 826,-19"/>
<text text-anchor="middle" x="741.5" y="-7" font-family="Helvetica,sans-Serif" font-size="10.00">G3D::Any::deserializeComment</text>
</a>
</g>
</g>
<!-- Node1&#45;&gt;Node12 -->
<g id="edge13_Node000001_Node000012" class="edge">
<title>Node1&#45;&gt;Node12</title>
<g id="a_edge13_Node000001_Node000012"><a xlink:title=" ">
<path fill="none" stroke="#63b8ff" d="M851.76,-21.1C843.34,-20.2 834.67,-19.28 826.08,-18.37"/>
<polygon fill="#63b8ff" stroke="#63b8ff" points="851.58,-24.6 861.9,-22.17 852.32,-17.64 851.58,-24.6"/>
</a>
</g>
</g>
<!-- Node3 -->
<g id="Node000003" class="node">
<title>Node3</title>
<g id="a_Node000003"><a xlink:href="classG3D_1_1Any.html#ac74eb690bfebdfecabeb2706716ef785" target="_top" xlink:title=" ">
<polygon fill="white" stroke="#666666" points="439,-57 318,-57 318,-38 439,-38 439,-57"/>
<text text-anchor="middle" x="378.5" y="-45" font-family="Helvetica,sans-Serif" font-size="10.00">G3D::Any::deserialize</text>
</a>
</g>
</g>
<!-- Node2&#45;&gt;Node3 -->
<g id="edge2_Node000002_Node000003" class="edge">
<title>Node2&#45;&gt;Node3</title>
<g id="a_edge2_Node000002_Node000003"><a xlink:title=" ">
<path fill="none" stroke="#63b8ff" d="M464.84,-40.75C456.16,-40.74 447.46,-40.82 439.11,-41.01"/>
<polygon fill="#63b8ff" stroke="#63b8ff" points="464.97,-44.25 474.99,-40.81 465.01,-37.25 464.97,-44.25"/>
</a>
</g>
</g>
<!-- Node3&#45;&gt;Node2 -->
<g id="edge8_Node000003_Node000002" class="edge">
<title>Node3&#45;&gt;Node2</title>
<g id="a_edge8_Node000003_Node000002"><a xlink:title=" ">
<path fill="none" stroke="#63b8ff" d="M449.33,-54.17C457.81,-54.27 466.48,-54.28 474.99,-54.19"/>
<polygon fill="#63b8ff" stroke="#63b8ff" points="449.16,-50.66 439.11,-53.99 449.05,-57.66 449.16,-50.66"/>
</a>
</g>
</g>
<!-- Node4 -->
<g id="Node000004" class="node">
<title>Node4</title>
<g id="a_Node000004"><a xlink:href="classG3D_1_1Any.html#ac1a4c437b451c53da4dc29914c098e88" target="_top" xlink:title=" ">
<polygon fill="white" stroke="#666666" points="271.5,-131 171.5,-131 171.5,-112 271.5,-112 271.5,-131"/>
<text text-anchor="middle" x="221.5" y="-119" font-family="Helvetica,sans-Serif" font-size="10.00">G3D::Any::_parse</text>
</a>
</g>
</g>
<!-- Node3&#45;&gt;Node4 -->
<g id="edge3_Node000003_Node000004" class="edge">
<title>Node3&#45;&gt;Node4</title>
<g id="a_edge3_Node000003_Node000004"><a xlink:title=" ">
<path fill="none" stroke="#63b8ff" d="M355.02,-62.74C336.16,-75.02 308.18,-92.06 282,-103.5 274.68,-106.7 266.62,-109.55 258.86,-111.99"/>
<polygon fill="#63b8ff" stroke="#63b8ff" points="357.09,-65.57 363.5,-57.14 353.23,-59.73 357.09,-65.57"/>
</a>
</g>
</g>
<!-- Node7 -->
<g id="Node000007" class="node">
<title>Node7</title>
<g id="a_Node000007"><a xlink:href="classG3D_1_1Any.html#a6468d3129a9278f79e777e05c13a8567" target="_top" xlink:title=" ">
<polygon fill="white" stroke="#666666" points="264.5,-94 178.5,-94 178.5,-75 264.5,-75 264.5,-94"/>
<text text-anchor="middle" x="221.5" y="-82" font-family="Helvetica,sans-Serif" font-size="10.00">G3D::Any::Any</text>
</a>
</g>
</g>
<!-- Node3&#45;&gt;Node7 -->
<g id="edge6_Node000003_Node000007" class="edge">
<title>Node3&#45;&gt;Node7</title>
<g id="a_edge6_Node000003_Node000007"><a xlink:title=" ">
<path fill="none" stroke="#63b8ff" d="M327.83,-59.36C306.74,-64.39 282.47,-70.18 262.55,-74.94"/>
<polygon fill="#63b8ff" stroke="#63b8ff" points="328.67,-62.75 337.58,-57.03 327.04,-55.95 328.67,-62.75"/>
</a>
</g>
</g>
<!-- Node8 -->
<g id="Node000008" class="node">
<title>Node8</title>
<g id="a_Node000008"><a xlink:href="classG3D_1_1Any.html#adba7043299e843f97a7f90be1612c63d" target="_top" xlink:title=" ">
<polygon fill="white" stroke="#666666" points="282,-57 161,-57 161,-38 282,-38 282,-57"/>
<text text-anchor="middle" x="221.5" y="-45" font-family="Helvetica,sans-Serif" font-size="10.00">G3D::Any::deserialize</text>
</a>
</g>
</g>
<!-- Node3&#45;&gt;Node8 -->
<g id="edge7_Node000003_Node000008" class="edge">
<title>Node3&#45;&gt;Node8</title>
<g id="a_edge7_Node000003_Node000008"><a xlink:title=" ">
<path fill="none" stroke="#63b8ff" d="M307.34,-47.5C298.88,-47.5 290.3,-47.5 282.01,-47.5"/>
<polygon fill="#63b8ff" stroke="#63b8ff" points="307.57,-51 317.57,-47.5 307.57,-44 307.57,-51"/>
</a>
</g>
</g>
<!-- Node9 -->
<g id="Node000009" class="node">
<title>Node9</title>
<g id="a_Node000009"><a xlink:href="classG3D_1_1Any.html#a08cb72beab6422e4c052a844ddcb8e00" target="_top" xlink:title=" ">
<polygon fill="white" stroke="#666666" points="266,-20 177,-20 177,-1 266,-1 266,-20"/>
<text text-anchor="middle" x="221.5" y="-8" font-family="Helvetica,sans-Serif" font-size="10.00">G3D::Any::load</text>
</a>
</g>
</g>
<!-- Node3&#45;&gt;Node9 -->
<g id="edge9_Node000003_Node000009" class="edge">
<title>Node3&#45;&gt;Node9</title>
<g id="a_edge9_Node000003_Node000009"><a xlink:title=" ">
<path fill="none" stroke="#63b8ff" d="M347.65,-34.92C324.56,-27.96 292.27,-20.02 266.27,-14.8"/>
<polygon fill="#63b8ff" stroke="#63b8ff" points="346.65,-38.27 357.24,-37.93 348.75,-31.59 346.65,-38.27"/>
</a>
</g>
</g>
<!-- Node5 -->
<g id="Node000005" class="node">
<title>Node5</title>
<g id="a_Node000005"><a xlink:href="classG3D_1_1Any.html#ae0b4b692e622001846f3916796f11ba5" target="_top" xlink:title=" ">
<polygon fill="white" stroke="#666666" points="123,-149 2,-149 2,-130 123,-130 123,-149"/>
<text text-anchor="middle" x="62.5" y="-137" font-family="Helvetica,sans-Serif" font-size="10.00">G3D::Any::deserialize</text>
</a>
</g>
</g>
<!-- Node4&#45;&gt;Node5 -->
<g id="edge4_Node000004_Node000005" class="edge">
<title>Node4&#45;&gt;Node5</title>
<g id="a_edge4_Node000004_Node000005"><a xlink:title=" ">
<path fill="none" stroke="#63b8ff" d="M161,-128.32C148.58,-129.75 135.47,-131.25 123.04,-132.67"/>
<polygon fill="#63b8ff" stroke="#63b8ff" points="161.72,-131.76 171.25,-127.15 160.92,-124.81 161.72,-131.76"/>
</a>
</g>
</g>
<!-- Node6 -->
<g id="Node000006" class="node">
<title>Node6</title>
<g id="a_Node000006"><a xlink:href="classG3D_1_1Any.html#a70cce7628f93571470c23a1c08b8ddd9" target="_top" xlink:title=" ">
<polygon fill="white" stroke="#666666" points="110,-112 15,-112 15,-93 110,-93 110,-112"/>
<text text-anchor="middle" x="62.5" y="-100" font-family="Helvetica,sans-Serif" font-size="10.00">G3D::Any::parse</text>
</a>
</g>
</g>
<!-- Node4&#45;&gt;Node6 -->
<g id="edge5_Node000004_Node000006" class="edge">
<title>Node4&#45;&gt;Node6</title>
<g id="a_edge5_Node000004_Node000006"><a xlink:title=" ">
<path fill="none" stroke="#63b8ff" d="M160.97,-114.3C144.16,-112.26 126.1,-110.08 110.16,-108.15"/>
<polygon fill="#63b8ff" stroke="#63b8ff" points="160.91,-117.81 171.25,-115.54 161.75,-110.86 160.91,-117.81"/>
</a>
</g>
</g>
<!-- Node9&#45;&gt;Node3 -->
<g id="edge10_Node000009_Node000003" class="edge">
<title>Node9&#45;&gt;Node3</title>
<g id="a_edge10_Node000009_Node000003"><a xlink:title=" ">
<path fill="none" stroke="#63b8ff" d="M252.49,-23.12C270.96,-28.69 295.29,-34.87 317.57,-39.79"/>
<polygon fill="#63b8ff" stroke="#63b8ff" points="253.48,-19.76 242.89,-20.11 251.38,-26.44 253.48,-19.76"/>
</a>
</g>
</g>
<!-- Node10 -->
<g id="Node000010" class="node">
<title>Node10</title>
<g id="a_Node000010"><a xlink:href="classG3D_1_1Any.html#ada721ac29c49f7d4fa23eaa1ae88256e" target="_top" xlink:title=" ">
<polygon fill="white" stroke="#666666" points="116.5,-57 8.5,-57 8.5,-38 116.5,-38 116.5,-57"/>
<text text-anchor="middle" x="62.5" y="-45" font-family="Helvetica,sans-Serif" font-size="10.00">G3D::Any::fromFile</text>
</a>
</g>
</g>
<!-- Node9&#45;&gt;Node10 -->
<g id="edge11_Node000009_Node000010" class="edge">
<title>Node9&#45;&gt;Node10</title>
<g id="a_edge11_Node000009_Node000010"><a xlink:title=" ">
<path fill="none" stroke="#63b8ff" d="M170.19,-22.36C148.82,-27.39 124.24,-33.18 104.07,-37.94"/>
<polygon fill="#63b8ff" stroke="#63b8ff" points="171.14,-25.73 180.07,-20.03 169.53,-18.92 171.14,-25.73"/>
</a>
</g>
</g>
<!-- Node11 -->
<g id="Node000011" class="node">
<title>Node11</title>
<g id="a_Node000011"><a xlink:href="classG3D_1_1Any.html#aa46a7029dff2bae5c907823e7e4a9cc6" target="_top" xlink:title=" ">
<polygon fill="white" stroke="#666666" points="125,-20 0,-20 0,-1 125,-1 125,-20"/>
<text text-anchor="middle" x="62.5" y="-8" font-family="Helvetica,sans-Serif" font-size="10.00">G3D::Any::loadIfExists</text>
</a>
</g>
</g>
<!-- Node9&#45;&gt;Node11 -->
<g id="edge12_Node000009_Node000011" class="edge">
<title>Node9&#45;&gt;Node11</title>
<g id="a_edge12_Node000009_Node000011"><a xlink:title=" ">
<path fill="none" stroke="#63b8ff" d="M166.37,-10.5C153.1,-10.5 138.79,-10.5 125.18,-10.5"/>
<polygon fill="#63b8ff" stroke="#63b8ff" points="166.77,-14 176.77,-10.5 166.77,-7 166.77,-14"/>
</a>
</g>
</g>
<!-- Node12&#45;&gt;Node2 -->
<g id="edge15_Node000012_Node000002" class="edge">
<title>Node12&#45;&gt;Node2</title>
<g id="a_edge15_Node000012_Node000002"><a xlink:title=" ">
<path fill="none" stroke="#63b8ff" d="M682.35,-21.04C655.04,-26.46 622.87,-32.84 596.98,-37.98"/>
<polygon fill="#63b8ff" stroke="#63b8ff" points="683.05,-24.47 692.18,-19.09 681.69,-17.6 683.05,-24.47"/>
</a>
</g>
</g>
<!-- Node12&#45;&gt;Node3 -->
<g id="edge14_Node000012_Node000003" class="edge">
<title>Node12&#45;&gt;Node3</title>
<g id="a_edge14_Node000012_Node000003"><a xlink:title=" ">
<path fill="none" stroke="#63b8ff" d="M646.81,-13.34C595.84,-16.15 531.78,-20.85 475,-28.5 457.41,-30.87 438.18,-34.49 421.62,-37.94"/>
<polygon fill="#63b8ff" stroke="#63b8ff" points="647.02,-16.84 656.82,-12.81 646.65,-9.85 647.02,-16.84"/>
</a>
</g>
</g>
</g>
</svg>
