<?xml version="1.0" encoding="UTF-8" standalone="no"?>
<!DOCTYPE svg PUBLIC "-//W3C//DTD SVG 1.1//EN"
 "http://www.w3.org/Graphics/SVG/1.1/DTD/svg11.dtd">
<!-- Generated by graphviz version 2.43.0 (0)
 -->
<!-- Title: utf8::replace_invalid Pages: 1 -->
<!--zoomable 349 -->

<svg id="main" version="1.1" xmlns="http://www.w3.org/2000/svg" xmlns:xlink="http://www.w3.org/1999/xlink" xml:space="preserve" onload="init(evt)">
<style type="text/css"><![CDATA[
.node, .edge {opacity: 0.7;}
.node.selected, .edge.selected {opacity: 1;}
.edge:hover path { stroke: red; }
.edge:hover polygon { stroke: red; fill: red; }
]]></style>

<defs>
  <circle id="rim" cx="0" cy="0" r="7"/>
  <circle id="rim2" cx="0" cy="0" r="3.5"/>
  <g id="zoomPlus">
    <use xlink:href="#rim" fill="#404040"><set attributeName="fill" to="#808080" begin="zoomplus.mouseover" end="zoomplus.mouseout"/></use>
    <path d="M-4,0h8M0,-4v8" fill="none" stroke="white" stroke-width="1.5" pointer-events="none"/>
  </g>
  <g id="zoomMin">
    <use xlink:href="#rim" fill="#404040"><set attributeName="fill" to="#808080" begin="zoomminus.mouseover" end="zoomminus.mouseout"/></use>
    <path d="M-4,0h8" fill="none" stroke="white" stroke-width="1.5" pointer-events="none"/>
  </g>
  <g id="arrowUp" transform="translate(30 24)">
    <use xlink:href="#rim"/>
    <path pointer-events="none" fill="none" stroke="white" stroke-width="1.5" d="M0,-3.0v7 M-2.5,-0.5L0,-3.0L2.5,-0.5"/>
  </g>
  <g id="arrowRight" transform="rotate(90) translate(36 -43)">
    <use xlink:href="#rim"/>
    <path pointer-events="none" fill="none" stroke="white" stroke-width="1.5" d="M0,-3.0v7 M-2.5,-0.5L0,-3.0L2.5,-0.5"/>
  </g>
  <g id="arrowDown" transform="rotate(180) translate(-30 -48)">
    <use xlink:href="#rim"/>
    <path pointer-events="none" fill="none" stroke="white" stroke-width="1.5" d="M0,-3.0v7 M-2.5,-0.5L0,-3.0L2.5,-0.5"/>
  </g>
  <g id="arrowLeft" transform="rotate(270) translate(-36 17)">
    <use xlink:href="#rim"/>
    <path pointer-events="none" fill="none" stroke="white" stroke-width="1.5" d="M0,-3.0v7 M-2.5,-0.5L0,-3.0L2.5,-0.5"/>
  </g>
  <g id="resetDef">
    <use xlink:href="#rim2" fill="#404040"><set attributeName="fill" to="#808080" begin="reset.mouseover" end="reset.mouseout"/></use>
  </g>
</defs>
<script type="application/ecmascript">
var viewWidth = 787;
var viewHeight = 349;
var sectionId = 'dynsection-19';
</script>
<script type="application/ecmascript" xlink:href="svg.min.js"/>
<svg id="graph" class="graph">
<g id="viewport">
<title>utf8::replace_invalid</title>
<!-- Node1 -->
<g id="Node000001" class="node">
<title>Node1</title>
<g id="a_Node000001"><a xlink:title=" ">
<polygon fill="#999999" stroke="#666666" points="116,-191.47 0,-191.47 0,-172.47 116,-172.47 116,-191.47"/>
<text text-anchor="middle" x="58" y="-179.47" font-family="Helvetica,sans-Serif" font-size="10.00">utf8::replace_invalid</text>
</a>
</g>
</g>
<!-- Node2 -->
<g id="Node000002" class="node">
<title>Node2</title>
<g id="a_Node000002"><a xlink:href="namespaceutf8.html#a07dcd36a2185e5c9f0b19dd88859cd6c" target="_top" xlink:title=" ">
<polygon fill="white" stroke="#666666" points="268,-191.47 152,-191.47 152,-172.47 268,-172.47 268,-191.47"/>
<text text-anchor="middle" x="210" y="-179.47" font-family="Helvetica,sans-Serif" font-size="10.00">utf8::replace_invalid</text>
</a>
</g>
</g>
<!-- Node1&#45;&gt;Node2 -->
<g id="edge1_Node000001_Node000002" class="edge">
<title>Node1&#45;&gt;Node2</title>
<g id="a_edge1_Node000001_Node000002"><a xlink:title=" ">
<path fill="none" stroke="#63b8ff" d="M116.14,-181.97C124.38,-181.97 132.92,-181.97 141.34,-181.97"/>
<polygon fill="#63b8ff" stroke="#63b8ff" points="141.53,-185.47 151.53,-181.97 141.53,-178.47 141.53,-185.47"/>
</a>
</g>
</g>
<!-- Node3 -->
<g id="Node000003" class="node">
<title>Node3</title>
<g id="a_Node000003"><a xlink:href="namespaceutf8.html#a3827e78596fc38cfdebd721e9c45c901" target="_top" xlink:title="The library API &#45; functions intended to be called by the users.">
<polygon fill="white" stroke="#666666" points="419,-281.47 341,-281.47 341,-262.47 419,-262.47 419,-281.47"/>
<text text-anchor="middle" x="380" y="-269.47" font-family="Helvetica,sans-Serif" font-size="10.00">utf8::append</text>
</a>
</g>
</g>
<!-- Node2&#45;&gt;Node3 -->
<g id="edge2_Node000002_Node000003" class="edge">
<title>Node2&#45;&gt;Node3</title>
<g id="a_edge2_Node000002_Node000003"><a xlink:title=" ">
<path fill="none" stroke="#63b8ff" d="M228.98,-191.6C258.54,-207.43 317.55,-239.05 352.1,-257.55"/>
<polygon fill="#63b8ff" stroke="#63b8ff" points="350.68,-260.77 361.15,-262.4 353.99,-254.6 350.68,-260.77"/>
</a>
</g>
</g>
<!-- Node6 -->
<g id="Node000006" class="node">
<title>Node6</title>
<g id="a_Node000006"><a xlink:href="namespaceutf8_1_1internal.html#ab4820484159ba613b4901476ceb24516" target="_top" xlink:title=" ">
<polygon fill="white" stroke="#666666" points="427,-81.97 333,-81.97 333,-51.97 427,-51.97 427,-81.97"/>
<text text-anchor="start" x="341" y="-69.97" font-family="Helvetica,sans-Serif" font-size="10.00">utf8::internal::is</text>
<text text-anchor="middle" x="380" y="-58.97" font-family="Helvetica,sans-Serif" font-size="10.00">_trail</text>
</a>
</g>
</g>
<!-- Node2&#45;&gt;Node6 -->
<g id="edge5_Node000002_Node000006" class="edge">
<title>Node2&#45;&gt;Node6</title>
<g id="a_edge5_Node000002_Node000006"><a xlink:title=" ">
<path fill="none" stroke="#63b8ff" d="M225.03,-172.36C252.12,-153.82 312.15,-112.72 348.74,-87.68"/>
<polygon fill="#63b8ff" stroke="#63b8ff" points="350.78,-90.52 357.06,-81.99 346.83,-84.75 350.78,-90.52"/>
</a>
</g>
</g>
<!-- Node8 -->
<g id="Node000008" class="node">
<title>Node8</title>
<g id="a_Node000008"><a xlink:href="namespaceutf8_1_1internal.html#abe95547575fcc81911e381df03f8ebfe" target="_top" xlink:title=" ">
<polygon fill="white" stroke="#666666" points="456,-191.47 304,-191.47 304,-172.47 456,-172.47 456,-191.47"/>
<text text-anchor="middle" x="380" y="-179.47" font-family="Helvetica,sans-Serif" font-size="10.00">utf8::internal::validate_next</text>
</a>
</g>
</g>
<!-- Node2&#45;&gt;Node8 -->
<g id="edge7_Node000002_Node000008" class="edge">
<title>Node2&#45;&gt;Node8</title>
<g id="a_edge7_Node000002_Node000008"><a xlink:title=" ">
<path fill="none" stroke="#63b8ff" d="M268.35,-181.97C276.54,-181.97 285.12,-181.97 293.72,-181.97"/>
<polygon fill="#63b8ff" stroke="#63b8ff" points="293.79,-185.47 303.79,-181.97 293.79,-178.47 293.79,-185.47"/>
</a>
</g>
</g>
<!-- Node4 -->
<g id="Node000004" class="node">
<title>Node4</title>
<g id="a_Node000004"><a xlink:href="namespaceutf8_1_1internal.html#a97b553137aaeda6e8ca6f8d46f78fd79" target="_top" xlink:title=" ">
<polygon fill="white" stroke="#666666" points="610,-340.97 506,-340.97 506,-310.97 610,-310.97 610,-340.97"/>
<text text-anchor="start" x="514" y="-328.97" font-family="Helvetica,sans-Serif" font-size="10.00">utf8::internal::is</text>
<text text-anchor="middle" x="558" y="-317.97" font-family="Helvetica,sans-Serif" font-size="10.00">_code_point_valid</text>
</a>
</g>
</g>
<!-- Node3&#45;&gt;Node4 -->
<g id="edge3_Node000003_Node000004" class="edge">
<title>Node3&#45;&gt;Node4</title>
<g id="a_edge3_Node000003_Node000004"><a xlink:title=" ">
<path fill="none" stroke="#63b8ff" d="M412.06,-281.5C435.91,-288.81 469.54,-299.13 498.4,-307.99"/>
<polygon fill="#63b8ff" stroke="#63b8ff" points="497.4,-311.34 507.98,-310.93 499.45,-304.65 497.4,-311.34"/>
</a>
</g>
</g>
<!-- Node5 -->
<g id="Node000005" class="node">
<title>Node5</title>
<g id="a_Node000005"><a xlink:href="namespaceutf8_1_1internal.html#a31a185a6bc8b9bf454191a8a95a93595" target="_top" xlink:title=" ">
<polygon fill="white" stroke="#666666" points="766.5,-340.97 672.5,-340.97 672.5,-310.97 766.5,-310.97 766.5,-340.97"/>
<text text-anchor="start" x="680.5" y="-328.97" font-family="Helvetica,sans-Serif" font-size="10.00">utf8::internal::is</text>
<text text-anchor="middle" x="719.5" y="-317.97" font-family="Helvetica,sans-Serif" font-size="10.00">_surrogate</text>
</a>
</g>
</g>
<!-- Node4&#45;&gt;Node5 -->
<g id="edge4_Node000004_Node000005" class="edge">
<title>Node4&#45;&gt;Node5</title>
<g id="a_edge4_Node000004_Node000005"><a xlink:title=" ">
<path fill="none" stroke="#63b8ff" d="M610.34,-325.97C626.86,-325.97 645.25,-325.97 662.11,-325.97"/>
<polygon fill="#63b8ff" stroke="#63b8ff" points="662.37,-329.47 672.37,-325.97 662.37,-322.47 662.37,-329.47"/>
</a>
</g>
</g>
<!-- Node7 -->
<g id="Node000007" class="node">
<title>Node7</title>
<g id="a_Node000007"><a xlink:href="namespaceutf8_1_1internal.html#adf6e0469e279b9562aa461b4c3c1e7e4" target="_top" xlink:title=" ">
<polygon fill="white" stroke="#666666" points="779,-119.47 660,-119.47 660,-100.47 779,-100.47 779,-119.47"/>
<text text-anchor="middle" x="719.5" y="-107.47" font-family="Helvetica,sans-Serif" font-size="10.00">utf8::internal::mask8</text>
</a>
</g>
</g>
<!-- Node6&#45;&gt;Node7 -->
<g id="edge6_Node000006_Node000007" class="edge">
<title>Node6&#45;&gt;Node7</title>
<g id="a_edge6_Node000006_Node000007"><a xlink:title=" ">
<path fill="none" stroke="#63b8ff" d="M404.55,-51.89C426.27,-38.93 459.93,-21.23 492,-13.97 549.22,-1.01 569.89,8.7 624,-13.97 661.54,-29.69 691.71,-68.4 707.18,-91.57"/>
<polygon fill="#63b8ff" stroke="#63b8ff" points="704.36,-93.66 712.72,-100.17 710.25,-89.87 704.36,-93.66"/>
</a>
</g>
</g>
<!-- Node8&#45;&gt;Node4 -->
<g id="edge16_Node000008_Node000004" class="edge">
<title>Node8&#45;&gt;Node4</title>
<g id="a_edge16_Node000008_Node000004"><a xlink:title=" ">
<path fill="none" stroke="#63b8ff" d="M391.97,-191.47C407.08,-204.78 434.82,-230.04 456,-253.97 473.68,-273.93 470.62,-286.03 492,-301.97 493.84,-303.34 495.77,-304.64 497.76,-305.87"/>
<polygon fill="#63b8ff" stroke="#63b8ff" points="496.38,-309.11 506.83,-310.85 499.75,-302.97 496.38,-309.11"/>
</a>
</g>
</g>
<!-- Node9 -->
<g id="Node000009" class="node">
<title>Node9</title>
<g id="a_Node000009"><a xlink:href="namespaceutf8_1_1internal.html#a6e5df73716136aec55e8fcf3309038b6" target="_top" xlink:title="get_sequence_x functions decode utf&#45;8 sequences of the length x">
<polygon fill="white" stroke="#666666" points="608.5,-100.97 507.5,-100.97 507.5,-70.97 608.5,-70.97 608.5,-100.97"/>
<text text-anchor="start" x="515.5" y="-88.97" font-family="Helvetica,sans-Serif" font-size="10.00">utf8::internal::get</text>
<text text-anchor="middle" x="558" y="-77.97" font-family="Helvetica,sans-Serif" font-size="10.00">_sequence_1</text>
</a>
</g>
</g>
<!-- Node8&#45;&gt;Node9 -->
<g id="edge8_Node000008_Node000009" class="edge">
<title>Node8&#45;&gt;Node9</title>
<g id="a_edge8_Node000008_Node000009"><a xlink:title=" ">
<path fill="none" stroke="#63b8ff" d="M393.76,-172.33C413.85,-157.5 454.42,-128.8 492,-109.97 495.47,-108.23 499.1,-106.54 502.79,-104.93"/>
<polygon fill="#63b8ff" stroke="#63b8ff" points="504.15,-108.16 512.04,-101.08 501.46,-101.69 504.15,-108.16"/>
</a>
</g>
</g>
<!-- Node10 -->
<g id="Node000010" class="node">
<title>Node10</title>
<g id="a_Node000010"><a xlink:href="namespaceutf8_1_1internal.html#a9d641b9546be985f9f0fd4955ac42a24" target="_top" xlink:title=" ">
<polygon fill="white" stroke="#666666" points="608.5,-52.97 507.5,-52.97 507.5,-22.97 608.5,-22.97 608.5,-52.97"/>
<text text-anchor="start" x="515.5" y="-40.97" font-family="Helvetica,sans-Serif" font-size="10.00">utf8::internal::get</text>
<text text-anchor="middle" x="558" y="-29.97" font-family="Helvetica,sans-Serif" font-size="10.00">_sequence_2</text>
</a>
</g>
</g>
<!-- Node8&#45;&gt;Node10 -->
<g id="edge10_Node000008_Node000010" class="edge">
<title>Node8&#45;&gt;Node10</title>
<g id="a_edge10_Node000008_Node000010"><a xlink:title=" ">
<path fill="none" stroke="#63b8ff" d="M387.37,-172.45C402.78,-150.12 444.33,-93.81 492,-61.97 494.27,-60.45 496.64,-59.02 499.09,-57.66"/>
<polygon fill="#63b8ff" stroke="#63b8ff" points="500.82,-60.7 508.19,-53.09 497.68,-54.45 500.82,-60.7"/>
</a>
</g>
</g>
<!-- Node11 -->
<g id="Node000011" class="node">
<title>Node11</title>
<g id="a_Node000011"><a xlink:href="namespaceutf8_1_1internal.html#ac1809a1fb3fa6983d64a0d3a39646008" target="_top" xlink:title=" ">
<polygon fill="white" stroke="#666666" points="608.5,-292.97 507.5,-292.97 507.5,-262.97 608.5,-262.97 608.5,-292.97"/>
<text text-anchor="start" x="515.5" y="-280.97" font-family="Helvetica,sans-Serif" font-size="10.00">utf8::internal::get</text>
<text text-anchor="middle" x="558" y="-269.97" font-family="Helvetica,sans-Serif" font-size="10.00">_sequence_3</text>
</a>
</g>
</g>
<!-- Node8&#45;&gt;Node11 -->
<g id="edge12_Node000008_Node000011" class="edge">
<title>Node8&#45;&gt;Node11</title>
<g id="a_edge12_Node000008_Node000011"><a xlink:title=" ">
<path fill="none" stroke="#63b8ff" d="M393.76,-191.6C413.85,-206.43 454.42,-235.13 492,-253.97 495.47,-255.7 499.1,-257.39 502.79,-259"/>
<polygon fill="#63b8ff" stroke="#63b8ff" points="501.46,-262.24 512.04,-262.85 504.15,-255.77 501.46,-262.24"/>
</a>
</g>
</g>
<!-- Node12 -->
<g id="Node000012" class="node">
<title>Node12</title>
<g id="a_Node000012"><a xlink:href="namespaceutf8_1_1internal.html#ad1958e7c6746ba6b1fbb0d81b88b346c" target="_top" xlink:title=" ">
<polygon fill="white" stroke="#666666" points="608.5,-196.97 507.5,-196.97 507.5,-166.97 608.5,-166.97 608.5,-196.97"/>
<text text-anchor="start" x="515.5" y="-184.97" font-family="Helvetica,sans-Serif" font-size="10.00">utf8::internal::get</text>
<text text-anchor="middle" x="558" y="-173.97" font-family="Helvetica,sans-Serif" font-size="10.00">_sequence_4</text>
</a>
</g>
</g>
<!-- Node8&#45;&gt;Node12 -->
<g id="edge14_Node000008_Node000012" class="edge">
<title>Node8&#45;&gt;Node12</title>
<g id="a_edge14_Node000008_Node000012"><a xlink:title=" ">
<path fill="none" stroke="#63b8ff" d="M456.15,-181.97C469.79,-181.97 483.85,-181.97 496.98,-181.97"/>
<polygon fill="#63b8ff" stroke="#63b8ff" points="497.29,-185.47 507.29,-181.97 497.29,-178.47 497.29,-185.47"/>
</a>
</g>
</g>
<!-- Node13 -->
<g id="Node000013" class="node">
<title>Node13</title>
<g id="a_Node000013"><a xlink:href="namespaceutf8_1_1internal.html#a3160f6f24dff465f64f83cb0e66995c6" target="_top" xlink:title=" ">
<polygon fill="white" stroke="#666666" points="616,-244.97 500,-244.97 500,-214.97 616,-214.97 616,-244.97"/>
<text text-anchor="start" x="508" y="-232.97" font-family="Helvetica,sans-Serif" font-size="10.00">utf8::internal::is</text>
<text text-anchor="middle" x="558" y="-221.97" font-family="Helvetica,sans-Serif" font-size="10.00">_overlong_sequence</text>
</a>
</g>
</g>
<!-- Node8&#45;&gt;Node13 -->
<g id="edge17_Node000008_Node000013" class="edge">
<title>Node8&#45;&gt;Node13</title>
<g id="a_edge17_Node000008_Node000013"><a xlink:title=" ">
<path fill="none" stroke="#63b8ff" d="M416.19,-191.56C437.9,-197.48 466.4,-205.26 492.08,-212.26"/>
<polygon fill="#63b8ff" stroke="#63b8ff" points="491.2,-215.65 501.77,-214.9 493.04,-208.89 491.2,-215.65"/>
</a>
</g>
</g>
<!-- Node14 -->
<g id="Node000014" class="node">
<title>Node14</title>
<g id="a_Node000014"><a xlink:href="namespaceutf8_1_1internal.html#adb347cc81d32ebb0fd22d849f7bff5ea" target="_top" xlink:title=" ">
<polygon fill="white" stroke="#666666" points="624,-148.97 492,-148.97 492,-118.97 624,-118.97 624,-148.97"/>
<text text-anchor="start" x="500" y="-136.97" font-family="Helvetica,sans-Serif" font-size="10.00">utf8::internal::sequence</text>
<text text-anchor="middle" x="558" y="-125.97" font-family="Helvetica,sans-Serif" font-size="10.00">_length</text>
</a>
</g>
</g>
<!-- Node8&#45;&gt;Node14 -->
<g id="edge18_Node000008_Node000014" class="edge">
<title>Node8&#45;&gt;Node14</title>
<g id="a_edge18_Node000008_Node000014"><a xlink:title=" ">
<path fill="none" stroke="#63b8ff" d="M416.19,-172.37C437.9,-166.45 466.4,-158.67 492.08,-151.67"/>
<polygon fill="#63b8ff" stroke="#63b8ff" points="493.04,-155.04 501.77,-149.03 491.2,-148.28 493.04,-155.04"/>
</a>
</g>
</g>
<!-- Node9&#45;&gt;Node7 -->
<g id="edge9_Node000009_Node000007" class="edge">
<title>Node9&#45;&gt;Node7</title>
<g id="a_edge9_Node000009_Node000007"><a xlink:title=" ">
<path fill="none" stroke="#63b8ff" d="M608.59,-93.43C621.69,-95.4 636.06,-97.56 649.97,-99.65"/>
<polygon fill="#63b8ff" stroke="#63b8ff" points="649.58,-103.13 659.99,-101.16 650.62,-96.21 649.58,-103.13"/>
</a>
</g>
</g>
<!-- Node10&#45;&gt;Node7 -->
<g id="edge11_Node000010_Node000007" class="edge">
<title>Node10&#45;&gt;Node7</title>
<g id="a_edge11_Node000010_Node000007"><a xlink:title=" ">
<path fill="none" stroke="#63b8ff" d="M601.94,-53.01C609.35,-55.84 616.94,-58.88 624,-61.97 647.51,-72.24 673.45,-85.56 692.19,-95.56"/>
<polygon fill="#63b8ff" stroke="#63b8ff" points="690.56,-98.66 701.03,-100.32 693.88,-92.5 690.56,-98.66"/>
</a>
</g>
</g>
<!-- Node11&#45;&gt;Node7 -->
<g id="edge13_Node000011_Node000007" class="edge">
<title>Node11&#45;&gt;Node7</title>
<g id="a_edge13_Node000011_Node000007"><a xlink:title=" ">
<path fill="none" stroke="#63b8ff" d="M608.72,-263.46C614.16,-260.78 619.39,-257.63 624,-253.97 667.34,-219.5 697.42,-159.56 710.75,-129.02"/>
<polygon fill="#63b8ff" stroke="#63b8ff" points="714.09,-130.11 714.76,-119.54 707.64,-127.38 714.09,-130.11"/>
</a>
</g>
</g>
<!-- Node12&#45;&gt;Node7 -->
<g id="edge15_Node000012_Node000007" class="edge">
<title>Node12&#45;&gt;Node7</title>
<g id="a_edge15_Node000012_Node000007"><a xlink:title=" ">
<path fill="none" stroke="#63b8ff" d="M601.94,-166.92C609.35,-164.09 616.94,-161.05 624,-157.97 647.51,-147.69 673.45,-134.37 692.19,-124.37"/>
<polygon fill="#63b8ff" stroke="#63b8ff" points="693.88,-127.43 701.03,-119.61 690.56,-121.27 693.88,-127.43"/>
</a>
</g>
</g>
<!-- Node14&#45;&gt;Node7 -->
<g id="edge19_Node000014_Node000007" class="edge">
<title>Node14&#45;&gt;Node7</title>
<g id="a_edge19_Node000014_Node000007"><a xlink:title=" ">
<path fill="none" stroke="#63b8ff" d="M624.33,-124.13C632.81,-122.86 641.5,-121.55 650.02,-120.27"/>
<polygon fill="#63b8ff" stroke="#63b8ff" points="650.55,-123.73 659.92,-118.78 649.51,-116.81 650.55,-123.73"/>
</a>
</g>
</g>
</g>
</svg>

<g id="navigator" transform="translate(0 0)" fill="#404254">
  <rect fill="#f2f5e9" fill-opacity="0.5" stroke="#606060" stroke-width=".5" x="0" y="0" width="60" height="60"/>
  <use id="zoomplus" xlink:href="#zoomPlus" x="17" y="9" onmousedown="handleZoom(evt,'in')"/>
  <use id="zoomminus" xlink:href="#zoomMin" x="42" y="9" onmousedown="handleZoom(evt,'out')"/>
  <use id="reset" xlink:href="#resetDef" x="30" y="36" onmousedown="handleReset()"/>
   <use id="arrowup" xlink:href="#arrowUp" x="0" y="0" onmousedown="handlePan(0,-1)"/>
  <use id="arrowright" xlink:href="#arrowRight" x="0" y="0" onmousedown="handlePan(1,0)"/>
  <use id="arrowdown" xlink:href="#arrowDown" x="0" y="0" onmousedown="handlePan(0,1)"/>
  <use id="arrowleft" xlink:href="#arrowLeft" x="0" y="0" onmousedown="handlePan(-1,0)"/>
</g>
<svg viewBox="0 0 15 15" width="100%" height="30px" preserveAspectRatio="xMaxYMin meet">
 <g id="arrow_out" transform="scale(0.3 0.3)">
  <a xlink:href="namespaceutf8_aec77c74e34421cc8e4b0fdaf3e0e023a_cgraph_org.svg" target="_base">
   <rect id="button" ry="5" rx="5" y="6" x="6" height="38" width="38"
        fill="#f2f5e9" fill-opacity="0.5" stroke="#606060" stroke-width="1.0"/>
   <path id="arrow"
     d="M 11.500037,31.436501 C 11.940474,20.09759 22.043105,11.32322 32.158766,21.979434 L 37.068811,17.246167 C 37.068811,17.246167 37.088388,32 37.088388,32 L 22.160133,31.978069 C 22.160133,31.978069 26.997745,27.140456 26.997745,27.140456 C 18.528582,18.264221 13.291696,25.230495 11.500037,31.436501 z"
     style="fill:#404040;"/>
  </a>
 </g>
</svg>

<style type='text/css'>
<![CDATA[
[data-mouse-over-selected='false'] { opacity: 0.7; }
[data-mouse-over-selected='true']  { opacity: 1.0; }
]]>
</style>
<script type="application/ecmascript"><![CDATA[
document.addEventListener('DOMContentLoaded', (event) => {
  highlightEdges();
  highlightAdjacentNodes();
});
]]></script>
</svg>
