<?xml version="1.0" encoding="UTF-8" standalone="no"?>
<!DOCTYPE svg PUBLIC "-//W3C//DTD SVG 1.1//EN"
 "http://www.w3.org/Graphics/SVG/1.1/DTD/svg11.dtd">
<!-- Generated by graphviz version 2.43.0 (0)
 -->
<!-- Title: detail::get_significand_size Pages: 1 -->
<svg width="607pt" height="86pt"
 viewBox="0.00 0.00 607.00 86.00" xmlns="http://www.w3.org/2000/svg" xmlns:xlink="http://www.w3.org/1999/xlink">
<g id="graph0" class="graph" transform="scale(1 1) rotate(0) translate(4 82)">
<title>detail::get_significand_size</title>
<!-- Node1 -->
<g id="Node000001" class="node">
<title>Node1</title>
<g id="a_Node000001"><a xlink:title=" ">
<polygon fill="#999999" stroke="#666666" points="149,-48.5 0,-48.5 0,-29.5 149,-29.5 149,-48.5"/>
<text text-anchor="middle" x="74.5" y="-36.5" font-family="Helvetica,sans-Serif" font-size="10.00">detail::get_significand_size</text>
</a>
</g>
</g>
<!-- Node2 -->
<g id="Node000002" class="node">
<title>Node2</title>
<g id="a_Node000002"><a xlink:href="namespacedetail.html#ae970ad8cf6b25d7896f788089ca1b0eb" target="_top" xlink:title=" ">
<polygon fill="white" stroke="#666666" points="295,-48.5 185,-48.5 185,-29.5 295,-29.5 295,-48.5"/>
<text text-anchor="middle" x="240" y="-36.5" font-family="Helvetica,sans-Serif" font-size="10.00">detail::count_digits</text>
</a>
</g>
</g>
<!-- Node1&#45;&gt;Node2 -->
<g id="edge1_Node000001_Node000002" class="edge">
<title>Node1&#45;&gt;Node2</title>
<g id="a_edge1_Node000001_Node000002"><a xlink:title=" ">
<path fill="none" stroke="#63b8ff" d="M149.12,-39C157.68,-39 166.35,-39 174.77,-39"/>
<polygon fill="#63b8ff" stroke="#63b8ff" points="174.88,-42.5 184.88,-39 174.88,-35.5 174.88,-42.5"/>
</a>
</g>
</g>
<!-- Node3 -->
<g id="Node000003" class="node">
<title>Node3</title>
<g id="a_Node000003"><a xlink:href="namespacedetail.html#a300bc96ee936e9f6ef3565c8dff68a72" target="_top" xlink:title=" ">
<polygon fill="white" stroke="#666666" points="441,-78 331,-78 331,-48 441,-48 441,-78"/>
<text text-anchor="start" x="339" y="-66" font-family="Helvetica,sans-Serif" font-size="10.00">detail::count_digits</text>
<text text-anchor="middle" x="386" y="-55" font-family="Helvetica,sans-Serif" font-size="10.00">_fallback</text>
</a>
</g>
</g>
<!-- Node2&#45;&gt;Node3 -->
<g id="edge2_Node000002_Node000003" class="edge">
<title>Node2&#45;&gt;Node3</title>
<g id="a_edge2_Node000002_Node000003"><a xlink:title=" ">
<path fill="none" stroke="#63b8ff" d="M295.03,-48C303.4,-49.4 312.13,-50.85 320.7,-52.28"/>
<polygon fill="#63b8ff" stroke="#63b8ff" points="320.23,-55.75 330.67,-53.94 321.38,-48.85 320.23,-55.75"/>
</a>
</g>
</g>
<!-- Node5 -->
<g id="Node000005" class="node">
<title>Node5</title>
<g id="a_Node000005"><a xlink:href="namespacedetail.html#aeb63dd474812d21836ab91a29224f27d" target="_top" xlink:title=" ">
<polygon fill="white" stroke="#666666" points="439,-30 333,-30 333,0 439,0 439,-30"/>
<text text-anchor="start" x="341" y="-18" font-family="Helvetica,sans-Serif" font-size="10.00">detail::is_constant</text>
<text text-anchor="middle" x="386" y="-7" font-family="Helvetica,sans-Serif" font-size="10.00">_evaluated</text>
</a>
</g>
</g>
<!-- Node2&#45;&gt;Node5 -->
<g id="edge4_Node000002_Node000005" class="edge">
<title>Node2&#45;&gt;Node5</title>
<g id="a_edge4_Node000002_Node000005"><a xlink:title=" ">
<path fill="none" stroke="#63b8ff" d="M295.03,-30C304.06,-28.49 313.48,-26.92 322.7,-25.38"/>
<polygon fill="#63b8ff" stroke="#63b8ff" points="323.29,-28.83 332.58,-23.74 322.14,-21.93 323.29,-28.83"/>
</a>
</g>
</g>
<!-- Node4 -->
<g id="Node000004" class="node">
<title>Node4</title>
<g id="a_Node000004"><a xlink:href="namespacedetail.html#a9bef8d727daadab62ef98688a6825c89" target="_top" xlink:title=" ">
<polygon fill="white" stroke="#666666" points="576.5,-72.5 499.5,-72.5 499.5,-53.5 576.5,-53.5 576.5,-72.5"/>
<text text-anchor="middle" x="538" y="-60.5" font-family="Helvetica,sans-Serif" font-size="10.00">detail::count</text>
</a>
</g>
</g>
<!-- Node3&#45;&gt;Node4 -->
<g id="edge3_Node000003_Node000004" class="edge">
<title>Node3&#45;&gt;Node4</title>
<g id="a_edge3_Node000003_Node000004"><a xlink:title=" ">
<path fill="none" stroke="#63b8ff" d="M441.15,-63C456.84,-63 473.84,-63 489.11,-63"/>
<polygon fill="#63b8ff" stroke="#63b8ff" points="489.37,-66.5 499.37,-63 489.37,-59.5 489.37,-66.5"/>
</a>
</g>
</g>
<!-- Node6 -->
<g id="Node000006" class="node">
<title>Node6</title>
<g id="a_Node000006"><a xlink:href="namespacedetail.html#a1fe84ebaf96215ce0665d95b3124c2df" target="_top" xlink:title=" ">
<polygon fill="white" stroke="#666666" points="599,-24.5 477,-24.5 477,-5.5 599,-5.5 599,-24.5"/>
<text text-anchor="middle" x="538" y="-12.5" font-family="Helvetica,sans-Serif" font-size="10.00">detail::ignore_unused</text>
</a>
</g>
</g>
<!-- Node5&#45;&gt;Node6 -->
<g id="edge5_Node000005_Node000006" class="edge">
<title>Node5&#45;&gt;Node6</title>
<g id="a_edge5_Node000005_Node000006"><a xlink:title=" ">
<path fill="none" stroke="#63b8ff" d="M439.04,-15C447.99,-15 457.42,-15 466.75,-15"/>
<polygon fill="#63b8ff" stroke="#63b8ff" points="466.81,-18.5 476.81,-15 466.81,-11.5 466.81,-18.5"/>
</a>
</g>
</g>
</g>
</svg>
