<?xml version="1.0" encoding="UTF-8" standalone="no"?>
<!DOCTYPE svg PUBLIC "-//W3C//DTD SVG 1.1//EN"
 "http://www.w3.org/Graphics/SVG/1.1/DTD/svg11.dtd">
<!-- Generated by graphviz version 2.43.0 (0)
 -->
<!-- Title: detail::dragonbox::remove_trailing_zeros Pages: 1 -->
<svg width="578pt" height="147pt"
 viewBox="0.00 0.00 578.00 146.50" xmlns="http://www.w3.org/2000/svg" xmlns:xlink="http://www.w3.org/1999/xlink">
<g id="graph0" class="graph" transform="scale(1 1) rotate(0) translate(4 142.5)">
<title>detail::dragonbox::remove_trailing_zeros</title>
<!-- Node1 -->
<g id="Node000001" class="node">
<title>Node1</title>
<g id="a_Node000001"><a xlink:title=" ">
<polygon fill="#999999" stroke="#666666" points="570,-90.5 445,-90.5 445,-60.5 570,-60.5 570,-90.5"/>
<text text-anchor="start" x="453" y="-78.5" font-family="Helvetica,sans-Serif" font-size="10.00">detail::dragonbox::</text>
<text text-anchor="middle" x="507.5" y="-67.5" font-family="Helvetica,sans-Serif" font-size="10.00">remove_trailing_zeros</text>
</a>
</g>
</g>
<!-- Node2 -->
<g id="Node000002" class="node">
<title>Node2</title>
<g id="a_Node000002"><a xlink:href="namespacedetail_1_1dragonbox.html#ac63547f6f0df2f1edc3a1bfba84441e6" target="_top" xlink:title=" ">
<polygon fill="white" stroke="#666666" points="409,-138.5 284,-138.5 284,-108.5 409,-108.5 409,-138.5"/>
<text text-anchor="start" x="292" y="-126.5" font-family="Helvetica,sans-Serif" font-size="10.00">detail::dragonbox::</text>
<text text-anchor="middle" x="346.5" y="-115.5" font-family="Helvetica,sans-Serif" font-size="10.00">remove_trailing_zeros</text>
</a>
</g>
</g>
<!-- Node1&#45;&gt;Node2 -->
<g id="edge1_Node000001_Node000002" class="edge">
<title>Node1&#45;&gt;Node2</title>
<g id="a_edge1_Node000001_Node000002"><a xlink:title=" ">
<path fill="none" stroke="#63b8ff" d="M446.65,-93.57C430.35,-98.49 412.87,-103.77 397.2,-108.5"/>
<polygon fill="#63b8ff" stroke="#63b8ff" points="448.07,-96.8 456.63,-90.56 446.04,-90.1 448.07,-96.8"/>
</a>
</g>
</g>
<!-- Node3 -->
<g id="Node000003" class="node">
<title>Node3</title>
<g id="a_Node000003"><a xlink:href="namespacedetail_1_1dragonbox.html#aa6c99fdd46ccd5970e9bb1587f9df1c7" target="_top" xlink:title=" ">
<polygon fill="white" stroke="#666666" points="407.5,-90.5 285.5,-90.5 285.5,-60.5 407.5,-60.5 407.5,-90.5"/>
<text text-anchor="start" x="293.5" y="-78.5" font-family="Helvetica,sans-Serif" font-size="10.00">detail::dragonbox::</text>
<text text-anchor="middle" x="346.5" y="-67.5" font-family="Helvetica,sans-Serif" font-size="10.00">shorter_interval_case</text>
</a>
</g>
</g>
<!-- Node1&#45;&gt;Node3 -->
<g id="edge2_Node000001_Node000003" class="edge">
<title>Node1&#45;&gt;Node3</title>
<g id="a_edge2_Node000001_Node000003"><a xlink:title=" ">
<path fill="none" stroke="#63b8ff" d="M434.52,-75.5C425.56,-75.5 416.46,-75.5 407.69,-75.5"/>
<polygon fill="#63b8ff" stroke="#63b8ff" points="434.57,-79 444.57,-75.5 434.57,-72 434.57,-79"/>
</a>
</g>
</g>
<!-- Node4 -->
<g id="Node000004" class="node">
<title>Node4</title>
<g id="a_Node000004"><a xlink:href="namespacedetail_1_1dragonbox.html#aa8d6f954e631a7423b27d88ac998088d" target="_top" xlink:title=" ">
<polygon fill="white" stroke="#666666" points="400.5,-42.5 292.5,-42.5 292.5,-12.5 400.5,-12.5 400.5,-42.5"/>
<text text-anchor="start" x="300.5" y="-30.5" font-family="Helvetica,sans-Serif" font-size="10.00">detail::dragonbox::</text>
<text text-anchor="middle" x="346.5" y="-19.5" font-family="Helvetica,sans-Serif" font-size="10.00">to_decimal</text>
</a>
</g>
</g>
<!-- Node1&#45;&gt;Node4 -->
<g id="edge3_Node000001_Node000004" class="edge">
<title>Node1&#45;&gt;Node4</title>
<g id="a_edge3_Node000001_Node000004"><a xlink:title=" ">
<path fill="none" stroke="#63b8ff" d="M446.65,-57.43C430.35,-52.51 412.87,-47.23 397.2,-42.5"/>
<polygon fill="#63b8ff" stroke="#63b8ff" points="446.04,-60.9 456.63,-60.44 448.07,-54.2 446.04,-60.9"/>
</a>
</g>
</g>
<!-- Node5 -->
<g id="Node000005" class="node">
<title>Node5</title>
<g id="a_Node000005"><a xlink:href="namespacedetail.html#a75bbe30bcd4f6c5be4c6be5f0172d66c" target="_top" xlink:title=" ">
<polygon fill="white" stroke="#666666" points="248,-56 138,-56 138,-37 248,-37 248,-56"/>
<text text-anchor="middle" x="193" y="-44" font-family="Helvetica,sans-Serif" font-size="10.00">detail::format_float</text>
</a>
</g>
</g>
<!-- Node4&#45;&gt;Node5 -->
<g id="edge4_Node000004_Node000005" class="edge">
<title>Node4&#45;&gt;Node5</title>
<g id="a_edge4_Node000004_Node000005"><a xlink:title=" ">
<path fill="none" stroke="#63b8ff" d="M281.92,-35.47C270.71,-36.88 259.13,-38.33 248.21,-39.7"/>
<polygon fill="#63b8ff" stroke="#63b8ff" points="282.6,-38.92 292.09,-34.2 281.73,-31.97 282.6,-38.92"/>
</a>
</g>
</g>
<!-- Node7 -->
<g id="Node000007" class="node">
<title>Node7</title>
<g id="a_Node000007"><a xlink:href="namespacedetail.html#ac698d9efd325a63ce72eef8709b96271" target="_top" xlink:title=" ">
<polygon fill="white" stroke="#666666" points="230.5,-19 155.5,-19 155.5,0 230.5,0 230.5,-19"/>
<text text-anchor="middle" x="193" y="-7" font-family="Helvetica,sans-Serif" font-size="10.00">detail::write</text>
</a>
</g>
</g>
<!-- Node4&#45;&gt;Node7 -->
<g id="edge6_Node000004_Node000007" class="edge">
<title>Node4&#45;&gt;Node7</title>
<g id="a_edge6_Node000004_Node000007"><a xlink:title=" ">
<path fill="none" stroke="#63b8ff" d="M281.95,-19.95C264.5,-17.88 246.17,-15.7 230.79,-13.87"/>
<polygon fill="#63b8ff" stroke="#63b8ff" points="281.74,-23.45 292.09,-21.15 282.57,-16.5 281.74,-23.45"/>
</a>
</g>
</g>
<!-- Node6 -->
<g id="Node000006" class="node">
<title>Node6</title>
<g id="a_Node000006"><a xlink:href="namespacedetail.html#ab942eb62e7f1fe77ca1521e437743275" target="_top" xlink:title=" ">
<polygon fill="white" stroke="#666666" points="102,-56 0,-56 0,-37 102,-37 102,-56"/>
<text text-anchor="middle" x="51" y="-44" font-family="Helvetica,sans-Serif" font-size="10.00">detail::write_float</text>
</a>
</g>
</g>
<!-- Node5&#45;&gt;Node6 -->
<g id="edge5_Node000005_Node000006" class="edge">
<title>Node5&#45;&gt;Node6</title>
<g id="a_edge5_Node000005_Node000006"><a xlink:title=" ">
<path fill="none" stroke="#63b8ff" d="M127.61,-46.5C119.12,-46.5 110.52,-46.5 102.31,-46.5"/>
<polygon fill="#63b8ff" stroke="#63b8ff" points="127.87,-50 137.87,-46.5 127.87,-43 127.87,-50"/>
</a>
</g>
</g>
</g>
</svg>
