<?xml version="1.0" encoding="UTF-8" standalone="no"?>
<!DOCTYPE svg PUBLIC "-//W3C//DTD SVG 1.1//EN"
 "http://www.w3.org/Graphics/SVG/1.1/DTD/svg11.dtd">
<!-- Generated by graphviz version 2.43.0 (0)
 -->
<!-- Title: utf8::internal::validate_next Pages: 1 -->
<!--zoomable 326 -->

<svg id="main" version="1.1" xmlns="http://www.w3.org/2000/svg" xmlns:xlink="http://www.w3.org/1999/xlink" xml:space="preserve" onload="init(evt)">
<style type="text/css"><![CDATA[
.node, .edge {opacity: 0.7;}
.node.selected, .edge.selected {opacity: 1;}
.edge:hover path { stroke: red; }
.edge:hover polygon { stroke: red; fill: red; }
]]></style>

<defs>
  <circle id="rim" cx="0" cy="0" r="7"/>
  <circle id="rim2" cx="0" cy="0" r="3.5"/>
  <g id="zoomPlus">
    <use xlink:href="#rim" fill="#404040"><set attributeName="fill" to="#808080" begin="zoomplus.mouseover" end="zoomplus.mouseout"/></use>
    <path d="M-4,0h8M0,-4v8" fill="none" stroke="white" stroke-width="1.5" pointer-events="none"/>
  </g>
  <g id="zoomMin">
    <use xlink:href="#rim" fill="#404040"><set attributeName="fill" to="#808080" begin="zoomminus.mouseover" end="zoomminus.mouseout"/></use>
    <path d="M-4,0h8" fill="none" stroke="white" stroke-width="1.5" pointer-events="none"/>
  </g>
  <g id="arrowUp" transform="translate(30 24)">
    <use xlink:href="#rim"/>
    <path pointer-events="none" fill="none" stroke="white" stroke-width="1.5" d="M0,-3.0v7 M-2.5,-0.5L0,-3.0L2.5,-0.5"/>
  </g>
  <g id="arrowRight" transform="rotate(90) translate(36 -43)">
    <use xlink:href="#rim"/>
    <path pointer-events="none" fill="none" stroke="white" stroke-width="1.5" d="M0,-3.0v7 M-2.5,-0.5L0,-3.0L2.5,-0.5"/>
  </g>
  <g id="arrowDown" transform="rotate(180) translate(-30 -48)">
    <use xlink:href="#rim"/>
    <path pointer-events="none" fill="none" stroke="white" stroke-width="1.5" d="M0,-3.0v7 M-2.5,-0.5L0,-3.0L2.5,-0.5"/>
  </g>
  <g id="arrowLeft" transform="rotate(270) translate(-36 17)">
    <use xlink:href="#rim"/>
    <path pointer-events="none" fill="none" stroke="white" stroke-width="1.5" d="M0,-3.0v7 M-2.5,-0.5L0,-3.0L2.5,-0.5"/>
  </g>
  <g id="resetDef">
    <use xlink:href="#rim2" fill="#404040"><set attributeName="fill" to="#808080" begin="reset.mouseover" end="reset.mouseout"/></use>
  </g>
</defs>
<script type="application/ecmascript">
var viewWidth = 671;
var viewHeight = 326;
var sectionId = 'dynsection-21';
</script>
<script type="application/ecmascript" xlink:href="svg.min.js"/>
<svg id="graph" class="graph">
<g id="viewport">
<title>utf8::internal::validate_next</title>
<!-- Node1 -->
<g id="Node000001" class="node">
<title>Node1</title>
<g id="a_Node000001"><a xlink:title=" ">
<polygon fill="#999999" stroke="#666666" points="152,-168.5 0,-168.5 0,-149.5 152,-149.5 152,-168.5"/>
<text text-anchor="middle" x="76" y="-156.5" font-family="Helvetica,sans-Serif" font-size="10.00">utf8::internal::validate_next</text>
</a>
</g>
</g>
<!-- Node2 -->
<g id="Node000002" class="node">
<title>Node2</title>
<g id="a_Node000002"><a xlink:href="namespaceutf8_1_1internal.html#abe95547575fcc81911e381df03f8ebfe" target="_top" xlink:title=" ">
<polygon fill="white" stroke="#666666" points="340,-168.5 188,-168.5 188,-149.5 340,-149.5 340,-168.5"/>
<text text-anchor="middle" x="264" y="-156.5" font-family="Helvetica,sans-Serif" font-size="10.00">utf8::internal::validate_next</text>
</a>
</g>
</g>
<!-- Node1&#45;&gt;Node2 -->
<g id="edge1_Node000001_Node000002" class="edge">
<title>Node1&#45;&gt;Node2</title>
<g id="a_edge1_Node000001_Node000002"><a xlink:title=" ">
<path fill="none" stroke="#63b8ff" d="M152.12,-159C160.6,-159 169.28,-159 177.87,-159"/>
<polygon fill="#63b8ff" stroke="#63b8ff" points="177.9,-162.5 187.9,-159 177.9,-155.5 177.9,-162.5"/>
</a>
</g>
</g>
<!-- Node3 -->
<g id="Node000003" class="node">
<title>Node3</title>
<g id="a_Node000003"><a xlink:href="namespaceutf8_1_1internal.html#a6e5df73716136aec55e8fcf3309038b6" target="_top" xlink:title="get_sequence_x functions decode utf&#45;8 sequences of the length x">
<polygon fill="white" stroke="#666666" points="492.5,-222 391.5,-222 391.5,-192 492.5,-192 492.5,-222"/>
<text text-anchor="start" x="399.5" y="-210" font-family="Helvetica,sans-Serif" font-size="10.00">utf8::internal::get</text>
<text text-anchor="middle" x="442" y="-199" font-family="Helvetica,sans-Serif" font-size="10.00">_sequence_1</text>
</a>
</g>
</g>
<!-- Node2&#45;&gt;Node3 -->
<g id="edge2_Node000002_Node000003" class="edge">
<title>Node2&#45;&gt;Node3</title>
<g id="a_edge2_Node000002_Node000003"><a xlink:title=" ">
<path fill="none" stroke="#63b8ff" d="M300.19,-168.6C323.42,-174.93 354.44,-183.39 381.45,-190.76"/>
<polygon fill="#63b8ff" stroke="#63b8ff" points="380.63,-194.16 391.2,-193.42 382.47,-187.41 380.63,-194.16"/>
</a>
</g>
</g>
<!-- Node5 -->
<g id="Node000005" class="node">
<title>Node5</title>
<g id="a_Node000005"><a xlink:href="namespaceutf8_1_1internal.html#a9d641b9546be985f9f0fd4955ac42a24" target="_top" xlink:title=" ">
<polygon fill="white" stroke="#666666" points="492.5,-174 391.5,-174 391.5,-144 492.5,-144 492.5,-174"/>
<text text-anchor="start" x="399.5" y="-162" font-family="Helvetica,sans-Serif" font-size="10.00">utf8::internal::get</text>
<text text-anchor="middle" x="442" y="-151" font-family="Helvetica,sans-Serif" font-size="10.00">_sequence_2</text>
</a>
</g>
</g>
<!-- Node2&#45;&gt;Node5 -->
<g id="edge4_Node000002_Node000005" class="edge">
<title>Node2&#45;&gt;Node5</title>
<g id="a_edge4_Node000002_Node000005"><a xlink:title=" ">
<path fill="none" stroke="#63b8ff" d="M340.15,-159C353.79,-159 367.85,-159 380.98,-159"/>
<polygon fill="#63b8ff" stroke="#63b8ff" points="381.29,-162.5 391.29,-159 381.29,-155.5 381.29,-162.5"/>
</a>
</g>
</g>
<!-- Node6 -->
<g id="Node000006" class="node">
<title>Node6</title>
<g id="a_Node000006"><a xlink:href="namespaceutf8_1_1internal.html#ac1809a1fb3fa6983d64a0d3a39646008" target="_top" xlink:title=" ">
<polygon fill="white" stroke="#666666" points="492.5,-126 391.5,-126 391.5,-96 492.5,-96 492.5,-126"/>
<text text-anchor="start" x="399.5" y="-114" font-family="Helvetica,sans-Serif" font-size="10.00">utf8::internal::get</text>
<text text-anchor="middle" x="442" y="-103" font-family="Helvetica,sans-Serif" font-size="10.00">_sequence_3</text>
</a>
</g>
</g>
<!-- Node2&#45;&gt;Node6 -->
<g id="edge6_Node000002_Node000006" class="edge">
<title>Node2&#45;&gt;Node6</title>
<g id="a_edge6_Node000002_Node000006"><a xlink:title=" ">
<path fill="none" stroke="#63b8ff" d="M300.19,-149.4C323.42,-143.07 354.44,-134.61 381.45,-127.24"/>
<polygon fill="#63b8ff" stroke="#63b8ff" points="382.47,-130.59 391.2,-124.58 380.63,-123.84 382.47,-130.59"/>
</a>
</g>
</g>
<!-- Node7 -->
<g id="Node000007" class="node">
<title>Node7</title>
<g id="a_Node000007"><a xlink:href="namespaceutf8_1_1internal.html#ad1958e7c6746ba6b1fbb0d81b88b346c" target="_top" xlink:title=" ">
<polygon fill="white" stroke="#666666" points="492.5,-318 391.5,-318 391.5,-288 492.5,-288 492.5,-318"/>
<text text-anchor="start" x="399.5" y="-306" font-family="Helvetica,sans-Serif" font-size="10.00">utf8::internal::get</text>
<text text-anchor="middle" x="442" y="-295" font-family="Helvetica,sans-Serif" font-size="10.00">_sequence_4</text>
</a>
</g>
</g>
<!-- Node2&#45;&gt;Node7 -->
<g id="edge8_Node000002_Node000007" class="edge">
<title>Node2&#45;&gt;Node7</title>
<g id="a_edge8_Node000002_Node000007"><a xlink:title=" ">
<path fill="none" stroke="#63b8ff" d="M271.37,-168.51C286.78,-190.85 328.33,-247.15 376,-279 378.27,-280.51 380.64,-281.95 383.09,-283.3"/>
<polygon fill="#63b8ff" stroke="#63b8ff" points="381.68,-286.51 392.19,-287.88 384.82,-280.26 381.68,-286.51"/>
</a>
</g>
</g>
<!-- Node8 -->
<g id="Node000008" class="node">
<title>Node8</title>
<g id="a_Node000008"><a xlink:href="namespaceutf8_1_1internal.html#a97b553137aaeda6e8ca6f8d46f78fd79" target="_top" xlink:title=" ">
<polygon fill="white" stroke="#666666" points="494,-30 390,-30 390,0 494,0 494,-30"/>
<text text-anchor="start" x="398" y="-18" font-family="Helvetica,sans-Serif" font-size="10.00">utf8::internal::is</text>
<text text-anchor="middle" x="442" y="-7" font-family="Helvetica,sans-Serif" font-size="10.00">_code_point_valid</text>
</a>
</g>
</g>
<!-- Node2&#45;&gt;Node8 -->
<g id="edge10_Node000002_Node000008" class="edge">
<title>Node2&#45;&gt;Node8</title>
<g id="a_edge10_Node000002_Node000008"><a xlink:title=" ">
<path fill="none" stroke="#63b8ff" d="M271.37,-149.49C286.78,-127.15 328.33,-70.85 376,-39 378.27,-37.49 380.64,-36.05 383.09,-34.7"/>
<polygon fill="#63b8ff" stroke="#63b8ff" points="384.82,-37.74 392.19,-30.12 381.68,-31.49 384.82,-37.74"/>
</a>
</g>
</g>
<!-- Node10 -->
<g id="Node000010" class="node">
<title>Node10</title>
<g id="a_Node000010"><a xlink:href="namespaceutf8_1_1internal.html#a3160f6f24dff465f64f83cb0e66995c6" target="_top" xlink:title=" ">
<polygon fill="white" stroke="#666666" points="500,-78 384,-78 384,-48 500,-48 500,-78"/>
<text text-anchor="start" x="392" y="-66" font-family="Helvetica,sans-Serif" font-size="10.00">utf8::internal::is</text>
<text text-anchor="middle" x="442" y="-55" font-family="Helvetica,sans-Serif" font-size="10.00">_overlong_sequence</text>
</a>
</g>
</g>
<!-- Node2&#45;&gt;Node10 -->
<g id="edge12_Node000002_Node000010" class="edge">
<title>Node2&#45;&gt;Node10</title>
<g id="a_edge12_Node000002_Node000010"><a xlink:title=" ">
<path fill="none" stroke="#63b8ff" d="M277.76,-149.37C297.85,-134.53 338.42,-105.83 376,-87 379.47,-85.26 383.1,-83.58 386.79,-81.97"/>
<polygon fill="#63b8ff" stroke="#63b8ff" points="388.15,-85.19 396.04,-78.11 385.46,-78.73 388.15,-85.19"/>
</a>
</g>
</g>
<!-- Node11 -->
<g id="Node000011" class="node">
<title>Node11</title>
<g id="a_Node000011"><a xlink:href="namespaceutf8_1_1internal.html#adb347cc81d32ebb0fd22d849f7bff5ea" target="_top" xlink:title=" ">
<polygon fill="white" stroke="#666666" points="508,-270 376,-270 376,-240 508,-240 508,-270"/>
<text text-anchor="start" x="384" y="-258" font-family="Helvetica,sans-Serif" font-size="10.00">utf8::internal::sequence</text>
<text text-anchor="middle" x="442" y="-247" font-family="Helvetica,sans-Serif" font-size="10.00">_length</text>
</a>
</g>
</g>
<!-- Node2&#45;&gt;Node11 -->
<g id="edge13_Node000002_Node000011" class="edge">
<title>Node2&#45;&gt;Node11</title>
<g id="a_edge13_Node000002_Node000011"><a xlink:title=" ">
<path fill="none" stroke="#63b8ff" d="M277.76,-168.63C297.85,-183.47 338.42,-212.17 376,-231 379.47,-232.74 383.1,-234.42 386.79,-236.03"/>
<polygon fill="#63b8ff" stroke="#63b8ff" points="385.46,-239.27 396.04,-239.89 388.15,-232.81 385.46,-239.27"/>
</a>
</g>
</g>
<!-- Node4 -->
<g id="Node000004" class="node">
<title>Node4</title>
<g id="a_Node000004"><a xlink:href="namespaceutf8_1_1internal.html#adf6e0469e279b9562aa461b4c3c1e7e4" target="_top" xlink:title=" ">
<polygon fill="white" stroke="#666666" points="663,-216.5 544,-216.5 544,-197.5 663,-197.5 663,-216.5"/>
<text text-anchor="middle" x="603.5" y="-204.5" font-family="Helvetica,sans-Serif" font-size="10.00">utf8::internal::mask8</text>
</a>
</g>
</g>
<!-- Node3&#45;&gt;Node4 -->
<g id="edge3_Node000003_Node000004" class="edge">
<title>Node3&#45;&gt;Node4</title>
<g id="a_edge3_Node000003_Node000004"><a xlink:title=" ">
<path fill="none" stroke="#63b8ff" d="M492.59,-207C505.69,-207 520.06,-207 533.97,-207"/>
<polygon fill="#63b8ff" stroke="#63b8ff" points="533.99,-210.5 543.99,-207 533.99,-203.5 533.99,-210.5"/>
</a>
</g>
</g>
<!-- Node5&#45;&gt;Node4 -->
<g id="edge5_Node000005_Node000004" class="edge">
<title>Node5&#45;&gt;Node4</title>
<g id="a_edge5_Node000005_Node000004"><a xlink:title=" ">
<path fill="none" stroke="#63b8ff" d="M492.59,-173.92C514.44,-180.5 539.83,-188.14 560.7,-194.42"/>
<polygon fill="#63b8ff" stroke="#63b8ff" points="559.96,-197.85 570.54,-197.38 561.98,-191.15 559.96,-197.85"/>
</a>
</g>
</g>
<!-- Node6&#45;&gt;Node4 -->
<g id="edge7_Node000006_Node000004" class="edge">
<title>Node6&#45;&gt;Node4</title>
<g id="a_edge7_Node000006_Node000004"><a xlink:title=" ">
<path fill="none" stroke="#63b8ff" d="M489.22,-126.12C495.66,-128.78 502.1,-131.76 508,-135 536.84,-150.85 566.44,-174.91 584.65,-190.79"/>
<polygon fill="#63b8ff" stroke="#63b8ff" points="582.37,-193.44 592.17,-197.45 587.01,-188.2 582.37,-193.44"/>
</a>
</g>
</g>
<!-- Node7&#45;&gt;Node4 -->
<g id="edge9_Node000007_Node000004" class="edge">
<title>Node7&#45;&gt;Node4</title>
<g id="a_edge9_Node000007_Node000004"><a xlink:title=" ">
<path fill="none" stroke="#63b8ff" d="M489.22,-287.88C495.66,-285.22 502.1,-282.24 508,-279 536.84,-263.15 566.44,-239.09 584.65,-223.21"/>
<polygon fill="#63b8ff" stroke="#63b8ff" points="587.01,-225.8 592.17,-216.55 582.37,-220.56 587.01,-225.8"/>
</a>
</g>
</g>
<!-- Node9 -->
<g id="Node000009" class="node">
<title>Node9</title>
<g id="a_Node000009"><a xlink:href="namespaceutf8_1_1internal.html#a31a185a6bc8b9bf454191a8a95a93595" target="_top" xlink:title=" ">
<polygon fill="white" stroke="#666666" points="650.5,-30 556.5,-30 556.5,0 650.5,0 650.5,-30"/>
<text text-anchor="start" x="564.5" y="-18" font-family="Helvetica,sans-Serif" font-size="10.00">utf8::internal::is</text>
<text text-anchor="middle" x="603.5" y="-7" font-family="Helvetica,sans-Serif" font-size="10.00">_surrogate</text>
</a>
</g>
</g>
<!-- Node8&#45;&gt;Node9 -->
<g id="edge11_Node000008_Node000009" class="edge">
<title>Node8&#45;&gt;Node9</title>
<g id="a_edge11_Node000008_Node000009"><a xlink:title=" ">
<path fill="none" stroke="#63b8ff" d="M494.34,-15C510.86,-15 529.25,-15 546.11,-15"/>
<polygon fill="#63b8ff" stroke="#63b8ff" points="546.37,-18.5 556.37,-15 546.37,-11.5 546.37,-18.5"/>
</a>
</g>
</g>
<!-- Node11&#45;&gt;Node4 -->
<g id="edge14_Node000011_Node000004" class="edge">
<title>Node11&#45;&gt;Node4</title>
<g id="a_edge14_Node000011_Node000004"><a xlink:title=" ">
<path fill="none" stroke="#63b8ff" d="M493.03,-239.94C514.86,-233.38 540.15,-225.76 560.92,-219.51"/>
<polygon fill="#63b8ff" stroke="#63b8ff" points="562.15,-222.8 570.72,-216.56 560.13,-216.09 562.15,-222.8"/>
</a>
</g>
</g>
</g>
</svg>

<g id="navigator" transform="translate(0 0)" fill="#404254">
  <rect fill="#f2f5e9" fill-opacity="0.5" stroke="#606060" stroke-width=".5" x="0" y="0" width="60" height="60"/>
  <use id="zoomplus" xlink:href="#zoomPlus" x="17" y="9" onmousedown="handleZoom(evt,'in')"/>
  <use id="zoomminus" xlink:href="#zoomMin" x="42" y="9" onmousedown="handleZoom(evt,'out')"/>
  <use id="reset" xlink:href="#resetDef" x="30" y="36" onmousedown="handleReset()"/>
   <use id="arrowup" xlink:href="#arrowUp" x="0" y="0" onmousedown="handlePan(0,-1)"/>
  <use id="arrowright" xlink:href="#arrowRight" x="0" y="0" onmousedown="handlePan(1,0)"/>
  <use id="arrowdown" xlink:href="#arrowDown" x="0" y="0" onmousedown="handlePan(0,1)"/>
  <use id="arrowleft" xlink:href="#arrowLeft" x="0" y="0" onmousedown="handlePan(-1,0)"/>
</g>
<svg viewBox="0 0 15 15" width="100%" height="30px" preserveAspectRatio="xMaxYMin meet">
 <g id="arrow_out" transform="scale(0.3 0.3)">
  <a xlink:href="namespaceutf8_1_1internal_afd41668f94ce9f60f8e314d05804cecc_cgraph_org.svg" target="_base">
   <rect id="button" ry="5" rx="5" y="6" x="6" height="38" width="38"
        fill="#f2f5e9" fill-opacity="0.5" stroke="#606060" stroke-width="1.0"/>
   <path id="arrow"
     d="M 11.500037,31.436501 C 11.940474,20.09759 22.043105,11.32322 32.158766,21.979434 L 37.068811,17.246167 C 37.068811,17.246167 37.088388,32 37.088388,32 L 22.160133,31.978069 C 22.160133,31.978069 26.997745,27.140456 26.997745,27.140456 C 18.528582,18.264221 13.291696,25.230495 11.500037,31.436501 z"
     style="fill:#404040;"/>
  </a>
 </g>
</svg>

<style type='text/css'>
<![CDATA[
[data-mouse-over-selected='false'] { opacity: 0.7; }
[data-mouse-over-selected='true']  { opacity: 1.0; }
]]>
</style>
<script type="application/ecmascript"><![CDATA[
document.addEventListener('DOMContentLoaded', (event) => {
  highlightEdges();
  highlightAdjacentNodes();
});
]]></script>
</svg>
