<?xml version="1.0" encoding="UTF-8" standalone="no"?>
<!DOCTYPE svg PUBLIC "-//W3C//DTD SVG 1.1//EN"
 "http://www.w3.org/Graphics/SVG/1.1/DTD/svg11.dtd">
<!-- Generated by graphviz version 2.43.0 (0)
 -->
<!-- Title: performStableSlotSwap Pages: 1 -->
<svg width="664pt" height="76pt"
 viewBox="0.00 0.00 664.00 75.50" xmlns="http://www.w3.org/2000/svg" xmlns:xlink="http://www.w3.org/1999/xlink">
<g id="graph0" class="graph" transform="scale(1 1) rotate(0) translate(4 71.5)">
<title>performStableSlotSwap</title>
<!-- Node1 -->
<g id="Node000001" class="node">
<title>Node1</title>
<g id="a_Node000001"><a xlink:title=" ">
<polygon fill="#999999" stroke="#666666" points="656,-40 525,-40 525,-21 656,-21 656,-40"/>
<text text-anchor="middle" x="590.5" y="-28" font-family="Helvetica,sans-Serif" font-size="10.00">performStableSlotSwap</text>
</a>
</g>
</g>
<!-- Node2 -->
<g id="Node000002" class="node">
<title>Node2</title>
<g id="a_Node000002"><a xlink:href="classWorldSession.html#aba7b4aa809839e71b8135afc8171795d" target="_top" xlink:title=" ">
<polygon fill="white" stroke="#666666" points="475,-67.5 323,-67.5 323,-37.5 475,-37.5 475,-67.5"/>
<text text-anchor="start" x="331" y="-55.5" font-family="Helvetica,sans-Serif" font-size="10.00">WorldSession::handleStable</text>
<text text-anchor="middle" x="399" y="-44.5" font-family="Helvetica,sans-Serif" font-size="10.00">SwapPet</text>
</a>
</g>
</g>
<!-- Node1&#45;&gt;Node2 -->
<g id="edge1_Node000001_Node000002" class="edge">
<title>Node1&#45;&gt;Node2</title>
<g id="a_edge1_Node000001_Node000002"><a xlink:title=" ">
<path fill="none" stroke="#63b8ff" d="M514.56,-39.2C501.6,-40.7 488.13,-42.27 475.16,-43.77"/>
<polygon fill="#63b8ff" stroke="#63b8ff" points="515.29,-42.64 524.81,-38.01 514.48,-35.69 515.29,-42.64"/>
</a>
</g>
</g>
<!-- Node5 -->
<g id="Node000005" class="node">
<title>Node5</title>
<g id="a_Node000005"><a xlink:href="classWorldSession.html#a52793f2813d32d437047eab85ad78772" target="_top" xlink:title=" ">
<polygon fill="white" stroke="#666666" points="489,-19 309,-19 309,0 489,0 489,-19"/>
<text text-anchor="middle" x="399" y="-7" font-family="Helvetica,sans-Serif" font-size="10.00">WorldSession::handleUnstablePet</text>
</a>
</g>
</g>
<!-- Node1&#45;&gt;Node5 -->
<g id="edge4_Node000001_Node000005" class="edge">
<title>Node1&#45;&gt;Node5</title>
<g id="a_edge4_Node000001_Node000005"><a xlink:title=" ">
<path fill="none" stroke="#63b8ff" d="M514.67,-22.21C505.21,-21.16 495.46,-20.08 485.84,-19.01"/>
<polygon fill="#63b8ff" stroke="#63b8ff" points="514.49,-25.71 524.81,-23.33 515.26,-18.75 514.49,-25.71"/>
</a>
</g>
</g>
<!-- Node3 -->
<g id="Node000003" class="node">
<title>Node3</title>
<g id="a_Node000003"><a xlink:href="classWorldSession.html#a213cc2e7e497e0cddfde0a1460e4acd0" target="_top" xlink:title=" ">
<polygon fill="white" stroke="#666666" points="273,-45.5 111,-45.5 111,-15.5 273,-15.5 273,-45.5"/>
<text text-anchor="start" x="119" y="-33.5" font-family="Helvetica,sans-Serif" font-size="10.00">WorldSession::registerOpcode</text>
<text text-anchor="middle" x="192" y="-22.5" font-family="Helvetica,sans-Serif" font-size="10.00">Handler</text>
</a>
</g>
</g>
<!-- Node2&#45;&gt;Node3 -->
<g id="edge2_Node000002_Node000003" class="edge">
<title>Node2&#45;&gt;Node3</title>
<g id="a_edge2_Node000002_Node000003"><a xlink:title=" ">
<path fill="none" stroke="#63b8ff" d="M312.52,-43.33C299.54,-41.93 286.2,-40.5 273.33,-39.12"/>
<polygon fill="#63b8ff" stroke="#63b8ff" points="312.51,-46.85 322.83,-44.43 313.26,-39.89 312.51,-46.85"/>
</a>
</g>
</g>
<!-- Node4 -->
<g id="Node000004" class="node">
<title>Node4</title>
<g id="a_Node000004"><a xlink:href="classMaster.html#a12dde72f3398edffca613e77185fd6f3" target="_top" xlink:title=" ">
<polygon fill="white" stroke="#666666" points="75,-40 0,-40 0,-21 75,-21 75,-40"/>
<text text-anchor="middle" x="37.5" y="-28" font-family="Helvetica,sans-Serif" font-size="10.00">Master::Run</text>
</a>
</g>
</g>
<!-- Node3&#45;&gt;Node4 -->
<g id="edge3_Node000003_Node000004" class="edge">
<title>Node3&#45;&gt;Node4</title>
<g id="a_edge3_Node000003_Node000004"><a xlink:title=" ">
<path fill="none" stroke="#63b8ff" d="M100.55,-30.5C91.61,-30.5 82.94,-30.5 75.05,-30.5"/>
<polygon fill="#63b8ff" stroke="#63b8ff" points="100.73,-34 110.73,-30.5 100.73,-27 100.73,-34"/>
</a>
</g>
</g>
<!-- Node5&#45;&gt;Node3 -->
<g id="edge5_Node000005_Node000003" class="edge">
<title>Node5&#45;&gt;Node3</title>
<g id="a_edge5_Node000005_Node000003"><a xlink:title=" ">
<path fill="none" stroke="#63b8ff" d="M298.91,-19.65C290.3,-20.53 281.66,-21.42 273.24,-22.28"/>
<polygon fill="#63b8ff" stroke="#63b8ff" points="299.39,-23.12 308.98,-18.62 298.67,-16.16 299.39,-23.12"/>
</a>
</g>
</g>
</g>
</svg>
