<?xml version="1.0" encoding="UTF-8" standalone="no"?>
<!DOCTYPE svg PUBLIC "-//W3C//DTD SVG 1.1//EN"
 "http://www.w3.org/Graphics/SVG/1.1/DTD/svg11.dtd">
<!-- Generated by graphviz version 2.43.0 (0)
 -->
<!-- Title: pkcs_1_mgf1 Pages: 1 -->
<svg width="340pt" height="101pt"
 viewBox="0.00 0.00 340.00 101.00" xmlns="http://www.w3.org/2000/svg" xmlns:xlink="http://www.w3.org/1999/xlink">

<svg id="main" version="1.1" xmlns="http://www.w3.org/2000/svg" xmlns:xlink="http://www.w3.org/1999/xlink" xml:space="preserve" onload="init(evt)">
<style type="text/css"><![CDATA[
.node, .edge {opacity: 0.7;}
.node.selected, .edge.selected {opacity: 1;}
.edge:hover path { stroke: red; }
.edge:hover polygon { stroke: red; fill: red; }
]]></style>
<script type="application/ecmascript" xlink:href="svg.min.js"/>
<svg id="graph" class="graph">
<g id="graph0" class="graph" transform="scale(1 1) rotate(0) translate(4 97)">
<title>pkcs_1_mgf1</title>
<!-- Node1 -->
<g id="Node000001" class="node">
<title>Node1</title>
<g id="a_Node000001"><a xlink:title=" ">
<polygon fill="#999999" stroke="#666666" points="81,-56 0,-56 0,-37 81,-37 81,-56"/>
<text text-anchor="middle" x="40.5" y="-44" font-family="Helvetica,sans-Serif" font-size="10.00">pkcs_1_mgf1</text>
</a>
</g>
</g>
<!-- Node2 -->
<g id="Node000002" class="node">
<title>Node2</title>
<g id="a_Node000002"><a xlink:href="crypt__hash__is__valid_8c.html#a79647f22bf48bfa7de03fe5fc958c846" target="_top" xlink:title=" ">
<polygon fill="white" stroke="#666666" points="200,-93 117,-93 117,-74 200,-74 200,-93"/>
<text text-anchor="middle" x="158.5" y="-81" font-family="Helvetica,sans-Serif" font-size="10.00">hash_is_valid</text>
</a>
</g>
</g>
<!-- Node1&#45;&gt;Node2 -->
<g id="edge1_Node000001_Node000002" class="edge">
<title>Node1&#45;&gt;Node2</title>
<g id="a_edge1_Node000001_Node000002"><a xlink:title=" ">
<path fill="none" stroke="#63b8ff" d="M71.37,-56.03C85.47,-60.52 102.49,-65.95 117.67,-70.8"/>
<polygon fill="#63b8ff" stroke="#63b8ff" points="116.73,-74.17 127.33,-73.88 118.86,-67.5 116.73,-74.17"/>
</a>
</g>
</g>
<!-- Node3 -->
<g id="Node000003" class="node">
<title>Node3</title>
<g id="a_Node000003"><a xlink:href="ltm__desc_8c.html#a4f8948d7c94899bf8ddee4721114d593" target="_top" xlink:title=" ">
<polygon fill="white" stroke="#666666" points="174.5,-56 142.5,-56 142.5,-37 174.5,-37 174.5,-56"/>
<text text-anchor="middle" x="158.5" y="-44" font-family="Helvetica,sans-Serif" font-size="10.00">init</text>
</a>
</g>
</g>
<!-- Node1&#45;&gt;Node3 -->
<g id="edge2_Node000001_Node000003" class="edge">
<title>Node1&#45;&gt;Node3</title>
<g id="a_edge2_Node000001_Node000003"><a xlink:title=" ">
<path fill="none" stroke="#63b8ff" d="M81.1,-46.5C98.1,-46.5 117.46,-46.5 132.44,-46.5"/>
<polygon fill="#63b8ff" stroke="#63b8ff" points="132.48,-50 142.48,-46.5 132.48,-43 132.48,-50"/>
</a>
</g>
</g>
<!-- Node6 -->
<g id="Node000006" class="node">
<title>Node6</title>
<g id="a_Node000006"><a xlink:href="zeromem_8c.html#a0483782f64ee73fdf341e936c4eb0940" target="_top" xlink:title=" ">
<polygon fill="white" stroke="#666666" points="190,-19 127,-19 127,0 190,0 190,-19"/>
<text text-anchor="middle" x="158.5" y="-7" font-family="Helvetica,sans-Serif" font-size="10.00">zeromem</text>
</a>
</g>
</g>
<!-- Node1&#45;&gt;Node6 -->
<g id="edge5_Node000001_Node000006" class="edge">
<title>Node1&#45;&gt;Node6</title>
<g id="a_edge5_Node000001_Node000006"><a xlink:title=" ">
<path fill="none" stroke="#63b8ff" d="M71.37,-36.97C85.47,-32.48 102.49,-27.05 117.67,-22.2"/>
<polygon fill="#63b8ff" stroke="#63b8ff" points="118.86,-25.5 127.33,-19.12 116.73,-18.83 118.86,-25.5"/>
</a>
</g>
</g>
<!-- Node4 -->
<g id="Node000004" class="node">
<title>Node4</title>
<g id="a_Node000004"><a xlink:href="bn__mp__init_8c.html#af40a43523654299f5178fb2d2d0c2211" target="_top" xlink:title=" ">
<polygon fill="white" stroke="#666666" points="310.5,-74 257.5,-74 257.5,-55 310.5,-55 310.5,-74"/>
<text text-anchor="middle" x="284" y="-62" font-family="Helvetica,sans-Serif" font-size="10.00">mp_init</text>
</a>
</g>
</g>
<!-- Node3&#45;&gt;Node4 -->
<g id="edge3_Node000003_Node000004" class="edge">
<title>Node3&#45;&gt;Node4</title>
<g id="a_edge3_Node000003_Node000004"><a xlink:title=" ">
<path fill="none" stroke="#63b8ff" d="M174.64,-48.71C192.6,-51.32 223.12,-55.77 247.2,-59.28"/>
<polygon fill="#63b8ff" stroke="#63b8ff" points="247.01,-62.79 257.41,-60.77 248.02,-55.86 247.01,-62.79"/>
</a>
</g>
</g>
<!-- Node5 -->
<g id="Node000005" class="node">
<title>Node5</title>
<g id="a_Node000005"><a xlink:href="ltm__desc_8c.html#abc21dd3358332c6bcdd2ec873ab5c5a6" target="_top" xlink:title=" ">
<polygon fill="white" stroke="#666666" points="332,-37 236,-37 236,-18 332,-18 332,-37"/>
<text text-anchor="middle" x="284" y="-25" font-family="Helvetica,sans-Serif" font-size="10.00">mpi_to_ltc_error</text>
</a>
</g>
</g>
<!-- Node3&#45;&gt;Node5 -->
<g id="edge4_Node000003_Node000005" class="edge">
<title>Node3&#45;&gt;Node5</title>
<g id="a_edge4_Node000003_Node000005"><a xlink:title=" ">
<path fill="none" stroke="#63b8ff" d="M174.64,-44.17C187.53,-42.19 206.89,-39.21 225.69,-36.32"/>
<polygon fill="#63b8ff" stroke="#63b8ff" points="226.39,-39.75 235.74,-34.77 225.32,-32.83 226.39,-39.75"/>
</a>
</g>
</g>
</g>
</svg>
</svg>

<style type='text/css'>
<![CDATA[
[data-mouse-over-selected='false'] { opacity: 0.7; }
[data-mouse-over-selected='true']  { opacity: 1.0; }
]]>
</style>
<script type="application/ecmascript"><![CDATA[
document.addEventListener('DOMContentLoaded', (event) => {
  highlightEdges();
  highlightAdjacentNodes();
});
]]></script>
</svg>
