<?xml version="1.0" encoding="UTF-8" standalone="no"?>
<!DOCTYPE svg PUBLIC "-//W3C//DTD SVG 1.1//EN"
 "http://www.w3.org/Graphics/SVG/1.1/DTD/svg11.dtd">
<!-- Generated by graphviz version 2.43.0 (0)
 -->
<!-- Title: rcMin Pages: 1 -->
<!--zoomable 501 -->

<svg id="main" version="1.1" xmlns="http://www.w3.org/2000/svg" xmlns:xlink="http://www.w3.org/1999/xlink" xml:space="preserve" onload="init(evt)">
<style type="text/css"><![CDATA[
.node, .edge {opacity: 0.7;}
.node.selected, .edge.selected {opacity: 1;}
.edge:hover path { stroke: red; }
.edge:hover polygon { stroke: red; fill: red; }
]]></style>

<defs>
  <circle id="rim" cx="0" cy="0" r="7"/>
  <circle id="rim2" cx="0" cy="0" r="3.5"/>
  <g id="zoomPlus">
    <use xlink:href="#rim" fill="#404040"><set attributeName="fill" to="#808080" begin="zoomplus.mouseover" end="zoomplus.mouseout"/></use>
    <path d="M-4,0h8M0,-4v8" fill="none" stroke="white" stroke-width="1.5" pointer-events="none"/>
  </g>
  <g id="zoomMin">
    <use xlink:href="#rim" fill="#404040"><set attributeName="fill" to="#808080" begin="zoomminus.mouseover" end="zoomminus.mouseout"/></use>
    <path d="M-4,0h8" fill="none" stroke="white" stroke-width="1.5" pointer-events="none"/>
  </g>
  <g id="arrowUp" transform="translate(30 24)">
    <use xlink:href="#rim"/>
    <path pointer-events="none" fill="none" stroke="white" stroke-width="1.5" d="M0,-3.0v7 M-2.5,-0.5L0,-3.0L2.5,-0.5"/>
  </g>
  <g id="arrowRight" transform="rotate(90) translate(36 -43)">
    <use xlink:href="#rim"/>
    <path pointer-events="none" fill="none" stroke="white" stroke-width="1.5" d="M0,-3.0v7 M-2.5,-0.5L0,-3.0L2.5,-0.5"/>
  </g>
  <g id="arrowDown" transform="rotate(180) translate(-30 -48)">
    <use xlink:href="#rim"/>
    <path pointer-events="none" fill="none" stroke="white" stroke-width="1.5" d="M0,-3.0v7 M-2.5,-0.5L0,-3.0L2.5,-0.5"/>
  </g>
  <g id="arrowLeft" transform="rotate(270) translate(-36 17)">
    <use xlink:href="#rim"/>
    <path pointer-events="none" fill="none" stroke="white" stroke-width="1.5" d="M0,-3.0v7 M-2.5,-0.5L0,-3.0L2.5,-0.5"/>
  </g>
  <g id="resetDef">
    <use xlink:href="#rim2" fill="#404040"><set attributeName="fill" to="#808080" begin="reset.mouseover" end="reset.mouseout"/></use>
  </g>
</defs>
<script type="application/ecmascript">
var viewWidth = 1714;
var viewHeight = 501;
var sectionId = 'dynsection-66';
</script>
<script type="application/ecmascript" xlink:href="svg.min.js"/>
<svg id="graph" class="graph">
<g id="viewport">
<title>rcMin</title>
<!-- Node1 -->
<g id="Node000001" class="node">
<title>Node1</title>
<g id="a_Node000001"><a xlink:title=" ">
<polygon fill="#999999" stroke="#666666" points="1706,-265.28 1662,-265.28 1662,-246.28 1706,-246.28 1706,-265.28"/>
<text text-anchor="middle" x="1684" y="-253.28" font-family="Helvetica,sans-Serif" font-size="10.00">rcMin</text>
</a>
</g>
</g>
<!-- Node2 -->
<g id="Node000002" class="node">
<title>Node2</title>
<g id="a_Node000002"><a xlink:href="RecastMeshDetail_8cpp.html#a185eb97e9f8ab6642bea84844254a56b" target="_top" xlink:title=" ">
<polygon fill="white" stroke="#666666" points="1580,-115.28 1514,-115.28 1514,-96.28 1580,-96.28 1580,-115.28"/>
<text text-anchor="middle" x="1547" y="-103.28" font-family="Helvetica,sans-Serif" font-size="10.00">distToPoly</text>
</a>
</g>
</g>
<!-- Node1&#45;&gt;Node2 -->
<g id="edge1_Node000001_Node000002" class="edge">
<title>Node1&#45;&gt;Node2</title>
<g id="a_edge1_Node000001_Node000002"><a xlink:title=" ">
<path fill="none" stroke="#63b8ff" d="M1680.03,-236.07C1674.61,-207.19 1660.34,-153.68 1626,-124.78 1613.31,-114.1 1595.56,-109.24 1580.2,-107.1"/>
<polygon fill="#63b8ff" stroke="#63b8ff" points="1676.62,-236.88 1681.75,-246.15 1683.52,-235.71 1676.62,-236.88"/>
</a>
</g>
</g>
<!-- Node4 -->
<g id="Node000004" class="node">
<title>Node4</title>
<g id="a_Node000004"><a xlink:href="RecastMeshDetail_8cpp.html#abdf6b580a66cc9d47f96713dfab81e62" target="_top" xlink:title=" ">
<polygon fill="white" stroke="#666666" points="1249,-76.28 1122,-76.28 1122,-57.28 1249,-57.28 1249,-76.28"/>
<text text-anchor="middle" x="1185.5" y="-64.28" font-family="Helvetica,sans-Serif" font-size="10.00">rcBuildPolyMeshDetail</text>
</a>
</g>
</g>
<!-- Node1&#45;&gt;Node4 -->
<g id="edge30_Node000001_Node000004" class="edge">
<title>Node1&#45;&gt;Node4</title>
<g id="a_edge30_Node000001_Node000004"><a xlink:title=" ">
<path fill="none" stroke="#63b8ff" d="M1680.57,-235.96C1674.32,-188.75 1656.07,-71.81 1626,-48.78 1496.56,50.36 1277.34,-28.38 1208.12,-57.26"/>
<polygon fill="#63b8ff" stroke="#63b8ff" points="1677.13,-236.65 1681.87,-246.13 1684.07,-235.77 1677.13,-236.65"/>
</a>
</g>
</g>
<!-- Node13 -->
<g id="Node000013" class="node">
<title>Node13</title>
<g id="a_Node000013"><a xlink:href="RecastRegion_8cpp.html#a25912e8836b3489f54fecd65d850beff" target="_top" xlink:title=" ">
<polygon fill="white" stroke="#666666" points="1626,-493.28 1468,-493.28 1468,-474.28 1626,-474.28 1626,-493.28"/>
<text text-anchor="middle" x="1547" y="-481.28" font-family="Helvetica,sans-Serif" font-size="10.00">mergeAndFilterLayerRegions</text>
</a>
</g>
</g>
<!-- Node1&#45;&gt;Node13 -->
<g id="edge16_Node000001_Node000013" class="edge">
<title>Node1&#45;&gt;Node13</title>
<g id="a_edge16_Node000001_Node000013"><a xlink:title=" ">
<path fill="none" stroke="#63b8ff" d="M1683.36,-275.57C1683,-315.9 1676.32,-408.13 1626,-459.78 1619.87,-466.07 1612.13,-470.72 1603.93,-474.16"/>
<polygon fill="#63b8ff" stroke="#63b8ff" points="1686.86,-275.43 1683.33,-265.44 1679.86,-275.46 1686.86,-275.43"/>
</a>
</g>
</g>
<!-- Node14 -->
<g id="Node000014" class="node">
<title>Node14</title>
<g id="a_Node000014"><a xlink:href="RecastRegion_8cpp.html#a1a29a95eba7d16654f2834d517f81c57" target="_top" xlink:title=" ">
<polygon fill="white" stroke="#666666" points="1416.5,-474.28 1300.5,-474.28 1300.5,-455.28 1416.5,-455.28 1416.5,-474.28"/>
<text text-anchor="middle" x="1358.5" y="-462.28" font-family="Helvetica,sans-Serif" font-size="10.00">rcBuildLayerRegions</text>
</a>
</g>
</g>
<!-- Node1&#45;&gt;Node14 -->
<g id="edge29_Node000001_Node000014" class="edge">
<title>Node1&#45;&gt;Node14</title>
<g id="a_edge29_Node000001_Node000014"><a xlink:title=" ">
<path fill="none" stroke="#63b8ff" d="M1682.24,-275.59C1679.76,-310.34 1669.37,-382.05 1626,-418.78 1595.19,-444.87 1485.48,-456.67 1416.8,-461.6"/>
<polygon fill="#63b8ff" stroke="#63b8ff" points="1685.75,-275.51 1682.81,-265.33 1678.76,-275.12 1685.75,-275.51"/>
</a>
</g>
</g>
<!-- Node15 -->
<g id="Node000015" class="node">
<title>Node15</title>
<g id="a_Node000015"><a xlink:href="RecastMeshDetail_8cpp.html#a43a5a2bbda38a829d1266337e19c4a6f" target="_top" xlink:title=" ">
<polygon fill="white" stroke="#666666" points="1590.5,-77.28 1503.5,-77.28 1503.5,-58.28 1590.5,-58.28 1590.5,-77.28"/>
<text text-anchor="middle" x="1547" y="-65.28" font-family="Helvetica,sans-Serif" font-size="10.00">polyMinExtent</text>
</a>
</g>
</g>
<!-- Node1&#45;&gt;Node15 -->
<g id="edge18_Node000001_Node000015" class="edge">
<title>Node1&#45;&gt;Node15</title>
<g id="a_edge18_Node000001_Node000015"><a xlink:title=" ">
<path fill="none" stroke="#63b8ff" d="M1682.25,-236.02C1679.8,-200.68 1669.45,-126.63 1626,-86.78 1616.34,-77.92 1603.26,-73.01 1590.57,-70.34"/>
<polygon fill="#63b8ff" stroke="#63b8ff" points="1678.76,-236.25 1682.8,-246.04 1685.75,-235.87 1678.76,-236.25"/>
</a>
</g>
</g>
<!-- Node16 -->
<g id="Node000016" class="node">
<title>Node16</title>
<g id="a_Node000016"><a xlink:href="RecastRasterization_8cpp.html#a8b7561b6e9315be79207708ac855f4c2" target="_top" xlink:title=" ">
<polygon fill="white" stroke="#666666" points="1394,-303.28 1323,-303.28 1323,-284.28 1394,-284.28 1394,-303.28"/>
<text text-anchor="middle" x="1358.5" y="-291.28" font-family="Helvetica,sans-Serif" font-size="10.00">rasterizeTri</text>
</a>
</g>
</g>
<!-- Node1&#45;&gt;Node16 -->
<g id="edge20_Node000001_Node000016" class="edge">
<title>Node1&#45;&gt;Node16</title>
<g id="a_edge20_Node000001_Node000016"><a xlink:title=" ">
<path fill="none" stroke="#63b8ff" d="M1652.15,-266.95C1643.77,-269.59 1634.62,-272.12 1626,-273.78 1543.99,-289.58 1445.56,-293.05 1394.33,-293.72"/>
<polygon fill="#63b8ff" stroke="#63b8ff" points="1653.52,-270.18 1661.92,-263.72 1651.32,-263.53 1653.52,-270.18"/>
</a>
</g>
</g>
<!-- Node21 -->
<g id="Node000021" class="node">
<title>Node21</title>
<g id="a_Node000021"><a xlink:href="Recast_8cpp.html#a9833a6aa767f7f8ceecc8c929c56ca83" target="_top" xlink:title=" ">
<polygon fill="white" stroke="#666666" points="1432,-432.28 1285,-432.28 1285,-413.28 1432,-413.28 1432,-432.28"/>
<text text-anchor="middle" x="1358.5" y="-420.28" font-family="Helvetica,sans-Serif" font-size="10.00">rcBuildCompactHeightfield</text>
</a>
</g>
</g>
<!-- Node1&#45;&gt;Node21 -->
<g id="edge26_Node000001_Node000021" class="edge">
<title>Node1&#45;&gt;Node21</title>
<g id="a_edge26_Node000001_Node000021"><a xlink:title=" ">
<path fill="none" stroke="#63b8ff" d="M1679.82,-275.58C1674.23,-303.55 1659.82,-354.07 1626,-379.78 1570.78,-421.75 1490.34,-429.57 1432.29,-428.69"/>
<polygon fill="#63b8ff" stroke="#63b8ff" points="1683.32,-275.89 1681.66,-265.43 1676.44,-274.64 1683.32,-275.89"/>
</a>
</g>
</g>
<!-- Node22 -->
<g id="Node000022" class="node">
<title>Node22</title>
<g id="a_Node000022"><a xlink:href="RecastLayers_8cpp.html#acc58a20e570a6b536967015655f06dba" target="_top" xlink:title=" ">
<polygon fill="white" stroke="#666666" points="1615,-228.28 1479,-228.28 1479,-209.28 1615,-209.28 1615,-228.28"/>
<text text-anchor="middle" x="1547" y="-216.28" font-family="Helvetica,sans-Serif" font-size="10.00">rcBuildHeightfieldLayers</text>
</a>
</g>
</g>
<!-- Node1&#45;&gt;Node22 -->
<g id="edge28_Node000001_Node000022" class="edge">
<title>Node1&#45;&gt;Node22</title>
<g id="a_edge28_Node000001_Node000022"><a xlink:title=" ">
<path fill="none" stroke="#63b8ff" d="M1652.26,-244.94C1643.8,-242.12 1634.59,-239.2 1626,-236.78 1615.3,-233.77 1603.67,-230.88 1592.73,-228.33"/>
<polygon fill="#63b8ff" stroke="#63b8ff" points="1651.17,-248.27 1661.77,-248.17 1653.42,-241.64 1651.17,-248.27"/>
</a>
</g>
</g>
<!-- Node23 -->
<g id="Node000023" class="node">
<title>Node23</title>
<g id="a_Node000023"><a xlink:href="RecastRegion_8cpp.html#abd57817e13cb07edb8168d8d2b1be5a5" target="_top" xlink:title=" ">
<polygon fill="white" stroke="#666666" points="1403,-385.28 1314,-385.28 1314,-366.28 1403,-366.28 1403,-385.28"/>
<text text-anchor="middle" x="1358.5" y="-373.28" font-family="Helvetica,sans-Serif" font-size="10.00">rcBuildRegions</text>
</a>
</g>
</g>
<!-- Node1&#45;&gt;Node23 -->
<g id="edge31_Node000001_Node000023" class="edge">
<title>Node1&#45;&gt;Node23</title>
<g id="a_edge31_Node000001_Node000023"><a xlink:title=" ">
<path fill="none" stroke="#63b8ff" d="M1676.59,-274.98C1668.43,-296.16 1652.15,-329.41 1626,-345.78 1557.52,-388.63 1459.45,-387.18 1403.36,-381.79"/>
<polygon fill="#63b8ff" stroke="#63b8ff" points="1679.94,-276.01 1680.04,-265.42 1673.35,-273.63 1679.94,-276.01"/>
</a>
</g>
</g>
<!-- Node24 -->
<g id="Node000024" class="node">
<title>Node24</title>
<g id="a_Node000024"><a xlink:href="RecastRegion_8cpp.html#ae20320dae183d2e42addb42cced9cc8a" target="_top" xlink:title=" ">
<polygon fill="white" stroke="#666666" points="1616,-153.28 1478,-153.28 1478,-134.28 1616,-134.28 1616,-153.28"/>
<text text-anchor="middle" x="1547" y="-141.28" font-family="Helvetica,sans-Serif" font-size="10.00">rcBuildRegionsMonotone</text>
</a>
</g>
</g>
<!-- Node1&#45;&gt;Node24 -->
<g id="edge33_Node000001_Node000024" class="edge">
<title>Node1&#45;&gt;Node24</title>
<g id="a_edge33_Node000001_Node000024"><a xlink:title=" ">
<path fill="none" stroke="#63b8ff" d="M1676.57,-236.59C1668.33,-215.01 1651.91,-180.52 1626,-161.78 1621.27,-158.36 1615.99,-155.58 1610.48,-153.31"/>
<polygon fill="#63b8ff" stroke="#63b8ff" points="1673.29,-237.8 1679.97,-246.03 1679.87,-235.43 1673.29,-237.8"/>
</a>
</g>
</g>
<!-- Node25 -->
<g id="Node000025" class="node">
<title>Node25</title>
<g id="a_Node000025"><a xlink:href="RecastArea_8cpp.html#a466672bb756c401fbf6dd1e99c920ebb" target="_top" xlink:title=" ">
<polygon fill="white" stroke="#666666" points="1245.5,-414.28 1125.5,-414.28 1125.5,-395.28 1245.5,-395.28 1245.5,-414.28"/>
<text text-anchor="middle" x="1185.5" y="-402.28" font-family="Helvetica,sans-Serif" font-size="10.00">rcErodeWalkableArea</text>
</a>
</g>
</g>
<!-- Node1&#45;&gt;Node25 -->
<g id="edge34_Node000001_Node000025" class="edge">
<title>Node1&#45;&gt;Node25</title>
<g id="a_edge34_Node000001_Node000025"><a xlink:title=" ">
<path fill="none" stroke="#63b8ff" d="M1664.84,-272.09C1654.24,-280.75 1640.18,-290.8 1626,-296.78 1484.2,-356.54 1425.12,-293.17 1285,-356.78 1266.29,-365.27 1267.16,-376.17 1249,-385.78 1241.88,-389.54 1233.91,-392.68 1226.09,-395.25"/>
<polygon fill="#63b8ff" stroke="#63b8ff" points="1667.19,-274.7 1672.55,-265.56 1662.66,-269.36 1667.19,-274.7"/>
</a>
</g>
</g>
<!-- Node26 -->
<g id="Node000026" class="node">
<title>Node26</title>
<g id="a_Node000026"><a xlink:href="RecastFilter_8cpp.html#a655160ad0aa9425305d0bdb69ede3f37" target="_top" xlink:title=" ">
<polygon fill="white" stroke="#666666" points="1601.5,-265.28 1492.5,-265.28 1492.5,-246.28 1601.5,-246.28 1601.5,-265.28"/>
<text text-anchor="middle" x="1547" y="-253.28" font-family="Helvetica,sans-Serif" font-size="10.00">rcFilterLedgeSpans</text>
</a>
</g>
</g>
<!-- Node1&#45;&gt;Node26 -->
<g id="edge36_Node000001_Node000026" class="edge">
<title>Node1&#45;&gt;Node26</title>
<g id="a_edge36_Node000001_Node000026"><a xlink:title=" ">
<path fill="none" stroke="#63b8ff" d="M1651.71,-255.78C1636.81,-255.78 1618.56,-255.78 1601.55,-255.78"/>
<polygon fill="#63b8ff" stroke="#63b8ff" points="1651.91,-259.28 1661.91,-255.78 1651.91,-252.28 1651.91,-259.28"/>
</a>
</g>
</g>
<!-- Node27 -->
<g id="Node000027" class="node">
<title>Node27</title>
<g id="a_Node000027"><a xlink:href="Recast_8h.html#ab49a84d90945782df879b0c7e84239db" target="_top" xlink:title=" ">
<polygon fill="white" stroke="#666666" points="1572.5,-190.28 1521.5,-190.28 1521.5,-171.28 1572.5,-171.28 1572.5,-190.28"/>
<text text-anchor="middle" x="1547" y="-178.28" font-family="Helvetica,sans-Serif" font-size="10.00">rcVmin</text>
</a>
</g>
</g>
<!-- Node1&#45;&gt;Node27 -->
<g id="edge38_Node000001_Node000027" class="edge">
<title>Node1&#45;&gt;Node27</title>
<g id="a_edge38_Node000001_Node000027"><a xlink:title=" ">
<path fill="none" stroke="#63b8ff" d="M1669.62,-238.32C1659.09,-225.77 1643.34,-209.42 1626,-199.78 1609.56,-190.63 1588.77,-185.85 1572.78,-183.37"/>
<polygon fill="#63b8ff" stroke="#63b8ff" points="1667.03,-240.68 1676.03,-246.27 1672.48,-236.29 1667.03,-240.68"/>
</a>
</g>
</g>
<!-- Node3 -->
<g id="Node000003" class="node">
<title>Node3</title>
<g id="a_Node000003"><a xlink:href="RecastMeshDetail_8cpp.html#a71ca10a7c35e12de63aebe7f7cba59b0" target="_top" xlink:title=" ">
<polygon fill="white" stroke="#666666" points="1404,-76.28 1313,-76.28 1313,-57.28 1404,-57.28 1404,-76.28"/>
<text text-anchor="middle" x="1358.5" y="-64.28" font-family="Helvetica,sans-Serif" font-size="10.00">buildPolyDetail</text>
</a>
</g>
</g>
<!-- Node2&#45;&gt;Node3 -->
<g id="edge2_Node000002_Node000003" class="edge">
<title>Node2&#45;&gt;Node3</title>
<g id="a_edge2_Node000002_Node000003"><a xlink:title=" ">
<path fill="none" stroke="#63b8ff" d="M1503.87,-96.97C1474.12,-90.75 1434.32,-82.42 1404.04,-76.09"/>
<polygon fill="#63b8ff" stroke="#63b8ff" points="1503.43,-100.45 1513.94,-99.07 1504.87,-93.6 1503.43,-100.45"/>
</a>
</g>
</g>
<!-- Node3&#45;&gt;Node4 -->
<g id="edge3_Node000003_Node000004" class="edge">
<title>Node3&#45;&gt;Node4</title>
<g id="a_edge3_Node000003_Node000004"><a xlink:title=" ">
<path fill="none" stroke="#63b8ff" d="M1302.28,-66.78C1285.32,-66.78 1266.54,-66.78 1249.13,-66.78"/>
<polygon fill="#63b8ff" stroke="#63b8ff" points="1302.57,-70.28 1312.57,-66.78 1302.57,-63.28 1302.57,-70.28"/>
</a>
</g>
</g>
<!-- Node5 -->
<g id="Node000005" class="node">
<title>Node5</title>
<g id="a_Node000005"><a xlink:href="classMMAP_1_1MapBuilder.html#aff50e408ac058dad56719ad110a93a70" target="_top" xlink:title=" ">
<polygon fill="white" stroke="#666666" points="1086,-289.78 920,-289.78 920,-259.78 1086,-259.78 1086,-289.78"/>
<text text-anchor="start" x="928" y="-277.78" font-family="Helvetica,sans-Serif" font-size="10.00">MMAP::MapBuilder::buildMove</text>
<text text-anchor="middle" x="1003" y="-266.78" font-family="Helvetica,sans-Serif" font-size="10.00">MapTile</text>
</a>
</g>
</g>
<!-- Node4&#45;&gt;Node5 -->
<g id="edge4_Node000004_Node000005" class="edge">
<title>Node4&#45;&gt;Node5</title>
<g id="a_edge4_Node000004_Node000005"><a xlink:title=" ">
<path fill="none" stroke="#63b8ff" d="M1162.84,-82.58C1149.65,-93.08 1133.24,-107.83 1122,-123.78 1098.13,-157.65 1111.03,-176.75 1086,-209.78 1070.53,-230.19 1047.23,-247.84 1029.41,-259.57"/>
<polygon fill="#63b8ff" stroke="#63b8ff" points="1165.17,-85.2 1170.95,-76.33 1160.9,-79.66 1165.17,-85.2"/>
</a>
</g>
</g>
<!-- Node6 -->
<g id="Node000006" class="node">
<title>Node6</title>
<g id="a_Node000006"><a xlink:href="classMMAP_1_1MapBuilder.html#a419909cd4450b520d3fec523f4839970" target="_top" xlink:title=" ">
<polygon fill="white" stroke="#666666" points="652,-253.78 487,-253.78 487,-223.78 652,-223.78 652,-253.78"/>
<text text-anchor="start" x="495" y="-241.78" font-family="Helvetica,sans-Serif" font-size="10.00">MMAP::MapBuilder::buildMesh</text>
<text text-anchor="middle" x="569.5" y="-230.78" font-family="Helvetica,sans-Serif" font-size="10.00">FromFile</text>
</a>
</g>
</g>
<!-- Node5&#45;&gt;Node6 -->
<g id="edge5_Node000005_Node000006" class="edge">
<title>Node5&#45;&gt;Node6</title>
<g id="a_edge5_Node000005_Node000006"><a xlink:title=" ">
<path fill="none" stroke="#63b8ff" d="M909.77,-267.81C849.72,-263.19 769.7,-256.88 699,-250.78 683.82,-249.47 667.64,-248.01 652.06,-246.57"/>
<polygon fill="#63b8ff" stroke="#63b8ff" points="909.75,-271.32 919.99,-268.6 910.29,-264.34 909.75,-271.32"/>
</a>
</g>
</g>
<!-- Node8 -->
<g id="Node000008" class="node">
<title>Node8</title>
<g id="a_Node000008"><a xlink:href="classMMAP_1_1MapBuilder.html#abda6004f5d9630deac799d077723be29" target="_top" xlink:title=" ">
<polygon fill="white" stroke="#666666" points="870,-171.28 713,-171.28 713,-152.28 870,-152.28 870,-171.28"/>
<text text-anchor="middle" x="791.5" y="-159.28" font-family="Helvetica,sans-Serif" font-size="10.00">MMAP::MapBuilder::buildTile</text>
</a>
</g>
</g>
<!-- Node5&#45;&gt;Node8 -->
<g id="edge7_Node000005_Node000008" class="edge">
<title>Node5&#45;&gt;Node8</title>
<g id="a_edge7_Node000005_Node000008"><a xlink:title=" ">
<path fill="none" stroke="#63b8ff" d="M974.75,-253.45C958.73,-240.84 938.13,-224.51 920,-209.78 903.84,-196.64 902.8,-188.74 884,-179.78 876.84,-176.37 869.07,-173.6 861.18,-171.36"/>
<polygon fill="#63b8ff" stroke="#63b8ff" points="972.65,-256.25 982.67,-259.68 976.97,-250.75 972.65,-256.25"/>
</a>
</g>
</g>
<!-- Node7 -->
<g id="Node000007" class="node">
<title>Node7</title>
<g id="a_Node000007"><a xlink:href="tools_2mmaps__generator_2PathGenerator_8cpp.html#a3c04138a5bfe5d72780bb7e82a18e627" target="_top" xlink:title=" ">
<polygon fill="white" stroke="#666666" points="41,-191.28 0,-191.28 0,-172.28 41,-172.28 41,-191.28"/>
<text text-anchor="middle" x="20.5" y="-179.28" font-family="Helvetica,sans-Serif" font-size="10.00">main</text>
</a>
</g>
</g>
<!-- Node6&#45;&gt;Node7 -->
<g id="edge6_Node000006_Node000007" class="edge">
<title>Node6&#45;&gt;Node7</title>
<g id="a_edge6_Node000006_Node000007"><a xlink:title=" ">
<path fill="none" stroke="#63b8ff" d="M476.8,-237.9C377.42,-235.46 214.57,-227.15 77,-199.78 64.88,-197.37 51.71,-193.17 41.24,-189.43"/>
<polygon fill="#63b8ff" stroke="#63b8ff" points="476.74,-241.4 486.82,-238.13 476.9,-234.4 476.74,-241.4"/>
</a>
</g>
</g>
<!-- Node9 -->
<g id="Node000009" class="node">
<title>Node9</title>
<g id="a_Node000009"><a xlink:href="classMMAP_1_1MapBuilder.html#acfd08a39eb162686dfa318f7b2e15813" target="_top" xlink:title=" ">
<polygon fill="white" stroke="#666666" points="649.5,-149.28 489.5,-149.28 489.5,-130.28 649.5,-130.28 649.5,-149.28"/>
<text text-anchor="middle" x="569.5" y="-137.28" font-family="Helvetica,sans-Serif" font-size="10.00">MMAP::MapBuilder::buildMap</text>
</a>
</g>
</g>
<!-- Node8&#45;&gt;Node9 -->
<g id="edge8_Node000008_Node000009" class="edge">
<title>Node8&#45;&gt;Node9</title>
<g id="a_edge8_Node000008_Node000009"><a xlink:title=" ">
<path fill="none" stroke="#63b8ff" d="M702.71,-153C685.16,-151.25 666.83,-149.41 649.59,-147.69"/>
<polygon fill="#63b8ff" stroke="#63b8ff" points="702.64,-156.51 712.94,-154.02 703.33,-149.55 702.64,-156.51"/>
</a>
</g>
</g>
<!-- Node12 -->
<g id="Node000012" class="node">
<title>Node12</title>
<g id="a_Node000012"><a xlink:href="classMMAP_1_1MapBuilder.html#a0726fbb99739b38adf8aa57db8ee1b13" target="_top" xlink:title=" ">
<polygon fill="white" stroke="#666666" points="663,-205.28 476,-205.28 476,-186.28 663,-186.28 663,-205.28"/>
<text text-anchor="middle" x="569.5" y="-193.28" font-family="Helvetica,sans-Serif" font-size="10.00">MMAP::MapBuilder::buildSingleTile</text>
</a>
</g>
</g>
<!-- Node8&#45;&gt;Node12 -->
<g id="edge14_Node000008_Node000012" class="edge">
<title>Node8&#45;&gt;Node12</title>
<g id="a_edge14_Node000008_Node000012"><a xlink:title=" ">
<path fill="none" stroke="#63b8ff" d="M718.8,-172.86C690.79,-177.19 659,-182.1 632.06,-186.27"/>
<polygon fill="#63b8ff" stroke="#63b8ff" points="719.58,-176.28 728.93,-171.3 718.51,-169.36 719.58,-176.28"/>
</a>
</g>
</g>
<!-- Node9&#45;&gt;Node7 -->
<g id="edge11_Node000009_Node000007" class="edge">
<title>Node9&#45;&gt;Node7</title>
<g id="a_edge11_Node000009_Node000007"><a xlink:title=" ">
<path fill="none" stroke="#63b8ff" d="M538.18,-126.21C512.6,-115.54 474.7,-101.56 440,-95.78 279.47,-69.06 226.22,-78.83 77,-143.78 60.3,-151.05 43.34,-163.57 32.64,-172.24"/>
<polygon fill="#63b8ff" stroke="#63b8ff" points="537.11,-129.56 547.68,-130.26 539.86,-123.12 537.11,-129.56"/>
</a>
</g>
</g>
<!-- Node10 -->
<g id="Node000010" class="node">
<title>Node10</title>
<g id="a_Node000010"><a xlink:href="classMMAP_1_1MapBuilder.html#adef5ba942790489913fb50c72cc76bac" target="_top" xlink:title=" ">
<polygon fill="white" stroke="#666666" points="255,-172.28 77,-172.28 77,-153.28 255,-153.28 255,-172.28"/>
<text text-anchor="middle" x="166" y="-160.28" font-family="Helvetica,sans-Serif" font-size="10.00">MMAP::MapBuilder::buildAllMaps</text>
</a>
</g>
</g>
<!-- Node9&#45;&gt;Node10 -->
<g id="edge9_Node000009_Node000010" class="edge">
<title>Node9&#45;&gt;Node10</title>
<g id="a_edge9_Node000009_Node000010"><a xlink:title=" ">
<path fill="none" stroke="#63b8ff" d="M479.1,-144.9C412.38,-148.72 321.67,-153.92 255.23,-157.72"/>
<polygon fill="#63b8ff" stroke="#63b8ff" points="479.39,-148.39 489.18,-144.32 478.99,-141.4 479.39,-148.39"/>
</a>
</g>
</g>
<!-- Node11 -->
<g id="Node000011" class="node">
<title>Node11</title>
<g id="a_Node000011"><a xlink:href="classMMAP_1_1MapBuilder.html#ad7a6bec4ca899c18d4ed72f83e19317e" target="_top" xlink:title=" ">
<polygon fill="white" stroke="#666666" points="440,-134.78 291,-134.78 291,-104.78 440,-104.78 440,-134.78"/>
<text text-anchor="start" x="299" y="-122.78" font-family="Helvetica,sans-Serif" font-size="10.00">MMAP::MapBuilder::Worker</text>
<text text-anchor="middle" x="365.5" y="-111.78" font-family="Helvetica,sans-Serif" font-size="10.00">Thread</text>
</a>
</g>
</g>
<!-- Node9&#45;&gt;Node11 -->
<g id="edge12_Node000009_Node000011" class="edge">
<title>Node9&#45;&gt;Node11</title>
<g id="a_edge12_Node000009_Node000011"><a xlink:title=" ">
<path fill="none" stroke="#63b8ff" d="M478.94,-130.91C466.01,-129.63 452.83,-128.33 440.26,-127.08"/>
<polygon fill="#63b8ff" stroke="#63b8ff" points="478.95,-134.43 489.24,-131.93 479.64,-127.46 478.95,-134.43"/>
</a>
</g>
</g>
<!-- Node10&#45;&gt;Node7 -->
<g id="edge10_Node000010_Node000007" class="edge">
<title>Node10&#45;&gt;Node7</title>
<g id="a_edge10_Node000010_Node000007"><a xlink:title=" ">
<path fill="none" stroke="#63b8ff" d="M82.56,-173.7C67.02,-175.75 52.18,-177.72 41.01,-179.2"/>
<polygon fill="#63b8ff" stroke="#63b8ff" points="83.38,-177.12 92.83,-172.33 82.46,-170.18 83.38,-177.12"/>
</a>
</g>
</g>
<!-- Node11&#45;&gt;Node10 -->
<g id="edge13_Node000011_Node000010" class="edge">
<title>Node11&#45;&gt;Node10</title>
<g id="a_edge13_Node000011_Node000010"><a xlink:title=" ">
<path fill="none" stroke="#63b8ff" d="M285.4,-137C259.95,-142.54 232.68,-148.48 210.74,-153.26"/>
<polygon fill="#63b8ff" stroke="#63b8ff" points="286.4,-140.37 295.42,-134.82 284.91,-133.53 286.4,-140.37"/>
</a>
</g>
</g>
<!-- Node12&#45;&gt;Node7 -->
<g id="edge15_Node000012_Node000007" class="edge">
<title>Node12&#45;&gt;Node7</title>
<g id="a_edge15_Node000012_Node000007"><a xlink:title=" ">
<path fill="none" stroke="#63b8ff" d="M465.46,-193.14C331.97,-189.73 108.37,-184 41.18,-182.28"/>
<polygon fill="#63b8ff" stroke="#63b8ff" points="465.62,-196.65 475.71,-193.4 465.8,-189.65 465.62,-196.65"/>
</a>
</g>
</g>
<!-- Node13&#45;&gt;Node14 -->
<g id="edge17_Node000013_Node000014" class="edge">
<title>Node13&#45;&gt;Node14</title>
<g id="a_edge17_Node000013_Node000014"><a xlink:title=" ">
<path fill="none" stroke="#63b8ff" d="M1457.87,-474.8C1443.9,-473.38 1429.78,-471.94 1416.77,-470.61"/>
<polygon fill="#63b8ff" stroke="#63b8ff" points="1457.68,-478.3 1467.99,-475.83 1458.39,-471.34 1457.68,-478.3"/>
</a>
</g>
</g>
<!-- Node15&#45;&gt;Node3 -->
<g id="edge19_Node000015_Node000003" class="edge">
<title>Node15&#45;&gt;Node3</title>
<g id="a_edge19_Node000015_Node000003"><a xlink:title=" ">
<path fill="none" stroke="#63b8ff" d="M1493.15,-67.5C1465.02,-67.35 1430.8,-67.16 1404.03,-67.02"/>
<polygon fill="#63b8ff" stroke="#63b8ff" points="1493.19,-71 1503.21,-67.55 1493.23,-64 1493.19,-71"/>
</a>
</g>
</g>
<!-- Node17 -->
<g id="Node000017" class="node">
<title>Node17</title>
<g id="a_Node000017"><a xlink:href="RecastRasterization_8cpp.html#ac7603b63733a21c516c4858631243e13" target="_top" xlink:title=" ">
<polygon fill="white" stroke="#666666" points="1240.5,-303.28 1130.5,-303.28 1130.5,-284.28 1240.5,-284.28 1240.5,-303.28"/>
<text text-anchor="middle" x="1185.5" y="-291.28" font-family="Helvetica,sans-Serif" font-size="10.00">rcRasterizeTriangle</text>
</a>
</g>
</g>
<!-- Node16&#45;&gt;Node17 -->
<g id="edge21_Node000016_Node000017" class="edge">
<title>Node16&#45;&gt;Node17</title>
<g id="a_edge21_Node000016_Node000017"><a xlink:title=" ">
<path fill="none" stroke="#63b8ff" d="M1312.79,-293.78C1290.68,-293.78 1263.83,-293.78 1240.58,-293.78"/>
<polygon fill="#63b8ff" stroke="#63b8ff" points="1312.9,-297.28 1322.9,-293.78 1312.9,-290.28 1312.9,-297.28"/>
</a>
</g>
</g>
<!-- Node18 -->
<g id="Node000018" class="node">
<title>Node18</title>
<g id="a_Node000018"><a xlink:href="RecastRasterization_8cpp.html#a1ff5e9e2684526e748876e520d5e2e79" target="_top" xlink:title=" ">
<polygon fill="white" stroke="#666666" points="1243,-377.28 1128,-377.28 1128,-358.28 1243,-358.28 1243,-377.28"/>
<text text-anchor="middle" x="1185.5" y="-365.28" font-family="Helvetica,sans-Serif" font-size="10.00">rcRasterizeTriangles</text>
</a>
</g>
</g>
<!-- Node16&#45;&gt;Node18 -->
<g id="edge22_Node000016_Node000018" class="edge">
<title>Node16&#45;&gt;Node18</title>
<g id="a_edge22_Node000016_Node000018"><a xlink:title=" ">
<path fill="none" stroke="#63b8ff" d="M1312.98,-305.46C1303.45,-308.79 1293.65,-312.88 1285,-317.78 1266.63,-328.18 1267.5,-338.6 1249,-348.78 1242.14,-352.55 1234.44,-355.67 1226.85,-358.21"/>
<polygon fill="#63b8ff" stroke="#63b8ff" points="1314.35,-308.7 1322.77,-302.26 1312.17,-302.05 1314.35,-308.7"/>
</a>
</g>
</g>
<!-- Node19 -->
<g id="Node000019" class="node">
<title>Node19</title>
<g id="a_Node000019"><a xlink:href="RecastRasterization_8cpp.html#a7ab1905d9713e8c52d8fea366c439fa8" target="_top" xlink:title=" ">
<polygon fill="white" stroke="#666666" points="1243,-266.28 1128,-266.28 1128,-247.28 1243,-247.28 1243,-266.28"/>
<text text-anchor="middle" x="1185.5" y="-254.28" font-family="Helvetica,sans-Serif" font-size="10.00">rcRasterizeTriangles</text>
</a>
</g>
</g>
<!-- Node16&#45;&gt;Node19 -->
<g id="edge24_Node000016_Node000019" class="edge">
<title>Node16&#45;&gt;Node19</title>
<g id="a_edge24_Node000016_Node000019"><a xlink:title=" ">
<path fill="none" stroke="#63b8ff" d="M1312.79,-284.11C1287.41,-278.61 1255.76,-271.77 1230.5,-266.3"/>
<polygon fill="#63b8ff" stroke="#63b8ff" points="1312.38,-287.6 1322.9,-286.29 1313.86,-280.76 1312.38,-287.6"/>
</a>
</g>
</g>
<!-- Node20 -->
<g id="Node000020" class="node">
<title>Node20</title>
<g id="a_Node000020"><a xlink:href="RecastRasterization_8cpp.html#ad639cf9ca7c14d11c6b2e7f54ac99a8e" target="_top" xlink:title=" ">
<polygon fill="white" stroke="#666666" points="1243,-340.28 1128,-340.28 1128,-321.28 1243,-321.28 1243,-340.28"/>
<text text-anchor="middle" x="1185.5" y="-328.28" font-family="Helvetica,sans-Serif" font-size="10.00">rcRasterizeTriangles</text>
</a>
</g>
</g>
<!-- Node16&#45;&gt;Node20 -->
<g id="edge25_Node000016_Node000020" class="edge">
<title>Node16&#45;&gt;Node20</title>
<g id="a_edge25_Node000016_Node000020"><a xlink:title=" ">
<path fill="none" stroke="#63b8ff" d="M1312.79,-303.45C1287.41,-308.94 1255.76,-315.79 1230.5,-321.26"/>
<polygon fill="#63b8ff" stroke="#63b8ff" points="1313.86,-306.8 1322.9,-301.27 1312.38,-299.96 1313.86,-306.8"/>
</a>
</g>
</g>
<!-- Node18&#45;&gt;Node5 -->
<g id="edge23_Node000018_Node000005" class="edge">
<title>Node18&#45;&gt;Node5</title>
<g id="a_edge23_Node000018_Node000005"><a xlink:title=" ">
<path fill="none" stroke="#63b8ff" d="M1137.62,-355.02C1132.27,-353.13 1126.97,-351.04 1122,-348.78 1085.69,-332.23 1047.17,-306.27 1024.37,-289.91"/>
<polygon fill="#63b8ff" stroke="#63b8ff" points="1136.62,-358.38 1147.22,-358.21 1138.83,-351.73 1136.62,-358.38"/>
</a>
</g>
</g>
<!-- Node21&#45;&gt;Node5 -->
<g id="edge27_Node000021_Node000005" class="edge">
<title>Node21&#45;&gt;Node5</title>
<g id="a_edge27_Node000021_Node000005"><a xlink:title=" ">
<path fill="none" stroke="#63b8ff" d="M1310.26,-434.5C1291.34,-438.63 1269.26,-442.75 1249,-444.78 1192.84,-450.42 1172.01,-470.95 1122,-444.78 1057.7,-411.14 1021.4,-324.74 1008.95,-289.79"/>
<polygon fill="#63b8ff" stroke="#63b8ff" points="1311.13,-437.89 1320.12,-432.28 1309.6,-431.06 1311.13,-437.89"/>
</a>
</g>
</g>
<!-- Node23&#45;&gt;Node5 -->
<g id="edge32_Node000023_Node000005" class="edge">
<title>Node23&#45;&gt;Node5</title>
<g id="a_edge32_Node000023_Node000005"><a xlink:title=" ">
<path fill="none" stroke="#63b8ff" d="M1321.21,-388.84C1309.53,-393.3 1296.61,-398.5 1285,-403.78 1268.53,-411.27 1266.56,-418.43 1249,-422.78 1194.21,-436.35 1172.85,-447.27 1122,-422.78 1063.38,-394.55 1024.85,-321.45 1010.4,-289.78"/>
<polygon fill="#63b8ff" stroke="#63b8ff" points="1322.55,-392.08 1330.68,-385.28 1320.08,-385.52 1322.55,-392.08"/>
</a>
</g>
</g>
<!-- Node25&#45;&gt;Node5 -->
<g id="edge35_Node000025_Node000005" class="edge">
<title>Node25&#45;&gt;Node5</title>
<g id="a_edge35_Node000025_Node000005"><a xlink:title=" ">
<path fill="none" stroke="#63b8ff" d="M1133.73,-391.57C1129.66,-389.84 1125.7,-387.92 1122,-385.78 1077.22,-359.84 1035.85,-313.85 1016.12,-290.03"/>
<polygon fill="#63b8ff" stroke="#63b8ff" points="1132.76,-394.94 1143.35,-395.23 1135.25,-388.4 1132.76,-394.94"/>
</a>
</g>
</g>
<!-- Node26&#45;&gt;Node5 -->
<g id="edge37_Node000026_Node000005" class="edge">
<title>Node26&#45;&gt;Node5</title>
<g id="a_edge37_Node000026_Node000005"><a xlink:title=" ">
<path fill="none" stroke="#63b8ff" d="M1482.42,-250.07C1381.59,-241.52 1189.51,-227.44 1122,-237.78 1094.52,-241.99 1064.64,-251.41 1041.83,-259.69"/>
<polygon fill="#63b8ff" stroke="#63b8ff" points="1482.22,-253.56 1492.48,-250.93 1482.81,-246.59 1482.22,-253.56"/>
</a>
</g>
</g>
<!-- Node27&#45;&gt;Node3 -->
<g id="edge39_Node000027_Node000003" class="edge">
<title>Node27&#45;&gt;Node3</title>
<g id="a_edge39_Node000027_Node000003"><a xlink:title=" ">
<path fill="none" stroke="#63b8ff" d="M1510.96,-178.65C1496.41,-176.24 1480.13,-171.39 1468,-161.78 1440.27,-139.8 1458.82,-113.86 1432,-90.78 1424.06,-83.95 1414.12,-79.05 1404.16,-75.53"/>
<polygon fill="#63b8ff" stroke="#63b8ff" points="1510.79,-182.16 1521.17,-180.01 1511.72,-175.22 1510.79,-182.16"/>
</a>
</g>
</g>
<!-- Node27&#45;&gt;Node16 -->
<g id="edge42_Node000027_Node000016" class="edge">
<title>Node27&#45;&gt;Node16</title>
<g id="a_edge42_Node000027_Node000016"><a xlink:title=" ">
<path fill="none" stroke="#63b8ff" d="M1511.34,-185.04C1497.24,-187.82 1481.2,-192.36 1468,-199.78 1448.28,-210.87 1448.86,-220.69 1432,-235.78 1411.94,-253.73 1387.2,-272.94 1372.42,-284.13"/>
<polygon fill="#63b8ff" stroke="#63b8ff" points="1511.94,-188.49 1521.19,-183.32 1510.74,-181.59 1511.94,-188.49"/>
</a>
</g>
</g>
<!-- Node28 -->
<g id="Node000028" class="node">
<title>Node28</title>
<g id="a_Node000028"><a xlink:href="classMMAP_1_1MapBuilder.html#a739d878bc3b4da8366c130cf71cd6a3b" target="_top" xlink:title=" ">
<polygon fill="white" stroke="#666666" points="1078.5,-138.78 927.5,-138.78 927.5,-108.78 1078.5,-108.78 1078.5,-138.78"/>
<text text-anchor="start" x="935.5" y="-126.78" font-family="Helvetica,sans-Serif" font-size="10.00">MMAP::MapBuilder::getGrid</text>
<text text-anchor="middle" x="1003" y="-115.78" font-family="Helvetica,sans-Serif" font-size="10.00">Bounds</text>
</a>
</g>
</g>
<!-- Node27&#45;&gt;Node28 -->
<g id="edge40_Node000027_Node000028" class="edge">
<title>Node27&#45;&gt;Node28</title>
<g id="a_edge40_Node000027_Node000028"><a xlink:title=" ">
<path fill="none" stroke="#63b8ff" d="M1511.38,-173.93C1497.69,-170.81 1481.93,-166.71 1468,-161.78 1451.32,-155.88 1449.02,-149.63 1432,-144.78 1311.98,-110.56 1165.48,-112.17 1078.73,-117.35"/>
<polygon fill="#63b8ff" stroke="#63b8ff" points="1510.87,-177.4 1521.39,-176.12 1512.37,-170.56 1510.87,-177.4"/>
</a>
</g>
</g>
<!-- Node29 -->
<g id="Node000029" class="node">
<title>Node29</title>
<g id="a_Node000029"><a xlink:href="Recast_8cpp.html#af5247365fb1db9f26a9153d984a98c82" target="_top" xlink:title=" ">
<polygon fill="white" stroke="#666666" points="1227,-152.28 1144,-152.28 1144,-133.28 1227,-133.28 1227,-152.28"/>
<text text-anchor="middle" x="1185.5" y="-140.28" font-family="Helvetica,sans-Serif" font-size="10.00">rcCalcBounds</text>
</a>
</g>
</g>
<!-- Node27&#45;&gt;Node29 -->
<g id="edge43_Node000027_Node000029" class="edge">
<title>Node27&#45;&gt;Node29</title>
<g id="a_edge43_Node000027_Node000029"><a xlink:title=" ">
<path fill="none" stroke="#63b8ff" d="M1511.09,-174.14C1488.59,-170.07 1458.65,-165.03 1432,-161.78 1360.07,-153.02 1275.77,-147.53 1227.01,-144.82"/>
<polygon fill="#63b8ff" stroke="#63b8ff" points="1510.72,-177.63 1521.18,-176 1511.98,-170.75 1510.72,-177.63"/>
</a>
</g>
</g>
<!-- Node32 -->
<g id="Node000032" class="node">
<title>Node32</title>
<g id="a_Node000032"><a xlink:href="RecastArea_8cpp.html#a1e8f3c9c2cb664fb2874d01448a1f223" target="_top" xlink:title=" ">
<polygon fill="white" stroke="#666666" points="1424,-190.28 1293,-190.28 1293,-171.28 1424,-171.28 1424,-190.28"/>
<text text-anchor="middle" x="1358.5" y="-178.28" font-family="Helvetica,sans-Serif" font-size="10.00">rcMarkConvexPolyArea</text>
</a>
</g>
</g>
<!-- Node27&#45;&gt;Node32 -->
<g id="edge52_Node000027_Node000032" class="edge">
<title>Node27&#45;&gt;Node32</title>
<g id="a_edge52_Node000027_Node000032"><a xlink:title=" ">
<path fill="none" stroke="#63b8ff" d="M1511.02,-180.78C1486.62,-180.78 1453.32,-180.78 1424.15,-180.78"/>
<polygon fill="#63b8ff" stroke="#63b8ff" points="1511.23,-184.28 1521.23,-180.78 1511.23,-177.28 1511.23,-184.28"/>
</a>
</g>
</g>
<!-- Node33 -->
<g id="Node000033" class="node">
<title>Node33</title>
<g id="a_Node000033"><a xlink:href="RecastMesh_8cpp.html#aa28c3eb627ca7d96015c7978ff0eb8f7" target="_top" xlink:title=" ">
<polygon fill="white" stroke="#666666" points="1416,-227.28 1301,-227.28 1301,-208.28 1416,-208.28 1416,-227.28"/>
<text text-anchor="middle" x="1358.5" y="-215.28" font-family="Helvetica,sans-Serif" font-size="10.00">rcMergePolyMeshes</text>
</a>
</g>
</g>
<!-- Node27&#45;&gt;Node33 -->
<g id="edge53_Node000027_Node000033" class="edge">
<title>Node27&#45;&gt;Node33</title>
<g id="a_edge53_Node000027_Node000033"><a xlink:title=" ">
<path fill="none" stroke="#63b8ff" d="M1511.08,-187.71C1481.83,-193.51 1439.79,-201.85 1407.4,-208.28"/>
<polygon fill="#63b8ff" stroke="#63b8ff" points="1512.11,-191.07 1521.23,-185.69 1510.74,-184.21 1512.11,-191.07"/>
</a>
</g>
</g>
<!-- Node28&#45;&gt;Node9 -->
<g id="edge41_Node000028_Node000009" class="edge">
<title>Node28&#45;&gt;Node9</title>
<g id="a_edge41_Node000028_Node000009"><a xlink:title=" ">
<path fill="none" stroke="#63b8ff" d="M917.1,-126.93C839.47,-129.81 725.52,-134.03 649.73,-136.84"/>
<polygon fill="#63b8ff" stroke="#63b8ff" points="917.47,-130.42 927.33,-126.55 917.21,-123.42 917.47,-130.42"/>
</a>
</g>
</g>
<!-- Node29&#45;&gt;Node28 -->
<g id="edge44_Node000029_Node000028" class="edge">
<title>Node29&#45;&gt;Node28</title>
<g id="a_edge44_Node000029_Node000028"><a xlink:title=" ">
<path fill="none" stroke="#63b8ff" d="M1133.72,-137.43C1116.69,-135.64 1097.32,-133.6 1078.84,-131.66"/>
<polygon fill="#63b8ff" stroke="#63b8ff" points="1133.68,-140.95 1143.99,-138.52 1134.41,-133.99 1133.68,-140.95"/>
</a>
</g>
</g>
<!-- Node30 -->
<g id="Node000030" class="node">
<title>Node30</title>
<g id="a_Node000030"><a xlink:href="classMMAP_1_1MapBuilder.html#a73066e1e70675a31374aabf6208eca4f" target="_top" xlink:title=" ">
<polygon fill="white" stroke="#666666" points="1077.5,-200.78 928.5,-200.78 928.5,-170.78 1077.5,-170.78 1077.5,-200.78"/>
<text text-anchor="start" x="936.5" y="-188.78" font-family="Helvetica,sans-Serif" font-size="10.00">MMAP::MapBuilder::getTile</text>
<text text-anchor="middle" x="1003" y="-177.78" font-family="Helvetica,sans-Serif" font-size="10.00">Bounds</text>
</a>
</g>
</g>
<!-- Node29&#45;&gt;Node30 -->
<g id="edge45_Node000029_Node000030" class="edge">
<title>Node29&#45;&gt;Node30</title>
<g id="a_edge45_Node000029_Node000030"><a xlink:title=" ">
<path fill="none" stroke="#63b8ff" d="M1134.5,-154.69C1113.61,-159.67 1089.1,-165.51 1066.99,-170.77"/>
<polygon fill="#63b8ff" stroke="#63b8ff" points="1135.52,-158.04 1144.44,-152.32 1133.9,-151.24 1135.52,-158.04"/>
</a>
</g>
</g>
<!-- Node30&#45;&gt;Node6 -->
<g id="edge46_Node000030_Node000006" class="edge">
<title>Node30&#45;&gt;Node6</title>
<g id="a_edge46_Node000030_Node000006"><a xlink:title=" ">
<path fill="none" stroke="#63b8ff" d="M943.19,-203.54C924.43,-208.58 903.49,-213.56 884,-216.78 805.94,-229.66 715.73,-235 652.18,-237.22"/>
<polygon fill="#63b8ff" stroke="#63b8ff" points="944.35,-206.85 953.07,-200.83 942.5,-200.1 944.35,-206.85"/>
</a>
</g>
</g>
<!-- Node30&#45;&gt;Node8 -->
<g id="edge51_Node000030_Node000008" class="edge">
<title>Node30&#45;&gt;Node8</title>
<g id="a_edge51_Node000030_Node000008"><a xlink:title=" ">
<path fill="none" stroke="#63b8ff" d="M918.14,-176.17C902.3,-174.36 885.79,-172.47 870.16,-170.68"/>
<polygon fill="#63b8ff" stroke="#63b8ff" points="918.1,-179.69 928.43,-177.35 918.9,-172.74 918.1,-179.69"/>
</a>
</g>
</g>
<!-- Node31 -->
<g id="Node000031" class="node">
<title>Node31</title>
<g id="a_Node000031"><a xlink:href="classMMAP_1_1MapBuilder.html#ad4cd40c9d400e4799b67b7f0857fdc22" target="_top" xlink:title=" ">
<polygon fill="white" stroke="#666666" points="884,-208.28 699,-208.28 699,-189.28 884,-189.28 884,-208.28"/>
<text text-anchor="middle" x="791.5" y="-196.28" font-family="Helvetica,sans-Serif" font-size="10.00">MMAP::MapBuilder::buildNavMesh</text>
</a>
</g>
</g>
<!-- Node30&#45;&gt;Node31 -->
<g id="edge47_Node000030_Node000031" class="edge">
<title>Node30&#45;&gt;Node31</title>
<g id="a_edge47_Node000030_Node000031"><a xlink:title=" ">
<path fill="none" stroke="#63b8ff" d="M918.28,-190.97C907.1,-191.67 895.59,-192.38 884.29,-193.08"/>
<polygon fill="#63b8ff" stroke="#63b8ff" points="918.67,-194.46 928.43,-190.34 918.24,-187.47 918.67,-194.46"/>
</a>
</g>
</g>
<!-- Node31&#45;&gt;Node6 -->
<g id="edge49_Node000031_Node000006" class="edge">
<title>Node31&#45;&gt;Node6</title>
<g id="a_edge49_Node000031_Node000006"><a xlink:title=" ">
<path fill="none" stroke="#63b8ff" d="M728.2,-210.11C704.58,-214.4 677.32,-219.36 652.18,-223.93"/>
<polygon fill="#63b8ff" stroke="#63b8ff" points="728.87,-213.54 738.08,-208.31 727.62,-206.65 728.87,-213.54"/>
</a>
</g>
</g>
<!-- Node31&#45;&gt;Node9 -->
<g id="edge48_Node000031_Node000009" class="edge">
<title>Node31&#45;&gt;Node9</title>
<g id="a_edge48_Node000031_Node000009"><a xlink:title=" ">
<path fill="none" stroke="#63b8ff" d="M730.09,-187.1C719.68,-184.84 709,-182.37 699,-179.78 663.94,-170.71 624.23,-157.96 598.35,-149.31"/>
<polygon fill="#63b8ff" stroke="#63b8ff" points="729.45,-190.54 739.96,-189.2 730.9,-183.7 729.45,-190.54"/>
</a>
</g>
</g>
<!-- Node31&#45;&gt;Node12 -->
<g id="edge50_Node000031_Node000012" class="edge">
<title>Node31&#45;&gt;Node12</title>
<g id="a_edge50_Node000031_Node000012"><a xlink:title=" ">
<path fill="none" stroke="#63b8ff" d="M688.79,-197.39C680.23,-197.28 671.6,-197.16 663.12,-197.04"/>
<polygon fill="#63b8ff" stroke="#63b8ff" points="688.75,-200.89 698.79,-197.53 688.84,-193.89 688.75,-200.89"/>
</a>
</g>
</g>
<!-- Node33&#45;&gt;Node5 -->
<g id="edge54_Node000033_Node000005" class="edge">
<title>Node33&#45;&gt;Node5</title>
<g id="a_edge54_Node000033_Node000005"><a xlink:title=" ">
<path fill="none" stroke="#63b8ff" d="M1308.9,-206.21C1260.6,-196.76 1184.86,-187.54 1122,-204.78 1083.18,-215.43 1044.19,-242.52 1022.17,-259.71"/>
<polygon fill="#63b8ff" stroke="#63b8ff" points="1308.27,-209.65 1318.77,-208.22 1309.67,-202.79 1308.27,-209.65"/>
</a>
</g>
</g>
</g>
</svg>

<g id="navigator" transform="translate(0 0)" fill="#404254">
  <rect fill="#f2f5e9" fill-opacity="0.5" stroke="#606060" stroke-width=".5" x="0" y="0" width="60" height="60"/>
  <use id="zoomplus" xlink:href="#zoomPlus" x="17" y="9" onmousedown="handleZoom(evt,'in')"/>
  <use id="zoomminus" xlink:href="#zoomMin" x="42" y="9" onmousedown="handleZoom(evt,'out')"/>
  <use id="reset" xlink:href="#resetDef" x="30" y="36" onmousedown="handleReset()"/>
   <use id="arrowup" xlink:href="#arrowUp" x="0" y="0" onmousedown="handlePan(0,-1)"/>
  <use id="arrowright" xlink:href="#arrowRight" x="0" y="0" onmousedown="handlePan(1,0)"/>
  <use id="arrowdown" xlink:href="#arrowDown" x="0" y="0" onmousedown="handlePan(0,1)"/>
  <use id="arrowleft" xlink:href="#arrowLeft" x="0" y="0" onmousedown="handlePan(-1,0)"/>
</g>
<svg viewBox="0 0 15 15" width="100%" height="30px" preserveAspectRatio="xMaxYMin meet">
 <g id="arrow_out" transform="scale(0.3 0.3)">
  <a xlink:href="Recast_8h_aac83e8b749d8fed2164e00e7e0f43687_icgraph_org.svg" target="_base">
   <rect id="button" ry="5" rx="5" y="6" x="6" height="38" width="38"
        fill="#f2f5e9" fill-opacity="0.5" stroke="#606060" stroke-width="1.0"/>
   <path id="arrow"
     d="M 11.500037,31.436501 C 11.940474,20.09759 22.043105,11.32322 32.158766,21.979434 L 37.068811,17.246167 C 37.068811,17.246167 37.088388,32 37.088388,32 L 22.160133,31.978069 C 22.160133,31.978069 26.997745,27.140456 26.997745,27.140456 C 18.528582,18.264221 13.291696,25.230495 11.500037,31.436501 z"
     style="fill:#404040;"/>
  </a>
 </g>
</svg>

<style type='text/css'>
<![CDATA[
[data-mouse-over-selected='false'] { opacity: 0.7; }
[data-mouse-over-selected='true']  { opacity: 1.0; }
]]>
</style>
<script type="application/ecmascript"><![CDATA[
document.addEventListener('DOMContentLoaded', (event) => {
  highlightEdges();
  highlightAdjacentNodes();
});
]]></script>
</svg>
