<?xml version="1.0" encoding="UTF-8" standalone="no"?>
<!DOCTYPE svg PUBLIC "-//W3C//DTD SVG 1.1//EN"
 "http://www.w3.org/Graphics/SVG/1.1/DTD/svg11.dtd">
<!-- Generated by graphviz version 2.43.0 (0)
 -->
<!-- Title: rcBuildLayerRegions Pages: 1 -->
<!--zoomable 665 -->

<svg id="main" version="1.1" xmlns="http://www.w3.org/2000/svg" xmlns:xlink="http://www.w3.org/1999/xlink" xml:space="preserve" onload="init(evt)">
<style type="text/css"><![CDATA[
.node, .edge {opacity: 0.7;}
.node.selected, .edge.selected {opacity: 1;}
.edge:hover path { stroke: red; }
.edge:hover polygon { stroke: red; fill: red; }
]]></style>

<defs>
  <circle id="rim" cx="0" cy="0" r="7"/>
  <circle id="rim2" cx="0" cy="0" r="3.5"/>
  <g id="zoomPlus">
    <use xlink:href="#rim" fill="#404040"><set attributeName="fill" to="#808080" begin="zoomplus.mouseover" end="zoomplus.mouseout"/></use>
    <path d="M-4,0h8M0,-4v8" fill="none" stroke="white" stroke-width="1.5" pointer-events="none"/>
  </g>
  <g id="zoomMin">
    <use xlink:href="#rim" fill="#404040"><set attributeName="fill" to="#808080" begin="zoomminus.mouseover" end="zoomminus.mouseout"/></use>
    <path d="M-4,0h8" fill="none" stroke="white" stroke-width="1.5" pointer-events="none"/>
  </g>
  <g id="arrowUp" transform="translate(30 24)">
    <use xlink:href="#rim"/>
    <path pointer-events="none" fill="none" stroke="white" stroke-width="1.5" d="M0,-3.0v7 M-2.5,-0.5L0,-3.0L2.5,-0.5"/>
  </g>
  <g id="arrowRight" transform="rotate(90) translate(36 -43)">
    <use xlink:href="#rim"/>
    <path pointer-events="none" fill="none" stroke="white" stroke-width="1.5" d="M0,-3.0v7 M-2.5,-0.5L0,-3.0L2.5,-0.5"/>
  </g>
  <g id="arrowDown" transform="rotate(180) translate(-30 -48)">
    <use xlink:href="#rim"/>
    <path pointer-events="none" fill="none" stroke="white" stroke-width="1.5" d="M0,-3.0v7 M-2.5,-0.5L0,-3.0L2.5,-0.5"/>
  </g>
  <g id="arrowLeft" transform="rotate(270) translate(-36 17)">
    <use xlink:href="#rim"/>
    <path pointer-events="none" fill="none" stroke="white" stroke-width="1.5" d="M0,-3.0v7 M-2.5,-0.5L0,-3.0L2.5,-0.5"/>
  </g>
  <g id="resetDef">
    <use xlink:href="#rim2" fill="#404040"><set attributeName="fill" to="#808080" begin="reset.mouseover" end="reset.mouseout"/></use>
  </g>
</defs>
<script type="application/ecmascript">
var viewWidth = 969;
var viewHeight = 665;
var sectionId = 'dynsection-30';
</script>
<script type="application/ecmascript" xlink:href="svg.min.js"/>
<svg id="graph" class="graph">
<g id="viewport">
<title>rcBuildLayerRegions</title>
<!-- Node1 -->
<g id="Node000001" class="node">
<title>Node1</title>
<g id="a_Node000001"><a xlink:title=" ">
<polygon fill="#999999" stroke="#666666" points="116,-188 0,-188 0,-169 116,-169 116,-188"/>
<text text-anchor="middle" x="58" y="-176" font-family="Helvetica,sans-Serif" font-size="10.00">rcBuildLayerRegions</text>
</a>
</g>
</g>
<!-- Node2 -->
<g id="Node000002" class="node">
<title>Node2</title>
<g id="a_Node000002"><a xlink:href="classrcContext.html#ae3cc278477b1b923d03ea50e3ae96013" target="_top" xlink:title=" ">
<polygon fill="white" stroke="#666666" points="452.5,-620 367.5,-620 367.5,-601 452.5,-601 452.5,-620"/>
<text text-anchor="middle" x="410" y="-608" font-family="Helvetica,sans-Serif" font-size="10.00">rcContext::log</text>
</a>
</g>
</g>
<!-- Node1&#45;&gt;Node2 -->
<g id="edge1_Node000001_Node000002" class="edge">
<title>Node1&#45;&gt;Node2</title>
<g id="a_edge1_Node000001_Node000002"><a xlink:title=" ">
<path fill="none" stroke="#63b8ff" d="M62.86,-188.29C74.32,-216.84 110,-301.99 152,-365.5 225.21,-476.19 234.34,-520.78 346,-592.5 349.61,-594.82 353.52,-596.84 357.56,-598.61"/>
<polygon fill="#63b8ff" stroke="#63b8ff" points="356.58,-601.98 367.17,-602.29 359.08,-595.44 356.58,-601.98"/>
</a>
</g>
</g>
<!-- Node7 -->
<g id="Node000007" class="node">
<title>Node7</title>
<g id="a_Node000007"><a xlink:href="RecastRegion_8cpp.html#a25912e8836b3489f54fecd65d850beff" target="_top" xlink:title=" ">
<polygon fill="white" stroke="#666666" points="310,-356 152,-356 152,-337 310,-337 310,-356"/>
<text text-anchor="middle" x="231" y="-344" font-family="Helvetica,sans-Serif" font-size="10.00">mergeAndFilterLayerRegions</text>
</a>
</g>
</g>
<!-- Node1&#45;&gt;Node7 -->
<g id="edge6_Node000001_Node000007" class="edge">
<title>Node1&#45;&gt;Node7</title>
<g id="a_edge6_Node000001_Node000007"><a xlink:title=" ">
<path fill="none" stroke="#63b8ff" d="M66.09,-188.14C80.86,-207.93 116.53,-254.05 152,-287.5 169.3,-303.81 191.02,-319.94 207.14,-331.2"/>
<polygon fill="#63b8ff" stroke="#63b8ff" points="205.24,-334.13 215.46,-336.92 209.21,-328.37 205.24,-334.13"/>
</a>
</g>
</g>
<!-- Node19 -->
<g id="Node000019" class="node">
<title>Node19</title>
<g id="a_Node000019"><a xlink:href="Recast_8h.html#a862229e50c96b6b157b0ad7eac980b3c" target="_top" xlink:title=" ">
<polygon fill="white" stroke="#666666" points="441,-280 379,-280 379,-261 441,-261 441,-280"/>
<text text-anchor="middle" x="410" y="-268" font-family="Helvetica,sans-Serif" font-size="10.00">rcGetCon</text>
</a>
</g>
</g>
<!-- Node1&#45;&gt;Node19 -->
<g id="edge38_Node000001_Node000019" class="edge">
<title>Node1&#45;&gt;Node19</title>
<g id="a_edge38_Node000001_Node000019"><a xlink:title=" ">
<path fill="none" stroke="#63b8ff" d="M74.51,-188.14C92.49,-198.88 123.33,-215.98 152,-225.5 226.2,-250.14 317.18,-262.01 368.58,-267.13"/>
<polygon fill="#63b8ff" stroke="#63b8ff" points="368.33,-270.62 378.62,-268.09 369,-263.65 368.33,-270.62"/>
</a>
</g>
</g>
<!-- Node20 -->
<g id="Node000020" class="node">
<title>Node20</title>
<g id="a_Node000020"><a xlink:href="Recast_8h.html#a08323ca2f8069b8c7291f8d26ba7fbb8" target="_top" xlink:title=" ">
<polygon fill="white" stroke="#666666" points="456.5,-243 363.5,-243 363.5,-224 456.5,-224 456.5,-243"/>
<text text-anchor="middle" x="410" y="-231" font-family="Helvetica,sans-Serif" font-size="10.00">rcGetDirOffsetX</text>
</a>
</g>
</g>
<!-- Node1&#45;&gt;Node20 -->
<g id="edge39_Node000001_Node000020" class="edge">
<title>Node1&#45;&gt;Node20</title>
<g id="a_edge39_Node000001_Node000020"><a xlink:title=" ">
<path fill="none" stroke="#63b8ff" d="M95.48,-188.06C112.55,-192.3 133.23,-197.08 152,-200.5 220.88,-213.03 300.99,-222.52 353.22,-228.04"/>
<polygon fill="#63b8ff" stroke="#63b8ff" points="352.97,-231.53 363.28,-229.09 353.7,-224.57 352.97,-231.53"/>
</a>
</g>
</g>
<!-- Node21 -->
<g id="Node000021" class="node">
<title>Node21</title>
<g id="a_Node000021"><a xlink:href="Recast_8h.html#ab2dfeacce04b6d055723627b61515aa0" target="_top" xlink:title=" ">
<polygon fill="white" stroke="#666666" points="456,-206 364,-206 364,-187 456,-187 456,-206"/>
<text text-anchor="middle" x="410" y="-194" font-family="Helvetica,sans-Serif" font-size="10.00">rcGetDirOffsetY</text>
</a>
</g>
</g>
<!-- Node1&#45;&gt;Node21 -->
<g id="edge40_Node000001_Node000021" class="edge">
<title>Node1&#45;&gt;Node21</title>
<g id="a_edge40_Node000001_Node000021"><a xlink:title=" ">
<path fill="none" stroke="#63b8ff" d="M116.01,-181.43C181.75,-184.81 289.05,-190.33 353.94,-193.67"/>
<polygon fill="#63b8ff" stroke="#63b8ff" points="353.82,-197.17 363.98,-194.18 354.17,-190.18 353.82,-197.17"/>
</a>
</g>
</g>
<!-- Node22 -->
<g id="Node000022" class="node">
<title>Node22</title>
<g id="a_Node000022"><a xlink:href="Recast_8h.html#accb921a8353da3a74aa90a491aff74c8" target="_top" xlink:title=" ">
<polygon fill="white" stroke="#666666" points="433.5,-169 386.5,-169 386.5,-150 433.5,-150 433.5,-169"/>
<text text-anchor="middle" x="410" y="-157" font-family="Helvetica,sans-Serif" font-size="10.00">rcMax</text>
</a>
</g>
</g>
<!-- Node1&#45;&gt;Node22 -->
<g id="edge41_Node000001_Node000022" class="edge">
<title>Node1&#45;&gt;Node22</title>
<g id="a_edge41_Node000001_Node000022"><a xlink:title=" ">
<path fill="none" stroke="#63b8ff" d="M116.01,-175.41C189.87,-171.4 316.2,-164.54 375.9,-161.3"/>
<polygon fill="#63b8ff" stroke="#63b8ff" points="376.44,-164.77 386.24,-160.74 376.06,-157.78 376.44,-164.77"/>
</a>
</g>
</g>
<!-- Node23 -->
<g id="Node000023" class="node">
<title>Node23</title>
<g id="a_Node000023"><a xlink:href="Recast_8h.html#aac83e8b749d8fed2164e00e7e0f43687" target="_top" xlink:title=" ">
<polygon fill="white" stroke="#666666" points="432,-132 388,-132 388,-113 432,-113 432,-132"/>
<text text-anchor="middle" x="410" y="-120" font-family="Helvetica,sans-Serif" font-size="10.00">rcMin</text>
</a>
</g>
</g>
<!-- Node1&#45;&gt;Node23 -->
<g id="edge42_Node000001_Node000023" class="edge">
<title>Node1&#45;&gt;Node23</title>
<g id="a_edge42_Node000001_Node000023"><a xlink:title=" ">
<path fill="none" stroke="#63b8ff" d="M106.24,-168.94C120.88,-166.09 137.09,-163.04 152,-160.5 233.22,-146.64 329.4,-133.21 377.82,-126.66"/>
<polygon fill="#63b8ff" stroke="#63b8ff" points="378.52,-130.09 387.96,-125.29 377.58,-123.16 378.52,-130.09"/>
</a>
</g>
</g>
<!-- Node27 -->
<g id="Node000027" class="node">
<title>Node27</title>
<g id="a_Node000027"><a xlink:href="RecastRegion_8cpp.html#abc80f3a23c09dd8f6570fa5b3d30792a" target="_top" xlink:title=" ">
<polygon fill="white" stroke="#666666" points="279.5,-93 182.5,-93 182.5,-74 279.5,-74 279.5,-93"/>
<text text-anchor="middle" x="231" y="-81" font-family="Helvetica,sans-Serif" font-size="10.00">paintRectRegion</text>
</a>
</g>
</g>
<!-- Node1&#45;&gt;Node27 -->
<g id="edge35_Node000001_Node000027" class="edge">
<title>Node1&#45;&gt;Node27</title>
<g id="a_edge35_Node000001_Node000027"><a xlink:title=" ">
<path fill="none" stroke="#63b8ff" d="M69.04,-168.87C85.26,-153.8 118.77,-124.6 152,-107.5 160.6,-103.07 170.16,-99.3 179.56,-96.15"/>
<polygon fill="#63b8ff" stroke="#63b8ff" points="180.77,-99.44 189.25,-93.09 178.66,-92.76 180.77,-99.44"/>
</a>
</g>
</g>
<!-- Node28 -->
<g id="Node000028" class="node">
<title>Node28</title>
<g id="a_Node000028"><a xlink:href="RecastContour_8cpp.html#a6f1109916123abdff2b46675c13307e3" target="_top" xlink:title=" ">
<polygon fill="white" stroke="#666666" points="250,-56 212,-56 212,-37 250,-37 250,-56"/>
<text text-anchor="middle" x="231" y="-44" font-family="Helvetica,sans-Serif" font-size="10.00">prev</text>
</a>
</g>
</g>
<!-- Node1&#45;&gt;Node28 -->
<g id="edge36_Node000001_Node000028" class="edge">
<title>Node1&#45;&gt;Node28</title>
<g id="a_edge36_Node000001_Node000028"><a xlink:title=" ">
<path fill="none" stroke="#63b8ff" d="M64,-168.73C75.94,-146.43 108.41,-91.63 152,-64.5 166.86,-55.25 185.98,-50.75 201.56,-48.56"/>
<polygon fill="#63b8ff" stroke="#63b8ff" points="202.17,-52.01 211.7,-47.38 201.36,-45.06 202.17,-52.01"/>
</a>
</g>
</g>
<!-- Node29 -->
<g id="Node000029" class="node">
<title>Node29</title>
<g id="a_Node000029"><a xlink:href="RecastAlloc_8cpp.html#a23d42b8202457d252efde3042cac102a" target="_top" xlink:title=" ">
<polygon fill="white" stroke="#666666" points="256,-19 206,-19 206,0 256,0 256,-19"/>
<text text-anchor="middle" x="231" y="-7" font-family="Helvetica,sans-Serif" font-size="10.00">rcAlloc</text>
</a>
</g>
</g>
<!-- Node1&#45;&gt;Node29 -->
<g id="edge37_Node000001_Node000029" class="edge">
<title>Node1&#45;&gt;Node29</title>
<g id="a_edge37_Node000001_Node000029"><a xlink:title=" ">
<path fill="none" stroke="#63b8ff" d="M61.97,-168.9C70.82,-141.93 99.73,-65.03 152,-27.5 164.63,-18.43 181.11,-13.85 195.67,-11.57"/>
<polygon fill="#63b8ff" stroke="#63b8ff" points="196.37,-15.01 205.85,-10.28 195.49,-8.06 196.37,-15.01"/>
</a>
</g>
</g>
<!-- Node3 -->
<g id="Node000003" class="node">
<title>Node3</title>
<g id="a_Node000003"><a xlink:href="classrcContext.html#a82cccfe74cb76b021acdca506df224e0" target="_top" xlink:title=" ">
<polygon fill="white" stroke="#666666" points="621,-657 522,-657 522,-638 621,-638 621,-657"/>
<text text-anchor="middle" x="571.5" y="-645" font-family="Helvetica,sans-Serif" font-size="10.00">rcContext::doLog</text>
</a>
</g>
</g>
<!-- Node2&#45;&gt;Node3 -->
<g id="edge2_Node000002_Node000003" class="edge">
<title>Node2&#45;&gt;Node3</title>
<g id="a_edge2_Node000002_Node000003"><a xlink:title=" ">
<path fill="none" stroke="#63b8ff" d="M452.08,-620.03C472.65,-624.8 497.75,-630.62 519.54,-635.68"/>
<polygon fill="#63b8ff" stroke="#63b8ff" points="518.75,-639.09 529.29,-637.94 520.34,-632.27 518.75,-639.09"/>
</a>
</g>
</g>
<!-- Node5 -->
<g id="Node000005" class="node">
<title>Node5</title>
<g id="a_Node000005"><a xlink:href="color_8h.html#af4a3b7f252e457605de5440249a15699" target="_top" xlink:title=" ">
<polygon fill="white" stroke="#666666" points="596.5,-620 546.5,-620 546.5,-601 596.5,-601 596.5,-620"/>
<text text-anchor="middle" x="571.5" y="-608" font-family="Helvetica,sans-Serif" font-size="10.00">format</text>
</a>
</g>
</g>
<!-- Node2&#45;&gt;Node5 -->
<g id="edge4_Node000002_Node000005" class="edge">
<title>Node2&#45;&gt;Node5</title>
<g id="a_edge4_Node000002_Node000005"><a xlink:title=" ">
<path fill="none" stroke="#63b8ff" d="M452.91,-610.5C478.8,-610.5 511.61,-610.5 535.99,-610.5"/>
<polygon fill="#63b8ff" stroke="#63b8ff" points="536.22,-614 546.22,-610.5 536.22,-607 536.22,-614"/>
</a>
</g>
</g>
<!-- Node4 -->
<g id="Node000004" class="node">
<title>Node4</title>
<g id="a_Node000004"><a xlink:href="Recast_8h.html#a590be6fed00e1ed747939ee51b0b433c" target="_top" xlink:title="Used to ignore unused function parameters and silence any compiler warnings.">
<polygon fill="white" stroke="#666666" points="787,-657 694,-657 694,-638 787,-638 787,-657"/>
<text text-anchor="middle" x="740.5" y="-645" font-family="Helvetica,sans-Serif" font-size="10.00">rcIgnoreUnused</text>
</a>
</g>
</g>
<!-- Node3&#45;&gt;Node4 -->
<g id="edge3_Node000003_Node000004" class="edge">
<title>Node3&#45;&gt;Node4</title>
<g id="a_edge3_Node000003_Node000004"><a xlink:title=" ">
<path fill="none" stroke="#63b8ff" d="M621.25,-647.5C640.85,-647.5 663.56,-647.5 683.81,-647.5"/>
<polygon fill="#63b8ff" stroke="#63b8ff" points="683.84,-651 693.84,-647.5 683.84,-644 683.84,-651"/>
</a>
</g>
</g>
<!-- Node6 -->
<g id="Node000006" class="node">
<title>Node6</title>
<g id="a_Node000006"><a xlink:href="namespacedetail.html#a4662b86e5cfc5c32eb3efea5a84d3040" target="_top" xlink:title=" ">
<polygon fill="white" stroke="#666666" points="801.5,-620 679.5,-620 679.5,-601 801.5,-601 801.5,-620"/>
<text text-anchor="middle" x="740.5" y="-608" font-family="Helvetica,sans-Serif" font-size="10.00">detail::to_string_view</text>
</a>
</g>
</g>
<!-- Node5&#45;&gt;Node6 -->
<g id="edge5_Node000005_Node000006" class="edge">
<title>Node5&#45;&gt;Node6</title>
<g id="a_edge5_Node000005_Node000006"><a xlink:title=" ">
<path fill="none" stroke="#63b8ff" d="M596.78,-610.5C615.87,-610.5 643.46,-610.5 669.31,-610.5"/>
<polygon fill="#63b8ff" stroke="#63b8ff" points="669.48,-614 679.48,-610.5 669.48,-607 669.48,-614"/>
</a>
</g>
</g>
<!-- Node7&#45;&gt;Node2 -->
<g id="edge20_Node000007_Node000002" class="edge">
<title>Node7&#45;&gt;Node2</title>
<g id="a_edge20_Node000007_Node000002"><a xlink:title=" ">
<path fill="none" stroke="#63b8ff" d="M238.37,-356.12C252.66,-378 287.77,-433.48 310,-483.5 330.72,-530.12 309.2,-557.17 346,-592.5 349.51,-595.87 353.6,-598.61 357.99,-600.85"/>
<polygon fill="#63b8ff" stroke="#63b8ff" points="356.73,-604.12 367.3,-604.76 359.44,-597.66 356.73,-604.12"/>
</a>
</g>
</g>
<!-- Node8 -->
<g id="Node000008" class="node">
<title>Node8</title>
<g id="a_Node000008"><a xlink:href="RecastRegion_8cpp.html#abc58499e6aeb21a4cd58d048c06f2ec0" target="_top" xlink:title=" ">
<polygon fill="white" stroke="#666666" points="472,-432 348,-432 348,-413 472,-413 472,-432"/>
<text text-anchor="middle" x="410" y="-420" font-family="Helvetica,sans-Serif" font-size="10.00">addUniqueConnection</text>
</a>
</g>
</g>
<!-- Node7&#45;&gt;Node8 -->
<g id="edge7_Node000007_Node000008" class="edge">
<title>Node7&#45;&gt;Node8</title>
<g id="a_edge7_Node000007_Node000008"><a xlink:title=" ">
<path fill="none" stroke="#63b8ff" d="M252.01,-356.1C274.64,-366.84 312.68,-384.57 346,-398.5 354.8,-402.18 364.39,-405.95 373.36,-409.38"/>
<polygon fill="#63b8ff" stroke="#63b8ff" points="372.21,-412.68 382.8,-412.95 374.68,-406.14 372.21,-412.68"/>
</a>
</g>
</g>
<!-- Node9 -->
<g id="Node000009" class="node">
<title>Node9</title>
<g id="a_Node000009"><a xlink:href="classrcIntArray.html#ae52f6cd7ffdd2dba00f6f006853dc441" target="_top" xlink:title=" ">
<polygon fill="white" stroke="#666666" points="618,-423 525,-423 525,-404 618,-404 618,-423"/>
<text text-anchor="middle" x="571.5" y="-411" font-family="Helvetica,sans-Serif" font-size="10.00">rcIntArray::push</text>
</a>
</g>
</g>
<!-- Node7&#45;&gt;Node9 -->
<g id="edge21_Node000007_Node000009" class="edge">
<title>Node7&#45;&gt;Node9</title>
<g id="a_edge21_Node000007_Node000009"><a xlink:title=" ">
<path fill="none" stroke="#63b8ff" d="M280.14,-356.03C342.08,-368.29 449.46,-389.54 514.84,-402.48"/>
<polygon fill="#63b8ff" stroke="#63b8ff" points="514.47,-405.98 524.96,-404.49 515.83,-399.11 514.47,-405.98"/>
</a>
</g>
</g>
<!-- Node10 -->
<g id="Node000010" class="node">
<title>Node10</title>
<g id="a_Node000010"><a xlink:href="classrcVectorBase.html#a9a9a0bae26bd80346a174dbb1848fc61" target="_top" xlink:title=" ">
<polygon fill="white" stroke="#666666" points="809.5,-385 671.5,-385 671.5,-366 809.5,-366 809.5,-385"/>
<text text-anchor="middle" x="740.5" y="-373" font-family="Helvetica,sans-Serif" font-size="10.00">rcVectorBase::push_back</text>
</a>
</g>
</g>
<!-- Node7&#45;&gt;Node10 -->
<g id="edge22_Node000007_Node000010" class="edge">
<title>Node7&#45;&gt;Node10</title>
<g id="a_edge22_Node000007_Node000010"><a xlink:title=" ">
<path fill="none" stroke="#63b8ff" d="M310.18,-350.97C405.55,-356.42 565.82,-365.58 661.23,-371.03"/>
<polygon fill="#63b8ff" stroke="#63b8ff" points="661.21,-374.53 671.39,-371.61 661.61,-367.54 661.21,-374.53"/>
</a>
</g>
</g>
<!-- Node13 -->
<g id="Node000013" class="node">
<title>Node13</title>
<g id="a_Node000013"><a xlink:href="classrcIntArray.html#af17b8fb439ac8121af044d4f4d13753c" target="_top" xlink:title=" ">
<polygon fill="white" stroke="#666666" points="616,-469 527,-469 527,-450 616,-450 616,-469"/>
<text text-anchor="middle" x="571.5" y="-457" font-family="Helvetica,sans-Serif" font-size="10.00">rcIntArray::size</text>
</a>
</g>
</g>
<!-- Node7&#45;&gt;Node13 -->
<g id="edge34_Node000007_Node000013" class="edge">
<title>Node7&#45;&gt;Node13</title>
<g id="a_edge34_Node000007_Node000013"><a xlink:title=" ">
<path fill="none" stroke="#63b8ff" d="M236.67,-356.29C249.65,-382.21 289.01,-452.42 346,-478.5 397.73,-502.17 417.38,-484.02 474,-478.5 489.47,-476.99 506.13,-474.16 521.19,-471.13"/>
<polygon fill="#63b8ff" stroke="#63b8ff" points="522.24,-474.48 531.32,-469.01 520.81,-467.63 522.24,-474.48"/>
</a>
</g>
</g>
<!-- Node15 -->
<g id="Node000015" class="node">
<title>Node15</title>
<g id="a_Node000015"><a xlink:href="RecastRegion_8cpp.html#a2c802a2c5fc0d5e7e5d95a19539ff9a6" target="_top" xlink:title=" ">
<polygon fill="white" stroke="#666666" points="474,-469 346,-469 346,-450 474,-450 474,-469"/>
<text text-anchor="middle" x="410" y="-457" font-family="Helvetica,sans-Serif" font-size="10.00">addUniqueFloorRegion</text>
</a>
</g>
</g>
<!-- Node7&#45;&gt;Node15 -->
<g id="edge14_Node000007_Node000015" class="edge">
<title>Node7&#45;&gt;Node15</title>
<g id="a_edge14_Node000007_Node000015"><a xlink:title=" ">
<path fill="none" stroke="#63b8ff" d="M240.77,-356.11C258.69,-375.19 301.59,-418.01 346,-441.5 349.46,-443.33 353.14,-445 356.9,-446.51"/>
<polygon fill="#63b8ff" stroke="#63b8ff" points="355.78,-449.82 366.37,-449.95 358.17,-443.24 355.78,-449.82"/>
</a>
</g>
</g>
<!-- Node16 -->
<g id="Node000016" class="node">
<title>Node16</title>
<g id="a_Node000016"><a xlink:href="classrcIntArray.html#a1e0b5e96e9aa5bc5e69b4952dd962292" target="_top" xlink:title=" ">
<polygon fill="white" stroke="#666666" points="457,-583 363,-583 363,-564 457,-564 457,-583"/>
<text text-anchor="middle" x="410" y="-571" font-family="Helvetica,sans-Serif" font-size="10.00">rcIntArray::clear</text>
</a>
</g>
</g>
<!-- Node7&#45;&gt;Node16 -->
<g id="edge17_Node000007_Node000016" class="edge">
<title>Node7&#45;&gt;Node16</title>
<g id="a_edge17_Node000007_Node000016"><a xlink:title=" ">
<path fill="none" stroke="#63b8ff" d="M237.55,-356.1C250.41,-378.4 283.22,-435.45 310,-483.5 326.27,-512.69 320.83,-527.53 346,-549.5 350.58,-553.49 355.88,-556.86 361.44,-559.68"/>
<polygon fill="#63b8ff" stroke="#63b8ff" points="360.38,-563.04 370.94,-563.93 363.24,-556.65 360.38,-563.04"/>
</a>
</g>
</g>
<!-- Node7&#45;&gt;Node19 -->
<g id="edge23_Node000007_Node000019" class="edge">
<title>Node7&#45;&gt;Node19</title>
<g id="a_edge23_Node000007_Node000019"><a xlink:title=" ">
<path fill="none" stroke="#63b8ff" d="M252.01,-336.9C274.64,-326.16 312.68,-308.43 346,-294.5 354.8,-290.82 364.39,-287.05 373.36,-283.62"/>
<polygon fill="#63b8ff" stroke="#63b8ff" points="374.68,-286.86 382.8,-280.05 372.21,-280.32 374.68,-286.86"/>
</a>
</g>
</g>
<!-- Node7&#45;&gt;Node20 -->
<g id="edge24_Node000007_Node000020" class="edge">
<title>Node7&#45;&gt;Node20</title>
<g id="a_edge24_Node000007_Node000020"><a xlink:title=" ">
<path fill="none" stroke="#63b8ff" d="M241.1,-336.76C259.28,-317.85 302.12,-275.97 346,-252.5 350.19,-250.26 354.67,-248.25 359.26,-246.45"/>
<polygon fill="#63b8ff" stroke="#63b8ff" points="360.5,-249.72 368.72,-243.04 358.13,-243.13 360.5,-249.72"/>
</a>
</g>
</g>
<!-- Node7&#45;&gt;Node21 -->
<g id="edge25_Node000007_Node000021" class="edge">
<title>Node7&#45;&gt;Node21</title>
<g id="a_edge25_Node000007_Node000021"><a xlink:title=" ">
<path fill="none" stroke="#63b8ff" d="M237.59,-336.97C252.22,-312.87 294.09,-249.05 346,-215.5 349.16,-213.46 352.55,-211.63 356.06,-209.99"/>
<polygon fill="#63b8ff" stroke="#63b8ff" points="357.63,-213.12 365.54,-206.07 354.97,-206.65 357.63,-213.12"/>
</a>
</g>
</g>
<!-- Node7&#45;&gt;Node22 -->
<g id="edge26_Node000007_Node000022" class="edge">
<title>Node7&#45;&gt;Node22</title>
<g id="a_edge26_Node000007_Node000022"><a xlink:title=" ">
<path fill="none" stroke="#63b8ff" d="M235.77,-336.83C247.49,-308.11 286.07,-222.54 346,-178.5 354.84,-172.01 365.91,-167.71 376.29,-164.88"/>
<polygon fill="#63b8ff" stroke="#63b8ff" points="377.41,-168.21 386.34,-162.51 375.8,-161.4 377.41,-168.21"/>
</a>
</g>
</g>
<!-- Node7&#45;&gt;Node23 -->
<g id="edge27_Node000007_Node000023" class="edge">
<title>Node7&#45;&gt;Node23</title>
<g id="a_edge27_Node000007_Node000023"><a xlink:title=" ">
<path fill="none" stroke="#63b8ff" d="M234.54,-336.55C243.56,-303.32 277.22,-195.2 346,-140.5 355.04,-133.31 366.82,-128.99 377.75,-126.4"/>
<polygon fill="#63b8ff" stroke="#63b8ff" points="378.71,-129.78 387.84,-124.4 377.35,-122.91 378.71,-129.78"/>
</a>
</g>
</g>
<!-- Node24 -->
<g id="Node000024" class="node">
<title>Node24</title>
<g id="a_Node000024"><a xlink:href="classrcVectorBase.html#a1177670bcc87add05f0e060e93b5e6bd" target="_top" xlink:title=" ">
<polygon fill="white" stroke="#666666" points="633,-318 510,-318 510,-299 633,-299 633,-318"/>
<text text-anchor="middle" x="571.5" y="-306" font-family="Helvetica,sans-Serif" font-size="10.00">rcVectorBase::reserve</text>
</a>
</g>
</g>
<!-- Node7&#45;&gt;Node24 -->
<g id="edge28_Node000007_Node000024" class="edge">
<title>Node7&#45;&gt;Node24</title>
<g id="a_edge28_Node000007_Node000024"><a xlink:title=" ">
<path fill="none" stroke="#63b8ff" d="M308.02,-337C320.7,-335.46 333.72,-333.91 346,-332.5 397.48,-326.59 455.66,-320.38 499.89,-315.76"/>
<polygon fill="#63b8ff" stroke="#63b8ff" points="500.38,-319.23 509.97,-314.71 499.66,-312.27 500.38,-319.23"/>
</a>
</g>
</g>
<!-- Node25 -->
<g id="Node000025" class="node">
<title>Node25</title>
<g id="a_Node000025"><a xlink:href="classrcVectorBase.html#a7b39b29cfdec8a9cd2aca4a7f0f7a675" target="_top" xlink:title=" ">
<polygon fill="white" stroke="#666666" points="629.5,-506 513.5,-506 513.5,-487 629.5,-487 629.5,-506"/>
<text text-anchor="middle" x="571.5" y="-494" font-family="Helvetica,sans-Serif" font-size="10.00">rcVectorBase::resize</text>
</a>
</g>
</g>
<!-- Node7&#45;&gt;Node25 -->
<g id="edge30_Node000007_Node000025" class="edge">
<title>Node7&#45;&gt;Node25</title>
<g id="a_edge30_Node000007_Node000025"><a xlink:title=" ">
<path fill="none" stroke="#63b8ff" d="M235.74,-356.4C247.1,-384.84 284.25,-466.75 346,-497.5 402.56,-525.67 477.51,-517.76 524.88,-508.17"/>
<polygon fill="#63b8ff" stroke="#63b8ff" points="525.79,-511.56 534.84,-506.05 524.33,-504.71 525.79,-511.56"/>
</a>
</g>
</g>
<!-- Node8&#45;&gt;Node9 -->
<g id="edge8_Node000008_Node000009" class="edge">
<title>Node8&#45;&gt;Node9</title>
<g id="a_edge8_Node000008_Node000009"><a xlink:title=" ">
<path fill="none" stroke="#63b8ff" d="M472.21,-419.05C486.07,-418.26 500.72,-417.44 514.36,-416.67"/>
<polygon fill="#63b8ff" stroke="#63b8ff" points="514.78,-420.15 524.57,-416.09 514.39,-413.16 514.78,-420.15"/>
</a>
</g>
</g>
<!-- Node8&#45;&gt;Node13 -->
<g id="edge12_Node000008_Node000013" class="edge">
<title>Node8&#45;&gt;Node13</title>
<g id="a_edge12_Node000008_Node000013"><a xlink:title=" ">
<path fill="none" stroke="#63b8ff" d="M452.08,-432.03C472.65,-436.8 497.75,-442.62 519.54,-447.68"/>
<polygon fill="#63b8ff" stroke="#63b8ff" points="518.75,-451.09 529.29,-449.94 520.34,-444.27 518.75,-451.09"/>
</a>
</g>
</g>
<!-- Node9&#45;&gt;Node10 -->
<g id="edge9_Node000009_Node000010" class="edge">
<title>Node9&#45;&gt;Node10</title>
<g id="a_edge9_Node000009_Node000010"><a xlink:title=" ">
<path fill="none" stroke="#63b8ff" d="M614.64,-403.91C636.88,-398.85 664.35,-392.6 687.86,-387.25"/>
<polygon fill="#63b8ff" stroke="#63b8ff" points="688.69,-390.65 697.66,-385.02 687.13,-383.83 688.69,-390.65"/>
</a>
</g>
</g>
<!-- Node11 -->
<g id="Node000011" class="node">
<title>Node11</title>
<g id="a_Node000011"><a xlink:href="RecastAlloc_8cpp.html#a6fc4cfee655e24f94bad226f915ac397" target="_top" xlink:title=" ">
<polygon fill="white" stroke="#666666" points="895,-385 848,-385 848,-366 895,-366 895,-385"/>
<text text-anchor="middle" x="871.5" y="-373" font-family="Helvetica,sans-Serif" font-size="10.00">rcFree</text>
</a>
</g>
</g>
<!-- Node10&#45;&gt;Node11 -->
<g id="edge10_Node000010_Node000011" class="edge">
<title>Node10&#45;&gt;Node11</title>
<g id="a_edge10_Node000010_Node000011"><a xlink:title=" ">
<path fill="none" stroke="#63b8ff" d="M809.78,-375.5C819.47,-375.5 829.04,-375.5 837.62,-375.5"/>
<polygon fill="#63b8ff" stroke="#63b8ff" points="837.9,-379 847.9,-375.5 837.9,-372 837.9,-379"/>
</a>
</g>
</g>
<!-- Node12 -->
<g id="Node000012" class="node">
<title>Node12</title>
<g id="a_Node000012"><a xlink:href="fmt_2include_2fmt_2format_8h.html#adb6e274f8eb0b74b2865215e1b49c535" target="_top" xlink:title=" ">
<polygon fill="white" stroke="#666666" points="961,-385 931,-385 931,-366 961,-366 961,-385"/>
<text text-anchor="middle" x="946" y="-373" font-family="Helvetica,sans-Serif" font-size="10.00">ptr</text>
</a>
</g>
</g>
<!-- Node11&#45;&gt;Node12 -->
<g id="edge11_Node000011_Node000012" class="edge">
<title>Node11&#45;&gt;Node12</title>
<g id="a_edge11_Node000011_Node000012"><a xlink:title=" ">
<path fill="none" stroke="#63b8ff" d="M895.04,-375.5C903.13,-375.5 912.3,-375.5 920.54,-375.5"/>
<polygon fill="#63b8ff" stroke="#63b8ff" points="920.69,-379 930.69,-375.5 920.69,-372 920.69,-379"/>
</a>
</g>
</g>
<!-- Node14 -->
<g id="Node000014" class="node">
<title>Node14</title>
<g id="a_Node000014"><a xlink:href="classrcVectorBase.html#acfbb0217a292f75069614da62f6af0c7" target="_top" xlink:title=" ">
<polygon fill="white" stroke="#666666" points="793.5,-469 687.5,-469 687.5,-450 793.5,-450 793.5,-469"/>
<text text-anchor="middle" x="740.5" y="-457" font-family="Helvetica,sans-Serif" font-size="10.00">rcVectorBase::size</text>
</a>
</g>
</g>
<!-- Node13&#45;&gt;Node14 -->
<g id="edge13_Node000013_Node000014" class="edge">
<title>Node13&#45;&gt;Node14</title>
<g id="a_edge13_Node000013_Node000014"><a xlink:title=" ">
<path fill="none" stroke="#63b8ff" d="M616.38,-459.5C634.98,-459.5 656.99,-459.5 677.23,-459.5"/>
<polygon fill="#63b8ff" stroke="#63b8ff" points="677.31,-463 687.31,-459.5 677.31,-456 677.31,-463"/>
</a>
</g>
</g>
<!-- Node15&#45;&gt;Node9 -->
<g id="edge15_Node000015_Node000009" class="edge">
<title>Node15&#45;&gt;Node9</title>
<g id="a_edge15_Node000015_Node000009"><a xlink:title=" ">
<path fill="none" stroke="#63b8ff" d="M444.36,-450C453.93,-447.26 464.38,-444.27 474,-441.5 491.49,-436.46 510.76,-430.88 527.44,-426.03"/>
<polygon fill="#63b8ff" stroke="#63b8ff" points="528.83,-429.27 537.46,-423.12 526.88,-422.55 528.83,-429.27"/>
</a>
</g>
</g>
<!-- Node15&#45;&gt;Node13 -->
<g id="edge16_Node000015_Node000013" class="edge">
<title>Node15&#45;&gt;Node13</title>
<g id="a_edge16_Node000015_Node000013"><a xlink:title=" ">
<path fill="none" stroke="#63b8ff" d="M474.04,-459.5C488.06,-459.5 502.79,-459.5 516.41,-459.5"/>
<polygon fill="#63b8ff" stroke="#63b8ff" points="516.58,-463 526.58,-459.5 516.58,-456 516.58,-463"/>
</a>
</g>
</g>
<!-- Node17 -->
<g id="Node000017" class="node">
<title>Node17</title>
<g id="a_Node000017"><a xlink:href="classrcVectorBase.html#ac46ddcef1d2b88f2632debbb7e28474b" target="_top" xlink:title=" ">
<polygon fill="white" stroke="#666666" points="626.5,-580 516.5,-580 516.5,-561 626.5,-561 626.5,-580"/>
<text text-anchor="middle" x="571.5" y="-568" font-family="Helvetica,sans-Serif" font-size="10.00">rcVectorBase::clear</text>
</a>
</g>
</g>
<!-- Node16&#45;&gt;Node17 -->
<g id="edge18_Node000016_Node000017" class="edge">
<title>Node16&#45;&gt;Node17</title>
<g id="a_edge18_Node000016_Node000017"><a xlink:title=" ">
<path fill="none" stroke="#63b8ff" d="M457.13,-572.63C472.45,-572.34 489.79,-572.02 506.22,-571.71"/>
<polygon fill="#63b8ff" stroke="#63b8ff" points="506.37,-575.21 516.3,-571.52 506.24,-568.21 506.37,-575.21"/>
</a>
</g>
</g>
<!-- Node18 -->
<g id="Node000018" class="node">
<title>Node18</title>
<g id="a_Node000018"><a xlink:href="classrcVectorBase.html#abf5057e64a4eddc982e599fb97b5d32d" target="_top" xlink:title=" ">
<polygon fill="white" stroke="#666666" points="802,-582.5 679,-582.5 679,-552.5 802,-552.5 802,-582.5"/>
<text text-anchor="start" x="687" y="-570.5" font-family="Helvetica,sans-Serif" font-size="10.00">rcVectorBase::destroy</text>
<text text-anchor="middle" x="740.5" y="-559.5" font-family="Helvetica,sans-Serif" font-size="10.00">_range</text>
</a>
</g>
</g>
<!-- Node17&#45;&gt;Node18 -->
<g id="edge19_Node000017_Node000018" class="edge">
<title>Node17&#45;&gt;Node18</title>
<g id="a_edge19_Node000017_Node000018"><a xlink:title=" ">
<path fill="none" stroke="#63b8ff" d="M626.72,-569.53C640.13,-569.29 654.7,-569.02 668.77,-568.77"/>
<polygon fill="#63b8ff" stroke="#63b8ff" points="668.97,-572.27 678.9,-568.59 668.84,-565.27 668.97,-572.27"/>
</a>
</g>
</g>
<!-- Node24&#45;&gt;Node11 -->
<g id="edge29_Node000024_Node000011" class="edge">
<title>Node24&#45;&gt;Node11</title>
<g id="a_edge29_Node000024_Node000011"><a xlink:title=" ">
<path fill="none" stroke="#63b8ff" d="M626.58,-318.02C675.35,-326.97 748.88,-341.37 812,-357.5 820.58,-359.69 829.78,-362.37 838.28,-364.98"/>
<polygon fill="#63b8ff" stroke="#63b8ff" points="837.27,-368.33 847.86,-367.98 839.37,-361.65 837.27,-368.33"/>
</a>
</g>
</g>
<!-- Node25&#45;&gt;Node14 -->
<g id="edge33_Node000025_Node000014" class="edge">
<title>Node25&#45;&gt;Node14</title>
<g id="a_edge33_Node000025_Node000014"><a xlink:title=" ">
<path fill="none" stroke="#63b8ff" d="M615.51,-486.97C637.14,-482.18 663.56,-476.32 686.45,-471.25"/>
<polygon fill="#63b8ff" stroke="#63b8ff" points="687.34,-474.64 696.35,-469.06 685.83,-467.81 687.34,-474.64"/>
</a>
</g>
</g>
<!-- Node26 -->
<g id="Node000026" class="node">
<title>Node26</title>
<g id="a_Node000026"><a xlink:href="classrcVectorBase.html#a1b9d2e0ea48860664a245add0e5bfa28" target="_top" xlink:title=" ">
<polygon fill="white" stroke="#666666" points="812,-506 669,-506 669,-487 812,-487 812,-506"/>
<text text-anchor="middle" x="740.5" y="-494" font-family="Helvetica,sans-Serif" font-size="10.00">rcVectorBase::resize_impl</text>
</a>
</g>
</g>
<!-- Node25&#45;&gt;Node26 -->
<g id="edge31_Node000025_Node000026" class="edge">
<title>Node25&#45;&gt;Node26</title>
<g id="a_edge31_Node000025_Node000026"><a xlink:title=" ">
<path fill="none" stroke="#63b8ff" d="M629.5,-496.5C638.9,-496.5 648.8,-496.5 658.65,-496.5"/>
<polygon fill="#63b8ff" stroke="#63b8ff" points="658.87,-500 668.87,-496.5 658.87,-493 658.87,-500"/>
</a>
</g>
</g>
<!-- Node26&#45;&gt;Node11 -->
<g id="edge32_Node000026_Node000011" class="edge">
<title>Node26&#45;&gt;Node11</title>
<g id="a_edge32_Node000026_Node000011"><a xlink:title=" ">
<path fill="none" stroke="#63b8ff" d="M797.38,-486.85C802.6,-484.62 807.58,-481.87 812,-478.5 839.94,-457.17 856.65,-418.4 864.67,-395"/>
<polygon fill="#63b8ff" stroke="#63b8ff" points="868.1,-395.75 867.84,-385.16 861.44,-393.61 868.1,-395.75"/>
</a>
</g>
</g>
</g>
</svg>

<g id="navigator" transform="translate(0 0)" fill="#404254">
  <rect fill="#f2f5e9" fill-opacity="0.5" stroke="#606060" stroke-width=".5" x="0" y="0" width="60" height="60"/>
  <use id="zoomplus" xlink:href="#zoomPlus" x="17" y="9" onmousedown="handleZoom(evt,'in')"/>
  <use id="zoomminus" xlink:href="#zoomMin" x="42" y="9" onmousedown="handleZoom(evt,'out')"/>
  <use id="reset" xlink:href="#resetDef" x="30" y="36" onmousedown="handleReset()"/>
   <use id="arrowup" xlink:href="#arrowUp" x="0" y="0" onmousedown="handlePan(0,-1)"/>
  <use id="arrowright" xlink:href="#arrowRight" x="0" y="0" onmousedown="handlePan(1,0)"/>
  <use id="arrowdown" xlink:href="#arrowDown" x="0" y="0" onmousedown="handlePan(0,1)"/>
  <use id="arrowleft" xlink:href="#arrowLeft" x="0" y="0" onmousedown="handlePan(-1,0)"/>
</g>
<svg viewBox="0 0 15 15" width="100%" height="30px" preserveAspectRatio="xMaxYMin meet">
 <g id="arrow_out" transform="scale(0.3 0.3)">
  <a xlink:href="RecastRegion_8cpp_a1a29a95eba7d16654f2834d517f81c57_cgraph_org.svg" target="_base">
   <rect id="button" ry="5" rx="5" y="6" x="6" height="38" width="38"
        fill="#f2f5e9" fill-opacity="0.5" stroke="#606060" stroke-width="1.0"/>
   <path id="arrow"
     d="M 11.500037,31.436501 C 11.940474,20.09759 22.043105,11.32322 32.158766,21.979434 L 37.068811,17.246167 C 37.068811,17.246167 37.088388,32 37.088388,32 L 22.160133,31.978069 C 22.160133,31.978069 26.997745,27.140456 26.997745,27.140456 C 18.528582,18.264221 13.291696,25.230495 11.500037,31.436501 z"
     style="fill:#404040;"/>
  </a>
 </g>
</svg>

<style type='text/css'>
<![CDATA[
[data-mouse-over-selected='false'] { opacity: 0.7; }
[data-mouse-over-selected='true']  { opacity: 1.0; }
]]>
</style>
<script type="application/ecmascript"><![CDATA[
document.addEventListener('DOMContentLoaded', (event) => {
  highlightEdges();
  highlightAdjacentNodes();
});
]]></script>
</svg>
