<?xml version="1.0" encoding="UTF-8" standalone="no"?>
<!DOCTYPE svg PUBLIC "-//W3C//DTD SVG 1.1//EN"
 "http://www.w3.org/Graphics/SVG/1.1/DTD/svg11.dtd">
<!-- Generated by graphviz version 2.43.0 (0)
 -->
<!-- Title: rsa_import Pages: 1 -->
<!--zoomable 195 -->

<svg id="main" version="1.1" xmlns="http://www.w3.org/2000/svg" xmlns:xlink="http://www.w3.org/1999/xlink" xml:space="preserve" onload="init(evt)">
<style type="text/css"><![CDATA[
.node, .edge {opacity: 0.7;}
.node.selected, .edge.selected {opacity: 1;}
.edge:hover path { stroke: red; }
.edge:hover polygon { stroke: red; fill: red; }
]]></style>

<defs>
  <circle id="rim" cx="0" cy="0" r="7"/>
  <circle id="rim2" cx="0" cy="0" r="3.5"/>
  <g id="zoomPlus">
    <use xlink:href="#rim" fill="#404040"><set attributeName="fill" to="#808080" begin="zoomplus.mouseover" end="zoomplus.mouseout"/></use>
    <path d="M-4,0h8M0,-4v8" fill="none" stroke="white" stroke-width="1.5" pointer-events="none"/>
  </g>
  <g id="zoomMin">
    <use xlink:href="#rim" fill="#404040"><set attributeName="fill" to="#808080" begin="zoomminus.mouseover" end="zoomminus.mouseout"/></use>
    <path d="M-4,0h8" fill="none" stroke="white" stroke-width="1.5" pointer-events="none"/>
  </g>
  <g id="arrowUp" transform="translate(30 24)">
    <use xlink:href="#rim"/>
    <path pointer-events="none" fill="none" stroke="white" stroke-width="1.5" d="M0,-3.0v7 M-2.5,-0.5L0,-3.0L2.5,-0.5"/>
  </g>
  <g id="arrowRight" transform="rotate(90) translate(36 -43)">
    <use xlink:href="#rim"/>
    <path pointer-events="none" fill="none" stroke="white" stroke-width="1.5" d="M0,-3.0v7 M-2.5,-0.5L0,-3.0L2.5,-0.5"/>
  </g>
  <g id="arrowDown" transform="rotate(180) translate(-30 -48)">
    <use xlink:href="#rim"/>
    <path pointer-events="none" fill="none" stroke="white" stroke-width="1.5" d="M0,-3.0v7 M-2.5,-0.5L0,-3.0L2.5,-0.5"/>
  </g>
  <g id="arrowLeft" transform="rotate(270) translate(-36 17)">
    <use xlink:href="#rim"/>
    <path pointer-events="none" fill="none" stroke="white" stroke-width="1.5" d="M0,-3.0v7 M-2.5,-0.5L0,-3.0L2.5,-0.5"/>
  </g>
  <g id="resetDef">
    <use xlink:href="#rim2" fill="#404040"><set attributeName="fill" to="#808080" begin="reset.mouseover" end="reset.mouseout"/></use>
  </g>
</defs>
<script type="application/ecmascript">
var viewWidth = 1147;
var viewHeight = 195;
var sectionId = 'dynsection-3';
</script>
<script type="application/ecmascript" xlink:href="svg.min.js"/>
<svg id="graph" class="graph">
<g id="viewport">
<title>rsa_import</title>
<!-- Node1 -->
<g id="Node000001" class="node">
<title>Node1</title>
<g id="a_Node000001"><a xlink:title=" ">
<polygon fill="#999999" stroke="#666666" points="1139,-56 1070,-56 1070,-37 1139,-37 1139,-56"/>
<text text-anchor="middle" x="1104.5" y="-44" font-family="Helvetica,sans-Serif" font-size="10.00">rsa_import</text>
</a>
</g>
</g>
<!-- Node2 -->
<g id="Node000002" class="node">
<title>Node2</title>
<g id="a_Node000002"><a xlink:href="SFileVerify_8cpp.html#a5b8628e3bc3d3335f5f6b54c8b8c8342" target="_top" xlink:title=" ">
<polygon fill="white" stroke="#666666" points="1034,-56 919,-56 919,-37 1034,-37 1034,-56"/>
<text text-anchor="middle" x="976.5" y="-44" font-family="Helvetica,sans-Serif" font-size="10.00">decode_base64_key</text>
</a>
</g>
</g>
<!-- Node1&#45;&gt;Node2 -->
<g id="edge1_Node000001_Node000002" class="edge">
<title>Node1&#45;&gt;Node2</title>
<g id="a_edge1_Node000001_Node000002"><a xlink:title=" ">
<path fill="none" stroke="#63b8ff" d="M1059.64,-46.5C1051.44,-46.5 1042.75,-46.5 1034.23,-46.5"/>
<polygon fill="#63b8ff" stroke="#63b8ff" points="1059.73,-50 1069.73,-46.5 1059.73,-43 1059.73,-50"/>
</a>
</g>
</g>
<!-- Node3 -->
<g id="Node000003" class="node">
<title>Node3</title>
<g id="a_Node000003"><a xlink:href="SFileVerify_8cpp.html#ae9160e7f8935a9ce3dd140b97b4da2d3" target="_top" xlink:title=" ">
<polygon fill="white" stroke="#666666" points="846,-93 757,-93 757,-74 846,-74 846,-93"/>
<text text-anchor="middle" x="801.5" y="-81" font-family="Helvetica,sans-Serif" font-size="10.00">SSignFileFinish</text>
</a>
</g>
</g>
<!-- Node2&#45;&gt;Node3 -->
<g id="edge2_Node000002_Node000003" class="edge">
<title>Node2&#45;&gt;Node3</title>
<g id="a_edge2_Node000002_Node000003"><a xlink:title=" ">
<path fill="none" stroke="#63b8ff" d="M920.86,-58.19C896.71,-63.35 868.71,-69.34 846,-74.2"/>
<polygon fill="#63b8ff" stroke="#63b8ff" points="921.9,-61.54 930.95,-56.03 920.44,-54.7 921.9,-61.54"/>
</a>
</g>
</g>
<!-- Node15 -->
<g id="Node000015" class="node">
<title>Node15</title>
<g id="a_Node000015"><a xlink:href="SFileVerify_8cpp.html#aa674af66918633abc6aa494738f0aeaa" target="_top" xlink:title=" ">
<polygon fill="white" stroke="#666666" points="883,-56 720,-56 720,-37 883,-37 883,-56"/>
<text text-anchor="middle" x="801.5" y="-44" font-family="Helvetica,sans-Serif" font-size="10.00">VerifyStrongSignatureWithKey</text>
</a>
</g>
</g>
<!-- Node2&#45;&gt;Node15 -->
<g id="edge15_Node000002_Node000015" class="edge">
<title>Node2&#45;&gt;Node15</title>
<g id="a_edge15_Node000002_Node000015"><a xlink:title=" ">
<path fill="none" stroke="#63b8ff" d="M908.76,-46.5C900.37,-46.5 891.71,-46.5 883.13,-46.5"/>
<polygon fill="#63b8ff" stroke="#63b8ff" points="908.85,-50 918.85,-46.5 908.85,-43 908.85,-50"/>
</a>
</g>
</g>
<!-- Node17 -->
<g id="Node000017" class="node">
<title>Node17</title>
<g id="a_Node000017"><a xlink:href="SFileVerify_8cpp.html#aae5a40ce2a08aed477fbb6be02620d42" target="_top" xlink:title=" ">
<polygon fill="white" stroke="#666666" points="682,-19 564,-19 564,0 682,0 682,-19"/>
<text text-anchor="middle" x="623" y="-7" font-family="Helvetica,sans-Serif" font-size="10.00">VerifyWeakSignature</text>
</a>
</g>
</g>
<!-- Node2&#45;&gt;Node17 -->
<g id="edge18_Node000002_Node000017" class="edge">
<title>Node2&#45;&gt;Node17</title>
<g id="a_edge18_Node000002_Node000017"><a xlink:title=" ">
<path fill="none" stroke="#63b8ff" d="M924.66,-34.79C911.18,-32.03 896.59,-29.36 883,-27.5 814.34,-18.1 734.73,-13.5 682.09,-11.32"/>
<polygon fill="#63b8ff" stroke="#63b8ff" points="924.21,-38.27 934.72,-36.9 925.65,-31.42 924.21,-38.27"/>
</a>
</g>
</g>
<!-- Node4 -->
<g id="Node000004" class="node">
<title>Node4</title>
<g id="a_Node000004"><a xlink:href="SFileOpenArchive_8cpp.html#a5f3daefb5c0d87a791fcc42ec40714d2" target="_top" xlink:title=" ">
<polygon fill="white" stroke="#666666" points="674.5,-93 571.5,-93 571.5,-74 674.5,-74 674.5,-93"/>
<text text-anchor="middle" x="623" y="-81" font-family="Helvetica,sans-Serif" font-size="10.00">SFileFlushArchive</text>
</a>
</g>
</g>
<!-- Node3&#45;&gt;Node4 -->
<g id="edge3_Node000003_Node000004" class="edge">
<title>Node3&#45;&gt;Node4</title>
<g id="a_edge3_Node000003_Node000004"><a xlink:title=" ">
<path fill="none" stroke="#63b8ff" d="M746.63,-83.5C723.73,-83.5 697.17,-83.5 674.63,-83.5"/>
<polygon fill="#63b8ff" stroke="#63b8ff" points="746.87,-87 756.87,-83.5 746.87,-80 746.87,-87"/>
</a>
</g>
</g>
<!-- Node5 -->
<g id="Node000005" class="node">
<title>Node5</title>
<g id="a_Node000005"><a xlink:href="SFileOpenArchive_8cpp.html#abe1ae9917ea665286bffd1524561fceb" target="_top" xlink:title=" ">
<polygon fill="white" stroke="#666666" points="518,-130 414,-130 414,-111 518,-111 518,-130"/>
<text text-anchor="middle" x="466" y="-118" font-family="Helvetica,sans-Serif" font-size="10.00">SFileCloseArchive</text>
</a>
</g>
</g>
<!-- Node4&#45;&gt;Node5 -->
<g id="edge4_Node000004_Node000005" class="edge">
<title>Node4&#45;&gt;Node5</title>
<g id="a_edge4_Node000004_Node000005"><a xlink:title=" ">
<path fill="none" stroke="#63b8ff" d="M572.33,-95.36C551.24,-100.39 526.97,-106.18 507.05,-110.94"/>
<polygon fill="#63b8ff" stroke="#63b8ff" points="573.17,-98.75 582.08,-93.03 571.54,-91.95 573.17,-98.75"/>
</a>
</g>
</g>
<!-- Node13 -->
<g id="Node000013" class="node">
<title>Node13</title>
<g id="a_Node000013"><a xlink:href="SFileCompactArchive_8cpp.html#a1f69563fd3a57c5bdb3aaf6e4b5bd86c" target="_top" xlink:title=" ">
<polygon fill="white" stroke="#666666" points="526,-93 406,-93 406,-74 526,-74 526,-93"/>
<text text-anchor="middle" x="466" y="-81" font-family="Helvetica,sans-Serif" font-size="10.00">SFileCompactArchive</text>
</a>
</g>
</g>
<!-- Node4&#45;&gt;Node13 -->
<g id="edge13_Node000004_Node000013" class="edge">
<title>Node4&#45;&gt;Node13</title>
<g id="a_edge13_Node000004_Node000013"><a xlink:title=" ">
<path fill="none" stroke="#63b8ff" d="M560.93,-83.5C549.5,-83.5 537.58,-83.5 526.22,-83.5"/>
<polygon fill="#63b8ff" stroke="#63b8ff" points="561.25,-87 571.25,-83.5 561.25,-80 561.25,-87"/>
</a>
</g>
</g>
<!-- Node14 -->
<g id="Node000014" class="node">
<title>Node14</title>
<g id="a_Node000014"><a xlink:href="SFileVerify_8cpp.html#a5d1f891bd3e6c98a94a13cc5745ae6f4" target="_top" xlink:title=" ">
<polygon fill="white" stroke="#666666" points="518,-56 414,-56 414,-37 518,-37 518,-56"/>
<text text-anchor="middle" x="466" y="-44" font-family="Helvetica,sans-Serif" font-size="10.00">SFileVerifyArchive</text>
</a>
</g>
</g>
<!-- Node4&#45;&gt;Node14 -->
<g id="edge14_Node000004_Node000014" class="edge">
<title>Node4&#45;&gt;Node14</title>
<g id="a_edge14_Node000004_Node000014"><a xlink:title=" ">
<path fill="none" stroke="#63b8ff" d="M572.33,-71.64C551.24,-66.61 526.97,-60.82 507.05,-56.06"/>
<polygon fill="#63b8ff" stroke="#63b8ff" points="571.54,-75.05 582.08,-73.97 573.17,-68.25 571.54,-75.05"/>
</a>
</g>
</g>
<!-- Node6 -->
<g id="Node000006" class="node">
<title>Node6</title>
<g id="a_Node000006"><a xlink:href="ToolsCataMop_2vmap__tools_2vmap4__extractor_2vmapexport_8cpp.html#a3c04138a5bfe5d72780bb7e82a18e627" target="_top" xlink:title=" ">
<polygon fill="white" stroke="#666666" points="326.5,-187 285.5,-187 285.5,-168 326.5,-168 326.5,-187"/>
<text text-anchor="middle" x="306" y="-175" font-family="Helvetica,sans-Serif" font-size="10.00">main</text>
</a>
</g>
</g>
<!-- Node5&#45;&gt;Node6 -->
<g id="edge5_Node000005_Node000006" class="edge">
<title>Node5&#45;&gt;Node6</title>
<g id="a_edge5_Node000005_Node000006"><a xlink:title=" ">
<path fill="none" stroke="#63b8ff" d="M428.74,-133.58C396.96,-145.04 351.98,-161.27 326.54,-170.45"/>
<polygon fill="#63b8ff" stroke="#63b8ff" points="430.34,-136.73 438.55,-130.04 427.96,-130.14 430.34,-136.73"/>
</a>
</g>
</g>
<!-- Node7 -->
<g id="Node000007" class="node">
<title>Node7</title>
<g id="a_Node000007"><a xlink:href="src_2tools_2ToolsCataMop_2map__extractor_2System_8cpp.html#ad338a7dbc41dc40bcecd0479377ef207" target="_top" xlink:title=" ">
<polygon fill="white" stroke="#666666" points="41,-93 0,-93 0,-74 41,-74 41,-93"/>
<text text-anchor="middle" x="20.5" y="-81" font-family="Helvetica,sans-Serif" font-size="10.00">main</text>
</a>
</g>
</g>
<!-- Node5&#45;&gt;Node7 -->
<g id="edge6_Node000005_Node000007" class="edge">
<title>Node5&#45;&gt;Node7</title>
<g id="a_edge6_Node000005_Node000007"><a xlink:title=" ">
<path fill="none" stroke="#63b8ff" d="M403.59,-131.25C325.73,-142.47 188.22,-154.17 77,-120.5 59.49,-115.2 42.45,-102.35 31.97,-93.28"/>
<polygon fill="#63b8ff" stroke="#63b8ff" points="404.34,-134.67 413.71,-129.74 403.31,-127.75 404.34,-134.67"/>
</a>
</g>
</g>
<!-- Node8 -->
<g id="Node000008" class="node">
<title>Node8</title>
<g id="a_Node000008"><a xlink:href="SFileCreateArchive_8cpp.html#aa2b6fa8f16b5ac42868c546533fe26ce" target="_top" xlink:title=" ">
<polygon fill="white" stroke="#666666" points="363.5,-111 248.5,-111 248.5,-92 363.5,-92 363.5,-111"/>
<text text-anchor="middle" x="306" y="-99" font-family="Helvetica,sans-Serif" font-size="10.00">SFileCreateArchive2</text>
</a>
</g>
</g>
<!-- Node5&#45;&gt;Node8 -->
<g id="edge7_Node000005_Node000008" class="edge">
<title>Node5&#45;&gt;Node8</title>
<g id="a_edge7_Node000005_Node000008"><a xlink:title=" ">
<path fill="none" stroke="#63b8ff" d="M403.74,-113.13C390.5,-111.54 376.55,-109.86 363.5,-108.29"/>
<polygon fill="#63b8ff" stroke="#63b8ff" points="403.36,-116.61 413.7,-114.33 404.19,-109.66 403.36,-116.61"/>
</a>
</g>
</g>
<!-- Node10 -->
<g id="Node000010" class="node">
<title>Node10</title>
<g id="a_Node000010"><a xlink:href="SFilePatchArchives_8cpp.html#a6daebdc66320d44284e960bbff33e886" target="_top" xlink:title=" ">
<polygon fill="white" stroke="#666666" points="370,-74 242,-74 242,-55 370,-55 370,-74"/>
<text text-anchor="middle" x="306" y="-62" font-family="Helvetica,sans-Serif" font-size="10.00">SFileOpenPatchArchive</text>
</a>
</g>
</g>
<!-- Node5&#45;&gt;Node10 -->
<g id="edge9_Node000005_Node000010" class="edge">
<title>Node5&#45;&gt;Node10</title>
<g id="a_edge9_Node000005_Node000010"><a xlink:title=" ">
<path fill="none" stroke="#63b8ff" d="M422.1,-107.66C416.63,-105.74 411.14,-103.67 406,-101.5 389.33,-94.48 386.79,-89.24 370,-82.5 362.08,-79.32 353.4,-76.46 345.07,-74"/>
<polygon fill="#63b8ff" stroke="#63b8ff" points="421.27,-111.07 431.86,-110.95 423.5,-104.44 421.27,-111.07"/>
</a>
</g>
</g>
<!-- Node9 -->
<g id="Node000009" class="node">
<title>Node9</title>
<g id="a_Node000009"><a xlink:href="SFileCreateArchive_8cpp.html#a11342f379ed88e7b54873f1f53feb773" target="_top" xlink:title=" ">
<polygon fill="white" stroke="#666666" points="196,-111 87,-111 87,-92 196,-92 196,-111"/>
<text text-anchor="middle" x="141.5" y="-99" font-family="Helvetica,sans-Serif" font-size="10.00">SFileCreateArchive</text>
</a>
</g>
</g>
<!-- Node8&#45;&gt;Node9 -->
<g id="edge8_Node000008_Node000009" class="edge">
<title>Node8&#45;&gt;Node9</title>
<g id="a_edge8_Node000008_Node000009"><a xlink:title=" ">
<path fill="none" stroke="#63b8ff" d="M238.09,-101.5C224.08,-101.5 209.48,-101.5 196.03,-101.5"/>
<polygon fill="#63b8ff" stroke="#63b8ff" points="238.17,-105 248.17,-101.5 238.17,-98 238.17,-105"/>
</a>
</g>
</g>
<!-- Node11 -->
<g id="Node000011" class="node">
<title>Node11</title>
<g id="a_Node000011"><a xlink:href="src_2tools_2ToolsCataMop_2map__extractor_2System_8cpp.html#a96f4674ddc505aeaeb150e5f7b9878a2" target="_top" xlink:title=" ">
<polygon fill="white" stroke="#666666" points="206,-74 77,-74 77,-55 206,-55 206,-74"/>
<text text-anchor="middle" x="141.5" y="-62" font-family="Helvetica,sans-Serif" font-size="10.00">LoadCommonMPQFiles</text>
</a>
</g>
</g>
<!-- Node10&#45;&gt;Node11 -->
<g id="edge10_Node000010_Node000011" class="edge">
<title>Node10&#45;&gt;Node11</title>
<g id="a_edge10_Node000010_Node000011"><a xlink:title=" ">
<path fill="none" stroke="#63b8ff" d="M231.48,-64.5C223.03,-64.5 214.46,-64.5 206.15,-64.5"/>
<polygon fill="#63b8ff" stroke="#63b8ff" points="231.71,-68 241.71,-64.5 231.71,-61 231.71,-68"/>
</a>
</g>
</g>
<!-- Node12 -->
<g id="Node000012" class="node">
<title>Node12</title>
<g id="a_Node000012"><a xlink:href="src_2tools_2ToolsCataMop_2map__extractor_2System_8cpp.html#a562161b09d33ce250de344b80d2fdf2c" target="_top" xlink:title=" ">
<polygon fill="white" stroke="#666666" points="197,-37 86,-37 86,-18 197,-18 197,-37"/>
<text text-anchor="middle" x="141.5" y="-25" font-family="Helvetica,sans-Serif" font-size="10.00">LoadLocaleMPQFile</text>
</a>
</g>
</g>
<!-- Node10&#45;&gt;Node12 -->
<g id="edge11_Node000010_Node000012" class="edge">
<title>Node10&#45;&gt;Node12</title>
<g id="a_edge11_Node000010_Node000012"><a xlink:title=" ">
<path fill="none" stroke="#63b8ff" d="M253.23,-52.71C231.04,-47.66 205.47,-41.84 184.49,-37.06"/>
<polygon fill="#63b8ff" stroke="#63b8ff" points="252.62,-56.16 263.15,-54.97 254.18,-49.34 252.62,-56.16"/>
</a>
</g>
</g>
<!-- Node12&#45;&gt;Node7 -->
<g id="edge12_Node000012_Node000007" class="edge">
<title>Node12&#45;&gt;Node7</title>
<g id="a_edge12_Node000012_Node000007"><a xlink:title=" ">
<path fill="none" stroke="#63b8ff" d="M89.8,-40.25C85.4,-41.84 81.08,-43.59 77,-45.5 60.72,-53.13 43.94,-65.33 33.16,-73.84"/>
<polygon fill="#63b8ff" stroke="#63b8ff" points="91.1,-43.5 99.48,-37.01 88.88,-36.86 91.1,-43.5"/>
</a>
</g>
</g>
<!-- Node16 -->
<g id="Node000016" class="node">
<title>Node16</title>
<g id="a_Node000016"><a xlink:href="SFileVerify_8cpp.html#ac839790f99e4249101c16dfdbf3b7982" target="_top" xlink:title=" ">
<polygon fill="white" stroke="#666666" points="684,-56 562,-56 562,-37 684,-37 684,-56"/>
<text text-anchor="middle" x="623" y="-44" font-family="Helvetica,sans-Serif" font-size="10.00">VerifyStrongSignature</text>
</a>
</g>
</g>
<!-- Node15&#45;&gt;Node16 -->
<g id="edge16_Node000015_Node000016" class="edge">
<title>Node15&#45;&gt;Node16</title>
<g id="a_edge16_Node000015_Node000016"><a xlink:title=" ">
<path fill="none" stroke="#63b8ff" d="M709.77,-46.5C701.05,-46.5 692.36,-46.5 684.05,-46.5"/>
<polygon fill="#63b8ff" stroke="#63b8ff" points="710,-50 720,-46.5 710,-43 710,-50"/>
</a>
</g>
</g>
<!-- Node16&#45;&gt;Node14 -->
<g id="edge17_Node000016_Node000014" class="edge">
<title>Node16&#45;&gt;Node14</title>
<g id="a_edge17_Node000016_Node000014"><a xlink:title=" ">
<path fill="none" stroke="#63b8ff" d="M551.48,-46.5C540.34,-46.5 529.01,-46.5 518.41,-46.5"/>
<polygon fill="#63b8ff" stroke="#63b8ff" points="551.63,-50 561.63,-46.5 551.63,-43 551.63,-50"/>
</a>
</g>
</g>
<!-- Node17&#45;&gt;Node14 -->
<g id="edge19_Node000017_Node000014" class="edge">
<title>Node17&#45;&gt;Node14</title>
<g id="a_edge19_Node000017_Node000014"><a xlink:title=" ">
<path fill="none" stroke="#63b8ff" d="M572.33,-21.36C551.24,-26.39 526.97,-32.18 507.05,-36.94"/>
<polygon fill="#63b8ff" stroke="#63b8ff" points="573.17,-24.75 582.08,-19.03 571.54,-17.95 573.17,-24.75"/>
</a>
</g>
</g>
</g>
</svg>

<g id="navigator" transform="translate(0 0)" fill="#404254">
  <rect fill="#f2f5e9" fill-opacity="0.5" stroke="#606060" stroke-width=".5" x="0" y="0" width="60" height="60"/>
  <use id="zoomplus" xlink:href="#zoomPlus" x="17" y="9" onmousedown="handleZoom(evt,'in')"/>
  <use id="zoomminus" xlink:href="#zoomMin" x="42" y="9" onmousedown="handleZoom(evt,'out')"/>
  <use id="reset" xlink:href="#resetDef" x="30" y="36" onmousedown="handleReset()"/>
   <use id="arrowup" xlink:href="#arrowUp" x="0" y="0" onmousedown="handlePan(0,-1)"/>
  <use id="arrowright" xlink:href="#arrowRight" x="0" y="0" onmousedown="handlePan(1,0)"/>
  <use id="arrowdown" xlink:href="#arrowDown" x="0" y="0" onmousedown="handlePan(0,1)"/>
  <use id="arrowleft" xlink:href="#arrowLeft" x="0" y="0" onmousedown="handlePan(-1,0)"/>
</g>
<svg viewBox="0 0 15 15" width="100%" height="30px" preserveAspectRatio="xMaxYMin meet">
 <g id="arrow_out" transform="scale(0.3 0.3)">
  <a xlink:href="rsa__import_8c_aa80aefb08a282afe02c308cc19879d05_icgraph_org.svg" target="_base">
   <rect id="button" ry="5" rx="5" y="6" x="6" height="38" width="38"
        fill="#f2f5e9" fill-opacity="0.5" stroke="#606060" stroke-width="1.0"/>
   <path id="arrow"
     d="M 11.500037,31.436501 C 11.940474,20.09759 22.043105,11.32322 32.158766,21.979434 L 37.068811,17.246167 C 37.068811,17.246167 37.088388,32 37.088388,32 L 22.160133,31.978069 C 22.160133,31.978069 26.997745,27.140456 26.997745,27.140456 C 18.528582,18.264221 13.291696,25.230495 11.500037,31.436501 z"
     style="fill:#404040;"/>
  </a>
 </g>
</svg>

<style type='text/css'>
<![CDATA[
[data-mouse-over-selected='false'] { opacity: 0.7; }
[data-mouse-over-selected='true']  { opacity: 1.0; }
]]>
</style>
<script type="application/ecmascript"><![CDATA[
document.addEventListener('DOMContentLoaded', (event) => {
  highlightEdges();
  highlightAdjacentNodes();
});
]]></script>
</svg>
