<?xml version="1.0" encoding="UTF-8" standalone="no"?>
<!DOCTYPE svg PUBLIC "-//W3C//DTD SVG 1.1//EN"
 "http://www.w3.org/Graphics/SVG/1.1/DTD/svg11.dtd">
<!-- Generated by graphviz version 2.43.0 (0)
 -->
<!-- Title: SaveExtTable Pages: 1 -->
<svg width="921pt" height="177pt"
 viewBox="0.00 0.00 921.00 177.00" xmlns="http://www.w3.org/2000/svg" xmlns:xlink="http://www.w3.org/1999/xlink">
<g id="graph0" class="graph" transform="scale(1 1) rotate(0) translate(4 173)">
<title>SaveExtTable</title>
<!-- Node1 -->
<g id="Node000001" class="node">
<title>Node1</title>
<g id="a_Node000001"><a xlink:title=" ">
<polygon fill="#999999" stroke="#666666" points="913,-75 831,-75 831,-56 913,-56 913,-75"/>
<text text-anchor="middle" x="872" y="-63" font-family="Helvetica,sans-Serif" font-size="10.00">SaveExtTable</text>
</a>
</g>
</g>
<!-- Node2 -->
<g id="Node000002" class="node">
<title>Node2</title>
<g id="a_Node000002"><a xlink:href="SBaseFileTable_8cpp.html#a1826714b12b5cc93cc07c29c4aa1eb1c" target="_top" xlink:title=" ">
<polygon fill="white" stroke="#666666" points="795,-75 701,-75 701,-56 795,-56 795,-75"/>
<text text-anchor="middle" x="748" y="-63" font-family="Helvetica,sans-Serif" font-size="10.00">SaveMPQTables</text>
</a>
</g>
</g>
<!-- Node1&#45;&gt;Node2 -->
<g id="edge1_Node000001_Node000002" class="edge">
<title>Node1&#45;&gt;Node2</title>
<g id="a_edge1_Node000001_Node000002"><a xlink:title=" ">
<path fill="none" stroke="#63b8ff" d="M820.62,-65.5C812.18,-65.5 803.48,-65.5 795.16,-65.5"/>
<polygon fill="#63b8ff" stroke="#63b8ff" points="820.71,-69 830.71,-65.5 820.71,-62 820.71,-69"/>
</a>
</g>
</g>
<!-- Node3 -->
<g id="Node000003" class="node">
<title>Node3</title>
<g id="a_Node000003"><a xlink:href="SFileOpenArchive_8cpp.html#a5f3daefb5c0d87a791fcc42ec40714d2" target="_top" xlink:title=" ">
<polygon fill="white" stroke="#666666" points="665,-75 562,-75 562,-56 665,-56 665,-75"/>
<text text-anchor="middle" x="613.5" y="-63" font-family="Helvetica,sans-Serif" font-size="10.00">SFileFlushArchive</text>
</a>
</g>
</g>
<!-- Node2&#45;&gt;Node3 -->
<g id="edge2_Node000002_Node000003" class="edge">
<title>Node2&#45;&gt;Node3</title>
<g id="a_edge2_Node000002_Node000003"><a xlink:title=" ">
<path fill="none" stroke="#63b8ff" d="M690.51,-65.5C682.07,-65.5 673.41,-65.5 665.11,-65.5"/>
<polygon fill="#63b8ff" stroke="#63b8ff" points="690.66,-69 700.66,-65.5 690.66,-62 690.66,-69"/>
</a>
</g>
</g>
<!-- Node4 -->
<g id="Node000004" class="node">
<title>Node4</title>
<g id="a_Node000004"><a xlink:href="SFileOpenArchive_8cpp.html#abe1ae9917ea665286bffd1524561fceb" target="_top" xlink:title=" ">
<polygon fill="white" stroke="#666666" points="518,-112 414,-112 414,-93 518,-93 518,-112"/>
<text text-anchor="middle" x="466" y="-100" font-family="Helvetica,sans-Serif" font-size="10.00">SFileCloseArchive</text>
</a>
</g>
</g>
<!-- Node3&#45;&gt;Node4 -->
<g id="edge3_Node000003_Node000004" class="edge">
<title>Node3&#45;&gt;Node4</title>
<g id="a_edge3_Node000003_Node000004"><a xlink:title=" ">
<path fill="none" stroke="#63b8ff" d="M565.34,-77.49C545.66,-82.5 523.13,-88.23 504.6,-92.94"/>
<polygon fill="#63b8ff" stroke="#63b8ff" points="566.2,-80.89 575.03,-75.03 564.48,-74.1 566.2,-80.89"/>
</a>
</g>
</g>
<!-- Node12 -->
<g id="Node000012" class="node">
<title>Node12</title>
<g id="a_Node000012"><a xlink:href="SFileCompactArchive_8cpp.html#a1f69563fd3a57c5bdb3aaf6e4b5bd86c" target="_top" xlink:title=" ">
<polygon fill="white" stroke="#666666" points="526,-75 406,-75 406,-56 526,-56 526,-75"/>
<text text-anchor="middle" x="466" y="-63" font-family="Helvetica,sans-Serif" font-size="10.00">SFileCompactArchive</text>
</a>
</g>
</g>
<!-- Node3&#45;&gt;Node12 -->
<g id="edge12_Node000003_Node000012" class="edge">
<title>Node3&#45;&gt;Node12</title>
<g id="a_edge12_Node000003_Node000012"><a xlink:title=" ">
<path fill="none" stroke="#63b8ff" d="M551.49,-65.5C543.08,-65.5 534.46,-65.5 526.09,-65.5"/>
<polygon fill="#63b8ff" stroke="#63b8ff" points="551.61,-69 561.61,-65.5 551.61,-62 551.61,-69"/>
</a>
</g>
</g>
<!-- Node13 -->
<g id="Node000013" class="node">
<title>Node13</title>
<g id="a_Node000013"><a xlink:href="SFileVerify_8cpp.html#a5d1f891bd3e6c98a94a13cc5745ae6f4" target="_top" xlink:title=" ">
<polygon fill="white" stroke="#666666" points="518,-38 414,-38 414,-19 518,-19 518,-38"/>
<text text-anchor="middle" x="466" y="-26" font-family="Helvetica,sans-Serif" font-size="10.00">SFileVerifyArchive</text>
</a>
</g>
</g>
<!-- Node3&#45;&gt;Node13 -->
<g id="edge13_Node000003_Node000013" class="edge">
<title>Node3&#45;&gt;Node13</title>
<g id="a_edge13_Node000003_Node000013"><a xlink:title=" ">
<path fill="none" stroke="#63b8ff" d="M565.34,-53.51C545.66,-48.5 523.13,-42.77 504.6,-38.06"/>
<polygon fill="#63b8ff" stroke="#63b8ff" points="564.48,-56.9 575.03,-55.97 566.2,-50.11 564.48,-56.9"/>
</a>
</g>
</g>
<!-- Node5 -->
<g id="Node000005" class="node">
<title>Node5</title>
<g id="a_Node000005"><a xlink:href="ToolsCataMop_2vmap__tools_2vmap4__extractor_2vmapexport_8cpp.html#a3c04138a5bfe5d72780bb7e82a18e627" target="_top" xlink:title=" ">
<polygon fill="white" stroke="#666666" points="326.5,-169 285.5,-169 285.5,-150 326.5,-150 326.5,-169"/>
<text text-anchor="middle" x="306" y="-157" font-family="Helvetica,sans-Serif" font-size="10.00">main</text>
</a>
</g>
</g>
<!-- Node4&#45;&gt;Node5 -->
<g id="edge4_Node000004_Node000005" class="edge">
<title>Node4&#45;&gt;Node5</title>
<g id="a_edge4_Node000004_Node000005"><a xlink:title=" ">
<path fill="none" stroke="#63b8ff" d="M428.74,-115.58C396.96,-127.04 351.98,-143.27 326.54,-152.45"/>
<polygon fill="#63b8ff" stroke="#63b8ff" points="430.34,-118.73 438.55,-112.04 427.96,-112.14 430.34,-118.73"/>
</a>
</g>
</g>
<!-- Node6 -->
<g id="Node000006" class="node">
<title>Node6</title>
<g id="a_Node000006"><a xlink:href="src_2tools_2ToolsCataMop_2map__extractor_2System_8cpp.html#ad338a7dbc41dc40bcecd0479377ef207" target="_top" xlink:title=" ">
<polygon fill="white" stroke="#666666" points="41,-75 0,-75 0,-56 41,-56 41,-75"/>
<text text-anchor="middle" x="20.5" y="-63" font-family="Helvetica,sans-Serif" font-size="10.00">main</text>
</a>
</g>
</g>
<!-- Node4&#45;&gt;Node6 -->
<g id="edge5_Node000004_Node000006" class="edge">
<title>Node4&#45;&gt;Node6</title>
<g id="a_edge5_Node000004_Node000006"><a xlink:title=" ">
<path fill="none" stroke="#63b8ff" d="M403.59,-113.25C325.73,-124.47 188.22,-136.17 77,-102.5 59.49,-97.2 42.45,-84.35 31.97,-75.28"/>
<polygon fill="#63b8ff" stroke="#63b8ff" points="404.34,-116.67 413.71,-111.74 403.31,-109.75 404.34,-116.67"/>
</a>
</g>
</g>
<!-- Node7 -->
<g id="Node000007" class="node">
<title>Node7</title>
<g id="a_Node000007"><a xlink:href="SFileCreateArchive_8cpp.html#aa2b6fa8f16b5ac42868c546533fe26ce" target="_top" xlink:title=" ">
<polygon fill="white" stroke="#666666" points="363.5,-93 248.5,-93 248.5,-74 363.5,-74 363.5,-93"/>
<text text-anchor="middle" x="306" y="-81" font-family="Helvetica,sans-Serif" font-size="10.00">SFileCreateArchive2</text>
</a>
</g>
</g>
<!-- Node4&#45;&gt;Node7 -->
<g id="edge6_Node000004_Node000007" class="edge">
<title>Node4&#45;&gt;Node7</title>
<g id="a_edge6_Node000004_Node000007"><a xlink:title=" ">
<path fill="none" stroke="#63b8ff" d="M403.74,-95.13C390.5,-93.54 376.55,-91.86 363.5,-90.29"/>
<polygon fill="#63b8ff" stroke="#63b8ff" points="403.36,-98.61 413.7,-96.33 404.19,-91.66 403.36,-98.61"/>
</a>
</g>
</g>
<!-- Node9 -->
<g id="Node000009" class="node">
<title>Node9</title>
<g id="a_Node000009"><a xlink:href="SFilePatchArchives_8cpp.html#a6daebdc66320d44284e960bbff33e886" target="_top" xlink:title=" ">
<polygon fill="white" stroke="#666666" points="370,-56 242,-56 242,-37 370,-37 370,-56"/>
<text text-anchor="middle" x="306" y="-44" font-family="Helvetica,sans-Serif" font-size="10.00">SFileOpenPatchArchive</text>
</a>
</g>
</g>
<!-- Node4&#45;&gt;Node9 -->
<g id="edge8_Node000004_Node000009" class="edge">
<title>Node4&#45;&gt;Node9</title>
<g id="a_edge8_Node000004_Node000009"><a xlink:title=" ">
<path fill="none" stroke="#63b8ff" d="M419.95,-89.73C415.19,-88.09 410.47,-86.34 406,-84.5 389.27,-77.61 386.74,-72.37 370,-65.5 361.44,-61.99 351.99,-58.8 343.07,-56.07"/>
<polygon fill="#63b8ff" stroke="#63b8ff" points="419.08,-93.13 429.67,-92.92 421.26,-86.48 419.08,-93.13"/>
</a>
</g>
</g>
<!-- Node8 -->
<g id="Node000008" class="node">
<title>Node8</title>
<g id="a_Node000008"><a xlink:href="SFileCreateArchive_8cpp.html#a11342f379ed88e7b54873f1f53feb773" target="_top" xlink:title=" ">
<polygon fill="white" stroke="#666666" points="196,-93 87,-93 87,-74 196,-74 196,-93"/>
<text text-anchor="middle" x="141.5" y="-81" font-family="Helvetica,sans-Serif" font-size="10.00">SFileCreateArchive</text>
</a>
</g>
</g>
<!-- Node7&#45;&gt;Node8 -->
<g id="edge7_Node000007_Node000008" class="edge">
<title>Node7&#45;&gt;Node8</title>
<g id="a_edge7_Node000007_Node000008"><a xlink:title=" ">
<path fill="none" stroke="#63b8ff" d="M238.09,-83.5C224.08,-83.5 209.48,-83.5 196.03,-83.5"/>
<polygon fill="#63b8ff" stroke="#63b8ff" points="238.17,-87 248.17,-83.5 238.17,-80 238.17,-87"/>
</a>
</g>
</g>
<!-- Node10 -->
<g id="Node000010" class="node">
<title>Node10</title>
<g id="a_Node000010"><a xlink:href="src_2tools_2ToolsCataMop_2map__extractor_2System_8cpp.html#a96f4674ddc505aeaeb150e5f7b9878a2" target="_top" xlink:title=" ">
<polygon fill="white" stroke="#666666" points="206,-56 77,-56 77,-37 206,-37 206,-56"/>
<text text-anchor="middle" x="141.5" y="-44" font-family="Helvetica,sans-Serif" font-size="10.00">LoadCommonMPQFiles</text>
</a>
</g>
</g>
<!-- Node9&#45;&gt;Node10 -->
<g id="edge9_Node000009_Node000010" class="edge">
<title>Node9&#45;&gt;Node10</title>
<g id="a_edge9_Node000009_Node000010"><a xlink:title=" ">
<path fill="none" stroke="#63b8ff" d="M231.48,-46.5C223.03,-46.5 214.46,-46.5 206.15,-46.5"/>
<polygon fill="#63b8ff" stroke="#63b8ff" points="231.71,-50 241.71,-46.5 231.71,-43 231.71,-50"/>
</a>
</g>
</g>
<!-- Node11 -->
<g id="Node000011" class="node">
<title>Node11</title>
<g id="a_Node000011"><a xlink:href="src_2tools_2ToolsCataMop_2map__extractor_2System_8cpp.html#a562161b09d33ce250de344b80d2fdf2c" target="_top" xlink:title=" ">
<polygon fill="white" stroke="#666666" points="197,-19 86,-19 86,0 197,0 197,-19"/>
<text text-anchor="middle" x="141.5" y="-7" font-family="Helvetica,sans-Serif" font-size="10.00">LoadLocaleMPQFile</text>
</a>
</g>
</g>
<!-- Node9&#45;&gt;Node11 -->
<g id="edge10_Node000009_Node000011" class="edge">
<title>Node9&#45;&gt;Node11</title>
<g id="a_edge10_Node000009_Node000011"><a xlink:title=" ">
<path fill="none" stroke="#63b8ff" d="M253.23,-34.71C231.04,-29.66 205.47,-23.84 184.49,-19.06"/>
<polygon fill="#63b8ff" stroke="#63b8ff" points="252.62,-38.16 263.15,-36.97 254.18,-31.34 252.62,-38.16"/>
</a>
</g>
</g>
<!-- Node11&#45;&gt;Node6 -->
<g id="edge11_Node000011_Node000006" class="edge">
<title>Node11&#45;&gt;Node6</title>
<g id="a_edge11_Node000011_Node000006"><a xlink:title=" ">
<path fill="none" stroke="#63b8ff" d="M89.8,-22.25C85.4,-23.84 81.08,-25.59 77,-27.5 60.72,-35.13 43.94,-47.33 33.16,-55.84"/>
<polygon fill="#63b8ff" stroke="#63b8ff" points="91.1,-25.5 99.48,-19.01 88.88,-18.86 91.1,-25.5"/>
</a>
</g>
</g>
</g>
</svg>
