<?xml version="1.0" encoding="UTF-8" standalone="no"?>
<!DOCTYPE svg PUBLIC "-//W3C//DTD SVG 1.1//EN"
 "http://www.w3.org/Graphics/SVG/1.1/DTD/svg11.dtd">
<!-- Generated by graphviz version 2.43.0 (0)
 -->
<!-- Title: Compress_ADPCM_stereo Pages: 1 -->
<!--zoomable 212 -->

<svg id="main" version="1.1" xmlns="http://www.w3.org/2000/svg" xmlns:xlink="http://www.w3.org/1999/xlink" xml:space="preserve" onload="init(evt)">
<style type="text/css"><![CDATA[
.node, .edge {opacity: 0.7;}
.node.selected, .edge.selected {opacity: 1;}
.edge:hover path { stroke: red; }
.edge:hover polygon { stroke: red; fill: red; }
]]></style>

<defs>
  <circle id="rim" cx="0" cy="0" r="7"/>
  <circle id="rim2" cx="0" cy="0" r="3.5"/>
  <g id="zoomPlus">
    <use xlink:href="#rim" fill="#404040"><set attributeName="fill" to="#808080" begin="zoomplus.mouseover" end="zoomplus.mouseout"/></use>
    <path d="M-4,0h8M0,-4v8" fill="none" stroke="white" stroke-width="1.5" pointer-events="none"/>
  </g>
  <g id="zoomMin">
    <use xlink:href="#rim" fill="#404040"><set attributeName="fill" to="#808080" begin="zoomminus.mouseover" end="zoomminus.mouseout"/></use>
    <path d="M-4,0h8" fill="none" stroke="white" stroke-width="1.5" pointer-events="none"/>
  </g>
  <g id="arrowUp" transform="translate(30 24)">
    <use xlink:href="#rim"/>
    <path pointer-events="none" fill="none" stroke="white" stroke-width="1.5" d="M0,-3.0v7 M-2.5,-0.5L0,-3.0L2.5,-0.5"/>
  </g>
  <g id="arrowRight" transform="rotate(90) translate(36 -43)">
    <use xlink:href="#rim"/>
    <path pointer-events="none" fill="none" stroke="white" stroke-width="1.5" d="M0,-3.0v7 M-2.5,-0.5L0,-3.0L2.5,-0.5"/>
  </g>
  <g id="arrowDown" transform="rotate(180) translate(-30 -48)">
    <use xlink:href="#rim"/>
    <path pointer-events="none" fill="none" stroke="white" stroke-width="1.5" d="M0,-3.0v7 M-2.5,-0.5L0,-3.0L2.5,-0.5"/>
  </g>
  <g id="arrowLeft" transform="rotate(270) translate(-36 17)">
    <use xlink:href="#rim"/>
    <path pointer-events="none" fill="none" stroke="white" stroke-width="1.5" d="M0,-3.0v7 M-2.5,-0.5L0,-3.0L2.5,-0.5"/>
  </g>
  <g id="resetDef">
    <use xlink:href="#rim2" fill="#404040"><set attributeName="fill" to="#808080" begin="reset.mouseover" end="reset.mouseout"/></use>
  </g>
</defs>
<script type="application/ecmascript">
var viewWidth = 511;
var viewHeight = 212;
var sectionId = 'dynsection-3';
</script>
<script type="application/ecmascript" xlink:href="svg.min.js"/>
<svg id="graph" class="graph">
<g id="viewport">
<title>Compress_ADPCM_stereo</title>
<!-- Node1 -->
<g id="Node000001" class="node">
<title>Node1</title>
<g id="a_Node000001"><a xlink:title=" ">
<polygon fill="#999999" stroke="#666666" points="143,-111 0,-111 0,-92 143,-92 143,-111"/>
<text text-anchor="middle" x="71.5" y="-99" font-family="Helvetica,sans-Serif" font-size="10.00">Compress_ADPCM_stereo</text>
</a>
</g>
</g>
<!-- Node2 -->
<g id="Node000002" class="node">
<title>Node2</title>
<g id="a_Node000002"><a xlink:href="adpcm_8cpp.html#ae09ca6c99cd2eff7c478055b3062b559" target="_top" xlink:title=" ">
<polygon fill="white" stroke="#666666" points="280,-111 179,-111 179,-92 280,-92 280,-111"/>
<text text-anchor="middle" x="229.5" y="-99" font-family="Helvetica,sans-Serif" font-size="10.00">CompressADPCM</text>
</a>
</g>
</g>
<!-- Node1&#45;&gt;Node2 -->
<g id="edge1_Node000001_Node000002" class="edge">
<title>Node1&#45;&gt;Node2</title>
<g id="a_edge1_Node000001_Node000002"><a xlink:title=" ">
<path fill="none" stroke="#63b8ff" d="M143.2,-101.5C151.59,-101.5 160.09,-101.5 168.31,-101.5"/>
<polygon fill="#63b8ff" stroke="#63b8ff" points="168.55,-105 178.55,-101.5 168.55,-98 168.55,-105"/>
</a>
</g>
</g>
<!-- Node3 -->
<g id="Node000003" class="node">
<title>Node3</title>
<g id="a_Node000003"><a xlink:href="adpcm_8cpp.html#a35c265e00d0628b4710c679f8d261641" target="_top" xlink:title=" ">
<polygon fill="white" stroke="#666666" points="462.5,-204 356.5,-204 356.5,-185 462.5,-185 462.5,-204"/>
<text text-anchor="middle" x="409.5" y="-192" font-family="Helvetica,sans-Serif" font-size="10.00">GetNextStepIndex</text>
</a>
</g>
</g>
<!-- Node2&#45;&gt;Node3 -->
<g id="edge2_Node000002_Node000003" class="edge">
<title>Node2&#45;&gt;Node3</title>
<g id="a_edge2_Node000002_Node000003"><a xlink:title=" ">
<path fill="none" stroke="#63b8ff" d="M238.34,-111.1C252.18,-127.37 282.67,-160.15 316,-176.5 325.35,-181.09 335.77,-184.51 346.15,-187.05"/>
<polygon fill="#63b8ff" stroke="#63b8ff" points="345.53,-190.5 356.05,-189.24 347.04,-183.67 345.53,-190.5"/>
</a>
</g>
</g>
<!-- Node4 -->
<g id="Node000004" class="node">
<title>Node4</title>
<g id="a_Node000004"><a xlink:href="classTADPCMStream.html#aa6dc584f536b46e3202b3709c7f1e19c" target="_top" xlink:title=" ">
<polygon fill="white" stroke="#666666" points="500.5,-167 318.5,-167 318.5,-148 500.5,-148 500.5,-167"/>
<text text-anchor="middle" x="409.5" y="-155" font-family="Helvetica,sans-Serif" font-size="10.00">TADPCMStream::LengthProcessed</text>
</a>
</g>
</g>
<!-- Node2&#45;&gt;Node4 -->
<g id="edge3_Node000002_Node000004" class="edge">
<title>Node2&#45;&gt;Node4</title>
<g id="a_edge3_Node000002_Node000004"><a xlink:title=" ">
<path fill="none" stroke="#63b8ff" d="M248.71,-111.04C265.71,-119.6 291.99,-131.93 316,-139.5 323.35,-141.82 331.13,-143.89 338.93,-145.73"/>
<polygon fill="#63b8ff" stroke="#63b8ff" points="338.26,-149.17 348.79,-147.94 339.79,-142.34 338.26,-149.17"/>
</a>
</g>
</g>
<!-- Node5 -->
<g id="Node000005" class="node">
<title>Node5</title>
<g id="a_Node000005"><a xlink:href="classTADPCMStream.html#a670b66453ecd6d5e4c55fab6243ebbf1" target="_top" xlink:title=" ">
<polygon fill="white" stroke="#666666" points="502,-130 317,-130 317,-111 502,-111 502,-130"/>
<text text-anchor="middle" x="409.5" y="-118" font-family="Helvetica,sans-Serif" font-size="10.00">TADPCMStream::ReadWordSample</text>
</a>
</g>
</g>
<!-- Node2&#45;&gt;Node5 -->
<g id="edge4_Node000002_Node000005" class="edge">
<title>Node2&#45;&gt;Node5</title>
<g id="a_edge4_Node000002_Node000005"><a xlink:title=" ">
<path fill="none" stroke="#63b8ff" d="M280.08,-106.79C289.26,-107.77 299.15,-108.83 309.21,-109.9"/>
<polygon fill="#63b8ff" stroke="#63b8ff" points="308.99,-113.4 319.31,-110.98 309.73,-106.44 308.99,-113.4"/>
</a>
</g>
</g>
<!-- Node6 -->
<g id="Node000006" class="node">
<title>Node6</title>
<g id="a_Node000006"><a xlink:href="adpcm_8cpp.html#a2e9ae12a3e1dc058a618e5ec744d4b86" target="_top" xlink:title=" ">
<polygon fill="white" stroke="#666666" points="476.5,-93 342.5,-93 342.5,-74 476.5,-74 476.5,-93"/>
<text text-anchor="middle" x="409.5" y="-81" font-family="Helvetica,sans-Serif" font-size="10.00">UpdatePredictedSample</text>
</a>
</g>
</g>
<!-- Node2&#45;&gt;Node6 -->
<g id="edge5_Node000002_Node000006" class="edge">
<title>Node2&#45;&gt;Node6</title>
<g id="a_edge5_Node000002_Node000006"><a xlink:title=" ">
<path fill="none" stroke="#63b8ff" d="M280.08,-96.49C296.16,-94.86 314.4,-93.02 331.97,-91.24"/>
<polygon fill="#63b8ff" stroke="#63b8ff" points="332.62,-94.69 342.21,-90.2 331.91,-87.73 332.62,-94.69"/>
</a>
</g>
</g>
<!-- Node7 -->
<g id="Node000007" class="node">
<title>Node7</title>
<g id="a_Node000007"><a xlink:href="classTADPCMStream.html#aa472bcd7ae6a3c12e94657916d565296" target="_top" xlink:title=" ">
<polygon fill="white" stroke="#666666" points="502,-56 317,-56 317,-37 502,-37 502,-56"/>
<text text-anchor="middle" x="409.5" y="-44" font-family="Helvetica,sans-Serif" font-size="10.00">TADPCMStream::WriteByteSample</text>
</a>
</g>
</g>
<!-- Node2&#45;&gt;Node7 -->
<g id="edge6_Node000002_Node000007" class="edge">
<title>Node2&#45;&gt;Node7</title>
<g id="a_edge6_Node000002_Node000007"><a xlink:title=" ">
<path fill="none" stroke="#63b8ff" d="M250.13,-91.93C267.2,-83.93 292.77,-72.7 316,-65.5 324.62,-62.83 333.82,-60.42 342.94,-58.3"/>
<polygon fill="#63b8ff" stroke="#63b8ff" points="343.78,-61.7 352.78,-56.1 342.26,-54.87 343.78,-61.7"/>
</a>
</g>
</g>
<!-- Node8 -->
<g id="Node000008" class="node">
<title>Node8</title>
<g id="a_Node000008"><a xlink:href="classTADPCMStream.html#a1e438ec20279f30a473bb593db950a2c" target="_top" xlink:title=" ">
<polygon fill="white" stroke="#666666" points="503,-19 316,-19 316,0 503,0 503,-19"/>
<text text-anchor="middle" x="409.5" y="-7" font-family="Helvetica,sans-Serif" font-size="10.00">TADPCMStream::WriteWordSample</text>
</a>
</g>
</g>
<!-- Node2&#45;&gt;Node8 -->
<g id="edge7_Node000002_Node000008" class="edge">
<title>Node2&#45;&gt;Node8</title>
<g id="a_edge7_Node000002_Node000008"><a xlink:title=" ">
<path fill="none" stroke="#63b8ff" d="M238.64,-91.94C252.7,-76.09 283.21,-44.53 316,-28.5 320.97,-26.07 326.24,-23.95 331.64,-22.1"/>
<polygon fill="#63b8ff" stroke="#63b8ff" points="332.95,-25.36 341.47,-19.06 330.88,-18.67 332.95,-25.36"/>
</a>
</g>
</g>
</g>
</svg>

<g id="navigator" transform="translate(0 0)" fill="#404254">
  <rect fill="#f2f5e9" fill-opacity="0.5" stroke="#606060" stroke-width=".5" x="0" y="0" width="60" height="60"/>
  <use id="zoomplus" xlink:href="#zoomPlus" x="17" y="9" onmousedown="handleZoom(evt,'in')"/>
  <use id="zoomminus" xlink:href="#zoomMin" x="42" y="9" onmousedown="handleZoom(evt,'out')"/>
  <use id="reset" xlink:href="#resetDef" x="30" y="36" onmousedown="handleReset()"/>
   <use id="arrowup" xlink:href="#arrowUp" x="0" y="0" onmousedown="handlePan(0,-1)"/>
  <use id="arrowright" xlink:href="#arrowRight" x="0" y="0" onmousedown="handlePan(1,0)"/>
  <use id="arrowdown" xlink:href="#arrowDown" x="0" y="0" onmousedown="handlePan(0,1)"/>
  <use id="arrowleft" xlink:href="#arrowLeft" x="0" y="0" onmousedown="handlePan(-1,0)"/>
</g>
<svg viewBox="0 0 15 15" width="100%" height="30px" preserveAspectRatio="xMaxYMin meet">
 <g id="arrow_out" transform="scale(0.3 0.3)">
  <a xlink:href="SCompression_8cpp_a3731438997b03cc3822b8bb86991cc7e_cgraph_org.svg" target="_base">
   <rect id="button" ry="5" rx="5" y="6" x="6" height="38" width="38"
        fill="#f2f5e9" fill-opacity="0.5" stroke="#606060" stroke-width="1.0"/>
   <path id="arrow"
     d="M 11.500037,31.436501 C 11.940474,20.09759 22.043105,11.32322 32.158766,21.979434 L 37.068811,17.246167 C 37.068811,17.246167 37.088388,32 37.088388,32 L 22.160133,31.978069 C 22.160133,31.978069 26.997745,27.140456 26.997745,27.140456 C 18.528582,18.264221 13.291696,25.230495 11.500037,31.436501 z"
     style="fill:#404040;"/>
  </a>
 </g>
</svg>

<style type='text/css'>
<![CDATA[
[data-mouse-over-selected='false'] { opacity: 0.7; }
[data-mouse-over-selected='true']  { opacity: 1.0; }
]]>
</style>
<script type="application/ecmascript"><![CDATA[
document.addEventListener('DOMContentLoaded', (event) => {
  highlightEdges();
  highlightAdjacentNodes();
});
]]></script>
</svg>
