<?xml version="1.0" encoding="UTF-8" standalone="no"?>
<!DOCTYPE svg PUBLIC "-//W3C//DTD SVG 1.1//EN"
 "http://www.w3.org/Graphics/SVG/1.1/DTD/svg11.dtd">
<!-- Generated by graphviz version 2.43.0 (0)
 -->
<!-- Title: ExtractDBCFiles Pages: 1 -->
<!--zoomable 400 -->

<svg id="main" version="1.1" xmlns="http://www.w3.org/2000/svg" xmlns:xlink="http://www.w3.org/1999/xlink" xml:space="preserve" onload="init(evt)">
<style type="text/css"><![CDATA[
.node, .edge {opacity: 0.7;}
.node.selected, .edge.selected {opacity: 1;}
.edge:hover path { stroke: red; }
.edge:hover polygon { stroke: red; fill: red; }
]]></style>

<defs>
  <circle id="rim" cx="0" cy="0" r="7"/>
  <circle id="rim2" cx="0" cy="0" r="3.5"/>
  <g id="zoomPlus">
    <use xlink:href="#rim" fill="#404040"><set attributeName="fill" to="#808080" begin="zoomplus.mouseover" end="zoomplus.mouseout"/></use>
    <path d="M-4,0h8M0,-4v8" fill="none" stroke="white" stroke-width="1.5" pointer-events="none"/>
  </g>
  <g id="zoomMin">
    <use xlink:href="#rim" fill="#404040"><set attributeName="fill" to="#808080" begin="zoomminus.mouseover" end="zoomminus.mouseout"/></use>
    <path d="M-4,0h8" fill="none" stroke="white" stroke-width="1.5" pointer-events="none"/>
  </g>
  <g id="arrowUp" transform="translate(30 24)">
    <use xlink:href="#rim"/>
    <path pointer-events="none" fill="none" stroke="white" stroke-width="1.5" d="M0,-3.0v7 M-2.5,-0.5L0,-3.0L2.5,-0.5"/>
  </g>
  <g id="arrowRight" transform="rotate(90) translate(36 -43)">
    <use xlink:href="#rim"/>
    <path pointer-events="none" fill="none" stroke="white" stroke-width="1.5" d="M0,-3.0v7 M-2.5,-0.5L0,-3.0L2.5,-0.5"/>
  </g>
  <g id="arrowDown" transform="rotate(180) translate(-30 -48)">
    <use xlink:href="#rim"/>
    <path pointer-events="none" fill="none" stroke="white" stroke-width="1.5" d="M0,-3.0v7 M-2.5,-0.5L0,-3.0L2.5,-0.5"/>
  </g>
  <g id="arrowLeft" transform="rotate(270) translate(-36 17)">
    <use xlink:href="#rim"/>
    <path pointer-events="none" fill="none" stroke="white" stroke-width="1.5" d="M0,-3.0v7 M-2.5,-0.5L0,-3.0L2.5,-0.5"/>
  </g>
  <g id="resetDef">
    <use xlink:href="#rim2" fill="#404040"><set attributeName="fill" to="#808080" begin="reset.mouseover" end="reset.mouseout"/></use>
  </g>
</defs>
<script type="application/ecmascript">
var viewWidth = 1119;
var viewHeight = 400;
var sectionId = 'dynsection-5';
</script>
<script type="application/ecmascript" xlink:href="svg.min.js"/>
<svg id="graph" class="graph">
<g id="viewport">
<title>ExtractDBCFiles</title>
<!-- Node1 -->
<g id="Node000001" class="node">
<title>Node1</title>
<g id="a_Node000001"><a xlink:title=" ">
<polygon fill="#999999" stroke="#666666" points="95,-280.5 0,-280.5 0,-261.5 95,-261.5 95,-280.5"/>
<text text-anchor="middle" x="47.5" y="-268.5" font-family="Helvetica,sans-Serif" font-size="10.00">ExtractDBCFiles</text>
</a>
</g>
</g>
<!-- Node2 -->
<g id="Node000002" class="node">
<title>Node2</title>
<g id="a_Node000002"><a xlink:href="src_2tools_2map__extractor_2System_8cpp.html#aa854a2cd2d7cb8ba2b81e8bf5f1093fc" target="_top" xlink:title=" ">
<polygon fill="white" stroke="#666666" points="196.5,-317.5 133.5,-317.5 133.5,-298.5 196.5,-298.5 196.5,-317.5"/>
<text text-anchor="middle" x="165" y="-305.5" font-family="Helvetica,sans-Serif" font-size="10.00">CreateDir</text>
</a>
</g>
</g>
<!-- Node1&#45;&gt;Node2 -->
<g id="edge1_Node000001_Node000002" class="edge">
<title>Node1&#45;&gt;Node2</title>
<g id="a_edge1_Node000001_Node000002"><a xlink:title=" ">
<path fill="none" stroke="#63b8ff" d="M78.24,-280.53C92.28,-285.02 109.23,-290.45 124.34,-295.3"/>
<polygon fill="#63b8ff" stroke="#63b8ff" points="123.36,-298.66 133.96,-298.38 125.5,-291.99 123.36,-298.66"/>
</a>
</g>
</g>
<!-- Node3 -->
<g id="Node000003" class="node">
<title>Node3</title>
<g id="a_Node000003"><a xlink:href="src_2tools_2map__extractor_2System_8cpp.html#a301db61625669e66fdd6dec8c63ed43e" target="_top" xlink:title=" ">
<polygon fill="white" stroke="#666666" points="199,-280.5 131,-280.5 131,-261.5 199,-261.5 199,-280.5"/>
<text text-anchor="middle" x="165" y="-268.5" font-family="Helvetica,sans-Serif" font-size="10.00">ExtractFile</text>
</a>
</g>
</g>
<!-- Node1&#45;&gt;Node3 -->
<g id="edge2_Node000001_Node000003" class="edge">
<title>Node1&#45;&gt;Node3</title>
<g id="a_edge2_Node000001_Node000003"><a xlink:title=" ">
<path fill="none" stroke="#63b8ff" d="M95.15,-271C103.51,-271 112.2,-271 120.47,-271"/>
<polygon fill="#63b8ff" stroke="#63b8ff" points="120.67,-274.5 130.67,-271 120.67,-267.5 120.67,-274.5"/>
</a>
</g>
</g>
<!-- Node7 -->
<g id="Node000007" class="node">
<title>Node7</title>
<g id="a_Node000007"><a xlink:href="printf_8h.html#aee3ed3a831f25f07e7be3919fff2203a" target="_top" xlink:title=" ">
<polygon fill="white" stroke="#666666" points="313,-242.5 270,-242.5 270,-223.5 313,-223.5 313,-242.5"/>
<text text-anchor="middle" x="291.5" y="-230.5" font-family="Helvetica,sans-Serif" font-size="10.00">printf</text>
</a>
</g>
</g>
<!-- Node1&#45;&gt;Node7 -->
<g id="edge36_Node000001_Node000007" class="edge">
<title>Node1&#45;&gt;Node7</title>
<g id="a_edge36_Node000001_Node000007"><a xlink:title=" ">
<path fill="none" stroke="#63b8ff" d="M86.11,-261.44C100.13,-258.11 116.23,-254.57 131,-252 175.43,-244.26 227.38,-238.72 259.61,-235.68"/>
<polygon fill="#63b8ff" stroke="#63b8ff" points="260.11,-239.15 269.75,-234.75 259.47,-232.18 260.11,-239.15"/>
</a>
</g>
</g>
<!-- Node4 -->
<g id="Node000004" class="node">
<title>Node4</title>
<g id="a_Node000004"><a xlink:href="classMPQFile.html#a51ae51b7a96f945592022a036f07b5b0" target="_top" xlink:title=" ">
<polygon fill="white" stroke="#666666" points="348,-353.5 235,-353.5 235,-334.5 348,-334.5 348,-353.5"/>
<text text-anchor="middle" x="291.5" y="-341.5" font-family="Helvetica,sans-Serif" font-size="10.00">MPQFile::getPointer</text>
</a>
</g>
</g>
<!-- Node3&#45;&gt;Node4 -->
<g id="edge3_Node000003_Node000004" class="edge">
<title>Node3&#45;&gt;Node4</title>
<g id="a_edge3_Node000003_Node000004"><a xlink:title=" ">
<path fill="none" stroke="#63b8ff" d="M185.8,-280.54C190.3,-283.05 194.95,-285.92 199,-289 217.28,-302.87 215.52,-313.88 235,-326 237.62,-327.63 240.41,-329.13 243.29,-330.51"/>
<polygon fill="#63b8ff" stroke="#63b8ff" points="242.1,-333.8 252.67,-334.48 244.83,-327.36 242.1,-333.8"/>
</a>
</g>
</g>
<!-- Node5 -->
<g id="Node000005" class="node">
<title>Node5</title>
<g id="a_Node000005"><a xlink:href="classMPQFile.html#a02252ef8e012f0a067ef303bee202a0d" target="_top" xlink:title=" ">
<polygon fill="white" stroke="#666666" points="340.5,-316.5 242.5,-316.5 242.5,-297.5 340.5,-297.5 340.5,-316.5"/>
<text text-anchor="middle" x="291.5" y="-304.5" font-family="Helvetica,sans-Serif" font-size="10.00">MPQFile::getSize</text>
</a>
</g>
</g>
<!-- Node3&#45;&gt;Node5 -->
<g id="edge4_Node000003_Node000005" class="edge">
<title>Node3&#45;&gt;Node5</title>
<g id="a_edge4_Node000003_Node000005"><a xlink:title=" ">
<path fill="none" stroke="#63b8ff" d="M199.04,-280.55C213.95,-284.87 231.76,-290.01 247.68,-294.62"/>
<polygon fill="#63b8ff" stroke="#63b8ff" points="246.73,-297.99 257.31,-297.4 248.67,-291.26 246.73,-297.99"/>
</a>
</g>
</g>
<!-- Node6 -->
<g id="Node000006" class="node">
<title>Node6</title>
<g id="a_Node000006"><a xlink:href="classMPQFile.html#a62a74189592453dfdaf3643f80666612" target="_top" xlink:title=" ">
<polygon fill="white" stroke="#666666" points="334.5,-279.5 248.5,-279.5 248.5,-260.5 334.5,-260.5 334.5,-279.5"/>
<text text-anchor="middle" x="291.5" y="-267.5" font-family="Helvetica,sans-Serif" font-size="10.00">MPQFile::isEof</text>
</a>
</g>
</g>
<!-- Node3&#45;&gt;Node6 -->
<g id="edge5_Node000003_Node000006" class="edge">
<title>Node3&#45;&gt;Node6</title>
<g id="a_edge5_Node000003_Node000006"><a xlink:title=" ">
<path fill="none" stroke="#63b8ff" d="M199.04,-270.73C211.09,-270.64 225.04,-270.53 238.35,-270.42"/>
<polygon fill="#63b8ff" stroke="#63b8ff" points="238.39,-273.92 248.36,-270.34 238.34,-266.92 238.39,-273.92"/>
</a>
</g>
</g>
<!-- Node3&#45;&gt;Node7 -->
<g id="edge6_Node000003_Node000007" class="edge">
<title>Node3&#45;&gt;Node7</title>
<g id="a_edge6_Node000003_Node000007"><a xlink:title=" ">
<path fill="none" stroke="#63b8ff" d="M197.42,-261.41C216.59,-255.56 240.98,-248.11 259.99,-242.31"/>
<polygon fill="#63b8ff" stroke="#63b8ff" points="261.11,-245.63 269.65,-239.36 259.07,-238.93 261.11,-245.63"/>
</a>
</g>
</g>
<!-- Node8 -->
<g id="Node000008" class="node">
<title>Node8</title>
<g id="a_Node000008"><a xlink:href="printf_8h.html#aece57ac974e070300788ffc59bb5f779" target="_top" xlink:title=" ">
<polygon fill="white" stroke="#666666" points="485,-261.5 384,-261.5 384,-242.5 485,-242.5 485,-261.5"/>
<text text-anchor="middle" x="434.5" y="-249.5" font-family="Helvetica,sans-Serif" font-size="10.00">make_printf_args</text>
</a>
</g>
</g>
<!-- Node7&#45;&gt;Node8 -->
<g id="edge7_Node000007_Node000008" class="edge">
<title>Node7&#45;&gt;Node8</title>
<g id="a_edge7_Node000007_Node000008"><a xlink:title=" ">
<path fill="none" stroke="#63b8ff" d="M313,-235.76C328.96,-237.91 351.96,-241.01 373.59,-243.93"/>
<polygon fill="#63b8ff" stroke="#63b8ff" points="373.36,-247.43 383.73,-245.29 374.29,-240.49 373.36,-247.43"/>
</a>
</g>
</g>
<!-- Node9 -->
<g id="Node000009" class="node">
<title>Node9</title>
<g id="a_Node000009"><a xlink:href="printf_8h.html#aa80a935767017049bd5427afbe5b5912" target="_top" xlink:title=" ">
<polygon fill="white" stroke="#666666" points="461,-224.5 408,-224.5 408,-205.5 461,-205.5 461,-224.5"/>
<text text-anchor="middle" x="434.5" y="-212.5" font-family="Helvetica,sans-Serif" font-size="10.00">vfprintf</text>
</a>
</g>
</g>
<!-- Node7&#45;&gt;Node9 -->
<g id="edge8_Node000007_Node000009" class="edge">
<title>Node7&#45;&gt;Node9</title>
<g id="a_edge8_Node000007_Node000009"><a xlink:title=" ">
<path fill="none" stroke="#63b8ff" d="M313,-230.38C335.12,-227.56 370.76,-223.01 397.55,-219.59"/>
<polygon fill="#63b8ff" stroke="#63b8ff" points="398.23,-223.03 407.71,-218.29 397.34,-216.09 398.23,-223.03"/>
</a>
</g>
</g>
<!-- Node10 -->
<g id="Node000010" class="node">
<title>Node10</title>
<g id="a_Node000010"><a xlink:href="namespacedetail.html#a1c8c2218e4c822aa8f743fb9c573717f" target="_top" xlink:title=" ">
<polygon fill="white" stroke="#666666" points="604,-224.5 521,-224.5 521,-205.5 604,-205.5 604,-224.5"/>
<text text-anchor="middle" x="562.5" y="-212.5" font-family="Helvetica,sans-Serif" font-size="10.00">detail::vprintf</text>
</a>
</g>
</g>
<!-- Node9&#45;&gt;Node10 -->
<g id="edge9_Node000009_Node000010" class="edge">
<title>Node9&#45;&gt;Node10</title>
<g id="a_edge9_Node000009_Node000010"><a xlink:title=" ">
<path fill="none" stroke="#63b8ff" d="M461.3,-215C475.49,-215 493.61,-215 510.52,-215"/>
<polygon fill="#63b8ff" stroke="#63b8ff" points="510.85,-218.5 520.85,-215 510.85,-211.5 510.85,-218.5"/>
</a>
</g>
</g>
<!-- Node11 -->
<g id="Node000011" class="node">
<title>Node11</title>
<g id="a_Node000011"><a xlink:href="fmt_2include_2fmt_2core_8h.html#a2c8e80c1b1c8b7747e99b8e9a24a0429" target="_top" xlink:title=" ">
<polygon fill="white" stroke="#666666" points="1066,-360.5 1034,-360.5 1034,-341.5 1066,-341.5 1066,-360.5"/>
<text text-anchor="middle" x="1050" y="-348.5" font-family="Helvetica,sans-Serif" font-size="10.00">arg</text>
</a>
</g>
</g>
<!-- Node10&#45;&gt;Node11 -->
<g id="edge10_Node000010_Node000011" class="edge">
<title>Node10&#45;&gt;Node11</title>
<g id="a_edge10_Node000010_Node000011"><a xlink:title=" ">
<path fill="none" stroke="#63b8ff" d="M566.09,-224.86C573.19,-249.71 595.43,-315.07 640,-345 762.56,-427.29 955.76,-379.89 1024.07,-359.17"/>
<polygon fill="#63b8ff" stroke="#63b8ff" points="1025.42,-362.41 1033.93,-356.09 1023.34,-355.73 1025.42,-362.41"/>
</a>
</g>
</g>
<!-- Node12 -->
<g id="Node000012" class="node">
<title>Node12</title>
<g id="a_Node000012"><a xlink:href="color_8h.html#af4a3b7f252e457605de5440249a15699" target="_top" xlink:title=" ">
<polygon fill="white" stroke="#666666" points="897.5,-104.5 847.5,-104.5 847.5,-85.5 897.5,-85.5 897.5,-104.5"/>
<text text-anchor="middle" x="872.5" y="-92.5" font-family="Helvetica,sans-Serif" font-size="10.00">format</text>
</a>
</g>
</g>
<!-- Node10&#45;&gt;Node12 -->
<g id="edge12_Node000010_Node000012" class="edge">
<title>Node10&#45;&gt;Node12</title>
<g id="a_edge12_Node000010_Node000012"><a xlink:title=" ">
<path fill="none" stroke="#63b8ff" d="M567.98,-205.38C577.83,-185.48 603.39,-140.01 640,-120 702.99,-85.57 789.98,-86.88 837.36,-90.91"/>
<polygon fill="#63b8ff" stroke="#63b8ff" points="837.12,-94.4 847.41,-91.85 837.78,-87.43 837.12,-94.4"/>
</a>
</g>
</g>
<!-- Node14 -->
<g id="Node000014" class="node">
<title>Node14</title>
<g id="a_Node000014"><a xlink:href="namespacedetail.html#a4bfbd26c5ac41fc8e3929b10631c2a31" target="_top" xlink:title=" ">
<polygon fill="white" stroke="#666666" points="916,-357.5 829,-357.5 829,-338.5 916,-338.5 916,-357.5"/>
<text text-anchor="middle" x="872.5" y="-345.5" font-family="Helvetica,sans-Serif" font-size="10.00">detail::get_arg</text>
</a>
</g>
</g>
<!-- Node10&#45;&gt;Node14 -->
<g id="edge14_Node000010_Node000014" class="edge">
<title>Node10&#45;&gt;Node14</title>
<g id="a_edge14_Node000010_Node000014"><a xlink:title=" ">
<path fill="none" stroke="#63b8ff" d="M567.78,-224.6C577.42,-244.94 602.88,-292.28 640,-314 694.83,-346.08 769.05,-351.65 818.52,-351.13"/>
<polygon fill="#63b8ff" stroke="#63b8ff" points="818.75,-354.63 828.68,-350.94 818.62,-347.63 818.75,-354.63"/>
</a>
</g>
</g>
<!-- Node15 -->
<g id="Node000015" class="node">
<title>Node15</title>
<g id="a_Node000015"><a xlink:href="namespacedetail.html#ac22dbe18eb3fef4c672314e30ed0421a" target="_top" xlink:title=" ">
<polygon fill="white" stroke="#666666" points="756,-277.5 640,-277.5 640,-258.5 756,-258.5 756,-277.5"/>
<text text-anchor="middle" x="698" y="-265.5" font-family="Helvetica,sans-Serif" font-size="10.00">detail::parse_header</text>
</a>
</g>
</g>
<!-- Node10&#45;&gt;Node15 -->
<g id="edge16_Node000010_Node000015" class="edge">
<title>Node10&#45;&gt;Node15</title>
<g id="a_edge16_Node000010_Node000015"><a xlink:title=" ">
<path fill="none" stroke="#63b8ff" d="M587.68,-224.6C608.85,-233 639.82,-245.3 663.4,-254.66"/>
<polygon fill="#63b8ff" stroke="#63b8ff" points="662.42,-258.04 673,-258.47 665,-251.53 662.42,-258.04"/>
</a>
</g>
</g>
<!-- Node17 -->
<g id="Node000017" class="node">
<title>Node17</title>
<g id="a_Node000017"><a xlink:href="namespacedetail.html#a338caba782225e115a9902d4d0835f5f" target="_top" xlink:title=" ">
<polygon fill="white" stroke="#666666" points="953,-246.5 792,-246.5 792,-227.5 953,-227.5 953,-246.5"/>
<text text-anchor="middle" x="872.5" y="-234.5" font-family="Helvetica,sans-Serif" font-size="10.00">detail::parse_nonnegative_int</text>
</a>
</g>
</g>
<!-- Node10&#45;&gt;Node17 -->
<g id="edge27_Node000010_Node000017" class="edge">
<title>Node10&#45;&gt;Node17</title>
<g id="a_edge27_Node000010_Node000017"><a xlink:title=" ">
<path fill="none" stroke="#63b8ff" d="M604.08,-217.9C649.09,-221.11 723.12,-226.4 781.88,-230.6"/>
<polygon fill="#63b8ff" stroke="#63b8ff" points="781.7,-234.09 791.92,-231.32 782.19,-227.11 781.7,-234.09"/>
</a>
</g>
</g>
<!-- Node19 -->
<g id="Node000019" class="node">
<title>Node19</title>
<g id="a_Node000019"><a xlink:href="namespacedetail.html#ad64642bb9b2374fba5526c132a751951" target="_top" xlink:title=" ">
<polygon fill="white" stroke="#666666" points="1105,-175.5 995,-175.5 995,-156.5 1105,-156.5 1105,-175.5"/>
<text text-anchor="middle" x="1050" y="-163.5" font-family="Helvetica,sans-Serif" font-size="10.00">detail::to_unsigned</text>
</a>
</g>
</g>
<!-- Node10&#45;&gt;Node19 -->
<g id="edge31_Node000010_Node000019" class="edge">
<title>Node10&#45;&gt;Node19</title>
<g id="a_edge31_Node000010_Node000019"><a xlink:title=" ">
<path fill="none" stroke="#63b8ff" d="M587.36,-205.4C602.32,-199.59 622.1,-192.31 640,-187 774.19,-147.16 813.39,-141.87 953,-152 963.31,-152.75 974.2,-153.94 984.79,-155.33"/>
<polygon fill="#63b8ff" stroke="#63b8ff" points="984.44,-158.81 994.83,-156.7 985.39,-151.88 984.44,-158.81"/>
</a>
</g>
</g>
<!-- Node20 -->
<g id="Node000020" class="node">
<title>Node20</title>
<g id="a_Node000020"><a xlink:href="namespacedetail.html#a6a4a175ed2175e4da7b988e021175317" target="_top" xlink:title=" ">
<polygon fill="white" stroke="#666666" points="930.5,-191 814.5,-191 814.5,-161 930.5,-161 930.5,-191"/>
<text text-anchor="start" x="822.5" y="-179" font-family="Helvetica,sans-Serif" font-size="10.00">detail::throw_format</text>
<text text-anchor="middle" x="872.5" y="-168" font-family="Helvetica,sans-Serif" font-size="10.00">_error</text>
</a>
</g>
</g>
<!-- Node10&#45;&gt;Node20 -->
<g id="edge30_Node000010_Node000020" class="edge">
<title>Node10&#45;&gt;Node20</title>
<g id="a_edge30_Node000010_Node000020"><a xlink:title=" ">
<path fill="none" stroke="#63b8ff" d="M604.08,-209.86C655.07,-203.41 743.27,-192.24 804.37,-184.5"/>
<polygon fill="#63b8ff" stroke="#63b8ff" points="804.83,-187.97 814.31,-183.24 803.95,-181.03 804.83,-187.97"/>
</a>
</g>
</g>
<!-- Node21 -->
<g id="Node000021" class="node">
<title>Node21</title>
<g id="a_Node000021"><a xlink:href="fmt_2include_2fmt_2core_8h.html#a05783ffcc62709c2284ee0da45486a98" target="_top" xlink:title=" ">
<polygon fill="white" stroke="#666666" points="921,-320.5 824,-320.5 824,-301.5 921,-301.5 921,-320.5"/>
<text text-anchor="middle" x="872.5" y="-308.5" font-family="Helvetica,sans-Serif" font-size="10.00">visit_format_arg</text>
</a>
</g>
</g>
<!-- Node10&#45;&gt;Node21 -->
<g id="edge32_Node000010_Node000021" class="edge">
<title>Node10&#45;&gt;Node21</title>
<g id="a_edge32_Node000010_Node000021"><a xlink:title=" ">
<path fill="none" stroke="#63b8ff" d="M570.46,-224.63C582.56,-240.54 609.17,-271.94 640,-286 695.28,-311.21 765.46,-315.44 813.97,-314.63"/>
<polygon fill="#63b8ff" stroke="#63b8ff" points="814.07,-318.13 823.99,-314.38 813.9,-311.13 814.07,-318.13"/>
</a>
</g>
</g>
<!-- Node23 -->
<g id="Node000023" class="node">
<title>Node23</title>
<g id="a_Node000023"><a xlink:href="namespacedetail.html#a2e4362a340def2768ed1f8f66e764063" target="_top" xlink:title=" ">
<polygon fill="white" stroke="#666666" points="753,-30 643,-30 643,0 753,0 753,-30"/>
<text text-anchor="start" x="651" y="-18" font-family="Helvetica,sans-Serif" font-size="10.00">detail::parse_printf</text>
<text text-anchor="middle" x="698" y="-7" font-family="Helvetica,sans-Serif" font-size="10.00">_presentation_type</text>
</a>
</g>
</g>
<!-- Node10&#45;&gt;Node23 -->
<g id="edge28_Node000010_Node000023" class="edge">
<title>Node10&#45;&gt;Node23</title>
<g id="a_edge28_Node000010_Node000023"><a xlink:title=" ">
<path fill="none" stroke="#63b8ff" d="M565.13,-205.18C570.45,-175.94 590.01,-88.42 640,-39 641.07,-37.94 642.2,-36.92 643.37,-35.95"/>
<polygon fill="#63b8ff" stroke="#63b8ff" points="645.5,-38.73 651.67,-30.11 641.47,-33 645.5,-38.73"/>
</a>
</g>
</g>
<!-- Node25 -->
<g id="Node000025" class="node">
<title>Node25</title>
<g id="a_Node000025"><a xlink:href="namespacedetail.html#a29dacf26eedc9e3575fb57329a5ca0a3" target="_top" xlink:title=" ">
<polygon fill="white" stroke="#666666" points="735.5,-67.5 660.5,-67.5 660.5,-48.5 735.5,-48.5 735.5,-67.5"/>
<text text-anchor="middle" x="698" y="-55.5" font-family="Helvetica,sans-Serif" font-size="10.00">detail::write</text>
</a>
</g>
</g>
<!-- Node10&#45;&gt;Node25 -->
<g id="edge33_Node000010_Node000025" class="edge">
<title>Node10&#45;&gt;Node25</title>
<g id="a_edge33_Node000010_Node000025"><a xlink:title=" ">
<path fill="none" stroke="#63b8ff" d="M566.65,-205.22C574.88,-181.07 599.28,-117.98 640,-82 644.43,-78.08 649.6,-74.74 654.97,-71.91"/>
<polygon fill="#63b8ff" stroke="#63b8ff" points="656.57,-75.03 664.13,-67.61 653.59,-68.69 656.57,-75.03"/>
</a>
</g>
</g>
<!-- Node11&#45;&gt;Node11 -->
<g id="edge11_Node000011_Node000011" class="edge">
<title>Node11&#45;&gt;Node11</title>
<g id="a_edge11_Node000011_Node000011"><a xlink:title=" ">
<path fill="none" stroke="#63b8ff" d="M1033.68,-355.47C1006.92,-365.08 1012.36,-378.5 1050,-378.5 1082.35,-378.5 1090.91,-368.59 1075.7,-359.7"/>
<polygon fill="#63b8ff" stroke="#63b8ff" points="1076.88,-356.39 1066.32,-355.47 1073.99,-362.77 1076.88,-356.39"/>
</a>
</g>
</g>
<!-- Node13 -->
<g id="Node000013" class="node">
<title>Node13</title>
<g id="a_Node000013"><a xlink:href="namespacedetail.html#a4662b86e5cfc5c32eb3efea5a84d3040" target="_top" xlink:title=" ">
<polygon fill="white" stroke="#666666" points="1111,-104.5 989,-104.5 989,-85.5 1111,-85.5 1111,-104.5"/>
<text text-anchor="middle" x="1050" y="-92.5" font-family="Helvetica,sans-Serif" font-size="10.00">detail::to_string_view</text>
</a>
</g>
</g>
<!-- Node12&#45;&gt;Node13 -->
<g id="edge13_Node000012_Node000013" class="edge">
<title>Node12&#45;&gt;Node13</title>
<g id="a_edge13_Node000012_Node000013"><a xlink:title=" ">
<path fill="none" stroke="#63b8ff" d="M897.53,-95C918.44,-95 949.83,-95 978.61,-95"/>
<polygon fill="#63b8ff" stroke="#63b8ff" points="978.67,-98.5 988.67,-95 978.67,-91.5 978.67,-98.5"/>
</a>
</g>
</g>
<!-- Node14&#45;&gt;Node11 -->
<g id="edge15_Node000014_Node000011" class="edge">
<title>Node14&#45;&gt;Node11</title>
<g id="a_edge15_Node000014_Node000011"><a xlink:title=" ">
<path fill="none" stroke="#63b8ff" d="M916.43,-348.73C950.12,-349.31 995.84,-350.09 1023.84,-350.57"/>
<polygon fill="#63b8ff" stroke="#63b8ff" points="1023.93,-354.07 1033.98,-350.74 1024.05,-347.07 1023.93,-354.07"/>
</a>
</g>
</g>
<!-- Node15&#45;&gt;Node14 -->
<g id="edge17_Node000015_Node000014" class="edge">
<title>Node15&#45;&gt;Node14</title>
<g id="a_edge17_Node000015_Node000014"><a xlink:title=" ">
<path fill="none" stroke="#63b8ff" d="M710.24,-277.51C726.96,-291.17 759.9,-316.23 792,-330 800.5,-333.65 809.84,-336.61 819.04,-338.99"/>
<polygon fill="#63b8ff" stroke="#63b8ff" points="818.38,-342.43 828.92,-341.35 820.01,-335.62 818.38,-342.43"/>
</a>
</g>
</g>
<!-- Node16 -->
<g id="Node000016" class="node">
<title>Node16</title>
<g id="a_Node000016"><a xlink:href="namespacedetail.html#ac2056b8550f21cf842853812a4ffd167" target="_top" xlink:title=" ">
<polygon fill="white" stroke="#666666" points="925.5,-283.5 819.5,-283.5 819.5,-264.5 925.5,-264.5 925.5,-283.5"/>
<text text-anchor="middle" x="872.5" y="-271.5" font-family="Helvetica,sans-Serif" font-size="10.00">detail::parse_flags</text>
</a>
</g>
</g>
<!-- Node15&#45;&gt;Node16 -->
<g id="edge18_Node000015_Node000016" class="edge">
<title>Node15&#45;&gt;Node16</title>
<g id="a_edge18_Node000015_Node000016"><a xlink:title=" ">
<path fill="none" stroke="#63b8ff" d="M756.44,-270C773.24,-270.58 791.69,-271.22 808.8,-271.82"/>
<polygon fill="#63b8ff" stroke="#63b8ff" points="809.14,-275.33 819.25,-272.18 809.38,-268.34 809.14,-275.33"/>
</a>
</g>
</g>
<!-- Node15&#45;&gt;Node17 -->
<g id="edge19_Node000015_Node000017" class="edge">
<title>Node15&#45;&gt;Node17</title>
<g id="a_edge19_Node000015_Node000017"><a xlink:title=" ">
<path fill="none" stroke="#63b8ff" d="M752.16,-258.45C769.95,-255.25 789.96,-251.65 808.43,-248.33"/>
<polygon fill="#63b8ff" stroke="#63b8ff" points="809.29,-251.74 818.51,-246.52 808.05,-244.85 809.29,-251.74"/>
</a>
</g>
</g>
<!-- Node15&#45;&gt;Node20 -->
<g id="edge22_Node000015_Node000020" class="edge">
<title>Node15&#45;&gt;Node20</title>
<g id="a_edge22_Node000015_Node000020"><a xlink:title=" ">
<path fill="none" stroke="#63b8ff" d="M716.81,-258.38C735.51,-248.28 765.79,-231.97 792,-218 805.65,-210.72 820.65,-202.78 833.91,-195.79"/>
<polygon fill="#63b8ff" stroke="#63b8ff" points="835.56,-198.87 842.77,-191.11 832.29,-192.68 835.56,-198.87"/>
</a>
</g>
</g>
<!-- Node15&#45;&gt;Node21 -->
<g id="edge24_Node000015_Node000021" class="edge">
<title>Node15&#45;&gt;Node21</title>
<g id="a_edge24_Node000015_Node000021"><a xlink:title=" ">
<path fill="none" stroke="#63b8ff" d="M735.62,-277.61C752.73,-282.06 773.39,-287.38 792,-292 801.4,-294.34 811.45,-296.78 821.12,-299.1"/>
<polygon fill="#63b8ff" stroke="#63b8ff" points="820.48,-302.55 831.02,-301.47 822.11,-295.74 820.48,-302.55"/>
</a>
</g>
</g>
<!-- Node18 -->
<g id="Node000018" class="node">
<title>Node18</title>
<g id="a_Node000018"><a xlink:href="RecastContour_8cpp.html#a6f1109916123abdff2b46675c13307e3" target="_top" xlink:title=" ">
<polygon fill="white" stroke="#666666" points="1069,-246.5 1031,-246.5 1031,-227.5 1069,-227.5 1069,-246.5"/>
<text text-anchor="middle" x="1050" y="-234.5" font-family="Helvetica,sans-Serif" font-size="10.00">prev</text>
</a>
</g>
</g>
<!-- Node17&#45;&gt;Node18 -->
<g id="edge20_Node000017_Node000018" class="edge">
<title>Node17&#45;&gt;Node18</title>
<g id="a_edge20_Node000017_Node000018"><a xlink:title=" ">
<path fill="none" stroke="#63b8ff" d="M953.03,-237C977.29,-237 1002.4,-237 1020.85,-237"/>
<polygon fill="#63b8ff" stroke="#63b8ff" points="1020.88,-240.5 1030.88,-237 1020.88,-233.5 1020.88,-240.5"/>
</a>
</g>
</g>
<!-- Node17&#45;&gt;Node19 -->
<g id="edge21_Node000017_Node000019" class="edge">
<title>Node17&#45;&gt;Node19</title>
<g id="a_edge21_Node000017_Node000019"><a xlink:title=" ">
<path fill="none" stroke="#63b8ff" d="M922.46,-227.43C932.7,-224.84 943.33,-221.7 953,-218 979.01,-208.04 1006.8,-192.38 1025.74,-180.85"/>
<polygon fill="#63b8ff" stroke="#63b8ff" points="1027.63,-183.8 1034.29,-175.56 1023.94,-177.85 1027.63,-183.8"/>
</a>
</g>
</g>
<!-- Node20&#45;&gt;Node20 -->
<g id="edge23_Node000020_Node000020" class="edge">
<title>Node20&#45;&gt;Node20</title>
<g id="a_edge23_Node000020_Node000020"><a xlink:title=" ">
<path fill="none" stroke="#63b8ff" d="M841.91,-191.28C835.12,-200.41 845.31,-209 872.5,-209 888.64,-209 898.79,-205.97 902.96,-201.6"/>
<polygon fill="#63b8ff" stroke="#63b8ff" points="906.46,-201.32 903.09,-191.28 899.46,-201.23 906.46,-201.32"/>
</a>
</g>
</g>
<!-- Node21&#45;&gt;Node11 -->
<g id="edge25_Node000021_Node000011" class="edge">
<title>Node21&#45;&gt;Node11</title>
<g id="a_edge25_Node000021_Node000011"><a xlink:title=" ">
<path fill="none" stroke="#63b8ff" d="M915.54,-320.58C949.35,-328.29 995.72,-338.86 1023.95,-345.29"/>
<polygon fill="#63b8ff" stroke="#63b8ff" points="1023.3,-348.73 1033.82,-347.54 1024.85,-341.91 1023.3,-348.73"/>
</a>
</g>
</g>
<!-- Node22 -->
<g id="Node000022" class="node">
<title>Node22</title>
<g id="a_Node000022"><a xlink:href="namespacedetail.html#a49b6442202d11af60b96dc09859dd027" target="_top" xlink:title=" ">
<polygon fill="white" stroke="#666666" points="1103,-323 997,-323 997,-293 1103,-293 1103,-323"/>
<text text-anchor="start" x="1005" y="-311" font-family="Helvetica,sans-Serif" font-size="10.00">detail::convert_for</text>
<text text-anchor="middle" x="1050" y="-300" font-family="Helvetica,sans-Serif" font-size="10.00">_visit</text>
</a>
</g>
</g>
<!-- Node21&#45;&gt;Node22 -->
<g id="edge26_Node000021_Node000022" class="edge">
<title>Node21&#45;&gt;Node22</title>
<g id="a_edge26_Node000021_Node000022"><a xlink:title=" ">
<path fill="none" stroke="#63b8ff" d="M921.46,-310.18C941.61,-309.84 965.31,-309.43 986.78,-309.06"/>
<polygon fill="#63b8ff" stroke="#63b8ff" points="986.85,-312.56 996.79,-308.89 986.73,-305.56 986.85,-312.56"/>
</a>
</g>
</g>
<!-- Node24 -->
<g id="Node000024" class="node">
<title>Node24</title>
<g id="a_Node000024"><a xlink:href="namespacedetail.html#a52a5e2ed06c229dcf95ea5c46d48d05e" target="_top" xlink:title=" ">
<polygon fill="white" stroke="#666666" points="902,-24.5 843,-24.5 843,-5.5 902,-5.5 902,-24.5"/>
<text text-anchor="middle" x="872.5" y="-12.5" font-family="Helvetica,sans-Serif" font-size="10.00">detail::in</text>
</a>
</g>
</g>
<!-- Node23&#45;&gt;Node24 -->
<g id="edge29_Node000023_Node000024" class="edge">
<title>Node23&#45;&gt;Node24</title>
<g id="a_edge29_Node000023_Node000024"><a xlink:title=" ">
<path fill="none" stroke="#63b8ff" d="M753.11,-15C778.81,-15 808.96,-15 832.4,-15"/>
<polygon fill="#63b8ff" stroke="#63b8ff" points="832.66,-18.5 842.66,-15 832.66,-11.5 832.66,-18.5"/>
</a>
</g>
</g>
<!-- Node25&#45;&gt;Node12 -->
<g id="edge34_Node000025_Node000012" class="edge">
<title>Node25&#45;&gt;Node12</title>
<g id="a_edge34_Node000025_Node000012"><a xlink:title=" ">
<path fill="none" stroke="#63b8ff" d="M735.58,-65.85C765.75,-72.32 808.21,-81.43 837.62,-87.73"/>
<polygon fill="#63b8ff" stroke="#63b8ff" points="836.92,-91.16 847.43,-89.84 838.39,-84.32 836.92,-91.16"/>
</a>
</g>
</g>
<!-- Node26 -->
<g id="Node000026" class="node">
<title>Node26</title>
<g id="a_Node000026"><a xlink:href="namespacedetail.html#ab2732c48a7d428c20ca951289522c6f1" target="_top" xlink:title=" ">
<polygon fill="white" stroke="#666666" points="926,-67.5 819,-67.5 819,-48.5 926,-48.5 926,-67.5"/>
<text text-anchor="middle" x="872.5" y="-55.5" font-family="Helvetica,sans-Serif" font-size="10.00">detail::get_iterator</text>
</a>
</g>
</g>
<!-- Node25&#45;&gt;Node26 -->
<g id="edge35_Node000025_Node000026" class="edge">
<title>Node25&#45;&gt;Node26</title>
<g id="a_edge35_Node000025_Node000026"><a xlink:title=" ">
<path fill="none" stroke="#63b8ff" d="M735.58,-58C756.78,-58 784.06,-58 808.6,-58"/>
<polygon fill="#63b8ff" stroke="#63b8ff" points="808.93,-61.5 818.93,-58 808.93,-54.5 808.93,-61.5"/>
</a>
</g>
</g>
</g>
</svg>

<g id="navigator" transform="translate(0 0)" fill="#404254">
  <rect fill="#f2f5e9" fill-opacity="0.5" stroke="#606060" stroke-width=".5" x="0" y="0" width="60" height="60"/>
  <use id="zoomplus" xlink:href="#zoomPlus" x="17" y="9" onmousedown="handleZoom(evt,'in')"/>
  <use id="zoomminus" xlink:href="#zoomMin" x="42" y="9" onmousedown="handleZoom(evt,'out')"/>
  <use id="reset" xlink:href="#resetDef" x="30" y="36" onmousedown="handleReset()"/>
   <use id="arrowup" xlink:href="#arrowUp" x="0" y="0" onmousedown="handlePan(0,-1)"/>
  <use id="arrowright" xlink:href="#arrowRight" x="0" y="0" onmousedown="handlePan(1,0)"/>
  <use id="arrowdown" xlink:href="#arrowDown" x="0" y="0" onmousedown="handlePan(0,1)"/>
  <use id="arrowleft" xlink:href="#arrowLeft" x="0" y="0" onmousedown="handlePan(-1,0)"/>
</g>
<svg viewBox="0 0 15 15" width="100%" height="30px" preserveAspectRatio="xMaxYMin meet">
 <g id="arrow_out" transform="scale(0.3 0.3)">
  <a xlink:href="src_2tools_2map__extractor_2System_8cpp_aa80f069e0dfc21d7cf3a0034fe50a037_cgraph_org.svg" target="_base">
   <rect id="button" ry="5" rx="5" y="6" x="6" height="38" width="38"
        fill="#f2f5e9" fill-opacity="0.5" stroke="#606060" stroke-width="1.0"/>
   <path id="arrow"
     d="M 11.500037,31.436501 C 11.940474,20.09759 22.043105,11.32322 32.158766,21.979434 L 37.068811,17.246167 C 37.068811,17.246167 37.088388,32 37.088388,32 L 22.160133,31.978069 C 22.160133,31.978069 26.997745,27.140456 26.997745,27.140456 C 18.528582,18.264221 13.291696,25.230495 11.500037,31.436501 z"
     style="fill:#404040;"/>
  </a>
 </g>
</svg>

<style type='text/css'>
<![CDATA[
[data-mouse-over-selected='false'] { opacity: 0.7; }
[data-mouse-over-selected='true']  { opacity: 1.0; }
]]>
</style>
<script type="application/ecmascript"><![CDATA[
document.addEventListener('DOMContentLoaded', (event) => {
  highlightEdges();
  highlightAdjacentNodes();
});
]]></script>
</svg>
