<?xml version="1.0" encoding="UTF-8" standalone="no"?>
<!DOCTYPE svg PUBLIC "-//W3C//DTD SVG 1.1//EN"
 "http://www.w3.org/Graphics/SVG/1.1/DTD/svg11.dtd">
<!-- Generated by graphviz version 2.43.0 (0)
 -->
<!-- Title: FileStream_Replace Pages: 1 -->
<svg width="478pt" height="158pt"
 viewBox="0.00 0.00 478.00 158.00" xmlns="http://www.w3.org/2000/svg" xmlns:xlink="http://www.w3.org/1999/xlink">
<g id="graph0" class="graph" transform="scale(1 1) rotate(0) translate(4 154)">
<title>FileStream_Replace</title>
<!-- Node1 -->
<g id="Node000001" class="node">
<title>Node1</title>
<g id="a_Node000001"><a xlink:title=" ">
<polygon fill="#999999" stroke="#666666" points="113,-93 0,-93 0,-74 113,-74 113,-93"/>
<text text-anchor="middle" x="56.5" y="-81" font-family="Helvetica,sans-Serif" font-size="10.00">FileStream_Replace</text>
</a>
</g>
</g>
<!-- Node2 -->
<g id="Node000002" class="node">
<title>Node2</title>
<g id="a_Node000002"><a xlink:href="FileStream_8cpp.html#a2065e645a0a5e3202253dda12bb14063" target="_top" xlink:title=" ">
<polygon fill="white" stroke="#666666" points="244.5,-150 155.5,-150 155.5,-131 244.5,-131 244.5,-150"/>
<text text-anchor="middle" x="200" y="-138" font-family="Helvetica,sans-Serif" font-size="10.00">BaseFile_Open</text>
</a>
</g>
</g>
<!-- Node1&#45;&gt;Node2 -->
<g id="edge1_Node000001_Node000002" class="edge">
<title>Node1&#45;&gt;Node2</title>
<g id="a_edge1_Node000001_Node000002"><a xlink:title=" ">
<path fill="none" stroke="#63b8ff" d="M81.18,-93.04C104.35,-102.37 139.82,-116.66 165.8,-127.12"/>
<polygon fill="#63b8ff" stroke="#63b8ff" points="164.66,-130.44 175.24,-130.93 167.27,-123.95 164.66,-130.44"/>
</a>
</g>
</g>
<!-- Node4 -->
<g id="Node000004" class="node">
<title>Node4</title>
<g id="a_Node000004"><a xlink:href="FileStream_8cpp.html#a65dd8d3e416ffbd6ac5f468c6bdccac9" target="_top" xlink:title=" ">
<polygon fill="white" stroke="#666666" points="470,-131 394,-131 394,-112 470,-112 470,-131"/>
<text text-anchor="middle" x="432" y="-119" font-family="Helvetica,sans-Serif" font-size="10.00">SetLastError</text>
</a>
</g>
</g>
<!-- Node1&#45;&gt;Node4 -->
<g id="edge7_Node000001_Node000004" class="edge">
<title>Node1&#45;&gt;Node4</title>
<g id="a_edge7_Node000001_Node000004"><a xlink:title=" ">
<path fill="none" stroke="#63b8ff" d="M113.01,-89.15C186.46,-96.62 314.68,-109.67 383.74,-116.69"/>
<polygon fill="#63b8ff" stroke="#63b8ff" points="383.59,-120.19 393.89,-117.72 384.29,-113.23 383.59,-120.19"/>
</a>
</g>
</g>
<!-- Node5 -->
<g id="Node000005" class="node">
<title>Node5</title>
<g id="a_Node000005"><a xlink:href="FileStream_8cpp.html#ab7eae20c598963167111f04222211b23" target="_top" xlink:title=" ">
<polygon fill="white" stroke="#666666" points="251,-74 149,-74 149,-55 251,-55 251,-74"/>
<text text-anchor="middle" x="200" y="-62" font-family="Helvetica,sans-Serif" font-size="10.00">BaseFile_Replace</text>
</a>
</g>
</g>
<!-- Node1&#45;&gt;Node5 -->
<g id="edge4_Node000001_Node000005" class="edge">
<title>Node1&#45;&gt;Node5</title>
<g id="a_edge4_Node000001_Node000005"><a xlink:title=" ">
<path fill="none" stroke="#63b8ff" d="M113.02,-76.05C121.48,-74.91 130.24,-73.73 138.79,-72.58"/>
<polygon fill="#63b8ff" stroke="#63b8ff" points="139.26,-76.05 148.71,-71.25 138.33,-69.12 139.26,-76.05"/>
</a>
</g>
</g>
<!-- Node6 -->
<g id="Node000006" class="node">
<title>Node6</title>
<g id="a_Node000006"><a xlink:href="FileStream_8cpp.html#ae8b75c4797726e9c5ee0b4b03bf31442" target="_top" xlink:title=" ">
<polygon fill="white" stroke="#666666" points="250.5,-19 149.5,-19 149.5,0 250.5,0 250.5,-19"/>
<text text-anchor="middle" x="200" y="-7" font-family="Helvetica,sans-Serif" font-size="10.00">FileStream_Close</text>
</a>
</g>
</g>
<!-- Node1&#45;&gt;Node6 -->
<g id="edge5_Node000001_Node000006" class="edge">
<title>Node1&#45;&gt;Node6</title>
<g id="a_edge5_Node000001_Node000006"><a xlink:title=" ">
<path fill="none" stroke="#63b8ff" d="M75.71,-73.98C99.99,-61.28 143.17,-38.7 171.44,-23.91"/>
<polygon fill="#63b8ff" stroke="#63b8ff" points="173.17,-26.96 180.41,-19.22 169.93,-20.75 173.17,-26.96"/>
</a>
</g>
</g>
<!-- Node3 -->
<g id="Node000003" class="node">
<title>Node3</title>
<g id="a_Node000003"><a xlink:href="storm_8cpp.html#a73746c1c75c90ae66df94ed4b6933f3d" target="_top" xlink:title=" ">
<polygon fill="white" stroke="#666666" points="358,-150 287,-150 287,-131 358,-131 358,-150"/>
<text text-anchor="middle" x="322.5" y="-138" font-family="Helvetica,sans-Serif" font-size="10.00">GetFileSize</text>
</a>
</g>
</g>
<!-- Node2&#45;&gt;Node3 -->
<g id="edge2_Node000002_Node000003" class="edge">
<title>Node2&#45;&gt;Node3</title>
<g id="a_edge2_Node000002_Node000003"><a xlink:title=" ">
<path fill="none" stroke="#63b8ff" d="M244.5,-140.5C254.92,-140.5 266.06,-140.5 276.54,-140.5"/>
<polygon fill="#63b8ff" stroke="#63b8ff" points="276.75,-144 286.75,-140.5 276.75,-137 276.75,-144"/>
</a>
</g>
</g>
<!-- Node3&#45;&gt;Node4 -->
<g id="edge3_Node000003_Node000004" class="edge">
<title>Node3&#45;&gt;Node4</title>
<g id="a_edge3_Node000003_Node000004"><a xlink:title=" ">
<path fill="none" stroke="#63b8ff" d="M358.11,-134.38C366.31,-132.93 375.2,-131.36 383.86,-129.83"/>
<polygon fill="#63b8ff" stroke="#63b8ff" points="384.62,-133.25 393.86,-128.06 383.4,-126.36 384.62,-133.25"/>
</a>
</g>
</g>
<!-- Node6&#45;&gt;Node6 -->
<g id="edge6_Node000006_Node000006" class="edge">
<title>Node6&#45;&gt;Node6</title>
<g id="a_edge6_Node000006_Node000006"><a xlink:title=" ">
<path fill="none" stroke="#63b8ff" d="M181.2,-19.08C172.05,-27.73 178.32,-37 200,-37 213.55,-37 221.08,-33.38 222.59,-28.55"/>
<polygon fill="#63b8ff" stroke="#63b8ff" points="225.77,-27.07 218.8,-19.08 219.27,-29.67 225.77,-27.07"/>
</a>
</g>
</g>
</g>
</svg>
