<?xml version="1.0" encoding="UTF-8" standalone="no"?>
<!DOCTYPE svg PUBLIC "-//W3C//DTD SVG 1.1//EN"
 "http://www.w3.org/Graphics/SVG/1.1/DTD/svg11.dtd">
<!-- Generated by graphviz version 2.43.0 (0)
 -->
<!-- Title: SFileSetArchiveMarkers Pages: 1 -->
<svg width="440pt" height="101pt"
 viewBox="0.00 0.00 440.00 101.00" xmlns="http://www.w3.org/2000/svg" xmlns:xlink="http://www.w3.org/1999/xlink">
<g id="graph0" class="graph" transform="scale(1 1) rotate(0) translate(4 97)">
<title>SFileSetArchiveMarkers</title>
<!-- Node1 -->
<g id="Node000001" class="node">
<title>Node1</title>
<g id="a_Node000001"><a xlink:title=" ">
<polygon fill="#999999" stroke="#666666" points="131,-56 0,-56 0,-37 131,-37 131,-56"/>
<text text-anchor="middle" x="65.5" y="-44" font-family="Helvetica,sans-Serif" font-size="10.00">SFileSetArchiveMarkers</text>
</a>
</g>
</g>
<!-- Node2 -->
<g id="Node000002" class="node">
<title>Node2</title>
<g id="a_Node000002"><a xlink:href="SBaseCommon_8cpp.html#a253e7854c54b950673d285bc8ceba83a" target="_top" xlink:title=" ">
<polygon fill="white" stroke="#666666" points="275,-93 205,-93 205,-74 275,-74 275,-93"/>
<text text-anchor="middle" x="240" y="-81" font-family="Helvetica,sans-Serif" font-size="10.00">HashString</text>
</a>
</g>
</g>
<!-- Node1&#45;&gt;Node2 -->
<g id="edge1_Node000001_Node000002" class="edge">
<title>Node1&#45;&gt;Node2</title>
<g id="a_edge1_Node000001_Node000002"><a xlink:title=" ">
<path fill="none" stroke="#63b8ff" d="M110.92,-56.03C136.74,-61.57 169.16,-68.52 194.93,-74.05"/>
<polygon fill="#63b8ff" stroke="#63b8ff" points="194.29,-77.49 204.8,-76.16 195.76,-70.65 194.29,-77.49"/>
</a>
</g>
</g>
<!-- Node3 -->
<g id="Node000003" class="node">
<title>Node3</title>
<g id="a_Node000003"><a xlink:href="SBaseCommon_8cpp.html#a771e96257f2889763ee169050c798554" target="_top" xlink:title=" ">
<polygon fill="white" stroke="#666666" points="313,-56 167,-56 167,-37 313,-37 313,-56"/>
<text text-anchor="middle" x="240" y="-44" font-family="Helvetica,sans-Serif" font-size="10.00">InitializeMpqCryptography</text>
</a>
</g>
</g>
<!-- Node1&#45;&gt;Node3 -->
<g id="edge2_Node000001_Node000003" class="edge">
<title>Node1&#45;&gt;Node3</title>
<g id="a_edge2_Node000001_Node000003"><a xlink:title=" ">
<path fill="none" stroke="#63b8ff" d="M131.22,-46.5C139.61,-46.5 148.28,-46.5 156.9,-46.5"/>
<polygon fill="#63b8ff" stroke="#63b8ff" points="156.97,-50 166.97,-46.5 156.97,-43 156.97,-50"/>
</a>
</g>
</g>
<!-- Node5 -->
<g id="Node000005" class="node">
<title>Node5</title>
<g id="a_Node000005"><a xlink:href="FileStream_8cpp.html#a65dd8d3e416ffbd6ac5f468c6bdccac9" target="_top" xlink:title=" ">
<polygon fill="white" stroke="#666666" points="278,-19 202,-19 202,0 278,0 278,-19"/>
<text text-anchor="middle" x="240" y="-7" font-family="Helvetica,sans-Serif" font-size="10.00">SetLastError</text>
</a>
</g>
</g>
<!-- Node1&#45;&gt;Node5 -->
<g id="edge4_Node000001_Node000005" class="edge">
<title>Node1&#45;&gt;Node5</title>
<g id="a_edge4_Node000001_Node000005"><a xlink:title=" ">
<path fill="none" stroke="#63b8ff" d="M110.92,-36.97C135.66,-31.66 166.47,-25.06 191.66,-19.65"/>
<polygon fill="#63b8ff" stroke="#63b8ff" points="192.68,-23.01 201.73,-17.49 191.21,-16.17 192.68,-23.01"/>
</a>
</g>
</g>
<!-- Node4 -->
<g id="Node000004" class="node">
<title>Node4</title>
<g id="a_Node000004"><a xlink:href="crypt__register__hash_8c.html#a675b9eda0e8cf146aca2cc89ea5ad571" target="_top" xlink:title=" ">
<polygon fill="white" stroke="#666666" points="432,-56 349,-56 349,-37 432,-37 432,-56"/>
<text text-anchor="middle" x="390.5" y="-44" font-family="Helvetica,sans-Serif" font-size="10.00">register_hash</text>
</a>
</g>
</g>
<!-- Node3&#45;&gt;Node4 -->
<g id="edge3_Node000003_Node000004" class="edge">
<title>Node3&#45;&gt;Node4</title>
<g id="a_edge3_Node000003_Node000004"><a xlink:title=" ">
<path fill="none" stroke="#63b8ff" d="M313.07,-46.5C321.7,-46.5 330.36,-46.5 338.6,-46.5"/>
<polygon fill="#63b8ff" stroke="#63b8ff" points="338.77,-50 348.77,-46.5 338.77,-43 338.77,-50"/>
</a>
</g>
</g>
</g>
</svg>
