<?xml version="1.0" encoding="UTF-8" standalone="no"?>
<!DOCTYPE svg PUBLIC "-//W3C//DTD SVG 1.1//EN"
 "http://www.w3.org/Graphics/SVG/1.1/DTD/svg11.dtd">
<!-- Generated by graphviz version 2.43.0 (0)
 -->
<!-- Title: FunctionArgs::addDBMessage Pages: 1 -->
<svg width="548pt" height="261pt"
 viewBox="0.00 0.00 548.00 260.50" xmlns="http://www.w3.org/2000/svg" xmlns:xlink="http://www.w3.org/1999/xlink">
<g id="graph0" class="graph" transform="scale(1 1) rotate(0) translate(4 256.5)">
<title>FunctionArgs::addDBMessage</title>
<!-- Node1 -->
<g id="Node000001" class="node">
<title>Node1</title>
<g id="a_Node000001"><a xlink:title=" ">
<polygon fill="#999999" stroke="#666666" points="540,-130 379,-130 379,-111 540,-111 540,-130"/>
<text text-anchor="middle" x="459.5" y="-118" font-family="Helvetica,sans-Serif" font-size="10.00">FunctionArgs::addDBMessage</text>
</a>
</g>
</g>
<!-- Node2 -->
<g id="Node000002" class="node">
<title>Node2</title>
<g id="a_Node000002"><a xlink:href="classCreatureAIScript.html#ae9f08f9a407877f02ed92a1ffa9375d2" target="_top" xlink:title=" ">
<polygon fill="white" stroke="#666666" points="340.5,-252.5 196.5,-252.5 196.5,-222.5 340.5,-222.5 340.5,-252.5"/>
<text text-anchor="start" x="204.5" y="-240.5" font-family="Helvetica,sans-Serif" font-size="10.00">CreatureAIScript::Creature</text>
<text text-anchor="middle" x="268.5" y="-229.5" font-family="Helvetica,sans-Serif" font-size="10.00">AIFunc_CastSpell</text>
</a>
</g>
</g>
<!-- Node1&#45;&gt;Node2 -->
<g id="edge1_Node000001_Node000002" class="edge">
<title>Node1&#45;&gt;Node2</title>
<g id="a_edge1_Node000001_Node000002"><a xlink:title=" ">
<path fill="none" stroke="#63b8ff" d="M441.94,-137.14C420.7,-157.66 381.93,-192.39 343,-213.5 336.86,-216.83 330.19,-219.79 323.44,-222.41"/>
<polygon fill="#63b8ff" stroke="#63b8ff" points="444.5,-139.54 449.18,-130.03 439.59,-134.54 444.5,-139.54"/>
</a>
</g>
</g>
<!-- Node4 -->
<g id="Node000004" class="node">
<title>Node4</title>
<g id="a_Node000004"><a xlink:href="classGaroshAI.html#a3c0ac0bd444d2eed6f8cf8bb3b93e402" target="_top" xlink:title=" ">
<polygon fill="white" stroke="#666666" points="324,-204 213,-204 213,-185 324,-185 324,-204"/>
<text text-anchor="middle" x="268.5" y="-192" font-family="Helvetica,sans-Serif" font-size="10.00">GaroshAI::DoAction</text>
</a>
</g>
</g>
<!-- Node1&#45;&gt;Node4 -->
<g id="edge3_Node000001_Node000004" class="edge">
<title>Node1&#45;&gt;Node4</title>
<g id="a_edge3_Node000001_Node000004"><a xlink:title=" ">
<path fill="none" stroke="#63b8ff" d="M432.69,-134.97C409.72,-147.37 374.92,-165 343,-176.5 334.1,-179.71 324.39,-182.53 315.04,-184.94"/>
<polygon fill="#63b8ff" stroke="#63b8ff" points="434.67,-137.88 441.77,-130.01 431.32,-131.74 434.67,-137.88"/>
</a>
</g>
</g>
<!-- Node5 -->
<g id="Node000005" class="node">
<title>Node5</title>
<g id="a_Node000005"><a xlink:href="classVarianAI.html#a6ef750c241c1f0aeadb8652fbc5e1f92" target="_top" xlink:title=" ">
<polygon fill="white" stroke="#666666" points="322,-167 215,-167 215,-148 322,-148 322,-167"/>
<text text-anchor="middle" x="268.5" y="-155" font-family="Helvetica,sans-Serif" font-size="10.00">VarianAI::DoAction</text>
</a>
</g>
</g>
<!-- Node1&#45;&gt;Node5 -->
<g id="edge4_Node000001_Node000005" class="edge">
<title>Node1&#45;&gt;Node5</title>
<g id="a_edge4_Node000001_Node000005"><a xlink:title=" ">
<path fill="none" stroke="#63b8ff" d="M399.67,-132.02C373.56,-137.13 343.17,-143.08 318.34,-147.94"/>
<polygon fill="#63b8ff" stroke="#63b8ff" points="400.69,-135.38 409.83,-130.03 399.34,-128.51 400.69,-135.38"/>
</a>
</g>
</g>
<!-- Node6 -->
<g id="Node000006" class="node">
<title>Node6</title>
<g id="a_Node000006"><a xlink:href="structMessage.html#a53a316c50e3f574faca7e705f2215382" target="_top" xlink:title=" ">
<polygon fill="white" stroke="#666666" points="323.5,-130 213.5,-130 213.5,-111 323.5,-111 323.5,-130"/>
<text text-anchor="middle" x="268.5" y="-118" font-family="Helvetica,sans-Serif" font-size="10.00">Message::Message</text>
</a>
</g>
</g>
<!-- Node1&#45;&gt;Node6 -->
<g id="edge5_Node000001_Node000006" class="edge">
<title>Node1&#45;&gt;Node6</title>
<g id="a_edge5_Node000001_Node000006"><a xlink:title=" ">
<path fill="none" stroke="#63b8ff" d="M368.77,-120.5C353.31,-120.5 337.67,-120.5 323.53,-120.5"/>
<polygon fill="#63b8ff" stroke="#63b8ff" points="368.89,-124 378.89,-120.5 368.89,-117 368.89,-124"/>
</a>
</g>
</g>
<!-- Node7 -->
<g id="Node000007" class="node">
<title>Node7</title>
<g id="a_Node000007"><a xlink:href="structMessage.html#ad81d931c0905193bfa2fd823a164439d" target="_top" xlink:title=" ">
<polygon fill="white" stroke="#666666" points="323.5,-93 213.5,-93 213.5,-74 323.5,-74 323.5,-93"/>
<text text-anchor="middle" x="268.5" y="-81" font-family="Helvetica,sans-Serif" font-size="10.00">Message::Message</text>
</a>
</g>
</g>
<!-- Node1&#45;&gt;Node7 -->
<g id="edge6_Node000001_Node000007" class="edge">
<title>Node1&#45;&gt;Node7</title>
<g id="a_edge6_Node000001_Node000007"><a xlink:title=" ">
<path fill="none" stroke="#63b8ff" d="M399.67,-108.98C373.56,-103.87 343.17,-97.92 318.34,-93.06"/>
<polygon fill="#63b8ff" stroke="#63b8ff" points="399.34,-112.49 409.83,-110.97 400.69,-105.62 399.34,-112.49"/>
</a>
</g>
</g>
<!-- Node8 -->
<g id="Node000008" class="node">
<title>Node8</title>
<g id="a_Node000008"><a xlink:href="classTwinsAI.html#a39a3eb26a991277cd3777c87a1fac885" target="_top" xlink:title=" ">
<polygon fill="white" stroke="#666666" points="335.5,-56 201.5,-56 201.5,-37 335.5,-37 335.5,-56"/>
<text text-anchor="middle" x="268.5" y="-44" font-family="Helvetica,sans-Serif" font-size="10.00">TwinsAI::OnCombatStart</text>
</a>
</g>
</g>
<!-- Node1&#45;&gt;Node8 -->
<g id="edge7_Node000001_Node000008" class="edge">
<title>Node1&#45;&gt;Node8</title>
<g id="a_edge7_Node000001_Node000008"><a xlink:title=" ">
<path fill="none" stroke="#63b8ff" d="M432.69,-106.03C409.72,-93.63 374.92,-76 343,-64.5 334.1,-61.29 324.39,-58.47 315.04,-56.06"/>
<polygon fill="#63b8ff" stroke="#63b8ff" points="431.32,-109.26 441.77,-110.99 434.67,-103.12 431.32,-109.26"/>
</a>
</g>
</g>
<!-- Node10 -->
<g id="Node000010" class="node">
<title>Node10</title>
<g id="a_Node000010"><a xlink:href="classJaraxxusAI.html#a11a212942218221bb726b7e0988d5483" target="_top" xlink:title=" ">
<polygon fill="white" stroke="#666666" points="343,-19 194,-19 194,0 343,0 343,-19"/>
<text text-anchor="middle" x="268.5" y="-7" font-family="Helvetica,sans-Serif" font-size="10.00">JaraxxusAI::OnCombatStart</text>
</a>
</g>
</g>
<!-- Node1&#45;&gt;Node10 -->
<g id="edge9_Node000001_Node000010" class="edge">
<title>Node1&#45;&gt;Node10</title>
<g id="a_edge9_Node000001_Node000010"><a xlink:title=" ">
<path fill="none" stroke="#63b8ff" d="M442.51,-103.7C421.6,-82.73 382.91,-47.22 343,-27.5 336.17,-24.12 328.66,-21.35 321.13,-19.09"/>
<polygon fill="#63b8ff" stroke="#63b8ff" points="440.12,-106.27 449.62,-110.96 445.12,-101.37 440.12,-106.27"/>
</a>
</g>
</g>
<!-- Node3 -->
<g id="Node000003" class="node">
<title>Node3</title>
<g id="a_Node000003"><a xlink:href="classCreatureAIFunctionScheduler.html#a00bc80d8b302e22894bfc5e10dd7052a" target="_top" xlink:title=" ">
<polygon fill="white" stroke="#666666" points="158,-252.5 0,-252.5 0,-222.5 158,-222.5 158,-252.5"/>
<text text-anchor="start" x="8" y="-240.5" font-family="Helvetica,sans-Serif" font-size="10.00">CreatureAIFunctionScheduler</text>
<text text-anchor="middle" x="79" y="-229.5" font-family="Helvetica,sans-Serif" font-size="10.00">::addAISpell</text>
</a>
</g>
</g>
<!-- Node2&#45;&gt;Node3 -->
<g id="edge2_Node000002_Node000003" class="edge">
<title>Node2&#45;&gt;Node3</title>
<g id="a_edge2_Node000002_Node000003"><a xlink:title=" ">
<path fill="none" stroke="#63b8ff" d="M186.34,-237.5C177.04,-237.5 167.57,-237.5 158.31,-237.5"/>
<polygon fill="#63b8ff" stroke="#63b8ff" points="186.35,-241 196.35,-237.5 186.35,-234 186.35,-241"/>
</a>
</g>
</g>
<!-- Node9 -->
<g id="Node000009" class="node">
<title>Node9</title>
<g id="a_Node000009"><a xlink:href="classFjolaAI.html#a2f8e6f42d0dea82604dc3b811d4b6e51" target="_top" xlink:title=" ">
<polygon fill="white" stroke="#666666" points="144.5,-56 13.5,-56 13.5,-37 144.5,-37 144.5,-56"/>
<text text-anchor="middle" x="79" y="-44" font-family="Helvetica,sans-Serif" font-size="10.00">FjolaAI::OnCombatStart</text>
</a>
</g>
</g>
<!-- Node8&#45;&gt;Node9 -->
<g id="edge8_Node000008_Node000009" class="edge">
<title>Node8&#45;&gt;Node9</title>
<g id="a_edge8_Node000008_Node000009"><a xlink:title=" ">
<path fill="none" stroke="#63b8ff" d="M191.32,-46.5C175.8,-46.5 159.62,-46.5 144.56,-46.5"/>
<polygon fill="#63b8ff" stroke="#63b8ff" points="191.39,-50 201.39,-46.5 191.39,-43 191.39,-50"/>
</a>
</g>
</g>
</g>
</svg>
