<?xml version="1.0" encoding="UTF-8" standalone="no"?>
<!DOCTYPE svg PUBLIC "-//W3C//DTD SVG 1.1//EN"
 "http://www.w3.org/Graphics/SVG/1.1/DTD/svg11.dtd">
<!-- Generated by graphviz version 2.43.0 (0)
 -->
<!-- Title: DynamicTreeIntersectionCallback::operator() Pages: 1 -->
<svg width="1344pt" height="513pt"
 viewBox="0.00 0.00 1344.00 513.00" xmlns="http://www.w3.org/2000/svg" xmlns:xlink="http://www.w3.org/1999/xlink">
<g id="graph0" class="graph" transform="scale(1 1) rotate(0) translate(4 509)">
<title>DynamicTreeIntersectionCallback::operator()</title>
<!-- Node1 -->
<g id="Node000001" class="node">
<title>Node1</title>
<g id="a_Node000001"><a xlink:title=" ">
<polygon fill="#999999" stroke="#666666" points="180,-288.5 0,-288.5 0,-258.5 180,-258.5 180,-288.5"/>
<text text-anchor="start" x="8" y="-276.5" font-family="Helvetica,sans-Serif" font-size="10.00">DynamicTreeIntersectionCallback</text>
<text text-anchor="middle" x="90" y="-265.5" font-family="Helvetica,sans-Serif" font-size="10.00">::operator()</text>
</a>
</g>
</g>
<!-- Node2 -->
<g id="Node000002" class="node">
<title>Node2</title>
<g id="a_Node000002"><a xlink:href="classGameObjectModel.html#a872d1383660ca8f185fb2a7b4c2778ca" target="_top" xlink:title=" ">
<polygon fill="white" stroke="#666666" points="391,-283 216,-283 216,-264 391,-264 391,-283"/>
<text text-anchor="middle" x="303.5" y="-271" font-family="Helvetica,sans-Serif" font-size="10.00">GameObjectModel::intersectRay</text>
</a>
</g>
</g>
<!-- Node1&#45;&gt;Node2 -->
<g id="edge1_Node000001_Node000002" class="edge">
<title>Node1&#45;&gt;Node2</title>
<g id="a_edge1_Node000001_Node000002"><a xlink:title=" ">
<path fill="none" stroke="#63b8ff" d="M180.08,-273.5C188.6,-273.5 197.27,-273.5 205.86,-273.5"/>
<polygon fill="#63b8ff" stroke="#63b8ff" points="205.89,-277 215.89,-273.5 205.89,-270 205.89,-277"/>
</a>
</g>
</g>
<!-- Node3 -->
<g id="Node000003" class="node">
<title>Node3</title>
<g id="a_Node000003"><a xlink:href="classG3D_1_1Ray.html#adba4bdb1a0881c999503c0cfb3da2188" target="_top" xlink:title=" ">
<polygon fill="white" stroke="#666666" points="963.5,-505 853.5,-505 853.5,-486 963.5,-486 963.5,-505"/>
<text text-anchor="middle" x="908.5" y="-493" font-family="Helvetica,sans-Serif" font-size="10.00">G3D::Ray::direction</text>
</a>
</g>
</g>
<!-- Node2&#45;&gt;Node3 -->
<g id="edge2_Node000002_Node000003" class="edge">
<title>Node2&#45;&gt;Node3</title>
<g id="a_edge2_Node000002_Node000003"><a xlink:title=" ">
<path fill="none" stroke="#63b8ff" d="M312.99,-283.02C331.58,-303.25 378.13,-350.71 427,-375.5 565.53,-445.79 747.85,-476.63 843.15,-488.7"/>
<polygon fill="#63b8ff" stroke="#63b8ff" points="842.86,-492.19 853.22,-489.95 843.72,-485.25 842.86,-492.19"/>
</a>
</g>
</g>
<!-- Node4 -->
<g id="Node000004" class="node">
<title>Node4</title>
<g id="a_Node000004"><a xlink:href="namespaceG3D.html#a75b289f04a486b3026012c289513e4d8" target="_top" xlink:title=" ">
<polygon fill="white" stroke="#666666" points="1086,-207 1027,-207 1027,-188 1086,-188 1086,-207"/>
<text text-anchor="middle" x="1056.5" y="-195" font-family="Helvetica,sans-Serif" font-size="10.00">G3D::finf</text>
</a>
</g>
</g>
<!-- Node2&#45;&gt;Node4 -->
<g id="edge3_Node000002_Node000004" class="edge">
<title>Node2&#45;&gt;Node4</title>
<g id="a_edge3_Node000002_Node000004"><a xlink:title=" ">
<path fill="none" stroke="#63b8ff" d="M391.02,-264.74C553.9,-248.26 900.16,-213.22 1016.47,-201.45"/>
<polygon fill="#63b8ff" stroke="#63b8ff" points="1017.08,-204.91 1026.68,-200.42 1016.38,-197.94 1017.08,-204.91"/>
</a>
</g>
</g>
<!-- Node5 -->
<g id="Node000005" class="node">
<title>Node5</title>
<g id="a_Node000005"><a xlink:href="classG3D_1_1Ray.html#a363e2590228e4e2695ac9812e57afad5" target="_top" xlink:title=" ">
<polygon fill="white" stroke="#666666" points="590,-170 440,-170 440,-151 590,-151 590,-170"/>
<text text-anchor="middle" x="515" y="-158" font-family="Helvetica,sans-Serif" font-size="10.00">G3D::Ray::intersectionTime</text>
</a>
</g>
</g>
<!-- Node2&#45;&gt;Node5 -->
<g id="edge4_Node000002_Node000005" class="edge">
<title>Node2&#45;&gt;Node5</title>
<g id="a_edge4_Node000002_Node000005"><a xlink:title=" ">
<path fill="none" stroke="#63b8ff" d="M322.36,-263.87C359.24,-243.98 443.95,-198.28 487.34,-174.88"/>
<polygon fill="#63b8ff" stroke="#63b8ff" points="489.04,-177.94 496.18,-170.11 485.72,-171.78 489.04,-177.94"/>
</a>
</g>
</g>
<!-- Node14 -->
<g id="Node000014" class="node">
<title>Node14</title>
<g id="a_Node000014"><a xlink:href="classVMAP_1_1WorldModel.html#a70b26c4236030dd012b5e5c7b3875206" target="_top" xlink:title=" ">
<polygon fill="white" stroke="#666666" points="603,-366 427,-366 427,-347 603,-347 603,-366"/>
<text text-anchor="middle" x="515" y="-354" font-family="Helvetica,sans-Serif" font-size="10.00">VMAP::WorldModel::IntersectRay</text>
</a>
</g>
</g>
<!-- Node2&#45;&gt;Node14 -->
<g id="edge16_Node000002_Node000014" class="edge">
<title>Node2&#45;&gt;Node14</title>
<g id="a_edge16_Node000002_Node000014"><a xlink:title=" ">
<path fill="none" stroke="#63b8ff" d="M328.53,-283.02C365.92,-297.84 438.13,-326.44 480.58,-343.26"/>
<polygon fill="#63b8ff" stroke="#63b8ff" points="479.34,-346.53 489.93,-346.96 481.92,-340.03 479.34,-346.53"/>
</a>
</g>
</g>
<!-- Node25 -->
<g id="Node000025" class="node">
<title>Node25</title>
<g id="a_Node000025"><a xlink:href="classG3D_1_1Ray.html#a664a82803b5d3e969c781d83783c332d" target="_top" xlink:title=" ">
<polygon fill="white" stroke="#666666" points="956,-283 861,-283 861,-264 956,-264 956,-283"/>
<text text-anchor="middle" x="908.5" y="-271" font-family="Helvetica,sans-Serif" font-size="10.00">G3D::Ray::origin</text>
</a>
</g>
</g>
<!-- Node2&#45;&gt;Node25 -->
<g id="edge30_Node000002_Node000025" class="edge">
<title>Node2&#45;&gt;Node25</title>
<g id="a_edge30_Node000002_Node000025"><a xlink:title=" ">
<path fill="none" stroke="#63b8ff" d="M391.22,-273.5C516.43,-273.5 744.44,-273.5 850.47,-273.5"/>
<polygon fill="#63b8ff" stroke="#63b8ff" points="850.64,-277 860.64,-273.5 850.64,-270 850.64,-277"/>
</a>
</g>
</g>
<!-- Node6 -->
<g id="Node000006" class="node">
<title>Node6</title>
<g id="a_Node000006"><a xlink:href="classG3D_1_1CollisionDetection.html#afd9f69580ae5f1b324b0e9b4512bd962" target="_top" xlink:title=" ">
<polygon fill="white" stroke="#666666" points="803,-143 639,-143 639,-102 803,-102 803,-143"/>
<text text-anchor="start" x="647" y="-131" font-family="Helvetica,sans-Serif" font-size="10.00">G3D::CollisionDetection</text>
<text text-anchor="start" x="647" y="-120" font-family="Helvetica,sans-Serif" font-size="10.00">::collisionTimeForMovingPoint</text>
<text text-anchor="middle" x="721" y="-109" font-family="Helvetica,sans-Serif" font-size="10.00">FixedSphere</text>
</a>
</g>
</g>
<!-- Node5&#45;&gt;Node6 -->
<g id="edge5_Node000005_Node000006" class="edge">
<title>Node5&#45;&gt;Node6</title>
<g id="a_edge5_Node000005_Node000006"><a xlink:title=" ">
<path fill="none" stroke="#63b8ff" d="M567.21,-150.96C585.96,-147.47 607.78,-143.4 628.97,-139.46"/>
<polygon fill="#63b8ff" stroke="#63b8ff" points="629.78,-142.87 638.97,-137.59 628.49,-135.99 629.78,-142.87"/>
</a>
</g>
</g>
<!-- Node6&#45;&gt;Node4 -->
<g id="edge11_Node000006_Node000004" class="edge">
<title>Node6&#45;&gt;Node4</title>
<g id="a_edge11_Node000006_Node000004"><a xlink:title=" ">
<path fill="none" stroke="#63b8ff" d="M757.38,-143.1C779.97,-155.23 810.3,-169.69 839,-177.5 899.57,-193.99 972.8,-197.49 1016.69,-197.93"/>
<polygon fill="#63b8ff" stroke="#63b8ff" points="1016.9,-201.43 1026.92,-197.98 1016.94,-194.43 1016.9,-201.43"/>
</a>
</g>
</g>
<!-- Node7 -->
<g id="Node000007" class="node">
<title>Node7</title>
<g id="a_Node000007"><a xlink:href="classG3D_1_1Sphere.html#a68a51ae3b2b62ba253a086a39fd8d9ab" target="_top" xlink:title=" ">
<polygon fill="white" stroke="#666666" points="971,-132 846,-132 846,-113 971,-113 971,-132"/>
<text text-anchor="middle" x="908.5" y="-120" font-family="Helvetica,sans-Serif" font-size="10.00">G3D::Sphere::contains</text>
</a>
</g>
</g>
<!-- Node6&#45;&gt;Node7 -->
<g id="edge6_Node000006_Node000007" class="edge">
<title>Node6&#45;&gt;Node7</title>
<g id="a_edge6_Node000006_Node000007"><a xlink:title=" ">
<path fill="none" stroke="#63b8ff" d="M803.09,-122.5C813.95,-122.5 825.03,-122.5 835.72,-122.5"/>
<polygon fill="#63b8ff" stroke="#63b8ff" points="835.82,-126 845.82,-122.5 835.82,-119 835.82,-126"/>
</a>
</g>
</g>
<!-- Node10 -->
<g id="Node000010" class="node">
<title>Node10</title>
<g id="a_Node000010"><a xlink:href="namespaceG3D.html#a9ed85275ce24e11643ffca6cf6b26f26" target="_top" xlink:title=" ">
<polygon fill="white" stroke="#666666" points="1095,-95 1018,-95 1018,-76 1095,-76 1095,-95"/>
<text text-anchor="middle" x="1056.5" y="-83" font-family="Helvetica,sans-Serif" font-size="10.00">G3D::square</text>
</a>
</g>
</g>
<!-- Node6&#45;&gt;Node10 -->
<g id="edge15_Node000006_Node000010" class="edge">
<title>Node6&#45;&gt;Node10</title>
<g id="a_edge15_Node000006_Node000010"><a xlink:title=" ">
<path fill="none" stroke="#63b8ff" d="M803.08,-108.49C815.1,-106.66 827.36,-104.93 839,-103.5 896.88,-96.41 963.81,-91.31 1007.75,-88.4"/>
<polygon fill="#63b8ff" stroke="#63b8ff" points="1008.11,-91.88 1017.86,-87.74 1007.65,-84.89 1008.11,-91.88"/>
</a>
</g>
</g>
<!-- Node11 -->
<g id="Node000011" class="node">
<title>Node11</title>
<g id="a_Node000011"><a xlink:href="classG3D_1_1Vector3.html#a738e0282cf91f7835e0299aaed0b2fa7" target="_top" xlink:title=" ">
<polygon fill="white" stroke="#666666" points="959.5,-56 857.5,-56 857.5,-37 959.5,-37 959.5,-56"/>
<text text-anchor="middle" x="908.5" y="-44" font-family="Helvetica,sans-Serif" font-size="10.00">G3D::Vector3::dot</text>
</a>
</g>
</g>
<!-- Node6&#45;&gt;Node11 -->
<g id="edge10_Node000006_Node000011" class="edge">
<title>Node6&#45;&gt;Node11</title>
<g id="a_edge10_Node000006_Node000011"><a xlink:title=" ">
<path fill="none" stroke="#63b8ff" d="M766.09,-101.89C787.86,-91.97 814.62,-80.17 839,-70.5 848.66,-66.67 859.21,-62.81 869.07,-59.35"/>
<polygon fill="#63b8ff" stroke="#63b8ff" points="870.34,-62.61 878.65,-56.03 868.05,-56 870.34,-62.61"/>
</a>
</g>
</g>
<!-- Node12 -->
<g id="Node000012" class="node">
<title>Node12</title>
<g id="a_Node000012"><a xlink:href="classG3D_1_1Vector3.html#aa30928c1850c01f4456e83b4bab0254c" target="_top" xlink:title=" ">
<polygon fill="white" stroke="#666666" points="958,-169 859,-169 859,-150 958,-150 958,-169"/>
<text text-anchor="middle" x="908.5" y="-157" font-family="Helvetica,sans-Serif" font-size="10.00">G3D::Vector3::inf</text>
</a>
</g>
</g>
<!-- Node6&#45;&gt;Node12 -->
<g id="edge12_Node000006_Node000012" class="edge">
<title>Node6&#45;&gt;Node12</title>
<g id="a_edge12_Node000006_Node000012"><a xlink:title=" ">
<path fill="none" stroke="#63b8ff" d="M803.09,-138.67C818.78,-141.8 834.91,-145.02 849.67,-147.96"/>
<polygon fill="#63b8ff" stroke="#63b8ff" points="849.15,-151.43 859.64,-149.95 850.52,-144.57 849.15,-151.43"/>
</a>
</g>
</g>
<!-- Node13 -->
<g id="Node000013" class="node">
<title>Node13</title>
<g id="a_Node000013"><a xlink:href="classG3D_1_1Vector3.html#a4ab82e1f74df7c27d6452f333f807736" target="_top" xlink:title=" ">
<polygon fill="white" stroke="#666666" points="978,-19 839,-19 839,0 978,0 978,-19"/>
<text text-anchor="middle" x="908.5" y="-7" font-family="Helvetica,sans-Serif" font-size="10.00">G3D::Vector3::magnitude</text>
</a>
</g>
</g>
<!-- Node6&#45;&gt;Node13 -->
<g id="edge14_Node000006_Node000013" class="edge">
<title>Node6&#45;&gt;Node13</title>
<g id="a_edge14_Node000006_Node000013"><a xlink:title=" ">
<path fill="none" stroke="#63b8ff" d="M742.05,-101.64C763.93,-80.03 800.97,-46.8 839,-27.5 842.76,-25.59 846.75,-23.87 850.83,-22.32"/>
<polygon fill="#63b8ff" stroke="#63b8ff" points="852.14,-25.57 860.46,-19.01 849.86,-18.95 852.14,-25.57"/>
</a>
</g>
</g>
<!-- Node8 -->
<g id="Node000008" class="node">
<title>Node8</title>
<g id="a_Node000008"><a xlink:href="namespaceG3D.html#ae446db55e6d09c13766b1f634a5a01a4" target="_top" xlink:title=" ">
<polygon fill="white" stroke="#666666" points="1099,-132 1014,-132 1014,-113 1099,-113 1099,-132"/>
<text text-anchor="middle" x="1056.5" y="-120" font-family="Helvetica,sans-Serif" font-size="10.00">G3D::distance</text>
</a>
</g>
</g>
<!-- Node7&#45;&gt;Node8 -->
<g id="edge7_Node000007_Node000008" class="edge">
<title>Node7&#45;&gt;Node8</title>
<g id="a_edge7_Node000007_Node000008"><a xlink:title=" ">
<path fill="none" stroke="#63b8ff" d="M971.42,-122.5C982.14,-122.5 993.19,-122.5 1003.62,-122.5"/>
<polygon fill="#63b8ff" stroke="#63b8ff" points="1003.8,-126 1013.8,-122.5 1003.8,-119 1003.8,-126"/>
</a>
</g>
</g>
<!-- Node7&#45;&gt;Node10 -->
<g id="edge9_Node000007_Node000010" class="edge">
<title>Node7&#45;&gt;Node10</title>
<g id="a_edge9_Node000007_Node000010"><a xlink:title=" ">
<path fill="none" stroke="#63b8ff" d="M947.1,-112.97C965.67,-108.26 988.28,-102.53 1008.04,-97.53"/>
<polygon fill="#63b8ff" stroke="#63b8ff" points="1008.94,-100.91 1017.78,-95.06 1007.22,-94.12 1008.94,-100.91"/>
</a>
</g>
</g>
<!-- Node9 -->
<g id="Node000009" class="node">
<title>Node9</title>
<g id="a_Node000009"><a xlink:href="namespaceG3D.html#aaa6fde0a7fe506e7b504ffa5c273481b" target="_top" xlink:title=" ">
<polygon fill="white" stroke="#666666" points="1239,-132 1135,-132 1135,-113 1239,-113 1239,-132"/>
<text text-anchor="middle" x="1187" y="-120" font-family="Helvetica,sans-Serif" font-size="10.00">G3D::sumSquares</text>
</a>
</g>
</g>
<!-- Node8&#45;&gt;Node9 -->
<g id="edge8_Node000008_Node000009" class="edge">
<title>Node8&#45;&gt;Node9</title>
<g id="a_edge8_Node000008_Node000009"><a xlink:title=" ">
<path fill="none" stroke="#63b8ff" d="M1099.22,-122.5C1107.33,-122.5 1115.99,-122.5 1124.58,-122.5"/>
<polygon fill="#63b8ff" stroke="#63b8ff" points="1124.6,-126 1134.6,-122.5 1124.6,-119 1124.6,-126"/>
</a>
</g>
</g>
<!-- Node12&#45;&gt;Node4 -->
<g id="edge13_Node000012_Node000004" class="edge">
<title>Node12&#45;&gt;Node4</title>
<g id="a_edge13_Node000012_Node000004"><a xlink:title=" ">
<path fill="none" stroke="#63b8ff" d="M946.34,-169.09C967.93,-174.71 995.16,-181.79 1017.02,-187.48"/>
<polygon fill="#63b8ff" stroke="#63b8ff" points="1016.4,-190.94 1026.96,-190.07 1018.16,-184.17 1016.4,-190.94"/>
</a>
</g>
</g>
<!-- Node15 -->
<g id="Node000015" class="node">
<title>Node15</title>
<g id="a_Node000015"><a xlink:href="classBIH.html#af47dddc6fb2ddb445bdc01512624c080" target="_top" xlink:title=" ">
<polygon fill="white" stroke="#666666" points="771.5,-375 670.5,-375 670.5,-356 771.5,-356 771.5,-375"/>
<text text-anchor="middle" x="721" y="-363" font-family="Helvetica,sans-Serif" font-size="10.00">BIH::intersectRay</text>
</a>
</g>
</g>
<!-- Node14&#45;&gt;Node15 -->
<g id="edge17_Node000014_Node000015" class="edge">
<title>Node14&#45;&gt;Node15</title>
<g id="a_edge17_Node000014_Node000015"><a xlink:title=" ">
<path fill="none" stroke="#63b8ff" d="M603.11,-360.34C622.3,-361.19 642.21,-362.07 660.04,-362.85"/>
<polygon fill="#63b8ff" stroke="#63b8ff" points="660.13,-366.36 670.28,-363.31 660.44,-359.37 660.13,-366.36"/>
</a>
</g>
</g>
<!-- Node15&#45;&gt;Node3 -->
<g id="edge18_Node000015_Node000003" class="edge">
<title>Node15&#45;&gt;Node3</title>
<g id="a_edge18_Node000015_Node000003"><a xlink:title=" ">
<path fill="none" stroke="#63b8ff" d="M761.71,-375.02C776.1,-380.07 791.61,-387.56 803,-398.5 830.83,-425.22 809.49,-452.64 839,-477.5 840.59,-478.84 842.26,-480.08 844.01,-481.22"/>
<polygon fill="#63b8ff" stroke="#63b8ff" points="842.77,-484.54 853.23,-486.24 846.12,-478.39 842.77,-484.54"/>
</a>
</g>
</g>
<!-- Node16 -->
<g id="Node000016" class="node">
<title>Node16</title>
<g id="a_Node000016"><a xlink:href="BoundingIntervalHierarchy_8h.html#a9c38539c24f901190869185479dfba8f" target="_top" xlink:title=" ">
<polygon fill="white" stroke="#666666" points="959,-468 858,-468 858,-449 959,-449 959,-468"/>
<text text-anchor="middle" x="908.5" y="-456" font-family="Helvetica,sans-Serif" font-size="10.00">floatToRawIntBits</text>
</a>
</g>
</g>
<!-- Node15&#45;&gt;Node16 -->
<g id="edge19_Node000015_Node000016" class="edge">
<title>Node15&#45;&gt;Node16</title>
<g id="a_edge19_Node000015_Node000016"><a xlink:title=" ">
<path fill="none" stroke="#63b8ff" d="M755.36,-375.07C770.74,-380.46 788.71,-388.2 803,-398.5 822.94,-412.88 818.16,-427.45 839,-440.5 841.96,-442.35 845.1,-444.01 848.35,-445.5"/>
<polygon fill="#63b8ff" stroke="#63b8ff" points="847.14,-448.79 857.73,-449.27 849.75,-442.3 847.14,-448.79"/>
</a>
</g>
</g>
<!-- Node17 -->
<g id="Node000017" class="node">
<title>Node17</title>
<g id="a_Node000017"><a xlink:href="namespaceG3D.html#a340ff43f419487ceaefa72d9fd0bc830" target="_top" xlink:title=" ">
<polygon fill="white" stroke="#666666" points="950,-431 867,-431 867,-412 950,-412 950,-431"/>
<text text-anchor="middle" x="908.5" y="-419" font-family="Helvetica,sans-Serif" font-size="10.00">G3D::fuzzyNe</text>
</a>
</g>
</g>
<!-- Node15&#45;&gt;Node17 -->
<g id="edge20_Node000015_Node000017" class="edge">
<title>Node15&#45;&gt;Node17</title>
<g id="a_edge20_Node000015_Node000017"><a xlink:title=" ">
<path fill="none" stroke="#63b8ff" d="M749.76,-375.01C773.38,-382.98 808.26,-394.48 839,-403.5 845.66,-405.45 852.71,-407.42 859.66,-409.3"/>
<polygon fill="#63b8ff" stroke="#63b8ff" points="859.14,-412.79 869.71,-411.98 860.95,-406.02 859.14,-412.79"/>
</a>
</g>
</g>
<!-- Node22 -->
<g id="Node000022" class="node">
<title>Node22</title>
<g id="a_Node000022"><a xlink:href="classG3D_1_1AABox.html#a0140544889385cdc342659e97ee70809" target="_top" xlink:title=" ">
<polygon fill="white" stroke="#666666" points="960,-394 857,-394 857,-375 960,-375 960,-394"/>
<text text-anchor="middle" x="908.5" y="-382" font-family="Helvetica,sans-Serif" font-size="10.00">G3D::AABox::high</text>
</a>
</g>
</g>
<!-- Node15&#45;&gt;Node22 -->
<g id="edge26_Node000015_Node000022" class="edge">
<title>Node15&#45;&gt;Node22</title>
<g id="a_edge26_Node000015_Node000022"><a xlink:title=" ">
<path fill="none" stroke="#63b8ff" d="M771.71,-370.59C794.72,-372.95 822.26,-375.77 846.51,-378.25"/>
<polygon fill="#63b8ff" stroke="#63b8ff" points="846.38,-381.76 856.68,-379.3 847.09,-374.79 846.38,-381.76"/>
</a>
</g>
</g>
<!-- Node23 -->
<g id="Node000023" class="node">
<title>Node23</title>
<g id="a_Node000023"><a xlink:href="BoundingIntervalHierarchy_8h.html#aa6f552e1c60ad390e6c4d07d4e3acfb3" target="_top" xlink:title=" ">
<polygon fill="white" stroke="#666666" points="950,-357 867,-357 867,-338 950,-338 950,-357"/>
<text text-anchor="middle" x="908.5" y="-345" font-family="Helvetica,sans-Serif" font-size="10.00">intBitsToFloat</text>
</a>
</g>
</g>
<!-- Node15&#45;&gt;Node23 -->
<g id="edge27_Node000015_Node000023" class="edge">
<title>Node15&#45;&gt;Node23</title>
<g id="a_edge27_Node000015_Node000023"><a xlink:title=" ">
<path fill="none" stroke="#63b8ff" d="M771.71,-360.68C797.95,-358.13 830.1,-355.01 856.53,-352.45"/>
<polygon fill="#63b8ff" stroke="#63b8ff" points="857.11,-355.91 866.73,-351.46 856.44,-348.94 857.11,-355.91"/>
</a>
</g>
</g>
<!-- Node24 -->
<g id="Node000024" class="node">
<title>Node24</title>
<g id="a_Node000024"><a xlink:href="classG3D_1_1AABox.html#a1a0983251d35ade3c07b80a480c3436e" target="_top" xlink:title=" ">
<polygon fill="white" stroke="#666666" points="958,-320 859,-320 859,-301 958,-301 958,-320"/>
<text text-anchor="middle" x="908.5" y="-308" font-family="Helvetica,sans-Serif" font-size="10.00">G3D::AABox::low</text>
</a>
</g>
</g>
<!-- Node15&#45;&gt;Node24 -->
<g id="edge28_Node000015_Node000024" class="edge">
<title>Node15&#45;&gt;Node24</title>
<g id="a_edge28_Node000015_Node000024"><a xlink:title=" ">
<path fill="none" stroke="#63b8ff" d="M752.23,-355.94C775.82,-348.55 809.42,-338.15 839,-329.5 846.58,-327.28 854.65,-324.99 862.49,-322.79"/>
<polygon fill="#63b8ff" stroke="#63b8ff" points="863.55,-326.13 872.25,-320.08 861.67,-319.39 863.55,-326.13"/>
</a>
</g>
</g>
<!-- Node15&#45;&gt;Node25 -->
<g id="edge29_Node000015_Node000025" class="edge">
<title>Node15&#45;&gt;Node25</title>
<g id="a_edge29_Node000015_Node000025"><a xlink:title=" ">
<path fill="none" stroke="#63b8ff" d="M734.65,-355.88C755.41,-340.51 798.45,-310.33 839,-292.5 844.36,-290.15 850.08,-288.01 855.84,-286.1"/>
<polygon fill="#63b8ff" stroke="#63b8ff" points="857.03,-289.39 865.54,-283.08 854.95,-282.71 857.03,-289.39"/>
</a>
</g>
</g>
<!-- Node18 -->
<g id="Node000018" class="node">
<title>Node18</title>
<g id="a_Node000018"><a xlink:href="namespaceG3D.html#a777646c1deb0c353be54782691193ac4" target="_top" xlink:title=" ">
<polygon fill="white" stroke="#666666" points="1097.5,-431 1015.5,-431 1015.5,-412 1097.5,-412 1097.5,-431"/>
<text text-anchor="middle" x="1056.5" y="-419" font-family="Helvetica,sans-Serif" font-size="10.00">G3D::fuzzyEq</text>
</a>
</g>
</g>
<!-- Node17&#45;&gt;Node18 -->
<g id="edge21_Node000017_Node000018" class="edge">
<title>Node17&#45;&gt;Node18</title>
<g id="a_edge21_Node000017_Node000018"><a xlink:title=" ">
<path fill="none" stroke="#63b8ff" d="M950.17,-421.5C967.25,-421.5 987.28,-421.5 1005.27,-421.5"/>
<polygon fill="#63b8ff" stroke="#63b8ff" points="1005.3,-425 1015.3,-421.5 1005.3,-418 1005.3,-425"/>
</a>
</g>
</g>
<!-- Node19 -->
<g id="Node000019" class="node">
<title>Node19</title>
<g id="a_Node000019"><a xlink:href="namespaceG3D.html#aca937b9666bc57d5f6319bcbd847fd4c" target="_top" xlink:title=" ">
<polygon fill="white" stroke="#666666" points="1336,-449 1275,-449 1275,-430 1336,-430 1336,-449"/>
<text text-anchor="middle" x="1305.5" y="-437" font-family="Helvetica,sans-Serif" font-size="10.00">G3D::abs</text>
</a>
</g>
</g>
<!-- Node18&#45;&gt;Node19 -->
<g id="edge22_Node000018_Node000019" class="edge">
<title>Node18&#45;&gt;Node19</title>
<g id="a_edge22_Node000018_Node000019"><a xlink:title=" ">
<path fill="none" stroke="#63b8ff" d="M1097.73,-424.43C1143.77,-427.79 1218.7,-433.25 1264.6,-436.59"/>
<polygon fill="#63b8ff" stroke="#63b8ff" points="1264.54,-440.1 1274.77,-437.33 1265.05,-433.12 1264.54,-440.1"/>
</a>
</g>
</g>
<!-- Node20 -->
<g id="Node000020" class="node">
<title>Node20</title>
<g id="a_Node000020"><a xlink:href="namespaceG3D.html#a91d6afc0bd460dd68e1ebba259120cea" target="_top" xlink:title=" ">
<polygon fill="white" stroke="#666666" points="1217.5,-412 1156.5,-412 1156.5,-393 1217.5,-393 1217.5,-412"/>
<text text-anchor="middle" x="1187" y="-400" font-family="Helvetica,sans-Serif" font-size="10.00">G3D::eps</text>
</a>
</g>
</g>
<!-- Node18&#45;&gt;Node20 -->
<g id="edge23_Node000018_Node000020" class="edge">
<title>Node18&#45;&gt;Node20</title>
<g id="a_edge23_Node000018_Node000020"><a xlink:title=" ">
<path fill="none" stroke="#63b8ff" d="M1097.81,-415.54C1113.23,-413.26 1130.81,-410.66 1146.2,-408.39"/>
<polygon fill="#63b8ff" stroke="#63b8ff" points="1147.06,-411.8 1156.44,-406.87 1146.04,-404.87 1147.06,-411.8"/>
</a>
</g>
</g>
<!-- Node20&#45;&gt;Node19 -->
<g id="edge24_Node000020_Node000019" class="edge">
<title>Node20&#45;&gt;Node19</title>
<g id="a_edge24_Node000020_Node000019"><a xlink:title=" ">
<path fill="none" stroke="#63b8ff" d="M1217.7,-411.93C1232.08,-416.5 1249.54,-422.04 1265.02,-426.96"/>
<polygon fill="#63b8ff" stroke="#63b8ff" points="1264.26,-430.39 1274.85,-430.08 1266.38,-423.72 1264.26,-430.39"/>
</a>
</g>
</g>
<!-- Node21 -->
<g id="Node000021" class="node">
<title>Node21</title>
<g id="a_Node000021"><a xlink:href="namespaceG3D.html#a86bb20cad66ebd418f73ff28684856c2" target="_top" xlink:title=" ">
<polygon fill="white" stroke="#666666" points="1333.5,-412 1277.5,-412 1277.5,-393 1333.5,-393 1333.5,-412"/>
<text text-anchor="middle" x="1305.5" y="-400" font-family="Helvetica,sans-Serif" font-size="10.00">G3D::inf</text>
</a>
</g>
</g>
<!-- Node20&#45;&gt;Node21 -->
<g id="edge25_Node000020_Node000021" class="edge">
<title>Node20&#45;&gt;Node21</title>
<g id="a_edge25_Node000020_Node000021"><a xlink:title=" ">
<path fill="none" stroke="#63b8ff" d="M1217.7,-402.5C1232.74,-402.5 1251.16,-402.5 1267.15,-402.5"/>
<polygon fill="#63b8ff" stroke="#63b8ff" points="1267.25,-406 1277.25,-402.5 1267.25,-399 1267.25,-406"/>
</a>
</g>
</g>
</g>
</svg>
