<?xml version="1.0" encoding="UTF-8" standalone="no"?>
<!DOCTYPE svg PUBLIC "-//W3C//DTD SVG 1.1//EN"
 "http://www.w3.org/Graphics/SVG/1.1/DTD/svg11.dtd">
<!-- Generated by graphviz version 2.43.0 (0)
 -->
<!-- Title: SchedulerArgs::setMinMaxPercentHp Pages: 1 -->
<svg width="343pt" height="175pt"
 viewBox="0.00 0.00 343.00 175.00" xmlns="http://www.w3.org/2000/svg" xmlns:xlink="http://www.w3.org/1999/xlink">

<svg id="main" version="1.1" xmlns="http://www.w3.org/2000/svg" xmlns:xlink="http://www.w3.org/1999/xlink" xml:space="preserve" onload="init(evt)">
<style type="text/css"><![CDATA[
.node, .edge {opacity: 0.7;}
.node.selected, .edge.selected {opacity: 1;}
.edge:hover path { stroke: red; }
.edge:hover polygon { stroke: red; fill: red; }
]]></style>
<script type="application/ecmascript" xlink:href="svg.min.js"/>
<svg id="graph" class="graph">
<g id="graph0" class="graph" transform="scale(1 1) rotate(0) translate(4 171)">
<title>SchedulerArgs::setMinMaxPercentHp</title>
<!-- Node1 -->
<g id="Node000001" class="node">
<title>Node1</title>
<g id="a_Node000001"><a xlink:title=" ">
<polygon fill="#999999" stroke="#666666" points="335,-98.5 189,-98.5 189,-68.5 335,-68.5 335,-98.5"/>
<text text-anchor="start" x="197" y="-86.5" font-family="Helvetica,sans-Serif" font-size="10.00">SchedulerArgs::setMinMax</text>
<text text-anchor="middle" x="262" y="-75.5" font-family="Helvetica,sans-Serif" font-size="10.00">PercentHp</text>
</a>
</g>
</g>
<!-- Node2 -->
<g id="Node000002" class="node">
<title>Node2</title>
<g id="a_Node000002"><a xlink:href="classDruidAI.html#a79a00fa70a4511f704e741afb0c15b74" target="_top" xlink:title=" ">
<polygon fill="white" stroke="#666666" points="133,-167 20,-167 20,-148 133,-148 133,-167"/>
<text text-anchor="middle" x="76.5" y="-155" font-family="Helvetica,sans-Serif" font-size="10.00">DruidAI::InitOrReset</text>
</a>
</g>
</g>
<!-- Node1&#45;&gt;Node2 -->
<g id="edge1_Node000001_Node000002" class="edge">
<title>Node1&#45;&gt;Node2</title>
<g id="a_edge1_Node000001_Node000002"><a xlink:title=" ">
<path fill="none" stroke="#63b8ff" d="M227.29,-103.71C206.46,-115.49 178.86,-129.88 153,-139.5 144.29,-142.74 134.78,-145.54 125.55,-147.91"/>
<polygon fill="#63b8ff" stroke="#63b8ff" points="229.13,-106.68 236.06,-98.67 225.64,-100.61 229.13,-106.68"/>
</a>
</g>
</g>
<!-- Node3 -->
<g id="Node000003" class="node">
<title>Node3</title>
<g id="a_Node000003"><a xlink:href="classPaladinAI.html#a631bbeee37a4f7470fa28d9b2808d793" target="_top" xlink:title=" ">
<polygon fill="white" stroke="#666666" points="137.5,-130 15.5,-130 15.5,-111 137.5,-111 137.5,-130"/>
<text text-anchor="middle" x="76.5" y="-118" font-family="Helvetica,sans-Serif" font-size="10.00">PaladinAI::InitOrReset</text>
</a>
</g>
</g>
<!-- Node1&#45;&gt;Node3 -->
<g id="edge2_Node000001_Node000003" class="edge">
<title>Node1&#45;&gt;Node3</title>
<g id="a_edge2_Node000001_Node000003"><a xlink:title=" ">
<path fill="none" stroke="#63b8ff" d="M178.84,-100.07C160.36,-103.79 141.36,-107.62 124.87,-110.95"/>
<polygon fill="#63b8ff" stroke="#63b8ff" points="179.63,-103.48 188.74,-98.07 178.24,-96.62 179.63,-103.48"/>
</a>
</g>
</g>
<!-- Node4 -->
<g id="Node000004" class="node">
<title>Node4</title>
<g id="a_Node000004"><a xlink:href="classShadowPriestAI.html#ad848cfbc273e1fdbdad4c16b69062d52" target="_top" xlink:title=" ">
<polygon fill="white" stroke="#666666" points="153,-93 0,-93 0,-74 153,-74 153,-93"/>
<text text-anchor="middle" x="76.5" y="-81" font-family="Helvetica,sans-Serif" font-size="10.00">ShadowPriestAI::InitOrReset</text>
</a>
</g>
</g>
<!-- Node1&#45;&gt;Node4 -->
<g id="edge3_Node000001_Node000004" class="edge">
<title>Node1&#45;&gt;Node4</title>
<g id="a_edge3_Node000001_Node000004"><a xlink:title=" ">
<path fill="none" stroke="#63b8ff" d="M178.47,-83.5C169.99,-83.5 161.41,-83.5 153.02,-83.5"/>
<polygon fill="#63b8ff" stroke="#63b8ff" points="178.74,-87 188.74,-83.5 178.74,-80 178.74,-87"/>
</a>
</g>
</g>
<!-- Node5 -->
<g id="Node000005" class="node">
<title>Node5</title>
<g id="a_Node000005"><a xlink:href="classHunterAI.html#a992daecca6094dd48f4b8d662aa9a278" target="_top" xlink:title=" ">
<polygon fill="white" stroke="#666666" points="136.5,-56 16.5,-56 16.5,-37 136.5,-37 136.5,-56"/>
<text text-anchor="middle" x="76.5" y="-44" font-family="Helvetica,sans-Serif" font-size="10.00">HunterAI::InitOrReset</text>
</a>
</g>
</g>
<!-- Node1&#45;&gt;Node5 -->
<g id="edge4_Node000001_Node000005" class="edge">
<title>Node1&#45;&gt;Node5</title>
<g id="a_edge4_Node000001_Node000005"><a xlink:title=" ">
<path fill="none" stroke="#63b8ff" d="M178.84,-66.93C160.36,-63.21 141.36,-59.38 124.87,-56.05"/>
<polygon fill="#63b8ff" stroke="#63b8ff" points="178.24,-70.38 188.74,-68.93 179.63,-63.52 178.24,-70.38"/>
</a>
</g>
</g>
<!-- Node6 -->
<g id="Node000006" class="node">
<title>Node6</title>
<g id="a_Node000006"><a xlink:href="classBoomkinAI.html#a65f9539077e13a554bc48a274d1e4514" target="_top" xlink:title=" ">
<polygon fill="white" stroke="#666666" points="142,-19 11,-19 11,0 142,0 142,-19"/>
<text text-anchor="middle" x="76.5" y="-7" font-family="Helvetica,sans-Serif" font-size="10.00">BoomkinAI::InitOrReset</text>
</a>
</g>
</g>
<!-- Node1&#45;&gt;Node6 -->
<g id="edge5_Node000001_Node000006" class="edge">
<title>Node1&#45;&gt;Node6</title>
<g id="a_edge5_Node000001_Node000006"><a xlink:title=" ">
<path fill="none" stroke="#63b8ff" d="M226.78,-63.57C205.97,-52.09 178.57,-38.09 153,-28.5 143.26,-24.85 132.54,-21.67 122.32,-19.02"/>
<polygon fill="#63b8ff" stroke="#63b8ff" points="225.12,-66.65 235.55,-68.48 228.53,-60.54 225.12,-66.65"/>
</a>
</g>
</g>
</g>
</svg>
</svg>

<style type='text/css'>
<![CDATA[
[data-mouse-over-selected='false'] { opacity: 0.7; }
[data-mouse-over-selected='true']  { opacity: 1.0; }
]]>
</style>
<script type="application/ecmascript"><![CDATA[
document.addEventListener('DOMContentLoaded', (event) => {
  highlightEdges();
  highlightAdjacentNodes();
});
]]></script>
</svg>
