<?xml version="1.0" encoding="UTF-8" standalone="no"?>
<!DOCTYPE svg PUBLIC "-//W3C//DTD SVG 1.1//EN"
 "http://www.w3.org/Graphics/SVG/1.1/DTD/svg11.dtd">
<!-- Generated by graphviz version 2.43.0 (0)
 -->
<!-- Title: WoWContainer Pages: 1 -->
<svg width="97pt" height="137pt"
 viewBox="0.00 0.00 97.00 137.00" xmlns="http://www.w3.org/2000/svg" xmlns:xlink="http://www.w3.org/1999/xlink">

<svg id="main" version="1.1" xmlns="http://www.w3.org/2000/svg" xmlns:xlink="http://www.w3.org/1999/xlink" xml:space="preserve" onload="init(evt)">
<style type="text/css"><![CDATA[
.node, .edge {opacity: 0.7;}
.node.selected, .edge.selected {opacity: 1;}
.edge:hover path { stroke: red; }
.edge:hover polygon { stroke: red; fill: red; }
]]></style>
<script type="application/ecmascript" xlink:href="svg.min.js"/>
<svg id="graph" class="graph">
<g id="graph0" class="graph" transform="scale(1 1) rotate(0) translate(4 133)">
<title>WoWContainer</title>
<!-- Node1 -->
<g id="Node000001" class="node">
<title>Node1</title>
<g id="a_Node000001"><a xlink:title=" ">
<polygon fill="#999999" stroke="#666666" points="89,-19 0,-19 0,0 89,0 89,-19"/>
<text text-anchor="middle" x="44.5" y="-7" font-family="Helvetica,sans-Serif" font-size="10.00">WoWContainer</text>
</a>
</g>
</g>
<!-- Node2 -->
<g id="Node000002" class="node">
<title>Node2</title>
<g id="a_Node000002"><a xlink:href="structWoWItem.html" target="_top" xlink:title=" ">
<polygon fill="white" stroke="#666666" points="76.5,-74 12.5,-74 12.5,-55 76.5,-55 76.5,-74"/>
<text text-anchor="middle" x="44.5" y="-62" font-family="Helvetica,sans-Serif" font-size="10.00">WoWItem</text>
</a>
</g>
</g>
<!-- Node2&#45;&gt;Node1 -->
<g id="edge1_Node000001_Node000002" class="edge">
<title>Node2&#45;&gt;Node1</title>
<g id="a_edge1_Node000001_Node000002"><a xlink:title=" ">
<path fill="none" stroke="#63b8ff" d="M18.87,-45.82C15.97,-36.82 17.67,-26.29 23.98,-19.09"/>
<polygon fill="#63b8ff" stroke="#63b8ff" points="15.92,-47.71 23.83,-54.75 22.04,-44.31 15.92,-47.71"/>
</a>
</g>
</g>
<!-- Node2&#45;&gt;Node1 -->
<g id="edge7_Node000001_Node000002" class="edge">
<title>Node2&#45;&gt;Node1</title>
<g id="a_edge7_Node000001_Node000002"><a xlink:title=" ">
<path fill="none" stroke="#63b8ff" d="M31.56,-44.95C30.29,-36.15 31.19,-26.06 34.24,-19.09"/>
<polygon fill="#63b8ff" stroke="#63b8ff" points="28.21,-45.99 34.17,-54.75 34.97,-44.18 28.21,-45.99"/>
</a>
</g>
</g>
<!-- Node2&#45;&gt;Node1 -->
<g id="edge8_Node000001_Node000002" class="edge">
<title>Node2&#45;&gt;Node1</title>
<g id="a_edge8_Node000001_Node000002"><a xlink:title=" ">
<path fill="none" stroke="#63b8ff" d="M44.5,-44.66C44.5,-35.93 44.5,-25.99 44.5,-19.09"/>
<polygon fill="#63b8ff" stroke="#63b8ff" points="41,-44.75 44.5,-54.75 48,-44.75 41,-44.75"/>
</a>
</g>
</g>
<!-- Node2&#45;&gt;Node1 -->
<g id="edge9_Node000001_Node000002" class="edge">
<title>Node2&#45;&gt;Node1</title>
<g id="a_edge9_Node000001_Node000002"><a xlink:title=" ">
<path fill="none" stroke="#63b8ff" d="M57.44,-44.95C58.71,-36.15 57.81,-26.06 54.76,-19.09"/>
<polygon fill="#63b8ff" stroke="#63b8ff" points="54.03,-44.18 54.83,-54.75 60.79,-45.99 54.03,-44.18"/>
</a>
</g>
</g>
<!-- Node2&#45;&gt;Node1 -->
<g id="edge10_Node000001_Node000002" class="edge">
<title>Node2&#45;&gt;Node1</title>
<g id="a_edge10_Node000001_Node000002"><a xlink:title=" ">
<path fill="none" stroke="#63b8ff" d="M70.13,-45.82C73.03,-36.82 71.33,-26.29 65.02,-19.09"/>
<polygon fill="#63b8ff" stroke="#63b8ff" points="66.96,-44.31 65.17,-54.75 73.08,-47.71 66.96,-44.31"/>
</a>
</g>
</g>
<!-- Node3 -->
<g id="Node000003" class="node">
<title>Node3</title>
<g id="a_Node000003"><a xlink:href="structWoWObject.html" target="_top" xlink:title=" ">
<polygon fill="white" stroke="#666666" points="81,-129 8,-129 8,-110 81,-110 81,-129"/>
<text text-anchor="middle" x="44.5" y="-117" font-family="Helvetica,sans-Serif" font-size="10.00">WoWObject</text>
</a>
</g>
</g>
<!-- Node3&#45;&gt;Node2 -->
<g id="edge2_Node000002_Node000003" class="edge">
<title>Node3&#45;&gt;Node2</title>
<g id="a_edge2_Node000002_Node000003"><a xlink:title=" ">
<path fill="none" stroke="#63b8ff" d="M18.87,-100.82C15.97,-91.82 17.67,-81.29 23.98,-74.09"/>
<polygon fill="#63b8ff" stroke="#63b8ff" points="15.92,-102.71 23.83,-109.75 22.04,-99.31 15.92,-102.71"/>
</a>
</g>
</g>
<!-- Node3&#45;&gt;Node2 -->
<g id="edge3_Node000002_Node000003" class="edge">
<title>Node3&#45;&gt;Node2</title>
<g id="a_edge3_Node000002_Node000003"><a xlink:title=" ">
<path fill="none" stroke="#63b8ff" d="M31.56,-99.95C30.29,-91.15 31.19,-81.06 34.24,-74.09"/>
<polygon fill="#63b8ff" stroke="#63b8ff" points="28.21,-100.99 34.17,-109.75 34.97,-99.18 28.21,-100.99"/>
</a>
</g>
</g>
<!-- Node3&#45;&gt;Node2 -->
<g id="edge4_Node000002_Node000003" class="edge">
<title>Node3&#45;&gt;Node2</title>
<g id="a_edge4_Node000002_Node000003"><a xlink:title=" ">
<path fill="none" stroke="#63b8ff" d="M44.5,-99.66C44.5,-90.93 44.5,-80.99 44.5,-74.09"/>
<polygon fill="#63b8ff" stroke="#63b8ff" points="41,-99.75 44.5,-109.75 48,-99.75 41,-99.75"/>
</a>
</g>
</g>
<!-- Node3&#45;&gt;Node2 -->
<g id="edge5_Node000002_Node000003" class="edge">
<title>Node3&#45;&gt;Node2</title>
<g id="a_edge5_Node000002_Node000003"><a xlink:title=" ">
<path fill="none" stroke="#63b8ff" d="M57.44,-99.95C58.71,-91.15 57.81,-81.06 54.76,-74.09"/>
<polygon fill="#63b8ff" stroke="#63b8ff" points="54.03,-99.18 54.83,-109.75 60.79,-100.99 54.03,-99.18"/>
</a>
</g>
</g>
<!-- Node3&#45;&gt;Node2 -->
<g id="edge6_Node000002_Node000003" class="edge">
<title>Node3&#45;&gt;Node2</title>
<g id="a_edge6_Node000002_Node000003"><a xlink:title=" ">
<path fill="none" stroke="#63b8ff" d="M70.13,-100.82C73.03,-91.82 71.33,-81.29 65.02,-74.09"/>
<polygon fill="#63b8ff" stroke="#63b8ff" points="66.96,-99.31 65.17,-109.75 73.08,-102.71 66.96,-99.31"/>
</a>
</g>
</g>
</g>
</svg>
</svg>

<style type='text/css'>
<![CDATA[
[data-mouse-over-selected='false'] { opacity: 0.7; }
[data-mouse-over-selected='true']  { opacity: 1.0; }
]]>
</style>
<script type="application/ecmascript"><![CDATA[
document.addEventListener('DOMContentLoaded', (event) => {
  highlightEdges();
  highlightAdjacentNodes();
});
]]></script>
</svg>
