<?xml version="1.0" encoding="UTF-8" standalone="no"?>
<!DOCTYPE svg PUBLIC "-//W3C//DTD SVG 1.1//EN"
 "http://www.w3.org/Graphics/SVG/1.1/DTD/svg11.dtd">
<!-- Generated by graphviz version 2.43.0 (0)
 -->
<!-- Title: mp_reduce_2k Pages: 1 -->
<!--zoomable 402 -->

<svg id="main" version="1.1" xmlns="http://www.w3.org/2000/svg" xmlns:xlink="http://www.w3.org/1999/xlink" xml:space="preserve" onload="init(evt)">
<style type="text/css"><![CDATA[
.node, .edge {opacity: 0.7;}
.node.selected, .edge.selected {opacity: 1;}
.edge:hover path { stroke: red; }
.edge:hover polygon { stroke: red; fill: red; }
]]></style>

<defs>
  <circle id="rim" cx="0" cy="0" r="7"/>
  <circle id="rim2" cx="0" cy="0" r="3.5"/>
  <g id="zoomPlus">
    <use xlink:href="#rim" fill="#404040"><set attributeName="fill" to="#808080" begin="zoomplus.mouseover" end="zoomplus.mouseout"/></use>
    <path d="M-4,0h8M0,-4v8" fill="none" stroke="white" stroke-width="1.5" pointer-events="none"/>
  </g>
  <g id="zoomMin">
    <use xlink:href="#rim" fill="#404040"><set attributeName="fill" to="#808080" begin="zoomminus.mouseover" end="zoomminus.mouseout"/></use>
    <path d="M-4,0h8" fill="none" stroke="white" stroke-width="1.5" pointer-events="none"/>
  </g>
  <g id="arrowUp" transform="translate(30 24)">
    <use xlink:href="#rim"/>
    <path pointer-events="none" fill="none" stroke="white" stroke-width="1.5" d="M0,-3.0v7 M-2.5,-0.5L0,-3.0L2.5,-0.5"/>
  </g>
  <g id="arrowRight" transform="rotate(90) translate(36 -43)">
    <use xlink:href="#rim"/>
    <path pointer-events="none" fill="none" stroke="white" stroke-width="1.5" d="M0,-3.0v7 M-2.5,-0.5L0,-3.0L2.5,-0.5"/>
  </g>
  <g id="arrowDown" transform="rotate(180) translate(-30 -48)">
    <use xlink:href="#rim"/>
    <path pointer-events="none" fill="none" stroke="white" stroke-width="1.5" d="M0,-3.0v7 M-2.5,-0.5L0,-3.0L2.5,-0.5"/>
  </g>
  <g id="arrowLeft" transform="rotate(270) translate(-36 17)">
    <use xlink:href="#rim"/>
    <path pointer-events="none" fill="none" stroke="white" stroke-width="1.5" d="M0,-3.0v7 M-2.5,-0.5L0,-3.0L2.5,-0.5"/>
  </g>
  <g id="resetDef">
    <use xlink:href="#rim2" fill="#404040"><set attributeName="fill" to="#808080" begin="reset.mouseover" end="reset.mouseout"/></use>
  </g>
</defs>
<script type="application/ecmascript">
var viewWidth = 535;
var viewHeight = 402;
var sectionId = 'dynsection-129';
</script>
<script type="application/ecmascript" xlink:href="svg.min.js"/>
<svg id="graph" class="graph">
<g id="viewport">
<title>mp_reduce_2k</title>
<!-- Node1 -->
<g id="Node000001" class="node">
<title>Node1</title>
<g id="a_Node000001"><a xlink:title=" ">
<polygon fill="#999999" stroke="#666666" points="88,-185 0,-185 0,-166 88,-166 88,-185"/>
<text text-anchor="middle" x="44" y="-173" font-family="Helvetica,sans-Serif" font-size="10.00">mp_reduce_2k</text>
</a>
</g>
</g>
<!-- Node2 -->
<g id="Node000002" class="node">
<title>Node2</title>
<g id="a_Node000002"><a xlink:href="bn__mp__clear_8c.html#a0d8af25cba8b03d5bc1256ef40e7a9a4" target="_top" xlink:title=" ">
<polygon fill="white" stroke="#666666" points="317.5,-394 255.5,-394 255.5,-375 317.5,-375 317.5,-394"/>
<text text-anchor="middle" x="286.5" y="-382" font-family="Helvetica,sans-Serif" font-size="10.00">mp_clear</text>
</a>
</g>
</g>
<!-- Node1&#45;&gt;Node2 -->
<g id="edge1_Node000001_Node000002" class="edge">
<title>Node1&#45;&gt;Node2</title>
<g id="a_edge1_Node000001_Node000002"><a xlink:title=" ">
<path fill="none" stroke="#63b8ff" d="M49.84,-185.03C60.8,-205.91 89.28,-256.48 124,-289.5 162.68,-326.28 218.12,-354.94 252.94,-370.78"/>
<polygon fill="#63b8ff" stroke="#63b8ff" points="251.63,-374.02 262.19,-374.9 254.48,-367.63 251.63,-374.02"/>
</a>
</g>
</g>
<!-- Node3 -->
<g id="Node000003" class="node">
<title>Node3</title>
<g id="a_Node000003"><a xlink:href="bn__mp__cmp__mag_8c.html#a121088764f89bf3b1c563a5d81c8ed9a" target="_top" xlink:title=" ">
<polygon fill="white" stroke="#666666" points="211,-280 125,-280 125,-261 211,-261 211,-280"/>
<text text-anchor="middle" x="168" y="-268" font-family="Helvetica,sans-Serif" font-size="10.00">mp_cmp_mag</text>
</a>
</g>
</g>
<!-- Node1&#45;&gt;Node3 -->
<g id="edge2_Node000001_Node000003" class="edge">
<title>Node1&#45;&gt;Node3</title>
<g id="a_edge2_Node000001_Node000003"><a xlink:title=" ">
<path fill="none" stroke="#63b8ff" d="M52.83,-185.21C66.05,-201.1 94.29,-232.84 124,-252.5 126.13,-253.91 128.38,-255.24 130.7,-256.5"/>
<polygon fill="#63b8ff" stroke="#63b8ff" points="129.3,-259.71 139.82,-260.95 132.37,-253.42 129.3,-259.71"/>
</a>
</g>
</g>
<!-- Node4 -->
<g id="Node000004" class="node">
<title>Node4</title>
<g id="a_Node000004"><a xlink:href="bn__mp__count__bits_8c.html#a67778f2e786a0a42a4e32adb5bf12653" target="_top" xlink:title=" ">
<polygon fill="white" stroke="#666666" points="212,-243 124,-243 124,-224 212,-224 212,-243"/>
<text text-anchor="middle" x="168" y="-231" font-family="Helvetica,sans-Serif" font-size="10.00">mp_count_bits</text>
</a>
</g>
</g>
<!-- Node1&#45;&gt;Node4 -->
<g id="edge3_Node000001_Node000004" class="edge">
<title>Node1&#45;&gt;Node4</title>
<g id="a_edge3_Node000001_Node000004"><a xlink:title=" ">
<path fill="none" stroke="#63b8ff" d="M63.02,-185.09C78.91,-193.44 102.79,-205.7 124,-215.5 127.18,-216.97 130.52,-218.46 133.87,-219.91"/>
<polygon fill="#63b8ff" stroke="#63b8ff" points="132.64,-223.2 143.21,-223.9 135.39,-216.76 132.64,-223.2"/>
</a>
</g>
</g>
<!-- Node5 -->
<g id="Node000005" class="node">
<title>Node5</title>
<g id="a_Node000005"><a xlink:href="bn__mp__div__2d_8c.html#ab2ea6e673e592b3f23ed2d088fa1fa03" target="_top" xlink:title=" ">
<polygon fill="white" stroke="#666666" points="203,-206 133,-206 133,-187 203,-187 203,-206"/>
<text text-anchor="middle" x="168" y="-194" font-family="Helvetica,sans-Serif" font-size="10.00">mp_div_2d</text>
</a>
</g>
</g>
<!-- Node1&#45;&gt;Node5 -->
<g id="edge4_Node000001_Node000005" class="edge">
<title>Node1&#45;&gt;Node5</title>
<g id="a_edge4_Node000001_Node000005"><a xlink:title=" ">
<path fill="none" stroke="#63b8ff" d="M88.01,-182.9C99.25,-184.84 111.39,-186.93 122.69,-188.87"/>
<polygon fill="#63b8ff" stroke="#63b8ff" points="122.35,-192.36 132.79,-190.61 123.53,-185.47 122.35,-192.36"/>
</a>
</g>
</g>
<!-- Node10 -->
<g id="Node000010" class="node">
<title>Node10</title>
<g id="a_Node000010"><a xlink:href="bn__mp__init_8c.html#af40a43523654299f5178fb2d2d0c2211" target="_top" xlink:title=" ">
<polygon fill="white" stroke="#666666" points="313,-130 260,-130 260,-111 313,-111 313,-130"/>
<text text-anchor="middle" x="286.5" y="-118" font-family="Helvetica,sans-Serif" font-size="10.00">mp_init</text>
</a>
</g>
</g>
<!-- Node1&#45;&gt;Node10 -->
<g id="edge18_Node000001_Node000010" class="edge">
<title>Node1&#45;&gt;Node10</title>
<g id="a_edge18_Node000001_Node000010"><a xlink:title=" ">
<path fill="none" stroke="#63b8ff" d="M86.62,-165.98C132.79,-155.42 206.52,-138.56 250.05,-128.61"/>
<polygon fill="#63b8ff" stroke="#63b8ff" points="250.94,-131.99 259.91,-126.35 249.38,-125.17 250.94,-131.99"/>
</a>
</g>
</g>
<!-- Node14 -->
<g id="Node000014" class="node">
<title>Node14</title>
<g id="a_Node000014"><a xlink:href="bn__mp__mul__d_8c.html#adf7c8916c1a2f69d9a4ca263e3b8e95d" target="_top" xlink:title=" ">
<polygon fill="white" stroke="#666666" points="320.5,-19 252.5,-19 252.5,0 320.5,0 320.5,-19"/>
<text text-anchor="middle" x="286.5" y="-7" font-family="Helvetica,sans-Serif" font-size="10.00">mp_mul_d</text>
</a>
</g>
</g>
<!-- Node1&#45;&gt;Node14 -->
<g id="edge19_Node000001_Node000014" class="edge">
<title>Node1&#45;&gt;Node14</title>
<g id="a_edge19_Node000001_Node000014"><a xlink:title=" ">
<path fill="none" stroke="#63b8ff" d="M48.99,-165.97C58.59,-144.17 85.13,-90.33 124,-61.5 159.1,-35.47 207.76,-22.14 242.47,-15.54"/>
<polygon fill="#63b8ff" stroke="#63b8ff" points="243.09,-18.99 252.31,-13.78 241.85,-12.1 243.09,-18.99"/>
</a>
</g>
</g>
<!-- Node15 -->
<g id="Node000015" class="node">
<title>Node15</title>
<g id="a_Node000015"><a xlink:href="bn__s__mp__add_8c.html#a063eaa9c7ba263e7f02ecc5a3f65acfe" target="_top" xlink:title=" ">
<polygon fill="white" stroke="#666666" points="319.5,-93 253.5,-93 253.5,-74 319.5,-74 319.5,-93"/>
<text text-anchor="middle" x="286.5" y="-81" font-family="Helvetica,sans-Serif" font-size="10.00">s_mp_add</text>
</a>
</g>
</g>
<!-- Node1&#45;&gt;Node15 -->
<g id="edge22_Node000001_Node000015" class="edge">
<title>Node1&#45;&gt;Node15</title>
<g id="a_edge22_Node000001_Node000015"><a xlink:title=" ">
<path fill="none" stroke="#63b8ff" d="M61.55,-165.84C77.26,-156.92 101.73,-143.72 124,-134.5 163.64,-118.1 210.56,-103.83 243.58,-94.58"/>
<polygon fill="#63b8ff" stroke="#63b8ff" points="244.65,-97.92 253.36,-91.88 242.79,-91.17 244.65,-97.92"/>
</a>
</g>
</g>
<!-- Node16 -->
<g id="Node000016" class="node">
<title>Node16</title>
<g id="a_Node000016"><a xlink:href="bn__s__mp__sub_8c.html#aa9a8231c2dc42159132a0f586bab31f5" target="_top" xlink:title=" ">
<polygon fill="white" stroke="#666666" points="319,-56 254,-56 254,-37 319,-37 319,-56"/>
<text text-anchor="middle" x="286.5" y="-44" font-family="Helvetica,sans-Serif" font-size="10.00">s_mp_sub</text>
</a>
</g>
</g>
<!-- Node1&#45;&gt;Node16 -->
<g id="edge25_Node000001_Node000016" class="edge">
<title>Node1&#45;&gt;Node16</title>
<g id="a_edge25_Node000001_Node000016"><a xlink:title=" ">
<path fill="none" stroke="#63b8ff" d="M52.73,-165.81C65.81,-150 93.85,-118.62 124,-100.5 161.55,-77.94 209.73,-63.4 243.67,-55.16"/>
<polygon fill="#63b8ff" stroke="#63b8ff" points="244.77,-58.5 253.71,-52.8 243.17,-51.68 244.77,-58.5"/>
</a>
</g>
</g>
<!-- Node5&#45;&gt;Node2 -->
<g id="edge6_Node000005_Node000002" class="edge">
<title>Node5&#45;&gt;Node2</title>
<g id="a_edge6_Node000005_Node000002"><a xlink:title=" ">
<path fill="none" stroke="#63b8ff" d="M200.51,-206.24C204.84,-208.69 208.87,-211.74 212,-215.5 256.15,-268.52 204.69,-312.8 248,-366.5 248.6,-367.24 249.23,-367.95 249.89,-368.63"/>
<polygon fill="#63b8ff" stroke="#63b8ff" points="247.96,-371.56 258,-374.93 252.25,-366.03 247.96,-371.56"/>
</a>
</g>
</g>
<!-- Node6 -->
<g id="Node000006" class="node">
<title>Node6</title>
<g id="a_Node000006"><a xlink:href="bn__mp__clamp_8c.html#aa857c7afa73b9c5d5f24168f0d8d815e" target="_top" xlink:title=" ">
<polygon fill="white" stroke="#666666" points="429,-94 361,-94 361,-75 429,-75 429,-94"/>
<text text-anchor="middle" x="395" y="-82" font-family="Helvetica,sans-Serif" font-size="10.00">mp_clamp</text>
</a>
</g>
</g>
<!-- Node5&#45;&gt;Node6 -->
<g id="edge5_Node000005_Node000006" class="edge">
<title>Node5&#45;&gt;Node6</title>
<g id="a_edge5_Node000005_Node000006"><a xlink:title=" ">
<path fill="none" stroke="#63b8ff" d="M203.18,-187.12C235.7,-177.44 285.41,-160.65 325,-138.5 343.91,-127.92 363.14,-112.4 376.48,-100.71"/>
<polygon fill="#63b8ff" stroke="#63b8ff" points="378.85,-103.28 383.96,-94 374.18,-98.06 378.85,-103.28"/>
</a>
</g>
</g>
<!-- Node7 -->
<g id="Node000007" class="node">
<title>Node7</title>
<g id="a_Node000007"><a xlink:href="bn__mp__copy_8c.html#a40137c186390668e7329fe8b4c169a81" target="_top" xlink:title=" ">
<polygon fill="white" stroke="#666666" points="425.5,-206 364.5,-206 364.5,-187 425.5,-187 425.5,-206"/>
<text text-anchor="middle" x="395" y="-194" font-family="Helvetica,sans-Serif" font-size="10.00">mp_copy</text>
</a>
</g>
</g>
<!-- Node5&#45;&gt;Node7 -->
<g id="edge7_Node000005_Node000007" class="edge">
<title>Node5&#45;&gt;Node7</title>
<g id="a_edge7_Node000005_Node000007"><a xlink:title=" ">
<path fill="none" stroke="#63b8ff" d="M203.17,-196.5C243.72,-196.5 311.21,-196.5 354.11,-196.5"/>
<polygon fill="#63b8ff" stroke="#63b8ff" points="354.19,-200 364.19,-196.5 354.19,-193 354.19,-200"/>
</a>
</g>
</g>
<!-- Node9 -->
<g id="Node000009" class="node">
<title>Node9</title>
<g id="a_Node000009"><a xlink:href="bn__mp__exch_8c.html#af4e8c1049a4cbfd9206d7a1b44ff851f" target="_top" xlink:title=" ">
<polygon fill="white" stroke="#666666" points="317,-357 256,-357 256,-338 317,-338 317,-357"/>
<text text-anchor="middle" x="286.5" y="-345" font-family="Helvetica,sans-Serif" font-size="10.00">mp_exch</text>
</a>
</g>
</g>
<!-- Node5&#45;&gt;Node9 -->
<g id="edge9_Node000005_Node000009" class="edge">
<title>Node5&#45;&gt;Node9</title>
<g id="a_edge9_Node000005_Node000009"><a xlink:title=" ">
<path fill="none" stroke="#63b8ff" d="M199.35,-206.01C204.04,-208.52 208.48,-211.64 212,-215.5 246.05,-252.92 216.91,-283.58 248,-323.5 250.49,-326.7 253.54,-329.6 256.81,-332.18"/>
<polygon fill="#63b8ff" stroke="#63b8ff" points="254.98,-335.18 265.21,-337.95 258.95,-329.41 254.98,-335.18"/>
</a>
</g>
</g>
<!-- Node5&#45;&gt;Node10 -->
<g id="edge10_Node000005_Node000010" class="edge">
<title>Node5&#45;&gt;Node10</title>
<g id="a_edge10_Node000005_Node000010"><a xlink:title=" ">
<path fill="none" stroke="#63b8ff" d="M185.53,-186.93C193.61,-182.15 203.42,-176.18 212,-170.5 228.46,-159.61 231.68,-155.6 248,-144.5 252.36,-141.53 257.06,-138.44 261.61,-135.5"/>
<polygon fill="#63b8ff" stroke="#63b8ff" points="263.5,-138.45 270.05,-130.12 259.74,-132.55 263.5,-138.45"/>
</a>
</g>
</g>
<!-- Node11 -->
<g id="Node000011" class="node">
<title>Node11</title>
<g id="a_Node000011"><a xlink:href="bn__mp__mod__2d_8c.html#a00604fa638a10cda01e3dc87a36f1bb3" target="_top" xlink:title=" ">
<polygon fill="white" stroke="#666666" points="325,-244 248,-244 248,-225 325,-225 325,-244"/>
<text text-anchor="middle" x="286.5" y="-232" font-family="Helvetica,sans-Serif" font-size="10.00">mp_mod_2d</text>
</a>
</g>
</g>
<!-- Node5&#45;&gt;Node11 -->
<g id="edge11_Node000005_Node000011" class="edge">
<title>Node5&#45;&gt;Node11</title>
<g id="a_edge11_Node000005_Node000011"><a xlink:title=" ">
<path fill="none" stroke="#63b8ff" d="M198.4,-206.09C212.89,-210.81 230.56,-216.58 246.19,-221.68"/>
<polygon fill="#63b8ff" stroke="#63b8ff" points="245.52,-225.14 256.11,-224.91 247.69,-218.49 245.52,-225.14"/>
</a>
</g>
</g>
<!-- Node12 -->
<g id="Node000012" class="node">
<title>Node12</title>
<g id="a_Node000012"><a xlink:href="bn__mp__zero_8c.html#a9725d2cb7b409f9b19bec41fa2cf8f8b" target="_top" xlink:title=" ">
<polygon fill="white" stroke="#666666" points="424.5,-281 365.5,-281 365.5,-262 424.5,-262 424.5,-281"/>
<text text-anchor="middle" x="395" y="-269" font-family="Helvetica,sans-Serif" font-size="10.00">mp_zero</text>
</a>
</g>
</g>
<!-- Node5&#45;&gt;Node12 -->
<g id="edge17_Node000005_Node000012" class="edge">
<title>Node5&#45;&gt;Node12</title>
<g id="a_edge17_Node000005_Node000012"><a xlink:title=" ">
<path fill="none" stroke="#63b8ff" d="M198.51,-206.17C203.4,-208.67 208.13,-211.75 212,-215.5 238.55,-241.23 216.71,-270.81 248,-290.5 283.92,-313.1 334.66,-298.39 365.89,-285.27"/>
<polygon fill="#63b8ff" stroke="#63b8ff" points="367.56,-288.35 375.3,-281.11 364.73,-281.95 367.56,-288.35"/>
</a>
</g>
</g>
<!-- Node13 -->
<g id="Node000013" class="node">
<title>Node13</title>
<g id="a_Node000013"><a xlink:href="bn__mp__rshd_8c.html#ad14dbcc8e6ed3ca4e852b6e8722c9014" target="_top" xlink:title=" ">
<polygon fill="white" stroke="#666666" points="316,-281 257,-281 257,-262 316,-262 316,-281"/>
<text text-anchor="middle" x="286.5" y="-269" font-family="Helvetica,sans-Serif" font-size="10.00">mp_rshd</text>
</a>
</g>
</g>
<!-- Node5&#45;&gt;Node13 -->
<g id="edge15_Node000005_Node000013" class="edge">
<title>Node5&#45;&gt;Node13</title>
<g id="a_edge15_Node000005_Node000013"><a xlink:title=" ">
<path fill="none" stroke="#63b8ff" d="M195.36,-206.17C201.08,-208.8 206.93,-211.93 212,-215.5 231.01,-228.91 229.2,-239.79 248,-253.5 249.62,-254.68 251.33,-255.82 253.09,-256.9"/>
<polygon fill="#63b8ff" stroke="#63b8ff" points="251.69,-260.13 262.14,-261.92 255.08,-254.01 251.69,-260.13"/>
</a>
</g>
</g>
<!-- Node8 -->
<g id="Node000008" class="node">
<title>Node8</title>
<g id="a_Node000008"><a xlink:href="bn__mp__grow_8c.html#abdc9ad4bb753273a4f8076094a440191" target="_top" xlink:title=" ">
<polygon fill="white" stroke="#666666" points="527,-94 465,-94 465,-75 527,-75 527,-94"/>
<text text-anchor="middle" x="496" y="-82" font-family="Helvetica,sans-Serif" font-size="10.00">mp_grow</text>
</a>
</g>
</g>
<!-- Node7&#45;&gt;Node8 -->
<g id="edge8_Node000007_Node000008" class="edge">
<title>Node7&#45;&gt;Node8</title>
<g id="a_edge8_Node000007_Node000008"><a xlink:title=" ">
<path fill="none" stroke="#63b8ff" d="M404.44,-186.95C421.17,-168.02 458.75,-125.51 479.86,-101.63"/>
<polygon fill="#63b8ff" stroke="#63b8ff" points="482.58,-103.84 486.58,-94.02 477.34,-99.2 482.58,-103.84"/>
</a>
</g>
</g>
<!-- Node11&#45;&gt;Node6 -->
<g id="edge12_Node000011_Node000006" class="edge">
<title>Node11&#45;&gt;Node6</title>
<g id="a_edge12_Node000011_Node000006"><a xlink:title=" ">
<path fill="none" stroke="#63b8ff" d="M294.49,-224.66C312.09,-199.86 358.48,-134.53 381.15,-102.59"/>
<polygon fill="#63b8ff" stroke="#63b8ff" points="384.19,-104.36 387.12,-94.18 378.48,-100.31 384.19,-104.36"/>
</a>
</g>
</g>
<!-- Node11&#45;&gt;Node7 -->
<g id="edge13_Node000011_Node000007" class="edge">
<title>Node11&#45;&gt;Node7</title>
<g id="a_edge13_Node000011_Node000007"><a xlink:title=" ">
<path fill="none" stroke="#63b8ff" d="M314.37,-224.91C327.49,-220.23 343.47,-214.53 357.65,-209.47"/>
<polygon fill="#63b8ff" stroke="#63b8ff" points="358.89,-212.74 367.13,-206.09 356.54,-206.15 358.89,-212.74"/>
</a>
</g>
</g>
<!-- Node11&#45;&gt;Node12 -->
<g id="edge14_Node000011_Node000012" class="edge">
<title>Node11&#45;&gt;Node12</title>
<g id="a_edge14_Node000011_Node000012"><a xlink:title=" ">
<path fill="none" stroke="#63b8ff" d="M314.93,-244.03C327.62,-248.44 342.9,-253.75 356.63,-258.52"/>
<polygon fill="#63b8ff" stroke="#63b8ff" points="355.7,-261.9 366.3,-261.88 358,-255.29 355.7,-261.9"/>
</a>
</g>
</g>
<!-- Node13&#45;&gt;Node12 -->
<g id="edge16_Node000013_Node000012" class="edge">
<title>Node13&#45;&gt;Node12</title>
<g id="a_edge16_Node000013_Node000012"><a xlink:title=" ">
<path fill="none" stroke="#63b8ff" d="M316.04,-271.5C328.1,-271.5 342.33,-271.5 355.31,-271.5"/>
<polygon fill="#63b8ff" stroke="#63b8ff" points="355.38,-275 365.38,-271.5 355.38,-268 355.38,-275"/>
</a>
</g>
</g>
<!-- Node14&#45;&gt;Node6 -->
<g id="edge20_Node000014_Node000006" class="edge">
<title>Node14&#45;&gt;Node6</title>
<g id="a_edge20_Node000014_Node000006"><a xlink:title=" ">
<path fill="none" stroke="#63b8ff" d="M309.79,-19.1C314.92,-21.61 320.25,-24.47 325,-27.5 343.64,-39.42 362.9,-55.73 376.32,-67.84"/>
<polygon fill="#63b8ff" stroke="#63b8ff" points="374.13,-70.58 383.86,-74.77 378.86,-65.43 374.13,-70.58"/>
</a>
</g>
</g>
<!-- Node14&#45;&gt;Node8 -->
<g id="edge21_Node000014_Node000008" class="edge">
<title>Node14&#45;&gt;Node8</title>
<g id="a_edge21_Node000014_Node000008"><a xlink:title=" ">
<path fill="none" stroke="#63b8ff" d="M320.65,-17.58C349.68,-25.07 392.77,-37.19 429,-51.5 442.54,-56.85 457.06,-63.95 469.03,-70.19"/>
<polygon fill="#63b8ff" stroke="#63b8ff" points="467.54,-73.36 478.01,-74.97 470.82,-67.18 467.54,-73.36"/>
</a>
</g>
</g>
<!-- Node15&#45;&gt;Node6 -->
<g id="edge23_Node000015_Node000006" class="edge">
<title>Node15&#45;&gt;Node6</title>
<g id="a_edge23_Node000015_Node000006"><a xlink:title=" ">
<path fill="none" stroke="#63b8ff" d="M319.74,-83.8C329.48,-83.89 340.33,-84 350.66,-84.09"/>
<polygon fill="#63b8ff" stroke="#63b8ff" points="350.73,-87.59 360.76,-84.19 350.79,-80.59 350.73,-87.59"/>
</a>
</g>
</g>
<!-- Node15&#45;&gt;Node8 -->
<g id="edge24_Node000015_Node000008" class="edge">
<title>Node15&#45;&gt;Node8</title>
<g id="a_edge24_Node000015_Node000008"><a xlink:title=" ">
<path fill="none" stroke="#63b8ff" d="M317.2,-93C330.46,-96.77 346.36,-100.64 361,-102.5 390.98,-106.31 399.05,-106.51 429,-102.5 438.07,-101.29 447.65,-99.17 456.62,-96.81"/>
<polygon fill="#63b8ff" stroke="#63b8ff" points="457.74,-100.14 466.43,-94.08 455.86,-93.39 457.74,-100.14"/>
</a>
</g>
</g>
<!-- Node16&#45;&gt;Node6 -->
<g id="edge26_Node000016_Node000006" class="edge">
<title>Node16&#45;&gt;Node6</title>
<g id="a_edge26_Node000016_Node000006"><a xlink:title=" ">
<path fill="none" stroke="#63b8ff" d="M314.37,-56.09C327.49,-60.77 343.47,-66.47 357.65,-71.53"/>
<polygon fill="#63b8ff" stroke="#63b8ff" points="356.54,-74.85 367.13,-74.91 358.89,-68.26 356.54,-74.85"/>
</a>
</g>
</g>
<!-- Node16&#45;&gt;Node8 -->
<g id="edge27_Node000016_Node000008" class="edge">
<title>Node16&#45;&gt;Node8</title>
<g id="a_edge27_Node000016_Node000008"><a xlink:title=" ">
<path fill="none" stroke="#63b8ff" d="M319.2,-49.41C348.03,-52.38 391.64,-57.66 429,-65.5 437.64,-67.31 446.8,-69.67 455.46,-72.1"/>
<polygon fill="#63b8ff" stroke="#63b8ff" points="454.76,-75.54 465.33,-74.96 456.7,-68.81 454.76,-75.54"/>
</a>
</g>
</g>
</g>
</svg>

<g id="navigator" transform="translate(0 0)" fill="#404254">
  <rect fill="#f2f5e9" fill-opacity="0.5" stroke="#606060" stroke-width=".5" x="0" y="0" width="60" height="60"/>
  <use id="zoomplus" xlink:href="#zoomPlus" x="17" y="9" onmousedown="handleZoom(evt,'in')"/>
  <use id="zoomminus" xlink:href="#zoomMin" x="42" y="9" onmousedown="handleZoom(evt,'out')"/>
  <use id="reset" xlink:href="#resetDef" x="30" y="36" onmousedown="handleReset()"/>
   <use id="arrowup" xlink:href="#arrowUp" x="0" y="0" onmousedown="handlePan(0,-1)"/>
  <use id="arrowright" xlink:href="#arrowRight" x="0" y="0" onmousedown="handlePan(1,0)"/>
  <use id="arrowdown" xlink:href="#arrowDown" x="0" y="0" onmousedown="handlePan(0,1)"/>
  <use id="arrowleft" xlink:href="#arrowLeft" x="0" y="0" onmousedown="handlePan(-1,0)"/>
</g>
<svg viewBox="0 0 15 15" width="100%" height="30px" preserveAspectRatio="xMaxYMin meet">
 <g id="arrow_out" transform="scale(0.3 0.3)">
  <a xlink:href="tommath_8h_a683183e1b31a1717a57e7d52567100c4_cgraph_org.svg" target="_base">
   <rect id="button" ry="5" rx="5" y="6" x="6" height="38" width="38"
        fill="#f2f5e9" fill-opacity="0.5" stroke="#606060" stroke-width="1.0"/>
   <path id="arrow"
     d="M 11.500037,31.436501 C 11.940474,20.09759 22.043105,11.32322 32.158766,21.979434 L 37.068811,17.246167 C 37.068811,17.246167 37.088388,32 37.088388,32 L 22.160133,31.978069 C 22.160133,31.978069 26.997745,27.140456 26.997745,27.140456 C 18.528582,18.264221 13.291696,25.230495 11.500037,31.436501 z"
     style="fill:#404040;"/>
  </a>
 </g>
</svg>

<style type='text/css'>
<![CDATA[
[data-mouse-over-selected='false'] { opacity: 0.7; }
[data-mouse-over-selected='true']  { opacity: 1.0; }
]]>
</style>
<script type="application/ecmascript"><![CDATA[
document.addEventListener('DOMContentLoaded', (event) => {
  highlightEdges();
  highlightAdjacentNodes();
});
]]></script>
</svg>
