<?xml version="1.0" encoding="UTF-8" standalone="no"?>
<!DOCTYPE svg PUBLIC "-//W3C//DTD SVG 1.1//EN"
 "http://www.w3.org/Graphics/SVG/1.1/DTD/svg11.dtd">
<!-- Generated by graphviz version 2.43.0 (0)
 -->
<!-- Title: finish Pages: 1 -->
<svg width="893pt" height="399pt"
 viewBox="0.00 0.00 893.00 399.09" xmlns="http://www.w3.org/2000/svg" xmlns:xlink="http://www.w3.org/1999/xlink">
<g id="graph0" class="graph" transform="scale(1 1) rotate(0) translate(4 395.09)">
<title>finish</title>
<!-- Node1 -->
<g id="Node000001" class="node">
<title>Node1</title>
<g id="a_Node000001"><a xlink:title=" ">
<polygon fill="#999999" stroke="#666666" points="43,-233.5 0,-233.5 0,-214.5 43,-214.5 43,-233.5"/>
<text text-anchor="middle" x="21.5" y="-221.5" font-family="Helvetica,sans-Serif" font-size="10.00">finish</text>
</a>
</g>
</g>
<!-- Node2 -->
<g id="Node000002" class="node">
<title>Node2</title>
<g id="a_Node000002"><a xlink:href="printf_8h.html#aee3ed3a831f25f07e7be3919fff2203a" target="_top" xlink:title=" ">
<polygon fill="white" stroke="#666666" points="122,-233.5 79,-233.5 79,-214.5 122,-214.5 122,-233.5"/>
<text text-anchor="middle" x="100.5" y="-221.5" font-family="Helvetica,sans-Serif" font-size="10.00">printf</text>
</a>
</g>
</g>
<!-- Node1&#45;&gt;Node2 -->
<g id="edge1_Node000001_Node000002" class="edge">
<title>Node1&#45;&gt;Node2</title>
<g id="a_edge1_Node000001_Node000002"><a xlink:title=" ">
<path fill="none" stroke="#63b8ff" d="M43.13,-224C50.99,-224 60.12,-224 68.71,-224"/>
<polygon fill="#63b8ff" stroke="#63b8ff" points="68.81,-227.5 78.81,-224 68.81,-220.5 68.81,-227.5"/>
</a>
</g>
</g>
<!-- Node3 -->
<g id="Node000003" class="node">
<title>Node3</title>
<g id="a_Node000003"><a xlink:href="printf_8h.html#aece57ac974e070300788ffc59bb5f779" target="_top" xlink:title=" ">
<polygon fill="white" stroke="#666666" points="259,-252.5 158,-252.5 158,-233.5 259,-233.5 259,-252.5"/>
<text text-anchor="middle" x="208.5" y="-240.5" font-family="Helvetica,sans-Serif" font-size="10.00">make_printf_args</text>
</a>
</g>
</g>
<!-- Node2&#45;&gt;Node3 -->
<g id="edge2_Node000002_Node000003" class="edge">
<title>Node2&#45;&gt;Node3</title>
<g id="a_edge2_Node000002_Node000003"><a xlink:title=" ">
<path fill="none" stroke="#63b8ff" d="M122.19,-227.71C129.71,-229.06 138.64,-230.66 147.84,-232.31"/>
<polygon fill="#63b8ff" stroke="#63b8ff" points="147.41,-235.78 157.87,-234.1 148.64,-228.89 147.41,-235.78"/>
</a>
</g>
</g>
<!-- Node4 -->
<g id="Node000004" class="node">
<title>Node4</title>
<g id="a_Node000004"><a xlink:href="printf_8h.html#aa80a935767017049bd5427afbe5b5912" target="_top" xlink:title=" ">
<polygon fill="white" stroke="#666666" points="235,-215.5 182,-215.5 182,-196.5 235,-196.5 235,-215.5"/>
<text text-anchor="middle" x="208.5" y="-203.5" font-family="Helvetica,sans-Serif" font-size="10.00">vfprintf</text>
</a>
</g>
</g>
<!-- Node2&#45;&gt;Node4 -->
<g id="edge3_Node000002_Node000004" class="edge">
<title>Node2&#45;&gt;Node4</title>
<g id="a_edge3_Node000002_Node000004"><a xlink:title=" ">
<path fill="none" stroke="#63b8ff" d="M122.19,-220.49C136.36,-218.08 155.51,-214.83 172.08,-212.01"/>
<polygon fill="#63b8ff" stroke="#63b8ff" points="172.72,-215.46 181.99,-210.33 171.55,-208.55 172.72,-215.46"/>
</a>
</g>
</g>
<!-- Node5 -->
<g id="Node000005" class="node">
<title>Node5</title>
<g id="a_Node000005"><a xlink:href="namespacedetail.html#a1c8c2218e4c822aa8f743fb9c573717f" target="_top" xlink:title=" ">
<polygon fill="white" stroke="#666666" points="378,-215.5 295,-215.5 295,-196.5 378,-196.5 378,-215.5"/>
<text text-anchor="middle" x="336.5" y="-203.5" font-family="Helvetica,sans-Serif" font-size="10.00">detail::vprintf</text>
</a>
</g>
</g>
<!-- Node4&#45;&gt;Node5 -->
<g id="edge4_Node000004_Node000005" class="edge">
<title>Node4&#45;&gt;Node5</title>
<g id="a_edge4_Node000004_Node000005"><a xlink:title=" ">
<path fill="none" stroke="#63b8ff" d="M235.3,-206C249.49,-206 267.61,-206 284.52,-206"/>
<polygon fill="#63b8ff" stroke="#63b8ff" points="284.85,-209.5 294.85,-206 284.85,-202.5 284.85,-209.5"/>
</a>
</g>
</g>
<!-- Node6 -->
<g id="Node000006" class="node">
<title>Node6</title>
<g id="a_Node000006"><a xlink:href="fmt_2include_2fmt_2core_8h.html#a2c8e80c1b1c8b7747e99b8e9a24a0429" target="_top" xlink:title=" ">
<polygon fill="white" stroke="#666666" points="840,-360.5 808,-360.5 808,-341.5 840,-341.5 840,-360.5"/>
<text text-anchor="middle" x="824" y="-348.5" font-family="Helvetica,sans-Serif" font-size="10.00">arg</text>
</a>
</g>
</g>
<!-- Node5&#45;&gt;Node6 -->
<g id="edge5_Node000005_Node000006" class="edge">
<title>Node5&#45;&gt;Node6</title>
<g id="a_edge5_Node000005_Node000006"><a xlink:title=" ">
<path fill="none" stroke="#63b8ff" d="M339.79,-215.51C346.4,-240.77 368.06,-309.84 414,-342 534.96,-426.67 729.16,-379.76 797.9,-359.14"/>
<polygon fill="#63b8ff" stroke="#63b8ff" points="799.3,-362.37 807.82,-356.08 797.24,-355.68 799.3,-362.37"/>
</a>
</g>
</g>
<!-- Node7 -->
<g id="Node000007" class="node">
<title>Node7</title>
<g id="a_Node000007"><a xlink:href="color_8h.html#af4a3b7f252e457605de5440249a15699" target="_top" xlink:title=" ">
<polygon fill="white" stroke="#666666" points="671.5,-104.5 621.5,-104.5 621.5,-85.5 671.5,-85.5 671.5,-104.5"/>
<text text-anchor="middle" x="646.5" y="-92.5" font-family="Helvetica,sans-Serif" font-size="10.00">format</text>
</a>
</g>
</g>
<!-- Node5&#45;&gt;Node7 -->
<g id="edge7_Node000005_Node000007" class="edge">
<title>Node5&#45;&gt;Node7</title>
<g id="a_edge7_Node000005_Node000007"><a xlink:title=" ">
<path fill="none" stroke="#63b8ff" d="M342.72,-196.43C353.37,-177.99 379.54,-137.75 414,-120 477.65,-87.21 564.03,-87.83 611.23,-91.32"/>
<polygon fill="#63b8ff" stroke="#63b8ff" points="610.98,-94.81 621.24,-92.15 611.56,-87.83 610.98,-94.81"/>
</a>
</g>
</g>
<!-- Node9 -->
<g id="Node000009" class="node">
<title>Node9</title>
<g id="a_Node000009"><a xlink:href="namespacedetail.html#a4bfbd26c5ac41fc8e3929b10631c2a31" target="_top" xlink:title=" ">
<polygon fill="white" stroke="#666666" points="690,-357.5 603,-357.5 603,-338.5 690,-338.5 690,-357.5"/>
<text text-anchor="middle" x="646.5" y="-345.5" font-family="Helvetica,sans-Serif" font-size="10.00">detail::get_arg</text>
</a>
</g>
</g>
<!-- Node5&#45;&gt;Node9 -->
<g id="edge9_Node000005_Node000009" class="edge">
<title>Node5&#45;&gt;Node9</title>
<g id="a_edge9_Node000005_Node000009"><a xlink:title=" ">
<path fill="none" stroke="#63b8ff" d="M341.5,-215.81C350.73,-237.11 375.73,-287.55 414,-311 468.43,-344.36 543.06,-350.73 592.71,-350.66"/>
<polygon fill="#63b8ff" stroke="#63b8ff" points="592.95,-354.16 602.91,-350.56 592.87,-347.16 592.95,-354.16"/>
</a>
</g>
</g>
<!-- Node10 -->
<g id="Node000010" class="node">
<title>Node10</title>
<g id="a_Node000010"><a xlink:href="namespacedetail.html#ac22dbe18eb3fef4c672314e30ed0421a" target="_top" xlink:title=" ">
<polygon fill="white" stroke="#666666" points="530,-273.5 414,-273.5 414,-254.5 530,-254.5 530,-273.5"/>
<text text-anchor="middle" x="472" y="-261.5" font-family="Helvetica,sans-Serif" font-size="10.00">detail::parse_header</text>
</a>
</g>
</g>
<!-- Node5&#45;&gt;Node10 -->
<g id="edge11_Node000005_Node000010" class="edge">
<title>Node5&#45;&gt;Node10</title>
<g id="a_edge11_Node000005_Node000010"><a xlink:title=" ">
<path fill="none" stroke="#63b8ff" d="M359.54,-215.58C381.38,-225.06 415.03,-239.68 439.65,-250.38"/>
<polygon fill="#63b8ff" stroke="#63b8ff" points="438.36,-253.63 448.92,-254.41 441.15,-247.21 438.36,-253.63"/>
</a>
</g>
</g>
<!-- Node12 -->
<g id="Node000012" class="node">
<title>Node12</title>
<g id="a_Node000012"><a xlink:href="namespacedetail.html#a338caba782225e115a9902d4d0835f5f" target="_top" xlink:title=" ">
<polygon fill="white" stroke="#666666" points="727,-246.5 566,-246.5 566,-227.5 727,-227.5 727,-246.5"/>
<text text-anchor="middle" x="646.5" y="-234.5" font-family="Helvetica,sans-Serif" font-size="10.00">detail::parse_nonnegative_int</text>
</a>
</g>
</g>
<!-- Node5&#45;&gt;Node12 -->
<g id="edge22_Node000005_Node000012" class="edge">
<title>Node5&#45;&gt;Node12</title>
<g id="a_edge22_Node000005_Node000012"><a xlink:title=" ">
<path fill="none" stroke="#63b8ff" d="M378.08,-210.08C423.09,-214.62 497.12,-222.07 555.88,-227.98"/>
<polygon fill="#63b8ff" stroke="#63b8ff" points="555.62,-231.47 565.92,-228.99 556.32,-224.51 555.62,-231.47"/>
</a>
</g>
</g>
<!-- Node14 -->
<g id="Node000014" class="node">
<title>Node14</title>
<g id="a_Node000014"><a xlink:href="namespacedetail.html#ad64642bb9b2374fba5526c132a751951" target="_top" xlink:title=" ">
<polygon fill="white" stroke="#666666" points="879,-175.5 769,-175.5 769,-156.5 879,-156.5 879,-175.5"/>
<text text-anchor="middle" x="824" y="-163.5" font-family="Helvetica,sans-Serif" font-size="10.00">detail::to_unsigned</text>
</a>
</g>
</g>
<!-- Node5&#45;&gt;Node14 -->
<g id="edge26_Node000005_Node000014" class="edge">
<title>Node5&#45;&gt;Node14</title>
<g id="a_edge26_Node000005_Node000014"><a xlink:title=" ">
<path fill="none" stroke="#63b8ff" d="M367.12,-196.41C381.23,-192.02 398.4,-186.93 414,-183 549.56,-148.87 587.57,-141.89 727,-152 737.31,-152.75 748.2,-153.94 758.79,-155.33"/>
<polygon fill="#63b8ff" stroke="#63b8ff" points="758.44,-158.81 768.83,-156.7 759.39,-151.88 758.44,-158.81"/>
</a>
</g>
</g>
<!-- Node15 -->
<g id="Node000015" class="node">
<title>Node15</title>
<g id="a_Node000015"><a xlink:href="namespacedetail.html#a6a4a175ed2175e4da7b988e021175317" target="_top" xlink:title=" ">
<polygon fill="white" stroke="#666666" points="704.5,-191 588.5,-191 588.5,-161 704.5,-161 704.5,-191"/>
<text text-anchor="start" x="596.5" y="-179" font-family="Helvetica,sans-Serif" font-size="10.00">detail::throw_format</text>
<text text-anchor="middle" x="646.5" y="-168" font-family="Helvetica,sans-Serif" font-size="10.00">_error</text>
</a>
</g>
</g>
<!-- Node5&#45;&gt;Node15 -->
<g id="edge25_Node000005_Node000015" class="edge">
<title>Node5&#45;&gt;Node15</title>
<g id="a_edge25_Node000005_Node000015"><a xlink:title=" ">
<path fill="none" stroke="#63b8ff" d="M378.08,-202.05C428.96,-197.09 516.91,-188.53 577.99,-182.58"/>
<polygon fill="#63b8ff" stroke="#63b8ff" points="578.69,-186.02 588.31,-181.57 578.02,-179.06 578.69,-186.02"/>
</a>
</g>
</g>
<!-- Node16 -->
<g id="Node000016" class="node">
<title>Node16</title>
<g id="a_Node000016"><a xlink:href="fmt_2include_2fmt_2core_8h.html#a05783ffcc62709c2284ee0da45486a98" target="_top" xlink:title=" ">
<polygon fill="white" stroke="#666666" points="695,-320.5 598,-320.5 598,-301.5 695,-301.5 695,-320.5"/>
<text text-anchor="middle" x="646.5" y="-308.5" font-family="Helvetica,sans-Serif" font-size="10.00">visit_format_arg</text>
</a>
</g>
</g>
<!-- Node5&#45;&gt;Node16 -->
<g id="edge27_Node000005_Node000016" class="edge">
<title>Node5&#45;&gt;Node16</title>
<g id="a_edge27_Node000005_Node000016"><a xlink:title=" ">
<path fill="none" stroke="#63b8ff" d="M343.72,-215.58C355.27,-232.48 381.83,-267.28 414,-283 468.67,-309.71 538.95,-314.71 587.66,-314.28"/>
<polygon fill="#63b8ff" stroke="#63b8ff" points="587.77,-317.78 597.71,-314.12 587.66,-310.78 587.77,-317.78"/>
</a>
</g>
</g>
<!-- Node18 -->
<g id="Node000018" class="node">
<title>Node18</title>
<g id="a_Node000018"><a xlink:href="namespacedetail.html#a2e4362a340def2768ed1f8f66e764063" target="_top" xlink:title=" ">
<polygon fill="white" stroke="#666666" points="527,-30 417,-30 417,0 527,0 527,-30"/>
<text text-anchor="start" x="425" y="-18" font-family="Helvetica,sans-Serif" font-size="10.00">detail::parse_printf</text>
<text text-anchor="middle" x="472" y="-7" font-family="Helvetica,sans-Serif" font-size="10.00">_presentation_type</text>
</a>
</g>
</g>
<!-- Node5&#45;&gt;Node18 -->
<g id="edge23_Node000005_Node000018" class="edge">
<title>Node5&#45;&gt;Node18</title>
<g id="a_edge23_Node000005_Node000018"><a xlink:title=" ">
<path fill="none" stroke="#63b8ff" d="M339.36,-196.28C345.24,-168.13 365.92,-85.61 414,-39 415.11,-37.93 416.27,-36.9 417.48,-35.91"/>
<polygon fill="#63b8ff" stroke="#63b8ff" points="419.78,-38.58 426.02,-30.01 415.8,-32.82 419.78,-38.58"/>
</a>
</g>
</g>
<!-- Node20 -->
<g id="Node000020" class="node">
<title>Node20</title>
<g id="a_Node000020"><a xlink:href="namespacedetail.html#a29dacf26eedc9e3575fb57329a5ca0a3" target="_top" xlink:title=" ">
<polygon fill="white" stroke="#666666" points="509.5,-67.5 434.5,-67.5 434.5,-48.5 509.5,-48.5 509.5,-67.5"/>
<text text-anchor="middle" x="472" y="-55.5" font-family="Helvetica,sans-Serif" font-size="10.00">detail::write</text>
</a>
</g>
</g>
<!-- Node5&#45;&gt;Node20 -->
<g id="edge28_Node000005_Node000020" class="edge">
<title>Node5&#45;&gt;Node20</title>
<g id="a_edge28_Node000005_Node000020"><a xlink:title=" ">
<path fill="none" stroke="#63b8ff" d="M341.1,-196.21C350,-173.23 375.19,-115.24 414,-82 418.6,-78.06 423.93,-74.7 429.46,-71.84"/>
<polygon fill="#63b8ff" stroke="#63b8ff" points="431.24,-74.87 438.85,-67.5 428.3,-68.52 431.24,-74.87"/>
</a>
</g>
</g>
<!-- Node6&#45;&gt;Node6 -->
<g id="edge6_Node000006_Node000006" class="edge">
<title>Node6&#45;&gt;Node6</title>
<g id="a_edge6_Node000006_Node000006"><a xlink:title=" ">
<path fill="none" stroke="#63b8ff" d="M807.68,-355.47C780.92,-365.08 786.36,-378.5 824,-378.5 856.35,-378.5 864.91,-368.59 849.7,-359.7"/>
<polygon fill="#63b8ff" stroke="#63b8ff" points="850.88,-356.39 840.32,-355.47 847.99,-362.77 850.88,-356.39"/>
</a>
</g>
</g>
<!-- Node8 -->
<g id="Node000008" class="node">
<title>Node8</title>
<g id="a_Node000008"><a xlink:href="namespacedetail.html#a4662b86e5cfc5c32eb3efea5a84d3040" target="_top" xlink:title=" ">
<polygon fill="white" stroke="#666666" points="885,-104.5 763,-104.5 763,-85.5 885,-85.5 885,-104.5"/>
<text text-anchor="middle" x="824" y="-92.5" font-family="Helvetica,sans-Serif" font-size="10.00">detail::to_string_view</text>
</a>
</g>
</g>
<!-- Node7&#45;&gt;Node8 -->
<g id="edge8_Node000007_Node000008" class="edge">
<title>Node7&#45;&gt;Node8</title>
<g id="a_edge8_Node000007_Node000008"><a xlink:title=" ">
<path fill="none" stroke="#63b8ff" d="M671.53,-95C692.44,-95 723.83,-95 752.61,-95"/>
<polygon fill="#63b8ff" stroke="#63b8ff" points="752.67,-98.5 762.67,-95 752.67,-91.5 752.67,-98.5"/>
</a>
</g>
</g>
<!-- Node9&#45;&gt;Node6 -->
<g id="edge10_Node000009_Node000006" class="edge">
<title>Node9&#45;&gt;Node6</title>
<g id="a_edge10_Node000009_Node000006"><a xlink:title=" ">
<path fill="none" stroke="#63b8ff" d="M690.43,-348.73C724.12,-349.31 769.84,-350.09 797.84,-350.57"/>
<polygon fill="#63b8ff" stroke="#63b8ff" points="797.93,-354.07 807.98,-350.74 798.05,-347.07 797.93,-354.07"/>
</a>
</g>
</g>
<!-- Node10&#45;&gt;Node9 -->
<g id="edge12_Node000010_Node000009" class="edge">
<title>Node10&#45;&gt;Node9</title>
<g id="a_edge12_Node000010_Node000009"><a xlink:title=" ">
<path fill="none" stroke="#63b8ff" d="M483.57,-273.67C499.97,-288.15 533.1,-315.31 566,-330 574.45,-333.77 583.76,-336.79 592.95,-339.19"/>
<polygon fill="#63b8ff" stroke="#63b8ff" points="592.29,-342.63 602.83,-341.57 593.92,-335.83 592.29,-342.63"/>
</a>
</g>
</g>
<!-- Node11 -->
<g id="Node000011" class="node">
<title>Node11</title>
<g id="a_Node000011"><a xlink:href="namespacedetail.html#ac2056b8550f21cf842853812a4ffd167" target="_top" xlink:title=" ">
<polygon fill="white" stroke="#666666" points="699.5,-283.5 593.5,-283.5 593.5,-264.5 699.5,-264.5 699.5,-283.5"/>
<text text-anchor="middle" x="646.5" y="-271.5" font-family="Helvetica,sans-Serif" font-size="10.00">detail::parse_flags</text>
</a>
</g>
</g>
<!-- Node10&#45;&gt;Node11 -->
<g id="edge13_Node000010_Node000011" class="edge">
<title>Node10&#45;&gt;Node11</title>
<g id="a_edge13_Node000010_Node000011"><a xlink:title=" ">
<path fill="none" stroke="#63b8ff" d="M530.44,-267.33C547.24,-268.3 565.69,-269.37 582.8,-270.37"/>
<polygon fill="#63b8ff" stroke="#63b8ff" points="583.07,-273.89 593.25,-270.97 583.47,-266.9 583.07,-273.89"/>
</a>
</g>
</g>
<!-- Node10&#45;&gt;Node12 -->
<g id="edge14_Node000010_Node000012" class="edge">
<title>Node10&#45;&gt;Node12</title>
<g id="a_edge14_Node000010_Node000012"><a xlink:title=" ">
<path fill="none" stroke="#63b8ff" d="M530.44,-255.01C544.61,-252.79 559.96,-250.39 574.69,-248.08"/>
<polygon fill="#63b8ff" stroke="#63b8ff" points="575.42,-251.51 584.76,-246.51 574.34,-244.6 575.42,-251.51"/>
</a>
</g>
</g>
<!-- Node10&#45;&gt;Node15 -->
<g id="edge17_Node000010_Node000015" class="edge">
<title>Node10&#45;&gt;Node15</title>
<g id="a_edge17_Node000010_Node000015"><a xlink:title=" ">
<path fill="none" stroke="#63b8ff" d="M491.79,-254.41C519.2,-240.43 570.79,-214.11 606.6,-195.85"/>
<polygon fill="#63b8ff" stroke="#63b8ff" points="608.48,-198.82 615.79,-191.16 605.29,-192.58 608.48,-198.82"/>
</a>
</g>
</g>
<!-- Node10&#45;&gt;Node16 -->
<g id="edge19_Node000010_Node000016" class="edge">
<title>Node10&#45;&gt;Node16</title>
<g id="a_edge19_Node000010_Node000016"><a xlink:title=" ">
<path fill="none" stroke="#63b8ff" d="M501.73,-273.61C520.02,-279.56 544.28,-287.16 566,-293 573.87,-295.11 582.22,-297.19 590.44,-299.13"/>
<polygon fill="#63b8ff" stroke="#63b8ff" points="589.83,-302.58 600.36,-301.44 591.41,-295.76 589.83,-302.58"/>
</a>
</g>
</g>
<!-- Node13 -->
<g id="Node000013" class="node">
<title>Node13</title>
<g id="a_Node000013"><a xlink:href="RecastContour_8cpp.html#a6f1109916123abdff2b46675c13307e3" target="_top" xlink:title=" ">
<polygon fill="white" stroke="#666666" points="843,-246.5 805,-246.5 805,-227.5 843,-227.5 843,-246.5"/>
<text text-anchor="middle" x="824" y="-234.5" font-family="Helvetica,sans-Serif" font-size="10.00">prev</text>
</a>
</g>
</g>
<!-- Node12&#45;&gt;Node13 -->
<g id="edge15_Node000012_Node000013" class="edge">
<title>Node12&#45;&gt;Node13</title>
<g id="a_edge15_Node000012_Node000013"><a xlink:title=" ">
<path fill="none" stroke="#63b8ff" d="M727.03,-237C751.29,-237 776.4,-237 794.85,-237"/>
<polygon fill="#63b8ff" stroke="#63b8ff" points="794.88,-240.5 804.88,-237 794.88,-233.5 794.88,-240.5"/>
</a>
</g>
</g>
<!-- Node12&#45;&gt;Node14 -->
<g id="edge16_Node000012_Node000014" class="edge">
<title>Node12&#45;&gt;Node14</title>
<g id="a_edge16_Node000012_Node000014"><a xlink:title=" ">
<path fill="none" stroke="#63b8ff" d="M696.46,-227.43C706.7,-224.84 717.33,-221.7 727,-218 753.01,-208.04 780.8,-192.38 799.74,-180.85"/>
<polygon fill="#63b8ff" stroke="#63b8ff" points="801.63,-183.8 808.29,-175.56 797.94,-177.85 801.63,-183.8"/>
</a>
</g>
</g>
<!-- Node15&#45;&gt;Node15 -->
<g id="edge18_Node000015_Node000015" class="edge">
<title>Node15&#45;&gt;Node15</title>
<g id="a_edge18_Node000015_Node000015"><a xlink:title=" ">
<path fill="none" stroke="#63b8ff" d="M615.91,-191.28C609.12,-200.41 619.31,-209 646.5,-209 662.64,-209 672.79,-205.97 676.96,-201.6"/>
<polygon fill="#63b8ff" stroke="#63b8ff" points="680.46,-201.32 677.09,-191.28 673.46,-201.23 680.46,-201.32"/>
</a>
</g>
</g>
<!-- Node16&#45;&gt;Node6 -->
<g id="edge20_Node000016_Node000006" class="edge">
<title>Node16&#45;&gt;Node6</title>
<g id="a_edge20_Node000016_Node000006"><a xlink:title=" ">
<path fill="none" stroke="#63b8ff" d="M689.54,-320.58C723.35,-328.29 769.72,-338.86 797.95,-345.29"/>
<polygon fill="#63b8ff" stroke="#63b8ff" points="797.3,-348.73 807.82,-347.54 798.85,-341.91 797.3,-348.73"/>
</a>
</g>
</g>
<!-- Node17 -->
<g id="Node000017" class="node">
<title>Node17</title>
<g id="a_Node000017"><a xlink:href="namespacedetail.html#a49b6442202d11af60b96dc09859dd027" target="_top" xlink:title=" ">
<polygon fill="white" stroke="#666666" points="877,-323 771,-323 771,-293 877,-293 877,-323"/>
<text text-anchor="start" x="779" y="-311" font-family="Helvetica,sans-Serif" font-size="10.00">detail::convert_for</text>
<text text-anchor="middle" x="824" y="-300" font-family="Helvetica,sans-Serif" font-size="10.00">_visit</text>
</a>
</g>
</g>
<!-- Node16&#45;&gt;Node17 -->
<g id="edge21_Node000016_Node000017" class="edge">
<title>Node16&#45;&gt;Node17</title>
<g id="a_edge21_Node000016_Node000017"><a xlink:title=" ">
<path fill="none" stroke="#63b8ff" d="M695.46,-310.18C715.61,-309.84 739.31,-309.43 760.78,-309.06"/>
<polygon fill="#63b8ff" stroke="#63b8ff" points="760.85,-312.56 770.79,-308.89 760.73,-305.56 760.85,-312.56"/>
</a>
</g>
</g>
<!-- Node19 -->
<g id="Node000019" class="node">
<title>Node19</title>
<g id="a_Node000019"><a xlink:href="namespacedetail.html#a52a5e2ed06c229dcf95ea5c46d48d05e" target="_top" xlink:title=" ">
<polygon fill="white" stroke="#666666" points="676,-24.5 617,-24.5 617,-5.5 676,-5.5 676,-24.5"/>
<text text-anchor="middle" x="646.5" y="-12.5" font-family="Helvetica,sans-Serif" font-size="10.00">detail::in</text>
</a>
</g>
</g>
<!-- Node18&#45;&gt;Node19 -->
<g id="edge24_Node000018_Node000019" class="edge">
<title>Node18&#45;&gt;Node19</title>
<g id="a_edge24_Node000018_Node000019"><a xlink:title=" ">
<path fill="none" stroke="#63b8ff" d="M527.11,-15C552.81,-15 582.96,-15 606.4,-15"/>
<polygon fill="#63b8ff" stroke="#63b8ff" points="606.66,-18.5 616.66,-15 606.66,-11.5 606.66,-18.5"/>
</a>
</g>
</g>
<!-- Node20&#45;&gt;Node7 -->
<g id="edge29_Node000020_Node000007" class="edge">
<title>Node20&#45;&gt;Node7</title>
<g id="a_edge29_Node000020_Node000007"><a xlink:title=" ">
<path fill="none" stroke="#63b8ff" d="M509.58,-65.85C539.75,-72.32 582.21,-81.43 611.62,-87.73"/>
<polygon fill="#63b8ff" stroke="#63b8ff" points="610.92,-91.16 621.43,-89.84 612.39,-84.32 610.92,-91.16"/>
</a>
</g>
</g>
<!-- Node21 -->
<g id="Node000021" class="node">
<title>Node21</title>
<g id="a_Node000021"><a xlink:href="namespacedetail.html#ab2732c48a7d428c20ca951289522c6f1" target="_top" xlink:title=" ">
<polygon fill="white" stroke="#666666" points="700,-67.5 593,-67.5 593,-48.5 700,-48.5 700,-67.5"/>
<text text-anchor="middle" x="646.5" y="-55.5" font-family="Helvetica,sans-Serif" font-size="10.00">detail::get_iterator</text>
</a>
</g>
</g>
<!-- Node20&#45;&gt;Node21 -->
<g id="edge30_Node000020_Node000021" class="edge">
<title>Node20&#45;&gt;Node21</title>
<g id="a_edge30_Node000020_Node000021"><a xlink:title=" ">
<path fill="none" stroke="#63b8ff" d="M509.58,-58C530.78,-58 558.06,-58 582.6,-58"/>
<polygon fill="#63b8ff" stroke="#63b8ff" points="582.93,-61.5 592.93,-58 582.93,-54.5 582.93,-61.5"/>
</a>
</g>
</g>
</g>
</svg>
