<?xml version="1.0" encoding="UTF-8" standalone="no"?>
<!DOCTYPE svg PUBLIC "-//W3C//DTD SVG 1.1//EN"
 "http://www.w3.org/Graphics/SVG/1.1/DTD/svg11.dtd">
<!-- Generated by graphviz version 2.43.0 (0)
 -->
<!-- Title: AscEmu/src/tools/ToolsCataMop/mmaps_generator/PathCommon.h Pages: 1 -->
<svg width="908pt" height="258pt"
 viewBox="0.00 0.00 908.00 258.00" xmlns="http://www.w3.org/2000/svg" xmlns:xlink="http://www.w3.org/1999/xlink">
<g id="graph0" class="graph" transform="scale(1 1) rotate(0) translate(4 254)">
<title>AscEmu/src/tools/ToolsCataMop/mmaps_generator/PathCommon.h</title>
<!-- Node1 -->
<g id="Node000001" class="node">
<title>Node1</title>
<g id="a_Node000001"><a xlink:title=" ">
<polygon fill="#999999" stroke="#666666" points="520.5,-250 313.5,-250 313.5,-220 520.5,-220 520.5,-250"/>
<text text-anchor="start" x="321.5" y="-238" font-family="Helvetica,sans-Serif" font-size="10.00">AscEmu/src/tools/ToolsCata</text>
<text text-anchor="middle" x="417" y="-227" font-family="Helvetica,sans-Serif" font-size="10.00">Mop/mmaps_generator/PathCommon.h</text>
</a>
</g>
</g>
<!-- Node2 -->
<g id="Node000002" class="node">
<title>Node2</title>
<g id="a_Node000002"><a xlink:href="ToolsCataMop_2mmaps__generator_2IntermediateValues_8h.html" target="_top" xlink:title=" ">
<polygon fill="white" stroke="#666666" points="323,-118 127,-118 127,-77 323,-77 323,-118"/>
<text text-anchor="start" x="135" y="-106" font-family="Helvetica,sans-Serif" font-size="10.00">AscEmu/src/tools/ToolsCata</text>
<text text-anchor="start" x="135" y="-95" font-family="Helvetica,sans-Serif" font-size="10.00">Mop/mmaps_generator/Intermediate</text>
<text text-anchor="middle" x="225" y="-84" font-family="Helvetica,sans-Serif" font-size="10.00">Values.h</text>
</a>
</g>
</g>
<!-- Node1&#45;&gt;Node2 -->
<g id="edge1_Node000001_Node000002" class="edge">
<title>Node1&#45;&gt;Node2</title>
<g id="a_edge1_Node000001_Node000002"><a xlink:title=" ">
<path fill="none" stroke="#63b8ff" d="M384.42,-214.59C369.73,-205.6 352.28,-194.57 337,-184 306.02,-162.56 271.78,-135.98 249.42,-118.19"/>
<polygon fill="#63b8ff" stroke="#63b8ff" points="382.81,-217.71 393.17,-219.91 386.45,-211.72 382.81,-217.71"/>
</a>
</g>
</g>
<!-- Node4 -->
<g id="Node000004" class="node">
<title>Node4</title>
<g id="a_Node000004"><a xlink:href="ToolsCataMop_2mmaps__generator_2MapBuilder_8cpp.html" target="_top" xlink:title=" ">
<polygon fill="white" stroke="#666666" points="422,-35.5 214,-35.5 214,-5.5 422,-5.5 422,-35.5"/>
<text text-anchor="start" x="222" y="-23.5" font-family="Helvetica,sans-Serif" font-size="10.00">AscEmu/src/tools/ToolsCata</text>
<text text-anchor="middle" x="318" y="-12.5" font-family="Helvetica,sans-Serif" font-size="10.00">Mop/mmaps_generator/MapBuilder.cpp</text>
</a>
</g>
</g>
<!-- Node1&#45;&gt;Node4 -->
<g id="edge4_Node000001_Node000004" class="edge">
<title>Node1&#45;&gt;Node4</title>
<g id="a_edge4_Node000001_Node000004"><a xlink:title=" ">
<path fill="none" stroke="#63b8ff" d="M392.9,-212.63C384.72,-204.35 376.11,-194.38 370,-184 354.67,-157.96 330.75,-70.23 321.67,-35.67"/>
<polygon fill="#63b8ff" stroke="#63b8ff" points="390.6,-215.27 400.22,-219.71 395.47,-210.24 390.6,-215.27"/>
</a>
</g>
</g>
<!-- Node5 -->
<g id="Node000005" class="node">
<title>Node5</title>
<g id="a_Node000005"><a xlink:href="tools_2ToolsCataMop_2mmaps__generator_2PathGenerator_8cpp.html" target="_top" xlink:title=" ">
<polygon fill="white" stroke="#666666" points="900,-35.5 678,-35.5 678,-5.5 900,-5.5 900,-35.5"/>
<text text-anchor="start" x="686" y="-23.5" font-family="Helvetica,sans-Serif" font-size="10.00">AscEmu/src/tools/ToolsCata</text>
<text text-anchor="middle" x="789" y="-12.5" font-family="Helvetica,sans-Serif" font-size="10.00">Mop/mmaps_generator/PathGenerator.cpp</text>
</a>
</g>
</g>
<!-- Node1&#45;&gt;Node5 -->
<g id="edge5_Node000001_Node000005" class="edge">
<title>Node1&#45;&gt;Node5</title>
<g id="a_edge5_Node000001_Node000005"><a xlink:title=" ">
<path fill="none" stroke="#63b8ff" d="M501.91,-217.5C533.07,-209.66 568.03,-198.72 598,-184 676.16,-145.62 748.77,-68.02 776.8,-35.92"/>
<polygon fill="#63b8ff" stroke="#63b8ff" points="500.82,-214.16 491.94,-219.93 502.48,-220.96 500.82,-214.16"/>
</a>
</g>
</g>
<!-- Node6 -->
<g id="Node000006" class="node">
<title>Node6</title>
<g id="a_Node000006"><a xlink:href="ToolsCataMop_2mmaps__generator_2TerrainBuilder_8h.html" target="_top" xlink:title=" ">
<polygon fill="white" stroke="#666666" points="588.5,-184 379.5,-184 379.5,-154 588.5,-154 588.5,-184"/>
<text text-anchor="start" x="387.5" y="-172" font-family="Helvetica,sans-Serif" font-size="10.00">AscEmu/src/tools/ToolsCata</text>
<text text-anchor="middle" x="484" y="-161" font-family="Helvetica,sans-Serif" font-size="10.00">Mop/mmaps_generator/TerrainBuilder.h</text>
</a>
</g>
</g>
<!-- Node1&#45;&gt;Node6 -->
<g id="edge6_Node000001_Node000006" class="edge">
<title>Node1&#45;&gt;Node6</title>
<g id="a_edge6_Node000001_Node000006"><a xlink:title=" ">
<path fill="none" stroke="#63b8ff" d="M439.35,-212.65C449.17,-203.27 460.42,-192.53 469.17,-184.16"/>
<polygon fill="#63b8ff" stroke="#63b8ff" points="436.68,-210.36 431.87,-219.8 441.52,-215.42 436.68,-210.36"/>
</a>
</g>
</g>
<!-- Node3 -->
<g id="Node000003" class="node">
<title>Node3</title>
<g id="a_Node000003"><a xlink:href="ToolsCataMop_2mmaps__generator_2IntermediateValues_8cpp.html" target="_top" xlink:title=" ">
<polygon fill="white" stroke="#666666" points="196,-41 0,-41 0,0 196,0 196,-41"/>
<text text-anchor="start" x="8" y="-29" font-family="Helvetica,sans-Serif" font-size="10.00">AscEmu/src/tools/ToolsCata</text>
<text text-anchor="start" x="8" y="-18" font-family="Helvetica,sans-Serif" font-size="10.00">Mop/mmaps_generator/Intermediate</text>
<text text-anchor="middle" x="98" y="-7" font-family="Helvetica,sans-Serif" font-size="10.00">Values.cpp</text>
</a>
</g>
</g>
<!-- Node2&#45;&gt;Node3 -->
<g id="edge2_Node000002_Node000003" class="edge">
<title>Node2&#45;&gt;Node3</title>
<g id="a_edge2_Node000002_Node000003"><a xlink:title=" ">
<path fill="none" stroke="#63b8ff" d="M182.91,-71.64C166.14,-61.74 147.1,-50.5 131.31,-41.17"/>
<polygon fill="#63b8ff" stroke="#63b8ff" points="181.57,-74.92 191.96,-76.99 185.13,-68.89 181.57,-74.92"/>
</a>
</g>
</g>
<!-- Node2&#45;&gt;Node4 -->
<g id="edge3_Node000002_Node000004" class="edge">
<title>Node2&#45;&gt;Node4</title>
<g id="a_edge3_Node000002_Node000004"><a xlink:title=" ">
<path fill="none" stroke="#63b8ff" d="M257.25,-70.5C271.76,-58.79 288.32,-45.44 300.48,-35.63"/>
<polygon fill="#63b8ff" stroke="#63b8ff" points="255.02,-67.79 249.43,-76.79 259.42,-73.24 255.02,-67.79"/>
</a>
</g>
</g>
<!-- Node6&#45;&gt;Node2 -->
<g id="edge7_Node000006_Node000002" class="edge">
<title>Node6&#45;&gt;Node2</title>
<g id="a_edge7_Node000006_Node000002"><a xlink:title=" ">
<path fill="none" stroke="#63b8ff" d="M421.86,-151.32C384.58,-141.32 336.99,-128.55 297.94,-118.07"/>
<polygon fill="#63b8ff" stroke="#63b8ff" points="421.02,-154.72 431.59,-153.94 422.84,-147.96 421.02,-154.72"/>
</a>
</g>
</g>
<!-- Node7 -->
<g id="Node000007" class="node">
<title>Node7</title>
<g id="a_Node000007"><a xlink:href="ToolsCataMop_2mmaps__generator_2MapBuilder_8h.html" target="_top" xlink:title=" ">
<polygon fill="white" stroke="#666666" points="676.5,-112.5 479.5,-112.5 479.5,-82.5 676.5,-82.5 676.5,-112.5"/>
<text text-anchor="start" x="487.5" y="-100.5" font-family="Helvetica,sans-Serif" font-size="10.00">AscEmu/src/tools/ToolsCata</text>
<text text-anchor="middle" x="578" y="-89.5" font-family="Helvetica,sans-Serif" font-size="10.00">Mop/mmaps_generator/MapBuilder.h</text>
</a>
</g>
</g>
<!-- Node6&#45;&gt;Node7 -->
<g id="edge8_Node000006_Node000007" class="edge">
<title>Node6&#45;&gt;Node7</title>
<g id="a_edge8_Node000006_Node000007"><a xlink:title=" ">
<path fill="none" stroke="#63b8ff" d="M511.13,-147.94C526.46,-136.6 545.25,-122.71 559.01,-112.54"/>
<polygon fill="#63b8ff" stroke="#63b8ff" points="508.98,-145.18 503.02,-153.94 513.14,-150.8 508.98,-145.18"/>
</a>
</g>
</g>
<!-- Node8 -->
<g id="Node000008" class="node">
<title>Node8</title>
<g id="a_Node000008"><a xlink:href="ToolsCataMop_2mmaps__generator_2TerrainBuilder_8cpp.html" target="_top" xlink:title=" ">
<polygon fill="white" stroke="#666666" points="660,-35.5 440,-35.5 440,-5.5 660,-5.5 660,-35.5"/>
<text text-anchor="start" x="448" y="-23.5" font-family="Helvetica,sans-Serif" font-size="10.00">AscEmu/src/tools/ToolsCata</text>
<text text-anchor="middle" x="550" y="-12.5" font-family="Helvetica,sans-Serif" font-size="10.00">Mop/mmaps_generator/TerrainBuilder.cpp</text>
</a>
</g>
</g>
<!-- Node6&#45;&gt;Node8 -->
<g id="edge12_Node000006_Node000008" class="edge">
<title>Node6&#45;&gt;Node8</title>
<g id="a_edge12_Node000006_Node000008"><a xlink:title=" ">
<path fill="none" stroke="#63b8ff" d="M473.25,-144.4C466.18,-125.22 460.09,-98.01 471,-77 480.66,-58.41 499.72,-44.74 516.7,-35.62"/>
<polygon fill="#63b8ff" stroke="#63b8ff" points="470.08,-145.9 477.05,-153.88 476.57,-143.29 470.08,-145.9"/>
</a>
</g>
</g>
<!-- Node7&#45;&gt;Node4 -->
<g id="edge9_Node000007_Node000004" class="edge">
<title>Node7&#45;&gt;Node4</title>
<g id="a_edge9_Node000007_Node000004"><a xlink:title=" ">
<path fill="none" stroke="#63b8ff" d="M519.57,-79.64C473.54,-66.37 410.13,-48.08 366.8,-35.58"/>
<polygon fill="#63b8ff" stroke="#63b8ff" points="518.82,-83.07 529.4,-82.48 520.76,-76.35 518.82,-83.07"/>
</a>
</g>
</g>
<!-- Node7&#45;&gt;Node5 -->
<g id="edge10_Node000007_Node000005" class="edge">
<title>Node7&#45;&gt;Node5</title>
<g id="a_edge10_Node000007_Node000005"><a xlink:title=" ">
<path fill="none" stroke="#63b8ff" d="M627.33,-78.97C664.54,-65.74 714.92,-47.83 749.49,-35.54"/>
<polygon fill="#63b8ff" stroke="#63b8ff" points="625.94,-75.75 617.69,-82.39 628.28,-82.34 625.94,-75.75"/>
</a>
</g>
</g>
<!-- Node7&#45;&gt;Node8 -->
<g id="edge11_Node000007_Node000008" class="edge">
<title>Node7&#45;&gt;Node8</title>
<g id="a_edge11_Node000007_Node000008"><a xlink:title=" ">
<path fill="none" stroke="#63b8ff" d="M569.14,-72.78C564.57,-60.53 559.15,-46 555.24,-35.54"/>
<polygon fill="#63b8ff" stroke="#63b8ff" points="565.96,-74.25 572.73,-82.39 572.51,-71.8 565.96,-74.25"/>
</a>
</g>
</g>
</g>
</svg>
