<?xml version="1.0" encoding="UTF-8" standalone="no"?>
<!DOCTYPE svg PUBLIC "-//W3C//DTD SVG 1.1//EN"
 "http://www.w3.org/Graphics/SVG/1.1/DTD/svg11.dtd">
<!-- Generated by graphviz version 2.43.0 (0)
 -->
<!-- Title: main Pages: 1 -->
<svg width="379pt" height="64pt"
 viewBox="0.00 0.00 379.00 64.00" xmlns="http://www.w3.org/2000/svg" xmlns:xlink="http://www.w3.org/1999/xlink">
<g id="graph0" class="graph" transform="scale(1 1) rotate(0) translate(4 60)">
<title>main</title>
<!-- Node1 -->
<g id="Node000001" class="node">
<title>Node1</title>
<g id="a_Node000001"><a xlink:title=" ">
<polygon fill="#999999" stroke="#666666" points="41,-37 0,-37 0,-18 41,-18 41,-37"/>
<text text-anchor="middle" x="20.5" y="-25" font-family="Helvetica,sans-Serif" font-size="10.00">main</text>
</a>
</g>
</g>
<!-- Node2 -->
<g id="Node000002" class="node">
<title>Node2</title>
<g id="a_Node000002"><a xlink:href="classServerState.html#adfa7ef19a4e2fee75a5f4b98277ed151" target="_top" xlink:title=" ">
<polygon fill="white" stroke="#666666" points="198,-56 77,-56 77,-37 198,-37 198,-56"/>
<text text-anchor="middle" x="137.5" y="-44" font-family="Helvetica,sans-Serif" font-size="10.00">ServerState::instance</text>
</a>
</g>
</g>
<!-- Node1&#45;&gt;Node2 -->
<g id="edge1_Node000001_Node000002" class="edge">
<title>Node1&#45;&gt;Node2</title>
<g id="a_edge1_Node000001_Node000002"><a xlink:title=" ">
<path fill="none" stroke="#63b8ff" d="M41.01,-30.72C48.89,-32.03 58.5,-33.61 68.54,-35.27"/>
<polygon fill="#63b8ff" stroke="#63b8ff" points="68.25,-38.77 78.69,-36.95 69.39,-31.87 68.25,-38.77"/>
</a>
</g>
</g>
<!-- Node4 -->
<g id="Node000004" class="node">
<title>Node4</title>
<g id="a_Node000004"><a xlink:href="world_2Server_2Main_8cpp.html#a50d5d2839928a692543aa29e074b7fc7" target="_top" xlink:title=" ">
<polygon fill="white" stroke="#666666" points="171.5,-19 103.5,-19 103.5,0 171.5,0 171.5,-19"/>
<text text-anchor="middle" x="137.5" y="-7" font-family="Helvetica,sans-Serif" font-size="10.00">unix_main</text>
</a>
</g>
</g>
<!-- Node1&#45;&gt;Node4 -->
<g id="edge3_Node000001_Node000004" class="edge">
<title>Node1&#45;&gt;Node4</title>
<g id="a_edge3_Node000001_Node000004"><a xlink:title=" ">
<path fill="none" stroke="#63b8ff" d="M41.01,-24.45C55.32,-22.21 75.33,-19.07 93.33,-16.26"/>
<polygon fill="#63b8ff" stroke="#63b8ff" points="94.02,-19.69 103.36,-14.69 92.93,-12.78 94.02,-19.69"/>
</a>
</g>
</g>
<!-- Node3 -->
<g id="Node000003" class="node">
<title>Node3</title>
<g id="a_Node000003"><a xlink:href="classServerState.html#a1e39d62fb2563a3cc4be478cc5013231" target="_top" xlink:title=" ">
<polygon fill="white" stroke="#666666" points="371,-56 234,-56 234,-37 371,-37 371,-56"/>
<text text-anchor="middle" x="302.5" y="-44" font-family="Helvetica,sans-Serif" font-size="10.00">ServerState::ServerState</text>
</a>
</g>
</g>
<!-- Node2&#45;&gt;Node3 -->
<g id="edge2_Node000002_Node000003" class="edge">
<title>Node2&#45;&gt;Node3</title>
<g id="a_edge2_Node000002_Node000003"><a xlink:title=" ">
<path fill="none" stroke="#63b8ff" d="M198.27,-46.5C206.56,-46.5 215.18,-46.5 223.74,-46.5"/>
<polygon fill="#63b8ff" stroke="#63b8ff" points="223.75,-50 233.75,-46.5 223.75,-43 223.75,-50"/>
</a>
</g>
</g>
</g>
</svg>
