<?xml version="1.0" encoding="UTF-8" standalone="no"?>
<!DOCTYPE svg PUBLIC "-//W3C//DTD SVG 1.1//EN"
 "http://www.w3.org/Graphics/SVG/1.1/DTD/svg11.dtd">
<!-- Generated by graphviz version 2.43.0 (0)
 -->
<!-- Title: vformat Pages: 1 -->
<svg width="254pt" height="64pt"
 viewBox="0.00 0.00 254.00 64.00" xmlns="http://www.w3.org/2000/svg" xmlns:xlink="http://www.w3.org/1999/xlink">
<g id="graph0" class="graph" transform="scale(1 1) rotate(0) translate(4 60)">
<title>vformat</title>
<!-- Node1 -->
<g id="Node000001" class="node">
<title>Node1</title>
<g id="a_Node000001"><a xlink:title=" ">
<polygon fill="#999999" stroke="#666666" points="246,-37 190,-37 190,-18 246,-18 246,-37"/>
<text text-anchor="middle" x="218" y="-25" font-family="Helvetica,sans-Serif" font-size="10.00">vformat</text>
</a>
</g>
</g>
<!-- Node2 -->
<g id="Node000002" class="node">
<title>Node2</title>
<g id="a_Node000002"><a xlink:href="xchar_8h.html#a36cf568d05898d0357160afc70de3e17" target="_top" xlink:title=" ">
<polygon fill="white" stroke="#666666" points="154,-56 104,-56 104,-37 154,-37 154,-56"/>
<text text-anchor="middle" x="129" y="-44" font-family="Helvetica,sans-Serif" font-size="10.00">format</text>
</a>
</g>
</g>
<!-- Node1&#45;&gt;Node2 -->
<g id="edge1_Node000001_Node000002" class="edge">
<title>Node1&#45;&gt;Node2</title>
<g id="a_edge1_Node000001_Node000002"><a xlink:title=" ">
<path fill="none" stroke="#63b8ff" d="M179.93,-35.6C171.19,-37.51 162.08,-39.49 154.08,-41.24"/>
<polygon fill="#63b8ff" stroke="#63b8ff" points="180.93,-38.96 189.95,-33.41 179.43,-32.12 180.93,-38.96"/>
</a>
</g>
</g>
<!-- Node3 -->
<g id="Node000003" class="node">
<title>Node3</title>
<g id="a_Node000003"><a xlink:href="xchar_8h.html#a082005429bfc92924f174a8e1b8619cf" target="_top" xlink:title=" ">
<polygon fill="white" stroke="#666666" points="154,-19 104,-19 104,0 154,0 154,-19"/>
<text text-anchor="middle" x="129" y="-7" font-family="Helvetica,sans-Serif" font-size="10.00">format</text>
</a>
</g>
</g>
<!-- Node1&#45;&gt;Node3 -->
<g id="edge2_Node000001_Node000003" class="edge">
<title>Node1&#45;&gt;Node3</title>
<g id="a_edge2_Node000001_Node000003"><a xlink:title=" ">
<path fill="none" stroke="#63b8ff" d="M179.93,-19.83C171.19,-18.02 162.08,-16.14 154.08,-14.48"/>
<polygon fill="#63b8ff" stroke="#63b8ff" points="179.45,-23.3 189.95,-21.9 180.87,-16.45 179.45,-23.3"/>
</a>
</g>
</g>
<!-- Node4 -->
<g id="Node000004" class="node">
<title>Node4</title>
<g id="a_Node000004"><a xlink:href="xchar_8h.html#ac097a9b8ef6c373be32b7ce1bf329d0b" target="_top" xlink:title=" ">
<polygon fill="white" stroke="#666666" points="68,-19 0,-19 0,0 68,0 68,-19"/>
<text text-anchor="middle" x="34" y="-7" font-family="Helvetica,sans-Serif" font-size="10.00">to_wstring</text>
</a>
</g>
</g>
<!-- Node3&#45;&gt;Node4 -->
<g id="edge3_Node000003_Node000004" class="edge">
<title>Node3&#45;&gt;Node4</title>
<g id="a_edge3_Node000003_Node000004"><a xlink:title=" ">
<path fill="none" stroke="#63b8ff" d="M93.42,-9.5C85.11,-9.5 76.25,-9.5 68.01,-9.5"/>
<polygon fill="#63b8ff" stroke="#63b8ff" points="93.57,-13 103.57,-9.5 93.57,-6 93.57,-13"/>
</a>
</g>
</g>
</g>
</svg>
