<?xml version="1.0" encoding="UTF-8" standalone="no"?>
<!DOCTYPE svg PUBLIC "-//W3C//DTD SVG 1.1//EN"
 "http://www.w3.org/Graphics/SVG/1.1/DTD/svg11.dtd">
<!-- Generated by graphviz version 2.43.0 (0)
 -->
<!-- Title: println Pages: 1 -->
<svg width="1056pt" height="207pt"
 viewBox="0.00 0.00 1056.00 206.76" xmlns="http://www.w3.org/2000/svg" xmlns:xlink="http://www.w3.org/1999/xlink">
<g id="graph0" class="graph" transform="scale(1 1) rotate(0) translate(4 202.76)">
<title>println</title>
<!-- Node1 -->
<g id="Node000001" class="node">
<title>Node1</title>
<g id="a_Node000001"><a xlink:title=" ">
<polygon fill="#999999" stroke="#666666" points="48,-122.76 0,-122.76 0,-103.76 48,-103.76 48,-122.76"/>
<text text-anchor="middle" x="24" y="-110.76" font-family="Helvetica,sans-Serif" font-size="10.00">println</text>
</a>
</g>
</g>
<!-- Node2 -->
<g id="Node000002" class="node">
<title>Node2</title>
<g id="a_Node000002"><a xlink:href="xchar_8h.html#aca7a32e4363230ba92ebd2e429b1e1b6" target="_top" xlink:title=" ">
<polygon fill="white" stroke="#666666" points="123,-122.76 84,-122.76 84,-103.76 123,-103.76 123,-122.76"/>
<text text-anchor="middle" x="103.5" y="-110.76" font-family="Helvetica,sans-Serif" font-size="10.00">print</text>
</a>
</g>
</g>
<!-- Node1&#45;&gt;Node2 -->
<g id="edge1_Node000001_Node000002" class="edge">
<title>Node1&#45;&gt;Node2</title>
<g id="a_edge1_Node000001_Node000002"><a xlink:title=" ">
<path fill="none" stroke="#63b8ff" d="M48.25,-113.26C56.28,-113.26 65.37,-113.26 73.78,-113.26"/>
<polygon fill="#63b8ff" stroke="#63b8ff" points="73.94,-116.76 83.94,-113.26 73.94,-109.76 73.94,-116.76"/>
</a>
</g>
</g>
<!-- Node3 -->
<g id="Node000003" class="node">
<title>Node3</title>
<g id="a_Node000003"><a xlink:href="xchar_8h.html#ad59e14d924bf2fe1d17939ad9d8b8d4a" target="_top" xlink:title=" ">
<polygon fill="white" stroke="#666666" points="204,-122.76 159,-122.76 159,-103.76 204,-103.76 204,-122.76"/>
<text text-anchor="middle" x="181.5" y="-110.76" font-family="Helvetica,sans-Serif" font-size="10.00">vprint</text>
</a>
</g>
</g>
<!-- Node2&#45;&gt;Node3 -->
<g id="edge2_Node000002_Node000003" class="edge">
<title>Node2&#45;&gt;Node3</title>
<g id="a_edge2_Node000002_Node000003"><a xlink:title=" ">
<path fill="none" stroke="#63b8ff" d="M123.29,-113.26C130.97,-113.26 140.09,-113.26 148.75,-113.26"/>
<polygon fill="#63b8ff" stroke="#63b8ff" points="148.97,-116.76 158.97,-113.26 148.97,-109.76 148.97,-116.76"/>
</a>
</g>
</g>
<!-- Node4 -->
<g id="Node000004" class="node">
<title>Node4</title>
<g id="a_Node000004"><a xlink:href="fmt_2include_2fmt_2format_8h.html#a0558467fc6b6aa30ea74d60aafdf7821" target="_top" xlink:title=" ">
<polygon fill="white" stroke="#666666" points="321,-141.76 240,-141.76 240,-122.76 321,-122.76 321,-141.76"/>
<text text-anchor="middle" x="280.5" y="-129.76" font-family="Helvetica,sans-Serif" font-size="10.00">system_error</text>
</a>
</g>
</g>
<!-- Node3&#45;&gt;Node4 -->
<g id="edge3_Node000003_Node000004" class="edge">
<title>Node3&#45;&gt;Node4</title>
<g id="a_edge3_Node000003_Node000004"><a xlink:title=" ">
<path fill="none" stroke="#63b8ff" d="M204.03,-117.48C211.73,-118.99 220.77,-120.76 229.86,-122.54"/>
<polygon fill="#63b8ff" stroke="#63b8ff" points="229.2,-125.98 239.69,-124.46 230.55,-119.11 229.2,-125.98"/>
</a>
</g>
</g>
<!-- Node8 -->
<g id="Node000008" class="node">
<title>Node8</title>
<g id="a_Node000008"><a xlink:href="namespacedetail.html#acffc3be9eb2c40259d2efb9cd16e6656" target="_top" xlink:title=" ">
<polygon fill="white" stroke="#666666" points="676,-103.76 572,-103.76 572,-84.76 676,-84.76 676,-103.76"/>
<text text-anchor="middle" x="624" y="-91.76" font-family="Helvetica,sans-Serif" font-size="10.00">detail::vformat_to</text>
</a>
</g>
</g>
<!-- Node3&#45;&gt;Node8 -->
<g id="edge18_Node000003_Node000008" class="edge">
<title>Node3&#45;&gt;Node8</title>
<g id="a_edge18_Node000003_Node000008"><a xlink:title=" ">
<path fill="none" stroke="#63b8ff" d="M204.04,-112.33C268.52,-109.55 461.68,-101.22 561.61,-96.91"/>
<polygon fill="#63b8ff" stroke="#63b8ff" points="562.02,-100.4 571.86,-96.47 561.72,-93.4 562.02,-100.4"/>
</a>
</g>
</g>
<!-- Node5 -->
<g id="Node000005" class="node">
<title>Node5</title>
<g id="a_Node000005"><a xlink:href="format-inl_8h.html#ab41bf8cae80639f211595a96bc63c343" target="_top" xlink:title=" ">
<polygon fill="white" stroke="#666666" points="444,-141.76 357,-141.76 357,-122.76 444,-122.76 444,-141.76"/>
<text text-anchor="middle" x="400.5" y="-129.76" font-family="Helvetica,sans-Serif" font-size="10.00">vsystem_error</text>
</a>
</g>
</g>
<!-- Node4&#45;&gt;Node5 -->
<g id="edge4_Node000004_Node000005" class="edge">
<title>Node4&#45;&gt;Node5</title>
<g id="a_edge4_Node000004_Node000005"><a xlink:title=" ">
<path fill="none" stroke="#63b8ff" d="M321.12,-132.26C329.4,-132.26 338.25,-132.26 346.91,-132.26"/>
<polygon fill="#63b8ff" stroke="#63b8ff" points="346.95,-135.76 356.95,-132.26 346.95,-128.76 346.95,-135.76"/>
</a>
</g>
</g>
<!-- Node6 -->
<g id="Node000006" class="node">
<title>Node6</title>
<g id="a_Node000006"><a xlink:href="format-inl_8h.html#a7d363bad28ecb7c5fda462edcafa09cb" target="_top" xlink:title=" ">
<polygon fill="white" stroke="#666666" points="536,-141.76 480,-141.76 480,-122.76 536,-122.76 536,-141.76"/>
<text text-anchor="middle" x="508" y="-129.76" font-family="Helvetica,sans-Serif" font-size="10.00">vformat</text>
</a>
</g>
</g>
<!-- Node5&#45;&gt;Node6 -->
<g id="edge5_Node000005_Node000006" class="edge">
<title>Node5&#45;&gt;Node6</title>
<g id="a_edge5_Node000005_Node000006"><a xlink:title=" ">
<path fill="none" stroke="#63b8ff" d="M444.11,-132.26C452.55,-132.26 461.36,-132.26 469.61,-132.26"/>
<polygon fill="#63b8ff" stroke="#63b8ff" points="469.7,-135.76 479.7,-132.26 469.7,-128.76 469.7,-135.76"/>
</a>
</g>
</g>
<!-- Node7 -->
<g id="Node000007" class="node">
<title>Node7</title>
<g id="a_Node000007"><a xlink:href="fmt_2include_2fmt_2format_8h.html#aa1899efcee92a5f5ca77b11423b256c5" target="_top" xlink:title=" ">
<polygon fill="white" stroke="#666666" points="653.5,-158.76 594.5,-158.76 594.5,-139.76 653.5,-139.76 653.5,-158.76"/>
<text text-anchor="middle" x="624" y="-146.76" font-family="Helvetica,sans-Serif" font-size="10.00">to_string</text>
</a>
</g>
</g>
<!-- Node6&#45;&gt;Node7 -->
<g id="edge6_Node000006_Node000007" class="edge">
<title>Node6&#45;&gt;Node7</title>
<g id="a_edge6_Node000006_Node000007"><a xlink:title=" ">
<path fill="none" stroke="#63b8ff" d="M536.02,-136.29C550.38,-138.43 568.3,-141.11 584.14,-143.47"/>
<polygon fill="#63b8ff" stroke="#63b8ff" points="583.78,-146.95 594.18,-144.96 584.81,-140.03 583.78,-146.95"/>
</a>
</g>
</g>
<!-- Node6&#45;&gt;Node8 -->
<g id="edge7_Node000006_Node000008" class="edge">
<title>Node6&#45;&gt;Node8</title>
<g id="a_edge7_Node000006_Node000008"><a xlink:title=" ">
<path fill="none" stroke="#63b8ff" d="M536.02,-123.26C550.52,-118.42 568.64,-112.38 584.59,-107.07"/>
<polygon fill="#63b8ff" stroke="#63b8ff" points="585.8,-110.35 594.18,-103.87 583.59,-103.71 585.8,-110.35"/>
</a>
</g>
</g>
<!-- Node8&#45;&gt;Node8 -->
<g id="edge17_Node000008_Node000008" class="edge">
<title>Node8&#45;&gt;Node8</title>
<g id="a_edge17_Node000008_Node000008"><a xlink:title=" ">
<path fill="none" stroke="#63b8ff" d="M606.12,-103.84C597.42,-112.5 603.38,-121.76 624,-121.76 636.89,-121.76 644.05,-118.14 645.48,-113.32"/>
<polygon fill="#63b8ff" stroke="#63b8ff" points="648.7,-111.95 641.88,-103.84 642.16,-114.44 648.7,-111.95"/>
</a>
</g>
</g>
<!-- Node9 -->
<g id="Node000009" class="node">
<title>Node9</title>
<g id="a_Node000009"><a xlink:href="classtext__style.html#af76917d3bb69bc710dd92da079222a5b" target="_top" xlink:title=" ">
<polygon fill="white" stroke="#666666" points="861,-198.76 712,-198.76 712,-179.76 861,-179.76 861,-198.76"/>
<text text-anchor="middle" x="786.5" y="-186.76" font-family="Helvetica,sans-Serif" font-size="10.00">text_style::get_background</text>
</a>
</g>
</g>
<!-- Node8&#45;&gt;Node9 -->
<g id="edge8_Node000008_Node000009" class="edge">
<title>Node8&#45;&gt;Node9</title>
<g id="a_edge8_Node000008_Node000009"><a xlink:title=" ">
<path fill="none" stroke="#63b8ff" d="M639.22,-103.84C649.66,-111.05 664.04,-121.35 676,-131.26 692.94,-145.31 693.08,-154.02 712,-165.26 719.38,-169.65 727.66,-173.34 735.93,-176.41"/>
<polygon fill="#63b8ff" stroke="#63b8ff" points="734.99,-179.79 745.59,-179.74 737.27,-173.17 734.99,-179.79"/>
</a>
</g>
</g>
<!-- Node10 -->
<g id="Node000010" class="node">
<title>Node10</title>
<g id="a_Node000010"><a xlink:href="classtext__style.html#a37356f14e6337463dbe1fc03c90c57c6" target="_top" xlink:title=" ">
<polygon fill="white" stroke="#666666" points="1048,-179.76 897,-179.76 897,-160.76 1048,-160.76 1048,-179.76"/>
<text text-anchor="middle" x="972.5" y="-167.76" font-family="Helvetica,sans-Serif" font-size="10.00">text_style::has_background</text>
</a>
</g>
</g>
<!-- Node8&#45;&gt;Node10 -->
<g id="edge14_Node000008_Node000010" class="edge">
<title>Node8&#45;&gt;Node10</title>
<g id="a_edge14_Node000008_Node000010"><a xlink:title=" ">
<path fill="none" stroke="#63b8ff" d="M643.14,-103.89C660.38,-112.63 687.28,-125.19 712,-132.26 769.15,-148.61 835.49,-158.17 886.8,-163.61"/>
<polygon fill="#63b8ff" stroke="#63b8ff" points="886.54,-167.1 896.85,-164.64 887.26,-160.14 886.54,-167.1"/>
</a>
</g>
</g>
<!-- Node11 -->
<g id="Node000011" class="node">
<title>Node11</title>
<g id="a_Node000011"><a xlink:href="classtext__style.html#a3e2d1c622ff4c3a1855ac09214a21506" target="_top" xlink:title=" ">
<polygon fill="white" stroke="#666666" points="856.5,-122.76 716.5,-122.76 716.5,-103.76 856.5,-103.76 856.5,-122.76"/>
<text text-anchor="middle" x="786.5" y="-110.76" font-family="Helvetica,sans-Serif" font-size="10.00">text_style::get_emphasis</text>
</a>
</g>
</g>
<!-- Node8&#45;&gt;Node11 -->
<g id="edge10_Node000008_Node000011" class="edge">
<title>Node8&#45;&gt;Node11</title>
<g id="a_edge10_Node000008_Node000011"><a xlink:title=" ">
<path fill="none" stroke="#63b8ff" d="M676.22,-100.33C685.79,-101.46 695.99,-102.67 706.17,-103.87"/>
<polygon fill="#63b8ff" stroke="#63b8ff" points="705.98,-107.37 716.32,-105.07 706.8,-100.42 705.98,-107.37"/>
</a>
</g>
</g>
<!-- Node12 -->
<g id="Node000012" class="node">
<title>Node12</title>
<g id="a_Node000012"><a xlink:href="classtext__style.html#abb81f43acce098a9bedef0113b84f20a" target="_top" xlink:title=" ">
<polygon fill="white" stroke="#666666" points="1043,-103.76 902,-103.76 902,-84.76 1043,-84.76 1043,-103.76"/>
<text text-anchor="middle" x="972.5" y="-91.76" font-family="Helvetica,sans-Serif" font-size="10.00">text_style::has_emphasis</text>
</a>
</g>
</g>
<!-- Node8&#45;&gt;Node12 -->
<g id="edge15_Node000008_Node000012" class="edge">
<title>Node8&#45;&gt;Node12</title>
<g id="a_edge15_Node000008_Node000012"><a xlink:title=" ">
<path fill="none" stroke="#63b8ff" d="M676.13,-94.26C732.98,-94.26 825.53,-94.26 891.88,-94.26"/>
<polygon fill="#63b8ff" stroke="#63b8ff" points="891.89,-97.76 901.89,-94.26 891.89,-90.76 891.89,-97.76"/>
</a>
</g>
</g>
<!-- Node13 -->
<g id="Node000013" class="node">
<title>Node13</title>
<g id="a_Node000013"><a xlink:href="classtext__style.html#aa60e11871525f3f612ce1f6ed5a30477" target="_top" xlink:title=" ">
<polygon fill="white" stroke="#666666" points="859.5,-46.76 713.5,-46.76 713.5,-27.76 859.5,-27.76 859.5,-46.76"/>
<text text-anchor="middle" x="786.5" y="-34.76" font-family="Helvetica,sans-Serif" font-size="10.00">text_style::get_foreground</text>
</a>
</g>
</g>
<!-- Node8&#45;&gt;Node13 -->
<g id="edge12_Node000008_Node000013" class="edge">
<title>Node8&#45;&gt;Node13</title>
<g id="a_edge12_Node000008_Node000013"><a xlink:title=" ">
<path fill="none" stroke="#63b8ff" d="M649.26,-84.71C666.65,-77.95 690.67,-68.78 712,-61.26 722.76,-57.47 734.47,-53.55 745.33,-50"/>
<polygon fill="#63b8ff" stroke="#63b8ff" points="746.56,-53.28 755,-46.87 744.4,-46.62 746.56,-53.28"/>
</a>
</g>
</g>
<!-- Node14 -->
<g id="Node000014" class="node">
<title>Node14</title>
<g id="a_Node000014"><a xlink:href="classtext__style.html#a8d91da8a0cb73c09af5f8fd521e39bce" target="_top" xlink:title=" ">
<polygon fill="white" stroke="#666666" points="1046,-27.76 899,-27.76 899,-8.76 1046,-8.76 1046,-27.76"/>
<text text-anchor="middle" x="972.5" y="-15.76" font-family="Helvetica,sans-Serif" font-size="10.00">text_style::has_foreground</text>
</a>
</g>
</g>
<!-- Node8&#45;&gt;Node14 -->
<g id="edge16_Node000008_Node000014" class="edge">
<title>Node8&#45;&gt;Node14</title>
<g id="a_edge16_Node000008_Node000014"><a xlink:title=" ">
<path fill="none" stroke="#63b8ff" d="M632.04,-84.65C645.36,-67.4 676.14,-31.72 712,-18.26 778.37,6.65 861.2,0.93 915.17,-7.17"/>
<polygon fill="#63b8ff" stroke="#63b8ff" points="914.81,-10.65 925.23,-8.76 915.9,-3.74 914.81,-10.65"/>
</a>
</g>
</g>
<!-- Node9&#45;&gt;Node10 -->
<g id="edge9_Node000009_Node000010" class="edge">
<title>Node9&#45;&gt;Node10</title>
<g id="a_edge9_Node000009_Node000010"><a xlink:title=" ">
<path fill="none" stroke="#63b8ff" d="M861.01,-181.67C869.5,-180.79 878.21,-179.89 886.84,-179"/>
<polygon fill="#63b8ff" stroke="#63b8ff" points="887.31,-182.47 896.9,-177.97 886.59,-175.51 887.31,-182.47"/>
</a>
</g>
</g>
<!-- Node11&#45;&gt;Node12 -->
<g id="edge11_Node000011_Node000012" class="edge">
<title>Node11&#45;&gt;Node12</title>
<g id="a_edge11_Node000011_Node000012"><a xlink:title=" ">
<path fill="none" stroke="#63b8ff" d="M856.54,-106.13C867.97,-104.95 879.92,-103.72 891.59,-102.51"/>
<polygon fill="#63b8ff" stroke="#63b8ff" points="892.18,-105.97 901.77,-101.46 891.46,-99.01 892.18,-105.97"/>
</a>
</g>
</g>
<!-- Node13&#45;&gt;Node14 -->
<g id="edge13_Node000013_Node000014" class="edge">
<title>Node13&#45;&gt;Node14</title>
<g id="a_edge13_Node000013_Node000014"><a xlink:title=" ">
<path fill="none" stroke="#63b8ff" d="M859.69,-29.81C869.26,-28.82 879.12,-27.8 888.85,-26.8"/>
<polygon fill="#63b8ff" stroke="#63b8ff" points="889.32,-30.27 898.91,-25.76 888.6,-23.3 889.32,-30.27"/>
</a>
</g>
</g>
</g>
</svg>
