<?xml version="1.0" encoding="UTF-8" standalone="no"?>
<!DOCTYPE svg PUBLIC "-//W3C//DTD SVG 1.1//EN"
 "http://www.w3.org/Graphics/SVG/1.1/DTD/svg11.dtd">
<!-- Generated by graphviz version 2.43.0 (0)
 -->
<!-- Title: calloc Pages: 1 -->
<!--zoomable 224 -->

<svg id="main" version="1.1" xmlns="http://www.w3.org/2000/svg" xmlns:xlink="http://www.w3.org/1999/xlink" xml:space="preserve" onload="init(evt)">
<style type="text/css"><![CDATA[
.node, .edge {opacity: 0.7;}
.node.selected, .edge.selected {opacity: 1;}
.edge:hover path { stroke: red; }
.edge:hover polygon { stroke: red; fill: red; }
]]></style>

<defs>
  <circle id="rim" cx="0" cy="0" r="7"/>
  <circle id="rim2" cx="0" cy="0" r="3.5"/>
  <g id="zoomPlus">
    <use xlink:href="#rim" fill="#404040"><set attributeName="fill" to="#808080" begin="zoomplus.mouseover" end="zoomplus.mouseout"/></use>
    <path d="M-4,0h8M0,-4v8" fill="none" stroke="white" stroke-width="1.5" pointer-events="none"/>
  </g>
  <g id="zoomMin">
    <use xlink:href="#rim" fill="#404040"><set attributeName="fill" to="#808080" begin="zoomminus.mouseover" end="zoomminus.mouseout"/></use>
    <path d="M-4,0h8" fill="none" stroke="white" stroke-width="1.5" pointer-events="none"/>
  </g>
  <g id="arrowUp" transform="translate(30 24)">
    <use xlink:href="#rim"/>
    <path pointer-events="none" fill="none" stroke="white" stroke-width="1.5" d="M0,-3.0v7 M-2.5,-0.5L0,-3.0L2.5,-0.5"/>
  </g>
  <g id="arrowRight" transform="rotate(90) translate(36 -43)">
    <use xlink:href="#rim"/>
    <path pointer-events="none" fill="none" stroke="white" stroke-width="1.5" d="M0,-3.0v7 M-2.5,-0.5L0,-3.0L2.5,-0.5"/>
  </g>
  <g id="arrowDown" transform="rotate(180) translate(-30 -48)">
    <use xlink:href="#rim"/>
    <path pointer-events="none" fill="none" stroke="white" stroke-width="1.5" d="M0,-3.0v7 M-2.5,-0.5L0,-3.0L2.5,-0.5"/>
  </g>
  <g id="arrowLeft" transform="rotate(270) translate(-36 17)">
    <use xlink:href="#rim"/>
    <path pointer-events="none" fill="none" stroke="white" stroke-width="1.5" d="M0,-3.0v7 M-2.5,-0.5L0,-3.0L2.5,-0.5"/>
  </g>
  <g id="resetDef">
    <use xlink:href="#rim2" fill="#404040"><set attributeName="fill" to="#808080" begin="reset.mouseover" end="reset.mouseout"/></use>
  </g>
</defs>
<script type="application/ecmascript">
var viewWidth = 572;
var viewHeight = 224;
var sectionId = 'dynsection-1';
</script>
<script type="application/ecmascript" xlink:href="svg.min.js"/>
<svg id="graph" class="graph">
<g id="viewport">
<title>calloc</title>
<!-- Node1 -->
<g id="Node000001" class="node">
<title>Node1</title>
<g id="a_Node000001"><a xlink:title=" ">
<polygon fill="#999999" stroke="#666666" points="564,-130 519,-130 519,-111 564,-111 564,-130"/>
<text text-anchor="middle" x="541.5" y="-118" font-family="Helvetica,sans-Serif" font-size="10.00">calloc</text>
</a>
</g>
</g>
<!-- Node2 -->
<g id="Node000002" class="node">
<title>Node2</title>
<g id="a_Node000002"><a xlink:href="mpq_8c.html#a95d01e1984633991a1d1737a71173eb3" target="_top" xlink:title=" ">
<polygon fill="white" stroke="#666666" points="483,-216 357,-216 357,-197 483,-197 483,-216"/>
<text text-anchor="middle" x="420" y="-204" font-family="Helvetica,sans-Serif" font-size="10.00">libmpq__archive_open</text>
</a>
</g>
</g>
<!-- Node1&#45;&gt;Node2 -->
<g id="edge1_Node000001_Node000002" class="edge">
<title>Node1&#45;&gt;Node2</title>
<g id="a_edge1_Node000001_Node000002"><a xlink:title=" ">
<path fill="none" stroke="#63b8ff" d="M529.13,-138.76C518.83,-153.87 502.33,-174.85 483,-187.5 477.16,-191.32 470.51,-194.41 463.79,-196.89"/>
<polygon fill="#63b8ff" stroke="#63b8ff" points="532.17,-140.51 534.72,-130.23 526.31,-136.68 532.17,-140.51"/>
</a>
</g>
</g>
<!-- Node4 -->
<g id="Node000004" class="node">
<title>Node4</title>
<g id="a_Node000004"><a xlink:href="mpq_8c.html#a77c3f31b4d5a94d74cc6f07f1d360a42" target="_top" xlink:title=" ">
<polygon fill="white" stroke="#666666" points="478,-178.5 362,-178.5 362,-148.5 478,-148.5 478,-178.5"/>
<text text-anchor="start" x="370" y="-166.5" font-family="Helvetica,sans-Serif" font-size="10.00">libmpq__block_open</text>
<text text-anchor="middle" x="420" y="-155.5" font-family="Helvetica,sans-Serif" font-size="10.00">_offset</text>
</a>
</g>
</g>
<!-- Node1&#45;&gt;Node4 -->
<g id="edge3_Node000001_Node000004" class="edge">
<title>Node1&#45;&gt;Node4</title>
<g id="a_edge3_Node000001_Node000004"><a xlink:title=" ">
<path fill="none" stroke="#63b8ff" d="M509.1,-131.8C494.94,-136.9 478.01,-142.99 462.79,-148.46"/>
<polygon fill="#63b8ff" stroke="#63b8ff" points="510.64,-134.97 518.86,-128.29 508.27,-128.38 510.64,-134.97"/>
</a>
</g>
</g>
<!-- Node8 -->
<g id="Node000008" class="node">
<title>Node8</title>
<g id="a_Node000008"><a xlink:href="mpq_8c.html#a99127e3017d6b820e0d50649b1d2c4c2" target="_top" xlink:title=" ">
<polygon fill="white" stroke="#666666" points="477,-130 363,-130 363,-111 477,-111 477,-130"/>
<text text-anchor="middle" x="420" y="-118" font-family="Helvetica,sans-Serif" font-size="10.00">libmpq__block_read</text>
</a>
</g>
</g>
<!-- Node1&#45;&gt;Node8 -->
<g id="edge7_Node000001_Node000008" class="edge">
<title>Node1&#45;&gt;Node8</title>
<g id="a_edge7_Node000001_Node000008"><a xlink:title=" ">
<path fill="none" stroke="#63b8ff" d="M508.83,-120.5C499.06,-120.5 487.99,-120.5 477.08,-120.5"/>
<polygon fill="#63b8ff" stroke="#63b8ff" points="508.86,-124 518.86,-120.5 508.86,-117 508.86,-124"/>
</a>
</g>
</g>
<!-- Node9 -->
<g id="Node000009" class="node">
<title>Node9</title>
<g id="a_Node000009"><a xlink:href="crypt__libc_8c.html#a523ef3c89da89468885a2c2442a49ddf" target="_top" xlink:title=" ">
<polygon fill="white" stroke="#666666" points="460.5,-93 379.5,-93 379.5,-74 460.5,-74 460.5,-93"/>
<text text-anchor="middle" x="420" y="-81" font-family="Helvetica,sans-Serif" font-size="10.00">LibTomCalloc</text>
</a>
</g>
</g>
<!-- Node1&#45;&gt;Node9 -->
<g id="edge9_Node000001_Node000009" class="edge">
<title>Node1&#45;&gt;Node9</title>
<g id="a_edge9_Node000001_Node000009"><a xlink:title=" ">
<path fill="none" stroke="#63b8ff" d="M509.34,-110.71C500.8,-108.03 491.55,-105.15 483,-102.5 473,-99.4 462.08,-96.05 452.23,-93.03"/>
<polygon fill="#63b8ff" stroke="#63b8ff" points="508.35,-114.07 518.94,-113.72 510.44,-107.39 508.35,-114.07"/>
</a>
</g>
</g>
<!-- Node10 -->
<g id="Node000010" class="node">
<title>Node10</title>
<g id="a_Node000010"><a xlink:href="StormLib_2src_2zlib_2zutil_8c.html#a41dc53193e9af4588e7bcbe459f4f834" target="_top" xlink:title=" ">
<polygon fill="white" stroke="#666666" points="445,-56 395,-56 395,-37 445,-37 445,-56"/>
<text text-anchor="middle" x="420" y="-44" font-family="Helvetica,sans-Serif" font-size="10.00">zcalloc</text>
</a>
</g>
</g>
<!-- Node1&#45;&gt;Node10 -->
<g id="edge10_Node000001_Node000010" class="edge">
<title>Node1&#45;&gt;Node10</title>
<g id="a_edge10_Node000001_Node000010"><a xlink:title=" ">
<path fill="none" stroke="#63b8ff" d="M526.37,-103.24C515.62,-91.12 499.85,-75.38 483,-65.5 471.35,-58.67 456.99,-54.07 445.04,-51.1"/>
<polygon fill="#63b8ff" stroke="#63b8ff" points="523.8,-105.61 532.96,-110.93 529.12,-101.06 523.8,-105.61"/>
</a>
</g>
</g>
<!-- Node3 -->
<g id="Node000003" class="node">
<title>Node3</title>
<g id="a_Node000003"><a xlink:href="classMPQArchive.html#a58d57322334966ca16a22e52e5198d9f" target="_top" xlink:title=" ">
<polygon fill="white" stroke="#666666" points="321,-216 180,-216 180,-197 321,-197 321,-216"/>
<text text-anchor="middle" x="250.5" y="-204" font-family="Helvetica,sans-Serif" font-size="10.00">MPQArchive::MPQArchive</text>
</a>
</g>
</g>
<!-- Node2&#45;&gt;Node3 -->
<g id="edge2_Node000002_Node000003" class="edge">
<title>Node2&#45;&gt;Node3</title>
<g id="a_edge2_Node000002_Node000003"><a xlink:title=" ">
<path fill="none" stroke="#63b8ff" d="M346.51,-206.5C338.12,-206.5 329.59,-206.5 321.25,-206.5"/>
<polygon fill="#63b8ff" stroke="#63b8ff" points="346.63,-210 356.63,-206.5 346.63,-203 346.63,-210"/>
</a>
</g>
</g>
<!-- Node5 -->
<g id="Node000005" class="node">
<title>Node5</title>
<g id="a_Node000005"><a xlink:href="mpq_8c.html#ad8d42f0114b42767fcfff0736319d1b5" target="_top" xlink:title=" ">
<polygon fill="white" stroke="#666666" points="302,-161 199,-161 199,-142 302,-142 302,-161"/>
<text text-anchor="middle" x="250.5" y="-149" font-family="Helvetica,sans-Serif" font-size="10.00">libmpq__file_read</text>
</a>
</g>
</g>
<!-- Node4&#45;&gt;Node5 -->
<g id="edge4_Node000004_Node000005" class="edge">
<title>Node4&#45;&gt;Node5</title>
<g id="a_edge4_Node000004_Node000005"><a xlink:title=" ">
<path fill="none" stroke="#63b8ff" d="M351.69,-158.68C335.2,-157.5 317.82,-156.25 302.25,-155.14"/>
<polygon fill="#63b8ff" stroke="#63b8ff" points="351.6,-162.18 361.82,-159.4 352.1,-155.2 351.6,-162.18"/>
</a>
</g>
</g>
<!-- Node6 -->
<g id="Node000006" class="node">
<title>Node6</title>
<g id="a_Node000006"><a xlink:href="classMPQArchive.html#ab4c34d6f04ea7c9e65c8eb950e3dd712" target="_top" xlink:title=" ">
<polygon fill="white" stroke="#666666" points="144,-179 0,-179 0,-160 144,-160 144,-179"/>
<text text-anchor="middle" x="72" y="-167" font-family="Helvetica,sans-Serif" font-size="10.00">MPQArchive::GetFileListTo</text>
</a>
</g>
</g>
<!-- Node5&#45;&gt;Node6 -->
<g id="edge5_Node000005_Node000006" class="edge">
<title>Node5&#45;&gt;Node6</title>
<g id="a_edge5_Node000005_Node000006"><a xlink:title=" ">
<path fill="none" stroke="#63b8ff" d="M188.72,-157.7C174.41,-159.16 159.03,-160.73 144.3,-162.23"/>
<polygon fill="#63b8ff" stroke="#63b8ff" points="189.33,-161.15 198.92,-156.66 188.62,-154.19 189.33,-161.15"/>
</a>
</g>
</g>
<!-- Node7 -->
<g id="Node000007" class="node">
<title>Node7</title>
<g id="a_Node000007"><a xlink:href="classMPQFile.html#a52b375817a88514d9215330b20367a0a" target="_top" xlink:title=" ">
<polygon fill="white" stroke="#666666" points="123,-142 21,-142 21,-123 123,-123 123,-142"/>
<text text-anchor="middle" x="72" y="-130" font-family="Helvetica,sans-Serif" font-size="10.00">MPQFile::MPQFile</text>
</a>
</g>
</g>
<!-- Node5&#45;&gt;Node7 -->
<g id="edge6_Node000005_Node000007" class="edge">
<title>Node5&#45;&gt;Node7</title>
<g id="a_edge6_Node000005_Node000007"><a xlink:title=" ">
<path fill="none" stroke="#63b8ff" d="M188.96,-144.98C167.56,-142.68 143.74,-140.11 123.28,-137.91"/>
<polygon fill="#63b8ff" stroke="#63b8ff" points="188.6,-148.46 198.92,-146.06 189.35,-141.51 188.6,-148.46"/>
</a>
</g>
</g>
<!-- Node8&#45;&gt;Node5 -->
<g id="edge8_Node000008_Node000005" class="edge">
<title>Node8&#45;&gt;Node5</title>
<g id="a_edge8_Node000008_Node000005"><a xlink:title=" ">
<path fill="none" stroke="#63b8ff" d="M357.44,-131.89C339.23,-135.26 319.52,-138.91 302.09,-142.14"/>
<polygon fill="#63b8ff" stroke="#63b8ff" points="358.18,-135.32 367.38,-130.05 356.91,-128.43 358.18,-135.32"/>
</a>
</g>
</g>
<!-- Node11 -->
<g id="Node000011" class="node">
<title>Node11</title>
<g id="a_Node000011"><a xlink:href="StormLib_2src_2zlib_2deflate_8c.html#ae501d2862c68d17b909d6f1c9264815c" target="_top" xlink:title=" ">
<polygon fill="white" stroke="#666666" points="289,-93 212,-93 212,-74 289,-74 289,-93"/>
<text text-anchor="middle" x="250.5" y="-81" font-family="Helvetica,sans-Serif" font-size="10.00">deflateInit2_</text>
</a>
</g>
</g>
<!-- Node10&#45;&gt;Node11 -->
<g id="edge11_Node000010_Node000011" class="edge">
<title>Node10&#45;&gt;Node11</title>
<g id="a_edge11_Node000010_Node000011"><a xlink:title=" ">
<path fill="none" stroke="#63b8ff" d="M384.6,-54.1C356.83,-60.23 317.82,-68.85 289.2,-75.17"/>
<polygon fill="#63b8ff" stroke="#63b8ff" points="385.63,-57.45 394.64,-51.88 384.12,-50.62 385.63,-57.45"/>
</a>
</g>
</g>
<!-- Node13 -->
<g id="Node000013" class="node">
<title>Node13</title>
<g id="a_Node000013"><a xlink:href="infback_8c.html#a00558519755e3bab13ee6f8378973913" target="_top" xlink:title=" ">
<polygon fill="white" stroke="#666666" points="296.5,-56 204.5,-56 204.5,-37 296.5,-37 296.5,-56"/>
<text text-anchor="middle" x="250.5" y="-44" font-family="Helvetica,sans-Serif" font-size="10.00">inflateBackInit_</text>
</a>
</g>
</g>
<!-- Node10&#45;&gt;Node13 -->
<g id="edge13_Node000010_Node000013" class="edge">
<title>Node10&#45;&gt;Node13</title>
<g id="a_edge13_Node000010_Node000013"><a xlink:title=" ">
<path fill="none" stroke="#63b8ff" d="M384.38,-46.5C359,-46.5 324.29,-46.5 296.72,-46.5"/>
<polygon fill="#63b8ff" stroke="#63b8ff" points="384.64,-50 394.64,-46.5 384.64,-43 384.64,-50"/>
</a>
</g>
</g>
<!-- Node14 -->
<g id="Node000014" class="node">
<title>Node14</title>
<g id="a_Node000014"><a xlink:href="StormLib_2src_2zlib_2inflate_8c.html#aa87e80daa481d931b2d4d414769d432a" target="_top" xlink:title=" ">
<polygon fill="white" stroke="#666666" points="287.5,-19 213.5,-19 213.5,0 287.5,0 287.5,-19"/>
<text text-anchor="middle" x="250.5" y="-7" font-family="Helvetica,sans-Serif" font-size="10.00">inflateInit2_</text>
</a>
</g>
</g>
<!-- Node10&#45;&gt;Node14 -->
<g id="edge14_Node000010_Node000014" class="edge">
<title>Node10&#45;&gt;Node14</title>
<g id="a_edge14_Node000010_Node000014"><a xlink:title=" ">
<path fill="none" stroke="#63b8ff" d="M384.8,-38.94C356.51,-32.7 316.44,-23.84 287.63,-17.48"/>
<polygon fill="#63b8ff" stroke="#63b8ff" points="384.12,-42.38 394.64,-41.12 385.63,-35.55 384.12,-42.38"/>
</a>
</g>
</g>
<!-- Node12 -->
<g id="Node000012" class="node">
<title>Node12</title>
<g id="a_Node000012"><a xlink:href="StormLib_2src_2zlib_2deflate_8c.html#a0e6601591faa9573f27340153b0f3296" target="_top" xlink:title=" ">
<polygon fill="white" stroke="#666666" points="107.5,-93 36.5,-93 36.5,-74 107.5,-74 107.5,-93"/>
<text text-anchor="middle" x="72" y="-81" font-family="Helvetica,sans-Serif" font-size="10.00">deflateInit_</text>
</a>
</g>
</g>
<!-- Node11&#45;&gt;Node12 -->
<g id="edge12_Node000011_Node000012" class="edge">
<title>Node11&#45;&gt;Node12</title>
<g id="a_edge12_Node000011_Node000012"><a xlink:title=" ">
<path fill="none" stroke="#63b8ff" d="M201.48,-83.5C171.76,-83.5 134.3,-83.5 107.51,-83.5"/>
<polygon fill="#63b8ff" stroke="#63b8ff" points="201.64,-87 211.64,-83.5 201.64,-80 201.64,-87"/>
</a>
</g>
</g>
<!-- Node15 -->
<g id="Node000015" class="node">
<title>Node15</title>
<g id="a_Node000015"><a xlink:href="StormLib_2src_2zlib_2inflate_8c.html#aed01e9084fe1ed4d8808bbcf525dfe63" target="_top" xlink:title=" ">
<polygon fill="white" stroke="#666666" points="106,-19 38,-19 38,0 106,0 106,-19"/>
<text text-anchor="middle" x="72" y="-7" font-family="Helvetica,sans-Serif" font-size="10.00">inflateInit_</text>
</a>
</g>
</g>
<!-- Node14&#45;&gt;Node15 -->
<g id="edge15_Node000014_Node000015" class="edge">
<title>Node14&#45;&gt;Node15</title>
<g id="a_edge15_Node000014_Node000015"><a xlink:title=" ">
<path fill="none" stroke="#63b8ff" d="M202.97,-9.5C172.51,-9.5 133.43,-9.5 106.11,-9.5"/>
<polygon fill="#63b8ff" stroke="#63b8ff" points="203.36,-13 213.36,-9.5 203.36,-6 203.36,-13"/>
</a>
</g>
</g>
</g>
</svg>

<g id="navigator" transform="translate(0 0)" fill="#404254">
  <rect fill="#f2f5e9" fill-opacity="0.5" stroke="#606060" stroke-width=".5" x="0" y="0" width="60" height="60"/>
  <use id="zoomplus" xlink:href="#zoomPlus" x="17" y="9" onmousedown="handleZoom(evt,'in')"/>
  <use id="zoomminus" xlink:href="#zoomMin" x="42" y="9" onmousedown="handleZoom(evt,'out')"/>
  <use id="reset" xlink:href="#resetDef" x="30" y="36" onmousedown="handleReset()"/>
   <use id="arrowup" xlink:href="#arrowUp" x="0" y="0" onmousedown="handlePan(0,-1)"/>
  <use id="arrowright" xlink:href="#arrowRight" x="0" y="0" onmousedown="handlePan(1,0)"/>
  <use id="arrowdown" xlink:href="#arrowDown" x="0" y="0" onmousedown="handlePan(0,1)"/>
  <use id="arrowleft" xlink:href="#arrowLeft" x="0" y="0" onmousedown="handlePan(-1,0)"/>
</g>
<svg viewBox="0 0 15 15" width="100%" height="30px" preserveAspectRatio="xMaxYMin meet">
 <g id="arrow_out" transform="scale(0.3 0.3)">
  <a xlink:href="zlib_2zutil_8c_a0659e28c2a1d3b0b2f8c3564c6645f9c_icgraph_org.svg" target="_base">
   <rect id="button" ry="5" rx="5" y="6" x="6" height="38" width="38"
        fill="#f2f5e9" fill-opacity="0.5" stroke="#606060" stroke-width="1.0"/>
   <path id="arrow"
     d="M 11.500037,31.436501 C 11.940474,20.09759 22.043105,11.32322 32.158766,21.979434 L 37.068811,17.246167 C 37.068811,17.246167 37.088388,32 37.088388,32 L 22.160133,31.978069 C 22.160133,31.978069 26.997745,27.140456 26.997745,27.140456 C 18.528582,18.264221 13.291696,25.230495 11.500037,31.436501 z"
     style="fill:#404040;"/>
  </a>
 </g>
</svg>

<style type='text/css'>
<![CDATA[
[data-mouse-over-selected='false'] { opacity: 0.7; }
[data-mouse-over-selected='true']  { opacity: 1.0; }
]]>
</style>
<script type="application/ecmascript"><![CDATA[
document.addEventListener('DOMContentLoaded', (event) => {
  highlightEdges();
  highlightAdjacentNodes();
});
]]></script>
</svg>
