<?xml version="1.0" encoding="UTF-8" standalone="no"?>
<!DOCTYPE svg PUBLIC "-//W3C//DTD SVG 1.1//EN"
 "http://www.w3.org/Graphics/SVG/1.1/DTD/svg11.dtd">
<!-- Generated by graphviz version 2.43.0 (0)
 -->
<!-- Title: slide_hash Pages: 1 -->
<svg width="198pt" height="64pt"
 viewBox="0.00 0.00 198.00 64.00" xmlns="http://www.w3.org/2000/svg" xmlns:xlink="http://www.w3.org/1999/xlink">
<g id="graph0" class="graph" transform="scale(1 1) rotate(0) translate(4 60)">
<title>slide_hash</title>
<!-- Node1 -->
<g id="Node000001" class="node">
<title>Node1</title>
<g id="a_Node000001"><a xlink:title=" ">
<polygon fill="#999999" stroke="#666666" points="190,-37 122,-37 122,-18 190,-18 190,-37"/>
<text text-anchor="middle" x="156" y="-25" font-family="Helvetica,sans-Serif" font-size="10.00">slide_hash</text>
</a>
</g>
</g>
<!-- Node2 -->
<g id="Node000002" class="node">
<title>Node2</title>
<g id="a_Node000002"><a xlink:href="zlib_2deflate_8c.html#a6be3d26b7e317aa4db6c7870b1911d4d" target="_top" xlink:title=" ">
<polygon fill="white" stroke="#666666" points="86,-56 0,-56 0,-37 86,-37 86,-56"/>
<text text-anchor="middle" x="43" y="-44" font-family="Helvetica,sans-Serif" font-size="10.00">deflateParams</text>
</a>
</g>
</g>
<!-- Node1&#45;&gt;Node2 -->
<g id="edge1_Node000001_Node000002" class="edge">
<title>Node1&#45;&gt;Node2</title>
<g id="a_edge1_Node000001_Node000002"><a xlink:title=" ">
<path fill="none" stroke="#63b8ff" d="M111.93,-34.87C103.46,-36.32 94.59,-37.84 86.15,-39.28"/>
<polygon fill="#63b8ff" stroke="#63b8ff" points="112.73,-38.29 122,-33.15 111.55,-31.39 112.73,-38.29"/>
</a>
</g>
</g>
<!-- Node3 -->
<g id="Node000003" class="node">
<title>Node3</title>
<g id="a_Node000003"><a xlink:href="zlib_2deflate_8c.html#a6cf3c43817cac5f5c422e94b2a57ea49" target="_top" xlink:title=" ">
<polygon fill="white" stroke="#666666" points="78.5,-19 7.5,-19 7.5,0 78.5,0 78.5,-19"/>
<text text-anchor="middle" x="43" y="-7" font-family="Helvetica,sans-Serif" font-size="10.00">fill_window</text>
</a>
</g>
</g>
<!-- Node1&#45;&gt;Node3 -->
<g id="edge2_Node000001_Node000003" class="edge">
<title>Node1&#45;&gt;Node3</title>
<g id="a_edge2_Node000001_Node000003"><a xlink:title=" ">
<path fill="none" stroke="#63b8ff" d="M112.07,-20.54C100.99,-18.74 89.21,-16.83 78.61,-15.11"/>
<polygon fill="#63b8ff" stroke="#63b8ff" points="111.57,-24 122,-22.15 112.69,-17.09 111.57,-24"/>
</a>
</g>
</g>
</g>
</svg>
