<?xml version="1.0" encoding="UTF-8" standalone="no"?>
<!DOCTYPE svg PUBLIC "-//W3C//DTD SVG 1.1//EN"
 "http://www.w3.org/Graphics/SVG/1.1/DTD/svg11.dtd">
<!-- Generated by graphviz version 2.43.0 (0)
 -->
<!-- Title: inflateInit_ Pages: 1 -->
<svg width="414pt" height="212pt"
 viewBox="0.00 0.00 414.00 212.00" xmlns="http://www.w3.org/2000/svg" xmlns:xlink="http://www.w3.org/1999/xlink">

<svg id="main" version="1.1" xmlns="http://www.w3.org/2000/svg" xmlns:xlink="http://www.w3.org/1999/xlink" xml:space="preserve" onload="init(evt)">
<style type="text/css"><![CDATA[
.node, .edge {opacity: 0.7;}
.node.selected, .edge.selected {opacity: 1;}
.edge:hover path { stroke: red; }
.edge:hover polygon { stroke: red; fill: red; }
]]></style>
<script type="application/ecmascript" xlink:href="svg.min.js"/>
<svg id="graph" class="graph">
<g id="graph0" class="graph" transform="scale(1 1) rotate(0) translate(4 208)">
<title>inflateInit_</title>
<!-- Node1 -->
<g id="Node000001" class="node">
<title>Node1</title>
<g id="a_Node000001"><a xlink:title=" ">
<polygon fill="#999999" stroke="#666666" points="68,-112 0,-112 0,-93 68,-93 68,-112"/>
<text text-anchor="middle" x="34" y="-100" font-family="Helvetica,sans-Serif" font-size="10.00">inflateInit_</text>
</a>
</g>
</g>
<!-- Node2 -->
<g id="Node000002" class="node">
<title>Node2</title>
<g id="a_Node000002"><a xlink:href="StormLib_2src_2zlib_2inflate_8c.html#aa87e80daa481d931b2d4d414769d432a" target="_top" xlink:title=" ">
<polygon fill="white" stroke="#666666" points="178,-112 104,-112 104,-93 178,-93 178,-112"/>
<text text-anchor="middle" x="141" y="-100" font-family="Helvetica,sans-Serif" font-size="10.00">inflateInit2_</text>
</a>
</g>
</g>
<!-- Node1&#45;&gt;Node2 -->
<g id="edge1_Node000001_Node000002" class="edge">
<title>Node1&#45;&gt;Node2</title>
<g id="a_edge1_Node000001_Node000002"><a xlink:title=" ">
<path fill="none" stroke="#63b8ff" d="M68.22,-102.5C76.25,-102.5 84.98,-102.5 93.5,-102.5"/>
<polygon fill="#63b8ff" stroke="#63b8ff" points="93.72,-106 103.72,-102.5 93.72,-99 93.72,-106"/>
</a>
</g>
</g>
<!-- Node3 -->
<g id="Node000003" class="node">
<title>Node3</title>
<g id="a_Node000003"><a xlink:href="StormLib_2src_2zlib_2inflate_8c.html#af5a145c15cfb580ef24ce3fc4d292a02" target="_top" xlink:title=" ">
<polygon fill="white" stroke="#666666" points="295,-167 214,-167 214,-148 295,-148 295,-167"/>
<text text-anchor="middle" x="254.5" y="-155" font-family="Helvetica,sans-Serif" font-size="10.00">inflateReset2</text>
</a>
</g>
</g>
<!-- Node2&#45;&gt;Node3 -->
<g id="edge2_Node000002_Node000003" class="edge">
<title>Node2&#45;&gt;Node3</title>
<g id="a_edge2_Node000002_Node000003"><a xlink:title=" ">
<path fill="none" stroke="#63b8ff" d="M161.42,-112.08C178.9,-120.7 204.82,-133.49 224.71,-143.3"/>
<polygon fill="#63b8ff" stroke="#63b8ff" points="223.41,-146.56 233.93,-147.84 226.51,-140.28 223.41,-146.56"/>
</a>
</g>
</g>
<!-- Node6 -->
<g id="Node000006" class="node">
<title>Node6</title>
<g id="a_Node000006"><a xlink:href="StormLib_2src_2zlib_2zutil_8c.html#a41dc53193e9af4588e7bcbe459f4f834" target="_top" xlink:title=" ">
<polygon fill="white" stroke="#666666" points="279.5,-112 229.5,-112 229.5,-93 279.5,-93 279.5,-112"/>
<text text-anchor="middle" x="254.5" y="-100" font-family="Helvetica,sans-Serif" font-size="10.00">zcalloc</text>
</a>
</g>
</g>
<!-- Node2&#45;&gt;Node6 -->
<g id="edge5_Node000002_Node000006" class="edge">
<title>Node2&#45;&gt;Node6</title>
<g id="a_edge5_Node000002_Node000006"><a xlink:title=" ">
<path fill="none" stroke="#63b8ff" d="M178.2,-102.5C191.32,-102.5 206.08,-102.5 219.04,-102.5"/>
<polygon fill="#63b8ff" stroke="#63b8ff" points="219.43,-106 229.43,-102.5 219.43,-99 219.43,-106"/>
</a>
</g>
</g>
<!-- Node9 -->
<g id="Node000009" class="node">
<title>Node9</title>
<g id="a_Node000009"><a xlink:href="StormLib_2src_2zlib_2zutil_8c.html#a03a8230ad4ec43e8916fa91aad05bfd3" target="_top" xlink:title=" ">
<polygon fill="white" stroke="#666666" points="278,-56 231,-56 231,-37 278,-37 278,-56"/>
<text text-anchor="middle" x="254.5" y="-44" font-family="Helvetica,sans-Serif" font-size="10.00">zcfree</text>
</a>
</g>
</g>
<!-- Node2&#45;&gt;Node9 -->
<g id="edge8_Node000002_Node000009" class="edge">
<title>Node2&#45;&gt;Node9</title>
<g id="a_edge8_Node000002_Node000009"><a xlink:title=" ">
<path fill="none" stroke="#63b8ff" d="M161.17,-92.87C178.91,-83.96 205.49,-70.61 225.58,-60.52"/>
<polygon fill="#63b8ff" stroke="#63b8ff" points="227.22,-63.62 234.58,-56 224.08,-57.36 227.22,-63.62"/>
</a>
</g>
</g>
<!-- Node4 -->
<g id="Node000004" class="node">
<title>Node4</title>
<g id="a_Node000004"><a xlink:href="StormLib_2src_2zlib_2inflate_8c.html#adb02c2100f9179f4075b220395b1553c" target="_top" xlink:title=" ">
<polygon fill="white" stroke="#666666" points="406,-204 331,-204 331,-185 406,-185 406,-204"/>
<text text-anchor="middle" x="368.5" y="-192" font-family="Helvetica,sans-Serif" font-size="10.00">inflateReset</text>
</a>
</g>
</g>
<!-- Node3&#45;&gt;Node4 -->
<g id="edge3_Node000003_Node000004" class="edge">
<title>Node3&#45;&gt;Node4</title>
<g id="a_edge3_Node000003_Node000004"><a xlink:title=" ">
<path fill="none" stroke="#63b8ff" d="M284.34,-167.03C297.82,-171.48 314.08,-176.85 328.62,-181.66"/>
<polygon fill="#63b8ff" stroke="#63b8ff" points="327.77,-185.06 338.37,-184.88 329.97,-178.42 327.77,-185.06"/>
</a>
</g>
</g>
<!-- Node5 -->
<g id="Node000005" class="node">
<title>Node5</title>
<g id="a_Node000005"><a xlink:href="ChatCommand_8hpp.html#a409c3a1858661f60bd87641edc1c50b8" target="_top" xlink:title=" ">
<polygon fill="white" stroke="#666666" points="389,-167 348,-167 348,-148 389,-148 389,-167"/>
<text text-anchor="middle" x="368.5" y="-155" font-family="Helvetica,sans-Serif" font-size="10.00">wrap</text>
</a>
</g>
</g>
<!-- Node3&#45;&gt;Node5 -->
<g id="edge4_Node000003_Node000005" class="edge">
<title>Node3&#45;&gt;Node5</title>
<g id="a_edge4_Node000003_Node000005"><a xlink:title=" ">
<path fill="none" stroke="#63b8ff" d="M295.3,-157.5C309.25,-157.5 324.67,-157.5 337.66,-157.5"/>
<polygon fill="#63b8ff" stroke="#63b8ff" points="337.92,-161 347.92,-157.5 337.92,-154 337.92,-161"/>
</a>
</g>
</g>
<!-- Node7 -->
<g id="Node000007" class="node">
<title>Node7</title>
<g id="a_Node000007"><a xlink:href="zlib_2zutil_8c.html#a0659e28c2a1d3b0b2f8c3564c6645f9c" target="_top" xlink:title=" ">
<polygon fill="white" stroke="#666666" points="391,-130 346,-130 346,-111 391,-111 391,-130"/>
<text text-anchor="middle" x="368.5" y="-118" font-family="Helvetica,sans-Serif" font-size="10.00">calloc</text>
</a>
</g>
</g>
<!-- Node6&#45;&gt;Node7 -->
<g id="edge6_Node000006_Node000007" class="edge">
<title>Node6&#45;&gt;Node7</title>
<g id="a_edge6_Node000006_Node000007"><a xlink:title=" ">
<path fill="none" stroke="#63b8ff" d="M279.53,-106.36C295.97,-109 317.94,-112.53 335.81,-115.41"/>
<polygon fill="#63b8ff" stroke="#63b8ff" points="335.36,-118.88 345.79,-117.01 336.47,-111.97 335.36,-118.88"/>
</a>
</g>
</g>
<!-- Node8 -->
<g id="Node000008" class="node">
<title>Node8</title>
<g id="a_Node000008"><a xlink:href="zlib_2gzguts_8h.html#adacbf80ddc99f9a9e0f6aa2bbf1fb0e9" target="_top" xlink:title=" ">
<polygon fill="white" stroke="#666666" points="393.5,-93 343.5,-93 343.5,-74 393.5,-74 393.5,-93"/>
<text text-anchor="middle" x="368.5" y="-81" font-family="Helvetica,sans-Serif" font-size="10.00">malloc</text>
</a>
</g>
</g>
<!-- Node6&#45;&gt;Node8 -->
<g id="edge7_Node000006_Node000008" class="edge">
<title>Node6&#45;&gt;Node8</title>
<g id="a_edge7_Node000006_Node000008"><a xlink:title=" ">
<path fill="none" stroke="#63b8ff" d="M279.53,-98.42C295.07,-95.79 315.55,-92.31 332.85,-89.38"/>
<polygon fill="#63b8ff" stroke="#63b8ff" points="333.85,-92.76 343.13,-87.63 332.68,-85.86 333.85,-92.76"/>
</a>
</g>
</g>
<!-- Node10 -->
<g id="Node000010" class="node">
<title>Node10</title>
<g id="a_Node000010"><a xlink:href="zlib_2gzguts_8h.html#a6d9b026f3a32ae4cad5d108f9ee45986" target="_top" xlink:title=" ">
<polygon fill="white" stroke="#666666" points="386.5,-56 350.5,-56 350.5,-37 386.5,-37 386.5,-56"/>
<text text-anchor="middle" x="368.5" y="-44" font-family="Helvetica,sans-Serif" font-size="10.00">free</text>
</a>
</g>
</g>
<!-- Node9&#45;&gt;Node10 -->
<g id="edge9_Node000009_Node000010" class="edge">
<title>Node9&#45;&gt;Node10</title>
<g id="a_edge9_Node000009_Node000010"><a xlink:title=" ">
<path fill="none" stroke="#63b8ff" d="M278.16,-46.5C296.09,-46.5 321.19,-46.5 340.22,-46.5"/>
<polygon fill="#63b8ff" stroke="#63b8ff" points="340.36,-50 350.36,-46.5 340.36,-43 340.36,-50"/>
</a>
</g>
</g>
<!-- Node11 -->
<g id="Node000011" class="node">
<title>Node11</title>
<g id="a_Node000011"><a xlink:href="fmt_2include_2fmt_2format_8h.html#adb6e274f8eb0b74b2865215e1b49c535" target="_top" xlink:title=" ">
<polygon fill="white" stroke="#666666" points="383.5,-19 353.5,-19 353.5,0 383.5,0 383.5,-19"/>
<text text-anchor="middle" x="368.5" y="-7" font-family="Helvetica,sans-Serif" font-size="10.00">ptr</text>
</a>
</g>
</g>
<!-- Node9&#45;&gt;Node11 -->
<g id="edge10_Node000009_Node000011" class="edge">
<title>Node9&#45;&gt;Node11</title>
<g id="a_edge10_Node000009_Node000011"><a xlink:title=" ">
<path fill="none" stroke="#63b8ff" d="M278.16,-39.01C297.24,-32.71 324.42,-23.73 343.78,-17.34"/>
<polygon fill="#63b8ff" stroke="#63b8ff" points="344.97,-20.63 353.37,-14.17 342.78,-13.98 344.97,-20.63"/>
</a>
</g>
</g>
</g>
</svg>
</svg>

<style type='text/css'>
<![CDATA[
[data-mouse-over-selected='false'] { opacity: 0.7; }
[data-mouse-over-selected='true']  { opacity: 1.0; }
]]>
</style>
<script type="application/ecmascript"><![CDATA[
document.addEventListener('DOMContentLoaded', (event) => {
  highlightEdges();
  highlightAdjacentNodes();
});
]]></script>
</svg>
