<?xml version="1.0" encoding="UTF-8" standalone="no"?>
<!DOCTYPE svg PUBLIC "-//W3C//DTD SVG 1.1//EN"
 "http://www.w3.org/Graphics/SVG/1.1/DTD/svg11.dtd">
<!-- Generated by graphviz version 2.43.0 (0)
 -->
<!-- Title: deflateGetDictionary Pages: 1 -->
<svg width="268pt" height="64pt"
 viewBox="0.00 0.00 268.00 64.00" xmlns="http://www.w3.org/2000/svg" xmlns:xlink="http://www.w3.org/1999/xlink">
<g id="graph0" class="graph" transform="scale(1 1) rotate(0) translate(4 60)">
<title>deflateGetDictionary</title>
<!-- Node1 -->
<g id="Node000001" class="node">
<title>Node1</title>
<g id="a_Node000001"><a xlink:title=" ">
<polygon fill="#999999" stroke="#666666" points="118,-37 0,-37 0,-18 118,-18 118,-37"/>
<text text-anchor="middle" x="59" y="-25" font-family="Helvetica,sans-Serif" font-size="10.00">deflateGetDictionary</text>
</a>
</g>
</g>
<!-- Node2 -->
<g id="Node000002" class="node">
<title>Node2</title>
<g id="a_Node000002"><a xlink:href="zlib_2deflate_8c.html#a84dce64aa25e53f19dfa22af8749da51" target="_top" xlink:title=" ">
<polygon fill="white" stroke="#666666" points="260,-56 154,-56 154,-37 260,-37 260,-56"/>
<text text-anchor="middle" x="207" y="-44" font-family="Helvetica,sans-Serif" font-size="10.00">deflateStateCheck</text>
</a>
</g>
</g>
<!-- Node1&#45;&gt;Node2 -->
<g id="edge1_Node000001_Node000002" class="edge">
<title>Node1&#45;&gt;Node2</title>
<g id="a_edge1_Node000001_Node000002"><a xlink:title=" ">
<path fill="none" stroke="#63b8ff" d="M118.12,-35.06C126.49,-36.15 135.13,-37.28 143.58,-38.38"/>
<polygon fill="#63b8ff" stroke="#63b8ff" points="143.38,-41.88 153.75,-39.7 144.29,-34.94 143.38,-41.88"/>
</a>
</g>
</g>
<!-- Node3 -->
<g id="Node000003" class="node">
<title>Node3</title>
<g id="a_Node000003"><a xlink:href="StormLib_2src_2zlib_2zutil_8c.html#aac7aa2bbd8584b96c89e311b6c3409a5" target="_top" xlink:title=" ">
<polygon fill="white" stroke="#666666" points="239.5,-19 174.5,-19 174.5,0 239.5,0 239.5,-19"/>
<text text-anchor="middle" x="207" y="-7" font-family="Helvetica,sans-Serif" font-size="10.00">zmemcpy</text>
</a>
</g>
</g>
<!-- Node1&#45;&gt;Node3 -->
<g id="edge2_Node000001_Node000003" class="edge">
<title>Node1&#45;&gt;Node3</title>
<g id="a_edge2_Node000001_Node000003"><a xlink:title=" ">
<path fill="none" stroke="#63b8ff" d="M118.12,-20.33C133.48,-18.44 149.75,-16.43 164.07,-14.67"/>
<polygon fill="#63b8ff" stroke="#63b8ff" points="164.61,-18.13 174.11,-13.43 163.75,-11.18 164.61,-18.13"/>
</a>
</g>
</g>
</g>
</svg>
