<?xml version="1.0" encoding="UTF-8" standalone="no"?>
<!DOCTYPE svg PUBLIC "-//W3C//DTD SVG 1.1//EN"
 "http://www.w3.org/Graphics/SVG/1.1/DTD/svg11.dtd">
<!-- Generated by graphviz version 2.43.0 (0)
 -->
<!-- Title: flush_pending Pages: 1 -->
<svg width="299pt" height="64pt"
 viewBox="0.00 0.00 299.00 64.00" xmlns="http://www.w3.org/2000/svg" xmlns:xlink="http://www.w3.org/1999/xlink">
<g id="graph0" class="graph" transform="scale(1 1) rotate(0) translate(4 60)">
<title>flush_pending</title>
<!-- Node1 -->
<g id="Node000001" class="node">
<title>Node1</title>
<g id="a_Node000001"><a xlink:title=" ">
<polygon fill="#999999" stroke="#666666" points="84,-37 0,-37 0,-18 84,-18 84,-37"/>
<text text-anchor="middle" x="42" y="-25" font-family="Helvetica,sans-Serif" font-size="10.00">flush_pending</text>
</a>
</g>
</g>
<!-- Node2 -->
<g id="Node000002" class="node">
<title>Node2</title>
<g id="a_Node000002"><a xlink:href="zlib_2trees_8c.html#a7152f0344193f9c6f4ae640326a0641a" target="_top" xlink:title=" ">
<polygon fill="white" stroke="#666666" points="201,-56 120,-56 120,-37 201,-37 201,-56"/>
<text text-anchor="middle" x="160.5" y="-44" font-family="Helvetica,sans-Serif" font-size="10.00">_tr_flush_bits</text>
</a>
</g>
</g>
<!-- Node1&#45;&gt;Node2 -->
<g id="edge1_Node000001_Node000002" class="edge">
<title>Node1&#45;&gt;Node2</title>
<g id="a_edge1_Node000001_Node000002"><a xlink:title=" ">
<path fill="none" stroke="#63b8ff" d="M84.07,-34.2C92.45,-35.57 101.36,-37.02 110,-38.43"/>
<polygon fill="#63b8ff" stroke="#63b8ff" points="109.54,-41.9 119.97,-40.05 110.66,-34.99 109.54,-41.9"/>
</a>
</g>
</g>
<!-- Node4 -->
<g id="Node000004" class="node">
<title>Node4</title>
<g id="a_Node000004"><a xlink:href="StormLib_2src_2zlib_2zutil_8c.html#aac7aa2bbd8584b96c89e311b6c3409a5" target="_top" xlink:title=" ">
<polygon fill="white" stroke="#666666" points="193,-19 128,-19 128,0 193,0 193,-19"/>
<text text-anchor="middle" x="160.5" y="-7" font-family="Helvetica,sans-Serif" font-size="10.00">zmemcpy</text>
</a>
</g>
</g>
<!-- Node1&#45;&gt;Node4 -->
<g id="edge3_Node000001_Node000004" class="edge">
<title>Node1&#45;&gt;Node4</title>
<g id="a_edge3_Node000001_Node000004"><a xlink:title=" ">
<path fill="none" stroke="#63b8ff" d="M84.07,-21.15C95,-19.47 106.8,-17.64 117.76,-15.95"/>
<polygon fill="#63b8ff" stroke="#63b8ff" points="118.6,-19.36 127.95,-14.38 117.53,-12.44 118.6,-19.36"/>
</a>
</g>
</g>
<!-- Node3 -->
<g id="Node000003" class="node">
<title>Node3</title>
<g id="a_Node000003"><a xlink:href="StormLib_2src_2zlib_2trees_8c.html#ab3b46873b1a7611ee2ca275cfd1c8f79" target="_top" xlink:title=" ">
<polygon fill="white" stroke="#666666" points="291,-56 237,-56 237,-37 291,-37 291,-56"/>
<text text-anchor="middle" x="264" y="-44" font-family="Helvetica,sans-Serif" font-size="10.00">bi_flush</text>
</a>
</g>
</g>
<!-- Node2&#45;&gt;Node3 -->
<g id="edge2_Node000002_Node000003" class="edge">
<title>Node2&#45;&gt;Node3</title>
<g id="a_edge2_Node000002_Node000003"><a xlink:title=" ">
<path fill="none" stroke="#63b8ff" d="M201.03,-46.5C209.49,-46.5 218.38,-46.5 226.7,-46.5"/>
<polygon fill="#63b8ff" stroke="#63b8ff" points="226.87,-50 236.87,-46.5 226.87,-43 226.87,-50"/>
</a>
</g>
</g>
</g>
</svg>
